<svg xmlns="http://www.w3.org/2000/svg" width="512" height="512" fill="none" baseProfile="tiny-ps" version="1.2" viewBox="0 0 512 512"><title>secure</title><rect width="512" height="512" fill="#fff"/><path fill="#E94646" fill-rule="evenodd" d="M416 112C416 103.163 408.837 96 400 96C391.163 96 384 103.163 384 112V368C384 376.837 376.837 384 368 384H176C167.163 384 160 391.163 160 400C160 408.837 167.163 416 176 416H384H400C408.837 416 416 408.837 416 400V384V112Z"/><path fill="#FB7B05" fill-rule="evenodd" d="M352 176C352 167.163 344.837 160 336 160C327.163 160 320 167.163 320 176V304C320 312.837 312.837 320 304 320H176C167.163 320 160 327.163 160 336C160 344.837 167.163 352 176 352H320H336C344.837 352 352 344.837 352 336V320V176Z"/><path fill="#4ACA3F" fill-rule="evenodd" d="M288 176C288 167.163 280.837 160 272 160C263.163 160 256 167.163 256 176V240C256 248.837 248.837 256 240 256H176C167.163 256 160 263.163 160 272C160 280.837 167.163 288 176 288H256H272C280.837 288 288 280.837 288 272V256V176Z"/><path fill="#4180E9" fill-rule="evenodd" d="M112 96C103.163 96 96 103.163 96 112C96 120.837 103.163 128 112 128H336C344.837 128 352 120.837 352 112C352 103.163 344.837 96 336 96H112ZM128 176C128 167.163 120.837 160 112 160C103.163 160 96 167.163 96 176V400C96 408.837 103.163 416 112 416C120.837 416 128 408.837 128 400V176Z"/></svg>