<svg width="40" height="40" viewBox="0 0 40 40" fill="none" xmlns="http://www.w3.org/2000/svg">
<g clip-path="url(#clip0_12_1421)">
<path d="M30.4849 6.71828C29.6337 7.06303 28.7925 7.42659 27.9375 7.75755L27.9413 7.85408L27.9375 7.76632C26.0796 8.53355 24.2204 9.29827 22.3588 10.0592L22.3613 10.0743C21.5978 10.3676 20.8469 10.6886 20.0922 10.9995C18.7508 11.541 17.4219 12.1127 16.0718 12.6342C16.0179 12.6718 15.9113 12.7483 15.8586 12.7859C18.5026 12.7847 21.1503 12.7922 23.7942 12.7734C25.192 12.806 26.5898 12.7734 27.9876 12.7847C29.4343 12.7859 30.8798 12.7872 32.3265 12.7809C31.7235 10.7588 31.0929 8.74291 30.4849 6.72078V6.71828Z" fill="url(#paint0_linear_12_1421)"/>
<path d="M22.7436 8.70405C22.7436 8.70405 25.9693 7.38647 27.5213 6.75463C25.8828 4.54571 24.3596 2.25154 22.7148 0.0476384C22.6885 0.0137901 22.6734 0 22.6734 0L22.2848 0.250729C22.2848 0.250729 19.6271 2.22898 18.307 3.22813C17.432 3.87501 16.5644 4.53067 15.6931 5.18382C14.1687 6.33215 12.633 7.46921 11.1086 8.6188C9.25694 9.99906 7.41659 11.3956 5.55493 12.7633C7.4868 12.8335 9.42493 12.7696 11.3606 12.7884C11.9046 12.7608 12.4613 12.8524 12.9966 12.727C13.8942 12.3584 14.7918 11.9811 15.6931 11.6213V11.6037C16.6008 11.2652 17.4871 10.8728 18.386 10.5156C19.8364 9.9088 21.312 9.3409 22.7461 8.70655L22.7436 8.70405Z" fill="url(#paint1_linear_12_1421)"/>
<path d="M8.11735 16.5619C8.21012 16.4102 8.3079 16.261 8.40569 16.1143C10.1169 16.3099 11.8068 16.7048 13.414 17.3366C15.8059 18.2994 18.0149 19.7386 19.8201 21.5827C18.9375 22.1068 18.1553 22.7912 17.4896 23.5698C13.7023 22.1494 9.4412 22.034 5.58624 23.2588C5.73919 22.5167 5.89965 21.7745 6.11779 21.0474C6.6042 19.4804 7.2586 17.961 8.11735 16.5606V16.5619Z" fill="white"/>
<path d="M21.5088 23.5284C21.9902 23.5259 22.4728 23.5246 22.958 23.5259C23.0758 23.729 23.1987 23.9321 23.319 24.1364C23.8556 25.1055 24.3884 26.0758 24.9475 27.0311C25.5079 28.054 26.0783 29.0695 26.6575 30.0812C26.0896 30.0787 25.5242 30.0787 24.9575 30.0774C24.5464 29.2801 24.1364 28.484 23.7277 27.6867C22.7048 27.6779 21.6818 27.6942 20.6588 27.6767C20.2125 28.4665 19.8076 29.2801 19.3763 30.0787C18.8749 30.0787 18.3709 30.0787 17.8694 30.0849C19.0065 28.0553 20.1235 26.0156 21.2518 23.9797C21.337 23.8293 21.4223 23.6788 21.51 23.5296L21.5088 23.5284ZM22.1732 24.8109C21.861 25.4063 21.5326 25.9943 21.1979 26.576C21.8372 26.5672 22.4766 26.5672 23.1159 26.576C22.7925 25.9918 22.5104 25.3863 22.1732 24.8109Z" fill="white"/>
<path d="M8.71534 24.5501C11.3593 23.9045 14.1499 23.8568 16.8114 24.436C16.8114 24.4536 16.8139 24.4887 16.8151 24.5062C16.3801 25.1443 16.0667 25.8501 15.7708 26.5597C12.8975 26.8267 10.0881 27.787 7.6535 29.3353C7.73499 27.7669 8.00327 26.2149 8.41196 24.7005C8.50723 24.6391 8.60126 24.5752 8.71534 24.5501Z" fill="white"/>
<path d="M10.8929 29.2989C12.3409 28.5141 13.8967 27.9387 15.4926 27.54C15.2995 28.3424 15.2042 29.1673 15.218 29.9934C14.3003 30.5663 13.4454 31.2546 12.7621 32.0995C12.6443 32.2425 12.5302 32.3904 12.4224 32.5408C11.9698 33.1338 11.615 33.7895 11.3091 34.4652C10.8027 33.0962 10.6259 31.6094 10.7651 30.1589C10.8002 29.8706 10.8478 29.586 10.8929 29.2989Z" fill="white"/>
<path d="M22.1732 24.8109C22.1732 24.8109 22.7925 25.993 23.116 26.576C22.4766 26.5672 21.8372 26.5672 21.1979 26.576C21.5326 25.9943 22.1732 24.8109 22.1732 24.8109Z" fill="#2F7B3A"/>
<path d="M37.8688 37.1918C37.8576 36.0285 37.8688 34.8676 37.8651 33.7054C37.8651 33.2128 37.8651 32.7188 37.8638 32.2262C37.8638 31.5041 37.8651 30.7832 37.8663 30.0624C36.4246 30.0523 34.9817 30.0812 33.5413 30.0498C32.695 30.0385 31.8965 29.6587 31.2797 29.0945C30.1288 27.9487 29.9985 25.9893 31.0051 24.7093C31.6207 23.9521 32.5546 23.4544 33.5387 23.4306C34.9829 23.4206 36.4284 23.4343 37.8726 23.4243C37.8638 22.9066 37.8651 22.3888 37.8651 21.8711C37.8626 20.5547 37.8676 19.2384 37.8651 17.9221C37.8588 16.7136 37.8713 15.5051 37.8638 14.2978C37.8638 13.8101 37.3461 13.4466 36.886 13.4879C25.2171 13.4904 13.5494 13.4842 1.88175 13.4904C1.90306 13.33 1.92312 13.1695 1.93816 13.0091C2.11869 12.6818 2.3481 12.3597 2.70288 12.2067C3.30839 11.9422 3.98411 12.1302 4.62096 12.0525C5.26408 11.6137 5.86959 11.1186 6.50644 10.666C5.25029 10.6459 3.99163 10.6572 2.73548 10.6597C1.41915 10.6572 0.238222 11.7103 0.0150735 12.994C-0.0150139 14.4971 0.0138199 16.0015 0.00379075 17.5059C2.98183e-05 18.8247 0.00629803 20.1448 0.00379075 21.4649C0.00128346 22.523 0.00504439 23.581 0.00504439 24.6391C0.00128346 25.3324 0.00504439 26.0256 0.00379075 26.7189C2.98183e-05 28.123 0.00504439 29.5271 0.00379075 30.9299C0.00128346 31.8526 0.00504439 32.774 0.00379075 33.6967C-0.00247747 34.8676 0.0113126 36.0385 0.00128346 37.2094C-0.0275503 38.3289 0.730904 39.3895 1.76516 39.7894C2.30673 40.0175 2.90472 40.0038 3.4814 39.9975C14.0321 39.9912 24.584 40.0038 35.1346 39.9912C36.5939 39.9824 37.9516 38.6749 37.8688 37.1906V37.1918ZM21.2505 23.9784C21.3358 23.828 21.421 23.6776 21.5088 23.5284C21.9902 23.5259 22.4728 23.5246 22.958 23.5259C23.0758 23.729 23.1987 23.932 23.319 24.1364C23.8556 25.1055 24.3884 26.0758 24.9475 27.0311C25.5079 28.054 26.0783 29.0695 26.6575 30.0812C26.0896 30.0787 25.5242 30.0787 24.9576 30.0774C24.5464 29.2801 24.1364 28.484 23.7277 27.6867C22.7048 27.6779 21.6818 27.6942 20.6588 27.6767C20.2125 28.4665 19.8076 29.2801 19.3763 30.0787C18.8749 30.0787 18.3709 30.0787 17.8695 30.0849C19.0065 28.0553 20.1235 26.0156 21.2518 23.9797L21.2505 23.9784ZM6.11781 21.0499C6.60422 19.4829 7.25863 17.9634 8.11737 16.5631C8.21014 16.4114 8.30793 16.2623 8.40571 16.1156C10.1169 16.3111 11.8068 16.706 13.414 17.3379C15.806 18.3007 18.0149 19.7399 19.8201 21.584C18.9376 22.108 18.1553 22.7925 17.4896 23.571C13.7024 22.1506 9.44122 22.0353 5.58626 23.2601C5.73921 22.5179 5.89967 21.7758 6.11781 21.0487V21.0499ZM8.41198 24.7005C8.50725 24.6391 8.60128 24.5752 8.71536 24.5501C11.3593 23.9057 14.1499 23.8568 16.8114 24.436C16.8114 24.4536 16.8139 24.4887 16.8151 24.5062C16.3801 25.1443 16.0667 25.8501 15.7709 26.5597C12.8975 26.8267 10.0881 27.787 7.65352 29.3352C7.73501 27.7669 8.00329 26.2149 8.41198 24.7005ZM11.3091 34.4664C10.8027 33.0974 10.6259 31.6106 10.7651 30.1601C10.8002 29.8718 10.8478 29.5872 10.8929 29.3001C12.3409 28.5154 13.8967 27.9399 15.4926 27.5413C15.2995 28.3436 15.2042 29.1685 15.218 29.9947C14.3003 30.5676 13.4454 31.2558 12.7621 32.1008C12.6443 32.2437 12.5302 32.3916 12.4224 32.5421C11.9698 33.135 11.615 33.7907 11.3091 34.4664Z" fill="url(#paint2_linear_12_1421)"/>
<path d="M33.308 24.4222C33.4422 24.4135 33.5763 24.4084 33.7117 24.4059C33.5776 24.4084 33.4422 24.4135 33.308 24.4222Z" fill="url(#paint3_linear_12_1421)"/>
<path d="M33.2328 29.0645H33.2353H37.84V24.4235H33.3068C33.2704 24.426 33.2353 24.4272 33.199 24.431C33.1037 24.4385 33.0097 24.4473 32.9157 24.4586C31.988 24.7971 31.2546 25.6796 31.2609 26.6926C31.2095 27.7845 32.0206 28.7724 33.0548 29.0582C33.1037 29.0607 33.1514 29.062 33.2002 29.0632C33.2115 29.0632 33.2228 29.0632 33.2341 29.0645H33.2328ZM32.4493 26.6888C32.4456 26.2864 32.7214 25.9655 33.0084 25.7172C33.3645 25.538 33.7719 25.5317 34.1493 25.652C34.5479 25.904 34.8714 26.3365 34.8087 26.833C34.8074 27.2329 34.5228 27.5375 34.2383 27.782C33.881 27.9425 33.4836 27.9688 33.1163 27.8284C32.7351 27.5776 32.4042 27.1727 32.4493 26.6901V26.6888Z" fill="url(#paint4_linear_12_1421)"/>
<path d="M33.7669 24.4059C33.9023 24.4047 34.0377 24.4059 34.1731 24.4084C34.0377 24.4047 33.9023 24.4047 33.7669 24.4059Z" fill="url(#paint5_linear_12_1421)"/>
<path d="M33.7694 29.0808C33.5914 29.077 33.4146 29.072 33.2366 29.0632C33.4146 29.0707 33.5914 29.0783 33.7694 29.0808Z" fill="url(#paint6_linear_12_1421)"/>
<path d="M37.8412 24.4222C37.4338 24.4047 37.0289 24.4022 36.6227 24.4097C36.2679 24.4072 35.9144 24.4072 35.5633 24.4084C35.0995 24.4072 34.6357 24.4097 34.1731 24.4084C34.0377 24.4047 33.9023 24.4047 33.7669 24.4059C33.7481 24.4059 33.7305 24.4059 33.7117 24.4059C33.5776 24.4084 33.4422 24.4135 33.308 24.4222H37.8412Z" fill="url(#paint7_linear_12_1421)"/>
<path d="M37.8412 24.4222C37.4338 24.4047 37.0289 24.4022 36.6227 24.4097C36.2679 24.4072 35.9144 24.4072 35.5633 24.4084C35.0995 24.4072 34.6357 24.4097 34.1731 24.4084C34.0377 24.4047 33.9023 24.4047 33.7669 24.4059C33.7481 24.4059 33.7305 24.4059 33.7117 24.4059C33.5776 24.4084 33.4422 24.4135 33.308 24.4222H37.8412Z" fill="url(#paint8_linear_12_1421)"/>
<path d="M34.321 29.082C34.1367 29.0858 33.9524 29.0845 33.7681 29.082C33.9524 29.0858 34.1367 29.0858 34.321 29.082Z" fill="url(#paint9_linear_12_1421)"/>
<path d="M40.7472 32.3841C40.7447 26.062 40.7485 19.7411 40.7447 13.419C40.7434 11.9898 39.5023 10.6986 38.0707 10.6622C36.4134 10.651 34.756 10.6497 33.1 10.6635C33.2579 11.1261 33.4046 11.5912 33.5425 12.06C35.0005 12.0726 36.4572 12.0563 37.914 12.0688C38.626 12.0701 39.2967 12.6819 39.3105 13.4052C39.3206 16.7424 39.3068 20.0834 39.3168 23.4218C38.8279 23.759 38.3227 24.0725 37.8413 24.421V29.062H33.2366C33.4146 29.0695 33.5914 29.0758 33.7694 29.0795C33.9537 29.082 34.138 29.0833 34.3223 29.0795C34.7347 29.0795 35.1472 29.0808 35.5609 29.0795H36.6114C37.0139 29.077 37.4175 29.072 37.8199 29.0996C38.3565 28.8601 38.8191 28.4865 39.2992 28.1506C39.3331 30.703 39.3068 33.2579 39.3118 35.8103C40.2282 34.924 40.7622 33.6566 40.7459 32.3816L40.7472 32.3841Z" fill="url(#paint10_linear_12_1421)"/>
<path d="M40.7472 32.3841C40.7447 26.062 40.7485 19.7411 40.7447 13.419C40.7434 11.9898 39.5023 10.6986 38.0707 10.6622C36.4134 10.651 34.756 10.6497 33.1 10.6635C33.2579 11.1261 33.4046 11.5912 33.5425 12.06C35.0005 12.0726 36.4572 12.0563 37.914 12.0688C38.626 12.0701 39.2967 12.6819 39.3105 13.4052C39.3206 16.7424 39.3068 20.0834 39.3168 23.4218C38.8279 23.759 38.3227 24.0725 37.8413 24.421V29.062H33.2366C33.4146 29.0695 33.5914 29.0758 33.7694 29.0795C33.9537 29.082 34.138 29.0833 34.3223 29.0795C34.7347 29.0795 35.1472 29.0808 35.5609 29.0795H36.6114C37.0139 29.077 37.4175 29.072 37.8199 29.0996C38.3565 28.8601 38.8191 28.4865 39.2992 28.1506C39.3331 30.703 39.3068 33.2579 39.3118 35.8103C40.2282 34.924 40.7622 33.6566 40.7459 32.3816L40.7472 32.3841Z" fill="url(#paint11_linear_12_1421)"/>
<path d="M33.3081 24.4222H33.2003V24.4297C33.2366 24.4272 33.2717 24.4247 33.3081 24.4222Z" fill="url(#paint12_linear_12_1421)"/>
<path d="M33.2003 24.4297C33.2366 24.4272 33.2717 24.4247 33.3081 24.4222C33.2717 24.4247 33.2366 24.426 33.2003 24.4297Z" fill="url(#paint13_linear_12_1421)"/>
<path d="M33.2003 24.4297C33.2366 24.4272 33.2717 24.4247 33.3081 24.4222C33.2717 24.4247 33.2366 24.426 33.2003 24.4297Z" fill="url(#paint14_linear_12_1421)"/>
<path d="M33.2003 29.0632L33.2366 29.0645H33.2341C33.2228 29.0645 33.2115 29.0645 33.2003 29.0632Z" fill="url(#paint15_linear_12_1421)"/>
<path d="M33.2003 29.0632C33.2115 29.0632 33.2228 29.0632 33.2341 29.0645C33.2228 29.0645 33.2115 29.0645 33.2003 29.0632Z" fill="url(#paint16_linear_12_1421)"/>
<path d="M33.2003 29.0632C33.2115 29.0632 33.2228 29.0632 33.2341 29.0645C33.2228 29.0645 33.2115 29.0645 33.2003 29.0632Z" fill="url(#paint17_linear_12_1421)"/>
</g>
<defs>
<linearGradient id="paint0_linear_12_1421" x1="15.8586" y1="9.75209" x2="32.3265" y2="9.75209" gradientUnits="userSpaceOnUse">
<stop stop-color="#499540"/>
<stop offset="0.5" stop-color="#3F8A3E"/>
<stop offset="1" stop-color="#165B30"/>
</linearGradient>
<linearGradient id="paint1_linear_12_1421" x1="5.55368" y1="6.3986" x2="27.5213" y2="6.3986" gradientUnits="userSpaceOnUse">
<stop stop-color="#499540"/>
<stop offset="0.5" stop-color="#3F8A3E"/>
<stop offset="1" stop-color="#165B30"/>
</linearGradient>
<linearGradient id="paint2_linear_12_1421" x1="18.9363" y1="40" x2="18.9363" y2="10.6522" gradientUnits="userSpaceOnUse">
<stop stop-color="#165B30"/>
<stop offset="1" stop-color="#529F43"/>
</linearGradient>
<linearGradient id="paint3_linear_12_1421" x1="31.2596" y1="24.4147" x2="40.7472" y2="24.4147" gradientUnits="userSpaceOnUse">
<stop stop-color="#13582F"/>
<stop offset="1" stop-color="#5DAF46"/>
</linearGradient>
<linearGradient id="paint4_linear_12_1421" x1="31.2596" y1="26.7427" x2="40.7472" y2="26.7427" gradientUnits="userSpaceOnUse">
<stop stop-color="#13582F"/>
<stop offset="1" stop-color="#5DAF46"/>
</linearGradient>
<linearGradient id="paint5_linear_12_1421" x1="31.2596" y1="24.4059" x2="40.7472" y2="24.4059" gradientUnits="userSpaceOnUse">
<stop stop-color="#13582F"/>
<stop offset="1" stop-color="#5DAF46"/>
</linearGradient>
<linearGradient id="paint6_linear_12_1421" x1="31.2596" y1="29.0732" x2="40.7472" y2="29.0732" gradientUnits="userSpaceOnUse">
<stop stop-color="#13582F"/>
<stop offset="1" stop-color="#5DAF46"/>
</linearGradient>
<linearGradient id="paint7_linear_12_1421" x1="31.2596" y1="24.4135" x2="40.7472" y2="24.4135" gradientUnits="userSpaceOnUse">
<stop stop-color="#13582F"/>
<stop offset="1" stop-color="#5DAF46"/>
</linearGradient>
<linearGradient id="paint8_linear_12_1421" x1="31.2596" y1="24.4135" x2="40.7472" y2="24.4135" gradientUnits="userSpaceOnUse">
<stop stop-color="#499540"/>
<stop offset="1" stop-color="#5DAF46"/>
</linearGradient>
<linearGradient id="paint9_linear_12_1421" x1="31.2596" y1="29.0833" x2="40.7472" y2="29.0833" gradientUnits="userSpaceOnUse">
<stop stop-color="#499540"/>
<stop offset="1" stop-color="#5DAF46"/>
</linearGradient>
<linearGradient id="paint10_linear_12_1421" x1="31.2596" y1="23.2338" x2="40.7472" y2="23.2338" gradientUnits="userSpaceOnUse">
<stop stop-color="#13582F"/>
<stop offset="1" stop-color="#5DAF46"/>
</linearGradient>
<linearGradient id="paint11_linear_12_1421" x1="31.2596" y1="23.2338" x2="40.7472" y2="23.2338" gradientUnits="userSpaceOnUse">
<stop stop-color="#499540"/>
<stop offset="1" stop-color="#5DAF46"/>
</linearGradient>
<linearGradient id="paint12_linear_12_1421" x1="33.2003" y1="24.426" x2="37.8413" y2="24.426" gradientUnits="userSpaceOnUse">
<stop stop-color="#499540"/>
<stop offset="1" stop-color="#5DAF46"/>
</linearGradient>
<linearGradient id="paint13_linear_12_1421" x1="31.2596" y1="24.426" x2="40.7473" y2="24.426" gradientUnits="userSpaceOnUse">
<stop stop-color="#13582F"/>
<stop offset="1" stop-color="#5DAF46"/>
</linearGradient>
<linearGradient id="paint14_linear_12_1421" x1="33.2003" y1="24.426" x2="37.8413" y2="24.426" gradientUnits="userSpaceOnUse">
<stop stop-color="#499540"/>
<stop offset="1" stop-color="#5DAF46"/>
</linearGradient>
<linearGradient id="paint15_linear_12_1421" x1="33.2003" y1="29.0632" x2="37.8414" y2="29.0632" gradientUnits="userSpaceOnUse">
<stop stop-color="#499540"/>
<stop offset="1" stop-color="#5DAF46"/>
</linearGradient>
<linearGradient id="paint16_linear_12_1421" x1="31.2595" y1="29.0632" x2="40.7477" y2="29.0632" gradientUnits="userSpaceOnUse">
<stop stop-color="#13582F"/>
<stop offset="1" stop-color="#5DAF46"/>
</linearGradient>
<linearGradient id="paint17_linear_12_1421" x1="33.2003" y1="29.0632" x2="37.8416" y2="29.0632" gradientUnits="userSpaceOnUse">
<stop stop-color="#499540"/>
<stop offset="1" stop-color="#5DAF46"/>
</linearGradient>
<clipPath id="clip0_12_1421">
<rect width="40" height="40" fill="white"/>
</clipPath>
</defs>
</svg>
