<svg width="140" height="40" viewBox="0 0 140 40" fill="none" xmlns="http://www.w3.org/2000/svg">
<g clip-path="url(#clip0_12_1299)">
<path d="M30.2107 7C29.3837 7.34077 28.5664 7.70014 27.7357 8.02728L27.7393 8.12269L27.7357 8.03595C25.9306 8.79433 24.1242 9.55023 22.3155 10.3024L22.3179 10.3173C21.5761 10.6072 20.8465 10.9245 20.1133 11.2318C18.81 11.7671 17.5189 12.3322 16.2071 12.8477C16.1547 12.8849 16.0512 12.9604 16 12.9976C18.5688 12.9964 21.1413 13.0038 23.7101 12.9852C25.0682 13.0174 26.4263 12.9852 27.7844 12.9964C29.19 12.9976 30.5944 12.9989 32 12.9927C31.4141 10.9939 30.8015 9.00127 30.2107 7.00248V7Z" fill="url(#paint0_linear_12_1299)"/>
<path d="M23.215 8.842C23.215 8.842 26.4456 7.50354 28 6.86169C26.359 4.61776 24.8335 2.28723 23.1862 0.0483935C23.1598 0.0140086 23.1447 0 23.1447 0L22.7555 0.254703C22.7555 0.254703 20.0937 2.26431 18.7716 3.2793C17.8952 3.93643 17.0264 4.60248 16.1537 5.26598C14.627 6.43251 13.0889 7.58759 11.5622 8.7554C9.70768 10.1575 7.86451 11.5762 6 12.9656C7.93482 13.037 9.87593 12.972 11.8145 12.9911C12.3594 12.9631 12.9169 13.0561 13.453 12.9287C14.352 12.5543 15.251 12.171 16.1537 11.8055V11.7876C17.0628 11.4438 17.9505 11.0452 18.8507 10.6822C20.3034 10.0658 21.7812 9.48895 23.2176 8.84455L23.215 8.842Z" fill="url(#paint1_linear_12_1299)"/>
<path d="M8.48952 16.4202C8.58076 16.2778 8.67694 16.1377 8.77312 16C10.4562 16.1836 12.1184 16.5544 13.6991 17.1476C16.0518 18.0516 18.2244 19.4029 20 21.1344C19.1319 21.6264 18.3625 22.269 17.7078 23C13.9827 21.6664 9.79162 21.5581 6 22.7081C6.15043 22.0113 6.30826 21.3144 6.52281 20.6317C7.00123 19.1604 7.64488 17.7338 8.48952 16.419V16.4202Z" fill="white"/>
<path d="M21.7271 24.0032C22.2201 24.0005 22.7144 23.9992 23.2113 24.0005C23.332 24.2173 23.4578 24.434 23.581 24.652C24.1305 25.6862 24.6762 26.7217 25.2488 27.7411C25.8227 28.8327 26.4068 29.9164 27 30.996C26.4184 30.9933 25.8394 30.9933 25.2591 30.992C24.8379 30.1411 24.4181 29.2916 23.9996 28.4408C22.9519 28.4314 21.9043 28.4488 20.8566 28.43C20.3996 29.2729 19.9849 30.1411 19.5432 30.9933C19.0297 30.9933 18.5136 30.9933 18 31C19.1645 28.8341 20.3084 26.6574 21.4639 24.4848C21.5512 24.3243 21.6385 24.1637 21.7284 24.0045L21.7271 24.0032ZM22.4076 25.3718C22.0879 26.0073 21.7515 26.6347 21.4087 27.2554C22.0635 27.2461 22.7183 27.2461 23.373 27.2554C23.0418 26.632 22.7529 25.9859 22.4076 25.3718Z" fill="white"/>
<path d="M9.0431 24.4887C11.6404 23.88 14.3818 23.8351 16.9963 24.3811C16.9963 24.3977 16.9988 24.4308 17 24.4473C16.5727 25.0489 16.2648 25.7143 15.9741 26.3833C13.1515 26.635 10.3916 27.5404 8 29C8.08005 27.5214 8.3436 26.0582 8.74507 24.6305C8.83867 24.5726 8.93103 24.5123 9.0431 24.4887Z" fill="white"/>
<path d="M11.1819 29.7779C12.6987 28.9846 14.3283 28.403 16 28C15.7978 28.811 15.698 29.6448 15.7124 30.4799C14.7512 31.059 13.8556 31.7547 13.1399 32.6088C13.0165 32.7533 12.897 32.9028 12.784 33.0549C12.31 33.6542 11.9383 34.317 11.6179 35C11.0874 33.6162 10.9022 32.1133 11.048 30.6472C11.0848 30.3557 11.1347 30.0681 11.1819 29.7779Z" fill="white"/>
<path d="M22.017 25C22.017 25 22.6627 26.3395 23 27C22.3333 26.9901 21.6667 26.9901 21 27C21.349 26.3409 22.017 25 22.017 25Z" fill="#2F7B3A"/>
<path d="M37.9962 37.2248C37.9849 36.0751 37.9962 34.9279 37.9925 33.7795C37.9925 33.2926 37.9925 32.8045 37.9912 32.3176C37.9912 31.604 37.9925 30.8917 37.9937 30.1793C36.5471 30.1694 35.0993 30.1979 33.654 30.1669C32.805 30.1558 32.0037 29.7804 31.3848 29.2229C30.2301 28.0906 30.0993 26.1542 31.1094 24.8894C31.727 24.1411 32.6641 23.6493 33.6515 23.6257C35.1006 23.6158 36.5509 23.6294 38 23.6195C37.9912 23.1079 37.9925 22.5962 37.9925 22.0846C37.9899 20.7837 37.995 19.4829 37.9925 18.1821C37.9862 16.9879 37.9987 15.7936 37.9912 14.6006C37.9912 14.1186 37.4717 13.7594 37.0101 13.8002C25.3017 13.8027 13.5947 13.7965 1.88761 13.8027C1.909 13.6442 1.92912 13.4856 1.94422 13.327C2.12535 13.0037 2.35554 12.6853 2.71152 12.5341C3.31908 12.2727 3.99707 12.4586 4.63607 12.3817C5.28136 11.9481 5.88892 11.4588 6.52792 11.0116C5.26753 10.9917 4.00462 11.0029 2.74423 11.0054C1.42346 11.0029 0.238537 12.0435 0.0146345 13.3121C-0.0155545 14.7975 0.0133766 16.2842 0.00331362 17.7708C-0.000460011 19.0741 0.00582937 20.3786 0.00331362 21.6832C0.000797866 22.7288 0.0045715 23.7744 0.0045715 24.82C0.000797866 25.5051 0.0045715 26.1902 0.00331362 26.8753C-0.000460011 28.2628 0.0045715 29.6503 0.00331362 31.0366C0.000797866 31.9484 0.0045715 32.859 0.00331362 33.7708C-0.00297577 34.9279 0.0108609 36.085 0.000797866 37.2421C-0.0281333 38.3484 0.732882 39.3965 1.77063 39.7917C2.31403 40.0172 2.91404 40.0035 3.49266 39.9974C14.079 39.9912 24.6665 40.0036 35.2528 39.9912C36.717 39.9825 38.0792 38.6904 37.9962 37.2235V37.2248ZM21.3218 24.1671C21.4073 24.0184 21.4929 23.8698 21.5809 23.7223C22.064 23.7199 22.5482 23.7186 23.035 23.7199C23.1533 23.9206 23.2766 24.1213 23.3973 24.3232C23.9357 25.2808 24.4703 26.2397 25.0313 27.1837C25.5936 28.1947 26.1659 29.1981 26.747 30.1979C26.1772 30.1954 25.6099 30.1954 25.0414 30.1942C24.6288 29.4063 24.2174 28.6196 23.8074 27.8317C22.7809 27.823 21.7545 27.8391 20.7281 27.8218C20.2803 28.6022 19.874 29.4063 19.4413 30.1954C18.9381 30.1954 18.4325 30.1954 17.9293 30.2016C19.0702 28.1959 20.191 26.1803 21.3231 24.1683L21.3218 24.1671ZM6.13798 21.2731C6.62604 19.7245 7.28265 18.223 8.14429 16.8392C8.23738 16.6893 8.33549 16.5419 8.43361 16.3969C10.1506 16.5902 11.8462 16.9804 13.4588 17.6048C15.8589 18.5563 18.0752 19.9785 19.8866 21.8009C19.001 22.3187 18.2161 22.9951 17.5482 23.7645C13.7481 22.3608 9.47261 22.2469 5.60464 23.4572C5.7581 22.7238 5.91911 21.9904 6.13798 21.2719V21.2731ZM8.43989 24.8807C8.53549 24.82 8.62983 24.7568 8.7443 24.732C11.3972 24.0952 14.1972 24.0469 16.8677 24.6193C16.8677 24.6366 16.8702 24.6713 16.8714 24.6887C16.435 25.3192 16.1205 26.0167 15.8236 26.7179C12.9406 26.9818 10.1217 27.9308 7.67888 29.4608C7.76064 27.911 8.02983 26.3772 8.43989 24.8807ZM11.3468 34.5315C10.8387 33.1786 10.6613 31.7093 10.8009 30.276C10.8362 29.991 10.8839 29.7098 10.9292 29.4261C12.3821 28.6506 13.9431 28.0819 15.5444 27.688C15.3507 28.4808 15.2551 29.296 15.2689 30.1124C14.3481 30.6786 13.4903 31.3587 12.8047 32.1937C12.6865 32.335 12.572 32.4811 12.4638 32.6298C12.0097 33.2158 11.6538 33.8637 11.3468 34.5315Z" fill="url(#paint2_linear_12_1299)"/>
<path d="M33.2679 24.4221C33.4021 24.4133 33.5362 24.4083 33.6716 24.4058C33.5375 24.4083 33.4021 24.4133 33.2679 24.4221Z" fill="url(#paint3_linear_12_1299)"/>
<path d="M33.1928 29.0644H33.1953H37.7944V24.4234H33.2666C33.2303 24.4259 33.1953 24.4272 33.159 24.431C33.0638 24.4385 32.9699 24.4473 32.876 24.4585C31.9494 24.797 31.2169 25.6796 31.2231 26.6925C31.1718 27.7844 31.9819 28.7723 33.015 29.0581C33.0638 29.0606 33.1114 29.0619 33.1602 29.0631C33.1715 29.0631 33.1828 29.0631 33.194 29.0644H33.1928ZM32.4102 26.6888C32.4064 26.2863 32.6819 25.9654 32.9686 25.7172C33.3242 25.5379 33.7312 25.5316 34.1081 25.652C34.5063 25.904 34.8293 26.3365 34.7667 26.8329C34.7655 27.2328 34.4812 27.5375 34.197 27.7819C33.8401 27.9424 33.4432 27.9687 33.0763 27.8283C32.6957 27.5776 32.3651 27.1727 32.4102 26.69V26.6888Z" fill="url(#paint4_linear_12_1299)"/>
<path d="M33.7262 24.4058C33.8616 24.4046 33.997 24.4058 34.1324 24.4083C33.997 24.4046 33.8616 24.4046 33.7262 24.4058Z" fill="url(#paint5_linear_12_1299)"/>
<path d="M33.7293 29.0806C33.5513 29.0769 33.3746 29.0719 33.1965 29.0631C33.3746 29.0706 33.5513 29.0781 33.7293 29.0806Z" fill="url(#paint6_linear_12_1299)"/>
<path d="M37.7957 24.4221C37.3888 24.4046 36.9843 24.4021 36.5786 24.4096C36.2243 24.4071 35.8712 24.4071 35.5206 24.4083C35.0573 24.4071 34.594 24.4096 34.1319 24.4083C33.9967 24.4046 33.8615 24.4046 33.7262 24.4058C33.7074 24.4058 33.6899 24.4058 33.6711 24.4058C33.5372 24.4083 33.4019 24.4133 33.2679 24.4221H37.7957Z" fill="url(#paint7_linear_12_1299)"/>
<path d="M37.7957 24.4221C37.3888 24.4046 36.9843 24.4021 36.5786 24.4096C36.2243 24.4071 35.8712 24.4071 35.5206 24.4083C35.0573 24.4071 34.594 24.4096 34.1319 24.4083C33.9967 24.4046 33.8615 24.4046 33.7262 24.4058C33.7074 24.4058 33.6899 24.4058 33.6711 24.4058C33.5372 24.4083 33.4019 24.4133 33.2679 24.4221H37.7957Z" fill="url(#paint8_linear_12_1299)"/>
<path d="M34.2803 29.0819C34.096 29.0857 33.9117 29.0844 33.7274 29.0819C33.9117 29.0857 34.096 29.0857 34.2803 29.0819Z" fill="url(#paint9_linear_12_1299)"/>
<path d="M40.6982 32.384C40.6957 26.0619 40.6994 19.741 40.6957 13.4189C40.6944 11.9898 39.4548 10.6985 38.0248 10.6622C36.3695 10.6509 34.7141 10.6497 33.0601 10.6634C33.2178 11.126 33.3643 11.5911 33.5021 12.06C34.9583 12.0725 36.4133 12.0562 37.8683 12.0688C38.5795 12.07 39.2494 12.6818 39.2632 13.4051C39.2732 16.7423 39.2595 20.0833 39.2695 23.4217C38.7811 23.7589 38.2765 24.0724 37.7957 24.4209V29.0618H33.1965C33.3743 29.0694 33.5509 29.0756 33.7287 29.0794C33.9128 29.0819 34.0968 29.0831 34.2809 29.0794C34.6929 29.0794 35.1048 29.0806 35.518 29.0794H36.5673C36.9693 29.0769 37.3725 29.0719 37.7744 29.0994C38.3103 28.86 38.7724 28.4864 39.2519 28.1504C39.2858 30.7028 39.2595 33.2578 39.2645 35.8102C40.1798 34.9238 40.7132 33.6564 40.6969 32.3815L40.6982 32.384Z" fill="url(#paint10_linear_12_1299)"/>
<path d="M40.6982 32.384C40.6957 26.0619 40.6994 19.741 40.6957 13.4189C40.6944 11.9898 39.4548 10.6985 38.0248 10.6622C36.3695 10.6509 34.7141 10.6497 33.0601 10.6634C33.2178 11.126 33.3643 11.5911 33.5021 12.06C34.9583 12.0725 36.4133 12.0562 37.8683 12.0688C38.5795 12.07 39.2494 12.6818 39.2632 13.4051C39.2732 16.7423 39.2595 20.0833 39.2695 23.4217C38.7811 23.7589 38.2765 24.0724 37.7957 24.4209V29.0618H33.1965C33.3743 29.0694 33.5509 29.0756 33.7287 29.0794C33.9128 29.0819 34.0968 29.0831 34.2809 29.0794C34.6929 29.0794 35.1048 29.0806 35.518 29.0794H36.5673C36.9693 29.0769 37.3725 29.0719 37.7744 29.0994C38.3103 28.86 38.7724 28.4864 39.2519 28.1504C39.2858 30.7028 39.2595 33.2578 39.2645 35.8102C40.1798 34.9238 40.7132 33.6564 40.6969 32.3815L40.6982 32.384Z" fill="url(#paint11_linear_12_1299)"/>
<path d="M33.268 24.4221H33.1602V24.4296C33.1965 24.4271 33.2316 24.4246 33.268 24.4221Z" fill="url(#paint12_linear_12_1299)"/>
<path d="M33.1602 24.4296C33.1965 24.4271 33.2316 24.4246 33.268 24.4221C33.2316 24.4246 33.1965 24.4259 33.1602 24.4296Z" fill="url(#paint13_linear_12_1299)"/>
<path d="M33.1602 24.4296C33.1965 24.4271 33.2316 24.4246 33.268 24.4221C33.2316 24.4246 33.1965 24.4259 33.1602 24.4296Z" fill="url(#paint14_linear_12_1299)"/>
<path d="M33.1602 29.0631L33.1965 29.0643H33.194C33.1827 29.0643 33.1714 29.0643 33.1602 29.0631Z" fill="url(#paint15_linear_12_1299)"/>
<path d="M33.1602 29.0631C33.1714 29.0631 33.1827 29.0631 33.194 29.0643C33.1827 29.0643 33.1714 29.0643 33.1602 29.0631Z" fill="url(#paint16_linear_12_1299)"/>
<path d="M33.1602 29.0631C33.1714 29.0631 33.1827 29.0631 33.194 29.0643C33.1827 29.0643 33.1714 29.0643 33.1602 29.0631Z" fill="url(#paint17_linear_12_1299)"/>
<path d="M47.7878 29.2624C49.9916 25.43 52.1291 21.5576 54.3366 17.7264C55.2018 17.739 56.0658 17.7327 56.9323 17.7289C59.1887 21.6152 61.3925 25.5303 63.6526 29.4129C62.6434 29.4129 61.6316 29.4103 60.6224 29.4129L60.5548 29.3702C59.8223 27.9611 59.0835 26.5571 58.3385 25.1542C56.464 25.1605 54.5895 25.1542 52.7151 25.158C51.95 26.5734 51.1949 27.9937 50.4324 29.4103C49.4833 29.3828 48.5216 29.4693 47.5787 29.3665C47.6313 29.3414 47.7353 29.2875 47.7878 29.2612V29.2624ZM53.7481 23.166C54.9051 23.181 56.0621 23.166 57.2178 23.1735C56.6631 22.1217 56.0921 21.0799 55.5524 20.0206C54.9301 21.0574 54.3679 22.128 53.7481 23.1672V23.166Z" fill="#0C783C"/>
<path d="M64.7783 17.734C68.1879 17.7315 71.5962 17.734 75.0058 17.734C75.6657 17.734 76.3807 17.848 76.8803 18.3182C77.3473 18.7619 77.3862 19.454 77.3974 20.0595C77.4012 21.2291 77.4062 22.3962 77.3949 23.5659C77.3987 24.2692 77.1395 25.0828 76.4508 25.3924C75.8135 25.667 75.0997 25.6482 74.4186 25.6494C72.1109 25.6457 69.8031 25.6545 67.4954 25.6444C67.4829 26.8981 67.4804 28.153 67.4979 29.4066C66.5889 29.4166 65.6798 29.4154 64.7708 29.4066C64.7945 25.514 64.777 21.624 64.7795 17.7327L64.7783 17.734ZM67.4829 20.3491C67.4892 21.2893 67.4854 22.232 67.4854 23.1722C69.554 23.1697 71.6225 23.1773 73.6911 23.1685C74.0817 23.176 74.5676 23.0306 74.659 22.5956C74.7066 22.0352 74.7066 21.4635 74.659 20.9044C74.5676 20.4707 74.0755 20.3503 73.6923 20.3516C71.6238 20.344 69.554 20.3491 67.4842 20.3491H67.4829Z" fill="#0C783C"/>
<path d="M80.0657 17.7327C83.4941 17.7327 86.9225 17.7327 90.3522 17.7327C91.0058 17.7365 91.712 17.8606 92.1941 18.342C92.6461 18.787 92.6762 19.464 92.6987 20.0595C92.7012 21.2279 92.7087 22.3962 92.6949 23.5646C92.6812 24.1714 92.5071 24.8383 92.01 25.2307C91.5379 25.5792 90.9219 25.6081 90.3584 25.6432C87.8328 25.6557 85.3072 25.6382 82.7804 25.6519C82.7979 26.9043 82.7804 28.158 82.7917 29.4104C81.8826 29.4104 80.9735 29.4104 80.0632 29.4104C80.067 25.5166 80.0632 21.6253 80.0657 17.7315V17.7327ZM82.7842 20.3465C82.7879 21.2868 82.7929 22.2283 82.7817 23.1685C84.8239 23.1773 86.8662 23.171 88.9097 23.171C89.2991 23.176 89.8175 23.0857 89.939 22.6457C90.0103 22.2709 89.959 21.8835 89.9765 21.5062C89.969 21.1802 90.0266 20.7753 89.7349 20.5471C89.4218 20.3303 89.0211 20.3528 88.6593 20.3465C86.7021 20.3491 84.7425 20.3491 82.7854 20.3465H82.7842Z" fill="#0C783C"/>
<path d="M96.5829 17.8556C96.9548 17.7678 97.3367 17.7289 97.7186 17.7315C100.697 17.7365 103.676 17.7277 106.654 17.7352C107.348 17.7678 108.149 17.8856 108.595 18.4836C108.965 19.0026 109.008 19.6721 109.017 20.2901C109.017 22.5103 109.019 24.7293 109.017 26.9495C109.002 27.5838 108.945 28.2908 108.505 28.786C108.015 29.3289 107.229 29.3978 106.544 29.4116C103.564 29.4116 100.582 29.4116 97.6022 29.4116C96.9435 29.4003 96.1973 29.3376 95.7077 28.8437C95.2431 28.3836 95.158 27.6866 95.1367 27.0648C95.1292 24.8082 95.1367 22.5542 95.1329 20.2977C95.1367 19.7097 95.1968 19.0904 95.5023 18.5752C95.7302 18.1828 96.1547 17.9559 96.5854 17.8568L96.5829 17.8556ZM97.8513 20.349C97.8601 22.5028 97.8589 24.6553 97.8513 26.809C100.67 26.8153 103.49 26.809 106.308 26.8116C106.308 24.6565 106.308 22.5028 106.308 20.3478C103.489 20.3503 100.67 20.3478 97.8501 20.3478L97.8513 20.349Z" fill="#0C783C"/>
<path d="M110.665 17.7327C115.145 17.7327 119.624 17.7352 124.104 17.7327C124.106 18.604 124.098 19.4765 124.108 20.3491C122.322 20.3491 120.535 20.3541 118.751 20.3453C118.751 23.3678 118.749 26.3891 118.751 29.4116C117.837 29.4141 116.923 29.4116 116.009 29.4116C116.014 26.9733 116.009 24.5324 116.009 22.0941C114.656 22.0916 113.305 22.0991 111.952 22.0904C111.952 21.9399 111.952 21.7907 111.952 21.6416C113.302 21.6353 114.653 21.639 116.005 21.6416C116.013 21.2116 116.008 20.7791 116.015 20.3503C114.229 20.3428 112.443 20.3553 110.657 20.344C110.675 19.474 110.663 18.6027 110.665 17.7327Z" fill="#0C783C"/>
<path d="M130.6 17.7327C131.473 17.7327 132.347 17.7327 133.221 17.7327C135.273 21.2918 137.31 24.8596 139.356 28.4237C139.558 28.7597 139.713 29.1308 140 29.4091C138.956 29.4154 137.91 29.4129 136.866 29.4091C136.116 27.995 135.366 26.5796 134.622 25.1618C132.759 25.1492 130.894 25.1618 129.031 25.1555C128.249 26.5684 127.487 27.995 126.71 29.4104C125.801 29.4129 124.892 29.4078 123.984 29.4141C126.206 25.5291 128.389 21.6228 130.599 17.7315L130.6 17.7327ZM131.798 20.0394C131.234 21.09 130.651 22.1317 130.055 23.166C131.202 23.176 132.351 23.1748 133.5 23.166C132.905 22.138 132.423 21.0461 131.798 20.0382V20.0394Z" fill="#0C783C"/>
<path d="M125.39 19.0365C125.549 19.0365 125.712 19.034 125.874 19.034C125.872 20.0519 125.874 21.0711 125.874 22.0891C124.088 22.1004 122.3 22.0891 120.513 22.0941C120.513 25.1179 120.507 28.1417 120.517 31.1642C119.494 31.1742 118.471 31.1679 117.448 31.1679C117.448 31.015 117.448 30.8621 117.451 30.7104C118.314 30.7166 119.175 30.7104 120.039 30.7141C120.043 27.6891 120.044 24.6653 120.039 21.6415C121.826 21.619 123.618 21.6704 125.406 21.6165C125.394 20.7565 125.415 19.8965 125.392 19.0365H125.39Z" fill="#0C783C"/>
</g>
<defs>
<linearGradient id="paint0_linear_12_1299" x1="16" y1="9.99881" x2="32" y2="9.99881" gradientUnits="userSpaceOnUse">
<stop stop-color="#499540"/>
<stop offset="0.5" stop-color="#3F8A3E"/>
<stop offset="1" stop-color="#165B30"/>
</linearGradient>
<linearGradient id="paint1_linear_12_1299" x1="5.99874" y1="6.50001" x2="28" y2="6.50001" gradientUnits="userSpaceOnUse">
<stop stop-color="#499540"/>
<stop offset="0.5" stop-color="#3F8A3E"/>
<stop offset="1" stop-color="#165B30"/>
</linearGradient>
<linearGradient id="paint2_linear_12_1299" x1="18.9998" y1="39.9998" x2="18.9998" y2="10.9979" gradientUnits="userSpaceOnUse">
<stop stop-color="#165B30"/>
<stop offset="1" stop-color="#529F43"/>
</linearGradient>
<linearGradient id="paint3_linear_12_1299" x1="31.2195" y1="24.4146" x2="40.7071" y2="24.4146" gradientUnits="userSpaceOnUse">
<stop stop-color="#13582F"/>
<stop offset="1" stop-color="#5DAF46"/>
</linearGradient>
<linearGradient id="paint4_linear_12_1299" x1="31.2219" y1="26.7427" x2="40.6982" y2="26.7427" gradientUnits="userSpaceOnUse">
<stop stop-color="#13582F"/>
<stop offset="1" stop-color="#5DAF46"/>
</linearGradient>
<linearGradient id="paint5_linear_12_1299" x1="31.2189" y1="24.4058" x2="40.7065" y2="24.4058" gradientUnits="userSpaceOnUse">
<stop stop-color="#13582F"/>
<stop offset="1" stop-color="#5DAF46"/>
</linearGradient>
<linearGradient id="paint6_linear_12_1299" x1="31.2195" y1="29.0731" x2="40.7071" y2="29.0731" gradientUnits="userSpaceOnUse">
<stop stop-color="#13582F"/>
<stop offset="1" stop-color="#5DAF46"/>
</linearGradient>
<linearGradient id="paint7_linear_12_1299" x1="31.2219" y1="24.4133" x2="40.6982" y2="24.4133" gradientUnits="userSpaceOnUse">
<stop stop-color="#13582F"/>
<stop offset="1" stop-color="#5DAF46"/>
</linearGradient>
<linearGradient id="paint8_linear_12_1299" x1="31.2219" y1="24.4133" x2="40.6982" y2="24.4133" gradientUnits="userSpaceOnUse">
<stop stop-color="#499540"/>
<stop offset="1" stop-color="#5DAF46"/>
</linearGradient>
<linearGradient id="paint9_linear_12_1299" x1="31.2189" y1="29.0831" x2="40.7065" y2="29.0831" gradientUnits="userSpaceOnUse">
<stop stop-color="#499540"/>
<stop offset="1" stop-color="#5DAF46"/>
</linearGradient>
<linearGradient id="paint10_linear_12_1299" x1="31.2219" y1="23.2337" x2="40.6982" y2="23.2337" gradientUnits="userSpaceOnUse">
<stop stop-color="#13582F"/>
<stop offset="1" stop-color="#5DAF46"/>
</linearGradient>
<linearGradient id="paint11_linear_12_1299" x1="31.2219" y1="23.2337" x2="40.6982" y2="23.2337" gradientUnits="userSpaceOnUse">
<stop stop-color="#499540"/>
<stop offset="1" stop-color="#5DAF46"/>
</linearGradient>
<linearGradient id="paint12_linear_12_1299" x1="33.1602" y1="24.4259" x2="37.8012" y2="24.4259" gradientUnits="userSpaceOnUse">
<stop stop-color="#499540"/>
<stop offset="1" stop-color="#5DAF46"/>
</linearGradient>
<linearGradient id="paint13_linear_12_1299" x1="31.2195" y1="24.4259" x2="40.7072" y2="24.4259" gradientUnits="userSpaceOnUse">
<stop stop-color="#13582F"/>
<stop offset="1" stop-color="#5DAF46"/>
</linearGradient>
<linearGradient id="paint14_linear_12_1299" x1="33.1602" y1="24.4259" x2="37.8012" y2="24.4259" gradientUnits="userSpaceOnUse">
<stop stop-color="#499540"/>
<stop offset="1" stop-color="#5DAF46"/>
</linearGradient>
<linearGradient id="paint15_linear_12_1299" x1="33.1602" y1="29.0631" x2="37.8013" y2="29.0631" gradientUnits="userSpaceOnUse">
<stop stop-color="#499540"/>
<stop offset="1" stop-color="#5DAF46"/>
</linearGradient>
<linearGradient id="paint16_linear_12_1299" x1="31.2194" y1="29.0631" x2="40.7076" y2="29.0631" gradientUnits="userSpaceOnUse">
<stop stop-color="#13582F"/>
<stop offset="1" stop-color="#5DAF46"/>
</linearGradient>
<linearGradient id="paint17_linear_12_1299" x1="33.1602" y1="29.0631" x2="37.8015" y2="29.0631" gradientUnits="userSpaceOnUse">
<stop stop-color="#499540"/>
<stop offset="1" stop-color="#5DAF46"/>
</linearGradient>
<clipPath id="clip0_12_1299">
<rect width="140" height="40" fill="white"/>
</clipPath>
</defs>
</svg>
