<svg width="185" height="40" viewBox="0 0 185 40" fill="none" xmlns="http://www.w3.org/2000/svg">
<path d="M0.00507169 1.34672C-0.0517456 0.678384 0.495766 0.00492227 1.19135 0.0100502C3.21094 -0.00875208 5.23054 0.00492227 7.25013 0.00321297C7.90267 -0.0275543 8.52766 0.524548 8.52077 1.18433C8.53971 4.85077 8.52594 8.51891 8.52766 12.1854C11.0913 10.1171 14.4453 9.01974 17.7475 9.26075C20.9224 9.46757 23.9802 10.8829 26.2288 13.1084C28.9182 15.6603 30.5332 19.2259 30.9102 22.8804C31.2511 26.1486 30.6192 29.5244 29.049 32.42C27.5838 35.1207 25.2956 37.4111 22.4909 38.7273C19.8584 39.999 16.7851 40.3237 13.9339 39.6742C11.9642 39.211 10.103 38.3051 8.52766 37.0436C8.51905 37.676 8.55349 38.3102 8.51733 38.9426C8.44329 39.5511 7.86651 40.0212 7.2553 39.9973C5.2357 39.999 3.21439 40.0024 1.19479 39.9956C0.49921 39.9802 -0.0689629 39.3255 0.00679342 38.6401C0.00507169 26.2084 0.0102369 13.7784 0.00507169 1.34672ZM14.1612 17.8106C11.3909 18.3063 9.07345 20.6395 8.63096 23.4017C8.19364 25.7161 9.06828 28.2049 10.8399 29.762C12.3051 31.0833 14.3575 31.7277 16.3202 31.4867C18.2744 31.2833 20.1029 30.1842 21.2168 28.5826C22.3739 26.993 22.744 24.8888 22.2774 22.9898C21.8814 21.3198 20.8226 19.8191 19.3866 18.867C17.8818 17.8311 15.9518 17.4756 14.1612 17.8106Z" fill="#016D9C"/>
<path d="M102.005 1.34132C101.942 0.678207 102.493 0.0373133 103.175 0.0133866C105.223 -0.00712203 107.27 0.00996847 109.32 0.00484132C110.005 -0.0601026 110.663 0.538065 110.635 1.21485C110.629 7.03416 110.65 12.8552 110.623 18.6745C112.787 15.9622 114.927 13.2329 117.084 10.5155C117.334 10.1737 117.756 9.97373 118.187 10.0028C120.782 10.0079 123.377 9.99253 125.972 10.0096C126.888 10.0353 127.458 11.2213 126.888 11.9255C123.906 15.7315 120.86 19.4897 117.904 23.3129C121.221 28.2383 124.504 33.1878 127.807 38.1218C128.339 38.8789 127.699 40.0325 126.757 39.9898C124.366 40.0052 121.977 39.9932 119.585 39.9966C119.09 40.0154 118.574 39.7915 118.33 39.3557C115.764 35.5189 113.204 31.6804 110.633 27.8487C110.638 31.4941 110.635 35.1395 110.635 38.7832C110.664 39.4736 110 40.0496 109.311 39.9966C107.263 39.9898 105.216 40.0086 103.168 39.9881C102.483 39.9658 101.954 39.2976 102.003 38.6465C102.005 26.2114 101.998 13.7764 102.005 1.34132Z" fill="#016D9C"/>
<path d="M137.168 0.0541044C137.563 0.0290328 137.989 -0.0855799 138.366 0.122156C138.743 0.353172 139.013 0.811623 138.997 1.30231C138.999 2.55768 138.997 3.81304 138.997 5.06841C139.044 5.72923 138.55 6.37213 137.951 6.41511C136.068 6.6121 134.184 6.80551 132.298 6.9828C131.596 7.12249 130.934 6.38825 131.005 5.6164C131.007 4.34492 130.999 3.07343 131.008 1.80195C130.997 1.14293 131.52 0.593142 132.1 0.569862C133.789 0.396152 135.477 0.227814 137.168 0.0541044Z" fill="#2CB354"/>
<path d="M45.7082 9.23564C49.4738 8.48329 53.5079 9.56792 56.4729 11.9834C56.3988 11.1794 56.4212 10.0293 57.4112 9.821C59.4757 9.72631 61.5504 9.81067 63.6183 9.77796C64.3449 9.70049 65.0336 10.3254 64.9923 11.0623C64.9974 20.2524 64.9905 29.4443 64.9957 38.6344C65.0542 39.311 64.5067 39.9945 63.8077 39.9876C61.7897 40.0066 59.7684 39.9928 57.7504 39.9945C57.1581 40.0186 56.5762 39.571 56.497 38.977C56.4367 38.3263 56.4832 37.672 56.4729 37.0212C53.9091 39.1027 50.5585 40.2097 47.2561 39.967C44.0811 39.7604 41.0198 38.3331 38.7711 36.0916C36.08 33.5194 34.4632 29.9229 34.0896 26.2386C33.6833 22.3253 34.663 18.2502 36.9478 15.0324C39.0036 12.1005 42.1596 9.88815 45.7082 9.23564ZM48.1566 17.6476C45.388 18.1469 43.0722 20.4935 42.6262 23.2722C42.1855 25.6102 43.0653 28.1255 44.8473 29.6957C46.316 31.0248 48.3753 31.6704 50.3398 31.4207C52.2855 31.209 54.1037 30.1037 55.2125 28.4957C56.3713 26.8945 56.7397 24.7752 56.2731 22.8624C55.8685 21.146 54.7717 19.6085 53.2927 18.6513C51.8016 17.6528 49.9111 17.317 48.1566 17.6476Z" fill="#016D9C"/>
<path d="M80.2207 9.35924C85.2544 8.21944 90.7822 9.84305 94.4175 13.5035C90.7771 17.1399 87.14 20.7796 83.4996 24.4177C82.0737 22.9973 80.6564 21.5699 79.2288 20.1512C78.7501 19.6915 77.9166 19.7139 77.4706 20.2063C76.6061 21.0603 75.7502 21.9229 74.8909 22.7803C74.395 23.2263 74.3554 24.0751 74.8461 24.54C77.4275 27.1364 80.0227 29.7207 82.611 32.3085C83.0777 32.8061 83.9473 32.813 84.4037 32.2947C88.9103 27.7958 93.4032 23.2814 97.9202 18.791C99.012 21.5854 99.2962 24.6949 98.6797 27.634C98.0184 30.9432 96.2119 34.0027 93.6598 36.2066C91.0956 38.4431 87.7772 39.7964 84.3795 39.9738C81.5605 40.1408 78.6984 39.5072 76.2186 38.1539C73.3669 36.6387 71.0369 34.1973 69.5955 31.3133C67.9768 28.0696 67.5721 24.2507 68.4624 20.7366C69.8056 15.122 74.5603 10.5094 80.2207 9.35924Z" fill="url(#paint0_linear_12_839)"/>
<path d="M151.401 11.8399C153.254 10.041 155.782 8.95658 158.358 9.00133C161.704 8.99961 164.952 10.8948 166.672 13.7988C167.622 12.2151 169.016 10.9121 170.65 10.0789C172.723 8.98756 175.19 8.72419 177.452 9.29913C179.697 9.88268 181.738 11.2804 183.077 13.2015C184.34 14.9676 185.017 17.1452 185 19.3261C184.995 25.8174 185.003 32.3087 184.995 38.8C184.976 39.4146 184.453 39.9809 183.836 39.9792C181.842 39.9998 179.85 39.9843 177.858 39.9861C177.196 40.0205 176.583 39.4352 176.604 38.7587C176.592 33.4913 176.602 28.2222 176.599 22.9531C176.631 21.7963 176.639 20.5586 175.979 19.5585C174.91 17.6633 172.302 16.942 170.434 18.0231C169.082 18.7977 168.204 20.3331 168.201 21.9065C168.194 27.5371 168.204 33.1677 168.196 38.7966C168.179 39.4163 167.651 39.9826 167.032 39.9792C165.042 39.9981 163.053 39.9843 161.064 39.9861C160.399 40.0222 159.781 39.4335 159.805 38.7536C159.793 33.0834 159.805 27.4131 159.798 21.7429C159.798 20.4278 159.143 19.1385 158.105 18.3587C156.819 17.3569 154.932 17.2398 153.537 18.0781C152.521 18.7133 151.764 19.7703 151.513 20.9563C151.36 21.607 151.404 22.28 151.401 22.9427C151.401 28.2274 151.404 33.512 151.397 38.7966C151.38 39.4146 150.856 39.9809 150.237 39.9792C148.301 40.0016 146.363 39.9792 144.427 39.9895C143.712 40.0859 142.976 39.5058 143.005 38.7501C142.996 29.5184 143.001 20.2867 143.003 11.0549C142.966 10.3561 143.585 9.7312 144.277 9.77767C146.247 9.77595 148.219 9.77595 150.193 9.77939C150.751 9.77595 151.268 10.2029 151.372 10.7623C151.424 11.1186 151.394 11.4801 151.401 11.8399Z" fill="#016D9C"/>
<path d="M131.774 10.1179C132.04 9.99145 132.352 10.0103 132.646 10C134.639 10.0068 136.633 10 138.628 10.0034C139.371 9.95556 140.035 10.5828 139.993 11.2819C139.995 20.1678 139.993 29.0538 139.995 37.9398C139.972 38.3876 140.073 38.8644 139.867 39.2883C139.673 39.7344 139.148 40.0096 138.648 39.9976C136.526 39.9993 134.405 40.0027 132.285 39.9959C131.552 39.9891 130.943 39.3413 131.017 38.6542C131.014 29.7067 131.021 20.7592 131.017 11.81C130.947 11.1776 131.072 10.3948 131.775 10.1179H131.774Z" fill="#016D9C"/>
<defs>
<linearGradient id="paint0_linear_12_839" x1="75.7606" y1="37.9008" x2="91.2446" y2="11.0768" gradientUnits="userSpaceOnUse">
<stop stop-color="#16A74A"/>
<stop offset="1" stop-color="#84C340"/>
</linearGradient>
</defs>
</svg>
