<svg width="137" height="40" viewBox="0 0 137 40" fill="none" xmlns="http://www.w3.org/2000/svg">
<g clip-path="url(#clip0_12_1469)">
<path d="M36.1423 0.8379C37.4756 0.331053 38.8893 -0.0191069 40.3233 0.00133043C41.9276 0.0313052 43.551 -0.100856 45.1335 0.238404C47.796 0.718 50.4054 1.90745 52.2439 3.93484C54.0784 5.82189 55.1093 8.36021 55.5751 10.9203C55.6459 11.5907 55.8393 12.2488 55.7712 12.9286C52.9371 12.8796 50.1017 12.9205 47.2676 12.9068C47.1287 12.9041 46.9938 12.881 46.8631 12.8374C46.6193 12.3319 46.6888 11.7514 46.5281 11.2228C46.2584 10.3113 45.8403 9.39434 45.094 8.77441C43.837 7.67351 42.0134 7.48004 40.4323 7.82884C39.3509 8.14085 38.3854 8.86842 37.8297 9.85077C37.078 11.0975 36.7933 12.5512 36.5768 13.9696C36.5182 15.689 36.5223 17.4126 36.5672 19.1334C36.7388 20.6008 37.0385 22.1173 37.9033 23.3503C38.3826 23.9416 38.9437 24.5044 39.6533 24.8096C41.0111 25.3791 42.5922 25.4976 43.965 24.9158C45.0273 24.488 45.8145 23.552 46.2434 22.5097C46.5935 21.7658 46.6901 20.9428 46.8903 20.1566C46.923 19.91 47.1968 19.8705 47.397 19.8923C50.1657 19.91 52.9358 19.8882 55.7045 19.9046C55.778 19.9223 55.9265 19.9591 56 19.9782C55.8161 21.8243 55.4008 23.6705 54.6218 25.3641C53.7284 27.3806 52.2929 29.1409 50.5388 30.4707C48.6771 31.8373 46.4368 32.7079 44.1298 32.8728C42.4955 33.1316 40.8422 32.9409 39.2107 32.7815C36.7375 32.385 34.297 31.4708 32.3754 29.8317C31.2763 28.8711 30.259 27.7975 29.4868 26.5535C28.2202 24.4608 27.399 22.0914 27.158 19.6553C26.9564 18.6334 27.0286 17.587 27 16.5529C27.03 15.4738 26.9482 14.3824 27.1607 13.3169C27.4413 10.6587 28.3973 8.07545 29.9022 5.86821C31.4752 3.67733 33.5725 1.76031 36.1423 0.836537V0.8379Z" fill="#1D3F96"/>
<path d="M0.112816 1.00417C7.89851 1.00417 15.6856 1.01389 23.4713 1C23.4264 3.44272 23.4753 5.88823 23.4468 8.33234C23.4019 8.37958 23.3109 8.47268 23.2647 8.51992C18.6609 8.53381 14.0572 8.52131 9.45212 8.52548C9.46299 10.0053 9.46707 11.4865 9.44804 12.9663C13.3273 12.9718 17.2065 12.9552 21.0844 12.9718C21.1307 13.0191 21.2204 13.1136 21.2666 13.1608C21.2571 15.5869 21.3087 18.0185 21.2421 20.4417C19.4221 20.539 17.5926 20.457 15.7698 20.4848C13.6671 20.482 11.5657 20.4876 9.46299 20.4806C9.44804 22.1453 9.47114 23.8113 9.44396 25.4759C14.2298 25.48 19.0157 25.4495 23.8002 25.4898C23.8505 25.5314 23.9497 25.6162 23.9986 25.6593C23.9918 28.1006 23.9864 30.5433 24 32.9847C16.0009 33.0139 8.00045 32.9916 0 32.9958C0.0652432 29.7722 0.00951464 26.5444 0.0285439 23.3194C0.0271847 16.4192 0.0285439 9.51757 0.0271847 2.61737C0.0625248 2.0838 -0.0625248 1.51411 0.112816 1.00417Z" fill="#1D3F96"/>
<path d="M59 1.01775C64.0961 0.98587 69.1936 1.00666 74.2897 1.00666C75.0173 0.973396 75.7274 1.14388 76.4402 1.26447C77.3093 1.32407 78.1246 1.66643 78.9398 1.95196C80.7292 2.59372 82.2343 3.89524 83.3608 5.44071C84.3242 6.99311 84.8807 8.80609 84.9912 10.6413C84.9656 11.8083 85.0802 12.9879 84.8713 14.1439C84.6112 16.065 83.9847 17.9944 82.7342 19.4816C81.0472 21.551 78.4237 22.574 75.8689 22.8359C75.0779 22.9565 74.2829 23.0605 73.4825 23.0355C71.8359 23.0355 70.1893 23.0327 68.5427 23.0369C68.5279 25.9768 68.536 28.9166 68.5333 31.8565C68.5158 32.2072 68.5872 32.58 68.4605 32.9168C68.2598 32.9945 68.0428 33 67.834 33C64.9706 32.9848 62.1072 33.0014 59.2466 32.9875C59.0296 33.0402 59.0431 32.8226 59.0364 32.6701C59.0391 24.4978 59.0364 16.3255 59.0377 8.15325C59.0162 5.77475 59.0795 3.39209 59 1.01775ZM68.5427 8.67996C68.5225 10.9351 68.536 13.1916 68.5387 15.4482C69.8296 15.4565 71.1204 15.4495 72.4113 15.4523C73.3963 15.4773 74.45 15.1848 75.1534 14.4405C75.6142 13.9748 75.8433 13.3178 75.97 12.6802C76.0131 11.8069 76.1276 10.8117 75.5374 10.0896C74.7923 9.02648 73.4758 8.67165 72.2779 8.51502C71.1029 8.48591 69.9266 8.49146 68.7529 8.51225C68.7004 8.55383 68.5953 8.63838 68.5427 8.67996Z" fill="#EA1C24"/>
<path d="M96.1983 9.33097C97.5471 9.17356 98.9071 9.07131 100.261 9C101.881 9.16683 103.532 9.17625 105.114 9.60274C106.843 9.98888 108.628 10.7759 109.584 12.3003C110.444 13.7883 110.591 15.5333 110.729 17.2003C110.74 21.2849 110.733 25.3696 110.733 29.4543C110.732 30.2117 110.995 30.9907 111.566 31.5276C111.838 31.7603 111.954 32.098 112 32.4384C109.659 32.4397 107.319 32.4344 104.978 32.4411C104.351 32.4693 103.727 32.3308 103.102 32.4303C102.912 32.4182 102.99 32.1639 102.937 32.0455C102.795 31.4455 102.85 30.8279 102.765 30.2212C102.689 30.2279 102.537 30.2387 102.461 30.2454C101.738 30.7916 101.058 31.4065 100.221 31.7913C98.8738 32.5137 97.3487 32.8582 95.8264 32.9927C94.6857 32.955 93.5214 33.1084 92.4057 32.8151C90.6614 32.4667 89.0183 31.4845 88.04 30.0247C87.2671 28.8623 86.9507 27.4563 87.0062 26.084C86.9465 24.3888 87.5377 22.6317 88.7644 21.398C89.4638 20.7643 90.2603 20.2113 91.1623 19.8871C92.6486 19.3624 94.2111 19.096 95.7639 18.8363C97.4625 18.5013 99.2498 18.5013 100.864 17.8313C101.384 17.6268 101.861 17.2649 102.106 16.7671C102.196 16.3406 102.214 15.8428 101.92 15.4822C101.541 14.9427 100.869 14.6978 100.231 14.5969C99.4871 14.5512 98.7045 14.5 98.012 14.8189C97.1239 15.0934 96.5272 15.98 96.541 16.8666C96.1747 16.7052 95.7847 16.8532 95.4059 16.8411C93.0302 16.8464 90.6544 16.8236 88.2787 16.8518C88.2579 15.0463 88.7894 13.1385 90.1549 11.8455C91.7479 10.2795 94.0141 9.64849 96.1983 9.33097ZM99.7494 23.2291C98.9071 23.4161 98.0495 23.5937 97.2571 23.9368C96.455 24.2744 95.7806 25.0629 95.8694 25.9481C95.7501 26.6747 96.3093 27.2989 96.9393 27.6043C97.543 27.8721 98.2299 27.7698 98.8738 27.79C100.096 27.8519 101.25 27.042 101.71 25.9656C102.247 24.8987 102.179 23.6892 102.161 22.5362C101.347 22.7353 100.575 23.073 99.7494 23.2291Z" fill="#EA1C24"/>
<path d="M113 9.01247C115.57 9.01663 118.141 9.01801 120.712 9.01109C120.946 9.02079 121.191 8.98614 121.42 9.0679C121.613 9.41988 121.677 9.82036 121.775 10.2056C122.746 13.7766 123.623 17.3726 124.601 20.9423C124.792 21.6102 124.883 22.31 125.178 22.9461C125.413 22.5165 125.434 22.0135 125.585 21.5534C126.548 17.7648 127.553 13.9873 128.527 10.2014C128.616 9.82867 128.681 9.44067 128.867 9.09977C129.069 8.94734 129.344 9.04157 129.581 9.01386C132.054 9.0097 134.527 9.03464 137 9C136.842 9.79957 136.494 10.5423 136.284 11.328C134.373 17.4461 132.427 23.553 130.512 29.6697C129.685 32.2458 128.877 34.8634 127.506 37.2136C126.617 38.7241 124.864 39.4447 123.209 39.7357C121.479 40.1389 119.693 39.9491 117.933 39.9907C117.227 39.9297 116.476 40.0683 115.809 39.7842C115.71 39.5514 115.756 39.2936 115.743 39.0511C115.745 37.1915 115.759 35.3304 115.738 33.4708C117.064 33.3183 118.571 33.7812 119.738 32.94C120.497 32.3691 120.23 31.2938 120.021 30.515C117.832 23.8468 115.614 17.1897 113.402 10.5299C113.243 10.031 113.062 9.53351 113 9.01247Z" fill="#EA1C24"/>
</g>
<defs>
<clipPath id="clip0_12_1469">
<rect width="137" height="40" fill="white"/>
</clipPath>
</defs>
</svg>
