<svg xmlns="http://www.w3.org/2000/svg" width="240" height="80" fill="none" viewBox="0 0 240 80"><path fill="#1D3F96" d="M87.5823 20.841C88.9218 20.332 90.3421 19.9803 91.7829 20.0008C93.3947 20.0309 95.0257 19.8982 96.6156 20.2389C99.2906 20.7206 101.912 21.9151 103.759 23.951C105.602 25.8461 106.638 28.3952 107.106 30.9662C107.177 31.6393 107.372 32.3002 107.303 32.983C104.456 32.9337 101.607 32.9748 98.7597 32.9611C98.6201 32.9584 98.4847 32.9351 98.3533 32.8913C98.1084 32.3837 98.1782 31.8008 98.0167 31.2699C97.7458 30.3545 97.3257 29.4337 96.5759 28.8111C95.313 27.7056 93.4809 27.5113 91.8923 27.8616C90.8059 28.1749 89.8358 28.9055 89.2776 29.8921C88.5223 31.144 88.2363 32.604 88.0188 34.0283C87.9599 35.7551 87.964 37.486 88.0092 39.2141C88.1816 40.6877 88.4826 42.2106 89.3515 43.4489C89.8331 44.0427 90.3968 44.6078 91.1097 44.9143C92.4739 45.4862 94.0624 45.6053 95.4416 45.021C96.5089 44.5914 97.2997 43.6514 97.7307 42.6047C98.0824 41.8576 98.1795 41.0312 98.3807 40.2417C98.4135 39.994 98.6885 39.9543 98.8897 39.9762C101.671 39.994 104.454 39.9721 107.236 39.9885C107.31 40.0063 107.459 40.0433 107.533 40.0624C107.348 41.9164 106.931 43.7704 106.148 45.4712C105.251 47.4962 103.809 49.264 102.046 50.5995C100.176 51.9718 97.925 52.8462 95.6072 53.0117C93.9653 53.2717 92.3042 53.0801 90.665 52.92C88.1802 52.5219 85.7283 51.6038 83.7977 49.9577C82.6935 48.9931 81.6714 47.9149 80.8956 46.6657C79.6231 44.564 78.798 42.1846 78.5558 39.7381C78.3533 38.7119 78.4258 37.6611 78.3971 36.6226C78.4272 35.5389 78.3451 34.4429 78.5585 33.3729C78.8404 30.7035 79.8009 28.1092 81.3129 25.8926C82.8932 23.6924 85.0004 21.7673 87.5823 20.8396V20.841Z"/><path fill="#1D3F96" d="M51.6665 20.8068C59.504 20.8068 67.3428 20.8163 75.1803 20.8027C75.1351 23.2081 75.1844 25.6162 75.1556 28.023C75.1105 28.0695 75.0188 28.1612 74.9723 28.2077C70.338 28.2214 65.7036 28.2091 61.0679 28.2132C61.0789 29.6704 61.083 31.129 61.0638 32.5862C64.9689 32.5917 68.8739 32.5752 72.7776 32.5917C72.8241 32.6382 72.9144 32.7312 72.9609 32.7778C72.9514 35.1667 73.0033 37.5612 72.9363 39.9475C71.1042 40.0433 69.2625 39.9625 67.4276 39.9899C65.3109 39.9872 63.1956 39.9926 61.0789 39.9858C61.0638 41.625 61.0871 43.2655 61.0597 44.9047C65.8774 44.9088 70.6951 44.8787 75.5114 44.9184C75.562 44.9595 75.6619 45.0429 75.7112 45.0853C75.7043 47.4894 75.6988 49.8948 75.7125 52.2989C67.6603 52.3276 59.6066 52.3057 51.553 52.3098C51.6187 49.1354 51.5626 45.9569 51.5817 42.7812C51.5803 35.9863 51.5817 29.1901 51.5803 22.3953C51.6159 21.8699 51.49 21.3089 51.6665 20.8068Z"/><path fill="#EA1C24" d="M110.873 20.8232C116.048 20.7917 121.224 20.8122 126.399 20.8122C127.138 20.7794 127.859 20.9477 128.582 21.0667C129.465 21.1256 130.293 21.4635 131.121 21.7454C132.938 22.3789 134.466 23.6637 135.61 25.1893C136.588 26.7218 137.153 28.5115 137.265 30.3231C137.239 31.4752 137.356 32.6396 137.144 33.7807C136.88 35.6771 136.243 37.5818 134.974 39.0499C133.261 41.0927 130.597 42.1025 128.002 42.3611C127.199 42.4802 126.392 42.5828 125.579 42.5581C123.907 42.5581 122.235 42.5554 120.563 42.5595C120.548 45.4616 120.556 48.3637 120.553 51.2658C120.536 51.612 120.608 51.9801 120.48 52.3125C120.276 52.3892 120.055 52.3946 119.843 52.3946C116.936 52.3796 114.028 52.396 111.123 52.3823C110.903 52.4343 110.917 52.2195 110.91 52.069C110.913 44.0017 110.91 35.9344 110.911 27.867C110.889 25.5191 110.954 23.167 110.873 20.8232ZM120.563 28.387C120.542 30.6132 120.556 32.8407 120.559 35.0682C121.87 35.0765 123.181 35.0696 124.491 35.0723C125.492 35.097 126.562 34.8083 127.276 34.0735C127.744 33.6138 127.976 32.9652 128.105 32.3358C128.149 31.4738 128.265 30.4914 127.666 29.7785C126.909 28.729 125.572 28.3788 124.356 28.2242C123.163 28.1954 121.968 28.2009 120.776 28.2214C120.723 28.2625 120.616 28.3459 120.563 28.387Z"/><path fill="#EA1C24" d="M147.708 28.8905C149.038 28.7304 150.379 28.6264 151.714 28.5539C153.311 28.7236 154.939 28.7332 156.499 29.1669C158.204 29.5596 159.964 30.36 160.906 31.9103C161.755 33.4236 161.9 35.1982 162.035 36.8935C162.046 41.0476 162.039 45.2016 162.039 49.3557C162.038 50.1261 162.298 50.9183 162.86 51.4642C163.128 51.7009 163.243 52.0444 163.289 52.3905C160.98 52.3919 158.673 52.3864 156.365 52.3933C155.747 52.422 155.131 52.2811 154.515 52.3823C154.328 52.37 154.404 52.1114 154.352 51.991C154.213 51.3808 154.266 50.7527 154.183 50.1356C154.107 50.1425 153.958 50.1534 153.883 50.1603C153.17 50.7158 152.5 51.3411 151.675 51.7324C150.346 52.4672 148.842 52.8174 147.341 52.9543C146.217 52.916 145.069 53.0719 143.969 52.7737C142.249 52.4193 140.629 51.4204 139.664 49.9359C138.902 48.7537 138.59 47.3238 138.645 45.9282C138.586 44.2042 139.169 42.4172 140.378 41.1625C141.068 40.5181 141.853 39.9557 142.743 39.6259C144.208 39.0923 145.749 38.8214 147.28 38.5573C148.955 38.2166 150.717 38.2166 152.308 37.5352C152.821 37.3273 153.292 36.9592 153.533 36.4529C153.622 36.0192 153.64 35.5129 153.349 35.1462C152.976 34.5976 152.314 34.3485 151.684 34.2459C150.951 34.1994 150.179 34.1474 149.496 34.4717C148.621 34.7508 148.032 35.6525 148.046 36.5542C147.685 36.39 147.3 36.5405 146.927 36.5282C144.584 36.5337 142.242 36.5104 139.899 36.5391C139.879 34.7029 140.403 32.7627 141.749 31.4478C143.32 29.8551 145.554 29.2134 147.708 28.8905ZM151.209 43.0247C150.379 43.2149 149.533 43.3955 148.752 43.7444C147.961 44.0879 147.296 44.8897 147.384 45.79C147.266 46.5289 147.818 47.1637 148.439 47.4743C149.034 47.7466 149.711 47.6426 150.346 47.6632C151.552 47.7261 152.689 46.9024 153.143 45.8078C153.672 44.7228 153.605 43.4927 153.588 42.3201C152.784 42.5226 152.024 42.866 151.209 43.0247Z"/><path fill="#EA1C24" d="M164.77 29.4036C167.306 29.4077 169.843 29.4091 172.378 29.4022C172.609 29.4118 172.851 29.3776 173.077 29.4583C173.267 29.8059 173.33 30.2013 173.427 30.5817C174.385 34.1077 175.25 37.6584 176.215 41.183C176.403 41.8425 176.494 42.5335 176.784 43.1616C177.016 42.7374 177.037 42.2407 177.186 41.7864C178.136 38.0456 179.128 34.3157 180.088 30.5776C180.176 30.2095 180.24 29.8264 180.423 29.4898C180.623 29.3393 180.894 29.4323 181.128 29.405C183.568 29.4009 186.007 29.4255 188.447 29.3913C188.291 30.1808 187.948 30.9142 187.741 31.69C185.855 37.7309 183.936 43.7609 182.046 49.8004C181.231 52.344 180.433 54.9287 179.081 57.2493C178.204 58.7407 176.475 59.4522 174.842 59.7395C173.135 60.1377 171.374 59.9502 169.637 59.9913C168.941 59.9311 168.199 60.0679 167.541 59.7874C167.444 59.5575 167.489 59.303 167.477 59.0636C167.478 57.2274 167.492 55.3898 167.471 53.5536C168.779 53.4031 170.267 53.8601 171.417 53.0295C172.166 52.4658 171.903 51.404 171.697 50.635C169.537 44.0509 167.35 37.4778 165.167 30.9019C165.01 30.4093 164.832 29.9181 164.77 29.4036Z"/></svg>