<svg xmlns="http://www.w3.org/2000/svg" width="40" height="40" fill="none" viewBox="0 0 40 40"><path fill="#1D3F96" d="M10.5276 14.2459C10.919 14.0971 11.334 13.9944 11.755 14.0004C12.226 14.0092 12.7026 13.9704 13.1671 14.07C13.9488 14.2107 14.7148 14.5597 15.2545 15.1546C15.7931 15.7084 16.0957 16.4532 16.2324 17.2044C16.2532 17.4011 16.31 17.5942 16.29 17.7937C15.458 17.7793 14.6256 17.7913 13.7936 17.7873C13.7529 17.7865 13.7133 17.7797 13.6749 17.7669C13.6033 17.6186 13.6237 17.4483 13.5765 17.2932C13.4974 17.0257 13.3746 16.7566 13.1555 16.5747C12.7865 16.2517 12.2512 16.1949 11.787 16.2973C11.4696 16.3888 11.1861 16.6023 11.023 16.8906C10.8023 17.2564 10.7187 17.683 10.6552 18.0992C10.638 18.6037 10.6392 19.1095 10.6524 19.6144C10.7027 20.045 10.7907 20.49 11.0446 20.8518C11.1853 21.0253 11.35 21.1905 11.5583 21.28C11.9569 21.4471 12.4211 21.4819 12.8241 21.3112C13.136 21.1857 13.367 20.911 13.493 20.6052C13.5957 20.3869 13.6241 20.1454 13.6829 19.9147C13.6925 19.8423 13.7728 19.8307 13.8316 19.8371C14.6444 19.8423 15.4576 19.8359 16.2704 19.8407C16.292 19.8459 16.3356 19.8567 16.3572 19.8623C16.3032 20.4041 16.1813 20.9458 15.9526 21.4427C15.6903 22.0345 15.2689 22.551 14.754 22.9412C14.2074 23.3422 13.5498 23.5977 12.8725 23.6461C12.3927 23.722 11.9074 23.6661 11.4284 23.6193C10.7024 23.5029 9.9859 23.2347 9.42178 22.7537C9.09914 22.4718 8.80048 22.1568 8.57379 21.7918C8.20197 21.1777 7.96089 20.4824 7.89013 19.7676C7.83096 19.4677 7.85215 19.1607 7.84375 18.8572C7.85255 18.5406 7.82856 18.2203 7.89093 17.9077C7.97329 17.1277 8.25395 16.3696 8.69573 15.7219C9.15751 15.0791 9.77321 14.5165 10.5276 14.2455V14.2459Z"/><path fill="#1D3F96" d="M0.0331837 14.2359C2.32326 14.2359 4.61374 14.2387 6.90382 14.2347C6.89062 14.9375 6.90502 15.6412 6.89662 16.3444C6.88343 16.358 6.85664 16.3848 6.84305 16.3984C5.48891 16.4024 4.13478 16.3988 2.78024 16.4C2.78344 16.8258 2.78464 17.252 2.77904 17.6778C3.92008 17.6794 5.06112 17.6746 6.20176 17.6794C6.21536 17.693 6.24174 17.7202 6.25534 17.7337C6.25254 18.4318 6.26773 19.1315 6.24814 19.8287C5.7128 19.8567 5.17467 19.8331 4.63853 19.8411C4.02003 19.8403 3.40193 19.8419 2.78344 19.8399C2.77904 20.3189 2.78584 20.7982 2.77784 21.2772C4.18555 21.2784 5.59326 21.2696 7.00057 21.2812C7.01536 21.2932 7.04455 21.3176 7.05894 21.33C7.05694 22.0324 7.05535 22.7353 7.05934 23.4378C4.7065 23.4462 2.35325 23.4398 0 23.441C0.0191906 22.5134 0.00279863 21.5847 0.00839589 20.6567C0.00799608 18.6713 0.00839589 16.6855 0.00799608 14.7C0.018391 14.5465 -0.018391 14.3826 0.0331837 14.2359Z"/><path fill="#EA1C24" d="M17.3331 14.2407C18.8452 14.2315 20.3576 14.2375 21.8697 14.2375C22.0856 14.2279 22.2963 14.2771 22.5078 14.3118C22.7657 14.329 23.0076 14.4278 23.2494 14.5101C23.7804 14.6953 24.227 15.0707 24.5612 15.5165C24.847 15.9642 25.0122 16.4872 25.045 17.0165C25.0374 17.3532 25.0713 17.6934 25.0094 18.0268C24.9322 18.5809 24.7463 19.1375 24.3753 19.5665C23.8747 20.1634 23.0963 20.4584 22.3383 20.534C22.1036 20.5688 21.8677 20.5988 21.6302 20.5916C21.1417 20.5916 20.6531 20.5908 20.1645 20.592C20.1601 21.4399 20.1625 22.2879 20.1617 23.1359C20.1565 23.2371 20.1777 23.3446 20.1402 23.4418C20.0806 23.4642 20.0162 23.4658 19.9542 23.4658C19.1047 23.4614 18.2551 23.4662 17.4063 23.4622C17.3419 23.4774 17.3459 23.4146 17.3439 23.3706C17.3447 21.0134 17.3439 18.6561 17.3443 16.2989C17.3379 15.6128 17.3567 14.9255 17.3331 14.2407ZM20.1645 16.4508C20.1585 17.1013 20.1625 17.7522 20.1633 18.403C20.5464 18.4054 20.9294 18.4034 21.3124 18.4042C21.6046 18.4114 21.9173 18.3271 22.126 18.1124C22.2627 17.978 22.3307 17.7885 22.3683 17.6046C22.3811 17.3528 22.415 17.0657 22.2399 16.8574C22.0188 16.5507 21.6282 16.4484 21.2728 16.4032C20.9242 16.3948 20.5751 16.3964 20.2269 16.4024C20.2113 16.4144 20.1801 16.4388 20.1645 16.4508Z"/><path fill="#EA1C24" d="M28.0962 16.5979C28.4849 16.5511 28.8767 16.5207 29.2669 16.4995C29.7334 16.5491 30.2092 16.5519 30.665 16.6787C31.1631 16.7934 31.6773 17.0273 31.9528 17.4803C32.2006 17.9224 32.243 18.441 32.2826 18.9363C32.2858 20.1502 32.2838 21.364 32.2838 22.5778C32.2834 22.8029 32.3594 23.0343 32.5237 23.1939C32.602 23.263 32.6356 23.3634 32.6488 23.4645C31.9743 23.4649 31.3003 23.4633 30.6258 23.4653C30.4451 23.4737 30.2652 23.4325 30.0853 23.4621C30.0305 23.4585 30.0529 23.383 30.0377 23.3478C29.9969 23.1695 30.0125 22.986 29.9881 22.8057C29.9661 22.8077 29.9226 22.8109 29.9006 22.8129C29.6923 22.9752 29.4964 23.1579 29.2553 23.2722C28.8671 23.4869 28.4277 23.5893 27.9891 23.6293C27.6605 23.6181 27.325 23.6636 27.0036 23.5765C26.501 23.4729 26.0277 23.1811 25.7458 22.7473C25.5231 22.4019 25.432 21.9841 25.4479 21.5763C25.4308 21.0725 25.6011 20.5504 25.9545 20.1837C26.156 19.9954 26.3855 19.8311 26.6454 19.7348C27.0736 19.5788 27.5237 19.4997 27.9711 19.4225C28.4605 19.323 28.9754 19.323 29.4404 19.1239C29.5903 19.0631 29.7279 18.9555 29.7982 18.8076C29.8242 18.6809 29.8294 18.5329 29.7446 18.4258C29.6355 18.2655 29.442 18.1927 29.2581 18.1627C29.0438 18.1491 28.8183 18.1339 28.6188 18.2287C28.3629 18.3103 28.191 18.5737 28.195 18.8372C28.0895 18.7892 27.9771 18.8332 27.868 18.8296C27.1835 18.8312 26.499 18.8244 25.8146 18.8328C25.8086 18.2963 25.9617 17.7293 26.3551 17.3451C26.8141 16.8798 27.467 16.6922 28.0962 16.5979ZM29.1193 20.7279C28.8767 20.7834 28.6296 20.8362 28.4013 20.9382C28.1702 21.0385 27.9759 21.2728 28.0015 21.5359C27.9671 21.7518 28.1282 21.9373 28.3097 22.028C28.4837 22.1076 28.6816 22.0772 28.8671 22.0832C29.2193 22.1016 29.5515 21.8609 29.6843 21.5411C29.839 21.224 29.8194 20.8646 29.8142 20.522C29.5795 20.5811 29.3572 20.6815 29.1193 20.7279Z"/><path fill="#EA1C24" d="M33.0818 16.7478C33.8227 16.749 34.5639 16.7494 35.3048 16.7474C35.3723 16.7502 35.4431 16.7402 35.5091 16.7638C35.5646 16.8653 35.583 16.9809 35.6114 17.092C35.8913 18.1223 36.1439 19.1598 36.4258 20.1897C36.481 20.3824 36.5074 20.5843 36.5921 20.7678C36.6601 20.6439 36.6661 20.4988 36.7097 20.366C36.9871 19.273 37.277 18.1831 37.5577 17.0908C37.5832 16.9833 37.602 16.8713 37.6556 16.773C37.714 16.729 37.7931 16.7562 37.8615 16.7482C38.5744 16.747 39.2872 16.7542 40.0001 16.7442C39.9545 16.9749 39.8541 17.1892 39.7938 17.4159C39.2428 19.181 38.6819 20.9429 38.1298 22.7077C37.8915 23.4509 37.6584 24.2061 37.2634 24.8842C37.0071 25.32 36.5018 25.5279 36.0248 25.6118C35.5259 25.7282 35.0113 25.6734 34.504 25.6854C34.3005 25.6678 34.0838 25.7078 33.8915 25.6258C33.8631 25.5587 33.8763 25.4843 33.8727 25.4143C33.8731 24.8778 33.8771 24.3409 33.8711 23.8043C34.2533 23.7604 34.6879 23.8939 35.0241 23.6512C35.2428 23.4865 35.166 23.1762 35.1057 22.9516C34.4748 21.0277 33.8355 19.107 33.1978 17.1856C33.1518 17.0416 33.0998 16.8981 33.0818 16.7478Z"/></svg>