<svg width="240" height="80" viewBox="0 0 240 80" fill="none" xmlns="http://www.w3.org/2000/svg">
<path d="M111.067 20.1032C111.471 19.9091 111.975 20.0509 112.417 20.0385C112.382 22.3356 112.462 24.6381 112.378 26.931C111.975 27.3924 111.561 27.8564 111.07 28.2269C111.044 25.5195 111.048 22.8093 111.067 20.1032Z" fill="#02B04E"/>
<path d="M113.361 20.0316C113.794 20.0151 114.228 20.0123 114.661 20.0206C114.656 21.8549 114.672 23.6906 114.652 25.525C114.223 25.7963 113.81 26.091 113.372 26.3471C113.35 24.2429 113.374 22.1372 113.361 20.0316Z" fill="#02B04E"/>
<path d="M126.644 22.4815C128.398 22.4388 130.154 22.4733 131.908 22.4622C132.976 22.4801 134.064 22.3865 135.108 22.6592C136.386 22.9704 137.589 23.6948 138.344 24.7896C139.046 25.8238 139.338 27.0976 139.294 28.3384C139.348 29.8946 138.845 31.5237 137.705 32.6199C136.599 33.7629 134.975 34.2449 133.422 34.3055C132.249 34.3372 131.077 34.3097 129.903 34.3193C129.89 36.1481 129.914 37.9797 129.891 39.8099C128.831 39.8127 127.772 39.8306 126.713 39.7989C126.623 39.2411 126.635 38.6765 126.64 38.116C126.644 32.9036 126.637 27.6926 126.644 22.4815ZM129.899 25.4176C129.902 27.3868 129.898 29.3575 129.902 31.3268C131.074 31.3172 132.247 31.3488 133.421 31.3103C134.547 31.2621 135.698 30.5694 135.999 29.4319C136.244 28.4486 136.237 27.2863 135.606 26.4408C135.033 25.6999 134.055 25.4272 133.156 25.4052C132.07 25.4093 130.984 25.3969 129.899 25.4176Z" fill="#02B04E"/>
<path d="M71.9305 29.6811C72.7458 26.1227 76.1211 23.462 79.7072 23.1577C81.4065 23.1026 83.1582 23.0902 84.7612 23.7388C84.7805 24.2511 84.7805 24.7648 84.7695 25.2785C83.245 24.4026 81.4327 24.3062 79.7182 24.4205C77.9761 24.6505 76.2919 25.4465 75.0855 26.7368C73.8103 27.9749 73.1107 29.739 73.0515 31.5031C73.0433 33.4407 73.7057 35.4265 75.1048 36.8036C76.6004 38.3433 78.8465 39.0525 80.9617 38.7922C82.4353 38.682 83.9322 38.1973 85.0256 37.17C85.0105 35.4045 85.049 33.639 85.005 31.8749C83.2271 31.8694 81.4492 31.8777 79.6714 31.8708C79.6576 31.4411 79.6562 31.0114 79.6645 30.5832C81.9051 30.5735 84.1456 30.5818 86.3862 30.5777C86.4096 32.8196 86.3862 35.0616 86.3986 37.3035C86.4606 37.7001 86.0846 37.9356 85.8492 38.1877C84.3302 39.5303 82.2783 40.1914 80.2649 40.1569C78.5256 40.2423 76.7711 39.7479 75.3376 38.7605C73.3421 37.4178 72.0022 35.1442 71.7901 32.7508C71.8011 31.7289 71.6744 30.6823 71.9305 29.6811Z" fill="#02B04E"/>
<path d="M74.4961 29.0532C75.719 26.3513 78.9043 24.8612 81.7811 25.3473C82.8208 25.4093 83.8468 25.6806 84.7667 26.1736C84.7777 26.7079 84.7805 27.2423 84.7667 27.7766C83.4254 26.7217 81.6475 26.5509 80.0018 26.6639C78.6825 26.8332 77.4101 27.4516 76.5273 28.4569C74.777 30.3325 74.985 33.6087 76.8634 35.3246C77.3481 35.7818 77.9389 36.1275 78.571 36.3382C79.4524 36.659 80.415 36.5654 81.3308 36.4979C81.8375 36.363 82.4462 36.3547 82.8497 35.998C83.0081 35.4169 82.9131 34.7793 82.8525 34.183C81.7907 34.1761 80.7276 34.1912 79.6658 34.1733C79.6589 33.7271 79.6575 33.2809 79.6617 32.8348C81.16 32.8265 82.6583 32.8169 84.1566 32.8403C84.1511 34.0494 84.1745 35.2613 84.1484 36.4704C84.1415 36.9234 83.6829 37.1341 83.3372 37.3118C82.2066 37.82 80.9452 37.9728 79.7154 37.9246C76.9116 37.8365 74.4162 35.505 74.0568 32.737C73.9576 31.5003 73.9356 30.1948 74.4961 29.0532Z" fill="#02B04E"/>
<path d="M144.362 25.8018C145.762 25.2771 147.316 25.0788 148.791 25.3804C150.416 25.6131 151.999 26.4656 152.908 27.8592C153.706 29.0545 154.04 30.5088 154.036 31.9341C154.044 34.4901 154.032 37.0474 154.043 39.6033C153.01 39.6102 151.977 39.6075 150.945 39.6047C150.945 39.1971 150.949 38.7881 150.94 38.3804C150.45 38.7385 149.974 39.1337 149.401 39.3555C148.707 39.657 147.944 39.7355 147.2 39.8113C145.972 39.7245 144.713 39.5551 143.629 38.9272C141.708 37.9053 140.671 35.6923 140.638 33.5757C140.645 32.2151 140.513 30.8159 140.959 29.5035C141.466 27.8385 142.727 26.4229 144.362 25.8018ZM146.423 28.4252C145.163 28.6648 144.126 29.6977 143.857 30.9481C143.682 31.8515 143.676 32.7866 143.8 33.6968C143.986 35.0891 145.077 36.3051 146.452 36.6095C147.447 36.7954 148.54 36.7348 149.424 36.2005C150.285 35.6827 150.799 34.7008 150.854 33.712C150.896 32.978 150.898 32.2398 150.861 31.5058C150.801 30.4468 150.262 29.3713 149.318 28.837C148.455 28.3357 147.392 28.1539 146.423 28.4252Z" fill="#02B04E"/>
<path d="M155.945 25.4134C157.044 25.4065 158.144 25.3928 159.243 25.4203C159.238 28.1856 159.243 30.9495 159.239 33.7134C159.275 34.7366 159.744 35.8424 160.712 36.3065C161.287 36.6535 161.981 36.5737 162.623 36.5695C163.567 36.5805 164.409 35.8934 164.782 35.0574C165.037 34.5066 165.026 33.8883 165.021 33.2961C165.015 30.6699 165.021 28.0437 165.017 25.4189C166.089 25.3955 167.16 25.4065 168.232 25.4121C168.229 30.338 168.233 35.2654 168.23 40.1914C168.175 41.7296 167.498 43.2913 166.246 44.2305C164.975 45.1697 163.354 45.5498 161.791 45.4933C160.062 45.5663 158.334 44.9039 157.042 43.765C157.041 42.7211 157.026 41.6773 157.051 40.6348C157.747 41.114 158.425 41.6415 159.22 41.9568C160.415 42.4719 161.755 42.6234 163.038 42.4127C163.867 42.235 164.677 41.7337 165.01 40.9254C165.353 40.139 165.305 39.2618 165.286 38.4259C164.56 38.9726 163.759 39.4546 162.85 39.6075C161.295 39.854 159.602 39.6446 158.287 38.7302C156.771 37.7277 156.038 35.8865 155.939 34.1265C155.942 31.2221 155.935 28.3178 155.945 25.4134Z" fill="#02B04E"/>
<path d="M89.4255 27.7215C90.6223 26.4187 92.4015 25.6558 94.1752 25.7591C95.3307 25.682 96.4833 25.945 97.4803 26.533C97.3041 26.9668 96.9281 27.2657 96.6348 27.6182C94.5856 26.5771 91.8383 26.982 90.3331 28.7667C89.4724 29.783 89.0936 31.1519 89.1474 32.4684C89.1501 34.9128 89.1556 37.3572 89.1446 39.8016C88.726 39.8154 88.3073 39.8154 87.8887 39.8182C87.8487 37.1397 87.8859 34.4598 87.8694 31.7826C87.8129 30.2898 88.4615 28.8356 89.4255 27.7215Z" fill="#02B04E"/>
<path d="M96.0261 32.0498C95.9586 28.6896 99.0544 25.5745 102.438 25.7591C105.89 25.5415 109.048 28.7667 108.887 32.1944C108.876 34.7338 108.897 37.2746 108.876 39.8154C108.415 39.825 107.948 39.8361 107.5 39.7107C107.506 37.068 107.507 34.424 107.5 31.7813C107.518 30.6272 106.962 29.5393 106.218 28.6882C105.017 27.3965 103.114 26.7547 101.387 27.1803C99.6672 27.5672 98.2033 28.892 97.6346 30.5611C97.2614 31.5224 97.3908 32.5703 97.3784 33.577C97.4693 35.9801 99.4951 38.1036 101.873 38.3791C102.745 38.503 103.62 38.3033 104.44 38.0183C104.453 38.4713 104.453 38.9244 104.446 39.3775C102.252 40.2933 99.6066 39.5606 97.9568 37.915C97.1044 37.1107 96.526 36.0503 96.2051 34.9321C95.938 33.9943 96.0509 33.011 96.0261 32.0498Z" fill="#02B04E"/>
<path d="M113.886 26.9847C114.723 26.3581 115.711 25.894 116.757 25.7839C117.774 25.7412 118.831 25.6875 119.793 26.0827C122.218 26.9696 124.126 29.4209 124.019 32.0581C124.001 32.883 124.066 33.7147 123.953 34.5369C123.584 36.5158 122.205 38.2565 120.4 39.131C118.092 40.2891 115.099 39.8526 113.229 38.0665C112.596 37.4591 112.021 36.699 111.855 35.8273C112.117 35.4224 112.462 35.0795 112.754 34.698C113.125 35.7708 113.726 36.8009 114.683 37.4495C115.927 38.3598 117.599 38.671 119.072 38.1932C121.051 37.612 122.557 35.7419 122.709 33.6858C122.758 32.4643 122.799 31.1739 122.23 30.053C121.557 28.5973 120.173 27.4832 118.599 27.1596C117.146 26.8181 115.584 27.3001 114.44 28.2228C112.649 29.6715 111.21 31.4948 109.791 33.2947C109.687 32.7053 109.682 32.1021 109.726 31.5086C109.733 31.2483 109.921 31.0583 110.067 30.8641C111.208 29.4512 112.396 28.0437 113.886 26.9847Z" fill="#02B04E"/>
<path d="M92.1248 28.4968C93.3242 27.8124 94.8363 27.811 96.1005 28.3164C95.927 28.7268 95.7232 29.122 95.54 29.5283C94.6477 29.268 93.6066 29.1909 92.7817 29.6908C91.9981 30.1342 91.4431 31.0018 91.4555 31.9135C91.4514 33.8428 91.4569 35.7735 91.4541 37.7029C91.45 38.4025 91.4927 39.1062 91.3811 39.8003C90.9528 39.8154 90.5245 39.8154 90.0976 39.8154C90.0742 37.1837 90.0742 34.5507 90.0976 31.919C90.0715 30.5171 90.9184 29.1799 92.1248 28.4968Z" fill="#02B04E"/>
<path d="M101.039 28.2104C102.682 27.5962 104.705 28.1305 105.776 29.5338C106.324 30.2471 106.671 31.1423 106.641 32.0498C106.626 34.6402 106.653 37.2292 106.626 39.8182C106.174 39.8223 105.718 39.8278 105.275 39.7369C105.275 37.1755 105.275 34.614 105.275 32.0526C105.293 30.9632 104.56 29.9345 103.559 29.5338C103.041 29.2887 102.45 29.3148 101.895 29.3658C100.645 29.604 99.6439 30.7746 99.6232 32.0498C99.6383 32.8692 99.5116 33.734 99.8766 34.5025C100.334 35.5243 101.453 36.2294 102.579 36.1399C103.263 36.1867 103.874 35.841 104.449 35.5174C104.451 36.0021 104.451 36.4869 104.449 36.973C102.774 38.0265 100.425 37.4826 99.2197 35.9663C98.7184 35.3246 98.3135 34.5479 98.3425 33.712C98.3562 32.843 98.2846 31.9672 98.4003 31.1037C98.7391 29.7858 99.7719 28.6869 101.039 28.2104Z" fill="#02B04E"/>
<path d="M115.956 28.377C117.182 27.716 118.756 27.8675 119.892 28.6497C120.623 29.162 121.24 29.8684 121.553 30.7126C121.917 31.5761 121.754 32.529 121.791 33.4366C121.84 35.6524 119.776 37.5845 117.585 37.5184C115.572 37.5129 113.852 35.7914 113.518 33.8676C113.772 33.365 114.201 32.9766 114.582 32.569C114.758 33.6376 115.148 34.7214 115.985 35.4527C116.719 36.2363 117.973 36.3506 118.896 35.8465C119.655 35.4885 120.193 34.7545 120.393 33.9489C120.476 33.365 120.429 32.7728 120.44 32.1848C120.488 31.1368 119.856 30.1012 118.922 29.6329C117.936 29.0986 116.658 29.2749 115.811 29.9937C114.927 30.7663 114.142 31.6449 113.381 32.5359C112.125 33.9309 110.958 35.4031 109.792 36.8725C109.667 36.2831 109.698 35.6758 109.719 35.0795C109.72 34.7848 109.924 34.5562 110.089 34.3358C111 33.1887 111.959 32.0815 112.95 31.0032C113.841 30.0158 114.736 28.9664 115.956 28.377Z" fill="#02B04E"/>
<path d="M113.634 46.0152C114.303 45.6709 115.077 45.7302 115.806 45.7357C117.341 45.7453 118.772 46.858 119.243 48.3081C119.49 48.9678 119.447 49.6811 119.451 50.3738C119.451 52.8361 119.447 55.2984 119.452 57.7607C118.783 57.7649 118.115 57.7786 117.446 57.7662C116.811 57.8076 116.314 57.1823 116.317 56.5819C116.303 54.6498 116.313 52.7163 116.317 50.7842C116.306 50.3064 116.373 49.7886 116.116 49.3589C115.804 48.7364 115.125 48.2985 114.422 48.3384C113.711 48.3013 113.08 48.7777 112.736 49.3672C112.543 49.7156 112.548 50.1232 112.538 50.5102C112.543 52.9229 112.536 55.3356 112.542 57.7497C111.723 57.7566 110.895 57.82 110.08 57.7249C109.698 57.5335 109.355 57.1507 109.375 56.699C109.369 54.6347 109.376 52.5703 109.376 50.5074C109.5 49.3713 108.569 48.2269 107.4 48.2668C106.804 48.3329 106.221 48.6538 105.91 49.1771C105.596 49.6481 105.599 50.2389 105.582 50.7842C105.585 52.3459 105.586 53.9062 105.582 55.4678C105.57 56.2335 105.674 57.0006 105.589 57.7649C104.863 57.7594 104.137 57.7869 103.412 57.7594C103.011 57.769 102.713 57.4275 102.544 57.1025C102.433 56.659 102.477 56.1949 102.468 55.7432C102.478 52.4078 102.459 49.0738 102.477 45.7384C103.284 45.7632 104.103 45.6654 104.903 45.7908C105.48 46.0097 105.588 46.6666 105.688 47.1982C106.24 46.3471 107.186 45.7343 108.221 45.7398C109.006 45.7481 109.841 45.6296 110.575 45.9725C111.243 46.2851 111.696 46.8869 112.167 47.4282C112.557 46.8704 112.991 46.2948 113.635 46.0152H113.634Z" fill="#0595DA"/>
<path d="M151.801 45.7343C152.442 45.7536 153.087 45.6847 153.725 45.7742C154.331 45.9381 154.553 46.6308 154.531 47.1968C154.531 50.4138 154.526 53.6321 154.531 56.8491C154.528 57.1534 154.511 57.4578 154.48 57.7621C153.932 57.7662 153.383 57.78 152.835 57.7649C152.3 57.8103 152.027 57.2595 151.719 56.9193C151.02 57.3559 150.251 57.7594 149.408 57.7621C148.473 57.7649 147.513 57.842 146.611 57.5487C145.212 57.1837 143.987 56.1729 143.437 54.8275C142.775 53.2451 142.738 51.4521 143.067 49.7872C143.377 48.2723 144.367 46.8718 145.802 46.2425C146.959 45.6737 148.28 45.6971 149.537 45.7522C150.35 45.7935 151.085 46.1832 151.763 46.6019C151.778 46.3113 151.789 46.0235 151.8 45.7343H151.801ZM147.784 48.1498C147.214 48.2944 146.66 48.5973 146.334 49.1014C145.793 49.918 145.732 50.9357 145.751 51.8873C145.735 52.6888 145.84 53.5192 146.236 54.2298C146.645 55.0216 147.573 55.4114 148.431 55.4265C149.249 55.4637 150.172 55.4045 150.789 54.7944C151.65 54.0439 151.746 52.8155 151.789 51.751C151.736 50.7126 151.666 49.531 150.866 48.7654C150.06 47.9776 148.824 47.99 147.784 48.1498Z" fill="#0595DA"/>
<path d="M124.238 45.8376C125.937 45.6448 127.803 45.5663 129.328 46.4779C130.591 47.1996 131.377 48.556 131.632 49.9607C131.926 51.5719 131.866 53.292 131.238 54.8206C130.668 56.2101 129.384 57.2443 127.93 57.5845C127.122 57.8296 126.269 57.758 125.436 57.769C124.031 57.7952 122.59 57.287 121.58 56.2941C120.724 55.4072 120.255 54.1967 120.13 52.9821C119.897 51.2896 120.072 49.4649 120.973 47.9804C121.675 46.8236 122.927 46.0882 124.238 45.8376ZM124.946 48.1456C124.372 48.2971 123.819 48.6139 123.492 49.122C123.105 49.7376 122.967 50.4744 122.916 51.1891C122.877 52.2371 122.905 53.3567 123.443 54.289C123.788 54.9294 124.496 55.2847 125.191 55.3921C126.136 55.4885 127.208 55.4857 127.962 54.8178C128.785 54.0962 128.908 52.9174 128.942 51.89C128.939 50.7966 128.857 49.5489 128.025 48.7406C127.204 47.9721 125.986 47.9928 124.946 48.1456Z" fill="#0595DA"/>
<path d="M135.274 46.1874C136.515 45.6599 137.888 45.7191 139.206 45.7439C140.181 45.7742 141.126 46.0758 142.006 46.4821C142.125 47.2037 142.192 47.9322 142.307 48.6552C141.656 48.7777 141.058 48.4321 140.434 48.3178C139.18 48.0327 137.782 47.8702 136.581 48.4321C135.623 48.9113 135.27 50.0488 135.276 51.0528C135.245 52.2853 135.182 53.7395 136.153 54.665C136.868 55.4127 137.969 55.4761 138.939 55.4238C139.976 55.432 140.97 55.1208 141.986 54.9721C142.097 55.6799 142.204 56.3891 142.26 57.1025C142.127 57.4536 141.664 57.4082 141.361 57.5101C139.988 57.8337 138.57 57.7841 137.171 57.7483C135.792 57.6106 134.33 57.1245 133.461 55.9815C132.731 55.0574 132.524 53.8607 132.413 52.7205C132.359 51.229 132.359 49.6687 132.992 48.2861C133.434 47.3166 134.277 46.5551 135.274 46.1874Z" fill="#0595DA"/>
<path d="M86.2623 48.4307C86.5281 48.3591 86.7925 48.2834 87.0583 48.2145C87.0831 49.4099 87.0459 50.6052 87.079 51.8005C87.5431 51.353 88.1201 50.9247 88.7976 50.9426C89.3182 50.9453 89.88 50.8792 90.3551 51.1395C91.2048 51.5237 91.7874 52.3707 91.9457 53.2782C92.1578 54.4212 91.932 55.6937 91.18 56.6053C90.1582 57.7773 88.1462 57.8158 87.09 56.6687C87.0308 56.8918 86.9743 57.1176 86.9192 57.3449C86.6975 57.3421 86.4744 57.338 86.2541 57.3338C86.261 54.3661 86.2444 51.3984 86.2623 48.4307ZM87.0624 52.4753C87.09 53.6307 87.0239 54.7903 87.0927 55.9443C87.689 56.7665 88.8128 56.9455 89.7465 56.7169C90.5934 56.4415 91.0671 55.5697 91.1759 54.7311C91.2585 53.9475 91.2379 53.0785 90.7614 52.4134C90.3744 51.8198 89.6322 51.521 88.9395 51.5706C88.211 51.5733 87.5541 51.9617 87.0624 52.4753Z" fill="#1A1A1A"/>
<path d="M97.07 51.3378C97.1843 50.915 97.6553 51.0114 97.9885 51.0087C97.8026 51.6711 97.5093 52.2949 97.2614 52.9353C96.694 54.3413 96.1487 55.757 95.5786 57.1631C95.2852 57.8819 95.0429 58.6517 94.5196 59.2439C94.0569 59.7039 93.4096 59.9531 92.7637 59.9999C92.7568 59.7645 92.7513 59.529 92.7472 59.2962C93.3036 59.1406 93.9054 58.9299 94.2042 58.3928C94.4783 57.8668 94.8652 57.254 94.6201 56.648C93.8613 54.7985 93.0433 52.9711 92.3258 51.1051C92.5985 51.0927 92.8725 51.0858 93.1452 51.0844C93.8682 52.7315 94.4686 54.4322 95.2247 56.0641C95.8512 54.4928 96.4462 52.9091 97.07 51.3378Z" fill="#1A1A1A"/>
</svg>
