<svg xmlns="http://www.w3.org/2000/svg" width="40" height="40" fill="none" viewBox="0 0 40 40"><g clip-path="url(#clip0_12_1219)"><path fill="#00B041" fill-rule="evenodd" d="M40 13.3314C39.981 13.481 39.9621 13.6306 39.9432 13.7802C39.8068 14.8481 39.3543 15.7665 38.6101 16.5391C37.8545 17.3268 36.9362 17.8192 35.8568 17.9991C34.1261 18.2888 32.1246 17.5787 31.1096 15.9919C30.9524 15.7457 30.8502 15.4654 30.7233 15.2003C30.6911 15.1322 30.7025 15.0754 30.7555 15.0129C30.943 14.7951 31.121 14.5717 31.3027 14.3501C31.3217 14.3274 31.3312 14.299 31.3596 14.2479C31.4277 14.4353 31.4694 14.5811 31.53 14.7175C32.1056 16.0127 33.0922 16.7966 34.4859 17.0333C36.5044 17.378 38.434 16.0184 38.8941 14.0907C38.9661 13.7896 38.9983 13.4753 39.0115 13.1666C39.0267 12.7652 39.0172 12.36 38.9926 11.9566C38.9471 11.1897 38.6669 10.5062 38.2011 9.9021C37.5194 9.01969 36.6256 8.48192 35.516 8.35315C34.4139 8.22628 33.4349 8.55955 32.5828 9.26018C31.6947 9.9911 30.9259 10.8394 30.1874 11.718C29.8447 12.1271 29.5152 12.5474 29.18 12.9621C29.1592 12.9867 29.1365 13.0095 29.1005 13.0492C29.0967 12.9981 29.0948 12.9697 29.0948 12.9413C29.0948 12.5342 29.0929 12.1252 29.0967 11.718C29.0967 11.6612 29.1138 11.595 29.1479 11.5514C29.7368 10.7883 30.3484 10.0441 31.0339 9.36622C31.5413 8.86442 32.0924 8.41375 32.6945 8.03124C33.2475 7.67904 33.8591 7.48021 34.5067 7.395C37.0782 7.05794 39.3183 8.87578 39.8466 11.1064C39.9091 11.3658 39.9299 11.6347 39.9697 11.8998C39.9791 11.9585 39.9905 12.0172 40.0019 12.0759V13.3257L40 13.3314Z" clip-rule="evenodd"/><path fill="#00B041" fill-rule="evenodd" d="M26.9854 34.2214C27.0592 34.2801 27.1122 34.3198 27.1653 34.3634C27.9397 34.992 28.8203 35.3916 29.8106 35.5185C30.4696 35.6037 31.1266 35.5904 31.7553 35.3291C32.454 35.0375 32.8044 34.4846 32.8687 33.7499C32.9028 33.3617 32.8896 32.9697 32.8952 32.5796C32.8952 32.5474 32.8877 32.5152 32.8839 32.4698C32.8574 32.4831 32.8403 32.4868 32.8309 32.4982C32.3897 33 31.814 33.2613 31.1778 33.3863C30.142 33.5927 29.1384 33.481 28.1992 32.983C27.1956 32.4509 26.6161 31.5836 26.3378 30.5005C26.2279 30.0744 26.1806 29.6408 26.1806 29.2015C26.1806 27.2738 26.1806 25.348 26.1806 23.4204C26.1806 23.308 26.238 23.2518 26.3529 23.2518C27.0176 23.2518 27.6803 23.2556 28.345 23.2481C28.4794 23.2481 28.5097 23.2878 28.5097 23.4166C28.5059 25.3746 28.4965 27.3325 28.5135 29.2886C28.5211 30.188 29.0551 31.0988 30.1893 31.2958C30.8445 31.4094 31.4694 31.3052 32.009 30.883C32.4162 30.563 32.6207 30.1255 32.6869 29.6219C32.7135 29.4249 32.7154 29.2242 32.7154 29.0254C32.7154 27.1583 32.7154 25.2931 32.7154 23.4261C32.7154 23.3087 32.7747 23.25 32.8933 23.25C33.541 23.25 34.1867 23.25 34.8343 23.25C34.9327 23.25 34.9687 23.2765 34.9687 23.3825C34.9649 26.8383 34.9763 30.2922 34.9592 33.748C34.9555 34.6929 34.6752 35.5677 34.0295 36.2929C33.4898 36.8989 32.8006 37.2568 32.0261 37.4613C31.5678 37.5825 31.1001 37.6355 30.6267 37.6582C29.3126 37.7188 28.1386 37.3533 27.1085 36.5296C27.0157 36.4558 26.974 36.3763 26.9759 36.2551C26.9816 35.6169 26.9778 34.9788 26.9797 34.3407C26.9797 34.3104 26.9835 34.2801 26.9873 34.2195L26.9854 34.2214Z" clip-rule="evenodd"/><path fill="#00B041" fill-rule="evenodd" d="M7.36034 33.5302H7.20507C6.56693 33.5302 5.92879 33.5264 5.29066 33.534C5.15432 33.534 5.12592 33.4923 5.12592 33.3655C5.1297 30.6444 5.12781 27.9233 5.12781 25.2003C5.12781 23.89 5.12781 22.5796 5.12781 21.2674C5.12781 21.097 5.12781 21.0951 5.29823 21.0951C6.88316 21.0951 8.46809 21.0685 10.0511 21.1064C11.1948 21.1329 12.2439 21.4813 13.0733 22.324C13.594 22.8523 13.9008 23.498 14.039 24.2195C14.2151 25.136 14.1962 26.0506 13.8875 26.9386C13.4217 28.2736 12.456 29.0614 11.1096 29.4136C10.6552 29.5329 10.1912 29.5802 9.71974 29.5802C8.99071 29.5802 8.26168 29.5802 7.53266 29.5802C7.36223 29.5802 7.36223 29.5802 7.36223 29.7525C7.36223 30.9549 7.36223 32.1574 7.36223 33.3598V33.5283L7.36034 33.5302ZM8.63283 27.5029C8.94148 27.5029 9.24824 27.5124 9.55689 27.4991C9.8201 27.4878 10.0871 27.4745 10.3427 27.4215C11.0452 27.2738 11.5565 26.8818 11.7913 26.1869C11.9807 25.6302 11.9826 25.0621 11.8178 24.4997C11.6588 23.9544 11.3047 23.5794 10.7745 23.3674C10.4431 23.2348 10.0966 23.1837 9.74625 23.178C8.99261 23.1685 8.23707 23.1761 7.48153 23.1742C7.38496 23.1742 7.35655 23.2102 7.35655 23.3049C7.35845 24.6588 7.36034 26.0108 7.35655 27.3647C7.35655 27.4745 7.39253 27.5048 7.49857 27.5048C7.87539 27.4991 8.25411 27.5048 8.63093 27.5048L8.63283 27.5029Z" clip-rule="evenodd"/><path fill="#00B041" fill-rule="evenodd" d="M22.5355 32.4736C22.0242 33.0076 21.4088 33.303 20.7101 33.4412C20.1912 33.5454 19.6686 33.5378 19.146 33.4829C18.5097 33.4166 17.9057 33.2481 17.3433 32.9394C16.3018 32.3657 15.6656 31.4757 15.3456 30.3433C15.2054 29.8453 15.141 29.334 15.1392 28.8171C15.1392 28.3191 15.1259 27.8173 15.1676 27.3212C15.3304 25.3954 16.4192 23.7934 18.5419 23.2897C19.6516 23.0265 20.765 23.0492 21.8462 23.4242C23.3043 23.9316 24.1943 24.9693 24.5711 26.4577C24.6809 26.8951 24.732 27.342 24.732 27.7946C24.732 29.6048 24.732 31.4132 24.732 33.2234C24.732 33.3459 24.6708 33.4071 24.5484 33.4071C23.9273 33.4071 23.3081 33.4052 22.687 33.409C22.5733 33.409 22.526 33.3844 22.5317 33.2575C22.5412 32.9943 22.5355 32.7311 22.5355 32.4679V32.4736ZM22.5582 28.3626C22.5317 27.9953 22.5393 27.6241 22.4749 27.2643C22.3158 26.3895 21.8235 25.7646 20.9808 25.4484C20.4525 25.2496 19.9072 25.2344 19.3562 25.3329C18.3317 25.5147 17.5421 26.3157 17.3887 27.342C17.3035 27.9157 17.3054 28.4933 17.366 29.067C17.4664 30.0233 17.953 30.7296 18.8297 31.1405C19.3751 31.398 19.9526 31.4208 20.5453 31.3412C21.4789 31.2144 22.1776 30.616 22.4313 29.709C22.5544 29.2678 22.5412 28.8171 22.562 28.3645L22.5582 28.3626Z" clip-rule="evenodd"/><path fill="#00B041" fill-rule="evenodd" d="M10.1931 12.0475H6.10867C6.10488 11.9907 6.1011 11.9453 6.1011 11.8998C6.1011 11.6821 6.1011 11.4662 6.1011 11.2484C6.1011 11.1298 6.16295 11.0704 6.28667 11.0704H9.59475C10.0719 11.0704 10.5491 11.0742 11.0263 11.0685C11.1399 11.0685 11.1759 11.1007 11.174 11.2144C11.1702 12.911 11.174 14.6076 11.1683 16.3062C11.1683 16.3763 11.1361 16.4615 11.0907 16.5145C10.5965 17.0939 9.96968 17.4935 9.28231 17.8002C8.63281 18.0899 7.95112 18.2547 7.24292 18.3323C6.0405 18.463 4.86837 18.3532 3.76063 17.8419C1.8216 16.9424 0.605924 15.4408 0.16472 13.3503C-0.0947007 12.1195 -0.0700842 10.883 0.382482 9.69002C0.977066 8.12024 2.05451 6.97273 3.52393 6.18311C4.30219 5.76463 5.13537 5.51467 6.01588 5.41621C6.6616 5.34425 7.30541 5.37076 7.94923 5.42C8.58169 5.46923 9.20089 5.58663 9.79737 5.80818C9.91855 5.85363 9.97347 5.90854 9.96589 6.04866C9.95264 6.34596 9.96211 6.64514 9.96211 6.96137C9.84092 6.90078 9.74056 6.84586 9.63641 6.79663C9.09485 6.53531 8.52109 6.3933 7.92651 6.34596C7.49477 6.31187 7.06303 6.28915 6.6294 6.29483C5.33798 6.31187 4.1829 6.73414 3.16036 7.51619C2.19085 8.25658 1.51484 9.20716 1.17589 10.3869C1.00358 10.9833 0.973279 11.595 0.997895 12.2142C1.03009 13.0019 1.19672 13.7518 1.55082 14.4543C2.32719 15.99 3.55991 16.9424 5.2452 17.3022C5.92689 17.448 6.61426 17.4329 7.30163 17.3533C8.11208 17.2606 8.88277 17.0447 9.57582 16.6035C9.76517 16.4823 9.94128 16.3384 10.1098 16.1907C10.1609 16.1471 10.1988 16.0581 10.1988 15.99C10.2045 14.7232 10.2026 13.4545 10.2026 12.1877C10.2026 12.146 10.195 12.1024 10.1893 12.0513L10.1931 12.0475Z" clip-rule="evenodd"/><path fill="#00B041" fill-rule="evenodd" d="M24.9915 16.7891C24.9915 17.1034 24.9952 17.4026 24.9877 17.7018C24.9877 17.7358 24.929 17.7889 24.8892 17.8002C24.5862 17.8835 24.2833 17.9972 23.9746 18.0293C22.7021 18.1657 21.5508 17.8286 20.5378 17.0504C19.4717 16.2304 18.8146 15.153 18.6423 13.818C18.5684 13.25 18.593 12.6667 18.6025 12.0911C18.6252 10.936 19.0475 9.92861 19.8011 9.06135C20.5529 8.19788 21.4902 7.63548 22.6207 7.44045C24.1507 7.17534 25.5198 7.55595 26.6957 8.57281C27.6046 9.35864 28.1499 10.3603 28.345 11.5457C28.381 11.7711 28.3999 12.0021 28.3999 12.2312C28.4037 14.1153 28.4018 15.9994 28.4018 17.8816V18.0559H27.4266V17.8703C27.4266 15.9862 27.4399 14.1021 27.4228 12.2198C27.4058 10.2392 25.9761 8.72619 24.2208 8.3967C22.0981 8.00095 20.0568 9.45143 19.6345 11.5268C19.5929 11.7332 19.5663 11.9472 19.5645 12.1574C19.5569 12.7122 19.5133 13.2689 19.625 13.818C19.9167 15.2647 20.7612 16.2664 22.117 16.825C23.0183 17.1962 23.9329 17.1678 24.8457 16.8383C24.8892 16.8231 24.9328 16.808 24.9915 16.7891Z" clip-rule="evenodd"/><path fill="#00B041" fill-rule="evenodd" d="M9.44329 12.805V12.9432C9.44329 13.8464 9.44329 14.7478 9.44518 15.651C9.44518 15.7495 9.41488 15.812 9.33914 15.8707C8.91687 16.202 8.42643 16.38 7.91138 16.4955C7.33005 16.6262 6.73547 16.6906 6.14278 16.6508C4.39879 16.5353 3.10737 15.6908 2.27419 14.1608C1.90873 13.4904 1.76103 12.7633 1.74778 12.0002C1.73452 11.2617 1.8292 10.5478 2.153 9.87748C2.74759 8.64855 3.70953 7.82674 4.97822 7.35145C5.74134 7.06552 6.53475 7.00114 7.34331 7.05226C8.03068 7.09581 8.7029 7.19996 9.34482 7.45181C9.52661 7.52187 9.70271 7.60708 9.87692 7.69229C9.91479 7.71123 9.95645 7.76614 9.95645 7.80401C9.96213 8.15054 9.96024 8.49706 9.96024 8.87199C9.90722 8.83602 9.86934 8.81329 9.83337 8.78678C9.29748 8.38156 8.68586 8.16379 8.025 8.09184C7.5819 8.0445 7.13312 7.99905 6.69002 8.01799C5.12782 8.08426 3.90646 8.76027 3.11873 10.1369C2.84605 10.6141 2.73054 11.1405 2.71918 11.6934C2.70593 12.3335 2.77031 12.9583 3.04677 13.5435C3.59591 14.7061 4.49915 15.4295 5.77732 15.6302C6.67866 15.7722 7.56296 15.6453 8.42075 15.3348C8.50786 15.3026 8.54005 15.2534 8.54005 15.1625C8.53626 14.7553 8.53437 14.3463 8.54005 13.9392C8.54194 13.8123 8.50597 13.7669 8.37152 13.7669C7.66332 13.7726 6.95702 13.7669 6.24882 13.7726C6.13142 13.7726 6.09165 13.7442 6.09544 13.6211C6.10491 13.3522 6.09922 13.0852 6.09922 12.805H9.44139H9.44329Z" clip-rule="evenodd"/><path fill="#00B041" fill-rule="evenodd" d="M32.7324 12.5948C32.7892 12.8504 32.8252 13.0663 32.8839 13.2765C33.0486 13.854 33.3345 14.3596 33.7663 14.7856C34.6752 15.6813 35.9477 15.4314 36.6559 14.708C37.0479 14.3085 37.2637 13.8256 37.2732 13.2632C37.2808 12.839 37.3016 12.4111 37.2637 11.9907C37.1804 11.0837 36.4949 10.3263 35.6049 10.1236C34.821 9.94565 34.1393 10.1634 33.5504 10.6917C32.7684 11.3961 32.0886 12.199 31.4126 13.0019C30.6438 13.9146 29.8996 14.8462 29.1459 15.7703C29.1384 15.7798 29.1327 15.793 29.1005 15.7987C29.0986 15.7646 29.0929 15.7305 29.0929 15.6946C29.0929 15.2742 29.0891 14.8519 29.0967 14.4315C29.0967 14.3596 29.1251 14.2763 29.1668 14.2195C29.8636 13.2916 30.6192 12.4149 31.405 11.5628C31.8329 11.0969 32.2628 10.6311 32.7172 10.188C33.2304 9.68812 33.825 9.30373 34.5351 9.15035C35.3815 8.96856 36.1636 9.16171 36.8661 9.65593C37.5894 10.1634 38.0458 10.8546 38.2105 11.7275C38.2389 11.879 38.2503 12.0381 38.2503 12.1933C38.2465 12.661 38.2673 13.1325 38.2181 13.5965C38.0836 14.8216 37.1615 15.8688 35.9534 16.2134C34.6316 16.5902 33.2853 16.0581 32.5071 14.8557C32.2704 14.4884 32.098 14.0926 31.9977 13.6684C31.9844 13.6078 32.0034 13.5207 32.0412 13.4715C32.2457 13.2083 32.4616 12.9527 32.6718 12.6932C32.6907 12.6705 32.7021 12.6421 32.7305 12.5967L32.7324 12.5948Z" clip-rule="evenodd"/><path fill="#00B041" fill-rule="evenodd" d="M24.9914 14.8822C24.9914 15.2174 24.9952 15.5298 24.9877 15.8404C24.9877 15.8877 24.9327 15.9445 24.8892 15.9748C24.6298 16.1509 24.3344 16.2399 24.0295 16.2873C22.7002 16.4918 21.441 15.8972 20.7574 14.7421C20.4696 14.2554 20.3181 13.7271 20.3219 13.1591C20.3219 12.8807 20.3238 12.6042 20.3219 12.3259C20.3124 11.2731 20.7422 10.4266 21.5527 9.77523C23.363 8.32096 26.1617 9.26396 26.6105 11.6442C26.6502 11.8601 26.6673 12.0835 26.6692 12.3032C26.6729 14.1645 26.671 16.0259 26.671 17.8873C26.671 18.0035 26.6117 18.0622 26.493 18.0634C26.2753 18.0634 26.0594 18.0577 25.8417 18.0653C25.7299 18.0691 25.7034 18.0275 25.7034 17.9233C25.7072 17.4234 25.7034 16.9254 25.7034 16.4255C25.7034 15.0678 25.7034 13.7082 25.7034 12.3505C25.7034 11.8676 25.5993 11.4113 25.3171 11.0117C24.8721 10.385 24.2643 10.0763 23.4917 10.0612C22.5866 10.0441 21.6284 10.6482 21.3652 11.701C21.3236 11.8714 21.3046 12.0513 21.299 12.2274C21.2876 12.5342 21.2952 12.8428 21.2952 13.1515C21.2952 14.263 22.0696 15.1776 23.1717 15.3348C23.7739 15.4219 24.3438 15.2931 24.8627 14.9674C24.8987 14.9447 24.9346 14.9201 24.9933 14.8822H24.9914Z" clip-rule="evenodd"/><path fill="#00B041" fill-rule="evenodd" d="M19.6876 8.0161C19.4414 8.28309 19.2255 8.51979 19.0134 8.74891C18.7616 8.65423 18.5192 8.52926 18.2617 8.47056C16.7184 8.12024 15.3437 8.41375 14.2321 9.60102C13.736 10.1312 13.4615 10.7807 13.3554 11.4946C13.3043 11.8317 13.2854 12.1763 13.2854 12.5171C13.2778 14.3047 13.2816 16.0922 13.2816 17.8798C13.2816 18.0022 13.2203 18.0634 13.0979 18.0634C12.8763 18.0634 12.6548 18.0596 12.4332 18.0634C12.3405 18.0653 12.3064 18.0312 12.3139 17.9441C12.3158 17.9233 12.3139 17.9006 12.3139 17.8798C12.3139 16.0184 12.3139 14.157 12.3139 12.2956C12.3139 11.2219 12.5772 10.2278 13.2001 9.34539C13.9367 8.30203 14.9536 7.68851 16.1996 7.4537C17.1691 7.27003 18.1235 7.33062 19.0456 7.69419C19.2615 7.7794 19.4622 7.90248 19.6857 8.0161H19.6876Z" clip-rule="evenodd"/><path fill="#00B041" fill-rule="evenodd" d="M18.5873 9.37379C18.4397 9.6673 18.3014 9.94376 18.1651 10.2145C17.9719 10.1691 17.7807 10.1047 17.5856 10.082C16.6578 9.97217 15.7602 10.2638 15.2774 11.1575C15.1013 11.4832 15.0179 11.8373 15.0179 12.2066C15.0179 14.0945 15.0179 15.9824 15.0179 17.8703V18.0502H14.0522C14.0503 18.0047 14.0446 17.9593 14.0446 17.9138C14.0446 15.9956 14.0276 14.0774 14.0503 12.1593C14.0674 10.6122 15.1335 9.40598 16.5858 9.14467C17.1672 9.04052 17.7409 9.07461 18.3052 9.2526C18.4018 9.2829 18.4927 9.33403 18.5873 9.37569V9.37379Z" clip-rule="evenodd"/><path fill="#00B041" fill-rule="evenodd" d="M30.1212 3.00758H31.0793C31.0812 3.0606 31.0869 3.10604 31.0869 3.15149C31.0869 4.81026 31.0869 6.46715 31.0869 8.12592C31.0869 8.21114 31.0604 8.26605 30.9998 8.32854C30.7385 8.59364 30.4847 8.86821 30.2291 9.13899C30.1969 9.17307 30.1666 9.20716 30.1212 9.26018V3.00758Z" clip-rule="evenodd"/><path fill="#00B041" fill-rule="evenodd" d="M31.8481 7.80401V7.63927C31.8481 6.15092 31.8481 4.66256 31.8481 3.17232C31.8481 3.05744 31.908 3 32.028 3C32.2268 3 32.4275 3 32.6263 3C32.7501 3 32.8125 3.06438 32.8138 3.19315C32.8138 3.47908 32.8138 3.7669 32.8138 4.05283C32.8138 5.03749 32.8138 6.02405 32.8138 7.00871C32.8138 7.11096 32.7835 7.16966 32.6926 7.22647C32.4427 7.38364 32.2041 7.55785 31.9617 7.72448C31.9314 7.74531 31.9011 7.76614 31.8462 7.80401H31.8481Z" clip-rule="evenodd"/></g><defs><clipPath id="clip0_12_1219"><rect width="40" height="40" fill="#fff"/></clipPath></defs></svg>