<svg width="96" height="40" viewBox="0 0 96 40" fill="none" xmlns="http://www.w3.org/2000/svg">
<g clip-path="url(#clip0_12_558)">
<path d="M39.0115 0.100331C39.3067 -0.0884897 39.6755 0.0494431 39.9989 0.0373907C39.9737 2.2711 40.0322 4.51017 39.9707 6.73986C39.6755 7.18847 39.3732 7.63977 39.0135 8C38.9943 5.36722 38.9974 2.73177 39.0115 0.100331Z" fill="#02B04E"/>
<path d="M41 0.014717C41.3323 -0.00094449 41.6658 -0.00355473 41.9992 0.00427599C41.9949 1.7427 42.0076 3.48242 41.9917 5.22084C41.6626 5.47795 41.345 5.75725 41.0085 6C40.9915 4.00578 41.0095 2.01025 41 0.014717Z" fill="#02B04E"/>
<path d="M55.0073 2.02161C56.8086 1.9798 58.6114 2.01352 60.4127 2.00273C61.5085 2.02026 62.6255 1.92855 63.6973 2.1956C65.0094 2.50041 66.2451 3.20984 67.02 4.28208C67.7411 5.29497 68.0408 6.54254 67.9956 7.75774C68.0507 9.2818 67.5346 10.8773 66.3639 11.9509C65.2285 13.0704 63.5615 13.5424 61.9666 13.6018C60.762 13.6328 59.5587 13.6058 58.3541 13.6153C58.3399 15.4064 58.3654 17.2002 58.3413 18.9926C57.2526 18.9953 56.1653 19.0129 55.078 18.9818C54.9861 18.4356 54.9988 17.8826 55.0031 17.3337C55.0073 12.2288 55.0002 7.12519 55.0073 2.02161ZM58.3498 4.89709C58.3526 6.82577 58.3484 8.7558 58.3526 10.6845C59.5559 10.675 60.7606 10.7061 61.9652 10.6683C63.1218 10.6211 64.3038 9.94268 64.6121 8.82863C64.8637 7.86564 64.8567 6.72732 64.2091 5.8992C63.6209 5.17358 62.617 4.90654 61.6937 4.88496C60.5782 4.889 59.464 4.87686 58.3498 4.89709Z" fill="#02B04E"/>
<path d="M0.166253 9.53471C1.00172 5.983 4.46074 3.32746 8.13568 3.0237C9.87719 2.96872 11.6723 2.95634 13.315 3.60374C13.3348 4.11505 13.3348 4.62774 13.3235 5.14043C11.7612 4.26625 9.904 4.17003 8.14697 4.28411C6.36172 4.51366 4.63574 5.30812 3.39947 6.59603C2.09263 7.8317 1.37571 9.59244 1.31502 11.3532C1.30656 13.2871 1.98538 15.2691 3.41923 16.6436C4.95186 18.1803 7.25364 18.8882 9.42135 18.6284C10.9314 18.5185 12.4655 18.0346 13.586 17.0093C13.5705 15.2471 13.61 13.485 13.5648 11.7243C11.7429 11.7188 9.92094 11.727 8.09899 11.7202C8.08488 11.2913 8.08347 10.8625 8.09193 10.435C10.3881 10.4254 12.6842 10.4336 14.9803 10.4295C15.0043 12.6672 14.9803 14.9049 14.993 17.1426C15.0565 17.5384 14.6713 17.7735 14.4299 18.025C12.8733 19.3652 10.7705 20.0249 8.70725 19.9906C6.92482 20.0758 5.12686 19.5823 3.65773 18.5968C1.6128 17.2567 0.239639 14.9874 0.0223034 12.5985C0.0335935 11.5786 -0.0962432 10.534 0.166253 9.53471Z" fill="#02B04E"/>
<path d="M2.50461 8.89379C3.75313 6.123 7.00518 4.59497 9.94229 5.09349C11.0038 5.15704 12.0513 5.43525 12.9905 5.94082C13.0017 6.48877 13.0045 7.03671 12.9905 7.58466C11.621 6.50289 9.80591 6.32777 8.12576 6.44358C6.77882 6.61728 5.47968 7.25137 4.57844 8.2823C2.79143 10.2058 3.00374 13.5654 4.92151 15.3251C5.41641 15.7939 6.01958 16.1484 6.66493 16.3645C7.56477 16.6935 8.54755 16.5975 9.48254 16.5283C9.99994 16.3899 10.6214 16.3814 11.0333 16.0157C11.195 15.4197 11.098 14.7658 11.0362 14.1543C9.95214 14.1473 8.86671 14.1628 7.78269 14.1445C7.77566 13.6869 7.77426 13.2293 7.77848 12.7718C9.30819 12.7633 10.8379 12.7534 12.3676 12.7774C12.362 14.0174 12.3859 15.2601 12.3592 16.5001C12.3522 16.9647 11.884 17.1807 11.5311 17.3629C10.3767 17.884 9.08886 18.0408 7.83331 17.9914C4.97071 17.901 2.42306 15.5101 2.0561 12.6715C1.95487 11.4033 1.93237 10.0645 2.50461 8.89379Z" fill="#02B04E"/>
<path d="M72.6205 5.57956C73.9774 5.03949 75.4824 4.83536 76.9113 5.1458C78.4857 5.38536 80.02 6.26281 80.9006 7.69734C81.6731 8.92775 81.9973 10.4246 81.9933 11.8918C82.0013 14.5227 81.9893 17.155 82 19.786C80.9993 19.793 79.9987 19.7902 78.998 19.7874C78.998 19.3678 79.002 18.9468 78.994 18.5272C78.519 18.8958 78.0574 19.3026 77.5024 19.5308C76.8299 19.8412 76.0908 19.922 75.3703 20C74.1802 19.9107 72.9607 19.7363 71.9107 19.09C70.0494 18.0382 69.0448 15.7602 69.0128 13.5815C69.0194 12.181 68.8913 10.7408 69.3236 9.38986C69.8146 7.67607 71.0368 6.21886 72.6205 5.57956ZM74.6178 8.27994C73.397 8.52659 72.3923 9.58973 72.1308 10.8768C71.9614 11.8067 71.956 12.7692 72.0761 13.7062C72.2562 15.1393 73.3129 16.391 74.6458 16.7043C75.6091 16.8956 76.6685 16.8333 77.525 16.2833C78.3589 15.7503 78.8566 14.7396 78.91 13.7218C78.9513 12.9663 78.9527 12.2065 78.9166 11.4509C78.8593 10.3609 78.3362 9.25377 77.4223 8.70378C76.5858 8.1878 75.5557 8.00069 74.6178 8.27994Z" fill="#02B04E"/>
<path d="M84.0054 5.00955C85.0782 5.00269 86.1524 4.98899 87.2252 5.0164C87.2198 7.7686 87.2252 10.5194 87.2211 13.2703C87.2561 14.2886 87.7145 15.3893 88.6596 15.8512C89.2203 16.1966 89.8978 16.1171 90.5243 16.1129C91.4466 16.1239 92.268 15.44 92.6323 14.608C92.881 14.0598 92.8703 13.4443 92.8662 12.855C92.8595 10.2412 92.8662 7.62743 92.8622 5.01503C93.9081 4.99173 94.9541 5.00269 96 5.00818C95.9973 9.91088 96.0014 14.815 95.9987 19.7177C95.9449 21.2487 95.2834 22.8029 94.0614 23.7377C92.8205 24.6725 91.2382 25.0508 89.7123 24.9946C88.0251 25.0672 86.3379 24.4079 85.0768 23.2744C85.0755 22.2355 85.0607 21.1966 85.0849 20.159C85.7652 20.636 86.4266 21.1609 87.2023 21.4748C88.3693 21.9874 89.6773 22.1382 90.9303 21.9285C91.7396 21.7517 92.5301 21.2528 92.8555 20.4482C93.1902 19.6656 93.1432 18.7925 93.1244 17.9605C92.4159 18.5047 91.6334 18.9844 90.7461 19.1365C89.2283 19.3819 87.5761 19.1735 86.2922 18.2634C84.812 17.2656 84.0968 15.4331 84 13.6815C84.0027 10.7908 83.996 7.90018 84.0054 5.00955Z" fill="#02B04E"/>
<path d="M17.6221 7.9654C18.8668 6.66933 20.7175 5.91031 22.5623 6.01307C23.7641 5.93634 24.963 6.19803 26 6.78304C25.8167 7.21461 25.4256 7.51191 25.1205 7.86265C22.9892 6.82688 20.1316 7.22968 18.566 9.00528C17.6708 10.0164 17.2769 11.3782 17.3328 12.688C17.3356 15.1199 17.3414 17.5517 17.3299 19.9836C16.8945 19.9973 16.459 19.9973 16.0236 20C15.9821 17.3352 16.0207 14.6691 16.0036 12.0057C15.9448 10.5206 16.6195 9.07378 17.6221 7.9654Z" fill="#02B04E"/>
<path d="M24.0033 12.2688C23.9352 8.92587 27.0622 5.82678 30.4799 6.01036C33.9672 5.79389 37.1568 9.00259 36.994 12.4127C36.9829 14.9391 37.0038 17.4669 36.9829 19.9946C36.5169 20.0042 36.0454 20.0152 35.5933 19.8905C35.5988 17.2613 35.6002 14.6308 35.5933 12.0017C35.6114 10.8535 35.0494 9.7712 34.2982 8.92449C33.0853 7.63937 31.1629 7.00092 29.4185 7.42427C27.6812 7.80926 26.2025 9.12726 25.628 10.7878C25.2511 11.7441 25.3818 12.7867 25.3693 13.7882C25.4611 16.179 27.5073 18.2916 29.9096 18.5656C30.7901 18.689 31.6734 18.4903 32.5024 18.2067C32.515 18.6574 32.515 19.1082 32.508 19.5589C30.2921 20.47 27.62 19.7412 25.9535 18.1039C25.0925 17.3038 24.5083 16.2489 24.1841 15.1364C23.9143 14.2034 24.0284 13.2251 24.0033 12.2688Z" fill="#02B04E"/>
<path d="M42.0918 7.22847C42.9102 6.60275 43.8753 6.13931 44.8983 6.02929C45.8916 5.98666 46.9254 5.93303 47.8649 6.32771C50.2352 7.21335 52.1008 9.66121 51.9958 12.2947C51.9783 13.1185 52.0415 13.9491 51.9312 14.7701C51.5704 16.7463 50.2231 18.4845 48.4585 19.3578C46.2025 20.5143 43.2777 20.0784 41.4498 18.2948C40.8306 17.6883 40.2693 16.9292 40.1065 16.0587C40.3622 15.6544 40.7001 15.3119 40.9854 14.931C41.3475 16.0023 41.9357 17.0309 42.8712 17.6787C44.0866 18.5877 45.7207 18.8985 47.1609 18.4213C49.0951 17.8409 50.5663 15.9734 50.7157 13.9202C50.7628 12.7004 50.8032 11.4119 50.2473 10.2924C49.5891 8.83884 48.2364 7.7263 46.6979 7.40313C45.2778 7.06207 43.7515 7.5434 42.6329 8.46478C40.8831 9.9115 39.4765 11.7323 38.0888 13.5297C37.9878 12.9411 37.9825 12.3387 38.0255 11.746C38.0323 11.4861 38.2167 11.2963 38.3593 11.1024C39.4738 9.69147 40.6354 8.28601 42.0918 7.22847Z" fill="#02B04E"/>
<path d="M20.0377 8.54548C21.2331 7.85283 22.7401 7.85143 24 8.36291C23.8271 8.77822 23.6239 9.1782 23.4414 9.58933C22.5521 9.32593 21.5145 9.24788 20.6924 9.75378C19.9115 10.2025 19.3584 11.0806 19.3707 12.0032C19.3666 13.9557 19.3721 15.9096 19.3694 17.8621C19.3652 18.5701 19.4078 19.2823 19.2966 19.9847C18.8698 20 18.443 20 18.0175 20C17.9942 17.3367 17.9942 14.672 18.0175 12.0087C17.9914 10.59 18.8355 9.23673 20.0377 8.54548Z" fill="#02B04E"/>
<path d="M28.605 8.2549C30.1866 7.63354 32.1342 8.1741 33.1656 9.59376C33.6933 10.3154 34.0274 11.221 33.9982 12.1391C33.9836 14.7597 34.0102 17.3789 33.9836 19.9981C33.5488 20.0023 33.11 20.0078 32.6831 19.9159C32.6831 17.3246 32.6831 14.7332 32.6831 12.1419C32.7003 11.0399 31.995 9.99918 31.0311 9.59376C30.5327 9.34577 29.9639 9.37224 29.4296 9.42379C28.2258 9.66481 27.262 10.849 27.2421 12.1391C27.2567 12.9681 27.1347 13.843 27.486 14.6204C27.9262 15.6541 29.004 16.3674 30.0872 16.2769C30.7461 16.3243 31.3347 15.9746 31.8876 15.6472C31.8902 16.1376 31.8902 16.628 31.8876 17.1198C30.2755 18.1856 28.0137 17.6352 26.8536 16.1013C26.371 15.4521 25.9813 14.6664 26.0091 13.8207C26.0224 12.9416 25.9534 12.0555 26.0648 11.182C26.3909 9.84871 27.3853 8.73695 28.605 8.2549Z" fill="#02B04E"/>
<path d="M44.2063 8.43568C45.4222 7.7442 46.9836 7.90267 48.1107 8.72092C48.8361 9.25681 49.4481 9.99583 49.7582 10.8789C50.1202 11.7822 49.9576 12.779 49.9945 13.7284C50.0437 16.0463 47.9959 18.0674 45.8224 17.9983C43.8252 17.9925 42.1189 16.1918 41.7883 14.1793C42.0397 13.6535 42.4659 13.2472 42.843 12.8208C43.0178 13.9387 43.4044 15.0725 44.235 15.8374C44.9632 16.6571 46.2077 16.7767 47.123 16.2494C47.8757 15.8749 48.4098 15.107 48.6079 14.2643C48.6899 13.6535 48.6434 13.034 48.6544 12.4189C48.7022 11.3226 48.0751 10.2393 47.1489 9.74949C46.1708 9.19055 44.903 9.37494 44.0629 10.1269C43.1859 10.9351 42.4072 11.8542 41.6517 12.7862C40.4058 14.2456 39.2487 15.7855 38.0917 17.3226C37.9673 16.7061 37.9988 16.0708 38.0193 15.447C38.0206 15.1387 38.2228 14.8996 38.3867 14.6691C39.2897 13.4691 40.2419 12.3109 41.2241 11.1829C42.108 10.15 42.996 9.05225 44.2063 8.43568Z" fill="#02B04E"/>
<path d="M42.1768 26.2887C42.8467 25.9459 43.6213 26.0048 44.3504 26.0103C45.8871 26.0199 47.3191 27.1279 47.7905 28.5718C48.0372 29.2286 47.9945 29.9389 47.9986 30.6287C47.9986 33.0805 47.9945 35.5323 48 37.984C47.3302 37.9882 46.6617 38.0019 45.9919 37.9895C45.3565 38.0307 44.8589 37.4081 44.8617 36.8103C44.8479 34.8864 44.8576 32.9612 44.8617 31.0373C44.8507 30.5615 44.9182 30.0459 44.6605 29.6181C44.349 28.9983 43.6695 28.5622 42.9652 28.602C42.254 28.565 41.6228 29.0394 41.2782 29.6263C41.0853 29.9732 41.0894 30.3791 41.0797 30.7644C41.0853 33.1669 41.0784 35.5693 41.0839 37.9731C40.2638 37.9799 39.4355 38.043 38.6196 37.9484C38.2378 37.7578 37.8946 37.3766 37.9139 36.9268C37.9084 34.8713 37.9153 32.8158 37.9153 30.7617C38.0393 29.6304 37.1076 28.4909 35.9375 28.5307C35.3407 28.5965 34.7577 28.916 34.4462 29.4371C34.1319 29.906 34.1347 30.4943 34.1181 31.0373C34.1209 32.5923 34.1223 34.1459 34.1181 35.7009C34.1057 36.4633 34.2105 37.2271 34.125 37.9882C33.3987 37.9827 32.6724 38.0101 31.946 37.9827C31.5449 37.9923 31.2472 37.6522 31.0777 37.3286C30.9661 36.887 31.0102 36.4249 31.0019 35.9752C31.0115 32.654 30.9923 29.3342 31.0102 26.0131C31.8178 26.0378 32.6379 25.9404 33.4387 26.0652C34.0162 26.2832 34.1237 26.9373 34.2243 27.4666C34.777 26.6192 35.7238 26.009 36.7589 26.0144C37.5445 26.0227 38.3811 25.9047 39.1157 26.2462C39.7842 26.5575 40.2376 27.1567 40.709 27.6956C41.099 27.1402 41.5332 26.5671 42.1782 26.2887H42.1768Z" fill="#0595DA"/>
<path d="M80.1912 26.0088C80.8498 26.028 81.5141 25.9594 82.1699 26.0485C82.7931 26.2118 83.0211 26.9017 82.9985 27.4655C82.9985 30.6697 82.9942 33.8753 82.9985 37.0795C82.9956 37.3826 82.9786 37.6858 82.9461 37.9889C82.3823 37.993 81.8186 38.0067 81.2549 37.9916C80.7039 38.0369 80.4235 37.4882 80.1062 37.1494C79.3881 37.5843 78.5964 37.9861 77.7295 37.9889C76.7678 37.9916 75.7806 38.0685 74.8528 37.7763C73.4138 37.4128 72.1546 36.406 71.5881 35.0659C70.9082 33.4898 70.87 31.7039 71.2085 30.0456C71.5272 28.5367 72.5455 27.1418 74.0214 26.5149C75.2112 25.9484 76.5695 25.9717 77.8627 26.0266C78.6983 26.0677 79.4547 26.4559 80.1515 26.8729C80.1671 26.5835 80.1785 26.2968 80.1898 26.0088H80.1912ZM76.0596 28.4147C75.4732 28.5587 74.9038 28.8605 74.5681 29.3625C74.0115 30.1759 73.9492 31.1895 73.969 32.1374C73.952 32.9357 74.0597 33.7628 74.4676 34.4706C74.8882 35.2593 75.8429 35.6475 76.7253 35.6625C77.5666 35.6996 78.5156 35.6406 79.1502 35.033C80.0354 34.2854 80.1345 33.0619 80.1785 32.0016C80.1246 30.9673 80.0524 29.7904 79.2295 29.0278C78.4009 28.2432 77.129 28.2555 76.0596 28.4147Z" fill="#0595DA"/>
<path d="M52.285 26.1224C54.0182 25.9305 55.9214 25.8523 57.4763 26.7597C58.7643 27.478 59.5663 28.8282 59.8261 30.2263C60.1267 31.83 60.0649 33.5421 59.4244 35.0636C58.8429 36.4466 57.5339 37.476 56.0506 37.8146C55.2262 38.0586 54.3567 37.9873 53.507 37.9983C52.0743 38.0243 50.6037 37.5185 49.5741 36.5302C48.7005 35.6475 48.223 34.4426 48.0951 33.2337C47.8578 31.549 48.0361 29.7328 48.9547 28.2552C49.6711 27.1038 50.9478 26.3718 52.285 26.1224ZM53.0069 28.4197C52.4212 28.5705 51.858 28.8857 51.5237 29.3915C51.129 30.0042 50.9886 30.7376 50.9366 31.449C50.8973 32.4921 50.9253 33.6065 51.4745 34.5345C51.8257 35.1718 52.5476 35.5255 53.2569 35.6324C54.2205 35.7284 55.3146 35.7256 56.0829 35.0608C56.9229 34.3426 57.0479 33.1692 57.083 32.1467C57.0802 31.0583 56.9959 29.8164 56.1476 29.0118C55.3104 28.247 54.0674 28.2675 53.0069 28.4197Z" fill="#0595DA"/>
<path d="M62.9075 26.4571C64.1588 25.9317 65.5434 25.9907 66.8725 26.0153C67.8557 26.0455 68.8084 26.346 69.6959 26.7507C69.8167 27.4695 69.8833 28.1953 70 28.9155C69.3431 29.0376 68.7404 28.6933 68.1113 28.5794C66.8461 28.2954 65.4365 28.1335 64.2255 28.6933C63.2589 29.1707 62.9034 30.3038 62.9089 31.3039C62.8784 32.5318 62.8145 33.9805 63.7936 34.9024C64.5144 35.6473 65.6254 35.7104 66.6031 35.6583C67.6488 35.6665 68.6515 35.3565 69.6764 35.2083C69.7875 35.9135 69.8958 36.62 69.9528 37.3306C69.8181 37.6804 69.3514 37.6352 69.0459 37.7367C67.6613 38.0591 66.2309 38.0097 64.8199 37.974C63.4297 37.8368 61.9548 37.3526 61.0785 36.2139C60.3425 35.2934 60.1342 34.1012 60.0217 32.9653C59.9675 31.4795 59.9675 29.9252 60.6063 28.5478C61.0521 27.582 61.9021 26.8234 62.9075 26.4571Z" fill="#0595DA"/>
<path d="M14.009 28.2094C14.2855 28.14 14.5605 28.0667 14.837 28C14.8628 29.1577 14.8241 30.3154 14.8585 31.4731C15.3413 31.0397 15.9415 30.6249 16.6463 30.6422C17.1878 30.6449 17.7723 30.5808 18.2665 30.8329C19.1504 31.205 19.7564 32.0253 19.9211 32.9043C20.1417 34.0113 19.9068 35.2437 19.1246 36.1266C18.0617 37.2617 15.9687 37.299 14.87 36.188C14.8084 36.4041 14.7496 36.6228 14.6923 36.8429C14.4617 36.8402 14.2296 36.8362 14.0004 36.8322C14.0076 33.9579 13.9904 31.0837 14.009 28.2094ZM14.8413 32.1267C14.87 33.2457 14.8012 34.3687 14.8728 35.4864C15.4931 36.2827 16.6621 36.4561 17.6334 36.2347C18.5144 35.9679 19.0072 35.1237 19.1203 34.3114C19.2063 33.5525 19.1848 32.7109 18.6891 32.0667C18.2866 31.4918 17.5145 31.2024 16.7939 31.2504C16.0361 31.2531 15.3527 31.6292 14.8413 32.1267Z" fill="#1A1A1A"/>
<path d="M25.0268 31.3368C25.1479 30.914 25.6469 31.0104 26 31.0076C25.803 31.6701 25.4922 32.294 25.2296 32.9345C24.6284 34.3407 24.0506 35.7565 23.4465 37.1628C23.1357 37.8817 22.8789 38.6516 22.3244 39.2439C21.8341 39.7039 21.1483 39.9532 20.464 40C20.4567 39.7645 20.4509 39.529 20.4465 39.2962C21.036 39.1406 21.6736 38.9298 21.9903 38.3927C22.2806 37.8666 22.6907 37.2537 22.4309 36.6477C21.6269 34.7979 20.7602 32.9703 20 31.104C20.2889 31.0916 20.5793 31.0847 20.8682 31.0834C21.6342 32.7306 22.2704 34.4316 23.0715 36.0637C23.7354 34.4922 24.3658 32.9083 25.0268 31.3368Z" fill="#1A1A1A"/>
</g>
<defs>
<clipPath id="clip0_12_558">
<rect width="96" height="40" fill="white"/>
</clipPath>
</defs>
</svg>
