<svg width="40" height="40" viewBox="0 0 40 40" fill="none" xmlns="http://www.w3.org/2000/svg">
<path d="M0 15H1.56878C1.92152 15.0506 2.24726 15.2983 2.35865 15.6414C2.43587 15.8515 2.40127 16.0785 2.41139 16.297C2.60928 15.9781 2.85316 15.681 3.16329 15.4654C3.60886 15.1477 4.16076 15.0295 4.69831 15H5.12869C5.63249 15.0232 6.15485 15.1283 6.56835 15.4342C6.93502 15.6979 7.20886 16.0646 7.46498 16.4312C7.72447 15.9152 8.13671 15.462 8.67553 15.2346C9.0038 15.0852 9.36371 15.0295 9.72025 15H10.1093C10.7679 15.0384 11.4274 15.2506 11.9435 15.6705C12.6359 16.211 13.0283 17.0819 13.0422 17.9532C13.0426 20.0759 13.0422 22.1992 13.0426 24.3219C12.5768 24.3219 12.1114 24.3236 11.646 24.3215C11.143 24.3414 10.6865 23.8983 10.6848 23.397C10.6806 21.7646 10.6848 20.1325 10.6827 18.5004C10.6848 18.081 10.5089 17.6582 10.1928 17.3797C9.9 17.1181 9.50253 16.9743 9.1097 16.9996C8.71013 17.0329 8.31772 17.2181 8.06582 17.535C7.85738 17.7785 7.74093 18.0949 7.72743 18.4139C7.72152 20.3831 7.73207 22.3527 7.72194 24.3224C7.21519 24.319 6.70802 24.3291 6.20127 24.3173C5.72405 24.3021 5.31392 23.87 5.31435 23.3949C5.30844 21.7498 5.31435 20.1046 5.31139 18.4595C5.3135 18.1439 5.2249 17.8207 5.0308 17.5688C4.7865 17.2257 4.38228 17.0055 3.96287 16.9776C3.54684 16.9443 3.12321 17.1089 2.83038 17.4046C2.56582 17.6705 2.41561 18.0435 2.41097 18.4177C2.40506 20.3857 2.41519 22.354 2.40591 24.3219C1.92658 24.3219 1.44726 24.3236 0.968355 24.3215C0.775527 24.3224 0.583966 24.2667 0.423207 24.1608C0.181435 24.0139 0.0413502 23.7439 0 23.4705L0 15Z" fill="#0594DA"/>
<path d="M17.781 15H18.2929C19.257 15.038 20.2507 15.2734 21.0237 15.8776C21.7469 16.4312 22.1916 17.2831 22.3806 18.1624C22.5705 19.0549 22.5768 19.9835 22.4338 20.8835C22.2895 21.7253 21.9447 22.5574 21.33 23.1654C20.6701 23.8249 19.7528 24.1671 18.838 24.2688C17.9566 24.3646 17.0452 24.3198 16.1992 24.0388C15.4899 23.8021 14.8376 23.3641 14.3988 22.7532C13.854 22.0152 13.6241 21.0937 13.5633 20.1907C13.5177 19.3734 13.5616 18.5388 13.8076 17.7532C14.0443 16.9789 14.508 16.257 15.1789 15.7907C15.9291 15.246 16.8688 15.0422 17.781 15ZM17.446 16.8371C17.0874 16.897 16.7346 17.0342 16.457 17.2734C16.0304 17.6371 15.8473 18.1992 15.7654 18.7363C15.6907 19.3148 15.6878 19.903 15.7536 20.4827C15.8249 21.0523 16.0038 21.6532 16.4536 22.0409C16.935 22.462 17.6118 22.5451 18.2283 22.519C18.827 22.5008 19.4713 22.3076 19.8431 21.808C20.2954 21.2207 20.3612 20.4439 20.3734 19.7283C20.3722 19.2021 20.349 18.6658 20.1836 18.1616C20.046 17.7308 19.7781 17.3266 19.3789 17.0987C18.7975 16.7667 18.0937 16.7502 17.446 16.8371Z" fill="#0594DA"/>
<path d="M27.4008 15H27.8308C28.6721 15.0392 29.5097 15.2181 30.281 15.5591C30.3738 15.5992 30.4169 15.7051 30.4223 15.8004C30.4747 16.2515 30.5455 16.7008 30.5877 17.1532C30.6072 17.281 30.4451 17.3789 30.3367 17.3156C29.6219 17.0865 28.8941 16.8772 28.1434 16.8135C27.5671 16.7696 26.9721 16.7924 26.4245 16.9916C25.9818 17.154 25.608 17.5013 25.4363 17.9426C25.1709 18.616 25.1945 19.3544 25.2067 20.065C25.2426 20.7236 25.3801 21.4376 25.8654 21.9203C26.3152 22.3747 26.9801 22.5084 27.5966 22.5249C28.4768 22.5215 29.3544 22.3958 30.2063 22.1755C30.3029 22.1464 30.4012 22.2422 30.4084 22.3363C30.4641 22.8025 30.5346 23.2671 30.5818 23.7346C30.6084 23.8561 30.5021 23.962 30.3852 23.9671C29.6768 24.138 28.9548 24.2536 28.227 24.2954C27.3245 24.3447 26.4034 24.2928 25.5354 24.0236C24.8308 23.8046 24.1679 23.3857 23.7561 22.7624C23.2295 21.9844 23.0823 21.0241 23.0464 20.1038C23.0219 19.1055 23.0523 18.0709 23.4418 17.1354C23.6987 16.5046 24.1654 15.9599 24.7612 15.6262C25.5603 15.17 26.4949 15.0392 27.4008 15Z" fill="#0594DA"/>
<path d="M35.3333 15H35.7633C36.5413 15.0435 37.3569 15.2612 37.9354 15.8097C37.9346 15.5397 37.9346 15.27 37.9354 15H39.1633C39.5962 15.0544 39.9612 15.4224 40 15.8591V24.3224C39.6063 24.319 39.2126 24.3291 38.8194 24.3173C38.3835 24.2954 37.9877 23.9405 37.9443 23.5017C37.6991 23.7308 37.4109 23.9139 37.1 24.0401C36.362 24.3447 35.5422 24.3565 34.7607 24.2641C34.2974 24.2084 33.8388 24.0975 33.4118 23.9076C32.7401 23.6236 32.1561 23.1287 31.7801 22.5017C31.3173 21.7485 31.1396 20.8561 31.1033 19.9823C31.0709 19.027 31.1704 18.0409 31.5856 17.1684C31.897 16.5008 32.4181 15.9316 33.0649 15.5768C33.7544 15.1869 34.5493 15.0359 35.3333 15ZM34.9953 16.838C34.4384 16.9215 33.8949 17.2321 33.6299 17.743C33.2983 18.3464 33.2561 19.0561 33.2578 19.73C33.2654 20.3886 33.3287 21.0844 33.681 21.6586C33.9401 22.0882 34.4025 22.3637 34.8886 22.4582C35.4692 22.562 36.0852 22.5578 36.6451 22.3561C37.1367 22.1759 37.5236 21.7603 37.6932 21.2679C37.8717 20.7916 37.9177 20.2768 37.9236 19.7717C37.9287 19.2156 37.9029 18.6468 37.7181 18.1165C37.5772 17.6924 37.3 17.3042 36.905 17.084C36.3274 16.7654 35.6341 16.7515 34.9953 16.838Z" fill="#0594DA"/>
</svg>
