<svg width="172" height="40" viewBox="0 0 172 40" fill="none" xmlns="http://www.w3.org/2000/svg">
<g clip-path="url(#clip0_11_534)">
<path d="M0 0H6.73573C8.25027 0.217234 9.64886 1.27987 10.1271 2.75163C10.4587 3.65315 10.3101 4.62708 10.3536 5.5648C11.2033 4.19623 12.2504 2.92179 13.582 1.99674C15.4951 0.633598 17.8647 0.12672 20.1728 0H22.0206C24.1838 0.0995655 26.4266 0.550325 28.202 1.86278C29.7763 2.9942 30.9521 4.56734 32.0518 6.14047C33.1659 3.9265 34.9359 1.98226 37.2494 1.00652C38.6589 0.365677 40.2042 0.12672 41.735 0H43.4054C46.2334 0.164736 49.065 1.07531 51.2806 2.87654C54.2536 5.19551 55.9384 8.93193 55.9982 12.6702C56 21.7777 55.9982 30.887 56 39.9945C53.9999 39.9945 52.0017 40.0018 50.0034 39.9927C47.8439 40.0778 45.8837 38.177 45.8765 36.0264C45.8584 29.0224 45.8765 22.0203 45.8674 15.0181C45.8765 13.2187 45.121 11.4048 43.7641 10.21C42.5068 9.08761 40.8002 8.4703 39.1136 8.57892C37.3979 8.72193 35.7131 9.51665 34.6316 10.8762C33.7366 11.9207 33.2366 13.2784 33.1786 14.647C33.1532 23.0956 33.1985 31.546 33.1551 39.9963C30.9793 39.9819 28.8017 40.0253 26.6259 39.9746C24.5769 39.9095 22.816 38.0557 22.8178 36.0174C22.7924 28.9591 22.8178 21.9008 22.8051 14.8425C22.8141 13.4884 22.4337 12.1017 21.6003 11.021C20.5514 9.54923 18.8158 8.60427 17.015 8.48479C15.2288 8.34177 13.4099 9.04778 12.1526 10.3168C11.0167 11.4573 10.3717 13.0576 10.3518 14.6633C10.3264 23.1064 10.3699 31.5514 10.33 39.9945C8.27201 39.9945 6.21397 40.0018 4.15774 39.9927C3.32982 39.9963 2.50733 39.7574 1.81709 39.303C0.779011 38.673 0.177542 37.5145 0 36.3414L0 0Z" fill="#0594DA"/>
<path d="M76.375 0H78.5964C82.781 0.163078 87.0938 1.17416 90.4489 3.76891C93.5878 6.14622 95.518 9.8046 96.3384 13.5808C97.1625 17.4131 97.19 21.4013 96.5692 25.2662C95.9429 28.8811 94.4467 32.4543 91.7784 35.0654C88.9142 37.8975 84.9329 39.367 80.9625 39.8037C77.1369 40.215 73.1812 40.0229 69.5093 38.8162C66.4309 37.7996 63.5996 35.9188 61.695 33.2951C59.3308 30.1259 58.3327 26.1686 58.069 22.2909C57.8712 18.7811 58.0616 15.197 59.1293 11.8231C60.1567 8.49817 62.1693 5.39788 65.0812 3.39564C68.3373 1.05638 72.4157 0.181198 76.375 0ZM74.9209 7.88934C73.3643 8.14664 71.8333 8.73554 70.6283 9.76293C68.7768 11.3249 67.982 13.7384 67.6267 16.045C67.3026 18.5293 67.2898 21.0552 67.5754 23.5448C67.8849 25.991 68.6614 28.5712 70.6136 30.2364C72.7032 32.0448 75.6407 32.4018 78.3162 32.2894C80.9149 32.2115 83.7114 31.3816 85.3248 29.2362C87.288 26.714 87.5737 23.3781 87.6268 20.305C87.6213 18.0455 87.5205 15.7424 86.8027 13.5771C86.2057 11.7271 85.0427 9.99124 83.3103 9.01277C80.7867 7.58674 77.732 7.51608 74.9209 7.88934Z" fill="#0594DA"/>
<path d="M117.484 0H119.307C122.873 0.168559 126.424 0.937042 129.693 2.40151C130.086 2.57369 130.269 3.02862 130.292 3.43824C130.514 5.37576 130.814 7.30603 130.993 9.24898C131.076 9.79816 130.389 10.2186 129.929 9.94678C126.899 8.96262 123.814 8.06363 120.632 7.78995C118.189 7.60146 115.667 7.69933 113.346 8.55481C111.47 9.25261 109.885 10.7443 109.157 12.6401C108.032 15.5328 108.132 18.7046 108.184 21.7568C108.336 24.586 108.919 27.6527 110.976 29.7262C112.882 31.6782 115.701 32.2527 118.314 32.3234C122.045 32.3089 125.765 31.7688 129.376 30.8227C129.786 30.6976 130.203 31.1091 130.233 31.5132C130.469 33.516 130.768 35.5115 130.968 37.5197C131.081 38.0417 130.63 38.4967 130.135 38.5184C127.132 39.2524 124.072 39.7491 120.986 39.9285C117.161 40.1406 113.256 39.9176 109.577 38.7613C106.59 37.8206 103.781 36.0208 102.035 33.3438C99.8029 30.0016 99.1787 25.8765 99.0267 21.9235C98.9229 17.6352 99.0517 13.1911 100.703 9.17286C101.792 6.46323 103.77 4.12335 106.295 2.68969C109.683 0.730421 113.644 0.168559 117.484 0Z" fill="#0594DA"/>
<path d="M152.08 0H153.915C157.237 0.186459 160.718 1.12056 163.187 3.47393C163.184 2.31535 163.184 1.15858 163.187 0H168.428C170.276 0.233526 171.834 1.81209 172 3.68573V39.9963C170.32 39.9819 168.639 40.0253 166.961 39.9746C165.1 39.8805 163.411 38.358 163.225 36.4754C162.179 37.4583 160.949 38.244 159.621 38.7853C156.471 40.0923 152.972 40.143 149.636 39.7465C147.658 39.5076 145.701 39.0315 143.878 38.2168C141.011 36.9985 138.518 34.8751 136.913 32.185C134.937 28.9536 134.179 25.1249 134.024 21.3758C133.886 17.2773 134.311 13.0467 136.083 9.30303C137.412 6.43917 139.636 3.9971 142.397 2.47465C145.34 0.801955 148.734 0.153874 152.08 0ZM150.637 7.88558C148.26 8.24402 145.94 9.57639 144.809 11.7686C143.393 14.3573 143.213 17.4022 143.221 20.2932C143.253 23.1191 143.523 26.1043 145.027 28.568C146.133 30.4109 148.107 31.593 150.182 31.9985C152.66 32.4439 155.29 32.4258 157.68 31.5604C159.778 30.7874 161.429 29.0043 162.154 26.8917C162.915 24.8479 163.112 22.6394 163.137 20.4725C163.159 18.0865 163.049 15.6463 162.26 13.3707C161.658 11.5514 160.475 9.88594 158.789 8.94098C156.323 7.57422 153.364 7.51448 150.637 7.88558Z" fill="#0594DA"/>
</g>
<defs>
<clipPath id="clip0_11_534">
<rect width="172" height="40" fill="white"/>
</clipPath>
</defs>
</svg>
