<svg width="240" height="80" viewBox="0 0 240 80" fill="none" xmlns="http://www.w3.org/2000/svg">
<path fill-rule="evenodd" clip-rule="evenodd" d="M56.465 20C53.0839 20 49.9847 21.1294 47.4489 23.0118C44.9601 21.1294 41.8139 20 38.4798 20C30.2151 20 23.5 26.7294 23.5 35.0118V60H35.0049V34.8706C35.0049 32.9882 36.5075 31.4824 38.3859 31.4824C40.2642 31.4824 41.7669 32.9882 41.7669 34.8706V60H53.2718V34.8706C53.2718 32.9882 54.7745 31.4824 56.6528 31.4824C58.5311 31.4824 60.0338 32.9882 60.0338 34.8706V60H71.5387V35.0118C71.4448 26.7294 64.7297 20 56.465 20Z" fill="#A50064"/>
<path fill-rule="evenodd" clip-rule="evenodd" d="M155.829 20C152.448 20 149.349 21.1294 146.86 23.0118C144.371 21.1294 141.225 20 137.891 20C129.626 20 122.911 26.7294 122.911 35.0118V60H134.416V34.8706C134.416 32.9882 135.919 31.4824 137.797 31.4824C139.676 31.4824 141.178 32.9882 141.178 34.8706V60H152.683V34.8706C152.683 32.9882 154.186 31.4824 156.064 31.4824C157.943 31.4824 159.445 32.9882 159.445 34.8706V60H170.95V35.0118C170.809 26.7294 164.094 20 155.829 20Z" fill="#A50064"/>
<path fill-rule="evenodd" clip-rule="evenodd" d="M97.1311 20C86.0958 20 77.1737 28.9412 77.1737 40C77.1737 51.0588 86.0958 60 97.1311 60C108.166 60 117.089 51.0588 117.089 40C117.089 28.9412 108.166 20 97.1311 20ZM97.1311 48.5176C92.4353 48.5176 88.6316 44.7059 88.6316 40C88.6316 35.2941 92.4353 31.4824 97.1311 31.4824C101.827 31.4824 105.631 35.2941 105.631 40C105.631 44.7059 101.827 48.5176 97.1311 48.5176Z" fill="#A50064"/>
<path fill-rule="evenodd" clip-rule="evenodd" d="M196.543 20C185.507 20 176.585 28.9412 176.585 40C176.585 51.0588 185.507 60 196.543 60C207.578 60 216.5 51.0588 216.5 40C216.5 28.9412 207.578 20 196.543 20ZM196.543 48.5176C191.847 48.5176 188.043 44.7059 188.043 40C188.043 35.2941 191.847 31.4824 196.543 31.4824C201.238 31.4824 205.042 35.2941 205.042 40C204.995 44.7059 201.192 48.5176 196.543 48.5176Z" fill="#A50064"/>
</svg>
