<svg width="193" height="40" viewBox="0 0 193 40" fill="none" xmlns="http://www.w3.org/2000/svg">
<g clip-path="url(#clip0_5_3659)">
<path fill-rule="evenodd" clip-rule="evenodd" d="M32.965 0C29.5839 0 26.4847 1.12941 23.9489 3.01176C21.4601 1.12941 18.3139 0 14.9798 0C6.71508 0 0 6.72941 0 15.0118V40H11.5049V14.8706C11.5049 12.9882 13.0075 11.4824 14.8859 11.4824C16.7642 11.4824 18.2669 12.9882 18.2669 14.8706V40H29.7718V14.8706C29.7718 12.9882 31.2745 11.4824 33.1528 11.4824C35.0311 11.4824 36.5338 12.9882 36.5338 14.8706V40H48.0387V15.0118C47.9448 6.72941 41.2297 0 32.965 0Z" fill="#A50064"/>
<path fill-rule="evenodd" clip-rule="evenodd" d="M132.329 0C128.948 0 125.849 1.12941 123.36 3.01176C120.871 1.12941 117.725 0 114.391 0C106.126 0 99.4114 6.72941 99.4114 15.0118V40H110.916V14.8706C110.916 12.9882 112.419 11.4824 114.297 11.4824C116.176 11.4824 117.678 12.9882 117.678 14.8706V40H129.183V14.8706C129.183 12.9882 130.686 11.4824 132.564 11.4824C134.443 11.4824 135.945 12.9882 135.945 14.8706V40H147.45V15.0118C147.309 6.72941 140.594 0 132.329 0Z" fill="#A50064"/>
<path fill-rule="evenodd" clip-rule="evenodd" d="M73.6311 0C62.5958 0 53.6737 8.94118 53.6737 20C53.6737 31.0588 62.5958 40 73.6311 40C84.6664 40 93.5886 31.0588 93.5886 20C93.5886 8.94118 84.6664 0 73.6311 0ZM73.6311 28.5176C68.9353 28.5176 65.1316 24.7059 65.1316 20C65.1316 15.2941 68.9353 11.4824 73.6311 11.4824C78.327 11.4824 82.1306 15.2941 82.1306 20C82.1306 24.7059 78.327 28.5176 73.6311 28.5176Z" fill="#A50064"/>
<path fill-rule="evenodd" clip-rule="evenodd" d="M173.043 0C162.007 0 153.085 8.94118 153.085 20C153.085 31.0588 162.007 40 173.043 40C184.078 40 193 31.0588 193 20C193 8.94118 184.078 0 173.043 0ZM173.043 28.5176C168.347 28.5176 164.543 24.7059 164.543 20C164.543 15.2941 168.347 11.4824 173.043 11.4824C177.738 11.4824 181.542 15.2941 181.542 20C181.495 24.7059 177.692 28.5176 173.043 28.5176Z" fill="#A50064"/>
</g>
<defs>
<clipPath id="clip0_5_3659">
<rect width="193" height="40" fill="white"/>
</clipPath>
</defs>
</svg>
