<svg xmlns="http://www.w3.org/2000/svg" width="150" height="40" fill="none" viewBox="0 0 150 40"><g clip-path="url(#clip0_12_708)"><path fill="url(#paint0_linear_12_708)" d="M14.3654 32L17.1774 16.1929C17.1774 16.0558 17.1774 15.9036 17.1774 15.7665V15.401C17.1774 14.2741 16.6578 13.7107 15.6492 13.7107H11.0645C9.53621 13.7107 8.66512 14.5482 8.39003 16.2386L5.59336 32H0L4.27907 8H18.1096C21.3648 8 23 9.72081 23 13.1472C23 14.0457 22.893 14.9289 22.7096 15.8122L19.8671 32H14.3654Z"/><path fill="url(#paint1_linear_12_708)" d="M31.5154 32C27.1846 32 25.0268 30.1025 25.0115 26.2922C24.9962 25.9279 24.9962 25.5787 25.0115 25.2144C25.0115 24.8501 25.1186 24.4402 25.1798 24L26.603 16C27.5365 10.6717 30.5819 8 35.6932 8H39.4731C43.804 8 45.977 9.91271 45.977 13.7078C46.0077 14.0721 46.0077 14.4213 45.977 14.7856C45.977 15.1651 45.8699 15.575 45.8087 16L44.7222 22.1784H31.041L30.7655 23.8634C30.7655 24.0152 30.7655 24.167 30.689 24.2884C30.689 24.4099 30.689 24.5313 30.689 24.6528C30.689 25.7761 31.3011 26.3378 32.5254 26.3378H43.3143L42.3349 32H31.5154ZM40.5291 15.8634C40.5291 15.7268 40.5291 15.6053 40.5291 15.4687V15.1195C40.5291 13.9355 39.9016 13.3435 38.6467 13.3435H34.8056C34.1476 13.2979 33.5048 13.5256 33.0151 13.9658C32.556 14.5123 32.2653 15.1651 32.1734 15.8634L31.7909 17.8216H40.1465L40.5291 15.8634Z"/><path fill="url(#paint2_linear_12_708)" d="M58.0682 32L55.3842 24.2232L49.8504 32H44L53.4692 19.825L48.9457 8H55.339L58.0229 15.6094L63.421 8H69L59.953 19.825L64.7328 32H58.0682Z"/><path fill="url(#paint3_linear_12_708)" d="M75.2222 31.9397C71.0689 31.9397 69 30.0716 69 26.3201V25.1601C69.0467 24.7232 69.1089 24.2863 69.2022 23.8644L73.6667 0H79.4222L77.8667 8.12053H83L82.1444 12.8663H77.0111L74.9733 24.1055V24.5574C74.9733 24.7081 74.9733 24.8437 74.9733 24.9944C74.8333 25.8832 75.4556 26.7119 76.3733 26.8475H79.6244L78.6756 32L75.2222 31.9397Z"/><path fill="#6F982E" d="M80 39.9384L85.4886 8.01688H96.6767C98.4108 7.89375 100.115 8.44784 101.472 9.55601C102.572 10.7565 103.115 12.388 102.98 14.0195C102.98 14.9584 102.874 15.8972 102.708 16.8207L101.426 24.347C100.492 29.7186 97.5211 32.4121 92.5 32.4121H86.7853L85.4886 40L80 39.9384ZM97.0537 17.8365C97.1894 17.1439 97.2648 16.4513 97.295 15.7587C97.3251 15.2508 97.1894 14.7429 96.918 14.3273C96.541 13.9733 96.0435 13.804 95.5308 13.8502H89.997L87.7654 26.6096H93.2992C94.7015 26.7019 95.8927 25.6091 95.9831 24.1931C95.9831 24.1931 95.9831 24.1777 95.9831 24.1624L97.0537 17.8365Z"/><path fill="#6F982E" d="M110.065 32C106.688 32 105 30.4829 105 27.4488C105 26.7965 105.06 26.1441 105.181 25.4918L105.558 23.1555C106.146 19.4083 108.497 17.5424 112.613 17.5424H120.151L120.422 16.177C120.437 16.0405 120.437 15.9191 120.422 15.7826V15.4336C120.422 14.2807 119.804 13.7042 118.568 13.7042H108.663L109.643 8H119.638C123.874 8 126 9.9115 126 13.7042C126 14.0683 125.97 14.4172 125.925 14.7813C125.925 15.1606 125.834 15.5702 125.759 15.9949L122.985 32H110.065ZM119.442 21.8508H112.613C111.588 21.7901 110.698 22.5638 110.623 23.5954V23.6713L110.382 25.0822C110.367 25.2339 110.367 25.4008 110.382 25.5525C110.382 26.3262 110.864 26.7206 111.889 26.7206H118.719L119.442 21.8508Z"/><path fill="#6F982E" d="M130.525 40L131.436 34.677H137.819C139.223 34.677 140.105 33.7512 140.434 31.9151L140.808 29.8322H135.397C131.137 29.8322 129 27.9344 129 24.1697C129 23.3983 129.09 22.6422 129.224 21.8862L131.571 8H137.041L134.65 22.0868C134.605 22.3182 134.575 22.5651 134.56 22.7965C134.56 23.9691 135.188 24.5554 136.458 24.5554H141.705L144.515 8.04629H150L145.979 31.6837C145.038 37.2228 142.183 39.9846 137.415 40H130.525Z"/></g><defs><linearGradient id="paint0_linear_12_708" x1=".92" x2="24.132" y1="31.194" y2="9.923" gradientUnits="userSpaceOnUse"><stop stop-color="#00509C"/><stop offset="1" stop-color="#00509C"/></linearGradient><linearGradient id="paint1_linear_12_708" x1="25.66" x2="46.687" y1="20.111" y2="20.111" gradientUnits="userSpaceOnUse"><stop stop-color="#00509C"/><stop offset="1" stop-color="#00509C"/></linearGradient><linearGradient id="paint2_linear_12_708" x1="44.107" x2="69.107" y1="19.992" y2="19.992" gradientUnits="userSpaceOnUse"><stop stop-color="#00509C"/><stop offset="1" stop-color="#00509C"/></linearGradient><linearGradient id="paint3_linear_12_708" x1="69.276" x2="83.23" y1="16.015" y2="16.015" gradientUnits="userSpaceOnUse"><stop stop-color="#00509C"/><stop offset="1" stop-color="#00509C"/></linearGradient><clipPath id="clip0_12_708"><rect width="150" height="40" fill="#fff"/></clipPath></defs></svg>