<svg width="240" height="80" viewBox="0 0 240 80" fill="none" xmlns="http://www.w3.org/2000/svg">
<path d="M59.3581 52.3271L62.1705 36.4616C62.1705 36.3241 62.1705 36.1712 62.1705 36.0336V35.6668C62.1705 34.5358 61.6508 33.9702 60.642 33.9702H56.0566C54.5281 33.9702 53.6569 34.8109 53.3818 36.5075L50.5847 52.3271H44.9905L49.2702 28.2385H63.1028C66.3585 28.2385 67.9939 29.9656 67.9939 33.4047C67.9939 34.3065 67.8869 35.193 67.7035 36.0795L64.8606 52.3271H59.3581Z" fill="url(#paint0_linear_13_14932)"/>
<path d="M76.217 52.4035C71.8915 52.4035 69.7363 50.493 69.7211 46.6565C69.7058 46.2897 69.7058 45.9381 69.7211 45.5713C69.7211 45.2045 69.8281 44.7918 69.8892 44.3485L71.3107 36.2935C72.243 30.9286 75.2847 28.2385 80.3898 28.2385H84.1651C88.4906 28.2385 90.6611 30.1643 90.6611 33.9855C90.6916 34.3523 90.6916 34.7039 90.6611 35.0707C90.6611 35.4528 90.5541 35.8655 90.4929 36.2935L89.4077 42.5144H75.7432L75.4681 44.211C75.4681 44.3638 75.4681 44.5166 75.3917 44.6389C75.3917 44.7612 75.3917 44.8835 75.3917 45.0058C75.3917 46.1368 76.0031 46.7024 77.2258 46.7024H88.0015L87.0233 52.4035H76.217ZM85.2197 36.1559C85.2197 36.0184 85.2197 35.8961 85.2197 35.7585V35.407C85.2197 34.2148 84.593 33.6187 83.3397 33.6187H79.5033C78.846 33.5728 78.2041 33.8021 77.7149 34.2453C77.2564 34.7956 76.966 35.4528 76.8743 36.1559L76.4922 38.1277H84.8376L85.2197 36.1559Z" fill="url(#paint1_linear_13_14932)"/>
<path d="M103.393 52.4035L100.673 44.593L95.0631 52.4035H89.1327L98.7315 40.1758L94.1461 28.2996H100.627L103.347 35.9419L108.819 28.2996H114.475L105.304 40.1758L110.149 52.4035H103.393Z" fill="url(#paint2_linear_13_14932)"/>
<path d="M119.885 52.4035C115.804 52.4035 113.771 50.5082 113.771 46.7023V45.5254C113.817 45.0822 113.878 44.6389 113.97 44.2109L118.357 20H124.012L122.484 28.2384H127.528L126.687 33.0531H121.643L119.641 44.4555V44.914C119.641 45.0669 119.641 45.2044 119.641 45.3573C119.503 46.2591 120.115 47.0997 121.016 47.2373H124.211L123.279 52.4647L119.885 52.4035Z" fill="url(#paint3_linear_13_14932)"/>
<path d="M125.388 59.9389L130.951 28.2384H142.293C144.05 28.1162 145.778 28.6664 147.153 29.7669C148.269 30.9591 148.819 32.5793 148.682 34.1995C148.682 35.1318 148.575 36.0642 148.407 36.9813L147.107 44.4555C146.16 49.7898 143.149 52.4647 138.059 52.4647H132.266L130.951 60L125.388 59.9389ZM142.675 37.9901C142.812 37.3023 142.889 36.6145 142.919 35.9266C142.95 35.4222 142.812 34.9179 142.537 34.5052C142.155 34.1536 141.651 33.9855 141.131 34.0313H135.522L133.259 46.7023H138.869C140.29 46.794 141.498 45.7088 141.59 44.3026C141.59 44.3026 141.59 44.2874 141.59 44.2721L142.675 37.9901Z" fill="#6F982E"/>
<path d="M155.116 52.4035C151.693 52.4035 149.981 50.8751 149.981 47.8181C149.981 47.1609 150.042 46.5036 150.164 45.8464L150.546 43.4926C151.142 39.7173 153.527 37.8372 157.7 37.8372H165.342L165.617 36.4616C165.632 36.3241 165.632 36.2018 165.617 36.0642V35.7127C165.617 34.551 164.99 33.9702 163.737 33.9702H153.695L154.689 28.2232H164.822C169.117 28.2232 171.272 30.149 171.272 33.9702C171.272 34.337 171.242 34.6886 171.196 35.0554C171.196 35.4375 171.104 35.8502 171.028 36.2782L168.215 52.4035H155.116ZM164.624 42.1781H157.7C156.66 42.1169 155.758 42.8965 155.682 43.9358V44.0122L155.437 45.4337C155.422 45.5866 155.422 45.7547 155.437 45.9075C155.437 46.6871 155.927 47.0845 156.966 47.0845H163.89L164.624 42.1781Z" fill="#6F982E"/>
<path d="M175.094 59.893L176.026 54.6198H182.553C183.989 54.6198 184.891 53.7027 185.227 51.8838L185.609 49.8204H180.076C175.72 49.8204 173.535 47.9404 173.535 44.2109C173.535 43.4467 173.626 42.6977 173.764 41.9488L176.164 28.1926H181.758L179.312 42.1475C179.266 42.3767 179.236 42.6213 179.22 42.8506C179.22 44.0122 179.862 44.593 181.162 44.593H186.527L189.4 28.2384H195.01L190.898 51.6545C189.935 57.1417 187.016 59.8777 182.14 59.893H175.094Z" fill="#6F982E"/>
<defs>
<linearGradient id="paint0_linear_13_14932" x1="45.9105" y1="51.5183" x2="69.201" y2="30.2509" gradientUnits="userSpaceOnUse">
<stop stop-color="#00509C"/>
<stop offset="1" stop-color="#00509C"/>
</linearGradient>
<linearGradient id="paint1_linear_13_14932" x1="70.3688" y1="40.4327" x2="91.37" y2="40.4327" gradientUnits="userSpaceOnUse">
<stop stop-color="#00509C"/>
<stop offset="1" stop-color="#00509C"/>
</linearGradient>
<linearGradient id="paint2_linear_13_14932" x1="89.2412" y1="40.3439" x2="114.583" y2="40.3439" gradientUnits="userSpaceOnUse">
<stop stop-color="#00509C"/>
<stop offset="1" stop-color="#00509C"/>
</linearGradient>
<linearGradient id="paint3_linear_13_14932" x1="114.043" y1="36.2476" x2="127.753" y2="36.2476" gradientUnits="userSpaceOnUse">
<stop stop-color="#00509C"/>
<stop offset="1" stop-color="#00509C"/>
</linearGradient>
</defs>
</svg>
