<svg width="40" height="40" viewBox="0 0 40 40" fill="none" xmlns="http://www.w3.org/2000/svg">
<path d="M3.83087 23.6195L4.58074 19.3892C4.58074 19.3525 4.58074 19.3118 4.58074 19.2751V19.1773C4.58074 18.8757 4.44218 18.7249 4.17321 18.7249H2.95059C2.54305 18.7249 2.31075 18.9491 2.23739 19.4014L1.49159 23.6195H0L1.14111 17.1967H4.82934C5.6974 17.1967 6.13347 17.6572 6.13347 18.5741C6.13347 18.8146 6.10494 19.051 6.05604 19.2873L5.29801 23.6195H3.83087Z" fill="url(#paint0_linear_12_955)"/>
<path d="M8.32604 23.6399C7.17271 23.6399 6.59807 23.1304 6.594 22.1075C6.58992 22.0097 6.58992 21.916 6.594 21.8182C6.594 21.7203 6.62253 21.6103 6.63883 21.4921L7.01784 19.3444C7.26644 17.9139 8.07744 17.1967 9.43862 17.1967H10.4452C11.5986 17.1967 12.1773 17.7102 12.1773 18.729C12.1854 18.8268 12.1854 18.9205 12.1773 19.0184C12.1773 19.1202 12.1488 19.2303 12.1325 19.3444L11.8431 21.0031H8.1997L8.12635 21.4554C8.12635 21.4962 8.12635 21.537 8.10597 21.5696C8.10597 21.6022 8.10597 21.6348 8.10597 21.6674C8.10597 21.9689 8.26899 22.1197 8.59502 22.1197H11.4682L11.2073 23.6399H8.32604ZM10.7264 19.3077C10.7264 19.271 10.7264 19.2384 10.7264 19.2018V19.108C10.7264 18.7901 10.5594 18.6312 10.2252 18.6312H9.20225C9.02701 18.619 8.85584 18.6801 8.72543 18.7983C8.60317 18.945 8.52574 19.1202 8.50128 19.3077L8.3994 19.8334H10.6246L10.7264 19.3077Z" fill="url(#paint1_linear_12_955)"/>
<path d="M15.5721 23.6398L14.8466 21.5573L13.351 23.6398H11.7697L14.3291 20.3795L13.1064 17.2129H14.8344L15.5598 19.2506L17.0188 17.2129H18.5267L16.0815 20.3795L17.3734 23.6398H15.5721Z" fill="url(#paint2_linear_12_955)"/>
<path d="M19.9695 23.6398C18.8813 23.6398 18.3393 23.1345 18.3393 22.1197V21.8059C18.3515 21.6877 18.3678 21.5695 18.3923 21.4554L19.5619 15H21.0698L20.6623 17.1966H22.0072L21.783 18.4804H20.4381L19.9042 21.5206V21.6429C19.9042 21.6836 19.9042 21.7203 19.9042 21.7611C19.8676 22.0015 20.0306 22.2257 20.271 22.2624H21.1228L20.8742 23.6561L19.9695 23.6398Z" fill="url(#paint3_linear_12_955)"/>
<path d="M21.4366 25.649L22.92 17.1966H25.944C26.4126 17.164 26.8732 17.3108 27.2399 17.6042C27.5375 17.9221 27.6842 18.3541 27.6475 18.786C27.6475 19.0346 27.619 19.2832 27.5741 19.5278L27.2277 21.5206C26.975 22.9429 26.1722 23.6561 24.8151 23.6561H23.2705L22.92 25.6653L21.4366 25.649ZM26.0459 19.7967C26.0825 19.6134 26.1029 19.43 26.1111 19.2466C26.1192 19.1121 26.0825 18.9776 26.0092 18.8676C25.9073 18.7738 25.7728 18.729 25.6342 18.7412H24.1386L23.5354 22.1197H25.0311C25.4101 22.1442 25.7321 21.8548 25.7565 21.4799C25.7565 21.4799 25.7565 21.4758 25.7565 21.4717L26.0459 19.7967Z" fill="#6F982E"/>
<path d="M29.3632 23.6398C28.4503 23.6398 27.9939 23.2323 27.9939 22.4172C27.9939 22.242 28.0102 22.0667 28.0428 21.8915L28.1447 21.2639C28.3036 20.2573 28.9394 19.756 30.052 19.756H32.0897L32.163 19.3892C32.1671 19.3525 32.1671 19.3199 32.163 19.2832V19.1895C32.163 18.8798 31.9959 18.7249 31.6618 18.7249H28.9842L29.2491 17.1926H31.9511C33.0963 17.1926 33.6709 17.7061 33.6709 18.7249C33.6709 18.8227 33.6628 18.9165 33.6505 19.0143C33.6505 19.1162 33.6261 19.2262 33.6057 19.3403L32.8558 23.6398H29.3632ZM31.8981 20.9134H30.052C29.7748 20.8971 29.5344 21.1049 29.514 21.3821V21.4024L29.4488 21.7815C29.4447 21.8222 29.4447 21.867 29.4488 21.9078C29.4488 22.1156 29.5792 22.2216 29.8564 22.2216H31.7025L31.8981 20.9134Z" fill="#6F982E"/>
<path d="M34.6897 25.6368L34.9383 24.2308H36.6785C37.0616 24.2308 37.3021 23.9863 37.3917 23.5013L37.4936 22.9511H36.0183C34.8568 22.9511 34.274 22.4498 34.274 21.4554C34.274 21.2517 34.2985 21.052 34.3352 20.8523L34.975 17.1844H36.4666L35.8145 20.9053C35.8023 20.9664 35.7942 21.0316 35.7901 21.0927C35.7901 21.4025 35.9613 21.5573 36.3077 21.5573H37.7381L38.5043 17.1966H40L38.9037 23.4401C38.6469 24.9032 37.8685 25.6327 36.5685 25.6368H34.6897Z" fill="#6F982E"/>
<defs>
<linearGradient id="paint0_linear_12_955" x1="0.245298" y1="23.4038" x2="6.45531" y2="17.7332" gradientUnits="userSpaceOnUse">
<stop stop-color="#00509C"/>
<stop offset="1" stop-color="#00509C"/>
</linearGradient>
<linearGradient id="paint1_linear_12_955" x1="6.76671" y1="20.448" x2="12.3663" y2="20.448" gradientUnits="userSpaceOnUse">
<stop stop-color="#00509C"/>
<stop offset="1" stop-color="#00509C"/>
</linearGradient>
<linearGradient id="paint2_linear_12_955" x1="11.7986" y1="20.4243" x2="18.5557" y2="20.4243" gradientUnits="userSpaceOnUse">
<stop stop-color="#00509C"/>
<stop offset="1" stop-color="#00509C"/>
</linearGradient>
<linearGradient id="paint3_linear_12_955" x1="18.4117" y1="19.3321" x2="22.0673" y2="19.3321" gradientUnits="userSpaceOnUse">
<stop stop-color="#00509C"/>
<stop offset="1" stop-color="#00509C"/>
</linearGradient>
</defs>
</svg>
