<svg width="179" height="40" viewBox="0 0 179 40" fill="none" xmlns="http://www.w3.org/2000/svg">
<g clip-path="url(#clip0_12_661)">
<path d="M6.58732 31.3411C6.99563 31.5759 7.41906 31.7955 7.85762 31.9848C11.3887 33.5372 15.4265 33.4236 18.8669 31.6894C19.192 31.5304 19.5096 31.3487 19.8271 31.1593C21.3772 30.2052 22.7156 28.9481 23.7439 27.4486L24.5076 26.3581H13.9067C13.5664 26.3581 13.143 26.3581 13.0522 26.343L13.2564 26.4036C11.0334 25.1238 9.16572 23.3138 7.80469 21.1328C7.58541 20.7996 7.38126 20.4664 7.19978 20.1332C5.61947 17.3085 5.03725 14.037 5.55142 10.8489L5.86143 8.94049L4.40967 10.2279C-0.981539 14.9912 -1.50327 23.2305 3.25279 28.63C4.20551 29.7129 5.33214 30.6292 6.58732 31.3411Z" fill="#010101"/>
<path d="M33.3619 8.64517C32.9536 8.41041 32.5302 8.19079 32.0916 8.00147C28.5605 6.44903 24.5227 6.55505 21.0824 8.28924C20.7572 8.45585 20.4321 8.63002 20.1221 8.81934C18.5115 9.7811 17.1202 11.0609 16.0314 12.5831L15.2828 13.6736H26.2921L25.9972 13.6054L26.1484 13.6736C28.5832 14.8171 30.6625 16.6043 32.1521 18.8458C32.3714 19.1715 32.5755 19.5123 32.757 19.8455C33.9517 22.0113 34.5793 24.4422 34.5793 26.911C34.5793 27.6531 34.5188 28.4028 34.3978 29.1374L34.0953 31.0306L35.5396 29.7508C40.9308 24.9875 41.4525 16.7482 36.6964 11.3487C35.7437 10.2658 34.6171 9.34945 33.3695 8.6376L33.3619 8.64517Z" fill="#010101"/>
<path d="M26.8894 5.3661C27.6304 5.3661 28.3714 5.42668 29.1049 5.54785L31.0103 5.85077L29.7325 4.40434C24.9613 -0.995126 16.7195 -1.50251 11.3207 3.28356C6.90492 7.19874 5.65731 13.5978 8.28864 18.8913C8.44743 19.2093 8.6289 19.535 8.81793 19.853C9.76309 21.4585 11.0258 22.8519 12.5305 23.9575L13.6194 24.7224V16.9678C13.6194 15.4608 13.6194 13.1586 13.6269 13.0147L13.5513 13.3176C14.8292 11.0761 16.6439 9.18284 18.8291 7.81214C19.1542 7.6001 19.4945 7.38806 19.8272 7.20631C21.9821 6.0098 24.4093 5.38125 26.8819 5.37367L26.8894 5.3661Z" fill="#F47920"/>
<path d="M13.0599 34.6202C12.3189 34.6202 11.5779 34.5596 10.8444 34.4384L8.93896 34.1355L10.2168 35.5819C14.9729 40.9814 23.1996 41.5039 28.5983 36.7406C29.6796 35.7864 30.6021 34.6505 31.3128 33.3934C31.5472 32.9844 31.7665 32.5604 31.9556 32.1287C33.5056 28.5922 33.3922 24.5482 31.6607 21.1026C31.5019 20.7769 31.3204 20.4589 31.1314 20.1408C30.1711 18.5732 28.8932 17.2253 27.3734 16.1802L26.2921 15.4229V26.4339L26.3526 26.1537C25.2109 28.6149 23.3962 30.705 21.1202 32.1817C20.7951 32.4013 20.4624 32.6058 20.1221 32.7875C17.9672 33.9841 15.54 34.6202 13.0674 34.6202H13.0599Z" fill="#F47920"/>
<path d="M49.8077 7.05485L56.6355 15.6501V9.69022C56.696 9.10711 56.5675 8.51642 56.2802 8.00146C55.8492 7.56981 55.2443 7.35777 54.6393 7.42593V7.05485H59.2139V7.4335C58.8056 7.46379 58.4049 7.56224 58.0344 7.72127C57.8227 7.85758 57.6563 8.06205 57.5656 8.30438C57.4295 8.75118 57.369 9.2207 57.3992 9.69022V21.2237H57.0514L47.6981 9.68265V18.4823C47.6225 19.073 47.8191 19.6713 48.2425 20.0954C48.5979 20.3756 49.044 20.5194 49.4901 20.5119H49.8152V20.8905H44.908V20.5119C45.4826 20.5649 46.0497 20.3983 46.5034 20.0424C46.8512 19.6031 47.01 19.0427 46.9495 18.4823V8.70574L46.6546 8.33467C46.4505 8.0469 46.1858 7.797 45.8834 7.60767C45.5809 7.47136 45.2482 7.41078 44.9155 7.41078V7.03214H49.8152L49.8077 7.05485Z" fill="#010101"/>
<path d="M66.5257 11.4623H69.7393V12.5906H67.9094C68.1892 12.8557 68.4236 13.1586 68.6051 13.4994C68.7714 13.8629 68.8546 14.2567 68.8546 14.658C68.8697 15.2942 68.6656 15.9227 68.2875 16.4301C67.8867 16.9526 67.3574 17.354 66.745 17.6039C66.2006 17.8614 65.6108 18.0053 65.0135 18.028C64.9756 18.028 64.5673 18.0128 63.7885 17.975C63.5012 17.975 63.2214 18.081 63.0173 18.2779C62.8131 18.4596 62.6997 18.7247 62.7073 18.9973C62.7073 19.2245 62.8131 19.4441 62.9946 19.588C63.2668 19.7697 63.5844 19.853 63.9095 19.8227L65.6713 19.8C66.6769 19.7243 67.6901 19.8833 68.6202 20.2696C69.3612 20.6633 69.8149 21.4433 69.7695 22.2839C69.7695 22.8519 69.588 23.4123 69.2402 23.8591C68.8848 24.3362 68.4009 24.6997 67.8414 24.9042C66.8735 25.2525 65.8452 25.4267 64.8093 25.404C64.0154 25.4115 63.229 25.3358 62.4577 25.1616C61.8982 25.0708 61.3765 24.8284 60.9379 24.4649C60.6657 24.2302 60.4994 23.8894 60.4767 23.5335C60.4767 23.2154 60.6052 22.9125 60.8245 22.6929C61.2026 22.3748 61.6487 22.1552 62.1326 22.0643C61.3613 21.7917 60.8321 21.0723 60.8018 20.2468C60.8169 19.7394 61.006 19.2548 61.3387 18.8761C61.8075 18.3536 62.3972 17.9598 63.0551 17.7175C62.2838 17.4752 61.5957 17.0208 61.074 16.3998C60.6657 15.8546 60.4464 15.1881 60.4615 14.5066C60.4615 13.5675 60.885 12.6815 61.6033 12.0833C62.4199 11.379 63.4634 11.0155 64.5447 11.0533C65.2176 11.0533 65.883 11.1897 66.5106 11.4471L66.5257 11.4623ZM64.159 22.3142C63.6902 22.2764 63.2214 22.3369 62.7829 22.4884C62.435 22.6323 62.2082 22.9731 62.2006 23.3441C62.2309 23.7379 62.4577 24.0939 62.8055 24.2908C63.5087 24.6391 64.2876 24.783 65.0664 24.7148C65.8301 24.7451 66.5862 24.6164 67.297 24.3362C67.7658 24.1847 68.0909 23.7607 68.106 23.2684C68.106 23.1094 68.0607 22.9579 67.9548 22.8368C67.728 22.6096 67.4406 22.4657 67.123 22.4127C66.1401 22.3142 65.1496 22.2764 64.159 22.3067V22.3142ZM64.7639 11.697C64.3481 11.7046 63.97 11.9318 63.7658 12.2953C63.418 13.0753 63.2819 13.9235 63.3575 14.7716C63.2895 15.4911 63.4331 16.2181 63.7583 16.8618C63.9549 17.2025 64.3178 17.4146 64.711 17.4297C65.1269 17.4297 65.5049 17.2177 65.7318 16.8693C66.072 16.1953 66.2081 15.438 66.1401 14.6808C66.2157 13.825 66.0569 12.9617 65.6788 12.1893C65.4823 11.8712 65.1344 11.6895 64.7639 11.697Z" fill="#010101"/>
<path d="M76.1134 19.4971C75.2893 20.368 74.1777 20.9132 72.9831 21.042C72.4764 21.0571 71.985 20.8678 71.6296 20.5119C71.2742 20.156 71.0776 19.6713 71.0852 19.1715C71.1003 18.4142 71.4405 17.6948 72.0152 17.2025C73.2704 16.2483 74.6465 15.4683 76.1059 14.8776V13.9159C76.1361 13.4615 76.0983 12.9996 75.9849 12.5528C75.8942 12.3483 75.7354 12.1741 75.5388 12.0605C75.3195 11.9166 75.0624 11.8485 74.8053 11.8485C74.4197 11.8333 74.0416 11.9394 73.7165 12.1438C73.5577 12.2347 73.4594 12.3937 73.4519 12.5755C73.4821 12.78 73.588 12.9693 73.7392 13.1056C73.966 13.3328 74.1097 13.6357 74.1248 13.9538C74.1248 14.2794 73.9963 14.5899 73.7543 14.8019C73.4897 15.0442 73.1418 15.173 72.7789 15.1578C72.3857 15.173 72.0001 15.0291 71.7052 14.7716C71.433 14.5444 71.2818 14.2112 71.2818 13.8629C71.2969 13.3403 71.501 12.8405 71.864 12.4619C72.3025 11.9848 72.8621 11.6289 73.4897 11.432C74.1853 11.1897 74.9187 11.0685 75.6522 11.0761C76.4083 11.0382 77.1645 11.2351 77.7996 11.6516C78.2608 11.9545 78.6162 12.3937 78.8279 12.9011C78.9565 13.5524 79.0018 14.2112 78.9716 14.8701V18.5808C78.9565 18.8534 78.9716 19.1336 79.0245 19.4062C79.0472 19.5047 79.1001 19.588 79.1758 19.6561C79.2438 19.7091 79.327 19.7394 79.4102 19.7394C79.5841 19.7394 79.7655 19.6107 79.9546 19.3608L80.2646 19.6031C79.9924 20.0348 79.6294 20.4134 79.206 20.7012C78.8355 20.9284 78.4045 21.0496 77.966 21.042C77.5123 21.0723 77.0586 20.936 76.6881 20.6633C76.363 20.3604 76.1588 19.9515 76.1286 19.5047L76.1134 19.4971ZM76.552 6.32785L78.6238 10.2279H77.8374L75.4102 8.11506L72.9074 10.1597H72.0681L74.2382 6.32028H76.5444L76.552 6.32785ZM76.1134 18.755V15.5516C75.4027 15.9379 74.7751 16.468 74.276 17.1041C74.0265 17.4221 73.8904 17.8159 73.8753 18.2173C73.8753 18.5278 73.9963 18.8231 74.2155 19.0427C74.4046 19.2321 74.6617 19.3381 74.9263 19.3229C75.38 19.2775 75.7959 19.073 76.1134 18.755Z" fill="#010101"/>
<path d="M85.1946 11.3487V12.5831C85.5954 12.1211 86.0717 11.7349 86.601 11.4244C87.0471 11.1821 87.5462 11.0609 88.0528 11.0609C88.6123 11.0382 89.1567 11.2275 89.5953 11.5759C89.996 11.9091 90.2834 12.3559 90.4119 12.8557C90.548 13.5903 90.6085 14.34 90.5783 15.0973V18.8156C90.5329 19.2851 90.601 19.7546 90.7749 20.1862C90.9941 20.4059 91.2966 20.527 91.6066 20.527V20.8981H86.7825V20.527C87.1001 20.5043 87.3798 20.3377 87.5613 20.0802C87.705 19.6713 87.7655 19.2396 87.7277 18.8156V14.5672C87.7503 14.0749 87.7201 13.5751 87.6369 13.0829C87.584 12.8936 87.4781 12.727 87.3269 12.6058C87.1908 12.4998 87.0169 12.4392 86.843 12.4392C86.2608 12.4392 85.7164 12.8557 85.2097 13.6963V18.8156C85.1644 19.2775 85.2324 19.7394 85.4063 20.1711C85.5878 20.3907 85.86 20.5195 86.1473 20.527V20.8981H81.3232V20.527C81.6484 20.527 81.9584 20.3831 82.1777 20.1408C82.3365 19.7167 82.3969 19.2624 82.3516 18.808V13.4237C82.3969 12.9617 82.3289 12.4998 82.155 12.0757C81.9357 11.8561 81.6333 11.7349 81.3232 11.7273V11.3487H85.2097H85.1946Z" fill="#010101"/>
<path d="M105.398 16.0439L104.877 20.9057H92.5895V20.527H93.0507C93.3834 20.5422 93.7161 20.4664 94.0186 20.315C94.2076 20.2014 94.3513 20.0272 94.4269 19.8227C94.5327 19.3987 94.5705 18.967 94.5403 18.5353V9.41759C94.5705 8.97078 94.5327 8.52398 94.4269 8.08476C94.3286 7.88786 94.1698 7.72126 93.9732 7.61524C93.6859 7.47135 93.3683 7.4032 93.0507 7.41834H92.597V7.04727H99.9769V7.42592H99.372C99.0393 7.41077 98.699 7.4865 98.4041 7.63796C98.2151 7.75155 98.0639 7.92573 97.9882 8.13019C97.8824 8.55428 97.8446 8.98593 97.8748 9.41759V18.2476C97.8446 18.7019 97.89 19.1563 97.9958 19.6031C98.0865 19.8076 98.2604 19.9666 98.4722 20.0348C98.8805 20.1181 99.2888 20.1484 99.7047 20.1257H100.862C101.497 20.1484 102.124 20.0121 102.699 19.7394C103.221 19.4517 103.659 19.0276 103.969 18.5126C104.415 17.7402 104.756 16.9072 104.982 16.0439H105.398Z" fill="#010101"/>
<path d="M117.315 13.7038C117.413 13.6433 117.489 13.5524 117.527 13.4464C117.557 13.3934 117.557 13.3252 117.527 13.2722C117.413 13.1434 117.27 13.045 117.118 12.9693C117.013 12.8935 116.922 12.7951 116.861 12.6815C116.551 12.2347 116.665 11.6289 117.111 11.3184C117.156 11.2881 117.209 11.2578 117.262 11.2275C117.542 11.0685 117.867 11.0382 118.169 11.1366C118.759 11.2881 119.16 11.8485 119.099 12.4543C119.099 12.6512 119.062 12.8481 119.001 13.0374C118.835 13.5145 118.449 13.878 117.973 14.0295C117.36 14.2415 116.71 14.34 116.052 14.3172V18.8383C116.007 19.3078 116.083 19.7697 116.256 20.209C116.468 20.4361 116.771 20.5573 117.081 20.5422V20.9132H113.194V19.6334C112.521 20.5725 111.455 21.1556 110.306 21.201C109.784 21.201 109.285 21.0268 108.877 20.7012C108.483 20.421 108.189 20.0196 108.037 19.5577C107.856 18.7928 107.78 18.0128 107.818 17.2328V13.4388C107.863 12.9768 107.795 12.5149 107.614 12.0908C107.395 11.8636 107.1 11.7425 106.79 11.7425V11.3638H110.669V17.8916C110.669 18.8686 110.805 19.4592 111.077 19.6561C111.213 19.7546 111.387 19.8152 111.553 19.8076C112.052 19.8076 112.597 19.3835 113.194 18.5429V13.4388C113.239 12.9768 113.171 12.5149 112.99 12.0908C112.771 11.8636 112.476 11.7425 112.166 11.7425V11.3638H116.06V13.9462C116.491 13.9462 116.914 13.8629 117.315 13.7114V13.7038Z" fill="#010101"/>
<path d="M130.646 12.2726C130.479 12.7648 130.094 13.151 129.61 13.3252C129.035 13.4994 128.438 13.5675 127.833 13.5372C128.203 14.3551 128.392 15.2411 128.377 16.1347C128.423 17.354 128.06 18.5505 127.349 19.535C125.837 21.4358 123.077 21.7463 121.179 20.2317C120.967 20.0651 120.778 19.8833 120.604 19.6789C119.81 18.6868 119.402 17.4449 119.44 16.1726C119.394 14.8776 119.818 13.6054 120.619 12.5831C121.406 11.591 122.615 11.0306 123.886 11.0609C124.725 11.0382 125.557 11.2729 126.26 11.7349C126.608 12.0151 126.941 12.3256 127.251 12.6512C127.477 12.9163 127.81 13.0677 128.158 13.0829C128.37 13.098 128.581 13.0753 128.778 13.0147C128.944 12.9617 129.073 12.8481 129.141 12.6891C129.179 12.6436 129.179 12.5755 129.148 12.5225C128.899 12.3559 128.672 12.159 128.475 11.9318C128.324 11.6895 128.279 11.4017 128.339 11.1291C128.415 10.8489 128.604 10.6141 128.869 10.4778C129.141 10.3188 129.474 10.2809 129.768 10.3793C130.124 10.4929 130.419 10.7504 130.57 11.0912C130.744 11.4547 130.767 11.8788 130.63 12.265L130.646 12.2726ZM123.855 21.9507C124.786 21.9432 125.549 22.6929 125.564 23.6243C125.564 23.6319 125.564 23.647 125.564 23.6546C125.564 24.109 125.39 24.5407 125.065 24.8511C124.748 25.1768 124.317 25.351 123.863 25.3434C122.933 25.3434 122.169 24.5861 122.169 23.6546C122.169 23.1927 122.343 22.761 122.668 22.443C122.978 22.1173 123.402 21.9356 123.855 21.9356H123.863L123.855 21.9507ZM125.398 15.3396C125.428 14.5444 125.36 13.7417 125.201 12.9617C125.118 12.5906 124.922 12.2574 124.627 12.0075C124.43 11.8561 124.181 11.7803 123.931 11.7955C123.145 11.7955 122.683 12.4392 122.555 13.7341C122.472 14.5141 122.434 15.5895 122.434 16.9602C122.434 17.6417 122.479 18.3309 122.578 19.0049C122.729 19.9893 123.167 20.4892 123.893 20.4892C124.619 20.4892 125.02 20.0802 125.186 19.2623C125.353 17.9598 125.421 16.6497 125.383 15.3396H125.39H125.398Z" fill="#010101"/>
<path d="M134.857 11.3487V12.5831C135.258 12.1211 135.734 11.7273 136.263 11.4244C136.71 11.1821 137.201 11.0609 137.708 11.0609C138.267 11.0382 138.812 11.2275 139.25 11.5759C139.651 11.9091 139.938 12.3559 140.067 12.8557C140.203 13.5903 140.263 14.34 140.233 15.0973V18.8156C140.188 19.2851 140.256 19.7546 140.43 20.1862C140.649 20.4059 140.952 20.527 141.262 20.527V20.8981H136.437V20.527C136.755 20.5043 137.042 20.3377 137.216 20.0802C137.36 19.6789 137.42 19.2396 137.383 18.8156V14.5672C137.405 14.0749 137.375 13.5751 137.292 13.0829C137.239 12.8936 137.133 12.727 136.982 12.6058C136.846 12.4998 136.672 12.4392 136.498 12.4392C135.916 12.4392 135.371 12.8557 134.865 13.6963V18.8156C134.819 19.2775 134.887 19.747 135.061 20.1711C135.243 20.3907 135.515 20.5195 135.802 20.527V20.8981H130.978V20.527C131.303 20.527 131.613 20.3831 131.833 20.1408C131.999 19.7167 132.052 19.2624 132.006 18.808V13.4161C132.052 12.9541 131.984 12.4922 131.81 12.0681C131.591 11.8485 131.288 11.7273 130.978 11.7198V11.3411H134.865L134.857 11.3487Z" fill="#010101"/>
<path d="M148.702 11.4623H151.915V12.5906H150.093C150.373 12.8557 150.607 13.1586 150.789 13.4994C150.948 13.8629 151.031 14.2567 151.023 14.658C151.038 15.2942 150.834 15.9227 150.456 16.4301C150.055 16.9526 149.526 17.354 148.914 17.6039C148.369 17.8614 147.779 18.0053 147.182 18.028C147.144 18.028 146.736 18.0128 145.957 17.975C145.67 17.975 145.39 18.081 145.186 18.2779C144.982 18.4596 144.868 18.7247 144.876 18.9973C144.876 19.2245 144.982 19.4441 145.163 19.588C145.435 19.7697 145.753 19.853 146.078 19.8228L147.84 19.8C148.846 19.7243 149.859 19.8833 150.789 20.2696C151.53 20.6558 151.983 21.4434 151.946 22.2839C151.946 22.8519 151.764 23.4123 151.416 23.8591C151.061 24.3362 150.577 24.6997 150.018 24.9042C149.05 25.2525 148.021 25.4191 146.985 25.404C146.199 25.404 145.413 25.3282 144.641 25.1541C144.082 25.0632 143.56 24.8209 143.122 24.4574C142.849 24.2226 142.683 23.8818 142.66 23.5259C142.66 23.2078 142.789 22.9049 143.008 22.6853C143.386 22.3672 143.832 22.1476 144.316 22.0568C143.545 21.7841 143.016 21.0647 142.986 20.2393C143.001 19.7319 143.19 19.2472 143.522 18.8686C143.991 18.346 144.581 17.9523 145.239 17.7099C144.468 17.4676 143.779 17.0132 143.258 16.3922C142.849 15.847 142.63 15.1806 142.645 14.499C142.645 13.56 143.069 12.6739 143.787 12.0757C144.604 11.3714 145.647 11.0079 146.728 11.0458C147.401 11.0533 148.067 11.1897 148.687 11.4471L148.702 11.4623ZM146.335 22.3142C145.866 22.2764 145.398 22.337 144.959 22.4884C144.611 22.6323 144.384 22.9731 144.377 23.3441C144.407 23.7379 144.634 24.0939 144.974 24.2908C145.677 24.6391 146.456 24.7906 147.235 24.7148C147.999 24.7451 148.755 24.6164 149.466 24.3362C149.934 24.1847 150.259 23.7607 150.275 23.2684C150.275 23.1094 150.229 22.9579 150.123 22.8368C149.897 22.6096 149.609 22.4657 149.292 22.4127C148.309 22.3142 147.318 22.2764 146.328 22.3067L146.335 22.3142ZM146.933 11.697C146.517 11.7046 146.139 11.9318 145.934 12.2953C145.587 13.0753 145.451 13.9235 145.526 14.7716C145.458 15.4911 145.602 16.2181 145.927 16.8618C146.123 17.2025 146.486 17.4146 146.88 17.4297C147.295 17.4297 147.674 17.2177 147.9 16.8693C148.241 16.1953 148.377 15.4381 148.309 14.6808C148.384 13.825 148.226 12.9617 147.847 12.1893C147.651 11.8712 147.303 11.6895 146.933 11.697Z" fill="#010101"/>
<path d="M154.932 17.7554C155.87 17.7554 156.634 18.5126 156.634 19.4517C156.634 20.3907 155.878 21.1556 154.94 21.1556C154.002 21.1556 153.239 20.3983 153.239 19.4593C153.239 19.0049 153.413 18.5732 153.73 18.2552C154.04 17.9295 154.479 17.7478 154.925 17.7554H154.932Z" fill="#010101"/>
<path d="M162.554 21.1934L159.341 13.7872C159.114 13.1889 158.804 12.6134 158.433 12.0908C158.244 11.9015 158.002 11.7728 157.738 11.7349V11.3563H162.804V11.7349C162.569 11.7122 162.342 11.7728 162.153 11.9091C161.995 12.0378 161.912 12.2347 161.912 12.4392C161.98 12.9314 162.131 13.4161 162.358 13.8629L163.93 17.4524L165.186 14.3551C165.465 13.7644 165.647 13.1283 165.722 12.477C165.722 12.2802 165.647 12.0908 165.496 11.9621C165.254 11.8031 164.974 11.7273 164.687 11.7425V11.3638H167.802V11.7425C167.53 11.7728 167.272 11.8939 167.068 12.0833C166.705 12.5755 166.418 13.1283 166.214 13.7039L163.038 21.2086H162.554V21.1934Z" fill="#010101"/>
<path d="M172.596 11.3487V12.5831C172.996 12.1211 173.473 11.7273 174.002 11.4244C174.448 11.1821 174.947 11.0609 175.454 11.0609C176.013 11.0382 176.558 11.22 176.989 11.5759C177.389 11.9091 177.677 12.3559 177.805 12.8557C177.941 13.5903 178.002 14.34 177.972 15.0973V18.8156C177.926 19.2851 177.994 19.7546 178.168 20.1863C178.388 20.4059 178.69 20.527 179 20.527V20.8981H174.176V20.527C174.494 20.5043 174.781 20.3377 174.955 20.0802C175.098 19.6789 175.159 19.2396 175.121 18.8156V14.5672C175.144 14.0749 175.114 13.5751 175.03 13.0829C174.977 12.8936 174.872 12.727 174.72 12.6058C174.584 12.4998 174.41 12.4392 174.236 12.4392C173.654 12.4392 173.11 12.8557 172.603 13.6963V18.8156C172.558 19.2775 172.626 19.747 172.8 20.1711C172.981 20.3907 173.253 20.5195 173.541 20.527V20.8981H168.717V20.527C169.042 20.527 169.352 20.3831 169.571 20.1408C169.737 19.7167 169.79 19.2624 169.745 18.808V13.4161C169.79 12.9541 169.722 12.4922 169.548 12.0681C169.329 11.8485 169.027 11.7273 168.717 11.7198V11.3411H172.603L172.596 11.3487Z" fill="#010101"/>
<path d="M44.5752 26.7974H48.0231V27.6077H46.8511V33.878H45.785V27.6077H44.5676V26.7974H44.5752Z" fill="#F26922"/>
<path d="M48.424 33.8705V26.7747H49.4069V29.6675H49.4296C49.6186 29.2661 50.0345 29.0238 50.4731 29.0541H50.768C51.0628 29.0692 51.3199 29.2586 51.4182 29.5388C51.5241 29.872 51.5695 30.2279 51.5619 30.5762V33.8629H50.5865V30.546C50.6092 30.3491 50.5562 30.1522 50.4353 30.0007C50.3218 29.8947 50.1706 29.8417 50.0118 29.8417C49.6111 29.8417 49.4069 30.1219 49.4069 30.6823V33.878H48.4315L48.424 33.8705Z" fill="#F26922"/>
<path d="M54.5032 33.2722C54.4276 33.4767 54.299 33.6509 54.1251 33.772C53.9588 33.8856 53.7697 33.9462 53.5656 33.9462C53.3236 33.9462 53.0817 33.8553 52.9002 33.6963C52.696 33.5221 52.5448 33.2874 52.4768 33.0299C52.3558 32.5225 52.2953 32.0075 52.2953 31.4926C52.2953 30.9398 52.3633 30.3869 52.5221 29.8568C52.5977 29.6145 52.749 29.4025 52.9456 29.2434C53.1119 29.1147 53.3236 29.0465 53.5278 29.0465C53.7546 29.0465 53.9663 29.1147 54.1554 29.2359C54.3217 29.3267 54.4427 29.4782 54.5032 29.6599H54.5259L54.5486 29.1298H55.524V33.8856H54.5259V33.2874H54.5032V33.2722ZM53.4068 30.2961C53.3236 30.7126 53.2858 31.1367 53.2783 31.5607C53.2783 31.9394 53.3236 32.3105 53.4068 32.6815C53.4597 32.9466 53.6714 33.1435 53.9361 33.1813C54.0873 33.1662 54.231 33.0905 54.3217 32.9693C54.4351 32.8178 54.5107 32.6361 54.5183 32.4543C54.5486 31.8788 54.5637 31.5532 54.5637 31.4623C54.5637 31.1291 54.5334 30.7883 54.4805 30.4551C54.4654 30.2885 54.3973 30.137 54.2839 30.0159C54.1932 29.9174 54.0722 29.8644 53.9361 29.8644C53.679 29.8796 53.4673 30.0537 53.4068 30.3036V30.2961Z" fill="#F26922"/>
<path d="M59.5693 30.4097V33.878H58.5939V30.546C58.5939 30.0764 58.4049 29.8417 58.0193 29.8417C57.8378 29.8265 57.6563 29.9098 57.5505 30.0613C57.4446 30.2961 57.3917 30.5611 57.4144 30.8186V33.878H56.439V29.1223H57.4144V29.6751H57.4371C57.6261 29.2813 58.0268 29.0314 58.4654 29.0465C58.783 29.0162 59.093 29.1374 59.3047 29.3797C59.5013 29.6827 59.592 30.0462 59.5693 30.4097Z" fill="#F26922"/>
<path d="M60.4767 33.8705V26.7747H61.4521V29.6675H61.4748C61.6638 29.2661 62.0797 29.0238 62.5258 29.0541H62.8207C63.1156 29.0692 63.3727 29.2586 63.471 29.5388C63.5768 29.872 63.6222 30.2279 63.6146 30.5762V33.8629H62.6392V30.546C62.6619 30.3491 62.609 30.1522 62.488 30.0007C62.3746 29.8947 62.2233 29.8417 62.0646 29.8417C61.6638 29.8417 61.4596 30.1219 61.4596 30.6823V33.878H60.4842L60.4767 33.8705Z" fill="#F26922"/>
<path d="M66.8432 27.7894H67.8035V29.1223H68.3328V29.819H67.8035V33.878H66.8357V29.8265H66.3064V29.1298H66.8357V27.797L66.8432 27.7894Z" fill="#F26922"/>
<path d="M68.8092 31.0079C68.8092 30.4778 68.9756 29.9553 69.2932 29.5236C69.5805 29.198 69.9964 29.0238 70.4274 29.0465C70.8886 29.0238 71.3423 29.2131 71.6523 29.5615C72.0077 30.1143 72.1665 30.7731 72.0984 31.432V31.7803C72.053 33.2268 71.5011 33.9538 70.4576 33.9538C70.1325 33.9689 69.8149 33.878 69.5351 33.7114C69.2705 33.5297 69.0739 33.2571 68.9756 32.9541C68.8319 32.5225 68.7639 32.0757 68.7714 31.6289C68.7941 31.3563 68.8092 31.1518 68.8092 31.0155V31.0079ZM69.7847 31.5077C69.7695 31.9242 69.8149 32.3483 69.9208 32.7572C69.9813 32.992 70.2005 33.1586 70.4425 33.1586C70.4652 33.1435 70.4879 33.1359 70.5181 33.1435C70.7525 33.1056 70.9415 32.9238 70.9869 32.6891C71.0852 32.2953 71.123 31.8939 71.1154 31.485C71.1154 31.379 71.1079 31.2275 71.1003 31.0382C71.1003 30.8565 71.0776 30.6671 71.0398 30.4854C71.0096 30.3188 70.9415 30.1673 70.8432 30.031C70.7449 29.9098 70.6013 29.8417 70.4425 29.8493C70.1854 29.8417 69.9586 30.0234 69.9132 30.2809C69.8225 30.652 69.7771 31.0306 69.7695 31.4093C69.7847 31.4396 69.7922 31.4774 69.7922 31.5077H69.7847Z" fill="#F26922"/>
<path d="M74.8809 33.2722C74.8053 33.4767 74.6767 33.6509 74.5028 33.772C74.3365 33.8856 74.1474 33.9462 73.9433 33.9462C73.7013 33.9462 73.4594 33.8553 73.2779 33.6963C73.0737 33.5221 72.9225 33.2874 72.8544 33.0299C72.7335 32.5225 72.673 32.0075 72.673 31.4926C72.673 30.9398 72.741 30.3869 72.8998 29.8568C72.9754 29.6145 73.1267 29.4025 73.3232 29.2434C73.4896 29.1147 73.7013 29.0465 73.913 29.0465C74.1399 29.0465 74.3516 29.1147 74.5406 29.2359C74.707 29.3267 74.8279 29.4782 74.8884 29.6599H74.9111L74.9338 29.1298H75.9092V33.8856H74.9111V33.2874H74.8884V33.2722H74.8809ZM73.792 30.2961C73.7089 30.7126 73.6711 31.1367 73.6635 31.5607C73.6635 31.9394 73.7089 32.3105 73.792 32.6815C73.845 32.9466 74.0567 33.1435 74.3213 33.1813C74.4726 33.1662 74.6162 33.0905 74.707 32.9693C74.8204 32.8178 74.896 32.6361 74.9036 32.4543C74.9338 31.8788 74.9489 31.5532 74.9489 31.4623C74.9489 31.1291 74.9187 30.7883 74.8658 30.4551C74.8506 30.2885 74.7826 30.137 74.6692 30.0159C74.5784 29.9174 74.4574 29.8644 74.3213 29.8644C74.0643 29.8644 73.845 30.0537 73.792 30.3036V30.2961Z" fill="#F26922"/>
<path d="M75.2439 27.5471L74.208 28.8118L73.6787 28.5316L74.5256 27.1382L75.2439 27.5395V27.5471Z" fill="#F26922"/>
<path d="M79.947 30.4097V33.878H78.9716V30.546C78.9716 30.0764 78.7826 29.8417 78.397 29.8417C78.2155 29.8265 78.034 29.9098 77.9282 30.0613C77.8223 30.2961 77.7694 30.5611 77.7921 30.8186V33.878H76.8167V29.1223H77.7921V29.6751H77.8147C78.0038 29.2813 78.4045 29.0314 78.8431 29.0465C79.1607 29.0162 79.4707 29.1374 79.6824 29.3797C79.879 29.6827 79.9697 30.0462 79.9395 30.4097H79.947Z" fill="#F26922"/>
<path d="M83.1832 27.7894H84.1511V29.1223H84.6804V29.819H84.1511V33.878H83.1832V29.8265H82.6539V29.1298H83.1832V27.797V27.7894Z" fill="#F26922"/>
<path d="M85.2928 33.8704V29.1147H86.2682L86.2456 29.7054H86.2909C86.4875 29.2737 86.9336 29.0086 87.4024 29.0389V29.925C87.0849 29.8871 86.7673 29.9704 86.5102 30.1673C86.3363 30.3642 86.2531 30.6217 86.2682 30.8867V33.8704H85.2853H85.2928Z" fill="#F26922"/>
<path d="M91.2285 29.2888V32.424C91.2436 32.7951 91.1453 33.1662 90.9411 33.4842C90.6689 33.8023 90.2682 33.9765 89.8448 33.9462C89.3608 33.9916 88.8845 33.8629 88.4913 33.5751C88.1888 33.2419 88.0376 32.7951 88.0754 32.3483V29.1222H89.0508V32.4089C89.0433 32.5906 89.0886 32.7799 89.1718 32.939C89.2852 33.0829 89.4667 33.1586 89.6557 33.1359C89.8448 33.1662 90.0262 33.0904 90.1396 32.939C90.2153 32.7875 90.2455 32.6133 90.2455 32.4392V29.1147H91.0848C91.0848 29.1147 91.1453 29.0995 91.1755 29.0844C90.9865 29.0162 90.8958 28.8042 90.9638 28.6149C90.9714 28.5921 90.9789 28.577 90.9941 28.5543C91.0772 28.3347 91.3268 28.2211 91.546 28.3044C91.5687 28.3119 91.5839 28.3195 91.6065 28.3347C91.8939 28.4483 91.9695 28.6376 91.8485 28.8951L91.8031 28.9632C91.667 29.1525 91.4553 29.2737 91.2133 29.2888H91.2285Z" fill="#F26922"/>
<path d="M89.9052 34.2945C90.2984 34.2945 90.495 34.4687 90.495 34.8246C90.495 35.1806 90.2984 35.3547 89.9052 35.3547C89.754 35.3547 89.6028 35.2942 89.4894 35.1957C89.2852 35.0215 89.255 34.711 89.4289 34.499C89.444 34.4763 89.4667 34.4611 89.4894 34.4384C89.6028 34.34 89.754 34.287 89.9052 34.2945Z" fill="#F26922"/>
<path d="M94.3135 32.9314V33.7796C94.0639 33.8932 93.7993 33.9462 93.5271 33.9462C93.0129 33.9992 92.5139 33.719 92.2946 33.2495C92.0678 32.7194 91.9543 32.1514 91.9619 31.5759C91.9619 31.1745 92.0073 30.7731 92.0829 30.3718C92.1509 30.0234 92.3097 29.6978 92.5441 29.4403C92.8088 29.1677 93.1868 29.0238 93.5725 29.0465C93.8295 29.0465 94.0866 29.092 94.321 29.198V30.0992H94.2983C94.1774 29.9401 93.9883 29.8493 93.7842 29.872C93.5649 29.8568 93.3532 29.9553 93.2322 30.137C93.1188 30.3036 93.0432 30.5005 93.0205 30.6974C92.9978 30.8943 92.9751 31.1594 92.96 31.5001C92.96 31.8788 93.0205 32.2574 93.1263 32.6285C93.2095 32.9238 93.4817 33.1207 93.7842 33.1207C93.9808 33.1056 94.1622 33.0374 94.321 32.9238L94.3135 32.9314Z" fill="#F26922"/>
<path d="M97.3456 27.7894H98.3134V29.1223H98.8427V29.819H98.3134V33.878H97.3456V29.8265H96.8163V29.1298H97.3456V27.797V27.7894Z" fill="#F26922"/>
<path d="M99.4325 29.1223H100.408V32.4089C100.408 32.5906 100.446 32.78 100.536 32.939C100.801 33.204 101.232 33.204 101.504 32.939C101.58 32.7875 101.618 32.6134 101.61 32.4392V29.1223H102.586V32.424C102.601 32.7951 102.502 33.1662 102.298 33.4767C102.026 33.7947 101.618 33.9689 101.202 33.9462C100.725 33.9916 100.242 33.8553 99.8483 33.5751C99.5383 33.2419 99.3871 32.7951 99.4325 32.3483V29.1223Z" fill="#F26922"/>
<path d="M102.797 29.1223H103.886L104.672 32.4468H104.695L105.565 29.1223H106.555L104.4 35.8167H103.395L104.204 33.4918L102.797 29.1223Z" fill="#F26922"/>
<path d="M107.916 31.6743C107.916 32.674 108.128 33.1738 108.551 33.1738C108.725 33.1738 108.884 33.0905 108.982 32.9466C109.111 32.7421 109.171 32.5073 109.149 32.265H110.064C110.079 32.6058 109.996 32.9466 109.837 33.2571C109.708 33.4842 109.512 33.666 109.277 33.772C109.043 33.878 108.786 33.931 108.529 33.931C108.241 33.931 107.962 33.8629 107.72 33.7266C107.478 33.5751 107.289 33.3555 107.175 33.0905C107.032 32.7497 106.948 32.3938 106.933 32.0227C106.933 31.8485 106.933 31.6668 106.911 31.4926C106.941 29.8493 107.462 29.0314 108.483 29.0314C108.869 29.0162 109.239 29.1601 109.512 29.4328C109.754 29.7054 109.912 30.031 109.973 30.3945C110.048 30.811 110.086 31.2351 110.086 31.6592H107.909L107.916 31.6743ZM107.939 31.0458H109.088C109.088 30.2506 108.892 29.8568 108.506 29.8568C108.332 29.8568 108.166 29.9477 108.083 30.1067C107.962 30.4021 107.909 30.7277 107.931 31.0458H107.939Z" fill="#F26922"/>
<path d="M108.514 27.123L109.792 28.4331L109.3 28.7966L108.491 28.0091L107.735 28.7966L107.19 28.4331L108.506 27.1306L108.514 27.123ZM110.669 26.6081L109.633 27.8727L109.202 27.638L110.049 26.2446L110.661 26.6081H110.669Z" fill="#F26922"/>
<path d="M113.988 30.4097V33.878H113.013V30.546C113.013 30.0764 112.824 29.8417 112.438 29.8417C112.257 29.8265 112.075 29.9098 111.969 30.0613C111.863 30.2961 111.81 30.5611 111.833 30.8186V33.878H110.858V29.1223H111.833V29.6751H111.863C112.052 29.2813 112.453 29.0314 112.892 29.0465C113.209 29.0162 113.519 29.1374 113.731 29.3797C113.928 29.6827 114.018 30.0462 113.98 30.4097H113.988Z" fill="#F26922"/>
<path d="M116.891 31.0836H118.759V31.7955H116.891V31.0836Z" fill="#F26922"/>
<path d="M121.859 26.7974H123.115C123.515 26.7747 123.916 26.858 124.271 27.0321C124.506 27.1533 124.695 27.3578 124.793 27.6077C124.884 27.8727 124.937 28.1453 124.952 28.4255V28.7588C124.967 29.0995 124.891 29.4403 124.74 29.7432C124.574 30.0159 124.302 30.2052 123.984 30.2658V30.2809C124.687 30.4475 125.156 31.1063 125.073 31.8182C125.073 31.9091 125.073 31.9999 125.058 32.0832C125.05 32.1438 125.043 32.1968 125.043 32.2574C125.012 33.3328 124.377 33.8705 123.145 33.8705H121.852V26.7822L121.859 26.7974ZM122.85 27.585V29.9098C123.084 29.925 123.319 29.8795 123.53 29.7735C123.689 29.6826 123.803 29.5463 123.863 29.3722C123.931 29.1525 123.961 28.9329 123.954 28.7057C123.977 28.4028 123.893 28.1075 123.719 27.8651C123.561 27.6834 123.326 27.5774 123.084 27.5925H122.85V27.585ZM122.85 30.6671V33.0677C123.152 33.098 123.455 33.0223 123.697 32.8481C123.871 32.6588 123.969 32.4089 123.961 32.1438V31.8182C123.992 31.5001 123.901 31.1821 123.704 30.9322C123.5 30.7428 123.22 30.6444 122.941 30.6671H122.835H122.85Z" fill="#F26922"/>
<path d="M128.059 33.2722C127.984 33.4767 127.855 33.6508 127.681 33.772C127.515 33.8856 127.326 33.9462 127.122 33.9462C126.88 33.9462 126.638 33.8553 126.456 33.6963C126.252 33.5221 126.101 33.2873 126.033 33.0299C125.912 32.5225 125.852 32.0075 125.852 31.485C125.852 30.9322 125.92 30.3793 126.078 29.8492C126.154 29.6069 126.305 29.3949 126.502 29.2358C126.668 29.1071 126.88 29.0389 127.092 29.0389C127.318 29.0389 127.53 29.0995 127.719 29.2283C127.886 29.3191 128.007 29.4706 128.067 29.6523H128.09L128.112 29.1222H129.088V33.878H128.09V33.2798H128.067L128.059 33.2722ZM126.971 30.296C126.887 30.7125 126.85 31.1366 126.842 31.5607C126.842 31.9394 126.887 32.3104 126.971 32.6815C127.024 32.9466 127.235 33.1434 127.5 33.1813C127.651 33.1662 127.795 33.0904 127.886 32.9693C127.999 32.8178 128.075 32.6361 128.082 32.4543C128.112 31.8788 128.128 31.5531 128.128 31.4623C128.128 31.1291 128.097 30.7883 128.044 30.4551C128.029 30.2885 127.961 30.137 127.848 30.0158C127.757 29.9174 127.636 29.8644 127.5 29.8644C127.243 29.8644 127.024 30.0537 126.971 30.3036V30.296Z" fill="#F26922"/>
<path d="M126.895 27.7213C126.895 27.638 126.91 27.5547 126.94 27.4789C126.993 27.3956 127.076 27.3351 127.167 27.3123C127.341 27.2593 127.53 27.2366 127.712 27.2442C128.286 27.2442 128.574 27.4032 128.574 27.7137C128.574 27.8046 128.574 27.8803 128.558 27.9636C128.558 28.0242 128.528 28.0848 128.483 28.1302C128.438 28.1832 128.369 28.2287 128.301 28.2438C128.188 28.2741 128.075 28.2892 127.954 28.2817V28.6679H127.439V28.1075H127.553C127.681 28.1226 127.81 28.0999 127.923 28.0393C127.991 27.9863 128.022 27.8955 128.014 27.8122V27.744C128.007 27.5698 127.855 27.4335 127.674 27.4411C127.621 27.4411 127.568 27.4638 127.515 27.4941C127.485 27.532 127.462 27.5774 127.447 27.6304C127.455 27.6531 127.462 27.6834 127.462 27.7137H126.88L126.895 27.7213Z" fill="#F26922"/>
<path d="M129.852 31.0079C129.852 30.4778 130.018 29.9553 130.336 29.5236C130.623 29.198 131.039 29.0238 131.47 29.0465C131.931 29.0238 132.385 29.2131 132.695 29.5615C133.05 30.1143 133.209 30.7731 133.141 31.432V31.7803C133.103 33.2268 132.559 33.9462 131.508 33.9462C131.182 33.9613 130.865 33.8705 130.585 33.7039C130.32 33.5221 130.124 33.2495 130.026 32.9466C129.882 32.5149 129.821 32.0681 129.829 31.6213C129.844 31.3487 129.859 31.1442 129.859 31.0155L129.852 31.0079ZM130.827 31.5077C130.812 31.9242 130.857 32.3483 130.963 32.7572C131.024 32.992 131.243 33.1586 131.485 33.1586C131.508 33.1435 131.53 33.1359 131.561 33.1435C131.795 33.1056 131.984 32.9238 132.029 32.6891C132.128 32.2953 132.165 31.8939 132.158 31.485C132.158 31.379 132.15 31.2275 132.143 31.0382C132.143 30.8565 132.12 30.6671 132.082 30.4854C132.052 30.3188 131.984 30.1673 131.886 30.031C131.787 29.9098 131.644 29.8417 131.485 29.8493C131.228 29.8417 131.001 30.0234 130.956 30.2809C130.865 30.652 130.82 31.0306 130.812 31.4093C130.827 31.4396 130.842 31.4774 130.842 31.5077H130.827Z" fill="#F26922"/>
<path d="M135.689 29.145H136.74L137.436 32.7194H137.458L138.207 29.145H139.137L137.753 33.878H137.095L135.689 29.145Z" fill="#F26922"/>
<path d="M140.551 31.6743C140.551 32.6739 140.762 33.1738 141.186 33.1738C141.36 33.1738 141.519 33.0905 141.617 32.9466C141.745 32.7421 141.806 32.5073 141.783 32.265H142.698C142.713 32.6058 142.63 32.9466 142.471 33.2571C142.343 33.4842 142.146 33.666 141.912 33.772C141.677 33.878 141.42 33.931 141.163 33.931C140.876 33.9386 140.596 33.8629 140.354 33.7266C140.112 33.5751 139.923 33.3555 139.817 33.0905C139.674 32.7497 139.59 32.3938 139.575 32.0227C139.575 31.8031 139.568 31.6213 139.553 31.4926C139.583 29.8493 140.105 29.0314 141.118 29.0314C141.503 29.0162 141.874 29.1601 142.146 29.4328C142.388 29.7054 142.547 30.031 142.607 30.3945C142.683 30.811 142.721 31.2351 142.721 31.6592H140.543L140.551 31.6743ZM140.573 31.0458H141.73C141.73 30.2506 141.534 29.8568 141.148 29.8568C140.974 29.8568 140.808 29.9477 140.725 30.1067C140.604 30.4021 140.551 30.7277 140.573 31.0533V31.0458Z" fill="#F26922"/>
<path d="M141.148 27.123L142.426 28.4331L141.935 28.7966L141.125 28.009L140.362 28.7966L139.817 28.4331L141.141 27.1306L141.148 27.123ZM141.057 34.287C141.451 34.287 141.647 34.4611 141.647 34.8171C141.647 35.173 141.451 35.3472 141.057 35.3472C140.664 35.3472 140.468 35.173 140.468 34.8171C140.468 34.4611 140.664 34.287 141.057 34.287Z" fill="#F26922"/>
<path d="M148.762 30.4097V33.878H147.787V30.546C147.787 30.0764 147.598 29.8417 147.212 29.8417C147.031 29.8265 146.849 29.9098 146.743 30.0613C146.638 30.2961 146.585 30.5611 146.607 30.8186V33.878H145.632V29.1223H146.607V29.6751H146.63C146.819 29.2813 147.22 29.0314 147.658 29.0465C147.976 29.0162 148.286 29.1374 148.498 29.3797C148.694 29.6827 148.785 30.0462 148.755 30.4097H148.762Z" fill="#F26922"/>
<path d="M151.726 33.3176C151.598 33.7039 151.235 33.9613 150.834 33.9689C150.411 33.9841 150.018 33.7569 149.829 33.3858C149.564 32.7875 149.45 32.1438 149.496 31.4926C149.481 30.9776 149.541 30.4627 149.677 29.9704C149.745 29.6902 149.904 29.4403 150.131 29.2586C150.328 29.1298 150.562 29.0617 150.796 29.0541C151.212 29.0617 151.583 29.3267 151.726 29.7205L151.749 29.6827V29.1526H152.724V33.8856C152.732 34.2643 152.694 34.6505 152.604 35.0215C152.535 35.2866 152.377 35.5214 152.15 35.6804C151.863 35.847 151.53 35.9303 151.197 35.9076C150.766 35.9303 150.335 35.8016 149.98 35.5516C149.685 35.2563 149.534 34.8398 149.571 34.4233H150.532C150.532 34.8852 150.743 35.12 151.167 35.12C151.552 35.12 151.749 34.8852 151.749 34.4233V33.3328H151.726V33.3176ZM150.494 31.4926C150.479 31.9091 150.532 32.3256 150.638 32.727C150.691 32.9769 150.895 33.1586 151.144 33.1889C151.394 33.1889 151.598 33.0072 151.628 32.7648C151.719 32.3483 151.757 31.9242 151.742 31.5002C151.742 30.4097 151.537 29.8644 151.137 29.8644C150.993 29.8568 150.849 29.9174 150.751 30.031C150.645 30.1825 150.577 30.3566 150.562 30.5384C150.517 30.8565 150.494 31.1821 150.486 31.5002L150.494 31.4926Z" fill="#F26922"/>
<path d="M156.785 29.2888V32.424C156.8 32.7951 156.702 33.1662 156.498 33.4842C156.225 33.8023 155.825 33.9765 155.401 33.9462C154.917 33.9916 154.441 33.8629 154.048 33.5751C153.745 33.2419 153.594 32.7951 153.624 32.3483V29.1222H154.607V32.4089C154.6 32.5906 154.645 32.7799 154.728 32.939C155 33.204 155.431 33.204 155.696 32.939C155.772 32.7875 155.802 32.6133 155.802 32.4392V29.1147H156.641C156.641 29.1147 156.702 29.0995 156.732 29.0844C156.543 29.0162 156.452 28.8042 156.52 28.6149C156.528 28.5921 156.535 28.5694 156.55 28.5543C156.634 28.3347 156.883 28.2211 157.102 28.3044C157.125 28.3119 157.14 28.3195 157.163 28.3347C157.45 28.4483 157.526 28.6376 157.405 28.8951L157.36 28.9632C157.223 29.1525 157.012 29.2737 156.77 29.2888H156.785Z" fill="#F26922"/>
<path d="M157.556 31.0079C157.556 30.4778 157.715 29.9553 158.033 29.5236C158.32 29.198 158.736 29.0238 159.167 29.0465C159.394 29.0465 159.62 29.0844 159.832 29.1601C159.915 29.145 159.999 29.1223 160.082 29.0995C159.893 29.0314 159.794 28.8193 159.862 28.63C159.87 28.6073 159.878 28.5846 159.893 28.5694C159.976 28.3498 160.218 28.2362 160.437 28.3195C160.46 28.3271 160.482 28.3423 160.505 28.3498C160.792 28.4634 160.868 28.6452 160.747 28.9026C160.732 28.9254 160.724 28.9481 160.702 28.9708C160.558 29.1677 160.339 29.2889 160.097 29.2964C160.203 29.3722 160.301 29.4555 160.384 29.5463C160.747 30.0992 160.906 30.758 160.838 31.4168V31.7652C160.8 33.2116 160.256 33.931 159.205 33.931C158.879 33.9462 158.554 33.8629 158.282 33.6887C158.017 33.507 157.821 33.2419 157.723 32.9314C157.579 32.5073 157.511 32.053 157.526 31.6062C157.556 31.3108 157.571 31.1139 157.571 31.0003H157.556V31.0079ZM158.532 31.5077C158.517 31.9318 158.562 32.3483 158.668 32.7572C158.728 32.992 158.948 33.1586 159.189 33.1586C159.212 33.1435 159.235 33.1359 159.265 33.1359C159.499 33.1056 159.689 32.9163 159.734 32.6815C159.832 32.2877 159.878 31.8864 159.87 31.4774C159.87 31.3714 159.862 31.22 159.855 31.0306C159.855 30.8489 159.832 30.6596 159.794 30.4778C159.764 30.3112 159.696 30.1597 159.598 30.0234C159.499 29.9023 159.356 29.8341 159.197 29.8417C158.94 29.8341 158.713 30.0159 158.668 30.2733C158.577 30.6444 158.524 31.0231 158.524 31.4093C158.539 31.4396 158.547 31.4699 158.547 31.5001H158.539L158.532 31.5077Z" fill="#F26922"/>
<path d="M158.516 27.5017L159.144 27.1382L159.991 28.5316L159.552 28.7663L158.509 27.5017H158.516Z" fill="#F26922"/>
<path d="M161.39 27.691C161.39 27.5319 161.465 27.3805 161.586 27.282C161.707 27.1684 161.874 27.1003 162.048 27.1003C162.214 27.1003 162.38 27.1609 162.501 27.282C162.736 27.4865 162.758 27.8424 162.554 28.0696C162.547 28.0848 162.532 28.0923 162.516 28.1075C162.403 28.2211 162.244 28.2817 162.085 28.2741C161.904 28.2817 161.722 28.2211 161.586 28.0999C161.465 28.0015 161.397 27.85 161.397 27.691H161.39ZM162.532 29.1147V33.8704H161.556V29.1147H162.532Z" fill="#F26922"/>
<path d="M165.556 33.8704V29.1147H166.554V29.7054H166.577C166.743 29.2888 167.159 29.0238 167.605 29.0389C167.817 29.0389 168.029 29.1071 168.21 29.2283C168.376 29.3419 168.497 29.5085 168.543 29.7054H168.565C168.664 29.4857 168.838 29.2964 169.049 29.1828C169.276 29.0844 169.518 29.0314 169.76 29.0389C170.297 29.0011 170.766 29.4024 170.804 29.9477C170.804 30.0158 170.804 30.084 170.804 30.1522V33.8704H169.821V30.5384C169.843 30.3415 169.798 30.1446 169.685 29.978C169.579 29.8795 169.435 29.8265 169.291 29.8417C169.11 29.8265 168.936 29.8947 168.815 30.0234C168.702 30.1976 168.649 30.4021 168.671 30.6065V33.8704H167.696V30.6595C167.711 30.4475 167.673 30.2279 167.59 30.031C167.492 29.8947 167.333 29.819 167.167 29.8341C166.978 29.8114 166.796 29.8947 166.683 30.0537C166.569 30.3188 166.516 30.599 166.539 30.8867V33.8704H165.556Z" fill="#F26922"/>
<path d="M171.696 29.1223H172.671V32.4089C172.664 32.5906 172.709 32.78 172.8 32.939C173.064 33.204 173.495 33.204 173.768 32.939C173.843 32.7875 173.881 32.6134 173.874 32.4392V29.1223H174.849V32.424C174.864 32.7951 174.766 33.1662 174.562 33.4842C174.289 33.8023 173.881 33.9765 173.465 33.9538C172.981 33.9992 172.505 33.8629 172.112 33.5827C171.809 33.2495 171.658 32.8027 171.696 32.3559V29.1223Z" fill="#F26922"/>
<path d="M177.518 33.2722C177.442 33.4767 177.314 33.6509 177.14 33.772C176.974 33.8856 176.785 33.9462 176.58 33.9462C176.338 33.9462 176.096 33.8553 175.915 33.6963C175.711 33.5221 175.56 33.2874 175.492 33.0299C175.371 32.5225 175.31 32.0075 175.31 31.4926C175.31 30.9398 175.378 30.3869 175.537 29.8568C175.613 29.6145 175.764 29.4025 175.96 29.2434C176.127 29.1147 176.338 29.0465 176.55 29.0465C176.777 29.0465 176.989 29.1147 177.178 29.2359C177.344 29.3267 177.465 29.4782 177.526 29.6599H177.548L177.571 29.1298H178.546V33.8856H177.548V33.2874H177.526V33.2722H177.518ZM176.429 30.2961C176.346 30.7126 176.308 31.1367 176.301 31.5607C176.301 31.9394 176.346 32.3105 176.429 32.6815C176.482 32.9466 176.694 33.1435 176.958 33.1813C177.11 33.1662 177.253 33.0905 177.344 32.9693C177.465 32.8178 177.533 32.6361 177.541 32.4543C177.571 31.8788 177.586 31.5532 177.586 31.4623C177.586 31.1291 177.556 30.7883 177.503 30.4551C177.488 30.2885 177.42 30.137 177.306 30.0159C177.216 29.9174 177.095 29.8644 176.958 29.8644C176.701 29.8644 176.482 30.0537 176.429 30.3036V30.2961Z" fill="#F26922"/>
</g>
<defs>
<clipPath id="clip0_12_661">
<rect width="179" height="39.9984" fill="white"/>
</clipPath>
</defs>
</svg>
