<svg xmlns="http://www.w3.org/2000/svg" width="240" height="80" fill="none" viewBox="0 0 240 80"><path fill="#010101" d="M36.9602 51.3419C37.3691 51.5767 37.7932 51.7963 38.2325 51.9856C41.769 53.5381 45.8129 53.4245 49.2586 51.6903C49.5842 51.5312 49.9023 51.3495 50.2203 51.1602C51.7728 50.206 53.1132 48.9489 54.1431 47.4495L54.908 46.359H44.2908C43.95 46.359 43.5259 46.359 43.435 46.3438L43.6395 46.4044C41.4131 45.1246 39.5426 43.3147 38.1794 41.1337C37.9598 40.8005 37.7554 40.4673 37.5736 40.134C35.9909 37.3094 35.4078 34.0379 35.9227 30.8497L36.2332 28.9413L34.7792 30.2287C29.3797 34.9921 28.8572 43.2314 33.6206 48.6308C34.5748 49.7137 35.7031 50.6301 36.9602 51.3419Z"/><path fill="#010101" d="M63.7758 28.646C63.3669 28.4112 62.9428 28.1916 62.5036 28.0023C58.9671 26.4499 54.9231 26.5559 51.4775 28.2901C51.1518 28.4567 50.8262 28.6308 50.5157 28.8202C48.9027 29.7819 47.5093 31.0617 46.4188 32.5839L45.6691 33.6744H56.6952L56.3999 33.6062L56.5513 33.6744C58.9898 34.8179 61.0723 36.6051 62.5642 38.8467C62.7838 39.1723 62.9883 39.5131 63.17 39.8463C64.3665 42.0121 64.9951 44.443 64.9951 46.9118C64.9951 47.6539 64.9345 48.4037 64.8133 49.1382L64.5104 51.0315L65.9568 49.7516C71.3563 44.9883 71.8788 36.749 67.1155 31.3495C66.1613 30.2666 65.0329 29.3503 63.7834 28.6384L63.7758 28.646Z"/><path fill="#F47920" d="M57.2935 25.3669C58.0356 25.3669 58.7777 25.4275 59.5123 25.5487L61.4207 25.8516L60.1409 24.4052C55.3624 19.0057 47.1079 18.4983 41.7009 23.2844C37.2783 27.1996 36.0288 33.5987 38.6641 38.8921C38.8232 39.2102 39.0049 39.5358 39.1942 39.8539C40.1409 41.4593 41.4055 42.8527 42.9125 43.9584L44.003 44.7232V36.9686C44.003 35.4616 44.003 33.1594 44.0106 33.0155L43.9349 33.3185C45.2147 31.0769 47.0322 29.1837 49.2208 27.813C49.5464 27.6009 49.8872 27.3889 50.2204 27.2071C52.3786 26.0106 54.8095 25.3821 57.2859 25.3745L57.2935 25.3669Z"/><path fill="#F47920" d="M43.4427 54.621C42.7005 54.621 41.9584 54.5604 41.2238 54.4392L39.3154 54.1363L40.5952 55.5827C45.3586 60.9822 53.5979 61.5047 59.0049 56.7414C60.0879 55.7872 61.0118 54.6513 61.7236 53.3942C61.9584 52.9852 62.178 52.5612 62.3673 52.1295C63.9197 48.593 63.8062 44.549 62.072 41.1034C61.9129 40.7777 61.7312 40.4597 61.5419 40.1416C60.5801 38.574 59.3003 37.2261 57.7781 36.181L56.6952 35.4237V46.4347L56.7558 46.1545C55.6123 48.6157 53.7948 50.7058 51.5154 52.1825C51.1897 52.4021 50.8565 52.6066 50.5157 52.7883C48.3575 53.9849 45.9266 54.621 43.4502 54.621H43.4427Z"/><path fill="#010101" d="M80.2468 27.0557L87.0852 35.6509V29.691C87.1457 29.1079 87.017 28.5172 86.7292 28.0023C86.2976 27.5706 85.6917 27.3586 85.0859 27.4267V27.0557H89.6675V27.4343C89.2586 27.4646 88.8572 27.5631 88.4861 27.7221C88.2741 27.8584 88.1075 28.0629 88.0166 28.3052C87.8803 28.752 87.8197 29.2215 87.85 29.691V41.2246H87.5017L78.134 29.6835V38.4832C78.0583 39.0739 78.2552 39.6721 78.6792 40.0962C79.0352 40.3764 79.482 40.5203 79.9288 40.5127H80.2544V40.8913H75.3396V40.5127C75.9151 40.5657 76.4831 40.3991 76.9375 40.0432C77.2858 39.604 77.4449 39.0436 77.3843 38.4832V28.7066L77.0889 28.3355C76.8845 28.0477 76.6194 27.7978 76.3165 27.6085C76.0136 27.4722 75.6804 27.4116 75.3472 27.4116V27.033H80.2544L80.2468 27.0557Z"/><path fill="#010101" d="M96.9905 31.4631H100.209V32.5915H98.3763C98.6565 32.8565 98.8912 33.1594 99.073 33.5002C99.2396 33.8637 99.3229 34.2575 99.3229 34.6589C99.338 35.295 99.1336 35.9235 98.7549 36.4309C98.3536 36.9534 97.8235 37.3548 97.2101 37.6047C96.6648 37.8622 96.0741 38.0061 95.4759 38.0288C95.438 38.0288 95.0291 38.0137 94.2491 37.9758C93.9613 37.9758 93.6811 38.0818 93.4766 38.2787C93.2722 38.4605 93.1586 38.7255 93.1661 38.9981C93.1661 39.2253 93.2722 39.4449 93.4539 39.5888C93.7265 39.7706 94.0446 39.8539 94.3702 39.8236L96.1347 39.8009C97.1419 39.7251 98.1567 39.8842 99.0881 40.2704C99.8303 40.6642 100.285 41.4442 100.239 42.2848C100.239 42.8527 100.057 43.4131 99.7091 43.8599C99.3532 44.337 98.8685 44.7005 98.3081 44.905C97.3388 45.2533 96.3089 45.4275 95.2714 45.4048C94.4763 45.4124 93.6887 45.3366 92.9162 45.1625C92.3558 45.0716 91.8333 44.8293 91.3941 44.4658C91.1215 44.231 90.9549 43.8902 90.9321 43.5343C90.9321 43.2162 91.0609 42.9133 91.2805 42.6937C91.6591 42.3756 92.1059 42.156 92.5906 42.0651C91.8182 41.7925 91.2881 41.0731 91.2578 40.2477C91.2729 39.7403 91.4622 39.2556 91.7955 38.877C92.265 38.3544 92.8557 37.9606 93.5145 37.7183C92.7421 37.476 92.0529 37.0216 91.5304 36.4006C91.1215 35.8554 90.9018 35.189 90.917 34.5074C90.917 33.5684 91.3411 32.6823 92.0605 32.0841C92.8784 31.3798 93.9234 31.0163 95.0064 31.0542C95.6803 31.0542 96.3468 31.1905 96.9753 31.448L96.9905 31.4631ZM94.6201 42.3151C94.1506 42.2772 93.6811 42.3378 93.2419 42.4892C92.8935 42.6331 92.6663 42.9739 92.6588 43.345C92.6891 43.7388 92.9162 44.0947 93.2646 44.2916C93.9689 44.6399 94.7489 44.7838 95.5289 44.7157C96.2937 44.746 97.051 44.6172 97.7629 44.337C98.2324 44.1856 98.558 43.7615 98.5732 43.2692C98.5732 43.1102 98.5278 42.9587 98.4217 42.8376C98.1945 42.6104 97.9068 42.4665 97.5887 42.4135C96.6042 42.3151 95.6122 42.2772 94.6201 42.3075V42.3151ZM95.226 31.6979C94.8095 31.7054 94.4308 31.9326 94.2263 32.2961C93.878 33.0761 93.7417 33.9243 93.8174 34.7725C93.7493 35.4919 93.8931 36.2189 94.2188 36.8626C94.4157 37.2034 94.7792 37.4154 95.173 37.4305C95.5895 37.4305 95.9681 37.2185 96.1953 36.8701C96.5361 36.1962 96.6724 35.4389 96.6042 34.6816C96.68 33.8258 96.5209 32.9625 96.1423 32.1901C95.9454 31.872 95.597 31.6903 95.226 31.6979Z"/><path fill="#010101" d="M106.593 39.4979C105.768 40.3688 104.654 40.9141 103.458 41.0428C102.95 41.0579 102.458 40.8686 102.102 40.5127C101.746 40.1568 101.549 39.6721 101.557 39.1723C101.572 38.415 101.913 37.6956 102.488 37.2033C103.746 36.2492 105.124 35.4692 106.585 34.8785V33.9167C106.616 33.4623 106.578 33.0004 106.464 32.5536C106.373 32.3491 106.214 32.1749 106.017 32.0614C105.798 31.9175 105.54 31.8493 105.283 31.8493C104.897 31.8342 104.518 31.9402 104.192 32.1447C104.033 32.2355 103.935 32.3946 103.927 32.5763C103.958 32.7808 104.064 32.9701 104.215 33.1064C104.442 33.3336 104.586 33.6365 104.601 33.9546C104.601 34.2802 104.473 34.5907 104.23 34.8027C103.965 35.0451 103.617 35.1738 103.253 35.1587C102.86 35.1738 102.473 35.0299 102.178 34.7725C101.905 34.5453 101.754 34.2121 101.754 33.8637C101.769 33.3412 101.973 32.8414 102.337 32.4627C102.776 31.9856 103.337 31.6297 103.965 31.4328C104.662 31.1905 105.396 31.0693 106.131 31.0769C106.888 31.039 107.646 31.2359 108.282 31.6524C108.744 31.9553 109.1 32.3946 109.312 32.9019C109.44 33.5532 109.486 34.2121 109.455 34.8709V38.5816C109.44 38.8542 109.455 39.1344 109.509 39.4071C109.531 39.5055 109.584 39.5888 109.66 39.657C109.728 39.71 109.811 39.7403 109.895 39.7403C110.069 39.7403 110.251 39.6115 110.44 39.3616L110.75 39.604C110.478 40.0356 110.114 40.4143 109.69 40.702C109.319 40.9292 108.888 41.0504 108.448 41.0428C107.994 41.0731 107.54 40.9368 107.168 40.6642C106.843 40.3612 106.638 39.9523 106.608 39.5055L106.593 39.4979ZM107.032 26.3287L109.107 30.2287H108.32L105.889 28.1159L103.382 30.1606H102.541L104.715 26.3211H107.025L107.032 26.3287ZM106.593 38.7558V35.5525C105.881 35.9387 105.253 36.4688 104.753 37.1049C104.503 37.423 104.367 37.8168 104.351 38.2181C104.351 38.5286 104.473 38.8239 104.692 39.0436C104.881 39.2329 105.139 39.3389 105.404 39.3238C105.858 39.2783 106.275 39.0739 106.593 38.7558Z"/><path fill="#010101" d="M115.688 31.3495V32.5839C116.089 32.1219 116.566 31.7357 117.097 31.4252C117.543 31.1829 118.043 31.0617 118.551 31.0617C119.111 31.039 119.656 31.2283 120.095 31.5767C120.497 31.9099 120.785 32.3567 120.913 32.8565C121.05 33.5911 121.11 34.3408 121.08 35.0981V38.8164C121.034 39.2859 121.103 39.7554 121.277 40.1871C121.496 40.4067 121.799 40.5279 122.11 40.5279V40.8989H117.278V40.5279C117.596 40.5051 117.877 40.3385 118.058 40.0811C118.202 39.6721 118.263 39.2405 118.225 38.8164V34.568C118.248 34.0757 118.217 33.5759 118.134 33.0837C118.081 32.8944 117.975 32.7278 117.824 32.6066C117.687 32.5006 117.513 32.44 117.339 32.44C116.756 32.44 116.211 32.8565 115.703 33.6971V38.8164C115.658 39.2783 115.726 39.7403 115.9 40.1719C116.082 40.3915 116.354 40.5203 116.642 40.5279V40.8989H111.811V40.5279C112.136 40.5279 112.447 40.384 112.666 40.1416C112.825 39.7176 112.886 39.2632 112.841 38.8088V33.4245C112.886 32.9625 112.818 32.5006 112.644 32.0765C112.424 31.8569 112.121 31.7357 111.811 31.7282V31.3495H115.703H115.688Z"/><path fill="#010101" d="M135.923 36.0447L135.4 40.9065H123.094V40.5278H123.556C123.889 40.543 124.223 40.4673 124.526 40.3158C124.715 40.2022 124.859 40.028 124.934 39.8236C125.04 39.3995 125.078 38.9678 125.048 38.5362V29.4184C125.078 28.9716 125.04 28.5248 124.934 28.0856C124.836 27.8887 124.677 27.7221 124.48 27.6161C124.192 27.4722 123.874 27.404 123.556 27.4192H123.102V27.0481H130.493V27.4267H129.887C129.554 27.4116 129.213 27.4873 128.918 27.6388C128.728 27.7524 128.577 27.9266 128.501 28.131C128.395 28.5551 128.357 28.9868 128.388 29.4184V38.2484C128.357 38.7028 128.403 39.1571 128.509 39.6039C128.6 39.8084 128.774 39.9674 128.986 40.0356C129.395 40.1189 129.804 40.1492 130.22 40.1265H131.379C132.015 40.1492 132.644 40.0129 133.219 39.7403C133.742 39.4525 134.181 39.0284 134.491 38.5134C134.938 37.741 135.279 36.908 135.506 36.0447H135.923Z"/><path fill="#010101" d="M147.858 33.7047C147.956 33.6441 148.032 33.5532 148.07 33.4472C148.1 33.3942 148.1 33.326 148.07 33.273C147.956 33.1443 147.812 33.0458 147.661 32.9701C147.555 32.8944 147.464 32.7959 147.403 32.6823C147.093 32.2355 147.206 31.6297 147.653 31.3192C147.699 31.2889 147.752 31.2586 147.805 31.2283C148.085 31.0693 148.41 31.039 148.713 31.1375C149.304 31.2889 149.705 31.8493 149.645 32.4551C149.645 32.652 149.607 32.8489 149.546 33.0383C149.38 33.5153 148.994 33.8788 148.516 34.0303C147.903 34.2423 147.252 34.3408 146.593 34.3181V38.8391C146.548 39.3086 146.623 39.7706 146.797 40.2098C147.009 40.437 147.312 40.5581 147.623 40.543V40.9141H143.73V39.6342C143.056 40.5733 141.989 41.1564 140.838 41.2018C140.315 41.2018 139.815 41.0276 139.406 40.702C139.012 40.4218 138.717 40.0205 138.566 39.5585C138.384 38.7936 138.308 38.0136 138.346 37.2336V33.4396C138.392 32.9777 138.323 32.5157 138.142 32.0916C137.922 31.8645 137.627 31.7433 137.316 31.7433V31.3646H141.201V37.8925C141.201 38.8694 141.337 39.4601 141.61 39.657C141.746 39.7554 141.92 39.816 142.087 39.8084C142.587 39.8084 143.132 39.3843 143.73 38.5437V33.4396C143.776 32.9777 143.708 32.5157 143.526 32.0916C143.306 31.8645 143.011 31.7433 142.7 31.7433V31.3646H146.601V33.947C147.032 33.947 147.456 33.8637 147.858 33.7122V33.7047Z"/><path fill="#010101" d="M161.209 32.2734C161.042 32.7656 160.656 33.1518 160.171 33.326C159.596 33.5002 158.997 33.5684 158.392 33.5381C158.763 34.3559 158.952 35.242 158.937 36.1356C158.982 37.3548 158.619 38.5513 157.907 39.5358C156.392 41.4366 153.628 41.7471 151.727 40.2325C151.515 40.0659 151.326 39.8841 151.152 39.6797C150.357 38.6876 149.948 37.4457 149.986 36.1734C149.94 34.8785 150.364 33.6062 151.167 32.5839C151.955 31.5918 153.166 31.0314 154.438 31.0617C155.279 31.039 156.112 31.2738 156.816 31.7357C157.165 32.0159 157.498 32.3264 157.808 32.652C158.036 32.9171 158.369 33.0685 158.717 33.0837C158.929 33.0988 159.141 33.0761 159.338 33.0155C159.505 32.9625 159.633 32.8489 159.702 32.6899C159.739 32.6445 159.739 32.5763 159.709 32.5233C159.459 32.3567 159.232 32.1598 159.035 31.9326C158.884 31.6903 158.838 31.4025 158.899 31.1299C158.975 30.8497 159.164 30.6149 159.429 30.4786C159.702 30.3196 160.035 30.2817 160.33 30.3802C160.686 30.4938 160.981 30.7512 161.133 31.092C161.307 31.4555 161.33 31.8796 161.193 32.2658L161.209 32.2734ZM154.408 41.9515C155.34 41.944 156.104 42.6937 156.12 43.6252C156.12 43.6327 156.12 43.6479 156.12 43.6554C156.12 44.1098 155.945 44.5415 155.62 44.852C155.302 45.1776 154.87 45.3518 154.416 45.3442C153.484 45.3442 152.719 44.5869 152.719 43.6554C152.719 43.1935 152.894 42.7618 153.219 42.4438C153.53 42.1181 153.954 41.9364 154.408 41.9364H154.416L154.408 41.9515ZM155.953 35.3404C155.983 34.5453 155.915 33.7425 155.756 32.9625C155.673 32.5915 155.476 32.2582 155.181 32.0083C154.984 31.8569 154.734 31.7812 154.484 31.7963C153.696 31.7963 153.234 32.44 153.106 33.735C153.022 34.515 152.984 35.5903 152.984 36.961C152.984 37.6426 153.03 38.3317 153.128 39.0057C153.28 39.9902 153.719 40.49 154.446 40.49C155.173 40.49 155.574 40.081 155.741 39.2632C155.908 37.9606 155.976 36.6505 155.938 35.3404H155.945H155.953Z"/><path fill="#010101" d="M165.427 31.3495V32.5839C165.828 32.1219 166.305 31.7282 166.835 31.4252C167.282 31.1829 167.774 31.0617 168.282 31.0617C168.842 31.039 169.387 31.2283 169.826 31.5767C170.228 31.9099 170.516 32.3567 170.644 32.8565C170.781 33.5911 170.841 34.3408 170.811 35.0981V38.8164C170.766 39.2859 170.834 39.7554 171.008 40.1871C171.227 40.4067 171.53 40.5279 171.841 40.5279V40.8989H167.009V40.5279C167.327 40.5051 167.615 40.3385 167.789 40.0811C167.933 39.6797 167.994 39.2405 167.956 38.8164V34.568C167.979 34.0757 167.948 33.5759 167.865 33.0837C167.812 32.8944 167.706 32.7278 167.555 32.6066C167.418 32.5006 167.244 32.44 167.07 32.44C166.487 32.44 165.942 32.8565 165.434 33.6971V38.8164C165.389 39.2783 165.457 39.7478 165.631 40.1719C165.813 40.3915 166.085 40.5203 166.373 40.5279V40.8989H161.542V40.5279C161.867 40.5279 162.178 40.384 162.397 40.1416C162.564 39.7176 162.617 39.2632 162.572 38.8088V33.4169C162.617 32.955 162.549 32.493 162.375 32.0689C162.155 31.8493 161.852 31.7282 161.542 31.7206V31.3419H165.434L165.427 31.3495Z"/><path fill="#010101" d="M179.293 31.4631H182.511V32.5915H180.686C180.966 32.8565 181.201 33.1594 181.383 33.5002C181.542 33.8637 181.625 34.2575 181.618 34.6589C181.633 35.295 181.428 35.9235 181.05 36.4309C180.648 36.9535 180.118 37.3548 179.505 37.6047C178.959 37.8622 178.369 38.0061 177.771 38.0288C177.733 38.0288 177.324 38.0137 176.544 37.9758C176.256 37.9758 175.976 38.0818 175.771 38.2787C175.567 38.4605 175.453 38.7255 175.461 38.9981C175.461 39.2253 175.567 39.4449 175.749 39.5888C176.021 39.7706 176.339 39.8539 176.665 39.8236L178.429 39.8009C179.437 39.7251 180.451 39.8842 181.383 40.2704C182.125 40.6566 182.579 41.4442 182.541 42.2848C182.541 42.8527 182.36 43.4131 182.011 43.8599C181.655 44.337 181.171 44.7005 180.61 44.905C179.641 45.2533 178.611 45.4199 177.574 45.4048C176.786 45.4048 175.998 45.3291 175.226 45.1549C174.666 45.064 174.143 44.8217 173.704 44.4582C173.431 44.2234 173.265 43.8826 173.242 43.5267C173.242 43.2087 173.371 42.9057 173.59 42.6861C173.969 42.3681 174.416 42.1485 174.9 42.0576C174.128 41.785 173.598 41.0655 173.568 40.2401C173.583 39.7327 173.772 39.248 174.105 38.8694C174.575 38.3469 175.165 37.9531 175.824 37.7107C175.052 37.4684 174.363 37.014 173.84 36.3931C173.431 35.8478 173.212 35.1814 173.227 34.4998C173.227 33.5608 173.651 32.6748 174.37 32.0765C175.188 31.3722 176.233 31.0087 177.316 31.0466C177.99 31.0542 178.657 31.1905 179.278 31.448L179.293 31.4631ZM176.922 42.3151C176.453 42.2772 175.983 42.3378 175.544 42.4892C175.196 42.6331 174.969 42.9739 174.961 43.345C174.991 43.7388 175.218 44.0947 175.559 44.2916C176.264 44.6399 177.044 44.7914 177.824 44.7157C178.588 44.746 179.346 44.6172 180.058 44.337C180.527 44.1856 180.853 43.7615 180.868 43.2692C180.868 43.1102 180.822 42.9588 180.716 42.8376C180.489 42.6104 180.201 42.4665 179.883 42.4135C178.899 42.3151 177.907 42.2772 176.915 42.3075L176.922 42.3151ZM177.521 31.6979C177.104 31.7054 176.725 31.9326 176.521 32.2961C176.173 33.0761 176.036 33.9243 176.112 34.7725C176.044 35.4919 176.188 36.2189 176.513 36.8626C176.71 37.2034 177.074 37.4154 177.468 37.4305C177.884 37.4305 178.263 37.2185 178.49 36.8702C178.831 36.1962 178.967 35.4389 178.899 34.6816C178.975 33.8259 178.816 32.9625 178.437 32.1901C178.24 31.872 177.892 31.6903 177.521 31.6979Z"/><path fill="#010101" d="M185.533 37.7562C186.472 37.7562 187.237 38.5135 187.237 39.4525C187.237 40.3915 186.479 41.1564 185.54 41.1564C184.601 41.1564 183.836 40.3991 183.836 39.4601C183.836 39.0057 184.011 38.5741 184.329 38.256C184.639 37.9304 185.078 37.7486 185.525 37.7562H185.533Z"/><path fill="#010101" d="M193.166 41.1943L189.948 33.788C189.721 33.1897 189.41 32.6142 189.039 32.0917C188.85 31.9023 188.607 31.7736 188.342 31.7357V31.3571H193.416V31.7357C193.181 31.713 192.954 31.7736 192.765 31.9099C192.606 32.0386 192.523 32.2355 192.523 32.44C192.591 32.9322 192.742 33.4169 192.969 33.8637L194.544 37.4533L195.802 34.3559C196.082 33.7653 196.264 33.1291 196.339 32.4779C196.339 32.281 196.264 32.0917 196.112 31.9629C195.87 31.8039 195.59 31.7282 195.302 31.7433V31.3647H198.422V31.7433C198.149 31.7736 197.892 31.8948 197.687 32.0841C197.324 32.5763 197.036 33.1291 196.831 33.7047L193.651 41.2094H193.166V41.1943Z"/><path fill="#010101" d="M203.223 31.3495V32.5839C203.624 32.1219 204.101 31.7282 204.632 31.4252C205.078 31.1829 205.578 31.0617 206.086 31.0617C206.646 31.039 207.191 31.2208 207.623 31.5767C208.024 31.9099 208.312 32.3567 208.441 32.8565C208.577 33.5911 208.638 34.3408 208.607 35.0981V38.8164C208.562 39.2859 208.63 39.7554 208.804 40.1871C209.024 40.4067 209.327 40.5279 209.637 40.5279V40.8989H204.806V40.5279C205.124 40.5051 205.412 40.3385 205.586 40.0811C205.73 39.6797 205.79 39.2405 205.752 38.8164V34.568C205.775 34.0758 205.745 33.5759 205.661 33.0837C205.608 32.8944 205.502 32.7278 205.351 32.6066C205.215 32.5006 205.041 32.44 204.866 32.44C204.283 32.44 203.738 32.8565 203.231 33.6971V38.8164C203.185 39.2783 203.253 39.7478 203.427 40.1719C203.609 40.3915 203.882 40.5203 204.17 40.5279V40.8989H199.338V40.5279C199.664 40.5279 199.974 40.384 200.194 40.1416C200.36 39.7176 200.413 39.2632 200.368 38.8088V33.4169C200.413 32.955 200.345 32.493 200.171 32.0689C199.952 31.8493 199.649 31.7282 199.338 31.7206V31.3419H203.231L203.223 31.3495Z"/><path fill="#F26922" d="M75.0064 46.7982H78.4596V47.6085H77.2858V53.8788H76.218V47.6085H74.9988V46.7982H75.0064Z"/><path fill="#F26922" d="M78.861 53.8713V46.7755H79.8454V49.6683H79.8682C80.0575 49.267 80.474 49.0246 80.9132 49.0549H81.2086C81.5039 49.0701 81.7614 49.2594 81.8598 49.5396C81.9658 49.8728 82.0113 50.2287 82.0037 50.5771V53.8637H81.0268V50.5468C81.0495 50.3499 80.9965 50.153 80.8753 50.0015C80.7618 49.8955 80.6103 49.8425 80.4513 49.8425C80.0499 49.8425 79.8454 50.1227 79.8454 50.6831V53.8789H78.8685L78.861 53.8713Z"/><path fill="#F26922" d="M84.9496 53.273C84.8738 53.4775 84.7451 53.6517 84.5709 53.7728C84.4043 53.8864 84.215 53.947 84.0105 53.947C83.7682 53.947 83.5259 53.8561 83.3441 53.6971C83.1396 53.5229 82.9882 53.2882 82.92 53.0307C82.7989 52.5233 82.7383 52.0084 82.7383 51.4934C82.7383 50.9406 82.8064 50.3878 82.9655 49.8577C83.0412 49.6153 83.1926 49.4033 83.3895 49.2443C83.5561 49.1155 83.7682 49.0474 83.9727 49.0474C84.1998 49.0474 84.4119 49.1155 84.6012 49.2367C84.7678 49.3276 84.889 49.479 84.9496 49.6608H84.9723L84.995 49.1307H85.9719V53.8864H84.9723V53.2882H84.9496V53.273ZM83.8515 50.2969C83.7682 50.7134 83.7303 51.1375 83.7228 51.5616C83.7228 51.9402 83.7682 52.3113 83.8515 52.6823C83.9045 52.9474 84.1165 53.1443 84.3816 53.1822C84.5331 53.167 84.6769 53.0913 84.7678 52.9701C84.8814 52.8187 84.9571 52.6369 84.9647 52.4552C84.995 51.8796 85.0101 51.554 85.0101 51.4631C85.0101 51.1299 84.9799 50.7891 84.9268 50.4559C84.9117 50.2893 84.8435 50.1379 84.7299 50.0167C84.6391 49.9182 84.5179 49.8652 84.3816 49.8652C84.1241 49.8804 83.9121 50.0546 83.8515 50.3045V50.2969Z"/><path fill="#F26922" d="M90.0235 50.4105V53.8789H89.0466V50.5468C89.0466 50.0773 88.8573 49.8425 88.471 49.8425C88.2893 49.8274 88.1075 49.9107 88.0015 50.0621C87.8955 50.2969 87.8425 50.5619 87.8652 50.8194V53.8789H86.8883V49.1231H87.8652V49.6759H87.8879C88.0772 49.2821 88.4786 49.0322 88.9178 49.0474C89.2359 49.0171 89.5464 49.1382 89.7584 49.3806C89.9553 49.6835 90.0462 50.047 90.0235 50.4105Z"/><path fill="#F26922" d="M90.9323 53.8713V46.7755H91.9091V49.6683H91.9319C92.1212 49.267 92.5377 49.0246 92.9845 49.0549H93.2798C93.5752 49.0701 93.8327 49.2594 93.9311 49.5396C94.0371 49.8728 94.0826 50.2287 94.075 50.5771V53.8637H93.0981V50.5468C93.1208 50.3499 93.0678 50.153 92.9466 50.0015C92.833 49.8955 92.6816 49.8425 92.5226 49.8425C92.1212 49.8425 91.9167 50.1227 91.9167 50.6831V53.8789H90.9398L90.9323 53.8713Z"/><path fill="#F26922" d="M97.3085 47.7903H98.2703V49.1231H98.8004V49.8198H98.2703V53.8789H97.301V49.8274H96.7709V49.1307H97.301V47.7978L97.3085 47.7903Z"/><path fill="#F26922" d="M99.2776 51.0087C99.2776 50.4786 99.4442 49.9561 99.7622 49.5244C100.05 49.1988 100.467 49.0246 100.898 49.0474C101.36 49.0246 101.814 49.214 102.125 49.5623C102.481 50.1151 102.64 50.774 102.572 51.4328V51.7812C102.526 53.2276 101.974 53.9546 100.928 53.9546C100.603 53.9697 100.285 53.8789 100.005 53.7123C99.7395 53.5305 99.5426 53.2579 99.4442 52.955C99.3003 52.5233 99.2321 52.0765 99.2397 51.6297C99.2624 51.3571 99.2776 51.1526 99.2776 51.0163V51.0087ZM100.254 51.5085C100.239 51.9251 100.285 52.3491 100.391 52.7581C100.451 52.9928 100.671 53.1594 100.913 53.1594C100.936 53.1443 100.959 53.1367 100.989 53.1443C101.224 53.1064 101.413 52.9247 101.459 52.6899C101.557 52.2961 101.595 51.8948 101.587 51.4858C101.587 51.3798 101.58 51.2283 101.572 51.039C101.572 50.8573 101.549 50.668 101.512 50.4862C101.481 50.3196 101.413 50.1681 101.315 50.0318C101.216 49.9107 101.072 49.8425 100.913 49.8501C100.656 49.8425 100.429 50.0243 100.383 50.2817C100.292 50.6528 100.247 51.0315 100.239 51.4101C100.254 51.4404 100.262 51.4783 100.262 51.5085H100.254Z"/><path fill="#F26922" d="M105.358 53.273C105.283 53.4775 105.154 53.6517 104.98 53.7728C104.813 53.8864 104.624 53.947 104.419 53.947C104.177 53.947 103.935 53.8561 103.753 53.6971C103.549 53.5229 103.397 53.2882 103.329 53.0307C103.208 52.5233 103.147 52.0084 103.147 51.4934C103.147 50.9406 103.215 50.3878 103.374 49.8577C103.45 49.6153 103.602 49.4033 103.798 49.2443C103.965 49.1155 104.177 49.0474 104.389 49.0474C104.616 49.0474 104.828 49.1155 105.018 49.2367C105.184 49.3276 105.305 49.479 105.366 49.6608H105.389L105.412 49.1307H106.388V53.8864H105.389V53.2882H105.366V53.273H105.358ZM104.268 50.2969C104.185 50.7134 104.147 51.1375 104.139 51.5616C104.139 51.9402 104.185 52.3113 104.268 52.6823C104.321 52.9474 104.533 53.1443 104.798 53.1822C104.95 53.167 105.093 53.0913 105.184 52.9701C105.298 52.8187 105.374 52.6369 105.381 52.4552C105.412 51.8796 105.427 51.554 105.427 51.4631C105.427 51.1299 105.396 50.7891 105.343 50.4559C105.328 50.2893 105.26 50.1379 105.146 50.0167C105.056 49.9182 104.934 49.8652 104.798 49.8652C104.541 49.8652 104.321 50.0546 104.268 50.3045V50.2969Z"/><path fill="#F26922" d="M105.722 47.5479L104.685 48.8126L104.154 48.5324L105.003 47.139L105.722 47.5403V47.5479Z"/><path fill="#F26922" d="M110.432 50.4105V53.8789H109.456V50.5468C109.456 50.0773 109.266 49.8425 108.88 49.8425C108.698 49.8274 108.516 49.9107 108.41 50.0621C108.304 50.2969 108.251 50.5619 108.274 50.8194V53.8789H107.297V49.1231H108.274V49.6759H108.297C108.486 49.2821 108.888 49.0322 109.327 49.0474C109.645 49.0171 109.955 49.1382 110.167 49.3806C110.364 49.6835 110.455 50.047 110.425 50.4105H110.432Z"/><path fill="#F26922" d="M113.674 47.7903H114.643V49.1231H115.173V49.8198H114.643V53.8789H113.674V49.8274H113.143V49.1307H113.674V47.7978V47.7903Z"/><path fill="#F26922" d="M115.786 53.8713V49.1155H116.763L116.741 49.7062H116.786C116.983 49.2745 117.43 49.0095 117.899 49.0398V49.9258C117.581 49.8879 117.263 49.9712 117.006 50.1681C116.831 50.365 116.748 50.6225 116.763 50.8875V53.8713H115.779H115.786Z"/><path fill="#F26922" d="M121.731 49.2897V52.4248C121.746 52.7959 121.648 53.167 121.443 53.4851C121.171 53.8031 120.769 53.9773 120.345 53.947C119.861 53.9924 119.384 53.8637 118.99 53.5759C118.687 53.2427 118.535 52.7959 118.573 52.3491V49.1231H119.55V52.4097C119.543 52.5914 119.588 52.7808 119.671 52.9398C119.785 53.0837 119.967 53.1594 120.156 53.1367C120.345 53.167 120.527 53.0913 120.641 52.9398C120.716 52.7883 120.747 52.6142 120.747 52.44V49.1155H121.587C121.587 49.1155 121.648 49.1003 121.678 49.0852C121.489 49.017 121.398 48.805 121.466 48.6157C121.474 48.593 121.481 48.5778 121.496 48.5551C121.58 48.3355 121.83 48.2219 122.049 48.3052C122.072 48.3128 122.087 48.3203 122.11 48.3355C122.398 48.4491 122.473 48.6384 122.352 48.8959L122.307 48.964C122.17 49.1534 121.958 49.2745 121.716 49.2897H121.731Z"/><path fill="#F26922" d="M120.406 54.2954C120.8 54.2954 120.997 54.4695 120.997 54.8255C120.997 55.1814 120.8 55.3556 120.406 55.3556C120.254 55.3556 120.103 55.295 119.989 55.1965C119.785 55.0224 119.755 54.7119 119.929 54.4998C119.944 54.4771 119.967 54.462 119.989 54.4392C120.103 54.3408 120.254 54.2878 120.406 54.2954Z"/><path fill="#F26922" d="M124.821 52.9322V53.7804C124.571 53.894 124.306 53.947 124.033 53.947C123.518 54 123.019 53.7198 122.799 53.2503C122.572 52.7202 122.458 52.1522 122.466 51.5767C122.466 51.1753 122.511 50.774 122.587 50.3726C122.655 50.0243 122.814 49.6986 123.049 49.4411C123.314 49.1685 123.692 49.0246 124.079 49.0473C124.336 49.0473 124.594 49.0928 124.828 49.1988V50.1H124.806C124.685 49.9409 124.495 49.8501 124.291 49.8728C124.071 49.8576 123.859 49.9561 123.738 50.1378C123.624 50.3044 123.549 50.5013 123.526 50.6982C123.503 50.8951 123.48 51.1602 123.465 51.501C123.465 51.8796 123.526 52.2583 123.632 52.6293C123.715 52.9247 123.988 53.1216 124.291 53.1216C124.488 53.1064 124.669 53.0383 124.828 52.9247L124.821 52.9322Z"/><path fill="#F26922" d="M127.858 47.7903H128.827V49.1231H129.357V49.8198H128.827V53.8789H127.858V49.8274H127.328V49.1307H127.858V47.7978V47.7903Z"/><path fill="#F26922" d="M129.948 49.1231H130.925V52.4097C130.925 52.5915 130.963 52.7808 131.053 52.9398C131.318 53.2049 131.75 53.2049 132.023 52.9398C132.098 52.7884 132.136 52.6142 132.129 52.44V49.1231H133.106V52.4249C133.121 52.7959 133.022 53.167 132.818 53.4775C132.545 53.7955 132.136 53.9697 131.72 53.947C131.243 53.9924 130.758 53.8561 130.364 53.5759C130.054 53.2427 129.902 52.7959 129.948 52.3491V49.1231Z"/><path fill="#F26922" d="M133.318 49.1231H134.408L135.196 52.4476H135.218L136.089 49.1231H137.081L134.923 55.8175H133.916L134.726 53.4926L133.318 49.1231Z"/><path fill="#F26922" d="M138.444 51.6752C138.444 52.6748 138.656 53.1746 139.081 53.1746C139.255 53.1746 139.414 53.0913 139.512 52.9474C139.641 52.7429 139.702 52.5082 139.679 52.2658H140.595C140.61 52.6066 140.527 52.9474 140.368 53.2579C140.239 53.4851 140.042 53.6668 139.808 53.7728C139.573 53.8789 139.315 53.9319 139.058 53.9319C138.77 53.9319 138.49 53.8637 138.248 53.7274C138.005 53.5759 137.816 53.3563 137.702 53.0913C137.558 52.7505 137.475 52.3946 137.46 52.0235C137.46 51.8493 137.46 51.6676 137.437 51.4934C137.468 49.8501 137.99 49.0322 139.012 49.0322C139.399 49.0171 139.77 49.161 140.042 49.4336C140.285 49.7062 140.444 50.0318 140.504 50.3953C140.58 50.8118 140.618 51.2359 140.618 51.66H138.437L138.444 51.6752ZM138.467 51.0466H139.618C139.618 50.2514 139.421 49.8577 139.035 49.8577C138.861 49.8577 138.694 49.9485 138.611 50.1076C138.49 50.4029 138.437 50.7285 138.46 51.0466H138.467Z"/><path fill="#F26922" d="M139.043 47.1238L140.323 48.434L139.83 48.7975L139.02 48.0099L138.263 48.7975L137.718 48.434L139.035 47.1314L139.043 47.1238ZM141.201 46.6089L140.164 47.8736L139.732 47.6388L140.58 46.2454L141.193 46.6089H141.201Z"/><path fill="#F26922" d="M144.526 50.4105V53.8789H143.549V50.5468C143.549 50.0773 143.359 49.8425 142.973 49.8425C142.791 49.8274 142.61 49.9107 142.504 50.0621C142.398 50.2969 142.345 50.5619 142.367 50.8194V53.8789H141.39V49.1231H142.367V49.6759H142.398C142.587 49.2821 142.988 49.0322 143.427 49.0474C143.746 49.0171 144.056 49.1382 144.268 49.3806C144.465 49.6835 144.556 50.047 144.518 50.4105H144.526Z"/><path fill="#F26922" d="M147.433 51.0845H149.304V51.7963H147.433V51.0845Z"/><path fill="#F26922" d="M152.409 46.7982H153.666C154.067 46.7755 154.469 46.8588 154.825 47.033C155.059 47.1541 155.249 47.3586 155.347 47.6085C155.438 47.8735 155.491 48.1462 155.506 48.4264V48.7596C155.521 49.1004 155.446 49.4411 155.294 49.7441C155.128 50.0167 154.855 50.206 154.537 50.2666V50.2817C155.241 50.4483 155.711 51.1072 155.627 51.819C155.627 51.9099 155.627 52.0008 155.612 52.0841C155.605 52.1447 155.597 52.1977 155.597 52.2582C155.567 53.3336 154.931 53.8713 153.696 53.8713H152.401V46.7831L152.409 46.7982ZM153.401 47.5858V49.9107C153.636 49.9258 153.871 49.8804 154.083 49.7743C154.242 49.6835 154.355 49.5472 154.416 49.373C154.484 49.1534 154.514 48.9338 154.507 48.7066C154.529 48.4036 154.446 48.1083 154.272 47.866C154.113 47.6842 153.878 47.5782 153.636 47.5933H153.401V47.5858ZM153.401 50.6679V53.0685C153.704 53.0988 154.007 53.0231 154.249 52.8489C154.423 52.6596 154.522 52.4097 154.514 52.1447V51.819C154.545 51.501 154.454 51.1829 154.257 50.933C154.052 50.7437 153.772 50.6452 153.492 50.6679H153.386H153.401Z"/><path fill="#F26922" d="M158.619 53.273C158.543 53.4775 158.414 53.6517 158.24 53.7728C158.073 53.8864 157.884 53.947 157.68 53.947C157.437 53.947 157.195 53.8561 157.013 53.6971C156.809 53.5229 156.657 53.2882 156.589 53.0307C156.468 52.5233 156.407 52.0083 156.407 51.4858C156.407 50.933 156.476 50.3802 156.635 49.8501C156.71 49.6077 156.862 49.3957 157.059 49.2367C157.225 49.1079 157.437 49.0398 157.649 49.0398C157.876 49.0398 158.089 49.1003 158.278 49.2291C158.444 49.32 158.566 49.4714 158.626 49.6532H158.649L158.672 49.1231H159.649V53.8788H158.649V53.2806H158.626L158.619 53.273ZM157.528 50.2969C157.445 50.7134 157.407 51.1375 157.399 51.5615C157.399 51.9402 157.445 52.3113 157.528 52.6823C157.581 52.9474 157.793 53.1443 158.058 53.1821C158.21 53.167 158.354 53.0913 158.444 52.9701C158.558 52.8186 158.634 52.6369 158.641 52.4551C158.672 51.8796 158.687 51.554 158.687 51.4631C158.687 51.1299 158.656 50.7891 158.603 50.4559C158.588 50.2893 158.52 50.1378 158.407 50.0167C158.316 49.9182 158.195 49.8652 158.058 49.8652C157.801 49.8652 157.581 50.0545 157.528 50.3044V50.2969Z"/><path fill="#F26922" d="M157.452 47.7221C157.452 47.6388 157.468 47.5555 157.498 47.4798C157.551 47.3965 157.634 47.3359 157.725 47.3132C157.899 47.2602 158.089 47.2374 158.27 47.245C158.846 47.245 159.134 47.404 159.134 47.7145C159.134 47.8054 159.134 47.8811 159.118 47.9644C159.118 48.025 159.088 48.0856 159.043 48.131C158.997 48.1841 158.929 48.2295 158.861 48.2446C158.747 48.2749 158.634 48.2901 158.513 48.2825V48.6687H157.998V48.1083H158.111C158.24 48.1235 158.369 48.1007 158.482 48.0402C158.55 47.9872 158.581 47.8963 158.573 47.813V47.7448C158.566 47.5706 158.414 47.4343 158.232 47.4419C158.179 47.4419 158.126 47.4646 158.073 47.4949C158.043 47.5328 158.02 47.5782 158.005 47.6312C158.013 47.6539 158.02 47.6842 158.02 47.7145H157.437L157.452 47.7221Z"/><path fill="#F26922" d="M160.413 51.0087C160.413 50.4786 160.58 49.9561 160.898 49.5244C161.186 49.1988 161.602 49.0246 162.034 49.0474C162.496 49.0246 162.95 49.214 163.261 49.5623C163.617 50.1151 163.776 50.774 163.708 51.4328V51.7812C163.67 53.2276 163.125 53.947 162.072 53.947C161.746 53.9622 161.428 53.8713 161.148 53.7047C160.883 53.5229 160.686 53.2503 160.588 52.9474C160.444 52.5157 160.383 52.0689 160.391 51.6221C160.406 51.3495 160.421 51.145 160.421 51.0163L160.413 51.0087ZM161.39 51.5085C161.375 51.9251 161.421 52.3491 161.527 52.7581C161.587 52.9928 161.807 53.1594 162.049 53.1594C162.072 53.1443 162.095 53.1367 162.125 53.1443C162.36 53.1064 162.549 52.9247 162.594 52.6899C162.693 52.2961 162.731 51.8948 162.723 51.4858C162.723 51.3798 162.716 51.2283 162.708 51.039C162.708 50.8573 162.685 50.668 162.647 50.4862C162.617 50.3196 162.549 50.1681 162.451 50.0318C162.352 49.9107 162.208 49.8425 162.049 49.8501C161.792 49.8425 161.565 50.0243 161.519 50.2817C161.428 50.6528 161.383 51.0315 161.375 51.4101C161.39 51.4404 161.406 51.4783 161.406 51.5085H161.39Z"/><path fill="#F26922" d="M166.26 49.1458H167.312L168.009 52.7202H168.032L168.782 49.1458H169.713L168.327 53.8789H167.668L166.26 49.1458Z"/><path fill="#F26922" d="M171.129 51.6752C171.129 52.6748 171.341 53.1746 171.765 53.1746C171.939 53.1746 172.098 53.0913 172.197 52.9474C172.326 52.7429 172.386 52.5082 172.363 52.2658H173.28C173.295 52.6066 173.212 52.9474 173.053 53.2579C172.924 53.4851 172.727 53.6668 172.492 53.7728C172.257 53.8789 172 53.9319 171.742 53.9319C171.455 53.9394 171.174 53.8637 170.932 53.7274C170.69 53.5759 170.5 53.3563 170.394 53.0913C170.251 52.7505 170.167 52.3946 170.152 52.0235C170.152 51.8039 170.145 51.6221 170.129 51.4934C170.16 49.8501 170.682 49.0322 171.697 49.0322C172.083 49.0171 172.454 49.161 172.727 49.4336C172.969 49.7062 173.128 50.0318 173.189 50.3953C173.265 50.8118 173.302 51.2359 173.302 51.66H171.121L171.129 51.6752ZM171.152 51.0466H172.31C172.31 50.2514 172.113 49.8577 171.727 49.8577C171.553 49.8577 171.386 49.9485 171.303 50.1076C171.182 50.4029 171.129 50.7285 171.152 51.0542V51.0466Z"/><path fill="#F26922" d="M171.727 47.1238L173.007 48.4339L172.515 48.7974L171.705 48.0099L170.94 48.7974L170.395 48.4339L171.72 47.1314L171.727 47.1238ZM171.636 54.2878C172.03 54.2878 172.227 54.462 172.227 54.8179C172.227 55.1738 172.03 55.348 171.636 55.348C171.243 55.348 171.046 55.1738 171.046 54.8179C171.046 54.462 171.243 54.2878 171.636 54.2878Z"/><path fill="#F26922" d="M179.353 50.4105V53.8789H178.376V50.5468C178.376 50.0773 178.187 49.8425 177.801 49.8425C177.619 49.8274 177.437 49.9107 177.331 50.0621C177.225 50.2969 177.172 50.5619 177.195 50.8194V53.8789H176.218V49.1231H177.195V49.6759H177.218C177.407 49.2821 177.808 49.0322 178.248 49.0474C178.566 49.0171 178.876 49.1382 179.088 49.3806C179.285 49.6835 179.376 50.047 179.346 50.4105H179.353Z"/><path fill="#F26922" d="M182.322 53.3185C182.193 53.7047 181.83 53.9622 181.428 53.9697C181.004 53.9849 180.61 53.7577 180.421 53.3866C180.156 52.7884 180.042 52.1447 180.088 51.4934C180.073 50.9784 180.133 50.4635 180.27 49.9713C180.338 49.6911 180.497 49.4411 180.724 49.2594C180.921 49.1307 181.156 49.0625 181.39 49.0549C181.807 49.0625 182.178 49.3276 182.322 49.7213L182.344 49.6835V49.1534H183.321V53.8864C183.329 54.2651 183.291 54.6513 183.2 55.0224C183.132 55.2874 182.973 55.5222 182.746 55.6812C182.458 55.8478 182.125 55.9311 181.792 55.9084C181.36 55.9311 180.928 55.8024 180.572 55.5525C180.277 55.2571 180.126 54.8406 180.163 54.4241H181.125C181.125 54.8861 181.337 55.1208 181.761 55.1208C182.148 55.1208 182.344 54.8861 182.344 54.4241V53.3336H182.322V53.3185ZM181.087 51.4934C181.072 51.9099 181.125 52.3264 181.231 52.7278C181.284 52.9777 181.489 53.1594 181.739 53.1897C181.989 53.1897 182.193 53.008 182.223 52.7656C182.314 52.3491 182.352 51.9251 182.337 51.501C182.337 50.4105 182.132 49.8652 181.731 49.8652C181.587 49.8577 181.443 49.9182 181.345 50.0318C181.239 50.1833 181.171 50.3575 181.156 50.5392C181.11 50.8573 181.087 51.1829 181.08 51.501L181.087 51.4934Z"/><path fill="#F26922" d="M187.388 49.2897V52.4248C187.403 52.7959 187.305 53.167 187.1 53.4851C186.828 53.8031 186.426 53.9773 186.002 53.947C185.518 53.9924 185.04 53.8637 184.647 53.5759C184.344 53.2427 184.192 52.7959 184.223 52.3491V49.1231H185.207V52.4097C185.199 52.5914 185.245 52.7808 185.328 52.9398C185.601 53.2049 186.032 53.2049 186.298 52.9398C186.373 52.7883 186.404 52.6142 186.404 52.44V49.1155H187.244C187.244 49.1155 187.305 49.1003 187.335 49.0852C187.146 49.017 187.055 48.805 187.123 48.6157C187.131 48.593 187.138 48.5702 187.153 48.5551C187.237 48.3355 187.486 48.2219 187.706 48.3052C187.729 48.3128 187.744 48.3203 187.767 48.3355C188.054 48.4491 188.13 48.6384 188.009 48.8959L187.964 48.964C187.827 49.1534 187.615 49.2745 187.373 49.2897H187.388Z"/><path fill="#F26922" d="M188.161 51.0087C188.161 50.4786 188.32 49.9561 188.638 49.5245C188.925 49.1988 189.342 49.0246 189.774 49.0474C190.001 49.0474 190.228 49.0852 190.44 49.161C190.523 49.1458 190.607 49.1231 190.69 49.1004C190.501 49.0322 190.402 48.8202 190.47 48.6309C190.478 48.6081 190.485 48.5854 190.501 48.5703C190.584 48.3507 190.826 48.2371 191.046 48.3204C191.069 48.3279 191.091 48.3431 191.114 48.3507C191.402 48.4642 191.477 48.646 191.356 48.9035C191.341 48.9262 191.334 48.9489 191.311 48.9716C191.167 49.1685 190.947 49.2897 190.705 49.2973C190.811 49.373 190.909 49.4563 190.993 49.5472C191.356 50.1 191.515 50.7588 191.447 51.4177V51.766C191.409 53.2124 190.864 53.9319 189.811 53.9319C189.486 53.947 189.16 53.8637 188.888 53.6895C188.622 53.5078 188.426 53.2427 188.327 52.9323C188.183 52.5082 188.115 52.0538 188.13 51.607C188.161 51.3117 188.176 51.1148 188.176 51.0012H188.161V51.0087ZM189.137 51.5085C189.122 51.9326 189.168 52.3491 189.274 52.7581C189.334 52.9928 189.554 53.1594 189.796 53.1594C189.819 53.1443 189.842 53.1367 189.872 53.1367C190.107 53.1064 190.296 52.9171 190.342 52.6823C190.44 52.2886 190.485 51.8872 190.478 51.4783C190.478 51.3722 190.47 51.2208 190.463 51.0315C190.463 50.8497 190.44 50.6604 190.402 50.4786C190.372 50.312 190.304 50.1606 190.205 50.0243C190.107 49.9031 189.963 49.8349 189.804 49.8425C189.546 49.8349 189.319 50.0167 189.274 50.2742C189.183 50.6452 189.13 51.0239 189.13 51.4101C189.145 51.4404 189.153 51.4707 189.153 51.501H189.145L189.137 51.5085Z"/><path fill="#F26922" d="M189.122 47.5025L189.751 47.139L190.599 48.5324L190.16 48.7671L189.115 47.5025H189.122Z"/><path fill="#F26922" d="M192 47.6918C192 47.5328 192.076 47.3813 192.197 47.2829C192.318 47.1693 192.485 47.1011 192.659 47.1011C192.825 47.1011 192.992 47.1617 193.113 47.2829C193.348 47.4873 193.371 47.8432 193.166 48.0704C193.159 48.0856 193.143 48.0932 193.128 48.1083C193.015 48.2219 192.856 48.2825 192.697 48.2749C192.515 48.2825 192.333 48.2219 192.197 48.1007C192.076 48.0023 192.008 47.8508 192.008 47.6918H192ZM193.144 49.1155V53.8713H192.167V49.1155H193.144Z"/><path fill="#F26922" d="M196.173 53.8713V49.1155H197.172V49.7062H197.195C197.362 49.2897 197.778 49.0246 198.225 49.0398C198.437 49.0398 198.649 49.1079 198.831 49.2291C198.997 49.3427 199.118 49.5093 199.164 49.7062H199.187C199.285 49.4866 199.459 49.2972 199.671 49.1837C199.898 49.0852 200.141 49.0322 200.383 49.0398C200.921 49.0019 201.39 49.4033 201.428 49.9485C201.428 50.0167 201.428 50.0848 201.428 50.153V53.8713H200.444V50.5392C200.466 50.3423 200.421 50.1454 200.307 49.9788C200.201 49.8804 200.058 49.8273 199.914 49.8425C199.732 49.8273 199.558 49.8955 199.437 50.0242C199.323 50.1984 199.27 50.4029 199.293 50.6074V53.8713H198.316V50.6604C198.331 50.4483 198.293 50.2287 198.21 50.0318C198.111 49.8955 197.952 49.8198 197.786 49.8349C197.596 49.8122 197.415 49.8955 197.301 50.0545C197.187 50.3196 197.134 50.5998 197.157 50.8876V53.8713H196.173Z"/><path fill="#F26922" d="M202.322 49.1231H203.299V52.4097C203.291 52.5915 203.337 52.7808 203.428 52.9398C203.693 53.2049 204.124 53.2049 204.397 52.9398C204.473 52.7884 204.51 52.6142 204.503 52.44V49.1231H205.48V52.4249C205.495 52.7959 205.396 53.167 205.192 53.4851C204.919 53.8031 204.51 53.9773 204.094 53.9546C203.609 54 203.132 53.8637 202.738 53.5835C202.435 53.2503 202.284 52.8035 202.322 52.3567V49.1231Z"/><path fill="#F26922" d="M208.153 53.273C208.077 53.4775 207.948 53.6517 207.774 53.7728C207.608 53.8864 207.418 53.947 207.214 53.947C206.972 53.947 206.729 53.8561 206.547 53.6971C206.343 53.5229 206.192 53.2882 206.123 53.0307C206.002 52.5233 205.942 52.0084 205.942 51.4934C205.942 50.9406 206.01 50.3878 206.169 49.8577C206.245 49.6153 206.396 49.4033 206.593 49.2443C206.76 49.1155 206.972 49.0474 207.184 49.0474C207.411 49.0474 207.623 49.1155 207.812 49.2367C207.979 49.3276 208.1 49.479 208.161 49.6608H208.183L208.206 49.1307H209.183V53.8864H208.183V53.2882H208.161V53.273H208.153ZM207.062 50.2969C206.979 50.7134 206.941 51.1375 206.934 51.5616C206.934 51.9402 206.979 52.3113 207.062 52.6823C207.115 52.9474 207.327 53.1443 207.593 53.1822C207.744 53.167 207.888 53.0913 207.979 52.9701C208.1 52.8187 208.168 52.6369 208.176 52.4552C208.206 51.8796 208.221 51.554 208.221 51.4631C208.221 51.1299 208.191 50.7891 208.138 50.4559C208.123 50.2893 208.054 50.1379 207.941 50.0167C207.85 49.9182 207.729 49.8652 207.593 49.8652C207.335 49.8652 207.115 50.0546 207.062 50.3045V50.2969Z"/></svg>