<svg xmlns="http://www.w3.org/2000/svg" width="166" height="40" fill="none" viewBox="0 0 166 40"><g clip-path="url(#clip0_12_767)"><path fill="url(#paint0_linear_12_767)" d="M22.0344 10.3385L12.6998 0.997108C11.3821 -0.317161 9.20935 -0.347491 7.92182 0.997108C6.67453 2.30127 6.69465 4.37377 7.97212 5.6476L17.3469 15.0295C17.9706 15.6563 18.8155 16 19.6906 16C20.5658 16 21.4107 15.6462 22.0344 15.0295C23.3219 13.7354 23.3219 11.6326 22.0344 10.3385Z"/><path fill="url(#paint1_linear_12_767)" d="M31.0474 33.3543L21.6651 23.9698C20.3665 22.6767 18.2726 22.6767 16.974 23.9698C15.6753 25.2628 15.6753 27.364 16.974 28.6671L26.3563 38.0517C27.6549 39.3245 29.7387 39.3144 31.0273 38.0315C32.3158 36.7384 32.3259 34.6575 31.0474 33.3644V33.3543Z"/><path fill="url(#paint2_linear_12_767)" d="M32.033 0.967254C31.4003 0.342569 30.5533 0 29.6552 0C28.7571 0 27.9101 0.352645 27.2773 0.967254L17.7557 10.3275C17.123 10.9521 16.2657 11.2947 15.3779 11.2947C14.49 11.2947 13.6327 10.9421 13 10.3275L15.3676 12.665L17.7659 15.0327C18.3884 15.6474 19.2355 16 20.1234 16C21.0112 16 21.8583 15.6574 22.4808 15.0327L32.0126 5.65239C33.3291 4.36272 33.3291 2.267 32.0126 0.97733L32.033 0.967254Z"/><path fill="url(#paint3_linear_12_767)" d="M33.3433 7.97899L23.9702 17.3504C23.1355 18.1877 22.8036 19.4083 23.1153 20.5482C23.4171 21.6881 24.3121 22.5859 25.4586 22.8886C26.6051 23.1912 27.822 22.8684 28.6567 22.0311L38.0298 12.6496C38.8645 11.8123 39.1964 10.5917 38.8847 9.45179C38.5729 8.31188 37.6879 7.41408 36.5414 7.11145C35.3949 6.80882 34.178 7.13162 33.3433 7.9689V7.97899Z"/><path fill="url(#paint4_linear_12_767)" d="M28.6652 17.7637L38.0267 27.2604C38.8604 28.1089 39.1919 29.3458 38.8905 30.5009C38.5892 31.6663 37.6952 32.5659 36.5502 32.8828C35.4051 33.1997 34.1897 32.8623 33.3459 32.0138L23.9643 22.4967C22.6786 21.1984 22.6786 19.0824 23.9643 17.7841L26.3248 15.3818L28.6652 13C27.3694 14.3085 27.3694 16.4348 28.6652 17.7535V17.7637Z"/><path fill="url(#paint5_linear_12_767)" d="M5.66867 31.0267L15.0468 21.6342C16.3261 20.3314 16.316 18.2509 15.0266 16.9683C13.7373 15.6857 11.6521 15.6756 10.3527 16.9481L0.974579 26.3305C-0.32486 27.6232 -0.32486 29.7238 0.974579 31.0267C2.27402 32.3194 4.36924 32.3295 5.66867 31.0267Z"/><path fill="url(#paint6_linear_12_767)" d="M10.306 22.2314L0.923566 12.7046C-0.326085 11.3817 -0.30593 9.28967 0.973955 7.98729C2.25384 6.69516 4.31979 6.6644 5.61983 7.93601L15.0325 17.4834C15.6473 18.1089 16 18.9601 16 19.8523C16 20.7445 15.6473 21.5854 15.0325 22.2212L12.6642 24.6208L10.3262 27C10.951 26.3642 11.3037 25.513 11.3037 24.6208C11.3037 23.7287 10.951 22.8672 10.3262 22.2417L10.306 22.2314Z"/><path fill="url(#paint7_linear_12_767)" d="M27 28.6576L24.6246 26.3189L22.2287 23.9602C20.9238 22.6799 18.8134 22.6799 17.5085 23.9602L7.98636 33.3449C6.67121 34.6352 6.67121 36.742 7.98636 38.0323C9.30152 39.3226 11.4323 39.3226 12.7474 38.0323L22.2491 28.6677C23.5643 27.3774 25.6848 27.3774 27 28.6677V28.6576Z"/><path fill="#110649" d="M49 31.2248V9.08072C49 7.93482 49.9226 7 51.0634 7H60.0909C64.7733 7.0201 68.5926 10.7996 68.7017 15.5239C68.8109 20.399 64.8031 24.3695 59.9719 24.3695H56.3708C56.1823 24.3695 55.9938 24.2891 55.8549 24.1584C55.7161 24.0177 55.6367 23.8367 55.6367 23.6357V21.5248C55.6367 20.3789 56.5593 19.4441 57.7001 19.4441H60.081C62.2932 19.4441 64.1086 17.5343 63.8805 15.3128C63.6721 13.3427 62.0254 11.855 60.0711 11.845H53.8114V29.8075C53.8114 30.9534 52.8888 31.8882 51.7479 31.8882H49.6547C49.2976 31.8882 49.0099 31.5867 49.0099 31.2248H49ZM80.1299 32.3707C75.1797 32.3104 71.1917 28.2394 71.1917 23.2336C71.1917 18.2278 75.1698 14.1569 80.1299 14.0966H80.1795C81.8759 14.0966 83.5822 14.9409 84.4254 15.534V14.8605C84.4254 14.77 84.4552 14.6896 84.5246 14.6293C84.5842 14.569 84.6635 14.5288 84.7528 14.5288H88.5721C88.9293 14.5288 89.2169 14.8203 89.2169 15.1821V31.2348C89.2169 31.5967 88.9293 31.8882 88.5721 31.8882H84.7528C84.5742 31.8882 84.4254 31.7374 84.4254 31.5565V30.9333C83.354 31.5867 82.1438 32.3807 80.1399 32.3707H80.1299ZM80.1299 18.8511C77.7689 18.8913 75.8741 20.8413 75.8741 23.2336C75.8741 25.626 77.7689 27.576 80.1299 27.6162H80.1696C82.233 27.6162 83.9989 26.1386 84.4155 24.0981V22.3591C83.9989 20.3186 82.233 18.8611 80.1696 18.8511H80.1299ZM101.33 40C98.6809 40 96.1711 38.7737 94.5243 36.6729C94.4152 36.5221 94.3656 36.3412 94.4053 36.1602C94.435 35.9793 94.5442 35.8185 94.7029 35.728L96.5381 34.5921C97.5004 33.979 98.7206 33.9187 99.7424 34.4313C100.228 34.6927 100.774 34.8334 101.33 34.8233C103.254 34.8032 104.822 33.7377 104.901 31.8078C102.709 32.6622 100.258 32.4913 98.1948 31.3555C97.8873 31.1846 97.5897 30.9936 97.302 30.7825C95.933 29.7572 94.9112 28.3198 94.4053 26.6713C94.1672 25.8974 94.0481 25.0932 94.0481 24.279V16.5793C94.0481 16.0366 94.2664 15.5139 94.6434 15.1218C95.0302 14.7399 95.5461 14.5187 96.0818 14.5187H98.1551C98.5123 14.5187 98.79 14.8102 98.79 15.162V24.1785C98.79 25.5154 99.5539 26.7719 100.774 27.2945C101.736 27.6966 102.828 27.6162 103.711 27.0634C104.593 26.5105 105.169 25.5656 105.238 24.5203C105.238 24.4398 105.248 24.3594 105.248 24.279V16.5793C105.248 15.4435 106.161 14.5187 107.282 14.5187H109.355C109.524 14.5187 109.692 14.5891 109.812 14.7097C109.931 14.8303 110 14.9912 110 15.162V31.657C110 36.4919 106.101 39.9698 101.31 39.9698L101.33 40Z"/><path fill="url(#paint8_linear_12_767)" d="M151.923 27.1293H165.347C165.709 27.1293 166 27.4224 166 27.7862V29.9386C166 31.0804 165.076 32 163.94 32H147.653C147.291 32 147 31.707 147 31.3432V9.06144C147 7.91956 147.924 7 149.06 7H165.347C165.709 7 166 7.29305 166 7.65683V11.2138C166 11.3856 165.93 11.5574 165.809 11.6787C165.689 11.7999 165.518 11.8707 165.347 11.8707H151.923V27.1395V27.1293Z"/><path fill="url(#paint9_linear_12_767)" d="M155.918 17H164.364C164.53 17 164.697 17.0726 164.814 17.1971C164.931 17.3216 165 17.4979 165 17.6743V19.8838C165 20.444 164.785 20.9834 164.413 21.3776C164.041 21.7718 163.522 22 162.994 22H154.636C154.47 22 154.303 21.9274 154.186 21.8029C154.069 21.6784 154 21.5021 154 21.3257V19.0228C154 18.4834 154.206 17.9751 154.558 17.5913C154.92 17.2075 155.409 17 155.918 17Z"/><path fill="url(#paint10_linear_12_767)" d="M137.385 7C137.178 7 136.981 7.10064 136.853 7.2818L130.651 16.4002C130.503 16.6115 130.266 16.7323 130.01 16.7323C129.754 16.7323 129.517 16.6014 129.379 16.3901L123.384 7.29187C123.265 7.11071 123.068 7 122.851 7H118.74C118.335 7 118 7.33213 118 7.74477V31.2552C118 31.6679 118.325 32 118.74 32H120.8C121.313 32 121.806 31.7886 122.171 31.4263C122.536 31.0539 122.733 30.5608 122.733 30.0374V15.3736L128.679 23.7874C128.984 24.2202 129.477 24.4819 130 24.4819C130.523 24.4819 131.016 24.2202 131.321 23.7874L137.277 15.3736V31.2552C137.277 31.6679 137.602 32 138.007 32H140.067C141.132 32 142 31.1143 142 30.0374V7.74477C142 7.54348 141.921 7.35225 141.783 7.22142C141.645 7.08052 141.458 7 141.26 7H137.376H137.385Z"/></g><defs><linearGradient id="paint0_linear_12_767" x1="18.78" x2="8.058" y1="12.506" y2="1.943" gradientUnits="userSpaceOnUse"><stop stop-color="#00852B"/><stop offset="1" stop-color="#12CC24"/></linearGradient><linearGradient id="paint1_linear_12_767" x1="18.768" x2="30.769" y1="27.092" y2="38.929" gradientUnits="userSpaceOnUse"><stop stop-color="#00852B"/><stop offset="1" stop-color="#12CC24"/></linearGradient><linearGradient id="paint2_linear_12_767" x1="18.145" x2="29.27" y1="11.416" y2=".161" gradientUnits="userSpaceOnUse"><stop stop-color="#12CC24"/><stop offset="1" stop-color="#00852B"/></linearGradient><linearGradient id="paint3_linear_12_767" x1="38.011" x2="26.805" y1="6.684" y2="17.885" gradientUnits="userSpaceOnUse"><stop stop-color="#12CC24"/><stop offset="1" stop-color="#00852B"/></linearGradient><linearGradient id="paint4_linear_12_767" x1="35.82" x2="24.776" y1="33.589" y2="22.625" gradientUnits="userSpaceOnUse"><stop stop-color="#00852B"/><stop offset="1" stop-color="#12CC24"/></linearGradient><linearGradient id="paint5_linear_12_767" x1="12.681" x2="1.956" y1="18.497" y2="29.054" gradientUnits="userSpaceOnUse"><stop stop-color="#00852B"/><stop offset="1" stop-color="#12CC24"/></linearGradient><linearGradient id="paint6_linear_12_767" x1="4.222" x2="15.468" y1="9.464" y2="20.585" gradientUnits="userSpaceOnUse"><stop stop-color="#00852B"/><stop offset="1" stop-color="#12CC24"/></linearGradient><linearGradient id="paint7_linear_12_767" x1="8.875" x2="20.206" y1="35.404" y2="24.125" gradientUnits="userSpaceOnUse"><stop stop-color="#00852B"/><stop offset="1" stop-color="#12CC24"/></linearGradient><linearGradient id="paint8_linear_12_767" x1="157.418" x2="157.418" y1="30.367" y2="4.846" gradientUnits="userSpaceOnUse"><stop stop-color="#00852B"/><stop offset="1" stop-color="#12CC24"/></linearGradient><linearGradient id="paint9_linear_12_767" x1="160.261" x2="160.261" y1="30.555" y2="4.301" gradientUnits="userSpaceOnUse"><stop stop-color="#00852B"/><stop offset="1" stop-color="#12CC24"/></linearGradient><linearGradient id="paint10_linear_12_767" x1="130.878" x2="130.878" y1="31.091" y2="5.58" gradientUnits="userSpaceOnUse"><stop stop-color="#00852B"/><stop offset="1" stop-color="#12CC24"/></linearGradient><clipPath id="clip0_12_767"><rect width="166" height="40" fill="#fff"/></clipPath></defs></svg>