<svg width="240" height="80" viewBox="0 0 240 80" fill="none" xmlns="http://www.w3.org/2000/svg">
<path d="M58.9133 30.2551L49.6286 21.0105C48.318 19.7099 46.1569 19.6799 44.8762 21.0105C43.6356 22.3012 43.6556 24.3522 44.9263 25.6128L54.2509 34.8975C54.8712 35.5178 55.7117 35.8579 56.5821 35.8579C57.4525 35.8579 58.293 35.5078 58.9133 34.8975C60.1939 33.6168 60.1939 31.5358 58.9133 30.2551Z" fill="url(#paint0_linear_13_14862)"/>
<path d="M68.2378 53.5067L58.9132 44.2121C57.6225 42.9314 55.5415 42.9314 54.2508 44.2121C52.9602 45.4927 52.9602 47.5737 54.2508 48.8644L63.5755 58.159C64.8661 59.4197 66.9372 59.4097 68.2178 58.139C69.4984 56.8584 69.5084 54.7974 68.2378 53.5167V53.5067Z" fill="url(#paint1_linear_13_14862)"/>
<path d="M68.2379 20.9605C67.6176 20.3402 66.7872 20 65.9068 20C65.0263 20 64.1959 20.3502 63.5756 20.9605L54.2409 30.2551C53.6206 30.8754 52.7802 31.2156 51.9098 31.2156C51.0393 31.2156 50.1989 30.8654 49.5786 30.2551L51.8998 32.5763L54.251 34.9275C54.8613 35.5378 55.6917 35.8879 56.5621 35.8879C57.4325 35.8879 58.263 35.5478 58.8733 34.9275L68.2179 25.6128C69.5086 24.3322 69.5086 22.2511 68.2179 20.9705L68.2379 20.9605Z" fill="url(#paint2_linear_13_14862)"/>
<path d="M70.5691 27.934L61.2445 37.2286C60.4141 38.059 60.0839 39.2696 60.394 40.4002C60.6942 41.5308 61.5846 42.4212 62.7252 42.7214C63.8658 43.0215 65.0764 42.7014 65.9068 41.8709L75.2315 32.5663C76.0619 31.7359 76.392 30.5253 76.0819 29.3947C75.7717 28.2641 74.8913 27.3737 73.7507 27.0735C72.6102 26.7734 71.3995 27.0936 70.5691 27.924V27.934Z" fill="url(#paint3_linear_13_14862)"/>
<path d="M65.9066 37.2286L75.2313 46.5233C76.0617 47.3537 76.3919 48.5643 76.0917 49.6948C75.7916 50.8354 74.9011 51.7159 73.7605 52.026C72.62 52.3362 71.4094 52.006 70.5689 51.1756L61.2243 41.8609C59.9436 40.5903 59.9436 38.5193 61.2243 37.2486L63.5754 34.8974L65.9066 32.5663C64.616 33.8469 64.616 35.928 65.9066 37.2186V37.2286Z" fill="url(#paint4_linear_13_14862)"/>
<path d="M42.5949 51.1856L51.9096 41.881C53.1802 40.5903 53.1702 38.5293 51.8896 37.2586C50.6089 35.988 48.5379 35.978 47.2472 37.2386L37.9326 46.5333C36.6419 47.8139 36.6419 49.895 37.9326 51.1856C39.2232 52.4662 41.3043 52.4762 42.5949 51.1856Z" fill="url(#paint5_linear_13_14862)"/>
<path d="M47.2472 41.881L37.9325 32.5863C36.6919 31.2957 36.7119 29.2547 37.9825 27.984C39.2532 26.7234 41.3042 26.6934 42.5948 27.934L51.9395 37.2487C52.5498 37.859 52.9 38.6894 52.9 39.5598C52.9 40.4303 52.5498 41.2507 51.9395 41.871L49.5883 44.2121L47.2672 46.5333C47.8875 45.913 48.2377 45.0826 48.2377 44.2121C48.2377 43.3417 47.8875 42.5013 47.2672 41.891L47.2472 41.881Z" fill="url(#paint6_linear_13_14862)"/>
<path d="M63.5754 48.8544L61.2443 46.5333L58.8931 44.1921C57.6125 42.9215 55.5414 42.9215 54.2608 44.1921L44.9161 53.5068C43.6255 54.7874 43.6255 56.8785 44.9161 58.1591C46.2067 59.4397 48.2978 59.4397 49.5884 58.1591L58.9131 48.8644C60.2037 47.5838 62.2848 47.5838 63.5754 48.8644V48.8544Z" fill="url(#paint7_linear_13_14862)"/>
<path d="M85.9967 51.2656V29.2246C85.9967 28.084 86.9272 27.1536 88.0777 27.1536H97.1823C101.905 27.1736 105.757 30.9355 105.867 35.6378C105.977 40.4902 101.935 44.4422 97.0622 44.4422H93.4304C93.2403 44.4422 93.0502 44.3622 92.9102 44.2321C92.7701 44.092 92.6901 43.9119 92.6901 43.7118V41.6108C92.6901 40.4702 93.6205 39.5398 94.7711 39.5398H97.1723C99.4034 39.5398 101.234 37.6388 101.004 35.4277C100.794 33.4667 99.1333 31.986 97.1623 31.976H90.8491V49.8549C90.8491 50.9955 89.9187 51.9259 88.7681 51.9259H86.657C86.2969 51.9259 86.0067 51.6258 86.0067 51.2656H85.9967ZM117.392 52.4062C112.4 52.3462 108.378 48.2941 108.378 43.3116C108.378 38.3292 112.39 34.2771 117.392 34.2171H117.442C119.153 34.2171 120.874 35.0575 121.725 35.6478V34.9775C121.725 34.8874 121.755 34.8074 121.825 34.7474C121.885 34.6873 121.965 34.6473 122.055 34.6473H125.907C126.267 34.6473 126.557 34.9375 126.557 35.2976V51.2756C126.557 51.6358 126.267 51.9259 125.907 51.9259H122.055C121.875 51.9259 121.725 51.7759 121.725 51.5958V50.9755C120.644 51.6258 119.423 52.4162 117.402 52.4062H117.392ZM117.392 38.9495C115.011 38.9895 113.1 40.9305 113.1 43.3116C113.1 45.6928 115.011 47.6338 117.392 47.6738H117.432C119.513 47.6738 121.294 46.2031 121.715 44.1721V42.4412C121.294 40.4102 119.513 38.9595 117.432 38.9495H117.392ZM138.773 60C136.102 60 133.57 58.7794 131.91 56.6883C131.8 56.5383 131.75 56.3582 131.79 56.1781C131.82 55.998 131.93 55.8379 132.09 55.7479L133.941 54.6173C134.911 54.007 136.142 53.947 137.172 54.4572C137.663 54.7173 138.213 54.8574 138.773 54.8474C140.714 54.8274 142.295 53.7669 142.375 51.8459C140.164 52.6963 137.693 52.5262 135.612 51.3957C135.301 51.2256 135.001 51.0355 134.711 50.8254C133.33 49.8049 132.3 48.3742 131.79 46.7334C131.549 45.963 131.429 45.1626 131.429 44.3522V36.6883C131.429 36.1481 131.65 35.6278 132.03 35.2376C132.42 34.8574 132.94 34.6373 133.48 34.6373H135.571C135.932 34.6373 136.212 34.9275 136.212 35.2776V44.2521C136.212 45.5828 136.982 46.8334 138.213 47.3537C139.183 47.7539 140.284 47.6738 141.174 47.1236C142.065 46.5733 142.645 45.6328 142.715 44.5923C142.715 44.5122 142.725 44.4322 142.725 44.3522V36.6883C142.725 35.5578 143.646 34.6373 144.776 34.6373H146.867C147.037 34.6373 147.207 34.7073 147.327 34.8274C147.447 34.9475 147.517 35.1075 147.517 35.2776V51.6958C147.517 56.5082 143.585 59.97 138.753 59.97L138.773 60Z" fill="#110649"/>
<path d="M189.018 47.0935H202.385C202.745 47.0935 203.035 47.3837 203.035 47.7439V49.8749C203.035 51.0055 202.115 51.916 200.984 51.916H184.766C184.406 51.916 184.116 51.6258 184.116 51.2656V29.2046C184.116 28.074 185.036 27.1636 186.167 27.1636H202.385C202.745 27.1636 203.035 27.4537 203.035 27.8139V31.3357C203.035 31.5057 202.965 31.6758 202.845 31.7959C202.725 31.916 202.555 31.986 202.385 31.986H189.018V47.1035V47.0935Z" fill="url(#paint8_linear_13_14862)"/>
<path d="M192.83 37.0986H201.464C201.635 37.0986 201.805 37.1686 201.925 37.2887C202.045 37.4087 202.115 37.5788 202.115 37.7489V39.88C202.115 40.4202 201.895 40.9405 201.514 41.3207C201.134 41.7009 200.604 41.921 200.064 41.921H191.519C191.349 41.921 191.179 41.8509 191.059 41.7309C190.939 41.6108 190.869 41.4407 190.869 41.2707V39.0495C190.869 38.5293 191.079 38.039 191.439 37.6689C191.81 37.2987 192.31 37.0986 192.83 37.0986Z" fill="url(#paint9_linear_13_14862)"/>
<path d="M174.531 27.0635C174.321 27.0635 174.121 27.1636 173.991 27.3437L167.698 36.4082C167.548 36.6183 167.307 36.7384 167.047 36.7384C166.787 36.7384 166.547 36.6083 166.407 36.3982L160.324 27.3537C160.204 27.1736 160.004 27.0635 159.784 27.0635H155.612C155.201 27.0635 154.861 27.3937 154.861 27.8039V51.1756C154.861 51.5858 155.191 51.916 155.612 51.916H157.703C158.223 51.916 158.723 51.7059 159.093 51.3457C159.464 50.9755 159.664 50.4852 159.664 49.965V35.3877L165.697 43.7519C166.007 44.1821 166.507 44.4422 167.037 44.4422C167.568 44.4422 168.068 44.1821 168.378 43.7519L174.421 35.3877V51.1756C174.421 51.5858 174.751 51.916 175.161 51.916H177.252C178.333 51.916 179.213 51.0355 179.213 49.965V27.8039C179.213 27.6038 179.133 27.4137 178.993 27.2836C178.853 27.1436 178.663 27.0635 178.463 27.0635H174.521H174.531Z" fill="url(#paint10_linear_13_14862)"/>
<defs>
<linearGradient id="paint0_linear_13_14862" x1="55.6768" y1="32.3997" x2="45.0648" y2="21.8932" gradientUnits="userSpaceOnUse">
<stop stop-color="#00852B"/>
<stop offset="1" stop-color="#12CC24"/>
</linearGradient>
<linearGradient id="paint1_linear_13_14862" x1="56.0341" y1="47.3044" x2="67.9205" y2="59.0693" gradientUnits="userSpaceOnUse">
<stop stop-color="#00852B"/>
<stop offset="1" stop-color="#12CC24"/>
</linearGradient>
<linearGradient id="paint2_linear_13_14862" x1="54.6227" y1="31.3365" x2="65.6706" y2="20.3018" gradientUnits="userSpaceOnUse">
<stop stop-color="#12CC24"/>
<stop offset="1" stop-color="#00852B"/>
</linearGradient>
<linearGradient id="paint3_linear_13_14862" x1="75.2132" y1="26.6497" x2="64.0986" y2="37.7923" gradientUnits="userSpaceOnUse">
<stop stop-color="#12CC24"/>
<stop offset="1" stop-color="#00852B"/>
</linearGradient>
<linearGradient id="paint4_linear_13_14862" x1="73.0334" y1="52.7169" x2="62.225" y2="41.7965" gradientUnits="userSpaceOnUse">
<stop stop-color="#00852B"/>
<stop offset="1" stop-color="#12CC24"/>
</linearGradient>
<linearGradient id="paint5_linear_13_14862" x1="49.5596" y1="38.7729" x2="38.9345" y2="49.2592" gradientUnits="userSpaceOnUse">
<stop stop-color="#00852B"/>
<stop offset="1" stop-color="#12CC24"/>
</linearGradient>
<linearGradient id="paint6_linear_13_14862" x1="41.2069" y1="29.4248" x2="52.1794" y2="40.4655" gradientUnits="userSpaceOnUse">
<stop stop-color="#00852B"/>
<stop offset="1" stop-color="#12CC24"/>
</linearGradient>
<linearGradient id="paint7_linear_13_14862" x1="45.7883" y1="55.551" x2="57.0327" y2="44.4828" gradientUnits="userSpaceOnUse">
<stop stop-color="#00852B"/>
<stop offset="1" stop-color="#12CC24"/>
</linearGradient>
<linearGradient id="paint8_linear_13_14862" x1="194.489" y1="50.2991" x2="194.489" y2="25.0313" gradientUnits="userSpaceOnUse">
<stop stop-color="#00852B"/>
<stop offset="1" stop-color="#12CC24"/>
</linearGradient>
<linearGradient id="paint9_linear_13_14862" x1="197.27" y1="50.1725" x2="197.27" y2="24.8506" gradientUnits="userSpaceOnUse">
<stop stop-color="#00852B"/>
<stop offset="1" stop-color="#12CC24"/>
</linearGradient>
<linearGradient id="paint10_linear_13_14862" x1="167.929" y1="51.012" x2="167.929" y2="25.6523" gradientUnits="userSpaceOnUse">
<stop stop-color="#00852B"/>
<stop offset="1" stop-color="#12CC24"/>
</linearGradient>
</defs>
</svg>
