<svg width="40" height="40" viewBox="0 0 40 40" fill="none" xmlns="http://www.w3.org/2000/svg">
<path d="M21.4972 7.27847L16.7254 2.52008C16.0525 1.84988 14.94 1.83648 14.2805 2.52008C13.6398 3.18491 13.6505 4.23578 14.3047 4.88721L19.1006 9.66437C19.4196 9.9807 19.8512 10.1603 20.2989 10.1603C20.7466 10.1603 21.1809 9.9807 21.4972 9.66437C22.1567 9.0049 22.1567 7.93526 21.4972 7.27579V7.27847Z" fill="url(#paint0_linear_12_753)"/>
<path d="M26.2985 19.2348L21.5025 14.4522C20.8404 13.7928 19.7654 13.7928 19.1032 14.4522C18.4411 15.1117 18.4411 16.184 19.1032 16.8435L23.8992 21.626C24.564 22.2748 25.6283 22.2694 26.2851 21.6153C26.9419 20.9585 26.9472 19.8969 26.2958 19.2348H26.2985Z" fill="url(#paint1_linear_12_753)"/>
<path d="M26.2985 2.49595C25.9822 2.17961 25.5506 2 25.1002 2C24.6498 2 24.2209 2.17693 23.9019 2.49595L19.1006 7.27578C18.7843 7.59212 18.35 7.77173 17.9023 7.77173C17.4546 7.77173 17.0203 7.5948 16.704 7.27578L17.8996 8.47142L19.1113 9.67777C19.4277 9.99142 19.8539 10.171 20.3016 10.171C20.7493 10.171 21.1755 9.9941 21.4919 9.67777L26.3012 4.88452C26.9633 4.22505 26.9633 3.15542 26.3012 2.49326L26.2985 2.49595Z" fill="url(#paint2_linear_12_753)"/>
<path d="M27.4941 6.08011L22.6982 10.8626C22.2692 11.2889 22.103 11.9135 22.2585 12.4952C22.414 13.0796 22.8724 13.5354 23.4568 13.6909C24.0412 13.8463 24.6659 13.6801 25.0948 13.2539L29.8907 8.47137C30.3196 8.04513 30.4858 7.4205 30.3304 6.83877C30.1722 6.25436 29.7165 5.79863 29.1321 5.64314C28.5476 5.48766 27.923 5.65387 27.4941 6.08011Z" fill="url(#paint3_linear_12_753)"/>
<path d="M25.0948 10.8627L29.8908 15.6452C30.3197 16.0715 30.4886 16.6961 30.3304 17.2805C30.1749 17.8649 29.7165 18.3206 29.1321 18.4788C28.5477 18.637 27.9204 18.4708 27.4914 18.0418L22.6875 13.2513C22.0307 12.5945 22.0307 11.5329 22.6875 10.8761L23.8992 9.66975L25.0948 8.47144C24.4327 9.13091 24.4327 10.2032 25.0948 10.8627Z" fill="url(#paint4_linear_12_753)"/>
<path d="M13.1037 18.0418L17.8969 13.2566C18.5483 12.5945 18.543 11.5329 17.8862 10.8761C17.2294 10.2193 16.1624 10.2139 15.5003 10.8654L10.707 15.6479C10.0449 16.3074 10.0422 17.3797 10.707 18.0391C11.3692 18.7013 12.4442 18.7013 13.1063 18.0391L13.1037 18.0418Z" fill="url(#paint5_linear_12_753)"/>
<path d="M15.5003 13.2567L10.7044 8.47416C10.0636 7.80933 10.0744 6.75846 10.7285 6.10703C11.3799 5.4556 12.4361 5.44487 13.1037 6.0829L17.9076 10.8735C18.224 11.1871 18.4009 11.616 18.4009 12.0611C18.4009 12.5061 18.224 12.9323 17.9076 13.2486L16.6959 14.455L15.5003 15.6479C15.8193 15.3316 15.9962 14.9 15.9962 14.4523C15.9962 14.0046 15.8166 13.573 15.5003 13.2567Z" fill="url(#paint6_linear_12_753)"/>
<path d="M23.8965 16.8435L22.6982 15.6479L21.4865 14.4415C20.827 13.7874 19.7627 13.7874 19.1059 14.4415L14.2993 19.2321C13.6371 19.8942 13.6371 20.9665 14.2993 21.626C14.9641 22.2882 16.0364 22.2855 16.7013 21.626L21.4972 16.8435C22.1594 16.184 23.2343 16.184 23.8965 16.8435Z" fill="url(#paint7_linear_12_753)"/>
<path d="M0 35.5659V28.0329C0 27.6415 0.316333 27.3252 0.710408 27.3252H3.82012C5.43395 27.3306 6.75022 28.6173 6.78775 30.2258C6.82528 31.8852 5.44199 33.2336 3.77723 33.2336H2.53602C2.469 33.2336 2.40466 33.2068 2.35909 33.1613C2.31352 33.1157 2.28671 33.0514 2.28671 32.9843V32.2659C2.28671 31.8745 2.60572 31.5582 2.99712 31.5582H3.81744C4.58146 31.5582 5.20609 30.9094 5.12566 30.1534C5.05328 29.4832 4.48763 28.9766 3.81208 28.9739H1.65404V35.0834C1.65404 35.4748 1.33771 35.7911 0.943636 35.7911H0.222505C0.0991891 35.7911 0 35.6892 0 35.5659ZM10.7285 35.9546C9.02084 35.9332 7.64828 34.5472 7.64828 32.8449C7.64828 31.1426 9.02084 29.7567 10.7285 29.7352H10.7446C11.3317 29.7352 11.9161 30.0221 12.2056 30.2231V29.9953C12.2056 29.9658 12.2163 29.9363 12.2378 29.9175C12.2592 29.8961 12.286 29.8853 12.3155 29.8853H13.6318C13.7551 29.8853 13.8543 29.9845 13.8543 30.1078V35.5686C13.8543 35.6919 13.7551 35.7911 13.6318 35.7911H12.3128C12.2512 35.7911 12.2003 35.7402 12.2003 35.6812V35.4667C11.833 35.6892 11.4148 35.96 10.7231 35.9573L10.7285 35.9546ZM10.7285 31.3571C9.91354 31.3705 9.25943 32.0353 9.25943 32.8476C9.25943 33.6599 9.91354 34.3247 10.7285 34.3381H10.7419C11.4523 34.3381 12.0635 33.8368 12.2029 33.1425V32.55C12.0609 31.8584 11.4496 31.3598 10.7419 31.3571H10.7285ZM18.0363 38.5496C17.1222 38.5496 16.259 38.1314 15.6933 37.4184C15.6558 37.3701 15.6397 37.3058 15.6504 37.2441C15.6611 37.1824 15.6987 37.1288 15.7523 37.0967L16.385 36.7106C16.7174 36.5015 17.1356 36.4801 17.4894 36.6543C17.6583 36.7428 17.846 36.791 18.0363 36.7884C18.6985 36.783 19.24 36.4184 19.2668 35.7616C18.5108 36.0512 17.6664 35.9949 16.956 35.6061C16.8487 35.5472 16.7469 35.4828 16.6477 35.4104C16.1759 35.0619 15.8247 34.574 15.6477 34.0138C15.5646 33.751 15.5244 33.4749 15.5244 33.1988V30.5824C15.5244 30.3974 15.5995 30.2178 15.7308 30.0864C15.8622 29.955 16.0418 29.88 16.2268 29.8827H16.9426C17.0632 29.8827 17.1624 29.9819 17.1624 30.1025V33.1693C17.1624 33.625 17.4251 34.0513 17.846 34.2282C18.1757 34.3649 18.5537 34.3354 18.8593 34.1505C19.1649 33.9628 19.3606 33.6411 19.3874 33.2846C19.3874 33.2578 19.3901 33.231 19.3901 33.2042V30.5877C19.3901 30.2017 19.7038 29.888 20.0925 29.888H20.8083C20.8672 29.888 20.9235 29.9122 20.9637 29.9524C21.004 29.9926 21.0281 30.0489 21.0281 30.1078V35.7214C21.0281 37.3674 19.685 38.5496 18.0336 38.5496H18.0363Z" fill="#110649"/>
<path d="M35.2094 34.1398H39.7775C39.9008 34.1398 40 34.2389 40 34.3623V35.0914C40 35.4775 39.6863 35.7911 39.3003 35.7911H33.7564C33.6331 35.7911 33.5339 35.6919 33.5339 35.5686V28.0249C33.5339 27.6388 33.8476 27.3252 34.2336 27.3252H39.7748C39.8981 27.3252 39.9973 27.4244 39.9973 27.5477V28.7514C39.9973 28.8104 39.9732 28.8666 39.933 28.9095C39.8901 28.9524 39.8338 28.9739 39.7748 28.9739H35.2067V34.1398H35.2094Z" fill="url(#paint8_linear_12_753)"/>
<path d="M36.5123 30.7245H39.4612C39.5201 30.7245 39.5764 30.7486 39.6193 30.7888C39.6622 30.8317 39.6837 30.888 39.6837 30.947V31.6762C39.6837 31.8611 39.6086 32.0381 39.4772 32.1694C39.3459 32.3008 39.1663 32.3732 38.9813 32.3732H36.0619C36.0029 32.3732 35.9466 32.349 35.9038 32.3088C35.8609 32.2659 35.8394 32.2096 35.8394 32.1507V31.392C35.8394 31.2151 35.9091 31.0462 36.0351 30.9202C36.1611 30.7942 36.3327 30.7245 36.5096 30.7245H36.5123Z" fill="url(#paint9_linear_12_753)"/>
<path d="M30.258 27.2958C30.1856 27.2958 30.1159 27.3306 30.0757 27.3896L27.9231 30.4886C27.8721 30.561 27.789 30.6039 27.7006 30.6012C27.6121 30.6012 27.529 30.5556 27.4807 30.4832L25.4031 27.3923C25.3629 27.3306 25.2932 27.2931 25.2181 27.2931H23.792C23.6526 27.2931 23.5373 27.4057 23.5373 27.5478V35.5365C23.5373 35.6759 23.6526 35.7912 23.792 35.7912H24.5077C24.6847 35.7912 24.8562 35.7215 24.9822 35.5955C25.1082 35.4695 25.1779 35.3006 25.1779 35.1237V30.1428L27.2421 33.0032C27.3467 33.1506 27.5183 33.2418 27.7006 33.2418C27.8828 33.2418 28.0544 33.1533 28.159 33.0032L30.2232 30.1428V35.5392C30.2232 35.6786 30.3358 35.7939 30.4778 35.7939H31.1936C31.5636 35.7939 31.8638 35.4936 31.8638 35.1263V27.5504C31.8638 27.4834 31.837 27.4191 31.7887 27.3708C31.7405 27.3226 31.6762 27.2958 31.6091 27.2958H30.2607H30.258Z" fill="url(#paint10_linear_12_753)"/>
<defs>
<linearGradient id="paint0_linear_12_753" x1="19.7767" y1="8.3262" x2="14.3449" y2="2.8669" gradientUnits="userSpaceOnUse">
<stop stop-color="#00852B"/>
<stop offset="1" stop-color="#12CC24"/>
</linearGradient>
<linearGradient id="paint1_linear_12_753" x1="20.0474" y1="15.8565" x2="26.12" y2="21.8631" gradientUnits="userSpaceOnUse">
<stop stop-color="#00852B"/>
<stop offset="1" stop-color="#12CC24"/>
</linearGradient>
<linearGradient id="paint2_linear_12_753" x1="19.2729" y1="8.12527" x2="24.9531" y2="2.34247" gradientUnits="userSpaceOnUse">
<stop stop-color="#12CC24"/>
<stop offset="1" stop-color="#00852B"/>
</linearGradient>
<linearGradient id="paint3_linear_12_753" x1="29.9043" y1="5.75632" x2="24.1607" y2="11.4717" gradientUnits="userSpaceOnUse">
<stop stop-color="#12CC24"/>
<stop offset="1" stop-color="#00852B"/>
</linearGradient>
<linearGradient id="paint4_linear_12_753" x1="28.8452" y1="18.3999" x2="23.2341" y2="12.8297" gradientUnits="userSpaceOnUse">
<stop stop-color="#00852B"/>
<stop offset="1" stop-color="#12CC24"/>
</linearGradient>
<linearGradient id="paint5_linear_12_753" x1="16.7079" y1="11.9164" x2="11.2692" y2="17.3654" gradientUnits="userSpaceOnUse">
<stop stop-color="#00852B"/>
<stop offset="1" stop-color="#12CC24"/>
</linearGradient>
<linearGradient id="paint6_linear_12_753" x1="12.3846" y1="6.60297" x2="18.0841" y2="12.2385" gradientUnits="userSpaceOnUse">
<stop stop-color="#00852B"/>
<stop offset="1" stop-color="#12CC24"/>
</linearGradient>
<linearGradient id="paint7_linear_12_753" x1="14.7997" y1="20.3182" x2="20.5434" y2="14.5688" gradientUnits="userSpaceOnUse">
<stop stop-color="#00852B"/>
<stop offset="1" stop-color="#12CC24"/>
</linearGradient>
<linearGradient id="paint8_linear_12_753" x1="37.2638" y1="35.2615" x2="37.2638" y2="26.6326" gradientUnits="userSpaceOnUse">
<stop stop-color="#00852B"/>
<stop offset="1" stop-color="#12CC24"/>
</linearGradient>
<linearGradient id="paint9_linear_12_753" x1="38.2163" y1="35.2502" x2="38.2163" y2="26.6008" gradientUnits="userSpaceOnUse">
<stop stop-color="#00852B"/>
<stop offset="1" stop-color="#12CC24"/>
</linearGradient>
<linearGradient id="paint10_linear_12_753" x1="28.1737" y1="35.5199" x2="28.1737" y2="26.8596" gradientUnits="userSpaceOnUse">
<stop stop-color="#00852B"/>
<stop offset="1" stop-color="#12CC24"/>
</linearGradient>
</defs>
</svg>
