<svg xmlns="http://www.w3.org/2000/svg" width="40" height="40" fill="none" viewBox="0 0 40 40"><path fill="#25A8E0" d="M25.2114 11.0134C25.4755 10.9787 25.757 11.0082 25.9928 11.1392C26.1311 11.2151 26.2514 11.347 26.2666 11.5103C26.2883 11.6808 26.1765 11.835 26.044 11.93C25.7908 12.1097 25.4655 12.164 25.1612 12.1326C24.9376 12.1064 24.6994 12.0287 24.5571 11.8444C24.4526 11.7125 24.4499 11.517 24.5461 11.3802C24.6945 11.1612 24.9586 11.0539 25.2114 11.0134Z"/><path fill="#25A8E0" d="M33.8295 12.2578C34.1024 12.196 34.3985 12.206 34.6575 12.3187C34.811 12.3931 34.9615 12.5186 34.9959 12.6943C35.0297 12.8652 34.9283 13.0297 34.7976 13.1306C34.5798 13.2975 34.2974 13.3606 34.0272 13.3572C33.7814 13.3514 33.5218 13.2853 33.3378 13.1147C33.2111 12.9996 33.1651 12.8016 33.2486 12.6484C33.364 12.433 33.5998 12.3133 33.8295 12.2578Z"/><path fill="#25A8E0" d="M25.6066 12.5989C25.9432 12.5569 26.2993 12.5938 26.603 12.7528C26.7855 12.8478 26.95 13.0102 26.985 13.2207C27.0219 13.3998 26.9402 13.5814 26.8159 13.7075C26.6216 13.907 26.3511 14.0145 26.0809 14.063C25.7263 14.1266 25.3461 14.1013 25.0205 13.9393C24.8441 13.8497 24.6778 13.7081 24.6202 13.5122C24.5672 13.3151 24.6528 13.1064 24.7932 12.9672C25.0083 12.7503 25.3096 12.6419 25.6066 12.5989Z"/><path fill="#25A8E0" d="M32.1855 13.5698C32.54 13.5168 32.9199 13.554 33.2376 13.7291C33.4107 13.8263 33.5688 13.9841 33.6007 14.1876C33.6318 14.3685 33.5447 14.5489 33.4161 14.6723C33.1712 14.9245 32.816 15.0363 32.4724 15.0585C32.1593 15.0762 31.8327 15.0262 31.5598 14.8645C31.3919 14.7646 31.2421 14.6037 31.2186 14.4024C31.1945 14.2199 31.2871 14.0432 31.4157 13.9198C31.6225 13.7191 31.9046 13.6146 32.1855 13.5698Z"/><path fill="#25A8E0" d="M17.3793 13.7843C17.6419 13.7264 17.9258 13.7346 18.1756 13.8403C18.3224 13.9049 18.461 14.0164 18.5122 14.1736C18.5585 14.3106 18.5131 14.4654 18.4175 14.5702C18.267 14.7386 18.0458 14.8251 17.8277 14.8629C17.556 14.9074 17.2654 14.8794 17.0202 14.749C16.8956 14.682 16.781 14.5744 16.7488 14.4322C16.721 14.3201 16.757 14.2001 16.8274 14.1108C16.9635 13.9387 17.1673 13.8315 17.3793 13.7843Z"/><path fill="#25A8E0" d="M19.6357 14.5802C19.9848 14.5154 20.3591 14.5355 20.6851 14.6844C20.8831 14.7795 21.0723 14.9412 21.1195 15.1654C21.1646 15.3659 21.0637 15.5693 20.9178 15.7025C20.6881 15.913 20.3799 16.0178 20.0746 16.0528C19.7478 16.0869 19.4045 16.0446 19.112 15.888C18.9308 15.7896 18.766 15.6236 18.7392 15.4109C18.7114 15.2148 18.8141 15.0244 18.9554 14.8952C19.144 14.7243 19.3892 14.6299 19.6357 14.5802Z"/><path fill="#25A8E0" d="M26.0026 14.5781C26.4644 14.4995 26.9636 14.5431 27.3746 14.7807C27.5921 14.9074 27.7895 15.1152 27.8138 15.3762C27.8416 15.6422 27.681 15.8874 27.4806 16.047C27.1379 16.3199 26.691 16.4253 26.2603 16.4357C25.8661 16.4381 25.4524 16.3513 25.1359 16.1043C24.9504 15.9617 24.8246 15.7339 24.8374 15.4966C24.8493 15.2815 24.9806 15.0923 25.1396 14.9558C25.3827 14.749 25.6909 14.632 26.0026 14.5781Z"/><path fill="#25A8E0" d="M30.0851 15.22C30.5344 15.1533 31.0173 15.2017 31.4142 15.4353C31.6268 15.5609 31.8154 15.765 31.844 16.0193C31.8763 16.2871 31.7176 16.5381 31.5147 16.6989C31.1678 16.971 30.7175 17.0827 30.2825 17.0864C29.9158 17.0846 29.5347 17.0093 29.23 16.7955C29.0424 16.6648 28.8858 16.4638 28.8715 16.2286C28.8544 16.0001 28.9781 15.7866 29.1414 15.6364C29.3997 15.3988 29.743 15.2748 30.0851 15.22Z"/><path fill="#25A8E0" d="M22.4711 15.5843C22.9031 15.5285 23.3633 15.573 23.7499 15.7856C23.9814 15.9142 24.1913 16.1338 24.2114 16.4098C24.2343 16.6736 24.0713 16.913 23.8721 17.0696C23.5324 17.3371 23.0919 17.4458 22.6658 17.4538C22.2892 17.4556 21.8984 17.3773 21.5837 17.1616C21.3952 17.0322 21.2401 16.8296 21.2273 16.5941C21.2115 16.3373 21.3629 16.1006 21.5569 15.945C21.8195 15.7409 22.1446 15.6309 22.4711 15.5843Z"/><path fill="#25A8E0" d="M38.7336 16.8899C39.0188 16.8305 39.3304 16.8412 39.5942 16.9746C39.7429 17.0495 39.8781 17.1836 39.8982 17.3557C39.9183 17.5232 39.8141 17.6773 39.6853 17.7736C39.4544 17.9457 39.1552 18.0021 38.8725 17.9878C38.6255 17.9719 38.3629 17.893 38.1969 17.699C38.0967 17.5899 38.0702 17.4233 38.139 17.2908C38.252 17.0657 38.4979 16.9441 38.7336 16.8899Z"/><path fill="#25A8E0" d="M35.872 17.076C36.2217 17.0032 36.5982 17.0221 36.926 17.171C37.11 17.2557 37.2839 17.3919 37.3595 17.5853C37.4262 17.7708 37.361 17.9804 37.2352 18.1248C37.0552 18.3359 36.7886 18.4526 36.5227 18.5117C36.1571 18.5885 35.7611 18.5653 35.4215 18.402C35.2302 18.3085 35.0486 18.151 35.0032 17.9341C34.9591 17.759 35.0316 17.5756 35.1516 17.4479C35.3401 17.2454 35.6061 17.1339 35.872 17.076Z"/><path fill="#25A8E0" d="M32.5998 17.303C33.0296 17.2643 33.4859 17.3277 33.8557 17.5622C34.0772 17.7014 34.2575 17.9387 34.2523 18.2102C34.2456 18.495 34.0418 18.7298 33.8158 18.8806C33.3842 19.1642 32.8407 19.2392 32.3366 19.1633C32.0185 19.1112 31.6947 18.9964 31.4657 18.7615C31.3182 18.6126 31.2314 18.3954 31.274 18.1858C31.3228 17.9357 31.5107 17.7395 31.7173 17.604C31.9808 17.4328 32.2887 17.3371 32.5998 17.303Z"/><path fill="#25A8E0" d="M32.4603 20.2734C32.9047 20.2191 33.3756 20.2825 33.7649 20.5134C33.9751 20.6392 34.1585 20.847 34.1783 21.1001C34.2015 21.359 34.0446 21.596 33.8496 21.7514C33.5145 22.0173 33.0802 22.1294 32.6586 22.1428C32.2924 22.1498 31.9128 22.0837 31.5979 21.8888C31.3968 21.7642 31.2241 21.5634 31.1985 21.321C31.1677 21.0617 31.3109 20.8135 31.504 20.6511C31.7749 20.4315 32.1176 20.3175 32.4603 20.2734Z"/><path fill="#25A8E0" d="M35.2028 21.674C35.59 21.6048 36.0085 21.6536 36.3479 21.8616C36.5099 21.9622 36.65 22.1239 36.6686 22.3204C36.6896 22.5199 36.5785 22.71 36.4304 22.8355C36.2339 22.9982 35.9872 23.0893 35.7383 23.1328C35.3658 23.1943 34.9661 23.1541 34.6331 22.9677C34.4702 22.876 34.3218 22.7301 34.284 22.5409C34.2481 22.3743 34.3145 22.2019 34.4251 22.0776C34.6222 21.851 34.9116 21.7261 35.2028 21.674Z"/><path fill="#25A8E0" d="M37.5675 22.8459C37.807 22.8051 38.0595 22.816 38.2883 22.9019C38.4494 22.9677 38.6057 23.0893 38.6535 23.2641C38.6919 23.3994 38.6392 23.5453 38.5466 23.6461C38.4013 23.8067 38.1908 23.8913 37.9827 23.9337C37.6924 23.9885 37.3762 23.9599 37.1194 23.8054C36.9933 23.7287 36.8806 23.6053 36.8675 23.4524C36.8544 23.3305 36.9123 23.2126 36.9961 23.127C37.1459 22.9689 37.3564 22.8839 37.5675 22.8459Z"/><path fill="#095793" d="M38.8871 11.6513C39.3362 11.5416 39.8309 11.8326 39.9576 12.2758C40.0992 12.701 39.8738 13.2034 39.4635 13.3819C39.0721 13.5698 38.5624 13.4263 38.3248 13.0635C38.0708 12.7068 38.1289 12.1728 38.4546 11.8798C38.5743 11.7662 38.7257 11.6866 38.8871 11.6513ZM38.9112 11.8505C38.6614 11.9105 38.4534 12.114 38.3888 12.3629C38.3233 12.5978 38.3918 12.8628 38.5606 13.0386C38.7425 13.2353 39.0392 13.3161 39.295 13.2329C39.6426 13.1321 39.8705 12.7419 39.7815 12.3894C39.7057 12.0095 39.2862 11.7457 38.9112 11.8505Z"/><path fill="#095793" d="M38.6974 12.1335C38.9097 12.1192 39.1281 12.0945 39.338 12.1448C39.4373 12.1664 39.5397 12.2508 39.5214 12.3632C39.508 12.4582 39.4139 12.5049 39.3344 12.5371C39.4839 12.6029 39.5001 12.7805 39.5677 12.9103C39.4775 12.9112 39.3877 12.9121 39.2978 12.9137C39.2561 12.8299 39.2314 12.7382 39.1857 12.6566C39.1309 12.5889 39.0337 12.609 38.9581 12.6011C38.9603 12.7056 38.9612 12.8104 38.9612 12.9152C38.8747 12.9152 38.7885 12.9155 38.7026 12.9158C38.6998 12.655 38.698 12.3943 38.6974 12.1335ZM38.9563 12.2545C38.9572 12.3279 38.9581 12.4013 38.9594 12.475C39.0465 12.4686 39.144 12.4826 39.2219 12.433C39.275 12.4013 39.2768 12.3178 39.2238 12.2849C39.1434 12.2362 39.045 12.2538 38.9563 12.2545Z"/><path fill="#095793" d="M0 14.4614C0.864213 14.4614 1.72843 14.4608 2.59264 14.4617C3.07242 14.4688 3.56682 14.5763 3.96283 14.8593C4.30888 15.1027 4.55197 15.47 4.6924 15.8651C4.88523 16.4001 4.91995 16.9758 4.91203 17.5396C4.90503 18.028 4.94219 18.5221 4.83923 19.0034C4.70915 19.6671 4.3497 20.2956 3.80321 20.7016C3.4206 20.9871 2.94326 21.129 2.46835 21.1357C2.09397 21.14 1.71959 21.1363 1.34521 21.1375C1.34521 22.5997 1.34521 24.0619 1.34552 25.5241C1.34034 25.6563 1.25565 25.7721 1.16823 25.8656C0.988194 26.0441 0.708856 26.0797 0.470337 26.0246C0.237605 25.967 0.0313761 25.7641 0 25.5238C0 21.8363 0 18.1489 0 14.4614ZM1.34521 15.6318V19.9596C1.69918 19.9596 2.05315 19.9599 2.40682 19.9599C2.64899 19.9608 2.90031 19.9002 3.09039 19.7439C3.30363 19.5724 3.42182 19.3116 3.4864 19.0515C3.60612 18.5668 3.56347 18.0639 3.5717 17.5698C3.5723 17.0717 3.57505 16.5435 3.33896 16.0903C3.20371 15.8225 2.92194 15.6403 2.62066 15.6345C2.19572 15.6278 1.77046 15.6333 1.34521 15.6318Z"/><path fill="#095793" d="M6.32731 18.3819C6.49668 18.1943 6.76901 18.1641 7.00753 18.1653C7.95795 18.1763 8.93274 18.519 9.59895 19.2138C10.0611 19.6915 10.323 20.3492 10.3285 21.0126C10.3291 22.5263 10.3303 24.04 10.3279 25.5536C10.2609 25.7991 10.0385 26.0057 9.78233 26.0389C9.65104 26.0572 9.51457 26.0492 9.38907 26.006C9.19411 25.9381 9.04576 25.769 8.97478 25.5786C8.96412 25.4638 8.97417 25.3483 8.97082 25.2335C8.64944 25.5737 8.24917 25.8522 7.79224 25.9725C7.36912 26.0824 6.90457 26.0834 6.49851 25.9085C6.07204 25.7233 5.7333 25.3547 5.57337 24.9191C5.3845 24.4216 5.39699 23.8782 5.43081 23.3558C5.47619 22.7977 5.59378 22.2198 5.92764 21.758C6.17347 21.4129 6.56095 21.1811 6.97676 21.1086C7.65851 20.9822 8.35792 21.1646 8.97112 21.4625C8.96625 21.1945 8.99367 20.9191 8.9105 20.6593C8.78622 20.2374 8.46149 19.9023 8.08711 19.6866C7.75934 19.4999 7.38739 19.3744 7.00753 19.3756C6.8016 19.3722 6.56126 19.3689 6.4126 19.2032C6.19297 19 6.1287 18.6195 6.32731 18.3819ZM7.28139 22.3234C7.07424 22.4346 6.95483 22.6539 6.88477 22.8702C6.75134 23.2924 6.75469 23.7411 6.76231 24.1792C6.76749 24.3811 6.85491 24.5983 7.04469 24.6925C7.28748 24.8122 7.57169 24.7966 7.83245 24.7598C8.24551 24.6973 8.6135 24.4421 8.8444 24.0975C8.89771 24.0095 8.9827 23.9257 8.97173 23.8148C8.97021 23.4423 8.97173 23.0697 8.97082 22.6972C8.64244 22.5254 8.30309 22.3648 7.93998 22.2826C7.724 22.2381 7.48304 22.2159 7.28139 22.3234Z"/><path fill="#095793" d="M20.5675 18.2165C21.0869 18.1663 21.637 18.2147 22.0997 18.4733C22.5734 18.7356 22.8991 19.2178 23.031 19.7366C23.2022 20.3909 23.2393 21.0708 23.2576 21.744C23.2692 22.5574 23.2558 23.3777 23.0986 24.1786C23.0035 24.6715 22.8171 25.1643 22.4616 25.5299C22.1299 25.8817 21.6614 26.0788 21.1868 26.1364C20.6604 26.2013 20.0944 26.1583 19.6335 25.8741C19.1906 25.6073 18.903 25.1455 18.744 24.6632C18.553 24.0753 18.4945 23.4545 18.4631 22.8404C18.4324 22.0636 18.4412 21.2822 18.5463 20.5109C18.6249 19.9839 18.7382 19.4347 19.0757 19.0061C19.4227 18.5342 19.9924 18.2677 20.5675 18.2165ZM20.6717 19.4225C20.4761 19.4521 20.2866 19.5392 20.1501 19.6842C19.9625 19.8798 19.8672 20.1451 19.8193 20.4074C19.7721 20.7391 19.7633 21.0748 19.7529 21.4096C19.742 21.9481 19.7334 22.4882 19.7779 23.0259C19.8178 23.4749 19.8812 23.9309 20.0633 24.3467C20.1736 24.5947 20.3524 24.8384 20.6211 24.9246C20.9406 25.0203 21.3165 24.9234 21.5365 24.6681C21.7287 24.4473 21.832 24.1624 21.888 23.8788C21.9441 23.4338 21.9419 22.9842 21.9499 22.5364C21.9499 21.9095 21.9584 21.2813 21.9115 20.6553C21.8841 20.3032 21.786 19.9349 21.542 19.6693C21.3245 19.4326 20.9775 19.3723 20.6717 19.4225Z"/><path fill="#095793" d="M26.8125 18.215C27.3097 18.1693 27.8315 18.2141 28.282 18.4438C28.7313 18.6704 29.0664 19.0914 29.2282 19.5639C29.3951 20.1116 29.4405 20.6867 29.4716 21.2557C29.5045 22.0886 29.5066 22.926 29.4042 23.7546C29.3284 24.3477 29.1727 24.9587 28.7871 25.4306C28.4733 25.8187 27.9993 26.0514 27.511 26.1239C26.9971 26.1998 26.4448 26.1787 25.976 25.9341C25.6016 25.7428 25.3156 25.4096 25.1356 25.0343C24.8635 24.4765 24.777 23.852 24.7256 23.24C24.6722 22.508 24.6725 21.7721 24.7249 21.0404C24.7673 20.5283 24.8355 20.0111 25.0198 19.5285C25.1941 19.0938 25.5048 18.7054 25.9194 18.4797C26.1935 18.3277 26.5021 18.2461 26.8125 18.215ZM26.9167 19.4228C26.6834 19.4554 26.4604 19.5748 26.3175 19.7646C26.1268 20.0159 26.0488 20.3343 26.0293 20.6444C25.9815 21.2841 25.9769 21.9265 25.9903 22.5674C26.0141 23.1313 26.0595 23.7061 26.2581 24.2395C26.3659 24.5195 26.5426 24.8092 26.839 24.9167C27.143 25.019 27.5061 24.9408 27.7334 24.7111C27.9716 24.4719 28.0727 24.1347 28.1297 23.8106C28.1946 23.3488 28.1952 22.8812 28.2025 22.4157C28.2013 21.808 28.211 21.1976 28.1419 20.5929C28.0883 20.248 27.996 19.8801 27.7364 19.6297C27.522 19.4216 27.2012 19.3768 26.9167 19.4228Z"/><path fill="#095793" d="M12 19.0006C12.07 18.6552 12.4584 18.4532 12.7917 18.5008C13.0531 18.5349 13.291 18.7441 13.3467 19.0012C13.3485 20.4439 13.3461 21.8866 13.3479 23.3293C13.3549 23.7095 13.375 24.1015 13.5237 24.457C13.6044 24.652 13.765 24.8393 13.9876 24.8613C14.2447 24.8869 14.4976 24.8061 14.7376 24.7224C14.9548 24.6407 15.1693 24.5493 15.3734 24.4381C15.3676 22.6263 15.3715 20.8141 15.3712 19.0019C15.4422 18.6196 15.9043 18.4112 16.2586 18.5245C16.4773 18.5909 16.6683 18.7789 16.7207 19.0016C16.7219 21.7745 16.7207 24.5478 16.721 27.3208C16.7192 27.5952 16.7332 27.8721 16.6848 28.1439C16.6263 28.5119 16.4712 28.8597 16.2562 29.1622C16.0423 29.476 15.6874 29.7252 15.2939 29.7002C15.0459 29.6249 14.8579 29.398 14.8241 29.1415C14.7827 28.9685 14.8616 28.7991 14.9551 28.6581C15.0432 28.5143 15.1757 28.3998 15.2402 28.2414C15.3475 27.9894 15.3661 27.711 15.3703 27.4405C15.3709 26.8419 15.3703 26.243 15.3706 25.6444C14.836 25.8964 14.2487 26.0977 13.6492 26.0374C13.2553 26.0036 12.8675 25.8318 12.6059 25.5305C12.2623 25.1415 12.1185 24.6218 12.049 24.118C11.9832 23.655 12.0021 23.1861 11.9994 22.7198C12 21.4803 11.9988 20.2405 12 19.0006Z"/></svg>