<svg width="86" height="40" viewBox="0 0 86 40" fill="none" xmlns="http://www.w3.org/2000/svg">
<g clip-path="url(#clip0_12_698)">
<path d="M54.64 0.0235122C55.2292 -0.0373593 55.8571 0.0144349 56.3831 0.244038C56.6916 0.376995 56.96 0.6082 56.994 0.894403C57.0422 1.19342 56.7928 1.46361 56.4972 1.6302C55.9325 1.94524 55.2068 2.04028 54.5279 1.98529C54.0291 1.93936 53.4977 1.8032 53.1804 1.48016C52.9473 1.24895 52.9412 0.90615 53.1559 0.666402C53.4868 0.282483 54.076 0.0945291 54.64 0.0235122Z" fill="#25A8E0"/>
<path d="M72.3877 3.06636C72.9955 2.95761 73.655 2.97529 74.2316 3.1735C74.5736 3.30422 74.9087 3.52494 74.9854 3.83405C75.0607 4.13459 74.8348 4.42388 74.5437 4.6012C74.0586 4.89478 73.4297 5.00567 72.828 4.99978C72.2805 4.9896 71.7025 4.87335 71.2927 4.57334C71.0105 4.37084 70.908 4.02262 71.0939 3.75315C71.351 3.3744 71.8761 3.16386 72.3877 3.06636Z" fill="#25A8E0"/>
<path d="M55.0971 3.03186C55.8014 2.94847 56.5466 3.02158 57.1821 3.33702C57.5639 3.52555 57.9081 3.84763 57.9814 4.26519C58.0585 4.62051 57.8877 4.98066 57.6276 5.23083C57.2209 5.62663 56.6549 5.83994 56.0895 5.93602C55.3476 6.06232 54.5521 6.01216 53.8707 5.69069C53.5017 5.51303 53.1536 5.23204 53.0332 4.84349C52.9222 4.45252 53.1014 4.03859 53.3952 3.76243C53.8452 3.33218 54.4756 3.11706 55.0971 3.03186Z" fill="#25A8E0"/>
<path d="M69.0288 5.04413C69.7699 4.93913 70.5638 5.01275 71.2279 5.35975C71.5895 5.55226 71.92 5.86486 71.9868 6.26798C72.0517 6.62645 71.8697 6.98371 71.601 7.22812C71.0891 7.7278 70.3467 7.94927 69.6285 7.99332C68.974 8.02833 68.2915 7.92936 67.7211 7.60891C67.3703 7.41097 67.057 7.09233 67.008 6.69344C66.9577 6.33195 67.1512 5.98194 67.4199 5.73753C67.8522 5.33984 68.4418 5.13284 69.0288 5.04413Z" fill="#25A8E0"/>
<path d="M37.4292 6.06299C38.0156 5.96092 38.6496 5.97542 39.2075 6.16184C39.5354 6.27573 39.8449 6.47235 39.9592 6.74956C40.0626 6.99131 39.9612 7.26423 39.7476 7.44903C39.4116 7.74612 38.9177 7.89869 38.4306 7.9653C37.8237 8.04374 37.1747 7.99431 36.6271 7.76438C36.3488 7.64619 36.0931 7.45655 36.0209 7.20567C35.959 7.00797 36.0393 6.7963 36.1965 6.63889C36.5006 6.33536 36.9557 6.14626 37.4292 6.06299Z" fill="#25A8E0"/>
<path d="M41.8805 8.06917C42.6091 7.94099 43.3905 7.98071 44.0707 8.27498C44.484 8.46274 44.8788 8.78229 44.9774 9.22521C45.0714 9.62118 44.861 10.0232 44.5565 10.2862C44.0771 10.702 43.4337 10.909 42.7967 10.9782C42.1145 11.0456 41.398 10.962 40.7877 10.6526C40.4094 10.4583 40.0654 10.1303 40.0095 9.71025C39.9516 9.32269 40.1659 8.94658 40.4609 8.69142C40.8544 8.35382 41.3662 8.16726 41.8805 8.06917Z" fill="#25A8E0"/>
<path d="M55.3474 8.07567C56.2771 7.90964 57.2822 8.00166 58.1094 8.50361C58.5473 8.77132 58.9447 9.21021 58.9937 9.76171C59.0495 10.3235 58.7263 10.8415 58.3228 11.1788C57.6329 11.7554 56.7333 11.978 55.8662 11.9999C55.0727 12.005 54.2399 11.8216 53.6028 11.2997C53.2293 10.9986 52.976 10.5172 53.0018 10.0159C53.0257 9.56157 53.29 9.16194 53.6101 8.87364C54.0995 8.43669 54.7201 8.18957 55.3474 8.07567Z" fill="#25A8E0"/>
<path d="M64.4481 9.05803C65.3533 8.91713 66.326 9.01943 67.1256 9.5129C67.554 9.77797 67.9339 10.209 67.9916 10.7463C68.0566 11.3118 67.7369 11.8419 67.3282 12.1816C66.6292 12.7562 65.7221 12.9923 64.8458 13C64.1069 12.9961 63.3392 12.8372 62.7255 12.3856C62.3474 12.1096 62.032 11.6849 62.0032 11.1883C61.9688 10.7057 62.218 10.2547 62.5469 9.93753C63.0673 9.43569 63.7589 9.17384 64.4481 9.05803Z" fill="#25A8E0"/>
<path d="M48.5004 10.0465C49.3679 9.92857 50.2924 10.0226 51.0688 10.4723C51.5338 10.7441 51.9553 11.2086 51.9957 11.7922C52.0416 12.3501 51.7143 12.8565 51.3141 13.1876C50.6319 13.7532 49.7472 13.9832 48.8913 13.9999C48.1351 14.0038 47.3501 13.8382 46.7181 13.3821C46.3394 13.1084 46.028 12.68 46.0023 12.182C45.9705 11.6389 46.2745 11.1384 46.6643 10.8092C47.1917 10.3776 47.8445 10.145 48.5004 10.0465Z" fill="#25A8E0"/>
<path d="M83.4066 13.0608C84.0402 12.9561 84.7327 12.9749 85.3189 13.2101C85.6492 13.3422 85.9498 13.5785 85.9945 13.8819C86.0391 14.1773 85.8076 14.449 85.5213 14.6187C85.0082 14.9221 84.3435 15.0215 83.7153 14.9962C83.1663 14.9683 82.5828 14.8292 82.2139 14.4871C81.9912 14.2949 81.9323 14.0011 82.0853 13.7675C82.3364 13.3707 82.8827 13.1564 83.4066 13.0608Z" fill="#25A8E0"/>
<path d="M76.8403 13.0814C77.5701 12.9376 78.3558 12.9749 79.0399 13.2691C79.4238 13.4363 79.7868 13.7052 79.9445 14.0873C80.0837 14.4536 79.9477 14.8675 79.6851 15.1527C79.3094 15.5696 78.7532 15.8 78.1982 15.9167C77.4353 16.0683 76.6089 16.0226 75.9001 15.7001C75.5009 15.5154 75.122 15.2044 75.0272 14.7761C74.9351 14.4302 75.0864 14.068 75.3368 13.8159C75.7303 13.4159 76.2853 13.1957 76.8403 13.0814Z" fill="#25A8E0"/>
<path d="M69.6828 13.0223C70.5455 12.9408 71.4614 13.0742 72.2037 13.5684C72.6482 13.8617 73.0102 14.3616 72.9998 14.9334C72.9863 15.5335 72.5773 16.0283 72.1236 16.346C71.2572 16.9434 70.1664 17.1013 69.1545 16.9415C68.5162 16.8318 67.8662 16.5898 67.4064 16.095C67.1105 15.7812 66.9362 15.3236 67.0218 14.8821C67.1196 14.3552 67.4969 13.9419 67.9114 13.6563C68.4403 13.2957 69.0585 13.0941 69.6828 13.0223Z" fill="#25A8E0"/>
<path d="M69.5435 20.0385C70.4365 19.9236 71.3827 20.0579 72.1649 20.547C72.5872 20.8136 72.9557 21.2537 72.9954 21.79C73.042 22.3385 72.7267 22.8406 72.335 23.1697C71.6618 23.7331 70.789 23.9706 69.9419 23.9989C69.2062 24.0138 68.4436 23.8738 67.8108 23.4607C67.4068 23.1968 67.0598 22.7715 67.0084 22.2578C66.9466 21.7086 67.2342 21.1827 67.6223 20.8387C68.1664 20.3734 68.8549 20.1321 69.5435 20.0385Z" fill="#25A8E0"/>
<path d="M75.9369 23.0583C76.7446 22.9214 77.6177 23.0179 78.3255 23.4299C78.6636 23.6289 78.9559 23.9492 78.9947 24.3383C79.0385 24.7333 78.8066 25.1097 78.4978 25.3582C78.0879 25.6803 77.5732 25.8607 77.054 25.947C76.2769 26.0688 75.4432 25.9892 74.7487 25.62C74.4087 25.4385 74.0993 25.1495 74.0205 24.775C73.9455 24.445 74.084 24.1036 74.3147 23.8575C74.7258 23.4088 75.3295 23.1615 75.9369 23.0583Z" fill="#25A8E0"/>
<path d="M80.5593 25.0403C81.0912 24.9684 81.6522 24.9877 82.1605 25.1389C82.5185 25.2547 82.8656 25.4686 82.9719 25.7764C83.0571 26.0144 82.9401 26.2712 82.7343 26.4487C82.4115 26.7312 81.9439 26.8803 81.4817 26.9548C80.8367 27.0513 80.1343 27.0009 79.5638 26.7291C79.2836 26.594 79.0332 26.3769 79.0041 26.1077C78.975 25.8933 79.1036 25.6858 79.2897 25.5351C79.6227 25.2569 80.0903 25.1073 80.5593 25.0403Z" fill="#25A8E0"/>
<path d="M83.572 1.05053C84.5517 0.811667 85.631 1.44531 85.9075 2.4107C86.2165 3.33695 85.7247 4.43106 84.8295 4.81987C83.9754 5.22925 82.8635 4.91674 82.3451 4.12651C81.7908 3.34956 81.9178 2.18644 82.6283 1.54815C82.8895 1.30067 83.2198 1.12749 83.572 1.05053ZM83.6245 1.48446C83.0795 1.61517 82.6256 2.05838 82.4847 2.60046C82.3418 3.11202 82.4914 3.68927 82.8595 4.07211C83.2563 4.50073 83.9037 4.67656 84.4619 4.49542C85.2203 4.2758 85.7174 3.42586 85.5233 2.65819C85.3578 1.8308 84.4427 1.25621 83.6245 1.48446Z" fill="#095793"/>
<path d="M83 2.04701C83.4879 2.01127 83.9898 1.94967 84.4722 2.07515C84.7004 2.12915 84.9356 2.33981 84.8936 2.62044C84.8628 2.85772 84.6465 2.97407 84.4638 3.05469C84.8075 3.21896 84.8446 3.66233 85 3.98631C84.7928 3.98859 84.5863 3.99087 84.3798 3.99468C84.2839 3.78554 84.2272 3.55662 84.1222 3.35281C83.9961 3.18397 83.7728 3.23417 83.5992 3.2144C83.6041 3.47525 83.6062 3.73686 83.6062 3.99848C83.4074 3.99848 83.2093 3.99924 83.0119 4C83.0056 3.349 83.0014 2.69801 83 2.04701ZM83.595 2.34894C83.5971 2.53222 83.5992 2.7155 83.602 2.89954C83.8022 2.88357 84.0263 2.91856 84.2055 2.79459C84.3273 2.7155 84.3315 2.50712 84.2097 2.42499C84.0249 2.30331 83.7987 2.34742 83.595 2.34894Z" fill="#095793"/>
<path d="M0 7.00043C1.93491 7.00043 3.86982 6.99911 5.80473 7.00109C6.87892 7.0162 7.98585 7.24821 8.87249 7.85878C9.64727 8.38392 10.1915 9.17655 10.5059 10.029C10.9377 11.1831 11.0154 12.4253 10.9977 13.6418C10.982 14.6954 11.0652 15.7614 10.8347 16.7999C10.5435 18.232 9.73866 19.5879 8.51511 20.464C7.65848 21.0798 6.58974 21.3861 5.52646 21.4006C4.68825 21.4098 3.85004 21.4019 3.01183 21.4045C3.01183 24.5593 3.01183 27.714 3.01251 30.8688C3.00092 31.154 2.81131 31.4038 2.61557 31.6055C2.2125 31.9907 1.58708 32.0676 1.05305 31.9486C0.531981 31.8244 0.0702488 31.3867 0 30.8681C0 22.9122 0 14.9563 0 7.00043ZM3.01183 9.52555V18.863C3.80435 18.863 4.59686 18.8636 5.38869 18.8636C5.93091 18.8656 6.49358 18.7348 6.91916 18.3976C7.39658 18.0276 7.66121 17.465 7.8058 16.9037C8.07383 15.8581 7.97835 14.773 7.99677 13.7069C7.99813 12.6323 8.00427 11.4927 7.4757 10.5147C7.17288 9.93698 6.542 9.54395 5.86748 9.53146C4.91605 9.517 3.96394 9.52883 3.01183 9.52555Z" fill="#095793"/>
<path d="M14.0498 15.4671C14.4285 15.0625 15.0376 14.9974 15.571 15.0001C17.6965 15.0237 19.8766 15.7627 21.3665 17.2611C22.4 18.2912 22.9858 19.7094 22.9981 21.1401C22.9995 24.4043 23.0022 27.6684 22.9967 30.9326C22.8469 31.462 22.3495 31.9074 21.7766 31.979C21.483 32.0184 21.1778 32.0013 20.8971 31.9081C20.4611 31.7616 20.1293 31.397 19.9706 30.9864C19.9467 30.7388 19.9692 30.4898 19.9617 30.2422C19.243 30.9759 18.3478 31.5763 17.3259 31.8358C16.3797 32.0729 15.3407 32.0749 14.4326 31.6979C13.4789 31.2985 12.7213 30.5036 12.3636 29.5642C11.9413 28.4915 11.9692 27.3196 12.0448 26.193C12.1463 24.9896 12.4093 23.7434 13.1559 22.7476C13.7057 22.0033 14.5723 21.5034 15.5022 21.3471C17.0269 21.0744 18.591 21.4679 19.9624 22.1104C19.9515 21.5323 20.0128 20.9385 19.8268 20.3781C19.5489 19.4683 18.8227 18.7457 17.9854 18.2806C17.2524 17.878 16.4205 17.6073 15.571 17.6099C15.1105 17.6027 14.573 17.5955 14.2405 17.2381C13.7493 16.8 13.6056 15.9795 14.0498 15.4671ZM16.1835 23.9668C15.7202 24.2065 15.4532 24.6795 15.2965 25.1459C14.9981 26.0564 15.0056 27.024 15.0226 27.9686C15.0342 28.4041 15.2297 28.8725 15.6541 29.0755C16.1971 29.3337 16.8327 29.3002 17.4159 29.2207C18.3397 29.086 19.1626 28.5355 19.679 27.7926C19.7982 27.6027 19.9883 27.4221 19.9638 27.183C19.9604 26.3796 19.9638 25.5762 19.9617 24.7728C19.2273 24.4023 18.4684 24.0561 17.6563 23.8788C17.1733 23.7828 16.6345 23.7349 16.1835 23.9668Z" fill="#095793"/>
<path d="M44.4043 15.0377C45.4834 14.9304 46.6264 15.0338 47.5878 15.5859C48.5719 16.1457 49.2485 17.1751 49.5226 18.2825C49.8783 19.6792 49.9555 21.1306 49.9934 22.5677C50.0175 24.3038 49.9896 26.055 49.6631 27.7645C49.4656 28.8166 49.0783 29.8687 48.3397 30.649C47.6504 31.4 46.6771 31.8208 45.691 31.9437C44.5973 32.0822 43.4214 31.9905 42.4638 31.3838C41.5436 30.8142 40.9461 29.8284 40.6158 28.799C40.2189 27.544 40.0974 26.2188 40.0322 24.9079C39.9683 23.2498 39.9867 21.5819 40.205 19.9354C40.3683 18.8105 40.6037 17.6381 41.305 16.7232C42.0259 15.7159 43.2094 15.147 44.4043 15.0377ZM44.6208 17.6121C44.2144 17.6751 43.8208 17.8611 43.5372 18.1706C43.1474 18.5881 42.9493 19.1545 42.8499 19.7143C42.7518 20.4225 42.7335 21.139 42.7119 21.8537C42.6891 23.0033 42.6714 24.1562 42.7638 25.3039C42.8467 26.2624 42.9784 27.2358 43.3569 28.1234C43.586 28.6527 43.9575 29.1729 44.5157 29.3569C45.1796 29.5611 45.9606 29.3543 46.4176 28.8094C46.8169 28.338 47.0315 27.73 47.1479 27.1246C47.2644 26.1746 47.2599 25.2148 47.2764 24.259C47.2764 22.9207 47.2941 21.5799 47.1967 20.2436C47.1397 19.492 46.9359 18.7058 46.429 18.1388C45.9771 17.6335 45.2562 17.5048 44.6208 17.6121Z" fill="#095793"/>
<path d="M57.4254 15.0342C58.4598 14.9367 59.5456 15.0323 60.483 15.5226C61.4179 16.0064 62.1151 16.905 62.4517 17.9136C62.799 19.0827 62.8934 20.3104 62.9581 21.5251C63.0265 23.3029 63.031 25.0905 62.818 26.8592C62.6602 28.1253 62.3363 29.4297 61.5339 30.4369C60.881 31.2654 59.8948 31.7622 58.8788 31.9169C57.8095 32.0789 56.6604 32.034 55.685 31.5118C54.906 31.1035 54.3108 30.3921 53.9362 29.591C53.3702 28.4003 53.1902 27.0673 53.0831 25.7609C52.9722 24.1983 52.9728 22.6273 53.0818 21.0654C53.1699 19.9723 53.3119 18.8682 53.6954 17.8381C54.0579 16.9102 54.7044 16.0811 55.5671 15.5993C56.1375 15.2748 56.7796 15.1005 57.4254 15.0342ZM57.6422 17.6125C57.1567 17.6821 56.6927 17.937 56.3955 18.3421C55.9987 18.8786 55.8364 19.5581 55.7959 20.22C55.6964 21.5856 55.6869 22.957 55.7147 24.3251C55.7642 25.5288 55.8586 26.7558 56.2719 27.8944C56.4962 28.492 56.8639 29.1104 57.4806 29.34C58.1131 29.5584 58.8686 29.3913 59.3415 28.901C59.8371 28.3906 60.0476 27.6707 60.1661 26.9789C60.3011 25.9931 60.3024 24.9949 60.3176 24.0013C60.315 22.704 60.3353 21.4009 60.1914 20.1101C60.0799 19.3741 59.8878 18.5885 59.3478 18.054C58.9016 17.6099 58.2342 17.5143 57.6422 17.6125Z" fill="#095793"/>
<path d="M26.0024 17.0855C26.1508 16.3458 26.9732 15.9133 27.6788 16.0151C28.2322 16.0881 28.736 16.5362 28.854 17.0868C28.8579 20.176 28.8527 23.2652 28.8566 26.3544C28.8714 27.1685 28.914 28.008 29.2288 28.7692C29.3997 29.1866 29.7396 29.5878 30.2111 29.6348C30.7555 29.6896 31.2909 29.5167 31.7991 29.3373C32.259 29.1625 32.7131 28.9668 33.1453 28.7287C33.133 24.849 33.1414 20.9685 33.1408 17.0881C33.2911 16.2695 34.2696 15.8233 35.0197 16.066C35.4828 16.2082 35.8872 16.6106 35.9982 17.0874C36.0008 23.0252 35.9982 28.9636 35.9988 34.9013C35.995 35.489 36.0246 36.0819 35.9221 36.6638C35.7982 37.4517 35.4699 38.1966 35.0145 38.8444C34.5617 39.5162 33.8103 40.0498 32.9769 39.9963C32.4519 39.8352 32.0539 39.3492 31.9823 38.8C31.8946 38.4295 32.0617 38.0668 32.2597 37.7648C32.4461 37.457 32.7267 37.2117 32.8634 36.8725C33.0905 36.3331 33.1298 35.7369 33.1388 35.1577C33.1401 33.8759 33.1388 32.5935 33.1395 31.3118C32.0075 31.8512 30.7639 32.2824 29.4945 32.1532C28.6605 32.0808 27.8394 31.7129 27.2853 31.0678C26.5578 30.2349 26.2533 29.1221 26.1063 28.0432C25.9669 27.0517 26.0069 26.0479 26.0011 25.0492C26.0024 22.3951 25.9998 19.7403 26.0024 17.0855Z" fill="#095793"/>
</g>
<defs>
<clipPath id="clip0_12_698">
<rect width="86" height="40" fill="white"/>
</clipPath>
</defs>
</svg>
