<svg xmlns="http://www.w3.org/2000/svg" width="240" height="80" fill="none" viewBox="0 0 240 80"><path fill="#25A8E0" d="M131.146 20.0288C131.711 19.9545 132.313 20.0177 132.817 20.2979C133.113 20.4601 133.371 20.7422 133.403 21.0915C133.449 21.4563 133.21 21.786 132.927 21.9893C132.385 22.3737 131.69 22.4896 131.039 22.4225C130.561 22.3665 130.051 22.2004 129.747 21.8062C129.523 21.5241 129.517 21.1058 129.723 20.8133C130.041 20.3448 130.605 20.1155 131.146 20.0288Z"/><path fill="#25A8E0" d="M149.579 22.6903C150.163 22.5581 150.796 22.5796 151.35 22.8206C151.678 22.9796 152 23.248 152.073 23.624C152.146 23.9895 151.929 24.3413 151.649 24.557C151.183 24.914 150.579 25.0489 150.002 25.0417C149.476 25.0293 148.921 24.8879 148.527 24.5231C148.256 24.2768 148.158 23.8533 148.336 23.5256C148.583 23.065 149.087 22.8089 149.579 22.6903Z"/><path fill="#25A8E0" d="M131.991 23.42C132.711 23.3301 133.473 23.409 134.122 23.7491C134.513 23.9523 134.865 24.2996 134.939 24.7498C135.018 25.1329 134.844 25.5212 134.578 25.7909C134.162 26.2177 133.584 26.4477 133.006 26.5513C132.247 26.6874 131.434 26.6334 130.738 26.2868C130.361 26.0952 130.005 25.7922 129.882 25.3733C129.768 24.9518 129.951 24.5055 130.252 24.2077C130.712 23.7438 131.356 23.5119 131.991 23.42Z"/><path fill="#25A8E0" d="M146.062 25.4964C146.821 25.3831 147.633 25.4626 148.313 25.8372C148.683 26.045 149.021 26.3825 149.089 26.8177C149.156 27.2047 148.97 27.5905 148.695 27.8543C148.171 28.3938 147.411 28.6329 146.676 28.6805C146.006 28.7183 145.308 28.6114 144.724 28.2654C144.365 28.0517 144.045 27.7077 143.994 27.2771C143.943 26.8868 144.141 26.5089 144.416 26.245C144.858 25.8157 145.462 25.5922 146.062 25.4964Z"/><path fill="#25A8E0" d="M114.395 25.9551C114.956 25.8313 115.564 25.8489 116.098 26.075C116.412 26.2131 116.708 26.4516 116.818 26.7878C116.917 27.081 116.82 27.4119 116.615 27.6361C116.293 27.9964 115.82 28.1814 115.354 28.2622C114.773 28.3573 114.151 28.2974 113.627 28.0185C113.36 27.8752 113.115 27.6452 113.046 27.3409C112.987 27.1012 113.064 26.8445 113.214 26.6536C113.506 26.2854 113.941 26.0561 114.395 25.9551Z"/><path fill="#25A8E0" d="M119.221 27.6576C119.967 27.5188 120.768 27.5618 121.465 27.8804C121.889 28.0837 122.293 28.4297 122.394 28.9092C122.491 29.3379 122.275 29.7731 121.963 30.0578C121.472 30.508 120.812 30.7322 120.16 30.8071C119.46 30.8801 118.726 30.7895 118.101 30.4546C117.713 30.2442 117.361 29.8891 117.303 29.4343C117.244 29.0147 117.464 28.6075 117.766 28.3313C118.169 27.9658 118.694 27.7638 119.221 27.6576Z"/><path fill="#25A8E0" d="M132.838 27.653C133.826 27.4849 134.894 27.5781 135.773 28.0863C136.238 28.3573 136.66 28.8017 136.712 29.36C136.772 29.9288 136.428 30.4533 136 30.7947C135.267 31.3785 134.311 31.6039 133.39 31.6261C132.546 31.6313 131.662 31.4456 130.985 30.9172C130.588 30.6123 130.319 30.1249 130.346 29.6174C130.372 29.1574 130.652 28.7528 130.993 28.4609C131.513 28.0185 132.172 27.7683 132.838 27.653Z"/><path fill="#25A8E0" d="M141.57 29.0258C142.531 28.8831 143.564 28.9867 144.413 29.4864C144.868 29.7549 145.271 30.1914 145.332 30.7354C145.401 31.3081 145.062 31.845 144.628 32.189C143.886 32.7708 142.923 33.0099 141.992 33.0177C141.208 33.0138 140.393 32.8529 139.741 32.3955C139.34 32.116 139.005 31.686 138.974 31.183C138.938 30.6944 139.202 30.2377 139.552 29.9164C140.104 29.4083 140.838 29.1431 141.57 29.0258Z"/><path fill="#25A8E0" d="M125.285 29.805C126.209 29.6858 127.194 29.7809 128.02 30.2356C128.515 30.5106 128.964 30.9803 129.007 31.5706C129.056 32.1349 128.708 32.647 128.282 32.9818C127.555 33.5539 126.613 33.7865 125.702 33.8034C124.896 33.8073 124.06 33.6399 123.387 33.1786C122.984 32.9017 122.652 32.4684 122.625 31.9648C122.591 31.4156 122.915 30.9093 123.33 30.5764C123.892 30.1399 124.587 29.9047 125.285 29.805Z"/><path fill="#25A8E0" d="M160.068 32.5975C160.678 32.4704 161.344 32.4932 161.908 32.7786C162.226 32.9389 162.516 33.2255 162.559 33.5936C162.602 33.952 162.379 34.2817 162.103 34.4875C161.609 34.8557 160.969 34.9762 160.365 34.9456C159.836 34.9117 159.275 34.7429 158.92 34.3279C158.705 34.0947 158.649 33.7383 158.796 33.4549C159.038 32.9734 159.563 32.7134 160.068 32.5975Z"/><path fill="#25A8E0" d="M153.947 32.9956C154.695 32.8398 155.5 32.8802 156.202 33.1988C156.595 33.38 156.967 33.6712 157.129 34.0849C157.271 34.4817 157.132 34.9299 156.863 35.2388C156.478 35.6903 155.908 35.9398 155.339 36.0662C154.557 36.2304 153.71 36.1809 152.984 35.8317C152.574 35.6316 152.186 35.2948 152.089 34.8309C151.995 34.4563 152.15 34.0641 152.406 33.7911C152.81 33.3578 153.378 33.1193 153.947 32.9956Z"/><path fill="#25A8E0" d="M146.949 33.4809C147.868 33.3982 148.844 33.5337 149.635 34.0354C150.108 34.3331 150.494 34.8407 150.483 35.4212C150.469 36.0304 150.033 36.5327 149.549 36.8552C148.626 37.4618 147.464 37.622 146.386 37.4598C145.705 37.3484 145.013 37.1028 144.523 36.6004C144.208 36.2818 144.022 35.8173 144.113 35.3691C144.217 34.8341 144.619 34.4146 145.061 34.1246C145.625 33.7585 146.283 33.5539 146.949 33.4809Z"/><path fill="#25A8E0" d="M146.65 39.834C147.601 39.718 148.608 39.8535 149.441 40.3474C149.89 40.6165 150.282 41.0608 150.325 41.6022C150.374 42.156 150.039 42.6629 149.622 42.9952C148.905 43.564 147.976 43.8038 147.074 43.8324C146.291 43.8474 145.479 43.706 144.806 43.2891C144.376 43.0226 144.006 42.5932 143.951 42.0746C143.886 41.5202 144.192 40.9892 144.605 40.6419C145.184 40.1721 145.917 39.9285 146.65 39.834Z"/><path fill="#25A8E0" d="M152.516 42.8297C153.344 42.6818 154.239 42.7861 154.965 43.2311C155.311 43.4461 155.611 43.792 155.651 44.2123C155.696 44.639 155.458 45.0456 155.141 45.314C154.721 45.6619 154.193 45.8567 153.661 45.9499C152.864 46.0815 152.01 45.9955 151.297 45.5968C150.949 45.4006 150.632 45.0886 150.551 44.684C150.474 44.3276 150.616 43.9588 150.852 43.693C151.274 43.2082 151.893 42.9411 152.516 42.8297Z"/><path fill="#25A8E0" d="M157.574 45.3362C158.086 45.2488 158.626 45.2723 159.115 45.456C159.46 45.5968 159.794 45.8567 159.896 46.2307C159.978 46.52 159.866 46.8321 159.668 47.0477C159.357 47.3911 158.907 47.5722 158.462 47.6628C157.841 47.78 157.165 47.7188 156.615 47.3885C156.346 47.2243 156.104 46.9604 156.076 46.6334C156.048 46.3727 156.172 46.1206 156.351 45.9375C156.672 45.5994 157.122 45.4176 157.574 45.3362Z"/><path fill="#095793" d="M160.396 21.3931C161.356 21.1586 162.414 21.7808 162.686 22.7288C162.988 23.6383 162.506 24.7127 161.629 25.0945C160.792 25.4965 159.702 25.1896 159.193 24.4136C158.65 23.6507 158.774 22.5085 159.471 21.8818C159.727 21.6387 160.051 21.4687 160.396 21.3931ZM160.448 21.8192C159.913 21.9476 159.468 22.3828 159.33 22.9151C159.19 23.4174 159.337 23.9843 159.698 24.3602C160.087 24.7811 160.721 24.9537 161.268 24.7759C162.012 24.5602 162.499 23.7256 162.309 22.9718C162.147 22.1593 161.25 21.5951 160.448 21.8192Z"/><path fill="#095793" d="M159.99 22.4245C160.444 22.3939 160.911 22.3411 161.36 22.4486C161.573 22.4949 161.792 22.6753 161.753 22.9157C161.724 23.119 161.523 23.2187 161.352 23.2878C161.672 23.4285 161.707 23.8083 161.852 24.0859C161.659 24.0878 161.466 24.0898 161.274 24.0931C161.185 23.9139 161.132 23.7178 161.035 23.5432C160.917 23.3985 160.709 23.4415 160.548 23.4246C160.552 23.6481 160.554 23.8722 160.554 24.0963C160.369 24.0963 160.185 24.097 160.001 24.0976C159.995 23.5399 159.991 22.9822 159.99 22.4245ZM160.544 22.6832C160.546 22.8402 160.548 22.9972 160.55 23.1549C160.737 23.1412 160.945 23.1711 161.112 23.0649C161.225 22.9972 161.229 22.8187 161.116 22.7483C160.944 22.6441 160.734 22.6818 160.544 22.6832Z"/><path fill="#095793" d="M77.2238 27.4035C79.0721 27.4035 80.9205 27.4022 82.7689 27.4042C83.7951 27.4191 84.8525 27.6491 85.6995 28.2544C86.4396 28.775 86.9596 29.5607 87.2599 30.4057C87.6723 31.5498 87.7466 32.7812 87.7297 33.9872C87.7147 35.0316 87.7942 36.0884 87.574 37.1178C87.2957 38.5375 86.5269 39.8816 85.3581 40.7501C84.5398 41.3606 83.5188 41.6642 82.5031 41.6785C81.7024 41.6876 80.9016 41.6798 80.1009 41.6824C80.1009 44.8098 80.1009 47.9371 80.1016 51.0644C80.0905 51.3472 79.9094 51.5948 79.7224 51.7948C79.3373 52.1766 78.7399 52.2528 78.2297 52.1349C77.7319 52.0118 77.2909 51.5778 77.2238 51.0638C77.2238 43.177 77.2238 35.2903 77.2238 27.4035ZM80.1009 29.9067V39.163C80.858 39.163 81.6151 39.1636 82.3715 39.1636C82.8895 39.1656 83.427 39.0359 83.8335 38.7017C84.2896 38.3349 84.5424 37.7772 84.6805 37.2207C84.9366 36.1842 84.8453 35.1085 84.8629 34.0517C84.8642 32.9865 84.8701 31.8567 84.3652 30.8872C84.0759 30.3145 83.4732 29.9249 82.8289 29.9125C81.92 29.8982 81.0104 29.9099 80.1009 29.9067Z"/><path fill="#095793" d="M90.7567 35.7887C91.1189 35.3873 91.7014 35.3228 92.2116 35.3255C94.2443 35.3489 96.3292 36.0819 97.7541 37.568C98.7425 38.5896 99.3028 39.9963 99.3145 41.4153C99.3158 44.6527 99.3184 47.8902 99.3132 51.1276C99.1699 51.6528 98.6943 52.0945 98.1463 52.1655C97.8655 52.2046 97.5737 52.1877 97.3052 52.0952C96.8882 51.9499 96.5709 51.5883 96.4191 51.1811C96.3963 50.9354 96.4178 50.6885 96.4107 50.4429C95.7233 51.1706 94.8672 51.7661 93.8899 52.0235C92.9849 52.2587 91.9913 52.2607 91.1229 51.8867C90.2107 51.4905 89.4862 50.7022 89.1442 49.7705C88.7402 48.7066 88.7669 47.5442 88.8392 46.4269C88.9363 45.2333 89.1878 43.9973 89.9019 43.0096C90.4277 42.2714 91.2564 41.7756 92.1458 41.6205C93.6039 41.3501 95.0998 41.7404 96.4113 42.3776C96.4009 41.8043 96.4595 41.2153 96.2817 40.6595C96.0158 39.7572 95.3213 39.0405 94.5206 38.5792C93.8195 38.1798 93.024 37.9114 92.2116 37.914C91.7711 37.9068 91.2571 37.8996 90.9391 37.5452C90.4694 37.1106 90.3319 36.2969 90.7567 35.7887ZM92.7973 44.2188C92.3542 44.4566 92.0988 44.9257 91.949 45.3883C91.6636 46.2913 91.6708 47.251 91.6871 48.1879C91.6982 48.6199 91.8851 49.0844 92.291 49.2858C92.8103 49.5418 93.4182 49.5086 93.9759 49.4298C94.8594 49.2962 95.6464 48.7502 96.1403 48.0133C96.2543 47.825 96.4361 47.6459 96.4126 47.4087C96.4094 46.6119 96.4126 45.8151 96.4107 45.0183C95.7083 44.6508 94.9825 44.3074 94.2059 44.1315C93.744 44.0364 93.2286 43.9888 92.7973 44.2188Z"/><path fill="#095793" d="M121.214 35.4349C122.325 35.3274 123.501 35.431 124.491 35.9841C125.504 36.5451 126.201 37.5765 126.483 38.686C126.849 40.0855 126.928 41.5397 126.967 42.9796C126.992 44.7192 126.964 46.4737 126.627 48.1866C126.424 49.2408 126.025 50.295 125.265 51.0768C124.555 51.8293 123.553 52.2509 122.538 52.374C121.412 52.5128 120.202 52.4209 119.216 51.813C118.269 51.2423 117.654 50.2546 117.314 49.2232C116.905 47.9657 116.78 46.6379 116.713 45.3244C116.647 43.663 116.666 41.9919 116.891 40.3422C117.059 39.2151 117.301 38.0403 118.023 37.1236C118.765 36.1144 119.984 35.5443 121.214 35.4349ZM121.437 38.0143C121.018 38.0775 120.613 38.2638 120.321 38.574C119.92 38.9922 119.716 39.5597 119.614 40.1207C119.513 40.8302 119.494 41.5482 119.472 42.2642C119.448 43.4161 119.43 44.5713 119.525 45.7212C119.61 46.6816 119.746 47.6569 120.135 48.5463C120.371 49.0766 120.754 49.5978 121.328 49.7822C122.012 49.9868 122.816 49.7796 123.286 49.2336C123.697 48.7613 123.918 48.1521 124.038 47.5455C124.158 46.5936 124.153 45.632 124.17 44.6742C124.17 43.3334 124.189 41.9899 124.088 40.651C124.03 39.8979 123.82 39.1102 123.298 38.542C122.833 38.0358 122.091 37.9068 121.437 38.0143Z"/><path fill="#095793" d="M134.571 35.4316C135.634 35.3339 136.75 35.4297 137.714 35.9209C138.675 36.4057 139.391 37.3061 139.737 38.3166C140.094 39.488 140.191 40.7181 140.258 41.9352C140.328 43.7165 140.333 45.5075 140.114 47.2797C139.952 48.5482 139.619 49.8552 138.794 50.8644C138.123 51.6944 137.109 52.1922 136.065 52.3473C134.965 52.5095 133.784 52.4646 132.782 51.9414C131.981 51.5322 131.369 50.8194 130.984 50.0168C130.402 48.8238 130.217 47.4882 130.107 46.1792C129.993 44.6136 129.994 43.0395 130.106 41.4746C130.196 40.3793 130.342 39.273 130.736 38.241C131.109 37.3113 131.774 36.4806 132.66 35.9978C133.247 35.6727 133.907 35.4981 134.571 35.4316ZM134.793 38.0149C134.294 38.0846 133.818 38.34 133.512 38.7459C133.104 39.2835 132.937 39.9643 132.896 40.6276C132.793 41.9958 132.784 43.3699 132.812 44.7407C132.863 45.9467 132.96 47.1761 133.385 48.3169C133.616 48.9157 133.993 49.5353 134.627 49.7653C135.278 49.9842 136.054 49.8167 136.54 49.3255C137.05 48.814 137.266 48.0928 137.388 47.3996C137.527 46.4118 137.528 45.4117 137.544 44.4162C137.541 43.1164 137.562 41.8107 137.414 40.5175C137.299 39.7799 137.102 38.9929 136.547 38.4573C136.088 38.0123 135.402 37.9166 134.793 38.0149Z"/><path fill="#095793" d="M102.889 37.1119C103.039 36.3731 103.87 35.9411 104.583 36.0428C105.142 36.1157 105.651 36.5633 105.77 37.1132C105.774 40.1989 105.769 43.2845 105.772 46.3702C105.787 47.1833 105.83 48.0218 106.148 48.7821C106.321 49.1991 106.664 49.5998 107.141 49.6467C107.691 49.7014 108.231 49.5288 108.745 49.3496C109.209 49.175 109.668 48.9795 110.104 48.7417C110.092 44.8664 110.101 40.9905 110.1 37.1145C110.252 36.2969 111.24 35.8512 111.998 36.0936C112.466 36.2356 112.874 36.6376 112.986 37.1139C112.989 43.0448 112.986 48.9763 112.987 54.9072C112.983 55.4942 113.013 56.0864 112.909 56.6676C112.784 57.4546 112.453 58.1987 111.993 58.8456C111.535 59.5167 110.776 60.0497 109.934 59.9963C109.404 59.8353 109.002 59.3499 108.93 58.8013C108.841 58.4313 109.01 58.069 109.21 57.7674C109.398 57.4598 109.682 57.2149 109.82 56.8761C110.049 56.3373 110.089 55.7418 110.098 55.1632C110.099 53.8829 110.098 52.602 110.099 51.3218C108.955 51.8606 107.699 52.2913 106.417 52.1623C105.574 52.0899 104.745 51.7225 104.185 51.0781C103.45 50.2461 103.143 49.1346 102.994 48.057C102.854 47.0666 102.894 46.0639 102.888 45.0665C102.889 42.4154 102.887 39.7637 102.889 37.1119Z"/></svg>