<svg width="98" height="40" viewBox="0 0 98 40" fill="none" xmlns="http://www.w3.org/2000/svg">
<g clip-path="url(#clip0_12_565)">
<path d="M44 31.1411V7.87156C44 7.64041 44.0957 7.41872 44.2661 7.25527C44.4364 7.09183 44.6675 7 44.9084 7H53.0925C55.2297 7.11537 57.2397 8.01123 58.7102 9.50372C60.1807 10.9962 61 12.9721 61 15.0259C61 17.0797 60.1807 19.0556 58.7102 20.5481C57.2397 22.0406 55.2297 22.9364 53.0925 23.0518H47.1705V31.1285C47.1705 31.3596 47.0748 31.5813 46.9044 31.7447C46.7341 31.9082 46.503 32 46.2621 32H44.9128C44.6719 32 44.4408 31.9082 44.2705 31.7447C44.1001 31.5813 44.0044 31.3596 44.0044 31.1285L44 31.1411ZM47.1705 19.8998H53.0572C53.7349 19.9023 54.4064 19.7761 55.033 19.5285C55.6596 19.2809 56.229 18.9168 56.7083 18.4571C57.1887 18.0021 57.5699 17.4599 57.8295 16.8621C58.0892 16.2642 58.2222 15.6228 58.2208 14.9751C58.2173 13.6678 57.6736 12.4153 56.7089 11.4921C55.7442 10.5689 54.4373 10.0504 53.0748 10.0504H47.1705V19.8998Z" fill="#EE4D2D"/>
<path d="M81.2626 39.2033L87.2597 28.7512L80.0759 16.814C80.0276 16.7326 80.0014 16.6397 80.0001 16.5447C79.9987 16.4496 80.0222 16.356 80.0682 16.2732C80.1142 16.1904 80.1811 16.1215 80.2619 16.0735C80.3428 16.0255 80.4347 16.0002 80.5284 16H83.4352L89.2104 25.5039L94.7893 16H97.4741C97.5672 16.0006 97.6584 16.0261 97.7386 16.0739C97.8189 16.1216 97.8853 16.19 97.9312 16.2721C97.977 16.3542 98.0008 16.4472 98 16.5415C97.9992 16.6359 97.9739 16.7284 97.9266 16.8097L84.4084 40H81.715C81.6223 39.9997 81.5312 39.9747 81.451 39.9274C81.3707 39.8802 81.3042 39.8124 81.2579 39.7308C81.2116 39.6493 81.1873 39.5568 81.1874 39.4627C81.1875 39.3686 81.2119 39.2762 81.2583 39.1947L81.2626 39.2033Z" fill="#EE4D2D"/>
<path d="M74.3745 31.0756V29.6872L73.9558 30.0683C72.517 31.3213 70.7026 32.005 68.8304 31.9998C66.7702 32.015 64.7885 31.1743 63.3204 29.6625C61.8522 28.1507 61.0177 26.0913 61 23.9364C61 19.4908 64.5132 16 68.8304 16C70.6908 15.9952 72.494 16.6725 73.9265 17.914L74.3452 18.2951V16.9067C74.3452 16.6674 74.4361 16.4379 74.5978 16.2687C74.7596 16.0995 74.979 16.0044 75.2078 16.0044H77V31.9998H75.212C74.9832 31.9998 74.7638 31.9047 74.602 31.7355C74.4403 31.5663 74.3494 31.3368 74.3494 31.0975L74.3745 31.0756ZM68.8053 18.9827C67.5301 18.9639 66.2995 19.4732 65.3817 20.3995C64.464 21.3258 63.9335 22.594 63.906 23.9276C63.906 25.2926 64.4244 26.6016 65.3471 27.5667C66.2698 28.5318 67.5213 29.074 68.8262 29.074C70.1311 29.074 71.3826 28.5318 72.3053 27.5667C73.228 26.6016 73.7464 25.2926 73.7464 23.9276C73.7345 23.2629 73.5969 22.6073 73.3418 21.9984C73.0866 21.3895 72.7188 20.8394 72.2595 20.3798C71.8003 19.9202 71.2586 19.5602 70.6658 19.3204C70.073 19.0806 69.4407 18.9659 68.8053 18.9827Z" fill="#EE4D2D"/>
<path d="M31.6679 6.66933H5.09218C4.70356 6.66933 4.33086 6.51496 4.05607 6.24019C3.78128 5.96542 3.62689 5.59276 3.62689 5.20417C3.62569 5.03034 3.69247 4.86292 3.81298 4.73763C3.93349 4.61234 4.0982 4.5391 4.27196 4.53353H28.1094C28.2861 4.53353 28.4556 4.46332 28.5806 4.33835C28.7056 4.21339 28.7758 4.04389 28.7758 3.86716V1.46651C28.776 1.26319 28.7338 1.06205 28.6521 0.875894C28.5703 0.689739 28.4506 0.522643 28.3008 0.385234C28.1509 0.247825 27.9741 0.143111 27.7815 0.0777558C27.589 0.0124001 27.3849 -0.0121685 27.1824 0.00561498L3.04592 2.14142C2.21269 2.21325 1.43694 2.59574 0.872688 3.21298C0.308432 3.83021 -0.00306775 4.63705 2.27783e-05 5.47329V28.6681C2.27783e-05 29.5518 0.351087 30.3993 0.975979 31.0241C1.60087 31.649 2.4484 32 3.33213 32H31.6679C32.5516 32 33.3992 31.649 34.0241 31.0241C34.6489 30.3993 35 29.5518 35 28.6681V10.014C35 9.13034 34.6489 8.28288 34.0241 7.65803C33.3992 7.03319 32.5516 6.68215 31.6679 6.68215" fill="#EE4D2D"/>
<path d="M23.9509 24.6697C23.8561 25.5045 23.5381 26.298 23.0306 26.966C22.5231 27.6341 21.8451 28.1519 21.0683 28.4644C20.0936 28.8618 19.0444 29.0418 17.9936 28.9918C16.5351 28.9443 15.105 28.5754 13.8043 27.9113C13.2087 27.5827 12.6466 27.1964 12.126 26.7579C12.0064 26.6593 11.9466 26.5692 12.0619 26.4106L12.7409 25.4158C12.7626 25.3801 12.7922 25.35 12.8274 25.3278C12.8626 25.3055 12.9025 25.2918 12.9438 25.2877C12.9852 25.2835 13.027 25.289 13.0659 25.3038C13.1048 25.3186 13.1397 25.3423 13.168 25.3729L13.3772 25.5358C14.6988 26.6001 16.319 27.2224 18.0107 27.3153C20.2612 27.2853 21.8925 26.2776 22.1829 24.7426C22.5032 23.0274 21.1409 21.5524 18.5146 20.7334C17.3833 20.3544 16.2741 19.9121 15.1922 19.4085C13.3616 18.3365 12.5075 16.9344 12.6299 15.2021C12.8135 12.8052 15.0427 11.0086 17.8697 11C19.1479 11.0028 20.4126 11.2623 21.5893 11.7632C22.096 11.9846 22.5831 12.2486 23.0455 12.5522C23.0831 12.5709 23.116 12.5976 23.1421 12.6305C23.1683 12.6634 23.1869 12.7016 23.1966 12.7425C23.2064 12.7834 23.2071 12.826 23.1987 12.8672C23.1903 12.9084 23.173 12.9472 23.148 12.981C23.037 13.1654 22.721 13.6885 22.5715 13.9029C22.4733 14.0487 22.3537 14.0701 22.1786 13.9586C20.9135 13.1098 19.4296 12.6494 17.9082 12.6337C15.9779 12.6723 14.5217 13.8171 14.4278 15.3865C14.4021 16.8015 15.4826 17.8305 17.7758 18.6195C22.5075 20.1374 24.301 21.9169 23.9594 24.7126" fill="white"/>
</g>
<defs>
<clipPath id="clip0_12_565">
<rect width="98" height="40" fill="white"/>
</clipPath>
</defs>
</svg>
