<svg width="40" height="40" viewBox="0 0 40 40" fill="none" xmlns="http://www.w3.org/2000/svg">
<path d="M36.1919 9.62267H5.81963C5.3755 9.62267 4.94955 9.44624 4.63551 9.13219C4.32146 8.81814 4.14502 8.39221 4.14502 7.94808C4.14365 7.7494 4.21997 7.55805 4.35769 7.41485C4.49542 7.27165 4.68366 7.18793 4.88224 7.18157H32.125C32.327 7.18157 32.5207 7.10133 32.6635 6.95849C32.8064 6.81566 32.8866 6.62194 32.8866 6.41994V3.67614C32.8868 3.44375 32.8387 3.21386 32.7452 3.0011C32.6518 2.78833 32.515 2.59735 32.3437 2.4403C32.1725 2.28325 31.9704 2.16357 31.7503 2.08887C31.5302 2.01417 31.2971 1.98609 31.0656 2.00642L3.48105 4.44752C2.52879 4.52962 1.64222 4.96679 0.997358 5.67225C0.352494 6.37771 -0.003506 7.29988 2.60323e-05 8.25566V34.7661C2.60323e-05 35.7761 0.401243 36.7447 1.11541 37.4588C1.82957 38.173 2.79817 38.5742 3.80815 38.5742H36.1919C37.2019 38.5742 38.1705 38.173 38.8846 37.4588C39.5988 36.7447 40 35.7761 40 34.7661V13.4454C40 12.4355 39.5988 11.4669 38.8846 10.7527C38.1705 10.0385 37.2019 9.63732 36.1919 9.63732" fill="#EE4D2D"/>
<path d="M26.8083 29.5568C26.6999 30.5073 26.3363 31.4108 25.7561 32.1715C25.176 32.9321 24.4008 33.5217 23.5128 33.8776C22.3984 34.3301 21.199 34.535 19.9976 34.4781C18.3302 34.424 16.6951 34.004 15.2081 33.2478C14.5272 32.8736 13.8846 32.4338 13.2894 31.9344C13.1527 31.8222 13.0844 31.7196 13.2162 31.539L13.9925 30.4063C14.0172 30.3657 14.0511 30.3314 14.0913 30.3061C14.1315 30.2808 14.1771 30.2652 14.2244 30.2604C14.2717 30.2557 14.3195 30.262 14.364 30.2788C14.4084 30.2957 14.4484 30.3226 14.4807 30.3575L14.7199 30.543C16.2308 31.7548 18.0832 32.4633 20.0171 32.5691C22.59 32.535 24.455 31.3876 24.787 29.6398C25.1532 27.6869 23.5958 26.0074 20.5932 25.0749C19.2999 24.6434 18.0318 24.1397 16.7948 23.5663C14.702 22.3458 13.7256 20.7493 13.8655 18.7769C14.0755 16.0477 16.624 14.0021 19.856 13.9923C21.3172 13.9955 22.7631 14.291 24.1084 14.8613C24.6876 15.1134 25.2446 15.4139 25.7732 15.7597C25.8161 15.7809 25.8538 15.8114 25.8837 15.8488C25.9135 15.8863 25.9348 15.9298 25.946 15.9764C25.9572 16.0229 25.958 16.0714 25.9484 16.1183C25.9388 16.1652 25.919 16.2095 25.8904 16.2479C25.7635 16.4578 25.4022 17.0535 25.2313 17.2976C25.119 17.4636 24.9823 17.488 24.7822 17.361C23.3358 16.3946 21.6393 15.8704 19.8999 15.8524C17.6932 15.8964 16.0283 17.1999 15.9209 18.9868C15.8916 20.5979 17.1268 21.7697 19.7486 22.668C25.1581 24.3963 27.2086 26.4224 26.818 29.6056" fill="white"/>
</svg>
