<svg width="240" height="80" viewBox="0 0 240 80" fill="none" xmlns="http://www.w3.org/2000/svg">
<path d="M114.798 51.2498V27.6353C114.798 27.4007 114.891 27.1757 115.057 27.0098C115.223 26.844 115.448 26.7508 115.682 26.7508H123.651C125.732 26.8679 127.689 27.777 129.121 29.2916C130.553 30.8062 131.351 32.8114 131.351 34.8956C131.351 36.9799 130.553 38.9851 129.121 40.4997C127.689 42.0143 125.732 42.9234 123.651 43.0405H117.885V51.2369C117.885 51.4715 117.792 51.6964 117.626 51.8623C117.46 52.0282 117.235 52.1214 117 52.1214H115.687C115.452 52.1214 115.227 52.0282 115.061 51.8623C114.895 51.6964 114.802 51.4715 114.802 51.2369L114.798 51.2498ZM117.885 39.8418H123.617C124.277 39.8443 124.93 39.7163 125.541 39.465C126.151 39.2137 126.705 38.8442 127.172 38.3777C127.64 37.916 128.011 37.3657 128.264 36.759C128.516 36.1523 128.646 35.5014 128.645 34.8441C128.641 33.5175 128.112 32.2463 127.172 31.3094C126.233 30.3726 124.961 29.8464 123.634 29.8464H117.885V39.8418Z" fill="#EE4D2D"/>
<path d="M152.109 59.21L158.141 48.8454L150.915 37.0081C150.867 36.9274 150.84 36.8352 150.839 36.741C150.838 36.6468 150.861 36.5539 150.908 36.4718C150.954 36.3898 151.021 36.3214 151.102 36.2738C151.184 36.2262 151.276 36.2011 151.37 36.2009H154.294L160.103 45.6253L165.715 36.2009H168.416C168.509 36.2015 168.601 36.2268 168.682 36.2742C168.763 36.3215 168.829 36.3894 168.875 36.4708C168.922 36.5522 168.945 36.6443 168.945 36.7379C168.944 36.8315 168.918 36.9232 168.871 37.0038L155.273 60H152.564C152.471 59.9997 152.379 59.9749 152.298 59.9281C152.218 59.8812 152.151 59.814 152.104 59.7331C152.058 59.6522 152.033 59.5605 152.033 59.4672C152.033 59.3739 152.058 59.2823 152.105 59.2014L152.109 59.21Z" fill="#EE4D2D"/>
<path d="M145.334 51.1295V49.7685L144.904 50.142C143.429 51.3703 141.569 52.0406 139.649 52.0355C137.537 52.0503 135.505 51.2263 133.999 49.7443C132.494 48.2623 131.638 46.2434 131.62 44.1311C131.62 39.7731 135.222 36.3512 139.649 36.3512C141.556 36.3464 143.405 37.0103 144.874 38.2274L145.304 38.601V37.2399C145.304 37.0054 145.397 36.7804 145.563 36.6145C145.728 36.4486 145.953 36.3555 146.188 36.3555H148.026V52.0355H146.192C145.958 52.0355 145.733 51.9423 145.567 51.7764C145.401 51.6105 145.308 51.3856 145.308 51.151L145.334 51.1295ZM139.623 39.2751C138.316 39.2566 137.054 39.7558 136.113 40.6639C135.172 41.5719 134.628 42.8151 134.6 44.1225C134.6 45.4605 135.131 46.7437 136.077 47.6898C137.023 48.6359 138.307 49.1674 139.645 49.1674C140.983 49.1674 142.266 48.6359 143.212 47.6898C144.158 46.7437 144.69 45.4605 144.69 44.1225C144.677 43.4709 144.536 42.8281 144.275 42.2312C144.013 41.6344 143.636 41.0951 143.165 40.6446C142.694 40.1941 142.139 39.8411 141.531 39.6061C140.923 39.371 140.275 39.2585 139.623 39.2751Z" fill="#EE4D2D"/>
<path d="M102.883 26.7036H76.1732C75.7826 26.7036 75.4081 26.5484 75.1319 26.2722C74.8557 25.996 74.7005 25.6215 74.7005 25.2309C74.6993 25.0562 74.7664 24.8879 74.8876 24.762C75.0087 24.636 75.1742 24.5624 75.3489 24.5568H99.3068C99.4845 24.5568 99.6548 24.4862 99.7804 24.3606C99.9061 24.235 99.9766 24.0647 99.9766 23.887V21.474C99.9768 21.2697 99.9345 21.0675 99.8523 20.8804C99.7701 20.6933 99.6498 20.5253 99.4992 20.3872C99.3486 20.2491 99.1708 20.1438 98.9773 20.0782C98.7838 20.0125 98.5787 19.9878 98.3751 20.0056L74.1166 22.1524C73.2792 22.2246 72.4995 22.6091 71.9324 23.2295C71.3653 23.8499 71.0522 24.6609 71.0553 25.5014V48.8153C71.0553 49.7035 71.4082 50.5553 72.0362 51.1834C72.6643 51.8115 73.5161 52.1643 74.4043 52.1643H102.883C103.772 52.1643 104.623 51.8115 105.251 51.1834C105.879 50.5553 106.232 49.7035 106.232 48.8153V30.0654C106.232 29.1772 105.879 28.3254 105.251 27.6973C104.623 27.0693 103.772 26.7165 102.883 26.7165" fill="#EE4D2D"/>
<path d="M94.6312 44.2341C94.5359 45.07 94.2162 45.8646 93.7059 46.5335C93.1957 47.2025 92.514 47.7209 91.7331 48.0339C90.7531 48.4319 89.6983 48.6121 88.6417 48.562C87.1754 48.5144 85.7375 48.1451 84.4297 47.4801C83.831 47.151 83.2658 46.7642 82.7424 46.3251C82.6222 46.2263 82.5621 46.1362 82.678 45.9773L83.3607 44.9812C83.3824 44.9455 83.4122 44.9154 83.4476 44.8931C83.483 44.8708 83.5231 44.8571 83.5647 44.8529C83.6063 44.8488 83.6483 44.8543 83.6874 44.8691C83.7265 44.8839 83.7616 44.9076 83.79 44.9383L84.0004 45.1014C85.3291 46.1672 86.9581 46.7902 88.6589 46.8833C90.9216 46.8532 92.5617 45.8442 92.8537 44.3071C93.1757 42.5897 91.8061 41.1127 89.1655 40.2927C88.0282 39.9131 86.913 39.4702 85.8251 38.966C83.9847 37.8926 83.1259 36.4886 83.249 34.754C83.4336 32.3539 85.6749 30.5549 88.5172 30.5463C89.8023 30.5491 91.0738 30.809 92.2569 31.3106C92.7663 31.5323 93.256 31.7965 93.721 32.1006C93.7587 32.1193 93.7919 32.1461 93.8181 32.179C93.8444 32.2119 93.8631 32.2502 93.8729 32.2912C93.8827 32.3321 93.8834 32.3747 93.875 32.416C93.8665 32.4572 93.8491 32.4961 93.824 32.5299C93.7124 32.7146 93.3947 33.2384 93.2444 33.453C93.1456 33.599 93.0254 33.6205 92.8494 33.5089C91.5775 32.659 90.0855 32.198 88.5559 32.1822C86.6152 32.2208 85.1511 33.3672 85.0566 34.9386C85.0308 36.3555 86.1171 37.3859 88.4228 38.1759C93.18 39.6959 94.9833 41.4777 94.6398 44.2771" fill="white"/>
</svg>
