<svg xmlns="http://www.w3.org/2000/svg" width="202" height="40" fill="none" viewBox="0 0 202 40"><g clip-path="url(#clip0_12_722)"><path fill="#ED1B24" d="M3.45911 0C5.91359 0 8.36568 0 10.8201 0C10.8249 1.9679 10.8178 3.93811 10.8225 5.90833C13.546 5.9176 16.2695 5.90369 18.9954 5.91528C18.9668 7.11827 19.0454 8.32358 18.9549 9.52425C18.7644 11.0633 17.3646 12.3753 15.7648 12.4494C14.1174 12.4888 12.47 12.4773 10.8225 12.4796C10.8273 15.0571 10.8059 17.6346 10.8297 20.2121C10.8797 22.0224 12.5152 23.6194 14.3673 23.7052C15.9076 23.7492 17.4503 23.7075 18.993 23.7214C18.993 25.8121 18.9954 27.9052 18.9906 29.9983C17.3741 29.9936 15.7553 30.0075 14.1388 29.9936C10.7654 29.9055 7.29437 28.5102 5.27795 25.7982C4.0638 24.1919 3.45435 22.1916 3.45911 20.2051C3.45435 17.6299 3.46388 15.0548 3.45673 12.4796C2.30449 12.4726 1.15224 12.4912 0 12.468C0.0119034 10.2845 0.00714201 8.09874 0.00238067 5.91296C1.15463 5.90601 2.30687 5.91528 3.45673 5.91065C3.46149 3.94043 3.45673 1.97022 3.45911 0Z"/><path fill="#ED1B24" d="M61.6834 10.8238C63.4042 7.69862 66.629 5.48428 70.1345 5.0916C73.6126 4.65478 77.3851 5.77705 79.7176 8.52812C82.4243 11.6161 83.1386 15.9472 82.9789 19.9553C77.6179 19.9553 72.2593 19.953 66.8983 19.9576C66.9942 21.4981 68.0143 22.8737 69.3814 23.4987C71.4422 24.5234 74.1786 23.8937 75.5114 21.9628C77.6636 22.5158 79.8089 23.1083 81.961 23.666C80.0805 27.3093 76.2463 29.8048 72.2045 29.9907C69.2855 30.0976 66.2479 29.289 63.9839 27.3511C62.0394 25.7107 60.807 23.3175 60.3232 20.815C59.6591 17.4645 59.974 13.8165 61.6834 10.8238ZM68.6899 11.874C67.6651 12.5781 66.9873 13.7491 66.896 15.0085C69.9839 15.0201 73.0717 15.0178 76.1596 15.0108C76.0797 14.1464 75.7967 13.2937 75.2239 12.6408C73.6468 10.7634 70.6526 10.4613 68.6899 11.874Z"/><path fill="#ED1B24" d="M27.8223 6.2322C30.1903 5.81915 32.609 6.10067 35 6.0176C34.9954 8.19824 34.9954 10.3766 35 12.5572C33.4889 12.5734 31.9801 12.5226 30.4713 12.5803C28.6815 12.7003 27.1543 14.3133 27.1313 16.1108C27.1221 20.7398 27.129 25.3687 27.1267 30C24.7518 29.9954 22.3792 29.9954 20.0043 30C20.0089 26.0564 20.0043 22.1151 20.0066 18.1738C20.025 16.5539 19.8845 14.9017 20.3429 13.3256C21.2505 9.8043 24.2634 6.94755 27.8223 6.2322Z"/><path fill="#ED1B24" d="M37 6.03508C38.3382 5.98261 39.6812 5.99858 41.0194 6.02139C42.7734 6.07843 44.2914 7.62522 44.2751 9.33855C44.2984 12.9956 44.2681 16.655 44.2891 20.3121C44.3218 22.2148 46.1015 23.8711 48.0493 23.8163C49.976 23.8277 51.7347 22.1965 51.765 20.3052C51.7861 15.5394 51.765 10.7713 51.7744 6.00542H58.9958C58.9981 9.62373 58.9958 13.2443 58.9958 16.8626C58.9771 18.6877 59.1055 20.538 58.6758 22.3311C58.1783 24.6171 56.9055 26.7936 54.9133 28.1373C52.5381 29.7685 49.5019 30.1563 46.6666 29.9487C44.1279 29.7685 41.5472 28.8628 39.7816 27.0126C37.8735 25.0437 37.0864 22.2809 37.028 19.6231C37 15.0945 37.0561 10.5637 37 6.03508Z"/><path fill="#F78222" d="M93.92 8.10181C94.7813 6.79331 95.9734 5.60165 97.5032 5.18106C99.4487 4.68804 101.631 5.23948 103.103 6.63209C103.847 7.31204 104.394 8.17658 104.851 9.07383C105.878 7.23026 107.6 5.77923 109.631 5.24415C111.792 4.6857 114.301 5.05956 115.982 6.63209C117.422 7.99199 118.244 9.908 118.635 11.8404C119.108 14.0835 118.979 16.3874 118.995 18.6656C118.989 21.5396 119.009 24.4136 118.986 27.2876C118.984 28.6452 117.934 29.9794 116.545 29.9957C115.127 30.0471 114.121 28.6195 114.101 27.2829C114.075 23.3177 114.11 19.3549 114.085 15.3897C114.048 14.0858 114.025 12.6371 113.159 11.5833C112.203 10.2748 110.304 10.0108 108.903 10.6697C107.107 11.5623 106.436 13.726 106.411 15.6303C106.381 19.4437 106.415 23.2617 106.395 27.0773C106.406 28.4793 105.4 29.9887 103.916 29.9934C102.444 30.0097 101.53 28.4092 101.564 27.054C101.539 23.243 101.569 19.4296 101.55 15.6163C101.509 14.1349 101.314 12.511 100.28 11.3777C98.9433 9.88463 96.3501 10.0108 95.0753 11.5249C94.1566 12.4829 93.9682 13.8802 93.9269 15.1583C93.8947 19.2053 93.9521 23.2523 93.8993 27.297C93.9016 28.7784 92.5901 30.2621 91.0626 29.9607C89.7212 29.7714 88.9701 28.3438 89.0023 27.068C89 20.7545 88.9977 14.441 89.0046 8.12751C88.961 6.76294 89.8728 5.31425 91.3015 5.21377C92.8565 5.04086 93.9039 6.67648 93.92 8.10181Z"/><path fill="#F78222" d="M129.541 5.2112C131.897 4.68687 134.44 5.1532 136.471 6.45009C139.303 8.23651 141.124 11.3314 141.74 14.5655C142.371 17.8878 141.843 21.4189 140.276 24.4163C138.784 27.2584 135.969 29.4926 132.728 29.9148C129.994 30.3022 127.148 29.3464 125.131 27.4927C122.92 25.5323 121.683 22.6903 121.209 19.825C120.621 16.3357 121.263 12.5842 123.287 9.63548C124.734 7.47322 126.957 5.76105 129.541 5.2112ZM130.478 10.3593C128.57 10.7677 127.148 12.387 126.513 14.1549C125.694 16.5004 125.848 19.1453 126.789 21.4305C127.52 23.2517 129.313 24.6831 131.328 24.7203C133.244 24.8386 135.077 23.6554 135.95 21.9919C136.721 20.5094 137.04 18.8251 137.036 17.1663C137.001 15.0829 136.317 12.8928 134.708 11.4776C133.587 10.4521 131.963 10.0252 130.478 10.3593Z"/><path fill="#F78222" d="M147.945 8.1702C148.995 6.72735 150.519 5.63762 152.234 5.20032C154.492 4.6461 157.014 5.25411 158.724 6.87234C160.48 8.51863 161.417 10.8805 161.786 13.2447C162.084 14.9612 161.977 16.708 161.997 18.4408C161.99 21.399 162.009 24.3549 161.988 27.313C161.974 28.6506 160.92 30.0093 159.544 30C158.183 29.9719 157.101 28.6343 157.11 27.285C157.089 23.6323 157.105 19.9749 157.103 16.3198C157.117 14.6127 156.732 12.7864 155.558 11.5049C154.297 10.1205 152.087 9.94043 150.512 10.8501C148.736 11.8977 147.963 14.0842 147.927 16.086C147.899 19.8182 147.936 23.5527 147.911 27.2873C147.904 28.4519 147.14 29.6164 146.017 29.9251C145.013 30.2151 143.933 29.6141 143.429 28.7302C143.042 28.0988 142.996 27.3294 143 26.6068C143.014 20.4543 142.987 14.3017 143.014 8.14915C143.003 6.73437 144.034 5.12783 145.554 5.20968C147.012 5.28217 147.911 6.80219 147.945 8.1702Z"/><path fill="#F78222" d="M166.579 9.05294C168.319 6.6586 171.125 4.98349 174.098 5.00205C176.912 4.93709 179.622 6.41963 181.33 8.6562C183.189 11.1317 184.057 14.2917 183.997 17.3821C183.97 18.3774 183.107 19.2799 182.109 19.2428C177.763 19.2683 173.418 19.2312 169.072 19.2614C169.317 21.2706 170.143 23.4375 172.027 24.3981C174.635 25.8272 177.875 24.5373 179.675 22.3703C180.257 21.5443 181.51 21.4005 182.248 22.0942C183.456 23.0547 183.335 24.9665 182.396 26.0801C180.494 28.4466 177.539 29.892 174.541 29.9941C172.045 30.0893 169.584 29.022 167.803 27.2727C165.764 25.34 164.663 22.5907 164.202 19.8437C163.601 16.1246 164.327 12.0992 166.579 9.05294ZM171.116 11.1387C170.029 12.0923 169.467 13.5075 169.186 14.9065C172.488 14.9251 175.79 14.9158 179.092 14.9112C178.768 13.2106 177.919 11.503 176.382 10.6352C174.754 9.63992 172.536 9.87193 171.116 11.1387Z"/><path fill="#F78222" d="M183.046 8.07918C183.231 7.10678 183.959 6.13206 185.01 6.02298C185.985 5.86749 186.954 6.51963 187.301 7.41312C189.091 11.927 190.739 16.5012 192.59 20.9896C194.272 16.5267 195.974 12.0709 197.668 7.6127C197.963 6.73082 198.784 5.96729 199.765 6.0021C200.959 6.0694 201.878 7.15552 201.97 8.29965C202.117 9.19082 201.698 10.017 201.389 10.8246C199.049 16.9445 196.725 23.0713 194.368 29.1865C192.512 33.7444 189.241 38.0518 184.534 39.9455C182.943 40.347 181.773 38.444 182.037 37.0469C182.129 35.9817 183.016 35.2553 183.921 34.8166C186.734 33.1967 188.719 30.4559 189.943 27.5155C187.764 21.8598 185.494 16.2366 183.484 10.5183C183.24 9.72924 182.838 8.92161 183.046 8.07918Z"/></g><defs><clipPath id="clip0_12_722"><rect width="202" height="40" fill="#fff"/></clipPath></defs></svg>