<svg width="40" height="40" viewBox="0 0 40 40" fill="none" xmlns="http://www.w3.org/2000/svg">
<path d="M1.61128 5.00027C2.75572 4.99966 3.89895 5.00027 5.04339 5.00027C5.04581 5.94239 5.04218 6.88573 5.0446 7.82967C6.31405 7.83389 7.58411 7.82725 8.85477 7.83329C8.84149 8.40943 8.87833 8.98618 8.83605 9.56112C8.74728 10.2979 8.09443 10.9266 7.34858 10.9616C6.58039 10.9804 5.81219 10.9749 5.0446 10.9761C5.04702 12.2105 5.03675 13.4444 5.04822 14.6788C5.07178 15.5454 5.83393 16.3106 6.69755 16.3517C7.41562 16.3728 8.13489 16.3529 8.85417 16.3595C8.85417 17.3608 8.85538 18.3628 8.85296 19.3653C8.09926 19.3629 7.34435 19.3695 6.59126 19.3629C5.01863 19.3206 3.40011 18.6526 2.4604 17.3542C1.89452 16.5848 1.61007 15.627 1.61248 14.6758C1.61007 13.4426 1.6149 12.2093 1.61128 10.9767C1.07439 10.9731 0.536891 10.9822 0 10.9713C0.00543534 9.9259 0.00362356 8.87929 0.00120785 7.83268C0.538099 7.82906 1.07559 7.83389 1.61188 7.83148C1.6143 6.88814 1.61188 5.94481 1.61309 5.00148L1.61128 5.00027Z" fill="#ED1B24"/>
<path d="M29.5465 10.3414C30.3836 8.84848 31.952 7.791 33.6563 7.60318C35.3479 7.39422 37.1826 7.93051 38.3168 9.24465C39.6333 10.7194 39.9806 12.7885 39.9027 14.7029C37.2955 14.7029 34.6896 14.7017 32.0824 14.7042C32.1289 15.4397 32.6254 16.0968 33.2903 16.3958C34.2928 16.8849 35.6232 16.5842 36.2713 15.662C37.3179 15.9259 38.3615 16.2091 39.4081 16.4755C38.4937 18.216 36.6288 19.4075 34.663 19.4969C33.2432 19.5482 31.766 19.1617 30.665 18.2359C29.7193 17.4526 29.1202 16.3094 28.8846 15.1136C28.5615 13.5132 28.7149 11.7709 29.5459 10.3408L29.5465 10.3414ZM32.9539 10.8432C32.4557 11.1796 32.1259 11.7389 32.0812 12.3404C33.5832 12.3458 35.0845 12.3446 36.5865 12.3416C36.5479 11.9285 36.4102 11.5215 36.1311 11.2092C35.3642 10.3124 33.9081 10.1681 32.9533 10.8432H32.9539Z" fill="#ED1B24"/>
<path d="M13.415 7.93414C14.5558 7.73545 15.7214 7.87072 16.8737 7.83087C16.8713 8.87989 16.8713 9.9277 16.8737 10.9761C16.1454 10.984 15.4188 10.9592 14.6917 10.987C13.8293 11.045 13.0937 11.8204 13.0822 12.6852C13.078 14.9119 13.081 17.138 13.0798 19.3659C11.9354 19.3635 10.7921 19.3635 9.64831 19.3659C9.65073 17.4689 9.64831 15.5732 9.64952 13.6775C9.65858 12.8984 9.59094 12.1036 9.81137 11.3457C10.2486 9.65231 11.7005 8.27777 13.415 7.93414Z" fill="#ED1B24"/>
<path d="M17.6473 7.84534C18.2833 7.81998 18.9216 7.82783 19.5576 7.8387C20.391 7.86648 21.1127 8.61897 21.1048 9.45239C21.1157 11.2316 21.1012 13.0119 21.1115 14.7911C21.1272 15.7169 21.9727 16.5226 22.8985 16.496C23.814 16.5014 24.6499 15.7079 24.6644 14.7881C24.6746 12.4696 24.6644 10.1499 24.6686 7.83145H28.1001C28.1013 9.5919 28.1001 11.353 28.1001 13.1134C28.091 14.0012 28.152 14.9016 27.9479 15.7737C27.7118 16.8855 27.1066 17.9448 26.1597 18.5983C25.0309 19.3918 23.5882 19.5802 22.2408 19.4794C21.0342 19.3918 19.8082 18.951 18.9687 18.0511C18.0622 17.0933 17.6878 15.7489 17.66 14.4559C17.6467 12.2528 17.6733 10.0485 17.6467 7.84534H17.6473Z" fill="#ED1B24"/>
<path d="M3.33909 23.6344C3.63683 23.19 4.04871 22.7853 4.57654 22.6428C5.24871 22.4755 6.00241 22.6627 6.51091 23.1356C6.76819 23.3663 6.95661 23.6598 7.11484 23.9648C7.46935 23.3385 8.06482 22.8463 8.76598 22.6645C9.51243 22.4749 10.3791 22.6017 10.96 23.1356C11.4577 23.5976 11.7415 24.248 11.8762 24.9039C12.0399 25.6655 11.9952 26.4481 12.0006 27.2218C11.9982 28.1977 12.0054 29.1737 11.9976 30.1496C11.997 30.6104 11.634 31.0633 11.1539 31.0694C10.6641 31.0869 10.3169 30.6019 10.3096 30.1484C10.3012 28.8022 10.3126 27.4561 10.3042 26.1099C10.2915 25.6673 10.2836 25.1751 9.9847 24.8175C9.65435 24.373 8.99849 24.2837 8.51474 24.5071C7.89451 24.8103 7.6626 25.5447 7.65415 26.1915C7.64388 27.4863 7.65596 28.7829 7.64871 30.0783C7.65294 30.5542 7.30508 31.067 6.79234 31.0688C6.28384 31.0742 5.96798 30.5307 5.98006 30.0705C5.97161 28.7763 5.98187 27.4815 5.97523 26.1866C5.96074 25.6836 5.8937 25.1322 5.53618 24.7475C5.07417 24.2402 4.17855 24.2831 3.73829 24.7976C3.42062 25.1231 3.356 25.5972 3.34151 26.0314C3.33064 27.4054 3.34996 28.7799 3.33184 30.1532C3.33245 30.6563 2.8795 31.16 2.35167 31.0579C1.88846 30.9939 1.62877 30.5089 1.64025 30.0759C1.63964 27.932 1.63843 25.788 1.64085 23.6447C1.62575 23.1815 1.941 22.6893 2.43441 22.6555C2.9713 22.5969 3.33366 23.1519 3.33909 23.6363V23.6344Z" fill="#F78222"/>
<path d="M15.3113 22.6584C16.1121 22.4791 16.9758 22.6385 17.666 23.0824C18.6287 23.6936 19.2471 24.7517 19.4567 25.858C19.6711 26.994 19.4917 28.2019 18.9591 29.2267C18.4518 30.1985 17.4951 30.963 16.3942 31.1074C15.4653 31.2396 14.4978 30.9129 13.8124 30.2788C13.0611 29.6084 12.6408 28.6361 12.4795 27.6565C12.2796 26.4632 12.4976 25.1804 13.1855 24.1719C13.6777 23.4327 14.4326 22.8469 15.3113 22.659V22.6584ZM15.6296 24.4189C14.9816 24.5584 14.4985 25.1122 14.2822 25.7167C14.0038 26.5187 14.0564 27.4234 14.3759 28.2049C14.6241 28.8276 15.2334 29.3173 15.9183 29.33C16.5699 29.3705 17.1926 28.9659 17.4891 28.397C17.7512 27.8897 17.8599 27.3141 17.8581 26.7464C17.846 26.0338 17.6135 25.2849 17.067 24.8012C16.6859 24.4503 16.1339 24.3047 15.629 24.4189H15.6296Z" fill="#F78222"/>
<path d="M21.658 23.6616C22.0216 23.1718 22.5488 22.8022 23.1425 22.6543C23.9239 22.4664 24.7966 22.6724 25.3885 23.2213C25.996 23.78 26.3209 24.5814 26.4484 25.3834C26.5516 25.9656 26.5142 26.5586 26.5214 27.1463C26.519 28.15 26.5257 29.1531 26.5184 30.1562C26.5136 30.6098 26.1488 31.0712 25.6729 31.0682C25.2018 31.0585 24.8274 30.605 24.8304 30.1472C24.8232 28.9079 24.8286 27.6669 24.828 26.427C24.8329 25.8478 24.6994 25.2282 24.2935 24.7934C23.8569 24.3235 23.0923 24.2625 22.547 24.5711C21.9322 24.9268 21.6647 25.6685 21.652 26.3479C21.6423 27.6143 21.655 28.8814 21.6465 30.1484C21.6441 30.5434 21.3802 30.9389 20.9913 31.0434C20.644 31.1418 20.2702 30.9377 20.0956 30.6382C19.9616 30.4238 19.9459 30.1629 19.9471 29.9177C19.9519 27.8299 19.9423 25.7427 19.9519 23.655C19.9477 23.1748 20.3052 22.6301 20.8312 22.6579C21.3361 22.6826 21.6471 23.1984 21.6586 23.6622L21.658 23.6616Z" fill="#F78222"/>
<path d="M27.8235 23.972C28.428 23.1531 29.4034 22.5805 30.4361 22.5866C31.4138 22.5642 32.3554 23.0715 32.949 23.8361C33.5946 24.6828 33.8966 25.7632 33.8754 26.8201C33.8658 27.1607 33.5662 27.4693 33.2196 27.4567C31.7098 27.4651 30.1999 27.4524 28.6901 27.4633C28.7753 28.1506 29.0622 28.8916 29.7168 29.2201C30.6227 29.7087 31.749 29.2678 32.3741 28.5268C32.5764 28.2442 33.0118 28.1953 33.2685 28.4326C33.6882 28.7611 33.646 29.4146 33.3198 29.7957C32.6591 30.6049 31.6325 31.0995 30.5907 31.134C29.7235 31.1666 28.8683 30.8018 28.2493 30.2033C27.5409 29.5426 27.1586 28.6023 26.9979 27.6626C26.789 26.3907 27.0414 25.0144 27.8241 23.9726L27.8235 23.972ZM29.3997 24.6852C29.0223 25.0114 28.8266 25.4951 28.7294 25.974C29.8768 25.9807 31.0237 25.977 32.1712 25.9758C32.0582 25.3942 31.7635 24.8102 31.2296 24.5137C30.6638 24.1731 29.8938 24.2528 29.3997 24.6858V24.6852Z" fill="#F78222"/>
<path d="M33.5741 23.4992C33.6369 23.167 33.8833 22.8336 34.2396 22.7962C34.5706 22.743 34.8991 22.9659 35.0163 23.2715C35.6232 24.8145 36.1819 26.3787 36.8093 27.9133C37.38 26.3877 37.9568 24.864 38.5311 23.3397C38.6314 23.0384 38.9098 22.7775 39.2419 22.7889C39.6466 22.8119 39.9582 23.1833 39.9896 23.5746C40.0397 23.879 39.8978 24.1617 39.7927 24.4377C38.9992 26.5297 38.2116 28.6247 37.4127 30.7155C36.7834 32.2736 35.6746 33.7466 34.079 34.394C33.5397 34.5311 33.1429 33.8807 33.2323 33.403C33.2631 33.0388 33.5638 32.7906 33.8712 32.6402C34.8248 32.0864 35.4976 31.1491 35.9125 30.1442C35.1739 28.2104 34.4045 26.2881 33.7227 24.3332C33.6399 24.0632 33.5034 23.7872 33.5741 23.4992Z" fill="#F78222"/>
</svg>
