<svg width="240" height="80" viewBox="0 0 240 80" fill="none" xmlns="http://www.w3.org/2000/svg">
<path d="M22.4723 20.0006C24.8725 20.0006 27.2704 20.0006 29.6706 20.0006C29.6752 21.9771 29.6682 23.9559 29.6729 25.9347C32.3361 25.944 34.9994 25.9301 37.665 25.9417C37.637 27.15 37.7139 28.3605 37.6254 29.5664C37.4392 31.1122 36.0703 32.4299 34.5059 32.5044C32.8949 32.544 31.2839 32.5323 29.6729 32.5347C29.6775 35.1234 29.6566 37.7122 29.6799 40.3009C29.7288 42.1191 31.3281 43.7231 33.1393 43.8092C34.6455 43.8535 36.1541 43.8116 37.6626 43.8255C37.6626 45.9254 37.665 48.0276 37.6603 50.1298C36.0796 50.1252 34.4965 50.1391 32.9158 50.1252C29.617 50.0367 26.2228 48.6352 24.2509 45.9114C23.0636 44.2981 22.4677 42.289 22.4723 40.2939C22.4677 37.7075 22.477 35.1211 22.47 32.5347C21.3432 32.5277 20.2165 32.5463 19.0897 32.523C19.1014 30.33 19.0967 28.1347 19.092 25.9394C20.2188 25.9324 21.3456 25.9417 22.47 25.9371C22.4747 23.9582 22.47 21.9794 22.4723 20.0006Z" fill="#ED1B24"/>
<path d="M81.0662 31.203C82.8215 28.0719 86.111 25.8533 89.6868 25.4598C93.2347 25.0222 97.0829 26.1466 99.4622 28.903C102.223 31.9969 102.952 36.3363 102.789 40.3521C97.3204 40.3521 91.8542 40.3498 86.3857 40.3545C86.4835 41.898 87.5241 43.2761 88.9186 43.9024C91.0208 44.929 93.8121 44.2981 95.1716 42.3636C97.367 42.9176 99.5553 43.5113 101.751 44.07C99.8323 47.7203 95.9213 50.2206 91.7983 50.4069C88.8208 50.5139 85.7222 49.7038 83.4128 47.7622C81.4293 46.1186 80.1722 43.7208 79.6787 41.2135C79.0012 37.8565 79.3225 34.2015 81.0662 31.203ZM88.2132 32.2553C87.1679 32.9607 86.4765 34.134 86.3834 35.3958C89.5332 35.4074 92.683 35.4051 95.8328 35.3981C95.7513 34.5321 95.4626 33.6777 94.8783 33.0235C93.2696 31.1425 90.2153 30.8399 88.2132 32.2553Z" fill="#ED1B24"/>
<path d="M47.2308 26.1536C49.624 25.7369 52.0684 26.0209 54.4849 25.9371C54.4802 28.137 54.4802 30.3347 54.4849 32.5347C52.9577 32.551 51.4329 32.4998 49.908 32.558C48.0991 32.679 46.5557 34.3063 46.5324 36.1198C46.5231 40.7898 46.5301 45.4598 46.5277 50.1322C44.1276 50.1275 41.7297 50.1275 39.3295 50.1322C39.3342 46.1536 39.3295 42.1773 39.3318 38.2011C39.3505 36.5668 39.2085 34.8999 39.6717 33.3099C40.589 29.7573 43.634 26.8753 47.2308 26.1536Z" fill="#ED1B24"/>
<path d="M56.1075 25.9673C57.4415 25.9138 58.7801 25.9301 60.1141 25.9534C61.8624 26.0116 63.3756 27.5899 63.3593 29.3383C63.3826 33.0701 63.3523 36.8042 63.3733 40.5361C63.4059 42.4776 65.1798 44.1678 67.1214 44.1119C69.042 44.1235 70.795 42.459 70.8253 40.5291C70.8462 35.6658 70.8253 30.8003 70.8346 25.9371H78.0328C78.0351 29.6293 78.0328 33.3239 78.0328 37.0161C78.0142 38.8785 78.1422 40.7665 77.7139 42.5963C77.218 44.929 75.9492 47.15 73.9634 48.5212C71.5958 50.1857 68.5694 50.5814 65.7432 50.3696C63.2127 50.1857 60.6402 49.2615 58.8802 47.3734C56.9782 45.3644 56.1937 42.5451 56.1355 39.833C56.1075 35.2119 56.1634 30.5884 56.1075 25.9673Z" fill="#ED1B24"/>
<path d="M113.342 28.3768C114.215 27.0731 115.423 25.8858 116.974 25.4668C118.945 24.9756 121.157 25.525 122.649 26.9125C123.404 27.5899 123.958 28.4513 124.421 29.3452C125.462 27.5084 127.208 26.0627 129.265 25.5296C131.456 24.9732 133.998 25.3457 135.702 26.9125C137.162 28.2674 137.996 30.1764 138.391 32.1016C138.871 34.3365 138.741 36.6319 138.757 38.9018C138.75 41.7652 138.771 44.6287 138.747 47.4921C138.745 48.8447 137.681 50.174 136.273 50.1903C134.836 50.2415 133.817 48.8191 133.796 47.4875C133.77 43.5368 133.805 39.5885 133.78 35.6379C133.742 34.3388 133.719 32.8955 132.841 31.8455C131.873 30.5419 129.948 30.2788 128.527 30.9353C126.707 31.8246 126.027 33.9803 126.002 35.8777C125.971 39.677 126.006 43.481 125.985 47.2826C125.997 48.6794 124.977 50.1833 123.473 50.188C121.981 50.2043 121.055 48.6096 121.089 47.2593C121.064 43.4623 121.094 39.663 121.076 35.8637C121.034 34.3877 120.836 32.7698 119.788 31.6407C118.433 30.1531 115.805 30.2788 114.513 31.7873C113.582 32.7418 113.391 34.134 113.349 35.4074C113.316 39.4395 113.374 43.4717 113.321 47.5015C113.323 48.9774 111.994 50.4557 110.446 50.1554C109.086 49.9668 108.325 48.5444 108.358 47.2733C108.355 40.983 108.353 34.6927 108.36 28.4024C108.316 27.0428 109.24 25.5995 110.688 25.4994C112.264 25.3271 113.326 26.9567 113.342 28.3768Z" fill="#F78222"/>
<path d="M148.469 25.5133C150.818 24.9872 153.354 25.4551 155.379 26.7565C158.203 28.5491 160.019 31.6546 160.633 34.8999C161.262 38.2336 160.736 41.7768 159.174 44.7846C157.686 47.6365 154.878 49.8784 151.647 50.3021C148.921 50.6908 146.083 49.7317 144.072 47.8716C141.867 45.9044 140.633 43.0526 140.161 40.1775C139.574 36.6762 140.214 32.9118 142.233 29.9528C143.676 27.7831 145.892 26.0651 148.469 25.5133ZM149.403 30.6792C147.501 31.0889 146.083 32.7139 145.45 34.4878C144.633 36.8415 144.786 39.4954 145.725 41.7885C146.453 43.616 148.241 45.0524 150.25 45.0896C152.162 45.2083 153.989 44.0211 154.86 42.3519C155.628 40.8643 155.947 39.1741 155.942 37.5096C155.907 35.419 155.225 33.2214 153.621 31.8013C152.504 30.7723 150.883 30.344 149.403 30.6792Z" fill="#F78222"/>
<path d="M167.091 28.4559C168.157 27.0196 169.705 25.9347 171.447 25.4994C173.74 24.9476 176.301 25.5529 178.037 27.1639C179.821 28.8028 180.773 31.1541 181.148 33.5077C181.45 35.2165 181.341 36.9555 181.362 38.6806C181.355 41.6255 181.373 44.5681 181.352 47.5131C181.339 48.8447 180.268 50.1973 178.871 50.188C177.488 50.16 176.389 48.8284 176.398 47.4852C176.378 43.8488 176.394 40.2078 176.391 36.5691C176.405 34.8696 176.014 33.0514 174.822 31.7757C173.542 30.3975 171.298 30.2182 169.698 31.1238C167.894 32.1668 167.11 34.3435 167.072 36.3363C167.044 40.0518 167.082 43.7696 167.056 47.4875C167.049 48.6468 166.274 49.8062 165.133 50.1135C164.114 50.4022 163.017 49.8039 162.505 48.9239C162.111 48.2953 162.065 47.5294 162.07 46.81C162.083 40.685 162.056 34.56 162.083 28.435C162.072 27.0265 163.119 25.4272 164.663 25.5087C166.144 25.5808 167.056 27.094 167.091 28.4559Z" fill="#F78222"/>
<path d="M185.182 29.3662C186.956 26.9637 189.817 25.2829 192.848 25.3015C195.716 25.2363 198.48 26.7239 200.221 28.9681C202.116 31.4521 203.001 34.6229 202.94 37.7238C202.912 38.7225 202.032 39.6281 201.015 39.5909C196.585 39.6165 192.155 39.5792 187.724 39.6095C187.973 41.6256 188.816 43.7999 190.737 44.7637C193.395 46.1978 196.699 44.9034 198.533 42.729C199.127 41.9003 200.405 41.7559 201.157 42.452C202.389 43.4158 202.265 45.3341 201.308 46.4515C199.369 48.8261 196.357 50.2765 193.3 50.3789C190.755 50.4744 188.246 49.4035 186.43 47.6481C184.351 45.7089 183.229 42.9502 182.759 40.1938C182.146 36.462 182.887 32.4229 185.182 29.3662ZM189.808 31.4591C188.7 32.4159 188.127 33.836 187.841 35.2398C191.207 35.2584 194.573 35.2491 197.94 35.2445C197.609 33.538 196.743 31.8246 195.176 30.9539C193.516 29.9552 191.256 30.188 189.808 31.4591Z" fill="#F78222"/>
<path d="M202.056 27.9787C202.24 27.0032 202.964 26.0255 204.009 25.9161C204.98 25.7601 205.943 26.4143 206.288 27.3105C208.069 31.8385 209.708 36.4271 211.549 40.9294C213.223 36.4527 214.916 31.9829 216.601 27.5108C216.894 26.6261 217.712 25.8602 218.687 25.8951C219.874 25.9626 220.789 27.0521 220.88 28.1998C221.027 29.0938 220.61 29.9226 220.303 30.7327C217.975 36.8717 215.663 43.0177 213.319 49.152C211.472 53.7242 208.218 58.045 203.536 59.9447C201.953 60.3474 200.789 58.4385 201.052 57.037C201.143 55.9684 202.025 55.2398 202.926 54.7998C205.725 53.1748 207.699 50.4254 208.916 47.4758C206.749 41.8025 204.491 36.1617 202.491 30.4254C202.249 29.6339 201.848 28.8238 202.056 27.9787Z" fill="#F78222"/>
</svg>
