<svg width="44" height="40" viewBox="0 0 44 40" fill="none" xmlns="http://www.w3.org/2000/svg">
<g clip-path="url(#clip0_12_588)">
<path d="M43.2788 6.62602C42.8744 6.04521 42.3152 5.58904 41.6645 5.30916C41.0139 5.02929 40.2977 4.93687 39.5972 5.04239L3.32246 10.1328C2.61242 10.2315 1.94403 10.526 1.39242 10.9832C0.840814 11.4404 0.42785 12.0421 0.199944 12.7208C-0.0279623 13.3995 -0.0617742 14.1282 0.102307 14.825C0.266389 15.5218 0.62186 16.1591 1.12877 16.6652L23.2828 38.8657C23.6378 39.2251 24.0609 39.5104 24.5273 39.7051C24.9938 39.8998 25.4943 40.0001 25.9999 40C26.2017 39.9998 26.4031 39.9842 26.6026 39.9535C27.2031 39.8631 27.7735 39.631 28.2662 39.2764C28.7589 38.9218 29.1598 38.4549 29.4356 37.9146L43.5593 10.6187C43.8908 9.99352 44.0403 9.28805 43.9907 8.58233C43.9411 7.87662 43.6945 7.1989 43.2788 6.62602ZM43.2034 10.4356L29.0827 37.7275C28.8354 38.2117 28.4758 38.6299 28.0339 38.9474C27.592 39.2648 27.0805 39.4723 26.5421 39.5526C26.363 39.5799 26.182 39.5938 26.0008 39.5942C25.5481 39.5942 25.1 39.5043 24.6824 39.3298C24.2647 39.1553 23.886 38.8996 23.5683 38.5777L1.41227 16.3742C0.959534 15.9205 0.642308 15.3498 0.496146 14.7262C0.349985 14.1025 0.380668 13.4506 0.584752 12.8434C0.788837 12.2361 1.15826 11.6977 1.65161 11.2883C2.14497 10.879 2.74275 10.6149 3.37797 10.5257L39.6537 5.4373C39.8212 5.41407 39.9901 5.40249 40.1592 5.40266C40.7498 5.40716 41.3293 5.56271 41.8426 5.85445C42.3558 6.1462 42.7856 6.56441 43.0909 7.06918C43.3962 7.57394 43.5668 8.14841 43.5865 8.73776C43.6062 9.3271 43.4743 9.91166 43.2034 10.4356Z" fill="#EE0033"/>
<path d="M38.4232 6.03121L3.69736 10.849C3.12122 10.9283 2.57889 11.1645 2.13122 11.5311C1.68356 11.8976 1.34828 12.38 1.163 12.9242C0.977721 13.4683 0.949783 14.0526 1.08232 14.6115C1.21485 15.1704 1.50261 15.6818 1.91331 16.0883L23.1285 37.0896C23.4166 37.3783 23.7601 37.6075 24.1389 37.7638C24.5177 37.9201 24.9243 38.0004 25.3349 38C25.5001 38.0001 25.665 37.9877 25.8283 37.963C26.3164 37.8913 26.7801 37.7056 27.1807 37.4212C27.5813 37.1368 27.9073 36.7621 28.1313 36.3282L41.6499 10.5092C41.9139 10.0056 42.0324 9.44014 41.9924 8.87458C41.9525 8.30903 41.7556 7.76523 41.4233 7.30274C41.091 6.84024 40.6362 6.47687 40.1086 6.25243C39.581 6.02799 39.001 5.95111 38.4321 6.03024L38.4232 6.03121ZM41.2848 10.3271L27.7662 36.1471C27.5688 36.5242 27.2839 36.8499 26.9347 37.0978C26.5855 37.3456 26.1819 37.5086 25.7568 37.5734C25.3317 37.6382 24.8971 37.6031 24.4884 37.4708C24.0797 37.3385 23.7084 37.1128 23.4048 36.8121L2.19749 15.8099C1.83938 15.4554 1.58838 15.0095 1.4726 14.5222C1.35682 14.0349 1.38085 13.5255 1.54199 13.0509C1.70312 12.5763 1.99501 12.1554 2.38493 11.8352C2.77485 11.5151 3.24741 11.3085 3.74965 11.2384L38.4774 6.42068C38.6082 6.40219 38.7401 6.39275 38.8721 6.39245C39.3392 6.39605 39.7975 6.51768 40.2033 6.74572C40.6091 6.97376 40.949 7.30061 41.1905 7.6951C41.4319 8.08958 41.5669 8.53853 41.5825 8.99911C41.5982 9.4597 41.494 9.91656 41.2798 10.3261L41.2848 10.3271Z" fill="#EE0033"/>
<path d="M38.1577 7.02414L5.15333 11.6826C4.69314 11.7463 4.25981 11.9379 3.90218 12.2358C3.54456 12.5336 3.27686 12.9259 3.12925 13.3684C2.98164 13.8109 2.95999 14.286 3.06674 14.7402C3.17349 15.1944 3.4044 15.6097 3.73344 15.9391L23.8898 36.2615C24.1193 36.4957 24.393 36.6816 24.6948 36.8084C24.9966 36.9352 25.3205 37.0003 25.6477 37C25.7796 36.9999 25.9114 36.9896 26.0418 36.9693C26.4306 36.91 26.7997 36.7583 27.1183 36.5267C27.437 36.2951 27.6959 35.9904 27.8736 35.6379L40.7216 10.657C40.9316 10.2487 41.0258 9.7903 40.9939 9.33183C40.9621 8.87336 40.8054 8.43252 40.5409 8.0575C40.2764 7.68249 39.9144 7.38775 39.4945 7.2055C39.0745 7.02325 38.6127 6.96051 38.1596 7.02414H38.1577ZM40.3668 10.4729L27.5198 35.4607C27.3685 35.756 27.1497 36.011 26.8815 36.2051C26.6133 36.3992 26.3031 36.5268 25.9764 36.5775C25.6497 36.6281 25.3157 36.6005 25.0017 36.4967C24.6877 36.3929 24.4026 36.216 24.1696 35.9804L4.01624 15.655C3.73996 15.3783 3.54603 15.0297 3.45628 14.6483C3.36653 14.2669 3.38451 13.8679 3.50822 13.4962C3.63192 13.1245 3.85642 12.7949 4.15646 12.5445C4.4565 12.294 4.82017 12.1326 5.20654 12.0785L38.2099 7.42604C38.3114 7.41138 38.4138 7.4041 38.5163 7.40426C38.8747 7.40715 39.2264 7.50223 39.5378 7.68044C39.8493 7.85865 40.11 8.11404 40.2953 8.42226C40.4806 8.73048 40.5842 9.08124 40.5962 9.44109C40.6082 9.80094 40.5282 10.1579 40.3639 10.4779L40.3668 10.4729Z" fill="#EE0033"/>
<path d="M36.9729 8.01732L5.5321 12.397C5.2048 12.4423 4.89673 12.5771 4.64244 12.7862C4.38816 12.9954 4.19773 13.2705 4.09252 13.5809C3.98731 13.8913 3.97148 14.2246 4.04681 14.5433C4.12214 14.8621 4.28565 15.1538 4.51899 15.3857L23.7231 34.4817C23.8868 34.6461 24.0819 34.7766 24.2971 34.8656C24.5122 34.9546 24.7431 35.0002 24.9762 35C25.0694 35 25.1624 34.9928 25.2545 34.9786C25.5324 34.9375 25.7963 34.8313 26.0244 34.6687C26.2524 34.5061 26.4379 34.2919 26.5655 34.0439L38.8012 10.5712C38.9512 10.284 39.0184 9.96146 38.9957 9.63893C38.9729 9.3164 38.861 9.00629 38.6722 8.74257C38.4834 8.47885 38.225 8.27168 37.9253 8.14376C37.6255 8.01584 37.2961 7.9721 36.9729 8.01732ZM38.4475 10.3887L26.2059 33.8643C26.106 34.0559 25.9619 34.2214 25.7853 34.3473C25.6086 34.4733 25.4044 34.5561 25.1893 34.589C24.9742 34.6219 24.7543 34.604 24.5476 34.5368C24.3408 34.4696 24.1529 34.3549 23.9994 34.2021L4.79529 15.1061C4.61452 14.9258 4.48802 14.6991 4.42995 14.4515C4.37189 14.204 4.38456 13.9453 4.46654 13.7044C4.54853 13.4636 4.69659 13.2501 4.89413 13.0879C5.09168 12.9258 5.33091 12.8213 5.58501 12.7862L37.0297 8.40656C37.2808 8.37095 37.5369 8.4045 37.77 8.50351C38.003 8.60253 38.2041 8.76319 38.3512 8.9679C38.4982 9.17261 38.5855 9.41346 38.6035 9.66407C38.6216 9.91468 38.5696 10.1654 38.4534 10.3887H38.4475Z" fill="#EE0033"/>
<path d="M37.7459 10.0062L6.94849 14.2664C6.74571 14.2948 6.55494 14.3781 6.39753 14.507C6.24012 14.636 6.12228 14.8055 6.0572 14.9966C5.99212 15.1877 5.98236 15.3928 6.02902 15.5891C6.07567 15.7853 6.17691 15.9649 6.32138 16.1078L25.1296 34.6801C25.2312 34.7814 25.3523 34.8619 25.4858 34.9168C25.6192 34.9717 25.7625 35 25.9072 35C25.9646 34.9999 26.022 34.9956 26.0788 34.9872C26.2504 34.9623 26.4135 34.8974 26.5545 34.798C26.6955 34.6985 26.8103 34.5674 26.8895 34.4155L38.8787 11.5809C38.9707 11.4042 39.0117 11.206 38.9971 11.0079C38.9826 10.8098 38.9132 10.6195 38.7964 10.4575C38.6796 10.2956 38.5199 10.1682 38.3347 10.0894C38.1495 10.0105 37.9459 9.98307 37.7459 10.0101V10.0062ZM38.5175 11.3943L26.5293 34.2289C26.479 34.3247 26.4065 34.4075 26.3175 34.4704C26.2286 34.5334 26.1258 34.5748 26.0175 34.5913C25.9093 34.6077 25.7986 34.5988 25.6945 34.5652C25.5904 34.5315 25.4958 34.4742 25.4185 34.3977L6.60935 15.8234C6.51808 15.7333 6.45413 15.6199 6.42467 15.496C6.39521 15.372 6.4014 15.2425 6.44255 15.1219C6.48369 15.0012 6.55817 14.8942 6.65763 14.8129C6.7571 14.7316 6.87762 14.6791 7.00568 14.6614L37.8021 10.4011C37.9285 10.3837 38.0573 10.4009 38.1744 10.4506C38.2915 10.5004 38.3925 10.5808 38.4664 10.6832C38.5402 10.7856 38.584 10.906 38.593 11.0312C38.6021 11.1565 38.5759 11.2817 38.5175 11.3934V11.3943Z" fill="#EE0033"/>
<path d="M36.1706 11.0069L8.63034 14.8406C8.49572 14.8591 8.36896 14.9144 8.26433 15.0003C8.15969 15.0862 8.08133 15.1993 8.03804 15.3268C7.99476 15.4544 7.98827 15.5915 8.0193 15.7225C8.05034 15.8535 8.11767 15.9734 8.21372 16.0686L25.0335 32.7878C25.1008 32.8551 25.1809 32.9084 25.2692 32.9448C25.3575 32.9812 25.4522 33 25.5478 33C25.5862 32.9999 25.6244 32.997 25.6623 32.9912C25.7764 32.9745 25.8847 32.9309 25.9783 32.8643C26.0719 32.7976 26.1481 32.7097 26.2004 32.6079L36.9189 12.056C36.9802 11.938 37.0076 11.8056 36.9982 11.6732C36.9887 11.5409 36.9427 11.4136 36.8652 11.3054C36.7876 11.1971 36.6816 11.112 36.5586 11.0594C36.4356 11.0068 36.3003 10.9886 36.1676 11.0069H36.1706ZM36.5655 11.8742L25.8469 32.4251C25.8231 32.471 25.7886 32.5106 25.7463 32.5407C25.704 32.5709 25.6552 32.5908 25.6037 32.5987C25.5522 32.6066 25.4996 32.6023 25.45 32.5863C25.4005 32.5702 25.3556 32.5428 25.3188 32.5062L8.50298 15.789C8.45975 15.7458 8.4295 15.6915 8.41559 15.6322C8.40168 15.5729 8.40467 15.511 8.42423 15.4533C8.44378 15.3956 8.47913 15.3444 8.52633 15.3055C8.57353 15.2665 8.63073 15.2413 8.69155 15.2327L36.2269 11.399C36.243 11.3979 36.2591 11.3979 36.2752 11.399C36.3322 11.3988 36.3883 11.4131 36.4381 11.4406C36.4879 11.4681 36.5297 11.5078 36.5595 11.556C36.5893 11.6041 36.606 11.6591 36.6081 11.7155C36.6102 11.7719 36.5975 11.8279 36.5714 11.8781L36.5655 11.8742Z" fill="#EE0033"/>
<path d="M40.1739 15.1038C39.6956 14.3412 39.0324 13.7107 38.2454 13.2705L28.345 7.69744L15.7173 0.589254C12.5361 -1.20161 8.65227 1.32969 9.0249 4.94993L9.57789 10.3245L11.4797 28.8117L12.1308 35.1449C12.5857 39.5717 17.9184 41.5788 21.1977 38.5588L21.2136 38.544L34.2337 26.5608L39.2572 21.9355C40.1853 21.0817 40.7848 19.9317 40.9522 18.6843C41.1196 17.4369 40.8443 16.1705 40.1739 15.1038Z" fill="#EE0033"/>
<path d="M28.468 17C28.3271 17 28.1921 17.056 28.0925 17.1556C27.9929 17.2553 27.9369 17.3905 27.9369 17.5314V17.9946C27.4443 17.5144 26.8212 17.1902 26.1454 17.0626C25.4696 16.935 24.7712 17.0096 24.1376 17.2771C23.5039 17.5446 22.9632 17.9931 22.583 18.5665C22.2028 19.1399 22 19.8128 22 20.5009C22 21.1891 22.2028 21.862 22.583 22.4354C22.9632 23.0088 23.5039 23.4573 24.1376 23.7248C24.7712 23.9923 25.4696 24.0669 26.1454 23.9393C26.8212 23.8117 27.4443 23.4875 27.9369 23.0073V23.4677C27.9369 23.6087 27.9929 23.744 28.0926 23.8437C28.1923 23.9435 28.3275 23.9995 28.4685 23.9995C28.6094 23.9995 28.7446 23.9435 28.8443 23.8437C28.944 23.744 29 23.6087 29 23.4677V17.5323C29 17.3914 28.944 17.2562 28.8445 17.1566C28.7449 17.0569 28.6098 17.0009 28.4689 17.0009L28.468 17ZM25.5032 22.9334C24.9396 22.934 24.3932 22.739 23.9572 22.3817C23.5212 22.0244 23.2225 21.5268 23.1121 20.9737C23.0016 20.4207 23.0863 19.8465 23.3516 19.3489C23.6169 18.8514 24.0464 18.4613 24.567 18.2451C25.0875 18.029 25.6669 18.0001 26.2063 18.1636C26.7457 18.327 27.2118 18.6725 27.5251 19.1413C27.8385 19.6101 27.9796 20.1731 27.9246 20.7343C27.8695 21.2956 27.6216 21.8204 27.2232 22.2192C26.9974 22.4455 26.7293 22.625 26.4342 22.7475C26.139 22.8701 25.8227 22.9332 25.5032 22.9334Z" fill="white"/>
<path d="M17.5065 17C16.5938 17.0002 15.7176 17.3797 15.0654 18.0572V17.5689C15.0654 17.419 15.0093 17.2751 14.9094 17.1691C14.8095 17.0631 14.674 17.0035 14.5327 17.0035C14.3914 17.0035 14.2559 17.0631 14.156 17.1691C14.0561 17.2751 14 17.419 14 17.5689V26.4346C14 26.5846 14.0561 26.7284 14.156 26.8344C14.2559 26.9404 14.3914 27 14.5327 27C14.674 27 14.8095 26.9404 14.9094 26.8344C15.0093 26.7284 15.0654 26.5846 15.0654 26.4346V23.3827C15.477 23.8057 15.9801 24.115 16.5306 24.2835C17.081 24.4519 17.6621 24.4744 18.2226 24.3489C18.7832 24.2234 19.3062 23.9537 19.7456 23.5636C20.1851 23.1735 20.5276 22.6748 20.743 22.1114C20.9585 21.548 21.0404 20.9371 20.9814 20.3323C20.9225 19.7275 20.7245 19.1473 20.405 18.6426C20.0854 18.1379 19.654 17.7242 19.1487 17.4378C18.6433 17.1514 18.0794 17.0011 17.5065 17ZM17.5065 23.3072C16.9417 23.3074 16.3943 23.0997 15.9576 22.7195C15.5209 22.3393 15.2219 21.8102 15.1117 21.2222C15.0014 20.6343 15.0866 20.024 15.3528 19.4953C15.6191 18.9666 16.0498 18.5523 16.5716 18.3229C17.0935 18.0935 17.6741 18.0633 18.2146 18.2373C18.7551 18.4114 19.2219 18.779 19.5356 19.2775C19.8494 19.776 19.9905 20.3745 19.935 20.9711C19.8795 21.5676 19.6308 22.1253 19.2312 22.549C19.0047 22.7894 18.7358 22.9801 18.4399 23.1102C18.144 23.2403 17.8268 23.3072 17.5065 23.3072Z" fill="white"/>
<path d="M36.7338 17.0763C36.6725 17.039 36.6048 17.0148 36.5345 17.005C36.4643 16.9952 36.3929 17.0001 36.3244 17.0193C36.256 17.0385 36.1918 17.0717 36.1356 17.1169C36.0793 17.1622 36.0321 17.2186 35.9967 17.283L33.5049 21.8139L31.0063 17.283C30.9709 17.2186 30.9238 17.1622 30.8676 17.117C30.8114 17.0717 30.7473 17.0385 30.6789 17.0193C30.6105 17.0001 30.5392 16.9951 30.4689 17.0048C30.3987 17.0145 30.331 17.0386 30.2697 17.0758C30.2084 17.1129 30.1546 17.1624 30.1115 17.2213C30.0684 17.2803 30.0367 17.3476 30.0184 17.4193C30.0001 17.4911 29.9954 17.566 30.0046 17.6397C30.0138 17.7133 30.0368 17.7844 30.0722 17.8487L32.8773 22.9454L31.1062 26.1654C31.0398 26.2953 31.0243 26.4472 31.0629 26.589C31.1015 26.7307 31.1912 26.8511 31.313 26.9246C31.4348 26.9981 31.579 27.0188 31.7152 26.9825C31.8513 26.9462 31.9687 26.8557 32.0422 26.7301L36.9279 17.8477C36.9992 17.718 37.0186 17.5639 36.9817 17.4191C36.9634 17.3475 36.9319 17.2804 36.8888 17.2215C36.8458 17.1627 36.7921 17.1133 36.7309 17.0763H36.7338Z" fill="white"/>
<path d="M26.9564 21.4412C26.3954 21.2441 25.7498 20.5983 25.5574 20.0372C25.5523 20.0261 25.5441 20.0167 25.5339 20.0101C25.5236 20.0035 25.5116 20 25.4994 20C25.4872 20 25.4753 20.0035 25.465 20.0101C25.4547 20.0167 25.4466 20.0261 25.4415 20.0372C25.2444 20.6006 24.6034 21.2441 24.039 21.4412C24.0274 21.4459 24.0176 21.4539 24.0106 21.4642C24.0037 21.4745 24 21.4867 24 21.4991C24 21.5116 24.0037 21.5237 24.0106 21.534C24.0176 21.5444 24.0274 21.5524 24.039 21.5571C24.6023 21.7542 25.2444 22.3953 25.4415 22.961C25.4462 22.9726 25.4542 22.9824 25.4645 22.9894C25.4748 22.9963 25.487 23 25.4994 23C25.5119 23 25.524 22.9963 25.5343 22.9894C25.5447 22.9824 25.5527 22.9726 25.5574 22.961C25.7544 22.3976 26.3954 21.7542 26.961 21.5571C26.9726 21.5524 26.9824 21.5444 26.9894 21.534C26.9963 21.5237 27 21.5116 27 21.4991C27 21.4867 26.9963 21.4745 26.9894 21.4642C26.9824 21.4539 26.9726 21.4459 26.961 21.4412H26.9564Z" fill="white"/>
<path d="M17.7041 14H17.2959C17.2174 14 17.1421 14.0258 17.0867 14.0718C17.0312 14.1177 17 14.18 17 14.245V16.755C17 16.82 17.0312 16.8823 17.0867 16.9282C17.1421 16.9742 17.2174 17 17.2959 17H17.7041C17.7826 17 17.8579 16.9742 17.9133 16.9282C17.9688 16.8823 18 16.82 18 16.755V14.2438C17.9996 14.179 17.9683 14.117 17.9128 14.0713C17.8574 14.0256 17.7823 14 17.7041 14Z" fill="white"/>
<path d="M15.5026 17C15.6559 17 15.8356 16.9883 15.9316 16.7367L17 14H16.6098C16.5339 14.0008 16.4597 14.0303 16.396 14.085C16.3324 14.1397 16.2819 14.2173 16.2504 14.3087L15.5775 16.2008C15.5617 16.245 15.5299 16.3173 15.5026 16.3173C15.4753 16.3173 15.4445 16.245 15.4287 16.2008L14.7504 14.3087C14.7192 14.2174 14.6688 14.1398 14.6053 14.0851C14.5418 14.0304 14.4678 14.0009 14.392 14H14L15.0684 16.7367C15.175 17.0047 15.3908 17 15.5026 17Z" fill="white"/>
<path d="M30.7432 15.9962C30.8114 15.9959 30.8767 15.9749 30.9249 15.9378C30.973 15.9006 31 15.8503 31 15.7978V15.5833H30.7841C30.6266 15.5833 30.299 15.5785 30.1055 15.4774C29.8573 15.3487 29.8747 15.1198 29.8747 14.9549V13.1955C29.8734 13.1435 29.8457 13.0939 29.7975 13.0573C29.7492 13.0208 29.6843 13.0002 29.6166 13H29.2581C29.1896 13 29.124 13.0209 29.0756 13.0581C29.0272 13.0953 29 13.1457 29 13.1983V15.2076C29 15.5146 29.1414 15.6901 29.3945 15.8217C29.6476 15.9533 29.9243 16 30.4529 16L30.7432 15.9962Z" fill="white"/>
<path d="M21.4173 15.2071C21.4173 15.514 21.5254 15.6893 21.7188 15.8208C21.9123 15.9524 22.1238 15.999 22.5277 15.999H22.7468C22.7989 15.9988 22.8489 15.9778 22.8857 15.9407C22.9225 15.9035 22.9431 15.8532 22.9431 15.8008V15.5864H22.7781C22.6577 15.5864 22.4073 15.5816 22.2594 15.4806C22.0697 15.352 22.083 15.1233 22.083 14.9584V13.9816H23.4723V15.2081C23.4723 15.5149 23.5804 15.6903 23.7748 15.8218C23.9692 15.9533 24.1788 16 24.5837 16H24.8027C24.8551 16 24.9052 15.9791 24.9422 15.9419C24.9792 15.9048 25 15.8544 25 15.8018V15.5874H24.835C24.7155 15.5874 24.4642 15.5826 24.3163 15.4816C24.1266 15.3529 24.1399 15.1242 24.1399 14.9593V13.9816H24.7876C24.8135 13.9816 24.8391 13.9765 24.8631 13.9665C24.887 13.9565 24.9087 13.9419 24.9271 13.9235C24.9454 13.9051 24.9599 13.8833 24.9698 13.8592C24.9797 13.8352 24.9848 13.8094 24.9848 13.7834V13.5699H24.1408V13.1982C24.1408 13.1457 24.12 13.0952 24.083 13.0581C24.0461 13.0209 23.9959 13 23.9436 13H23.6695C23.6172 13 23.567 13.0209 23.53 13.0581C23.493 13.0952 23.4723 13.1457 23.4723 13.1982V13.5699H22.0839V13.1982C22.0839 13.1457 22.0631 13.0952 22.0261 13.0581C21.9892 13.0209 21.939 13 21.8867 13H21.6126C21.5603 13 21.5101 13.0209 21.4731 13.0581C21.4361 13.0952 21.4154 13.1457 21.4154 13.1982V13.5699H21V13.7843C21 13.8369 21.0208 13.8873 21.0578 13.9245C21.0948 13.9616 21.1449 13.9825 21.1972 13.9825H21.4163L21.4173 15.2071Z" fill="white"/>
<path d="M20.8513 15.6127C20.9036 15.5565 20.9442 15.4863 20.9696 15.4078C20.9951 15.3293 21.0047 15.2447 20.9978 15.1608C20.9978 14.7829 20.9216 14.4108 20.5573 14.1913C20.2701 14.0164 19.895 14 19.5307 14C19.2376 14 18.7101 14 18.3702 14.2817C18.0303 14.5634 18 14.9754 18 15.534C18 15.9284 18.0176 16.3404 18.2237 16.6221C18.4816 16.9742 18.8596 17 19.1741 17H20.696C20.7499 17 20.8016 16.9743 20.8397 16.9285C20.8778 16.8827 20.8992 16.8206 20.8992 16.7559V16.4918H19.3793C19.1272 16.4918 18.8391 16.4577 18.7512 16.1397C18.7241 16.0048 18.7103 15.8665 18.7101 15.7277H20.5182C20.6369 15.7365 20.7546 15.6959 20.8513 15.6127ZM20.1353 15.2183H19.1585C18.9104 15.2183 18.7092 15.3545 18.7092 15.5235V15.2183C18.715 15.02 18.7092 14.858 18.8508 14.7089C19.0383 14.5059 19.3206 14.5117 19.5023 14.5117C19.684 14.5117 19.9185 14.5223 20.0884 14.6467C20.1463 14.6884 20.1945 14.7469 20.2287 14.8168C20.2628 14.8868 20.2818 14.9659 20.2838 15.0469C20.2877 15.1221 20.2701 15.2183 20.1353 15.2183Z" fill="white"/>
<path d="M27.1726 17H28.6949C28.7488 17 28.8005 16.9743 28.8386 16.9286C28.8768 16.8828 28.8982 16.8208 28.8982 16.7561V16.4922H27.3778C27.1257 16.4922 26.8374 16.4582 26.7495 16.1403C26.7224 16.0055 26.7086 15.8674 26.7084 15.7287H28.5161C28.6358 15.7374 28.7543 15.696 28.8513 15.6114C28.9036 15.5553 28.9441 15.4852 28.9696 15.4067C28.9951 15.3283 29.0047 15.2437 28.9978 15.1599C28.9978 14.7823 28.9216 14.4105 28.5571 14.1912C28.2699 14.0164 27.8947 14 27.5312 14C27.238 14 26.7094 14 26.3694 14.2815C26.0293 14.5629 26 14.9746 26 15.5328C26 15.9269 26.0166 16.3385 26.2228 16.62C26.4798 16.9719 26.8599 17 27.1726 17ZM26.7094 15.2185C26.7153 15.0203 26.7094 14.8585 26.8511 14.7095C27.0387 14.5066 27.3211 14.5125 27.5028 14.5125C27.6846 14.5125 27.9201 14.5231 28.0891 14.6474C28.147 14.689 28.1952 14.7475 28.2294 14.8174C28.2635 14.8873 28.2825 14.9663 28.2845 15.0473C28.2845 15.1259 28.2669 15.222 28.1321 15.222H27.155C26.9068 15.222 26.7055 15.3581 26.7055 15.527L26.7094 15.2185Z" fill="white"/>
<path d="M17.5007 13.6625H17.7064C17.7451 13.6625 17.7834 13.6549 17.8191 13.6403C17.8548 13.6256 17.8872 13.6041 17.9145 13.5771C17.9418 13.55 17.9634 13.5179 17.9781 13.4825C17.9927 13.4472 18.0002 13.4093 18 13.3712V13.2913C18 13.2143 17.9691 13.1404 17.9141 13.0858C17.8591 13.0312 17.7844 13.0004 17.7064 13H17.295C17.2168 13 17.1417 13.0307 17.0864 13.0853C17.0311 13.14 17 13.2141 17 13.2913V14C17.0327 13.8962 17.0999 13.8064 17.1908 13.7451C17.2817 13.6839 17.3909 13.6547 17.5007 13.6625Z" fill="white"/>
</g>
<defs>
<clipPath id="clip0_12_588">
<rect width="44" height="40" fill="white"/>
</clipPath>
</defs>
</svg>
