<svg xmlns="http://www.w3.org/2000/svg" width="117" height="40" fill="none" viewBox="0 0 117 40"><g clip-path="url(#clip0_13_1536)"><path fill="#E03" d="M61.8857 17H63.1143C63.6049 17 64 16.6369 64 16.186V7.81405C64 7.36313 63.6049 7 63.1143 7H61.8857C61.3951 7 61 7.36313 61 7.81405V16.186C61 16.6369 61.3951 17 61.8857 17Z"/><path fill="#E03" d="M53.5097 17C54.1731 17 54.9528 16.9644 55.3679 16.1239L60 7H58.3047C57.6103 7 57.0322 7.42226 56.749 8.02604L53.8317 14.3323C53.7619 14.4822 53.6261 14.7229 53.5097 14.7229C53.3933 14.7229 53.2575 14.4822 53.1877 14.3323L50.251 8.02604C49.9678 7.42226 49.3859 7 48.6953 7H47L51.6321 16.1239C52.0898 17.0197 53.0325 17 53.5136 17"/><path fill="#E03" d="M113.227 17C113.655 17 114 16.6471 114 16.2088V15.3516H113.352C112.882 15.3516 111.896 15.3323 111.313 14.9289C110.551 14.4169 110.619 13.4977 110.619 12.8384V5.79121C110.619 5.35294 110.274 5 109.846 5H108.773C108.345 5 108 5.35294 108 5.79121V13.8274C108 15.0569 108.425 15.7705 109.186 16.2825C109.925 16.7789 110.778 16.9961 112.366 16.9961H113.227V17Z"/><path fill="#E03" d="M78.6663 13.8313C78.6663 15.0608 79.0984 15.7744 79.8737 16.2864C80.6258 16.7828 81.4937 17 83.1099 17H83.9855C84.4214 17 84.7724 16.6471 84.7724 16.2088V15.3516H84.1128C83.6345 15.3516 82.6316 15.3323 82.0376 14.9289C81.2623 14.4169 81.3317 13.4977 81.3317 12.8384V8.93277H86.8939V13.8274C86.8939 15.0569 87.3259 15.7705 88.1013 16.2825C88.8534 16.7789 89.7213 16.9961 91.3375 16.9961H92.2131C92.649 16.9961 93 16.6432 93 16.2049V15.3478H92.3404C91.8621 15.3478 90.8592 15.3284 90.2652 14.925C89.4899 14.4131 89.5593 13.4939 89.5593 12.8345V8.92889H92.1437C92.5796 8.92889 92.9306 8.57595 92.9306 8.13769V7.28054H89.5554V5.79121C89.5554 5.35294 89.2044 5 88.7686 5H87.677C87.2411 5 86.8901 5.35294 86.8901 5.79121V7.28054H81.3279V5.79121C81.3279 5.35294 80.9769 5 80.541 5H79.4494C79.0135 5 78.6625 5.35294 78.6625 5.79121V7.28054H77V8.13769C77 8.57595 77.351 8.92889 77.7869 8.92889H78.6625V13.8235L78.6663 13.8313Z"/><path fill="#E03" d="M76.4117 12.3757C76.9284 11.9622 77 11.3777 77 10.8728C77 9.61233 76.6939 8.37177 75.2391 7.64016C74.0864 7.05567 72.584 7 71.1292 7C69.9566 7 67.842 7 66.4786 7.93837C65.1153 8.87674 65 10.2485 65 12.1133C65 13.4294 65.0715 14.8012 65.8943 15.7396C66.9278 16.9046 68.4303 17 69.6982 17H75.7916C76.2408 17 76.6025 16.6382 76.6025 16.1889V15.3101H70.5171C69.5074 15.3101 68.3548 15.1988 68.005 14.1252C67.9096 13.8231 67.842 13.1869 67.842 12.7535H75.0762C75.5691 12.7535 76.0381 12.6779 76.4157 12.3757M73.5498 11.0596H69.6426C68.6489 11.0596 67.842 11.5129 67.842 12.0736V11.0596C67.8658 10.4036 67.842 9.85487 68.4064 9.3499C69.1577 8.67396 70.2865 8.69384 71.0139 8.69384C71.789 8.69384 72.6833 8.72962 73.363 9.14314C73.7605 9.38569 74.162 9.85885 74.162 10.4791C74.162 10.7416 74.0904 11.0636 73.5498 11.0636"/><path fill="#E03" d="M98.6903 17H104.784C105.233 17 105.595 16.6382 105.595 16.1889V15.3101H99.5131C98.5035 15.3101 97.3508 15.1948 97.001 14.1252C96.9056 13.8231 96.838 13.1869 96.838 12.7535H104.072C104.565 12.7535 105.034 12.6779 105.412 12.3757C105.928 11.9622 106 11.3777 106 10.8728C106 9.61233 105.694 8.37177 104.239 7.64016C103.09 7.05567 101.584 7 100.129 7C98.9526 7 96.842 7 95.4786 7.93837C94.1153 8.87674 94 10.2485 94 12.1133C94 13.4294 94.0715 14.8012 94.8943 15.7396C95.9278 16.9046 97.4303 17 98.6982 17M96.842 11.0596C96.8659 10.4036 96.842 9.85487 97.4064 9.3499C98.1577 8.67396 99.2865 8.69384 100.014 8.69384C100.789 8.69384 101.683 8.72962 102.363 9.14314C102.761 9.38569 103.162 9.85885 103.162 10.4791C103.162 10.7416 103.09 11.0636 102.55 11.0636H98.6426C97.6489 11.0636 96.842 11.5169 96.842 12.0775V11.0636V11.0596Z"/><path fill="#E03" d="M62.4978 6.99001H63.1143C63.6049 6.99001 64 6.60057 64 6.11698V5.87304C64 5.38944 63.6049 5 63.1143 5H61.8857C61.3951 5 61 5.38944 61 5.87304V8H61.013C61.0955 7.50357 61.6686 6.98573 62.5022 6.98573"/><path fill="#000" d="M47 31.996V23.6979C47 22.566 47.6757 22 49.027 22H59.3636C60.8353 22 61.9769 22.2591 62.7846 22.7732C63.5962 23.2874 64 24.1682 64 25.4157V30.4576C64 31.3105 63.3166 32 62.4778 32H61.3673V26.0016C61.3673 25.2204 61.1731 24.6425 60.7809 24.2678C60.3888 23.8892 59.7519 23.7019 58.8666 23.7019H56.8164V30.5094C56.8164 31.3344 56.1562 32 55.3447 32H54.1836V23.7019H50.3122C49.8618 23.7019 49.6366 23.8892 49.6366 24.2678V30.5054C49.6366 31.3304 48.9765 32 48.161 32H47.0039L47 31.996Z"/><path fill="#000" d="M80 31.996V23.6979C80 22.566 80.6845 22 82.0536 22H86.2986C87.7897 22 88.9464 22.2591 89.7686 22.7732C90.5908 23.2874 91 24.1682 91 25.4157V32H88.3287V26.0016C88.3287 25.2204 88.132 24.6425 87.7346 24.2678C87.3373 23.8892 86.6921 23.7019 85.7951 23.7019H83.3559C82.8995 23.7019 82.6713 23.8892 82.6713 24.2678V32H80V31.996Z"/><path fill="#000" d="M117 22.0039L110.037 35H107.415L109.201 31.7911L104 22H105.288C106.135 22 106.906 22.4858 107.29 23.2538L110.413 29.5461L113.794 23.1127C114.155 22.4271 114.854 22 115.617 22H117V22.0039Z"/><path fill="#000" d="M79 26.9825C79 28.8772 78.4875 30.1871 77.4664 30.9123C76.4453 31.6374 74.7885 32 72.5 32C70.2115 32 68.5547 31.6374 67.5336 30.9123C66.5125 30.1871 66 28.8772 66 26.9825C66 25.0877 66.5165 23.8168 67.5455 23.0877C68.5746 22.3626 70.2274 22 72.5 22C74.7726 22 76.4254 22.3626 77.4545 23.0877C78.4835 23.8129 79 25.1111 79 26.9825ZM68.7931 26.9825C68.7931 28.1988 69.0672 29.0643 69.6235 29.575C70.1757 30.0858 71.1372 30.3392 72.504 30.3392C73.8707 30.3392 74.8322 30.0858 75.3845 29.575C75.9367 29.0643 76.2149 28.1988 76.2149 26.9825C76.2149 25.7661 75.9367 24.924 75.3845 24.4172C74.8322 23.9142 73.8707 23.6608 72.504 23.6608C71.1372 23.6608 70.1757 23.9142 69.6235 24.4172C69.0712 24.9201 68.7931 25.7778 68.7931 26.9825Z"/><path fill="#000" d="M96.6948 32H102.787C103.233 32 103.598 31.6383 103.598 31.1881V30.3079H97.5181C96.51 30.3079 95.3574 30.1953 95.008 29.1222C94.9116 28.8207 94.8434 28.1817 94.8434 27.7516H102.076C102.57 27.7516 103.04 27.6752 103.414 27.3738C103.932 26.9598 104 26.377 104 25.8706C104 24.6125 103.695 23.3706 102.237 22.6391C101.088 22.0563 99.5823 22 98.1285 22C96.9558 22 94.8394 22 93.4779 22.9405C92.1165 23.881 92 25.2516 92 27.1125C92 28.4268 92.0723 29.8014 92.8916 30.742C93.9237 31.9076 95.4257 32 96.6948 32ZM94.8394 26.0595C94.8635 25.4003 94.8394 24.8577 95.4016 24.3473C96.1526 23.672 97.2811 23.6881 98.008 23.6881C98.7831 23.6881 99.6747 23.7243 100.357 24.1383C100.755 24.3834 101.157 24.8537 101.157 25.4727C101.157 25.7339 101.084 26.0555 100.546 26.0555H96.6386C95.6466 26.0555 94.8394 26.5096 94.8394 27.0723V26.0555V26.0595Z"/><path fill="#E03" d="M20 40C31.0457 40 40 31.0457 40 20C40 8.9543 31.0457 0 20 0C8.9543 0 0 8.9543 0 20C0 31.0457 8.9543 40 20 40Z"/><path fill="#fff" d="M17.3483 7H14.6146C13.1722 7 12 8.15168 12 9.57756V29.4224C12 30.8444 13.1682 32 14.6146 32H17.3483C17.7099 32 18 31.7101 18 31.3576V29.4342C18 29.0777 17.706 28.7918 17.3483 28.7918H13.1046V10.2161H17.3483C17.7099 10.2161 18 9.9262 18 9.57364V7.65027C18 7.29379 17.706 7.00783 17.3483 7.00783V7Z"/><path fill="#fff" d="M24.3854 7H21.6517C21.2901 7 21 7.29001 21 7.64273V9.56702C21 9.92366 21.294 10.2098 21.6517 10.2098H25.8954V28.7902H21.6517C21.2901 28.7902 21 29.0803 21 29.433V31.3573C21 31.7139 21.294 32 21.6517 32H24.3854C25.8278 32 27 30.8478 27 29.4212V9.57877C27 8.15614 25.8318 7 24.3854 7Z"/></g><defs><clipPath id="clip0_13_1536"><rect width="117" height="40" fill="#fff"/></clipPath></defs></svg>