<svg width="240" height="80" viewBox="0 0 240 80" fill="none" xmlns="http://www.w3.org/2000/svg">
<path d="M123.083 37.337H124.195C124.639 37.337 124.996 36.9796 124.996 36.5358V28.2954C124.996 27.8516 124.639 27.4941 124.195 27.4941H123.083C122.639 27.4941 122.282 27.8516 122.282 28.2954V36.5358C122.282 36.9796 122.639 37.337 123.083 37.337Z" fill="#EE0033"/>
<path d="M115.342 37.447C116.013 37.447 116.803 37.4117 117.223 36.5751L121.913 27.4941H120.196C119.493 27.4941 118.908 27.9144 118.621 28.5154L115.668 34.7919C115.597 34.9411 115.46 35.1807 115.342 35.1807C115.224 35.1807 115.086 34.9411 115.016 34.7919L112.042 28.5154C111.756 27.9144 111.167 27.4941 110.467 27.4941H108.751L113.441 36.5751C113.904 37.4666 114.859 37.447 115.346 37.447" fill="#EE0033"/>
<path d="M174.705 37.337C175.149 37.337 175.507 36.9796 175.507 36.5358V35.6677H174.835C174.348 35.6677 173.327 35.6481 172.722 35.2396C171.932 34.7212 172.003 33.7903 172.003 33.1226V25.9859C172.003 25.5421 171.646 25.1846 171.202 25.1846H170.09C169.646 25.1846 169.289 25.5421 169.289 25.9859V34.1241C169.289 35.3692 169.729 36.0919 170.518 36.6104C171.284 37.1131 172.168 37.3331 173.814 37.3331H174.705V37.337Z" fill="#EE0033"/>
<path d="M140.687 34.1241C140.687 35.3692 141.127 36.0919 141.917 36.6104C142.683 37.1131 143.566 37.3331 145.212 37.3331H146.104C146.548 37.3331 146.905 36.9756 146.905 36.5318V35.6638H146.233C145.746 35.6638 144.725 35.6441 144.12 35.2357C143.331 34.7172 143.401 33.7863 143.401 33.1186V29.1634H149.065V34.1202C149.065 35.3653 149.505 36.088 150.295 36.6064C151.061 37.1092 151.944 37.3291 153.59 37.3291H154.482C154.925 37.3291 155.283 36.9717 155.283 36.5279V35.6598H154.611C154.124 35.6598 153.103 35.6402 152.498 35.2317C151.709 34.7133 151.779 33.7824 151.779 33.1147V29.1595H154.411C154.855 29.1595 155.212 28.802 155.212 28.3582V27.4902H151.775V25.9819C151.775 25.5381 151.418 25.1807 150.974 25.1807H149.863C149.419 25.1807 149.061 25.5381 149.061 25.9819V27.4902H143.398V25.9819C143.398 25.5381 143.04 25.1807 142.596 25.1807H141.485C141.041 25.1807 140.683 25.5381 140.683 25.9819V27.4902H138.991V28.3582C138.991 28.802 139.348 29.1595 139.792 29.1595H140.683V34.1162L140.687 34.1241Z" fill="#EE0033"/>
<path d="M137.808 32.7691C138.319 32.3606 138.39 31.7832 138.39 31.2844C138.39 30.0393 138.087 28.8139 136.65 28.0912C135.511 27.5138 134.026 27.4588 132.588 27.4588C131.43 27.4588 129.34 27.4588 127.993 28.3857C126.646 29.3127 126.532 30.6678 126.532 32.5099C126.532 33.8099 126.603 35.165 127.416 36.092C128.437 37.2428 129.921 37.337 131.174 37.337H137.196C137.639 37.337 137.997 36.9796 137.997 36.5358V35.6678H131.984C130.986 35.6678 129.847 35.5578 129.501 34.4973C129.407 34.1988 129.34 33.5703 129.34 33.1422H136.489C136.976 33.1422 137.439 33.0676 137.812 32.7691M134.98 31.469H131.119C130.138 31.469 129.34 31.9168 129.34 32.4706V31.469C129.364 30.8209 129.34 30.2789 129.898 29.7801C130.64 29.1124 131.756 29.132 132.475 29.132C133.24 29.132 134.124 29.1674 134.796 29.5758C135.189 29.8154 135.585 30.2828 135.585 30.8956C135.585 31.1548 135.515 31.4729 134.98 31.4729" fill="#EE0033"/>
<path d="M160.534 37.337H166.555C166.999 37.337 167.357 36.9796 167.357 36.5358V35.6678H161.347C160.35 35.6678 159.21 35.5539 158.865 34.4973C158.771 34.1988 158.704 33.5703 158.704 33.1422H165.852C166.339 33.1422 166.803 33.0676 167.176 32.7691C167.687 32.3606 167.757 31.7832 167.757 31.2844C167.757 30.0393 167.455 28.8139 166.017 28.0912C164.882 27.5138 163.394 27.4588 161.956 27.4588C160.793 27.4588 158.708 27.4588 157.361 28.3857C156.013 29.3127 155.899 30.6678 155.899 32.5099C155.899 33.8099 155.97 35.165 156.783 36.092C157.804 37.2428 159.289 37.337 160.542 37.337M158.708 31.469C158.731 30.8209 158.708 30.2789 159.265 29.7801C160.008 29.1124 161.123 29.132 161.842 29.132C162.608 29.132 163.492 29.1674 164.163 29.5758C164.556 29.8154 164.953 30.2828 164.953 30.8956C164.953 31.1548 164.882 31.4729 164.348 31.4729H160.487C159.505 31.4729 158.708 31.9207 158.708 32.4745V31.4729V31.469Z" fill="#EE0033"/>
<path d="M123.641 26.5672H124.199C124.643 26.5672 125 26.2098 125 25.7659V25.542C125 25.0982 124.643 24.7408 124.199 24.7408H123.087C122.643 24.7408 122.286 25.0982 122.286 25.542V27.4941H122.298C122.372 27.0385 122.891 26.5633 123.645 26.5633" fill="#EE0033"/>
<path d="M108.747 52.3292V44.1517C108.747 43.0362 109.43 42.4785 110.797 42.4785H121.253C122.742 42.4785 123.896 42.7338 124.713 43.2404C125.534 43.7471 125.943 44.6151 125.943 45.8445V50.8131C125.943 51.6536 125.251 52.3331 124.403 52.3331H123.28V46.4219C123.28 45.6521 123.083 45.0825 122.687 44.7133C122.29 44.3402 121.646 44.1556 120.75 44.1556H118.676V50.8642C118.676 51.6772 118.009 52.3331 117.188 52.3331H116.013V44.1556H112.097C111.642 44.1556 111.414 44.3402 111.414 44.7133V50.8602C111.414 51.6733 110.746 52.3331 109.921 52.3331H108.751L108.747 52.3292Z" fill="black"/>
<path d="M141.178 52.3292V44.1517C141.178 43.0362 141.862 42.4785 143.229 42.4785H147.467C148.955 42.4785 150.11 42.7338 150.931 43.2404C151.752 43.7471 152.16 44.6151 152.16 45.8445V52.3331H149.493V46.4219C149.493 45.6521 149.297 45.0825 148.9 44.7133C148.504 44.3402 147.859 44.1556 146.964 44.1556H144.529C144.073 44.1556 143.845 44.3402 143.845 44.7133V52.3331H141.178V52.3292Z" fill="black"/>
<path d="M178.72 42.4784L171.52 55.5067H168.81L170.656 52.2899L165.279 42.4745H166.61C167.486 42.4745 168.284 42.9615 168.68 43.7314L171.909 50.0393L175.405 43.59C175.778 42.9026 176.5 42.4745 177.29 42.4745H178.72V42.4784Z" fill="black"/>
<path d="M139.988 47.4588C139.988 49.3677 139.482 50.6874 138.472 51.4179C137.463 52.1485 135.825 52.5138 133.562 52.5138C131.3 52.5138 129.662 52.1485 128.653 51.4179C127.643 50.6874 127.137 49.3677 127.137 47.4588C127.137 45.5499 127.647 44.2695 128.665 43.535C129.682 42.8044 131.316 42.4391 133.562 42.4391C135.809 42.4391 137.443 42.8044 138.46 43.535C139.478 44.2655 139.988 45.5735 139.988 47.4588ZM129.898 47.4588C129.898 48.6842 130.169 49.5562 130.719 50.0707C131.265 50.5853 132.215 50.8406 133.566 50.8406C134.918 50.8406 135.868 50.5853 136.414 50.0707C136.96 49.5562 137.235 48.6842 137.235 47.4588C137.235 46.2333 136.96 45.3849 136.414 44.8743C135.868 44.3677 134.918 44.1124 133.566 44.1124C132.215 44.1124 131.265 44.3677 130.719 44.8743C130.173 45.381 129.898 46.2451 129.898 47.4588Z" fill="black"/>
<path d="M158.138 52.2506H164.097C164.533 52.2506 164.89 51.8971 164.89 51.4572V50.5971H158.943C157.958 50.5971 156.83 50.4871 156.489 49.4384C156.394 49.1438 156.328 48.5193 156.328 48.099H163.401C163.885 48.099 164.344 48.0244 164.709 47.7298C165.216 47.3253 165.283 46.7558 165.283 46.2609C165.283 45.0315 164.984 43.8178 163.559 43.103C162.435 42.5334 160.962 42.4785 159.54 42.4785C158.394 42.4785 156.324 42.4785 154.992 43.3975C153.661 44.3166 153.547 45.656 153.547 47.4745C153.547 48.7589 153.617 50.1022 154.419 51.0213C155.428 52.1603 156.897 52.2506 158.138 52.2506ZM156.324 46.4455C156.347 45.8013 156.324 45.2711 156.874 44.7722C157.608 44.1124 158.712 44.1281 159.423 44.1281C160.181 44.1281 161.053 44.1635 161.72 44.568C162.109 44.8076 162.502 45.2671 162.502 45.872C162.502 46.1273 162.431 46.4415 161.905 46.4415H158.083C157.113 46.4415 156.324 46.8854 156.324 47.4352V46.4415V46.4455Z" fill="black"/>
<path d="M81.2804 60C92.3261 60 101.28 51.0457 101.28 40C101.28 28.9543 92.3261 20 81.2804 20C70.2347 20 61.2804 28.9543 61.2804 40C61.2804 51.0457 70.2347 60 81.2804 60Z" fill="#EE0033"/>
<path d="M79.1004 27.4666H76.3982C74.9724 27.4666 73.8137 28.6214 73.8137 30.0511V49.9489C73.8137 51.3747 74.9685 52.5334 76.3982 52.5334H79.1004C79.4579 52.5334 79.7446 52.2427 79.7446 51.8892V49.9607C79.7446 49.6033 79.4539 49.3166 79.1004 49.3166H74.9056V30.6913H79.1004C79.4579 30.6913 79.7446 30.4006 79.7446 30.0471V28.1186C79.7446 27.7612 79.4539 27.4745 79.1004 27.4745V27.4666Z" fill="white"/>
<path d="M86.1625 27.4666H83.4602C83.1028 27.4666 82.816 27.7573 82.816 28.1108V30.0393C82.816 30.3967 83.1067 30.6834 83.4602 30.6834H87.655V49.3048H83.4602C83.1028 49.3048 82.816 49.5954 82.816 49.9489V51.8775C82.816 52.2349 83.1067 52.5216 83.4602 52.5216H86.1625C87.5882 52.5216 88.7469 51.3668 88.7469 49.9372V30.0511C88.7469 28.6253 87.5922 27.4666 86.1625 27.4666Z" fill="white"/>
</svg>
