<svg width="240" height="80" viewBox="0 0 240 80" fill="none" xmlns="http://www.w3.org/2000/svg">
<path d="M141.191 26.6244C140.788 26.0451 140.231 25.5902 139.583 25.311C138.935 25.0319 138.222 24.9397 137.524 25.045L101.4 30.122C100.693 30.2204 100.027 30.5142 99.4778 30.9702C98.9285 31.4262 98.5173 32.0263 98.2903 32.7032C98.0633 33.3801 98.0297 34.1069 98.1931 34.8018C98.3565 35.4968 98.7105 36.1324 99.2153 36.6373L121.277 58.7794C121.631 59.1378 122.052 59.4224 122.517 59.6166C122.981 59.8108 123.48 59.9108 123.983 59.9107C124.184 59.9105 124.385 59.895 124.583 59.8643C125.182 59.7742 125.75 59.5426 126.24 59.189C126.731 58.8353 127.13 58.3697 127.405 57.8307L141.47 30.6067C141.8 29.9831 141.949 29.2795 141.9 28.5756C141.85 27.8717 141.605 27.1958 141.191 26.6244ZM141.116 30.424L127.053 57.6442C126.807 58.1271 126.449 58.5442 126.009 58.8609C125.569 59.1775 125.059 59.3844 124.523 59.4645C124.345 59.4917 124.165 59.5056 123.984 59.506C123.533 59.5059 123.087 59.4163 122.671 59.2422C122.255 59.0682 121.878 58.8132 121.562 58.4921L99.4976 36.347C99.0467 35.8945 98.7308 35.3253 98.5853 34.7033C98.4397 34.0813 98.4703 33.431 98.6735 32.8254C98.8768 32.2198 99.2446 31.6828 99.736 31.2745C100.227 30.8662 100.823 30.6028 101.455 30.5139L137.581 25.4388C137.747 25.4157 137.916 25.4041 138.084 25.4043C138.672 25.4088 139.249 25.5639 139.76 25.8549C140.271 26.1459 140.699 26.563 141.003 27.0664C141.308 27.5699 141.477 28.1428 141.497 28.7306C141.517 29.3184 141.385 29.9014 141.116 30.424Z" fill="#EE0033"/>
<path d="M136.992 26.1911L102.252 31.0756C101.675 31.156 101.133 31.3955 100.685 31.7671C100.237 32.1387 99.9018 32.6278 99.7164 33.1795C99.5311 33.7312 99.5031 34.3236 99.6357 34.8902C99.7683 35.4569 100.056 35.9754 100.467 36.3875L121.691 57.6797C121.979 57.9724 122.323 58.2048 122.702 58.3632C123.081 58.5217 123.488 58.6031 123.898 58.6027C124.064 58.6028 124.229 58.5903 124.392 58.5652C124.88 58.4925 125.344 58.3042 125.745 58.0159C126.146 57.7276 126.472 57.3476 126.696 56.9078L140.22 30.731C140.484 30.2205 140.603 29.6472 140.563 29.0738C140.523 28.5004 140.326 27.9491 139.994 27.4802C139.661 27.0113 139.206 26.6429 138.678 26.4154C138.15 26.1878 137.57 26.1099 137.001 26.1901L136.992 26.1911ZM139.855 30.5464L126.331 56.7241C126.133 57.1064 125.848 57.4367 125.499 57.688C125.15 57.9393 124.746 58.1045 124.321 58.1702C123.895 58.2359 123.46 58.2003 123.052 58.0662C122.643 57.932 122.271 57.7032 121.968 57.3984L100.751 36.1052C100.393 35.7458 100.142 35.2938 100.026 34.7997C99.9103 34.3057 99.9344 33.7891 100.096 33.308C100.257 32.8268 100.549 32.4001 100.939 32.0755C101.329 31.751 101.802 31.5414 102.304 31.4704L137.046 26.5859C137.177 26.5672 137.309 26.5576 137.441 26.5573C137.909 26.561 138.367 26.6843 138.773 26.9155C139.179 27.1467 139.519 27.4781 139.761 27.878C140.002 28.2779 140.137 28.7331 140.153 29.2001C140.169 29.6671 140.064 30.1302 139.85 30.5455L139.855 30.5464Z" fill="#EE0033"/>
<path d="M136.317 27.3579L103.252 32.0035C102.791 32.067 102.357 32.2581 101.998 32.5552C101.64 32.8522 101.372 33.2434 101.224 33.6847C101.076 34.126 101.054 34.5998 101.161 35.0527C101.268 35.5057 101.5 35.9198 101.829 36.2483L122.023 56.5148C122.253 56.7484 122.527 56.9338 122.829 57.0602C123.132 57.1867 123.456 57.2516 123.784 57.2513C123.916 57.2511 124.048 57.2409 124.179 57.2207C124.568 57.1616 124.938 57.0102 125.257 56.7793C125.576 56.5483 125.836 56.2444 126.014 55.8929L138.886 30.9808C139.096 30.5736 139.19 30.1164 139.158 29.6592C139.127 29.202 138.969 28.7624 138.705 28.3884C138.44 28.0144 138.077 27.7205 137.656 27.5387C137.235 27.357 136.773 27.2944 136.319 27.3579H136.317ZM138.53 30.7972L125.659 55.7162C125.508 56.0106 125.289 56.265 125.02 56.4586C124.751 56.6521 124.441 56.7794 124.113 56.8299C123.786 56.8804 123.451 56.8528 123.137 56.7494C122.822 56.6459 122.537 56.4694 122.303 56.2345L102.113 35.965C101.836 35.6891 101.642 35.3414 101.552 34.961C101.462 34.5807 101.48 34.1828 101.604 33.8121C101.728 33.4415 101.952 33.1128 102.253 32.863C102.554 32.6132 102.918 32.4523 103.305 32.3984L136.369 27.7587C136.471 27.744 136.574 27.7368 136.676 27.7369C137.035 27.7398 137.388 27.8347 137.7 28.0124C138.012 28.1901 138.273 28.4448 138.459 28.7521C138.644 29.0595 138.748 29.4093 138.76 29.7682C138.772 30.127 138.692 30.483 138.527 30.8021L138.53 30.7972Z" fill="#EE0033"/>
<path d="M135.785 28.506L104.108 32.9601C103.778 33.0062 103.468 33.1432 103.211 33.3559C102.955 33.5686 102.763 33.8485 102.657 34.1641C102.551 34.4798 102.535 34.8187 102.611 35.1429C102.687 35.4671 102.852 35.7637 103.087 35.9995L122.435 55.4201C122.6 55.5873 122.797 55.72 123.014 55.8105C123.231 55.901 123.463 55.9475 123.698 55.9472C123.792 55.9472 123.886 55.9399 123.978 55.9255C124.258 55.8837 124.524 55.7756 124.754 55.6103C124.984 55.4449 125.171 55.2271 125.299 54.9749L137.627 31.1032C137.778 30.8111 137.846 30.4831 137.823 30.1551C137.8 29.8271 137.687 29.5117 137.497 29.2435C137.307 28.9753 137.046 28.7646 136.744 28.6345C136.442 28.5045 136.11 28.46 135.785 28.506ZM137.271 30.9176L124.937 54.7922C124.836 54.9871 124.691 55.1554 124.513 55.2835C124.335 55.4115 124.129 55.4957 123.913 55.5292C123.696 55.5627 123.474 55.5445 123.266 55.4762C123.058 55.4078 122.869 55.2911 122.714 55.1358L103.365 35.7152C103.183 35.5318 103.056 35.3013 102.997 35.0495C102.939 34.7977 102.952 34.5346 103.034 34.2897C103.117 34.0448 103.266 33.8277 103.465 33.6628C103.664 33.4978 103.905 33.3916 104.161 33.3559L135.842 28.9018C136.095 28.8656 136.353 28.8997 136.588 29.0004C136.823 29.1011 137.025 29.2645 137.174 29.4727C137.322 29.6809 137.41 29.9258 137.428 30.1807C137.446 30.4356 137.394 30.6905 137.277 30.9176H137.271Z" fill="#EE0033"/>
<path d="M135.254 29.654L104.954 33.9136C104.754 33.942 104.566 34.0253 104.412 34.1542C104.257 34.2831 104.141 34.4526 104.077 34.6437C104.013 34.8347 104.003 35.0399 104.049 35.2361C104.095 35.4323 104.195 35.6119 104.337 35.7547L122.841 54.3243C122.941 54.4256 123.06 54.506 123.192 54.5609C123.323 54.6158 123.464 54.6441 123.606 54.6441C123.663 54.644 123.719 54.6397 123.775 54.6313C123.944 54.6064 124.104 54.5415 124.243 54.4421C124.382 54.3427 124.495 54.2116 124.573 54.0597L136.368 31.2285C136.459 31.0518 136.499 30.8536 136.485 30.6556C136.47 30.4576 136.402 30.2672 136.287 30.1053C136.172 29.9434 136.015 29.816 135.833 29.7372C135.651 29.6583 135.45 29.6309 135.254 29.6579V29.654ZM136.013 31.042L124.218 53.8731C124.169 53.9689 124.097 54.0517 124.01 54.1147C123.922 54.1776 123.821 54.219 123.715 54.2355C123.608 54.2519 123.499 54.243 123.397 54.2093C123.295 54.1757 123.201 54.1184 123.125 54.042L104.62 35.4704C104.53 35.3802 104.467 35.2669 104.438 35.143C104.409 35.0191 104.415 34.8896 104.456 34.7689C104.496 34.6483 104.57 34.5413 104.668 34.46C104.765 34.3787 104.884 34.3262 105.01 34.3085L135.309 30.0489C135.433 30.0315 135.56 30.0486 135.675 30.0984C135.791 30.1481 135.89 30.2286 135.963 30.331C136.035 30.4333 136.078 30.5537 136.087 30.6789C136.096 30.8041 136.07 30.9294 136.013 31.041V31.042Z" fill="#EE0033"/>
<path d="M134.044 30.8969L106.506 34.7676C106.371 34.7862 106.244 34.842 106.14 34.9287C106.035 35.0155 105.957 35.1297 105.913 35.2585C105.87 35.3873 105.864 35.5257 105.895 35.658C105.926 35.7903 105.993 35.9113 106.089 36.0074L122.907 52.888C122.975 52.9559 123.055 53.0097 123.143 53.0465C123.231 53.0833 123.326 53.1022 123.422 53.1022C123.46 53.1021 123.498 53.0991 123.536 53.0933C123.65 53.0764 123.759 53.0325 123.852 52.9651C123.946 52.8978 124.022 52.8091 124.074 52.7063L134.792 31.9561C134.853 31.837 134.881 31.7033 134.871 31.5696C134.862 31.436 134.816 31.3075 134.738 31.1982C134.661 31.0889 134.555 31.003 134.432 30.9499C134.309 30.8967 134.173 30.8784 134.041 30.8969H134.044ZM134.438 31.7725L123.721 52.5217C123.697 52.5681 123.662 52.6081 123.62 52.6385C123.578 52.669 123.529 52.689 123.477 52.697C123.426 52.705 123.373 52.7007 123.324 52.6845C123.274 52.6683 123.229 52.6406 123.193 52.6037L106.378 35.7251C106.335 35.6814 106.305 35.6266 106.291 35.5668C106.277 35.507 106.28 35.4444 106.299 35.3862C106.319 35.3279 106.354 35.2763 106.402 35.2369C106.449 35.1976 106.506 35.1721 106.567 35.1634L134.1 31.2927C134.116 31.2917 134.132 31.2917 134.148 31.2927C134.205 31.2925 134.261 31.307 134.311 31.3347C134.361 31.3625 134.403 31.4026 134.432 31.4512C134.462 31.4998 134.479 31.5553 134.481 31.6123C134.483 31.6692 134.47 31.7258 134.444 31.7764L134.438 31.7725Z" fill="#EE0033"/>
<path d="M138.398 35.1042C137.921 34.3417 137.261 33.7112 136.477 33.271L126.615 27.6985L114.037 20.5909C110.868 18.8001 106.999 21.3312 107.37 24.9512L107.921 30.3253L109.815 48.811L110.464 55.1437C110.917 59.5701 116.229 61.577 119.496 58.5573L119.511 58.5425L132.481 46.5603L137.485 41.9354C138.409 41.0816 139.006 39.9317 139.173 38.6844C139.34 37.4371 139.066 36.1708 138.398 35.1042Z" fill="#EE0033"/>
<path d="M126.405 37.1861C126.258 37.1861 126.117 37.2444 126.013 37.3483C125.909 37.4522 125.851 37.593 125.851 37.7399V38.2226C125.337 37.7222 124.687 37.3843 123.983 37.2513C123.278 37.1183 122.55 37.1961 121.889 37.4749C121.228 37.7536 120.664 38.2211 120.268 38.8187C119.871 39.4163 119.66 40.1175 119.66 40.8347C119.66 41.5518 119.871 42.2531 120.268 42.8507C120.664 43.4483 121.228 43.9157 121.889 44.1945C122.55 44.4733 123.278 44.551 123.983 44.418C124.687 44.285 125.337 43.9471 125.851 43.4467V43.9265C125.851 44.0735 125.909 44.2145 126.013 44.3184C126.117 44.4224 126.258 44.4808 126.405 44.4808C126.552 44.4808 126.693 44.4224 126.797 44.3184C126.901 44.2145 126.96 44.0735 126.96 43.9265V37.7409C126.96 37.594 126.901 37.4531 126.797 37.3493C126.693 37.2454 126.553 37.1871 126.406 37.1871L126.405 37.1861ZM123.313 43.3697C122.725 43.3703 122.155 43.1671 121.701 42.7947C121.246 42.4223 120.935 41.9037 120.819 41.3274C120.704 40.7511 120.793 40.1526 121.069 39.6341C121.346 39.1155 121.794 38.709 122.337 38.4837C122.88 38.2585 123.484 38.2284 124.046 38.3987C124.609 38.569 125.095 38.9291 125.422 39.4177C125.748 39.9062 125.895 40.493 125.838 41.0779C125.781 41.6628 125.522 42.2097 125.107 42.6254C124.871 42.8612 124.592 43.0483 124.284 43.176C123.976 43.3037 123.646 43.3695 123.313 43.3697Z" fill="white"/>
<path d="M115.263 37.1861C114.313 37.1863 113.401 37.5583 112.723 38.2226V37.7438C112.723 37.5968 112.664 37.4559 112.56 37.3519C112.456 37.248 112.315 37.1896 112.168 37.1896C112.021 37.1896 111.88 37.248 111.776 37.3519C111.673 37.4559 111.614 37.5968 111.614 37.7438V46.4359C111.614 46.5829 111.673 46.7238 111.776 46.8278C111.88 46.9317 112.021 46.9901 112.168 46.9901C112.315 46.9901 112.456 46.9317 112.56 46.8278C112.664 46.7238 112.723 46.5829 112.723 46.4359V43.4437C113.151 43.8585 113.674 44.1617 114.247 44.3269C114.82 44.492 115.425 44.514 116.008 44.391C116.591 44.2679 117.135 44.0035 117.593 43.6211C118.05 43.2386 118.406 42.7497 118.63 42.1974C118.855 41.645 118.94 41.0461 118.878 40.4531C118.817 39.8601 118.611 39.2913 118.279 38.7965C117.946 38.3017 117.497 37.8961 116.971 37.6154C116.446 37.3346 115.859 37.1872 115.263 37.1861ZM115.263 43.3697C114.675 43.3699 114.105 43.1663 113.651 42.7935C113.197 42.4208 112.886 41.902 112.771 41.3256C112.656 40.7492 112.745 40.1509 113.022 39.6325C113.299 39.1142 113.747 38.708 114.29 38.4831C114.833 38.2582 115.437 38.2285 115.999 38.3992C116.562 38.5699 117.048 38.9302 117.374 39.419C117.701 39.9077 117.847 40.4945 117.79 41.0793C117.732 41.6642 117.473 42.2109 117.057 42.6264C116.822 42.862 116.542 43.049 116.234 43.1765C115.926 43.3041 115.596 43.3697 115.263 43.3697Z" fill="white"/>
<path d="M134.532 37.2611C134.469 37.2247 134.4 37.2009 134.327 37.1914C134.255 37.1818 134.182 37.1866 134.112 37.2053C134.041 37.2241 133.975 37.2566 133.918 37.3009C133.86 37.3452 133.811 37.4005 133.775 37.4635L131.215 41.8988L128.649 37.4635C128.612 37.4005 128.564 37.3453 128.506 37.301C128.448 37.2567 128.383 37.2242 128.312 37.2054C128.242 37.1865 128.169 37.1817 128.097 37.1912C128.025 37.2007 127.955 37.2243 127.892 37.2606C127.829 37.297 127.774 37.3454 127.73 37.4031C127.685 37.4608 127.653 37.5267 127.634 37.597C127.615 37.6672 127.61 37.7405 127.62 37.8126C127.629 37.8847 127.653 37.9543 127.689 38.0173L130.571 43.0064L128.751 46.1585C128.683 46.2856 128.667 46.4344 128.707 46.5731C128.746 46.7119 128.839 46.8297 128.964 46.9016C129.089 46.9736 129.237 46.9939 129.377 46.9584C129.517 46.9228 129.637 46.8342 129.713 46.7113L134.732 38.0163C134.805 37.8893 134.825 37.7384 134.787 37.5968C134.768 37.5266 134.736 37.4609 134.691 37.4033C134.647 37.3457 134.592 37.2974 134.529 37.2611H134.532Z" fill="white"/>
<path d="M124.56 40.7804C124.082 40.6125 123.532 40.0627 123.368 39.5849C123.364 39.5754 123.357 39.5674 123.348 39.5618C123.339 39.5562 123.329 39.5532 123.319 39.5532C123.308 39.5532 123.298 39.5562 123.29 39.5618C123.281 39.5674 123.274 39.5754 123.27 39.5849C123.102 40.0647 122.556 40.6125 122.075 40.7804C122.065 40.7844 122.057 40.7912 122.051 40.8C122.045 40.8088 122.042 40.8191 122.042 40.8297C122.042 40.8403 122.045 40.8507 122.051 40.8595C122.057 40.8682 122.065 40.8751 122.075 40.8791C122.555 41.0469 123.102 41.5928 123.27 42.0745C123.274 42.0843 123.28 42.0927 123.289 42.0986C123.298 42.1045 123.308 42.1077 123.319 42.1077C123.329 42.1077 123.34 42.1045 123.349 42.0986C123.357 42.0927 123.364 42.0843 123.368 42.0745C123.536 41.5948 124.082 41.0469 124.564 40.8791C124.573 40.8751 124.582 40.8682 124.588 40.8595C124.594 40.8507 124.597 40.8403 124.597 40.8297C124.597 40.8191 124.594 40.8088 124.588 40.8C124.582 40.7912 124.573 40.7844 124.564 40.7804H124.56Z" fill="white"/>
<path d="M115.577 33.5829H115.293C115.239 33.5829 115.187 33.6046 115.148 33.6431C115.11 33.6816 115.088 33.7338 115.088 33.7883V35.8919C115.088 35.9464 115.11 35.9986 115.148 36.0371C115.187 36.0756 115.239 36.0973 115.293 36.0973H115.577C115.631 36.0973 115.683 36.0756 115.722 36.0371C115.76 35.9986 115.782 35.9464 115.782 35.8919V33.7873C115.782 33.733 115.76 33.681 115.721 33.6427C115.683 33.6044 115.631 33.5829 115.577 33.5829Z" fill="white"/>
<path d="M113.315 36.1249C113.487 36.1249 113.688 36.115 113.796 35.9018L114.993 33.5829H114.556C114.471 33.5836 114.388 33.6086 114.316 33.6549C114.245 33.7013 114.188 33.7671 114.153 33.8445L113.399 35.4477C113.381 35.4852 113.346 35.5464 113.315 35.5464C113.284 35.5464 113.25 35.4852 113.232 35.4477L112.472 33.8445C112.437 33.7672 112.38 33.7014 112.309 33.655C112.238 33.6087 112.155 33.5837 112.07 33.5829H111.631L112.828 35.9018C112.948 36.1288 113.19 36.1249 113.315 36.1249Z" fill="white"/>
<path d="M128.477 36.0963C128.531 36.096 128.583 36.0743 128.621 36.0358C128.66 35.9973 128.681 35.9453 128.681 35.891V35.6689H128.509C128.384 35.6689 128.123 35.6639 127.969 35.5593C127.772 35.426 127.786 35.1891 127.786 35.0183V33.197C127.785 33.1431 127.763 33.0918 127.724 33.054C127.686 33.0162 127.634 32.9949 127.58 32.9946H127.295C127.241 32.9946 127.188 33.0163 127.15 33.0548C127.111 33.0933 127.09 33.1455 127.09 33.2V35.2799C127.09 35.5978 127.202 35.7794 127.404 35.9157C127.605 36.0519 127.825 36.1003 128.246 36.1003L128.477 36.0963Z" fill="white"/>
<path d="M119.789 35.2789C119.789 35.5968 119.901 35.7784 120.103 35.9146C120.304 36.0509 120.524 36.0992 120.945 36.0992H121.173C121.227 36.099 121.279 36.0772 121.317 36.0387C121.356 36.0003 121.377 35.9482 121.377 35.8939V35.6718H121.205C121.08 35.6718 120.819 35.6668 120.665 35.5622C120.468 35.4289 120.482 35.192 120.482 35.0212V34.0094H121.928V35.2799C121.928 35.5977 122.041 35.7794 122.243 35.9156C122.445 36.0518 122.663 36.1002 123.085 36.1002H123.313C123.367 36.1002 123.42 36.0786 123.458 36.0401C123.497 36.0016 123.518 35.9493 123.518 35.8949V35.6728H123.347C123.222 35.6728 122.961 35.6678 122.807 35.5632C122.609 35.4299 122.623 35.193 122.623 35.0222V34.0094H123.297C123.324 34.0094 123.351 34.0041 123.376 33.9938C123.401 33.9835 123.423 33.9683 123.442 33.9493C123.461 33.9302 123.477 33.9076 123.487 33.8826C123.497 33.8577 123.503 33.831 123.503 33.8041V33.5829H122.624V33.1979C122.624 33.1435 122.602 33.0913 122.564 33.0528C122.525 33.0142 122.473 32.9926 122.419 32.9926H122.133C122.079 32.9926 122.027 33.0142 121.988 33.0528C121.95 33.0913 121.928 33.1435 121.928 33.1979V33.5829H120.483V33.1979C120.483 33.1435 120.461 33.0913 120.423 33.0528C120.384 33.0142 120.332 32.9926 120.277 32.9926H119.992C119.938 32.9926 119.886 33.0142 119.847 33.0528C119.809 33.0913 119.787 33.1435 119.787 33.1979V33.5829H119.354V33.8051C119.354 33.8595 119.376 33.9117 119.415 33.9502C119.453 33.9888 119.505 34.0104 119.56 34.0104H119.788L119.789 35.2789Z" fill="white"/>
<path d="M119.054 34.9294C119.107 34.8822 119.148 34.8232 119.174 34.7571C119.2 34.6911 119.209 34.6199 119.202 34.5494C119.202 34.2315 119.125 33.9186 118.757 33.734C118.467 33.5869 118.088 33.5731 117.72 33.5731C117.424 33.5731 116.891 33.5731 116.547 33.81C116.203 34.0469 116.173 34.3934 116.173 34.8633C116.173 35.195 116.191 35.5415 116.399 35.7784C116.66 36.0745 117.042 36.0963 117.359 36.0963H118.897C118.952 36.0963 119.004 36.0746 119.043 36.0361C119.081 35.9976 119.103 35.9454 119.103 35.8909V35.6688H117.567C117.312 35.6688 117.021 35.6402 116.932 35.3727C116.905 35.2592 116.891 35.1429 116.891 35.0262H118.718C118.838 35.0336 118.957 34.9994 119.054 34.9294ZM118.331 34.5977H117.344C117.093 34.5977 116.89 34.7123 116.89 34.8544V34.5977C116.895 34.4309 116.89 34.2947 117.033 34.1693C117.222 33.9985 117.508 34.0035 117.691 34.0035C117.875 34.0035 118.112 34.0123 118.283 34.117C118.342 34.152 118.391 34.2013 118.425 34.2601C118.46 34.3189 118.479 34.3855 118.481 34.4536C118.485 34.5168 118.467 34.5977 118.331 34.5977Z" fill="white"/>
<path d="M124.858 36.0963H126.396C126.45 36.0963 126.503 36.0746 126.541 36.0361C126.58 35.9976 126.601 35.9454 126.601 35.8909V35.6688H125.065C124.811 35.6688 124.519 35.6402 124.43 35.3727C124.403 35.2592 124.389 35.1429 124.389 35.0262H126.215C126.336 35.0335 126.456 34.9986 126.554 34.9275C126.607 34.8803 126.648 34.8212 126.673 34.7552C126.699 34.6891 126.709 34.6179 126.702 34.5474C126.702 34.2295 126.625 33.9166 126.257 33.732C125.967 33.5849 125.587 33.5711 125.22 33.5711C124.924 33.5711 124.39 33.5711 124.046 33.808C123.703 34.0449 123.673 34.3914 123.673 34.8613C123.673 35.193 123.69 35.5395 123.898 35.7764C124.158 36.0726 124.542 36.0963 124.858 36.0963ZM124.39 34.5968C124.396 34.4299 124.39 34.2937 124.533 34.1683C124.723 33.9976 125.008 34.0025 125.192 34.0025C125.375 34.0025 125.613 34.0114 125.784 34.116C125.842 34.1511 125.891 34.2003 125.926 34.2591C125.96 34.3179 125.979 34.3845 125.981 34.4526C125.981 34.5188 125.964 34.5997 125.827 34.5997H124.84C124.589 34.5997 124.386 34.7142 124.386 34.8564L124.39 34.5968Z" fill="white"/>
<path d="M115.435 33.345H115.579C115.605 33.345 115.632 33.3397 115.657 33.3294C115.682 33.3191 115.704 33.3039 115.723 33.2848C115.742 33.2658 115.757 33.2431 115.768 33.2182C115.778 33.1933 115.783 33.1666 115.783 33.1397V33.0834C115.783 33.0292 115.761 32.9771 115.723 32.9386C115.685 32.9001 115.633 32.8784 115.579 32.8781H115.292C115.238 32.8781 115.186 32.8997 115.147 32.9383C115.109 32.9768 115.087 33.029 115.087 33.0834V33.583C115.11 33.5098 115.156 33.4465 115.22 33.4033C115.283 33.3601 115.359 33.3396 115.435 33.345Z" fill="white"/>
</svg>
