<svg width="40" height="40" viewBox="0 0 40 40" fill="none" xmlns="http://www.w3.org/2000/svg">
<g clip-path="url(#clip0_13_1559)">
<path d="M20 40C31.0457 40 40 31.0457 40 20C40 8.9543 31.0457 0 20 0C8.9543 0 0 8.9543 0 20C0 31.0457 8.9543 40 20 40Z" fill="#EE0033"/>
<path d="M17.8201 7.46661H15.1178C13.6921 7.46661 12.5334 8.62137 12.5334 10.0511V29.9489C12.5334 31.3747 13.6881 32.5334 15.1178 32.5334H17.8201C18.1775 32.5334 18.4643 32.2427 18.4643 31.8892V29.9607C18.4643 29.6033 18.1736 29.3166 17.8201 29.3166H13.6253V10.6913H17.8201C18.1775 10.6913 18.4643 10.4006 18.4643 10.0471V8.11862C18.4643 7.76119 18.1736 7.47447 17.8201 7.47447V7.46661Z" fill="white"/>
<path d="M24.8822 7.46661H22.1799C21.8225 7.46661 21.5358 7.75727 21.5358 8.11076V10.0393C21.5358 10.3967 21.8264 10.6834 22.1799 10.6834H26.3747V29.3048H22.1799C21.8225 29.3048 21.5358 29.5954 21.5358 29.9489V31.8775C21.5358 32.2349 21.8264 32.5216 22.1799 32.5216H24.8822C26.308 32.5216 27.4666 31.3668 27.4666 29.9372V10.0511C27.4666 8.62529 26.3119 7.46661 24.8822 7.46661Z" fill="white"/>
</g>
<defs>
<clipPath id="clip0_13_1559">
<rect width="40" height="40" fill="white"/>
</clipPath>
</defs>
</svg>
