<svg width="40" height="40" viewBox="0 0 40 40" fill="none" xmlns="http://www.w3.org/2000/svg">
<path d="M18.44 2.62203C19.5586 2.28074 20.7136 2.03413 21.8863 2.00603C23.2941 1.95609 24.6968 2.22039 26.036 2.64284C27.5031 3.11629 28.8381 3.93832 30.0035 4.94036C30.2616 5.16407 30.5144 5.39715 30.7184 5.6729C31.6049 4.99863 32.9649 5.08707 33.7578 5.8706C35.5819 7.68946 37.4039 9.51249 39.2238 11.3355C39.7326 11.8475 39.9688 12.5665 40 13.2761C39.9979 16.1543 40.0021 19.0334 39.9979 21.9116C39.9719 22.7492 39.5703 23.5338 38.9366 24.0759C34.9274 28.083 30.9192 32.0901 26.9131 36.1004C26.5614 36.4687 26.1452 36.8194 25.6281 36.9109C25.0631 37.0951 24.4491 36.9723 23.9216 36.733C23.2192 36.3157 22.7458 35.6227 22.1256 35.1046C21.6397 35.6051 21.1496 36.1035 20.6449 36.5842C19.9821 37.194 18.8552 37.143 18.2434 36.4854C12.3279 30.572 6.41034 24.6596 0.501116 18.741C-0.178356 18.0897 -0.162748 16.9024 0.522967 16.2614C4.0941 12.6882 7.66523 9.11604 11.2384 5.54595C11.9013 4.8415 13.1073 4.87792 13.7649 5.57092C15.0489 4.22863 16.6732 3.19849 18.44 2.62203ZM14.5068 6.12345C14.7534 6.39191 15.0208 6.63956 15.2695 6.90594C15.7325 6.48035 16.2018 6.05998 16.7273 5.71244C18.5826 4.44298 20.8874 3.86132 23.1224 4.07671C25.369 4.27857 27.5354 5.2931 29.117 6.90281C29.3886 6.66557 29.631 6.39711 29.9005 6.15779C27.6873 3.82074 24.3399 2.66678 21.1517 2.9883C18.6575 3.21202 16.2747 4.35661 14.5068 6.12345ZM18.0696 5.94968C17.7928 6.06414 17.6045 6.34508 17.2902 6.37214C17.1602 6.67806 16.7491 6.73945 16.5317 6.97981C16.3974 7.1515 16.2341 7.29614 16.0738 7.44285C16.6107 7.03704 17.1019 6.56048 17.7116 6.26288C18.8042 5.56572 20.0768 5.20986 21.3535 5.04025C23.6781 4.83942 26.0994 5.54907 27.8788 7.07554C28.0151 7.21393 28.1254 7.41164 28.3366 7.43973C27.9006 6.96629 27.3543 6.60938 26.8174 6.26184L26.7914 6.16195C26.421 6.06726 26.0453 5.88204 25.7498 5.64688C25.1161 5.49392 24.5199 5.19009 23.8644 5.11205C23.2442 4.98614 22.6147 4.97053 21.9851 4.9851C20.621 4.95284 19.2922 5.37842 18.0696 5.94968ZM11.9002 6.20877C8.41338 9.69146 4.93173 13.1783 1.44489 16.661C1.2014 16.9014 0.890278 17.1573 0.917332 17.5382C0.920453 17.9398 1.27632 18.1833 1.52501 18.4476C7.31769 24.2372 13.1073 30.0298 18.8989 35.8194C19.1767 36.1472 19.7282 36.1919 20.032 35.8777C20.7427 35.1795 21.4409 34.4677 22.1485 33.7664C22.6792 34.3304 23.2431 34.8632 23.7842 35.4178C23.9944 35.63 24.2046 35.8631 24.4928 35.9682C25.0162 36.1846 25.6614 36.0556 26.0495 35.6394C30.2096 31.4783 34.3717 27.3172 38.5328 23.156C38.8887 22.8043 39.0791 22.3038 39.0635 21.8054C39.0635 19.0667 39.0604 16.328 39.0635 13.5883C39.1031 13.0191 38.9771 12.4104 38.5589 11.9963C36.7389 10.1753 34.919 8.35228 33.096 6.53446C32.5695 5.99754 31.6153 6.02044 31.1034 6.56568C28.1545 9.51145 25.2108 12.4614 22.2598 15.4061C19.2766 12.4208 16.2903 9.43861 13.3091 6.45226C13.1052 6.25664 12.9148 6.00275 12.6151 5.96217C12.3518 5.91326 12.0792 6.01315 11.8992 6.20877H11.9002ZM16.6243 8.25447C16.8969 8.48756 17.1081 8.80596 17.4109 8.9943C18.5867 7.86635 20.1475 7.13381 21.7833 7.04745C23.6999 6.91634 25.6541 7.652 27.0057 9.01823C27.2794 8.77682 27.5239 8.50733 27.7882 8.2576C26.2711 6.69262 24.0631 5.84979 21.8915 5.94448C19.929 6.01627 17.9978 6.84662 16.6243 8.25447ZM28.4594 7.5802C28.4375 7.72172 28.4937 7.77999 28.6311 7.75293C28.6571 7.61038 28.5998 7.55211 28.4594 7.5802ZM6.00973 10.1732C6.22616 10.4677 6.51752 10.6945 6.75164 10.9734C7.32393 10.4802 7.97843 10.0577 8.72762 9.90165C10.0491 9.58949 11.5173 10.0015 12.4673 10.9755C12.742 10.7351 12.9876 10.4635 13.255 10.2149C12.2186 9.13477 10.6734 8.58849 9.18858 8.72272C7.99612 8.81012 6.87858 9.36473 6.00973 10.1732ZM7.33434 11.7278C8.12411 12.5082 8.89931 13.3032 9.69428 14.0784C10.456 13.3063 11.2218 12.5373 11.996 11.7777C11.38 11.2013 10.5996 10.7185 9.72654 10.7393C8.82439 10.6727 7.96178 11.1045 7.33434 11.7278Z" fill="white"/>
<path d="M8.31976 10.5073C9.03357 9.85696 9.66622 9.1213 10.3936 8.48657C16.258 14.3979 22.1662 20.2676 28.0474 26.1633C28.2024 26.3443 28.4324 26.4775 28.5322 26.696C27.8694 27.3901 27.1847 28.0654 26.4959 28.7344C20.5055 22.7253 14.4974 16.7339 8.49978 10.7321C8.4363 10.6592 8.37595 10.5843 8.31976 10.5073ZM9.63188 10.5385C15.255 16.1626 20.8853 21.7805 26.5053 27.4077C26.7498 27.1663 26.9912 26.9229 27.2357 26.6814C21.6199 21.0573 15.9937 15.4436 10.3884 9.81118C10.1126 10.0276 9.88369 10.295 9.63188 10.5385Z" fill="white"/>
<path d="M14.5068 6.12338C16.2747 4.35655 18.6575 3.21195 21.1517 2.98824C24.3399 2.66671 27.6873 3.82067 29.9005 6.15772C29.631 6.39704 29.3886 6.6655 29.117 6.90275C27.5354 5.29303 25.369 4.2785 23.1224 4.07664C20.8874 3.86125 18.5826 4.44291 16.7273 5.71237C16.2018 6.05991 15.7325 6.48029 15.2695 6.90587C15.0208 6.63949 14.7534 6.39184 14.5068 6.12338Z" fill="#1561AC"/>
<path d="M11.9003 6.20874C12.0803 6.01312 12.3529 5.91323 12.6161 5.96213C12.9158 6.00271 13.1062 6.2566 13.3102 6.45223C16.2913 9.43857 19.2777 12.4208 22.2609 15.4061C24.9465 18.0927 27.6343 20.7784 30.3199 23.465C30.5249 23.6742 30.7496 23.8667 30.9286 24.1008C31.1513 24.4057 31.0836 24.8583 30.8058 25.106C27.9214 27.9945 25.0329 30.8779 22.1485 33.7664C21.441 34.4677 20.7428 35.1794 20.0321 35.8776C19.7282 36.1919 19.1767 36.1471 18.8989 35.8194C13.1073 30.0298 7.31772 24.2371 1.52504 18.4476C1.27635 18.1833 0.920482 17.9398 0.917361 17.5381C0.890307 17.1573 1.20143 16.9013 1.44491 16.661C4.93176 13.1783 8.41341 9.69142 11.9003 6.20874ZM8.31976 10.5072C8.37595 10.5842 8.4363 10.6591 8.49977 10.732C14.4974 16.7338 20.5055 22.7252 26.4959 28.7343C27.1847 28.0653 27.8694 27.39 28.5322 26.6959C28.4323 26.4774 28.2024 26.3442 28.0473 26.1632C22.1662 20.2675 16.258 14.3978 10.3936 8.48648C9.66622 9.12121 9.03357 9.85687 8.31976 10.5072Z" fill="#1561AC"/>
<path d="M16.6243 8.25445C17.9978 6.8466 19.929 6.01625 21.8915 5.94446C24.0631 5.84977 26.2711 6.6926 27.7882 8.25758C27.5239 8.50731 27.2794 8.7768 27.0057 9.01821C25.6541 7.65198 23.6999 6.91632 21.7833 7.04743C20.1475 7.13379 18.5867 7.86633 17.4109 8.99428C17.1081 8.80594 16.8969 8.48753 16.6243 8.25445Z" fill="#1561AC"/>
<path d="M18.5867 10.1753C19.4556 9.36685 20.5731 8.81224 21.7656 8.72483C23.2504 8.5906 24.7956 9.13689 25.832 10.217C25.5646 10.4657 25.319 10.7372 25.0443 10.9776C24.0943 10.0037 22.6261 9.5916 21.3046 9.90377C20.5554 10.0598 19.9009 10.4823 19.3286 10.9755C19.0945 10.6967 18.8032 10.4698 18.5867 10.1753Z" fill="#1561AC"/>
<path d="M31.1044 6.56571C31.6164 6.02047 32.5705 5.99758 33.0971 6.5345C34.9201 8.35232 36.74 10.1753 38.5599 11.9963C38.9782 12.4104 39.1041 13.0191 39.0645 13.5883C39.0604 16.3281 39.0645 19.0668 39.0645 21.8055C39.0802 22.3039 38.8897 22.8044 38.5339 23.1561C34.3728 27.3172 30.2106 31.4783 26.0505 35.6394C25.6624 36.0556 25.0173 36.1847 24.4939 35.9682C24.2056 35.8631 23.9955 35.6301 23.7853 35.4178C23.2442 34.8632 22.6802 34.3304 22.1495 33.7665C25.0339 30.8779 27.9225 27.9946 30.8068 25.106C31.0847 24.8584 31.1523 24.4058 30.9296 24.1009C30.7506 23.8668 30.5259 23.6743 30.3209 23.4651C27.6353 20.7784 24.9475 18.0928 22.2619 15.4061C25.2129 12.4614 28.1566 9.51148 31.1055 6.56571H31.1044Z" fill="#FBA81A"/>
</svg>
