<svg width="137" height="40" viewBox="0 0 137 40" fill="none" xmlns="http://www.w3.org/2000/svg">
<g clip-path="url(#clip0_12_790)">
<path d="M77.2127 3.06339C77.579 2.96818 77.9578 3.0105 78.332 3.00344C79.3866 3.01167 80.4435 2.98699 81.4981 3.0152C82.2443 3.04459 82.9145 3.6676 82.969 4.4493C83.0313 5.54957 82.9769 6.65688 82.9973 7.76067C83.0086 8.3449 82.9962 9.0114 82.5857 9.46514C82.2693 9.86128 81.7578 10.0012 81.2804 9.99999C80.1124 9.99764 78.9432 9.99647 77.7763 9.99999C77.3216 9.99529 76.8272 9.90713 76.4938 9.56036C76.1025 9.19595 75.9959 8.62466 76.0005 8.10274C76.0084 6.93313 75.9903 5.76233 76.0084 4.59389C76.0231 3.87919 76.5028 3.16684 77.2127 3.06339ZM77.2411 4.15308C77.0245 4.29296 77.0177 4.58331 77.0199 4.81841C77.0279 5.9939 77.0154 7.1694 77.0256 8.3449C76.9984 8.647 77.2343 8.95145 77.5382 8.93499C78.8264 8.94675 80.1158 8.93852 81.404 8.93852C81.7204 8.97849 81.9982 8.67403 81.9699 8.35077C81.9812 7.13531 81.9733 5.91867 81.9733 4.70204C82.0062 4.40699 81.8043 4.0943 81.5083 4.07432C80.2643 4.04258 79.0192 4.07432 77.7741 4.05904C77.5949 4.06844 77.3976 4.04258 77.2411 4.15308Z" fill="white"/>
<path d="M123.421 11.116C125.472 10.8039 127.58 11.1434 129.509 11.8724C131.626 12.73 133.505 14.2035 134.807 16.0892C136.263 18.0939 136.973 20.593 137 23.0576C136.948 25.4768 136.252 27.9247 134.826 29.8961C133.569 31.7341 131.755 33.173 129.717 34.0485C127.714 34.8466 125.506 35.2088 123.363 34.8776C122.238 34.6858 121.114 34.4142 120.069 33.9461C116.741 32.4631 114.125 29.3839 113.351 25.7985C112.883 23.9724 112.883 22.0296 113.351 20.2035C114.155 16.5132 116.904 13.3602 120.372 11.9284C121.349 11.5317 122.381 11.2851 123.42 11.116H123.421ZM123.534 12.1726C120.33 12.5811 117.366 14.5061 115.684 17.2684C114.296 19.4983 113.783 22.2404 114.219 24.8276C114.713 27.9176 116.628 30.7335 119.307 32.3404C122.087 34.0426 125.636 34.3976 128.702 33.2969C131.112 32.4452 133.194 30.7073 134.468 28.4869C135.728 26.3238 136.191 23.7175 135.791 21.2482C135.413 18.8432 134.193 16.5847 132.399 14.9433C130.051 12.7539 126.706 11.7211 123.534 12.1726Z" fill="white"/>
<path d="M52.2795 11.6053C52.6212 11.1304 53.2309 10.9913 53.7786 11.0009C55.1677 11.0105 56.5569 10.9889 57.946 11.0105C58.6493 11.0297 59.1923 11.5669 59.479 12.1858C60.8424 15.2343 62.1496 18.3104 63.5223 21.3565C64.7886 18.3511 66.1239 15.377 67.4182 12.3836C67.7026 11.6977 68.2526 11.0309 69.0378 11.0117C70.503 10.9913 71.9706 11.0033 73.4381 11.0057C74.0829 11.0189 74.7839 11.3966 74.9302 12.0874C75.0882 12.5227 74.9512 12.9869 74.7851 13.397C71.6078 20.1728 68.4258 26.9462 65.2485 33.722C65.0273 34.1825 64.7289 34.6478 64.2526 34.8589C63.6183 35.0952 62.8237 35.058 62.3111 34.5687C61.9378 34.2077 61.7365 33.7124 61.52 33.2459C58.4141 26.6176 55.3058 19.9905 52.2011 13.361C51.939 12.8094 51.9015 12.1114 52.2795 11.6053ZM53.046 12.3908C52.984 12.6019 53.1186 12.8022 53.1923 12.9917C56.4024 19.8178 59.5879 26.656 62.8038 33.4774C62.9992 34.0386 63.8734 34.107 64.1321 33.5709C64.4609 32.9629 64.7254 32.3201 65.0297 31.6989C67.9764 25.4136 70.9314 19.1319 73.8746 12.8441C74.0724 12.5503 73.9144 12.0862 73.5399 12.091C72.0572 12.073 70.5732 12.0826 69.0905 12.0862C68.7277 12.0826 68.5522 12.4772 68.4094 12.7578C67.3421 15.1899 66.2842 17.6268 65.2204 20.0601C64.6388 21.3505 64.1192 22.6733 63.4978 23.9445C61.9308 20.4091 60.3883 16.8629 58.8319 13.3238C58.6598 12.9533 58.5323 12.5455 58.2549 12.2409C58.1005 12.0514 57.8453 12.085 57.6347 12.079C56.2678 12.0886 54.9009 12.0754 53.534 12.085C53.3339 12.0778 53.0987 12.1714 53.046 12.3908Z" fill="white"/>
<path d="M77.4684 11.0121C78.8128 10.9964 80.1606 10.9952 81.5061 11.0133C82.3148 11.0387 82.9961 11.7828 82.9926 12.6442C83.0017 19.1798 82.9926 25.7167 82.9961 32.2523C82.979 32.919 83.0916 33.6582 82.7322 34.2498C82.4319 34.7725 81.8462 35.0048 81.29 34.9999C80.1162 34.9999 78.9413 34.9975 77.7675 34.9999C77.3205 34.9927 76.8371 34.8995 76.5039 34.5595C76.1456 34.2292 76.0125 33.7139 76 33.2263C76.0034 26.3712 75.9977 19.5162 76.0034 12.6599C75.9875 11.7997 76.6483 11.0266 77.4684 11.0121ZM77.358 12.1191C77.0964 12.1965 76.9963 12.5026 77.0236 12.7652C77.0282 19.619 77.0202 26.4729 77.0271 33.3267C76.9986 33.634 77.2534 33.9111 77.54 33.9038C78.8298 33.9171 80.1207 33.9086 81.4117 33.9074C81.7609 33.9413 82.0281 33.5711 81.9736 33.2166C81.969 26.3567 81.977 19.4956 81.969 12.6345C81.9861 12.2607 81.6062 12.0368 81.2911 12.0901C79.9809 12.1119 78.666 12.055 77.358 12.1191Z" fill="white"/>
<path d="M85.5024 11.4465C85.81 11.1331 86.257 11.0315 86.6788 11.0037C87.8865 10.9976 89.0942 11.0037 90.303 11.0001C90.7429 10.9976 91.2187 11.0618 91.5744 11.3461C91.8592 11.5518 92.0358 11.8651 92.2281 12.1518C94.2794 15.3543 96.3498 18.5447 98.3927 21.7533C99.1473 20.7285 99.7998 19.6263 100.517 18.5726C101.843 16.5569 103.166 14.5413 104.492 12.5269C104.755 12.1518 104.963 11.7284 105.303 11.4163C105.627 11.1114 106.082 11.0134 106.514 11.0013C107.716 11.0013 108.92 11.0025 110.125 11.0001C110.596 11.0025 111.101 11.1017 111.455 11.4392C111.836 11.7635 111.983 12.2753 111.999 12.7616C112 19.5792 112 26.3979 111.999 33.2155C111.983 33.7333 111.814 34.2765 111.398 34.6092C111.051 34.9165 110.568 34.9927 110.121 35C108.878 34.9964 107.637 34.9976 106.395 34.9988C105.927 34.9843 105.428 34.8826 105.086 34.539C104.686 34.1797 104.57 33.6159 104.567 33.0993C104.57 30.8381 104.567 28.5757 104.569 26.3144C103.136 28.4547 101.709 30.5998 100.28 32.7424C99.9921 33.2034 99.6376 33.6994 99.0776 33.8264C98.2965 34.0745 97.3136 33.8809 96.8401 33.1634C95.3488 30.9337 93.9249 28.6579 92.424 26.4342C92.4216 28.6942 92.424 30.9542 92.4228 33.2143C92.4108 33.7079 92.2606 34.2233 91.8796 34.5572C91.5275 34.9044 91.0132 34.9988 90.5386 35C89.2961 34.9952 88.0547 34.9988 86.8134 34.9988C86.3183 34.9855 85.7872 34.8597 85.4459 34.4737C85.0938 34.112 84.9965 33.5833 85.0001 33.0957C85.0037 26.3181 85.0013 19.5417 85.0013 12.7652C85.0121 12.2861 85.1371 11.778 85.5024 11.4465ZM86.0864 12.6358C86.0816 19.5368 86.0816 26.4378 86.0864 33.3389C86.0564 33.6655 86.3688 33.9317 86.6824 33.9063C88.0523 33.9099 89.4246 33.9148 90.7945 33.9039C91.0877 33.9135 91.3437 33.6377 91.3365 33.3473C91.3557 29.8521 91.3197 26.3544 91.3533 22.8591C91.5888 23.1107 91.7571 23.4156 91.9469 23.7024C93.8528 26.6205 95.7514 29.5435 97.6596 32.4605C97.9613 32.9953 98.8637 32.9928 99.1701 32.4641C101.339 29.2447 103.458 25.9878 105.651 22.7853C105.653 26.2999 105.643 29.8158 105.656 33.3316C105.631 33.6716 105.952 33.9426 106.279 33.9063C107.643 33.9087 109.008 33.9148 110.372 33.9039C110.721 33.9123 110.955 33.553 110.919 33.2263C110.915 26.3701 110.922 19.5126 110.915 12.6564C110.928 12.3515 110.654 12.0853 110.356 12.095C109.036 12.0865 107.714 12.0901 106.393 12.0938C106.11 12.0623 105.922 12.3019 105.785 12.5148C104.019 15.2079 102.248 17.8987 100.479 20.5906C99.7734 21.6335 99.1221 22.7151 98.383 23.7326C96.0073 20.0026 93.6004 16.2932 91.2163 12.568C91.0697 12.3309 90.8618 12.0599 90.5506 12.0926C89.23 12.0914 87.9093 12.0841 86.5899 12.0962C86.3063 12.0877 86.0588 12.3503 86.0864 12.6358Z" fill="white"/>
<path d="M123.301 17.1548C124.472 16.8419 125.742 17.0118 126.815 17.5888C128.835 18.6498 130.174 21.036 129.982 23.416C129.789 26.3376 127.35 29.0037 124.507 29C121.662 29.0037 119.218 26.3376 119.019 23.4148C118.787 20.613 120.709 17.8259 123.301 17.1548ZM123.605 18.1902C121.533 18.7403 119.929 20.9101 120.053 23.174C120.128 25.8034 122.52 28.2763 125.086 27.8619C127.27 27.4866 128.994 25.2509 128.951 22.9344C128.961 21.0201 127.75 19.1913 126.088 18.4444C125.321 18.0557 124.43 18.03 123.605 18.1902Z" fill="white"/>
<path d="M123.526 12.1048C126.718 11.6505 130.083 12.6899 132.446 14.8934C134.251 16.5455 135.479 18.8186 135.86 21.2391C136.261 23.7244 135.796 26.3475 134.528 28.5247C133.246 30.7594 131.151 32.5086 128.726 33.3658C125.64 34.4735 122.069 34.1163 119.272 32.4031C116.576 30.7858 114.65 27.9516 114.152 24.8417C113.713 22.2378 114.23 19.478 115.627 17.2337C117.319 14.4535 120.302 12.5161 123.526 12.1048ZM123.766 17.2708C121.101 17.929 119.125 20.6624 119.363 23.4103C119.567 26.2768 122.081 28.8915 125.006 28.8879C127.93 28.8915 130.438 26.2768 130.637 23.4115C130.834 21.0773 129.458 18.737 127.38 17.6964C126.276 17.1305 124.971 16.9639 123.766 17.2708Z" fill="#1561AC"/>
<path d="M53.0159 12.3138C53.0688 12.0929 53.3048 11.9988 53.5056 12.006C54.877 11.9964 56.2485 12.0097 57.6199 12C57.8313 12.006 58.0872 11.9722 58.2422 12.1629C58.5205 12.4695 58.6485 12.8799 58.8211 13.2529C60.3827 16.8147 61.9303 20.3838 63.5025 23.9421C64.126 22.6626 64.6474 21.3313 65.2309 20.0326C66.2983 17.5836 67.3597 15.131 68.4306 12.6832C68.5738 12.4007 68.7499 12.0036 69.1139 12.0072C70.6016 12.0036 72.0905 11.994 73.5782 12.0121C73.9539 12.0072 74.1124 12.4744 73.914 12.7701C70.9609 19.0984 67.9961 25.4206 65.0395 31.7465C64.7343 32.3718 64.4689 33.0187 64.1389 33.6307C63.8795 34.1702 63.0023 34.1014 62.8062 33.5365C59.5796 26.6711 56.3835 19.7888 53.1627 12.9185C53.0887 12.7278 52.9537 12.5263 53.0159 12.3138Z" fill="#1561AC"/>
<path d="M77.3414 12.0354C78.6596 11.9737 79.9846 12.0284 81.3051 12.0075C81.6226 11.9563 82.0055 12.1716 81.9883 12.5313C81.9963 19.1318 81.9883 25.7324 81.9928 32.3318C82.0479 32.6728 81.7785 33.029 81.4266 32.9964C80.1256 32.9975 78.8246 33.0057 77.5248 32.9929C77.2359 32.9999 76.9792 32.7333 77.0078 32.4377C77.0009 25.8441 77.0078 19.2505 77.0044 12.657C76.9769 12.4044 77.0777 12.1099 77.3414 12.0354Z" fill="#1561AC"/>
<path d="M86.0035 12.5259C85.9768 12.2511 86.216 11.9985 86.49 12.0066C87.7648 11.995 89.0408 12.002 90.3168 12.0031C90.6175 11.9717 90.8183 12.2325 90.96 12.4607C93.2635 16.0457 95.5891 19.6155 97.8844 23.2051C98.5985 22.2259 99.2278 21.185 99.9093 20.1813C101.618 17.5907 103.33 15.0013 105.036 12.4095C105.169 12.2046 105.35 11.974 105.624 12.0043C106.9 12.0008 108.177 11.9973 109.453 12.0055C109.741 11.9962 110.006 12.2523 109.993 12.5457C110 19.1439 109.993 25.7433 109.996 32.3415C110.031 32.6559 109.805 33.0017 109.468 32.9936C108.15 33.004 106.831 32.9982 105.514 32.9959C105.198 33.0308 104.888 32.77 104.911 32.4428C104.899 29.0593 104.909 25.6758 104.906 22.2934C102.788 25.3754 100.741 28.5098 98.6449 31.608C98.3489 32.1168 97.4769 32.1192 97.1855 31.6045C95.3418 28.7973 93.5073 25.9843 91.6659 23.176C91.4824 22.9 91.3199 22.6066 91.0923 22.3645C91.0598 25.7282 91.0947 29.0942 91.0761 32.458C91.0831 32.7374 90.8358 33.0029 90.5525 32.9936C89.2289 33.004 87.9029 32.9994 86.5794 32.9959C86.2763 33.0203 85.9745 32.7642 86.0035 32.4498C85.9988 25.8085 85.9988 19.1672 86.0035 12.5259Z" fill="#1561AC"/>
<path d="M77.2233 4.09629C77.3812 3.98315 77.5802 4.00963 77.7609 4C79.0168 4.01565 80.2727 3.98315 81.5275 4.01565C81.826 4.03611 82.0296 4.35628 81.9965 4.6584C81.9965 5.90418 82.0045 7.14996 81.993 8.39454C82.0216 8.72555 81.7414 9.03729 81.4223 8.99637C80.1229 8.99637 78.8224 9.0048 77.523 8.99276C77.2165 9.00961 76.9785 8.69786 77.006 8.38853C76.9957 7.18487 77.0083 5.98122 77.0003 4.77756C76.998 4.53683 77.0049 4.23953 77.2233 4.09629Z" fill="#FBA81A"/>
<path d="M21.206 0.710658C22.4924 0.320735 23.8206 0.0389917 25.1692 0.00689434C26.7883 -0.0501676 28.4013 0.251785 29.9413 0.734434C31.6286 1.27533 33.1639 2.21448 34.5041 3.35928C34.8008 3.61487 35.0916 3.88116 35.3261 4.19619C36.3457 3.42586 37.9096 3.5269 38.8215 4.42206C40.9191 6.50007 43.0144 8.58283 45.1073 10.6656C45.6925 11.2505 45.9641 12.0719 46 12.8827C45.9976 16.1709 46.0024 19.4603 45.9976 22.7485C45.9677 23.7054 45.5058 24.6018 44.7771 25.2211C40.1665 29.7992 35.5571 34.3772 30.9501 38.9588C30.5456 39.3796 30.067 39.7803 29.4723 39.8849C28.8225 40.0953 28.1165 39.955 27.5098 39.6816C26.7021 39.2049 26.1576 38.4131 25.4445 37.8211C24.8856 38.3929 24.322 38.9624 23.7417 39.5116C22.9794 40.2082 21.6835 40.15 20.9799 39.3987C14.1771 32.6428 7.37189 25.8881 0.576284 19.1262C-0.20511 18.382 -0.18716 17.0256 0.601413 16.2933C4.70821 12.211 8.81502 8.1299 12.9242 4.05116C13.6865 3.24635 15.0733 3.28796 15.8296 4.07969C17.3062 2.54615 19.1742 1.36925 21.206 0.710658ZM16.6828 4.71094C16.9664 5.01765 17.2739 5.30058 17.5599 5.60491C18.0924 5.11869 18.6321 4.63842 19.2364 4.24137C21.37 2.79104 24.0205 2.12651 26.5908 2.37259C29.1743 2.60321 31.6657 3.76228 33.4845 5.60134C33.7969 5.3303 34.0757 5.02359 34.3856 4.75017C31.8404 2.08014 27.9909 0.761776 24.3244 1.12911C21.4561 1.3847 18.7159 2.69237 16.6828 4.71094ZM20.78 4.51241C20.4617 4.64318 20.2451 4.96415 19.8838 4.99506C19.7342 5.34456 19.2615 5.4147 19.0114 5.68931C18.8571 5.88546 18.6692 6.05071 18.4849 6.21832C19.1024 5.7547 19.6672 5.21023 20.3684 4.87024C21.6248 4.07375 23.0883 3.66718 24.5566 3.47341C27.2298 3.24397 30.0143 4.05473 32.0606 5.79868C32.2173 5.95679 32.3442 6.18266 32.5871 6.21476C32.0857 5.67386 31.4575 5.2661 30.84 4.86905L30.8101 4.75492C30.3841 4.64674 29.9521 4.43514 29.6123 4.16647C28.8835 3.99172 28.1979 3.64459 27.444 3.55543C26.7308 3.41159 26.0069 3.39376 25.2829 3.4104C23.7141 3.37355 22.1861 3.85976 20.78 4.51241ZM13.6853 4.80842C9.67539 8.7873 5.67149 12.7709 1.66162 16.7498C1.38161 17.0244 1.02382 17.3169 1.05493 17.752C1.05852 18.2108 1.46777 18.489 1.75376 18.791C8.41534 25.4054 15.0733 32.0234 21.7337 38.6378C22.0532 39.0123 22.6874 39.0634 23.0368 38.7044C23.8541 37.9067 24.6571 37.0936 25.4708 36.2923C26.0811 36.9367 26.7296 37.5453 27.3519 38.179C27.5936 38.4215 27.8353 38.6878 28.1668 38.8078C28.7687 39.0551 29.5106 38.9077 29.9569 38.4322C34.741 33.6782 39.5275 28.9242 44.3128 24.1703C44.722 23.7684 44.941 23.1966 44.923 22.6272C44.923 19.4983 44.9194 16.3694 44.9242 13.2393C44.9697 12.5891 44.8249 11.8936 44.3439 11.4205C42.251 9.34009 40.1581 7.25733 38.0616 5.18051C37.4561 4.56709 36.3588 4.59325 35.7701 5.21617C32.3789 8.58164 28.9936 11.9519 25.6 15.3161C22.1693 11.9055 18.735 8.49842 15.3067 5.0866C15.0721 4.8631 14.8532 4.57304 14.5085 4.52668C14.2058 4.4708 13.8923 4.58493 13.6853 4.80842ZM19.1179 7.14558C19.4314 7.41187 19.6743 7.77564 20.0226 7.99081C21.3747 6.70216 23.1697 5.86525 25.0508 5.76658C27.2549 5.6168 29.5022 6.45727 31.0566 8.01815C31.3713 7.74235 31.6525 7.43446 31.9565 7.14915C30.2118 5.36121 27.6726 4.39829 25.1752 4.50647C22.9184 4.58849 20.6975 5.53715 19.1179 7.14558ZM32.7283 6.37525C32.7032 6.53692 32.7678 6.60349 32.9257 6.57258C32.9556 6.40972 32.8898 6.34315 32.7283 6.37525ZM6.91119 9.33771C7.16009 9.67414 7.49514 9.93329 7.76438 10.2519C8.42252 9.6884 9.1752 9.20576 10.0368 9.02744C11.5565 8.6708 13.2449 9.14156 14.3374 10.2543C14.6533 9.97966 14.9357 9.66938 15.2433 9.38526C14.0514 8.1513 12.2744 7.52718 10.5669 7.68054C9.19554 7.7804 7.91037 8.41402 6.91119 9.33771ZM8.43449 11.1138C9.34272 12.0054 10.2342 12.9136 11.1484 13.7992C12.0244 12.9172 12.9051 12.0386 13.7954 11.1708C13.087 10.5122 12.1895 9.96064 11.1855 9.98441C10.1481 9.90833 9.15605 10.4017 8.43449 11.1138Z" fill="white"/>
<path d="M9 9.29539C9.81225 8.55666 10.5321 7.721 11.3598 7C18.0331 13.7148 24.756 20.3823 31.4482 27.0793C31.6247 27.285 31.8863 27.4363 32 27.6845C31.2458 28.4729 30.4667 29.24 29.6828 30C22.8663 23.1741 16.0297 16.3683 9.20484 9.5507C9.13261 9.46796 9.06394 9.38286 9 9.29539ZM10.4931 9.33085C16.8916 15.7194 23.2985 22.1009 29.6935 28.493C29.9717 28.2188 30.2464 27.9422 30.5247 27.668C24.1344 21.2794 17.7323 14.9027 11.3539 8.50465C11.0401 8.7505 10.7796 9.05427 10.4931 9.33085Z" fill="white"/>
<path d="M17 5.01464C19.0672 2.78972 21.8535 1.34837 24.7699 1.06666C28.4979 0.661769 32.4121 2.11491 35 5.05788C34.6849 5.35925 34.4014 5.69732 34.0838 5.99607C32.2344 3.96901 29.7012 2.69145 27.0744 2.43725C24.4609 2.16601 21.7659 2.89848 19.5965 4.49707C18.982 4.93471 18.4333 5.46408 17.8918 6C17.6011 5.66456 17.2884 5.3527 17 5.01464Z" fill="#1561AC"/>
<path d="M13.3889 5.29206C13.5919 5.07139 13.8994 4.95871 14.1963 5.01388C14.5343 5.05965 14.7491 5.34605 14.9791 5.56672C18.3414 8.93542 21.7095 12.2994 25.0741 15.6669C28.1031 18.6976 31.1345 21.7271 34.1634 24.7577C34.3946 24.9937 34.6481 25.2108 34.85 25.4749C35.1011 25.8188 35.0248 26.3294 34.7115 26.6088C31.4584 29.8671 28.2005 33.1196 24.9474 36.378C24.1494 37.1691 23.3619 37.972 22.5603 38.7595C22.2177 39.114 21.5957 39.0635 21.2823 38.6938C14.7502 32.163 8.22049 25.6287 1.68723 19.0979C1.40674 18.7997 1.00538 18.5251 1.00186 18.072C0.971348 17.6424 1.32225 17.3536 1.59686 17.0825C5.5295 13.1539 9.45626 9.22064 13.3889 5.29206ZM9.35064 10.1409C9.41401 10.2277 9.48208 10.3122 9.55367 10.3944C16.3181 17.1647 23.0943 23.9232 29.8506 30.7017C30.6275 29.9469 31.3997 29.1852 32.1472 28.4023C32.0346 28.1558 31.7752 28.0055 31.6004 27.8013C24.9673 21.1508 18.3038 14.5296 11.6896 7.86142C10.8692 8.57742 10.1557 9.40727 9.35064 10.1409Z" fill="#1561AC"/>
<path d="M19 7.00842C20.5994 5.18061 22.8483 4.10256 25.1335 4.00935C27.6622 3.88641 30.2334 4.98067 32 7.01247C31.6922 7.33669 31.4075 7.68658 31.0888 8C29.5149 6.22623 27.2394 5.27112 25.0075 5.44134C23.1027 5.55346 21.2852 6.50452 19.916 7.96893C19.5634 7.72441 19.3175 7.31103 19 7.00842Z" fill="#1561AC"/>
<path d="M21 9.94104C21.9594 8.87384 23.1933 8.14177 24.51 8.0264C26.1495 7.84922 27.8557 8.5703 29 9.99598C28.7047 10.3242 28.4336 10.6827 28.1303 11C27.0813 9.71442 25.4601 9.17052 24.001 9.58256C23.1738 9.78858 22.4511 10.3462 21.8192 10.9973C21.5607 10.6292 21.239 10.3297 21 9.94104Z" fill="#1561AC"/>
<path d="M35.0551 5.47905C35.6299 4.85962 36.7012 4.83361 37.2923 5.44358C39.3391 7.50876 41.3824 9.57984 43.4257 11.6486C43.8953 12.119 44.0367 12.8106 43.9923 13.4572C43.9876 16.5697 43.9911 19.6811 43.9911 22.7924C44.0086 23.3587 43.7948 23.9273 43.3953 24.3268C38.7235 29.0542 34.0504 33.7815 29.3798 38.5088C28.944 38.9816 28.2197 39.1282 27.6321 38.8823C27.3085 38.763 27.0725 38.4982 26.8365 38.257C26.229 37.6269 25.5958 37.0217 25 36.381C28.2384 33.0994 31.4815 29.8237 34.7199 26.5421C35.0318 26.2608 35.1077 25.7466 34.8577 25.4002C34.6568 25.1342 34.4044 24.9155 34.1743 24.6779C31.159 21.6257 28.1414 18.5746 25.1262 15.5224C28.4393 12.177 31.7443 8.82564 35.0551 5.47905Z" fill="#FBA81A"/>
</g>
<defs>
<clipPath id="clip0_12_790">
<rect width="137" height="40" fill="white"/>
</clipPath>
</defs>
</svg>
