<svg xmlns="http://www.w3.org/2000/svg" width="240" height="80" fill="none" viewBox="0 0 240 80"><path fill="#9F1D26" d="M69.1006 20.2368C70.3411 19.8839 71.7155 19.9057 72.9021 20.4393C73.8841 20.8763 74.6907 21.6559 75.2347 22.5767C75.6915 23.3252 75.923 24.1795 76.2583 24.9841C77.8466 28.9932 79.549 32.9566 81.2391 36.9232C82.9571 40.9292 84.6897 44.929 86.4368 48.9226C89.8148 39.8465 93.2197 30.7798 96.7867 21.7774C97.0431 21.0372 97.6317 20.3967 98.3978 20.1839C99.1878 19.9431 100.053 20.1974 100.703 20.6708C101.214 21.0445 101.516 21.6673 101.506 22.2995C101.519 22.6867 101.377 23.0532 101.243 23.4093C98.2711 31.5708 95.2918 39.7302 92.2657 47.872C91.346 50.3386 90.4273 52.8061 89.4753 55.2612C89.1058 56.1561 88.8109 57.0914 88.2971 57.9177C87.7043 58.8946 86.7088 59.6109 85.5877 59.8413C84.561 60.051 83.4699 60.0759 82.4588 59.7738C81.6366 59.5257 80.91 59.0119 80.3536 58.362C79.7068 57.6364 79.33 56.727 78.8981 55.8675C77.1272 52.121 75.4994 48.3101 73.8696 44.5013C72.0446 40.2067 70.2529 35.8976 68.5234 31.5635C67.7376 29.5579 66.9247 27.5606 66.2541 25.5124C65.8482 24.328 66.005 22.9577 66.715 21.9196C67.2683 21.0891 68.1486 20.5099 69.1006 20.2368Z"/><path fill="#9F1D26" d="M103.036 27.5087C103.935 27.4184 104.885 27.4236 105.729 27.7838C106.329 28.033 106.773 28.6008 106.861 29.2455C106.993 30.0656 106.901 31.0528 106.203 31.604C105.454 32.1843 104.452 32.23 103.544 32.2072C102.719 32.1719 101.794 32.0089 101.236 31.3414C100.708 30.6635 100.715 29.7064 100.924 28.9112C101.197 28.0101 102.169 27.5897 103.036 27.5087Z"/><path fill="#9F1D26" d="M111.18 34.0892C111.843 33.5203 112.766 33.4196 113.607 33.4466C114.376 33.4705 115.172 33.7466 115.677 34.3518C116.134 34.8646 116.326 35.5404 116.496 36.1913C117.533 35.0463 118.856 34.1369 120.365 33.7528C122.246 33.2722 124.285 33.3324 126.117 33.9885C127.038 34.3269 127.888 34.8625 128.581 35.5591C129.122 36.1031 129.482 36.8027 129.722 37.5253C130.087 38.6381 130.196 39.8163 130.217 40.9821C130.227 43.9584 130.251 46.9346 130.261 49.9119C130.293 50.7901 130.251 51.7586 129.679 52.476C129.14 53.1486 128.234 53.3573 127.412 53.377C126.553 53.3999 125.603 53.2971 124.941 52.695C124.317 52.1272 124.152 51.2396 124.146 50.433C124.153 47.7661 124.125 45.1003 124.133 42.4334C124.135 40.9136 124.162 39.3502 123.655 37.8969C123.49 37.3893 123.171 36.9232 122.711 36.6429C121.922 36.1591 120.952 36.102 120.053 36.184C119 36.2827 117.982 36.8038 117.347 37.6592C116.643 38.5333 116.511 39.699 116.454 40.7818C116.444 44.03 116.458 47.2792 116.447 50.5274C116.434 51.3486 116.225 52.2569 115.546 52.7874C114.799 53.3677 113.795 53.4185 112.888 53.3604C112.115 53.3075 111.29 53.0261 110.836 52.3607C110.427 51.769 110.33 51.0278 110.338 50.325C110.341 45.6536 110.337 40.9821 110.339 36.3107C110.349 35.5093 110.547 34.6331 111.18 34.0892Z"/><path fill="#9F1D26" d="M102.753 33.5806C103.769 33.3896 104.91 33.3792 105.826 33.9221C106.631 34.4163 106.906 35.417 106.912 36.3077C106.915 41.0155 106.912 45.7232 106.914 50.431C106.909 51.2376 106.741 52.1231 106.122 52.693C105.517 53.2536 104.65 53.3813 103.856 53.3802C103.04 53.3802 102.145 53.2318 101.544 52.6307C100.977 52.0556 100.818 51.2096 100.814 50.43V36.4115C100.821 35.7471 100.928 35.0526 101.311 34.4941C101.639 34.0052 102.188 33.7072 102.753 33.5806Z"/><path fill="#222D45" d="M138.467 24.763C139.303 24.5782 140.205 24.5834 141.013 24.8876C141.696 25.144 142.225 25.7181 142.498 26.3876C142.934 27.4216 142.931 28.5666 142.923 29.6691C142.923 36.0367 142.922 42.4044 142.923 48.7711C142.919 49.8871 142.829 51.0798 142.193 52.0338C141.724 52.7491 140.882 53.1311 140.048 53.1955C139.025 53.2899 137.863 53.129 137.132 52.3359C136.341 51.4577 136.19 50.2141 136.163 49.0794C136.16 42.7117 136.163 36.3451 136.162 29.9774C136.161 28.6964 136.097 27.3396 136.691 26.1634C137.033 25.4575 137.704 24.9374 138.467 24.763Z"/><path fill="#222D45" d="M149.128 24.6996C150.469 24.6332 151.815 24.6664 153.16 24.6571C155.549 24.6706 157.943 24.5678 160.329 24.7391C162.939 24.9 165.581 25.5384 167.798 26.971C169.449 28.0475 170.921 29.4344 171.951 31.1255C173.873 34.2605 174.315 38.1243 173.719 41.7068C173.181 45.0017 171.573 48.224 168.889 50.2805C167.243 51.5573 165.274 52.3733 163.245 52.7968C161.367 53.2079 159.436 53.2422 157.522 53.2172C154.891 53.2172 152.261 53.2172 149.63 53.2183C148.763 53.1975 147.843 52.9619 147.212 52.3359C146.605 51.7286 146.393 50.839 146.387 50.0043C146.387 42.7418 146.388 35.4782 146.386 28.2157C146.36 27.3509 146.476 26.4177 147.035 25.7211C147.536 25.0858 148.346 24.7931 149.128 24.6996ZM155.577 26.9025C155.159 26.9326 154.738 26.9897 154.346 27.1371C153.832 27.3281 153.421 27.7828 153.309 28.3226C153.131 29.1386 153.149 29.9794 153.147 30.8089V45.6505C153.162 46.8298 153.091 48.0216 153.284 49.1915C153.367 49.7988 153.754 50.3511 154.306 50.6241C155.071 51.0102 155.957 50.9999 156.793 50.9988C159.061 50.9853 161.353 50.2244 163.059 48.7026C164.436 47.4703 165.427 45.8384 166.018 44.0955C166.771 41.8324 166.942 39.3981 166.657 37.0364C166.385 34.8782 165.704 32.7356 164.449 30.9417C163.383 29.397 161.833 28.1991 160.082 27.5316C158.649 26.9938 157.098 26.8142 155.577 26.9025Z"/></svg>