<svg width="108" height="40" viewBox="0 0 108 40" fill="none" xmlns="http://www.w3.org/2000/svg">
<g clip-path="url(#clip0_12_671)">
<path d="M3.02565 0.236591C4.24965 -0.116366 5.60578 -0.0945659 6.77651 0.439022C7.74547 0.876066 8.54132 1.65569 9.07804 2.57649C9.52872 3.32496 9.75713 4.17933 10.088 4.98386C11.6551 8.99304 13.3349 12.9565 15.0024 16.9232C16.6975 20.9292 18.407 24.929 20.1309 28.9227C23.4638 19.8465 26.8234 10.7796 30.3428 1.77714C30.5958 1.03697 31.1766 0.39646 31.9325 0.183647C32.7119 -0.0571939 33.5651 0.197143 34.2074 0.67052C34.7113 1.04424 35.0094 1.6671 34.9991 2.29931C35.0124 2.68653 34.8721 3.05298 34.74 3.40905C31.8075 11.5707 28.8679 19.7302 25.8821 27.8721C24.9746 30.3386 24.0682 32.8062 23.1289 35.2613C22.7643 36.1562 22.4734 37.0915 21.9664 37.9179C21.3815 38.8947 20.3992 39.611 19.293 39.8415C18.28 40.0512 17.2035 40.0761 16.2059 39.774C15.3947 39.5259 14.6777 39.012 14.1287 38.3622C13.4906 37.6365 13.1188 36.7272 12.6927 35.8676C10.9453 32.1211 9.33923 28.3102 7.73113 24.5013C5.93047 20.2067 4.16259 15.8975 2.45616 11.5634C1.68079 9.55777 0.878794 7.56045 0.217119 5.51226C-0.183369 4.32778 -0.0287046 2.95747 0.671893 1.91937C1.21783 1.08888 2.0864 0.509614 3.02565 0.236591Z" fill="#9F1D26"/>
<path d="M37.2003 7.05144C38.0815 6.95641 39.0126 6.96187 39.8399 7.34091C40.4281 7.60307 40.8636 8.20057 40.9501 8.8789C41.0793 9.74184 40.9888 10.7806 40.3049 11.3607C39.5703 11.9713 38.5883 12.0193 37.6979 11.9953C36.89 11.9582 35.9833 11.7867 35.4359 11.0843C34.9179 10.371 34.925 9.3639 35.1306 8.52717C35.3982 7.57903 36.3506 7.13664 37.2003 7.05144Z" fill="#9F1D26"/>
<path d="M44.8453 13.6539C45.5109 13.0834 46.4369 12.9824 47.2807 13.0095C48.0525 13.0334 48.8515 13.3103 49.3577 13.9173C49.8161 14.4316 50.0088 15.1093 50.1796 15.7621C51.2202 14.6138 52.5473 13.7018 54.0619 13.3166C55.9494 12.8346 57.9952 12.8949 59.8338 13.5529C60.7577 13.8923 61.6108 14.4295 62.3056 15.1281C62.8494 15.6736 63.2098 16.3753 63.4514 17.0999C63.8171 18.2159 63.9264 19.3975 63.9473 20.5666C63.9577 23.5514 63.9817 26.5362 63.9921 29.522C64.0244 30.4028 63.9817 31.3741 63.4077 32.0935C62.8671 32.7681 61.9577 32.9773 61.1327 32.9971C60.2712 33.02 59.3181 32.917 58.6535 32.3131C58.0275 31.7437 57.8619 30.8535 57.8556 30.0446C57.8629 27.3701 57.8348 24.6966 57.8431 22.0221C57.8452 20.4979 57.8723 18.9301 57.3629 17.4726C57.1973 16.9635 56.8775 16.496 56.4161 16.2149C55.6244 15.7298 54.6504 15.6725 53.7484 15.7548C52.6921 15.8537 51.6702 16.3763 51.0338 17.2342C50.3275 18.1107 50.1942 19.2799 50.138 20.3657C50.1275 23.6233 50.1411 26.8818 50.1307 30.1394C50.1171 30.9629 49.9077 31.8738 49.2265 32.4058C48.4765 32.9877 47.4692 33.0388 46.5588 32.9805C45.7838 32.9274 44.9557 32.6452 44.5005 31.9779C44.0901 31.3845 43.9921 30.6412 44.0005 29.9363C44.0036 25.2515 43.9994 20.5666 44.0015 15.8818C44.0119 15.0781 44.2099 14.1994 44.8453 13.6539Z" fill="#9F1D26"/>
<path d="M36.9064 13.1195C37.9061 12.9277 39.0283 12.9173 39.9299 13.4625C40.7212 13.9586 40.9918 14.9634 40.998 15.8578C41.001 20.5847 40.998 25.3117 41 30.0387C40.9949 30.8486 40.8295 31.7377 40.2209 32.31C39.6256 32.8728 38.773 33.001 37.9918 33C37.1892 33 36.3091 32.8509 35.7178 32.2474C35.1603 31.67 35.0031 30.8205 35 30.0377V15.962C35.0061 15.2949 35.1113 14.5976 35.4881 14.0368C35.8108 13.5459 36.3509 13.2467 36.9064 13.1195Z" fill="#9F1D26"/>
<path d="M72.388 5.12615C73.2526 4.93866 74.186 4.94393 75.0216 5.25255C75.7284 5.51272 76.2761 6.0952 76.5586 6.77459C77.0097 7.8237 77.0065 8.9855 76.9979 10.1041C76.9979 16.5652 76.9968 23.0262 76.9979 29.4862C76.9936 30.6185 76.9012 31.8288 76.2428 32.7968C75.7574 33.5225 74.8863 33.9101 74.0238 33.9754C72.9648 34.0713 71.7629 33.908 71.0068 33.1033C70.1883 32.2122 70.0315 30.9503 70.0036 29.799C70.0004 23.338 70.0036 16.878 70.0025 10.417C70.0014 9.11717 69.9359 7.74048 70.5503 6.54708C70.9036 5.83082 71.5986 5.30311 72.388 5.12615Z" fill="#222D45"/>
<path d="M82.7864 5.06186C84.1479 4.99445 85.5147 5.02816 86.8793 5.01868C89.3051 5.03237 91.7351 4.9281 94.1567 5.10188C96.8069 5.26512 99.4888 5.91283 101.739 7.36622C103.415 8.45836 104.909 9.86541 105.955 11.581C107.905 14.7616 108.354 18.6816 107.749 22.3161C107.203 25.6589 105.571 28.928 102.846 31.0143C101.176 32.3097 99.1769 33.1375 97.1167 33.5672C95.2104 33.9843 93.2504 34.019 91.3073 33.9938C88.637 33.9938 85.9667 33.9938 83.2965 33.9948C82.4166 33.9738 81.4829 33.7347 80.8422 33.0996C80.2257 32.4835 80.0108 31.5809 80.0045 30.7342C80.0045 23.3661 80.0055 15.997 80.0034 8.62898C79.9771 7.75168 80.0951 6.80487 80.662 6.09819C81.171 5.45364 81.9929 5.15664 82.7864 5.06186ZM89.3335 7.29671C88.9089 7.32725 88.4821 7.38517 88.0838 7.53472C87.5621 7.72851 87.1448 8.1898 87.031 8.73746C86.8508 9.56525 86.8687 10.4183 86.8666 11.2598V26.3171C86.8814 27.5135 86.8097 28.7226 87.0057 29.9095C87.09 30.5256 87.4831 31.0859 88.0427 31.3629C88.8193 31.7547 89.7192 31.7442 90.5675 31.7431C92.87 31.7294 95.1967 30.9574 96.9281 29.4135C98.3265 28.1634 99.3318 26.5078 99.9324 24.7395C100.696 22.4435 100.87 19.9738 100.58 17.5778C100.304 15.3883 99.6131 13.2145 98.3391 11.3946C97.2569 9.8275 95.6836 8.61213 93.9059 7.93493C92.4517 7.38939 90.8773 7.20719 89.3335 7.29671Z" fill="#222D45"/>
</g>
<defs>
<clipPath id="clip0_12_671">
<rect width="108" height="40" fill="white"/>
</clipPath>
</defs>
</svg>
