<svg width="240" height="80" viewBox="0 0 240 80" fill="none" xmlns="http://www.w3.org/2000/svg">
<path d="M137.471 44.7621C139.59 44.2942 141.967 44.7225 143.636 46.1584C146.507 48.592 146.72 53.4172 144.269 56.2147C141.816 59.0643 136.944 59.1559 134.295 56.5291C131.834 53.999 131.67 49.5872 133.936 46.8838C134.829 45.8019 136.109 45.0691 137.471 44.7621ZM137.691 47.2007C134.428 48.2207 133.839 53.0904 136.458 55.1106C138.162 56.5044 140.937 56.2791 142.383 54.6129C143.913 52.8131 143.851 49.8422 142.167 48.1662C141.014 47.0249 139.209 46.7105 137.691 47.2007Z" fill="#FCAF17"/>
<path d="M116.527 45.7995C116.598 44.7003 118.312 44.3611 118.814 45.3242C120.319 48.3025 121.817 51.2857 123.278 54.2862C124.677 51.3203 126.125 48.3817 127.539 45.4232C127.987 44.3611 129.816 44.631 129.883 45.802C129.928 49.518 129.893 53.2365 129.9 56.9526C129.997 57.8463 128.967 58.542 128.167 58.1681C127.662 57.9998 127.373 57.465 127.383 56.9526C127.336 54.9423 127.39 52.9296 127.358 50.9193C126.516 52.5013 125.81 54.155 124.974 55.7444C124.649 56.3262 124.486 57.0318 123.993 57.4997C123.421 57.9849 122.424 57.8092 122.107 57.1135C121.097 55.0636 120.074 53.0162 119.044 50.9713C119.015 53.0558 119.079 55.1404 119.017 57.22C118.96 58.0939 117.819 58.5222 117.121 58.0988C116.626 57.8463 116.47 57.2323 116.499 56.7199C116.524 53.0806 116.47 49.4388 116.527 45.7995Z" fill="#FCAF17"/>
<path d="M148.3 45.8292C148.349 44.7671 149.954 44.3314 150.518 45.2548C152.61 47.9954 154.608 50.8128 156.732 53.5286C156.744 50.9663 156.712 48.4039 156.747 45.8416C156.787 44.9825 157.846 44.4725 158.572 44.8859C159.034 45.0667 159.257 45.589 159.238 46.0594C159.242 49.6888 159.24 53.3182 159.238 56.9476C159.289 57.7002 158.606 58.3463 157.861 58.2671C157.111 58.2102 156.789 57.465 156.373 56.955C154.511 54.4694 152.689 51.9516 150.788 49.4957C150.773 52.063 150.83 54.6328 150.763 57.1976C150.706 58.2151 149.199 58.6583 148.594 57.8388C148.221 57.4749 148.297 56.9203 148.28 56.45C148.302 52.9097 148.26 49.367 148.3 45.8292Z" fill="#FCAF17"/>
<path d="M161.906 46.0668C161.827 45.282 162.585 44.6681 163.335 44.7448C166.469 44.7225 169.603 44.7448 172.74 44.7324C173.292 44.7151 173.918 44.7894 174.22 45.3192C175.404 47.1388 176.523 49.003 177.684 50.8375C178.914 48.9808 180.014 47.0398 181.271 45.2028C181.87 44.4081 183.131 44.7275 183.378 45.6658V46.2377C182.046 48.6663 180.387 50.9044 178.971 53.2835C178.741 54.6353 179.018 56.0291 178.843 57.3907C178.565 58.5221 176.78 58.5469 176.456 57.4402C176.253 56.0836 176.501 54.7021 176.34 53.3429C175.104 51.2534 173.73 49.2432 172.448 47.1784C169.769 47.1809 167.09 47.1809 164.412 47.1784C164.407 48.2009 164.407 49.2234 164.407 50.2458C165.937 50.2854 167.479 50.1617 169.004 50.3053C170.136 50.6073 170.093 52.4047 168.942 52.625C167.435 52.7116 165.919 52.6324 164.412 52.6547C164.407 53.7193 164.407 54.7838 164.409 55.8459C166.36 55.8484 168.313 55.8459 170.264 55.8409C170.693 55.8261 171.17 55.9276 171.435 56.3014C172.022 57.0194 171.462 58.2944 170.502 58.2473C168.271 58.2869 166.041 58.2374 163.81 58.2671C163.308 58.2548 162.728 58.329 162.33 57.9502C161.857 57.6111 161.904 56.9847 161.896 56.4722C161.914 53.0038 161.891 49.5353 161.906 46.0668Z" fill="#FCAF17"/>
<path d="M125.526 25.781C125.036 24.5357 126.986 23.8152 127.588 24.86C128.972 27.9843 130.173 31.1904 131.557 34.3147C132.856 31.1706 134.178 28.0363 135.51 24.907C136.075 23.788 138.105 24.5183 137.592 25.7834C136.018 29.5614 134.339 33.2947 132.75 37.0652C132.557 37.5208 132.203 38.0605 131.636 38.0209C130.97 38.1248 130.522 37.5307 130.326 36.9736C128.749 33.2328 127.046 29.5416 125.526 25.781Z" fill="#20409A"/>
<path d="M139.323 25.4937C139.301 24.4143 140.873 23.9365 141.457 24.8401C143.636 27.7318 145.777 30.6531 147.958 33.5447C148.027 30.7794 147.906 28.009 148.018 25.2486C148.255 24.085 150.147 24.0776 150.34 25.2635C150.456 28.8137 150.35 32.3712 150.394 35.9239C150.369 36.4784 150.471 37.0899 150.152 37.5801C149.691 38.1421 148.716 38.1966 148.27 37.59C146.057 34.7454 144.032 31.7449 141.739 28.9647C141.695 31.6161 141.754 34.2676 141.712 36.9191C141.722 37.8005 140.595 38.3278 139.887 37.85C139.37 37.5628 139.283 36.9265 139.306 36.3918C139.325 32.7599 139.291 29.1256 139.323 25.4937Z" fill="#20409A"/>
<path d="M153.375 25.5185C153.348 24.7188 154.175 24.2336 154.9 24.3697C156.767 24.4935 158.866 23.9662 160.508 25.1273C162.998 26.8033 163.1 31.0046 160.604 32.7203C159.198 33.7378 157.398 33.5076 155.767 33.5447C155.767 34.6637 155.796 35.7827 155.764 36.8993C155.744 37.5529 155.091 38.1569 154.427 38.0133C153.741 38.0034 153.323 37.2781 153.363 36.6542C153.365 32.9431 153.343 29.2295 153.375 25.5185ZM155.774 26.6647V31.2101C156.806 31.1457 157.898 31.3908 158.886 31.017C160.542 30.2693 160.441 27.556 158.807 26.838C157.836 26.5038 156.779 26.7216 155.774 26.6647Z" fill="#20409A"/>
<path d="M162.817 25.2833C162.884 24.6941 163.481 24.3079 164.048 24.3722C167.024 24.392 170.004 24.3351 172.978 24.4019C174.074 24.5381 174.181 26.2983 173.124 26.6004C171.938 26.744 170.735 26.6177 169.541 26.6722C169.536 30.0911 169.564 33.5125 169.531 36.9315C169.502 37.746 168.504 38.3204 167.791 37.8896C167.306 37.6915 167.095 37.1518 167.13 36.6592C167.13 33.3269 167.132 29.997 167.13 26.6647C166.023 26.6474 164.914 26.6944 163.81 26.6474C163.164 26.6276 162.637 25.9096 162.817 25.2833Z" fill="#20409A"/>
<path d="M60.1003 23.3869C62.1675 21.2924 65.0764 20.0942 68.0077 20.0075C71.1419 19.9036 74.3059 21.1117 76.5389 23.32C78.8488 25.6299 81.1586 27.9372 83.4685 30.2471C83.9364 30.7373 84.4513 31.1829 84.8846 31.7077C80.968 35.6094 77.0638 39.526 73.1522 43.4352C71.5281 45.0419 69.9387 46.6858 68.2874 48.2677C66.0023 45.9876 63.7197 43.7025 61.4371 41.4199C60.531 40.5014 59.5705 39.6275 58.8178 38.5704C57.018 36.0798 56.2728 32.8664 56.7754 29.8386C57.1591 27.4074 58.3351 25.105 60.1003 23.3894V23.3869Z" fill="#00BAF2"/>
<path d="M99.2758 20.2081C102.135 19.6461 105.185 20.2328 107.666 21.7554C109.966 23.1789 111.748 25.4244 112.595 27.9942C113.6 30.9898 113.335 34.379 111.862 37.1741C111.293 38.2659 110.543 39.2587 109.669 40.1227C106.955 42.8261 104.254 45.542 101.539 48.2479C101.405 48.1242 101.271 48.0053 101.138 47.884C95.7058 42.5043 90.3236 37.0776 84.9117 31.6805C87.7019 28.8879 90.4895 26.0928 93.2846 23.3077C94.9186 21.7133 97.0303 20.6314 99.2733 20.2106L99.2758 20.2081Z" fill="#FCAF17"/>
<path d="M84.8846 31.7053L84.9118 31.6805C90.3237 37.0776 95.7084 42.5043 101.138 47.884C101.269 48.0078 101.395 48.1316 101.526 48.2579C99.365 50.4241 97.1988 52.5854 95.035 54.7517C94.2205 55.5513 93.4407 56.3881 92.5841 57.1432C90.7991 58.7078 88.5165 59.6932 86.1571 59.9358C83.6294 60.2032 81.0101 59.6511 78.8439 58.3142C77.7199 57.6557 76.7643 56.757 75.8557 55.836C73.333 53.3133 70.8102 50.7905 68.2875 48.2653C69.9388 46.6833 71.5257 45.0395 73.1522 43.4327C77.0639 39.5236 80.968 35.6095 84.8846 31.7053Z" fill="#20409A"/>
</svg>
