<svg width="40" height="40" viewBox="0 0 40 40" fill="none" xmlns="http://www.w3.org/2000/svg">
<g clip-path="url(#clip0_12_1115)">
<path d="M2.45937 8.39567C3.92098 6.91481 5.97773 6.0676 8.05024 6.00634C10.2663 5.93282 12.5033 6.78703 14.0822 8.34841C15.7154 9.98156 17.3485 11.613 18.9817 13.2461C19.3125 13.5927 19.6766 13.9078 19.9829 14.2789C17.2137 17.0375 14.4533 19.8067 11.6876 22.5707C10.5394 23.7067 9.41558 24.869 8.24804 25.9875C6.63239 24.3753 5.0185 22.7597 3.4046 21.1458C2.76395 20.4964 2.08478 19.8785 1.55265 19.1311C0.280087 17.3701 -0.246793 15.0981 0.108545 12.9573C0.379861 11.2384 1.21132 9.61047 2.45937 8.39742V8.39567Z" fill="#00BAF2"/>
<path d="M30.1582 6.14808C32.1799 5.75073 34.3365 6.16558 36.0904 7.24209C37.7165 8.24859 38.9769 9.83623 39.5755 11.6532C40.2862 13.7712 40.0989 16.1675 39.0574 18.1438C38.6548 18.9157 38.1244 19.6176 37.5065 20.2285C35.588 22.14 33.6783 24.0602 31.7581 25.9734C31.6636 25.8859 31.569 25.8019 31.4745 25.7161C27.6341 21.9124 23.8286 18.0755 20.0022 14.2596C21.9749 12.2851 23.9459 10.3088 25.9221 8.33961C27.0774 7.21234 28.5705 6.4474 30.1564 6.14983L30.1582 6.14808Z" fill="#FCAF17"/>
<path d="M19.9829 14.277L20.0022 14.2595C23.8286 18.0755 27.6358 21.9124 31.4745 25.7161C31.5673 25.8036 31.6565 25.8911 31.7493 25.9804C30.2212 27.512 28.6896 29.0401 27.1597 30.5718C26.5838 31.1372 26.0324 31.7288 25.4268 32.2627C24.1647 33.369 22.5508 34.0656 20.8826 34.2372C19.0955 34.4262 17.2435 34.0359 15.7119 33.0906C14.9172 32.625 14.2415 31.9896 13.5991 31.3385C11.8154 29.5548 10.0317 27.7711 8.24805 25.9856C9.41558 24.8671 10.5376 23.7048 11.6876 22.5688C14.4533 19.8049 17.2137 17.0375 19.9829 14.277Z" fill="#20409A"/>
</g>
<defs>
<clipPath id="clip0_12_1115">
<rect width="40" height="40" fill="white"/>
</clipPath>
</defs>
</svg>
