<svg width="150" height="40" viewBox="0 0 150 40" fill="none" xmlns="http://www.w3.org/2000/svg">
<g clip-path="url(#clip0_13_1515)">
<path d="M29.2858 10.0492L16.1213 29.9502H12.179V10.0492H15.4877V25.0102L25.3435 10.0492H29.2858ZM21.6124 34.9608L33.6506 4.96805H12.0382L0 34.9608H21.6124ZM52.7286 13.366H46.5335L39.8456 30.0208H36.2553L42.9432 13.366H36.7481L38.0857 10.0492H54.0662L52.7286 13.366ZM46.8151 34.9608L58.8533 5.03862H37.3113L25.2027 35.0313H46.8151V34.9608ZM77.7201 23.0343C75.1153 29.4562 69.4131 33.1965 65.0483 31.5028C60.6836 29.8091 59.3461 23.246 62.0212 16.9651C64.626 10.5432 70.3282 6.8029 74.693 8.4966L75.7489 5.8149C75.6081 5.74433 75.5377 5.74433 75.3969 5.67376C75.3265 5.67376 75.3265 5.60319 75.2561 5.60319C69.9762 3.98005 63.3588 8.56717 60.1908 16.1889C56.9525 24.0223 58.6421 32.1379 63.922 34.1845C64.0628 34.2551 64.274 34.3256 64.4148 34.3256C64.4617 34.3256 64.5086 34.3492 64.5555 34.3962C64.6964 34.3962 64.7667 34.4668 64.9075 34.4668C65.0483 34.4668 65.1891 34.5374 65.2595 34.5374H65.4003C70.5394 35.3136 76.4529 30.8677 79.4801 23.74V23.6694L77.6497 22.9637L77.7201 23.0343ZM72.7218 20.9877C73.5666 18.8 73.1442 16.4711 71.6658 15.836C71.6658 15.836 71.5954 15.836 71.5954 15.7654C70.0466 15.1303 68.0051 16.5417 66.9491 18.8C65.9635 21.0583 66.4563 23.5283 68.0755 24.0928C69.6243 24.728 71.6658 23.3165 72.7218 21.0583V20.9877ZM73.989 21.4817C73.989 21.5287 73.9655 21.5758 73.9186 21.6228C72.581 24.9397 69.5539 26.9157 67.3011 26.0688C67.2542 26.0688 67.2072 26.0453 67.1603 25.9982C67.1603 25.9982 67.0899 25.9982 67.0899 25.9277C65.0483 24.9397 64.4148 21.5523 65.7523 18.3766C67.0899 15.0597 70.1171 13.0837 72.3698 13.9306H72.5106C72.5106 13.9306 72.581 13.9306 72.581 14.0012H72.6514C74.6226 15.0597 75.2561 18.3766 73.989 21.4817ZM73.3554 11.5312C72.8626 11.3194 72.3698 11.2489 71.8066 11.2489C68.9203 11.1783 65.6819 13.7894 64.0628 17.7414C63.2884 19.6468 63.0068 21.5523 63.0772 23.3165V23.6694C63.0772 23.74 63.0772 23.8811 63.1476 23.9517C63.4996 26.0688 64.5555 27.692 66.2451 28.4682C66.9491 28.7505 67.6531 28.8211 68.4275 28.7505C71.1026 28.4682 73.989 25.9277 75.5377 22.258C75.5377 22.258 75.5377 22.1874 75.6081 22.1874C76.3825 20.3526 76.6641 18.4471 76.5233 16.7534V16.33C76.2417 14.0717 75.1857 12.2369 73.3554 11.5312ZM83 25.1514L80.888 24.3045V24.3751C77.2273 33.2671 69.2723 38.6305 63.1476 36.1605C57.0229 33.6905 55.1221 24.6574 58.8533 15.6243C62.5844 6.73232 70.469 1.43949 76.5233 3.76834L77.7905 0.663207C77.1569 0.380922 76.4529 0.23978 75.8193 0.0986375H75.7489C75.6785 0.0986375 75.5377 0.0986375 75.4673 0.0280664H75.1153C68.2867 -0.465932 60.5428 5.60319 56.7413 14.9186C52.3062 25.5748 54.6293 36.5133 61.8804 39.3362C62.5844 39.6185 63.218 39.7596 63.922 39.9008H63.9924C64.0628 39.9008 64.2036 39.9008 64.274 39.9713H64.626C71.3842 40.4653 79.1281 34.5374 83 25.1514Z" fill="#0E62AF"/>
<path d="M144.243 5L137.049 12.1942L129.855 5H120C122.734 5 125.323 6.07914 127.122 7.8777L134.243 15L127.05 22.1942C125.251 23.9209 122.734 25 120 25H129.999L149.997 5C150.141 5 144.243 5 144.243 5Z" fill="#0E62AF"/>
<path d="M125 8.78623C125 6.65217 123.195 5 121.029 5H113.014C110.776 5 109.043 6.72101 109.043 8.78623H121.029V20.2826H108.971V12.6413L105 16.4275V20.2138C105 22.3478 106.805 24 108.971 24H121.029C123.267 24 125 22.279 125 20.2138V8.78623Z" fill="#0E62AF"/>
<path d="M105 8.95683C105 6.72662 103.195 5 101.029 5H88.9711C86.7329 5 85 6.79856 85 8.95683V25H88.9711V16.9424H105V8.95683ZM100.957 9.2446V12.8417H88.8267V8.95683H100.884V9.2446H100.957Z" fill="#0E62AF"/>
<path d="M127.185 9.14458L127.041 9V12.9759H108.949L105 17.0241H127.041V21L133 14.9277L127.185 9.14458Z" fill="url(#paint0_linear_13_1515)"/>
</g>
<defs>
<linearGradient id="paint0_linear_13_1515" x1="105.014" y1="15.1084" x2="133.057" y2="15.1084" gradientUnits="userSpaceOnUse">
<stop stop-color="#0E62AF"/>
<stop offset="1" stop-color="#2BACE2"/>
</linearGradient>
<clipPath id="clip0_13_1515">
<rect width="150" height="40" fill="white"/>
</clipPath>
</defs>
</svg>
