<svg width="40" height="40" viewBox="0 0 40 40" fill="none" xmlns="http://www.w3.org/2000/svg">
<g clip-path="url(#clip0_13_1514)">
<path d="M20.9615 9.03132C21.0475 8.98737 21.1449 8.99331 21.2387 8.99568C22.4827 9.19171 23.7099 9.53111 24.8643 10.0384C25.5439 10.3473 26.2116 10.7081 26.7748 11.2043C27.8931 12.3183 29.0036 13.4403 30.1196 14.557C31.8233 16.2572 33.5092 17.9751 35.2077 19.6804C35.2972 19.7762 35.4081 19.8562 35.4699 19.975C34.4715 20.975 33.4727 21.9746 32.4739 22.9745C31.0633 24.3891 29.6487 25.7998 28.2401 27.2171C27.8773 27.5779 27.5165 27.9407 27.1542 28.3018C26.934 28.5177 26.7296 28.7521 26.4797 28.9351C25.7673 29.48 24.9475 29.8634 24.1139 30.1834C23.1519 30.5275 22.1579 30.7802 21.1496 30.9437C21.0265 30.9714 20.9017 30.9972 20.7746 30.9885C20.7607 30.9988 20.7334 31.0194 20.72 31.0297C20.6356 31.0253 20.5512 31.0245 20.4689 31.0055C20.5572 31.0011 20.6451 30.9948 20.7334 30.9912C20.754 30.9695 20.7754 30.9485 20.7968 30.9279C21.2752 30.8146 21.7148 30.5671 22.1147 30.2859C23.1757 29.5244 23.8636 28.2951 24.022 27.0057C24.0972 26.5494 24.0612 26.0849 24.0707 25.6247C24.0699 24.2588 24.0715 22.8926 24.0699 21.5263C24.7075 21.5211 25.3451 21.5255 25.9831 21.5243C26.3229 21.5243 26.6627 21.5251 27.0029 21.5235C27.0041 22.5334 27.0029 23.5428 27.0029 24.5527C27.0049 24.6858 26.9902 24.8212 27.0239 24.9519C27.1656 24.8818 27.2848 24.7768 27.3878 24.658C28.2206 23.8133 29.0321 22.9476 29.861 22.0993C30.2107 21.7492 30.5374 21.377 30.8898 21.0293C31.2332 20.6804 31.5766 20.3283 31.9029 19.9651C31.5983 19.6273 31.2684 19.3133 30.9568 18.9826C30.5223 18.5193 30.0669 18.0765 29.6376 17.6084C28.8305 16.7894 28.0397 15.955 27.2393 15.1297C27.1684 15.0727 27.0999 14.9875 27.0021 14.9883C27.0037 16.1677 27.0037 17.3466 27.0021 18.526C26.0263 18.5268 25.0505 18.526 24.0743 18.526C24.0644 17.5549 24.0731 16.5831 24.0699 15.6121C24.0703 15.1863 24.0699 14.761 24.0703 14.3357C24.066 13.769 24.0972 13.1971 23.98 12.6391C23.9309 12.4007 23.8834 12.1583 23.7895 11.9334C23.361 10.6016 22.2922 9.47923 20.9611 9.03132H20.9615Z" fill="white"/>
<path d="M5.79735 11.7797C6.29911 11.3821 6.92523 11.1456 7.56362 11.108C11.1813 11.1072 14.799 11.1072 18.417 11.108C19.659 11.1773 20.8443 11.8795 21.5132 12.9273C21.8126 13.3962 21.9947 13.9384 22.0383 14.4924C22.0426 16.1906 22.0351 17.8891 22.0423 19.5873C22.0371 20.2324 22.0399 20.8783 22.0407 21.5238C20.7797 21.5254 19.5188 21.5234 18.2578 21.5238C16.7268 21.5242 15.1958 21.5238 13.6644 21.5238C12.489 21.5242 11.3136 21.5238 10.1378 21.5238C9.33543 21.525 8.53308 21.5215 7.73074 21.5254C7.73708 23.9012 7.72955 26.2773 7.7343 28.6535C6.63494 28.6467 5.53518 28.6499 4.43542 28.6515C4.4374 24.0782 4.43582 19.5049 4.43622 14.9316C4.43899 14.6291 4.42077 14.3218 4.49087 14.0243C4.64215 13.1543 5.09639 12.3254 5.79735 11.7793V11.7797ZM7.73074 14.8235C7.7343 15.9379 7.7343 17.0523 7.73074 18.1664C9.28593 18.1703 10.8415 18.1664 12.3971 18.1679C14.3158 18.1644 16.2354 18.1759 18.1541 18.1612C18.1481 17.0504 18.1485 15.9391 18.1537 14.8283C17.8844 14.8148 17.6147 14.8259 17.3454 14.8223C15.4001 14.8255 13.4545 14.8152 11.5092 14.8271C10.2502 14.8172 8.9901 14.8227 7.73074 14.8235Z" fill="white"/>
<path d="M18.1537 14.8284C17.8844 14.8149 17.6147 14.826 17.3454 14.8224C15.4002 14.8256 13.4545 14.8153 11.5092 14.8272C10.2503 14.8173 8.99013 14.8228 7.73077 14.8236C7.73434 15.938 7.73434 17.0524 7.73077 18.1665C9.28596 18.1704 10.8415 18.1665 12.3971 18.168C14.3159 18.1645 16.2354 18.176 18.1541 18.1613C18.1482 17.0505 18.1486 15.9392 18.1537 14.8284Z" fill="#0E62AF"/>
<path d="M39.9988 24.4466C39.9992 19.242 39.9996 14.0375 39.9988 8.83295C39.9849 8.06189 39.8713 7.29242 39.6606 6.55027C39.046 4.35867 37.5549 2.43637 35.5986 1.27721C34.1856 0.430909 32.5373 -0.0154094 30.8906 0.000431535C23.6169 -0.00154858 16.3435 0.00399575 9.06972 0.00280768C8.38539 0.0032037 7.70106 0.0768642 7.03376 0.228541C5.02434 0.678028 3.18718 1.84313 1.91793 3.46406C0.692628 5.01211 0.0027539 6.9756 0.000773785 8.95097C0.00116981 16.0529 0.000773785 23.1552 0.000773785 30.2571C0.00354595 30.8123 -0.0158592 31.3691 0.0467126 31.9223C0.256605 34.0561 1.27756 36.0917 2.84581 37.551C4.48931 39.1022 6.7312 39.9973 8.9921 39.9988C11.4003 39.9985 13.8089 39.9988 16.2176 39.9988H18.2571C19.1153 39.9985 19.9734 39.9992 20.8316 39.9988C21.5785 39.9941 22.327 40.0076 23.0731 39.9925C24.8208 40.0008 26.5688 39.9941 28.3169 39.9965C29.2856 39.9909 30.2546 40.008 31.2229 39.9882C31.655 39.9846 32.0862 39.9327 32.5128 39.8622C34.4897 39.5236 36.3399 38.5019 37.6813 37.0105C39.1691 35.378 40.019 33.1801 39.9992 30.9703C39.9988 28.7957 39.9996 26.6212 39.9988 24.4466ZM18.2579 21.5243C16.7268 21.5247 15.1958 21.5239 13.6644 21.5243C12.489 21.5247 11.3136 21.5239 10.1378 21.5243C9.33545 21.5255 8.53311 21.522 7.73077 21.5259C7.7371 23.9017 7.72958 26.2778 7.73433 28.6539C6.63497 28.6472 5.53521 28.6504 4.43545 28.652C4.43743 24.0787 4.43585 19.5054 4.43624 14.9321C4.43901 14.6296 4.4208 14.3222 4.49089 14.0248C4.64217 13.1548 5.09641 12.3259 5.79738 11.7798C6.29914 11.3822 6.92525 11.1457 7.56364 11.1081C11.1813 11.1073 14.799 11.1073 18.4171 11.1081C19.659 11.1774 20.8443 11.8796 21.5132 12.9274C21.8126 13.3963 21.9948 13.9385 22.0383 14.4925C22.0427 16.1907 22.0352 17.8892 22.0423 19.5874C22.0371 20.2325 22.0399 20.8784 22.0407 21.5239C20.7798 21.5255 19.5188 21.5235 18.2579 21.5243ZM32.4739 22.9746C31.0633 24.3892 29.6487 25.7998 28.2401 27.2172C27.8773 27.578 27.5165 27.9407 27.1542 28.3019C26.934 28.5177 26.7296 28.7522 26.4797 28.9351C25.7673 29.4801 24.9475 29.8634 24.1139 30.1834C23.1519 30.5275 22.1579 30.7802 21.1496 30.9438C21.0265 30.9715 20.9017 30.9972 20.7746 30.9885C20.7607 30.9988 20.7334 31.0194 20.72 31.0297C20.6356 31.0253 20.5512 31.0245 20.4689 31.0055C20.5572 31.0012 20.6451 30.9948 20.7334 30.9913C20.754 30.9695 20.7754 30.9485 20.7968 30.9279C21.2752 30.8147 21.7148 30.5671 22.1147 30.286C23.1757 29.5244 23.8636 28.2952 24.022 27.0057C24.0972 26.5495 24.0612 26.0849 24.0707 25.6248C24.0699 24.2589 24.0715 22.8926 24.0699 21.5263C24.7075 21.5212 25.3451 21.5255 25.9831 21.5243C26.3229 21.5243 26.6627 21.5251 27.0029 21.5235C27.0041 22.5334 27.0029 23.5429 27.0033 24.5527C27.0052 24.6858 26.9906 24.8212 27.0243 24.9519C27.166 24.8818 27.2852 24.7769 27.3882 24.6581C28.221 23.8134 29.0325 22.9476 29.8614 22.0994C30.2111 21.7493 30.5378 21.377 30.8902 21.0293C31.2336 20.6804 31.577 20.3283 31.9033 19.9652C31.5987 19.6274 31.2688 19.3133 30.9572 18.9826C30.5227 18.5193 30.0673 18.0765 29.638 17.6084C28.8309 16.7895 28.0401 15.955 27.2397 15.1297C27.1688 15.0727 27.1003 14.9876 27.0025 14.9884C27.0041 16.1677 27.0041 17.3467 27.0025 18.526C26.0267 18.5268 25.0509 18.5264 24.0747 18.526C24.0648 17.555 24.0735 16.5831 24.0703 15.6121C24.0707 15.1864 24.0703 14.761 24.0707 14.3357C24.0664 13.769 24.0976 13.1971 23.9804 12.6391C23.9313 12.4007 23.8838 12.1584 23.7899 11.9334C23.3614 10.6016 22.2926 9.47926 20.9615 9.03136C21.0475 8.9874 21.1449 8.99334 21.2387 8.99572C22.4827 9.19175 23.7099 9.53114 24.8643 10.0384C25.5439 10.3473 26.2116 10.7081 26.7748 11.2043C27.8931 12.3184 29.0036 13.4403 30.1196 14.5571C31.8233 16.2572 33.5092 17.9752 35.2077 19.6804C35.2972 19.7763 35.4081 19.8563 35.4699 19.9751C34.4715 20.975 33.4727 21.9746 32.4739 22.9746Z" fill="#0E62AF"/>
</g>
<defs>
<clipPath id="clip0_13_1514">
<rect width="39.9996" height="40" fill="white"/>
</clipPath>
</defs>
</svg>
