<svg width="41" height="41" viewBox="0 0 41 41" fill="none" xmlns="http://www.w3.org/2000/svg">
<path d="M31.014 0.5H9.98598C4.74701 0.5 0.5 4.72814 0.5 9.94382V31.0562C0.5 36.2719 4.74701 40.5 9.98598 40.5H31.014C36.253 40.5 40.5 36.2719 40.5 31.0562V9.94382C40.5 4.72814 36.253 0.5 31.014 0.5Z" fill="white" stroke="#EAEAEA" stroke-miterlimit="10"/>
<path d="M4.43527 11.2564C4.06979 9.0001 5.61017 6.87508 7.87653 6.51122L36.2293 1.95545C34.7657 1.03499 33.0317 0.5 31.1726 0.5H10.1445C4.90589 0.5 0.658569 4.72845 0.658569 9.94382V31.0562C0.658569 35.9442 4.38854 39.9633 9.16992 40.4502L4.43694 11.2564H4.43527Z" fill="#0068FF"/>
<path d="M25.268 13.0923C25.0877 12.9078 24.8574 12.8165 24.5787 12.8165C24.1682 12.8165 23.8678 13.0125 23.6792 13.4046C23.277 12.9344 22.7263 12.6985 22.0287 12.6985C21.1909 12.6985 20.4866 13.0208 19.9158 13.6638C19.3451 14.3068 19.0597 15.091 19.0597 16.0165C19.0597 16.9419 19.3451 17.7261 19.9158 18.3691C20.4866 19.0121 21.1909 19.3344 22.0287 19.3344C22.7263 19.3344 23.277 19.0985 23.6792 18.6283C23.8678 19.0204 24.1682 19.2165 24.5787 19.2165C24.8574 19.2165 25.0877 19.1251 25.268 18.9406C25.4482 18.7562 25.5383 18.5303 25.5383 18.2644V13.7701C25.5383 13.5043 25.4482 13.2783 25.268 13.0939V13.0923ZM23.267 17.1313C23.0333 17.432 22.7095 17.5816 22.3007 17.5816C21.8918 17.5816 21.568 17.432 21.3344 17.1313C21.1007 16.8306 20.9839 16.4601 20.9839 16.0165C20.9839 15.5728 21.1007 15.2023 21.3344 14.9016C21.568 14.6009 21.8901 14.4513 22.3007 14.4513C22.7112 14.4513 23.0333 14.6009 23.267 14.9016C23.5006 15.2023 23.6174 15.5728 23.6174 16.0165C23.6174 16.4601 23.5006 16.8306 23.267 17.1313Z" fill="#0068FF"/>
<path d="M27.7146 18.9407C27.5344 19.1251 27.3041 19.2165 27.0253 19.2165C26.7466 19.2165 26.5163 19.1251 26.3361 18.9407C26.1559 18.7563 26.0657 18.5303 26.0657 18.2645V10.2196C26.0657 9.95377 26.1559 9.72781 26.3361 9.54338C26.5163 9.35896 26.7466 9.26758 27.0253 9.26758C27.3041 9.26758 27.5344 9.35896 27.7146 9.54338C27.8948 9.72781 27.985 9.95377 27.985 10.2196V18.2645C27.985 18.532 27.8948 18.7563 27.7146 18.9407Z" fill="#0068FF"/>
<path d="M34.0781 13.6622C33.4622 13.0192 32.6779 12.6969 31.7249 12.6969C30.772 12.6969 29.9943 13.0142 29.3918 13.6506C28.7877 14.2853 28.4856 15.0745 28.4856 16.0149C28.4856 16.9553 28.7877 17.7445 29.3918 18.3791C29.996 19.0138 30.7737 19.3328 31.7249 19.3328C32.6762 19.3328 33.4622 19.0122 34.0781 18.3675C34.6688 17.7395 34.9642 16.9553 34.9642 16.0149C34.9642 15.0745 34.6688 14.2903 34.0781 13.6622ZM32.6929 17.1297C32.4592 17.4304 32.1371 17.58 31.7266 17.58C31.316 17.58 30.9939 17.4304 30.7603 17.1297C30.5267 16.829 30.4098 16.4585 30.4098 16.0149C30.4098 15.5713 30.5267 15.2007 30.7603 14.9C30.9939 14.5993 31.316 14.4498 31.7266 14.4498C32.1371 14.4498 32.4592 14.5993 32.6929 14.9C32.9265 15.2007 33.0434 15.5713 33.0434 16.0149C33.0434 16.4585 32.9265 16.829 32.6929 17.1297Z" fill="#0068FF"/>
<path d="M17.9966 12.9195C18.6759 12.0473 19.0146 11.4608 19.0146 11.1584C19.0146 10.4589 18.5724 10.11 17.6879 10.11H13.025C12.6578 10.11 12.3758 10.1964 12.1739 10.3692C11.9736 10.542 11.8718 10.7663 11.8718 11.0421C11.8718 11.3179 11.9719 11.5422 12.1739 11.715C12.3758 11.8878 12.6578 11.9742 13.025 11.9742H16.2276L12.1271 17.2477C11.8584 17.5933 11.7249 17.899 11.7249 18.1665C11.7249 18.9341 12.2339 19.3162 13.252 19.3162H18.0634C18.8327 19.3162 19.2166 18.9956 19.2166 18.3526C19.2166 17.7096 18.8327 17.3889 18.0634 17.3889H14.5253L17.9966 12.9212V12.9195Z" fill="#0068FF"/>
<path d="M15.5451 24.2824H14.3468V26.7597H15.5451C15.9055 26.7597 16.1959 26.6434 16.4196 26.4091C16.6432 26.1748 16.7533 25.8791 16.7533 25.5202C16.7533 25.1613 16.6415 24.8656 16.4196 24.6313C16.1959 24.3971 15.9055 24.2808 15.5451 24.2808V24.2824Z" fill="#03CA77"/>
<path d="M21.5197 26.6118C21.1391 26.6118 20.8421 26.7514 20.6251 27.0288C20.4082 27.3063 20.2997 27.6502 20.2997 28.0606C20.2997 28.471 20.4082 28.8133 20.6251 29.0924C20.8421 29.3699 21.1391 29.5094 21.5197 29.5094C21.9002 29.5094 22.1972 29.3699 22.4142 29.0924C22.6311 28.8149 22.7396 28.471 22.7396 28.0606C22.7396 27.6502 22.6311 27.308 22.4142 27.0288C22.1972 26.7514 21.8985 26.6118 21.5197 26.6118Z" fill="#03CA77"/>
<path d="M29.9793 20.7401H12.6161C12.037 20.7401 11.5664 21.207 11.5664 21.7835V31.9119C11.5664 32.4884 12.0354 32.9553 12.6161 32.9553H26.3228C26.1776 32.819 26.1058 32.6595 26.1058 32.4768C26.1058 32.3272 26.1392 32.1711 26.2076 32.0066L26.8535 30.576L25.0661 26.1333C25.0143 26.007 24.9876 25.8691 24.9876 25.7196C24.9876 25.5252 25.0694 25.3607 25.2346 25.2278C25.3999 25.0932 25.5718 25.0267 25.752 25.0267C26.1492 25.0267 26.4195 25.2161 26.5614 25.5983L27.6746 28.6305L28.8661 25.5983C29.0163 25.2178 29.285 25.0267 29.6756 25.0267C29.8558 25.0267 30.0277 25.0932 30.1929 25.2278C30.3581 25.3623 30.4399 25.5268 30.4399 25.7196C30.4399 25.8691 30.4132 26.007 30.3615 26.1333L27.7129 32.5333C27.6412 32.7127 27.5527 32.8523 27.4509 32.9569H29.9776C30.5567 32.9569 31.0274 32.4901 31.0274 31.9135V21.7852C31.0274 21.2086 30.5584 20.7418 29.9776 20.7418L29.9793 20.7401ZM17.7163 27.5538C17.1689 28.0523 16.4796 28.3015 15.6502 28.3015H14.3468V30.2188C14.3468 30.5079 14.265 30.7306 14.0998 30.8901C13.9346 31.0496 13.7243 31.1293 13.4656 31.1293C13.2069 31.1293 12.9966 31.0496 12.8314 30.8901C12.6662 30.7306 12.5844 30.5063 12.5844 30.2188V23.651C12.5844 23.0429 12.8898 22.7389 13.5006 22.7389H15.5784C16.4479 22.7389 17.1655 22.9981 17.733 23.5164C18.3004 24.0348 18.5841 24.7061 18.5841 25.5335C18.5841 26.3609 18.2937 27.0404 17.7146 27.5555L17.7163 27.5538ZM24.517 30.1391C24.517 30.3866 24.4336 30.5943 24.2667 30.7654C24.0998 30.9366 23.8862 31.0213 23.6275 31.0213C23.247 31.0213 22.97 30.8402 22.7964 30.4764C22.4242 30.9117 21.9152 31.1293 21.2693 31.1293C20.495 31.1293 19.8425 30.8319 19.3151 30.2371C18.7877 29.6423 18.524 28.9162 18.524 28.0589C18.524 27.2016 18.7877 26.4755 19.3151 25.8807C19.8425 25.2859 20.495 24.9885 21.2693 24.9885C21.9152 24.9885 22.4242 25.2062 22.7964 25.6415C22.97 25.2793 23.2487 25.0965 23.6275 25.0965C23.8862 25.0965 24.0981 25.1812 24.2667 25.3524C24.4336 25.5235 24.517 25.7312 24.517 25.9787V30.1391Z" fill="#03CA77"/>
</svg>
