<svg xmlns="http://www.w3.org/2000/svg" width="768" height="640" fill="none" viewBox="0 0 768 640"><rect width="512" height="512" x="128" fill="#26292F" rx="64"/><path fill="#E94646" d="M544 112C544 103.163 536.837 96 528 96C519.163 96 512 103.163 512 112V368C512 376.837 504.837 384 496 384H304C295.163 384 288 391.163 288 400C288 408.837 295.163 416 304 416H512H528C536.837 416 544 408.837 544 400V384V112Z"/><path fill="#FB7B05" d="M480 176C480 167.163 472.837 160 464 160C455.163 160 448 167.163 448 176V304C448 312.837 440.837 320 432 320H304C295.163 320 288 327.163 288 336C288 344.837 295.163 352 304 352H448H464C472.837 352 480 344.837 480 336V320V176Z"/><path fill="#4ACA3F" d="M416 176C416 167.163 408.837 160 400 160C391.163 160 384 167.163 384 176V240C384 248.837 376.837 256 368 256H304C295.163 256 288 263.163 288 272C288 280.837 295.163 288 304 288H384H400C408.837 288 416 280.837 416 272V256V176Z"/><path fill="#4180E9" d="M240 96C231.163 96 224 103.163 224 112C224 120.837 231.163 128 240 128H464C472.837 128 480 120.837 480 112C480 103.163 472.837 96 464 96H240ZM256 176C256 167.163 248.837 160 240 160C231.163 160 224 167.163 224 176V400C224 408.837 231.163 416 240 416C248.837 416 256 408.837 256 400V176Z"/><path fill="#3A3A3A" d="M263.938 601V562H250.594V555.219H285.719V562H272.438V601H263.938ZM314.844 598.312C312.115 600.542 308.521 601.656 304.062 601.656C299.604 601.656 296.01 600.542 293.281 598.312C290.573 596.083 289.219 592.812 289.219 588.5V566.656H297.438V588.188C297.438 590.75 297.969 592.604 299.031 593.75C300.115 594.896 301.823 595.469 304.156 595.469C306.448 595.469 308.115 594.906 309.156 593.781C310.219 592.635 310.75 590.771 310.75 588.188V566.656H318.938V588.5C318.938 592.792 317.573 596.062 314.844 598.312ZM340.156 601.469C337.823 601.469 335.875 601.198 334.312 600.656C332.771 600.094 331.562 599.219 330.688 598.031C329.812 596.844 329.188 595.448 328.812 593.844C328.458 592.219 328.281 590.219 328.281 587.844V571.625H322.656L322.969 567.188L328.844 566.656L331.469 557.344L336.469 557.312V566.656H345V571.625H336.469V588C336.469 590.604 336.844 592.458 337.594 593.562C338.344 594.667 339.729 595.219 341.75 595.219C342.938 595.219 344.208 595.115 345.562 594.906L345.781 600.781C345.74 600.781 345.479 600.833 345 600.938C344.542 601.021 344.094 601.094 343.656 601.156C343.24 601.24 342.698 601.312 342.031 601.375C341.365 601.438 340.74 601.469 340.156 601.469ZM376.344 598.312C373.615 600.542 370.021 601.656 365.562 601.656C361.104 601.656 357.51 600.542 354.781 598.312C352.073 596.083 350.719 592.812 350.719 588.5V566.656H358.938V588.188C358.938 590.75 359.469 592.604 360.531 593.75C361.615 594.896 363.323 595.469 365.656 595.469C367.948 595.469 369.615 594.906 370.656 593.781C371.719 592.635 372.25 590.771 372.25 588.188V566.656H380.438V588.5C380.438 592.792 379.073 596.062 376.344 598.312ZM387.969 601V566.656H394.844L395.906 571.906C398.156 568.302 401.417 566.5 405.688 566.5C406.583 566.5 407.312 566.542 407.875 566.625L407.75 573.469C406.917 573.344 406.052 573.281 405.156 573.281C402.135 573.281 399.875 574.083 398.375 575.688C396.896 577.292 396.156 579.521 396.156 582.375V601H387.969ZM437.656 598.312C434.927 600.542 431.333 601.656 426.875 601.656C422.417 601.656 418.823 600.542 416.094 598.312C413.385 596.083 412.031 592.812 412.031 588.5V566.656H420.25V588.188C420.25 590.75 420.781 592.604 421.844 593.75C422.927 594.896 424.635 595.469 426.969 595.469C429.26 595.469 430.927 594.906 431.969 593.781C433.031 592.635 433.562 590.771 433.562 588.188V566.656H441.75V588.5C441.75 592.792 440.385 596.062 437.656 598.312ZM474.031 598.312C471.302 600.542 467.708 601.656 463.25 601.656C458.792 601.656 455.198 600.542 452.469 598.312C449.76 596.083 448.406 592.812 448.406 588.5V566.656H456.625V588.188C456.625 590.75 457.156 592.604 458.219 593.75C459.302 594.896 461.01 595.469 463.344 595.469C465.635 595.469 467.302 594.906 468.344 593.781C469.406 592.635 469.938 590.771 469.938 588.188V566.656H478.125V588.5C478.125 592.792 476.76 596.062 474.031 598.312ZM510.406 598.312C507.677 600.542 504.083 601.656 499.625 601.656C495.167 601.656 491.573 600.542 488.844 598.312C486.135 596.083 484.781 592.812 484.781 588.5V566.656H493V588.188C493 590.75 493.531 592.604 494.594 593.75C495.677 594.896 497.385 595.469 499.719 595.469C502.01 595.469 503.677 594.906 504.719 593.781C505.781 592.635 506.312 590.771 506.312 588.188V566.656H514.5V588.5C514.5 592.792 513.135 596.062 510.406 598.312Z"/></svg>