<svg xmlns="http://www.w3.org/2000/svg" width="240" height="80" fill="none" viewBox="0 0 240 80"><path fill="url(#paint0_linear_13_14995)" d="M80.4009 26.7182C79.5497 27.0629 78.7085 27.4265 77.8535 27.7575L77.8573 27.854L77.8535 27.7662C75.9956 28.5335 74.1365 29.2982 72.2748 30.0591L72.2773 30.0742C71.5138 30.3675 70.7629 30.6885 70.0082 30.9994C68.6668 31.541 67.338 32.1126 65.9878 32.6341C65.9339 32.6717 65.8273 32.7482 65.7747 32.7858C68.4186 32.7846 71.0663 32.7921 73.7102 32.7733C75.108 32.8059 76.5058 32.7733 77.9037 32.7846C79.3504 32.7858 80.7958 32.7871 82.2425 32.7808C81.6395 30.7587 81.0089 28.7428 80.4009 26.7207V26.7182Z"/><path fill="url(#paint1_linear_13_14995)" d="M72.6597 28.704C72.6597 28.704 75.8853 27.3864 77.4373 26.7545C75.7988 24.5456 74.2756 22.2515 72.6308 20.0475C72.6045 20.0137 72.5894 19.9999 72.5894 19.9999L72.2008 20.2506C72.2008 20.2506 69.5431 22.2289 68.223 23.228C67.348 23.8749 66.4804 24.5306 65.6092 25.1837C64.0847 26.3321 62.549 27.4691 61.0246 28.6187C59.173 29.999 57.3326 31.3955 55.4709 32.7633C57.4028 32.8335 59.3409 32.7695 61.2766 32.7883C61.8207 32.7607 62.3773 32.8523 62.9126 32.7269C63.8102 32.3583 64.7078 31.981 65.6092 31.6212V31.6036C66.5168 31.2651 67.4031 30.8728 68.302 30.5155C69.7525 29.9087 71.228 29.3408 72.6622 28.7065L72.6597 28.704Z"/><path fill="#fff" d="M58.0334 36.5618C58.1262 36.4101 58.224 36.2609 58.3218 36.1142C60.033 36.3098 61.7229 36.7047 63.3301 37.3365C65.722 38.2993 67.9309 39.7385 69.7362 41.5826C68.8536 42.1067 68.0713 42.7911 67.4057 43.5697C63.6184 42.1493 59.3573 42.0339 55.5023 43.2588C55.6553 42.5166 55.8157 41.7744 56.0339 41.0473C56.5203 39.4803 57.1747 37.9609 58.0334 36.5605V36.5618Z"/><path fill="#fff" d="M71.4249 43.5283C71.9063 43.5258 72.3889 43.5245 72.8741 43.5258C72.9919 43.7289 73.1148 43.932 73.2351 44.1363C73.7717 45.1054 74.3045 46.0757 74.8636 47.031C75.424 48.0539 75.9944 49.0694 76.5736 50.0811C76.0057 50.0786 75.4403 50.0786 74.8736 50.0773C74.4624 49.28 74.0525 48.484 73.6438 47.6866C72.6208 47.6779 71.5979 47.6942 70.5749 47.6766C70.1286 48.4664 69.7237 49.28 69.2924 50.0786C68.7909 50.0786 68.287 50.0786 67.7855 50.0849C68.9226 48.0552 70.0396 46.0155 71.1679 43.9796C71.2531 43.8292 71.3383 43.6787 71.4261 43.5296L71.4249 43.5283ZM72.0893 44.8108C71.7771 45.4063 71.4487 45.9942 71.1139 46.5759C71.7533 46.5671 72.3927 46.5671 73.032 46.5759C72.7086 45.9917 72.4265 45.3862 72.0893 44.8108Z"/><path fill="#fff" d="M58.6314 44.55C61.2753 43.9044 64.066 43.8567 66.7274 44.4359C66.7274 44.4535 66.73 44.4886 66.7312 44.5061C66.2962 45.1442 65.9828 45.85 65.6869 46.5596C62.8136 46.8266 60.0042 47.7869 57.5696 49.3352C57.6511 47.7669 57.9193 46.2148 58.328 44.7004C58.4233 44.639 58.5173 44.5751 58.6314 44.55Z"/><path fill="#fff" d="M60.8089 49.2988C62.2569 48.514 63.8127 47.9386 65.4086 47.5399C65.2155 48.3423 65.1202 49.1672 65.134 49.9933C64.2164 50.5662 63.3614 51.2545 62.6781 52.0994C62.5603 52.2424 62.4462 52.3903 62.3384 52.5407C61.8858 53.1337 61.531 53.7894 61.2252 54.4651C60.7187 53.0961 60.5419 51.6093 60.6811 50.1588C60.7162 49.8705 60.7638 49.5859 60.8089 49.2988Z"/><path fill="#2F7B3A" d="M72.0892 44.8108C72.0892 44.8108 72.7085 45.9929 73.032 46.5759C72.3926 46.5671 71.7532 46.5671 71.1139 46.5759C71.4486 45.9942 72.0892 44.8108 72.0892 44.8108Z"/><path fill="url(#paint2_linear_13_14995)" d="M87.7849 57.1917C87.7736 56.0284 87.7849 54.8675 87.7811 53.7054C87.7811 53.2127 87.7811 52.7187 87.7798 52.2261C87.7798 51.504 87.7811 50.7831 87.7823 50.0623C86.3406 50.0522 84.8977 50.0811 83.4573 50.0497C82.6111 50.0385 81.8125 49.6586 81.1957 49.0945C80.0449 47.9486 79.9145 45.9892 80.9212 44.7092C81.5367 43.952 82.4707 43.4543 83.4548 43.4305C84.899 43.4205 86.3444 43.4343 87.7886 43.4242C87.7798 42.9065 87.7811 42.3887 87.7811 41.871C87.7786 40.5546 87.7836 39.2383 87.7811 37.922C87.7748 36.7135 87.7874 35.505 87.7798 34.2977C87.7798 33.81 87.2621 33.4465 86.802 33.4879C75.1331 33.4904 63.4654 33.4841 51.7978 33.4904C51.8191 33.3299 51.8391 33.1694 51.8542 33.009C52.0347 32.6818 52.2641 32.3596 52.6189 32.2066C53.2244 31.9421 53.9001 32.1302 54.537 32.0524C55.1801 31.6137 55.7856 31.1185 56.4225 30.6659C55.1663 30.6458 53.9076 30.6571 52.6515 30.6596C51.3352 30.6571 50.1542 31.7102 49.9311 32.9939C49.901 34.497 49.9298 36.0014 49.9198 37.5058C49.916 38.8246 49.9223 40.1447 49.9198 41.4648C49.9173 42.5229 49.9211 43.5809 49.9211 44.639C49.9173 45.3323 49.9211 46.0255 49.9198 46.7188C49.916 48.1229 49.9211 49.527 49.9198 50.9298C49.9173 51.8525 49.9211 52.7739 49.9198 53.6966C49.9135 54.8675 49.9273 56.0384 49.9173 57.2093C49.8885 58.3288 50.6469 59.3894 51.6812 59.7893C52.2227 60.0175 52.8207 60.0037 53.3974 59.9974C63.9481 59.9911 74.5 60.0037 85.0507 59.9911C86.5099 59.9823 87.8676 58.6748 87.7849 57.1905V57.1917ZM71.1666 43.9783C71.2518 43.8279 71.337 43.6775 71.4248 43.5283C71.9062 43.5258 72.3889 43.5245 72.874 43.5258C72.9919 43.7289 73.1147 43.932 73.2351 44.1363C73.7716 45.1054 74.3044 46.0757 74.8635 47.031C75.4239 48.0539 75.9943 49.0694 76.5735 50.0811C76.0056 50.0786 75.4402 50.0786 74.8736 50.0773C74.4624 49.28 74.0524 48.4839 73.6438 47.6866C72.6208 47.6778 71.5978 47.6941 70.5748 47.6766C70.1285 48.4664 69.7236 49.28 69.2924 50.0786C68.7909 50.0786 68.2869 50.0786 67.7855 50.0848C68.9225 48.0552 70.0395 46.0155 71.1678 43.9796L71.1666 43.9783ZM56.0338 41.0498C56.5202 39.4828 57.1746 37.9634 58.0334 36.563C58.1262 36.4113 58.2239 36.2622 58.3217 36.1155C60.0329 36.3111 61.7229 36.706 63.33 37.3378C65.722 38.3006 67.9309 39.7398 69.7361 41.5839C68.8536 42.1079 68.0713 42.7924 67.4056 43.5709C63.6184 42.1505 59.3572 42.0352 55.5023 43.26C55.6552 42.5178 55.8157 41.7757 56.0338 41.0486V41.0498ZM58.328 44.7004C58.4233 44.639 58.5173 44.5751 58.6314 44.55C61.2753 43.9056 64.0659 43.8567 66.7274 44.4359C66.7274 44.4535 66.7299 44.4886 66.7312 44.5061C66.2961 45.1442 65.9827 45.85 65.6869 46.5596C62.8135 46.8266 60.0041 47.7869 57.5695 49.3352C57.651 47.7668 57.9193 46.2148 58.328 44.7004ZM61.2252 54.4663C60.7187 53.0973 60.5419 51.6105 60.6811 50.1601C60.7162 49.8717 60.7638 49.5871 60.809 49.3001C62.2569 48.5153 63.8127 47.9399 65.4086 47.5412C65.2155 48.3435 65.1202 49.1684 65.134 49.9946C64.2164 50.5675 63.3614 51.2557 62.6781 52.1007C62.5603 52.2436 62.4462 52.3915 62.3384 52.542C61.8858 53.1349 61.5311 53.7906 61.2252 54.4663Z"/><path fill="url(#paint3_linear_13_14995)" d="M83.2241 44.4221C83.3583 44.4134 83.4924 44.4083 83.6278 44.4058C83.4937 44.4083 83.3583 44.4134 83.2241 44.4221Z"/><path fill="url(#paint4_linear_13_14995)" d="M83.1489 49.0644H83.1514H87.756V44.4234H83.2228C83.1865 44.4259 83.1514 44.4271 83.115 44.4309C83.0197 44.4384 82.9257 44.4472 82.8317 44.4585C81.904 44.797 81.1706 45.6795 81.1769 46.6925C81.1255 47.7844 81.9366 48.7723 82.9708 49.0581C83.0197 49.0606 83.0674 49.0619 83.1163 49.0631C83.1275 49.0631 83.1388 49.0631 83.1501 49.0644H83.1489ZM82.3653 46.6887C82.3616 46.2863 82.6374 45.9654 82.9245 45.7171C83.2805 45.5379 83.6879 45.5316 84.0653 45.652C84.4639 45.9039 84.7874 46.3364 84.7247 46.8329C84.7234 47.2328 84.4389 47.5374 84.1543 47.7819C83.797 47.9424 83.3996 47.9687 83.0323 47.8283C82.6512 47.5776 82.3202 47.1726 82.3653 46.69V46.6887Z"/><path fill="url(#paint5_linear_13_14995)" d="M83.6829 44.4058C83.8183 44.4046 83.9536 44.4058 84.089 44.4083C83.9536 44.4046 83.8183 44.4046 83.6829 44.4058Z"/><path fill="url(#paint6_linear_13_14995)" d="M83.6854 49.0807C83.5074 49.0769 83.3306 49.0719 83.1526 49.0631C83.3306 49.0706 83.5074 49.0782 83.6854 49.0807Z"/><path fill="url(#paint7_linear_13_14995)" d="M87.7573 44.4221C87.3499 44.4046 86.9449 44.4021 86.5388 44.4096C86.184 44.4071 85.8304 44.4071 85.4794 44.4083C85.0156 44.4071 84.5517 44.4096 84.0891 44.4083C83.9537 44.4046 83.8183 44.4046 83.683 44.4058C83.6642 44.4058 83.6466 44.4058 83.6278 44.4058C83.4937 44.4083 83.3583 44.4134 83.2241 44.4221H87.7573Z"/><path fill="url(#paint8_linear_13_14995)" d="M87.7573 44.4221C87.3499 44.4046 86.9449 44.4021 86.5388 44.4096C86.184 44.4071 85.8304 44.4071 85.4794 44.4083C85.0156 44.4071 84.5517 44.4096 84.0891 44.4083C83.9537 44.4046 83.8183 44.4046 83.683 44.4058C83.6642 44.4058 83.6466 44.4058 83.6278 44.4058C83.4937 44.4083 83.3583 44.4134 83.2241 44.4221H87.7573Z"/><path fill="url(#paint9_linear_13_14995)" d="M84.2371 49.0819C84.0528 49.0857 83.8685 49.0844 83.6842 49.0819C83.8685 49.0857 84.0528 49.0857 84.2371 49.0819Z"/><path fill="url(#paint10_linear_13_14995)" d="M90.6632 52.384C90.6607 46.0619 90.6645 39.741 90.6607 33.4189C90.6595 31.9898 89.4183 30.6985 87.9867 30.6621C86.3294 30.6509 84.6721 30.6496 83.016 30.6634C83.174 31.126 83.3206 31.5911 83.4585 32.06C84.9165 32.0725 86.3732 32.0562 87.83 32.0687C88.5421 32.07 89.2128 32.6818 89.2265 33.4051C89.2366 36.7423 89.2228 40.0833 89.2328 43.4217C88.7439 43.759 88.2387 44.0724 87.7573 44.4209V49.0619H83.1526C83.3307 49.0694 83.5074 49.0757 83.6854 49.0794C83.8697 49.0819 84.054 49.0832 84.2383 49.0794C84.6507 49.0794 85.0632 49.0807 85.4769 49.0794H86.5274C86.9299 49.0769 87.3335 49.0719 87.736 49.0995C88.2725 48.86 88.7351 48.4864 89.2153 48.1505C89.2491 50.7029 89.2228 53.2578 89.2278 55.8102C90.1442 54.9239 90.6783 53.6565 90.662 52.3815L90.6632 52.384Z"/><path fill="url(#paint11_linear_13_14995)" d="M90.6632 52.384C90.6607 46.0619 90.6645 39.741 90.6607 33.4189C90.6595 31.9898 89.4183 30.6985 87.9867 30.6621C86.3294 30.6509 84.6721 30.6496 83.016 30.6634C83.174 31.126 83.3206 31.5911 83.4585 32.06C84.9165 32.0725 86.3732 32.0562 87.83 32.0687C88.5421 32.07 89.2128 32.6818 89.2265 33.4051C89.2366 36.7423 89.2228 40.0833 89.2328 43.4217C88.7439 43.759 88.2387 44.0724 87.7573 44.4209V49.0619H83.1526C83.3307 49.0694 83.5074 49.0757 83.6854 49.0794C83.8697 49.0819 84.054 49.0832 84.2383 49.0794C84.6507 49.0794 85.0632 49.0807 85.4769 49.0794H86.5274C86.9299 49.0769 87.3335 49.0719 87.736 49.0995C88.2725 48.86 88.7351 48.4864 89.2153 48.1505C89.2491 50.7029 89.2228 53.2578 89.2278 55.8102C90.1442 54.9239 90.6783 53.6565 90.662 52.3815L90.6632 52.384Z"/><path fill="url(#paint12_linear_13_14995)" d="M83.224 44.4221H83.1162V44.4297C83.1526 44.4271 83.1877 44.4246 83.224 44.4221Z"/><path fill="url(#paint13_linear_13_14995)" d="M83.1162 44.4297C83.1526 44.4271 83.1877 44.4246 83.224 44.4221C83.1877 44.4246 83.1526 44.4259 83.1162 44.4297Z"/><path fill="url(#paint14_linear_13_14995)" d="M83.1162 44.4297C83.1526 44.4271 83.1877 44.4246 83.224 44.4221C83.1877 44.4246 83.1526 44.4259 83.1162 44.4297Z"/><path fill="url(#paint15_linear_13_14995)" d="M83.1162 49.0631L83.1526 49.0644H83.1501C83.1388 49.0644 83.1275 49.0644 83.1162 49.0631Z"/><path fill="url(#paint16_linear_13_14995)" d="M83.1162 49.0631C83.1275 49.0631 83.1388 49.0631 83.1501 49.0644C83.1388 49.0644 83.1275 49.0644 83.1162 49.0631Z"/><path fill="url(#paint17_linear_13_14995)" d="M83.1162 49.0631C83.1275 49.0631 83.1388 49.0631 83.1501 49.0644C83.1388 49.0644 83.1275 49.0644 83.1162 49.0631Z"/><path fill="#0C783C" d="M97.7614 49.2625C99.9678 45.4301 102.108 41.5576 104.318 37.7264C105.184 37.739 106.049 37.7327 106.917 37.7289C109.176 41.6152 111.382 45.5304 113.645 49.4129C112.635 49.4129 111.622 49.4104 110.611 49.4129L110.544 49.3703C109.81 47.9612 109.07 46.5571 108.325 45.1543C106.448 45.1605 104.571 45.1543 102.694 45.158C101.928 46.5734 101.173 47.9938 100.409 49.4104C99.4588 49.3828 98.496 49.4693 97.552 49.3665C97.6047 49.3414 97.7087 49.2875 97.7614 49.2612V49.2625ZM103.729 43.166C104.887 43.181 106.045 43.166 107.203 43.1735C106.647 42.1217 106.076 41.0799 105.535 40.0206C104.912 41.0574 104.349 42.128 103.729 43.1672V43.166Z"/><path fill="#0C783C" d="M114.772 37.734C118.186 37.7314 121.598 37.734 125.012 37.734C125.672 37.734 126.388 37.848 126.889 38.3181C127.356 38.7619 127.395 39.4539 127.406 40.0595C127.41 41.2291 127.415 42.3963 127.404 43.5659C127.408 44.2692 127.148 45.0828 126.459 45.3925C125.82 45.667 125.106 45.6482 124.424 45.6495C122.113 45.6457 119.803 45.6545 117.492 45.6444C117.48 46.8981 117.477 48.153 117.495 49.4066C116.585 49.4167 115.675 49.4154 114.765 49.4066C114.788 45.5141 114.771 41.624 114.773 37.7327L114.772 37.734ZM117.48 40.3491C117.486 41.2893 117.482 42.232 117.482 43.1723C119.553 43.1697 121.624 43.1773 123.695 43.1685C124.087 43.176 124.573 43.0306 124.665 42.5956C124.712 42.0352 124.712 41.4635 124.665 40.9044C124.573 40.4707 124.08 40.3503 123.697 40.3516C121.626 40.344 119.553 40.3491 117.481 40.3491H117.48Z"/><path fill="#0C783C" d="M130.078 37.7327C133.51 37.7327 136.943 37.7327 140.377 37.7327C141.031 37.7365 141.738 37.8606 142.221 38.342C142.673 38.787 142.703 39.464 142.726 40.0595C142.728 41.2279 142.736 42.3963 142.722 43.5646C142.708 44.1714 142.534 44.8383 142.036 45.2307C141.564 45.5793 140.947 45.6081 140.383 45.6432C137.854 45.6557 135.326 45.6382 132.796 45.652C132.813 46.9044 132.796 48.158 132.807 49.4104C131.897 49.4104 130.987 49.4104 130.075 49.4104C130.079 45.5166 130.075 41.6253 130.078 37.7314V37.7327ZM132.799 40.3465C132.803 41.2868 132.808 42.2283 132.797 43.1685C134.842 43.1773 136.886 43.171 138.932 43.171C139.322 43.176 139.841 43.0858 139.963 42.6457C140.034 42.2709 139.983 41.8835 140 41.5062C139.993 41.1802 140.051 40.7753 139.758 40.5471C139.445 40.3302 139.044 40.3528 138.682 40.3465C136.722 40.3491 134.76 40.3491 132.801 40.3465H132.799Z"/><path fill="#0C783C" d="M146.615 37.8555C146.987 37.7678 147.369 37.7289 147.752 37.7314C150.734 37.7365 153.716 37.7277 156.698 37.7352C157.392 37.7678 158.194 37.8856 158.641 38.4836C159.012 39.0026 159.054 39.6721 159.063 40.2901C159.063 42.5103 159.066 44.7293 159.063 46.9495C159.048 47.5838 158.992 48.2909 158.55 48.7861C158.06 49.3289 157.273 49.3978 156.587 49.4116C153.604 49.4116 150.619 49.4116 147.635 49.4116C146.976 49.4004 146.228 49.3377 145.738 48.8437C145.273 48.3836 145.188 47.6866 145.167 47.0648C145.159 44.8083 145.167 42.5542 145.163 40.2976C145.167 39.7097 145.227 39.0904 145.533 38.5751C145.761 38.1827 146.186 37.9558 146.617 37.8568L146.615 37.8555ZM147.884 40.349C147.893 42.5028 147.892 44.6553 147.884 46.8091C150.706 46.8153 153.53 46.8091 156.352 46.8116C156.352 44.6566 156.352 42.5028 156.352 40.3478C153.528 40.3503 150.706 40.3478 147.883 40.3478L147.884 40.349Z"/><path fill="#0C783C" d="M160.713 37.7327C165.199 37.7327 169.683 37.7352 174.168 37.7327C174.171 38.604 174.162 39.4765 174.172 40.3491C172.385 40.3491 170.596 40.3541 168.809 40.3453C168.809 43.3678 168.807 46.3891 168.809 49.4116C167.894 49.4141 166.979 49.4116 166.064 49.4116C166.069 46.9733 166.064 44.5325 166.064 42.0941C164.71 42.0916 163.357 42.0991 162.002 42.0904C162.002 41.9399 162.002 41.7907 162.002 41.6416C163.353 41.6353 164.706 41.6391 166.06 41.6416C166.067 41.2116 166.062 40.7791 166.07 40.3503C164.282 40.3428 162.493 40.3553 160.706 40.344C160.723 39.474 160.712 38.6027 160.713 37.7327Z"/><path fill="#0C783C" d="M180.672 37.7327C181.546 37.7327 182.421 37.7327 183.296 37.7327C185.351 41.2918 187.391 44.8597 189.439 48.4238C189.641 48.7597 189.796 49.1308 190.083 49.4091C189.038 49.4154 187.991 49.4129 186.946 49.4091C186.195 47.995 185.444 46.5797 184.699 45.1618C182.834 45.1493 180.967 45.1618 179.102 45.1555C178.318 46.5684 177.556 47.995 176.777 49.4104C175.867 49.4129 174.957 49.4079 174.048 49.4141C176.273 45.5291 178.458 41.6228 180.671 37.7314L180.672 37.7327ZM181.872 40.0394C181.307 41.09 180.724 42.1317 180.127 43.166C181.275 43.176 182.425 43.1748 183.576 43.166C182.98 42.138 182.498 41.0461 181.872 40.0381V40.0394Z"/><path fill="#0C783C" d="M175.456 39.0365C175.615 39.0365 175.778 39.034 175.941 39.034C175.939 40.0519 175.941 41.0712 175.941 42.0891C174.152 42.1004 172.362 42.0891 170.573 42.0941C170.573 45.1179 170.567 48.1417 170.577 51.1642C169.552 51.1743 168.528 51.168 167.504 51.168C167.504 51.015 167.504 50.8621 167.508 50.7104C168.372 50.7167 169.234 50.7104 170.099 50.7142C170.103 47.6891 170.104 44.6653 170.099 41.6416C171.888 41.619 173.682 41.6704 175.472 41.6165C175.46 40.7565 175.481 39.8965 175.458 39.0365H175.456Z"/><defs><linearGradient id="paint0_linear_13_14995" x1="65.775" x2="82.243" y1="29.752" y2="29.752" gradientUnits="userSpaceOnUse"><stop stop-color="#499540"/><stop offset=".5" stop-color="#3F8A3E"/><stop offset="1" stop-color="#165B30"/></linearGradient><linearGradient id="paint1_linear_13_14995" x1="55.47" x2="77.437" y1="26.398" y2="26.398" gradientUnits="userSpaceOnUse"><stop stop-color="#499540"/><stop offset=".5" stop-color="#3F8A3E"/><stop offset="1" stop-color="#165B30"/></linearGradient><linearGradient id="paint2_linear_13_14995" x1="68.852" x2="68.852" y1="60" y2="30.652" gradientUnits="userSpaceOnUse"><stop stop-color="#165B30"/><stop offset="1" stop-color="#529F43"/></linearGradient><linearGradient id="paint3_linear_13_14995" x1="81.176" x2="90.663" y1="44.415" y2="44.415" gradientUnits="userSpaceOnUse"><stop stop-color="#13582F"/><stop offset="1" stop-color="#5DAF46"/></linearGradient><linearGradient id="paint4_linear_13_14995" x1="81.176" x2="90.663" y1="46.743" y2="46.743" gradientUnits="userSpaceOnUse"><stop stop-color="#13582F"/><stop offset="1" stop-color="#5DAF46"/></linearGradient><linearGradient id="paint5_linear_13_14995" x1="81.176" x2="90.663" y1="44.406" y2="44.406" gradientUnits="userSpaceOnUse"><stop stop-color="#13582F"/><stop offset="1" stop-color="#5DAF46"/></linearGradient><linearGradient id="paint6_linear_13_14995" x1="81.176" x2="90.663" y1="49.073" y2="49.073" gradientUnits="userSpaceOnUse"><stop stop-color="#13582F"/><stop offset="1" stop-color="#5DAF46"/></linearGradient><linearGradient id="paint7_linear_13_14995" x1="81.176" x2="90.663" y1="44.413" y2="44.413" gradientUnits="userSpaceOnUse"><stop stop-color="#13582F"/><stop offset="1" stop-color="#5DAF46"/></linearGradient><linearGradient id="paint8_linear_13_14995" x1="81.176" x2="90.663" y1="44.413" y2="44.413" gradientUnits="userSpaceOnUse"><stop stop-color="#499540"/><stop offset="1" stop-color="#5DAF46"/></linearGradient><linearGradient id="paint9_linear_13_14995" x1="81.176" x2="90.663" y1="49.083" y2="49.083" gradientUnits="userSpaceOnUse"><stop stop-color="#499540"/><stop offset="1" stop-color="#5DAF46"/></linearGradient><linearGradient id="paint10_linear_13_14995" x1="81.176" x2="90.663" y1="43.234" y2="43.234" gradientUnits="userSpaceOnUse"><stop stop-color="#13582F"/><stop offset="1" stop-color="#5DAF46"/></linearGradient><linearGradient id="paint11_linear_13_14995" x1="81.176" x2="90.663" y1="43.234" y2="43.234" gradientUnits="userSpaceOnUse"><stop stop-color="#499540"/><stop offset="1" stop-color="#5DAF46"/></linearGradient><linearGradient id="paint12_linear_13_14995" x1="83.116" x2="87.757" y1="44.426" y2="44.426" gradientUnits="userSpaceOnUse"><stop stop-color="#499540"/><stop offset="1" stop-color="#5DAF46"/></linearGradient><linearGradient id="paint13_linear_13_14995" x1="81.175" x2="90.663" y1="44.426" y2="44.426" gradientUnits="userSpaceOnUse"><stop stop-color="#13582F"/><stop offset="1" stop-color="#5DAF46"/></linearGradient><linearGradient id="paint14_linear_13_14995" x1="83.116" x2="87.757" y1="44.426" y2="44.426" gradientUnits="userSpaceOnUse"><stop stop-color="#499540"/><stop offset="1" stop-color="#5DAF46"/></linearGradient><linearGradient id="paint15_linear_13_14995" x1="83.116" x2="87.757" y1="49.063" y2="49.063" gradientUnits="userSpaceOnUse"><stop stop-color="#499540"/><stop offset="1" stop-color="#5DAF46"/></linearGradient><linearGradient id="paint16_linear_13_14995" x1="81.175" x2="90.664" y1="49.063" y2="49.063" gradientUnits="userSpaceOnUse"><stop stop-color="#13582F"/><stop offset="1" stop-color="#5DAF46"/></linearGradient><linearGradient id="paint17_linear_13_14995" x1="83.116" x2="87.757" y1="49.063" y2="49.063" gradientUnits="userSpaceOnUse"><stop stop-color="#499540"/><stop offset="1" stop-color="#5DAF46"/></linearGradient></defs></svg>