<svg xmlns="http://www.w3.org/2000/svg" width="240" height="80" fill="none" viewBox="0 0 240 80"><path fill="#016D9C" d="M27.7321 21.3496C27.6757 20.6815 28.2191 20.0083 28.9094 20.0134C30.9136 19.9946 32.9179 20.0083 34.9222 20.0065C35.5698 19.9758 36.19 20.5277 36.1832 21.1872C36.202 24.8524 36.1883 28.5192 36.19 32.1843C38.7343 30.1168 42.0628 29.0198 45.34 29.2607C48.4908 29.4675 51.5254 30.8823 53.7569 33.107C56.4259 35.658 58.0286 39.2223 58.4028 42.8755C58.7411 46.1425 58.1141 49.5171 56.5558 52.4116C55.1017 55.1113 52.8308 57.4009 50.0474 58.7166C47.4348 59.9879 44.3848 60.3125 41.5553 59.6632C39.6006 59.2002 37.7535 58.2946 36.19 57.0336C36.1815 57.6658 36.2157 58.2997 36.1798 58.9319C36.1063 59.5402 35.5339 60.0101 34.9273 59.9862C32.923 59.9879 30.9171 59.9913 28.9128 59.9845C28.2225 59.9691 27.6586 59.3147 27.7338 58.6295C27.7321 46.2023 27.7372 33.7768 27.7321 21.3496ZM41.7808 37.8075C39.0316 38.3031 36.7317 40.6354 36.2926 43.3966C35.8586 45.7102 36.7266 48.198 38.4848 49.7546C39.9389 51.0754 41.9756 51.7196 43.9235 51.4787C45.8629 51.2753 47.6775 50.1767 48.783 48.5756C49.9312 46.9866 50.2986 44.8832 49.8355 42.9848C49.4425 41.3155 48.3917 39.8152 46.9667 38.8635C45.4733 37.828 43.5578 37.4726 41.7808 37.8075Z"/><path fill="#016D9C" d="M129.253 21.341C129.192 20.6781 129.732 20.0373 130.4 20.0134C132.406 19.9929 134.412 20.01 136.419 20.0048C137.091 19.9399 137.735 20.5379 137.708 21.2146C137.702 27.0326 137.723 32.8524 137.696 38.6704C139.816 35.9588 141.913 33.23 144.026 30.5132C144.271 30.1715 144.684 29.9716 145.106 30.0006C147.649 30.0057 150.191 29.9903 152.734 30.0074C153.631 30.0331 154.19 31.2189 153.631 31.9229C150.709 35.7281 147.726 39.4855 144.829 43.3078C148.079 48.2322 151.295 53.1805 154.531 58.1135C155.052 58.8704 154.425 60.0238 153.503 59.981C151.16 59.9964 148.819 59.9845 146.477 59.9879C145.991 60.0067 145.486 59.7828 145.246 59.3471C142.733 55.5111 140.224 51.6735 137.706 47.8426C137.711 51.4872 137.708 55.1318 137.708 58.7747C137.737 59.465 137.086 60.0408 136.411 59.9879C134.405 59.981 132.399 59.9998 130.393 59.9793C129.721 59.9571 129.204 59.289 129.251 58.638C129.253 46.2057 129.246 33.7734 129.253 21.341Z"/><path fill="#2CB354" d="M164.97 20.1808C165.388 20.1569 165.839 20.0476 166.237 20.2458C166.637 20.4662 166.923 20.9036 166.906 21.3718C166.907 22.5696 166.906 23.7673 166.906 24.9651C166.955 25.5956 166.432 26.209 165.798 26.2501C163.806 26.438 161.812 26.6225 159.816 26.7917C159.073 26.925 158.372 26.2244 158.448 25.488C158.449 24.2748 158.441 23.0617 158.451 21.8485C158.439 21.2197 158.993 20.6951 159.606 20.6729C161.393 20.5072 163.181 20.3466 164.97 20.1808Z"/><path fill="#016D9C" d="M73.1829 29.459C76.9198 28.7123 80.9232 29.7887 83.8656 32.186C83.7921 31.388 83.8143 30.2467 84.7968 30.0399C86.8455 29.9459 88.9044 30.0296 90.9566 29.9972C91.6776 29.9203 92.3611 30.5405 92.3201 31.2719C92.3252 40.3928 92.3184 49.5154 92.3235 58.6363C92.3816 59.3078 91.8382 59.9862 91.1445 59.9793C89.142 59.9981 87.136 59.9845 85.1334 59.9862C84.5456 60.0101 83.9681 59.5658 83.8895 58.9763C83.8297 58.3305 83.8758 57.6812 83.8656 57.0353C81.3213 59.1011 77.9963 60.1998 74.719 59.9588C71.5682 59.7538 68.5302 58.3373 66.2987 56.1126C63.628 53.5598 62.0235 49.9904 61.6528 46.3338C61.2495 42.45 62.2217 38.4056 64.4892 35.2121C66.5293 32.3022 69.6613 30.1065 73.1829 29.459ZM75.6127 37.8075C72.8651 38.3031 70.5669 40.632 70.1244 43.3898C69.687 45.7102 70.5601 48.2066 72.3286 49.7649C73.7861 51.084 75.8297 51.7247 77.7793 51.477C79.7101 51.2668 81.5144 50.1698 82.6148 48.5739C83.7648 46.9848 84.1304 44.8815 83.6674 42.9831C83.2658 41.2796 82.1774 39.7537 80.7096 38.8037C79.2299 37.8127 77.3538 37.4795 75.6127 37.8075Z"/><path fill="url(#paint0_linear_13_14986)" d="M107.522 29.5803C112.517 28.4491 118.001 30.0604 121.608 33.693C117.996 37.3018 114.388 40.9139 110.775 44.5243C109.361 43.1147 107.954 41.6982 106.538 40.2902C106.063 39.834 105.236 39.8562 104.793 40.3449C103.936 41.1924 103.086 42.0485 102.234 42.8994C101.742 43.3419 101.702 44.1843 102.189 44.6457C104.751 47.2223 107.326 49.7871 109.894 52.3552C110.357 52.849 111.22 52.8559 111.673 52.3415C116.144 47.8768 120.602 43.3966 125.084 38.9404C126.167 41.7136 126.449 44.7994 125.837 47.7162C125.181 51.0002 123.389 54.0366 120.857 56.2237C118.312 58.4432 115.02 59.7863 111.649 59.9622C108.851 60.128 106.012 59.4992 103.551 58.1562C100.722 56.6525 98.4098 54.2296 96.9796 51.3676C95.3734 48.1485 94.9719 44.3586 95.8553 40.8712C97.1881 35.2992 101.906 30.7217 107.522 29.5803Z"/><path fill="#016D9C" d="M178.439 32.0476C180.305 30.262 182.851 29.1856 185.445 29.23C188.814 29.2283 192.085 31.1095 193.817 33.9921C194.774 32.4201 196.177 31.1266 197.822 30.2996C199.91 29.2163 202.395 28.9549 204.672 29.5256C206.933 30.1048 208.988 31.4923 210.337 33.3992C211.608 35.1523 212.29 37.3137 212.273 39.4786C212.267 45.9221 212.276 52.3655 212.267 58.8089C212.249 59.4189 211.722 59.9811 211.1 59.9793C209.093 59.9998 207.087 59.9845 205.081 59.9862C204.414 60.0204 203.798 59.4394 203.818 58.7679C203.806 53.5393 203.816 48.3091 203.813 43.0788C203.845 41.9306 203.854 40.702 203.189 39.7093C202.113 37.8281 199.487 37.1121 197.605 38.1852C196.243 38.9541 195.36 40.4782 195.357 42.0399C195.35 47.629 195.36 53.2181 195.352 58.8055C195.334 59.4206 194.803 59.9828 194.179 59.9793C192.175 59.9981 190.173 59.9845 188.17 59.9862C187.5 60.0221 186.878 59.4377 186.902 58.7628C186.89 53.1344 186.902 47.506 186.895 41.8776C186.895 40.5722 186.236 39.2924 185.19 38.5184C183.895 37.5239 181.995 37.4077 180.59 38.2398C179.567 38.8703 178.805 39.9195 178.552 41.0968C178.398 41.7426 178.442 42.4107 178.439 43.0686C178.439 48.3142 178.442 53.5598 178.436 58.8055C178.419 59.4189 177.891 59.9811 177.267 59.9793C175.317 60.0016 173.366 59.9793 171.416 59.9896C170.697 60.0853 169.955 59.5095 169.985 58.7593C169.976 49.5957 169.981 40.4321 169.983 31.2684C169.945 30.5747 170.569 29.9545 171.266 30.0006C173.25 29.9989 175.235 29.9989 177.222 30.0023C177.785 29.9989 178.306 30.4226 178.41 30.978C178.463 31.3317 178.432 31.6905 178.439 32.0476Z"/><path fill="#016D9C" d="M159.16 30.1151C159.411 29.9886 159.705 30.0074 159.982 29.9972C161.86 30.004 163.739 29.9972 165.619 30.0006C166.319 29.9528 166.945 30.5798 166.906 31.2787C166.907 40.1621 166.906 49.0455 166.907 57.9289C166.885 58.3766 166.981 58.8533 166.786 59.2771C166.603 59.723 166.109 59.9981 165.638 59.9862C163.639 59.9879 161.639 59.9913 159.642 59.9845C158.952 59.9776 158.378 59.33 158.448 58.6431C158.444 49.6982 158.451 40.7533 158.448 31.8067C158.381 31.1745 158.499 30.3919 159.162 30.1151H159.16Z"/><defs><linearGradient id="paint0_linear_13_14986" x1="103.097" x2="118.465" y1="57.905" y2="31.287" gradientUnits="userSpaceOnUse"><stop stop-color="#16A74A"/><stop offset="1" stop-color="#84C340"/></linearGradient></defs></svg>