<svg xmlns="http://www.w3.org/2000/svg" width="40" height="40" fill="none" viewBox="0 0 40 40"><path fill="#FCFCFC" d="M20 40C31.0457 40 40 31.0457 40 20C40 8.9543 31.0457 0 20 0C8.9543 0 0 8.9543 0 20C0 31.0457 8.9543 40 20 40Z"/><path fill="url(#paint0_linear_12_830)" d="M16.4722 3.71481C21.8852 2.48889 27.8296 4.23518 31.7389 8.17222C27.8241 12.0833 23.913 15.9981 19.9981 19.9111C18.4648 18.3833 16.9407 16.8481 15.4055 15.3222C14.8907 14.8278 13.9944 14.8519 13.5148 15.3815C12.5852 16.3 11.6648 17.2278 10.7407 18.15C10.2074 18.6296 10.1648 19.5426 10.6926 20.0426C13.4685 22.8352 16.2592 25.6148 19.0426 28.3981C19.5444 28.9333 20.4796 28.9407 20.9704 28.3833C25.8167 23.5444 30.6481 18.6889 35.5055 13.8593C36.6796 16.8648 36.9852 20.2093 36.3222 23.3704C35.6111 26.9296 33.6685 30.2204 30.9241 32.5907C28.1667 34.9963 24.5981 36.4519 20.9444 36.6426C17.913 36.8222 14.8352 36.1407 12.1685 34.6852C9.10184 33.0556 6.59629 30.4296 5.04629 27.3278C3.30555 23.8389 2.87035 19.7315 3.82776 15.9519C5.2722 9.91296 10.3852 4.95185 16.4722 3.71481Z"/><defs><linearGradient id="paint0_linear_12_830" x1="11.678" x2="28.333" y1="34.413" y2="5.565" gradientUnits="userSpaceOnUse"><stop stop-color="#16A74A"/><stop offset="1" stop-color="#84C340"/></linearGradient></defs></svg>