<svg xmlns="http://www.w3.org/2000/svg" width="240" height="80" fill="none" viewBox="0 0 240 80"><path fill="#0594DA" d="M34.1926 20H40.9233C42.4367 20.2172 43.8342 21.2799 44.3121 22.7516C44.6434 23.6531 44.4949 24.6271 44.5384 25.5648C45.3874 24.1962 46.4338 22.9218 47.7643 21.9967C49.676 20.6336 52.0438 20.1267 54.3501 20H56.1966C58.3581 20.0996 60.5992 20.5503 62.3733 21.8628C63.9464 22.9942 65.1213 24.5673 66.2201 26.1405C67.3335 23.9265 69.1021 21.9822 71.4138 21.0065C72.8222 20.3657 74.3664 20.1267 75.8961 20H77.5652C80.391 20.1647 83.2205 21.0753 85.4345 22.8765C88.4052 25.1955 90.0887 28.9319 90.1485 32.6702C90.1503 41.7777 90.1484 50.887 90.1503 59.9946C88.1517 59.9946 86.155 60.0018 84.1582 59.9927C82.0004 60.0778 80.0416 58.177 80.0344 56.0264C80.0163 49.0224 80.0344 42.0203 80.0254 35.0181C80.0344 33.2187 79.2795 31.4048 77.9236 30.21C76.6673 29.0876 74.962 28.4703 73.2766 28.5789C71.5623 28.7219 69.8787 29.5166 68.798 30.8762C67.9037 31.9207 67.4041 33.2784 67.3461 34.647C67.3208 43.0956 67.3661 51.546 67.3226 59.9964C65.1485 59.9819 62.9725 60.0253 60.7983 59.9746C58.7509 59.9095 56.9913 58.0557 56.9931 56.0174C56.9678 48.9591 56.9931 41.9008 56.9805 34.8425C56.9895 33.4884 56.6094 32.1017 55.7766 31.021C54.7285 29.5492 52.9942 28.6043 51.1948 28.4848C49.4099 28.3418 47.5923 29.0478 46.336 30.3168C45.201 31.4573 44.5565 33.0576 44.5366 34.6633C44.5112 43.1064 44.5547 51.5514 44.5149 59.9946C42.4584 59.9946 40.4019 60.0018 38.3472 59.9927C37.5199 59.9964 36.6981 59.7574 36.0083 59.303C34.971 58.673 34.37 57.5145 34.1926 56.3414L34.1926 20Z"/><path fill="#0594DA" d="M110.48 20H112.676C116.812 20.1629 121.075 21.173 124.392 23.7654C127.495 26.1405 129.403 29.7954 130.214 33.5681C131.028 37.3968 131.055 41.3812 130.442 45.2426C129.823 48.8541 128.344 52.424 125.706 55.0326C122.875 57.862 118.939 59.3302 115.014 59.7665C111.233 60.1774 107.323 59.9855 103.693 58.7799C100.65 57.7643 97.8512 55.8852 95.9685 53.2639C93.6314 50.0977 92.6448 46.1441 92.3841 42.2701C92.1886 38.7636 92.3769 35.1828 93.4322 31.8121C94.4478 28.4902 96.4373 25.3928 99.3157 23.3925C102.534 21.0554 106.566 20.181 110.48 20ZM109.042 27.882C107.504 28.139 105.99 28.7274 104.799 29.7538C102.969 31.3142 102.183 33.7255 101.832 36.03C101.512 38.5119 101.499 41.0355 101.781 43.5228C102.087 45.9667 102.855 48.5445 104.785 50.2082C106.85 52.0148 109.754 52.3715 112.399 52.2592C114.967 52.1814 117.732 51.3523 119.327 49.2089C121.267 46.689 121.55 43.3562 121.602 40.286C121.597 38.0286 121.497 35.7277 120.787 33.5644C120.197 31.7161 119.048 29.9819 117.335 29.0043C114.841 27.5796 111.821 27.509 109.042 27.882Z"/><path fill="#0594DA" d="M151.752 20H153.597C157.207 20.1683 160.8 20.9359 164.109 22.3986C164.508 22.5706 164.692 23.025 164.716 23.4341C164.94 25.3693 165.244 27.2972 165.425 29.2379C165.509 29.7864 164.814 30.2064 164.348 29.9348C161.282 28.9518 158.159 28.0539 154.938 27.7806C152.466 27.5923 149.913 27.6901 147.563 28.5445C145.664 29.2415 144.06 30.7313 143.324 32.6249C142.185 35.5141 142.286 38.6821 142.339 41.7306C142.493 44.5565 143.083 47.6195 145.165 49.6904C147.094 51.6401 149.947 52.214 152.592 52.2846C156.369 52.2701 160.134 51.7306 163.789 50.7856C164.203 50.6607 164.625 51.0717 164.656 51.4754C164.895 53.4757 165.197 55.4688 165.4 57.4746C165.514 57.996 165.058 58.4504 164.556 58.4721C161.517 59.2053 158.42 59.7013 155.297 59.8805C151.425 60.0923 147.473 59.8696 143.749 58.7147C140.726 57.7751 137.882 55.9775 136.115 53.3037C133.856 49.9656 133.224 45.8454 133.07 41.8972C132.965 37.614 133.096 33.1752 134.766 29.1618C135.869 26.4555 137.871 24.1184 140.427 22.6864C143.856 20.7295 147.866 20.1683 151.752 20Z"/><path fill="#0594DA" d="M185.786 20H187.63C190.968 20.1864 194.468 21.1205 196.95 23.4739C196.946 22.3153 196.946 21.1586 196.95 20H202.218C204.075 20.2335 205.641 21.8121 205.807 23.6857V59.9964C204.118 59.9819 202.429 60.0253 200.742 59.9746C198.872 59.8805 197.174 58.3581 196.988 56.4754C195.936 57.4583 194.699 58.244 193.365 58.7853C190.199 60.0923 186.682 60.143 183.329 59.7465C181.341 59.5076 179.374 59.0315 177.542 58.2169C174.66 56.9985 172.154 54.8751 170.541 52.185C168.555 48.9536 167.793 45.1249 167.638 41.3758C167.498 37.2773 167.925 33.0467 169.707 29.303C171.043 26.4392 173.278 23.9971 176.054 22.4746C179.012 20.8019 182.422 20.1539 185.786 20ZM184.336 27.8856C181.946 28.244 179.614 29.5764 178.478 31.7686C177.055 34.3573 176.874 37.4022 176.881 40.2932C176.913 43.1191 177.185 46.1043 178.697 48.5681C179.808 50.4109 181.792 51.593 183.878 51.9985C186.369 52.4439 189.012 52.4258 191.414 51.5604C193.523 50.7875 195.183 49.0043 195.911 46.8917C196.676 44.8479 196.874 42.6394 196.899 40.4725C196.921 38.0865 196.81 35.6463 196.017 33.3707C195.413 31.5514 194.223 29.8859 192.529 28.941C190.051 27.5742 187.076 27.5145 184.336 27.8856Z"/></svg>