<svg xmlns="http://www.w3.org/2000/svg" width="40" height="40" fill="none" viewBox="0 0 40 40"><g clip-path="url(#clip0_5_3651)"><path fill="#A50064" fill-rule="evenodd" d="M37.2973 0H2.7027C1.21622 0 0 1.21622 0 2.7027V37.2973C0 38.7838 1.21622 40 2.7027 40H37.2973C38.7838 40 40 38.7838 40 37.2973V2.7027C40 1.21622 38.7838 0 37.2973 0Z" clip-rule="evenodd"/><path fill="#fff" d="M27.6756 18.7838C30.8513 18.7838 33.4189 16.2162 33.4189 13.0405C33.4189 9.86487 30.8513 7.2973 27.6756 7.2973C24.4999 7.2973 21.9324 9.86487 21.9324 13.0405C21.9324 16.2162 24.4999 18.7838 27.6756 18.7838ZM27.6756 10.5946C29.027 10.5946 30.1216 11.6892 30.1216 13.0405C30.1216 14.3919 29.027 15.4865 27.6756 15.4865C26.3243 15.4865 25.2297 14.3919 25.2297 13.0405C25.2297 11.6892 26.3243 10.5946 27.6756 10.5946Z"/><path fill="#fff" d="M27.6756 21.2703C24.4999 21.2703 21.9324 23.8378 21.9324 27.0135C21.9324 30.1892 24.4999 32.7568 27.6756 32.7568C30.8513 32.7568 33.4189 30.1892 33.4189 27.0135C33.4189 23.8378 30.8513 21.2703 27.6756 21.2703ZM27.6756 29.4595C26.3243 29.4595 25.2297 28.3649 25.2297 27.0135C25.2297 25.6622 26.3243 24.5676 27.6756 24.5676C29.027 24.5676 30.1216 25.6622 30.1216 27.0135C30.1216 28.3649 29.027 29.4595 27.6756 29.4595Z"/><path fill="#fff" d="M15.9729 21.2703C14.9999 21.2703 14.108 21.5946 13.3918 22.1351C12.6756 21.5946 11.7702 21.2703 10.8108 21.2703C8.43237 21.2703 6.49994 23.2027 6.49994 25.5811V32.7703H9.79724V25.5405C9.79724 25 10.2297 24.5676 10.7702 24.5676C11.3107 24.5676 11.7432 25 11.7432 25.5405V32.7568H15.0405V25.5405C15.0405 25 15.4729 24.5676 16.0135 24.5676C16.554 24.5676 16.9864 25 16.9864 25.5405V32.7568H20.2702V25.5676C20.2702 23.2027 18.3513 21.2703 15.9729 21.2703Z"/><path fill="#fff" d="M15.9729 7.2973C15 7.2973 14.1081 7.62163 13.3919 8.16217C12.6756 7.62163 11.7702 7.2973 10.8108 7.2973C8.41888 7.2973 6.48645 9.22973 6.48645 11.6081V18.7838H9.78375V11.5676C9.78375 11.027 10.2162 10.5946 10.7567 10.5946C11.2973 10.5946 11.7297 11.027 11.7297 11.5676V18.7838H15.027V11.5676C15.027 11.027 15.4594 10.5946 16 10.5946C16.5405 10.5946 16.9729 11.027 16.9729 11.5676V18.7838H20.2702V11.6081C20.2702 9.22973 18.3513 7.2973 15.9729 7.2973Z"/></g><defs><clipPath id="clip0_5_3651"><rect width="40" height="40" fill="#fff"/></clipPath></defs></svg>