<svg xmlns="http://www.w3.org/2000/svg" width="40" height="40" fill="none" viewBox="0 0 40 40"><g clip-path="url(#clip0_12_1040)"><path fill="#010101" d="M6.59595 31.3441C7.00489 31.5789 7.42897 31.7985 7.8682 31.9878C11.4047 33.5403 15.4487 33.4267 18.8943 31.6925C19.22 31.5335 19.538 31.3517 19.8561 31.1624C21.4085 30.2082 22.7489 28.9511 23.7788 27.4517L24.5437 26.3612H13.9265C13.5857 26.3612 13.1616 26.3612 13.0708 26.346L13.2752 26.4066C11.0488 25.1268 9.17831 23.3169 7.81519 21.1359C7.59557 20.8027 7.39111 20.4695 7.20936 20.1363C5.62662 17.3116 5.04351 14.0401 5.55847 10.8519L5.86896 8.94354L4.41496 10.2309C-0.984509 14.9943 -1.50704 23.2336 3.25631 28.6331C4.21049 29.716 5.33885 30.6323 6.59595 31.3441Z"/><path fill="#010101" d="M33.4116 8.64822C33.0027 8.41346 32.5786 8.19385 32.1393 8.00452C28.6028 6.45208 24.5589 6.5581 21.1132 8.29229C20.7876 8.4589 20.4619 8.63307 20.1515 8.8224C18.5384 9.78415 17.145 11.064 16.0545 12.5861L15.3048 13.6766H26.3309L26.0356 13.6085L26.1871 13.6766C28.6255 14.8201 30.7081 16.6073 32.1999 18.8489C32.4195 19.1745 32.624 19.5153 32.8058 19.8485C34.0023 22.0144 34.6308 24.4453 34.6308 26.914C34.6308 27.6562 34.5702 28.4059 34.4491 29.1405L34.1462 31.0337L35.5926 29.7539C40.992 24.9905 41.5146 16.7512 36.7512 11.3517C35.797 10.2688 34.6687 9.3525 33.4192 8.64065L33.4116 8.64822Z"/><path fill="#F47920" d="M26.9292 5.36915C27.6713 5.36915 28.4135 5.42974 29.1481 5.5509L31.0564 5.85382L29.7766 4.4074C24.9981 -0.992074 16.7437 -1.49946 11.3366 3.28661C6.91405 7.20179 5.66452 13.6009 8.29989 18.8943C8.45892 19.2124 8.64067 19.538 8.82999 19.8561C9.7766 21.4615 11.0413 22.855 12.5483 23.9606L13.6388 24.7255V16.9708C13.6388 15.4638 13.6388 13.1617 13.6463 13.0178L13.5706 13.3207C14.8504 11.0791 16.6679 9.18589 18.8565 7.8152C19.1821 7.60316 19.5229 7.39111 19.8561 7.20937C22.0144 6.01285 24.4453 5.3843 26.9216 5.37673L26.9292 5.36915Z"/><path fill="#F47920" d="M13.0783 34.6232C12.3362 34.6232 11.594 34.5627 10.8595 34.4415L8.95111 34.1386L10.2309 35.585C14.9943 40.9845 23.2336 41.507 28.6406 36.7436C29.7235 35.7895 30.6474 34.6535 31.3593 33.3964C31.594 32.9875 31.8137 32.5634 32.003 32.1318C33.5554 28.5952 33.4418 24.5513 31.7076 21.1056C31.5486 20.78 31.3669 20.4619 31.1775 20.1439C30.2158 18.5763 28.936 17.2283 27.4138 16.1833L26.3309 15.426V26.4369L26.3915 26.1567C25.248 28.6179 23.4305 30.7081 21.151 32.1848C20.8254 32.4044 20.4922 32.6088 20.1514 32.7906C17.9931 33.9871 15.5622 34.6232 13.0859 34.6232H13.0783Z"/></g><defs><clipPath id="clip0_12_1040"><rect width="40" height="40" fill="#fff"/></clipPath></defs></svg>