<svg xmlns="http://www.w3.org/2000/svg" width="40" height="40" fill="none" viewBox="0 0 40 40"><g clip-path="url(#clip0_12_1163)"><path fill="#E03" d="M39.3456 8.04574C38.9779 7.51691 38.4696 7.10157 37.878 6.84674C37.2865 6.59191 36.6355 6.50777 35.9986 6.60384L3.02063 11.2386C2.37512 11.3285 1.76747 11.5967 1.266 12.013C0.764521 12.4292 0.389087 12.9771 0.181894 13.5951C-0.0252989 14.213 -0.0560379 14.8765 0.0931315 15.5109C0.242301 16.1453 0.565466 16.7256 1.0263 17.1865L21.1669 37.4C21.4897 37.7272 21.8743 37.987 22.2983 38.1643C22.7224 38.3416 23.1774 38.4328 23.637 38.4328C23.8205 38.4326 24.0037 38.4184 24.185 38.3904C24.731 38.3081 25.2495 38.0968 25.6974 37.7739C26.1454 37.4511 26.5098 37.026 26.7605 36.534L39.6006 11.6811C39.902 11.1118 40.0379 10.4695 39.9928 9.82697C39.9477 9.18441 39.7235 8.56735 39.3456 8.04574ZM39.2771 11.5144L26.4397 36.3637C26.2148 36.8046 25.8879 37.1854 25.4862 37.4744C25.0844 37.7634 24.6195 37.9524 24.13 38.0255C23.9671 38.0503 23.8027 38.063 23.6379 38.0633C23.2264 38.0633 22.8189 37.9814 22.4393 37.8226C22.0596 37.6637 21.7153 37.4309 21.4264 37.1378L1.28404 16.9215C0.872451 16.5084 0.584055 15.9888 0.451177 15.4209C0.318299 14.8531 0.346194 14.2595 0.53173 13.7066C0.717267 13.1538 1.05312 12.6635 1.50163 12.2908C1.95015 11.9181 2.49361 11.6776 3.07109 11.5964L36.05 6.96341C36.2022 6.94225 36.3558 6.93171 36.5096 6.93187C37.0464 6.93597 37.5733 7.07759 38.0399 7.34323C38.5065 7.60886 38.8972 7.98965 39.1748 8.44923C39.4523 8.90882 39.6075 9.43188 39.6254 9.96848C39.6433 10.5051 39.5234 11.0373 39.2771 11.5144Z"/><path fill="#E03" d="M35.5129 7.65011L3.79841 12.1092C3.27224 12.1826 2.77693 12.4012 2.36809 12.7405C1.95924 13.0797 1.65304 13.5262 1.48382 14.0298C1.31461 14.5335 1.2891 15.0743 1.41014 15.5916C1.53118 16.1089 1.79398 16.5822 2.16907 16.9584L21.5445 36.3961C21.8077 36.6633 22.1214 36.8754 22.4673 37.0201C22.8133 37.1647 23.1846 37.2391 23.5596 37.2387C23.7104 37.2388 23.8611 37.2274 24.0102 37.2045C24.456 37.1381 24.8795 36.9662 25.2454 36.703C25.6112 36.4398 25.9089 36.093 26.1136 35.6914L38.4598 11.7947C38.7009 11.3286 38.8091 10.8052 38.7726 10.2818C38.7361 9.75833 38.5563 9.25502 38.2529 8.82696C37.9494 8.3989 37.534 8.06259 37.0522 7.85485C36.5703 7.64712 36.0406 7.57597 35.521 7.6492L35.5129 7.65011ZM38.1264 11.6261L25.7801 35.5238C25.5998 35.8728 25.3396 36.1742 25.0207 36.4037C24.7018 36.6331 24.3332 36.7839 23.9449 36.8439C23.5567 36.9039 23.1598 36.8713 22.7865 36.7489C22.4132 36.6264 22.0741 36.4176 21.7969 36.1393L2.42861 16.7007C2.10155 16.3726 1.87231 15.96 1.76658 15.509C1.66084 15.0579 1.68278 14.5864 1.82995 14.1471C1.97711 13.7079 2.24369 13.3183 2.59979 13.022C2.9559 12.7257 3.38748 12.5345 3.84617 12.4696L35.5625 8.01058C35.6819 7.99346 35.8023 7.98472 35.923 7.98444C36.3495 7.98778 36.768 8.10035 37.1387 8.31142C37.5093 8.52248 37.8197 8.825 38.0402 9.19011C38.2607 9.55522 38.384 9.97074 38.3983 10.397C38.4126 10.8233 38.3174 11.2462 38.1218 11.6252L38.1264 11.6261Z"/><path fill="#E03" d="M34.8965 8.71534L4.71128 12.9563C4.2904 13.0143 3.89408 13.1888 3.567 13.4599C3.23993 13.7311 2.99509 14.0882 2.86009 14.4911C2.72509 14.8939 2.70529 15.3265 2.80292 15.74C2.90056 16.1535 3.11174 16.5315 3.41268 16.8314L21.8473 35.3327C22.0572 35.5459 22.3075 35.7152 22.5835 35.8306C22.8596 35.946 23.1558 36.0053 23.455 36.005C23.5757 36.0049 23.6962 35.9956 23.8155 35.9771C24.1711 35.9231 24.5087 35.785 24.8001 35.5741C25.0915 35.3633 25.3283 35.0859 25.4908 34.765L37.2414 12.0227C37.4334 11.651 37.5196 11.2336 37.4905 10.8162C37.4613 10.3988 37.318 9.99751 37.0761 9.6561C36.8343 9.31469 36.5032 9.04636 36.1191 8.88044C35.735 8.71452 35.3126 8.65741 34.8983 8.71534H34.8965ZM36.9169 11.8551L25.1673 34.6037C25.0288 34.8725 24.8288 35.1047 24.5835 35.2814C24.3382 35.4581 24.0545 35.5742 23.7557 35.6204C23.4569 35.6665 23.1515 35.6413 22.8643 35.5468C22.5771 35.4524 22.3163 35.2913 22.1033 35.0768L3.67132 16.5728C3.41864 16.3209 3.24127 16.0035 3.15919 15.6563C3.0771 15.309 3.09355 14.9458 3.20669 14.6074C3.31982 14.2691 3.52515 13.969 3.79956 13.741C4.07397 13.513 4.40658 13.366 4.75995 13.3168L34.9442 9.08122C35.0371 9.06787 35.1307 9.06125 35.2245 9.06139C35.5523 9.06402 35.8739 9.15059 36.1587 9.31282C36.4436 9.47506 36.6821 9.70757 36.8515 9.98817C37.021 10.2688 37.1157 10.5881 37.1267 10.9157C37.1376 11.2433 37.0645 11.5683 36.9142 11.8596L36.9169 11.8551Z"/><path fill="#E03" d="M34.4107 9.7634L5.49261 13.8295C5.19157 13.8716 4.90821 13.9968 4.67433 14.1909C4.44045 14.3851 4.2653 14.6406 4.16853 14.9287C4.07176 15.2169 4.05721 15.5263 4.12649 15.8223C4.19578 16.1182 4.34617 16.389 4.56078 16.6043L22.224 34.3333C22.3746 34.486 22.5541 34.6071 22.752 34.6897C22.9499 34.7723 23.1622 34.8148 23.3766 34.8145C23.4623 34.8145 23.5479 34.8079 23.6326 34.7947C23.8881 34.7566 24.1309 34.6579 24.3406 34.5069C24.5504 34.356 24.721 34.1571 24.8383 33.9269L36.0923 12.1344C36.2303 11.8678 36.2921 11.5684 36.2712 11.2689C36.2503 10.9695 36.1473 10.6816 35.9737 10.4367C35.8 10.1919 35.5624 9.99955 35.2867 9.88079C35.011 9.76202 34.708 9.72141 34.4107 9.7634ZM35.767 11.965L24.5076 33.7601C24.4158 33.938 24.2832 34.0917 24.1207 34.2086C23.9583 34.3255 23.7704 34.4024 23.5726 34.433C23.3748 34.4635 23.1725 34.4469 22.9823 34.3845C22.7921 34.3221 22.6194 34.2156 22.4781 34.0738L4.81492 16.3448C4.64865 16.1773 4.5323 15.9669 4.47889 15.737C4.42548 15.5072 4.43714 15.267 4.51254 15.0434C4.58795 14.8198 4.72413 14.6216 4.90583 14.471C5.08752 14.3205 5.30756 14.2235 5.54127 14.1909L34.463 10.1248C34.6939 10.0917 34.9295 10.1229 35.1438 10.2148C35.3582 10.3067 35.5432 10.4559 35.6784 10.6459C35.8136 10.836 35.8939 11.0596 35.9105 11.2923C35.9271 11.5249 35.8793 11.7577 35.7724 11.965H35.767Z"/><path fill="#E03" d="M33.9259 10.8115L6.26492 14.7001C6.08279 14.726 5.91145 14.802 5.77007 14.9197C5.62869 15.0374 5.52286 15.1921 5.4644 15.3666C5.40595 15.541 5.39718 15.7282 5.43909 15.9074C5.48099 16.0865 5.57191 16.2504 5.70168 16.3808L22.5944 33.333C22.6857 33.4255 22.7944 33.4989 22.9143 33.549C23.0342 33.5992 23.1629 33.625 23.2928 33.625C23.3444 33.6249 23.3959 33.621 23.4469 33.6133C23.6011 33.5905 23.7475 33.5313 23.8742 33.4406C24.0008 33.3498 24.104 33.2301 24.1751 33.0915L34.9433 12.2489C35.0259 12.0875 35.0627 11.9066 35.0497 11.7258C35.0366 11.545 34.9743 11.3713 34.8694 11.2235C34.7645 11.0756 34.6211 10.9594 34.4547 10.8874C34.2884 10.8154 34.1055 10.7904 33.9259 10.8151V10.8115ZM34.6189 12.0786L23.8515 32.9212C23.8064 33.0086 23.7413 33.0841 23.6614 33.1416C23.5815 33.1991 23.4892 33.2369 23.3919 33.2519C23.2947 33.2669 23.1953 33.2588 23.1018 33.2281C23.0083 33.1974 22.9234 33.145 22.8539 33.0753L5.96032 16.1213C5.87834 16.039 5.82091 15.9355 5.79444 15.8224C5.76798 15.7093 5.77354 15.591 5.8105 15.4809C5.84746 15.3708 5.91435 15.2731 6.00368 15.1989C6.09302 15.1247 6.20126 15.0768 6.31629 15.0606L33.9764 11.172C34.0899 11.1561 34.2055 11.1717 34.3107 11.2172C34.4159 11.2626 34.5066 11.336 34.5729 11.4295C34.6392 11.5229 34.6786 11.6328 34.6867 11.7471C34.6948 11.8614 34.6714 11.9758 34.6189 12.0776V12.0786Z"/><path fill="#E03" d="M32.821 11.9461L7.68159 15.4796C7.5587 15.4966 7.443 15.5476 7.34749 15.6268C7.25197 15.7059 7.18044 15.8102 7.14093 15.9278C7.10142 16.0454 7.09549 16.1717 7.12382 16.2925C7.15215 16.4133 7.21361 16.5237 7.30129 16.6115L22.6548 32.0218C22.7163 32.0837 22.7894 32.1329 22.87 32.1665C22.9506 32.2 23.037 32.2173 23.1243 32.2173C23.1593 32.2172 23.1942 32.2145 23.2288 32.2092C23.3329 32.1938 23.4319 32.1537 23.5173 32.0922C23.6027 32.0308 23.6722 31.9497 23.72 31.8559L33.5041 12.913C33.5601 12.8043 33.5851 12.6822 33.5765 12.5602C33.5678 12.4382 33.5258 12.3209 33.4551 12.2212C33.3843 12.1214 33.2875 12.043 33.1752 11.9945C33.0629 11.946 32.9395 11.9292 32.8183 11.9461H32.821ZM33.1815 12.7454L23.3974 31.6874C23.3756 31.7297 23.3441 31.7662 23.3055 31.794C23.2669 31.8218 23.2223 31.8401 23.1753 31.8474C23.1283 31.8547 23.0803 31.8508 23.0351 31.836C22.9899 31.8212 22.9488 31.7959 22.9152 31.7622L7.56534 16.3538C7.52587 16.3139 7.49826 16.2639 7.48556 16.2092C7.47287 16.1546 7.4756 16.0975 7.49345 16.0444C7.5113 15.9912 7.54356 15.944 7.58665 15.9081C7.62973 15.8722 7.68195 15.849 7.73746 15.841L32.8724 12.3074C32.8871 12.3065 32.9019 12.3065 32.9166 12.3074C32.9686 12.3072 33.0198 12.3204 33.0653 12.3458C33.1107 12.3711 33.1489 12.4078 33.176 12.4521C33.2032 12.4965 33.2185 12.5472 33.2204 12.5992C33.2223 12.6512 33.2108 12.7028 33.1869 12.749L33.1815 12.7454Z"/><path fill="#E03" d="M36.7962 15.7869C36.3612 15.0908 35.7581 14.5153 35.0425 14.1134L26.0396 9.02624L14.5567 2.5377C11.6639 0.902953 8.13216 3.21359 8.47101 6.51824L8.97387 11.4243L10.7032 28.2999L11.2953 34.081C11.709 38.1219 16.5582 39.954 19.5403 37.1973L19.5547 37.1838L31.3945 26.2452L35.9626 22.0231C36.8065 21.2437 37.3517 20.194 37.5039 19.0553C37.6561 17.9167 37.4058 16.7606 36.7962 15.7869Z"/><path fill="#fff" d="M25.8477 17.6875C25.7136 17.6875 25.585 17.7408 25.4902 17.8356C25.3954 17.9304 25.3421 18.059 25.3421 18.1931V18.6337C24.8732 18.1769 24.2799 17.8685 23.6365 17.7471C22.9932 17.6256 22.3283 17.6966 21.7251 17.9511C21.1219 18.2056 20.6071 18.6323 20.2452 19.1779C19.8832 19.7234 19.6902 20.3636 19.6902 21.0183C19.6902 21.673 19.8832 22.3131 20.2452 22.8587C20.6071 23.4042 21.1219 23.831 21.7251 24.0855C22.3283 24.34 22.9932 24.4109 23.6365 24.2895C24.2799 24.1681 24.8732 23.8597 25.3421 23.4028V23.8408C25.3421 23.975 25.3954 24.1037 25.4903 24.1986C25.5852 24.2935 25.7139 24.3468 25.8481 24.3468C25.9823 24.3468 26.111 24.2935 26.2059 24.1986C26.3008 24.1037 26.3541 23.975 26.3541 23.8408V18.194C26.3541 18.0599 26.3009 17.9313 26.2061 17.8365C26.1113 17.7417 25.9827 17.6884 25.8486 17.6884L25.8477 17.6875ZM23.0252 23.3325C22.4886 23.3331 21.9685 23.1476 21.5534 22.8076C21.1383 22.4676 20.854 21.9942 20.7489 21.4681C20.6437 20.942 20.7243 20.3956 20.9769 19.9223C21.2295 19.4489 21.6384 19.0777 22.1339 18.8721C22.6295 18.6665 23.181 18.639 23.6946 18.7945C24.2081 18.95 24.6518 19.2787 24.9501 19.7247C25.2484 20.1707 25.3827 20.7063 25.3303 21.2403C25.2779 21.7743 25.0419 22.2736 24.6626 22.653C24.4477 22.8683 24.1924 23.0391 23.9115 23.1557C23.6305 23.2722 23.3293 23.3323 23.0252 23.3325Z"/><path fill="#fff" d="M15.676 17.6875C14.8091 17.6876 13.9767 18.0273 13.3572 18.6337V18.1967C13.3572 18.0625 13.3039 17.9338 13.209 17.8389C13.1141 17.744 12.9854 17.6907 12.8512 17.6907C12.717 17.6907 12.5883 17.744 12.4934 17.8389C12.3985 17.9338 12.3452 18.0625 12.3452 18.1967V26.1316C12.3452 26.2658 12.3985 26.3945 12.4934 26.4894C12.5883 26.5843 12.717 26.6376 12.8512 26.6376C12.9854 26.6376 13.1141 26.5843 13.209 26.4894C13.3039 26.3945 13.3572 26.2658 13.3572 26.1316V23.4001C13.7482 23.7787 14.2261 24.0555 14.749 24.2063C15.2719 24.3571 15.8238 24.3772 16.3563 24.2648C16.8888 24.1525 17.3855 23.9112 17.803 23.562C18.2204 23.2128 18.5457 22.7665 18.7504 22.2623C18.9551 21.758 19.0328 21.2113 18.9768 20.6699C18.9209 20.1286 18.7328 19.6093 18.4293 19.1576C18.1257 18.706 17.716 18.3357 17.2359 18.0794C16.7558 17.823 16.2202 17.6885 15.676 17.6875ZM15.676 23.3325C15.1395 23.3327 14.6195 23.1468 14.2047 22.8065C13.7899 22.4662 13.5059 21.9927 13.4012 21.4665C13.2964 20.9403 13.3774 20.394 13.6303 19.9208C13.8832 19.4477 14.2923 19.0768 14.788 18.8715C15.2837 18.6662 15.8352 18.6391 16.3486 18.7949C16.862 18.9507 17.3055 19.2797 17.6035 19.7259C17.9015 20.172 18.0356 20.7077 17.9828 21.2416C17.9301 21.7756 17.6939 22.2747 17.3143 22.6539C17.0992 22.8691 16.8438 23.0397 16.5627 23.1562C16.2816 23.2726 15.9803 23.3325 15.676 23.3325Z"/><path fill="#fff" d="M33.2671 17.756C33.2096 17.7227 33.1461 17.7011 33.0802 17.6924C33.0144 17.6836 32.9474 17.688 32.8832 17.7051C32.819 17.7223 32.7588 17.7519 32.7061 17.7924C32.6534 17.8328 32.6091 17.8832 32.5759 17.9408L30.2391 21.9898L27.8961 17.9408C27.8629 17.8833 27.8187 17.8328 27.766 17.7924C27.7133 17.752 27.6532 17.7223 27.589 17.7051C27.5249 17.6879 27.458 17.6835 27.3921 17.6922C27.3263 17.7008 27.2628 17.7224 27.2053 17.7556C27.1478 17.7888 27.0974 17.833 27.0569 17.8857C27.0165 17.9383 26.9868 17.9985 26.9696 18.0626C26.9524 18.1267 26.9481 18.1936 26.9567 18.2595C26.9654 18.3253 26.9869 18.3888 27.0201 18.4463L29.6507 23.0009L27.9898 25.8784C27.9275 25.9945 27.9129 26.1303 27.9491 26.257C27.9853 26.3836 28.0695 26.4912 28.1837 26.5569C28.2979 26.6225 28.4332 26.6411 28.5608 26.6087C28.6885 26.5762 28.7985 26.4953 28.8675 26.3831L33.4492 18.4454C33.516 18.3295 33.5342 18.1917 33.4996 18.0624C33.4825 17.9984 33.4529 17.9384 33.4125 17.8858C33.3721 17.8333 33.3218 17.7892 33.2644 17.756H33.2671Z"/><path fill="#fff" d="M24.1634 20.9688C23.7272 20.8156 23.2252 20.3136 23.0756 19.8774C23.0717 19.8688 23.0653 19.8615 23.0574 19.8564C23.0494 19.8512 23.0401 19.8485 23.0306 19.8485C23.0211 19.8485 23.0118 19.8512 23.0038 19.8564C22.9958 19.8615 22.9895 19.8688 22.9855 19.8774C22.8323 20.3154 22.334 20.8156 21.8951 20.9688C21.8861 20.9724 21.8785 20.9786 21.8731 20.9867C21.8677 20.9947 21.8648 21.0041 21.8648 21.0138C21.8648 21.0235 21.8677 21.0329 21.8731 21.041C21.8785 21.049 21.8861 21.0552 21.8951 21.0589C22.3331 21.2121 22.8323 21.7104 22.9855 22.1502C22.9892 22.1592 22.9954 22.1668 23.0034 22.1722C23.0115 22.1776 23.0209 22.1805 23.0306 22.1805C23.0403 22.1805 23.0497 22.1776 23.0577 22.1722C23.0658 22.1668 23.072 22.1592 23.0756 22.1502C23.2288 21.7122 23.7272 21.2121 24.167 21.0589C24.1759 21.0552 24.1836 21.049 24.189 21.041C24.1944 21.0329 24.1973 21.0235 24.1973 21.0138C24.1973 21.0041 24.1944 20.9947 24.189 20.9867C24.1836 20.9786 24.1759 20.9724 24.167 20.9688H24.1634Z"/><path fill="#fff" d="M15.9626 14.3982H15.7039C15.6542 14.3982 15.6065 14.4179 15.5714 14.4531C15.5362 14.4882 15.5165 14.5359 15.5165 14.5856V16.5061C15.5165 16.5558 15.5362 16.6035 15.5714 16.6386C15.6065 16.6738 15.6542 16.6935 15.7039 16.6935H15.9626C16.0123 16.6935 16.06 16.6738 16.0951 16.6386C16.1303 16.6035 16.15 16.5558 16.15 16.5061V14.5847C16.1498 14.5352 16.1299 14.4877 16.0948 14.4528C16.0597 14.4178 16.0121 14.3982 15.9626 14.3982Z"/><path fill="#fff" d="M13.898 16.7187C14.0548 16.7187 14.2386 16.7097 14.3368 16.5151L15.43 14.3982H15.0307C14.9531 14.3988 14.8772 14.4216 14.812 14.4639C14.7469 14.5062 14.6952 14.5663 14.6631 14.637L13.9746 16.1005C13.9583 16.1348 13.9259 16.1907 13.898 16.1907C13.87 16.1907 13.8385 16.1348 13.8223 16.1005L13.1283 14.637C13.0964 14.5664 13.0448 14.5063 12.9798 14.464C12.9149 14.4217 12.8391 14.3989 12.7616 14.3982H12.3605L13.4537 16.5151C13.5627 16.7223 13.7835 16.7187 13.898 16.7187Z"/><path fill="#fff" d="M27.7392 16.6926C27.7888 16.6924 27.8363 16.6725 27.8712 16.6374C27.9062 16.6023 27.9258 16.5547 27.9258 16.5052V16.3024H27.769C27.6545 16.3024 27.4166 16.2979 27.276 16.2024C27.0958 16.0807 27.1084 15.8644 27.1084 15.7085V14.0458C27.1075 13.9967 27.0873 13.9498 27.0523 13.9153C27.0173 13.8808 26.9702 13.8613 26.921 13.8611H26.6605C26.6108 13.8611 26.5631 13.8808 26.528 13.916C26.4928 13.9511 26.4731 13.9988 26.4731 14.0485V15.9473C26.4731 16.2375 26.5758 16.4033 26.7597 16.5277C26.9435 16.6521 27.1445 16.6962 27.5284 16.6962L27.7392 16.6926Z"/><path fill="#fff" d="M19.8079 15.9464C19.8079 16.2366 19.9106 16.4024 20.0945 16.5268C20.2783 16.6511 20.4793 16.6953 20.8632 16.6953H21.0714C21.1209 16.695 21.1684 16.6752 21.2033 16.6401C21.2383 16.6049 21.2579 16.5574 21.2579 16.5078V16.3051H21.1011C20.9866 16.3051 20.7487 16.3006 20.6081 16.205C20.4279 16.0834 20.4405 15.8671 20.4405 15.7112V14.7875H21.7608V15.9473C21.7608 16.2375 21.8635 16.4033 22.0482 16.5277C22.233 16.652 22.4321 16.6962 22.817 16.6962H23.0251C23.0748 16.6962 23.1225 16.6764 23.1577 16.6413C23.1928 16.6061 23.2126 16.5585 23.2126 16.5087V16.306H23.0558C22.9422 16.306 22.7034 16.3015 22.5628 16.2059C22.3826 16.0843 22.3952 15.868 22.3952 15.7121V14.7875H23.0107C23.0353 14.7875 23.0597 14.7826 23.0824 14.7732C23.1052 14.7638 23.1258 14.75 23.1433 14.7326C23.1607 14.7152 23.1745 14.6945 23.1839 14.6718C23.1933 14.649 23.1982 14.6246 23.1982 14.6V14.3982H22.3961V14.0467C22.3961 13.997 22.3763 13.9493 22.3412 13.9142C22.306 13.879 22.2584 13.8593 22.2087 13.8593H21.9482C21.8985 13.8593 21.8508 13.879 21.8157 13.9142C21.7805 13.9493 21.7608 13.997 21.7608 14.0467V14.3982H20.4414V14.0467C20.4414 13.997 20.4217 13.9493 20.3865 13.9142C20.3514 13.879 20.3037 13.8593 20.254 13.8593H19.9935C19.9438 13.8593 19.8961 13.879 19.861 13.9142C19.8258 13.9493 19.8061 13.997 19.8061 14.0467V14.3982H19.4114V14.6009C19.4114 14.6506 19.4311 14.6983 19.4663 14.7335C19.5014 14.7686 19.5491 14.7884 19.5988 14.7884H19.807L19.8079 15.9464Z"/><path fill="#fff" d="M19.1375 15.6274C19.1857 15.5843 19.2231 15.5304 19.2466 15.4701C19.2701 15.4098 19.279 15.3448 19.2726 15.2804C19.2726 14.9903 19.2023 14.7046 18.8662 14.5361C18.6013 14.4018 18.2552 14.3892 17.9191 14.3892C17.6487 14.3892 17.1621 14.3892 16.8484 14.6054C16.5348 14.8217 16.5069 15.138 16.5069 15.567C16.5069 15.8698 16.5231 16.1861 16.7133 16.4024C16.9512 16.6728 17.2999 16.6926 17.5901 16.6926H18.9942C19.0439 16.6926 19.0916 16.6728 19.1267 16.6377C19.1619 16.6025 19.1816 16.5549 19.1816 16.5051V16.3024H17.7794C17.5469 16.3024 17.281 16.2762 17.1999 16.032C17.175 15.9284 17.1622 15.8223 17.1621 15.7157H18.8302C18.9397 15.7224 19.0482 15.6913 19.1375 15.6274ZM18.4769 15.3246H17.5757C17.3468 15.3246 17.1612 15.4291 17.1612 15.5589V15.3246C17.1666 15.1723 17.1612 15.0479 17.2918 14.9335C17.4649 14.7776 17.7253 14.7821 17.8929 14.7821C18.0605 14.7821 18.2768 14.7902 18.4336 14.8857C18.487 14.9177 18.5315 14.9626 18.563 15.0163C18.5945 15.07 18.612 15.1308 18.6139 15.193C18.6175 15.2507 18.6012 15.3246 18.4769 15.3246Z"/><path fill="#fff" d="M24.4355 16.6926H25.8396C25.8893 16.6926 25.937 16.6729 25.9721 16.6377C26.0073 16.6026 26.027 16.5549 26.027 16.5052V16.3024H24.6248C24.3923 16.3024 24.1264 16.2763 24.0453 16.0321C24.0204 15.9285 24.0077 15.8223 24.0075 15.7157H25.6747C25.785 15.7225 25.8943 15.6906 25.9838 15.6256C26.032 15.5825 26.0694 15.5286 26.0929 15.4683C26.1164 15.408 26.1253 15.3431 26.119 15.2787C26.119 14.9885 26.0487 14.7028 25.7125 14.5343C25.4476 14.4 25.1015 14.3874 24.7663 14.3874C24.4959 14.3874 24.0084 14.3874 23.6948 14.6037C23.3812 14.82 23.3541 15.1363 23.3541 15.5652C23.3541 15.868 23.3694 16.1844 23.5596 16.4006C23.7966 16.671 24.1472 16.6926 24.4355 16.6926ZM24.0084 15.3237C24.0138 15.1714 24.0084 15.0471 24.1391 14.9326C24.3121 14.7767 24.5725 14.7812 24.7401 14.7812C24.9078 14.7812 25.125 14.7893 25.2809 14.8848C25.3343 14.9168 25.3787 14.9618 25.4102 15.0155C25.4417 15.0692 25.4592 15.1299 25.4611 15.1921C25.4611 15.2525 25.4449 15.3264 25.3205 15.3264H24.4193C24.1904 15.3264 24.0048 15.431 24.0048 15.5607L24.0084 15.3237Z"/><path fill="#fff" d="M15.8337 14.181H15.9644C15.9889 14.181 16.0133 14.1762 16.036 14.1667C16.0586 14.1573 16.0792 14.1435 16.0966 14.1261C16.1139 14.1086 16.1276 14.088 16.137 14.0652C16.1463 14.0425 16.151 14.0182 16.1509 13.9936V13.9422C16.1509 13.8927 16.1313 13.8451 16.0963 13.81C16.0614 13.7749 16.0139 13.755 15.9644 13.7548H15.703C15.6533 13.7548 15.6056 13.7745 15.5705 13.8097C15.5353 13.8448 15.5156 13.8925 15.5156 13.9422V14.3982C15.5363 14.3314 15.579 14.2736 15.6368 14.2342C15.6945 14.1948 15.7639 14.176 15.8337 14.181Z"/></g><defs><clipPath id="clip0_12_1163"><rect width="40" height="40" fill="#fff"/></clipPath></defs></svg>