<svg xmlns="http://www.w3.org/2000/svg" width="240" height="80" fill="none" viewBox="0 0 240 80"><path fill="#fff" d="M128.481 23.0243C128.864 22.928 129.262 22.9708 129.654 22.9637C130.759 22.972 131.867 22.947 132.973 22.9756C133.755 23.0053 134.458 23.6353 134.515 24.4259C134.58 25.5386 134.523 26.6584 134.544 27.7747C134.556 28.3655 134.543 29.0395 134.113 29.4984C133.781 29.899 133.245 30.0405 132.745 30.0393C131.52 30.0369 130.295 30.0357 129.071 30.0393C128.595 30.0345 128.076 29.9454 127.727 29.5947C127.317 29.2262 127.205 28.6484 127.21 28.1206C127.218 26.9378 127.199 25.7537 127.218 24.5721C127.233 23.8493 127.736 23.1289 128.481 23.0243ZM128.51 24.1263C128.283 24.2678 128.276 24.5614 128.278 24.7992C128.287 25.9879 128.274 27.1767 128.284 28.3655C128.256 28.671 128.503 28.9789 128.822 28.9623C130.172 28.9741 131.524 28.9658 132.874 28.9658C133.206 29.0062 133.497 28.6984 133.467 28.3714C133.479 27.1422 133.471 25.9119 133.471 24.6815C133.505 24.3831 133.294 24.0669 132.984 24.0467C131.68 24.0146 130.374 24.0467 129.069 24.0312C128.881 24.0407 128.674 24.0146 128.51 24.1263Z"/><path fill="#fff" d="M175.139 30.7168C177.19 30.4054 179.298 30.7442 181.228 31.4717C183.345 32.3276 185.224 33.7982 186.527 35.68C187.984 37.6807 188.693 40.1748 188.721 42.6343C188.668 45.0487 187.973 47.4917 186.546 49.4591C185.289 51.2934 183.475 52.7294 181.436 53.6032C179.433 54.3997 177.224 54.7611 175.081 54.4306C173.955 54.2392 172.831 53.9681 171.785 53.501C168.457 52.0209 165.84 48.9479 165.066 45.3697C164.598 43.5473 164.598 41.6084 165.066 39.786C165.87 36.1032 168.62 32.9565 172.088 31.5276C173.066 31.1317 174.099 30.8856 175.138 30.7168H175.139ZM175.252 31.7713C172.047 32.179 169.082 34.1001 167.4 36.8569C166.011 39.0823 165.498 41.8188 165.934 44.4009C166.429 47.4846 168.344 50.2948 171.023 51.8985C173.804 53.5972 177.354 53.9515 180.421 52.8531C182.831 52.0031 184.914 50.2687 186.189 48.0528C187.449 45.894 187.911 43.2929 187.512 40.8286C187.134 38.4284 185.913 36.1745 184.119 34.5364C181.77 32.3514 178.425 31.3207 175.252 31.7713Z"/><path fill="#fff" d="M103.414 31.3874C103.761 30.9166 104.38 30.7787 104.937 30.7882C106.348 30.7977 107.759 30.7763 109.17 30.7977C109.884 30.8168 110.436 31.3493 110.727 31.9627C112.112 34.9846 113.44 38.0338 114.835 41.0533C116.121 38.0743 117.477 35.1261 118.792 32.1589C119.081 31.4789 119.64 30.818 120.437 30.7989C121.926 30.7787 123.416 30.7906 124.907 30.793C125.562 30.8061 126.274 31.1805 126.423 31.8653C126.583 32.2968 126.444 32.7568 126.275 33.1634C123.048 39.88 119.815 46.5942 116.588 53.3108C116.363 53.7673 116.06 54.2286 115.576 54.4378C114.932 54.672 114.125 54.6351 113.604 54.1501C113.225 53.7923 113.02 53.3013 112.801 52.8389C109.646 46.2685 106.488 39.6993 103.334 33.1277C103.068 32.5809 103.03 31.889 103.414 31.3874ZM104.193 32.166C104.13 32.3753 104.266 32.5738 104.341 32.7616C107.602 39.5281 110.838 46.3065 114.105 53.0683C114.303 53.6247 115.191 53.6924 115.454 53.161C115.788 52.5583 116.057 51.9211 116.366 51.3054C119.359 45.075 122.361 38.8481 125.35 32.6154C125.551 32.3241 125.391 31.8641 125.01 31.8688C123.504 31.851 121.997 31.8605 120.491 31.8641C120.122 31.8605 119.944 32.2516 119.799 32.5298C118.715 34.9406 117.64 37.3562 116.559 39.7683C115.969 41.0474 115.441 42.3586 114.81 43.6187C113.218 40.1142 111.651 36.599 110.07 33.0909C109.895 32.7236 109.766 32.3194 109.484 32.0174C109.327 31.8296 109.068 31.8629 108.854 31.8569C107.465 31.8665 106.077 31.8534 104.688 31.8629C104.485 31.8558 104.246 31.9485 104.193 32.166Z"/><path fill="#fff" d="M128.755 30.7989C130.16 30.7834 131.569 30.7822 132.975 30.8001C133.821 30.825 134.533 31.5561 134.529 32.4025C134.539 38.8243 134.529 45.2473 134.533 51.6691C134.515 52.3241 134.632 53.0504 134.257 53.6317C133.943 54.1453 133.331 54.3735 132.749 54.3688C131.523 54.3688 130.295 54.3664 129.068 54.3688C128.601 54.3616 128.095 54.2701 127.747 53.9361C127.373 53.6115 127.234 53.1051 127.22 52.626C127.224 45.8904 127.218 39.1548 127.224 32.418C127.207 31.5728 127.898 30.8131 128.755 30.7989ZM128.64 31.8866C128.366 31.9627 128.262 32.2634 128.29 32.5214C128.295 39.2558 128.287 45.9903 128.294 52.7247C128.264 53.0266 128.53 53.2989 128.83 53.2917C130.178 53.3048 131.527 53.2965 132.877 53.2953C133.242 53.3286 133.521 52.9648 133.464 52.6165C133.459 45.8761 133.467 39.1346 133.459 32.393C133.477 32.0257 133.08 31.8058 132.751 31.8581C131.381 31.8795 130.007 31.8236 128.64 31.8866Z"/><path fill="#fff" d="M137.039 31.2268C137.343 30.9189 137.785 30.8191 138.202 30.7917C139.397 30.7858 140.592 30.7917 141.788 30.7881C142.223 30.7858 142.694 30.8488 143.045 31.1281C143.327 31.3302 143.502 31.6381 143.692 31.9199C145.721 35.0666 147.77 38.2014 149.791 41.354C150.537 40.3471 151.183 39.2641 151.892 38.2287C153.204 36.2482 154.512 34.2677 155.825 32.2884C156.085 31.9199 156.291 31.5038 156.627 31.1971C156.947 30.8975 157.398 30.8012 157.824 30.7893C159.014 30.7893 160.205 30.7905 161.397 30.7881C161.863 30.7905 162.363 30.888 162.713 31.2197C163.089 31.5383 163.236 32.0411 163.251 32.519C163.252 39.2178 163.252 45.9177 163.251 52.6165C163.236 53.1253 163.068 53.659 162.657 53.986C162.313 54.2879 161.835 54.3628 161.393 54.3699C160.164 54.3664 158.936 54.3676 157.707 54.3687C157.244 54.3545 156.751 54.2546 156.412 53.917C156.016 53.5639 155.902 53.01 155.898 52.5024C155.902 50.2805 155.898 48.0575 155.901 45.8357C154.483 47.9387 153.072 50.0464 151.658 52.1517C151.373 52.6046 151.022 53.092 150.468 53.2168C149.695 53.4605 148.723 53.2703 148.255 52.5654C146.779 50.3745 145.371 48.1384 143.886 45.9534C143.883 48.174 143.886 50.3947 143.885 52.6153C143.873 53.1003 143.724 53.6067 143.347 53.9348C142.999 54.276 142.49 54.3687 142.021 54.3699C140.791 54.3652 139.563 54.3687 138.335 54.3687C137.846 54.3557 137.32 54.232 136.983 53.8528C136.634 53.4974 136.538 52.9779 136.542 52.4988C136.545 45.8393 136.543 39.1809 136.543 32.5226C136.553 32.0518 136.677 31.5525 137.039 31.2268ZM137.616 32.3954C137.612 39.1762 137.612 45.957 137.616 52.7377C137.587 53.0587 137.896 53.3202 138.206 53.2953C139.561 53.2988 140.919 53.3036 142.274 53.2929C142.564 53.3024 142.817 53.0314 142.81 52.7461C142.829 49.3117 142.793 45.8749 142.827 42.4406C143.06 42.6878 143.226 42.9874 143.414 43.2691C145.299 46.1365 147.178 49.0085 149.065 51.8747C149.364 52.4001 150.257 52.3978 150.56 51.8783C152.705 48.7149 154.801 45.5147 156.971 42.368C156.973 45.8214 156.964 49.276 156.976 52.7306C156.952 53.0647 157.269 53.3309 157.592 53.2953C158.942 53.2977 160.292 53.3036 161.641 53.2929C161.986 53.3012 162.218 52.9482 162.182 52.6272C162.179 45.8904 162.186 39.1524 162.179 32.4156C162.192 32.116 161.921 31.8545 161.626 31.864C160.32 31.8557 159.012 31.8592 157.705 31.8628C157.425 31.8319 157.239 32.0673 157.104 32.2765C155.356 34.9227 153.604 37.5666 151.854 40.2116C151.156 41.2363 150.512 42.2991 149.781 43.2989C147.431 39.6338 145.05 35.9891 142.691 32.3288C142.546 32.0958 142.34 31.8295 142.033 31.8616C140.726 31.8604 139.42 31.8533 138.114 31.8652C137.834 31.8569 137.589 32.1148 137.616 32.3954Z"/><path fill="#fff" d="M175.491 36.8937C176.688 36.5894 177.986 36.7546 179.083 37.3157C181.148 38.3476 182.516 40.6681 182.32 42.9826C182.123 45.8238 179.63 48.4165 176.724 48.413C173.816 48.4165 171.317 45.8238 171.114 42.9814C170.877 40.2568 172.841 37.5463 175.491 36.8937ZM175.802 37.9006C173.684 38.4355 172.044 40.5456 172.171 42.7472C172.248 45.3043 174.693 47.7092 177.316 47.3062C179.548 46.9412 181.311 44.767 181.267 42.5142C181.277 40.6526 180.039 38.8742 178.34 38.1479C177.556 37.7698 176.645 37.7449 175.802 37.9006Z"/><path fill="#1561AC" d="M175.252 31.7713C178.425 31.3208 181.77 32.3514 184.119 34.5364C185.913 36.1746 187.134 38.4285 187.512 40.8286C187.911 43.293 187.449 45.894 186.189 48.0528C184.914 50.2687 182.831 52.0031 180.421 52.8531C177.354 53.9515 173.804 53.5973 171.023 51.8985C168.344 50.2949 166.429 47.4846 165.934 44.4009C165.498 41.8189 166.011 39.0823 167.4 36.8569C169.082 34.1001 172.047 32.1791 175.252 31.7713ZM175.491 36.8938C172.841 37.5464 170.877 40.2568 171.114 42.9815C171.317 45.8239 173.816 48.4166 176.724 48.413C179.63 48.4166 182.123 45.8239 182.32 42.9827C182.516 40.6681 181.148 38.3476 179.083 37.3158C177.986 36.7547 176.688 36.5894 175.491 36.8938Z"/><path fill="#1561AC" d="M104.193 32.166C104.246 31.9485 104.485 31.8557 104.688 31.8629C106.077 31.8534 107.465 31.8664 108.854 31.8569C109.068 31.8629 109.327 31.8296 109.484 32.0174C109.766 32.3194 109.895 32.7236 110.07 33.0909C111.651 36.599 113.218 40.1142 114.81 43.6187C115.441 42.3586 115.969 41.0474 116.56 39.7682C117.64 37.3562 118.715 34.9406 119.799 32.5298C119.944 32.2516 120.122 31.8605 120.491 31.8641C121.997 31.8605 123.504 31.851 125.011 31.8688C125.391 31.8641 125.551 32.3241 125.351 32.6154C122.361 38.8481 119.359 45.075 116.366 51.3053C116.057 51.9211 115.788 52.5583 115.454 53.161C115.191 53.6924 114.303 53.6246 114.105 53.0683C110.838 46.3065 107.602 39.5281 104.341 32.7616C104.266 32.5738 104.13 32.3752 104.193 32.166Z"/><path fill="#1561AC" d="M128.64 31.8866C130.007 31.8236 131.381 31.8795 132.751 31.8581C133.08 31.8058 133.477 32.0257 133.459 32.3931C133.467 39.1346 133.459 45.8762 133.464 52.6166C133.521 52.9649 133.242 53.3286 132.877 53.2953C131.527 53.2965 130.178 53.3049 128.83 53.2918C128.53 53.2989 128.264 53.0267 128.294 52.7247C128.287 45.9903 128.294 39.2559 128.29 32.5215C128.262 32.2635 128.366 31.9627 128.64 31.8866Z"/><path fill="#1561AC" d="M137.616 32.3954C137.589 32.1148 137.834 31.8568 138.114 31.8652C139.42 31.8533 140.726 31.8604 142.033 31.8616C142.341 31.8295 142.546 32.0958 142.691 32.3288C145.05 35.989 147.431 39.6338 149.781 43.2988C150.512 42.2991 151.157 41.2363 151.854 40.2116C153.604 37.5665 155.356 34.9227 157.104 32.2765C157.24 32.0673 157.425 31.8319 157.706 31.8628C159.012 31.8592 160.32 31.8557 161.626 31.864C161.921 31.8545 162.192 32.116 162.179 32.4156C162.186 39.1524 162.179 45.8904 162.182 52.6272C162.218 52.9481 161.986 53.3012 161.642 53.2929C160.292 53.3036 158.942 53.2976 157.593 53.2953C157.269 53.3309 156.952 53.0646 156.976 52.7306C156.964 49.276 156.973 45.8214 156.971 42.368C154.801 45.5147 152.706 48.7149 150.56 51.8782C150.257 52.3977 149.364 52.4001 149.065 51.8747C147.178 49.0085 145.299 46.1364 143.414 43.2691C143.226 42.9874 143.06 42.6878 142.827 42.4405C142.793 45.8749 142.829 49.3117 142.81 52.7461C142.817 53.0314 142.564 53.3024 142.274 53.2929C140.919 53.3036 139.561 53.2988 138.206 53.2953C137.896 53.3202 137.587 53.0587 137.616 52.7377C137.612 45.9569 137.612 39.1762 137.616 32.3954Z"/><path fill="#FBA81A" d="M128.51 24.1262C128.674 24.0145 128.881 24.0406 129.069 24.0311C130.374 24.0466 131.68 24.0145 132.984 24.0466C133.294 24.0668 133.506 24.383 133.471 24.6814C133.471 25.9118 133.479 27.1422 133.468 28.3714C133.497 28.6983 133.206 29.0062 132.874 28.9657C131.524 28.9657 130.172 28.9741 128.822 28.9622C128.503 28.9788 128.256 28.6709 128.284 28.3654C128.274 27.1766 128.287 25.9879 128.278 24.7991C128.276 24.5613 128.283 24.2677 128.51 24.1262Z"/><path fill="#fff" d="M72.3465 20.7109C73.6244 20.321 74.9439 20.0392 76.2837 20.0071C77.8921 19.9501 79.4946 20.252 81.0245 20.7347C82.7007 21.2756 84.2259 22.2147 85.5573 23.3595C85.8522 23.6151 86.141 23.8814 86.374 24.1964C87.3869 23.4261 88.9406 23.5271 89.8465 24.4223C91.9304 26.5002 94.0119 28.583 96.0911 30.6657C96.6724 31.2506 96.9423 32.072 96.9779 32.8828C96.9756 36.171 96.9803 39.4603 96.9756 42.7485C96.9458 43.7054 96.487 44.6018 95.763 45.2211C91.1826 49.7991 86.6035 54.3771 82.0267 58.9586C81.6249 59.3795 81.1494 59.7801 80.5585 59.8847C79.913 60.0951 79.2116 59.9548 78.6089 59.6814C77.8065 59.2047 77.2656 58.413 76.5571 57.821C76.0019 58.3928 75.442 58.9622 74.8655 59.5114C74.1082 60.208 72.8208 60.1498 72.1218 59.3985C65.3636 52.6427 58.603 45.888 51.8519 39.1263C51.0757 38.3821 51.0935 37.0257 51.8769 36.2934C55.9568 32.2111 60.0367 28.1301 64.1189 24.0514C64.8762 23.2466 66.254 23.2882 67.0053 24.0799C68.4722 22.5464 70.3279 21.3695 72.3465 20.7109ZM67.8529 24.7111C68.1346 25.0178 68.4401 25.3008 68.7242 25.6051C69.2533 25.1189 69.7894 24.6386 70.3897 24.2416C72.5093 22.7913 75.1425 22.1267 77.696 22.3728C80.2625 22.6034 82.7376 23.7625 84.5445 25.6015C84.8548 25.3305 85.1318 25.0238 85.4397 24.7504C82.9111 22.0804 79.0868 20.762 75.4444 21.1293C72.5949 21.3849 69.8726 22.6926 67.8529 24.7111ZM71.9233 24.5126C71.607 24.6434 71.3919 24.9643 71.0329 24.9953C70.8843 25.3448 70.4147 25.4149 70.1662 25.6895C70.0129 25.8856 69.8262 26.0509 69.6432 26.2185C70.2566 25.7549 70.8177 25.2104 71.5143 24.8704C72.7625 24.0739 74.2164 23.6674 75.675 23.4736C78.3308 23.2442 81.097 24.0549 83.1299 25.7989C83.2856 25.957 83.4116 26.1828 83.6529 26.2149C83.1548 25.674 82.5307 25.2663 81.9173 24.8692L81.8876 24.7551C81.4644 24.6469 81.0352 24.4353 80.6976 24.1667C79.9737 23.9919 79.2925 23.6448 78.5436 23.5556C77.835 23.4118 77.1158 23.394 76.3966 23.4106C74.8381 23.3738 73.3201 23.86 71.9233 24.5126ZM64.875 24.8086C60.8914 28.7875 56.9137 32.771 52.9301 36.7499C52.652 37.0245 52.2965 37.3169 52.3274 37.752C52.331 38.2109 52.7376 38.4891 53.0217 38.791C59.6396 45.4054 66.254 52.0233 72.8707 58.6377C73.1881 59.0121 73.8182 59.0632 74.1653 58.7042C74.9772 57.9066 75.7749 57.0934 76.5833 56.2922C77.1895 56.9365 77.8339 57.5452 78.452 58.1788C78.6922 58.4213 78.9323 58.6876 79.2616 58.8077C79.8595 59.0549 80.5966 58.9075 81.04 58.432C85.7927 53.6781 90.5478 48.9242 95.3018 44.1702C95.7083 43.7684 95.9259 43.1966 95.908 42.6272C95.908 39.4983 95.9045 36.3695 95.9092 33.2394C95.9544 32.5892 95.8106 31.8937 95.3327 31.4206C93.2535 29.3402 91.1743 27.2575 89.0916 25.1807C88.4901 24.5673 87.4 24.5934 86.8151 25.2164C83.4461 28.5818 80.083 31.952 76.7116 35.3162C73.3034 31.9056 69.8916 28.4986 66.4858 25.0868C66.2528 24.8633 66.0352 24.5732 65.6929 24.5269C65.3921 24.471 65.0806 24.5851 64.875 24.8086ZM70.272 27.1457C70.5835 27.412 70.8248 27.7758 71.1708 27.991C72.5141 26.7023 74.2972 25.8654 76.166 25.7668C78.3557 25.617 80.5883 26.4574 82.1325 28.0183C82.4451 27.7425 82.7245 27.4346 83.0264 27.1493C81.2932 25.3614 78.7706 24.3985 76.2896 24.5067C74.0476 24.5887 71.8412 25.5373 70.272 27.1457ZM83.7932 26.3754C83.7682 26.5371 83.8324 26.6037 83.9893 26.5728C84.0191 26.4099 83.9537 26.3433 83.7932 26.3754ZM58.1453 29.3379C58.3926 29.6743 58.7254 29.9334 58.9929 30.252C59.6467 29.6885 60.3945 29.2059 61.2504 29.0276C62.7602 28.671 64.4375 29.1417 65.5229 30.2544C65.8367 29.9798 66.1173 29.6695 66.4228 29.3854C65.2388 28.1515 63.4734 27.5273 61.777 27.6807C60.4147 27.7806 59.1379 28.4142 58.1453 29.3379ZM59.6586 31.1139C60.5609 32.0055 61.4466 32.9137 62.3548 33.7993C63.225 32.9173 64.0999 32.0388 64.9844 31.171C64.2806 30.5124 63.389 29.9608 62.3916 29.9846C61.361 29.9085 60.3755 30.4018 59.6586 31.1139Z"/><path fill="#fff" d="M60.7844 29.7195C61.5999 28.9765 62.3227 28.136 63.1537 27.4109C69.8536 34.1643 76.6035 40.8702 83.3225 47.6058C83.4996 47.8127 83.7623 47.9649 83.8764 48.2145C83.1192 49.0074 82.337 49.7789 81.55 50.5433C74.7062 43.6781 67.8422 36.8331 60.9901 29.9763C60.9176 29.8931 60.8486 29.8075 60.7844 29.7195ZM62.2835 29.7552C68.7076 36.1805 75.1401 42.5987 81.5607 49.0276C81.8401 48.7518 82.1159 48.4737 82.3952 48.1979C75.9794 41.7725 69.5517 35.3591 63.1477 28.9242C62.8327 29.1715 62.5712 29.477 62.2835 29.7552Z"/><path fill="#1561AC" d="M67.8529 24.7111C69.8726 22.6926 72.5949 21.3849 75.4444 21.1293C79.0869 20.762 82.9112 22.0803 85.4397 24.7503C85.1318 25.0238 84.8548 25.3305 84.5445 25.6015C82.7376 23.7625 80.2626 22.6034 77.696 22.3728C75.1425 22.1267 72.5093 22.7912 70.3898 24.2415C69.7894 24.6386 69.2533 25.1189 68.7243 25.6051C68.4402 25.3007 68.1346 25.0178 67.8529 24.7111Z"/><path fill="#1561AC" d="M64.875 24.8086C65.0807 24.5851 65.3921 24.471 65.6929 24.5269C66.0352 24.5732 66.2528 24.8633 66.4858 25.0868C69.8916 28.4986 73.3034 31.9056 76.7117 35.3162C79.7799 38.3856 82.8505 41.4539 85.9187 44.5233C86.1529 44.7622 86.4097 44.9822 86.6142 45.2496C86.8686 45.598 86.7913 46.1151 86.4739 46.398C83.1786 49.6981 79.8786 52.9922 76.5833 56.2922C75.7749 57.0934 74.9772 57.9066 74.1653 58.7042C73.8182 59.0633 73.1881 59.0121 72.8707 58.6377C66.254 52.0233 59.6396 45.4054 53.0217 38.791C52.7376 38.4891 52.331 38.2109 52.3274 37.752C52.2965 37.3169 52.652 37.0245 52.9302 36.7499C56.9138 32.771 60.8914 28.7875 64.875 24.8086ZM60.7844 29.7195C60.8486 29.8074 60.9176 29.893 60.9901 29.9762C67.8422 36.8331 74.7062 43.6781 81.55 50.5433C82.337 49.7789 83.1192 49.0074 83.8764 48.2145C83.7623 47.9648 83.4996 47.8127 83.3225 47.6058C76.6035 40.8702 69.8536 34.1643 63.1536 27.4108C62.3227 28.136 61.5999 28.9765 60.7844 29.7195Z"/><path fill="#1561AC" d="M70.2721 27.1457C71.8413 25.5373 74.0477 24.5887 76.2897 24.5066C78.7707 24.3985 81.2933 25.3614 83.0265 27.1493C82.7245 27.4346 82.4452 27.7425 82.1325 28.0183C80.5883 26.4574 78.3558 25.617 76.1661 25.7667C74.2973 25.8654 72.5141 26.7023 71.1708 27.9909C70.8249 27.7758 70.5836 27.412 70.2721 27.1457Z"/><path fill="#1561AC" d="M72.514 29.3403C73.5067 28.4166 74.7834 27.783 76.1458 27.6831C77.8421 27.5298 79.6075 28.1539 80.7915 29.3878C80.486 29.672 80.2054 29.9822 79.8916 30.2568C78.8062 29.1441 77.1289 28.6734 75.6191 29.03C74.7632 29.2083 74.0155 29.691 73.3616 30.2545C73.0942 29.9359 72.7613 29.6767 72.514 29.3403Z"/><path fill="#FBA81A" d="M86.8151 25.2164C87.3999 24.5934 88.49 24.5673 89.0916 25.1807C91.1743 27.2575 93.2535 29.3402 95.3327 31.4206C95.8105 31.8937 95.9544 32.5892 95.9092 33.2394C95.9045 36.3695 95.908 39.4983 95.908 42.6272C95.9259 43.1966 95.7083 43.7684 95.3017 44.1702C90.5478 48.9242 85.7927 53.6781 81.04 58.432C80.5966 58.9075 79.8595 59.0549 79.2616 58.8077C78.9323 58.6876 78.6921 58.4213 78.452 58.1788C77.8338 57.5452 77.1895 56.9365 76.5833 56.2922C79.8785 52.9922 83.1786 49.6981 86.4739 46.398C86.7913 46.1151 86.8686 45.598 86.6142 45.2496C86.4097 44.9822 86.1529 44.7622 85.9187 44.5233C82.8505 41.4539 79.7799 38.3856 76.7116 35.3162C80.083 31.952 83.4461 28.5818 86.8151 25.2164Z"/></svg>