<svg xmlns="http://www.w3.org/2000/svg" width="40" height="40" fill="none" viewBox="0 0 40 40"><path fill="#9F1D26" d="M1.13646 13.0877C1.59621 12.9569 2.10558 12.965 2.54532 13.1627C2.90927 13.3247 3.2082 13.6136 3.40979 13.9548C3.57907 14.2322 3.66486 14.5489 3.78913 14.847C4.37776 16.3328 5.0087 17.8017 5.63503 19.2717C6.27175 20.7564 6.91385 22.2387 7.56134 23.7187C8.81323 20.3551 10.0751 16.9949 11.397 13.6586C11.4921 13.3843 11.7102 13.1469 11.9941 13.0681C12.2869 12.9788 12.6074 13.0731 12.8486 13.2485C13.0379 13.387 13.1498 13.6178 13.146 13.8521C13.151 13.9956 13.0983 14.1314 13.0486 14.2634C11.9472 17.2881 10.843 20.312 9.72156 23.3294C9.3807 24.2435 9.04022 25.158 8.68743 26.0679C8.55046 26.3995 8.4412 26.7461 8.25076 27.0524C8.03109 27.4144 7.66214 27.6798 7.24664 27.7653C6.86615 27.843 6.4618 27.8522 6.08708 27.7402C5.78238 27.6483 5.51307 27.4579 5.30686 27.217C5.06718 26.9481 4.92753 26.6111 4.76748 26.2925C4.11114 24.9041 3.5079 23.4918 2.90388 22.0802C2.22754 20.4886 1.56351 18.8916 0.922557 17.2854C0.631321 16.5421 0.330083 15.8019 0.0815519 15.0428C-0.0688749 14.6039 -0.0107817 14.096 0.252369 13.7113C0.457426 13.4035 0.783672 13.1889 1.13646 13.0877Z"/><path fill="#9F1D26" d="M13.7131 15.7826C14.0462 15.7492 14.3983 15.7511 14.711 15.8846C14.9334 15.9769 15.0981 16.1874 15.1308 16.4263C15.1796 16.7302 15.1454 17.0961 14.8869 17.3004C14.6091 17.5154 14.2378 17.5324 13.9012 17.5239C13.5957 17.5108 13.2529 17.4504 13.046 17.203C12.8501 16.9518 12.8528 16.5971 12.9305 16.3024C13.0317 15.9685 13.3918 15.8127 13.7131 15.7826Z"/><path fill="#9F1D26" d="M16.7313 18.2214C16.9771 18.0106 17.3191 17.9732 17.6307 17.9832C17.9158 17.9921 18.2109 18.0944 18.3979 18.3187C18.5672 18.5088 18.6383 18.7592 18.7014 19.0004C19.0858 18.5761 19.5759 18.2391 20.1353 18.0967C20.8324 17.9186 21.588 17.9409 22.267 18.1841C22.6083 18.3095 22.9234 18.508 23.18 18.7661C23.3808 18.9677 23.5139 19.227 23.6032 19.4948C23.7382 19.9072 23.7786 20.3439 23.7863 20.7759C23.7902 21.8789 23.799 22.9819 23.8029 24.0853C23.8148 24.4108 23.799 24.7698 23.587 25.0356C23.3874 25.2849 23.0515 25.3622 22.7468 25.3695C22.4286 25.378 22.0766 25.3399 21.8311 25.1168C21.5999 24.9063 21.5388 24.5774 21.5364 24.2785C21.5391 23.2901 21.5288 22.3021 21.5318 21.3138C21.5326 20.7505 21.5426 20.1712 21.3545 19.6325C21.2933 19.4444 21.1752 19.2717 21.0048 19.1678C20.7124 18.9885 20.3527 18.9674 20.0195 18.9977C19.6294 19.0343 19.252 19.2274 19.0169 19.5444C18.7561 19.8684 18.7068 20.3004 18.686 20.7017C18.6822 21.9055 18.6872 23.1097 18.6833 24.3135C18.6783 24.6178 18.601 24.9544 18.3494 25.151C18.0724 25.3661 17.7004 25.3849 17.3641 25.3634C17.0779 25.3438 16.772 25.2395 16.6039 24.9929C16.4523 24.7736 16.4162 24.4989 16.4192 24.2384C16.4204 22.5072 16.4189 20.7759 16.4196 19.0447C16.4235 18.7477 16.4966 18.423 16.7313 18.2214Z"/><path fill="#9F1D26" d="M13.608 18.0329C13.9847 17.9621 14.4075 17.9583 14.7472 18.1595C15.0454 18.3426 15.1473 18.7135 15.1496 19.0436C15.1508 20.7883 15.1496 22.533 15.1504 24.2777C15.1485 24.5766 15.0862 24.9048 14.8569 25.116C14.6326 25.3238 14.3113 25.3711 14.017 25.3707C13.7146 25.3707 13.383 25.3157 13.1602 25.0929C12.9502 24.8798 12.8909 24.5663 12.8898 24.2773V19.082C12.8921 18.8358 12.9317 18.5784 13.0737 18.3714C13.1952 18.1902 13.3988 18.0798 13.608 18.0329Z"/><path fill="#222D45" d="M26.8441 14.7651C27.1538 14.6966 27.4881 14.6985 27.7874 14.8112C28.0406 14.9063 28.2368 15.119 28.338 15.3672C28.4995 15.7503 28.4984 16.1747 28.4953 16.5833C28.4953 18.9432 28.4949 21.3031 28.4953 23.6626C28.4938 24.0761 28.4607 24.5182 28.2248 24.8717C28.051 25.1368 27.7389 25.2784 27.43 25.3023C27.0507 25.3373 26.6202 25.2776 26.3493 24.9837C26.0562 24.6582 26 24.1973 25.99 23.7768C25.9888 21.4169 25.99 19.0574 25.9896 16.6975C25.9892 16.2228 25.9658 15.72 26.1858 15.2841C26.3124 15.0225 26.5613 14.8297 26.8441 14.7651Z"/><path fill="#222D45" d="M30.7948 14.7416C31.2919 14.717 31.7909 14.7293 32.2891 14.7258C33.1747 14.7308 34.0619 14.6927 34.946 14.7562C35.9136 14.8158 36.8927 15.0524 37.7141 15.5834C38.3262 15.9823 38.8717 16.4963 39.2533 17.123C39.9655 18.2849 40.1294 19.7168 39.9085 21.0445C39.7092 22.2656 39.1133 23.4598 38.1184 24.2219C37.5086 24.6952 36.7788 24.9975 36.0267 25.1545C35.3307 25.3069 34.6151 25.3196 33.9057 25.3103C32.9308 25.3103 31.9559 25.3103 30.981 25.3107C30.6598 25.303 30.3189 25.2157 30.085 24.9837C29.8599 24.7586 29.7815 24.4289 29.7792 24.1196C29.7792 21.4281 29.7795 18.7362 29.7788 16.0446C29.7692 15.7242 29.8122 15.3783 30.0192 15.1202C30.205 14.8847 30.5051 14.7762 30.7948 14.7416ZM33.1851 15.558C33.0301 15.5691 32.8743 15.5903 32.7288 15.6449C32.5384 15.7157 32.386 15.8842 32.3445 16.0843C32.2787 16.3867 32.2852 16.6983 32.2845 17.0057V22.5061C32.2899 22.9431 32.2637 23.3848 32.3353 23.8184C32.366 24.0434 32.5095 24.2481 32.7138 24.3493C32.9974 24.4924 33.3259 24.4886 33.6356 24.4882C34.4762 24.4832 35.3257 24.2012 35.9578 23.6372C36.4683 23.1805 36.8354 22.5757 37.0547 21.9298C37.3336 21.0911 37.3971 20.1889 37.2913 19.3136C37.1905 18.5138 36.9381 17.7197 36.473 17.0549C36.0778 16.4825 35.5034 16.0385 34.8544 15.7911C34.3235 15.5918 33.7487 15.5253 33.1851 15.558Z"/></svg>