<svg xmlns="http://www.w3.org/2000/svg" width="154" height="40" fill="none" viewBox="0 0 154 40"><g clip-path="url(#clip0_5_6945)"><path fill="#005AAA" fill-rule="evenodd" d="M132.876 19.0207H129.112L130.939 13.7855L132.879 19.0207H132.876ZM28.7753 13.1239L24.9683 16.9545L24.7794 17.1421L22.668 19.2691L20.7431 21.206L20.5567 21.3961L18.7729 23.1885L18.5864 23.3786C18.0523 23.9161 17.4602 24.3572 16.8328 24.7071C16.5154 24.882 16.1904 25.0341 15.8578 25.1634C15.1171 25.4524 14.3385 25.6197 13.555 25.6704C13.0737 25.7034 12.5875 25.6907 12.1088 25.6299C11.0732 25.5056 10.0604 25.1735 9.13322 24.6335C8.73766 24.4028 8.3295 24.162 7.99188 23.8248C7.99188 23.8248 7.99021 23.8248 7.98685 23.8248L0.685307 16.4779C0.56437 16.3435 0.456031 16.199 0.365329 16.0418C0.133534 15.6464 0 15.19 0 14.7007C0 14.6247 0.00251951 14.5461 0.010078 14.4726C0.0201561 14.3585 0.0377926 14.2495 0.0604682 14.143L0.105819 13.9681C0.20408 13.641 0.365329 13.3317 0.587046 13.0529C0.644994 12.9819 0.707982 12.9134 0.773489 12.8425L0.896945 12.7208L8.27911 5.29018H8.28163L12.7538 0.787711C13.7515 -0.216217 15.3413 -0.26185 16.3869 0.658417L28.7753 13.1239ZM114.025 9.97264L117.588 9.95997H121.914C124.292 9.95997 126.24 11.9197 126.24 14.3129V14.8503C126.24 17.2461 124.292 19.0714 121.914 19.1424L119.939 19.2032C121.526 18.468 122.189 16.6148 121.992 14.9441C121.833 13.603 121.148 12.3151 120.004 12.2898L119.284 12.2746V24.2076C119.284 24.4409 119.324 24.5372 119.445 24.74C119.639 25.0645 119.896 25.389 120.163 25.7135C120.234 25.7972 120.302 25.8808 120.372 25.967H114.235C114.328 25.853 114.416 25.7389 114.502 25.6197C114.688 25.3637 114.852 25.0924 114.975 24.7933C115.056 24.5981 115.094 24.4561 115.094 24.2482V11.4278C115.069 10.7585 114.408 10.3808 114.023 9.97011L114.025 9.97264ZM143.496 18.5212L137.923 10.4822L137.356 9.95997H142.849L146.57 16.0368L146.87 15.7909L149.12 12.4242C149.674 11.5977 149.598 10.6369 148.81 9.95743H154L148.001 18.5187V24.7299L149.057 25.9949H142.609L143.516 24.7476C143.516 22.6764 143.443 20.5823 143.494 18.5187L143.496 18.5212ZM128.367 9.95997C128.81 10.5735 128.943 10.7915 128.994 11.3366C129.027 11.7168 129.001 11.9349 128.88 12.2898L124.736 24.3826C124.542 24.8795 124.141 25.4296 123.557 25.962H128.079C127.744 25.6628 127.53 25.3054 127.449 24.882C127.379 24.4941 127.381 24.3471 127.465 23.9744L128.384 21.102H133.647L134.469 23.3153C134.554 23.5485 134.602 23.7614 134.625 24.0124C134.696 24.8389 134.433 25.5183 133.781 26H140.873C140.178 25.3763 139.538 24.7248 139.178 23.9313L134 9.95997H128.364H128.367Z" clip-rule="evenodd"/><path fill="#ED1C24" fill-rule="evenodd" d="M70.0371 12.6335L75.8329 9.31572L76.9751 11.4106L71.3901 13.4604L70.0371 12.6335ZM71.5181 23.5315V16.8358C71.5181 16.3246 71.4553 15.9362 71.3323 15.6706C71.2169 15.415 71.0136 15.1519 70.7249 14.8787V14.786H73.6165C74.0684 14.786 74.4474 14.766 74.7586 14.7259C75.0473 14.6958 75.3184 14.6006 75.5744 14.4477H75.6673V23.6217C75.6673 24.1504 75.7225 24.5539 75.8304 24.832C75.9384 25.1503 76.1643 25.4334 76.5057 25.6815V25.7742H70.6747V25.6815C71.0412 25.3708 71.2746 25.0601 71.375 24.7493C71.4679 24.4461 71.5156 24.0402 71.5156 23.5265L71.5181 23.5315ZM80.7302 9.95221H85.665L89.8067 21.8099L93.3208 11.987C93.3861 11.6061 93.3283 11.4808 93.1828 11.1525C92.987 10.7541 92.7812 10.3657 92.5854 9.96724H96.2727C96.0543 10.7691 95.7305 11.6487 95.4519 12.4581L90.6902 26.2679C89.39 26.0098 87.9417 25.4961 86.8222 24.4361C85.9788 23.6392 85.6801 22.7321 85.2634 21.6496L81.2824 11.125C81.1242 10.709 80.931 10.3381 80.7251 9.9497L80.7302 9.95221ZM59.6001 22.0931L56.1136 12.4831C56.0283 12.2576 55.9429 12.0321 55.8576 11.8065C55.7245 11.4808 55.6116 11.2252 55.5187 11.0372C55.3781 10.7591 55.1522 10.4509 54.841 10.1176V10.07H60.2653V10.1652L60.2176 10.3156C60.2804 10.7441 60.4009 11.2678 60.5791 11.8892L63.9878 21.7774L66.8267 13.1071L66.9673 12.6911L67.1129 12.1899C67.1355 12.0897 67.1505 12.0145 67.158 11.9669C67.1656 11.9193 67.1681 11.8491 67.1681 11.7564C67.1681 11.0849 66.8117 10.5386 66.0963 10.1176V10.07H70.3634V10.1301L64.8713 26.2754L63.0164 25.6339C62.6976 25.5186 62.4089 25.4008 62.1529 25.2856C61.8969 25.1678 61.6659 25.045 61.4651 24.9122C61.0987 24.6716 60.7673 24.3359 60.4686 23.9049C60.1699 23.4738 59.8788 22.8699 59.6001 22.0931ZM100.437 15.5077V23.98C100.437 24.3233 100.517 24.386 100.728 24.6616L101.7 25.9271H97.0533C97.3169 25.5286 97.5779 25.1302 97.839 24.7318C98.0398 24.4035 98.1277 24.2908 98.1277 23.9099V12.0722L96.8224 9.95221H101.637L109.433 19.9757V11.987C109.433 11.6061 109.358 11.4808 109.155 11.1525C108.893 10.7541 108.62 10.3657 108.359 9.96724H113L112.034 11.2327C111.823 11.5083 111.742 11.5685 111.742 11.9143V26.333C109.985 26.1025 108.346 25.6715 106.89 23.8146L100.437 15.5077ZM8.16567 23.6568C8.18826 23.6793 8.21085 23.7019 8.23595 23.7244C8.5723 24.0577 8.97894 24.2983 9.37805 24.5263C10.3018 25.0601 11.3108 25.3883 12.3425 25.5111C12.8194 25.5687 13.3038 25.5813 13.7833 25.5512C14.5639 25.5036 15.3395 25.3357 16.0775 25.0525C16.4088 24.9247 16.7326 24.7744 17.0489 24.6015C17.6739 24.2557 18.2638 23.8197 18.7959 23.2884L18.9817 23.103L20.7588 21.3288L21.6575 20.4292L23.7609 18.3293L24.9658 17.124L25.154 16.9386L32.7948 9.31321L35.9449 5.90524L36.1332 5.71981C37.0946 4.76006 38.6559 4.76006 39.6172 5.71981L41.3417 7.44134L41.3969 7.49897C40.6338 7.46389 39.8632 7.73703 39.2859 8.30085L33.4474 14.0343L33.3872 14.1044L23.2263 24.0853L23.2112 24.0727L19.4686 27.7438L19.2176 28.0069C18.924 28.2926 18.3065 28.8364 17.4832 29.2248C17.1092 29.4002 16.7301 29.528 16.3536 29.6082C16.1302 29.6533 15.9018 29.6809 15.6784 29.6909H15.5077C14.9128 29.6909 14.3305 29.5581 13.7707 29.3025L12.0111 27.5509L11.2933 26.8317L8 23.5064L8.15061 23.6593L8.16567 23.6568ZM50.6918 20.2463L42.2302 28.8213L33.5403 37.6295C33.2642 37.9076 32.973 38.1557 32.6668 38.3812C32.6567 38.3912 32.6442 38.4013 32.6316 38.4113C32.5889 38.4414 32.5488 38.4714 32.5036 38.5015C32.4986 38.5065 32.4936 38.509 32.4885 38.514C31.1783 39.4512 29.5693 40 27.8373 40C25.6962 40 23.7534 39.163 22.3151 37.7973L22.1168 37.6219L20.6208 36.1309L16.4214 31.9361L14.825 30.3424C15.0534 30.38 15.2843 30.395 15.5152 30.395H15.7085C15.9771 30.3825 16.2432 30.3499 16.5067 30.2973C16.936 30.2096 17.3702 30.0618 17.7969 29.8613C18.7156 29.4278 19.4009 28.8264 19.7247 28.5081C19.8527 28.3828 19.9481 28.2776 19.9882 28.2325L23.2187 25.0651L23.2313 25.0801L34.336 14.1721L34.3962 14.1019L39.7904 8.80202C40.5158 8.09286 41.6504 8.00014 42.4762 8.56647L43.7539 9.84195H43.7564L50.6918 16.7656C50.752 16.8283 50.8123 16.8909 50.865 16.9561C51.6506 17.9234 51.5904 19.3517 50.6918 20.2463Z" clip-rule="evenodd"/><path fill="#009EDB" d="M28.06 13.85L27.3466 14.5727L26.0955 13.2934C25.8995 13.0917 25.9021 12.7674 26.0955 12.5708C26.294 12.3716 26.6105 12.3716 26.809 12.5708L28.0575 13.8475L28.06 13.85ZM25.9523 15.9924L25.2388 16.7125L21.3098 12.6882C19.8503 11.197 17.7199 10.671 15.7479 11.3196C15.4841 11.4064 15.2002 11.2608 15.1148 10.9927C15.0294 10.7221 15.1751 10.4335 15.4389 10.3467C17.7727 9.57811 20.2974 10.1986 22.0233 11.9681L25.9498 15.9924H25.9523ZM21.7394 20.2745L21.026 20.9997L17.0793 16.9576C16.8834 16.7584 16.8859 16.4341 17.0793 16.2324C17.2778 16.0333 17.5968 16.0358 17.7928 16.235L21.7369 20.2745H21.7394ZM23.8446 18.1347L23.1311 18.8574L19.1946 14.8229C18.2349 13.8373 16.6623 13.8322 15.6951 14.8076C14.728 15.7856 14.7204 17.3815 15.6826 18.3646L18.2199 20.9665C18.4158 21.1657 18.4158 21.49 18.2199 21.6917C18.0239 21.8909 17.7049 21.8883 17.5064 21.6892L14.9666 19.0872C13.6151 17.7007 13.6226 15.4562 14.9867 14.0799C16.3508 12.7061 18.5615 12.7163 19.9106 14.1003L23.8446 18.1322V18.1347ZM17.3155 24.3396C17.3155 24.3396 17.3004 24.3473 17.2929 24.3524C16.9839 24.5235 16.6699 24.6741 16.3458 24.8018L12.8539 21.2219C10.6683 18.9825 10.3568 15.474 12.1103 12.8772C12.2685 12.6448 12.5826 12.5861 12.8112 12.7444C13.0423 12.9053 13.0976 13.2244 12.9418 13.4568C11.4621 15.6477 11.7259 18.6071 13.5698 20.4967L17.318 24.3371L17.3155 24.3396ZM24.1385 10.5637C23.9426 10.7604 23.621 10.7553 23.4226 10.5561C20.1467 7.20084 14.7958 7.18042 11.4948 10.5076C8.19633 13.8373 8.17372 19.2761 11.4496 22.6314L14.0145 25.2614C14.0321 25.2793 14.0497 25.2997 14.0597 25.3202C14.0472 25.3202 14.0346 25.3202 14.022 25.3202C13.5548 25.3534 13.0825 25.3406 12.6203 25.2844L10.7361 23.3515C7.06837 19.5979 7.09098 13.5079 10.7864 9.77984C14.4818 6.05179 20.4708 6.07732 24.1385 9.83346L24.1461 9.84112C24.342 10.0403 24.337 10.362 24.1385 10.5637ZM108.763 30.5318C108.763 30.828 108.535 31.0552 108.243 31.0552C107.952 31.0552 107.701 30.8254 107.701 30.5318C107.701 30.2381 107.939 29.9956 108.243 29.9956C108.547 29.9956 108.763 30.2356 108.763 30.5318ZM90.4496 31.6042C90.2436 31.6042 90.221 31.5276 90.1883 31.3974C90.1557 31.091 90.3516 30.9608 90.6782 30.6109C90.7636 30.5241 90.8189 30.4475 90.8189 30.3607C90.8189 30.1743 90.731 30.0875 90.6229 30.0773C90.5149 30.0671 90.2989 30.1002 90.1456 30.1743C90.0276 30.2177 89.9296 30.2177 89.8517 30.0543L89.809 29.9675C89.7437 29.804 89.8517 29.7479 89.9597 29.6942C90.221 29.5844 90.3943 29.5615 90.5978 29.5615C91.0224 29.5615 91.369 29.804 91.359 30.3607C91.359 30.8407 90.7284 31.0399 90.6958 31.4C90.6958 31.4868 90.6104 31.5864 90.4998 31.6068H90.4446L90.4496 31.6042ZM123.751 30.4347C123.588 30.1845 123.633 30.1181 123.924 30.1181H124.032C124.326 30.1181 124.434 30.1845 124.575 30.4475L125.032 31.3336C125.14 31.5532 125.107 31.6068 124.869 31.6068H124.761C124.555 31.6068 124.404 31.52 124.293 31.3438L123.751 30.4373V30.4347ZM79.7151 31.3438C79.6071 31.5174 79.4539 31.6068 79.2479 31.6068H79.1398C78.9112 31.6068 78.8585 31.5532 78.9765 31.3336L79.4313 30.4475C79.5719 30.1845 79.6825 30.1207 79.9739 30.1207H80.0819C80.3758 30.1207 80.4185 30.1871 80.2552 30.4373L79.7126 31.3438H79.7151ZM105.761 34.0019C105.761 33.2257 105.284 32.8427 104.339 32.8427C103.395 32.8427 102.897 33.2257 102.897 34.0019V34.1322C102.897 34.9186 103.244 35.3118 104.339 35.3118C105.435 35.3118 105.761 34.9186 105.761 34.1322V34.0019ZM119.066 35.4242C119.066 36.4737 119.425 36.9435 120.628 36.9435C121.832 36.9435 122.191 36.4737 122.191 35.4242V34.4079C122.191 33.3585 121.811 32.8886 120.628 32.8886C119.445 32.8886 119.066 33.3585 119.066 34.4079V35.4242ZM97.1495 35.1306H95.8809C94.9137 35.1306 94.4716 35.3936 94.4716 36.0804C94.4716 36.7035 94.871 37.0099 95.6849 37.0099C96.6823 37.0099 97.1495 36.7801 97.1495 35.9604V35.1306ZM113.305 35.1306H112.037C111.072 35.1306 110.627 35.3936 110.627 36.0804C110.627 36.7035 111.029 37.0099 111.843 37.0099C112.841 37.0099 113.308 36.7801 113.308 35.9604V35.1306H113.305ZM107.831 32.572C107.831 32.2988 107.887 32.2222 108.178 32.2222H108.296C108.567 32.2222 108.643 32.2988 108.643 32.572V37.2652C108.643 37.5614 108.567 37.6151 108.296 37.6151H108.178C107.884 37.6151 107.831 37.5614 107.831 37.2652V32.572ZM124.379 32.572C124.379 32.2988 124.454 32.2222 124.726 32.2222H124.844C125.138 32.2222 125.19 32.2988 125.19 32.572V37.2652C125.19 37.5614 125.135 37.6151 124.844 37.6151H124.726C124.454 37.6151 124.379 37.5614 124.379 37.2652V32.572ZM78.8585 32.572C78.8585 32.2988 78.9338 32.2222 79.2051 32.2222H79.3257C79.6197 32.2222 79.6724 32.2988 79.6724 32.572V37.2627C79.6724 37.5589 79.6197 37.6125 79.3257 37.6125H79.2051C78.9338 37.6125 78.8585 37.5589 78.8585 37.2627V32.572ZM132.478 30.3071C132.478 30.0109 132.556 29.9573 132.825 29.9573H132.945C133.239 29.9573 133.292 30.0109 133.292 30.3071V32.8554C133.616 32.3626 134.181 32.1124 134.995 32.1124C136.329 32.1124 137 32.7456 137 34.0249V37.2627C137 37.5589 136.947 37.6125 136.653 37.6125H136.523C136.229 37.6125 136.176 37.5589 136.176 37.2627V34.1245C136.176 33.2614 135.797 32.8886 134.789 32.8886C133.782 32.8886 133.292 33.3048 133.292 34.3109V37.2627C133.292 37.5589 133.237 37.6125 132.945 37.6125H132.825C132.556 37.6125 132.478 37.5589 132.478 37.2627V30.3071ZM127.383 37.2627C127.383 37.5589 127.328 37.6125 127.037 37.6125H126.916C126.645 37.6125 126.569 37.5589 126.569 37.2627V34.1551C126.569 32.7865 127.328 32.1098 128.838 32.1098C130.431 32.1098 131.094 32.8324 131.094 34.1551V37.2627C131.094 37.5589 131.039 37.6125 130.747 37.6125H130.617C130.325 37.6125 130.27 37.5589 130.27 37.2627V34.1551C130.27 33.2793 129.933 32.8861 128.838 32.8861C127.743 32.8861 127.383 33.2921 127.383 34.1551V37.2627ZM76.6151 36.1034C76.4518 36.7265 76.2785 37.1529 76.0725 37.3827C75.8665 37.5997 75.5399 37.7095 75.0751 37.7095C74.6104 37.7095 74.2738 37.5997 74.0678 37.3827C73.8618 37.1529 73.6884 36.7265 73.5251 36.1034L72.2012 30.8739C72.1259 30.5777 72.1786 30.5037 72.4826 30.5037H72.6032C72.9072 30.5037 73.0051 30.5803 73.0805 30.8739L74.4019 36.2005C74.5426 36.8031 74.6958 36.9435 75.0751 36.9435C75.4344 36.9435 75.5952 36.8005 75.7358 36.2005L77.0598 30.8739C77.1351 30.5777 77.2331 30.5037 77.5371 30.5037H77.6551C77.9591 30.5037 78.0144 30.5803 77.9365 30.8739L76.6151 36.1034ZM123.957 31.3004C123.957 31.5302 123.881 31.6068 123.653 31.6068H123.002V35.4344C123.002 36.9537 122.211 37.7198 120.628 37.7198C119.046 37.7198 118.254 36.9537 118.254 35.4344V34.4181C118.254 32.8759 119.003 32.1098 120.498 32.1098C121.332 32.1098 121.897 32.3728 122.191 32.909V31.6068H120.716C120.467 31.6068 120.412 31.5302 120.412 31.3004V31.2136C120.412 30.9837 120.467 30.9071 120.716 30.9071H122.191V30.3071C122.191 30.0109 122.244 29.9573 122.537 29.9573H122.658C122.929 29.9573 123.005 30.0109 123.005 30.3071V30.9071H123.655C123.884 30.9071 123.959 30.9837 123.959 31.2136V31.3004H123.957ZM83.5839 34.3747C83.5839 32.9422 84.3526 32.1124 86.0031 32.1124C86.3623 32.1124 86.6763 32.1558 86.9577 32.2554C87.2164 32.3422 87.2818 32.4188 87.2818 32.6716V32.7814C87.2818 33.0546 87.2164 33.1312 86.9577 33.0444C86.6864 32.9448 86.3698 32.8912 86.0232 32.8912C84.8098 32.8912 84.3953 33.3712 84.3953 34.3901V35.4497C84.3953 36.5554 84.8826 36.9486 86.0885 36.9486C86.4553 36.9486 86.7818 36.9052 87.0632 36.8056C87.3119 36.7188 87.3898 36.8056 87.3898 37.0788V37.1886C87.3898 37.4185 87.3144 37.5053 87.0431 37.5819C86.7391 37.6815 86.405 37.7249 86.0357 37.7249C84.3752 37.7249 83.5839 37.0022 83.5839 35.4625V34.3798V34.3747ZM97.961 35.9936C97.961 37.2065 97.2576 37.7223 95.695 37.7223C94.449 37.7223 93.6576 37.2193 93.6576 36.083C93.6576 34.9467 94.3937 34.4871 95.8708 34.4871H97.1495V33.8308C97.1495 33.0878 96.6496 32.835 95.7277 32.835C95.2503 32.835 94.8509 32.8784 94.5344 32.955C94.2731 33.0086 94.1877 32.9448 94.1877 32.6818V32.595C94.1877 32.3422 94.253 32.2783 94.5143 32.2222C94.871 32.1456 95.2629 32.1124 95.6849 32.1124C97.2023 32.1124 97.961 32.6818 97.961 33.8283V35.9936ZM114.117 35.9936C114.117 37.2065 113.413 37.7223 111.851 37.7223C110.605 37.7223 109.813 37.2193 109.813 36.083C109.813 34.9467 110.549 34.4871 112.024 34.4871H113.303V33.8308C113.303 33.0878 112.803 32.835 111.883 32.835C111.406 32.835 111.004 32.8784 110.69 32.955C110.429 33.0086 110.343 32.9448 110.343 32.6818V32.595C110.343 32.3422 110.409 32.2783 110.67 32.2222C111.029 32.1456 111.419 32.1124 111.841 32.1124C113.358 32.1124 114.117 32.6818 114.117 33.8283V35.9936ZM88.9724 35.677C88.9724 36.5401 89.3292 36.9461 90.4245 36.9461C91.5198 36.9461 91.8665 36.5528 91.8665 35.677V32.5694C91.8665 32.2962 91.9418 32.2196 92.2131 32.2196H92.3337C92.6276 32.2196 92.6804 32.2962 92.6804 32.5694V35.677C92.6804 36.9997 92.0172 37.7223 90.4245 37.7223C88.9172 37.7223 88.1585 37.0457 88.1585 35.677V32.5694C88.1585 32.2962 88.2339 32.2196 88.5052 32.2196H88.6233C88.9172 32.2196 88.9699 32.2962 88.9699 32.5694V35.677H88.9724ZM103.274 37.4925C102.94 37.6559 102.764 37.9623 102.764 38.3888C102.764 39.0986 103.166 39.285 104.337 39.285C105.508 39.285 105.899 39.0986 105.899 38.3556C105.899 37.6661 105.5 37.5461 104.337 37.5461C103.87 37.5461 103.513 37.5231 103.274 37.4925ZM106.583 34.1347C106.583 35.4038 105.834 36.037 104.337 36.037C103.752 36.037 103.372 36.0702 103.189 36.1239C103.015 36.1775 102.928 36.2873 102.928 36.4532C102.928 36.6065 103.013 36.706 103.196 36.7597C103.382 36.8031 103.762 36.8261 104.334 36.8261C105.236 36.8261 105.852 36.9359 106.188 37.1657C106.535 37.3853 106.708 37.7657 106.708 38.3249C106.708 38.948 106.535 39.3744 106.176 39.6272C105.829 39.8774 105.211 40 104.332 40C103.453 40 102.802 39.88 102.455 39.6272C102.119 39.3872 101.945 39.0042 101.945 38.4781C101.945 37.9521 102.151 37.5589 102.553 37.3061C102.259 37.1631 102.109 36.9231 102.109 36.5835C102.109 36.1034 102.402 35.8174 102.988 35.7306C102.38 35.4778 102.078 34.9442 102.078 34.1347V34.0045C102.078 32.812 102.912 32.1124 104.334 32.1124C104.759 32.1124 105.126 32.189 105.452 32.3294L106.07 31.7728C106.254 31.6093 106.339 31.6093 106.515 31.7728L106.59 31.8494C106.764 32.0128 106.764 32.0996 106.59 32.2758L106.103 32.7788C106.417 33.075 106.58 33.4785 106.58 34.0045V34.1347H106.583Z"/></g><defs><clipPath id="clip0_5_6945"><rect width="154" height="40" fill="#fff"/></clipPath></defs></svg>