<svg xmlns="http://www.w3.org/2000/svg" width="240" height="80" fill="none" viewBox="0 0 240 80"><path fill="#005AAA" fill-rule="evenodd" d="M175.821 38.8846H172.06L173.885 33.687L175.823 38.8846H175.821ZM71.8236 33.0301L68.0204 36.8333L67.8316 37.0195L65.7224 39.1313L63.7994 41.0543L63.6131 41.243L61.8311 43.0225L61.6449 43.2113C61.1113 43.7449 60.5198 44.1829 59.893 44.5302C59.5759 44.7039 59.2512 44.8549 58.919 44.9833C58.179 45.2702 57.4012 45.4363 56.6184 45.4867C56.1377 45.5194 55.6519 45.5068 55.1737 45.4464C54.1392 45.3231 53.1274 44.9934 52.2011 44.4572C51.8059 44.2282 51.3982 43.9891 51.0609 43.6543C51.0609 43.6543 51.0592 43.6543 51.0559 43.6543L43.7616 36.3601C43.6408 36.2267 43.5326 36.0832 43.442 35.9272C43.2104 35.5345 43.077 35.0814 43.077 34.5957C43.077 34.5202 43.0795 34.4421 43.0871 34.3691C43.0972 34.2559 43.1148 34.1476 43.1374 34.0419L43.1827 33.8683C43.2809 33.5436 43.442 33.2365 43.6635 32.9596C43.7214 32.8891 43.7843 32.8212 43.8497 32.7507L43.9731 32.6299L51.3479 25.2526H51.3504L55.818 20.7824C56.8148 19.7857 58.403 19.7404 59.4475 20.6541L71.8236 33.0301ZM156.988 29.9015L160.547 29.8889H164.869C167.245 29.8889 169.191 31.8345 169.191 34.2106V34.7442C169.191 37.1227 167.245 38.935 164.869 39.0054L162.896 39.0658C164.482 38.3359 165.143 36.496 164.947 34.8373C164.789 33.5058 164.104 32.2272 162.961 32.202L162.241 32.1869V44.0344C162.241 44.2659 162.282 44.3616 162.402 44.5629C162.596 44.8851 162.853 45.2073 163.12 45.5295C163.19 45.6125 163.258 45.6956 163.329 45.7812H157.197C157.29 45.6679 157.379 45.5546 157.464 45.4363C157.65 45.1821 157.814 44.9128 157.937 44.6158C158.018 44.422 158.056 44.281 158.056 44.0747V31.3462C158.03 30.6817 157.371 30.3067 156.986 29.899L156.988 29.9015ZM186.43 38.3888L180.862 30.4074L180.296 29.8889H185.783L189.5 35.9221L189.8 35.678L192.048 32.3354C192.601 31.5149 192.526 30.5609 191.738 29.8864H196.923L190.93 38.3863V44.5529L191.985 45.8089H185.544L186.45 44.5705C186.45 42.5141 186.377 40.4351 186.427 38.3863L186.43 38.3888ZM171.315 29.8889C171.758 30.498 171.892 30.7145 171.942 31.2556C171.975 31.6332 171.949 31.8496 171.829 32.202L167.688 44.2081C167.494 44.7014 167.094 45.2476 166.51 45.7761H171.028C170.693 45.4791 170.479 45.1242 170.399 44.7039C170.328 44.3188 170.331 44.1728 170.414 43.8028L171.333 40.9511H176.591L177.411 43.1484C177.497 43.38 177.545 43.5914 177.567 43.8406C177.638 44.6611 177.376 45.3357 176.724 45.8139H183.809C183.115 45.1947 182.475 44.5478 182.116 43.76L176.943 29.8889H171.313H171.315Z" clip-rule="evenodd"/><path fill="#ED1C24" fill-rule="evenodd" d="M113.024 32.5116L118.836 29.1791L119.981 31.2833L114.381 33.3422L113.024 32.5116ZM114.509 43.458V36.7326C114.509 36.2191 114.446 35.829 114.323 35.5622C114.207 35.3055 114.003 35.0412 113.714 34.7668V34.6737H116.613C117.066 34.6737 117.447 34.6536 117.759 34.6133C118.048 34.5831 118.32 34.4875 118.577 34.3339H118.67V43.5486C118.67 44.0797 118.725 44.4849 118.833 44.7643C118.942 45.084 119.168 45.3684 119.51 45.6176V45.7107H113.663V45.6176C114.031 45.3055 114.265 44.9934 114.366 44.6813C114.459 44.3767 114.507 43.969 114.507 43.453L114.509 43.458ZM123.747 29.8184H128.695L132.848 41.7288L136.372 31.8622C136.437 31.4797 136.379 31.3538 136.233 31.0241C136.037 30.6239 135.831 30.2337 135.634 29.8335H139.332C139.113 30.639 138.788 31.5224 138.509 32.3354L133.734 46.2066C132.43 45.9473 130.978 45.4313 129.855 44.3666C129.01 43.5662 128.71 42.6551 128.292 41.5677L124.3 30.9964C124.142 30.5786 123.948 30.2061 123.742 29.8159L123.747 29.8184ZM102.559 42.0133L99.0624 32.3606C98.9769 32.1341 98.8913 31.9075 98.8057 31.681C98.6723 31.3538 98.559 31.0971 98.4659 30.9083C98.325 30.6289 98.0984 30.3193 97.7863 29.9846V29.9367H103.226V30.0324L103.178 30.1834C103.241 30.6138 103.361 31.1399 103.54 31.7641L106.958 41.6961L109.805 32.9873L109.946 32.5695L110.092 32.0661C110.115 31.9654 110.13 31.8899 110.137 31.8421C110.145 31.7943 110.147 31.7238 110.147 31.6307C110.147 30.9561 109.79 30.4074 109.073 29.9846V29.9367H113.351V29.9971L107.844 46.2141L105.984 45.5698C105.664 45.454 105.375 45.3357 105.118 45.2199C104.862 45.1016 104.63 44.9783 104.429 44.8449C104.061 44.6032 103.729 44.266 103.429 43.833C103.13 43.4001 102.838 42.7935 102.559 42.0133ZM143.507 35.3986V43.9085C143.507 44.2534 143.588 44.3163 143.799 44.5932L144.773 45.8643H140.115C140.379 45.464 140.641 45.0638 140.902 44.6636C141.104 44.3339 141.192 44.2207 141.192 43.8381V31.9478L139.883 29.8184H144.711L152.528 39.8864V31.8622C152.528 31.4797 152.453 31.3538 152.249 31.0241C151.987 30.6239 151.713 30.2337 151.451 29.8335H156.105L155.136 31.1046C154.924 31.3815 154.844 31.4419 154.844 31.7892V46.272C153.082 46.0404 151.438 45.6075 149.979 43.7424L143.507 35.3986ZM50.9829 43.5839C51.0055 43.6065 51.0282 43.6292 51.0534 43.6518C51.3906 43.9866 51.7984 44.2282 52.1986 44.4573C53.1249 44.9934 54.1367 45.3231 55.1712 45.4464C55.6494 45.5043 56.1352 45.5169 56.6159 45.4867C57.3987 45.4389 58.1765 45.2702 58.9164 44.9858C59.2487 44.8575 59.5734 44.7064 59.8905 44.5328C60.5173 44.1854 61.1087 43.7475 61.6423 43.2139L61.8286 43.0276L63.6106 41.2456L64.5117 40.342L66.621 38.2327L67.8291 37.0221L68.0179 36.8358L75.6796 29.1766L78.8384 25.7535L79.0272 25.5672C79.9912 24.6032 81.5568 24.6032 82.5208 25.5672L84.2499 27.2964L84.3053 27.3543C83.5402 27.3191 82.7674 27.5934 82.1885 28.1597L76.334 33.9186L76.2736 33.9891L66.0848 44.0143L66.0697 44.0017L62.3169 47.6891L62.0652 47.9534C61.7707 48.2403 61.1515 48.7865 60.326 49.1766C59.9509 49.3528 59.5709 49.4812 59.1933 49.5617C58.9693 49.607 58.7403 49.6347 58.5162 49.6448H58.3451C57.7486 49.6448 57.1646 49.5114 56.6033 49.2546L54.8389 47.4953L54.1191 46.7729L50.8168 43.4328L50.9678 43.5864L50.9829 43.5839ZM93.6257 40.1582L85.141 48.7714L76.4271 57.6186C76.1503 57.898 75.8583 58.1472 75.5512 58.3737C75.5412 58.3838 75.5286 58.3938 75.516 58.4039C75.4732 58.4341 75.4329 58.4643 75.3876 58.4945C75.3826 58.4995 75.3776 58.5021 75.3725 58.5071C74.0587 59.4484 72.4453 59.9997 70.7085 59.9997C68.5616 59.9997 66.6134 59.159 65.1712 57.7872L64.9723 57.611L63.4722 56.1134L59.2613 51.9L57.6605 50.2992C57.8895 50.3369 58.1211 50.352 58.3526 50.352H58.5464C58.8158 50.3395 59.0826 50.3067 59.3469 50.2539C59.7773 50.1658 60.2127 50.0173 60.6406 49.8159C61.5618 49.3805 62.2489 48.7764 62.5736 48.4567C62.702 48.3309 62.7976 48.2252 62.8379 48.1799L66.0773 44.9984L66.0899 45.0135L77.225 34.057L77.2854 33.9866L82.6944 28.6631C83.4219 27.9508 84.5595 27.8577 85.3876 28.4265L86.6688 29.7077H86.6713L93.6257 36.6621C93.6861 36.7251 93.7466 36.788 93.7994 36.8534C94.5872 37.825 94.5268 39.2597 93.6257 40.1582Z" clip-rule="evenodd"/><path fill="#009EDB" d="M70.6758 34.1753L69.961 34.8876L68.7075 33.6266C68.5112 33.4278 68.5137 33.1081 68.7075 32.9143C68.9064 32.718 69.2235 32.718 69.4224 32.9143L70.6733 34.1728L70.6758 34.1753ZM68.5641 36.2871L67.8492 36.9969L63.9127 33.0301C62.4503 31.5602 60.3159 31.0417 58.34 31.681C58.0758 31.7666 57.7913 31.6231 57.7058 31.3588C57.6202 31.092 57.7662 30.8076 58.0305 30.722C60.3687 29.9644 62.8983 30.576 64.6275 32.3203L68.5615 36.2871H68.5641ZM64.3431 40.5081L63.6282 41.2229L59.6741 37.2385C59.4777 37.0422 59.4802 36.7225 59.6741 36.5237C59.8729 36.3273 60.1926 36.3299 60.3889 36.5262L64.3406 40.5081H64.3431ZM66.4523 38.3988L65.7375 39.1111L61.7934 35.1343C60.8319 34.1627 59.2562 34.1577 58.2872 35.1192C57.3182 36.0832 57.3106 37.6563 58.2746 38.6253L60.8168 41.1902C61.0131 41.3865 61.0131 41.7061 60.8168 41.905C60.6204 42.1013 60.3008 42.0988 60.1019 41.9025L57.5573 39.3377C56.2031 37.9709 56.2107 35.7585 57.5774 34.4018C58.9441 33.0477 61.1591 33.0578 62.5107 34.422L66.4523 38.3963V38.3988ZM59.9107 44.5151C59.9107 44.5151 59.8955 44.5227 59.888 44.5277C59.5784 44.6963 59.2638 44.8448 58.9391 44.9707L55.4405 41.4419C53.2507 39.2345 52.9386 35.7761 54.6954 33.2163C54.854 32.9873 55.1686 32.9294 55.3977 33.0855C55.6293 33.244 55.6846 33.5587 55.5286 33.7877C54.0461 35.9473 54.3103 38.8645 56.1578 40.727L59.9132 44.5126L59.9107 44.5151ZM66.7468 30.9359C66.5505 31.1298 66.2283 31.1247 66.0295 30.9284C62.7473 27.6211 57.3861 27.6009 54.0788 30.8806C50.774 34.1627 50.7513 39.5239 54.0335 42.8312L56.6033 45.4237C56.6209 45.4414 56.6386 45.4615 56.6486 45.4816C56.636 45.4816 56.6235 45.4816 56.6109 45.4816C56.1427 45.5143 55.6695 45.5018 55.2064 45.4464L53.3187 43.541C49.6438 39.8411 49.6665 33.838 53.369 30.1632C57.0715 26.4884 63.072 26.5136 66.7468 30.2161L66.7543 30.2236C66.9507 30.42 66.9456 30.7371 66.7468 30.9359ZM151.534 50.6188C151.534 50.9108 151.305 51.1348 151.013 51.1348C150.721 51.1348 150.469 50.9083 150.469 50.6188C150.469 50.3294 150.709 50.0902 151.013 50.0902C151.318 50.0902 151.534 50.3268 151.534 50.6188ZM133.185 51.6759C132.979 51.6759 132.956 51.6004 132.923 51.4721C132.891 51.17 133.087 51.0417 133.414 50.6968C133.5 50.6113 133.555 50.5357 133.555 50.4502C133.555 50.2664 133.467 50.1808 133.359 50.1708C133.251 50.1607 133.034 50.1934 132.881 50.2664C132.762 50.3092 132.664 50.3092 132.586 50.1481L132.543 50.0626C132.478 49.9015 132.586 49.8461 132.694 49.7932C132.956 49.685 133.13 49.6623 133.334 49.6623C133.759 49.6623 134.106 49.9015 134.096 50.4502C134.096 50.9234 133.465 51.1197 133.432 51.4746C133.432 51.5602 133.346 51.6583 133.236 51.6785H133.18L133.185 51.6759ZM166.55 50.5232C166.387 50.2765 166.432 50.2111 166.724 50.2111H166.832C167.127 50.2111 167.235 50.2765 167.376 50.5357L167.834 51.4091C167.942 51.6256 167.91 51.6785 167.671 51.6785H167.562C167.356 51.6785 167.205 51.5929 167.094 51.4192L166.55 50.5257V50.5232ZM122.43 51.4192C122.322 51.5904 122.168 51.6785 121.962 51.6785H121.854C121.625 51.6785 121.572 51.6256 121.69 51.4091L122.146 50.5357C122.287 50.2765 122.397 50.2136 122.689 50.2136H122.798C123.092 50.2136 123.135 50.279 122.971 50.5257L122.428 51.4192H122.43ZM148.526 54.0394C148.526 53.2742 148.048 52.8967 147.102 52.8967C146.155 52.8967 145.657 53.2742 145.657 54.0394V54.1678C145.657 54.943 146.004 55.3306 147.102 55.3306C148.199 55.3306 148.526 54.943 148.526 54.1678V54.0394ZM161.856 55.4414C161.856 56.4758 162.216 56.939 163.422 56.939C164.627 56.939 164.987 56.4758 164.987 55.4414V54.4396C164.987 53.4051 164.607 52.942 163.422 52.942C162.236 52.942 161.856 53.4051 161.856 54.4396V55.4414ZM139.898 55.1519H138.627C137.658 55.1519 137.215 55.4112 137.215 56.0882C137.215 56.7024 137.615 57.0044 138.431 57.0044C139.43 57.0044 139.898 56.7779 139.898 55.9699V55.1519ZM156.085 55.1519H154.814C153.847 55.1519 153.402 55.4112 153.402 56.0882C153.402 56.7024 153.804 57.0044 154.62 57.0044C155.619 57.0044 156.087 56.7779 156.087 55.9699V55.1519H156.085ZM150.6 52.6299C150.6 52.3606 150.656 52.2851 150.948 52.2851H151.066C151.338 52.2851 151.413 52.3606 151.413 52.6299V57.2561C151.413 57.5481 151.338 57.6009 151.066 57.6009H150.948C150.653 57.6009 150.6 57.5481 150.6 57.2561V52.6299ZM167.18 52.6299C167.18 52.3606 167.255 52.2851 167.527 52.2851H167.645C167.94 52.2851 167.993 52.3606 167.993 52.6299V57.2561C167.993 57.5481 167.937 57.6009 167.645 57.6009H167.527C167.255 57.6009 167.18 57.5481 167.18 57.2561V52.6299ZM121.572 52.6299C121.572 52.3606 121.647 52.2851 121.919 52.2851H122.04C122.335 52.2851 122.387 52.3606 122.387 52.6299V57.2536C122.387 57.5456 122.335 57.5984 122.04 57.5984H121.919C121.647 57.5984 121.572 57.5456 121.572 57.2536V52.6299ZM175.294 50.3973C175.294 50.1053 175.373 50.0525 175.642 50.0525H175.763C176.057 50.0525 176.11 50.1053 176.11 50.3973V52.9093C176.435 52.4235 177.001 52.1768 177.817 52.1768C179.153 52.1768 179.825 52.801 179.825 54.062V57.2536C179.825 57.5456 179.772 57.5984 179.478 57.5984H179.347C179.052 57.5984 178.999 57.5456 178.999 57.2536V54.1602C178.999 53.3095 178.619 52.942 177.61 52.942C176.601 52.942 176.11 53.3523 176.11 54.344V57.2536C176.11 57.5456 176.055 57.5984 175.763 57.5984H175.642C175.373 57.5984 175.294 57.5456 175.294 57.2536V50.3973ZM170.19 57.2536C170.19 57.5456 170.135 57.5984 169.843 57.5984H169.722C169.45 57.5984 169.375 57.5456 169.375 57.2536V54.1904C169.375 52.8413 170.135 52.1743 171.647 52.1743C173.243 52.1743 173.908 52.8866 173.908 54.1904V57.2536C173.908 57.5456 173.852 57.5984 173.56 57.5984H173.429C173.137 57.5984 173.082 57.5456 173.082 57.2536V54.1904C173.082 53.3271 172.745 52.9395 171.647 52.9395C170.55 52.9395 170.19 53.3397 170.19 54.1904V57.2536ZM119.324 56.1109C119.161 56.725 118.987 57.1454 118.781 57.3719C118.574 57.5858 118.247 57.6941 117.781 57.6941C117.316 57.6941 116.978 57.5858 116.772 57.3719C116.566 57.1454 116.392 56.725 116.228 56.1109L114.902 50.9561C114.826 50.6641 114.879 50.5911 115.184 50.5911H115.305C115.609 50.5911 115.707 50.6666 115.783 50.9561L117.107 56.2065C117.248 56.8005 117.401 56.939 117.781 56.939C118.141 56.939 118.302 56.798 118.443 56.2065L119.77 50.9561C119.845 50.6641 119.943 50.5911 120.248 50.5911H120.366C120.671 50.5911 120.726 50.6666 120.648 50.9561L119.324 56.1109ZM166.757 51.3764C166.757 51.6029 166.681 51.6785 166.452 51.6785H165.8V55.4514C165.8 56.949 165.008 57.7041 163.422 57.7041C161.836 57.7041 161.043 56.949 161.043 55.4514V54.4497C161.043 52.9294 161.793 52.1743 163.291 52.1743C164.127 52.1743 164.693 52.4336 164.987 52.9621V51.6785H163.51C163.261 51.6785 163.205 51.6029 163.205 51.3764V51.2908C163.205 51.0643 163.261 50.9888 163.51 50.9888H164.987V50.3973C164.987 50.1053 165.04 50.0525 165.335 50.0525H165.456C165.727 50.0525 165.803 50.1053 165.803 50.3973V50.9888H166.455C166.684 50.9888 166.759 51.0643 166.759 51.2908V51.3764H166.757ZM126.306 54.4069C126.306 52.9948 127.077 52.1768 128.73 52.1768C129.09 52.1768 129.405 52.2196 129.687 52.3178C129.946 52.4033 130.011 52.4789 130.011 52.728V52.8363C130.011 53.1056 129.946 53.1811 129.687 53.0955C129.415 52.9974 129.098 52.9445 128.75 52.9445C127.535 52.9445 127.119 53.4177 127.119 54.422V55.4665C127.119 56.5564 127.608 56.944 128.816 56.944C129.183 56.944 129.51 56.9012 129.792 56.803C130.042 56.7175 130.12 56.803 130.12 57.0724V57.1806C130.12 57.4071 130.044 57.4927 129.772 57.5682C129.468 57.6664 129.133 57.7092 128.763 57.7092C127.099 57.7092 126.306 56.9969 126.306 55.4791V54.4119V54.4069ZM140.711 56.0026C140.711 57.1982 140.006 57.7066 138.441 57.7066C137.192 57.7066 136.399 57.2108 136.399 56.0907C136.399 54.9707 137.137 54.5176 138.617 54.5176H139.898V53.8708C139.898 53.1383 139.397 52.8891 138.473 52.8891C137.995 52.8891 137.595 52.9319 137.278 53.0074C137.016 53.0603 136.931 52.9974 136.931 52.7381V52.6525C136.931 52.4034 136.996 52.3404 137.258 52.2851C137.615 52.2095 138.008 52.1768 138.431 52.1768C139.951 52.1768 140.711 52.7381 140.711 53.8682V56.0026ZM156.898 56.0026C156.898 57.1982 156.193 57.7066 154.627 57.7066C153.379 57.7066 152.586 57.2108 152.586 56.0907C152.586 54.9707 153.324 54.5176 154.801 54.5176H156.082V53.8708C156.082 53.1383 155.581 52.8891 154.66 52.8891C154.182 52.8891 153.779 52.9319 153.465 53.0074C153.203 53.0603 153.117 52.9974 153.117 52.7381V52.6525C153.117 52.4034 153.183 52.3404 153.444 52.2851C153.804 52.2095 154.195 52.1768 154.617 52.1768C156.138 52.1768 156.898 52.7381 156.898 53.8682V56.0026ZM131.705 55.6905C131.705 56.5413 132.063 56.9415 133.16 56.9415C134.257 56.9415 134.605 56.5539 134.605 55.6905V52.6274C134.605 52.358 134.68 52.2825 134.952 52.2825H135.073C135.367 52.2825 135.42 52.358 135.42 52.6274V55.6905C135.42 56.9943 134.756 57.7066 133.16 57.7066C131.65 57.7066 130.89 57.0396 130.89 55.6905V52.6274C130.89 52.358 130.965 52.2825 131.237 52.2825H131.355C131.65 52.2825 131.703 52.358 131.703 52.6274V55.6905H131.705ZM146.034 57.4801C145.7 57.6412 145.524 57.9432 145.524 58.3636C145.524 59.0633 145.926 59.247 147.099 59.247C148.272 59.247 148.665 59.0633 148.665 58.3309C148.665 57.6513 148.265 57.533 147.099 57.533C146.631 57.533 146.274 57.5103 146.034 57.4801ZM149.349 54.1703C149.349 55.4212 148.599 56.0454 147.099 56.0454C146.513 56.0454 146.133 56.0782 145.949 56.131C145.775 56.1839 145.687 56.2921 145.687 56.4557C145.687 56.6067 145.773 56.7049 145.956 56.7577C146.143 56.8005 146.523 56.8232 147.097 56.8232C148 56.8232 148.617 56.9314 148.954 57.1579C149.302 57.3744 149.475 57.7494 149.475 58.3007C149.475 58.9148 149.302 59.3351 148.942 59.5843C148.594 59.831 147.975 59.9518 147.094 59.9518C146.213 59.9518 145.561 59.8335 145.214 59.5843C144.877 59.3477 144.703 58.9702 144.703 58.4517C144.703 57.9332 144.909 57.5456 145.312 57.2964C145.018 57.1554 144.867 56.9188 144.867 56.5841C144.867 56.1109 145.161 55.829 145.748 55.7434C145.138 55.4942 144.836 54.9682 144.836 54.1703V54.0419C144.836 52.8665 145.672 52.1768 147.097 52.1768C147.522 52.1768 147.89 52.2523 148.217 52.3908L148.836 51.8421C149.02 51.681 149.105 51.681 149.281 51.8421L149.357 51.9176C149.531 52.0787 149.531 52.1642 149.357 52.3379L148.869 52.8338C149.183 53.1257 149.347 53.5234 149.347 54.0419V54.1703H149.349Z"/></svg>