<svg xmlns="http://www.w3.org/2000/svg" width="127" height="40" fill="none" viewBox="0 0 127 40"><g clip-path="url(#clip0_12_603)"><path fill="#FCAF17" d="M81.2754 25.1833C83.4531 24.7102 85.8955 25.1432 87.6102 26.595C90.5614 29.0554 90.7802 33.9336 88.2615 36.762C85.7403 39.6429 80.7335 39.7355 78.0113 37.0799C75.4824 34.5218 75.3145 30.0616 77.6424 27.3283C78.5608 26.2345 79.8761 25.4936 81.2754 25.1833ZM81.5018 27.6487C78.1487 28.6799 77.5432 33.6033 80.2348 35.6457C81.9852 37.0548 84.8371 36.8271 86.3229 35.1426C87.8951 33.3229 87.8315 30.3194 86.1015 28.6249C84.916 27.471 83.0613 27.1531 81.5018 27.6487Z"/><path fill="#FCAF17" d="M60.0298 26.0793C60.0994 24.9405 61.7601 24.5892 62.2473 25.5869C63.7064 28.6723 65.1583 31.7629 66.5742 34.8714C67.9302 31.7988 69.3341 28.7544 70.7044 25.6895C71.1388 24.5892 72.9123 24.8687 72.9771 26.0819C73.0203 29.9316 72.9867 33.784 72.9939 37.6337C73.0875 38.5596 72.0891 39.2803 71.314 38.8931C70.8244 38.7186 70.5436 38.1646 70.5532 37.6337C70.5076 35.5511 70.5604 33.4659 70.5292 31.3833C69.7133 33.0222 69.0293 34.7355 68.2181 36.3821C67.9038 36.9848 67.7454 37.7158 67.2678 38.2006C66.7134 38.7033 65.7463 38.5212 65.4391 37.8004C64.4599 35.6768 63.4688 33.5557 62.4704 31.4372C62.4417 33.5967 62.504 35.7563 62.4441 37.9107C62.3889 38.8161 61.2825 39.2598 60.6057 38.8212C60.1258 38.5596 59.9746 37.9236 60.0034 37.3926C60.0274 33.6224 59.9746 29.8496 60.0298 26.0793Z"/><path fill="#FCAF17" d="M92.0199 26.1268C92.0696 25.0282 93.6796 24.5774 94.2461 25.5327C96.3457 28.3677 98.3508 31.2821 100.483 34.0915C100.495 31.4409 100.463 28.7902 100.498 26.1396C100.537 25.251 101.601 24.7234 102.329 25.1511C102.793 25.338 103.017 25.8784 102.997 26.365C103.002 30.1194 103 33.8738 102.997 37.6282C103.049 38.4067 102.364 39.0751 101.616 38.9932C100.863 38.9343 100.54 38.1634 100.122 37.6359C98.2539 35.0646 96.4252 32.4601 94.517 29.9196C94.5021 32.5754 94.5592 35.2337 94.4921 37.8868C94.435 38.9394 92.9218 39.3978 92.3155 38.5501C91.9404 38.1737 92.0174 37.6 92 37.1134C92.0224 33.4512 91.9801 29.7865 92.0199 26.1268Z"/><path fill="#FCAF17" d="M105.01 26.3823C104.929 25.5707 105.705 24.9357 106.473 25.0151C109.683 24.992 112.893 25.0151 116.105 25.0023C116.671 24.9844 117.312 25.0612 117.621 25.6091C118.833 27.491 119.979 29.419 121.168 31.3162C122.429 29.3959 123.554 27.3886 124.842 25.4888C125.456 24.6669 126.746 24.9972 127 25.9676V26.559C125.636 29.0708 123.937 31.3854 122.487 33.8459C122.251 35.2439 122.535 36.6854 122.355 38.0936C122.071 39.2637 120.243 39.2893 119.911 38.1448C119.703 36.7417 119.957 35.313 119.792 33.9074C118.527 31.7464 117.119 29.6673 115.806 27.532C113.063 27.5345 110.319 27.5345 107.576 27.532C107.571 28.5894 107.571 29.6469 107.571 30.7043C109.138 30.7453 110.717 30.6172 112.279 30.7658C113.438 31.0781 113.395 32.937 112.216 33.1648C110.672 33.2545 109.12 33.1725 107.576 33.1956C107.571 34.2965 107.571 35.3975 107.573 36.4959C109.571 36.4985 111.572 36.4959 113.57 36.4908C114.008 36.4754 114.498 36.5804 114.769 36.967C115.37 37.7096 114.797 39.0282 113.813 38.9795C111.529 39.0205 109.244 38.9693 106.96 39C106.445 38.9872 105.852 39.064 105.444 38.6723C104.959 38.3215 105.008 37.6737 105 37.1437C105.018 33.5566 104.995 29.9695 105.01 26.3823Z"/><path fill="#20409A" d="M69.0767 5.45934C68.5957 4.18471 70.5103 3.44729 71.1007 4.51667C72.459 7.71467 73.6374 10.9963 74.9956 14.1943C76.2712 10.976 77.5687 7.76788 78.8759 4.56482C79.4299 3.41942 81.4223 4.16697 80.9194 5.46188C79.374 9.32887 77.7267 13.1502 76.1668 17.0096C75.9772 17.4759 75.6298 18.0283 75.0734 17.9878C74.4198 18.0942 73.98 17.486 73.788 16.9159C72.2403 13.0869 70.5686 9.3086 69.0767 5.45934Z"/><path fill="#20409A" d="M83.0203 5.1565C82.9982 4.05066 84.557 3.56115 85.1363 4.48691C87.2964 7.44934 89.4198 10.4422 91.5824 13.4046C91.6511 10.5715 91.5308 7.7334 91.6413 4.9054C91.877 3.71333 93.7524 3.70572 93.9438 4.92062C94.0592 8.55771 93.9537 12.2024 93.9978 15.842C93.9733 16.4102 94.0739 17.0366 93.7573 17.5388C93.3007 18.1146 92.3335 18.1704 91.8917 17.549C89.6972 14.6347 87.6892 11.5607 85.4161 8.71242C85.3719 11.4288 85.4308 14.1452 85.3891 16.8616C85.3989 17.7646 84.282 18.3048 83.58 17.8153C83.0669 17.5211 82.981 16.8692 83.0031 16.3214C83.0227 12.6006 82.9884 8.87729 83.0203 5.1565Z"/><path fill="#20409A" d="M97.0175 5.19825C96.9904 4.38036 97.811 3.88405 98.5309 4.02332C100.383 4.14993 102.467 3.61057 104.096 4.79817C106.567 6.51245 106.668 10.8096 104.192 12.5644C102.796 13.6051 101.01 13.3696 99.3908 13.4076C99.3908 14.5521 99.4203 15.6967 99.3884 16.8387C99.3687 17.5072 98.7201 18.125 98.0617 17.9782C97.3811 17.968 96.9659 17.2261 97.0052 16.588C97.0076 12.7923 96.9855 8.99399 97.0175 5.19825ZM99.3982 6.37065V11.0197C100.423 10.9539 101.506 11.2046 102.487 10.8222C104.13 10.0575 104.029 7.28224 102.408 6.5479C101.445 6.20606 100.396 6.42889 99.3982 6.37065Z"/><path fill="#20409A" d="M106.036 4.94011C106.102 4.33673 106.694 3.94124 107.257 4.00716C110.212 4.02744 113.171 3.96913 116.123 4.03758C117.212 4.17702 117.317 5.97955 116.268 6.28884C115.091 6.43588 113.896 6.30659 112.711 6.36236C112.706 9.86348 112.733 13.3671 112.701 16.8682C112.672 17.7023 111.681 18.2905 110.974 17.8494C110.492 17.6466 110.283 17.0939 110.317 16.5894C110.317 13.177 110.32 9.76714 110.317 6.35476C109.219 6.33701 108.118 6.38518 107.021 6.33701C106.38 6.31673 105.856 5.58152 106.036 4.94011Z"/><path fill="#00BAF2" d="M3.44599 3.35363C5.49399 1.27892 8.37592 0.0919742 11.2799 0.00614104C14.385 -0.0968587 17.5196 1.0999 19.7319 3.28742C22.0203 5.57548 24.3087 7.8611 26.5971 10.1492C27.0606 10.6347 27.5708 11.0762 28 11.5961C24.1198 15.461 20.2519 19.3407 16.3766 23.213C14.7677 24.8046 13.193 26.4329 11.5571 28C9.29323 25.7414 7.03184 23.4778 4.77045 21.2167C3.87276 20.3069 2.92111 19.4412 2.17549 18.394C0.392372 15.927 -0.345892 12.7438 0.152007 9.74452C0.532176 7.33629 1.69721 5.05558 3.44599 3.35608V3.35363Z"/><path fill="#FCAF17" d="M42.2199 0.207582C45.0506 -0.349444 48.0701 0.23212 50.5259 1.74124C52.8027 3.15221 54.5673 5.37786 55.4055 7.92497C56.4006 10.8941 56.1383 14.2535 54.6801 17.0239C54.1164 18.106 53.3738 19.09 52.5086 19.9464C49.8225 22.626 47.1486 25.3179 44.46 28C44.3276 27.8773 44.1953 27.7595 44.0629 27.6393C38.6858 22.307 33.3576 16.9282 28 11.5788C30.7621 8.81081 33.5218 6.04041 36.2888 3.27981C37.9064 1.69953 39.997 0.627192 42.2174 0.210036L42.2199 0.207582Z"/><path fill="#20409A" d="M28.4779 12.0245L28.5049 12C33.8779 17.3359 39.2239 22.7012 44.6141 28.0199C44.7444 28.1423 44.8697 28.2647 45 28.3895C42.8542 30.5312 40.7036 32.6681 38.5553 34.8098C37.7467 35.6004 36.9724 36.4277 36.122 37.1742C34.3498 38.7211 32.0836 39.6953 29.7412 39.9352C27.2317 40.1995 24.6312 39.6537 22.4806 38.3319C21.3647 37.6809 20.4159 36.7924 19.5139 35.8818C17.0092 33.3877 14.5046 30.8935 12 28.3969C13.6394 26.8328 15.215 25.2076 16.8298 23.6191C20.7133 19.7542 24.5895 15.8844 28.4779 12.0245Z"/></g><defs><clipPath id="clip0_12_603"><rect width="127" height="40" fill="#fff"/></clipPath></defs></svg>