<svg xmlns="http://www.w3.org/2000/svg" width="40" height="40" fill="none" viewBox="0 0 40 40"><path fill="#005AAA" fill-rule="evenodd" d="M22.4267 14.1652L19.4597 17.1323L19.3124 17.2776L17.6669 18.9251L16.1666 20.4253L16.0213 20.5726L14.6311 21.9608L14.4858 22.1081C14.0695 22.5244 13.608 22.8661 13.1191 23.1371C12.8717 23.2726 12.6183 23.3904 12.3591 23.4905C11.7818 23.7144 11.1751 23.844 10.5644 23.8833C10.1893 23.9088 9.81034 23.899 9.43725 23.8518C8.6302 23.7556 7.84081 23.4984 7.11819 23.0801C6.8099 22.9014 6.49179 22.7149 6.22866 22.4537C6.22866 22.4537 6.22736 22.4537 6.22474 22.4537L0.53411 16.7631C0.439855 16.659 0.355419 16.5471 0.284728 16.4253C0.104073 16.119 0 15.7656 0 15.3866C0 15.3277 0.00196364 15.2668 0.00785456 15.2099C0.0157091 15.1215 0.0294546 15.0371 0.0471274 14.9546L0.0824729 14.8191C0.159055 14.5658 0.284728 14.3262 0.457528 14.1102C0.502692 14.0552 0.551783 14.0022 0.602837 13.9472L0.699056 13.853L6.45252 8.09755H6.45448L9.93994 4.61013C10.7175 3.83253 11.9566 3.79718 12.7715 4.50998L22.4267 14.1652Z" clip-rule="evenodd"/><path fill="#ED1C24" fill-rule="evenodd" d="M6.16781 22.3987C6.18548 22.4164 6.20315 22.4341 6.22279 22.4517C6.48592 22.7129 6.80403 22.9014 7.11625 23.0801C7.83887 23.4984 8.62825 23.7556 9.4353 23.8518C9.8084 23.897 10.1874 23.9068 10.5624 23.8832C11.1731 23.8459 11.7799 23.7144 12.3572 23.4925C12.6164 23.3923 12.8697 23.2745 13.1171 23.139C13.6061 22.868 14.0675 22.5264 14.4838 22.1101L14.6291 21.9648L16.0194 20.5745L16.7224 19.8696L18.3679 18.224L19.3104 17.2795L19.4577 17.1342L25.435 11.1588L27.8994 8.4883L28.0467 8.34299C28.7988 7.59091 30.0201 7.59091 30.7722 8.34299L32.1212 9.69201L32.1644 9.73717C31.5675 9.70968 30.9647 9.92372 30.513 10.3655L25.9456 14.8583L25.8985 14.9133L17.9496 22.7345L17.9379 22.7247L15.0101 25.6014L14.8137 25.8076C14.584 26.0315 14.1009 26.4576 13.4568 26.7619C13.1643 26.8994 12.8677 26.9995 12.5732 27.0624C12.3984 27.0977 12.2197 27.1193 12.045 27.1272H11.9115C11.4461 27.1272 10.9905 27.0231 10.5526 26.8228L9.1761 25.4502L8.6145 24.8867L6.03821 22.2809L6.15603 22.4007L6.16781 22.3987ZM39.4358 19.7262L32.8164 26.4458L26.0182 33.348C25.8022 33.5659 25.5745 33.7603 25.3349 33.9371C25.327 33.9449 25.3172 33.9528 25.3074 33.9606C25.274 33.9842 25.2426 34.0078 25.2073 34.0313C25.2033 34.0352 25.1994 34.0372 25.1955 34.0411C24.1705 34.7755 22.9118 35.2056 21.5569 35.2056C19.8819 35.2056 18.362 34.5497 17.2368 33.4795L17.0817 33.3421L15.9114 32.1737L12.6262 28.8866L11.3773 27.6377C11.556 27.6672 11.7367 27.6789 11.9173 27.6789H12.0685C12.2787 27.6691 12.4868 27.6436 12.693 27.6024C13.0288 27.5336 13.3685 27.4178 13.7023 27.2607C14.421 26.921 14.9571 26.4497 15.2104 26.2003C15.3105 26.1021 15.3851 26.0197 15.4166 25.9843L17.9438 23.5023L17.9536 23.5141L26.6407 14.9663L26.6878 14.9114L30.9077 10.7583C31.4752 10.2026 32.3628 10.1299 33.0088 10.5737L34.0083 11.5732H34.0103L39.4358 16.9987C39.4829 17.0478 39.5301 17.0969 39.5713 17.1479C40.1859 17.9059 40.1388 19.0252 39.4358 19.7262Z" clip-rule="evenodd"/><path fill="#009EDB" d="M21.5313 15.0587L20.9737 15.6144L19.9958 14.6306C19.8426 14.4755 19.8446 14.2261 19.9958 14.0749C20.1509 13.9217 20.3983 13.9217 20.5534 14.0749L21.5294 15.0567L21.5313 15.0587ZM19.8838 16.7062L19.3262 17.2599L16.255 14.1652C15.1142 13.0184 13.449 12.6139 11.9075 13.1127C11.7014 13.1795 11.4795 13.0675 11.4127 12.8614C11.3459 12.6532 11.4598 12.4313 11.666 12.3645C13.4902 11.7735 15.4637 12.2507 16.8127 13.6115L19.8819 16.7062H19.8838ZM16.5908 19.9992L16.0332 20.5569L12.9483 17.4484C12.7951 17.2952 12.7971 17.0459 12.9483 16.8907C13.1034 16.7376 13.3528 16.7395 13.5059 16.8927L16.5889 19.9992H16.5908ZM18.2364 18.3537L17.6787 18.9094L14.6017 15.8068C13.8515 15.0488 12.6223 15.0449 11.8663 15.795C11.1103 16.5471 11.1044 17.7744 11.8565 18.5304L13.8398 20.5313C13.9929 20.6845 13.9929 20.9339 13.8398 21.089C13.6866 21.2422 13.4372 21.2402 13.2821 21.087L11.2969 19.0861C10.2404 18.0198 10.2463 16.2938 11.3126 15.2354C12.3788 14.179 14.1068 14.1868 15.1613 15.2511L18.2364 18.3517V18.3537ZM13.1329 23.1253C13.1329 23.1253 13.1211 23.1312 13.1152 23.1351C12.8737 23.2667 12.6282 23.3825 12.3749 23.4807L9.64543 20.7277C7.93706 19.0056 7.69357 16.3075 9.06419 14.3105C9.1879 14.1318 9.43336 14.0867 9.61205 14.2084C9.7927 14.3321 9.8359 14.5776 9.71416 14.7563C8.55757 16.4411 8.76376 18.7169 10.2051 20.17L13.1348 23.1233L13.1329 23.1253ZM18.4661 12.5315C18.3129 12.6827 18.0616 12.6787 17.9065 12.5256C15.3459 9.94534 11.1633 9.92964 8.5831 12.4883C6.00484 15.0488 5.98717 19.2314 8.54776 21.8116L10.5526 23.8342C10.5664 23.8479 10.5801 23.8636 10.588 23.8793C10.5782 23.8793 10.5683 23.8793 10.5585 23.8793C10.1933 23.9049 9.82412 23.895 9.46281 23.8518L7.99008 22.3654C5.12317 19.4788 5.14084 14.7955 8.02935 11.9286C10.9179 9.06171 15.5992 9.08134 18.4661 11.9699L18.472 11.9757C18.6252 12.1289 18.6212 12.3763 18.4661 12.5315Z"/></svg>