<svg xmlns="http://www.w3.org/2000/svg" width="240" height="80" fill="none" viewBox="0 0 240 80"><path fill="#0E62AF" d="M74.5505 30.0491L61.3537 49.9503H57.4016V30.0491H60.7185V45.0103L70.5985 30.0491H74.5505ZM66.8582 54.9609L78.926 24.968H57.2605L45.1927 54.9609H66.8582ZM98.0509 33.366H91.8406L85.1363 50.0209H81.5371L88.2414 33.366H82.0311L83.372 30.0491H99.3918L98.0509 33.366ZM92.1229 54.9609L104.191 25.0385H82.5957L70.4574 55.0315H92.1229V54.9609ZM123.104 43.0343C120.493 49.4563 114.776 53.1966 110.401 51.5029C106.025 49.8092 104.685 43.246 107.366 36.9651C109.978 30.5431 115.694 26.8028 120.069 28.4965L121.128 25.8148C120.987 25.7442 120.916 25.7442 120.775 25.6737C120.704 25.6737 120.704 25.6031 120.634 25.6031C115.341 23.98 108.707 28.5671 105.531 36.1888C102.285 44.0223 103.979 52.138 109.272 54.1846C109.413 54.2552 109.625 54.3258 109.766 54.3258C109.813 54.3258 109.86 54.3493 109.907 54.3963C110.048 54.3963 110.119 54.4669 110.26 54.4669C110.401 54.4669 110.542 54.5375 110.613 54.5375H110.754C115.906 55.3138 121.834 50.8677 124.868 43.74V43.6694L123.033 42.9637L123.104 43.0343ZM118.093 40.9877C118.94 38.8 118.517 36.4711 117.035 35.836C117.035 35.836 116.964 35.836 116.964 35.7654C115.412 35.1303 113.365 36.5417 112.306 38.8C111.318 41.0583 111.812 43.5283 113.436 44.0929C114.988 44.728 117.035 43.3166 118.093 41.0583V40.9877ZM119.364 41.4817C119.364 41.5288 119.34 41.5758 119.293 41.6229C117.952 44.9397 114.918 46.9157 112.659 46.0689C112.612 46.0689 112.565 46.0454 112.518 45.9983C112.518 45.9983 112.448 45.9983 112.448 45.9277C110.401 44.9397 109.766 41.5523 111.107 38.3766C112.448 35.0597 115.482 33.0837 117.74 33.9306H117.882C117.882 33.9306 117.952 33.9306 117.952 34.0011H118.023C119.999 35.0597 120.634 38.3766 119.364 41.4817ZM118.728 31.5311C118.234 31.3194 117.74 31.2488 117.176 31.2488C114.282 31.1783 111.036 33.7894 109.413 37.7414C108.637 39.6469 108.354 41.5523 108.425 43.3166V43.6694C108.425 43.74 108.425 43.8812 108.495 43.9517C108.848 46.0689 109.907 47.692 111.601 48.4683C112.306 48.7506 113.012 48.8212 113.788 48.7506C116.47 48.4683 119.364 45.9277 120.916 42.258C120.916 42.258 120.916 42.1874 120.987 42.1874C121.763 40.3526 122.045 38.4471 121.904 36.7534V36.33C121.622 34.0717 120.563 32.2368 118.728 31.5311ZM128.397 45.1514L126.28 44.3046V44.3752C122.61 53.2672 114.635 58.6306 108.495 56.1606C102.356 53.6906 100.45 44.6574 104.191 35.6243C107.931 26.7322 115.835 21.4394 121.904 23.7682L123.174 20.6631C122.539 20.3808 121.834 20.2397 121.198 20.0985H121.128C121.057 20.0985 120.916 20.0985 120.846 20.0279H120.493C113.647 19.5339 105.884 25.6031 102.073 34.9186C97.6275 45.5749 99.9563 56.5135 107.225 59.3363C107.931 59.6186 108.566 59.7598 109.272 59.9009H109.342C109.413 59.9009 109.554 59.9009 109.625 59.9715H109.978C116.752 60.4655 124.515 54.5375 128.397 45.1514Z"/><path fill="#0E62AF" d="M189.159 25.0387L182.102 32.0959L175.045 25.0387H165.376C168.058 25.0387 170.599 26.0973 172.363 27.8616L179.349 34.8482L172.292 41.9053C170.528 43.599 168.058 44.6576 165.376 44.6576H175.186L194.805 25.0387C194.946 25.0387 189.159 25.0387 189.159 25.0387Z"/><path fill="#0E62AF" d="M169.328 29.0612C169.328 26.8735 167.564 25.1798 165.447 25.1798H157.613C155.426 25.1798 153.732 26.9441 153.732 29.0612H165.447V40.8467H153.661V33.0133L149.78 36.8947V40.7761C149.78 42.9639 151.544 44.6576 153.661 44.6576H165.447C167.635 44.6576 169.328 42.8933 169.328 40.7761V29.0612Z"/><path fill="#0E62AF" d="M149.709 29.0612C149.709 26.8735 147.945 25.1798 145.828 25.1798H134.042C131.855 25.1798 130.161 26.9441 130.161 29.0612V44.7987H134.042V36.8947H149.709V29.0612ZM145.757 29.3435V32.8721H133.901V29.0612H145.687V29.3435H145.757Z"/><path fill="url(#paint0_linear_13_14717)" d="M171.516 29.2024L171.375 29.0613V32.9427H153.591L149.709 36.8947H171.375V40.7762L177.232 34.8482L171.516 29.2024Z"/><defs><linearGradient id="paint0_linear_13_14717" x1="149.723" x2="177.289" y1="35.025" y2="35.025" gradientUnits="userSpaceOnUse"><stop stop-color="#0E62AF"/><stop offset="1" stop-color="#2BACE2"/></linearGradient></defs></svg>