<svg xmlns="http://www.w3.org/2000/svg" width="240" height="80" fill="none" viewBox="0 0 240 80"><path fill="#0068FF" d="M93.4123 34.7839C92.8545 34.2137 92.144 33.9277 91.2825 33.9277C90.0143 33.9277 89.0906 34.537 88.508 35.752C87.2646 34.2919 85.5665 33.5636 83.4136 33.5636C80.8291 33.5636 78.6532 34.5619 76.8929 36.5549C75.1326 38.5496 74.2516 40.9831 74.2516 43.8518C74.2516 46.7205 75.1326 49.154 76.8929 51.1487C78.655 53.1435 80.8291 54.14 83.4136 54.14C85.5665 54.14 87.2646 53.4099 88.508 51.9498C89.0888 53.1666 90.0143 53.973 91.2825 53.973C92.144 53.973 92.8545 53.687 93.4123 53.1151C93.97 52.5449 94.2471 51.845 94.2471 51.0173V36.8799C94.2471 36.0539 93.9683 35.3541 93.4123 34.7821V34.7839ZM87.2344 47.3084C86.5115 48.2392 85.515 48.7046 84.2503 48.7046C82.9855 48.7046 81.9873 48.2392 81.2661 47.3084C80.5449 46.3759 80.1826 45.2249 80.1826 43.8518C80.1826 42.4787 80.5432 41.3277 81.2661 40.3969C81.9891 39.4644 82.982 39.0008 84.2503 39.0008C85.5185 39.0008 86.5132 39.4662 87.2344 40.3969C87.9573 41.3277 88.3179 42.4805 88.3179 43.8518C88.3179 45.2231 87.9573 46.3759 87.2344 47.3084Z"/><path fill="#0068FF" d="M100.962 53.3372C100.404 53.9091 99.6933 54.1951 98.8336 54.1951C97.9738 54.1951 97.2616 53.9091 96.7038 53.3372C96.1461 52.767 95.8672 52.0671 95.8672 51.2394V25.5775C95.8672 24.7515 96.1461 24.0499 96.7038 23.4797C97.2616 22.9077 97.9703 22.6235 98.8336 22.6235C99.6968 22.6235 100.404 22.9095 100.962 23.4797C101.519 24.0517 101.798 24.7515 101.798 25.5775V51.2411C101.798 52.0689 101.519 52.7687 100.962 53.3389V53.3372Z"/><path fill="#0068FF" d="M120.609 36.5549C118.708 34.5601 116.287 33.5636 113.348 33.5636C110.408 33.5636 108.006 34.5494 106.145 36.5193C104.281 38.4892 103.349 40.9334 103.349 43.8536C103.349 46.7738 104.28 49.2179 106.145 51.1878C108.008 53.1577 110.408 54.1436 113.348 54.1436C116.287 54.1436 118.708 53.1471 120.609 51.1523C122.433 49.2055 123.346 46.7738 123.346 43.8554C123.346 40.9369 122.433 38.5052 120.609 36.5584V36.5549ZM116.332 47.3084C115.609 48.2392 114.614 48.7046 113.346 48.7046C112.078 48.7046 111.083 48.2392 110.362 47.3084C109.639 46.3759 109.278 45.2249 109.278 43.8518C109.278 42.4787 109.639 41.3277 110.362 40.3969C111.083 39.4644 112.078 39.0008 113.346 39.0008C114.614 39.0008 115.609 39.4662 116.332 40.3969C117.055 41.3277 117.413 42.4805 117.413 43.8518C117.413 45.2231 117.053 46.3759 116.332 47.3084Z"/><path fill="#0068FF" d="M70.5534 34.45C72.6476 31.7465 73.6974 29.9258 73.6974 28.988C73.6974 26.8209 72.3333 25.7356 69.6031 25.7356H54.8103C53.6788 25.7356 52.8049 26.0038 52.1832 26.5367C51.5632 27.0714 51.2524 27.7659 51.2524 28.6203C51.2524 29.4747 51.5632 30.171 52.1832 30.7056C52.8049 31.2403 53.6788 31.5067 54.8103 31.5067H65.0931L52.4354 47.8645C51.6076 48.9338 51.2471 49.8841 51.1955 50.7118C51.0463 53.053 52.0872 54.3887 55.9116 54.2786H70.7612C73.1344 54.2786 74.3191 53.2839 74.3191 51.2909C74.3191 49.2979 73.1344 48.305 70.7612 48.305H59.8407L70.5534 34.45Z"/><path fill="#03CA77" d="M137.608 31.5956H133.704V39.7096H137.608C138.78 39.7096 139.732 39.3277 140.459 38.5621C141.185 37.7966 141.549 36.8267 141.549 35.6544C141.549 34.482 141.185 33.5122 140.459 32.7466C139.732 31.981 138.78 31.5991 137.608 31.5991V31.5956Z"/><path fill="#03CA77" d="M156.961 39.0239C155.692 39.0239 154.698 39.4893 153.976 40.4201C153.255 41.3508 152.893 42.5037 152.893 43.8749C152.893 45.2462 153.253 46.399 153.976 47.3316C154.699 48.2623 155.692 48.7277 156.961 48.7277C158.229 48.7277 159.223 48.2623 159.945 47.3316C160.668 46.399 161.028 45.248 161.028 43.8749C161.028 42.5019 160.668 41.3508 159.945 40.4201C159.222 39.4875 158.225 39.0239 156.961 39.0239Z"/><path fill="#03CA77" d="M185.399 20H128.48C126.591 20 125.06 21.5312 125.06 23.4193V56.5807C125.06 58.4688 126.591 60 128.48 60H172.743C172.272 59.5524 172.034 59.0302 172.034 58.4315C172.034 57.9431 172.144 57.4297 172.364 56.8915L174.471 52.2057L168.645 37.658C168.474 37.2423 168.389 36.7912 168.389 36.3027C168.389 35.6668 168.657 35.1303 169.195 34.6898C169.732 34.2511 170.295 34.0308 170.881 34.0308C172.176 34.0308 173.055 34.6543 173.519 35.8995L177.146 45.8306L181.031 35.8995C181.519 34.6525 182.544 34.0308 183.816 34.0308C184.402 34.0308 184.963 34.2511 185.502 34.6898C186.038 35.1303 186.308 35.6668 186.308 36.3027C186.308 36.7912 186.223 37.2441 186.052 37.658L177.276 58.6145C177.04 59.2007 176.755 59.6607 176.423 60H185.399C187.287 60 188.818 58.4688 188.818 56.5807V23.4193C188.818 21.5312 187.287 20 185.399 20ZM144.688 41.5196C142.903 43.152 140.656 43.9691 137.953 43.9691H133.704V51.1541C133.704 52.0991 133.435 52.8327 132.899 53.3549C132.363 53.8789 131.675 54.1401 130.833 54.1401C129.991 54.1401 129.302 53.8789 128.767 53.3549C128.231 52.8327 127.965 52.0991 127.965 51.1541V28.7375C127.965 26.7481 128.959 25.7516 130.95 25.7516H137.723C140.555 25.7516 142.896 26.6006 144.747 28.297C146.596 29.9933 147.521 32.1941 147.521 34.8994C147.521 37.6047 146.576 39.8357 144.69 41.5196H144.688ZM166.961 51.044C166.961 51.8718 166.682 52.5716 166.126 53.1418C165.568 53.7138 164.858 53.9997 163.996 53.9997C162.728 53.9997 161.804 53.1951 161.222 51.9766C159.978 53.4367 158.28 54.1667 156.127 54.1667C153.543 54.1667 151.367 53.1702 149.607 51.1755C147.846 49.1807 146.965 46.7472 146.965 43.8785C146.965 41.0098 147.846 38.5763 149.607 36.5816C151.369 34.5886 153.543 33.5903 156.127 33.5903C158.28 33.5903 159.978 34.3186 161.222 35.7787C161.803 34.5637 162.728 33.9544 163.996 33.9544C164.858 33.9544 165.568 34.2404 166.126 34.8106C166.684 35.3826 166.961 36.0824 166.961 36.9084V51.0458V51.044Z"/></svg>