<svg xmlns="http://www.w3.org/2000/svg" width="138" height="40" fill="none" viewBox="0 0 138 40"><path fill="#0068FF" d="M42.165 15.2454C41.6071 14.6635 40.8964 14.3716 40.0347 14.3716C38.7662 14.3716 37.8423 14.9934 37.2596 16.2334C36.0159 14.7433 34.3174 14 32.1641 14C29.579 14 27.4026 15.0188 25.6419 17.0528C23.8812 19.0887 23 21.5723 23 24.5C23 27.4277 23.8812 29.9113 25.6419 31.9472C27.4044 33.983 29.579 35 32.1641 35C34.3174 35 36.0159 34.2549 37.2596 32.7648C37.8405 34.0066 38.7662 34.8296 40.0347 34.8296C40.8964 34.8296 41.6071 34.5377 42.165 33.954C42.7228 33.3721 43 32.6578 43 31.813V17.3846C43 16.5416 42.7211 15.8273 42.165 15.2436V15.2454ZM35.9857 28.0278C35.2626 28.9777 34.2659 29.4527 33.0009 29.4527C31.7359 29.4527 30.7374 28.9777 30.0161 28.0278C29.2947 27.0761 28.9323 25.9013 28.9323 24.5C28.9323 23.0987 29.293 21.9239 30.0161 20.974C30.7392 20.0223 31.7323 19.5491 33.0009 19.5491C34.2694 19.5491 35.2644 20.0241 35.9857 20.974C36.7088 21.9239 37.0695 23.1005 37.0695 24.5C37.0695 25.8995 36.7088 27.0761 35.9857 28.0278Z"/><path fill="#0068FF" d="M50.1536 34.1304C49.5894 34.7101 48.8706 35 48.0009 35C47.1312 35 46.4106 34.7101 45.8464 34.1304C45.2821 33.5525 45 32.8431 45 32.0042V5.99404C45 5.15686 45.2821 4.44571 45.8464 3.86778C46.4106 3.28806 47.1276 3 48.0009 3C48.8742 3 49.5894 3.28986 50.1536 3.86778C50.7179 4.44751 51 5.15686 51 5.99404V32.006C51 32.8449 50.7179 33.5543 50.1536 34.1322V34.1304Z"/><path fill="#0068FF" d="M69.2624 17.0523C67.3615 15.0168 64.9401 14 62 14C59.0599 14 56.658 15.006 54.7962 17.0161C52.9327 19.0262 52 21.5202 52 24.5C52 27.4798 52.9309 29.9738 54.7962 31.9839C56.6598 33.994 59.0599 35 62 35C64.9401 35 67.3615 33.9832 69.2624 31.9477C71.0869 29.9612 72 27.4798 72 24.5018C72 21.5238 71.0869 19.0425 69.2624 17.0559V17.0523ZM64.9845 28.0254C64.2615 28.9751 63.2667 29.45 61.9982 29.45C60.7298 29.45 59.7349 28.9751 59.0137 28.0254C58.2906 27.0738 57.93 25.8993 57.93 24.4982C57.93 23.0971 58.2906 21.9226 59.0137 20.9728C59.7349 20.0212 60.7298 19.5482 61.9982 19.5482C63.2667 19.5482 64.2615 20.023 64.9845 20.9728C65.7076 21.9226 66.0664 23.0989 66.0664 24.4982C66.0664 25.8975 65.7058 27.0738 64.9845 28.0254Z"/><path fill="#0068FF" d="M19.2566 14.852C21.3384 12.1058 22.382 10.2564 22.382 9.30371C22.382 7.10244 21.0259 6 18.312 6H3.60686C2.48209 6 1.61334 6.27245 0.995331 6.81375C0.379088 7.35685 0.070083 8.06234 0.070083 8.93021C0.070083 9.79809 0.379088 10.5054 0.995331 11.0485C1.61334 11.5916 2.48209 11.8622 3.60686 11.8622H13.8287L1.24607 28.4782C0.423231 29.5644 0.0647857 30.5297 0.0135792 31.3705C-0.134743 33.7486 0.899981 35.1055 4.70162 34.9936H19.4632C21.8223 34.9936 23 33.9832 23 31.9587C23 29.9343 21.8223 28.9257 19.4632 28.9257H8.60744L19.2566 14.852Z"/><path fill="#03CA77" d="M86.981 12H83V20H86.981C88.1764 20 89.1472 19.6235 89.8879 18.8687C90.6287 18.1138 91 17.1576 91 16.0018C91 14.8459 90.6287 13.8897 89.8879 13.1349C89.1472 12.38 88.1764 12.0035 86.981 12.0035V12Z"/><path fill="#03CA77" d="M106 19C104.753 19 103.775 19.4796 103.066 20.4388C102.356 21.398 102 22.5859 102 23.9991C102 25.4122 102.355 26.6002 103.066 27.5612C103.776 28.5204 104.753 29 106 29C107.247 29 108.225 28.5204 108.935 27.5612C109.645 26.6002 110 25.4141 110 23.9991C110 22.5841 109.645 21.398 108.935 20.4388C108.224 19.4778 107.244 19 106 19Z"/><path fill="#03CA77" d="M134.568 0H77.4323C75.537 0 74 1.53115 74 3.41933V36.5807C74 38.4688 75.537 40 77.4323 40H121.864C121.391 39.5524 121.152 39.0302 121.152 38.4315C121.152 37.9431 121.263 37.4297 121.484 36.8915L123.598 32.2057L117.75 17.658C117.579 17.2423 117.493 16.7912 117.493 16.3027C117.493 15.6668 117.763 15.1303 118.303 14.6898C118.841 14.2511 119.407 14.0308 119.995 14.0308C121.295 14.0308 122.177 14.6543 122.643 15.8995L126.284 25.8306L130.183 15.8995C130.674 14.6525 131.702 14.0308 132.979 14.0308C133.567 14.0308 134.131 14.2511 134.671 14.6898C135.21 15.1303 135.481 15.6668 135.481 16.3027C135.481 16.7912 135.395 17.2441 135.224 17.658L126.414 38.6145C126.177 39.2007 125.891 39.6607 125.558 40H134.568C136.463 40 138 38.4688 138 36.5807V3.41933C138 1.53115 136.463 0 134.568 0ZM93.7025 21.5196C91.9105 23.152 89.655 23.9691 86.9412 23.9691H82.6762V31.1541C82.6762 32.0991 82.407 32.8327 81.8685 33.3549C81.33 33.8789 80.64 34.1401 79.7948 34.1401C78.9497 34.1401 78.2579 33.8789 77.7212 33.3549C77.1827 32.8327 76.9152 32.0991 76.9152 31.1541V8.73751C76.9152 6.74808 77.9137 5.75159 79.9125 5.75159H86.7112C89.5533 5.75159 91.9034 6.60065 93.7613 8.29699C95.6174 9.99334 96.5464 12.1941 96.5464 14.8994C96.5464 17.6047 95.5978 19.8357 93.7042 21.5196H93.7025ZM116.06 31.044C116.06 31.8718 115.78 32.5716 115.222 33.1418C114.662 33.7138 113.949 33.9997 113.084 33.9997C111.811 33.9997 110.884 33.1951 110.299 31.9766C109.051 33.4367 107.346 34.1667 105.185 34.1667C102.591 34.1667 100.407 33.1702 98.6397 31.1755C96.8727 29.1807 95.9883 26.7472 95.9883 23.8785C95.9883 21.0098 96.8727 18.5763 98.6397 16.5816C100.408 14.5886 102.591 13.5903 105.185 13.5903C107.346 13.5903 109.051 14.3186 110.299 15.7787C110.882 14.5637 111.811 13.9544 113.084 13.9544C113.949 13.9544 114.662 14.2404 115.222 14.8106C115.782 15.3826 116.06 16.0824 116.06 16.9084V31.0458V31.044Z"/></svg>