<svg xmlns="http://www.w3.org/2000/svg" width="48" height="48" fill="none" viewBox="0 0 48 48"><rect width="32" height="32" x="8" fill="#363636" rx="4"/><path fill="#fff" d="M34 7C34 5.89543 33.1046 5 32 5V5C30.8954 5 30 5.89543 30 7V23C30 24.1046 29.1046 25 28 25H19C17.8954 25 17 25.8954 17 27V27C17 28.1046 17.8954 29 19 29H30H32C33.1046 29 34 28.1046 34 27V25V7Z"/><path fill="#fff" d="M30 11C30 9.89543 29.1046 9 28 9V9C26.8954 9 26 9.89543 26 11V19C26 20.1046 25.1046 21 24 21H19C17.8954 21 17 21.8954 17 23V23C17 24.1046 17.8954 25 19 25H26H28C29.1046 25 30 24.1046 30 23V21V11Z"/><path fill="#fff" d="M26 11C26 9.89543 25.1046 9 24 9V9C22.8954 9 22 9.89543 22 11V15C22 16.1046 21.1046 17 20 17H19C17.8954 17 17 17.8954 17 19V19C17 20.1046 17.8954 21 19 21H22H24C25.1046 21 26 20.1046 26 19V17V11Z"/><path fill="#fff" d="M15 5C13.8954 5 13 5.89543 13 7V7C13 8.10457 13.8954 9 15 9H29C30.1046 9 31 8.10457 31 7V7C31 5.89543 30.1046 5 29 5H15ZM16 11C16 9.89543 15.1046 9 15 9V9C13.8954 9 13 9.89543 13 11V25C13 26.1046 13.8954 27 15 27V27C16.1046 27 17 26.1046 17 25V11Z"/></svg>