<svg xmlns="http://www.w3.org/2000/svg" width="48" height="49" fill="none" viewBox="0 0 48 49"><path fill="#E94646" fill-rule="evenodd" d="M48 2.9C48 1.57452 46.9255 0.5 45.6 0.5V0.5C44.2745 0.5 43.2 1.57452 43.2 2.9V40.7C43.2 42.3569 41.8568 43.7 40.2 43.7H12C10.6745 43.7 9.59999 44.7745 9.59999 46.1V46.1C9.59999 47.4255 10.6745 48.5 12 48.5H43.2H45C46.6568 48.5 48 47.1569 48 45.5L48 43.7L48 2.9Z" clip-rule="evenodd"/><path fill="#FB7B05" fill-rule="evenodd" d="M38.4 12.5C38.4 11.1745 37.3255 10.1 36 10.1V10.1C34.6745 10.1 33.6 11.1745 33.6 12.5V31.1C33.6 32.7569 32.2568 34.1 30.6 34.1H12C10.6745 34.1 9.59999 35.1745 9.59999 36.5V36.5C9.59999 37.8255 10.6745 38.9 12 38.9L33.6 38.9H35.4C37.0568 38.9 38.4 37.5569 38.4 35.9L38.4 34.1L38.4 12.5Z" clip-rule="evenodd"/><path fill="#4ACA3F" fill-rule="evenodd" d="M28.8 12.5C28.8 11.1745 27.7255 10.1 26.4 10.1V10.1C25.0745 10.1 24 11.1745 24 12.5V21.5C24 23.1569 22.6569 24.5 21 24.5H12C10.6745 24.5 9.59999 25.5745 9.59999 26.9V26.9C9.59999 28.2255 10.6745 29.3 12 29.3L24 29.3H25.8C27.4569 29.3 28.8 27.9569 28.8 26.3V12.5Z" clip-rule="evenodd"/><path fill="#4180E9" fill-rule="evenodd" d="M2.4 0.499995C1.07452 0.499995 0 1.57451 0 2.9V2.9C0 4.22548 1.07452 5.3 2.4 5.3H36C37.3255 5.3 38.4 4.22548 38.4 2.9V2.9C38.4 1.57451 37.3255 0.499995 36 0.499995H2.4ZM4.8 12.5C4.8 11.1745 3.72548 10.1 2.4 10.1V10.1C1.07452 10.1 0 11.1745 0 12.5V46.1C0 47.4255 1.07452 48.5 2.4 48.5V48.5C3.72548 48.5 4.8 47.4255 4.8 46.1V12.5Z" clip-rule="evenodd"/></svg>