<svg xmlns="http://www.w3.org/2000/svg" width="355" height="40" fill="none" viewBox="0 0 355 40"><g clip-path="url(#clip0_4_2091)"><path fill="#00A9AC" d="M32.3063 9.44684C31.3174 8.89761 30.5011 8.99176 29.9673 10.0275L22.448 23.4759H34.9907L39.7 32.2009C33.2168 32.2009 26.7493 32.2323 20.266 32.2323C16.9067 32.1067 15.5566 36.2809 13.6729 39.7646H0L21.6788 0.219694L40.7518 0.360926L57.2189 30.3648C66.1196 30.0981 82.7594 30.0196 87.7043 30.0039C90.9851 29.7058 90.2787 24.0879 87.7043 23.774L59.762 23.8054L46.8112 0.251079H82.1315C83.9525 0.251079 89.384 0.141232 93.3241 0.298156C93.4811 0.298156 93.6538 0.345233 93.8108 0.376618C95.9928 0.753237 97.0602 1.38093 98.4103 2.79325C99.9487 4.40957 100.42 7.01452 100.42 9.57238C100.42 11.7693 100.247 14.0133 99.7289 15.5355C98.8655 18.0777 97.2329 19.2546 95.2864 19.694C98.3318 19.9765 101.361 21.0279 101.832 26.8968C101.927 28.1836 102.131 29.6587 102.052 31.4005C101.927 34.4606 100.671 37.2381 98.2376 38.1954C92.6648 40.408 83.2775 39.6705 79.6669 39.6862L60.0759 39.7803C59.4009 39.7803 58.773 39.7489 58.2079 39.6862L48.9932 39.7175C43.4047 29.6273 37.8948 19.5371 32.3063 9.44684ZM67.2342 15.7552C71.1901 15.7552 80.5617 15.7552 84.6118 15.7552C84.6275 15.7552 84.6589 15.7552 84.6903 15.7552C89.6665 15.8807 88.8031 10.3727 86.2758 9.90192C85.9775 9.83915 85.8676 9.77638 85.4438 9.77638C80.1065 9.745 67.5795 9.79208 63.8591 9.79208L67.2342 15.7709V15.7552ZM107.028 0.251079H140.088C143.008 0.251079 151.736 -0.329541 156.1 3.18556C157.811 4.5508 158.361 7.03021 158.361 9.58807C158.361 11.785 158.188 14.029 157.67 15.5512C156.807 18.0934 155.174 19.2703 153.227 19.7097C156.932 20.3374 160.496 22.3303 160.166 30.8827C159.726 42.2126 142.757 39.796 137.608 39.7018L106.997 39.1526V0.251079H107.028ZM119.948 30.255C123.919 30.255 139.492 30.255 143.526 30.255C143.557 30.255 143.589 30.255 143.605 30.255C148.581 30.3805 147.482 24.3233 144.97 23.8525C144.672 23.7897 144.782 23.931 144.358 23.931C139.021 23.8996 123.448 23.727 119.728 23.727L119.948 30.255ZM119.948 15.7709C123.919 15.7709 138.016 15.7709 142.05 15.7709C142.082 15.7709 142.098 15.7709 142.129 15.7709C147.105 15.8964 146.242 10.3884 143.714 9.91761C143.416 9.85485 143.306 9.79208 142.882 9.79208C137.545 9.76069 123.653 9.80777 119.948 9.80777V15.7866V15.7709ZM220.132 0H242.282C248.106 8.42683 253.914 16.838 259.738 25.2648C261.543 28.5602 263.427 29.3291 264.055 26.8027L263.851 19.8038V0.219694L276.817 0.251079L276.786 39.796H255.076C248.263 30.5845 242.47 22.1263 235.657 12.8992C234.339 10.6238 232.596 11.9262 232.596 13.4955C232.596 14.7823 232.565 16.4614 232.659 18.1875V40L220.132 39.796H218.86C218.185 39.796 217.557 39.7646 216.977 39.7018L207.762 39.7332C202.189 29.643 196.664 19.5528 191.075 9.46253C190.086 8.9133 189.286 9.00745 188.736 10.0432L181.217 23.4916H193.21L197.919 32.2166C191.452 32.2166 185.502 32.2479 179.019 32.2479C175.66 32.1224 174.31 36.2966 172.426 39.7803H158.753L180.448 0.219694H200.086L216.38 30.3335C216.898 31.1024 217.652 32.6403 218.248 32.8913C219.049 33.1267 219.614 32.907 220.132 32.3892V0ZM281.322 0.204002H294.101V14.1232C295.639 17.1361 299.155 16.7281 301.745 13.8564L316.721 0.204002H332.246L310.505 20.0235L333 39.8431H317.208C311.51 34.6175 305.497 29.7999 299.799 24.5743C296.581 22.7697 294.148 24.0565 294.273 27.6187C294.305 28.4504 294.273 29.3291 294.273 30.2393V39.9529L281.338 39.9843V0.204002H281.322Z"/><path fill="#DF762E" d="M341.627 0H354.209L332.613 20L355 39.9683L342.371 40L320 20.1108L341.627 0Z"/></g><defs><clipPath id="clip0_4_2091"><rect width="355" height="40" fill="#fff"/></clipPath></defs></svg>