<svg xmlns="http://www.w3.org/2000/svg" width="240" height="80" fill="none" viewBox="0 0 240 80"><path fill="#1F419B" d="M124.723 20.035C113.787 20.0348 104.921 28.9735 104.921 40C104.921 51.0265 113.787 59.9652 124.723 59.965C130.112 59.9648 134.995 57.792 138.565 54.2712C138.938 53.9047 138.855 53.2263 138.565 52.933L134.497 48.8194C134.103 48.4213 133.463 48.5119 133.256 48.7164C131.188 50.7672 128.392 52.0255 125.314 52.0254C118.944 52.0252 113.78 46.6342 113.781 39.9845C113.781 33.3613 118.905 27.9817 125.25 27.9448C125.271 27.9447 125.292 27.9447 125.314 27.9448C128.307 27.9446 131.034 29.1348 133.084 31.0868C133.322 31.3126 133.914 31.2814 134.262 30.9292L138.283 26.86C138.474 26.6666 138.836 26.0205 138.426 25.5949C134.868 22.1537 130.043 20.0352 124.723 20.035ZM84.129 21.0126C83.8373 21.0381 83.2107 21.2133 82.8608 22.2046C82.3943 23.5263 69.6703 57.5554 69.6703 57.5554C69.6703 57.5554 69.0223 58.8998 70.0072 58.8998H77.3668C77.3668 58.8998 78.1655 58.8575 78.6113 57.4771L80.9467 50.2462H94.4916L96.8816 57.7367C96.8816 57.7367 97.1674 58.8998 98.2559 58.8998H106.005C106.005 58.8998 106.834 58.8504 106.316 57.6842C105.798 56.5179 93.2533 22.049 93.2533 22.049C93.2533 22.049 93.0467 21.0126 91.6473 21.0126H84.2866C84.2866 21.0126 84.2262 21.0041 84.129 21.0126ZM142.363 21.0126C142.363 21.0126 141.449 20.9836 141.449 21.9594V57.9623C141.449 57.9623 141.45 58.8998 142.344 58.8998H157.447C157.447 58.8998 164.237 58.9173 167.815 55.3395C171.393 51.7616 170.417 46.4356 170.417 46.4356C170.417 46.4356 169.564 40.3366 162.815 38.7916C162.815 38.7916 168.873 37.0843 168.487 29.9691C167.917 23.7401 162.294 21.0126 156.452 21.0126H142.363ZM149.784 27.6316H155.333C155.333 27.6316 160.009 27.6314 160.07 31.9615C160.131 36.2916 155.171 36.1904 155.171 36.1904H149.784V27.6316ZM87.7593 29.1501L92.3581 43.5603H83.106L87.7593 29.1501ZM149.784 42.4312H156.066C156.066 42.4312 161.778 42.4712 161.818 47.4112C161.859 52.3511 156.33 52.3519 156.33 52.3519H149.784V42.4312Z"/><path fill="#00AEEF" d="M132.426 39.977C132.426 40.8708 132.25 41.7559 131.908 42.5817C131.566 43.4075 131.065 44.1578 130.433 44.7898C129.8 45.4219 129.05 45.9232 128.224 46.2653C127.399 46.6073 126.513 46.7834 125.62 46.7834C124.726 46.7834 123.841 46.6073 123.015 46.2653C122.189 45.9232 121.439 45.4219 120.807 44.7898C120.175 44.1578 119.673 43.4075 119.331 42.5817C118.989 41.7559 118.813 40.8708 118.813 39.977C118.813 39.0831 118.989 38.1981 119.331 37.3723C119.673 36.5465 120.175 35.7961 120.807 35.1641C121.439 34.5321 122.189 34.0307 123.015 33.6886C123.841 33.3466 124.726 33.1705 125.62 33.1705C126.513 33.1705 127.399 33.3466 128.224 33.6886C129.05 34.0307 129.8 34.5321 130.433 35.1641C131.065 35.7961 131.566 36.5465 131.908 37.3723C132.25 38.1981 132.426 39.0831 132.426 39.977Z"/></svg>