<svg xmlns="http://www.w3.org/2000/svg" width="40" height="40" fill="none" viewBox="0 0 40 40"><path fill="#056DFF" d="M30.96 22.4057C32.6692 21.7158 34.5281 21.4805 36.3553 21.7228C37.3883 21.8309 38.3691 22.2313 39.1827 22.877C39.3924 23.0263 39.5703 23.2157 39.7063 23.4342C39.8423 23.6528 39.9335 23.8961 39.9748 24.1502C40.0161 24.4043 40.0066 24.664 39.9468 24.9144C39.8871 25.1647 39.7782 25.4008 39.6266 25.6088C39.4832 25.8068 39.1417 26.2371 38.6568 26.8312L38.3153 27.2479C35.9114 30.1777 31.0556 35.9076 29.5326 37.6697C29.3369 37.9082 29.0816 38.0908 28.7925 38.1987C28.5034 38.3067 28.1909 38.3362 27.8867 38.2843C26.8186 37.8946 25.9344 37.1201 25.4076 36.1126C25.0697 35.5032 24.8234 34.8473 24.6768 34.1661C24.3485 32.8161 24.3071 31.4123 24.5553 30.0453C24.8036 28.6783 25.3359 27.3786 26.1179 26.2302C27.3654 24.5497 29.0362 23.23 30.96 22.4057ZM3.64196 21.7228C5.46919 21.4795 7.32828 21.7149 9.03728 22.4057C10.9642 23.2443 12.6332 24.5809 13.8726 26.2781C14.6515 27.4279 15.1819 28.7275 15.4301 30.094C15.6782 31.4605 15.6385 32.8637 15.3136 34.2139C15.1633 34.895 14.9149 35.5507 14.576 36.1604C14.0523 37.1704 13.1671 37.9459 12.0969 38.3321C11.7927 38.384 11.4802 38.3545 11.1911 38.2466C10.902 38.1386 10.6467 37.9561 10.451 37.7175C8.89386 35.9145 3.83321 29.9319 1.49753 27.0771L1.17652 26.681C0.773579 26.1893 0.493573 25.8273 0.370642 25.6566C0.219932 25.4482 0.111857 25.2122 0.0525912 24.962C-0.00667503 24.7117 -0.0159565 24.4523 0.0252876 24.1985C0.0665316 23.9447 0.157453 23.7015 0.292897 23.4829C0.428342 23.2644 0.605647 23.0747 0.814572 22.9248C1.62267 22.2619 2.60392 21.8448 3.64196 21.7228ZM11.4823 5.08613C12.371 3.97177 13.4706 3.04339 14.7182 2.35399C15.9658 1.66459 17.3369 1.22766 18.7534 1.06817C20.1698 0.90867 21.6038 1.02973 22.9734 1.42442C24.3431 1.81911 25.6216 2.4797 26.7359 3.3685C27.8503 4.25729 28.7787 5.35686 29.4681 6.60444C30.1575 7.85202 30.5944 9.22318 30.7539 10.6396C30.9134 12.0561 30.7923 13.49 30.3976 14.8597C30.003 16.2293 29.3423 17.5078 28.4535 18.6222C26.5276 20.9442 24.1373 21.7911 23.1675 21.7706C21.6787 21.7706 21.945 20.5276 22.0611 20.0291C22.223 19.4603 22.4743 18.9208 22.8055 18.431C23.4199 17.5695 23.7516 16.5386 23.7549 15.4806C23.7048 14.5091 23.2877 13.5928 22.5878 12.917C21.888 12.2413 20.9576 11.8565 19.9849 11.8405C19.0121 11.858 18.0818 12.2431 17.3812 12.9184C16.6806 13.5936 16.2616 14.509 16.2083 15.4806C16.2079 16.5392 16.5347 17.5721 17.1439 18.4378C17.4769 18.9267 17.7283 19.4664 17.8883 20.0359C18.0044 20.5413 18.2639 21.7638 16.7819 21.7774C15.8121 21.7774 13.4286 20.9579 11.4959 18.629C9.96139 16.7053 9.12629 14.3172 9.12753 11.8564C9.12877 9.3956 9.96628 7.00831 11.5027 5.08613H11.4823Z"/></svg>