<svg xmlns="http://www.w3.org/2000/svg" width="240" height="80" fill="none" viewBox="0 0 240 80"><path fill="#056DFF" d="M179.005 42.9202C180.835 42.1814 182.825 41.9295 184.782 42.1889C185.888 42.3047 186.938 42.7334 187.809 43.4247C188.034 43.5846 188.224 43.7874 188.37 44.0214C188.515 44.2554 188.613 44.516 188.657 44.788C188.701 45.0601 188.691 45.3382 188.627 45.6063C188.563 45.8743 188.447 46.1271 188.284 46.3498C188.131 46.5619 187.765 47.0226 187.246 47.6588L186.88 48.1049C184.306 51.242 179.107 57.3773 177.476 59.264C177.267 59.5194 176.993 59.7149 176.684 59.8305C176.374 59.9461 176.04 59.9777 175.714 59.9221C174.57 59.5049 173.624 58.6756 173.059 57.5967C172.698 56.9442 172.434 56.2419 172.277 55.5126C171.925 54.0671 171.881 52.5639 172.147 51.1002C172.413 49.6365 172.983 48.2449 173.82 47.0152C175.156 45.2158 176.945 43.8028 179.005 42.9202ZM149.754 42.1889C151.71 41.9284 153.701 42.1804 155.531 42.9202C157.594 43.8181 159.381 45.2492 160.708 47.0664C161.542 48.2976 162.11 49.6892 162.376 51.1524C162.642 52.6155 162.599 54.118 162.251 55.5638C162.09 56.2931 161.824 56.9951 161.461 57.6479C160.901 58.7294 159.953 59.5598 158.807 59.9733C158.481 60.0289 158.147 59.9973 157.837 59.8817C157.528 59.7661 157.254 59.5706 157.045 59.3152C155.377 57.3846 149.959 50.9787 147.458 47.922L147.114 47.4979C146.683 46.9714 146.383 46.5838 146.251 46.401C146.09 46.1779 145.974 45.9251 145.911 45.6572C145.847 45.3893 145.837 45.1115 145.881 44.8397C145.925 44.568 146.023 44.3076 146.168 44.0736C146.313 43.8395 146.503 43.6364 146.726 43.4759C147.592 42.7662 148.642 42.3195 149.754 42.1889ZM69.3144 45.2821L61.5922 57.6406C61.3702 58.0019 61.0595 58.3004 60.6896 58.5078C60.3197 58.7151 59.9029 58.8244 59.4789 58.8252H52.4806C52.2692 58.8339 52.0593 58.7847 51.8738 58.6829C51.6882 58.5811 51.5339 58.4306 51.4276 58.2475C51.3392 58.0483 51.3023 57.8301 51.3202 57.6129C51.3381 57.3957 51.4102 57.1865 51.53 57.0044C51.7201 56.7046 54.5355 52.1926 57.6361 47.2273L58.031 46.5911L58.2284 46.2694L58.6306 45.6332L58.828 45.3114L69.3144 45.2821ZM130.5 45.2821L126.258 50.869H136.598C136.795 50.8524 136.992 50.8787 137.177 50.9463C137.362 51.0139 137.53 51.1211 137.67 51.2604C137.809 51.3997 137.916 51.5677 137.984 51.7527C138.051 51.9377 138.078 52.1353 138.061 52.3316V57.3042C138.079 57.5007 138.053 57.6989 137.986 57.8845C137.919 58.0701 137.812 58.2387 137.672 58.3782C137.533 58.5178 137.364 58.6249 137.179 58.6921C136.993 58.7592 136.795 58.7847 136.598 58.7667H114.755C114.673 58.7744 114.589 58.7744 114.507 58.7667C114.325 58.7502 114.148 58.6979 113.986 58.6128C113.824 58.5277 113.681 58.4116 113.564 58.271C113.447 58.1303 113.359 57.968 113.305 57.7934C113.251 57.6187 113.232 57.435 113.249 57.253V56.4047C113.161 54.3432 113.749 52.3094 114.924 50.6131L119.011 45.2309L130.5 45.2821ZM80.2908 45.2821L82.3676 57.0994C82.4182 57.2958 82.4275 57.5006 82.3948 57.7008C82.362 57.901 82.288 58.0921 82.1774 58.2621C82.0357 58.4477 81.8495 58.5945 81.6361 58.6891C81.4227 58.7837 81.1888 58.8229 80.9562 58.8033H74.2359C73.8433 58.8256 73.4576 58.6935 73.1611 58.4353C72.8646 58.177 72.6808 57.8131 72.649 57.4212C72.5466 56.8289 70.7404 46.6496 70.4552 45.2748H80.2396L80.2908 45.2821ZM90.6674 29.7573C92.8612 29.8012 94.7699 30.4886 95.9033 32.3753L101.534 42.5106V31.2199C101.516 31.0233 101.542 30.8252 101.609 30.6396C101.676 30.454 101.783 30.2854 101.923 30.1458C102.062 30.0063 102.231 29.8991 102.416 29.832C102.602 29.7648 102.8 29.7393 102.997 29.7573H108.942C109.138 29.7393 109.336 29.7648 109.522 29.832C109.708 29.8991 109.876 30.0063 110.016 30.1458C110.155 30.2854 110.263 30.454 110.33 30.6396C110.397 30.8252 110.422 31.0233 110.404 31.2199V43.2638H101.966L103.099 45.2748H110.412V57.3115C110.428 57.5078 110.402 57.7053 110.334 57.8903C110.267 58.0754 110.16 58.2434 110.02 58.3826C109.881 58.5219 109.713 58.6291 109.528 58.6967C109.343 58.7643 109.145 58.7907 108.949 58.774H104.598C102.404 58.7302 100.496 58.0428 99.3842 56.1634L93.6949 45.9257V57.2384C93.7129 57.435 93.6874 57.6331 93.6203 57.8187C93.5531 58.0043 93.446 58.1728 93.3064 58.3124C93.1668 58.452 92.9983 58.5592 92.8126 58.6263C92.627 58.6934 92.4289 58.7189 92.2324 58.7009H86.2725C86.0762 58.7176 85.8787 58.6912 85.6937 58.6236C85.5087 58.556 85.3407 58.4488 85.2014 58.3095C85.0621 58.1703 84.9549 58.0022 84.8873 57.8172C84.8197 57.6322 84.7933 57.4347 84.81 57.2384V45.2748H93.3219L92.1812 43.2638H84.8027V31.2199C84.7847 31.0233 84.8102 30.8252 84.8773 30.6396C84.9445 30.454 85.0516 30.2854 85.1912 30.1458C85.3307 30.0063 85.4993 29.8991 85.6849 29.832C85.8705 29.7648 86.0687 29.7393 86.2652 29.7573H90.6528H90.6674ZM76.3127 29.7573C76.6833 29.7766 77.0347 29.9281 77.303 30.1844C77.5714 30.4407 77.7389 30.7847 77.7752 31.1541L79.9251 43.2785H60.1078L64.8098 35.7391L65.0365 35.3735L66.0164 33.8086C66.7709 32.5758 67.828 31.5564 69.0875 30.8473C70.3469 30.1382 71.7668 29.763 73.2121 29.7573H76.2834H76.3127ZM136.277 29.7573C136.477 29.7458 136.677 29.7778 136.864 29.851C137.05 29.9242 137.219 30.037 137.358 30.1815C137.497 30.326 137.603 30.4988 137.669 30.6882C137.734 30.8775 137.758 31.0788 137.739 31.2784V33.1943C137.755 34.8578 137.195 36.4754 136.152 37.772L131.969 43.2785H120.547L124.796 37.6916H114.938C114.741 37.7109 114.543 37.6864 114.356 37.6197C114.17 37.553 114.001 37.4459 113.861 37.306C113.721 37.1662 113.614 36.997 113.548 36.8108C113.481 36.6246 113.456 36.4259 113.476 36.2291V31.2199C113.456 31.023 113.481 30.8243 113.548 30.6381C113.614 30.4519 113.721 30.2828 113.861 30.1429C114.001 30.003 114.17 29.8959 114.356 29.8292C114.543 29.7626 114.741 29.738 114.938 29.7573H136.291H136.277ZM158.149 24.3752C159.101 23.182 160.278 22.188 161.614 21.4498C162.95 20.7116 164.418 20.2438 165.934 20.073C167.451 19.9022 168.986 20.0318 170.453 20.4544C171.92 20.8771 173.289 21.5844 174.482 22.5361C175.675 23.4877 176.669 24.6651 177.407 26.0009C178.145 27.3368 178.613 28.805 178.784 30.3216C178.955 31.8383 178.825 33.3737 178.402 34.8402C177.98 36.3068 177.273 37.6757 176.321 38.8689C174.259 41.3552 171.699 42.262 170.661 42.2401C169.067 42.2401 169.352 40.9092 169.476 40.3754C169.65 39.7663 169.919 39.1887 170.273 38.6642C170.931 37.7418 171.286 36.638 171.29 35.5051C171.236 34.4648 170.789 33.4837 170.04 32.7602C169.291 32.0366 168.295 31.6246 167.253 31.6074C166.211 31.6262 165.215 32.0385 164.465 32.7616C163.715 33.4846 163.266 34.4648 163.209 35.5051C163.209 36.6386 163.559 37.7445 164.211 38.6715C164.568 39.195 164.837 39.7729 165.008 40.3827C165.132 40.9238 165.41 42.2328 163.823 42.2474C162.785 42.2474 160.233 41.3699 158.163 38.8762C156.52 36.8164 155.626 34.2593 155.628 31.6244C155.629 28.9896 156.526 26.4334 158.171 24.3752H158.149Z"/></svg>