<svg xmlns="http://www.w3.org/2000/svg" width="300" height="40" fill="none" viewBox="0 0 300 40"><g clip-path="url(#clip0_4_2074)"><path fill="#AF0B35" fill-rule="evenodd" d="M186.929 22.7111C189.089 23.1248 190.704 23.7858 191.775 24.6938C193.257 25.9589 194 27.5093 194 29.3386C194 30.7283 193.511 32.0622 192.532 33.3353C191.551 34.6064 190.21 35.5365 188.505 36.1217C186.797 36.7069 184.195 37 180.687 37H166V36.2353H167.171C168.471 36.2353 169.405 35.8626 169.97 35.1219C170.322 34.6384 170.498 33.6114 170.498 32.0433V13.9548C170.498 12.2222 170.277 11.1254 169.834 10.6739C169.235 10.0648 168.35 9.76362 167.171 9.76362H166V9H179.449C181.956 9 183.97 9.16365 185.487 9.49654C187.78 9.99193 189.533 10.8663 190.74 12.1304C191.95 13.3885 192.551 14.8362 192.551 16.473C192.551 17.8778 192.079 19.137 191.131 20.2406C190.183 21.3501 188.781 22.1736 186.929 22.7111ZM174.906 21.5953C175.472 21.6932 176.117 21.7657 176.844 21.8107C177.572 21.8615 178.368 21.8836 179.245 21.8836C181.474 21.8836 183.155 21.6663 184.284 21.2345C185.406 20.8007 186.264 20.1358 186.86 19.2416C187.46 18.3483 187.757 17.3702 187.757 16.3105C187.757 14.6698 187.013 13.274 185.53 12.1216C184.048 10.9621 181.882 10.3839 179.034 10.3839C177.506 10.3839 176.127 10.5333 174.906 10.8375V21.5953ZM174.906 34.9753C176.676 35.3482 178.434 35.5345 180.16 35.5345C182.931 35.5345 185.042 34.9713 186.494 33.8477C187.949 32.7283 188.675 31.3425 188.675 29.6895C188.675 28.599 188.346 27.5582 187.688 26.5532C187.029 25.5472 185.958 24.7537 184.474 24.1763C182.992 23.5962 181.153 23.3082 178.97 23.3082C178.018 23.3082 177.209 23.324 176.535 23.352C175.862 23.378 175.318 23.4269 174.906 23.4975V34.9753Z" clip-rule="evenodd"/><path fill="#AF0B35" fill-rule="evenodd" d="M218.106 27.5059H206.072L203.97 31.9798C203.449 33.0801 203.187 33.905 203.187 34.4459C203.187 34.8799 203.414 35.2585 203.861 35.5856C204.315 35.9146 205.292 36.1278 206.785 36.2217V37H197V36.2217C198.297 36.0168 199.138 35.7432 199.519 35.409C200.301 34.7417 201.164 33.3811 202.11 31.3328L213.042 8H213.846L224.661 31.584C225.532 33.4778 226.323 34.7085 227.033 35.2749C227.742 35.8391 228.732 36.1539 230 36.2217V37H217.737V36.2217C218.979 36.167 219.811 35.9833 220.251 35.6602C220.684 35.3423 220.9 34.9486 220.9 34.4913C220.9 33.8755 220.595 32.9086 219.985 31.584L218.106 27.5059ZM217.464 25.9592L212.195 14.501L206.785 25.9592H217.464Z" clip-rule="evenodd"/><path fill="#AF0B35" fill-rule="evenodd" d="M230 9H238.472L257.557 30.4028V13.9462C257.557 12.1945 257.341 11.0992 256.912 10.6613C256.345 10.0729 255.447 9.77909 254.219 9.77909H253.134V9H264V9.77909H262.897C261.577 9.77909 260.643 10.1429 260.087 10.8736C259.751 11.3217 259.583 12.3439 259.583 13.9462V38H258.755L238.174 15.0182V32.5935C238.174 34.3441 238.383 35.4394 238.798 35.8773C239.377 36.4625 240.277 36.7583 241.487 36.7583H242.594V37.5386H231.729V36.7583H232.814C234.148 36.7583 235.091 36.3925 235.641 35.667C235.978 35.2128 236.152 34.1917 236.152 32.5935V12.7472C235.245 11.7768 234.556 11.1388 234.085 10.8309C233.62 10.521 232.934 10.2325 232.028 9.96831C231.581 9.84419 230.908 9.77909 230 9.77909V9Z" clip-rule="evenodd"/><path fill="#AF0B35" fill-rule="evenodd" d="M279.445 21.4723L291.072 31.7325C292.979 33.4272 294.606 34.5835 295.953 35.1925C297.306 35.8026 298.653 36.1508 300 36.2355V37H285.003V36.2355C285.899 36.2355 286.547 36.1008 286.94 35.8306C287.339 35.5655 287.539 35.2615 287.539 34.9354C287.539 34.6045 287.464 34.3103 287.315 34.0472C287.169 33.7849 286.684 33.2966 285.864 32.5817L274.975 23.0203V32.0434C274.975 33.4599 275.078 34.3962 275.279 34.8518C275.436 35.1968 275.761 35.4918 276.256 35.7399C276.923 36.0689 277.631 36.2355 278.374 36.2355H279.445V37H266V36.2355H267.115C268.418 36.2355 269.364 35.8964 269.955 35.2236C270.324 34.7851 270.512 33.7242 270.512 32.0434V13.9555C270.512 12.5348 270.411 11.5927 270.213 11.1262C270.057 10.7964 269.737 10.5093 269.254 10.2609C268.575 9.9291 267.863 9.76439 267.115 9.76439H266V9H279.445V9.76439H278.374C277.644 9.76439 276.94 9.9229 276.256 10.238C275.774 10.4604 275.444 10.7882 275.256 11.229C275.074 11.6696 274.975 12.5787 274.975 13.9555V22.5238C275.289 22.2638 276.352 21.3895 278.163 19.902C282.77 16.1577 285.55 13.6604 286.514 12.4075C286.931 11.8561 287.143 11.3754 287.143 10.9629C287.143 10.6446 286.98 10.3658 286.652 10.1284C286.327 9.88422 285.779 9.76439 285.003 9.76439H284.278V9H295.861V9.76439C295.183 9.77734 294.56 9.86214 294.002 10.0108C293.443 10.1623 292.76 10.4584 291.957 10.89C291.15 11.3217 290.157 12.0234 288.981 12.9865C288.638 13.2586 287.066 14.6704 284.258 17.2174L279.445 21.4723Z" clip-rule="evenodd"/><path fill="#AF0B35" fill-rule="evenodd" d="M79 38H66.0659V36.5713C67.2027 36.5018 68.1459 36.369 68.8977 36.1669C69.6526 35.9645 70.0265 35.7184 70.0265 35.4211C70.0265 35.2998 70.0091 35.1547 69.9857 34.9778C69.952 34.8053 69.91 34.6469 69.8527 34.5143L67.2682 28.1074H56.3883C55.9808 29.048 55.6487 29.867 55.3944 30.5627C55.139 31.2601 54.9091 31.9058 54.705 32.4981C54.5126 33.0772 54.3809 33.5471 54.3085 33.9055C54.2378 34.2731 54.2022 34.5693 54.2022 34.7951C54.2022 35.3333 54.6577 35.7519 55.5783 36.0421C56.4986 36.3414 57.5347 36.518 58.689 36.5713V38H47V36.5713C47.379 36.5414 47.8531 36.4691 48.421 36.3362C48.9912 36.2097 49.4568 36.036 49.8238 35.8255C50.4069 35.4631 50.8596 35.084 51.1824 34.6857C51.5033 34.2876 51.8137 33.741 52.1241 33.0445C53.6841 29.4565 55.4026 25.4232 57.2863 20.9508C59.1691 16.4753 60.8455 12.4962 62.3186 9H64.0718L74.4284 33.6675C74.643 34.1915 74.8923 34.6142 75.1712 34.9361C75.4492 35.2589 75.8323 35.5765 76.3307 35.8828C76.6669 36.0719 77.1042 36.2331 77.6485 36.3597C78.1861 36.4853 78.6343 36.5568 79 36.5713V38ZM66.4817 26.3129L61.771 15.2284L57.1557 26.3129H66.4817Z" clip-rule="evenodd"/><path fill="#AF0B35" fill-rule="evenodd" d="M110 25.8602C109.656 25.9052 109.193 25.9668 108.614 26.054C108.029 26.142 107.558 26.269 107.2 26.428C106.769 26.6299 106.462 26.919 106.284 27.2861C106.106 27.6572 106.018 28.0948 106.018 28.5952V30.8189C106.018 32.4363 106.025 33.5292 106.048 34.095C106.068 34.6651 106.093 35.1254 106.121 35.4905C104.212 36.3012 102.31 36.9184 100.417 37.3531C98.5171 37.7815 96.6605 38 94.8361 38C92.8833 38 90.9996 37.6553 89.1944 36.9667C87.3839 36.2777 85.8068 35.3038 84.4559 34.0337C83.09 32.7534 82.0053 31.194 81.2032 29.3621C80.396 27.5259 80 25.4766 80 23.2099C80 21.0255 80.3809 19.0007 81.1488 17.1319C81.9158 15.2671 83.0034 13.6453 84.4126 12.2676C85.7738 10.9204 87.4001 9.8708 89.2898 9.12251C91.1762 8.37514 93.1987 8 95.3519 8C97.0777 8 98.5795 8.19673 99.8549 8.58729C101.134 8.97694 102.26 9.4474 103.239 10.003L104.121 8.62414H105.845L106.034 18.6616H104.272C103.969 17.5524 103.593 16.4676 103.152 15.3953C102.706 14.321 102.13 13.3626 101.426 12.5106C100.723 11.6629 99.8651 10.9841 98.8528 10.4808C97.8396 9.97222 96.6323 9.72002 95.2262 9.72002C93.6893 9.72002 92.3174 10.0132 91.109 10.6008C89.9049 11.184 88.8575 12.0596 87.966 13.219C87.0873 14.3384 86.416 15.7336 85.9444 17.4068C85.468 19.0798 85.2309 20.9476 85.2309 23.008C85.2309 24.8329 85.462 26.548 85.9264 28.1564C86.3989 29.7681 87.0764 31.1591 87.966 32.3349C88.8575 33.5365 89.9682 34.4774 91.3011 35.1685C92.6388 35.8522 94.1557 36.1977 95.8485 36.1977C97.113 36.1977 98.2627 36.0185 99.3061 35.6544C100.346 35.2873 101.085 34.9061 101.513 34.4981C101.628 33.7998 101.692 33.0916 101.695 32.3729C101.704 31.6592 101.707 31.0545 101.707 30.5541V28.9786C101.707 28.4095 101.627 27.9083 101.461 27.4715C101.297 27.0298 100.955 26.7131 100.435 26.5059C99.9614 26.3091 99.3212 26.1554 98.508 26.054C97.7 25.9523 97.0597 25.8909 96.6033 25.8602V24.388H110V25.8602Z" clip-rule="evenodd"/><path fill="#AF0B35" fill-rule="evenodd" d="M144 37H135.705C133.87 34.384 132.209 32.1203 130.724 30.2152C129.242 28.3084 127.629 26.3364 125.895 24.3126H122.748V33.1921C122.748 33.6501 122.827 34.0592 122.987 34.405C123.144 34.7562 123.486 35.0232 124.005 35.2052C124.267 35.2951 124.724 35.3833 125.376 35.4591C126.025 35.5391 126.572 35.587 127.023 35.6012V37H114V35.6012C114.346 35.572 114.847 35.5301 115.511 35.4591C116.169 35.3951 116.624 35.3132 116.888 35.2052C117.321 35.0371 117.634 34.7851 117.831 34.4541C118.028 34.1261 118.12 33.7051 118.12 33.1921V12.9488C118.12 12.4887 118.053 12.0809 117.908 11.7258C117.764 11.3709 117.421 11.1018 116.888 10.9139C116.526 10.798 116.053 10.69 115.478 10.595C114.896 10.493 114.402 10.4269 114 10.402V9H128.216C129.52 9 130.736 9.12385 131.885 9.36478C133.032 9.60998 134.061 10.0021 134.992 10.544C135.888 11.0659 136.605 11.7557 137.141 12.6027C137.676 13.4537 137.939 14.4727 137.939 15.6708C137.939 16.7517 137.763 17.7058 137.399 18.5326C137.035 19.3597 136.503 20.0786 135.793 20.6835C135.14 21.2507 134.361 21.7397 133.448 22.1506C132.535 22.5685 131.529 22.9213 130.431 23.2065C131.952 25.0374 133.213 26.5774 134.22 27.8263C135.224 29.0772 136.46 30.5962 137.92 32.3831C138.557 33.1751 139.133 33.755 139.645 34.13C140.161 34.5031 140.671 34.8112 141.179 35.049C141.555 35.2191 142.025 35.3532 142.585 35.439C143.154 35.5332 143.623 35.587 144 35.6012V37ZM132.582 16.1238C132.582 14.4248 132.047 13.0838 130.974 12.0919C129.903 11.0958 128.39 10.603 126.44 10.603H122.748V22.6166H125.591C127.587 22.6166 129.249 22.0364 130.582 20.8695C131.915 19.7056 132.582 18.1236 132.582 16.1238Z" clip-rule="evenodd"/><path fill="#AF0B35" fill-rule="evenodd" d="M161 38H147V36.7089C147.396 36.6831 147.962 36.6503 148.708 36.6003C149.452 36.553 149.982 36.4792 150.288 36.3852C150.767 36.2273 151.117 36.0073 151.335 35.7391C151.557 35.4656 151.667 35.0868 151.667 34.6032V13.5827C151.667 13.1545 151.591 11.9319 151.422 11.6462C151.267 11.3574 150.885 11.1197 150.288 10.9264C149.848 10.7798 149.296 10.6447 148.631 10.5188C147.968 10.3908 147.424 10.3138 147 10.2903V9H161V10.2903C160.547 10.3037 160.006 10.3446 159.378 10.4276C158.748 10.5063 158.201 10.6056 157.735 10.7267C157.181 10.8741 156.813 11.1087 156.619 11.4364C156.429 11.767 156.337 12.1264 156.337 12.5258V34.4015C156.337 34.8009 156.439 35.1553 156.651 35.4656C156.865 35.7748 157.224 36.0206 157.735 36.2017C158.04 36.294 158.545 36.4014 159.238 36.5202C159.932 36.632 160.519 36.6984 161 36.7089V38Z" clip-rule="evenodd"/><path fill="#fff" fill-rule="evenodd" d="M40 1.89057C40 0.846858 39.1542 0 38.1123 0H1.89079C0.843796 0 0 0.846858 0 1.89057V38.1083C0 39.1591 0.843796 40 1.89079 40H38.1123C39.1542 40 40 39.1591 40 38.1083V1.89057Z" clip-rule="evenodd"/><path fill="#00422B" fill-rule="evenodd" d="M14 37.9982L35.3687 38C36.8089 38 37.9947 36.8165 37.9947 35.3761L38 14L14 37.9982Z" clip-rule="evenodd"/><path fill="#AF0B35" fill-rule="evenodd" d="M39 4.62949C39 3.15681 37.7766 2 36.2951 2H28.205L2 27.5256V35.3629C2 36.8117 3.18496 37.9982 4.70064 37.9982L12.6583 38L38.9969 12.3735L39 4.62949Z" clip-rule="evenodd"/><path fill="#00422B" fill-rule="evenodd" d="M4.64584 2C3.16545 2 2.00354 3.15857 2.00354 4.63911L2 26L26 2.00591L4.64584 2Z" clip-rule="evenodd"/><path fill="#FFDC00" fill-rule="evenodd" d="M15 38C15 38 16.4223 37.4101 17.7447 37.1762C18.2448 37.0607 21.1438 36.3618 20.9944 33.3052C20.9589 32.5096 19.802 33.521 19.802 33.521C19.802 33.521 17.5097 33.8516 16.554 34.4616C16.0773 34.7486 15.0113 35.9603 15 38Z" clip-rule="evenodd"/><path fill="#FFDC00" fill-rule="evenodd" d="M23.959 29C23.959 29 24.4585 32.5391 21.9706 33.665C20.9125 34.1609 19.3273 34.7173 19.0821 35C19.0821 35 18.5163 32.5391 20.3551 31.0611C20.9455 30.5805 22.156 30.1192 22.9339 29.7988C23.6846 29.4883 23.959 29 23.959 29Z" clip-rule="evenodd"/><path fill="#FFDC00" fill-rule="evenodd" d="M26.345 25C26.345 25 27.9405 27.0942 26.1513 29.4938C25.7669 30.0475 23.853 31.3794 23.3715 32C23.3715 32 22.4169 29.7686 23.5681 27.9524C23.8834 27.4355 24.9731 26.4788 25.4516 26.1003C25.9315 25.7167 26.345 25 26.345 25Z" clip-rule="evenodd"/><path fill="#FFDC00" fill-rule="evenodd" d="M23.8244 20C23.8244 20 22.3617 20.8313 23.333 23.2031C23.4264 23.4782 24.5606 25.4527 24.5979 26C24.5979 26 26.6246 24.7762 25.8047 22.2805C25.6789 21.8227 24.7339 20.3669 23.8244 20Z" clip-rule="evenodd"/><path fill="#FFDC00" fill-rule="evenodd" d="M20.1136 17C20.1136 17 19.5706 18.5425 20.8587 19.993C21.4016 20.5843 23.8362 21.2781 24.8862 22C24.8862 22 26.1701 18.1052 20.1136 17Z" clip-rule="evenodd"/><path fill="#FFDC00" fill-rule="evenodd" d="M17.0048 14C17.0048 14 21.5552 14.3639 20.9434 19C20.9434 19 19.9143 18.2823 19.0757 17.9072C18.7108 17.7057 16.8952 17.0673 17.0048 15.1677C17.035 14.6456 17.0048 14 17.0048 14Z" clip-rule="evenodd"/><path fill="#FFDC00" fill-rule="evenodd" d="M17.1985 9.30845C17.1985 9.30845 15.329 10.7059 16.2598 13.0555C16.4268 13.501 17.3942 14.7769 17.9079 15C17.9079 15 18.4901 13.3739 18.8456 12.1987C18.9762 11.72 19.3317 9.84801 18.1659 9.11667C17.552 8.76924 17.1985 9.30845 17.1985 9.30845Z" clip-rule="evenodd"/><path fill="#FFDC00" fill-rule="evenodd" d="M16.1738 11C16.1738 11 14.8195 7.06705 19.6723 6C19.6723 6 20.7564 7.51825 18.9808 9.09552C18.5008 9.54233 16.4811 10.5542 16.1738 11Z" clip-rule="evenodd"/><path fill="#FFDC00" fill-rule="evenodd" d="M23.9952 2.00032C23.9952 2.00032 18.7874 1.86724 19.0067 7C19.0067 7 22.2678 5.89695 23.1462 4.83312C23.5804 4.28016 24.0531 3.24065 23.9952 2.00032Z" clip-rule="evenodd"/></g><defs><clipPath id="clip0_4_2074"><rect width="300" height="40" fill="#fff"/></clipPath></defs></svg>