<svg xmlns="http://www.w3.org/2000/svg" width="40" height="40" fill="none" viewBox="0 0 40 40"><path fill="#1E3F99" fill-rule="evenodd" d="M28.9773 29.6567C27.2495 31.0295 25.427 32.2603 23.6282 33.5857C23.6282 33.5857 22.5868 34.3431 22.1607 34.6508C22.0661 34.6508 21.9477 34.6745 21.9004 34.6035C21.9477 33.0414 21.4507 31.1715 22.6578 30.0591C24.4329 27.9763 26.3028 25.9881 27.8412 23.7632C27.8412 23.7632 29.427 21.4911 30.1844 20.4023C30.4211 20.4496 30.5158 20.7337 30.5394 20.923C31.3678 23.8343 31.6282 26.7455 28.9773 29.6567ZM19.6519 28.8283C19.6045 28.8283 19.5335 28.781 19.5099 28.7337C17.214 26.0118 14.6105 22.9348 12.3383 20.2366C11.9359 19.5502 11.5099 18.8875 11.4625 17.9881C11.4389 17.3017 11.3915 16.6627 11.9596 15.7869C11.9596 15.7869 12.3383 15.2425 12.4566 15.0769C12.4566 15.0769 17.1193 8.52065 19.5809 5.39639C19.6045 5.37272 19.6282 5.34905 19.6519 5.34905C19.6755 5.34905 19.7229 5.39639 19.7229 5.39639C22.1844 8.49698 26.8471 15.0769 26.8471 15.0769C26.9655 15.2425 27.3442 15.7869 27.3442 15.7869C27.9122 16.6627 27.8649 17.3017 27.8412 17.9881C27.7939 18.8875 27.3678 19.5266 26.9655 20.2366C24.6696 22.9585 22.0897 26.0354 19.7702 28.7337C19.7465 28.781 19.6992 28.8047 19.6519 28.8283ZM17.3797 34.6035C17.3323 34.6745 17.214 34.6508 17.1193 34.6508C16.6933 34.3668 15.6519 33.6094 15.6519 33.6094C13.8531 32.2603 12.0306 31.0295 10.3028 29.6567C7.65187 26.7455 7.9359 23.8343 8.74063 20.923C8.7643 20.7337 8.85898 20.4496 9.09566 20.4023C9.85306 21.4911 11.4152 23.7632 11.4152 23.7632C12.9536 25.9881 14.8235 27.9763 16.5986 30.0591C17.8531 31.1479 17.356 33.0177 17.3797 34.6035ZM33.9714 20.994C33.6164 19.6212 33.0957 18.6272 32.2436 17.0887C31.9596 16.6627 31.6045 16.1656 31.2968 15.6449C27.6282 10.2248 20.4093 0.757333 19.7465 0.141948C19.6992 0.094611 19.6282 0.094611 19.5809 0.141948C18.9181 0.757333 11.6992 10.2248 8.03057 15.6449C7.72288 16.1656 7.36785 16.6627 7.08383 17.0887C6.23176 18.6272 5.71105 19.6449 5.35602 20.994C4.90631 23.1242 4.88264 25.3017 5.28501 27.4319C5.66371 29.207 7.34418 31.0059 9.02465 32.355L11.6045 34.4141C11.6045 34.4141 18.8235 39.6212 19.5099 39.9526C19.5572 39.9763 19.6045 39.9999 19.6519 39.9999C19.6992 39.9999 19.7465 39.9763 19.7939 39.9526C20.4566 39.6212 27.6992 34.4141 27.6992 34.4141L30.2791 32.355C31.9596 31.0059 33.64 29.207 34.0187 27.4319C34.4448 25.3254 34.4211 23.1242 33.9714 20.994Z" clip-rule="evenodd"/></svg>