<svg width="240" height="80" viewBox="0 0 240 80" fill="none" xmlns="http://www.w3.org/2000/svg">
<path fill-rule="evenodd" clip-rule="evenodd" d="M57.0637 49.6292C55.3313 51.0056 53.5039 52.2397 51.7003 53.5687C51.7003 53.5687 50.6561 54.3281 50.2289 54.6366C50.134 54.6366 50.0153 54.6603 49.9679 54.5891C50.0153 53.0228 49.517 51.148 50.7273 50.0326C52.5072 47.9442 54.382 45.9508 55.9246 43.72C55.9246 43.72 57.5146 41.4417 58.274 40.35C58.5113 40.3975 58.6063 40.6823 58.63 40.8721C59.4606 43.7912 59.7217 46.7102 57.0637 49.6292ZM47.7133 48.7986C47.6659 48.7986 47.5947 48.7511 47.571 48.7036C45.269 45.9745 42.6585 42.8894 40.3802 40.1839C39.9768 39.4957 39.5496 38.8312 39.5021 37.9294C39.4784 37.2412 39.4309 36.6004 40.0005 35.7223C40.0005 35.7223 40.3802 35.1765 40.4989 35.0104C40.4989 35.0104 45.174 28.4367 47.6422 25.3041C47.6659 25.2803 47.6896 25.2566 47.7133 25.2566C47.7371 25.2566 47.7845 25.3041 47.7845 25.3041C50.2527 28.4129 54.9278 35.0104 54.9278 35.0104C55.0465 35.1765 55.4262 35.7223 55.4262 35.7223C55.9958 36.6004 55.9483 37.2412 55.9246 37.9294C55.8771 38.8312 55.4499 39.472 55.0465 40.1839C52.7445 42.9131 50.1577 45.9982 47.832 48.7036C47.8083 48.7511 47.7608 48.7748 47.7133 48.7986ZM45.4351 54.5891C45.3876 54.6603 45.269 54.6366 45.174 54.6366C44.7469 54.3518 43.7027 53.5924 43.7027 53.5924C41.899 52.2397 40.0717 51.0056 38.3393 49.6292C35.6813 46.7102 35.9661 43.7912 36.773 40.8721C36.7967 40.6823 36.8916 40.3975 37.129 40.35C37.8884 41.4417 39.4547 43.72 39.4547 43.72C40.9972 45.9508 42.8721 47.9442 44.6519 50.0326C45.9097 51.1243 45.4114 52.9991 45.4351 54.5891ZM62.0711 40.9433C61.7151 39.5669 61.193 38.5702 60.3387 37.0276C60.0539 36.6004 59.6979 36.102 59.3894 35.5799C55.711 30.1454 48.4728 20.6526 47.8083 20.0356C47.7608 19.9881 47.6896 19.9881 47.6422 20.0356C46.9777 20.6526 39.7395 30.1454 36.061 35.5799C35.7525 36.102 35.3965 36.6004 35.1117 37.0276C34.2574 38.5702 33.7353 39.5906 33.3793 40.9433C32.9284 43.0792 32.9047 45.2625 33.3081 47.3984C33.6878 49.1783 35.3728 50.9819 37.0578 52.3346L39.6445 54.3993C39.6445 54.3993 46.8827 59.6203 47.571 59.9525C47.6184 59.9763 47.6659 60 47.7133 60C47.7608 60 47.8083 59.9763 47.8557 59.9525C48.5202 59.6203 55.7822 54.3993 55.7822 54.3993L58.3689 52.3346C60.0539 50.9819 61.7389 49.1783 62.1186 47.3984C62.5457 45.2863 62.522 43.0792 62.0711 40.9433ZM133.979 50.8158C133.979 51.3853 134.406 52.2634 135.26 52.2634C136.209 52.2634 136.565 51.3853 136.565 50.8158V46.6864C136.565 46.1169 136.233 45.1201 135.284 45.1201C134.335 45.1201 133.979 46.1169 133.979 46.6864V50.8158ZM140.647 49.9377C140.647 51.1006 140.6 52.4295 139.508 53.2602C138.416 54.0908 136.803 54.1857 135.426 54.1857C134.192 54.1857 132.412 54.0908 131.368 53.4737C129.897 52.6194 129.897 51.3379 129.897 49.9377V47.1848C129.897 46.0457 129.92 44.8116 131.036 44.0285C132.127 43.2691 133.599 43.1741 134.952 43.1741C136.186 43.1741 138.013 43.2691 139.081 43.7912C140.529 44.5506 140.623 45.8321 140.623 47.1848V49.9377H140.647ZM113.379 45.8321C113 45.6897 112.596 45.6185 112.216 45.6185C110.911 45.6185 110.721 46.7339 110.721 47.3035V49.7478C110.721 50.2937 110.959 51.6227 112.216 51.6227C112.596 51.6227 113 51.5515 113.379 51.4565V45.8321ZM118.197 44.8116C117.675 45.0489 117.366 45.5473 117.366 46.1169V53.4737C117.366 54.6603 117.414 56.2741 116.37 57.1522C115.325 58.0303 113.996 58.1964 112.62 58.1964C110.603 58.1964 109.226 57.5082 107.47 56.6538V54.6603H111.125C111.125 54.9926 111.172 55.3486 111.267 55.6571C111.41 55.8944 111.884 56.0605 112.24 56.0605C113.237 56.0605 113.403 54.6603 113.403 54.067V53.4026C112.549 53.9009 111.599 54.1857 110.603 54.162C107.612 54.162 106.877 52.2397 106.877 49.9377V47.873C106.877 45.571 107.138 43.1979 110.389 43.1979C111.457 43.1979 112.644 43.4352 113.522 44.0285V43.4352H118.221L118.197 44.8116ZM178.191 49.1783C177.384 49.4631 175.699 49.819 175.699 50.7446C175.699 51.2667 175.96 51.86 176.767 51.86C177.265 51.9074 177.788 51.7651 178.191 51.4565V49.1783ZM178.452 53.1652C177.455 53.8535 176.245 54.2094 175.035 54.1857C172.922 54.1857 171.878 52.8804 171.878 51.1718C171.878 49.0596 173.065 48.4426 175.082 47.8493L178.12 47.0424V46.0694C178.12 45.5473 177.645 45.1201 177.004 45.1201C176.269 45.1201 175.77 45.5473 175.77 46.0694V47.0899H172.353V44.7879C173.895 43.8149 175.58 43.1741 177.455 43.1741C178.666 43.1741 179.662 43.3403 180.683 44.0047C181.941 44.8828 181.964 45.9745 181.941 47.2085V51.1006C181.941 51.6464 181.893 52.1448 182.486 52.5245L182.771 53.9484H178.737L178.452 53.1652ZM163.572 51.0531H165.233C166.254 51.0531 166.895 50.4598 166.895 49.4156C166.895 48.3714 166.372 47.7544 165.233 47.7544H163.572V51.0531ZM163.572 45.4287H165.091C166.088 45.4287 166.728 44.9778 166.728 44.0285C166.728 43.0792 166.04 42.5808 165.091 42.5808H163.572V45.4287ZM158.47 53.9721V52.3821C158.992 52.216 159.348 51.7651 159.395 51.243V42.3673C159.348 41.8452 158.992 41.3705 158.47 41.2281V39.6381H165.637C166.918 39.6381 168.366 39.6144 169.481 40.2314C170.715 40.8959 171.119 42.0825 171.119 43.2928C171.119 44.9303 170.383 46.0457 168.532 46.5203V46.5441C170.644 46.7814 171.38 48.2527 171.38 49.9377C171.38 51.1243 171.071 52.4296 170.003 53.1652C168.841 53.9958 167.346 54.0196 165.898 54.0196L158.47 53.9721ZM89.5051 49.1783C88.6982 49.4631 87.0133 49.819 87.0133 50.7446C87.0133 51.2667 87.2743 51.86 88.0812 51.86C88.5796 51.9074 89.0779 51.7651 89.4814 51.4565L89.5051 49.1783ZM89.7661 53.1652C88.7694 53.8535 87.5591 54.2094 86.3488 54.1857C84.2366 54.1857 83.1924 52.8804 83.1924 51.1718C83.1924 49.0596 84.379 48.4426 86.3962 47.8493L89.4339 47.0187V46.0457C89.4339 45.5236 88.9593 45.0964 88.3185 45.0964C87.5828 45.0964 87.0844 45.5236 87.0844 46.0457V47.0662H83.6908V44.7642C85.2334 43.7912 86.9183 43.1504 88.7931 43.1504C90.0035 43.1504 91.0002 43.3165 92.0207 43.981C93.2785 44.8591 93.3022 45.9508 93.2785 47.1848V51.0768C93.2785 51.6227 93.231 52.121 93.8243 52.5007L94.0853 53.9246H89.9797L89.7661 53.1652ZM145.536 46.9238L146.984 45.8558C147.506 45.3575 147.624 44.7642 147.624 43.8386V43.4115H151.92V44.8116C151.588 44.9303 151.279 45.1201 151.018 45.3812L148.55 47.5408L151.018 51.1006C151.327 51.6464 151.564 52.2397 152.276 52.5482V53.9721H148.431L145.56 49.3919H145.512V51.1718C145.512 51.7413 145.726 52.1685 146.343 52.5719V53.9958H141.003V52.5719C141.573 52.1922 141.834 51.8125 141.834 51.243V42.4147C141.834 41.8451 141.62 41.418 141.003 41.0145V39.5906H145.536V46.9238ZM200.214 46.9238L201.662 45.8558C202.184 45.3575 202.302 44.7642 202.302 43.8386V43.4115H206.622V44.8116C206.289 44.9303 205.981 45.1201 205.72 45.3812L203.252 47.5408L205.72 51.1006C206.028 51.6464 206.266 52.2397 206.978 52.5482V53.9721H203.133L200.262 49.3919H200.214V51.1718C200.214 51.7413 200.428 52.1685 201.045 52.5719V53.9958H195.681V52.5719C196.251 52.1922 196.512 51.8125 196.512 51.243V42.4147C196.512 41.8451 196.298 41.418 195.681 41.0145V39.5906H200.214V46.9238ZM123.109 46.9238L124.557 45.8558C125.079 45.3575 125.198 44.7642 125.198 43.8386V43.4115H129.493V44.8116C129.161 44.9303 128.852 45.1201 128.591 45.3812L126.123 47.5408L128.591 51.1006C128.9 51.6464 129.137 52.2397 129.849 52.5482V53.9721H126.005L123.133 49.3919H123.086V51.1718C123.086 51.7413 123.299 52.1685 123.916 52.5719V53.9958H118.577V52.5719C119.146 52.1922 119.407 51.8125 119.407 51.243V42.4147C119.407 41.8451 119.194 41.418 118.577 41.0145V39.5906H123.109V46.9238ZM188.158 44.0759C189.108 43.5064 190.176 43.1979 191.291 43.1979C192.24 43.2216 192.905 43.5064 193.379 43.9098C194.21 44.598 194.305 45.3575 194.305 46.283V51.0531C194.281 51.6464 194.59 52.1685 195.112 52.4533V53.9958H190.579C190.318 52.9279 190.342 51.8125 190.342 50.7209V47.0187C190.389 46.6864 190.342 46.3779 190.199 46.0694C189.748 45.571 189.013 45.4049 188.372 45.666V51.1718C188.372 51.6939 188.324 52.2634 188.918 52.5719V53.9958H183.554V52.5719C184.076 52.3346 184.409 51.8125 184.385 51.243V46.4966C184.385 45.927 184.124 45.5473 183.554 45.1913V43.3877H188.182L188.158 44.0759ZM99.2826 44.0759C100.232 43.5064 101.3 43.2216 102.415 43.1979C103.364 43.2216 104.053 43.5064 104.504 43.9098C105.334 44.598 105.429 45.3575 105.429 46.283V51.0531C105.405 51.6464 105.714 52.1922 106.236 52.4533V53.9958H101.703C101.442 52.9279 101.442 51.8125 101.442 50.7209V47.0187C101.49 46.6864 101.442 46.3779 101.3 46.0694C100.849 45.571 100.113 45.4049 99.4725 45.666V51.1718C99.4725 51.6939 99.425 52.2634 100.042 52.5719V53.9958H94.6786V52.5719C95.2007 52.3346 95.533 51.8125 95.5093 51.243V46.4966C95.5093 45.927 95.2482 45.5473 94.6786 45.1913V43.3877H99.2826V44.0759ZM74.8151 51.0531V47.7306H76.4763C77.6155 47.7306 78.1376 48.3951 78.1376 49.3919C78.1376 50.3886 77.4731 51.0294 76.4763 51.0294L74.8151 51.0531ZM74.8151 45.4287H76.3339C77.3307 45.4287 77.9714 44.9778 77.9714 44.0285C77.9714 43.0792 77.2832 42.5808 76.3339 42.5808H74.8151V45.4287ZM69.7128 53.9721V52.3821C70.2349 52.216 70.5908 51.7651 70.6383 51.243V42.3673C70.5908 41.8452 70.2349 41.3942 69.7128 41.2281V39.6381H76.8798C78.1613 39.6381 79.6089 39.6144 80.7243 40.2314C81.9584 40.8959 82.3618 42.0825 82.3618 43.2928C82.3618 44.9303 81.6261 46.0457 79.775 46.5203V46.5441C81.8872 46.7814 82.6229 48.2527 82.6229 49.9377C82.6229 51.1243 82.3144 52.4296 81.2464 53.1652C80.0836 53.9958 78.5885 54.0196 77.1408 54.0196H69.7128V53.9721Z" fill="#1E3F99"/>
</svg>
