<svg xmlns="http://www.w3.org/2000/svg" width="40" height="40" fill="none" viewBox="0 0 40 40"><path fill="#243F8E" d="M12.6516 13.4589H10.2287V24.3325H12.6516V13.4589Z"/><path fill="#ED1B23" fill-rule="evenodd" d="M29.8176 24.2427C29.4887 24.2402 29.1418 24.2427 28.8129 24.2119C28.1449 24.1528 27.518 24.0937 26.8782 23.8907C26.3669 23.7314 25.9275 23.4899 25.501 23.161C25.3726 23.0634 25.2621 22.9478 25.1465 22.8373C25.0874 22.7807 25.0308 22.7242 24.9794 22.66C24.4245 21.9765 24.093 21.2854 23.926 20.4221C23.6588 19.0295 23.7076 17.6163 24.2497 16.2879C24.296 16.1723 24.3499 16.0618 24.4116 15.9539C24.8099 15.2422 25.2903 14.7335 25.9764 14.307C26.1202 14.217 26.2718 14.1477 26.4234 14.068C26.4311 14.0629 26.444 14.0629 26.4543 14.0577C26.5956 14.0063 26.7343 13.9472 26.8782 13.901C27.5257 13.6954 28.1809 13.6209 28.8541 13.5618C28.8977 13.5593 28.9414 13.5644 28.9851 13.5618C29.1007 13.5567 29.2138 13.5413 29.3294 13.5413C30.1901 13.5361 31.0534 13.5413 31.9142 13.5413C31.462 13.9935 30.8659 14.6435 30.334 15.2011C29.4836 15.2165 28.5637 15.1471 27.7801 15.5223C27.4846 15.6636 27.4871 15.6739 27.3741 15.7664C27.184 15.918 27.1788 15.9154 27.0272 16.0927C26.7729 16.3933 26.6007 16.7068 26.4568 17.0793C26.3643 17.3183 26.3643 17.3183 26.295 17.6266C26.0714 18.6338 26.1125 19.659 26.4466 20.6353C26.5082 20.8203 26.5956 20.9899 26.6906 21.162C26.7652 21.2982 26.8936 21.4652 26.909 21.4755C26.9116 21.4781 26.9167 21.4832 26.9193 21.4858C27.3073 22.0048 27.8237 22.2566 28.4378 22.4133C28.723 22.4853 29.1572 22.5778 29.4527 22.5803C30.5601 22.5906 31.6675 22.5803 32.7749 22.5803V24.2427C31.7883 24.2427 30.8016 24.2504 29.8176 24.2427Z" clip-rule="evenodd"/><path fill="#243F8E" fill-rule="evenodd" d="M13.8566 24.3325C15.0437 24.3325 16.2282 24.3402 17.4152 24.3325C17.5796 24.3325 17.7467 24.3248 17.9111 24.312C18.5868 24.2631 19.2395 24.1809 19.8869 23.9728C20.0308 23.9266 20.1747 23.8726 20.3135 23.8109C20.7708 23.6054 21.1511 23.333 21.5288 23.0041C21.5313 23.0041 21.5365 22.999 21.539 22.9939C21.7806 22.7446 21.9938 22.4851 22.184 22.1948C22.2765 22.0509 22.3535 21.9019 22.4281 21.7477C22.5617 21.4651 22.6696 21.1799 22.7518 20.8767C23.1244 19.4918 23.1141 18.0067 22.6721 16.6424C22.4923 16.0823 22.2251 15.6198 21.8602 15.1624C21.7626 15.0391 21.647 14.9338 21.5416 14.8181C21.5391 14.8156 21.5339 14.8104 21.5313 14.8079C21.1948 14.5201 20.8582 14.2837 20.4676 14.0679C20.4625 14.0653 20.4548 14.0602 20.4471 14.0576C20.3109 14.0011 20.1773 13.9394 20.0411 13.8906C19.3499 13.6439 18.6639 13.5463 17.9342 13.4898C17.6721 13.4692 17.4075 13.4615 17.1429 13.4589C16.0483 13.4512 14.9537 13.4589 13.8592 13.4589V24.3325H13.8566ZM19.8561 21.4857C19.8561 21.4857 19.8638 21.4805 19.8664 21.4754C20.0308 21.2287 20.1747 20.9872 20.2775 20.7071C20.7117 19.4867 20.6963 18.0889 20.2055 16.8865C20.1593 16.7709 20.1053 16.6578 20.0437 16.5525C19.797 16.1285 19.5426 15.851 19.1367 15.5864C19.0365 15.5196 18.926 15.4656 18.8129 15.4245C18.001 15.1162 17.1249 15.1599 16.2693 15.1573V22.6547C17.2482 22.6444 18.2117 22.6547 19.0879 22.1845C19.4167 22.0098 19.63 21.7863 19.8561 21.4908V21.4857Z" clip-rule="evenodd"/><path fill="#F78C94" d="M36.9501 17.2386H36.9398V18.0197H36.9501V17.2386Z"/><path fill="#243F8E" fill-rule="evenodd" d="M6.60329 21.74C6.43885 22.259 5.9481 22.5314 5.43679 22.6059C4.44758 22.7498 3.42754 22.6855 2.42806 22.6727V19.8644C3.45324 19.8644 4.48355 19.8207 5.48818 20.0005C5.83504 20.0648 6.14594 20.1778 6.39003 20.4476C6.48766 20.5555 6.57759 20.6917 6.60329 20.8382C6.60329 20.851 6.60585 20.8664 6.61356 20.8793C6.61356 20.8793 6.62384 20.8767 6.62384 20.8793C6.67523 21.1645 6.6778 21.4137 6.62384 21.6989C6.62384 21.7015 6.61613 21.6989 6.61356 21.6989C6.60842 21.7117 6.60842 21.7246 6.60329 21.74ZM2.42806 17.8191V15.1855C3.18088 15.1855 3.93628 15.1675 4.68653 15.1907C5.26978 15.2087 5.82477 15.2652 6.18191 15.7636C6.47739 16.1747 6.47482 16.7169 6.19219 17.1305C5.99691 17.4183 5.73227 17.5648 5.39825 17.6419C4.41675 17.8654 3.43268 17.8166 2.42806 17.8191ZM4.37307 13.4615C4.6223 13.4615 4.8741 13.4769 5.12333 13.4975C6.0149 13.5668 6.8114 13.685 7.58479 14.1449C7.95221 14.3659 8.19886 14.61 8.4224 14.9826C8.91058 15.7996 8.9594 16.8428 8.47122 17.6675C8.34789 17.8782 8.19116 18.0452 8.00102 18.1994C7.6927 18.4461 7.35868 18.6002 6.98612 18.7261C6.81654 18.7827 6.81397 18.7749 6.8037 18.7852C7.18653 18.888 7.53854 19.0036 7.88797 19.1912C8.11408 19.3145 8.29907 19.4533 8.47636 19.6383C8.7076 19.8798 8.85406 20.1239 8.96711 20.4425C9.09044 20.7893 9.11356 21.1234 9.08787 21.4856C9.05447 21.9944 8.91829 22.4003 8.6408 22.832C8.59198 22.9065 8.53802 22.9784 8.47893 23.0452C8.20144 23.3664 7.90082 23.6131 7.52055 23.8006C7.02466 24.0473 6.53905 24.1706 5.98921 24.2477C5.6372 24.2965 5.28006 24.3299 4.92549 24.3325C3.28366 24.3531 1.64183 24.3325 0 24.3325V13.4589C1.45683 13.4589 2.9111 13.4486 4.36793 13.4589L4.37307 13.4615Z" clip-rule="evenodd"/><path fill="#F7525A" fill-rule="evenodd" d="M34.4424 16.3831C34.4476 16.1981 34.4527 16.0131 34.4579 15.8255C34.4527 16.2041 34.4476 16.3899 34.4424 16.3831Z" clip-rule="evenodd"/><path fill="#FFC5CE" fill-rule="evenodd" d="M34.3679 16.198H34.3782V15.792H34.3885C34.3885 15.9333 34.3885 16.0721 34.3833 16.2134C34.3782 16.2082 34.3731 16.2031 34.3679 16.198Z" clip-rule="evenodd"/><path fill="#F7525A" fill-rule="evenodd" d="M36.3027 14.98H36.3129V15.4477H36.3232C36.3232 15.4477 36.3129 15.4579 36.3078 15.4631C36.3078 15.3038 36.3052 15.1419 36.3027 14.9826V14.98Z" clip-rule="evenodd"/><path fill="#F7525A" d="M33.9414 15.0007H33.9312V15.2936H33.9414V15.0007Z"/><path fill="#F7525A" d="M34.2677 13.6209H34.2574V13.8753H34.2677V13.6209Z"/><path fill="#F7525A" fill-rule="evenodd" d="M36.1819 13.567H36.1922V13.6903H36.2025C36.1999 13.7263 36.1948 13.7623 36.1922 13.7957H36.1819V13.567Z" clip-rule="evenodd"/><path fill="#FFC5CE" fill-rule="evenodd" d="M34.9152 13.2766H34.9255V12.9785H34.9358V13.2868C34.9221 13.2868 34.9152 13.2834 34.9152 13.2766Z" clip-rule="evenodd"/><path fill="#F78C94" fill-rule="evenodd" d="M35.0103 12.6958C35.0154 12.6188 35.0205 12.5417 35.0257 12.462C35.0205 12.6265 35.0154 12.7044 35.0103 12.6958Z" clip-rule="evenodd"/><path fill="#EF1921" fill-rule="evenodd" d="M33.6537 16.1723C33.6537 16.0644 33.6562 15.9564 33.6588 15.8485C33.813 15.8588 33.9132 15.8717 34.0391 15.9616C34.1752 16.1029 34.3088 16.2442 34.445 16.3855C34.445 16.3855 34.4502 16.1997 34.4604 15.828C34.7276 15.5813 34.9872 15.3013 35.3058 15.1188C35.4933 15.0623 35.5653 15.088 35.7374 15.1856C35.9866 15.3886 36.2205 15.6019 36.4594 15.8151C36.4645 16.0104 36.4671 16.2031 36.4722 16.3958C36.5879 16.2699 36.7009 16.1466 36.8165 16.0207C36.9681 15.8871 37.0581 15.8639 37.2585 15.8485C37.2585 15.9307 37.2585 16.0104 37.2636 16.0926C37.2482 16.2828 37.2199 16.4369 37.1506 16.6168C37.0529 16.7992 36.9553 16.9842 36.8602 17.1666C36.8602 17.1923 36.8602 17.2154 36.8602 17.2411C36.8859 17.2411 36.9142 17.2411 36.9399 17.2437V18.0248H33.9902V17.2437C34.0159 17.2437 34.0442 17.2411 34.0725 17.2386C34.0725 17.2154 34.0699 17.1923 34.0673 17.1666C33.9337 16.9277 33.7205 16.6322 33.6639 16.3496C33.6614 16.2905 33.6562 16.2339 33.6511 16.1748L33.6537 16.1723ZM36.5468 16.2031C36.5442 16.0669 36.5391 15.9282 36.5365 15.792C36.2539 15.5248 35.9353 15.1805 35.573 15.0161C35.5421 15.0161 35.5319 15.0058 35.4008 15.0058C35.4008 15.0058 35.3623 15.0195 35.2852 15.0469C34.946 15.2447 34.6763 15.5299 34.3885 15.792H34.3782V16.198H34.3679C34.3448 16.1748 34.3217 16.1491 34.2986 16.126C34.1418 15.846 33.962 15.6147 33.9414 15.2935V15.0006C34.1033 15.016 34.1547 15.0212 34.2883 15.1111C34.3962 15.2267 34.5041 15.3449 34.612 15.4606C34.6146 15.3013 34.6197 15.1419 34.6223 14.9852C34.8587 14.7694 35.0797 14.5279 35.3623 14.3711C35.6012 14.3223 35.7323 14.4713 35.9096 14.6152C36.0406 14.7386 36.1742 14.8593 36.3052 14.9801C36.3052 15.1394 36.3078 15.3013 36.3104 15.4606C36.3155 15.4554 36.3207 15.4503 36.3258 15.4451C36.4697 15.2858 36.6341 15.0135 36.8731 15.0135C36.8731 15.0135 36.9056 15.0101 36.9707 15.0032C36.9707 15.2704 36.9604 15.4734 36.8474 15.7149C36.7549 15.8819 36.6881 16.0721 36.5468 16.2005V16.2031ZM34.6814 14.6512C34.684 14.5047 34.6891 14.3583 34.6917 14.2093C34.8972 14.0191 35.1053 13.7956 35.352 13.6569C35.573 13.6132 35.6655 13.7057 35.8428 13.8496C35.9738 13.9703 36.1023 14.0885 36.2333 14.2093C36.2333 14.3557 36.2384 14.5047 36.2436 14.6512C36.3464 14.5381 36.4517 14.4251 36.5545 14.3146C36.6572 14.2478 36.724 14.2427 36.8499 14.235V14.4662C36.8243 14.6769 36.7806 14.7925 36.6855 14.9801C36.647 15.0083 36.611 15.0366 36.5725 15.0649C36.5416 15.1008 36.4132 15.2422 36.3849 15.2678C36.3823 15.1625 36.3772 15.0546 36.3746 14.9492C36.1202 14.7077 35.8839 14.4636 35.573 14.2966C35.5421 14.2966 35.5319 14.2863 35.3905 14.2863C35.3803 14.2966 35.3494 14.2966 35.2056 14.3737C34.9743 14.5536 34.7636 14.7488 34.5478 14.9492C34.5478 15.0546 34.5427 15.1625 34.5375 15.2678C34.4836 15.219 34.3936 15.1471 34.3602 15.0854C34.075 14.8593 34.0647 14.5741 34.0647 14.2324C34.1906 14.2427 34.2549 14.2478 34.3551 14.312C34.463 14.4251 34.5709 14.5381 34.6788 14.6512H34.6814ZM34.2652 13.8778V13.6235C34.3345 13.626 34.3834 13.6389 34.4476 13.6491C34.5127 13.7022 34.6257 13.8093 34.7867 13.9703C34.7867 13.847 34.7893 13.7237 34.7919 13.5978C34.9538 13.459 35.1131 13.3203 35.2775 13.1789C35.4625 13.071 35.5344 13.1301 35.704 13.238C35.7862 13.3126 36.0406 13.5438 36.11 13.5978C36.11 13.7211 36.1151 13.8444 36.1151 13.9677C36.3052 13.7725 36.372 13.6414 36.6316 13.6183C36.629 13.7493 36.629 13.8727 36.6033 14.0011C36.569 14.0936 36.5245 14.1921 36.4697 14.2966C36.4157 14.3506 36.3643 14.4045 36.3129 14.4585C36.3104 14.366 36.3052 14.2735 36.3027 14.181C36.1511 14.0423 35.9995 13.9035 35.8453 13.7648C35.6167 13.59 35.4985 13.5027 35.2235 13.6491C35.0129 13.8059 34.8227 13.9934 34.63 14.1707C34.6223 14.1733 34.6146 14.1759 34.6095 14.1759C34.6095 14.2735 34.6069 14.3737 34.6043 14.4713C34.4373 14.2889 34.2857 14.1296 34.2652 13.8778ZM35.7246 13.1584C35.5627 13.0633 35.537 13.0402 35.3597 13.0531C35.1156 13.1918 34.9332 13.3922 34.7148 13.5695V13.662H34.6994C34.6249 13.5207 34.5504 13.3896 34.5041 13.2406C34.5041 13.161 34.5041 13.0839 34.5041 13.0042C34.7148 13.0042 34.7739 13.1276 34.9152 13.2817C34.9152 13.2817 34.9221 13.2852 34.9358 13.292V12.9837C35.0848 12.8475 35.2312 12.7062 35.4034 12.5983C35.4856 12.5854 35.5473 12.6137 35.6167 12.6548C35.752 12.7696 35.8744 12.8783 35.9841 12.9811C35.9892 13.0839 35.9918 13.1841 35.9969 13.2869C36.0868 13.1867 36.1665 13.0942 36.2744 13.0145C36.3155 13.0145 36.3232 13.0042 36.4106 13.0042C36.4106 13.0787 36.4054 13.1507 36.4029 13.2252C36.3566 13.3973 36.2821 13.5361 36.2025 13.6954H36.1922V13.5721C36.1434 13.5335 35.7862 13.2149 35.7271 13.161L35.7246 13.1584ZM35.0103 12.6985C35.0103 12.6985 35.018 12.7113 35.0257 12.4647C35.1516 12.3516 35.2672 12.2052 35.4342 12.1589C35.6089 12.1795 35.7426 12.3593 35.8684 12.4698C35.871 12.5443 35.8736 12.6214 35.8787 12.6985C35.9892 12.5854 36.0457 12.4852 36.2076 12.4852C36.1999 12.6856 36.1845 12.8013 36.0637 12.9683C36.0363 12.934 35.9173 12.8218 35.7066 12.6317C35.4908 12.4801 35.4008 12.5032 35.2081 12.6445C35.0925 12.7447 34.9794 12.8449 34.8664 12.9451C34.8638 12.9734 34.8587 12.9991 34.8535 13.0274C34.7945 12.922 34.7071 12.8115 34.6814 12.6908C34.6814 12.6214 34.6814 12.5546 34.6814 12.4852C34.8407 12.4852 34.9049 12.5931 35.0154 12.6985H35.0103ZM35.8556 12.3747C35.7682 12.2797 35.6603 12.218 35.5601 12.1358C35.4214 12.0767 35.3726 12.0998 35.2492 12.1769C35.1439 12.2617 35.0591 12.3465 35.0411 12.3542C35.0411 12.2668 34.9666 12.1743 34.9255 12.0972C34.9186 12.051 34.9144 11.991 34.9126 11.9174C35.0462 11.9174 35.0462 12.0073 35.1516 12.069C35.1516 12.0176 35.1542 11.9636 35.1567 11.9122C35.2518 11.8249 35.3366 11.735 35.4548 11.6861C35.5627 11.7298 35.6655 11.8326 35.7528 11.9122C35.7528 11.9636 35.7554 12.0176 35.758 12.069C35.8376 11.9945 35.8813 11.9174 35.9969 11.9174C35.9918 11.9816 35.9866 12.0459 35.9815 12.1101C35.9353 12.2 35.8839 12.272 35.871 12.3747H35.8556ZM35.3597 20.0803C35.2312 20.0289 35.1619 19.9826 35.0565 19.8927C34.3551 19.1913 33.6511 18.4898 32.9496 17.7884L32.7056 17.5469C32.1506 16.9893 31.593 16.4318 31.038 15.8742C30.8993 15.6507 30.871 15.4837 31.0072 15.2473C31.575 14.6795 32.1403 14.1116 32.7056 13.5438C32.7081 13.5412 32.7133 13.5361 32.7158 13.5335C34.0108 12.2411 34.666 11.5757 35.167 11.0875C35.2415 11.0515 35.3032 11.0232 35.3803 11.0001H35.5319C35.6055 11.0241 35.6698 11.0489 35.7246 11.0746C35.9635 11.311 36.2025 11.5448 36.444 11.7786C36.444 11.7812 36.4491 11.7863 36.4543 11.7889L38.7333 14.068C39.1238 14.4611 39.5144 14.8516 39.9024 15.2447C39.9512 15.3321 39.9743 15.3989 40 15.4965V15.5787C39.964 15.7201 39.9332 15.7894 39.8433 15.9025C39.2163 16.5268 38.5894 17.1512 37.9625 17.7781C37.9599 17.7807 37.9573 17.7858 37.9522 17.7884C37.4538 18.2894 36.9527 18.7879 36.4517 19.2889C36.4491 19.2915 36.444 19.2966 36.4414 19.2992C36.2127 19.5253 35.9815 19.754 35.7528 19.9826C35.686 20.0263 35.6218 20.0494 35.5498 20.0777H35.3571L35.3597 20.0803Z" clip-rule="evenodd"/><path fill="#243F8E" d="M18.8001 28.9908C18.7384 28.9908 18.6844 28.9702 18.6408 28.9317C18.5971 28.8932 18.574 28.8366 18.574 28.7673C18.574 28.7056 18.5971 28.6542 18.6408 28.6157C18.6844 28.5746 18.7358 28.554 18.7949 28.554C18.8412 28.554 18.8797 28.5668 18.9183 28.59C18.9542 28.6157 18.9825 28.6516 19.003 28.7005C19.0236 28.7493 19.0339 28.8084 19.0339 28.8803C19.0339 28.9779 19.0133 29.0653 18.9748 29.1501C18.9362 29.2323 18.8874 29.2991 18.8309 29.3479C18.7744 29.3968 18.7256 29.4224 18.6793 29.4224C18.651 29.4224 18.6279 29.4122 18.6074 29.3916C18.5894 29.3711 18.5817 29.3505 18.5817 29.3222C18.5817 29.2837 18.5997 29.2503 18.6382 29.2272C18.7461 29.1655 18.8001 29.0859 18.8001 28.9908ZM39.6222 28.1789C39.6222 28.2328 39.6197 28.2791 39.6068 28.3253C39.5477 28.5746 39.3499 28.7236 39.1341 28.7236C38.7846 28.7236 38.6099 28.4153 38.6099 28.0427C38.6099 27.6367 38.8078 27.331 39.1418 27.331C39.3833 27.331 39.558 27.5057 39.6068 27.719C39.6171 27.7626 39.6222 27.8192 39.6222 27.8603V28.1789ZM39.6222 26.2493V27.349H39.6145C39.5349 27.1999 39.3499 27.0689 39.0801 27.0689C38.6459 27.0689 38.2785 27.444 38.2836 28.0581C38.2836 28.6182 38.6151 28.9934 39.0441 28.9934C39.3345 28.9934 39.5503 28.8366 39.6505 28.6311H39.6582L39.6736 28.9523H39.964C39.9537 28.8264 39.9486 28.6388 39.9486 28.4769V26.2518H39.6248L39.6222 26.2493ZM36.3746 28.9497H36.6983V27.8423C36.6983 27.7858 36.706 27.7292 36.7189 27.6856C36.7728 27.5006 36.9398 27.3438 37.1505 27.3438C37.4563 27.3438 37.5616 27.5905 37.5616 27.8885V28.9497H37.8854V27.85C37.8854 27.2179 37.5025 27.0663 37.2584 27.0663C36.9655 27.0663 36.76 27.2385 36.67 27.4132H36.6623L36.6443 27.11H36.3566C36.3669 27.2616 36.372 27.4183 36.372 27.6085V28.9523L36.3746 28.9497ZM35.5421 28.3305C35.5421 28.3639 35.5344 28.4024 35.5241 28.4358C35.4727 28.5925 35.3263 28.7441 35.095 28.7441C34.9306 28.7441 34.7893 28.6414 34.7893 28.423C34.7893 28.0658 35.1901 28.0016 35.5421 28.0067V28.3279V28.3305ZM35.8838 28.9497C35.8607 28.8238 35.853 28.6671 35.853 28.5078V27.8192C35.853 27.4492 35.7219 27.0663 35.1772 27.0663C34.9537 27.0663 34.7404 27.1306 34.594 27.2308L34.6685 27.4517C34.7918 27.3695 34.9665 27.3156 35.131 27.3156C35.4958 27.3156 35.5344 27.5879 35.5344 27.7421V27.7806C34.8484 27.778 34.4655 28.0196 34.4655 28.4666C34.4655 28.7339 34.6479 28.9959 35.0102 28.9959C35.262 28.9959 35.4547 28.8675 35.5549 28.7236H35.5652L35.5909 28.9548H35.8838V28.9497ZM32.5693 28.9497H32.8931V27.8371C32.8931 27.7729 32.8956 27.7241 32.9162 27.6778C32.9753 27.4954 33.1397 27.3438 33.3504 27.3438C33.6562 27.3438 33.7615 27.5956 33.7615 27.8911V28.9497H34.0827V27.8551C34.0827 27.2179 33.7024 27.0663 33.4635 27.0663C33.3427 27.0663 33.2297 27.1049 33.1346 27.1614C33.0369 27.2179 32.9547 27.3027 32.9033 27.3978H32.8956V26.2493H32.5719V28.9497H32.5693ZM30.5909 28.9497H30.9095V27.9682C30.9095 27.9117 30.9172 27.8577 30.9249 27.8115C30.9686 27.5622 31.1305 27.3824 31.3592 27.3824C31.4028 27.3824 31.4362 27.3849 31.4696 27.3952V27.0792C31.4414 27.0715 31.4157 27.0689 31.3771 27.0689C31.1587 27.0689 30.966 27.2231 30.8838 27.4723H30.8684L30.8581 27.11H30.5755C30.5858 27.2822 30.5909 27.4672 30.5909 27.683V28.9497ZM30.0539 27.1074H29.7302V28.238C29.7302 28.2996 29.7199 28.3613 29.7019 28.4101C29.6428 28.5591 29.4938 28.7159 29.2754 28.7159C28.9825 28.7159 28.8797 28.4795 28.8797 28.1301V27.11H28.556V28.1866C28.556 28.8315 28.89 28.9934 29.17 28.9934C29.4861 28.9934 29.6736 28.7981 29.7584 28.6516H29.7661L29.7841 28.9523H30.0719C30.0616 28.8058 30.0565 28.6388 30.0565 28.4512V27.1126L30.0539 27.1074ZM27.297 27.3156C27.6798 27.3156 27.8288 27.7112 27.8288 28.0247C27.8288 28.4384 27.5976 28.739 27.2893 28.739C26.9809 28.739 26.7497 28.4358 26.7497 28.0324C26.7497 27.683 26.9167 27.3156 27.297 27.3156ZM27.3047 27.0663C26.8114 27.0663 26.4234 27.4286 26.4234 28.0427C26.4234 28.6259 26.7934 28.9908 27.2738 28.9908C27.7029 28.9908 28.1603 28.6953 28.1603 28.0119C28.1603 27.4492 27.8134 27.0663 27.3047 27.0663ZM24.6248 27.1074L25.2826 28.8032C25.298 28.8469 25.3057 28.8726 25.3057 28.8906C25.3057 28.9086 25.2954 28.9368 25.28 28.9702C25.2055 29.1424 25.0976 29.2709 25.0077 29.3428C24.9126 29.425 24.8073 29.479 24.725 29.5072L24.8047 29.7873C24.8843 29.7719 25.0436 29.7154 25.2004 29.5715C25.4213 29.3736 25.5781 29.0499 25.8093 28.4178L26.2924 27.1049H25.9506L25.5986 28.1866C25.5549 28.3202 25.519 28.4589 25.4856 28.5694H25.4779C25.4496 28.4589 25.4059 28.315 25.3648 28.1943L24.9743 27.1049H24.6223L24.6248 27.1074ZM22.1171 27.1074L22.7749 28.8032C22.7903 28.8469 22.798 28.8726 22.798 28.8906C22.798 28.9086 22.7877 28.9368 22.7723 28.9702C22.6978 29.1424 22.5873 29.2709 22.5 29.3428C22.4049 29.425 22.297 29.479 22.2173 29.5072L22.297 29.7873C22.3766 29.7719 22.5359 29.7154 22.6927 29.5715C22.9136 29.3736 23.0704 29.0499 23.3016 28.4178L23.7846 27.1049H23.4429L23.0909 28.1866C23.0472 28.3202 23.0113 28.4589 22.9779 28.5694H22.9702C22.9419 28.4589 22.8982 28.315 22.8571 28.1943L22.4666 27.1049H22.1146L22.1171 27.1074ZM20.6063 27.8783C20.6063 27.8269 20.6166 27.778 20.6243 27.7421C20.6911 27.4877 20.8967 27.331 21.1176 27.331C21.4645 27.331 21.6469 27.647 21.6469 28.0144C21.6469 28.4358 21.4465 28.7236 21.1074 28.7236C20.8735 28.7236 20.6834 28.5643 20.6217 28.3305C20.614 28.2919 20.6063 28.2508 20.6063 28.2071V27.8757V27.8783ZM20.5524 28.9471L20.5678 28.6439H20.5781C20.7091 28.888 20.9172 28.9908 21.1716 28.9908C21.5698 28.9908 21.9681 28.6645 21.9681 28.0042C21.9707 27.444 21.6598 27.0638 21.2204 27.0638C20.9352 27.0638 20.7271 27.1974 20.614 27.4029H20.6063V26.2467H20.2877V28.4718C20.2877 28.6362 20.28 28.8212 20.2723 28.9471H20.5498H20.5524ZM16.9604 27.8474C16.9861 27.6162 17.13 27.3027 17.4563 27.3027C17.8186 27.3027 17.9059 27.6342 17.9034 27.8474H16.9604ZM18.204 28.0889C18.2065 28.0555 18.2142 28.0016 18.2142 27.9322C18.2142 27.5931 18.0601 27.0663 17.4794 27.0663C16.9604 27.0663 16.6444 27.5031 16.6444 28.0581C16.6444 28.6131 16.9707 28.9857 17.5179 28.9857C17.8006 28.9857 17.9958 28.924 18.1089 28.87L18.0549 28.6311C17.9342 28.685 17.7929 28.7261 17.5616 28.7261C17.2379 28.7261 16.9604 28.5386 16.9527 28.0864H18.2014L18.204 28.0889ZM15.9172 28.1763C15.9172 28.2303 15.9147 28.2765 15.9018 28.3228C15.8427 28.572 15.6449 28.721 15.429 28.721C15.0822 28.721 14.9049 28.4127 14.9049 28.0401C14.9049 27.6342 15.1027 27.3284 15.4368 27.3284C15.6808 27.3284 15.8556 27.5031 15.9044 27.7164C15.9147 27.7601 15.9198 27.8166 15.9198 27.8577V28.1763H15.9172ZM15.9172 26.2467V27.3464H15.9095C15.8299 27.1974 15.6449 27.0663 15.3725 27.0663C14.9409 27.0663 14.5734 27.4415 14.576 28.0555C14.576 28.6157 14.9075 28.9908 15.3365 28.9908C15.6269 28.9908 15.8427 28.8341 15.9429 28.6285H15.9506L15.966 28.9497H16.2564C16.2461 28.8238 16.241 28.6362 16.241 28.4743V26.2493H15.9172V26.2467ZM14.0082 26.3803C13.89 26.3803 13.8078 26.4728 13.8078 26.5884C13.8078 26.7041 13.8874 26.794 14.003 26.794C14.1315 26.794 14.2112 26.7041 14.2086 26.5884C14.2086 26.4702 14.1315 26.3803 14.0108 26.3803H14.0082ZM13.8463 28.9497H14.1675V27.1074H13.8463V28.9497ZM12.2661 28.8623C12.3895 28.9368 12.5719 28.9882 12.7646 28.9882C13.186 28.9882 13.4301 28.7596 13.4301 28.4358C13.4301 28.1635 13.2733 28.0016 12.9624 27.8808C12.7312 27.7909 12.6259 27.7215 12.6259 27.5699C12.6259 27.4338 12.7312 27.3181 12.9213 27.3181C13.0883 27.3181 13.2168 27.3798 13.2862 27.4235L13.3658 27.1794C13.2656 27.1177 13.1089 27.0663 12.929 27.0663C12.5488 27.0663 12.315 27.3104 12.315 27.6059C12.315 27.8269 12.4666 28.0093 12.7852 28.1275C13.0241 28.22 13.1166 28.3048 13.1166 28.4666C13.1166 28.6285 13.0061 28.739 12.7697 28.739C12.6079 28.739 12.4383 28.6696 12.3432 28.6054L12.2636 28.8598L12.2661 28.8623ZM10.4111 28.9497H10.7322V27.9682C10.7322 27.9117 10.7399 27.8577 10.7477 27.8115C10.7913 27.5622 10.9532 27.3824 11.1793 27.3824C11.223 27.3824 11.2564 27.3849 11.2898 27.3952V27.0792C11.2615 27.0715 11.2358 27.0689 11.1973 27.0689C10.9815 27.0689 10.7862 27.2231 10.7065 27.4723H10.6911L10.6808 27.11H10.3982C10.4085 27.2822 10.4136 27.4672 10.4136 27.683V28.9497H10.4111ZM9.87406 27.1074H9.55289V28.238C9.55289 28.2996 9.54261 28.3613 9.52463 28.4101C9.46553 28.5591 9.31394 28.7159 9.09811 28.7159C8.80521 28.7159 8.70243 28.4795 8.70243 28.1301V27.11H8.38126V28.1866C8.38126 28.8315 8.71528 28.9934 8.99534 28.9934C9.31137 28.9934 9.49894 28.7981 9.58372 28.6516H9.59143L9.60942 28.9523H9.89462C9.88434 28.8058 9.8792 28.6388 9.8792 28.4512V27.1126L9.87406 27.1074ZM7.11713 27.3156C7.4974 27.3156 7.64899 27.7112 7.64899 28.0247C7.64899 28.4384 7.41775 28.739 7.10942 28.739C6.8011 28.739 6.56985 28.4358 6.56985 28.0324C6.56985 27.683 6.73429 27.3156 7.11713 27.3156ZM7.12484 27.0663C6.63152 27.0663 6.24354 27.4286 6.24354 28.0427C6.24354 28.6259 6.61353 28.9908 7.09657 28.9908C7.52566 28.9908 7.98044 28.6953 7.98044 28.0119C7.98044 27.4492 7.63614 27.0663 7.12484 27.0663ZM4.44498 27.1074L5.10274 28.8032C5.11816 28.8469 5.12587 28.8726 5.12587 28.8906C5.12587 28.9086 5.11559 28.9368 5.10017 28.9702C5.02566 29.1424 4.91775 29.2709 4.82782 29.3428C4.73275 29.425 4.62741 29.479 4.54519 29.5072L4.62741 29.7873C4.70706 29.7719 4.86636 29.7154 5.02309 29.5715C5.24406 29.3736 5.40079 29.0499 5.63203 28.4178L6.11764 27.1049H5.77592L5.42391 28.1866C5.38023 28.3202 5.34426 28.4589 5.31086 28.5694H5.30315C5.27489 28.4589 5.22864 28.315 5.1901 28.1943L4.79956 27.1049H4.44755L4.44498 27.1074ZM2.2456 27.85C2.27129 27.6187 2.41518 27.3053 2.74149 27.3053C3.10377 27.3053 3.19113 27.6367 3.18856 27.85H2.2456ZM3.48918 28.0915C3.49175 28.0581 3.49945 28.0042 3.49945 27.9348C3.49945 27.5956 3.34529 27.0689 2.76461 27.0689C2.2456 27.0689 1.92957 27.5057 1.92957 28.0607C1.92957 28.6157 2.25588 28.9882 2.80315 28.9882C3.08578 28.9882 3.27849 28.9266 3.39411 28.8726L3.34015 28.6337C3.21682 28.6876 3.07808 28.7287 2.84683 28.7287C2.52309 28.7287 2.2456 28.5412 2.23789 28.0889H3.48661L3.48918 28.0915ZM0.387944 27.7215H0.652589C1.00202 27.7215 1.29236 27.868 1.29236 28.2174C1.29236 28.59 0.989177 28.7159 0.657728 28.7159C0.544676 28.7159 0.452178 28.7107 0.390513 28.7005V27.7215H0.387944ZM0.387944 26.645C0.439331 26.6321 0.524121 26.6218 0.670575 26.6218C0.994316 26.6218 1.21528 26.74 1.21528 27.0406C1.21528 27.2873 1.01744 27.4697 0.678283 27.4697H0.387944V26.645ZM0.0667725 28.9445C0.172117 28.96 0.341695 28.9728 0.562661 28.9728C0.966053 28.9728 1.24611 28.8983 1.41826 28.7339C1.54416 28.608 1.62895 28.4409 1.62895 28.22C1.62895 27.8397 1.35403 27.6367 1.11765 27.5751V27.5674C1.37715 27.4672 1.53645 27.2513 1.53645 27.0047C1.53645 26.8043 1.45937 26.6501 1.3309 26.5525C1.17674 26.424 0.971191 26.3649 0.652589 26.3649C0.429054 26.3649 0.208088 26.388 0.0693418 26.4189V28.942L0.0667725 28.9445Z"/></svg>