<svg xmlns="http://www.w3.org/2000/svg" width="85" height="40" fill="none" viewBox="0 0 85 40"><g clip-path="url(#clip0_20_5859)"><path fill="#243F8E" d="M27 4.99451H22V27.9945H27V4.99451Z"/><path fill="#ED1B23" fill-rule="evenodd" d="M63.7615 27.9872C63.0677 27.9816 62.336 27.9872 61.6423 27.9209C60.233 27.794 58.9105 27.667 57.5609 27.231C56.4824 26.8888 55.5555 26.37 54.6558 25.6635C54.3848 25.4538 54.1517 25.2054 53.9078 24.9681C53.7832 24.8467 53.6639 24.7253 53.5555 24.5873C52.3848 23.1192 51.6856 21.6345 51.3333 19.78C50.7696 16.7886 50.8726 13.753 52.0162 10.8995C52.1138 10.6511 52.2276 10.4138 52.3577 10.182C53.1978 8.65317 54.2113 7.56035 55.6585 6.64415C55.962 6.45098 56.2818 6.30196 56.6016 6.13086C56.6179 6.11982 56.645 6.11982 56.6666 6.10879C56.9647 5.9984 57.2574 5.87146 57.5609 5.77211C58.9268 5.33057 60.3089 5.17051 61.729 5.04357C61.8211 5.03805 61.9133 5.04909 62.0054 5.04357C62.2493 5.03253 62.4878 4.99941 62.7317 4.99941C64.5474 4.98837 66.3686 4.99941 68.1843 4.99941C67.2303 5.9708 65.9729 7.36718 64.8509 8.56486C63.0569 8.59797 61.1165 8.44895 59.4634 9.25477C58.8401 9.55833 58.8455 9.5804 58.607 9.7791C58.2059 10.1047 58.1951 10.0992 57.8753 10.48C57.3387 11.1258 56.9756 11.7991 56.6721 12.5994C56.4769 13.1127 56.4769 13.1127 56.3306 13.775C55.859 15.9386 55.9458 18.1408 56.6504 20.2381C56.7805 20.6355 56.9647 20.9998 57.1653 21.3696C57.3225 21.6621 57.5935 22.0208 57.626 22.0429C57.6314 22.0484 57.6422 22.0595 57.6477 22.065C58.4661 23.1799 59.5555 23.7208 60.8509 24.0574C61.4526 24.212 62.3685 24.4107 62.9919 24.4162C65.3279 24.4383 67.664 24.4162 70 24.4162V27.9872C67.9187 27.9872 65.8374 28.0037 63.7615 27.9872Z" clip-rule="evenodd"/><path fill="#243F8E" fill-rule="evenodd" d="M29 27.9873C31.4618 27.9873 33.9182 28.0036 36.38 27.9873C36.721 27.9873 37.0673 27.971 37.4084 27.9438C38.8098 27.8406 40.1632 27.6668 41.506 27.2269C41.8044 27.1291 42.1028 27.0151 42.3905 26.8847C43.339 26.4502 44.1276 25.8745 44.9109 25.1793C44.9162 25.1793 44.9269 25.1684 44.9322 25.1575C45.4331 24.6307 45.8753 24.0821 46.2696 23.4684C46.4615 23.1642 46.6213 22.8492 46.7758 22.5233C47.0529 21.9259 47.2767 21.323 47.4472 20.6821C48.2199 17.7546 48.1986 14.6153 47.2821 11.7312C46.9091 10.5472 46.3549 9.56952 45.5982 8.60274C45.3958 8.34203 45.156 8.11935 44.9375 7.87494C44.9322 7.86951 44.9215 7.85864 44.9162 7.85321C44.2182 7.2449 43.5201 6.74522 42.7102 6.28898C42.6995 6.28355 42.6836 6.27269 42.6676 6.26726C42.3852 6.14777 42.1081 6.01741 41.8257 5.91422C40.3923 5.39281 38.9696 5.18641 37.4563 5.06692C36.9128 5.02347 36.364 5.00718 35.8151 5.00175C33.5452 4.98545 31.2753 5.00175 29.0053 5.00175V27.9873H29ZM41.442 21.9693C41.442 21.9693 41.458 21.9585 41.4633 21.9476C41.8044 21.4262 42.1028 20.9156 42.3159 20.3236C43.2164 17.7437 43.1844 14.7891 42.1667 12.2472C42.0708 12.0028 41.9589 11.7638 41.831 11.5411C41.3195 10.6449 40.7919 10.0583 39.95 9.49892C39.7422 9.3577 39.5131 9.24364 39.2787 9.15674C37.5949 8.50498 35.7778 8.59731 34.0035 8.59188V24.4406C36.0336 24.4189 38.0318 24.4406 39.8488 23.4466C40.5309 23.0773 40.9731 22.6048 41.442 21.9802V21.9693Z" clip-rule="evenodd"/><path fill="#F78C94" d="M78.0219 12.9945H78V14.9945H78.0219V12.9945Z"/><path fill="#243F8E" fill-rule="evenodd" d="M13.7913 22.4984C13.4478 23.5949 12.4229 24.1702 11.355 24.3276C9.28899 24.6316 7.15859 24.4959 5.07111 24.4688V18.536C7.21225 18.536 9.36412 18.4437 11.4623 18.8237C12.1868 18.9594 12.8361 19.1982 13.3459 19.7682C13.5498 19.9961 13.7376 20.2838 13.7913 20.5932C13.7913 20.6203 13.7966 20.6529 13.8127 20.6801C13.8127 20.6801 13.8342 20.6746 13.8342 20.6801C13.9415 21.2826 13.9469 21.8091 13.8342 22.4116C13.8342 22.417 13.8181 22.4116 13.8127 22.4116C13.802 22.4387 13.802 22.4658 13.7913 22.4984ZM5.07111 14.2154V8.65173C6.64343 8.65173 8.22111 8.61374 9.78805 8.66259C11.0062 8.70058 12.1653 8.82 12.9112 9.87302C13.5283 10.7415 13.523 11.8868 12.9327 12.7607C12.5248 13.3686 11.9721 13.678 11.2745 13.8408C9.2246 14.3131 7.16932 14.2099 5.07111 14.2154ZM9.13337 5.00958C9.6539 5.00958 10.1798 5.04215 10.7003 5.08558C12.5624 5.23213 14.2259 5.48182 15.8412 6.45342C16.6086 6.92022 17.1237 7.43587 17.5906 8.22293C18.6102 9.94901 18.7121 12.1528 17.6926 13.8951C17.435 14.3402 17.1076 14.693 16.7105 15.0187C16.0666 15.5398 15.369 15.8655 14.5909 16.1314C14.2367 16.2509 14.2313 16.2346 14.2098 16.2563C15.0094 16.4734 15.7446 16.7177 16.4744 17.1139C16.9466 17.3744 17.333 17.6675 17.7033 18.0584C18.1862 18.5686 18.4921 19.0842 18.7282 19.7573C18.9858 20.4901 19.0341 21.1957 18.9805 21.961C18.9107 23.0358 18.6263 23.8934 18.0467 24.8053C17.9448 24.9627 17.8321 25.1147 17.7086 25.2558C17.1291 25.9343 16.5012 26.4554 15.707 26.8516C14.6713 27.3727 13.6571 27.6332 12.5087 27.7961C11.7736 27.8992 11.0277 27.9698 10.2871 27.9752C6.85808 28.0186 3.42904 27.9752 0 27.9752V5.00416C3.04267 5.00416 6.07997 4.98244 9.12264 5.00416L9.13337 5.00958Z" clip-rule="evenodd"/><path fill="#F7525A" fill-rule="evenodd" d="M73 10.9942C73.0109 10.6625 73.0219 10.3308 73.0328 9.99451C73.0219 10.6732 73.0109 11.0065 73 10.9942Z" clip-rule="evenodd"/><path fill="#FFC5CE" fill-rule="evenodd" d="M73 10.9579H73.0219V9.99451H73.0437C73.0437 10.3299 73.0437 10.6591 73.0328 10.9945C73.0219 10.9823 73.0109 10.9701 73 10.9579Z" clip-rule="evenodd"/><path fill="#F7525A" fill-rule="evenodd" d="M77 7.99451H77.0219V8.96259H77.0437C77.0437 8.96259 77.0219 8.98387 77.0109 8.99451C77.0109 8.66472 77.0055 8.32961 77 7.99983V7.99451Z" clip-rule="evenodd"/><path fill="#F7525A" d="M72.0219 8.99451H72V9.99451H72.0219V8.99451Z"/><path fill="#F7525A" d="M73.0219 5.99451H73V6.99451H73.0219V5.99451Z"/><path fill="#F7525A" fill-rule="evenodd" d="M76.8856 5.46277H76.9074V5.72524H76.9293C76.9238 5.8018 76.9129 5.87835 76.9074 5.94944H76.8856V5.46277Z" clip-rule="evenodd"/><path fill="#FFC5CE" fill-rule="evenodd" d="M74.1934 4.84482H74.2153V4.21051H74.2372V4.8667C74.208 4.8667 74.1934 4.85941 74.1934 4.84482Z" clip-rule="evenodd"/><path fill="#F78C94" fill-rule="evenodd" d="M74.3955 3.609C74.4064 3.44495 74.4173 3.2809 74.4283 3.11139C74.4173 3.46135 74.4064 3.62722 74.3955 3.609Z" clip-rule="evenodd"/><path fill="#EF1921" fill-rule="evenodd" d="M71.5123 11.0075C71.5123 10.7779 71.5178 10.5482 71.5232 10.3185C71.8509 10.3404 72.0638 10.3677 72.3314 10.5591C72.6208 10.8599 72.9048 11.1606 73.1942 11.4614C73.1942 11.4614 73.2051 11.0658 73.2269 10.2748C73.7948 9.74983 74.3464 9.15379 75.0235 8.76555C75.4221 8.64525 75.575 8.69993 75.9409 8.90772C76.4705 9.33971 76.9675 9.79357 77.4753 10.2474C77.4862 10.663 77.4917 11.0731 77.5026 11.4833C77.7483 11.2153 77.9886 10.9528 78.2343 10.6849C78.5565 10.4005 78.7476 10.3513 79.1736 10.3185C79.1736 10.4935 79.1735 10.663 79.1845 10.838C79.1517 11.2427 79.0916 11.5707 78.9442 11.9535C78.7367 12.3418 78.5292 12.7355 78.3272 13.1237C78.3272 13.1784 78.3272 13.2276 78.3272 13.2823C78.3818 13.2823 78.4418 13.2823 78.4964 13.2878V14.9501H72.2276V13.2878C72.2822 13.2878 72.3423 13.2823 72.4024 13.2768C72.4024 13.2276 72.3969 13.1784 72.3915 13.1237C72.1075 12.6152 71.6543 11.9863 71.5341 11.3848C71.5287 11.2591 71.5178 11.1388 71.5068 11.013L71.5123 11.0075ZM77.661 11.0731C77.6555 10.7833 77.6446 10.488 77.6391 10.1982C77.0384 9.62953 76.3613 8.89679 75.5914 8.54682C75.5259 8.54682 75.504 8.52495 75.2255 8.52495C75.2255 8.52495 75.1436 8.55411 74.9798 8.61244C74.259 9.03349 73.6856 9.64046 73.074 10.1982H73.0522V11.0622H73.0304C72.9812 11.013 72.9321 10.9583 72.8829 10.9091C72.5498 10.3131 72.1676 9.82092 72.1239 9.13739V8.51401C72.4679 8.54682 72.5771 8.55776 72.8611 8.74915C73.0904 8.99522 73.3198 9.24675 73.5491 9.49282C73.5546 9.15379 73.5655 8.81476 73.571 8.4812C74.0733 8.02187 74.5429 7.50786 75.1436 7.1743C75.6514 7.0704 75.9299 7.38756 76.3067 7.69378C76.5852 7.95625 76.8692 8.21326 77.1477 8.47027C77.1477 8.8093 77.1531 9.15379 77.1586 9.49282C77.1695 9.48189 77.1804 9.47095 77.1913 9.46001C77.4971 9.12098 77.8466 8.54135 78.3545 8.54135C78.3545 8.54135 78.4236 8.53406 78.562 8.51948C78.562 9.08817 78.5401 9.52016 78.2998 10.0342C78.1033 10.3896 77.9613 10.7943 77.661 11.0677V11.0731ZM73.6966 7.77033C73.702 7.45865 73.7129 7.14696 73.7184 6.8298C74.1552 6.42515 74.5976 5.94942 75.1218 5.65414C75.5914 5.56118 75.788 5.75803 76.1647 6.06425C76.4432 6.32126 76.7163 6.5728 76.9948 6.8298C76.9948 7.14149 77.0057 7.45865 77.0166 7.77033C77.235 7.52973 77.4589 7.28913 77.6773 7.054C77.8958 6.91182 78.0377 6.90089 78.3053 6.88448V7.37662C78.2507 7.82502 78.1579 8.07109 77.9558 8.47027C77.8739 8.53042 77.7975 8.59057 77.7156 8.65072C77.65 8.72727 77.377 9.02802 77.3169 9.08271C77.3115 8.85851 77.3006 8.62884 77.2951 8.40465C76.7545 7.89064 76.2521 7.37116 75.5914 7.01572C75.5259 7.01572 75.504 6.99385 75.2037 6.99385C75.1818 7.01572 75.1163 7.01572 74.8105 7.17977C74.3191 7.56254 73.8713 7.97813 73.4126 8.40465C73.4126 8.62884 73.4017 8.85851 73.3907 9.08271C73.2761 8.97881 73.085 8.8257 73.014 8.69446C72.4078 8.21326 72.386 7.60629 72.386 6.87902C72.6536 6.90089 72.7901 6.91182 73.003 7.04853C73.2324 7.28913 73.4617 7.52973 73.6911 7.77033H73.6966ZM72.8119 6.1244V5.58305C72.9594 5.58852 73.0631 5.61586 73.1996 5.63773C73.338 5.75074 73.5782 5.97858 73.9204 6.32126C73.9204 6.05878 73.9259 5.79631 73.9314 5.52837C74.2754 5.23308 74.6139 4.9378 74.9634 4.63705C75.3566 4.40738 75.5095 4.53315 75.8699 4.76282C76.0446 4.92139 76.5852 5.41353 76.7327 5.52837C76.7327 5.79084 76.7436 6.05332 76.7436 6.31579C77.1477 5.90021 77.2896 5.62133 77.8412 5.57211C77.8357 5.85099 77.8357 6.11346 77.7811 6.38688C77.7083 6.58373 77.6136 6.79335 77.4971 7.01572C77.3825 7.13055 77.2733 7.24539 77.164 7.36022C77.1586 7.16336 77.1477 6.96651 77.1422 6.76965C76.82 6.47437 76.4978 6.17908 76.1702 5.8838C75.6842 5.51196 75.433 5.32604 74.8487 5.63773C74.401 5.97129 73.9969 6.37047 73.5873 6.74778C73.5709 6.75325 73.5546 6.75871 73.5436 6.75871C73.5436 6.96651 73.5382 7.17977 73.5327 7.38756C73.1778 6.99932 72.8556 6.66029 72.8119 6.1244ZM75.9136 4.5933C75.5695 4.39098 75.5149 4.34176 75.1382 4.3691C74.6194 4.66439 74.2317 5.09091 73.7675 5.46822V5.66507H73.7348C73.5764 5.36432 73.4181 5.08544 73.3198 4.76828C73.3198 4.59877 73.3198 4.43472 73.3198 4.26521C73.7675 4.26521 73.8931 4.52768 74.1935 4.85578C74.1935 4.85578 74.208 4.86307 74.2371 4.87765V4.22146C74.5539 3.93165 74.8651 3.6309 75.231 3.40123C75.4057 3.37389 75.5368 3.43404 75.6842 3.52153C75.9718 3.76578 76.2321 3.99727 76.4651 4.21599C76.476 4.43472 76.4815 4.64798 76.4924 4.86671C76.6835 4.65345 76.8528 4.4566 77.0821 4.28708C77.1695 4.28708 77.1859 4.26521 77.3715 4.26521C77.3715 4.42379 77.3606 4.5769 77.3552 4.73548C77.2569 5.10185 77.0985 5.39713 76.9292 5.73616H76.9074V5.47368C76.8036 5.39166 76.0446 4.7136 75.919 4.59877L75.9136 4.5933ZM74.3955 3.61449C74.3955 3.61449 74.4119 3.64183 74.4283 3.11688C74.6958 2.87628 74.9416 2.56459 75.2965 2.46617C75.6678 2.50991 75.9518 2.89269 76.2194 3.12782C76.2248 3.2864 76.2303 3.45044 76.2412 3.61449C76.476 3.37389 76.5961 3.16063 76.9402 3.16063C76.9238 3.58715 76.891 3.83322 76.6344 4.18865C76.5761 4.11574 76.3231 3.87697 75.8753 3.47232C75.4166 3.14969 75.2255 3.19891 74.816 3.49966C74.5702 3.71292 74.33 3.92618 74.0897 4.13944C74.0842 4.19959 74.0733 4.25427 74.0624 4.31442C73.9368 4.09023 73.7512 3.85509 73.6966 3.59809C73.6966 3.45044 73.6966 3.30827 73.6966 3.16063C74.0351 3.16063 74.1716 3.39029 74.4064 3.61449H74.3955ZM76.192 2.9255C76.0064 2.72317 75.777 2.59193 75.5641 2.41695C75.2692 2.29118 75.1655 2.3404 74.9033 2.50444C74.6795 2.68489 74.4993 2.86535 74.461 2.88175C74.461 2.69583 74.3027 2.49897 74.2153 2.33493C74.2007 2.2365 74.1916 2.10891 74.188 1.95215C74.472 1.95215 74.472 2.14354 74.6958 2.27478C74.6958 2.16541 74.7013 2.05058 74.7068 1.94122C74.9088 1.7553 75.089 1.56391 75.3402 1.46001C75.5695 1.55297 75.788 1.7717 75.9736 1.94122C75.9736 2.05058 75.9791 2.16541 75.9845 2.27478C76.1538 2.1162 76.2467 1.95215 76.4924 1.95215C76.4815 2.08886 76.4705 2.22556 76.4596 2.36227C76.3613 2.55366 76.2521 2.70677 76.2248 2.9255H76.192ZM75.1382 19.3247C74.8651 19.2153 74.7177 19.1169 74.4938 18.9255C73.003 17.4327 71.5068 15.9398 70.0161 14.447L69.4973 13.933C68.3178 12.7464 67.1329 11.5598 65.9534 10.3732C65.6585 9.89747 65.5985 9.54204 65.8879 9.03896C67.0947 7.83049 68.296 6.62201 69.4973 5.41353C69.5028 5.40807 69.5137 5.39713 69.5192 5.39166C72.2713 2.64115 73.6638 1.22488 74.7286 0.185919C74.887 0.109364 75.018 0.0492139 75.1818 0H75.504C75.6606 0.0510367 75.7971 0.103896 75.9136 0.158578C76.4214 0.661654 76.9292 1.15926 77.4425 1.65687C77.4425 1.66234 77.4535 1.67327 77.4644 1.67874L82.3079 6.52905C83.138 7.36569 83.968 8.19686 84.7925 9.03349C84.8963 9.21941 84.9454 9.36159 85 9.56938V9.74436C84.9236 10.0451 84.8581 10.1928 84.6669 10.4334C83.3345 11.7621 82.0021 13.0909 80.6698 14.4252C80.6643 14.4306 80.6588 14.4416 80.6479 14.447C79.5886 15.5133 78.5237 16.5742 77.4589 17.6405C77.4535 17.6459 77.4425 17.6569 77.4371 17.6623C76.9511 18.1435 76.4596 18.6302 75.9736 19.1169C75.8317 19.2098 75.6951 19.2591 75.5422 19.3192H75.1327L75.1382 19.3247Z" clip-rule="evenodd"/><path fill="#243F8E" d="M39.9446 38.2885C39.8135 38.2885 39.6989 38.2447 39.606 38.1627C39.5132 38.0807 39.4641 37.9604 39.4641 37.8127C39.4641 37.6815 39.5132 37.5721 39.606 37.4901C39.6989 37.4026 39.8081 37.3589 39.9337 37.3589C40.032 37.3589 40.1139 37.3862 40.1958 37.4354C40.2722 37.4901 40.3323 37.5667 40.376 37.6706C40.4197 37.7745 40.4415 37.9002 40.4415 38.0533C40.4415 38.2611 40.3978 38.4471 40.3159 38.6275C40.234 38.8025 40.1303 38.9447 40.0101 39.0486C39.89 39.1525 39.7862 39.2071 39.688 39.2071C39.6279 39.2071 39.5787 39.1853 39.5351 39.1415C39.4968 39.0978 39.4804 39.054 39.4804 38.9939C39.4804 38.9119 39.5187 38.8408 39.6006 38.7916C39.8299 38.6603 39.9446 38.4908 39.9446 38.2885ZM84.1975 36.5605C84.1975 36.6754 84.192 36.7738 84.1647 36.8722C84.0391 37.4026 83.6186 37.7198 83.1599 37.7198C82.4173 37.7198 82.046 37.0636 82.046 36.2707C82.046 35.4067 82.4664 34.756 83.1763 34.756C83.6896 34.756 84.0609 35.1279 84.1647 35.5817C84.1865 35.6747 84.1975 35.795 84.1975 35.8825V36.5605ZM84.1975 32.4539V34.7943H84.1811C84.0118 34.4771 83.6186 34.1983 83.0453 34.1983C82.1224 34.1983 81.3416 34.9966 81.3525 36.3035C81.3525 37.4956 82.0569 38.2939 82.9688 38.2939C83.5859 38.2939 84.0446 37.9604 84.2575 37.5229H84.2739L84.3067 38.2065H84.9237C84.9019 37.9385 84.891 37.5393 84.891 37.1948V32.4594H84.2029L84.1975 32.4539ZM77.2952 38.201H77.9833V35.8442C77.9833 35.7239 77.9997 35.6036 78.027 35.5106C78.1416 35.1169 78.4966 34.7834 78.9443 34.7834C79.5942 34.7834 79.818 35.3083 79.818 35.9426V38.201H80.5061V35.8606C80.5061 34.5154 79.6925 34.1928 79.1737 34.1928C78.5512 34.1928 78.1143 34.5592 77.9232 34.931H77.9068L77.8686 34.2857H77.257C77.2788 34.6084 77.2898 34.9419 77.2898 35.3466V38.2065L77.2952 38.201ZM75.526 36.8831C75.526 36.9542 75.5096 37.0363 75.4878 37.1073C75.3786 37.4409 75.0673 37.7635 74.5759 37.7635C74.2264 37.7635 73.926 37.5448 73.926 37.08C73.926 36.3199 74.7779 36.1832 75.526 36.1942V36.8777V36.8831ZM76.2523 38.201C76.2031 37.933 76.1867 37.5995 76.1867 37.2605V35.795C76.1867 35.0076 75.9082 34.1928 74.7506 34.1928C74.2755 34.1928 73.8223 34.3295 73.511 34.5428L73.6694 35.013C73.9315 34.838 74.3028 34.7232 74.6523 34.7232C75.4277 34.7232 75.5096 35.3028 75.5096 35.6309V35.713C74.0516 35.7075 73.238 36.2215 73.238 37.173C73.238 37.7417 73.6257 38.2994 74.3956 38.2994C74.9308 38.2994 75.3403 38.026 75.5533 37.7198H75.5751L75.6297 38.2119H76.2523V38.201ZM69.2081 38.201H69.8961V35.8333C69.8961 35.6965 69.9016 35.5926 69.9452 35.4942C70.0708 35.106 70.4203 34.7834 70.8681 34.7834C71.5179 34.7834 71.7418 35.3192 71.7418 35.9481V38.201H72.4244V35.8715C72.4244 34.5154 71.6162 34.1928 71.1084 34.1928C70.8517 34.1928 70.6114 34.2748 70.4094 34.3951C70.2019 34.5154 70.0272 34.6959 69.9179 34.8982H69.9016V32.4539H69.2135V38.201H69.2081ZM65.0034 38.201H65.6805V36.1121C65.6805 35.9918 65.6969 35.877 65.7133 35.7786C65.8061 35.2482 66.1501 34.8654 66.6361 34.8654C66.7289 34.8654 66.7999 34.8708 66.8709 34.8927V34.2201C66.8109 34.2037 66.7562 34.1983 66.6743 34.1983C66.2102 34.1983 65.8006 34.5263 65.6259 35.0568H65.5931L65.5713 34.2857H64.9706C64.9925 34.6521 65.0034 35.0458 65.0034 35.5052V38.201ZM63.8621 34.2803H63.1741V36.6863C63.1741 36.8175 63.1522 36.9488 63.114 37.0527C62.9884 37.3698 62.6717 37.7034 62.2075 37.7034C61.585 37.7034 61.3666 37.2003 61.3666 36.4566V34.2857H60.6786V36.5769C60.6786 37.9495 61.3885 38.2939 61.9837 38.2939C62.6553 38.2939 63.0539 37.8784 63.2341 37.5667H63.2505L63.2887 38.2065H63.9003C63.8785 37.8948 63.8676 37.5393 63.8676 37.1402V34.2912L63.8621 34.2803ZM58.0029 34.7232C58.8165 34.7232 59.1332 35.5653 59.1332 36.2324C59.1332 37.1128 58.6418 37.7526 57.9865 37.7526C57.3312 37.7526 56.8398 37.1073 56.8398 36.2488C56.8398 35.5052 57.1947 34.7232 58.0029 34.7232ZM58.0193 34.1928C56.9708 34.1928 56.1463 34.9638 56.1463 36.2707C56.1463 37.512 56.9326 38.2885 57.9537 38.2885C58.8656 38.2885 59.8376 37.6596 59.8376 36.2051C59.8376 35.0076 59.1005 34.1928 58.0193 34.1928ZM52.3238 34.2803L53.7217 37.8893C53.7545 37.9823 53.7709 38.0369 53.7709 38.0752C53.7709 38.1135 53.7491 38.1736 53.7163 38.2447C53.5579 38.6111 53.3286 38.8845 53.1375 39.0376C52.9354 39.2126 52.7115 39.3274 52.5368 39.3876L52.7061 39.9836C52.8753 39.9508 53.2139 39.8305 53.547 39.5243C54.0166 39.1032 54.3497 38.4143 54.8412 37.0691L55.8678 34.2748H55.1415L54.3934 36.5769C54.3006 36.8613 54.2241 37.1566 54.1531 37.3917H54.1368C54.0767 37.1566 53.9839 36.8503 53.8965 36.5933L53.0665 34.2748H52.3184L52.3238 34.2803ZM46.9943 34.2803L48.3922 37.8893C48.4249 37.9823 48.4413 38.0369 48.4413 38.0752C48.4413 38.1135 48.4195 38.1736 48.3867 38.2447C48.2284 38.6111 47.9936 38.8845 47.8079 39.0376C47.6059 39.2126 47.3765 39.3274 47.2072 39.3876L47.3765 39.9836C47.5458 39.9508 47.8843 39.8305 48.2174 39.5243C48.6871 39.1032 49.0201 38.4143 49.5116 37.0691L50.5382 34.2748H49.8119L49.0638 36.5769C48.971 36.8613 48.8946 37.1566 48.8236 37.3917H48.8072C48.7471 37.1566 48.6543 36.8503 48.5669 36.5933L47.7369 34.2748H46.9888L46.9943 34.2803ZM43.7834 35.9207C43.7834 35.8114 43.8053 35.7075 43.8216 35.6309C43.9636 35.0896 44.4005 34.756 44.8701 34.756C45.6073 34.756 45.995 35.4286 45.995 36.2106C45.995 37.1073 45.569 37.7198 44.8482 37.7198C44.3513 37.7198 43.9472 37.3808 43.8162 36.8831C43.7998 36.8011 43.7834 36.7136 43.7834 36.6207V35.9153V35.9207ZM43.6687 38.1955L43.7015 37.5503H43.7234C44.0018 38.0698 44.4442 38.2885 44.9848 38.2885C45.8312 38.2885 46.6775 37.594 46.6775 36.1887C46.683 34.9966 46.0223 34.1873 45.0885 34.1873C44.4824 34.1873 44.0401 34.4717 43.7998 34.9091H43.7834V32.4484H43.1063V37.1839C43.1063 37.5339 43.0899 37.9276 43.0735 38.1955H43.6633H43.6687ZM36.0348 35.8551C36.0894 35.363 36.3952 34.6959 37.0887 34.6959C37.8586 34.6959 38.0443 35.4013 38.0388 35.8551H36.0348ZM38.6777 36.3691C38.6832 36.298 38.6996 36.1832 38.6996 36.0356C38.6996 35.3138 38.3719 34.1928 37.1378 34.1928C36.0348 34.1928 35.3631 35.1224 35.3631 36.3035C35.3631 37.4847 36.0566 38.2775 37.2198 38.2775C37.8204 38.2775 38.2354 38.1463 38.4757 38.0315L38.361 37.5229C38.1044 37.6378 37.804 37.7253 37.3126 37.7253C36.6245 37.7253 36.0348 37.3261 36.0184 36.3637H38.6723L38.6777 36.3691ZM33.8178 36.5551C33.8178 36.6699 33.8123 36.7683 33.785 36.8667C33.6594 37.3972 33.239 37.7143 32.7803 37.7143C32.0431 37.7143 31.6663 37.0581 31.6663 36.2652C31.6663 35.4013 32.0868 34.7505 32.7966 34.7505C33.3154 34.7505 33.6867 35.1224 33.7905 35.5762C33.8123 35.6692 33.8232 35.7895 33.8232 35.877V36.5551H33.8178ZM33.8178 32.4484V34.7888H33.8014C33.6321 34.4717 33.239 34.1928 32.6601 34.1928C31.7428 34.1928 30.9619 34.9911 30.9673 36.298C30.9673 37.4901 31.6718 38.2885 32.5837 38.2885C33.2007 38.2885 33.6594 37.9549 33.8724 37.5175H33.8888L33.9215 38.201H34.5386C34.5167 37.933 34.5058 37.5339 34.5058 37.1894V32.4539H33.8178V32.4484ZM29.7605 32.7328C29.5094 32.7328 29.3346 32.9296 29.3346 33.1757C29.3346 33.4218 29.5039 33.6132 29.7496 33.6132C30.0227 33.6132 30.1919 33.4218 30.1865 33.1757C30.1865 32.9242 30.0227 32.7328 29.766 32.7328H29.7605ZM29.4165 38.201H30.0991V34.2803H29.4165V38.201ZM26.0582 38.0151C26.3204 38.1736 26.7081 38.283 27.1176 38.283C28.0131 38.283 28.5319 37.7963 28.5319 37.1073C28.5319 36.5277 28.1988 36.1832 27.5381 35.9262C27.0466 35.7348 26.8227 35.5872 26.8227 35.2646C26.8227 34.9747 27.0466 34.7287 27.4507 34.7287C27.8056 34.7287 28.0787 34.8599 28.2261 34.9529L28.3954 34.4334C28.1824 34.3022 27.8493 34.1928 27.4671 34.1928C26.6589 34.1928 26.162 34.7123 26.162 35.3411C26.162 35.8114 26.4842 36.1996 27.1613 36.4512C27.6691 36.648 27.8657 36.8285 27.8657 37.173C27.8657 37.5175 27.6309 37.7526 27.1285 37.7526C26.7845 37.7526 26.4241 37.605 26.2221 37.4682L26.0528 38.0096L26.0582 38.0151ZM22.1157 38.201H22.7983V36.1121C22.7983 35.9918 22.8146 35.877 22.831 35.7786C22.9239 35.2482 23.2679 34.8654 23.7484 34.8654C23.8412 34.8654 23.9122 34.8708 23.9832 34.8927V34.2201C23.9231 34.2037 23.8685 34.1983 23.7866 34.1983C23.3279 34.1983 22.9129 34.5263 22.7437 35.0568H22.7109L22.689 34.2857H22.0884C22.1102 34.6521 22.1211 35.0458 22.1211 35.5052V38.201H22.1157ZM20.9744 34.2803H20.2918V36.6863C20.2918 36.8175 20.27 36.9488 20.2318 37.0527C20.1062 37.3698 19.784 37.7034 19.3253 37.7034C18.7028 37.7034 18.4844 37.2003 18.4844 36.4566V34.2857H17.8018V36.5769C17.8018 37.9495 18.5117 38.2939 19.1069 38.2939C19.7785 38.2939 20.1772 37.8784 20.3574 37.5667H20.3737L20.412 38.2065H21.0181C20.9963 37.8948 20.9853 37.5393 20.9853 37.1402V34.2912L20.9744 34.2803ZM15.1152 34.7232C15.9233 34.7232 16.2455 35.5653 16.2455 36.2324C16.2455 37.1128 15.7541 37.7526 15.0988 37.7526C14.4435 37.7526 13.9521 37.1073 13.9521 36.2488C13.9521 35.5052 14.3015 34.7232 15.1152 34.7232ZM15.1315 34.1928C14.0831 34.1928 13.2586 34.9638 13.2586 36.2707C13.2586 37.512 14.0449 38.2885 15.0715 38.2885C15.9834 38.2885 16.9499 37.6596 16.9499 36.2051C16.9499 35.0076 16.2182 34.1928 15.1315 34.1928ZM9.43612 34.2803L10.834 37.8893C10.8668 37.9823 10.8832 38.0369 10.8832 38.0752C10.8832 38.1135 10.8613 38.1736 10.8286 38.2447C10.6702 38.6111 10.4409 38.8845 10.2498 39.0376C10.0477 39.2126 9.82382 39.3274 9.64909 39.3876L9.82382 39.9836C9.9931 39.9508 10.3317 39.8305 10.6648 39.5243C11.1344 39.1032 11.4675 38.4143 11.9589 37.0691L12.991 34.2748H12.2647L11.5166 36.5769C11.4238 36.8613 11.3473 37.1566 11.2764 37.3917H11.26C11.1999 37.1566 11.1016 36.8503 11.0197 36.5933L10.1897 34.2748H9.44158L9.43612 34.2803ZM4.76183 35.8606C4.81644 35.3685 5.12223 34.7013 5.81573 34.7013C6.58568 34.7013 6.77134 35.4067 6.76588 35.8606H4.76183ZM7.40477 36.3746C7.41023 36.3035 7.42661 36.1887 7.42661 36.041C7.42661 35.3192 7.09898 34.1983 5.86488 34.1983C4.76183 34.1983 4.09017 35.1279 4.09017 36.309C4.09017 37.4901 4.78367 38.283 5.94679 38.283C6.54745 38.283 6.957 38.1518 7.20273 38.0369L7.08805 37.5284C6.82594 37.6432 6.53107 37.7307 6.03962 37.7307C5.35158 37.7307 4.76183 37.3315 4.74545 36.3691H7.39931L7.40477 36.3746ZM0.813803 35.5872H1.37625C2.11889 35.5872 2.73594 35.8989 2.73594 36.6425C2.73594 37.4354 2.09159 37.7034 1.38717 37.7034C1.1469 37.7034 0.950318 37.6924 0.819264 37.6706V35.5872H0.813803ZM0.813803 33.296C0.923015 33.2687 1.10322 33.2468 1.41447 33.2468C2.10251 33.2468 2.57212 33.4983 2.57212 34.1381C2.57212 34.6631 2.15165 35.0513 1.43085 35.0513H0.813803V33.296ZM0.131226 38.1901C0.355111 38.2229 0.715512 38.2502 1.18513 38.2502C2.04244 38.2502 2.63765 38.0916 3.00351 37.7417C3.27108 37.4737 3.45128 37.1183 3.45128 36.648C3.45128 35.8387 2.867 35.4067 2.36462 35.2755V35.2591C2.91614 35.0458 3.2547 34.5865 3.2547 34.0615C3.2547 33.635 3.09088 33.3069 2.81785 33.0991C2.49021 32.8257 2.05336 32.7 1.37625 32.7C0.901173 32.7 0.43156 32.7492 0.136686 32.8148V38.1846L0.131226 38.1901Z"/></g><defs><clipPath id="clip0_20_5859"><rect width="85" height="39.984" fill="#fff"/></clipPath></defs></svg>