<svg xmlns="http://www.w3.org/2000/svg" width="125" height="40" fill="none" viewBox="0 0 125 40"><g clip-path="url(#clip0_3_52)"><path fill="#FFC72F" d="M101.328 22.0977C101.683 20.565 102.537 19.0872 103.502 17.8591C103.85 17.4156 104.853 16.713 104.797 16.1016C104.735 15.4083 103.684 14.5823 103.283 14.0341C102.406 12.8403 101.761 11.435 101.393 10.0028C101.277 9.55203 100.877 8.51571 101.134 8.08357C101.38 7.66904 102.373 7.81309 102.777 7.84107C103.854 7.91465 104.945 8.08046 105.983 8.37892C106.481 8.52193 107.219 8.93438 107.738 8.82868C108.457 8.68256 109.132 7.31565 109.614 6.79853C110.794 5.53215 112.275 4.43055 113.846 3.69684C113.482 2.83669 112.708 2.12578 111.984 1.5558C107.924 -1.64642 101.519 0.326733 100.077 5.3508C99.3439 7.90843 99.9807 10.7697 101.148 13.1045C101.488 13.7833 101.897 14.46 102.351 15.0683C102.562 15.3502 102.994 15.7233 102.994 16.1026C102.994 16.5347 102.436 17.0187 102.194 17.3431C101.462 18.3193 100.87 19.4064 100.44 20.5474C100.326 20.8479 99.9734 21.5091 100.196 21.8148C100.391 22.079 101.03 22.0593 101.328 22.0977ZM101.639 8.45146C101.676 10.235 103.765 9.7054 105.157 10.0515C106.038 10.2712 107.699 11.3998 108.549 11.206C109.168 11.0651 109.921 9.26808 110.338 8.76235C111.715 7.09388 113.359 6.11042 115.192 5.04094C115.545 6.33012 116.064 7.5167 116.21 8.86599C116.299 9.67535 116.07 11.0101 116.393 11.7376C116.552 12.0931 117.037 12.1501 117.366 12.263C118.192 12.5501 118.987 12.8931 119.745 13.3263C120.626 13.8289 121.472 14.4072 122.228 15.086C122.475 15.3077 122.865 15.8622 123.254 15.7565C123.705 15.6342 123.99 14.829 124.162 14.4486C124.815 12.9988 125.155 11.3759 124.932 9.7966C124.355 5.699 120.654 3.11546 116.642 3.3963C114.014 3.58077 111.687 5.42334 109.918 7.21202C109.397 7.73951 108.667 9.30435 107.992 9.53234C107.532 9.68779 106.56 9.08154 106.091 8.95718C104.596 8.56234 103.176 8.45146 101.639 8.45146ZM113.743 6.28037C114 8.02657 114.509 9.53648 114.465 11.3459C114.453 11.8288 114.035 12.9532 114.425 13.3253C114.873 13.7512 116.143 13.7833 116.743 13.9844C118.123 14.4486 119.435 15.173 120.571 16.0819C120.949 16.3855 122.013 17.1099 122.013 17.6436C122.013 18.0747 121.091 18.5441 120.778 18.7535C119.878 19.3535 118.897 19.8592 117.882 20.2323C117.43 20.3971 116.63 20.4821 116.289 20.8303C115.872 21.2552 116.159 22.4708 116.093 23.0293C115.853 25.0564 114.813 26.7798 114.468 28.7156C116.028 29.2141 117.718 29.4244 119.33 29.0358C124.884 27.699 126.208 21.136 123.226 16.827C122.162 15.2891 120.303 14.0476 118.606 13.2983C117.951 13.0081 116.184 12.7553 115.817 12.1521C115.441 11.5355 115.725 10.1945 115.709 9.48778C115.678 8.23798 115.329 6.926 114.882 5.76636L113.743 6.28037Z"/><path fill="#016B69" d="M18.5654 23.1309C20.0277 22.4832 21.3105 21.9578 22.3393 20.65C24.6654 17.6965 24.3388 12.6009 21.4619 10.1366C17.5076 6.7478 10.7614 7.93438 5.94423 7.93438H2.32278C1.76587 7.93438 1.14881 7.85562 0.672798 8.20797C-0.265752 8.90437 0.150114 11.0319 0.150114 12.0693V34.8123C0.150114 35.9813 -0.299975 38.3555 0.358565 39.3503C1.03888 40.3794 3.8172 39.8778 4.90924 39.8778H13.0824C15.1493 39.8778 17.2089 39.9701 19.1866 39.2519C21.1923 38.5234 22.891 37.2248 23.9136 35.3284C26.4897 30.551 23.8959 24.3517 18.5654 23.1309ZM5.73682 12.3802H11.841C13.3634 12.3802 14.9263 12.3449 16.289 13.1398C18.9512 14.6912 18.554 19.3411 15.9789 20.764C14.7251 21.4562 13.323 21.3744 11.9447 21.3744H5.73682V12.3802ZM16.8065 34.7843C15.3349 35.5201 13.7472 35.432 12.1511 35.432H5.73682V25.301H12.0474C13.7129 25.301 15.4117 25.2606 16.9102 26.1155C20.0557 27.9104 20.1106 33.1324 16.8065 34.7843ZM32.1541 8.4629C31.7403 7.92402 31.0777 7.93438 30.4627 7.93438H26.8423V37.087C26.8423 37.7886 26.6411 38.8602 27.116 39.4426C27.5132 39.9286 28.1396 39.8778 28.7038 39.8778H32.4279V10.9324C32.4279 10.1915 32.6353 9.0878 32.1541 8.4629ZM62.2313 19.6157C61.8123 17.1058 60.8769 14.5917 59.2798 12.5864C55.7963 8.21108 50.8204 7.93438 45.6703 7.93438H38.4284C37.5656 7.93438 36.2921 7.68567 35.6874 8.46187C35.228 9.0536 35.4282 10.1262 35.4282 10.8288V39.8778H45.774C48.0908 39.8778 50.4346 40.0374 52.7058 39.5006C61.4224 37.4394 63.5069 27.2544 62.2313 19.6157ZM55.9809 29.6442C55.4157 31.4059 54.4605 33.0433 52.9122 34.1128C49.7045 36.3305 44.7079 35.4331 41.0149 35.4331V12.3802C44.7193 12.3802 49.7004 11.5169 52.9122 13.7699C57.4307 16.9389 57.5064 24.8813 55.9809 29.6442ZM93.3227 8.25979C93.2086 7.66805 91.3429 7.93438 90.8793 7.93438C88.6196 7.93438 85.8039 7.44835 84.4101 9.69198C82.8711 12.1698 82.2478 15.6166 81.3269 18.3753C79.5255 23.7745 77.525 29.1281 75.9818 34.6061C75.3762 33.005 75.0132 31.2743 74.4646 29.6442C72.8758 24.9248 71.2828 20.2054 69.7055 15.4819C69.1641 13.859 68.5937 12.2455 68.0503 10.6226C67.7827 9.82048 67.6085 8.83391 66.8763 8.3116C65.5624 7.37581 62.6389 7.93438 61.0853 7.93438C61.4618 10.4443 62.8027 13.0807 63.6365 15.4808C65.5375 20.9526 67.4602 26.4233 69.2927 31.9179C69.8807 33.6796 70.4667 35.4507 71.1159 37.1906C71.51 38.2477 71.9507 39.2446 73.0863 39.6623C74.5237 40.1898 76.4361 39.8778 77.9491 39.8778C78.4023 39.8778 79.2683 40.0426 79.6551 39.7711C80.1031 39.4571 80.267 38.4094 80.4319 37.913C80.9629 36.3212 81.5561 34.7491 82.0871 33.1573C84.0813 27.1788 86.1348 21.192 88.2991 15.2725C88.9463 13.5025 89.6919 11.49 91.1905 10.2547C91.7194 9.82048 93.4886 9.11267 93.3227 8.25979Z"/><path fill="#FFC72F" d="M112.915 26.3352C111.677 25.5621 110.569 24.4325 109.744 23.2335C109.417 22.7588 108.948 21.4562 108.426 21.2303C107.749 20.938 106.072 21.9909 105.362 22.1847C103.308 22.7464 101.434 22.5671 99.3616 22.3039C99.6716 20.8033 100.327 19.368 101.12 18.0653C101.446 17.5306 102.312 16.743 102.314 16.1015C102.317 15.3077 101.139 14.118 100.752 13.4133C99.9589 11.9687 99.57 10.3655 99.2589 8.76129C98.1762 8.85663 97.0925 9.57376 96.2586 10.2308C92.2784 13.3615 92.3769 19.4001 96.5687 22.3329C98.8493 23.9278 101.746 24.1371 104.431 23.706C105.277 23.5703 106.95 22.6738 107.731 22.8863C108.157 23.0024 108.441 23.7236 108.676 24.0615C109.373 25.0729 110.202 25.9486 111.155 26.7227C111.419 26.9373 111.895 27.443 112.271 27.3798C112.658 27.3145 112.825 26.6471 112.915 26.3352Z"/><path fill="#FFC72F" d="M112.501 28.3001L109.029 25.302L107.526 23.5372L104.639 24.2243L99.57 24.2678C99.57 26.5239 100.16 28.6898 101.773 30.3499C105.084 33.7573 110.513 32.9034 113.285 29.3333C114.597 27.6441 115.221 25.5373 115.472 23.4408C115.556 22.7413 115.229 21.0013 115.668 20.4873C116.096 19.9878 117.373 19.8707 117.986 19.6469C119.26 19.1826 120.409 18.4344 121.504 17.6509C121.327 17.2758 120.958 16.7524 120.469 16.8364C119.918 16.9307 119.299 17.5214 118.814 17.7981C117.945 18.2914 116.986 18.6489 116.021 18.9038C115.594 19.0168 114.547 19.0292 114.265 19.3816C114.049 19.651 114.197 20.137 114.232 20.4417C114.323 21.2107 114.292 22.0459 114.258 22.819C114.167 24.8502 113.262 26.4824 112.501 28.3001Z"/></g><defs><clipPath id="clip0_3_52"><rect width="125" height="40" fill="#fff"/></clipPath></defs></svg>