<svg xmlns="http://www.w3.org/2000/svg" width="40" height="40" fill="none" viewBox="0 0 40 40"><path fill="#FFC72F" d="M10.3137 27.1932C10.7499 25.3071 11.8007 23.4885 12.9867 21.9773C13.4152 21.4315 14.6484 20.5669 14.5795 19.8144C14.503 18.9613 13.2112 17.9449 12.7176 17.2702C11.64 15.8011 10.8468 14.0718 10.3941 12.3094C10.2512 11.7546 9.75896 10.4794 10.0752 9.94757C10.3775 9.43746 11.5992 9.61472 12.0953 9.64915C13.4203 9.7397 14.7619 9.94374 16.0385 10.311C16.6506 10.487 17.5586 10.9946 18.1962 10.8645C19.08 10.6847 19.9102 9.00258 20.5032 8.36622C21.9545 6.80782 23.7756 5.4522 25.7077 4.54929C25.26 3.49081 24.3074 2.61597 23.4173 1.91456C18.4245 -2.02606 10.5484 0.402074 8.77572 6.58465C7.8741 9.73205 8.65712 13.2531 10.0931 16.1263C10.5101 16.9616 11.0138 17.7944 11.5724 18.543C11.8313 18.8899 12.3631 19.349 12.3631 19.8157C12.3631 20.3475 11.677 20.9431 11.3786 21.3422C10.4782 22.5435 9.75131 23.8813 9.22207 25.2854C9.08179 25.6552 8.6482 26.4689 8.92238 26.8451C9.16213 27.1703 9.94771 27.146 10.3137 27.1932ZM10.6963 10.4003C10.7422 12.5951 13.3106 11.9434 15.0221 12.3693C16.1061 12.6397 18.1478 14.0285 19.1935 13.79C19.9549 13.6166 20.8807 11.4052 21.3934 10.7829C23.087 8.72967 25.1083 7.51943 27.363 6.20334C27.7966 7.78979 28.4342 9.24999 28.614 10.9104C28.7237 11.9064 28.4419 13.549 28.8398 14.4442C29.0349 14.8816 29.6317 14.9518 30.036 15.0908C31.0511 15.444 32.0292 15.8662 32.9615 16.3992C34.0442 17.0177 35.0848 17.7293 36.0145 18.5647C36.318 18.8376 36.7975 19.5198 37.2757 19.3898C37.8305 19.2393 38.1812 18.2484 38.3929 17.7804C39.1963 15.9962 39.6133 13.9991 39.3392 12.0556C38.6301 7.01314 34.0786 3.83386 29.1458 4.17946C25.9142 4.40646 23.0525 6.67392 20.8769 8.87506C20.2367 9.52417 19.3389 11.4499 18.5087 11.7304C17.9425 11.9217 16.7475 11.1757 16.1711 11.0226C14.3321 10.5367 12.5863 10.4003 10.6963 10.4003ZM25.5801 7.72858C25.8964 9.87743 26.5226 11.7355 26.469 13.9622C26.4537 14.5564 25.9398 15.9401 26.4193 16.398C26.9702 16.9221 28.5324 16.9616 29.2695 17.209C30.9669 17.7804 32.5802 18.6718 33.9766 19.7902C34.4421 20.1639 35.7505 21.0553 35.7505 21.7121C35.7505 22.2426 34.6168 22.8203 34.2316 23.0779C33.1247 23.8163 31.9183 24.4386 30.6698 24.8977C30.115 25.1005 29.1305 25.2051 28.711 25.6336C28.1983 26.1564 28.5515 27.6523 28.4699 28.3397C28.1753 30.8342 26.8962 32.9549 26.4715 35.3372C28.3909 35.9506 30.4683 36.2095 32.4514 35.7312C39.2805 34.0861 40.909 26.0098 37.2413 20.7071C35.9329 18.8146 33.6476 17.2868 31.5612 16.3648C30.7552 16.0077 28.5821 15.6965 28.1307 14.9543C27.669 14.1955 28.0185 12.5453 27.9981 11.6756C27.9598 10.1376 27.5313 8.52308 26.9817 7.09604L25.5801 7.72858Z"/><path fill="#FFC72F" d="M24.5625 32.4079C23.0398 31.4565 21.6778 30.0664 20.6627 28.5909C20.261 28.0069 19.6845 26.4038 19.0418 26.1258C18.2103 25.7662 16.1482 27.0619 15.2746 27.3004C12.7483 27.9916 10.4438 27.7709 7.89581 27.447C8.27712 25.6004 9.0831 23.8341 10.0587 22.2311C10.4591 21.5731 11.524 20.6038 11.5265 19.8144C11.5304 18.8376 10.0816 17.3736 9.60596 16.5064C8.63037 14.7286 8.15214 12.7558 7.76956 10.7816C6.43816 10.8989 5.10549 11.7814 4.08016 12.59C-0.814374 16.4426 -0.693223 23.8737 4.46147 27.4827C7.26582 29.4454 10.8277 29.703 14.1294 29.1725C15.17 29.0054 17.2271 27.9023 18.1873 28.1637C18.7115 28.3066 19.0609 29.1942 19.3491 29.6099C20.2074 30.8546 21.2263 31.9322 22.3983 32.8848C22.7223 33.1488 23.3076 33.7711 23.7705 33.6934C24.2462 33.613 24.4515 32.7917 24.5625 32.4079Z"/><path fill="#FFC72F" d="M24.0537 34.8258L19.784 31.1364L17.9361 28.9646L14.3857 29.8101L8.15216 29.8637C8.15216 32.64 8.8778 35.3053 10.8609 37.3483C14.9328 41.5414 21.6089 40.4906 25.0178 36.0973C26.631 34.0185 27.3987 31.4259 27.7074 28.846C27.8107 27.9852 27.4077 25.844 27.9484 25.2114C28.4738 24.5968 30.0449 24.4526 30.7986 24.1772C32.3647 23.6059 33.7777 22.6851 35.1244 21.721C34.9063 21.2593 34.4523 20.6153 33.8517 20.7186C33.1745 20.8347 32.4131 21.5616 31.8163 21.9021C30.7476 22.5091 29.568 22.9491 28.382 23.2628C27.8566 23.4018 26.5698 23.4171 26.2229 23.8507C25.9564 24.1823 26.1387 24.7804 26.1821 25.1553C26.2943 26.1016 26.2561 27.1295 26.214 28.0808C26.1018 30.5804 24.9897 32.589 24.0537 34.8258Z"/></svg>