<svg xmlns="http://www.w3.org/2000/svg" width="240" height="80" fill="none" viewBox="0 0 240 80"><path fill="#FF37A5" d="M154.264 20.0344C154.882 19.9825 155.503 20.0054 156.123 20.0004H167.444C168.363 20.0004 169.287 20.2516 170.06 20.7558C170.965 21.3367 171.666 22.2337 171.995 23.2588C172.467 24.6613 172.225 26.2797 171.361 27.4811C170.506 28.7073 169.039 29.4713 167.545 29.4763C165.613 29.488 163.68 29.4781 161.747 29.4812C162.802 29.8029 163.736 30.5007 164.336 31.4262C165.087 32.5608 165.3 34.027 164.918 35.3312C164.489 36.853 163.241 38.1039 161.725 38.5457C163.652 38.5419 165.579 38.545 167.506 38.5444C168.527 38.5494 169.545 38.8822 170.356 39.5039C171.161 40.1115 171.766 40.9825 172.044 41.9532C172.387 43.1206 172.259 44.421 171.684 45.4943C170.928 46.9648 169.344 47.9677 167.69 48.0104C163.42 48.0091 159.15 48.0097 154.88 48.0097C153.676 48.0413 152.472 47.6373 151.516 46.9085C150.648 46.2429 149.974 45.318 149.639 44.2737C149.442 43.7002 149.366 43.0927 149.361 42.4889C149.362 37.1481 149.361 31.8073 149.361 26.4665C149.368 25.8256 149.331 25.1791 149.441 24.5444C149.64 23.338 150.263 22.2077 151.177 21.3961C152.028 20.6314 153.125 20.1439 154.264 20.0344Z"/><path fill="#FF37A5" d="M79.5661 20.0821C82.2801 19.8049 85.0727 20.3271 87.4891 21.599C88.607 22.1713 89.5176 23.1376 90.0119 24.2926C90.5502 25.5318 90.5984 26.9739 90.1561 28.2495C89.7521 29.4231 88.9268 30.4414 87.8727 31.0947C86.4238 32.001 84.5425 32.1563 82.9618 31.5098C82.6352 31.391 82.3475 31.1856 82.0159 31.0786C81.2364 30.8008 80.3468 30.8608 79.61 31.2351C78.7859 31.6471 78.1605 32.439 77.9662 33.3404C77.7571 34.2455 77.9928 35.2378 78.5799 35.956C79.3136 36.8852 80.6041 37.33 81.7517 37.0232C82.1996 36.9285 82.5776 36.6563 83.0014 36.4967C84.0605 36.0791 85.2502 36.003 86.3533 36.2858C87.5169 36.5747 88.5705 37.27 89.3061 38.2159C90.0466 39.16 90.4642 40.3577 90.4518 41.5597C90.4691 42.8063 90.0218 44.048 89.2337 45.0118C88.6608 45.7208 87.9011 46.2584 87.0734 46.6314C84.7998 47.7332 82.2225 48.1867 79.7083 47.9535C76.792 47.6974 73.9735 46.4848 71.7766 44.5509C70.0636 43.0556 68.7255 41.1354 67.9132 39.0121C67.2859 37.3616 66.966 35.5916 67.0031 33.8248C67.0174 30.961 67.9701 28.1165 69.6522 25.8015C70.8171 24.1918 72.3285 22.8339 74.0539 21.8483C75.7403 20.8814 77.6315 20.2764 79.5661 20.0821Z"/><path fill="#FF37A5" d="M103.881 20.3614C104.952 19.9525 106.155 19.9018 107.26 20.2012C108.779 20.6082 110.091 21.715 110.75 23.1422C113.316 28.6383 115.877 34.1363 118.441 39.6329C118.658 40.1044 118.902 40.5677 119.036 41.0719C119.39 42.2925 119.29 43.635 118.77 44.7943C118.379 45.6765 117.743 46.4468 116.959 47.0072C116.026 47.6649 114.885 48.0379 113.741 48.0113C112.033 48.0163 110.351 47.1421 109.366 45.7471C109.027 45.2893 108.805 44.7616 108.564 44.2493C107.648 42.2845 106.733 40.3197 105.815 38.3554C104.812 40.5195 103.8 42.6792 102.794 44.842C102.332 45.8528 101.554 46.7177 100.59 47.2726C99.4574 47.9414 98.0791 48.1666 96.7904 47.9154C95.7344 47.7063 94.734 47.1854 93.9799 46.4133C93.2573 45.7038 92.7562 44.7776 92.5285 43.7921C92.2545 42.6198 92.385 41.3571 92.8979 40.2671C95.4486 34.7945 98.0005 29.3232 100.552 23.8506C100.766 23.4089 100.946 22.9474 101.217 22.5353C101.84 21.5498 102.789 20.7722 103.881 20.3614Z"/><path fill="#FF37A5" d="M123.312 21.6195C124.284 20.6303 125.652 20.0419 127.039 20.0153C128.622 19.9522 130.217 20.6228 131.273 21.8038C131.995 22.5945 132.469 23.6078 132.606 24.6694C132.682 25.2652 132.652 25.8665 132.658 26.4654C132.658 27.0673 132.657 27.6692 132.658 28.2706C133.745 26.3992 134.821 24.5216 135.908 22.6501C136.56 21.5545 137.615 20.7088 138.825 20.3073C140.254 19.8143 141.888 19.959 143.208 20.6983C144.222 21.2526 145.048 22.1429 145.527 23.1958C146.245 24.7461 146.177 26.6336 145.333 28.1215C144.208 30.0696 143.086 32.0202 141.957 33.9659C142.93 35.6634 143.912 37.3554 144.89 39.0505C145.147 39.5065 145.434 39.9476 145.627 40.4357C146.157 41.7349 146.151 43.24 145.616 44.5367C145.273 45.3793 144.717 46.1365 144.007 46.7069C143.019 47.5093 141.743 47.9554 140.469 47.9183C138.633 47.9059 136.85 46.8771 135.913 45.3014C134.826 43.4238 133.743 41.5437 132.657 39.6655C132.654 40.6763 132.667 41.6872 132.65 42.6981C132.624 44.1167 132.016 45.5167 130.984 46.4916C129.662 47.8013 127.64 48.3167 125.846 47.8465C124.27 47.4536 122.909 46.3091 122.244 44.8287C121.926 44.1358 121.765 43.3749 121.754 42.614V25.7242C121.746 25.2862 121.762 24.8464 121.841 24.4152C122.033 23.3628 122.553 22.373 123.312 21.6195Z"/><path fill="#BCBEC0" d="M135.859 58.4808C135.859 56.6044 135.859 54.7274 135.859 52.851C136.081 52.8504 136.302 52.8504 136.524 52.851C136.526 53.6578 136.521 54.4639 136.526 55.2706C136.724 54.9569 136.965 54.6359 137.329 54.5084C137.863 54.329 138.506 54.402 138.937 54.7831C139.332 55.1271 139.514 55.656 139.561 56.1652C139.615 56.8024 139.515 57.4977 139.092 58.0025C138.562 58.6583 137.436 58.727 136.86 58.0966C136.729 57.9642 136.633 57.8033 136.529 57.6505C136.52 57.9271 136.526 58.2036 136.524 58.4808H135.859ZM137.412 55.0293C136.957 55.1233 136.68 55.5614 136.586 55.9864C136.475 56.5277 136.531 57.1395 136.881 57.5868C137.227 58.0242 137.924 58.0755 138.368 57.7637C138.74 57.4755 138.886 56.983 138.892 56.5295C138.908 56.0884 138.794 55.6238 138.492 55.2916C138.216 55.0083 137.784 54.947 137.412 55.0293Z"/><path fill="#BCBEC0" d="M169.235 52.882C169.457 52.882 169.678 52.8814 169.901 52.8826C169.901 53.9312 169.901 54.9792 169.901 56.0284C170.407 55.5267 170.906 55.0176 171.415 54.5189C171.664 54.5233 171.915 54.5196 172.165 54.5226C171.591 55.1215 171.005 55.7105 170.421 56.2988C171.029 57.0269 171.638 57.7539 172.249 58.4801C171.991 58.4808 171.734 58.4814 171.477 58.4795C170.953 57.8349 170.433 57.1872 169.903 56.5469C169.897 57.1915 169.903 57.8361 169.9 58.4814C169.678 58.4801 169.456 58.4808 169.235 58.4808V52.882Z"/><path fill="#BCBEC0" d="M145.565 53.2389C145.789 53.2371 146.014 53.2377 146.239 53.2377C146.775 54.7695 147.297 56.3062 147.835 57.838C148.38 56.3093 148.9 54.7713 149.431 53.2377C149.655 53.2377 149.879 53.2377 150.104 53.2371C149.501 54.9847 148.896 56.7306 148.294 58.4783C147.99 58.4838 147.688 58.4795 147.385 58.4814C146.775 56.7349 146.169 54.9872 145.565 53.2389Z"/><path fill="#BCBEC0" d="M150.831 58.4807C150.831 56.7331 150.83 54.9854 150.831 53.2377C151.46 53.2371 152.088 53.2389 152.717 53.2365C153.101 53.2377 153.497 53.3391 153.802 53.5817C154.483 54.0939 154.592 55.1295 154.211 55.8558C153.959 56.3272 153.439 56.6124 152.915 56.6532C152.432 56.691 151.948 56.6619 151.465 56.6712C151.464 57.2744 151.466 57.8776 151.464 58.4814C151.253 58.4801 151.042 58.4807 150.831 58.4807ZM151.465 53.8254V56.0989C152.095 56.0631 152.79 56.2183 153.36 55.8756C153.748 55.6535 153.822 55.1493 153.772 54.7441C153.746 54.4286 153.563 54.1236 153.269 53.9924C152.708 53.7184 152.064 53.8613 151.465 53.8254Z"/><path fill="#BCBEC0" d="M155.316 53.2377C156.077 53.2383 156.839 53.2359 157.601 53.239C158.06 53.2507 158.533 53.4877 158.745 53.9083C158.964 54.3395 158.976 54.9105 158.666 55.3015C158.509 55.5156 158.267 55.6467 158.021 55.7272C158.328 55.7884 158.64 55.909 158.847 56.1559C159.173 56.4918 159.195 57.0121 159.074 57.4402C158.949 57.9005 158.566 58.2723 158.111 58.4034C157.887 58.4678 157.652 58.4814 157.421 58.4814C156.72 58.4802 156.018 58.4808 155.316 58.4814C155.315 56.7331 155.316 54.9854 155.316 53.2377ZM155.965 53.7945C155.965 54.3723 155.964 54.9495 155.967 55.5273C156.424 55.5224 156.882 55.5341 157.339 55.5218C157.675 55.4908 158.057 55.3442 158.196 55.0101C158.304 54.7355 158.301 54.3971 158.129 54.149C157.938 53.8941 157.599 53.8013 157.294 53.7945C156.851 53.7939 156.408 53.7951 155.965 53.7945ZM155.966 56.0526C155.965 56.6706 155.965 57.2893 155.965 57.9085C156.45 57.9085 156.936 57.9073 157.421 57.9091C157.706 57.9116 158.003 57.8368 158.225 57.6524C158.526 57.3969 158.557 56.9372 158.434 56.5852C158.3 56.2277 157.893 56.0829 157.543 56.0563C157.017 56.047 156.491 56.0557 155.966 56.0526Z"/><path fill="#BCBEC0" d="M160.216 54.999C160.653 54.4107 161.53 54.256 162.171 54.5765C162.463 54.7274 162.648 55.0052 162.826 55.2706C162.837 55.0206 162.831 54.7707 162.832 54.5214C163.053 54.5208 163.275 54.5208 163.498 54.5214V58.4807H162.832C162.828 58.203 162.842 57.9252 162.821 57.6487C162.604 58.0001 162.317 58.3502 161.904 58.4684C161.43 58.5927 160.879 58.5395 160.488 58.2228C160.063 57.8974 159.856 57.3641 159.797 56.8463C159.724 56.2103 159.82 55.5193 160.216 54.999ZM161.346 55.0182C160.889 55.1042 160.603 55.5341 160.506 55.9604C160.391 56.4732 160.436 57.048 160.728 57.4965C161.067 58.0489 161.939 58.1151 162.393 57.6716C162.713 57.3387 162.829 56.8586 162.818 56.4077C162.803 55.9993 162.685 55.5712 162.39 55.2749C162.123 55.0027 161.705 54.9346 161.346 55.0182Z"/><path fill="#BCBEC0" d="M166.041 54.5257C166.564 54.3272 167.228 54.3828 167.641 54.7881C167.984 55.1042 168.122 55.5849 168.137 56.039C168.138 56.8525 168.137 57.6666 168.137 58.4808H167.472C167.472 57.687 167.472 56.8933 167.473 56.1002C167.472 55.729 167.305 55.3356 166.967 55.1531C166.519 54.9081 165.882 54.9712 165.548 55.3782C165.348 55.6102 165.27 55.9227 165.275 56.2239C165.277 56.9762 165.275 57.7285 165.276 58.4808C165.054 58.4808 164.833 58.4802 164.612 58.4814C164.61 57.1612 164.61 55.841 164.612 54.5208C164.833 54.5214 165.054 54.5214 165.276 54.5214C165.277 54.7658 165.271 55.0108 165.28 55.2558C165.467 54.9532 165.697 54.6575 166.041 54.5257Z"/><path fill="#BCBEC0" d="M139.94 54.5201C140.171 54.522 140.403 54.5201 140.635 54.5226C141.006 55.5397 141.368 56.5604 141.745 57.575C142.155 56.5654 142.519 55.536 142.917 54.5208C143.147 54.5214 143.378 54.5201 143.609 54.5226C143.053 55.8744 142.499 57.2273 141.944 58.5797C141.767 58.9633 141.666 59.4069 141.352 59.7069C141.018 60.0323 140.51 60.0434 140.082 59.9469C140.082 59.7818 140.081 59.6166 140.08 59.452C140.377 59.4891 140.742 59.5102 140.947 59.2448C141.153 58.9509 141.258 58.6014 141.401 58.276C140.916 57.0238 140.427 55.7723 139.94 54.5201Z"/></svg>