<svg xmlns="http://www.w3.org/2000/svg" width="40" height="40" fill="none" viewBox="0 0 40 40"><g clip-path="url(#clip0_11_444)"><path fill="#C13838" d="M33.0899 0.635864H6.09041C2.72727 0.635864 0 3.36314 0 6.72628V33.6215C0 36.9846 2.72727 39.7119 6.09041 39.7119H32.9856C36.3537 39.7119 39.076 36.9846 39.076 33.6215V6.62195C39.076 3.31346 36.3984 0.635864 33.0899 0.635864ZM34.1927 17.7298H17.0939V22.613H34.1927V32.2951C34.1927 33.691 33.0601 34.8236 31.6642 34.8236H7.41182C6.0159 34.8236 4.88326 33.691 4.88326 32.2951V8.04769C4.88326 6.65176 6.0159 5.51912 7.41182 5.51912H31.6642C33.0601 5.51912 34.1927 6.65176 34.1927 8.04769V17.7298ZM31.7188 9.2151V15.2608H14.62V25.0919H31.7188V31.1376C31.7188 31.8132 31.1724 32.3597 30.4968 32.3597H8.57924C7.90363 32.3597 7.35718 31.8132 7.35718 31.1376V9.2151C7.35718 8.53949 7.90363 7.99304 8.57924 7.99304H30.5017C31.1724 7.99304 31.7188 8.53949 31.7188 9.2151Z"/></g><defs><clipPath id="clip0_11_444"><rect width="40" height="40" fill="#fff"/></clipPath></defs></svg>