<svg xmlns="http://www.w3.org/2000/svg" width="56" height="40" fill="none" viewBox="0 0 56 40"><g clip-path="url(#clip0_4_2087)"><mask id="mask0_4_2087" width="12" height="12" x="34" y="8" maskUnits="userSpaceOnUse" style="mask-type:luminance"><path fill="#fff" d="M34.7124 8.29871V14.0355C34.7124 14.3876 34.9067 14.7215 35.2406 14.8915L45.0023 19.7724V14.0355L39.2654 11.1702L35.2406 9.16075C34.9067 8.99077 34.7124 8.65688 34.7124 8.30478V8.29871Z"/></mask><g mask="url(#mask0_4_2087)"><path fill="url(#paint0_linear_4_2087)" d="M45.0023 8.29871H34.7124V19.7663H45.0023V8.29871Z"/></g><mask id="mask1_4_2087" width="12" height="9" x="44" y="8" maskUnits="userSpaceOnUse" style="mask-type:luminance"><path fill="#fff" d="M44.9962 14.0356L50.733 16.901L54.7579 14.8915C55.0918 14.7216 55.2861 14.3877 55.2861 14.0356C55.2861 13.8899 55.2557 13.7442 55.1829 13.6106C55.0918 13.4285 54.9401 13.2767 54.7579 13.1857L44.9962 8.30481V14.0416V14.0356Z"/></mask><g mask="url(#mask1_4_2087)"><path fill="url(#paint1_linear_4_2087)" d="M53.1695 4.14638L41.5228 10.0781L47.1212 21.0703L58.7679 15.1386L53.1695 4.14638Z"/></g><mask id="mask2_4_2087" width="12" height="12" x="44" y="14" maskUnits="userSpaceOnUse" style="mask-type:luminance"><path fill="#fff" d="M55.2861 14.0355C55.2861 14.3876 55.0918 14.7215 54.7579 14.8915L50.733 16.907L44.9962 19.7724V25.5092L54.7579 20.6283C55.0918 20.4583 55.2861 20.1245 55.2861 19.7724V14.0355Z"/></mask><g mask="url(#mask2_4_2087)"><path fill="url(#paint2_linear_4_2087)" d="M55.2861 14.0355H44.9962V25.5031H55.2861V14.0355Z"/></g><mask id="mask3_4_2087" width="17" height="12" x="34" y="0" maskUnits="userSpaceOnUse" style="mask-type:luminance"><path fill="#fff" d="M44.9962 2.56185L35.2345 7.44271C35.0524 7.53377 34.9006 7.68554 34.8095 7.87373C34.7428 8.01336 34.7124 8.15905 34.7124 8.29868C34.7124 8.65078 34.9067 8.98467 35.2406 9.15465L39.2654 11.1701L45.0023 8.30475L50.132 10.8666V0L45.0023 2.56185H44.9962Z"/></mask><g mask="url(#mask3_4_2087)"><path fill="url(#paint3_radial_4_2087)" d="M50.132 0H34.7124V11.1641H50.132V0Z"/></g><path fill="#005BAA" d="M9.28214 27.5004C8.01336 27.5004 7.09668 27.4093 6.52603 27.2332C5.98573 27.0511 5.53043 26.6201 5.15404 25.9462C4.97192 25.6002 4.82016 25.2785 4.71088 24.9871C4.60161 24.6957 4.51055 24.4164 4.43163 24.1432C4.35878 23.8761 4.31021 23.609 4.28593 23.3541C4.26165 23.0991 4.24951 22.8138 4.24951 22.4981C4.24951 21.9456 4.30414 21.4114 4.40735 20.8893C4.51055 20.3733 4.72909 19.827 5.05691 19.2563C5.38473 18.6857 5.87646 18.2971 6.51996 18.0847C7.16345 17.8722 7.98907 17.769 8.99681 17.769H11.1641C11.4919 17.769 11.8015 17.599 11.9775 17.3137L14.0052 14.0294H7.80088C6.33784 14.0294 5.06906 14.2358 3.9824 14.6365C2.89574 15.0432 2.05798 15.7474 1.46304 16.7552C0.886326 17.7447 0.497799 18.7099 0.297465 19.6509C0.0971316 20.5858 0 21.5935 0 22.662C0 23.7304 0.109273 24.7442 0.33389 25.7459C0.558507 26.7476 0.947033 27.725 1.51161 28.6902C1.80301 29.1698 2.11868 29.5705 2.47078 29.8983C2.82289 30.2261 3.22963 30.4872 3.69707 30.6814C4.16452 30.8696 4.69874 31.0153 5.30581 31.1064C5.91289 31.1974 6.61102 31.2399 7.40021 31.2399H11.6801C12.014 31.2399 12.3175 31.0699 12.4936 30.7846L14.5212 27.5004H9.27607H9.28214Z"/><path fill="#005BAA" d="M27.8221 19.2867C27.8221 19.7906 27.5975 20.1548 27.1544 20.3976C26.7051 20.6344 26.0131 20.7558 25.066 20.7558H23.7426C23.4148 20.7558 23.1113 20.9258 22.9413 21.205L20.9015 24.5015V17.7751H25.1814C26.1588 17.7751 26.8508 17.8722 27.2636 18.1697C27.6704 18.4611 27.8586 18.8375 27.8282 19.2928M27.3486 31.24C28.4899 31.24 29.3945 31.1428 30.0683 30.9486C30.7422 30.7604 31.331 30.2868 31.841 29.5159C32.3388 28.7267 32.5937 27.8889 32.5937 26.9965C32.5634 25.8067 32.2598 24.8536 31.6892 24.1372C31.1185 23.4148 30.4265 22.9352 29.613 22.6924C30.8514 22.3038 31.6588 21.0836 31.8895 20.0091C31.9502 19.7056 31.9988 19.4324 32.0292 19.2017C32.0595 18.9649 32.0777 18.7646 32.0777 18.5946C32.0777 18.0301 31.9988 17.4776 31.841 16.9373C31.6831 16.397 31.3796 15.8567 30.9243 15.3286C30.7057 15.0554 30.469 14.8369 30.2079 14.6669C29.953 14.4969 29.6555 14.3694 29.3155 14.2723C28.9816 14.1812 28.5931 14.1144 28.1621 14.0841C27.7311 14.0537 27.6461 14.0355 27.1058 14.0355H16.6459V31.24H27.3426H27.3486ZM25.3089 24.5015C26.4259 24.5015 27.2151 24.5682 27.6825 24.8536C28.15 25.1389 28.3685 25.5274 28.3381 26.0131C28.3381 26.2741 28.2532 26.5473 28.0832 26.8326C27.9132 27.1179 27.6643 27.3001 27.3365 27.379C26.9965 27.464 26.4805 27.5065 25.8006 27.5065H20.9076V24.5015H25.3149H25.3089Z"/><path fill="#005BAA" d="M3.75172 34.7488V38.9072H3.30855C3.24178 38.9072 3.18714 38.8951 3.13857 38.8708C3.09001 38.8465 3.04751 38.8101 3.00502 38.7555L0.934901 36.1147C0.934901 36.1815 0.947042 36.2483 0.947042 36.3151C0.947042 36.3818 0.947042 36.4365 0.947042 36.4972V38.9012H0.188202V34.7427H0.643506C0.67993 34.7427 0.710284 34.7427 0.734567 34.7427C0.75885 34.7427 0.783133 34.7549 0.807416 34.7609C0.825628 34.7731 0.849911 34.7852 0.868123 34.8034C0.886335 34.8217 0.910618 34.8399 0.92883 34.8702L3.01716 37.5171C3.01109 37.4442 3.00502 37.3774 2.99895 37.3046C2.99895 37.2378 2.99895 37.171 2.99895 37.1103V34.7306H3.75779L3.75172 34.7488Z"/><path fill="#005BAA" d="M5.56079 37.3228C5.72469 37.3228 5.84611 37.2803 5.91896 37.2014C5.99788 37.1225 6.0343 37.0132 6.0343 36.8857C6.0343 36.7522 5.99788 36.6429 5.91896 36.564C5.84004 36.4851 5.71862 36.4486 5.56079 36.4486C5.40295 36.4486 5.28153 36.4851 5.20261 36.564C5.12369 36.6429 5.08727 36.7461 5.08727 36.8857C5.08727 37.0132 5.12369 37.1164 5.20261 37.2014C5.28153 37.2864 5.39688 37.3228 5.56079 37.3228ZM6.30748 39.0287C6.30748 38.9801 6.28927 38.9376 6.25892 38.9012C6.22857 38.8709 6.18607 38.8405 6.13143 38.8223C6.0768 38.8041 6.01002 38.7919 5.93717 38.7798C5.86432 38.7737 5.7854 38.7616 5.70041 38.7616C5.61542 38.7616 5.53043 38.7555 5.43937 38.7494C5.34831 38.7494 5.26332 38.7373 5.17833 38.7252C5.11155 38.7677 5.05692 38.8102 5.01442 38.8648C4.97193 38.9194 4.94764 38.9801 4.94764 39.0469C4.94764 39.0955 4.95978 39.138 4.98407 39.1805C5.00835 39.2169 5.04477 39.2533 5.09334 39.2837C5.14798 39.314 5.21475 39.3322 5.29974 39.3505C5.38473 39.3687 5.48794 39.3747 5.61542 39.3747C5.74291 39.3747 5.85825 39.3687 5.94324 39.3505C6.0343 39.3322 6.10715 39.308 6.16179 39.2776C6.21642 39.2472 6.25892 39.2108 6.2832 39.1623C6.30748 39.1198 6.31963 39.0712 6.31963 39.0166M7.10275 36.0358V36.3272C7.10275 36.3697 7.09061 36.4122 7.06633 36.4365C7.04204 36.4608 6.99955 36.4851 6.93884 36.4972L6.69601 36.5458C6.72636 36.6368 6.74458 36.74 6.74458 36.8493C6.74458 36.995 6.71422 37.1286 6.65352 37.2439C6.59281 37.3593 6.51389 37.4625 6.40462 37.5474C6.30141 37.6324 6.17393 37.6931 6.0343 37.7417C5.8886 37.7842 5.73684 37.8085 5.56686 37.8085C5.46365 37.8085 5.36045 37.8024 5.26939 37.7842C5.19047 37.8328 5.14798 37.8874 5.14798 37.9481C5.14798 38.0088 5.17226 38.0452 5.2269 38.0695C5.28153 38.0938 5.35438 38.112 5.43937 38.1242C5.53043 38.1363 5.62756 38.1424 5.74291 38.1424C5.85825 38.1424 5.9736 38.1545 6.08894 38.1606C6.20428 38.1727 6.31963 38.1849 6.43497 38.2092C6.55031 38.2334 6.64745 38.2699 6.73851 38.3245C6.82957 38.3791 6.89634 38.452 6.95098 38.543C7.00562 38.6341 7.0299 38.7494 7.0299 38.8891C7.0299 39.0226 6.99955 39.1501 6.93277 39.2715C6.86599 39.399 6.77493 39.5083 6.64744 39.6054C6.52603 39.7026 6.37426 39.7815 6.19214 39.8422C6.01002 39.9029 5.80969 39.9272 5.579 39.9272C5.34831 39.9272 5.15405 39.9029 4.98407 39.8665C4.81409 39.824 4.68053 39.7633 4.56519 39.6904C4.45591 39.6176 4.37092 39.5386 4.32236 39.4415C4.26772 39.3505 4.24344 39.2533 4.24344 39.1501C4.24344 39.0166 4.28593 38.9073 4.36485 38.8162C4.44377 38.7252 4.55912 38.6523 4.69874 38.5977C4.62589 38.5552 4.56519 38.5005 4.51662 38.4338C4.47413 38.367 4.44984 38.2759 4.44984 38.1667C4.44984 38.0817 4.4802 37.9906 4.54697 37.8874C4.61375 37.7903 4.71088 37.7114 4.84444 37.6446C4.69267 37.5657 4.57126 37.4564 4.48627 37.3228C4.40128 37.1893 4.35271 37.0314 4.35271 36.8493C4.35271 36.7036 4.38307 36.5701 4.44377 36.4486C4.50448 36.3333 4.58947 36.2301 4.69267 36.1451C4.80195 36.0601 4.92336 35.9994 5.06906 35.9569C5.21475 35.9144 5.37259 35.8901 5.54257 35.8901C5.79754 35.8901 6.01609 35.9387 6.21035 36.0358H7.07847H7.10275Z"/><path fill="#005BAA" d="M9.02718 37.6749C8.83292 37.687 8.67508 37.6991 8.54759 37.7234C8.42011 37.7477 8.3169 37.7781 8.24406 37.8145C8.17121 37.8509 8.11657 37.8934 8.08622 37.942C8.05586 37.9905 8.03765 38.0452 8.03765 38.0998C8.03765 38.2152 8.06801 38.2941 8.13478 38.3426C8.20156 38.3912 8.28655 38.4155 8.40189 38.4155C8.53545 38.4155 8.64472 38.3912 8.74186 38.3426C8.83899 38.2941 8.93612 38.2212 9.03325 38.1241V37.6627L9.02718 37.6749ZM9.64032 35.5623H9.11217C9.08182 35.5623 9.05146 35.5562 9.02111 35.544C8.99076 35.5319 8.9604 35.5137 8.93005 35.4894L8.67508 35.2162C8.67508 35.2162 8.65687 35.198 8.64472 35.1859C8.63258 35.1737 8.62044 35.1616 8.61437 35.1434C8.59009 35.1737 8.57188 35.198 8.54759 35.2162L8.28655 35.4894C8.23191 35.538 8.17121 35.5623 8.1105 35.5623H7.56413L8.23191 34.7488H8.97254L9.64032 35.5623ZM7.41844 36.3636C7.59449 36.2058 7.78268 36.0904 7.99516 36.0115C8.20763 35.9326 8.43225 35.8961 8.67508 35.8961C8.85113 35.8961 9.00897 35.9204 9.14859 35.9811C9.28822 36.0358 9.40356 36.1147 9.5007 36.2179C9.59783 36.3211 9.67068 36.4425 9.72531 36.5821C9.77388 36.7218 9.80423 36.8796 9.80423 37.0496V38.9072H9.44606C9.37321 38.9072 9.3125 38.8951 9.27608 38.8769C9.23966 38.8587 9.20323 38.8101 9.17895 38.7433L9.11824 38.5551C9.04539 38.6219 8.97254 38.6765 8.89969 38.7312C8.82685 38.7797 8.76007 38.8222 8.68115 38.8587C8.6083 38.889 8.52938 38.9133 8.44439 38.9315C8.3594 38.9497 8.26227 38.9558 8.15907 38.9558C8.03158 38.9558 7.91017 38.9376 7.80089 38.9072C7.69162 38.8708 7.60056 38.8222 7.52164 38.7555C7.44272 38.6887 7.38201 38.6037 7.34559 38.5005C7.30309 38.3973 7.28488 38.2819 7.28488 38.1484C7.28488 38.0391 7.31524 37.9298 7.36987 37.8206C7.42451 37.7113 7.52164 37.6142 7.6552 37.5231C7.78875 37.4381 7.97087 37.3592 8.19549 37.3046C8.42011 37.2438 8.69936 37.2135 9.03932 37.2074V37.0557C9.03932 36.8735 9.0029 36.7339 8.92398 36.6489C8.84506 36.5639 8.72971 36.5214 8.58402 36.5214C8.47474 36.5214 8.38368 36.5336 8.31083 36.5579C8.23799 36.5821 8.17728 36.6125 8.12264 36.6428C8.06801 36.6732 8.01944 36.6975 7.97087 36.7218C7.92231 36.7521 7.86767 36.7582 7.80696 36.7582C7.75233 36.7582 7.70376 36.746 7.66734 36.7157C7.63091 36.6853 7.60056 36.655 7.57628 36.6186L7.43665 36.3697L7.41844 36.3636Z"/><path fill="#005BAA" d="M11.1276 36.2969C11.1883 36.2362 11.249 36.1876 11.3097 36.139C11.3765 36.0905 11.4433 36.048 11.5161 36.0176C11.589 35.9812 11.6679 35.9569 11.7468 35.9387C11.8318 35.9205 11.9229 35.9144 12.02 35.9144C12.1779 35.9144 12.3236 35.9387 12.445 35.9933C12.5664 36.048 12.6757 36.1269 12.7606 36.224C12.8456 36.3212 12.9124 36.4426 12.9549 36.5822C12.9974 36.7158 13.0217 36.8675 13.0217 37.0314V38.9134H12.2325V37.0314C12.2325 36.8675 12.1961 36.74 12.1172 36.649C12.0382 36.5579 11.929 36.5094 11.7772 36.5094C11.6679 36.5094 11.5647 36.5336 11.4615 36.5822C11.3644 36.6308 11.2733 36.6976 11.1823 36.7825V38.9073H10.3931V35.9509H10.8787C10.9759 35.9509 11.0426 35.9994 11.0791 36.0905L11.1276 36.2969Z"/><path fill="#005BAA" d="M16.4881 36.2423C16.5427 36.1937 16.6034 36.1451 16.6641 36.1087C16.7248 36.0662 16.7916 36.0298 16.8584 35.9994C16.9252 35.9691 16.998 35.9448 17.0769 35.9326C17.1559 35.9144 17.2348 35.9084 17.3258 35.9084C17.4837 35.9084 17.6294 35.9326 17.7508 35.9873C17.8783 36.0419 17.9815 36.1208 18.0665 36.218C18.1515 36.3151 18.2182 36.4365 18.2607 36.5761C18.3032 36.7097 18.3275 36.8615 18.3275 37.0254V38.9073H17.5383V37.0254C17.5383 36.8615 17.5019 36.734 17.423 36.6429C17.3441 36.5519 17.2348 36.5033 17.083 36.5033C16.9737 36.5033 16.8705 36.5276 16.7734 36.5761C16.6763 36.6247 16.5852 36.6915 16.4941 36.7765V38.9012H15.705V34.6274H16.4941V36.2362L16.4881 36.2423Z"/><path fill="#005BAA" d="M20.4644 37.6749C20.2701 37.687 20.1123 37.6992 19.9848 37.7234C19.8573 37.7477 19.7541 37.7781 19.6813 37.8145C19.6084 37.8509 19.5538 37.8934 19.5174 37.942C19.487 37.9906 19.4688 38.0452 19.4688 38.0998C19.4688 38.2152 19.4992 38.2941 19.5659 38.3427C19.6327 38.3912 19.7177 38.4155 19.833 38.4155C19.9666 38.4155 20.0819 38.3912 20.173 38.3427C20.2701 38.2941 20.3673 38.2212 20.4583 38.1241V37.6627L20.4644 37.6749ZM19.7966 34.7063C19.8755 34.7063 19.9423 34.7184 19.9787 34.7488C20.0212 34.7731 20.0577 34.8156 20.088 34.8702L20.4887 35.5683H20.0394C19.9787 35.5683 19.9302 35.5562 19.8938 35.5441C19.8573 35.5258 19.8209 35.5016 19.7784 35.4591L19.0499 34.7124H19.7906L19.7966 34.7063ZM18.8496 36.3636C19.0256 36.2058 19.2138 36.0904 19.4263 36.0115C19.6388 35.9326 19.8634 35.8962 20.1062 35.8962C20.2823 35.8962 20.4401 35.9204 20.5797 35.9812C20.7194 36.0358 20.8347 36.1147 20.9318 36.2179C21.029 36.3211 21.1018 36.4425 21.1565 36.5822C21.205 36.7218 21.2354 36.8796 21.2354 37.0496V38.9072H20.8711C20.7983 38.9072 20.7376 38.8951 20.7012 38.8769C20.6647 38.8587 20.6283 38.8101 20.604 38.7433L20.5433 38.5551C20.4705 38.6219 20.3976 38.6766 20.3248 38.7312C20.258 38.7798 20.1851 38.8223 20.1062 38.8587C20.0334 38.889 19.9545 38.9133 19.8695 38.9315C19.7845 38.9497 19.6873 38.9558 19.5841 38.9558C19.4567 38.9558 19.3352 38.9376 19.226 38.9072C19.1167 38.8708 19.0256 38.8223 18.9467 38.7555C18.8678 38.6887 18.8071 38.6037 18.7707 38.5005C18.7282 38.3973 18.71 38.282 18.71 38.1484C18.71 38.0391 18.7403 37.9299 18.795 37.8206C18.8496 37.7113 18.9467 37.6142 19.0803 37.5231C19.2138 37.4381 19.396 37.3592 19.6206 37.3046C19.8452 37.2439 20.1244 37.2135 20.4644 37.2074V37.0557C20.4644 36.8735 20.428 36.7339 20.3491 36.6489C20.2701 36.5639 20.1609 36.5214 20.0091 36.5214C19.8998 36.5214 19.8088 36.5336 19.7359 36.5579C19.6631 36.5822 19.6024 36.6125 19.5477 36.6429C19.4931 36.6732 19.4445 36.6975 19.396 36.7218C19.3474 36.7521 19.2928 36.7582 19.232 36.7582C19.1774 36.7582 19.1288 36.7461 19.0924 36.7157C19.056 36.6854 19.0256 36.655 19.0014 36.6186L18.8617 36.3697L18.8496 36.3636Z"/><path fill="#005BAA" d="M22.571 36.2969C22.6317 36.2362 22.6924 36.1876 22.7531 36.139C22.8199 36.0905 22.8866 36.048 22.9595 36.0176C23.0323 35.9812 23.1112 35.9569 23.1902 35.9387C23.2752 35.9205 23.3662 35.9144 23.4633 35.9144C23.6212 35.9144 23.7669 35.9387 23.8883 35.9933C24.0158 36.048 24.119 36.1269 24.204 36.224C24.289 36.3212 24.3557 36.4426 24.3982 36.5822C24.4407 36.7158 24.465 36.8675 24.465 37.0314V38.9134H23.6758V37.0314C23.6758 36.8675 23.6394 36.74 23.5605 36.649C23.4816 36.5579 23.3723 36.5094 23.2205 36.5094C23.1112 36.5094 23.008 36.5336 22.9048 36.5822C22.8077 36.6308 22.7166 36.6976 22.6256 36.7825V38.9073H21.8364V35.9509H22.3221C22.4192 35.9509 22.486 35.9994 22.5224 36.0905L22.571 36.2969Z"/><path fill="#005BAA" d="M26.1405 37.3228C26.3044 37.3228 26.4198 37.2803 26.4987 37.2014C26.5776 37.1225 26.614 37.0132 26.614 36.8857C26.614 36.7522 26.5776 36.6429 26.4987 36.564C26.4198 36.4851 26.2984 36.4486 26.1405 36.4486C25.9827 36.4486 25.8613 36.4851 25.7824 36.564C25.7034 36.6429 25.667 36.7461 25.667 36.8857C25.667 37.0132 25.7034 37.1164 25.7824 37.2014C25.8613 37.2864 25.9766 37.3228 26.1405 37.3228ZM26.8872 39.0287C26.8872 38.9801 26.869 38.9376 26.8387 38.9012C26.8083 38.8709 26.7597 38.8405 26.7112 38.8223C26.6565 38.8041 26.5898 38.7919 26.5169 38.7798C26.4441 38.7737 26.3651 38.7616 26.2802 38.7616C26.1952 38.7616 26.1102 38.7555 26.0191 38.7494C25.9281 38.7494 25.8431 38.7373 25.7581 38.7252C25.6913 38.7677 25.6367 38.8102 25.5942 38.8648C25.5517 38.9194 25.5274 38.9801 25.5274 39.0469C25.5274 39.0955 25.5395 39.138 25.5577 39.1805C25.582 39.2169 25.6184 39.2533 25.667 39.2837C25.7216 39.314 25.7884 39.3322 25.8734 39.3505C25.9584 39.3687 26.0616 39.3747 26.1891 39.3747C26.3166 39.3747 26.4319 39.3687 26.5169 39.3505C26.608 39.3322 26.6808 39.308 26.7355 39.2776C26.7901 39.2472 26.8326 39.2108 26.8569 39.1623C26.8812 39.1198 26.8933 39.0712 26.8933 39.0166M27.6764 36.0358V36.3272C27.6764 36.3697 27.6643 36.4122 27.64 36.4365C27.6157 36.4608 27.5732 36.4851 27.5125 36.4972L27.2697 36.5458C27.3 36.6368 27.3182 36.74 27.3182 36.8493C27.3182 36.995 27.2879 37.1286 27.2272 37.2439C27.1665 37.3593 27.0815 37.4625 26.9783 37.5474C26.8751 37.6324 26.7476 37.6931 26.608 37.7417C26.4623 37.7842 26.3105 37.8085 26.1405 37.8085C26.0373 37.8085 25.9402 37.8024 25.8431 37.7842C25.7641 37.8328 25.7216 37.8874 25.7216 37.9481C25.7216 38.0088 25.7459 38.0452 25.8006 38.0695C25.8552 38.0938 25.9281 38.112 26.013 38.1242C26.1041 38.1363 26.2012 38.1424 26.3166 38.1424C26.4319 38.1424 26.5473 38.1545 26.6626 38.1606C26.778 38.1727 26.8933 38.1849 27.0086 38.2092C27.124 38.2334 27.2211 38.2699 27.3122 38.3245C27.4032 38.3791 27.47 38.452 27.5247 38.543C27.5793 38.6341 27.6036 38.7494 27.6036 38.8891C27.6036 39.0226 27.5732 39.1501 27.5064 39.2715C27.4397 39.399 27.3486 39.5083 27.2211 39.6054C27.0997 39.7026 26.9479 39.7815 26.7658 39.8422C26.5837 39.9029 26.3834 39.9272 26.1527 39.9272C25.922 39.9272 25.7277 39.9029 25.5638 39.8665C25.3938 39.824 25.2603 39.7633 25.1449 39.6904C25.0357 39.6176 24.9507 39.5386 24.9021 39.4415C24.8475 39.3505 24.8232 39.2533 24.8232 39.1501C24.8232 39.0166 24.8657 38.9073 24.9446 38.8162C25.0235 38.7252 25.1328 38.6523 25.2785 38.5977C25.2056 38.5552 25.1449 38.5005 25.0964 38.4338C25.0539 38.367 25.0296 38.2759 25.0296 38.1667C25.0296 38.0817 25.0599 37.9906 25.1267 37.8874C25.1935 37.7903 25.2906 37.7114 25.4242 37.6446C25.2724 37.5657 25.151 37.4564 25.066 37.3228C24.981 37.1893 24.9325 37.0314 24.9325 36.8493C24.9325 36.7036 24.9628 36.5701 25.0235 36.4486C25.0842 36.3333 25.1692 36.2301 25.2724 36.1451C25.3817 36.0601 25.5031 35.9994 25.6488 35.9569C25.7945 35.9144 25.9523 35.8901 26.1223 35.8901C26.3773 35.8901 26.5958 35.9387 26.7901 36.0358H27.6582H27.6764Z"/><path fill="#005BAA" d="M33.7168 38.9134H32.8548C32.8001 38.9134 32.7516 38.8952 32.7151 38.8709C32.6787 38.8405 32.6544 38.8102 32.6301 38.7677L31.7317 37.2379C31.7317 37.2379 31.7135 37.2804 31.7074 37.2986C31.7013 37.3168 31.6892 37.335 31.677 37.3532L30.8211 38.7677C30.7968 38.8041 30.7664 38.8405 30.7361 38.8648C30.6996 38.8952 30.6632 38.9073 30.6086 38.9073H29.8073L31.1671 36.7643L29.8558 34.7428H30.7179C30.7725 34.7428 30.815 34.7489 30.8453 34.7671C30.8696 34.7853 30.8939 34.8096 30.9182 34.8399L31.8106 36.309C31.8106 36.309 31.8288 36.2605 31.8409 36.2362C31.8531 36.2119 31.8652 36.1876 31.8834 36.1633L32.6848 34.8521C32.7091 34.8156 32.7333 34.7853 32.7576 34.7671C32.788 34.7489 32.8183 34.7428 32.8608 34.7428H33.6864L32.363 36.7219L33.7168 38.9012V38.9134Z"/><path fill="#005BAA" d="M35.5623 37.6749C35.368 37.687 35.2102 37.6991 35.0827 37.7234C34.9552 37.7477 34.852 37.7781 34.7792 37.8145C34.7063 37.8509 34.6517 37.8934 34.6213 37.942C34.591 37.9905 34.5728 38.0452 34.5728 38.0998C34.5728 38.2152 34.6031 38.2941 34.6699 38.3426C34.7367 38.3912 34.8217 38.4155 34.937 38.4155C35.0706 38.4155 35.1859 38.3912 35.277 38.3426C35.3741 38.2941 35.4712 38.2212 35.5623 38.1241V37.6627V37.6749ZM36.1754 35.5623H35.6473C35.6473 35.5623 35.5866 35.5562 35.5562 35.544C35.5259 35.5319 35.4955 35.5137 35.4652 35.4894L35.2102 35.2162C35.2102 35.2162 35.192 35.198 35.1798 35.1859C35.1677 35.1737 35.1556 35.1616 35.1495 35.1434C35.1252 35.1737 35.107 35.198 35.0827 35.2162L34.8217 35.4894C34.767 35.538 34.7063 35.5623 34.6456 35.5623H34.0993L34.767 34.7488H35.5077L36.1754 35.5623ZM33.9536 36.3636C34.1296 36.2058 34.3178 36.0904 34.5303 36.0115C34.7428 35.9326 34.9674 35.8961 35.2102 35.8961C35.3863 35.8961 35.5441 35.9204 35.6837 35.9811C35.8233 36.0358 35.9387 36.1147 36.0358 36.2179C36.1329 36.3211 36.2058 36.4425 36.2604 36.5821C36.3151 36.7218 36.3394 36.8796 36.3394 37.0496V38.9072H35.9751C35.9023 38.9072 35.8416 38.8951 35.8051 38.8769C35.7626 38.8587 35.7323 38.8101 35.708 38.7433L35.6473 38.5551C35.5744 38.6219 35.5016 38.6765 35.4287 38.7312C35.362 38.7797 35.2891 38.8222 35.2102 38.8587C35.1374 38.889 35.0584 38.9133 34.9734 38.9315C34.8884 38.9497 34.7913 38.9558 34.6881 38.9558C34.5606 38.9558 34.4392 38.9376 34.3299 38.9072C34.2207 38.8708 34.1296 38.8222 34.0507 38.7555C33.9718 38.6887 33.9111 38.6037 33.8686 38.5005C33.8261 38.3973 33.8079 38.2819 33.8079 38.1484C33.8079 38.0391 33.8382 37.9298 33.8929 37.8206C33.9475 37.7113 34.0446 37.6142 34.1782 37.5231C34.3117 37.4381 34.4939 37.3592 34.7185 37.3046C34.9431 37.2438 35.2223 37.2135 35.5623 37.2074V37.0557C35.5623 36.8735 35.5259 36.7339 35.447 36.6489C35.368 36.5639 35.2588 36.5214 35.107 36.5214C34.9977 36.5214 34.9067 36.5336 34.8338 36.5579C34.761 36.5821 34.7003 36.6125 34.6456 36.6428C34.591 36.6732 34.5424 36.6975 34.4939 36.7218C34.4453 36.7521 34.3907 36.7582 34.3299 36.7582C34.2753 36.7582 34.2267 36.746 34.1903 36.7157C34.1539 36.6853 34.1235 36.655 34.0993 36.6186L33.9596 36.3697L33.9536 36.3636Z"/><path fill="#005BAA" d="M39.5386 35.9508L37.942 39.7025C37.9177 39.7571 37.8874 39.7936 37.851 39.8239C37.8145 39.8543 37.7599 39.8664 37.681 39.8664H37.0921L37.6506 38.6766L36.4608 35.9569H37.1528C37.2135 35.9569 37.2621 35.9751 37.2985 35.9994C37.3349 36.0297 37.3592 36.0601 37.3714 36.1026L37.9359 37.5171C37.9542 37.5717 37.9784 37.6263 37.9906 37.687C38.0088 37.7417 38.0209 37.8024 38.0391 37.857C38.0756 37.7417 38.112 37.6263 38.1545 37.5171L38.6766 36.1086C38.6887 36.0661 38.7191 36.0297 38.7616 36.0054C38.8041 35.9812 38.8465 35.9629 38.8951 35.9629H39.5265L39.5386 35.9508Z"/><path fill="#005BAA" d="M44.8566 36.8251C44.8566 36.6065 44.8262 36.4122 44.7716 36.2362C44.7169 36.0601 44.632 35.9144 44.5227 35.793C44.4134 35.6716 44.2859 35.5806 44.1342 35.5138C43.9824 35.447 43.8063 35.4166 43.6121 35.4166H42.8775V38.2274H43.6121C43.8063 38.2274 43.9824 38.197 44.1342 38.1303C44.2859 38.0696 44.4195 37.9724 44.5227 37.851C44.632 37.7296 44.7109 37.5839 44.7716 37.4078C44.8262 37.2318 44.8566 37.0375 44.8566 36.819M45.7429 36.819C45.7429 37.1225 45.6943 37.4018 45.5911 37.6567C45.4879 37.9117 45.3422 38.1303 45.1601 38.3124C44.9719 38.4945 44.7473 38.6402 44.4863 38.7434C44.2252 38.8466 43.9338 38.9012 43.6121 38.9012H42.0094V34.7428H43.6121C43.9338 34.7428 44.2191 34.7914 44.4863 34.9006C44.7473 35.0038 44.9719 35.1495 45.1601 35.3317C45.3483 35.5138 45.4879 35.7323 45.5911 35.9873C45.6943 36.2423 45.7429 36.5215 45.7429 36.819Z"/><path fill="#005BAA" d="M47.8919 39.5811C47.8919 39.6418 47.8798 39.6965 47.8555 39.745C47.8312 39.7936 47.8009 39.8422 47.7584 39.8786C47.7159 39.915 47.6734 39.9454 47.6188 39.9636C47.5641 39.9879 47.5095 40 47.4488 40C47.3881 40 47.3334 39.9879 47.2849 39.9636C47.2302 39.9454 47.1877 39.915 47.1513 39.8786C47.1149 39.8422 47.0845 39.7936 47.0603 39.745C47.036 39.6965 47.0238 39.6418 47.0238 39.5811C47.0238 39.5204 47.036 39.4658 47.0603 39.4172C47.0845 39.3686 47.1149 39.3201 47.1513 39.2836C47.1877 39.2472 47.2363 39.2169 47.2849 39.1926C47.3334 39.1683 47.3881 39.1622 47.4488 39.1622C47.5095 39.1622 47.5641 39.1744 47.6188 39.1926C47.6734 39.2169 47.7159 39.2472 47.7584 39.2836C47.8009 39.3201 47.8312 39.3686 47.8555 39.4172C47.8798 39.4658 47.8919 39.5265 47.8919 39.5811ZM49.8831 35.5016C49.8953 35.538 49.9013 35.5866 49.9135 35.6412C49.9196 35.6958 49.9256 35.7566 49.9256 35.8173C49.9256 35.9448 49.9074 36.0662 49.8649 36.1815C49.8224 36.2969 49.7617 36.4001 49.6767 36.485C49.5917 36.57 49.4825 36.649 49.355 36.7036C49.2214 36.7582 49.0697 36.7886 48.8875 36.8007V38.9133H48.4019C48.2987 38.9133 48.238 38.8648 48.2076 38.7737L48.1591 38.5673C48.0983 38.628 48.0376 38.6766 47.9769 38.7251C47.9162 38.7737 47.8494 38.8162 47.7766 38.8466C47.7037 38.883 47.6248 38.9073 47.5459 38.9255C47.4609 38.9437 47.3699 38.9498 47.2727 38.9498C47.1149 38.9498 46.9692 38.9255 46.8417 38.8648C46.7142 38.8101 46.611 38.7312 46.526 38.6341C46.441 38.5369 46.3803 38.4155 46.3318 38.2759C46.2893 38.1424 46.265 37.9906 46.265 37.8267V35.9447H47.0542V37.8267C47.0542 37.9906 47.0906 38.1181 47.1695 38.2091C47.2424 38.3002 47.3577 38.3488 47.5034 38.3488C47.6127 38.3488 47.7159 38.3245 47.813 38.2759C47.9102 38.2273 48.0012 38.1606 48.0923 38.0756V35.9508H48.8815V36.4547C49.0029 36.4425 49.0939 36.4061 49.1486 36.3454C49.2093 36.2847 49.2336 36.224 49.2336 36.1512C49.2336 36.1208 49.2275 36.0965 49.2154 36.0722C49.2032 36.048 49.185 36.0237 49.1729 35.9994C49.1546 35.9751 49.1425 35.9448 49.1304 35.9083C49.1182 35.878 49.1122 35.8355 49.1122 35.793C49.1122 35.7019 49.1425 35.6291 49.2093 35.5805C49.27 35.5319 49.3732 35.5077 49.5068 35.5077H49.8892L49.8831 35.5016Z"/><path fill="#005BAA" d="M50.9091 36.2969C50.9698 36.2362 51.0305 36.1876 51.0912 36.139C51.158 36.0905 51.2248 36.048 51.2976 36.0176C51.3705 35.9812 51.4494 35.9569 51.5283 35.9387C51.6133 35.9205 51.7044 35.9144 51.8015 35.9144C51.9654 35.9144 52.105 35.9387 52.2264 35.9933C52.3539 36.048 52.4571 36.1269 52.5421 36.224C52.6271 36.3212 52.6939 36.4426 52.7364 36.5822C52.7789 36.7158 52.8032 36.8675 52.8032 37.0314V38.9134H52.014V37.0314C52.014 36.8675 51.9775 36.74 51.8986 36.649C51.8197 36.5579 51.7104 36.5094 51.5587 36.5094C51.4494 36.5094 51.3462 36.5336 51.243 36.5822C51.1458 36.6308 51.0548 36.6976 50.9637 36.7825V38.9073H50.1745V35.9509H50.6602C50.7573 35.9509 50.8241 35.9994 50.8605 36.0905L50.9091 36.2969Z"/><path fill="#005BAA" d="M54.4787 37.3228C54.6426 37.3228 54.7579 37.2803 54.8368 37.2014C54.9158 37.1225 54.9522 37.0132 54.9522 36.8857C54.9522 36.7522 54.9158 36.6429 54.8368 36.564C54.7579 36.4851 54.6426 36.4486 54.4787 36.4486C54.3148 36.4486 54.1994 36.4851 54.1205 36.564C54.0476 36.6429 54.0051 36.7461 54.0051 36.8857C54.0051 37.0132 54.0416 37.1164 54.1205 37.2014C54.1994 37.2864 54.3148 37.3228 54.4787 37.3228ZM55.2254 39.0287C55.2254 38.9801 55.2072 38.9376 55.1768 38.9012C55.1464 38.8709 55.0979 38.8405 55.0493 38.8223C54.9947 38.8041 54.9279 38.7919 54.855 38.7798C54.7822 38.7737 54.7033 38.7616 54.6183 38.7616C54.5333 38.7616 54.4483 38.7555 54.3573 38.7494C54.2662 38.7494 54.1812 38.7373 54.0901 38.7252C54.0234 38.7677 53.9687 38.8102 53.9262 38.8648C53.8837 38.9194 53.8595 38.9801 53.8595 39.0469C53.8595 39.0955 53.8716 39.138 53.8898 39.1805C53.9141 39.2169 53.9505 39.2533 53.9991 39.2837C54.0476 39.314 54.1205 39.3322 54.1994 39.3505C54.2844 39.3687 54.3876 39.3747 54.5151 39.3747C54.6426 39.3747 54.7518 39.3687 54.8429 39.3505C54.934 39.3322 55.0068 39.308 55.0615 39.2776C55.1161 39.2472 55.1586 39.2108 55.1829 39.1623C55.2072 39.1198 55.2193 39.0712 55.2193 39.0166M56.0024 36.0358V36.3272C56.0024 36.3697 55.9903 36.4122 55.966 36.4365C55.9417 36.4608 55.8992 36.4851 55.8385 36.4972L55.5957 36.5458C55.626 36.6368 55.6442 36.74 55.6442 36.8493C55.6442 36.995 55.6139 37.1286 55.5532 37.2439C55.4925 37.3593 55.4075 37.4625 55.3043 37.5474C55.2011 37.6324 55.0736 37.6931 54.934 37.7417C54.7883 37.7842 54.6365 37.8085 54.4726 37.8085C54.3694 37.8085 54.2662 37.8024 54.1751 37.7842C54.0962 37.8328 54.0537 37.8874 54.0537 37.9481C54.0537 38.0088 54.078 38.0452 54.1326 38.0695C54.1873 38.0938 54.2601 38.112 54.3451 38.1242C54.4362 38.1363 54.5333 38.1424 54.6486 38.1424C54.764 38.1424 54.8793 38.1545 54.9947 38.1606C55.11 38.1727 55.2254 38.1849 55.3407 38.2092C55.4561 38.2334 55.5532 38.2699 55.6442 38.3245C55.7353 38.3791 55.8021 38.452 55.8567 38.543C55.9114 38.6341 55.9417 38.7494 55.9417 38.8891C55.9417 39.0226 55.9114 39.1501 55.8446 39.2715C55.7778 39.399 55.6867 39.5083 55.5653 39.6054C55.4439 39.7026 55.2921 39.7815 55.11 39.8422C54.9279 39.9029 54.7276 39.9272 54.4969 39.9272C54.2662 39.9272 54.0719 39.9029 53.908 39.8665C53.738 39.824 53.6045 39.7633 53.4891 39.6904C53.3799 39.6176 53.2949 39.5386 53.2463 39.4415C53.1917 39.3505 53.1674 39.2533 53.1674 39.1501C53.1674 39.0166 53.2099 38.9073 53.2888 38.8162C53.3677 38.7252 53.477 38.6523 53.6227 38.5977C53.5498 38.5552 53.4891 38.5005 53.4406 38.4338C53.3981 38.367 53.3738 38.2759 53.3738 38.1667C53.3738 38.0817 53.4041 37.9906 53.4709 37.8874C53.5316 37.7903 53.6348 37.7114 53.7684 37.6446C53.6166 37.5657 53.4952 37.4564 53.4102 37.3228C53.3252 37.1893 53.2767 37.0314 53.2767 36.8493C53.2767 36.7036 53.307 36.5701 53.3677 36.4486C53.4284 36.3333 53.5134 36.2301 53.6166 36.1451C53.7259 36.0601 53.8473 35.9994 53.993 35.9569C54.1387 35.9144 54.2965 35.8901 54.4665 35.8901C54.7154 35.8901 54.94 35.9387 55.1343 36.0358H56.0024Z"/></g><defs><linearGradient id="paint0_linear_4_2087" x1="34.86" x2="44.958" y1="14.241" y2="14.241" gradientUnits="userSpaceOnUse"><stop stop-color="#007BC1"/><stop offset=".25" stop-color="#2070B8"/><stop offset=".4" stop-color="#2D6CB5"/><stop offset=".46" stop-color="#2767AF"/><stop offset=".8" stop-color="#0A4F93"/><stop offset="1" stop-color="#004789"/></linearGradient><linearGradient id="paint1_linear_4_2087" x1="47.318" x2="51.912" y1="7.478" y2="16.498" gradientUnits="userSpaceOnUse"><stop stop-color="#007BC1"/><stop offset=".25" stop-color="#2070B8"/><stop offset=".4" stop-color="#2D6CB5"/><stop offset=".48" stop-color="#2567AF"/><stop offset=".81" stop-color="#0A579E"/><stop offset="1" stop-color="#005198"/></linearGradient><linearGradient id="paint2_linear_4_2087" x1="55.435" x2="45.394" y1="20.077" y2="20.077" gradientUnits="userSpaceOnUse"><stop stop-color="#007BC1"/><stop offset=".25" stop-color="#2070B8"/><stop offset=".4" stop-color="#2D6CB5"/><stop offset=".46" stop-color="#2767AF"/><stop offset=".8" stop-color="#0A4F93"/><stop offset="1" stop-color="#004789"/></linearGradient><radialGradient id="paint3_radial_4_2087" cx="0" cy="0" r="1" gradientTransform="translate(49.6211 -0.417059) scale(20.9042 20.9042)" gradientUnits="userSpaceOnUse"><stop stop-color="#FFCF01"/><stop offset=".7" stop-color="#FBAD18"/><stop offset=".92" stop-color="#F89B1C"/><stop offset="1" stop-color="#F7941E"/></radialGradient><clipPath id="clip0_4_2087"><rect width="56.002" height="40" fill="#fff"/></clipPath></defs></svg>