<svg xmlns="http://www.w3.org/2000/svg" width="40" height="40" fill="none" viewBox="0 0 40 40"><g clip-path="url(#clip0_11_421)"><path fill="#126BC5" d="M14.4118 0.000107721C14.2346 -0.00214979 14.0587 0.0310966 13.8945 0.0978666C13.7304 0.164637 13.5813 0.263582 13.456 0.388886C13.3307 0.514191 13.2317 0.663321 13.1649 0.827468C13.0982 0.991614 13.0649 1.16743 13.0672 1.34462V11.2606H39.2857L27.3529 0.000107721H14.4118Z"/><path fill="#126BC5" d="M40.1261 14.2858C40.1284 14.1086 40.0951 13.9327 40.0284 13.7686C39.9616 13.6044 39.8627 13.4553 39.7373 13.33C39.612 13.2047 39.4629 13.1057 39.2988 13.039C39.1346 12.9722 38.9588 12.939 38.7816 12.9412H28.8656V39.1597L40.1261 27.2269V14.2858Z"/><path fill="#126BC5" d="M25.8402 40.0002C26.0174 40.0024 26.1933 39.9692 26.3574 39.9024C26.5216 39.8356 26.6707 39.7367 26.796 39.6114C26.9213 39.4861 27.0203 39.3369 27.087 39.1728C27.1538 39.0087 27.187 38.8328 27.1848 38.6556V28.7397H0.966309L12.899 40.0002H25.8402Z"/><path fill="#126BC5" d="M0.126084 25.7144C0.123827 25.8916 0.157022 26.0675 0.223792 26.2316C0.290562 26.3958 0.389559 26.5449 0.514863 26.6702C0.640167 26.7955 0.789246 26.8944 0.953393 26.9612C1.11754 27.028 1.29341 27.0612 1.4706 27.059H11.3866V1.00854L0.126084 12.9413V25.7144Z"/></g><defs><clipPath id="clip0_11_421"><rect width="40" height="40" fill="#fff"/></clipPath></defs></svg>