<svg xmlns="http://www.w3.org/2000/svg" width="240" height="80" fill="none" viewBox="0 0 240 80"><path fill="#790008" d="M46.6661 55.4305H17V24.5691H46.6661V55.4305Z"/><path fill="#fff" d="M36.7799 30.4011H21.0072L27.9876 40.0038H43.7603L36.7799 30.4011Z"/><path fill="#ED1D24" d="M43.7598 40.003H27.9885L21.0082 49.6H36.7795L43.7598 40.003Z"/><path fill="#790008" d="M118.095 46.4492H114.243V41.6892H118.095C119.886 41.6892 120.527 42.9121 120.527 44.055C120.527 45.215 119.886 46.4492 118.095 46.4492ZM114.243 33.5533H117.846C119.359 33.5533 120.258 34.3852 120.258 35.7764C120.258 37.1675 119.359 38.0037 117.846 38.0037H114.243V33.5533ZM121.902 39.7459C122.768 39.2522 124.177 37.8667 124.177 35.6051C124.177 32.0794 121.875 29.8849 118.151 29.8849H110.327V50.1105H118.476C122.162 50.1105 124.451 47.8647 124.451 44.2519C124.451 41.5351 122.913 40.2809 121.902 39.7459ZM95.0509 42.8079C94.9055 42.5425 88.1775 29.8463 88.1775 29.8463H84.3561V50.0706H88.2626V37.9908C88.563 38.5188 95.0509 50.2361 95.0509 50.2361C95.0509 50.2361 101.498 38.5216 101.787 37.9951V50.0706H105.722V29.8463H101.875C101.875 29.8463 95.1908 42.5425 95.0509 42.8079ZM75.6036 50.1105H79.5361V29.8849H75.6036V50.1105ZM69.106 45.2407C67.958 46.1895 66.5753 46.6932 65.109 46.6932C61.5688 46.6932 58.8076 43.7496 58.8076 40.0027C58.8076 36.2415 61.5688 33.3093 65.109 33.3093C66.5753 33.3093 67.958 33.8102 69.1033 34.7633L69.154 34.8089L71.9042 31.9609L71.8288 31.901C69.9592 30.2173 67.567 29.2942 65.109 29.2942C59.3783 29.2942 54.7009 34.0998 54.7009 40.0027C54.7009 45.9056 59.3783 50.7041 65.109 50.7041C67.567 50.7041 69.9592 49.7795 71.8288 48.0944L71.9042 48.0359L69.154 45.195L69.106 45.2407Z"/><path fill="#790008" d="M145.557 33.462C144.277 32.0451 142.485 31.1804 140.156 31.1804C135.283 31.1804 132.383 35.1542 132.383 39.6902C132.383 44.2247 135.283 48.1957 140.156 48.1957C142.108 48.1957 143.974 47.6378 145.398 46.8088V40.221H140.874V38.3789H147.305V48.0259C145.216 49.3329 142.453 50.0292 140.156 50.0292C134.522 50.0292 130.293 45.6687 130.293 39.6902C130.293 33.7145 134.522 29.3441 140.156 29.3441C143.149 29.3441 145.315 30.2359 146.994 31.9909L145.557 33.462Z"/><path fill="#790008" d="M159.661 31.6247H154.588V38.8817H159.661C161.873 38.8817 163.456 37.6888 163.456 35.2632C163.456 32.8489 161.873 31.6247 159.661 31.6247ZM163.478 49.5303L159.153 40.7508H154.588V49.5303H152.554V29.7341H159.85C163.161 29.7341 165.487 31.8244 165.487 35.2389C165.487 38.1326 163.804 40.0246 161.342 40.5525L165.867 49.5303H163.478Z"/><path fill="#790008" d="M178.483 31.1808C173.609 31.1808 170.712 35.1532 170.712 39.6891C170.712 44.2237 173.609 48.1946 178.483 48.1946C183.342 48.1946 186.251 44.2237 186.251 39.6891C186.251 35.1532 183.342 31.1808 178.483 31.1808ZM178.483 50.0295C172.831 50.0295 168.623 45.6691 168.623 39.6891C168.623 33.7135 172.831 29.343 178.483 29.343C184.118 29.343 188.336 33.7135 188.336 39.6891C188.336 45.6691 184.118 50.0295 178.483 50.0295Z"/><path fill="#790008" d="M205.453 42.1877C205.453 45.4751 204.196 50.0297 198.523 50.0297C192.861 50.0297 191.606 45.4751 191.606 42.1877V29.8454H193.529V41.9679C193.529 47.6368 197.074 48.1947 198.523 48.1947C199.962 48.1947 203.525 47.6368 203.525 41.9679V29.8454H205.453V42.1877Z"/><path fill="#790008" d="M216.941 31.6254H212.071V39.4988H216.941C219.313 39.4988 220.97 38.1547 220.97 35.5464C220.97 32.9338 219.313 31.6254 216.941 31.6254ZM217.132 41.3822H212.071V49.5295H210.038V29.7348H217.132C220.59 29.7348 223 31.9907 223 35.5464C223 39.1049 220.59 41.3822 217.132 41.3822Z"/></svg>