<svg xmlns="http://www.w3.org/2000/svg" width="240" height="80" fill="none" viewBox="0 0 240 80"><path fill="#E04245" fill-rule="evenodd" d="M104.027 30.4638C99.3997 23.9062 91.7167 20 83.8921 20C76.0675 20 68.3912 23.9062 63.7707 30.4638L63.5346 30.8011H69.3626L69.4233 30.7337C73.3896 26.6386 78.57 24.4797 83.8921 24.4797C89.2142 24.4797 94.3946 26.6453 98.3676 30.7337L98.4351 30.8011H104.263L104.027 30.4638Z" clip-rule="evenodd"/><path fill="#1F4889" fill-rule="evenodd" d="M61.14 52.2617L61.0253 52.3696C59.231 54.1979 57.1602 55.1627 55.0219 55.1627C50.57 55.1627 47.3322 51.8164 47.3322 47.2018C47.3322 42.5872 50.57 39.241 55.0219 39.241C57.1602 39.241 59.231 40.2125 61.0253 42.0408L61.14 42.1487L64.0067 38.681L63.9258 38.5865C61.5447 35.7665 58.6779 34.397 55.1636 34.397C51.6492 34.397 48.4115 35.5911 46.0843 37.723C43.5548 40.0438 42.226 43.3158 42.226 47.1951C42.226 51.0743 43.5548 54.3464 46.0843 56.6672C48.4115 58.8193 51.6357 59.9999 55.1636 59.9999C58.6914 59.9999 61.5447 58.6304 63.9258 55.8036L64.0067 55.7227L61.14 52.255V52.2617Z" clip-rule="evenodd"/><path fill="#1F4889" d="M71.9663 34.8018H66.9005V59.5344H71.9663V34.8018Z"/><path fill="#1F4889" fill-rule="evenodd" d="M91.8111 54.1573C90.4553 54.9804 89.2007 55.3919 88.0742 55.3919C86.4418 55.3919 85.6931 54.5284 85.6931 52.6056V39.4837H90.86V34.8286H85.6931V27.1376L80.7285 29.7957V34.8286H76.4452V39.4837H80.7285V53.4422C80.7285 57.2404 82.9815 59.8446 86.3474 59.9121C88.6273 59.9593 90.0034 59.2779 90.8398 58.7786L90.8938 58.7449L92.1079 53.9751L91.8111 54.1573Z" clip-rule="evenodd"/><path fill="#1F4889" d="M101.073 34.8018H96V59.5344H101.073V34.8018Z"/><path fill="#1F4889" d="M110.293 57.0113H110.185L109.936 59.4131H108.115V27.1311L110.3 25.6199V34.1677L110.192 38.7958C112.587 36.7718 115.474 35.0785 118.361 35.0785C124.729 35.0785 127.865 39.8415 127.865 47.1817C127.865 55.2437 123.002 60 117.403 60C115.137 60 112.519 58.8261 110.287 57.0046L110.293 57.0113ZM125.578 47.2019C125.578 41.3662 123.501 37.0215 118.024 37.0215C115.669 37.0215 113.079 38.4045 110.3 40.9344V55.0144C112.89 57.2407 115.487 58.0705 117.288 58.0705C122.111 58.0705 125.572 53.6381 125.572 47.2019H125.578Z"/><path fill="#1F4889" d="M130.894 53.5031C130.894 48.2273 135.649 45.7176 146.206 44.5505C146.273 40.9006 145.275 36.9944 140.607 36.9944C137.403 36.9944 134.637 38.5731 133.046 39.7807L132.04 38.1615C133.72 36.9741 137.012 35.0784 140.87 35.0784C146.496 35.0784 148.391 39.16 148.391 44.2401V59.4062H146.543L146.307 56.3231H146.199C143.777 58.2796 140.89 59.9999 137.774 59.9999C134.017 59.9999 130.894 57.9557 130.894 53.4963V53.5031ZM146.206 54.2924V46.2168C136.459 47.3435 133.126 49.6103 133.126 53.3951C133.126 56.8021 135.427 58.1109 138.159 58.1109C140.89 58.1109 143.271 56.7953 146.206 54.2924Z"/><path fill="#1F4889" d="M155.278 35.6721H157.126L157.363 39.3489H157.47C159.892 36.9337 162.361 35.0784 165.639 35.0784C170.543 35.0784 172.816 38.0536 172.816 44.1861V59.413H170.631V44.4762C170.631 39.4434 169.039 37.0483 165.221 37.0483C162.395 37.0483 160.344 38.5393 157.464 41.5078V59.413H155.278V35.6721Z"/><path fill="#1F4889" d="M182.132 25.8087V50.0556H182.239L193.956 35.6721H196.479L188.749 45.0632L197.774 59.4063H195.339L187.46 46.6891L182.132 52.9364V59.3995H179.966V27.2592L182.132 25.8087Z"/></svg>