<svg xmlns="http://www.w3.org/2000/svg" width="240" height="80" fill="none" viewBox="0 0 240 80"><path fill="#fff" d="M57.5353 53.3325H83.9854V26.6278H57.5353V53.3325Z"/><path fill="#F33" d="M83.1292 52.4994L73.5257 44.3769C73.5257 44.3769 72.2298 43.1042 70.7719 43.1042C69.2909 43.1042 67.995 44.3769 67.995 44.3769L58.3915 52.4994L58.3683 52.4763L66.4214 42.7802C66.4214 42.7802 67.6941 41.4612 67.6941 39.9802C67.6941 38.4991 66.4214 37.2033 66.4214 37.2033L58.3683 27.484L58.3915 27.4609L67.995 35.6065C67.995 35.6065 69.2909 36.9024 70.7719 36.9024C72.2298 36.9024 73.5257 35.6065 73.5257 35.6065L83.1292 27.4609L83.1754 27.5072L75.0993 37.2033C75.0993 37.2033 73.8496 38.5223 73.8496 39.9802C73.8496 41.4612 75.0993 42.7802 75.0993 42.7802L83.1754 52.4763L83.1292 52.4994ZM87.6185 39.9802C87.6185 37.3421 87.7342 35.0049 89.6549 30.8626C90.2103 29.6593 91.4368 27.9006 89.6318 25.8642C88.1508 24.3832 86.4846 24.6146 85.3507 25.2857C85.9986 24.1517 86.2532 22.4393 84.7722 20.9583C82.7589 19.1302 81.0002 20.3798 79.82 20.9352C75.7241 22.879 73.41 22.9947 70.795 22.9947C68.1801 22.9947 65.8429 22.879 61.7701 20.9352C60.5899 20.3798 58.8312 19.1302 56.8179 20.9583C55.3369 22.4625 55.5914 24.1517 56.2394 25.2857C55.1055 24.6146 53.4162 24.3832 51.9583 25.8642C50.1302 27.9006 51.3798 29.6593 51.9352 30.8626C53.879 35.0049 53.9947 37.3652 53.9947 39.9802C53.9947 42.6182 53.879 44.9786 51.9352 49.1208C51.3798 50.3242 50.1533 52.0829 51.9583 54.1193C53.4393 55.6003 55.1286 55.3458 56.2394 54.6978C55.5914 55.8317 55.3369 57.5442 56.8179 59.0252C58.8312 60.8764 60.5899 59.6268 61.7701 59.0483C65.866 57.1045 68.1801 56.9888 70.795 56.9888C73.41 56.9888 75.7241 57.0813 79.82 59.0483C81.0002 59.6037 82.7589 60.8533 84.7722 59.0252C86.2532 57.5442 85.9986 55.8549 85.3507 54.6978C86.4846 55.3458 88.1508 55.6003 89.6318 54.1193C91.4599 52.0829 90.2103 50.301 89.6549 49.1208C87.7111 44.9786 87.6185 42.6182 87.6185 39.9802Z"/><path fill="#000" d="M118.928 55.4846C122.214 54.3045 126.287 48.6349 125.616 39.7025C124.968 31.0709 121.705 24.2906 113.027 23.6427C113.027 23.6427 111.384 23.527 109.996 23.527C108.515 23.527 108.214 23.4576 108.098 25.0543C107.913 28.0395 107.844 51.273 108.052 54.6284C108.075 55.0912 108.121 56.202 110.019 56.3871C113.467 56.7111 116.336 56.4334 118.928 55.4846ZM115.573 22.1617C122.908 22.1385 132.581 27.2064 132.558 39.9339C132.535 50.9953 124.621 57.7987 117.332 57.7987H98.7956L98.8187 57.4053C99.8601 57.2202 101.04 56.5723 101.225 55.8549C101.85 53.1937 101.688 28.8263 101.318 24.8229C101.202 23.5733 100.23 22.7633 99.027 22.5551L98.9807 22.1848C98.9807 22.1617 113.907 22.1848 115.573 22.1617ZM156.185 49.0515C156.324 41.3918 150.77 39.3554 145.031 39.0546C144.916 39.0546 144.962 38.7537 145.054 38.7537C146.929 38.6843 154.357 37.8049 154.056 30.6312C153.755 23.6427 148.502 23.4807 146.582 23.4576C145.008 23.4344 144.684 23.4344 144.013 23.4807C142.902 23.527 142.625 23.6195 142.625 24.8229C142.625 24.9849 142.37 37.4116 142.231 46.1588C142.162 50.9027 142.139 54.559 142.139 54.559C142.162 55.4384 142.069 56.3177 144.175 56.4103C146.373 56.526 149.197 56.6186 151.164 56.1789C152.992 55.8086 156.069 54.4664 156.185 49.0515ZM153.917 38.7769C162.549 40.929 163.081 47.2465 162.965 49.0052C162.572 56.8962 155.954 57.7987 153.269 57.7987H132.882L132.905 57.4053C134.386 57.1971 135.497 56.3871 135.497 53.7491L135.613 26.5816C135.636 23.6427 134.872 22.7402 133.276 22.5319L133.229 22.1617H148.641C151.464 22.1617 160.003 21.5831 160.721 29.4973C161.322 35.838 154.426 38.4992 153.917 38.7769ZM187.171 22.2774H187.518L187.634 28.618H187.24C186.616 26.0262 184.163 23.5964 179.234 23.3418C173.402 23.041 170.88 26.5353 170.857 29.8676C170.833 34.2875 174.235 35.19 179.28 36.4396C181.663 37.0182 190.457 38.1983 189.763 48.1952C189.277 55.1838 183.306 58.493 174.86 58.2384C174.86 58.2384 171.343 58.1227 166.437 56.7574C165.534 56.5028 165.28 56.8037 164.932 57.4748L164.539 57.4979L164.562 50.6482L164.956 50.6713C165.141 51.3656 165.21 52.6614 166.437 53.7491C167.339 54.559 169.468 56.5491 174.143 56.5954C178.724 56.6648 182.52 54.6978 183.029 49.5143C183.168 48.1258 183.029 44.9092 179.928 43.4513C177.498 42.3174 170.787 41.5538 167.547 38.6843C167.547 38.6843 163.683 35.9768 164.285 30.8858C165.141 23.7121 171.065 21.9302 176.387 21.8145C176.387 21.8145 181.154 21.7683 184.949 22.7633C184.949 22.7633 185.875 23.0179 186.639 22.717C186.916 22.6013 187.078 22.3931 187.171 22.2774Z"/></svg>