<svg xmlns="http://www.w3.org/2000/svg" width="194" height="40" fill="none" viewBox="0 0 194 40"><g clip-path="url(#clip0_4_2076)"><path fill="#005D98" d="M29.4543 26.5524C29.542 26.6298 29.6187 26.7183 29.6953 26.8067L30.0897 27.2048L29.4543 26.5524Z"/><path fill="#005D98" d="M135.595 19.5743H141.576V25.3692L146.735 19.5743H154.961L148.641 26.7626L155.235 39.1596H147.896L144.084 31.7834L141.576 34.6918V39.1596H135.595V19.5743Z"/><path fill="#005D98" d="M112.702 19.5743H118.124L126.865 30.5226V19.5743H132.681V39.1596H126.865L118.518 28.7643L118.529 39.1596H112.702V19.5743Z"/><path fill="#005D98" d="M5.99164 24.4843H14.5136V19.5631H0V39.1373H14.5136V34.2714H5.99164V31.8053H13.0677V26.8952H5.99164V26.8509V24.4843Z"/><path fill="#005D98" d="M72.3159 19.5743H83.4996C85.3617 19.5743 86.7966 20.0388 87.7934 20.9788C88.7902 21.9078 89.2941 23.0689 89.2941 24.4513C89.2941 25.6014 88.9326 26.5967 88.2206 27.4262C87.7387 27.9791 87.0486 28.4104 86.1394 28.7311C87.5305 29.0629 88.5492 29.649 89.2064 30.4784C89.8637 31.2968 90.1923 32.3363 90.1923 33.5749C90.1923 34.5923 89.9622 35.4991 89.4912 36.3175C89.0312 37.1248 88.3849 37.7662 87.5743 38.2307C87.0705 38.5293 86.3147 38.7726 85.3069 38.9053C83.9596 39.0822 83.0724 39.1707 82.6343 39.1707H72.3159V19.5854V19.5743ZM78.3404 27.2492H80.9364C81.8675 27.2492 82.5138 27.0833 82.8862 26.7626C83.2477 26.4419 83.4339 25.9664 83.4339 25.3581C83.4339 24.7831 83.2586 24.3407 82.8862 24.02C82.5247 23.6993 81.8894 23.5445 80.9803 23.5445H78.3404V27.2492ZM78.3404 34.9351H81.3855C82.4152 34.9351 83.1381 34.7471 83.5653 34.3822C83.9925 34.0172 84.2006 33.5196 84.2006 32.9003C84.2006 32.3252 83.9925 31.8608 83.5763 31.5069C83.16 31.153 82.4261 30.9761 81.3855 30.9761H78.3514V34.9351H78.3404Z"/><path fill="#005D98" d="M104.027 35.8971H97.2355L96.2825 39.1595H90.1923L97.4655 19.5963H103.983L111.256 39.1595H105.013L104.038 35.8971H104.027ZM102.789 31.6726L100.653 24.6392L98.539 31.6726H102.789Z"/><path fill="#005D98" d="M44.7566 19.5743H38.7649V39.1596H44.7566V19.5743Z"/><path fill="#005D98" d="M69.3913 19.5743H63.4106H61.5595L58.5472 29.3836L55.5131 19.5743H53.6619H47.6703H47.6593V39.1596H47.6703H52.5556H53.6619V29.3062L56.3127 39.1596H60.7489L63.4106 29.3062V39.1596H64.517H69.3913H69.4132V19.5743H69.3913Z"/><path fill="#005D98" d="M37.2424 35.6871C37.2424 35.6871 37.2424 35.6761 37.2424 35.665L37.2205 35.6429C37.2205 35.6429 37.2095 35.6429 37.1986 35.6429L33.3758 31.7833C32.8829 31.1862 32.4995 30.2572 32.4995 29.2951C32.4995 28.2998 32.9048 27.2713 33.6058 26.5525L37.1986 22.9252C37.1986 22.9252 37.2095 22.9141 37.2205 22.9031C37.2424 22.8699 37.2643 22.8256 37.2643 22.7814C37.2643 22.7372 37.2424 22.6929 37.2205 22.6598L37.1986 22.6376L33.2334 18.6343C33.2334 18.6343 33.1567 18.5901 33.1129 18.5901C33.0691 18.5901 33.0253 18.6122 32.9814 18.6454L29.4215 22.2395L27.1103 24.5619C28.0852 25.5461 28.7643 26.2207 28.7643 26.2207C29.8706 27.4593 30.0459 28.2445 30.0459 29.3393C30.0459 30.7217 29.4872 31.6064 28.5124 32.5906L27.0993 34.0172C29.4215 36.3617 32.9705 39.9448 32.9705 39.9448C33.0033 39.978 33.0472 39.989 33.091 39.989C33.1348 39.989 33.1786 39.9669 33.2115 39.9448C33.2115 39.9448 36.4647 36.6603 37.1876 35.9304C37.1876 35.9304 37.2095 35.9083 37.2205 35.8972C37.2424 35.8641 37.2643 35.8309 37.2643 35.7756C37.2643 35.7314 37.2534 35.6982 37.2315 35.665"/><mask id="mask0_4_2076" width="9" height="15" x="16" y="18" maskUnits="userSpaceOnUse" style="mask-type:luminance"><path fill="#fff" d="M20.0671 18.6785C20.0671 18.6785 16.8029 21.963 16.091 22.6928L16.0691 22.715C16.0471 22.7481 16.0252 22.7924 16.0252 22.8366C16.0252 22.8808 16.0362 22.914 16.0581 22.9361C16.0581 22.9361 16.0581 22.9472 16.0691 22.9583L16.091 22.9804C16.091 22.9804 16.091 22.9804 16.1129 22.9804L19.9357 26.8399C20.4286 27.426 20.812 28.366 20.812 29.3282C20.812 30.3235 20.4067 31.3519 19.7057 32.0708C19.7057 32.0708 26.0259 27.1164 23.4956 21.8745C22.9151 21.2884 20.33 18.6785 20.3191 18.6674C20.2862 18.6453 20.2424 18.6232 20.1986 18.6232C20.1548 18.6232 20.1109 18.6453 20.0781 18.6674"/></mask><g mask="url(#mask0_4_2076)"><path fill="url(#paint0_linear_4_2076)" d="M17.5515 14.9481L11.1573 29.9523L24.4189 35.7129L30.813 20.7088L17.5515 14.9481Z"/></g><path fill="#005D98" d="M28.118 26.5634C28.118 26.5634 24.8429 23.2568 23.4517 21.8523C25.6753 26.8841 20.3738 31.3298 19.6618 32.0486L16.069 35.6759C16.069 35.6759 16.058 35.687 16.0471 35.698C16.0142 35.7312 16.0033 35.7754 16.0033 35.8197C16.0033 35.8639 16.0252 35.9081 16.0471 35.9413L16.069 35.9634L20.0342 39.9557C20.0342 39.9557 20.1109 39.9999 20.1547 39.9999C20.1985 39.9999 20.2423 39.9778 20.2752 39.9446L23.8351 36.3505L27.8989 32.2476C28.7752 31.374 29.2681 30.5667 29.2681 29.3392C29.2681 28.3549 29.1148 27.6582 28.129 26.5523"/><mask id="mask1_4_2076" width="3" height="30" x="178" y="0" maskUnits="userSpaceOnUse" style="mask-type:luminance"><path fill="#fff" d="M178.599 29.2619H180.308V0.0775146H178.599V29.273V29.2619Z"/></mask><g mask="url(#mask1_4_2076)"><path fill="url(#paint1_linear_4_2076)" d="M180.308 0.0664062H178.599V29.2619H180.308V0.0664062Z"/></g><mask id="mask2_4_2076" width="16" height="16" x="178" y="0" maskUnits="userSpaceOnUse" style="mask-type:luminance"><path fill="#fff" d="M178.665 0H178.599V3.03014C178.95 1.62566 180.319 1.8026 180.319 1.8026C186.091 2.18966 190.812 6.42521 191.974 11.9989C191.974 11.9989 192.05 12.4191 192.05 12.6403C192.05 13.9231 191.108 15.0401 189.881 15.2391C193.639 15.1064 193.792 12.5076 193.759 12.021C192.565 5.44097 187.023 0.409179 180.253 0.0442355L179.454 0.0110586H178.654L178.665 0Z"/></mask><g mask="url(#mask2_4_2076)"><path fill="url(#paint2_linear_4_2076)" d="M184.391 -7.43565L171.291 9.44336L188.027 22.6823L201.126 5.80332L184.391 -7.43565Z"/></g><mask id="mask3_4_2076" width="13" height="19" x="181" y="11" maskUnits="userSpaceOnUse" style="mask-type:luminance"><path fill="#fff" d="M189.597 15.1507H181.272V29.1734C188.271 28.2997 193.726 22.3943 193.989 15.1617C193.989 14.9737 194 14.7968 194 14.6199C194 13.702 193.912 12.8173 193.759 11.9436C193.759 11.9436 193.869 15.1507 189.597 15.1507Z"/></mask><g mask="url(#mask3_4_2076)"><path fill="url(#paint3_linear_4_2076)" d="M186.35 5.63634L172.896 22.2722L188.899 35.463L202.352 18.8271L186.35 5.63634Z"/></g><g style="mix-blend-mode:overlay"><mask id="mask4_4_2076" width="13" height="19" x="181" y="11" maskUnits="userSpaceOnUse" style="mask-type:luminance"><path fill="#fff" d="M193.989 11.9436H181.261V29.1734H193.989V11.9436Z"/></mask><g mask="url(#mask4_4_2076)"><mask id="mask5_4_2076" width="13" height="19" x="181" y="11" maskUnits="userSpaceOnUse" style="mask-type:luminance"><path fill="#fff" d="M181.261 29.1734C188.26 28.2997 193.715 22.3943 193.978 15.1617C193.978 14.9737 193.989 14.7968 193.989 14.6199C193.989 13.702 193.901 12.8173 193.748 11.9436C193.748 11.9436 193.858 15.1507 189.586 15.1507H181.261V29.1734Z"/></mask><g mask="url(#mask5_4_2076)"><path fill="url(#paint4_radial_4_2076)" d="M193.989 11.9436H181.261V29.1734H193.989V11.9436Z"/></g></g></g><mask id="mask6_4_2076" width="16" height="16" x="165" y="14" maskUnits="userSpaceOnUse" style="mask-type:luminance"><path fill="#fff" d="M165.159 17.3404C166.353 23.9204 171.896 28.9522 178.665 29.3172L179.464 29.3504H180.319V26.3202C179.968 27.7247 178.599 27.5478 178.599 27.5478C172.827 27.1607 168.106 22.9251 166.944 17.3515C166.944 17.3515 166.868 16.9312 166.868 16.71C166.868 15.4272 167.81 14.3103 169.037 14.1112C165.28 14.2439 165.137 16.8428 165.159 17.3293"/></mask><g mask="url(#mask6_4_2076)"><path fill="url(#paint5_linear_4_2076)" d="M170.913 6.68435L157.814 23.5634L174.549 36.8023L187.649 19.9233L170.913 6.68435Z"/></g><mask id="mask7_4_2076" width="14" height="18" x="164" y="0" maskUnits="userSpaceOnUse" style="mask-type:luminance"><path fill="#fff" d="M164.929 14.1885C164.929 14.3765 164.918 14.5534 164.918 14.7304C164.918 15.6483 165.006 16.533 165.159 17.4066C165.159 17.4066 165.049 14.1996 169.321 14.1996H177.646V0.17688C170.647 1.05053 165.192 6.95598 164.929 14.1885Z"/></mask><g mask="url(#mask7_4_2076)"><path fill="url(#paint6_linear_4_2076)" d="M170.015 -6.11398L156.559 10.5195L172.559 23.7131L186.015 7.07958L170.015 -6.11398Z"/></g><g style="mix-blend-mode:overlay"><mask id="mask8_4_2076" width="14" height="18" x="164" y="0" maskUnits="userSpaceOnUse" style="mask-type:luminance"><path fill="#fff" d="M177.646 0.17688H164.918V17.4066H177.646V0.17688Z"/></mask><g mask="url(#mask8_4_2076)"><mask id="mask9_4_2076" width="14" height="18" x="164" y="0" maskUnits="userSpaceOnUse" style="mask-type:luminance"><path fill="#fff" d="M177.646 0.17688C170.647 1.05053 165.192 6.95598 164.929 14.1885C164.929 14.3765 164.918 14.5534 164.918 14.7304C164.918 15.6483 165.006 16.533 165.159 17.4066C165.159 17.4066 165.049 14.1996 169.321 14.1996H177.646V0.17688Z"/></mask><g mask="url(#mask9_4_2076)"><path fill="url(#paint7_radial_4_2076)" d="M177.646 0.17688H164.918V17.4066H177.646V0.17688Z"/></g></g></g></g><defs><linearGradient id="paint0_linear_4_2076" x1="24.862" x2="18.536" y1="27.778" y2="25.082" gradientUnits="userSpaceOnUse"><stop stop-color="#153A63"/><stop offset=".35" stop-color="#153A63"/><stop offset="1" stop-color="#005D98"/></linearGradient><linearGradient id="paint1_linear_4_2076" x1="180.197" x2="180.197" y1="29.014" y2="-.704" gradientUnits="userSpaceOnUse"><stop stop-color="#153A63"/><stop offset=".1" stop-color="#153A63"/><stop offset=".35" stop-color="#23A8E0"/><stop offset=".5" stop-color="#61CAF4"/><stop offset=".65" stop-color="#109CD8"/><stop offset=".9" stop-color="#153A63"/><stop offset="1" stop-color="#153A63"/></linearGradient><linearGradient id="paint2_linear_4_2076" x1="178.116" x2="193.321" y1="-.113" y2="11.687" gradientUnits="userSpaceOnUse"><stop stop-color="#005D98"/><stop offset=".35" stop-color="#23A8E0"/><stop offset=".53" stop-color="#61CAF4"/><stop offset=".62" stop-color="#3EB6E8"/><stop offset=".71" stop-color="#24A7DF"/><stop offset=".79" stop-color="#159FD9"/><stop offset=".85" stop-color="#109CD8"/><stop offset=".87" stop-color="#1095D0"/><stop offset=".91" stop-color="#1185BC"/><stop offset=".94" stop-color="#12699C"/><stop offset=".99" stop-color="#14446F"/><stop offset="1" stop-color="#153A63"/></linearGradient><linearGradient id="paint3_linear_4_2076" x1="191.059" x2="180.879" y1="15.586" y2="27.935" gradientUnits="userSpaceOnUse"><stop stop-color="#19BAED"/><stop offset=".41" stop-color="#0C8DC9"/><stop offset=".79" stop-color="#036BAD"/><stop offset="1" stop-color="#005EA3"/></linearGradient><radialGradient id="paint4_radial_4_2076" cx="0" cy="0" r="1" gradientTransform="translate(180.034 15.3453) scale(14.4733 14.621)" gradientUnits="userSpaceOnUse"><stop stop-color="#fff"/><stop offset=".85" stop-color="#fff"/><stop offset="1" stop-color="#fff"/></radialGradient><linearGradient id="paint5_linear_4_2076" x1="181.012" x2="165.807" y1="29.353" y2="17.553" gradientUnits="userSpaceOnUse"><stop stop-color="#005D98"/><stop offset=".35" stop-color="#23A8E0"/><stop offset=".53" stop-color="#61CAF4"/><stop offset=".62" stop-color="#3EB6E8"/><stop offset=".71" stop-color="#24A7DF"/><stop offset=".79" stop-color="#159FD9"/><stop offset=".85" stop-color="#109CD8"/><stop offset=".87" stop-color="#1095D0"/><stop offset=".91" stop-color="#1185BC"/><stop offset=".94" stop-color="#12699C"/><stop offset=".99" stop-color="#14446F"/><stop offset="1" stop-color="#153A63"/></linearGradient><linearGradient id="paint6_linear_4_2076" x1="167.928" x2="178.11" y1="13.24" y2=".893" gradientUnits="userSpaceOnUse"><stop stop-color="#19BAED"/><stop offset=".41" stop-color="#0C8DC9"/><stop offset=".79" stop-color="#036BAD"/><stop offset="1" stop-color="#005EA3"/></linearGradient><radialGradient id="paint7_radial_4_2076" cx="0" cy="0" r="1" gradientTransform="translate(178.498 13.7163) rotate(-180) scale(14.4733 14.621)" gradientUnits="userSpaceOnUse"><stop stop-color="#fff"/><stop offset=".85" stop-color="#fff"/><stop offset="1" stop-color="#fff"/></radialGradient><clipPath id="clip0_4_2076"><rect width="194" height="40" fill="#fff"/></clipPath></defs></svg>