<svg xmlns="http://www.w3.org/2000/svg" width="240" height="80" fill="none" viewBox="0 0 240 80"><path fill="url(#paint0_linear_13_12732)" d="M161.2 16.9807C161.704 16.5885 162.232 16.1871 162.858 16.0179C163.044 15.9681 163.381 16.014 163.383 16.2619C163.455 17.3061 163.337 18.3594 163.478 19.3996C163.652 21.0092 164.006 22.7026 165.091 23.9632C165.505 24.4722 166.103 24.7621 166.648 25.1084C164.73 25.4088 162.799 25.6252 160.863 25.7328C159.959 25.7433 159.025 25.822 158.154 25.536C157.549 25.3734 157.074 24.8526 156.981 24.2335C156.783 23.0699 157.275 21.9366 157.813 20.9331C158.693 19.4285 159.853 18.0866 161.2 16.9807Z"/><path fill="url(#paint1_linear_13_12732)" d="M185.972 22.5937C186.201 22.4809 186.454 22.5032 186.698 22.5478C186.695 22.9111 186.614 23.2705 186.445 23.5946C184.767 27.1114 182.849 30.5325 180.467 33.6243C178.968 35.5578 177.275 37.3759 175.242 38.7585C173.641 39.8407 171.753 40.6396 169.789 40.5819C168.816 40.5596 167.969 39.9876 167.256 39.3764C165.864 38.1262 164.864 36.5062 164.057 34.8337C162.979 32.5919 162.321 30.1534 162.097 27.6781C167.812 27.4564 173.47 26.4135 178.982 24.9168C181.345 24.2491 183.702 23.5355 185.972 22.5937Z"/><path fill="#BE1128" d="M55.0468 30.3227C55.8614 30.2414 56.6839 30.3031 57.5011 30.2899C57.5168 32.8584 57.4893 35.4268 57.5142 37.9965C60.3043 37.9887 63.0945 37.9847 65.8846 37.9965C65.9108 35.4268 65.8859 32.8571 65.8964 30.2873C67.3249 30.2926 68.7547 30.2663 70.1832 30.3031C70.1609 37.199 70.1622 44.0949 70.1832 50.9908C68.756 51.025 67.3275 50.9987 65.9003 51.0066C65.8898 47.9371 65.9029 44.8689 65.8938 41.7993C63.0984 41.781 60.303 41.7797 57.5077 41.7993C57.5011 44.8675 57.5155 47.9358 57.4998 51.004C56.1015 51.0079 54.7018 51.0027 53.3035 51.0053V31.9218C53.5999 31.1636 54.1928 30.4316 55.0481 30.3227H55.0468Z"/><path fill="#BE1128" d="M72.2466 32.3821C72.2361 31.2488 73.2829 30.2479 74.4137 30.2886C76.3865 30.2912 78.3607 30.2741 80.3349 30.2977C82.5977 30.3699 84.9838 30.9917 86.6117 32.655C88.2213 34.3327 88.8496 36.6965 89.049 38.9554C89.251 41.7179 89.0201 44.6681 87.5418 47.0817C86.314 49.1792 84.0289 50.5658 81.631 50.8386C79.5426 51.0747 77.4373 50.9934 75.3398 51.0078C74.3035 50.9986 73.2672 51.0275 72.2322 50.9908C72.2637 44.7875 72.2348 38.5854 72.2466 32.3821ZM76.4036 33.9261C76.4115 38.3638 76.4102 42.8001 76.4049 47.2378C78.0341 47.2273 79.7027 47.411 81.2991 46.9925C82.5335 46.6672 83.6432 45.8001 84.1364 44.6051C84.8238 42.9431 84.812 41.1014 84.7267 39.3345C84.589 37.8522 84.2545 36.2702 83.192 35.1591C82.2947 34.2094 80.9305 33.9011 79.6659 33.9051C78.5785 33.9182 77.491 33.8815 76.4036 33.9261Z"/><path fill="#464646" d="M91.178 32.5172C91.1071 31.3524 92.1264 30.2557 93.3017 30.2885C95.6655 30.2833 98.0306 30.2898 100.394 30.2859C101.58 30.2728 102.79 30.3121 103.924 30.6899C104.871 30.9837 105.784 31.498 106.381 32.3086C107.206 33.3593 107.481 34.7485 107.373 36.059C107.301 37.0179 106.991 37.9925 106.329 38.71C105.95 39.1691 105.425 39.463 104.955 39.8172C106.081 40.3392 107.153 41.1565 107.633 42.3357C108.118 43.5544 108.135 44.9147 107.911 46.1923C107.641 47.7271 106.714 49.1661 105.338 49.9282C103.851 50.7992 102.087 50.9907 100.394 51.0091C97.3262 51.0065 94.2567 51.0104 91.1885 51.0065C91.1596 44.8438 91.1819 38.6799 91.178 32.5172ZM95.2628 33.9234C95.2405 35.3781 95.2457 36.8329 95.2602 38.2876C96.8841 38.2916 98.5081 38.2876 100.132 38.2889C100.865 38.2889 101.645 38.2194 102.274 37.8088C102.732 37.5137 103.006 36.9916 103.053 36.4551C103.145 35.71 102.992 34.8377 102.345 34.372C101.701 33.9339 100.88 33.9326 100.129 33.9077C98.5081 33.9168 96.8841 33.8854 95.2628 33.9234ZM95.2654 41.8478C95.2379 43.6449 95.2457 45.4433 95.2615 47.2417C96.9274 47.2771 98.596 47.2443 100.262 47.2575C101.204 47.2693 102.214 47.1158 102.963 46.4993C103.552 46.0047 103.683 45.1796 103.675 44.4503C103.674 43.7052 103.434 42.8985 102.813 42.4367C102.123 41.9291 101.227 41.8924 100.404 41.8556C98.6904 41.8386 96.9786 41.8556 95.2654 41.8478Z"/><path fill="#464646" d="M142.648 30.2938C143.389 30.2872 144.131 30.2767 144.874 30.2898C145.851 30.2938 146.74 31.1556 146.794 32.1276C146.835 34.9269 146.756 37.7288 146.833 40.5268C148.523 38.4398 150.16 36.3082 151.833 34.2068C153.488 34.191 155.146 34.1753 156.801 34.2146C154.979 36.4997 153.121 38.7573 151.275 41.024C151.164 41.1276 151.304 41.2706 151.342 41.3769C152.706 43.7315 154.059 46.0926 155.424 48.4473C155.892 49.3025 156.432 50.1184 156.854 50.9973C155.192 51.0039 153.526 51.0354 151.865 50.9816C151.126 49.5019 150.31 48.0616 149.54 46.5977C149.185 45.9562 148.881 45.278 148.422 44.7022C148.233 44.4884 148.024 44.2457 147.733 44.1827C147.291 44.1578 146.773 44.4831 146.811 44.9737C146.793 46.982 146.803 48.9916 146.807 50.9999C145.421 51.0144 144.034 51.0091 142.648 51.0026C142.654 44.1001 142.654 37.1976 142.648 30.2938Z"/><path fill="#464646" d="M113.328 34.9492C115.086 34.0926 117.109 34.1214 119.012 34.2788C120.484 34.4494 122.045 34.8114 123.144 35.874C123.954 36.6164 124.347 37.7301 124.317 38.8162C124.304 42.8932 124.335 46.9688 124.301 51.0458C123.55 51.0537 122.793 51.1022 122.044 51.0235C121.422 50.9369 120.986 50.4332 120.71 49.9072C119.028 50.933 116.993 51.0694 115.073 50.9763C113.736 50.8582 112.398 50.3663 111.388 49.4664C110.425 48.5613 110.086 47.18 110.118 45.8971C110.098 44.63 110.433 43.2303 111.471 42.4091C112.801 41.3781 114.485 40.919 116.137 40.7524C117.348 40.5163 118.7 40.5517 119.735 39.7909C120.369 39.3383 120.23 38.2259 119.507 37.9413C118.491 37.5268 117.342 37.4389 116.268 37.6422C115.649 37.7485 115.085 38.1105 114.784 38.6693C113.381 38.7074 111.976 38.6824 110.572 38.6824C110.714 37.0467 111.882 35.647 113.328 34.9492ZM116.282 43.6763C115.554 43.8705 114.673 44.1512 114.397 44.9356C114.085 45.7148 114.184 46.7498 114.876 47.2981C115.55 47.8005 116.448 47.7546 117.241 47.6614C118.314 47.5303 119.34 46.8914 119.819 45.905C120.34 44.8858 120.192 43.7078 120.198 42.6059C118.944 43.1359 117.605 43.3877 116.282 43.6763Z"/><path fill="#464646" d="M128.697 35.6313C130.455 34.5517 132.58 34.0021 134.637 34.2933C135.954 34.4454 137.223 34.9269 138.349 35.6221C139.135 36.1074 139.701 36.8906 140.025 37.7458C140.509 39.0025 140.583 40.3667 140.571 41.6995C140.561 44.8018 140.589 47.9041 140.558 51.0064C139.804 51.0012 139.049 51.0248 138.296 50.9986C137.567 50.9828 136.835 50.5631 136.536 49.8823C136.335 49.4586 136.338 48.9798 136.339 48.5206C136.346 45.8092 136.338 43.0965 136.343 40.3851C136.35 39.7161 136.206 38.9986 135.736 38.4962C134.6 37.3248 132.521 37.2723 131.345 38.4135C130.788 38.9566 130.671 39.7764 130.678 40.5202C130.68 44.0134 130.672 47.508 130.682 51.0025C129.253 51.0077 127.825 51.0182 126.397 50.9959C126.412 47.7231 126.401 44.4489 126.403 41.1748C126.394 39.8106 126.56 38.3952 127.22 37.1792C127.56 36.539 128.075 36.0012 128.697 35.6313Z"/><path fill="#464646" d="M55.1465 56.2802C55.8666 55.8696 56.714 55.8827 57.5168 55.8972C57.5155 56.1792 57.5142 56.4599 57.5116 56.7419C56.3927 56.637 55.1098 56.9833 54.551 58.0432C53.9318 59.149 54.2492 60.7454 55.3682 61.4092C56.0044 61.829 56.7954 61.7634 57.5221 61.7739C57.5221 62.0441 57.5221 62.3169 57.5208 62.5885C56.6275 62.6357 55.6659 62.6567 54.8789 62.1648C53.9869 61.6742 53.474 60.7113 53.3022 59.7354V58.682C53.5881 57.6864 54.1955 56.7472 55.1465 56.2802Z"/><path fill="#464646" d="M76.0009 55.8972H76.8011C76.8614 57.1565 76.8247 58.4197 76.8181 59.6817C77.1434 59.7105 77.5448 59.7709 77.7796 59.481C78.1299 59.0284 78.3712 58.5024 78.6664 58.0144C78.9943 58.0078 79.3223 58.0026 79.6502 57.9947C79.258 58.6427 78.951 59.3603 78.4001 59.8955C78.8172 60.0358 79.2436 60.306 79.3275 60.7743C79.4193 61.3712 79.3472 61.9785 79.3787 62.5806C79.0901 62.6043 78.8015 62.6043 78.5142 62.5806C78.4893 61.9956 78.6375 61.3633 78.3935 60.8124C78.0223 60.3402 77.3402 60.5684 76.8247 60.5054C76.8286 61.202 76.8417 61.8985 76.8155 62.5951C76.5387 62.5977 76.2619 62.5977 75.9852 62.5951C75.9812 60.3625 75.951 58.1285 76.0009 55.8972Z"/><path fill="#464646" d="M84.4591 55.9327C84.7333 55.8107 85.052 55.8854 85.3446 55.8697C85.0376 56.2711 84.6808 56.6292 84.345 57.0057C84.1745 57.0135 84.0052 57.0214 83.8373 57.028C83.9974 56.6384 84.2046 56.2672 84.4591 55.9327Z"/><path fill="#464646" d="M94.6043 55.8972C94.868 55.8972 95.133 55.8972 95.3979 55.8959C95.4347 58.1285 95.4097 60.3624 95.411 62.595C95.1369 62.5977 94.8627 62.5977 94.5899 62.595C94.5755 60.3624 94.5479 58.1285 94.6043 55.8972Z"/><path fill="#464646" d="M116.773 55.8972C117.037 55.8972 117.302 55.8972 117.567 55.8959C117.598 56.7105 117.578 57.5264 117.584 58.3423C118.518 57.5539 120.329 57.836 120.59 59.1582C120.788 60.2811 120.619 61.4354 120.691 62.5701C120.403 62.6016 120.111 62.6055 119.823 62.5898C119.827 61.7476 119.831 60.9042 119.828 60.0607C119.823 59.6737 119.794 59.2264 119.477 58.9575C118.867 58.4459 117.775 58.7713 117.631 59.5832C117.519 60.5815 117.619 61.5915 117.58 62.595C117.306 62.5977 117.031 62.5977 116.759 62.595C116.744 60.3624 116.715 58.1272 116.773 55.8972Z"/><path fill="#464646" d="M151.586 55.8999C151.869 55.9012 152.153 55.9012 152.436 55.9025C152.429 56.6948 152.415 57.4871 152.445 58.2781C153.138 57.8702 154.039 57.7508 154.753 58.1771C155.314 58.5011 155.502 59.1924 155.516 59.7998C155.533 60.7311 155.533 61.6625 155.511 62.5938C155.233 62.5978 154.955 62.5978 154.679 62.5951C154.638 61.6218 154.692 60.6472 154.654 59.6738C154.649 59.1937 154.262 58.7674 153.78 58.732C153.127 58.5929 152.45 59.1321 152.443 59.7998C152.408 60.7232 152.433 61.6494 152.439 62.5741C152.153 62.6043 151.865 62.6043 151.581 62.582C151.599 60.3546 151.589 58.1273 151.586 55.8999Z"/><path fill="#464646" d="M160.738 55.863C161.01 55.8657 161.284 55.8683 161.558 55.8762C161.254 56.2776 160.899 56.637 160.558 57.0069C160.388 57.0134 160.22 57.0213 160.052 57.0266C160.209 56.6002 160.477 56.2303 160.738 55.863Z"/><path fill="#464646" d="M110.313 56.3433C110.587 56.2619 110.878 56.2973 111.161 56.2882C110.865 56.6843 110.547 57.0687 110.178 57.3966C109.987 57.4504 109.787 57.4346 109.594 57.4478C109.83 57.0778 110.041 56.6896 110.313 56.3433Z"/><path fill="#464646" d="M82.439 56.3958C82.6882 56.3958 82.9388 56.3984 83.1907 56.401C83.4661 56.7814 83.7416 57.1631 83.9895 57.5632C83.7862 57.5593 83.5816 57.5632 83.3809 57.5409C83.1579 57.3376 83.0004 57.0779 82.8155 56.8431C82.6253 57.0752 82.4416 57.3114 82.2632 57.5527C82.0534 57.5527 81.8435 57.5553 81.6349 57.5553C81.8802 57.1539 82.157 56.7722 82.439 56.3958Z"/><path fill="#464646" d="M158.683 56.4416C158.916 56.4154 159.152 56.4232 159.39 56.4232C159.672 56.7958 159.946 57.1749 160.204 57.5658C159.992 57.5697 159.779 57.5736 159.569 57.5776C159.391 57.3401 159.214 57.1027 159.029 56.8732C158.837 57.0988 158.659 57.3349 158.486 57.5763C158.273 57.5736 158.062 57.571 157.854 57.5684C158.12 57.1867 158.344 56.7656 158.683 56.4416Z"/><path fill="#464646" d="M103.381 56.616C103.561 56.553 103.791 56.5058 103.957 56.6291C104.147 56.8101 104.054 57.0856 104.046 57.3125C103.798 57.3676 103.547 57.3663 103.299 57.3112C103.289 57.0777 103.233 56.8206 103.381 56.616Z"/><path fill="#464646" d="M86.5934 56.8744C86.8675 56.8692 87.143 56.8692 87.4185 56.8744C87.425 57.2456 87.4264 57.6182 87.4264 57.9894C87.976 58.017 88.5256 58.0117 89.0765 58.0012C89.0739 58.2806 89.0726 58.56 89.0726 58.8394C88.5217 58.8184 87.972 58.8132 87.4224 58.8486C87.4342 59.6055 87.4172 60.3637 87.4277 61.1219C87.4316 61.3462 87.4408 61.6597 87.7044 61.7397C88.1544 61.8381 88.6201 61.7883 89.0779 61.8014C89.0765 62.0572 89.0765 62.313 89.0779 62.5688C88.3984 62.5858 87.5798 62.7787 87.0171 62.2881C86.5698 61.8998 86.5632 61.2636 86.5737 60.7192C86.5894 59.4376 86.5593 58.156 86.5921 56.8744H86.5934Z"/><path fill="#464646" d="M162.801 56.8745C163.077 56.8692 163.354 56.8692 163.632 56.8732C163.637 57.2457 163.64 57.6169 163.64 57.9895C164.188 58.017 164.739 58.0118 165.29 58.0013C165.286 58.2807 165.285 58.5601 165.285 58.8408C164.735 58.8185 164.184 58.8133 163.636 58.8487C163.657 59.6856 163.612 60.5251 163.655 61.3607C163.65 61.5666 163.815 61.7529 164.025 61.7647C164.444 61.8224 164.869 61.7949 165.291 61.8015C165.289 62.0573 165.29 62.313 165.293 62.5688C164.685 62.5951 164.024 62.7144 163.455 62.4508C162.977 62.1937 162.774 61.6322 162.788 61.1141C162.792 59.7013 162.771 58.2872 162.801 56.8745Z"/><path fill="#464646" d="M59.5107 58.2688C60.3896 57.7415 61.6187 57.7769 62.4399 58.4026C62.9436 58.7922 63.1797 59.4389 63.1797 60.0633C63.185 60.9055 63.1915 61.7502 63.1679 62.5924C62.8911 62.5976 62.613 62.5976 62.3363 62.595C62.2877 61.6361 62.3756 60.6733 62.2956 59.717C62.108 58.8316 60.9668 58.5062 60.2099 58.8447C59.3008 59.2487 59.0555 60.5605 59.659 61.3187C60.0118 61.7883 60.6677 62.0113 61.2291 61.8237C61.5072 61.7174 61.7355 61.5181 61.9795 61.3515C61.9873 61.6571 62.0214 61.968 61.9663 62.271C61.1517 62.9754 59.8019 62.7826 59.1172 61.9864C58.1583 60.9566 58.2698 59.0323 59.5107 58.2688Z"/><path fill="#464646" d="M64.5072 59.4166C64.523 58.6689 65.1565 58.0078 65.8937 57.9264C66.4827 57.8215 67.0651 58.0707 67.4784 58.4853C67.8496 58.1783 68.2746 57.8832 68.7809 57.9094C69.6244 57.8451 70.4665 58.5351 70.4784 59.3995C70.502 60.4647 70.4784 61.5325 70.4849 62.5976C70.1937 62.6055 69.9012 62.5976 69.6113 62.5635C69.6388 61.6873 69.6191 60.8097 69.631 59.9334C69.6218 59.6199 69.6441 59.2697 69.4381 59.0086C69.1653 58.644 68.6038 58.6427 68.2484 58.884C67.9794 59.1018 67.9125 59.4691 67.9139 59.7983C67.9034 60.731 67.9375 61.6637 67.8994 62.5963C67.624 62.5976 67.3485 62.5976 67.0743 62.595C67.0599 61.661 67.0809 60.7257 67.0678 59.7918C67.0704 59.4245 66.9759 58.9995 66.627 58.8106C66.2689 58.64 65.7494 58.6886 65.5238 59.0493C65.352 59.3077 65.3625 59.6317 65.3507 59.9295C65.3494 60.8163 65.3507 61.7043 65.3559 62.5911C65.0673 62.6055 64.7787 62.6002 64.4915 62.5648C64.5243 61.5154 64.4888 60.466 64.5072 59.4166Z"/><path fill="#464646" d="M80.9567 58.8631C81.7215 57.7848 83.4386 57.5762 84.4342 58.4459C84.7346 58.6925 84.9458 59.0257 85.0953 59.3812C84.0617 59.9374 83.049 60.5356 82.0061 61.076C81.9261 60.8386 81.5011 60.4765 81.8605 60.3047C82.498 59.919 83.1684 59.5911 83.8111 59.2172C83.9056 59.01 83.659 58.9313 83.5225 58.8434C83.0149 58.6217 82.3629 58.6807 81.934 59.0454C81.1063 59.7183 81.223 61.2518 82.195 61.7358C82.6528 61.9575 83.2208 61.9391 83.6734 61.7135C84.1286 61.4643 84.2965 60.937 84.429 60.4687C84.6952 60.4844 84.9642 60.4936 85.2265 60.5526C85.3406 60.8911 85.1189 61.2544 84.9747 61.5587C84.2847 62.7997 82.4403 63.0699 81.3712 62.1713C80.3769 61.4105 80.2064 59.8482 80.9567 58.8631Z"/><path fill="#464646" d="M97.6987 58.4237C98.592 57.6918 100.027 57.739 100.848 58.5601C101 58.6821 101.115 58.8658 101.307 58.9301C101.443 58.8802 101.578 58.8277 101.711 58.7713C101.587 58.5064 101.525 58.2217 101.534 57.9305C101.725 57.9252 101.916 57.9226 102.109 57.9226C102.098 58.227 102.132 58.5418 102.054 58.8395C101.953 59.0993 101.65 59.1727 101.436 59.3105C101.654 60.112 101.672 61.0354 101.145 61.7254C100.367 62.8627 98.5802 63.028 97.5859 62.0862C96.5181 61.1614 96.5667 59.2777 97.6987 58.4237ZM98.7285 58.7884C97.6122 59.1111 97.3734 60.7364 98.1749 61.4946C98.6563 61.9602 99.4617 62.0179 100.021 61.6611C100.889 61.0971 100.943 59.6541 100.123 59.0245C99.7385 58.7136 99.1941 58.6428 98.7285 58.7884Z"/><path fill="#464646" d="M103.276 58.0012C103.541 58.0012 103.805 58.0012 104.071 57.9999C104.137 59.5294 104.101 61.0628 104.09 62.5937C103.812 62.5976 103.535 62.5976 103.258 62.595C103.246 61.0642 103.211 59.5294 103.276 58.0012Z"/><path fill="#464646" d="M109.876 58.0038C110.158 58.0038 110.44 58.0038 110.722 58.0024C110.725 59.528 110.71 61.0549 110.73 62.5805C110.444 62.6054 110.157 62.6041 109.872 62.5739C109.89 61.051 109.881 59.5267 109.876 58.0038Z"/><path fill="#464646" d="M113.47 58.4459C114.084 57.9776 114.883 57.9828 115.619 57.9972C115.633 58.278 115.629 58.5587 115.602 58.8394C115.035 58.8132 114.39 58.7699 113.929 59.1673C113.217 59.7104 113.221 60.9395 113.959 61.459C114.422 61.8473 115.059 61.7974 115.624 61.7987C115.629 62.0611 115.632 62.3247 115.636 62.5884C114.816 62.6645 113.902 62.6081 113.269 62.0139C112.199 61.1179 112.288 59.208 113.47 58.4459Z"/><path fill="#464646" d="M127.631 58.1718C128.149 57.9527 128.721 58.0144 129.269 57.9973C129.294 58.2767 129.293 58.5587 129.254 58.8395C128.684 58.8119 128.038 58.7713 127.578 59.174C126.882 59.7223 126.872 60.9291 127.603 61.4525C128.069 61.8434 128.707 61.8001 129.277 61.7975C129.285 62.0598 129.289 62.3235 129.289 62.5872C128.646 62.6252 127.96 62.6541 127.379 62.3288C126.605 61.9352 126.105 61.0642 126.178 60.1945C126.18 59.2999 126.807 58.4866 127.631 58.1718Z"/><path fill="#464646" d="M130.882 58.5469C131.563 57.8766 132.63 57.7717 133.51 58.0445C134.271 58.278 134.853 58.9955 134.894 59.797C134.936 60.7284 134.91 61.6623 134.903 62.595C134.627 62.5976 134.353 62.5976 134.079 62.5937C134.025 61.6374 134.116 60.6759 134.036 59.7223C133.779 58.6545 132.206 58.3816 131.499 59.1621C130.768 59.9216 130.978 61.3803 131.996 61.7804C132.607 62.0742 133.255 61.7568 133.721 61.3488C133.728 61.6597 133.728 61.9732 133.725 62.2854C132.951 62.8718 131.791 62.8311 131.063 62.1923C130.004 61.3147 129.905 59.5216 130.882 58.5469Z"/><path fill="#464646" d="M137.694 58.0157C138.601 57.7284 139.666 58.0091 140.275 58.7503C141.185 59.8128 140.925 61.6584 139.69 62.3589C138.531 63.0948 136.797 62.6029 136.259 61.3239C135.656 60.0712 136.339 58.4027 137.694 58.0157ZM137.95 58.7896C136.872 59.1058 136.621 60.6418 137.336 61.4236C137.868 62.0205 138.9 62.0494 139.467 61.4892C140.004 60.9658 140.062 60.0791 139.72 59.435C139.388 58.8237 138.594 58.5771 137.95 58.7896Z"/><path fill="#464646" d="M146.778 58.5706C147.525 57.6629 149.133 57.6812 149.837 58.631C150.123 58.9983 150.256 59.4639 150.247 59.927C150.249 60.8164 150.248 61.7057 150.243 62.5951C149.969 62.5977 149.694 62.5977 149.422 62.5951C149.381 61.6664 149.431 60.7363 149.401 59.8076C149.383 59.1871 148.779 58.6192 148.148 58.732C147.619 58.7857 147.193 59.2737 147.182 59.8011C147.155 60.7219 147.171 61.6454 147.185 62.5676C146.894 62.599 146.601 62.6056 146.311 62.5964C146.317 61.7044 146.301 60.8137 146.315 59.9244C146.322 59.439 146.462 58.9445 146.778 58.5706Z"/><path fill="#464646" d="M157.367 58.5285C158.052 57.8661 159.122 57.773 159.997 58.0563C160.745 58.3016 161.313 59.0152 161.351 59.8062C161.387 60.7323 161.347 61.6597 161.37 62.5858C161.082 62.6068 160.793 62.6042 160.509 62.5701C160.52 61.6899 160.537 60.8097 160.51 59.9308C160.506 59.2303 159.822 58.7358 159.165 58.7227C158.458 58.6374 157.741 59.1228 157.59 59.8232C157.321 60.647 157.792 61.6781 158.679 61.8512C159.261 62.027 159.813 61.6873 160.187 61.2649C160.175 61.6007 160.173 61.9365 160.175 62.2723C159.472 62.8403 158.419 62.8324 157.688 62.3248C156.48 61.5036 156.299 59.5347 157.367 58.5285Z"/><path fill="#464646" d="M98.958 64C98.5383 63.7757 98.6498 63.0385 99.1732 63.1303C99.6362 63.1946 99.5195 63.7114 99.3516 64H98.958Z"/><defs><linearGradient id="paint0_linear_13_12732" x1="156.937" x2="166.648" y1="20.875" y2="20.875" gradientUnits="userSpaceOnUse"><stop stop-color="#F9A51A"/><stop offset=".5" stop-color="#FFDC00"/><stop offset="1" stop-color="#FFDC00"/></linearGradient><linearGradient id="paint1_linear_13_12732" x1="162.097" x2="186.698" y1="31.548" y2="31.548" gradientUnits="userSpaceOnUse"><stop stop-color="#F9A51A"/><stop offset=".5" stop-color="#FFDC00"/><stop offset="1" stop-color="#FFDC00"/></linearGradient></defs></svg>