<svg xmlns="http://www.w3.org/2000/svg" width="40" height="40" fill="none" viewBox="0 0 40 40"><path fill="url(#paint0_linear_11_174)" d="M5.7301 4.31813C6.4071 3.79099 7.11761 3.2515 7.95858 3.02406C8.20893 2.95707 8.66203 3.01878 8.66379 3.35199C8.76076 4.75537 8.60208 6.17108 8.79249 7.56917C9.02521 9.73242 9.50124 12.0085 10.9593 13.7028C11.5164 14.3868 12.3203 14.7765 13.052 15.2419C10.4744 15.6456 7.87924 15.9365 5.27699 16.0811C4.06226 16.0952 2.80699 16.201 1.63633 15.8167C0.823572 15.598 0.185352 14.8981 0.0601765 14.066C-0.206042 12.5021 0.455091 10.9789 1.17794 9.63016C2.36093 7.60796 3.91946 5.80437 5.7301 4.31813Z"/><path fill="url(#paint1_linear_11_174)" d="M39.0251 11.8626C39.3318 11.711 39.6721 11.7409 40 11.8009C39.9965 12.2893 39.8872 12.7723 39.6597 13.2078C37.4048 17.9345 34.8273 22.5325 31.6256 26.688C29.6104 29.2867 27.3361 31.7302 24.6034 33.5885C22.4508 35.043 19.9137 36.1167 17.2745 36.0391C15.9663 36.0091 14.8274 35.2405 13.8701 34.4189C11.9995 32.7387 10.6543 30.5614 9.57001 28.3135C8.1208 25.3005 7.23751 22.023 6.93604 18.6961C14.6176 18.3982 22.2216 16.9966 29.6298 14.9849C32.8051 14.0875 35.9732 13.1285 39.0251 11.8626Z"/><defs><linearGradient id="paint0_linear_11_174" x1="0" x2="13.052" y1="9.553" y2="9.553" gradientUnits="userSpaceOnUse"><stop stop-color="#F9A51A"/><stop offset=".5" stop-color="#FFDC00"/><stop offset="1" stop-color="#FFDC00"/></linearGradient><linearGradient id="paint1_linear_11_174" x1="6.936" x2="40" y1="23.897" y2="23.897" gradientUnits="userSpaceOnUse"><stop stop-color="#F9A51A"/><stop offset=".5" stop-color="#FFDC00"/><stop offset="1" stop-color="#FFDC00"/></linearGradient></defs></svg>