<svg xmlns="http://www.w3.org/2000/svg" width="240" height="80" fill="none" viewBox="0 0 240 80"><path fill="#002147" d="M73.349 48.7967C69.4898 48.7967 67.4467 45.8455 67.4467 41.8444C67.4467 37.8433 69.4898 34.9205 73.3206 34.9205C77.2082 34.9205 79.2513 37.8433 79.2513 41.8444C79.2513 45.8455 77.2366 48.7967 73.349 48.7967ZM73.349 37.3325C71.6464 37.3325 71.2775 39.404 71.2775 41.7876C71.2775 44.1713 71.6464 46.1576 73.349 46.1576C75.0232 46.1576 75.3921 44.1997 75.3921 41.7876C75.3921 39.3756 75.08 37.3325 73.349 37.3325Z"/><path fill="#002147" d="M88.2183 48.5697V39.2338C88.2183 38.2974 87.7926 37.361 86.2319 37.361C85.6644 37.361 85.1252 37.4461 84.5861 37.6447V48.5697H80.7269V35.9422C82.0606 35.3462 83.9618 34.949 86.3454 34.949C90.5735 34.949 92.1059 36.7651 92.1059 39.1771V48.5413L88.2183 48.5697Z"/><path fill="#002147" d="M99.2851 54.1883C97.242 54.1883 95.3692 53.791 94.2908 53.1951L95.284 50.698C96.3056 51.2087 97.4406 51.4925 98.5757 51.4925C100.619 51.4925 101.357 50.5277 101.357 48.9954V48.2292C100.903 48.4846 100.136 48.6548 99.0297 48.6548C95.8232 48.6548 93.5247 46.2145 93.5247 42.2134C93.5247 37.7582 95.7948 34.949 100.392 34.949C102.435 34.949 104.194 35.3746 105.131 35.9422V48.6548C105.159 52.4573 102.719 54.1883 99.2851 54.1883ZM101.385 37.3893C101.016 37.2191 100.59 37.134 100.165 37.1623C98.1784 37.1623 97.3555 38.7798 97.3555 41.958C97.3555 44.9943 98.1501 46.4131 100.08 46.4131C100.534 46.4131 100.988 46.2996 101.357 46.1009V37.3893H101.385Z"/><path fill="#002147" d="M108.763 48.5696V31.4869H112.792V45.8455H117.134V48.5696H108.763Z"/><path fill="#002147" d="M137.452 48.7967C133.592 48.7967 131.549 45.8455 131.549 41.8444C131.549 37.8433 133.592 34.9205 137.423 34.9205C141.311 34.9205 143.354 37.8433 143.354 41.8444C143.354 45.8455 141.311 48.7967 137.452 48.7967ZM137.452 37.3325C135.749 37.3325 135.408 39.404 135.408 41.7876C135.408 44.1713 135.777 46.1576 137.452 46.1576C139.126 46.1576 139.495 44.1997 139.495 41.7876C139.495 39.3756 139.154 37.3325 137.452 37.3325Z"/><path fill="#002147" d="M152.803 48.5697V39.2338C152.803 38.2974 152.378 37.361 150.817 37.361C150.249 37.361 149.71 37.4461 149.171 37.6447V48.5697H145.312V35.9422C146.646 35.3462 148.547 34.949 150.93 34.949C155.159 34.949 156.691 36.7651 156.691 39.1771V48.5413L152.803 48.5697Z"/><path fill="#002147" d="M163.87 54.1883C161.799 54.1883 159.954 53.791 158.876 53.1951L159.869 50.698C160.891 51.2087 162.026 51.4925 163.161 51.4925C165.204 51.4925 165.942 50.5277 165.942 48.9954V48.2292C165.488 48.4846 164.721 48.6548 163.615 48.6548C160.408 48.6548 158.11 46.2145 158.11 42.2134C158.11 37.7582 160.38 34.949 164.977 34.949C167.048 34.949 168.779 35.3746 169.716 35.9422V48.6548C169.716 52.4573 167.304 54.1883 163.87 54.1883ZM165.97 37.3893C165.573 37.2191 165.175 37.134 164.75 37.1623C162.763 37.1623 161.941 38.7798 161.941 41.958C161.941 44.9943 162.735 46.4131 164.665 46.4131C165.119 46.4131 165.573 46.2996 165.942 46.1009V37.3893H165.97Z"/><path fill="#002147" d="M124.455 34.9773C120.596 34.9773 118.411 37.6731 118.411 41.8728C118.411 46.1577 120.766 48.8534 124.852 48.8534C127.094 48.8534 128.598 48.3994 129.648 47.8886L128.797 45.4766C127.718 45.9874 126.527 46.2144 125.335 46.186C123.348 46.186 122.44 45.278 122.1 43.2632C122.043 43.0079 122.015 42.7808 122.015 42.5255H130.13V42.1282C130.272 37.5879 128.314 34.9773 124.455 34.9773ZM121.844 40.6242C121.93 38.3825 122.866 37.2474 124.285 37.2474C125.704 37.2474 126.498 38.269 126.498 40.6242H121.844Z"/><path fill="#002147" d="M182.116 48.7967C180.187 48.7967 178.541 48.4562 177.462 47.8603V32.1964C178.399 31.6573 180.045 31.26 181.918 31.26C185.663 31.26 187.678 33.0477 187.678 35.5165C187.678 37.9569 185.89 39.1771 184.358 39.4892V39.546C185.947 39.8581 188.331 41.3621 188.331 43.9727C188.302 47.3779 185.635 48.7967 182.116 48.7967ZM181.861 32.5653C181.095 32.5369 180.328 32.6788 179.591 32.9342V39.0068H180.726C184.244 39.0068 185.436 37.9285 185.436 35.6867C185.436 33.6153 184.188 32.5653 181.861 32.5653ZM180.754 40.1419H179.619V46.9522C180.385 47.236 181.208 47.3779 182.031 47.3495C184.244 47.3495 186.004 46.4698 186.004 43.9727C186.004 41.3337 184.471 40.1702 180.754 40.1419Z"/><path fill="#002147" d="M194.914 48.7967C191.452 48.7967 189.835 47.2928 189.835 44.8524C189.835 41.3053 193.155 40.2554 197.298 39.8581V39.0352C197.298 36.9921 196.049 36.3678 194.347 36.3678C193.211 36.3962 192.105 36.7083 191.112 37.2191L190.601 35.9422C191.878 35.2895 193.268 34.949 194.687 34.949C197.184 34.949 199.341 36.0273 199.341 39.2906V47.8603C198.348 48.4278 196.787 48.8251 194.914 48.7967ZM197.298 40.9648C193.921 41.3904 191.906 42.0999 191.906 44.7956C191.906 46.7252 193.098 47.5198 195.084 47.5198C195.85 47.5482 196.588 47.4063 197.298 47.0658V40.9648Z"/><path fill="#002147" d="M209.386 48.5697V38.9784C209.386 37.7299 208.875 36.3678 206.577 36.3678C205.697 36.3394 204.846 36.4813 204.051 36.8502V48.5697H201.866V35.8854C203.058 35.3179 204.619 34.949 206.747 34.949C210.464 34.949 211.571 37.0205 211.571 38.9217V48.5697H209.386Z"/><path fill="#002147" d="M218.381 41.4471L223.461 35.2043H221.162L216.395 41.3903H216.367V31.4869H214.21V48.5696H216.367V41.6741H216.395L221.503 48.5696H224L218.381 41.4471Z"/><path fill="#002147" d="M45.7386 31.4302C44.6887 31.2884 43.6671 31.0897 42.6739 30.8343C37.9351 29.5858 33.7921 26.7765 30.8693 22.8322L27.4925 24.7901C30.9544 29.5858 35.9487 33.0477 41.6524 34.58C42.9861 34.9206 44.3765 35.1759 45.7386 35.3178V31.4302Z"/><path fill="#002147" d="M45.7386 41.9579V38.0703C44.1211 37.9284 42.5037 37.6447 40.943 37.219C34.5299 35.488 28.9397 31.6005 25.1089 26.1805L21.732 28.1101C23.69 30.9478 26.0737 33.4733 28.8262 35.5448C32.1462 38.0419 35.9203 39.8864 39.9214 40.9647C41.8226 41.4755 43.7806 41.816 45.7386 41.9579Z"/><path fill="#002147" d="M19.3768 29.4722C21.505 32.622 24.1441 35.4029 27.2087 37.7014C30.8126 40.4255 34.8988 42.4402 39.2404 43.5753C41.3686 44.1428 43.5536 44.5117 45.767 44.682V48.5696C43.2415 48.3993 40.716 48.002 38.2472 47.321C29.1383 44.909 21.2213 39.2621 16 31.4018L19.3768 29.4722Z"/><path fill="#DF1C01" d="M19.3768 50.5276C21.505 47.3778 24.1441 44.5685 27.2087 42.27C32.6003 38.2122 39.0417 35.7718 45.767 35.3178V31.4302C43.2415 31.6004 40.716 32.0261 38.2472 32.6788C29.1383 35.0908 21.2497 40.7661 16 48.598L19.3768 50.5276Z"/><path fill="#DF1C01" d="M45.7386 38.0703V41.9579C37.4527 42.6957 29.9045 47.0373 25.1089 53.8477L21.732 51.8897C23.69 49.052 26.0737 46.5265 28.8262 44.455C33.7353 40.7377 39.6093 38.5243 45.7386 38.0703Z"/><path fill="#DF1C01" d="M45.7386 48.5697C44.6887 48.6832 43.6671 48.8819 42.6739 49.1656C37.9351 50.4142 33.7921 53.2235 30.8693 57.1678L27.4925 55.2098C30.9544 50.4142 35.9487 46.9523 41.6524 45.4199C42.9861 45.051 44.3482 44.824 45.7386 44.6821V48.5697Z"/><path fill="#002147" d="M61.7997 48.5696V41.1633H57.4865V48.5696H53.457V31.4869H57.4865V38.5527H61.7997V31.4869H65.8292V48.5696H61.7997Z"/></svg>