<svg xmlns="http://www.w3.org/2000/svg" width="40" height="40" fill="none" viewBox="0 0 40 40"><g clip-path="url(#clip0_6_1098)"><path fill="#002147" d="M37.6446 10.0165C36.4215 9.85124 35.2314 9.61984 34.0744 9.32232C28.5537 7.86777 23.7273 4.59504 20.3223 0L16.3884 2.28099C20.4215 7.86777 26.2397 11.9008 32.8843 13.6859C34.438 14.0826 36.0579 14.3802 37.6446 14.5455V10.0165Z"/><path fill="#002147" d="M37.6447 22.281V17.7521C35.7604 17.5868 33.8761 17.2563 32.0579 16.7604C24.5868 14.7439 18.0744 10.2149 13.6116 3.90088L9.67773 6.14881C11.9587 9.4546 14.7356 12.3967 17.9422 14.81C21.81 17.7191 26.2067 19.8678 30.8678 21.124C33.0827 21.7191 35.3637 22.1158 37.6447 22.281Z"/><path fill="#002147" d="M6.93388 7.73535C9.41322 11.4048 12.4876 14.6444 16.0579 17.3221C20.2562 20.4957 25.0165 22.8428 30.0744 24.1651C32.5537 24.8263 35.0992 25.256 37.6777 25.4544V29.9833C34.7355 29.7849 31.7934 29.3221 28.9174 28.5287C18.3058 25.7188 9.08264 19.1403 3 9.98329L6.93388 7.73535Z"/><path fill="#DF1C01" d="M6.93388 32.2645C9.41322 28.5951 12.4876 25.3224 16.0579 22.6447C22.3388 17.9174 29.843 15.0745 37.6777 14.5455V10.0166C34.7355 10.2149 31.7934 10.7108 28.9174 11.4712C18.3058 14.2811 9.1157 20.8926 3 30.0166L6.93388 32.2645Z"/><path fill="#DF1C01" d="M37.6447 17.752V22.2809C27.9918 23.1404 19.1984 28.1982 13.6116 36.1321L9.67773 33.8511C11.9587 30.5453 14.7356 27.6032 17.9422 25.19C23.6612 20.8594 30.5042 18.2809 37.6447 17.752Z"/><path fill="#DF1C01" d="M37.6446 29.9835C36.4215 30.1158 35.2314 30.3471 34.0744 30.6777C28.5537 32.1323 23.7273 35.405 20.3223 40L16.3884 37.7191C20.4215 32.1323 26.2397 28.0992 32.8843 26.3141C34.438 25.8843 36.0248 25.6199 37.6446 25.4546V29.9835Z"/></g><defs><clipPath id="clip0_6_1098"><rect width="40" height="40" fill="#fff"/></clipPath></defs></svg>