<svg xmlns="http://www.w3.org/2000/svg" width="242" height="40" fill="none" viewBox="0 0 242 40"><g clip-path="url(#clip0_6_1077)"><path fill="#002147" d="M67 30C62.4231 30 60 26.5971 60 21.9836C60 17.3701 62.4231 14 66.9663 14C71.5769 14 74 17.3701 74 21.9836C74 26.5971 71.6106 30 67 30ZM67 16.7812C64.9808 16.7812 64.5433 19.1697 64.5433 21.9182C64.5433 24.6667 64.9808 26.9571 67 26.9571C68.9856 26.9571 69.4231 24.6994 69.4231 21.9182C69.4231 19.137 69.0529 16.7812 67 16.7812Z"/><path fill="#002147" d="M83.5586 30V19.0333C83.5586 17.9333 83.0723 16.8333 81.2893 16.8333C80.6409 16.8333 80.0249 16.9333 79.409 17.1667V30H75V15.1667C76.5237 14.4667 78.6958 14 81.4189 14C86.2494 14 88 16.1333 88 18.9667V29.9667L83.5586 30Z"/><path fill="#002147" d="M96.9485 36C94.484 36 92.2249 35.5457 90.9242 34.8643L92.1222 32.0089C93.3544 32.5929 94.7236 32.9174 96.0928 32.9174C98.5573 32.9174 99.4472 31.8142 99.4472 30.062V29.1858C98.8996 29.4779 97.9754 29.6726 96.6404 29.6726C92.7726 29.6726 90 26.882 90 22.3068C90 17.2124 92.7383 14 98.2834 14C100.748 14 102.87 14.4867 104 15.1357V29.6726C104.034 34.0206 101.09 36 96.9485 36ZM99.4815 16.7906C99.0365 16.5959 98.523 16.4985 98.0096 16.531C95.6136 16.531 94.6209 18.3805 94.6209 22.0147C94.6209 25.4867 95.5793 27.1091 97.9069 27.1091C98.4546 27.1091 99.0022 26.9794 99.4472 26.7522V16.7906H99.4815Z"/><path fill="#002147" d="M108 30V10H112.814V26.8106H118V30H108Z"/><path fill="#002147" d="M141 30C136.423 30 134 26.5971 134 21.9836C134 17.3701 136.423 14 140.966 14C145.577 14 148 17.3701 148 21.9836C148 26.5971 145.577 30 141 30ZM141 16.7812C138.981 16.7812 138.577 19.1697 138.577 21.9182C138.577 24.6667 139.014 26.9571 141 26.9571C142.986 26.9571 143.423 24.6994 143.423 21.9182C143.423 19.137 143.019 16.7812 141 16.7812Z"/><path fill="#002147" d="M158.559 30V19.0333C158.559 17.9333 158.072 16.8333 156.289 16.8333C155.641 16.8333 155.025 16.9333 154.409 17.1667V30H150V15.1667C151.524 14.4667 153.696 14 156.419 14C161.249 14 163 16.1333 163 18.9667V29.9667L158.559 30Z"/><path fill="#002147" d="M171.949 36C169.45 36 167.225 35.5457 165.924 34.8643L167.122 32.0089C168.355 32.5929 169.724 32.9174 171.093 32.9174C173.557 32.9174 174.447 31.8142 174.447 30.062V29.1858C173.9 29.4779 172.976 29.6726 171.641 29.6726C167.773 29.6726 165 26.882 165 22.3068C165 17.2124 167.738 14 173.284 14C175.782 14 177.87 14.4867 179 15.1357V29.6726C179 34.0206 176.09 36 171.949 36ZM174.482 16.7906C174.002 16.5959 173.523 16.4985 173.01 16.531C170.614 16.531 169.621 18.3805 169.621 22.0147C169.621 25.4867 170.579 27.1091 172.907 27.1091C173.455 27.1091 174.002 26.9794 174.447 26.7522V16.7906H174.482Z"/><path fill="#002147" d="M126.216 14C121.609 14 119 17.1084 119 21.9509C119 26.8916 121.812 30 126.69 30C129.367 30 131.162 29.4765 132.415 28.8875L131.399 26.1063C130.112 26.6953 128.689 26.957 127.266 26.9243C124.895 26.9243 123.811 25.8773 123.404 23.5542C123.336 23.2597 123.302 22.998 123.302 22.7035H132.991V22.2454C133.161 17.0102 130.823 14 126.216 14ZM123.099 20.5113C123.201 17.9264 124.319 16.6176 126.013 16.6176C127.707 16.6176 128.655 17.7955 128.655 20.5113H123.099Z"/><path fill="#002147" d="M193.567 30C191.258 30 189.29 29.6117 188 28.932V11.068C189.12 10.4531 191.089 10 193.329 10C197.809 10 200.219 12.0388 200.219 14.8544C200.219 17.6375 198.081 19.0291 196.248 19.3851V19.4498C198.149 19.8058 201 21.521 201 24.4984C200.966 28.3819 197.775 30 193.567 30ZM193.261 11.4887C192.345 11.4563 191.428 11.6181 190.546 11.9094V18.8349H191.903C196.112 18.8349 197.538 17.6052 197.538 15.0485C197.538 12.6861 196.044 11.4887 193.261 11.4887ZM191.937 20.1294H190.58V27.8964C191.496 28.2201 192.48 28.3819 193.465 28.3495C196.112 28.3495 198.217 27.3463 198.217 24.4984C198.217 21.4887 196.384 20.1618 191.937 20.1294Z"/><path fill="#002147" d="M207.878 29.9983C203.872 29.9983 202 28.2608 202 25.4414C202 21.3435 205.842 20.1305 210.636 19.6715V18.7208C210.636 16.3604 209.191 15.6392 207.221 15.6392C205.907 15.672 204.627 16.0326 203.478 16.6227L202.887 15.1474C204.364 14.3934 205.973 14 207.615 14C210.504 14 213 15.2458 213 19.0159V28.9165C211.851 29.5722 210.045 30.0311 207.878 29.9983ZM210.636 20.9501C206.728 21.4419 204.397 22.2614 204.397 25.3759C204.397 27.6052 205.776 28.5231 208.075 28.5231C208.961 28.5559 209.815 28.392 210.636 27.9986V20.9501Z"/><path fill="#002147" d="M224.523 30V18.7333C224.523 17.2667 223.944 15.6667 221.339 15.6667C220.342 15.6333 219.377 15.8 218.477 16.2333V30H216V15.1C217.351 14.4333 219.12 14 221.532 14C225.746 14 227 16.4333 227 18.6667V30H224.523Z"/><path fill="#002147" d="M235.687 21.6611L241.394 14.3522H238.812L233.455 21.5947H233.423V10H231V30H233.423V21.9269H233.455L239.194 30H242L235.687 21.6611Z"/><path fill="#002147" d="M34 10.3295C32.7916 10.1591 31.6159 9.92046 30.4728 9.61364C25.0187 8.11364 20.2504 4.73864 16.8865 0L13 2.35227C16.9844 8.11363 22.7325 12.2727 29.297 14.1136C30.832 14.5227 32.4323 14.8295 34 15V10.3295Z"/><path fill="#002147" d="M35 22V17.5648C33.1135 17.4029 31.2269 17.0791 29.4066 16.5935C21.9267 14.6187 15.4066 10.1835 10.9385 4L7 6.20144C9.28369 9.43885 12.0638 12.3201 15.2742 14.6834C19.1466 17.5324 23.5485 19.6367 28.2151 20.8669C30.4326 21.4496 32.7163 21.8381 35 22Z"/><path fill="#002147" d="M3.97045 8C6.47283 11.6285 9.57579 14.8321 13.1792 17.4799C17.4166 20.6181 22.2212 22.9391 27.326 24.2467C29.8284 24.9004 32.3975 25.3254 35 25.5215V30C32.0305 29.8039 29.061 29.3462 26.1582 28.5617C15.448 25.7831 6.13918 19.2779 0 10.2229L3.97045 8Z"/><path fill="#DF1C01" d="M3.97045 32C6.47283 28.3715 9.57579 25.1352 13.1792 22.4874C19.5186 17.8128 27.0925 15.0015 35 14.4785V10C32.0305 10.1961 29.061 10.6865 26.1582 11.4383C15.448 14.2169 6.17255 20.7548 0 29.7771L3.97045 32Z"/><path fill="#DF1C01" d="M35 18V22.4352C25.3357 23.277 16.5319 28.2302 10.9385 36L7 33.7662C9.28369 30.5288 12.0638 27.6475 15.2742 25.2842C21 21.0432 27.8511 18.518 35 18Z"/><path fill="#DF1C01" d="M34 29.6705C32.7916 29.8068 31.6159 30.0455 30.4728 30.3864C25.0187 31.8864 20.2504 35.2614 16.8865 40L13 37.6477C16.9844 31.8864 22.7325 27.7273 29.297 25.8864C30.832 25.4432 32.3997 25.1705 34 25V29.6705Z"/><path fill="#002147" d="M53.4404 30V21.3289H48.5596V30H44V10H48.5596V18.2724H53.4404V10H58V30H53.4404Z"/></g><defs><clipPath id="clip0_6_1077"><rect width="242" height="40" fill="#fff"/></clipPath></defs></svg>