<svg xmlns="http://www.w3.org/2000/svg" width="40" height="40" fill="none" viewBox="0 0 40 40"><path fill="#FCAF16" d="M39.3558 20.6228L39.0101 20.4023C37.8304 19.225 36.1877 18.7147 33.9913 18.843C32.1627 18.9549 30.7121 19.6802 29.6049 20.3535C29.6049 20.3369 29.6033 20.3204 29.6033 20.3039C29.6033 19.7306 29.6679 19.11 29.7324 18.5068C29.7954 17.8941 29.8616 17.2704 29.8616 16.6805C29.8616 16.0781 29.7939 15.5071 29.586 15.0189C29.534 14.8937 29.4182 14.8189 29.2725 14.8189C28.6819 14.8323 27.5282 15.2362 27.2486 15.4819C27.2486 15.4835 27.0966 15.8151 27.0966 15.8151C27.0872 16.4695 26.9431 18.2957 26.7966 18.5178C26.8029 18.5099 26.7194 18.7383 26.7194 18.7383C26.4706 21.3473 26.4658 23.6413 26.695 25.6109C26.721 25.8078 27.1014 26.1031 27.3935 26.2102C27.7148 26.3291 28.7197 26.0598 29.2993 25.8424C29.2914 25.8448 29.5159 25.8078 29.5159 25.8078C29.6986 25.7881 29.8065 25.6337 29.7986 25.4251C29.7954 25.4203 29.8128 24.858 29.8128 24.858C30.2309 23.1586 31.9233 21.13 33.9259 20.8252C35.0584 20.6457 35.9514 20.937 36.6578 21.7056C36.7531 21.8442 36.9594 23.0672 36.2136 24.473C35.6585 25.5133 34.5481 26.3913 33.0864 26.9386C31.7036 27.4647 30.1821 27.6765 28.3031 27.612C28.2244 27.5616 26.5438 26.422 26.5438 26.422C25.0531 25.3754 23.2016 24.0737 21.5234 23.4366C21.2281 23.3232 20.7005 22.8845 20.3823 22.6215L20.2083 22.479C19.2404 21.7033 17.3985 20.474 15.9187 19.4896C15.9187 19.4896 15.2509 19.0415 15.1218 18.9549C15.1233 18.8997 15.1233 18.7879 15.1233 18.7879C15.1667 18.7407 16.0967 18.1831 16.0967 18.1831C17.3977 17.4216 17.9993 17.0483 18.1269 16.8554C18.1009 16.8869 18.2994 16.7538 18.2994 16.7538C18.312 16.7483 21.5266 14.9283 21.5266 14.9283C24.6246 13.2273 28.133 11.2955 29.9758 9.38741C29.9789 9.38505 30.0663 9.09524 30.0663 9.09524L30.1041 8.83537C30.227 8.42665 30.2333 8.11479 30.1301 7.75175C30.1041 7.6478 30.0089 7.5281 29.8813 7.50526C28.4417 7.36115 26.5863 8.22426 24.8963 9.80951C24.5152 10.1663 24.1947 10.3419 23.8568 10.5254L23.5977 10.6703C21.7353 11.7295 17.5394 14.3338 15.3415 15.7395C15.4864 13.3769 15.9227 10.0166 16.4613 7.21546L16.4015 6.88077C16.3952 6.86974 16.1739 6.45709 16.1739 6.45709L16.0022 6.15389L15.9526 6.14051C15.5139 5.91922 15.1556 6.00899 14.8926 6.07436L14.454 6.23658L13.8681 6.44921C13.7531 6.47205 13.6712 6.54371 13.6263 6.65554C12.5773 9.19132 11.7024 13.362 11.4945 16.6987C9.39814 15.3654 7.46008 14.4062 6.50956 13.9432L6.48357 13.9282L6.37096 13.9038C6.02918 13.8597 5.61258 13.6085 5.21253 13.3659C5.16922 13.3399 4.41399 12.8485 4.41399 12.8485L3.1965 12.0681C3.20517 12.076 2.87441 11.9949 2.87441 11.9949C2.3515 12.0854 1.34743 12.7603 1.04896 13.2202C1.01038 13.2816 0.993837 13.347 0.993837 13.4155C0.993837 13.5132 1.02455 13.61 1.04896 13.7053L1.10251 13.9534L1.15921 14.1022C1.74355 14.7007 3.21698 15.6977 4.66127 16.475L6.3363 17.3625L8.90044 18.7627C8.90044 18.7745 9.33751 19.11 9.33751 19.11L9.63912 19.2833C9.63912 19.2833 9.67456 19.3037 9.69425 19.3171C9.01148 19.7747 5.03061 22.4317 5.03061 22.4317L2.5791 24.0564C2.34678 24.2139 1.37972 24.647 1.16551 24.7328C0.634733 24.9494 0.231528 25.2817 0.0661508 25.6424L0 25.7849L0.0661508 25.8787L0.253578 26.0212C0.244128 26.0212 0.504006 26.185 0.504006 26.185L0.77491 26.3701C0.78121 26.3724 1.03006 26.411 1.03006 26.411C1.46083 26.4276 2.09871 26.1818 3.29258 25.6589C4.38958 25.1738 7.36716 23.3767 8.64056 22.6097L9.18315 22.2845C9.40759 22.3026 9.65408 22.1128 9.87537 21.9466C10.1305 21.7427 10.6857 21.4017 11.0244 21.252C11.0354 21.2489 11.2275 21.141 11.4102 21.0394C11.4087 21.0953 11.4071 21.1851 11.4071 21.1851C11.4638 25.0801 11.6866 27.9112 12.1127 30.0942L12.119 30.1312L12.1607 30.2194C12.3702 30.5265 12.608 31.4503 12.8207 32.2638L13.305 33.8892C13.316 33.9089 13.442 34.042 13.442 34.042C13.7192 34.2302 14.5634 34.5539 15.1265 34.4869L15.2667 34.4704L15.3564 34.2719C15.4045 34.0286 15.421 33.79 15.421 33.527C15.421 33.2301 15.3998 32.9032 15.373 32.5016L15.3344 31.9157C15.1556 29.1972 14.9777 25.2715 14.9777 22.6617C14.9777 22.5884 14.9777 22.5223 14.9777 22.4538C15.4407 22.7428 17.4599 24.0162 17.4599 24.0162C20.8989 26.2472 26.0934 29.617 29.2324 30.5076C29.3954 30.5573 29.5678 30.5195 29.6875 30.4037C29.6923 30.3974 30.1703 30.0934 30.1703 30.0934L30.2609 30.0564C30.4412 29.9706 30.5609 29.6674 30.5822 29.3382C33.2274 29.2051 36.9177 28.1861 38.8928 25.7038C39.6574 24.7407 40 23.5626 40 22.5538C40.0016 21.7285 39.7724 21.015 39.3558 20.6228Z"/></svg>