<svg xmlns="http://www.w3.org/2000/svg" width="240" height="80" fill="none" viewBox="0 0 240 80"><path fill="#F8961D" d="M60.1999 59.4928H42V33.5659H47.4052V54.7678H60.1999V59.4928Z"/><path fill="#F8961D" d="M67.5777 59.4928H62.1725V33.5659H73.5677C76.057 33.5659 78.0592 34.3659 79.5756 35.9671C81.0921 37.5684 81.8503 39.5657 81.8503 41.9605C81.8503 44.3552 81.0921 46.3074 79.5756 47.8171C78.0592 49.3267 76.0557 50.0815 73.5677 50.0815H67.579V59.4915L67.5777 59.4928ZM67.5777 45.67H72.7118C74.2154 45.67 75.3232 45.3255 76.0364 44.6352C76.7496 43.9462 77.1056 43.0017 77.1056 41.8044C77.1056 40.607 76.7419 39.7489 76.0171 39.0715C75.291 38.3954 74.1897 38.0561 72.7118 38.0561H67.5777V45.67Z"/><path fill="#F8961D" d="M95.5124 59.4928H83.8846V33.5659H96.6022C99.0914 33.5659 101.009 34.1969 102.358 35.4601C103.706 36.7232 104.381 38.4471 104.381 40.6341C104.381 41.7269 104.083 42.7101 103.487 43.5824C102.89 44.4546 102.138 45.0855 101.231 45.4765C103.849 46.4661 105.158 48.5616 105.158 51.7628C105.158 54.1833 104.341 56.0775 102.709 57.4439C101.076 58.8103 98.6776 59.4941 95.515 59.4941L95.5124 59.4928ZM95.5908 38.0561H89.0958V43.6791H95.9018C98.0801 43.6791 99.1686 42.7424 99.1686 40.8676C99.1686 39.878 98.8897 39.1632 98.3319 38.7206C97.7742 38.278 96.8605 38.0574 95.5908 38.0574V38.0561ZM89.0958 55.0801H95.9403C97.1586 55.0801 98.1238 54.7356 98.837 54.0453C99.5502 53.3562 99.9062 52.4634 99.9062 51.3705C99.9062 49.1835 98.6095 48.0906 96.0174 48.0906H89.0945V55.0801H89.0958Z"/><path fill="#F8961D" d="M124.208 59.4928H119.502C119.346 58.9986 119.242 58.4257 119.191 57.7754C117.843 59.2593 115.911 60.0012 113.396 60.0012C111.296 60.0012 109.708 59.5263 108.632 58.5754C107.557 57.6258 107.018 56.3432 107.018 54.7291C107.018 53.662 107.174 52.7382 107.485 51.9563C107.796 51.1744 108.166 50.5641 108.592 50.1215C109.02 49.6789 109.674 49.3022 110.556 48.9886C111.438 48.6764 112.215 48.4557 112.89 48.3254C113.563 48.1951 114.536 48.039 115.807 47.857C117.051 47.6751 117.9 47.4338 118.354 47.1345C118.808 46.8351 119.035 46.3474 119.035 45.67C119.035 45.0455 118.744 44.5578 118.16 44.2056C117.577 43.8546 116.793 43.6778 115.807 43.6778C113.759 43.6778 112.604 44.6288 112.346 46.5281H107.64C107.718 42.025 110.517 39.7734 116.041 39.7734C118.971 39.7734 121.063 40.4044 122.321 41.6676C123.578 42.9308 124.208 44.8236 124.208 47.3487V59.4915V59.4928ZM119.114 52.1911L119.152 50.0828C118.737 50.4995 117.649 50.8776 115.885 51.2156C114.459 51.4763 113.468 51.8337 112.91 52.2892C112.353 52.7446 112.074 53.3898 112.074 54.222C112.074 55.6542 112.89 56.369 114.523 56.369C115.819 56.369 116.902 55.9587 117.771 55.1394C118.639 54.3201 119.087 53.3369 119.112 52.1911H119.114Z"/><path fill="#F8961D" d="M143.686 59.4929H138.592V47.8572C138.592 46.3991 138.352 45.4043 137.873 44.8702C137.392 44.3373 136.544 44.0702 135.325 44.0702C132.706 44.0702 131.398 45.5411 131.398 48.4829V59.4942H126.342V40.2832H131.164V43.0947C132.357 40.8819 134.418 39.7761 137.348 39.7761C139.24 39.7761 140.77 40.3361 141.937 41.4548C143.104 42.5747 143.688 44.1489 143.688 46.1798V59.4942L143.686 59.4929Z"/><path fill="#F8961D" d="M163.115 59.4929H157.437L153.237 50.8635L150.788 53.4015V59.4929H145.694V33.7957H150.788V47.5823L157.088 40.2806H163.272L156.855 47.3475L163.116 59.4903L163.115 59.4929Z"/><path fill="#F8961D" fill-rule="evenodd" d="M180.601 43.0174C174.271 43.0174 169.138 37.8653 169.138 31.5081H162.952C162.952 41.2935 170.853 49.2275 180.6 49.2275C190.348 49.2275 198.247 41.2935 198.247 31.5081H192.062C192.062 37.864 186.931 43.0174 180.6 43.0174" clip-rule="evenodd"/><path fill="#F8961D" fill-rule="evenodd" d="M186.184 31.5081C186.184 31.7855 185.987 31.9532 185.986 31.9532C185.906 32.0422 184.633 32.8267 183.275 34.1906C181.916 35.5544 181.132 36.8318 181.045 36.913C181.045 36.913 180.878 37.1092 180.601 37.1092C180.325 37.1092 180.158 36.913 180.158 36.913C180.072 36.8318 179.288 35.5544 177.93 34.1906C176.571 32.8267 175.299 32.0422 175.218 31.9532C175.218 31.9532 175.02 31.7855 175.02 31.5081H186.185H186.184Z" clip-rule="evenodd"/><path fill="#F8961D" fill-rule="evenodd" d="M180.601 20C174.271 20 169.138 25.1521 169.138 31.508H175.018C175.018 31.2306 175.216 31.0629 175.216 31.0629C175.295 30.9738 176.569 30.1906 177.927 28.8255C179.284 27.463 180.068 26.1843 180.156 26.1043C180.156 26.1043 180.323 25.9069 180.6 25.9069C180.878 25.9069 181.045 26.103 181.045 26.103C181.132 26.183 181.916 27.4617 183.273 28.8255C184.632 30.1893 185.904 30.9738 185.985 31.0629C185.985 31.0629 186.183 31.2306 186.183 31.508H192.063C192.063 25.1521 186.932 20 180.601 20Z" clip-rule="evenodd"/></svg>