<svg xmlns="http://www.w3.org/2000/svg" width="40" height="40" fill="none" viewBox="0 0 40 40"><g clip-path="url(#clip0_6_870)"><mask id="mask0_6_870" width="40" height="40" x="0" y="0" maskUnits="userSpaceOnUse" style="mask-type:luminance"><path fill="#fff" d="M40 0H0V40H40V0Z"/></mask><g mask="url(#mask0_6_870)"><path fill="#FFCE01" d="M38.3786 19.9822C38.3786 23.6185 37.3003 27.1731 35.2801 30.1966C33.2598 33.2201 30.3884 35.5766 27.0289 36.9682C23.6694 38.3597 19.9727 38.7238 16.4062 38.0144C12.8398 37.305 9.56381 35.554 6.99255 32.9827C4.42129 30.4114 2.67023 27.1355 1.96082 23.569C1.25141 20.0026 1.61551 16.3059 3.00707 12.9464C4.39862 9.58686 6.75514 6.71542 9.77862 4.69519C12.8021 2.67497 16.3567 1.59668 19.993 1.59668C22.4075 1.59668 24.7982 2.07224 27.0289 2.9962C29.2595 3.92016 31.2863 5.27443 32.9936 6.98168C34.7008 8.68893 36.0551 10.7157 36.979 12.9464C37.903 15.177 38.3786 17.5678 38.3786 19.9822Z"/><path fill="#231F20" d="M19.9931 -0.00683594C16.0375 -0.00683594 12.1707 1.16614 8.8817 3.36377C5.59272 5.5614 3.02927 8.68497 1.51552 12.3395C0.00176976 15.994 -0.394298 20.0154 0.377406 23.895C1.14911 27.7746 3.05391 31.3382 5.85096 34.1353C8.64801 36.9323 12.2117 38.8372 16.0913 39.6089C19.9709 40.3806 23.9923 39.9845 27.6468 38.4707C31.3013 36.957 34.4249 34.3935 36.6225 31.1046C38.8201 27.8156 39.9931 23.9488 39.9931 19.9932C39.9931 14.6888 37.886 9.60176 34.1352 5.85103C30.3845 2.1003 25.2974 -0.00683594 19.9931 -0.00683594ZM19.9931 38.4336C16.3537 38.4357 12.7954 37.3584 9.76844 35.3378C6.74147 33.3172 4.38182 30.4441 2.98807 27.0822C1.59433 23.7202 1.2291 20.0204 1.93858 16.4508C2.64806 12.8812 4.40037 9.60225 6.97383 7.0288C9.54728 4.45534 12.8262 2.70303 16.3958 1.99355C19.9654 1.28407 23.6652 1.6493 27.0272 3.04304C30.3892 4.43679 33.2622 6.79644 35.2828 9.82341C37.3034 12.8504 38.3808 16.4087 38.3786 20.0481C38.3786 24.9242 36.4416 29.6006 32.9936 33.0486C29.5457 36.4965 24.8692 38.4336 19.9931 38.4336Z"/><path fill="#231F20" d="M12.0091 19.0707C10.581 18.6972 9.32876 20.3779 8.62573 21.6412C8.8674 19.9166 10.9875 17.0935 12.0091 19.0707Z"/><path fill="#231F20" d="M8.86731 19.0928C9.35064 17.445 10.4821 16.8958 11.0643 17.3352C10.1591 17.6645 9.3872 18.282 8.86731 19.0928Z"/><path fill="#231F20" d="M12.5252 21.7289C13.2612 21.1138 13.1843 20.191 12.0419 19.8944C11.1961 19.6747 9.37259 21.2016 9.17487 22.8933C9.89987 21.9486 12.009 20.235 12.4703 21.7289"/><path fill="#231F20" d="M23.9909 26.1105C24.1227 23.9139 22.014 22.9364 21.6186 20.7178C21.2232 18.4993 24.9135 14.9518 22.5741 11.3274C26.9673 14.8639 23.5296 16.9507 25.7372 19.8941C24.9572 19.619 24.2741 19.123 23.7712 18.4663C22.5411 20.0918 26.8026 22.3104 23.9909 26.1544"/><path fill="#231F20" d="M16.9404 8.65869C17.4567 8.65869 18.3464 9.02122 18.0389 9.43864C16.8195 10.5371 15.1718 10.1197 13.8756 11.2621C14.4139 9.82312 16.7976 9.62536 16.9953 8.65869"/><path fill="#231F20" d="M20.8827 10.2622C21.388 9.69109 20.8827 8.9113 18.8289 8.64771C21.0255 9.746 17.5 9.93271 17.3901 11.7669C16.2918 12.2282 15.3253 11.4703 14.7652 11.9975C14.2051 12.5247 13.5791 12.1513 13.7658 11.5692C13.6286 11.648 13.5166 11.7641 13.4429 11.9041C13.3692 12.0441 13.3368 12.2021 13.3495 12.3598C13.3621 12.5175 13.4194 12.6683 13.5145 12.7947C13.6095 12.9211 13.7386 13.0179 13.8866 13.0738C14.0184 13.1397 14.1282 13.2605 14.0293 13.3594C13.3264 14.0184 12.997 14.5895 13.7328 15.2594C13.9826 14.7198 14.3595 14.2487 14.8311 13.8866C15.2594 14.1721 15.9953 13.9744 17.0277 12.8871C17.0277 12.8322 17.1375 12.8871 17.1156 12.8871C16.3248 15.6109 14.3039 16.0502 13.6559 15.9184C14.0513 16.5005 16.6213 16.874 16.9508 15.7207C17.6867 13.1288 20.1798 12.0085 18.0491 12.0524C18.6312 11.3715 20.5862 10.7235 21.0145 10.2402M15.523 13.4143C15.3583 13.4143 15.2155 13.1837 15.1826 12.8981C15.3913 13.4363 15.9184 13.1727 15.6109 12.4149C15.7976 12.4149 16.0941 12.4149 16.6433 12.4149C16.0722 12.7224 15.8086 13.4253 15.545 13.4143"/><path fill="#231F20" d="M21.97 8.86785C22.8103 9.37369 23.5541 10.0246 24.167 10.7902C24.2988 9.69172 23.6727 7.49476 22.739 7.00044C22.3325 6.76976 21.7613 8.30762 21.9481 8.86785"/><path fill="#231F20" d="M5.31982 17.7414C6.32475 15.4142 8.06979 13.4839 10.2841 12.25C10.8992 10.6794 10.6905 9.59207 17.1265 7.09894C17.2803 6.14342 17.2583 5.01218 17.5329 5.01218C18.3236 5.2187 19.0042 5.72226 19.433 6.418L20.1468 6.33011C20.3383 5.33243 20.6711 4.36719 21.1353 3.46357C21.6076 2.7387 22.4972 2.66182 23.6504 3.60636C25.0495 4.57357 26.2937 5.74745 27.3407 7.08794C29.4429 7.8408 31.3154 9.1232 32.7773 10.8112C32.0209 10.3461 31.168 10.0605 30.2841 9.97647C31.8108 11.3274 32.8212 13.535 32.0524 16.7749C31.7558 13.7546 29.5263 12.4916 28.1644 11.5141C28.9003 14.0841 25.7042 13.1945 24.7268 11.2725C24.8623 11.3298 25.0079 11.3594 25.1551 11.3594C25.3022 11.3594 25.4479 11.3298 25.5834 11.2725C25.6103 10.0071 25.3787 8.7496 24.9028 7.57686C24.4269 6.40412 23.7167 5.34082 22.8157 4.45203C21.7723 3.5734 21.2122 5.67113 20.8498 7.25268C20.7984 7.50449 20.6604 7.73034 20.4597 7.89088C20.259 8.05143 20.0084 8.13652 19.7515 8.13134C19.8887 7.86158 19.985 7.57284 20.037 7.27467C18.4417 7.55596 16.9024 8.09374 15.4791 8.86718C12.6345 10.1522 11.9316 10.7892 11.2946 12.9528C9.03156 14.1582 7.01582 15.779 5.35277 17.7304"/><path fill="#231F20" d="M19.5208 17.1484C20.2118 18.1473 20.582 19.333 20.582 20.5476C20.582 21.7622 20.2118 22.948 19.5208 23.9469C20.1139 21.3 18.4225 16.2588 16.6433 18.8178C16.8977 18.894 17.1343 19.0204 17.3391 19.1895C17.5438 19.3587 17.7126 19.5672 17.8355 19.8026C17.9584 20.0381 18.0328 20.2958 18.0544 20.5605C18.076 20.8253 18.0443 21.0916 17.9613 21.3439C17.691 20.7835 17.2425 20.3285 16.6861 20.0503C16.1296 19.772 15.4965 19.6862 14.886 19.8063C14.5071 19.958 14.0865 19.9694 13.6999 19.8385C13.3133 19.7076 12.9861 19.443 12.7773 19.0924C11.9536 17.8843 13.3374 16.4016 10.9871 16.5224C13.8207 15.0726 13.0079 17.8733 14.3698 18.2138C15.9623 18.5982 16.149 17.6097 16.6982 16.9727C16.9355 16.6525 17.2872 16.4362 17.6799 16.3687C18.0727 16.3012 18.4763 16.3877 18.8069 16.6103C19.2133 15.3582 18.6202 13.4142 19.7844 12.3708C20.1837 12.1793 20.6274 12.0996 21.0684 12.1402C21.5093 12.1808 21.931 12.3402 22.2886 12.6014C21.2781 12.6014 20.092 13.7876 19.5099 17.1594"/><path fill="#231F20" d="M34.0403 12.25C35.4901 17.3022 35.0727 22.1347 33.59 25.0452C33.7767 23.222 32.1842 20.5751 32.8212 17.4669C29.8009 20.3994 34.5236 27.6042 27.6592 32.3269C28.6859 30.0579 29.066 27.5494 28.7575 25.0781C29.1616 25.3076 29.4928 25.6464 29.713 26.0556C30.379 23.6588 30.2283 21.1085 29.2847 18.8068C29.8335 18.9253 30.3457 19.1739 30.7784 19.5317C30.9431 15.3582 27.9008 15.0507 27.3297 13.9194C27.3297 15.1275 28.7575 16.116 29.0101 17.7415C28.334 17.3895 27.5742 17.2299 26.8135 17.2802C27.5789 18.1834 28.1495 19.2349 28.4897 20.3688C28.8299 21.5027 28.9323 22.6947 28.7904 23.87C28.1859 23.3128 27.4131 22.9727 26.5939 22.9035C27.5054 24.2763 27.8789 27.8897 26.7366 29.4933C26.7044 28.8181 26.4961 28.1631 26.1326 27.5932C25.9394 28.3574 25.5386 29.0531 24.9745 29.6036C24.4105 30.1541 23.7051 30.5379 22.9365 30.7124C23.2712 30.393 23.5201 29.9946 23.6603 29.5538C23.8005 29.113 23.8276 28.644 23.739 28.19C23.6504 27.736 23.4489 27.3115 23.1532 26.9558C22.8575 26.6001 22.4771 26.3245 22.0469 26.1545C20.2787 25.5394 18.0271 26.7475 17.1155 30.976C15.8305 31.3494 11.9975 30.5257 14.2929 28.0545C15.6988 28.5158 19.2572 26.1325 19.0156 24.4631C18.8413 23.5191 18.3193 22.6749 17.5526 22.0974C16.7859 21.5198 15.8304 21.2509 14.875 21.3439C12.7993 21.3439 11.4044 23.2989 9.71303 24.1446C8.28524 23.9249 7.81296 23.7162 7.08808 21.8272C7.00022 20.674 8.18638 19.8612 8.18638 18.6641C7.17594 18.8727 6.93433 17.3571 4.96837 18.9276C4.81461 18.6421 5.07821 17.9721 5.07821 17.9721C4.6108 18.386 4.30048 18.9485 4.19958 19.5647C4.61216 20.3771 5.24365 21.0581 6.02276 21.5306C7.17598 24.6278 8.37312 24.9683 9.59223 25.0891C10.1415 25.8574 10.9482 26.403 11.8657 26.6267C11.6807 25.7643 11.6435 24.8767 11.7558 24.0018C14.2709 21.4867 16.149 23.0243 16.3907 23.6833C14.1941 24.1446 15.7317 28.9222 11.9975 26.7915C11.8962 27.6298 12.082 28.4776 12.5247 29.1967C12.9091 32.4916 17.0167 31.6679 18.2797 32.239C18.137 29.0649 19.9052 26.7475 21.4099 26.9342C22.9146 27.1209 23.3209 29.6031 20.7289 31.9425C21.366 32.2829 24.1447 31.8107 25.5395 30.8442C25.6713 31.6569 24.6389 34.0402 23.3429 35.7096C25.7906 35.1801 28.0801 34.0846 30.0282 32.511C31.9764 30.9374 33.5288 28.9293 34.5612 26.6477C35.5937 24.3662 36.0773 21.8745 35.9735 19.3724C35.8697 16.8703 35.1813 14.4272 33.9634 12.239M6.50598 21.1462C5.94359 20.7413 5.46599 20.2301 5.10016 19.6415C5.38727 19.2926 5.76845 19.0334 6.19846 18.8947C6.60483 18.7849 6.85746 19.0155 6.80254 19.1473C6.74763 19.2791 6.38519 19.2791 6.28634 19.5866C6.1875 19.8941 6.64876 20.1907 6.74761 20.3994C6.78555 20.462 6.81003 20.5319 6.81947 20.6045C6.82891 20.6771 6.82311 20.7509 6.80244 20.8212C6.78178 20.8915 6.74671 20.9567 6.69945 21.0126C6.65219 21.0686 6.59379 21.1141 6.52797 21.1462M10.1414 24.7596C10.3435 24.4259 10.6658 24.1822 11.042 24.0787C11.0114 24.7256 11.0781 25.3735 11.2397 26.0007C11.2397 26.0007 10.1414 25.3088 10.1414 24.7706M15.7976 25.5394C16.0832 25.5394 16.3138 25.803 16.5774 25.6163C16.841 25.4296 16.5774 24.6608 16.3687 24.4301C16.6103 24.4301 17.5988 24.4301 17.5549 24.8365C17.4341 25.77 16.852 26.0666 15.4351 26.7585C15.6768 26.5279 15.6438 26.0336 15.7976 25.5504M13.0079 28.6476C12.7167 28.3548 12.5478 27.9621 12.5357 27.5493C12.8765 27.7549 13.2469 27.9068 13.634 27.9996C13.4749 28.2783 13.2483 28.5125 12.975 28.6805"/></g></g><defs><clipPath id="clip0_6_870"><rect width="40" height="40" fill="#fff"/></clipPath></defs></svg>