<svg xmlns="http://www.w3.org/2000/svg" width="143" height="40" fill="none" viewBox="0 0 143 40"><g clip-path="url(#clip0_5_7818)"><path fill="#FFCE01" d="M143 0H0V40H143V0Z"/><mask id="mask0_5_7818" width="143" height="40" x="0" y="0" maskUnits="userSpaceOnUse" style="mask-type:luminance"><path fill="#fff" d="M143 0H0V40H143V0Z"/></mask><g mask="url(#mask0_5_7818)"><path fill="#231F20" d="M88.9824 27.9993C87.2887 28.0164 85.6042 27.7371 84 27.1729V11H88.0839V16.4381C88.7633 16.2216 89.4697 16.1097 90.1804 16.1061C93.6381 16.1061 96 18.1048 96 21.6289C96 25.937 93.5088 27.9851 88.996 27.9851M89.3704 18.7263C88.9321 18.7289 88.4972 18.8077 88.0839 18.9593V25.1037C88.4728 25.2081 88.8734 25.258 89.2751 25.252C90.9495 25.252 91.9365 24.0302 91.9365 21.9044C91.9365 19.7786 91.004 18.7263 89.3704 18.7263Z"/><path fill="#231F20" d="M102.568 27.9967C98.1701 27.9967 96 26.6646 96 24.2246C96 21.2026 99.7763 20.5015 103.995 20.3122V19.8704C103.995 18.9589 103.224 18.5383 101.768 18.5383C100.421 18.5763 99.0883 18.8127 97.8132 19.2394L96.7781 16.9046C98.5498 16.2991 100.413 15.9933 102.289 16.0001C106.094 16.0001 108 17.2622 108 20.2911V27.1764C106.251 27.7562 104.413 28.0337 102.568 27.9967ZM103.995 22.4927C101.697 22.5699 99.9619 22.7872 99.9619 24.1404C99.9619 25.073 100.919 25.5778 102.446 25.5778C102.97 25.582 103.492 25.5256 104.002 25.4095L103.995 22.4927Z"/><path fill="#231F20" d="M116.786 27.9714V20.4501C116.786 19.4787 116.241 18.843 114.728 18.843C114.22 18.8523 113.717 18.9514 113.243 19.1358V28H109V16.9215C110.862 16.3042 112.81 15.9931 114.77 16.0001C119.098 16.0001 121 17.4858 121 20.0072V27.9714"/><path fill="#231F20" d="M131.346 27L127.18 21.5205H127.124V27H123V11H127.124V20.7242H127.18L130.948 16.0139H135.651L131.401 21.1291L136 27"/><path fill="#231F20" d="M75.1606 32H70.9646L72.9321 27.4396L68 16H72.3566L75.0134 24.123L77.6434 16H82"/><path fill="#231F20" d="M53.8525 13H49.1227L45.9966 22.2635L42.8705 13H38.1407L36 28H39.8668L41.0968 17.6866L44.719 28H47.2742L50.9032 17.6866L52.1332 28H56"/><path fill="#231F20" d="M63.5675 27.9967C59.1701 27.9967 57 26.6645 57 24.2245C57 21.2026 60.7835 20.5014 64.9881 20.3121V19.8704C64.9881 18.9589 64.2171 18.5382 62.768 18.5382C61.4214 18.5758 60.0882 18.8122 58.8132 19.2393L57.7781 16.9045C59.5583 16.3324 61.4162 16.0275 63.2891 16C67.094 16 69 17.2621 69 20.2911V27.1764C67.2511 27.7562 65.413 28.0337 63.5675 27.9967ZM64.9953 22.4927C62.6966 22.5698 60.9619 22.7872 60.9619 24.1404C60.9619 25.0729 61.9185 25.5778 63.4462 25.5778C63.9675 25.5821 64.4875 25.5256 64.9953 25.4095V22.4927Z"/><path fill="#FFCE01" d="M32 20.5C32 22.7745 31.3255 24.9979 30.0619 26.8891C28.7983 28.7802 27.0022 30.2542 24.9009 31.1246C22.7995 31.995 20.4872 32.2228 18.2565 31.779C16.0257 31.3353 13.9766 30.24 12.3683 28.6317C10.76 27.0234 9.6647 24.9743 9.22097 22.7435C8.77724 20.5128 9.00498 18.2005 9.87539 16.0991C10.7458 13.9978 12.2198 12.2017 14.1109 10.9381C16.0021 9.67446 18.2255 9 20.5 9C22.0102 9 23.5056 9.29746 24.9009 9.87539C26.2961 10.4533 27.5638 11.3004 28.6317 12.3683C29.6996 13.4362 30.5467 14.7039 31.1246 16.0991C31.7025 17.4944 32 18.9898 32 20.5Z"/><path fill="#231F20" d="M20.5 8C18.0277 8 15.611 8.73311 13.5554 10.1066C11.4998 11.4801 9.89761 13.4324 8.95151 15.7165C8.00542 18.0005 7.75787 20.5139 8.24019 22.9386C8.7225 25.3634 9.91301 27.5907 11.6612 29.3388C13.4093 31.087 15.6366 32.2775 18.0614 32.7598C20.4861 33.2421 22.9995 32.9946 25.2835 32.0485C27.5676 31.1024 29.5199 29.5002 30.8934 27.4446C32.2669 25.389 33 22.9723 33 20.5C33 17.1848 31.683 14.0054 29.3388 11.6612C26.9946 9.31696 23.8152 8 20.5 8ZM20.5 32.0253C18.2254 32.0266 16.0014 31.3533 14.1096 30.0904C12.2177 28.8275 10.7429 27.0319 9.87186 24.9306C9.00077 22.8294 8.7725 20.517 9.21592 18.286C9.65935 16.055 10.7545 14.0057 12.363 12.3973C13.9714 10.7889 16.0207 9.69367 18.2517 9.25024C20.4827 8.80681 22.7951 9.03508 24.8963 9.90618C26.9975 10.7773 28.7932 12.252 30.0561 14.1439C31.3189 16.0358 31.9923 18.2597 31.9909 20.5343C31.9909 23.5819 30.7803 26.5047 28.6253 28.6596C26.4703 30.8146 23.5476 32.0253 20.5 32.0253Z"/><path fill="#231F20" d="M15 19.4163C14.1558 19.1862 13.4156 20.2217 13 21C13.1429 19.9374 14.3961 18.1981 15 19.4163Z"/><path fill="#231F20" d="M13 19C13.22 18.1341 13.735 17.8454 14 18.0764C13.588 18.2494 13.2366 18.5739 13 19Z"/><path fill="#231F20" d="M14.7501 21.2289C15.1345 20.8215 15.0943 20.2104 14.4976 20.014C14.0558 19.8685 13.1033 20.8797 13 22C13.3787 21.3744 14.4804 20.2395 14.7214 21.2289"/><path fill="#231F20" d="M22.7372 23.9733C22.8325 22.64 21.3076 22.0467 21.0217 20.7C20.7357 19.3533 23.4043 17.2 21.7126 15C24.8895 17.1467 22.4036 18.4133 24 20.2C23.436 20.033 22.942 19.7319 22.5783 19.3333C21.6888 20.32 24.7704 21.6667 22.7372 24"/><path fill="#231F20" d="M18.1755 13C18.5419 13 19.1735 13.2785 18.9552 13.5992C18.0897 14.443 16.9201 14.1224 16 15C16.3821 13.8945 18.0741 13.7426 18.2145 13"/><path fill="#231F20" d="M20.8827 14.0317C21.2087 13.6668 20.8827 13.1684 19.5572 13C20.9748 13.7019 18.6996 13.8212 18.6287 14.9933C17.9199 15.288 17.2962 14.8038 16.9347 15.1406C16.5732 15.4775 16.1692 15.2389 16.2897 14.8669C16.2012 14.9173 16.1289 14.9915 16.0814 15.0809C16.0338 15.1704 16.0129 15.2714 16.0211 15.3722C16.0292 15.4729 16.0662 15.5693 16.1275 15.6501C16.1889 15.7309 16.2722 15.7927 16.3677 15.8285C16.4527 15.8706 16.5236 15.9478 16.4598 16.0109C16.0062 16.432 15.7936 16.797 16.2685 17.2251C16.4296 16.8803 16.6729 16.5793 16.9772 16.3478C17.2537 16.5303 17.7286 16.404 18.3948 15.7091C18.3948 15.674 18.4657 15.7091 18.4515 15.7091C17.9412 17.4497 16.637 17.7305 16.2188 17.6463C16.474 18.0182 18.1326 18.2569 18.3452 17.5199C18.8201 15.8636 20.429 15.1477 19.054 15.1757C19.4297 14.7406 20.6913 14.3265 20.9677 14.0177M17.4238 16.046C17.3175 16.046 17.2253 15.8986 17.2041 15.7162C17.3387 16.0601 17.6789 15.8916 17.4805 15.4074C17.601 15.4074 17.7923 15.4074 18.1467 15.4074C17.7782 15.6039 17.6081 16.0531 17.438 16.046"/><path fill="#231F20" d="M21.0257 12.9917C21.3954 13.257 21.7226 13.5984 21.9923 14C22.0503 13.4238 21.7748 12.2715 21.364 12.0123C21.1852 11.8913 20.9339 12.6979 21.016 12.9917"/><path fill="#231F20" d="M11 18C11.6222 16.5879 12.7026 15.4166 14.0736 14.668C14.4544 13.715 14.3252 13.0552 18.31 11.5425C18.4052 10.9627 18.3916 10.2763 18.5616 10.2763C19.0512 10.4016 19.4725 10.7072 19.738 11.1293L20.18 11.076C20.2985 10.4706 20.5046 9.88497 20.792 9.33668C21.0844 8.89685 21.6352 8.85021 22.3492 9.42332C23.2154 10.0102 23.9858 10.7225 24.634 11.5358C25.9356 11.9926 27.0949 12.7707 28 13.795C27.5317 13.5128 27.0037 13.3395 26.4564 13.2885C27.4016 14.1082 28.0272 15.4477 27.5512 17.4136C27.3676 15.5809 25.9872 14.8146 25.144 14.2215C25.5996 15.7808 23.6208 15.2411 23.0156 14.0748C23.0995 14.1097 23.1897 14.1276 23.2808 14.1276C23.3719 14.1276 23.4621 14.1097 23.546 14.0748C23.5627 13.3071 23.4193 12.5441 23.1246 11.8325C22.83 11.1209 22.3903 10.4757 21.8324 9.93645C21.1864 9.40332 20.8396 10.6762 20.6152 11.6358C20.5834 11.7886 20.4979 11.9256 20.3737 12.023C20.2495 12.1204 20.0943 12.1721 19.9352 12.1689C20.0202 12.0052 20.0798 11.83 20.112 11.6491C19.1243 11.8198 18.1713 12.1461 17.29 12.6154C15.5288 13.3951 15.0936 13.7816 14.6992 15.0944C13.2981 15.8258 12.0501 16.8092 11.0204 17.9933"/><path fill="#231F20" d="M19.2857 17.9728C19.7137 18.5645 19.943 19.2669 19.943 19.9864C19.943 20.7059 19.7137 21.4083 19.2857 22C19.653 20.4321 18.6054 17.4458 17.5034 18.9617C17.661 19.0068 17.8075 19.0817 17.9344 19.1819C18.0612 19.2821 18.1657 19.4056 18.2418 19.5451C18.3179 19.6846 18.364 19.8372 18.3774 19.994C18.3908 20.1509 18.3712 20.3087 18.3197 20.4581C18.1524 20.1261 17.8746 19.8566 17.5299 19.6918C17.1852 19.527 16.7931 19.4761 16.415 19.5473C16.1803 19.6371 15.9197 19.6439 15.6803 19.5663C15.4408 19.4888 15.2382 19.3321 15.1088 19.1244C14.5986 18.4087 15.4558 17.5304 14 17.602C15.7551 16.7432 15.2517 18.4022 16.0952 18.6039C17.0816 18.8316 17.1973 18.2461 17.5374 17.8687C17.6844 17.6791 17.9022 17.5509 18.1455 17.511C18.3887 17.471 18.6388 17.5222 18.8435 17.654C19.0952 16.9123 18.7279 15.7608 19.449 15.1427C19.6963 15.0293 19.9711 14.9821 20.2442 15.0061C20.5173 15.0302 20.7785 15.1246 21 15.2793C20.3742 15.2793 19.6395 15.982 19.2789 17.9793"/><path fill="#231F20" d="M28.775 15.007C29.6871 18.2359 29.4246 21.3243 28.4917 23.1844C28.6092 22.0192 27.6072 20.3276 28.008 18.3411C26.1077 20.2153 29.0791 24.8198 24.7602 27.8381C25.4062 26.388 25.6453 24.7848 25.4512 23.2054C25.7054 23.3521 25.9138 23.5686 26.0524 23.8301C26.4714 22.2983 26.3766 20.6685 25.7829 19.1975C26.1282 19.2732 26.4505 19.4321 26.7227 19.6608C26.8263 16.9935 24.9122 16.7969 24.5529 16.0739C24.5529 16.846 25.4512 17.4778 25.6101 18.5166C25.1847 18.2917 24.7067 18.1897 24.2281 18.2218C24.7096 18.799 25.0687 19.471 25.2827 20.1957C25.4967 20.9204 25.5611 21.6822 25.4719 22.4333C25.0916 22.0772 24.6053 21.8599 24.0899 21.8156C24.6634 22.693 24.8984 25.0023 24.1797 26.0271C24.1594 25.5956 24.0284 25.177 23.7997 24.8128C23.6781 25.3012 23.4259 25.7459 23.071 26.0977C22.7162 26.4495 22.2724 26.6947 21.7888 26.8063C21.9993 26.6022 22.1559 26.3475 22.2442 26.0658C22.3324 25.7841 22.3494 25.4844 22.2937 25.1942C22.2379 24.9041 22.1112 24.6328 21.9251 24.4055C21.7391 24.1781 21.4997 24.002 21.2291 23.8933C20.1165 23.5002 18.6999 24.2723 18.1264 26.9747C17.3179 27.2134 14.9062 26.6869 16.3505 25.1076C17.235 25.4024 19.4739 23.8793 19.3219 22.8124C19.2122 22.2091 18.8837 21.6696 18.4013 21.3005C17.919 20.9313 17.3178 20.7595 16.7167 20.8189C15.4107 20.8189 14.5331 22.0683 13.4689 22.6088C12.5706 22.4684 12.2734 22.3351 11.8174 21.1278C11.7621 20.3907 12.5084 19.8713 12.5084 19.1062C11.8726 19.2396 11.7206 18.2709 10.4837 19.2747C10.387 19.0922 10.5528 18.664 10.5528 18.664C10.2587 18.9286 10.0635 19.288 10 19.6818C10.2596 20.201 10.6569 20.6362 11.1471 20.9382C11.8727 22.9176 12.6259 23.1352 13.3929 23.2125C13.7385 23.7035 14.246 24.0522 14.8233 24.1951C14.7069 23.644 14.6835 23.0767 14.7542 22.5175C16.3366 20.9101 17.5183 21.8929 17.6703 22.314C16.2883 22.6088 17.2557 25.6621 14.9062 24.3004C14.8425 24.8362 14.9594 25.3781 15.2379 25.8376C15.4798 27.9434 18.0642 27.4169 18.8589 27.7819C18.769 25.7534 19.8816 24.2723 20.8283 24.3917C21.775 24.511 22.0306 26.0973 20.3998 27.5924C20.8006 27.81 22.5489 27.5082 23.4265 26.8905C23.5094 27.4099 22.8599 28.9331 22.0445 30C23.5845 29.6616 25.025 28.9615 26.2507 27.9558C27.4764 26.9501 28.4532 25.6667 29.1028 24.2086C29.7523 22.7504 30.0566 21.158 29.9913 19.5589C29.926 17.9598 29.4929 16.3985 28.7266 15M11.4511 20.6926C11.0973 20.4338 10.7968 20.1071 10.5666 19.7309C10.7473 19.5079 10.9871 19.3423 11.2576 19.2536C11.5133 19.1834 11.6723 19.3308 11.6377 19.4151C11.6032 19.4993 11.3751 19.4993 11.3129 19.6958C11.2507 19.8924 11.541 20.0819 11.6032 20.2153C11.627 20.2553 11.6424 20.2999 11.6484 20.3464C11.6543 20.3928 11.6507 20.4399 11.6377 20.4849C11.6246 20.5298 11.6026 20.5714 11.5728 20.6072C11.5431 20.6429 11.5064 20.672 11.465 20.6926M13.7384 23.0019C13.8656 22.7886 14.0684 22.6329 14.305 22.5667C14.2858 22.9801 14.3278 23.3942 14.4294 23.795C14.4294 23.795 13.7384 23.3528 13.7384 23.0089M17.2972 23.5002C17.4768 23.5002 17.6219 23.6687 17.7878 23.5494C17.9536 23.43 17.7878 22.9387 17.6565 22.7913C17.8085 22.7913 18.4304 22.7913 18.4028 23.051C18.3268 23.6476 17.9605 23.8372 17.0691 24.2794C17.2211 24.132 17.2004 23.8161 17.2972 23.5073M15.542 25.4867C15.3587 25.2995 15.2525 25.0486 15.2448 24.7847C15.4593 24.9161 15.6923 25.0132 15.9359 25.0725C15.8358 25.2507 15.6932 25.4003 15.5212 25.5077"/></g></g><defs><clipPath id="clip0_5_7818"><rect width="143" height="40" fill="#fff"/></clipPath></defs></svg>