<svg xmlns="http://www.w3.org/2000/svg" width="240" height="80" fill="none" viewBox="0 0 240 80"><path fill="url(#paint0_radial_13_12468)" d="M81.8479 50.942C81.8479 48.7541 81.0477 46.7535 79.7538 45.1616L61.3244 23.2488C59.7326 21.2567 57.2384 20.0564 54.4463 20.0564C49.5687 20.0564 45.4827 24.0405 45.4827 29.0207C45.4827 31.2086 46.2829 33.2092 47.5768 34.8011L66.0062 56.816C67.5981 58.8081 70.0922 59.9999 72.8843 59.9999C77.8641 59.8978 81.8479 55.9136 81.8479 50.9335V50.942Z"/><path fill="url(#paint1_radial_13_12468)" d="M78.3578 58.0164C80.0518 56.7225 81.2435 54.824 81.6436 52.832L86.5297 31.0129C87.1256 28.5185 86.6319 25.7347 84.9379 23.5383C81.95 19.5542 76.3744 18.8561 72.382 21.8442C70.6881 23.1382 69.4963 25.0366 69.0962 27.0287L64.3122 48.3455L64.2101 48.9415C63.6142 51.4358 64.1079 54.2196 65.8019 56.416C68.7898 60.298 74.4676 61.0982 78.3578 58.0079V58.0164Z"/><path fill="url(#paint2_radial_13_12468)" d="M105.257 50.942C105.257 48.7541 104.457 46.7535 103.163 45.1616L84.64 23.2488C83.0396 21.2567 80.554 20.0564 77.7619 20.0564C72.8758 20.0564 68.7983 24.0405 68.7983 29.0207C68.7983 31.2086 69.5985 33.2092 70.8924 34.8011L89.3218 56.816C90.9137 58.8081 93.4078 59.9999 96.1999 59.9999C101.282 59.8978 105.266 55.9136 105.266 50.9335L105.257 50.942Z"/><path fill="url(#paint3_radial_13_12468)" d="M45.7806 41.9778C50.7349 41.9778 54.7442 45.996 54.7442 50.9421C54.7442 55.8882 50.7264 59.9064 45.7806 59.9064C40.8349 59.9064 36.817 55.8967 36.817 50.9421C36.817 45.9875 40.8349 41.9778 45.7806 41.9778Z"/><path fill="#000" d="M200.494 39.2877L200.299 39.0919L200.494 38.8961C201.89 37.202 202.588 35.1077 202.486 32.9199C202.291 27.9397 197.804 24.1514 192.322 24.1514H180.567C178.575 24.1514 177.077 25.7433 177.077 27.6417V52.5511C177.077 54.5432 178.668 56.0415 180.567 56.0415H192.22C195.106 56.0415 197.796 55.0455 199.89 53.1555C201.984 51.2656 203.176 48.7713 203.176 46.0811C203.278 43.4932 202.282 41.101 200.486 39.3047L200.494 39.2877ZM183.955 30.417H192.825C194.519 30.417 195.617 31.9153 195.617 33.2093C195.617 34.9034 194.119 36.0016 192.825 36.0016H183.955V30.4255V30.417ZM192.918 49.546H183.955V42.3694H192.825C194.221 42.3694 196.408 43.3655 196.408 46.0556C196.408 47.5539 195.217 49.546 192.918 49.546Z"/><path fill="#000" d="M162.937 36.7934C160.248 36.0953 157.064 35.2014 156.86 33.005C156.757 31.5067 157.958 30.2127 159.95 29.9148C163.933 29.421 167.424 31.711 169.313 32.2048C171.203 32.7071 172.701 31.1066 172.897 29.5146C173.195 27.1225 170.803 25.8285 169.909 25.2325C168.42 24.3387 165.721 23.2405 161.737 23.2405C154.663 23.2405 149.786 27.3268 149.786 33.1072C149.786 36.2996 150.977 38.5896 153.276 40.2837C157.762 43.6719 166.521 43.2718 166.521 46.7622C166.521 49.8525 160.741 51.8445 154.365 47.6561C153.77 47.256 153.174 46.958 152.374 46.958C150.68 46.958 149.181 48.3542 149.181 50.1504C149.181 50.7463 149.284 51.2486 149.581 51.7424C149.581 51.8445 149.684 51.8445 149.684 51.9382C150.279 52.8321 151.08 53.6323 152.178 54.2282C153.77 55.3264 156.757 56.6204 161.244 56.6204C164.929 56.6204 168.019 55.7265 170.207 53.9302C172.403 52.134 173.595 49.546 173.595 46.4557C173.791 40.4795 168.513 38.2831 162.937 36.7934Z"/><path fill="#000" d="M142.414 24.0405H140.226C139.035 24.0405 137.834 24.7386 137.341 25.8368L129.969 41.1774L122.597 25.8368C122.001 24.7386 120.903 24.0405 119.609 24.0405H117.413C115.523 24.0405 113.923 25.6325 113.923 27.5309V52.8404C113.923 55.3347 116.613 57.2246 119.201 55.7263C120.196 55.2326 120.792 54.1344 120.792 53.0362V37.9935L126.972 49.8523C127.568 51.0441 128.769 51.6486 129.96 51.6486C131.152 51.6486 132.352 51.0526 132.948 49.8523L139.128 37.9935V53.0362C139.128 54.1344 139.724 55.2241 140.72 55.7263C143.308 57.1225 145.998 55.2326 145.998 52.8404V27.5309C145.998 25.641 144.406 24.0405 142.414 24.0405Z"/><defs><radialGradient id="paint0_radial_13_12468" cx="0" cy="0" r="1" gradientTransform="translate(67.7572 31.6847) scale(19.0526 19.0541)" gradientUnits="userSpaceOnUse"><stop offset=".02" stop-color="#6F0000"/><stop offset=".33" stop-color="#910D11"/><stop offset=".45" stop-color="#A61519"/><stop offset=".59" stop-color="#BC1B20"/><stop offset=".74" stop-color="#CB1E24"/><stop offset=".88" stop-color="#D52027"/><stop offset="1" stop-color="#DA2128"/></radialGradient><radialGradient id="paint1_radial_13_12468" cx="0" cy="0" r="1" gradientTransform="translate(82.2384 43.1591) scale(16.991 16.9923)" gradientUnits="userSpaceOnUse"><stop offset=".04" stop-color="#6F0000"/><stop offset=".3" stop-color="#910D11"/><stop offset=".42" stop-color="#A01317"/><stop offset=".68" stop-color="#BE1B21"/><stop offset=".88" stop-color="#D11F26"/><stop offset="1" stop-color="#DA2128"/></radialGradient><radialGradient id="paint2_radial_13_12468" cx="0" cy="0" r="1" gradientTransform="translate(73.7528 23.816) scale(34.3007 34.3034)" gradientUnits="userSpaceOnUse"><stop offset=".36" stop-color="#DA2128"/><stop offset="1" stop-color="#F37021"/></radialGradient><radialGradient id="paint3_radial_13_12468" cx="0" cy="0" r="1" gradientTransform="translate(41.185 54.3247) scale(17.7977 17.7991)" gradientUnits="userSpaceOnUse"><stop offset=".31" stop-color="#DA2128"/><stop offset=".79" stop-color="#910D11"/><stop offset="1" stop-color="#6F0000"/></radialGradient></defs></svg>