<svg xmlns="http://www.w3.org/2000/svg" width="402" height="40" fill="none" viewBox="0 0 402 40"><g clip-path="url(#clip0_11_54)"><path fill="#0072BC" fill-rule="evenodd" d="M27.2642 40L11.1253 13.2153V40H0V0H16.5686L32.8985 26.6667V0H44V40H27.2642Z" clip-rule="evenodd"/><path fill="#0072BC" fill-rule="evenodd" d="M78.8972 40L76.1817 33.1091H59.8651L57.1496 40H45L60.5908 0H74.9176L91 40H78.8972ZM72.8809 24.4484L67.9415 11.6578L63.0723 24.4484H72.8809Z" clip-rule="evenodd"/><path fill="#0072BC" fill-rule="evenodd" d="M136.982 40V14.7729L125.87 40H116.271L105.065 14.9145V40H94V0H110.266L121 24.8024L131.568 0H148V40H136.982Z" clip-rule="evenodd"/><path fill="#0072BC" fill-rule="evenodd" d="M195.972 40L193.182 33.1091H176.888L174.145 40H162L177.591 0H191.94L208 40H195.972ZM189.924 24.4484L184.953 11.6578L180.053 24.4484H189.924Z" clip-rule="evenodd"/><path fill="#0072BC" fill-rule="evenodd" d="M222 39.9529V0H245.571C250.857 0 254.5 0.777843 256.595 2.42781C258.786 4.17207 259.905 7.09487 259.905 11.1727C259.905 14.1426 259.381 16.3111 258.286 17.749C258 18.2204 257.571 18.6211 257.071 19.0454C258 19.6111 258.786 20.2946 259.405 21.1196C260.476 22.6282 261 24.9146 261 28.1202C261 32.2687 259.929 35.2622 257.786 37.0536C255.571 39.01 251.69 40 246.31 40H222.024L222 39.9529ZM244.5 30.5716C247.381 30.5716 248.286 30.053 248.476 29.9116C248.905 29.5816 249.143 28.7095 249.143 27.5074C249.143 25.1974 248.667 24.6553 248.571 24.5846C248.476 24.5139 247.833 23.9717 244.976 23.9717H233.738V30.5716H244.5ZM243.476 15.274C246.381 15.274 247.262 14.7083 247.476 14.5669C247.667 14.3783 248.167 13.8362 248.167 11.9034C248.167 10.3948 247.81 9.97054 247.81 9.97054C247.69 9.85268 246.929 9.40483 243.595 9.40483H233.714V15.274H243.452H243.476Z" clip-rule="evenodd"/><path fill="#0072BC" fill-rule="evenodd" d="M294.902 40L292.182 33.1091H275.841L273.145 40H261L276.568 0H290.916L307 40H294.926H294.902ZM288.924 24.4484L283.93 11.6578L279.006 24.4484H288.924Z" clip-rule="evenodd"/><path fill="#0072BC" fill-rule="evenodd" d="M337.291 40L321.131 13.0973V40H310V0H326.613L342.845 26.6431V0H354V40H337.291Z" clip-rule="evenodd"/><path fill="#0072BC" fill-rule="evenodd" d="M386.967 40L371.139 24.3068H369.62V40H358V0H369.62V14.9381H371.092L385.354 0H400.106L381.169 19.5162L402 40H386.967Z" clip-rule="evenodd"/></g><defs><clipPath id="clip0_11_54"><rect width="402" height="40" fill="#fff"/></clipPath></defs></svg>