<svg xmlns="http://www.w3.org/2000/svg" width="40" height="40" fill="none" viewBox="0 0 40 40"><path fill="#049BD7" fill-rule="evenodd" d="M35.9163 12.3481L24.0456 12.3905L11.8569 23.9645L23.7276 23.9221L35.9163 12.3481Z" clip-rule="evenodd"/><path fill="#1E417E" fill-rule="evenodd" d="M25.8051 3H13.8496V16.6301L25.8051 23.1378V3Z" clip-rule="evenodd"/><path fill="#A5CE39" fill-rule="evenodd" d="M3.56885 9.84692H15.6303L35.3442 33.2703H23.643L3.56885 9.84692Z" clip-rule="evenodd"/><path fill="#049BD7" fill-rule="evenodd" d="M8.0415 37.3826H19.8062L25.8052 21.9507L18.28 23.9221L11.7935 28.0768L8.0415 37.3826Z" clip-rule="evenodd"/><path fill="#1E417E" fill-rule="evenodd" d="M25.805 21.9507L13.9555 21.9719L2 33.3338H13.8707L22.477 25.1515L25.805 21.9507Z" clip-rule="evenodd"/><path fill="#1E417E" d="M35.8316 16.1426H36.4676C36.5948 16.1426 36.7008 16.1426 36.7855 16.1002C36.8703 16.079 36.9127 16.0366 36.9551 15.973C36.9975 15.9094 37.0187 15.8458 37.0187 15.7822C37.0187 15.6762 36.9763 15.5914 36.9127 15.5278C36.8279 15.4642 36.722 15.4219 36.5524 15.4219H35.8528V16.1638L35.8316 16.1426ZM35.5349 17.372V15.1675H36.51C36.7007 15.1675 36.8491 15.1675 36.9551 15.2311C37.0611 15.2735 37.1459 15.3371 37.2095 15.4431C37.2731 15.549 37.2943 15.655 37.2943 15.7822C37.2943 15.9306 37.2519 16.079 37.1459 16.185C37.0399 16.291 36.8915 16.3546 36.6796 16.3969C36.7643 16.4393 36.8067 16.4605 36.8491 16.5029C36.9339 16.5877 37.0187 16.6725 37.0823 16.7997L37.4639 17.3932H37.1035L36.8067 16.9269C36.7219 16.7997 36.6584 16.6937 36.5948 16.6301C36.5312 16.5665 36.4888 16.5029 36.4464 16.4817C36.404 16.4605 36.3616 16.4393 36.3192 16.4181C36.2768 16.4181 36.2344 16.4181 36.1496 16.4181H35.8105V17.3932H35.5137L35.5349 17.372Z"/><path stroke="#1E417E" stroke-linecap="round" stroke-linejoin="round" stroke-width=".11" d="M36.298 14.5527C35.3441 14.5527 34.5598 15.337 34.5598 16.2909C34.5598 17.2448 35.3441 18.0292 36.298 18.0292C37.2519 18.0292 38.0362 17.2448 38.0362 16.2909C38.0362 15.337 37.2519 14.5527 36.298 14.5527Z"/></svg>