<svg xmlns="http://www.w3.org/2000/svg" width="40" height="40" fill="none" viewBox="0 0 40 40"><g clip-path="url(#clip0_3_169)"><path fill="#E49F15" d="M0.0571725 21.7163C0.57928 26.2251 2.6415 30.4154 5.8951 33.5803C5.53628 32.6429 5.45631 31.6222 5.66395 30.6405C6.29424 27.8687 9.08687 25.9368 13.0346 25.3905V12.0153C2.80815 10.2931 -0.489125 16.7821 0.0571725 21.7163Z"/><path fill="#E49F15" d="M39.0096 17.3695C38.505 12.8808 36.4649 8.70462 33.2348 5.54712C33.6044 6.48181 33.685 7.50586 33.466 8.48691C32.8572 11.2587 30.0431 13.1906 26.0953 13.7369V27.0711C36.3218 28.7926 39.6184 22.3251 39.0096 17.3695Z"/><path fill="#E49F15" d="M0.497986 15.2072C3.16497 11.5531 7.9318 9.47476 16.7297 11.9523C32.2054 16.2991 37.1819 6.28299 28.3625 2.08328C25.711 0.750802 22.7914 0.0392045 19.8247 0.00157516C16.858 -0.0360542 13.9209 0.600957 11.2365 1.86557C8.55201 3.13019 6.1901 4.98814 4.33013 7.29965C2.47017 9.6105 1.15986 12.3144 0.497986 15.2072Z"/><path fill="#E49F15" d="M38.6313 23.8794C35.9643 27.5335 31.1974 29.6118 22.3781 27.1343C6.92316 22.7875 1.94668 32.8883 10.7661 37.0248C13.4189 38.3566 16.3399 39.0682 19.3079 39.1045C22.2759 39.1408 25.2137 38.5018 27.8988 37.2351C30.5833 35.9685 32.9452 34.1079 34.8045 31.7943C36.6638 29.4801 37.9727 26.7735 38.6313 23.8794Z"/></g><defs><clipPath id="clip0_3_169"><rect width="40" height="40" fill="#fff"/></clipPath></defs></svg>