<svg xmlns="http://www.w3.org/2000/svg" width="40" height="40" fill="none" viewBox="0 0 40 40"><g clip-path="url(#clip0_4_4020)"><path fill="#1E417C" fill-rule="evenodd" d="M19.8998 39.7996C27.2795 39.7996 33.7182 35.7831 37.151 29.8236C23.533 27.1662 17.7826 35.3823 5.63715 33.7792C9.25292 37.4995 14.3063 39.7996 19.8998 39.7996Z" clip-rule="evenodd"/><path fill="#89D2DD" fill-rule="evenodd" d="M19.8998 0C8.91309 0 0 8.91309 0 19.8998C0 21.4332 0.174254 22.9231 0.496624 24.352C1.55957 24.6569 3.88586 24.6831 8.93052 23.6288C11.1 23.1758 14.3498 22.714 18.5145 23.5504C18.227 22.714 18.0789 21.8253 18.0789 20.9018C18.0789 16.3624 21.7643 12.677 26.3036 12.677C30.843 12.677 34.5284 16.3624 34.5284 20.9018C34.5284 23.6376 33.1954 26.0597 31.1392 27.5583C33.056 27.5496 35.6785 27.7412 37.7696 28.6648C39.0677 26.0248 39.7996 23.0451 39.7996 19.9085C39.7996 8.91309 30.8865 0 19.8998 0Z" clip-rule="evenodd"/><path fill="#0F9BD7" fill-rule="evenodd" d="M19.2638 25.1622C12.0933 23.5765 7.84146 27.3491 1.78613 27.1487L1.84712 27.3142C3.89461 29.8845 6.09892 30.9736 8.53847 31.2262L9.54915 31.2872C13.4263 31.3395 17.8785 29.6057 23.1932 28.5166C21.5465 27.8457 20.1699 26.6608 19.2638 25.1622Z" clip-rule="evenodd"/></g><defs><clipPath id="clip0_4_4020"><rect width="40" height="40" fill="#fff"/></clipPath></defs></svg>