<svg xmlns="http://www.w3.org/2000/svg" width="84" height="40" fill="none" viewBox="0 0 84 40"><g clip-path="url(#clip0_4_2081)"><path fill="#005D9C" fill-rule="evenodd" d="M3.71614 19.3754V12.0077C5.91135 11.7739 7.02163 12.943 7.21935 15.094C7.34102 16.4086 6.99121 17.8114 6.06851 18.6272C5.49056 19.1363 4.70981 19.3961 3.71614 19.3754ZM3.71614 10.0073L0 10.3918V26H3.71614V21.329H5.22186C11.9697 21.329 12.4666 12.9793 8.47665 10.8075C7.2599 10.1424 5.63758 9.94498 3.72121 10.0125L3.71614 10.0073Z" clip-rule="evenodd"/><path fill="#005D9C" fill-rule="evenodd" d="M12 11L17.6616 27H19.5027H21.3384L27 11H22.2111L19.5027 20.902L16.7889 11H12Z" clip-rule="evenodd"/><path fill="#FBBE12" fill-rule="evenodd" d="M45 20.9839C45 21.8403 44.8818 22.6325 44.6401 23.3711C44.3984 24.1044 44.0493 24.7413 43.5928 25.2712C43.1362 25.8064 42.5615 26.2239 41.874 26.5343C41.1919 26.8448 40.4023 27 39.5054 27C38.6084 27 37.8081 26.8448 37.126 26.5343C36.4438 26.2239 35.8691 25.8011 35.4072 25.2712C34.9507 24.7413 34.6016 24.1044 34.3599 23.3711C34.1235 22.6378 34 21.8403 34 20.9839C34 20.1276 34.1182 19.3354 34.3599 18.6075C34.6016 17.8796 34.9507 17.2533 35.4072 16.7181C35.8638 16.1882 36.4385 15.7654 37.126 15.4603C37.8081 15.1552 38.603 15 39.5054 15C40.4077 15 41.1865 15.1552 41.874 15.4603C42.5562 15.7654 43.1309 16.1882 43.5928 16.7181C44.0493 17.2533 44.3984 17.8796 44.6401 18.6075C44.8818 19.3354 45 20.1276 45 20.9839ZM42.2607 20.9625C42.2607 20.3791 42.207 19.8492 42.0942 19.3515C41.9814 18.8591 41.8096 18.4362 41.584 18.0776C41.3584 17.7244 41.0684 17.4514 40.7192 17.2533C40.3701 17.0553 39.9673 16.959 39.5107 16.959C39.0542 16.959 38.646 17.0553 38.2915 17.2533C37.9424 17.446 37.6523 17.719 37.4268 18.0776C37.1958 18.4362 37.0293 18.8591 36.9165 19.3515C36.8037 19.8492 36.75 20.3791 36.75 20.9625C36.75 21.5459 36.8037 22.0972 36.9165 22.595C37.0293 23.0874 37.2012 23.5103 37.4268 23.8635C37.6523 24.2221 37.9424 24.5004 38.2915 24.6985C38.6406 24.9019 39.0488 24.9982 39.5107 24.9982C39.9727 24.9982 40.3701 24.9019 40.7192 24.6985C41.0684 24.5004 41.3584 24.2221 41.584 23.8635C41.8149 23.5103 41.9814 23.0874 42.0942 22.595C42.207 22.0972 42.2607 21.5566 42.2607 20.9625Z" clip-rule="evenodd"/><path fill="#FBBE12" fill-rule="evenodd" d="M57.4291 25.995V18.5634C57.4291 18.0286 57.2788 17.6188 56.9833 17.3339C56.6827 17.0491 56.2836 16.9041 55.7705 16.9041C55.1485 16.9041 54.6509 17.0791 54.2673 17.4389V25.995H51.6964V18.4384C51.6964 17.9637 51.5409 17.5888 51.2299 17.3189C50.9189 17.0441 50.4887 16.9091 49.9445 16.9091C49.4002 16.9091 48.913 16.9941 48.5346 17.164V26H46V15.7746C46.508 15.5497 47.0833 15.3698 47.7364 15.2199C48.3843 15.075 49.0685 15 49.7786 15C50.5976 15 51.2714 15.1149 51.7949 15.3348C52.3236 15.5597 52.7331 15.8096 53.0337 16.0895C53.3447 15.8246 53.7956 15.5747 54.3917 15.3448C54.9878 15.1149 55.6616 15 56.4184 15C57.5483 15 58.4295 15.3199 59.0566 15.9546C59.689 16.5943 60 17.4589 60 18.5484V25.995H57.4291Z" clip-rule="evenodd"/><path fill="#FBBE12" fill-rule="evenodd" d="M33 15.5344C32.7225 16.0357 32.4499 16.5316 32.1723 17.0329C25.8485 15.3349 26.1607 26.6278 32.0782 24.8921C32.3309 25.3611 32.5837 25.8247 32.8365 26.2936C32.1426 26.6979 31.3744 26.9351 30.517 26.989C26.5077 27.2369 24.2725 23.2588 25.2141 19.3346C26.2004 15.2325 29.5605 14.2299 32.995 15.5398L33 15.5344Z" clip-rule="evenodd"/><path fill="#FBBE12" fill-rule="evenodd" d="M25 28.0603V40H29.4487C34.4915 40 35.575 34.9015 31.5307 33.6432C35.6898 31.5958 33.1534 27.9555 29.5685 28.0004C28.0457 28.0204 26.5228 28.0404 25 28.0603ZM27.6013 29.5185C28.2953 29.5085 28.9893 29.5035 29.6834 29.4935C30.3624 29.4935 30.9865 30.2126 31.0564 31.0115C31.1762 32.3548 29.8082 32.989 28.6548 32.989H27.6013V29.5185ZM27.6013 38.4969V34.4172H28.7497C30.0079 34.4172 31.4958 35.1662 31.366 36.7442C31.2761 37.8378 30.3474 38.5319 29.3838 38.5219C28.7896 38.5169 28.1955 38.5069 27.6013 38.5019V38.4969Z" clip-rule="evenodd"/><path fill="#FBBE12" fill-rule="evenodd" d="M36.7798 28.8722C37.0642 29.3926 37.3539 29.9077 37.6383 30.4282C39.3338 29.838 42.8054 29.4141 42.2635 32.2417C39.8328 32.2953 35.9052 33.2235 36.0017 36.3301C36.0769 38.6801 38.3573 39.8015 40.4231 40C41.9469 39.9678 43.4761 39.9356 45 39.8981V32.1236C45 30.8037 44.7746 30.074 43.7337 29.1083C41.9577 27.4665 39.248 27.8796 36.7798 28.8615V28.8722ZM42.2152 38.3421C41.684 38.3528 41.1474 38.3582 40.6162 38.3689C39.7524 38.385 38.9207 37.5856 38.8402 36.3247C38.7221 34.5112 40.0582 33.6474 41.185 33.6474H42.2152V38.3421Z" clip-rule="evenodd"/><path fill="#FBBE12" fill-rule="evenodd" d="M56 32.5884V39.995H53.199V32.4384C53.199 31.9637 53.0308 31.5888 52.6888 31.3189C52.3522 31.0441 51.88 30.9091 51.2937 30.9091C50.7075 30.9091 50.1701 30.9941 49.7575 31.164V40H47V29.7746C47.5537 29.5498 48.1834 29.3698 48.889 29.2199C49.5947 29.075 50.3384 29 51.1146 29C52.0048 29 52.7376 29.1149 53.313 29.3348C54.9686 29.9896 56 30.8192 56 32.5934V32.5884Z" clip-rule="evenodd"/><path fill="#FBBE12" fill-rule="evenodd" d="M57.0052 28H59.5725V32.3622L59.7381 32.5322L62.9058 28.9064H66.4513L61.3271 34.17L67 40H63.4545L59.764 35.7768L59.5673 35.5502V40H57V28H57.0052ZM59.5725 32.3622V32.7227L59.7381 32.5322L59.5725 32.3622Z" clip-rule="evenodd"/><path fill="url(#paint0_linear_4_2081)" fill-rule="evenodd" d="M82 11.4065L71.3349 0L66.0125 5.69245L60 12C61.5952 10.5 65.9768 10.0198 67.2958 9.8795C72.3932 9.23201 78.0888 9.78777 81.9949 11.4119L82 11.4065Z" clip-rule="evenodd"/><path fill="url(#paint1_linear_4_2081)" fill-rule="evenodd" d="M68 16V10C66.4011 10.1536 60.4155 10.7481 60.0158 12.834C59.6265 14.8803 66.5413 15.8415 68 16Z" clip-rule="evenodd"/><path fill="url(#paint2_linear_4_2081)" fill-rule="evenodd" d="M61 15.5935L71.6651 27L76.9875 21.3076L83 15C81.4048 16.5 77.0232 16.9802 75.7042 17.1205C70.6068 17.7734 64.9112 17.2122 61.0051 15.5881L61 15.5935Z" clip-rule="evenodd"/><path fill="url(#paint3_linear_4_2081)" fill-rule="evenodd" d="M76 11V17C77.5989 16.8464 83.5845 16.2568 83.9842 14.166C84.3735 12.1197 77.4587 11.1585 76 11Z" clip-rule="evenodd"/></g><defs><linearGradient id="paint0_linear_4_2081" x1="74.51" x2="66.551" y1="15.75" y2="7.501" gradientUnits="userSpaceOnUse"><stop stop-color="#61B9E2"/><stop offset="1" stop-color="#0062A2"/></linearGradient><linearGradient id="paint1_linear_4_2081" x1="63.421" x2="67.019" y1="11.06" y2="15.324" gradientUnits="userSpaceOnUse"><stop stop-color="#60BBE1"/><stop offset="1" stop-color="#0062A2"/></linearGradient><linearGradient id="paint2_linear_4_2081" x1="61" x2="83" y1="21" y2="21" gradientUnits="userSpaceOnUse"><stop stop-color="#FFDC55"/><stop offset="1" stop-color="#EE8722"/></linearGradient><linearGradient id="paint3_linear_4_2081" x1="80.075" x2="78.804" y1="15.702" y2="10.954" gradientUnits="userSpaceOnUse"><stop stop-color="#FFDC55"/><stop offset="1" stop-color="#EE8722"/></linearGradient><clipPath id="clip0_4_2081"><rect width="84" height="40" fill="#fff"/></clipPath></defs></svg>