<svg xmlns="http://www.w3.org/2000/svg" width="40" height="40" fill="none" viewBox="0 0 40 40"><g clip-path="url(#clip0_11_432)"><path fill="#E20613" fill-rule="evenodd" d="M8.01092 19.8704C6.72808 17.8369 6.45513 15.1211 6.45513 13.0467C6.45513 5.97748 12.7738 0 19.3518 0H39.9864L31.9754 8.07915H19.2016C14.0703 8.07915 7.8608 13.2787 7.99727 19.8704H8.01092ZM15.8854 14.0703C16.4176 12.3644 18.0826 10.1945 19.6383 9.04811C16.6496 9.04811 13.2924 10.4674 10.7131 14.0703H15.8717H15.8854ZM20.0205 10.058C18.8468 11.0952 17.564 12.651 16.9089 14.0703H23.1047C22.4497 12.651 21.1668 11.0815 20.0205 10.058ZM10.2081 15.1211C9.44388 16.4995 9.06175 18.0689 8.92528 19.6247H14.7117C14.7117 18.0689 14.9983 16.4995 15.5032 15.1211H10.2081ZM16.5131 15.1211C15.9945 16.4995 15.7625 18.0689 15.6261 19.6247H24.3876C24.2511 18.0689 24.0055 16.4995 23.5005 15.1211H16.5268H16.5131ZM29.1778 14.0703C26.7213 10.4674 23.3504 9.04811 20.4162 9.04811C21.9311 10.1945 23.5005 12.3644 24.1556 14.0703H29.1778ZM24.5377 15.1211C25.0699 16.4995 25.3019 18.0689 25.3019 19.6247H31.0884C30.9928 18.0689 30.5971 16.4995 29.8055 15.1211H24.5241H24.5377ZM10.7404 25.9434C13.306 29.6964 16.6769 30.9792 19.6656 30.9792C18.0962 29.7919 16.4449 27.622 15.9127 25.9434H10.754H10.7404ZM20.0341 30.0785C21.1805 29.0413 22.4633 27.3763 23.1184 25.9434H16.9226C17.5776 27.3627 18.8605 29.0413 20.0341 30.0785ZM15.5305 25.0563C15.0119 23.5005 14.739 21.9584 14.739 20.5527H8.95258C9.08905 22.0812 9.47117 23.637 10.2354 25.0563H15.5305ZM23.5142 25.0563C24.0328 23.637 24.2648 22.0676 24.4012 20.5527H15.6397C15.7762 22.0812 16.0218 23.637 16.5268 25.0563H23.5005H23.5142ZM24.1692 25.9434C23.5142 27.622 21.9447 29.7919 20.4299 30.9792C23.3777 30.9792 26.7349 29.6964 29.1914 25.9434H24.1692ZM29.8192 25.0563C30.6107 23.637 31.0065 22.0676 31.102 20.5527H25.3156C25.3156 21.9584 25.0836 23.5005 24.5513 25.0563H29.8328H29.8192ZM32.0027 20.0205C32.1392 26.8577 25.957 32.0164 20.7984 32.0164H8.01092L0 40H20.6346C27.2262 40 33.5449 34.0771 33.5449 26.9942C33.5449 24.9198 33.2992 22.204 31.9754 20.1569V20.0205H32.0027Z" clip-rule="evenodd"/></g><defs><clipPath id="clip0_11_432"><rect width="40" height="40" fill="#fff"/></clipPath></defs></svg>