<svg xmlns="http://www.w3.org/2000/svg" width="240" height="80" fill="none" viewBox="0 0 240 80"><path fill="#D71921" d="M55.7368 20H30.4195C26.365 20 23.0781 23.2868 23.0781 27.3414V52.6586C23.0781 56.7132 26.365 60 30.4195 60H55.7368C59.7913 60 63.0781 56.7132 63.0781 52.6586V27.3414C63.0781 23.2868 59.7913 20 55.7368 20Z"/><path fill="#fff" d="M43.0781 21.7095C32.9785 21.7095 24.7876 29.9003 24.7876 40C24.7876 50.0996 32.9785 58.2905 43.0781 58.2905C53.1778 58.2905 61.3686 50.0996 61.3686 40C61.3686 29.9003 53.1778 21.7095 43.0781 21.7095ZM32.4226 40C34.9187 39.0876 37.1211 37.6717 38.9355 35.8574C40.7499 34.043 42.1762 31.8301 43.0781 29.3445C43.9906 31.8301 45.4064 34.043 47.2208 35.8574C49.0351 37.6717 51.248 39.0876 53.7336 40C51.248 40.9124 49.0351 42.3387 47.2208 44.1426C45.4064 45.957 43.9906 48.1699 43.0781 50.6555C42.1657 48.1699 40.7499 45.957 38.9355 44.1426C37.1211 42.3282 34.9187 40.9124 32.4226 40ZM27.1998 38.7519C27.8186 30.9491 34.0273 24.7404 41.8301 24.1216C41.1379 32.1552 35.2438 38.0493 27.1998 38.7519ZM27.1998 41.248C35.2438 41.9402 41.1379 47.8448 41.8301 55.8783C34.0273 55.2596 27.8186 49.0508 27.1998 41.248ZM58.967 41.248C58.3482 49.0508 52.1395 55.2596 44.3367 55.8783C45.0288 47.8448 50.9229 41.9507 58.967 41.248ZM58.967 38.7519C50.9229 38.0493 45.0288 32.1657 44.3367 24.1216C52.1395 24.7404 58.3482 30.9491 58.967 38.7519Z"/><path fill="#1F1A17" d="M90.0944 42.6323C89.8322 41.9821 89.4337 41.3633 88.8883 40.818C88.3954 40.3355 87.8186 39.916 87.1578 39.5594C86.4971 39.2029 85.8259 38.8882 85.1127 38.6156C84.3471 38.3114 83.5396 38.0178 82.7216 37.7451C81.9035 37.4829 81.075 37.1578 80.236 36.7907C79.3026 36.3922 78.6104 35.8783 78.1384 35.2805C77.677 34.6827 77.4358 33.9276 77.4358 33.0046C77.4358 32.1342 77.7819 31.421 78.5265 30.8127C79.2606 30.2044 80.1521 29.9003 81.2113 29.9003C82.2286 29.9003 83.0886 30.0786 83.7598 30.4247C84.452 30.7813 85.0393 31.2427 85.5218 31.8405C86.0252 32.4593 86.4237 33.141 86.7383 33.9171C87.053 34.6932 87.3466 35.5007 87.5983 36.3502L87.6403 36.5075H89.4442L89.2973 28.5893H87.5669L86.8956 29.5962C86.1825 29.2081 85.4064 28.862 84.5674 28.5684C83.6445 28.2432 82.5957 28.0754 81.4316 28.0754C80.4038 28.0754 79.4284 28.2328 78.4845 28.5579C77.5406 28.8725 76.7226 29.3235 76.0199 29.8898C75.2858 30.4876 74.7195 31.1798 74.3209 31.9454C73.9224 32.7215 73.7231 33.5605 73.7231 34.4415C73.7231 35.9727 74.1217 37.2417 74.9397 38.2065C75.7368 39.1714 76.8589 39.937 78.2853 40.5138C78.9984 40.8075 79.8479 41.1326 80.8233 41.4577C81.7986 41.7828 82.6691 42.0975 83.4242 42.3597C84.5045 42.7582 85.291 43.314 85.8154 44.0482C86.3503 44.7928 86.6125 45.5794 86.6125 46.4394C86.6125 47.0372 86.5286 47.5511 86.3503 47.9915C86.1825 48.432 85.9308 48.8201 85.5742 49.1452C85.2281 49.4703 84.7771 49.722 84.2003 49.9108C83.634 50.0891 82.9523 50.1835 82.1657 50.1835C81.1169 50.1835 80.215 50.0052 79.4389 49.6486C78.6523 49.292 77.9706 48.8096 77.3833 48.2013C76.7646 47.5511 76.2611 46.8484 75.8731 46.1038C75.4955 45.3486 75.1599 44.4991 74.8663 43.5657L74.8138 43.4084H73.01L73.2722 51.5678H75.0026L75.7053 50.4771C76.4919 50.8861 77.3938 51.2427 78.4321 51.5364C79.5543 51.851 80.6765 52.0083 81.8091 52.0083C84.2423 52.0083 86.3083 51.3476 87.9654 50.0261C89.6329 48.7047 90.4824 46.9847 90.4719 44.9396C90.4719 44.0796 90.3461 43.3245 90.0839 42.6638"/><path fill="#1F1A17" d="M173.933 49.7745C173.576 49.7745 173.325 49.7115 173.199 49.6381C172.895 49.4808 172.685 49.3025 172.549 49.0928C172.423 48.8935 172.349 48.6103 172.349 48.2328C172.349 46.8484 172.37 45.5689 172.402 44.4048C172.433 43.2301 172.454 41.8877 172.454 40.3775C172.454 39.2973 172.297 38.3953 171.972 37.6822C171.647 36.9795 171.164 36.4132 170.535 35.9936C169.916 35.5741 169.224 35.3015 168.469 35.1756C167.724 35.0602 166.864 34.9973 165.878 34.9973C165.144 34.9973 164.4 35.1022 163.634 35.3119C162.879 35.5112 162.229 35.7734 161.683 36.088C161.064 36.4551 160.551 36.8641 160.152 37.3256C159.754 37.7975 159.533 38.3219 159.533 38.8673C159.533 39.3707 159.68 39.8426 159.984 40.2516C160.299 40.6921 160.813 40.9124 161.442 40.9124C162.124 40.9124 162.69 40.755 163.11 40.3985C163.508 40.0629 163.739 39.6643 163.739 39.2134C163.739 38.8463 163.676 38.4373 163.571 38.0178C163.477 37.6822 163.435 37.4095 163.414 37.2312C163.582 37.1053 163.854 36.9585 164.232 36.8222C164.672 36.6649 165.144 36.5914 165.648 36.5914C166.403 36.5914 166.959 36.7383 167.326 36.99C167.724 37.2627 168.028 37.5773 168.249 37.9444C168.448 38.2695 168.574 38.6156 168.637 38.9826C168.7 39.3707 168.731 39.6329 168.731 39.7377V41.1746C168.165 41.4367 167.126 41.7933 165.648 42.2443C164.043 42.7267 162.984 43.0623 162.459 43.2511C162.029 43.3979 161.568 43.6077 161.085 43.8594C160.593 44.1111 160.184 44.4152 159.879 44.7509C159.491 45.1494 159.198 45.6004 158.998 46.1038C158.799 46.6072 158.694 47.1735 158.694 47.8028C158.694 49.0193 159.145 50.0366 160.026 50.7918C160.897 51.5469 162.019 51.9244 163.351 51.9244C164.599 51.9244 165.679 51.7147 166.581 51.2952C167.399 50.9176 168.165 50.3827 168.888 49.701C169.077 50.3513 169.434 50.8652 169.948 51.2218C170.535 51.6413 171.311 51.8405 172.244 51.8405C172.79 51.8405 173.272 51.7776 173.713 51.6622C174.132 51.5469 174.615 51.4 175.16 51.2218L175.307 51.1693V49.7745H175.087C174.698 49.7745 174.31 49.7745 173.933 49.764M168.773 42.926L168.679 48.0335C168.28 48.495 167.787 48.8935 167.2 49.2291C166.602 49.5752 165.92 49.7535 165.123 49.7535C164.379 49.7535 163.802 49.5647 163.33 49.1871C162.889 48.8306 162.659 48.2642 162.648 47.4147C162.648 46.775 162.805 46.2401 163.12 45.7891C163.435 45.3172 163.875 44.9187 164.431 44.5726C165.06 44.2055 165.732 43.8909 166.466 43.6392C167.137 43.4084 167.902 43.1777 168.773 42.9365"/><path fill="#1F1A17" d="M195.307 49.9003C195.118 49.8583 194.898 49.7849 194.625 49.68C194.31 49.5647 194.122 49.4073 194.017 49.2395C193.901 49.0613 193.838 48.7991 193.838 48.4635V40.325C193.838 38.7309 193.429 37.4304 192.59 36.4446C191.741 35.4378 190.44 34.9658 188.752 34.9658C187.986 34.9658 187.305 35.0497 186.686 35.228C186.078 35.3958 185.553 35.6161 185.102 35.8887C184.714 36.1195 184.316 36.4131 183.886 36.7697C183.592 37.0109 183.34 37.2416 183.11 37.4409V35.5531L182.795 35.2595L182.722 35.1965L176.691 35.5636V37.0214H176.901C177.247 37.0529 177.562 37.0948 177.855 37.1473C178.138 37.1997 178.38 37.2836 178.568 37.399C178.841 37.5668 179.04 37.787 179.198 38.0492C179.345 38.3219 179.428 38.6155 179.428 38.9302V48.5788C179.428 48.9249 179.355 49.1871 179.229 49.3759C179.103 49.5647 178.915 49.701 178.621 49.7849C178.432 49.8373 178.201 49.8793 177.929 49.9108C177.646 49.9317 177.362 49.9527 177.1 49.9737H176.901V51.4629H185.773V49.9947H185.564C185.27 49.9632 184.987 49.9317 184.704 49.8688C184.431 49.8164 184.19 49.743 183.959 49.6486C183.655 49.5332 183.456 49.3759 183.319 49.1871C183.183 48.9983 183.11 48.7466 183.11 48.4215V39.486C183.214 39.3287 183.361 39.1294 183.561 38.8882C183.77 38.626 184.053 38.3848 184.431 38.1541C184.809 37.9129 185.249 37.7031 185.752 37.5353C186.235 37.3675 186.78 37.2836 187.378 37.2836C188.154 37.2836 188.783 37.5563 189.329 38.1226C189.853 38.668 190.136 39.465 190.136 40.5348V48.5788C190.136 48.9249 190.063 49.1976 189.937 49.3864C189.811 49.5752 189.622 49.7115 189.329 49.7954C189.14 49.8478 188.888 49.8898 188.584 49.9212C188.259 49.9422 187.965 49.9632 187.693 49.9842H187.493V51.4734H196.345V50.0051H196.135C195.779 49.9737 195.506 49.9422 195.317 49.9003"/><path fill="#1F1A17" d="M216.691 49.9948C215.926 49.9528 215.359 49.8375 214.992 49.6592C214.636 49.4914 214.185 49.1138 213.692 48.4951C213.146 47.8343 212.276 46.7541 211.08 45.2544C209.948 43.8385 208.92 42.6115 208.007 41.5732C208.846 40.8705 209.507 40.2937 209.99 39.8427C210.503 39.3708 210.891 39.0352 211.164 38.8254C211.542 38.5213 212.108 38.1647 212.853 37.7767C213.587 37.3886 214.436 37.0635 215.401 36.8013L215.569 36.7593V35.3855H207.556V36.8118L207.745 36.8328C208.196 36.8852 208.679 36.9796 209.171 37.1159C209.654 37.2523 209.78 37.4201 209.769 37.5459C209.769 37.5564 209.748 37.6508 209.643 37.7871C209.539 37.934 209.444 38.0493 209.36 38.1437C208.637 38.8779 207.756 39.7169 206.707 40.6608C205.794 41.4788 204.934 42.2549 204.127 42.9785V26.838L203.823 26.5339L203.749 26.4604L197.079 26.8275V28.2538H197.278C197.593 28.2853 198.002 28.3273 198.516 28.3797C199.019 28.4321 199.366 28.537 199.565 28.6733C199.827 28.8307 200.037 29.0614 200.205 29.3865C200.372 29.7011 200.456 30.0263 200.456 30.3828V48.579C200.456 48.9251 200.383 49.1977 200.257 49.3865C200.121 49.5753 199.932 49.7116 199.649 49.7955C199.47 49.8375 199.24 49.8794 198.956 49.9109C198.673 49.9319 198.39 49.9528 198.128 49.9843L197.929 50.0053V51.4736H206.801V50.0053H206.592C206.266 49.9738 205.973 49.9424 205.732 49.8794C205.49 49.827 205.239 49.7536 204.966 49.6487C204.662 49.5438 204.463 49.3865 204.347 49.1977C204.221 48.988 204.148 48.7153 204.148 48.3692V44.751L205.343 43.7441C206.403 44.9817 207.431 46.2402 208.416 47.5407C209.455 48.9041 210.42 50.1836 211.332 51.3792L211.395 51.4631H216.922V49.9948H216.712H216.691Z"/><path fill="#1F1A17" d="M133.786 49.9423C133.524 49.9318 133.178 49.8794 132.769 49.7745C132.36 49.6801 132.035 49.5647 131.793 49.4284C131.426 49.2081 131.143 48.9669 130.944 48.7467C130.745 48.516 130.566 48.2118 130.399 47.8238L122.229 28.6104H120.572L120.519 28.7362C119.365 31.442 118.055 34.5254 116.576 37.9863C115.108 41.4473 113.755 44.5621 112.528 47.3413C112.297 47.8657 112.056 48.2747 111.825 48.5684C111.594 48.8516 111.259 49.1347 110.818 49.3969C110.556 49.5438 110.22 49.6696 109.79 49.764C109.35 49.8584 108.983 49.9213 108.71 49.9423H108.5V51.4735H118.096V49.9423H117.887C117.006 49.8899 116.209 49.7535 115.506 49.5333C114.803 49.3025 114.562 49.0299 114.573 48.7782C114.573 48.6208 114.604 48.4006 114.657 48.1279C114.709 47.8657 114.814 47.4987 114.95 47.0582C115.107 46.6072 115.296 46.1143 115.496 45.5689C115.684 45.0655 116.314 43.5343 116.649 42.7582H123.991L126.424 48.6313C126.466 48.7257 126.487 48.8201 126.518 48.946C126.539 49.0718 126.55 49.1767 126.55 49.2501C126.55 49.2501 126.55 49.3025 126.424 49.376C126.308 49.4494 126.109 49.5333 125.826 49.6067C125.26 49.7535 124.536 49.8584 123.644 49.9108H123.435V51.442H133.985V49.9108H133.776L133.786 49.9423ZM123.246 41.0278H117.404L120.299 34.1793L123.246 41.0278Z"/><path fill="#1F1A17" d="M108.679 47.4357L107.273 46.6491L107.168 46.8379C106.487 47.9601 105.784 48.7362 105.071 49.1452C104.358 49.5647 103.508 49.7745 102.501 49.7745C101.495 49.7745 100.676 49.6067 99.9738 49.2606C99.2711 48.925 98.7153 48.4635 98.2748 47.8762C97.8238 47.2574 97.4987 46.5547 97.2889 45.7367C97.0897 44.9921 96.9848 43.6287 96.9743 42.6324H108.364V41.9507C108.364 40.9858 108.238 40.0943 107.965 39.2658C107.693 38.4373 107.284 37.7136 106.728 37.0949C106.141 36.4446 105.385 35.9307 104.463 35.5637C103.529 35.1861 102.428 35.0078 101.148 35.0078C99.9004 35.0078 98.7572 35.2385 97.7504 35.721C96.7436 36.1929 95.8941 36.8222 95.2124 37.5983C94.5097 38.4058 93.9643 39.3078 93.6078 40.3041C93.2407 41.3109 93.0624 42.3282 93.0624 43.3665C93.0624 44.5201 93.2302 45.6213 93.5658 46.6596C93.9119 47.6979 94.4258 48.6208 95.118 49.3969C95.8207 50.1835 96.7016 50.8127 97.7714 51.2637C98.8411 51.7252 100.089 51.9559 101.494 51.9559C103.099 51.9559 104.536 51.5783 105.784 50.8127C107.022 50.0471 108.018 49.0298 108.752 47.7503L108.867 47.5511L108.679 47.4462V47.4357ZM98.2433 37.8395C99.0299 37.0319 99.9633 36.6439 101.138 36.6439C101.841 36.6439 102.396 36.7802 102.816 37.0319C103.256 37.2941 103.592 37.6297 103.844 38.0388C104.074 38.4268 104.242 38.9197 104.358 39.528C104.452 40.0314 104.504 40.5138 104.515 40.9648H96.9953C97.1002 39.6224 97.5302 38.5946 98.2538 37.85"/><path fill="#1F1A17" d="M155.181 43.0309C154.698 42.3387 154.122 41.7828 153.377 41.3109C152.695 40.8809 151.426 40.1782 149.633 39.9475C151.877 39.3287 153.367 37.8395 153.818 37.1368C154.279 36.4131 154.499 35.5427 154.499 34.5568C154.499 33.571 154.258 32.6376 153.786 31.8615C153.314 31.1064 152.706 30.4876 151.951 29.9947C151.227 29.5227 150.409 29.1661 149.507 28.9249C148.605 28.6837 147.682 28.5579 146.728 28.5579H135.642V30.1625H136.198C136.418 30.1939 136.786 30.2254 137.268 30.2883C137.729 30.3513 138.065 30.4247 138.222 30.4981C138.505 30.6239 138.684 30.7708 138.778 30.9386C138.883 31.1064 138.946 31.3581 138.946 31.6832V40.2516V48.3901C138.946 48.7047 138.883 48.9564 138.768 49.1242C138.663 49.2815 138.464 49.4388 138.149 49.5647C137.971 49.6381 137.604 49.7115 137.09 49.7744C136.565 49.8374 136.167 49.8793 135.905 49.9003H135.779L135.642 49.9213V51.4944H147.431C148.469 51.4944 149.486 51.379 150.472 51.1378C151.458 50.8966 152.349 50.5505 153.146 50.0891C153.964 49.6066 154.636 48.9983 155.149 48.2537C155.674 47.4986 155.936 46.6072 155.936 45.6003C155.936 44.5935 155.684 43.7545 155.181 43.0413M143.225 30.3932C143.571 30.3827 143.98 30.3722 144.462 30.3617C145.008 30.3408 145.459 30.3303 145.815 30.3303C147.347 30.3303 148.448 30.6973 149.119 31.3895C149.811 32.0922 150.157 33.0466 150.157 34.3051C150.157 35.0602 150.084 35.7105 149.916 36.2558C149.759 36.7907 149.486 37.2836 149.077 37.7451C148.689 38.1855 148.186 38.5107 147.546 38.7414C146.906 38.9721 146.13 39.0875 145.218 39.0875H143.214V30.4037L143.225 30.3932ZM150.157 48.4215C149.297 49.2186 148.049 49.6276 146.382 49.6276C145.364 49.6276 144.588 49.4703 144.033 49.1871C143.487 48.8935 143.246 48.5054 143.235 47.9391V40.9123C143.477 40.9123 143.802 40.8914 144.221 40.8809C144.714 40.8599 145.322 40.8599 146.057 40.8599C147.819 40.8599 149.15 41.2479 150.073 41.9821C151.007 42.7372 151.458 43.6811 151.458 44.8452C151.458 46.4289 151.017 47.614 150.157 48.411"/></svg>