<svg xmlns="http://www.w3.org/2000/svg" width="40" height="40" fill="none" viewBox="0 0 40 40"><g clip-path="url(#clip0_4_4657)"><path fill="#D71921" d="M32.6586 0H7.34137C3.28685 0 0 3.28684 0 7.34137V32.6586C0 36.7132 3.28684 40 7.34137 40H32.6586C36.7132 40 40 36.7132 40 32.6586V7.34137C40 3.28685 36.7132 0 32.6586 0Z"/><path fill="#fff" d="M20 1.70947C9.90035 1.70947 1.70947 9.90035 1.70947 20C1.70947 30.0996 9.90035 38.2905 20 38.2905C30.0996 38.2905 38.2905 30.0996 38.2905 20C38.2905 9.90035 30.0996 1.70947 20 1.70947ZM9.3445 20C11.8406 19.0876 14.043 17.6717 15.8573 15.8574C17.6717 14.043 19.098 11.8301 20 9.3445C20.9124 11.8301 22.3282 14.043 24.1426 15.8574C25.957 17.6717 28.1699 19.0876 30.6555 20C28.1699 20.9124 25.957 22.3387 24.1426 24.1426C22.3282 25.957 20.9124 28.1699 20 30.6555C19.0876 28.1699 17.6717 25.957 15.8573 24.1426C14.043 22.3282 11.8406 20.9124 9.3445 20ZM4.12164 18.7519C4.74041 10.9491 10.9491 4.74041 18.7519 4.12164C18.0598 12.1552 12.1657 18.0493 4.12164 18.7519ZM4.12164 21.248C12.1657 21.9402 18.0598 27.8448 18.7519 35.8783C10.9491 35.2596 4.74041 29.0508 4.12164 21.248ZM35.8888 21.248C35.27 29.0508 29.0613 35.2596 21.2585 35.8783C21.9507 27.8448 27.8448 21.9507 35.8888 21.248ZM35.8888 18.7519C27.8448 18.0493 21.9507 12.1657 21.2585 4.12164C29.0613 4.74041 35.27 10.9491 35.8888 18.7519Z"/></g><defs><clipPath id="clip0_4_4657"><rect width="40" height="40" fill="#fff"/></clipPath></defs></svg>