<svg xmlns="http://www.w3.org/2000/svg" width="40" height="40" fill="none" viewBox="0 0 40 40"><g clip-path="url(#clip0_4_5616)"><mask id="mask0_4_5616" width="40" height="40" x="0" y="0" maskUnits="userSpaceOnUse" style="mask-type:luminance"><path fill="#fff" d="M19.336 0.0248216C8.43932 0.508843 -2.03252e-05 9.75489 0.496412 20.6516C0.992844 31.5482 10.2265 39.9876 21.1232 39.4912C32.0198 39.0071 40.4716 29.7611 39.9752 18.8644C39.4911 8.26559 30.7539 0 20.242 0C19.9441 0 19.6339 0 19.336 0.0248216Z"/></mask><g mask="url(#mask0_4_5616)"><path fill="url(#paint0_radial_4_5616)" d="M40.4716 0H0V40H40.4716V0Z"/></g><mask id="mask1_4_5616" width="30" height="36" x="4" y="2" maskUnits="userSpaceOnUse" style="mask-type:luminance"><path fill="#fff" d="M4.71609 27.1796C5.33663 29.3639 6.63977 31.8461 8.72478 33.6457C10.996 35.6066 13.6022 36.2892 15.7865 36.5126C17.524 36.6863 19.0506 36.4133 19.0133 35.7927C18.9637 34.924 16.345 35.1722 14.1483 33.1244C15.6128 32.0819 16.2209 31.1635 16.6925 30.5057C17.6109 29.2026 17.0648 29.0288 16.0968 29.1033C13.5278 29.3267 12.3487 29.7114 11.8399 29.7114C11.2814 29.7114 11.6289 27.4403 11.4924 25.5414C11.3683 23.9901 10.6857 24.1638 10.0527 24.6851C8.973 25.6283 8.21594 27.2913 8.00495 27.1176C7.52093 26.7577 7.01209 26.1495 6.37914 25.0698C5.77101 24.0273 5.20011 22.5876 4.87743 22.5256C4.8402 22.5256 4.80297 22.5256 4.76574 22.5256C3.83493 22.5256 4.10796 25.0201 4.7285 27.1672M21.2473 4.1576C20.8998 4.97671 23.0593 6.29226 22.1657 8.53861C21.4955 10.2141 20.9122 11.2193 20.6516 13.3788C20.515 14.4089 20.5523 15.2156 20.726 15.861C20.726 15.861 21.1356 17.673 23.1461 18.0949C23.5929 18.1446 27.3658 18.2811 25.8517 14.3965C25.0946 12.6962 24.4989 10.8718 25.4918 10.4747C26.497 10.0776 27.4775 10.785 27.8746 12.175C28.6565 14.9674 30.6298 15.5507 32.5535 14.1359C34.2538 12.8948 34.2042 10.4747 31.6972 9.81692C30.7788 9.56871 30.3444 9.54389 29.4508 8.55102C28.7062 7.4961 29.9721 7.19825 30.9898 7.69468C32.3673 8.36486 33.5091 7.28512 32.7645 6.40395C31.9454 5.44832 30.1086 4.92707 28.5696 4.71609C27.4154 4.56716 26.5219 4.64162 25.0326 4.55475C23.7791 4.48028 22.6373 3.72322 21.905 3.72322C21.6196 3.72322 21.3962 3.83492 21.2597 4.14519M8.25317 9.9038C8.25317 9.9038 7.63263 15.1163 15.3894 21.8058C15.3894 21.8058 23.5185 28.8303 24.3996 29.6494C26.4598 31.6103 28.1725 35.4328 22.327 36.5994C22.327 36.5994 21.6692 36.7111 21.6941 37.1579C21.7065 37.5799 22.1409 37.704 22.3767 37.6792C24.9953 37.5426 26.9935 36.9469 28.8055 35.6934C31.1635 34.0552 33.2857 29.3391 27.0928 24.1886C27.0928 24.1886 25.1691 22.4387 21.6568 19.2119C19.82 17.4744 18.914 16.6677 18.914 16.6677C18.2811 16.0844 17.673 15.5011 17.1021 14.955C12.5349 10.5864 11.5296 6.67699 14.955 4.36858C15.8734 3.74804 17.0772 3.61153 18.4424 3.53706C18.4424 3.53706 19.1002 3.49983 19.1871 3.05304C19.274 2.63107 19.0009 2.33321 18.5045 2.29598C18.1322 2.25875 17.7474 2.24634 17.3503 2.24634C13.3044 2.24634 8.60067 4.08314 8.25317 9.94103"/></mask><g mask="url(#mask1_4_5616)"><path fill="url(#paint1_radial_4_5616)" d="M34.2662 2.22144H3.82251V37.7039H34.2662V2.22144Z"/></g></g><defs><radialGradient id="paint0_radial_4_5616" cx="0" cy="0" r="1" gradientTransform="translate(23.0384 16.0859) scale(41.4605 41.4605)" gradientUnits="userSpaceOnUse"><stop stop-color="#00C0F3"/><stop offset=".06" stop-color="#00B2E9"/><stop offset=".16" stop-color="#0097D6"/><stop offset=".17" stop-color="#0092D3"/><stop offset=".23" stop-color="#007FC4"/><stop offset=".3" stop-color="#0070BA"/><stop offset=".38" stop-color="#0068B4"/><stop offset=".52" stop-color="#0066B3"/><stop offset="1" stop-color="#0066B3"/></radialGradient><radialGradient id="paint1_radial_4_5616" cx="0" cy="0" r="1" gradientTransform="translate(21.5382 12.1447) scale(18.4557 18.4557)" gradientUnits="userSpaceOnUse"><stop stop-color="#fff"/><stop offset=".22" stop-color="#F2E4CD"/><stop offset=".6" stop-color="#DFBA80"/><stop offset=".87" stop-color="#D3A04F"/><stop offset="1" stop-color="#CF963D"/></radialGradient><clipPath id="clip0_4_5616"><rect width="40" height="40" fill="#fff"/></clipPath></defs></svg>