<svg xmlns="http://www.w3.org/2000/svg" width="240" height="80" fill="none" viewBox="0 0 240 80"><path fill="#77787B" d="M57.5405 44.3512C57.8481 44.5944 58.1845 44.828 58.569 45.0226C58.9439 45.2269 59.3379 45.4021 59.7416 45.5383C60.1453 45.6745 60.549 45.7816 60.9335 45.8497C61.3276 45.9178 61.6929 45.9567 62.0293 45.9567C62.8559 45.9567 63.5095 45.7816 63.9709 45.4313C64.4418 45.081 64.6725 44.5555 64.6725 43.8549C64.6725 43.3295 64.5476 42.8721 64.2881 42.5024C64.0381 42.1326 63.5672 41.7628 62.8943 41.4028C62.1254 41.0136 61.4141 40.6633 60.7701 40.3422C60.1165 40.0211 59.5013 39.6124 58.915 39.0967C58.3768 38.6296 57.9442 38.0944 57.5982 37.4911C57.2618 36.8878 57.0888 36.158 57.0888 35.3017C57.0888 34.6984 57.2041 34.1438 57.4444 33.6475C57.6847 33.1513 58.0211 32.7231 58.4729 32.3631C58.9246 32.0031 59.4725 31.7209 60.1165 31.5263C60.7701 31.3219 61.5006 31.2246 62.3176 31.2246C63.2211 31.2246 64.0574 31.3025 64.8167 31.4484C65.576 31.5944 66.3066 31.8279 67.0178 32.1296V34.6692C67.0178 34.8541 66.9505 34.9709 66.8064 35.0293C66.6718 35.0877 66.5372 35.0487 66.3931 34.9222C65.8067 34.426 65.2204 34.0659 64.6341 33.8324C64.0478 33.6086 63.4038 33.5016 62.7117 33.5016C62.0197 33.5016 61.4333 33.6573 61.0392 33.9784C60.6452 34.2995 60.4529 34.7374 60.4529 35.292C60.4529 35.7007 60.5202 36.0413 60.674 36.3332C60.8278 36.6251 61.02 36.8684 61.2892 37.0922C61.789 37.5106 62.3465 37.8803 62.9424 38.2014C63.5383 38.5226 64.115 38.8145 64.6725 39.0772C65.1916 39.3399 65.6626 39.6124 66.0855 39.9043C66.5084 40.1865 66.8544 40.5173 67.1428 40.8774C67.4311 41.2471 67.6426 41.6655 67.7964 42.1521C67.9502 42.6289 68.0271 43.1835 68.0271 43.8063C68.0271 44.5944 67.8733 45.2756 67.5657 45.8302C67.2581 46.3849 66.8352 46.8422 66.2969 47.2022C65.7587 47.5623 65.1243 47.8153 64.3938 47.9807C63.6633 48.1461 62.8847 48.224 62.0581 48.224C61.4429 48.224 60.8086 48.1558 60.155 48.0293C59.5013 47.8931 58.915 47.718 58.396 47.5039C57.8769 47.2898 57.4636 47.0465 57.1753 46.7936C56.8869 46.5406 56.7812 46.2778 56.8773 46.0054L57.5213 44.3317L57.5405 44.3512Z"/><path fill="#77787B" d="M82.8486 31.6917V47.7763H79.5325V40.673H73.6212V47.7763H70.3051V33.774C70.3051 33.414 70.2666 33.1318 70.1993 32.9274C70.1321 32.7231 69.9975 32.4993 69.7956 32.2852C69.6707 32.1295 69.6419 31.9933 69.6899 31.8765C69.7476 31.7598 69.8533 31.7014 70.0071 31.7014H73.6212V38.2014H79.5325V31.7014H82.8486V31.6917Z"/><path fill="#77787B" d="M86.7318 47.7764V33.774C86.7318 33.414 86.6933 33.1318 86.626 32.9275C86.5588 32.7134 86.4242 32.4993 86.2223 32.2853C86.0974 32.1296 86.0685 31.9933 86.1166 31.8766C86.1647 31.7598 86.2704 31.7014 86.4242 31.7014H90.0383V47.7861H86.7222L86.7318 47.7764Z"/><path fill="#77787B" d="M93.7773 47.7764V33.774C93.7773 33.414 93.7388 33.1318 93.6716 32.9275C93.6043 32.7134 93.4697 32.4993 93.2679 32.2853C93.1429 32.1296 93.1141 31.9933 93.1621 31.8766C93.2198 31.7598 93.3159 31.7014 93.4697 31.7014H96.9876L101.822 40.206L103.437 43.2127L103.235 39.7389V31.7014H106.551V47.7861H103.283L98.3814 39.048L96.9108 36.1775L97.0934 39.7389V47.7764H93.7773Z"/><path fill="#77787B" d="M122.325 31.6917V47.7763H119.008V40.673H113.088V47.7763H109.771V33.774C109.771 33.414 109.733 33.1318 109.666 32.9274C109.598 32.7231 109.464 32.4993 109.262 32.2852C109.137 32.1295 109.108 31.9933 109.156 31.8765C109.214 31.7598 109.32 31.7014 109.473 31.7014H113.088V38.2014H119.008V31.7014H122.325V31.6917Z"/><path fill="#77787B" d="M129.341 34.3092C129.514 33.8616 129.582 33.4918 129.562 33.1999C129.543 32.9177 129.466 32.655 129.341 32.4215C129.082 31.9447 129.207 31.7014 129.735 31.7014H132.773L138.895 47.7861H135.56L133.897 43.1932H129.062L127.428 47.7861H124.141L129.341 34.3189V34.3092ZM129.918 40.7411H133.023L131.456 36.3332L129.908 40.7411H129.918Z"/><path fill="#77787B" d="M140.731 47.7764V33.774C140.731 33.414 140.702 33.1318 140.626 32.9275C140.558 32.7134 140.424 32.4993 140.222 32.2853C140.097 32.1296 140.068 31.9933 140.116 31.8766C140.164 31.7598 140.27 31.7014 140.424 31.7014H143.951L148.786 40.206L150.401 43.2127L150.199 39.7389V31.7014H153.515V47.7861H150.247L145.345 39.048L143.874 36.1775L144.057 39.7389V47.7764H140.741H140.731Z"/><path fill="#77787B" d="M162.877 31.6917H168.471C169.298 31.6917 170.057 31.789 170.73 31.9738C171.403 32.1587 171.979 32.4312 172.46 32.7815C172.931 33.1318 173.296 33.5502 173.556 34.0562C173.815 34.5524 173.94 35.1071 173.94 35.7298C173.94 37.3159 173.344 38.4641 172.143 39.1745C172.97 39.4859 173.623 39.9627 174.084 40.6049C174.555 41.2471 174.786 42.1131 174.786 43.1835C174.786 43.9522 174.642 44.6139 174.344 45.188C174.056 45.7621 173.642 46.2389 173.114 46.6184C172.585 46.9979 171.951 47.2898 171.201 47.4844C170.461 47.679 169.634 47.7763 168.731 47.7763H163.185V33.7643C163.185 33.4042 163.146 33.122 163.079 32.9177C163.012 32.7134 162.877 32.4896 162.675 32.2755C162.55 32.1198 162.521 31.9836 162.569 31.8668C162.618 31.75 162.723 31.6917 162.877 31.6917ZM166.491 38.2403H168.24C169.019 38.2403 169.615 38.0846 170.009 37.7635C170.403 37.4424 170.605 36.8975 170.605 36.1191C170.605 35.3406 170.403 34.7665 169.999 34.4551C169.596 34.134 168.99 33.9783 168.192 33.9783H166.491V38.2403ZM171.374 42.9986C171.374 42.1326 171.134 41.5001 170.672 41.1109C170.201 40.7216 169.49 40.527 168.519 40.527H166.491V45.4896H168.538C169.5 45.4896 170.221 45.295 170.682 44.8961C171.143 44.5068 171.374 43.8646 171.374 42.9986Z"/><path fill="#77787B" d="M180.678 34.3092C180.842 33.8616 180.918 33.4918 180.899 33.1999C180.87 32.9177 180.803 32.655 180.678 32.4215C180.419 31.9447 180.544 31.7014 181.072 31.7014H184.11L190.232 47.7861H186.897L185.244 43.1932H180.409L178.775 47.7861H175.478L180.678 34.3189V34.3092ZM181.255 40.7411H184.369L182.802 36.3332L181.255 40.7411Z"/><path fill="#77787B" d="M192.068 47.7764V33.774C192.068 33.414 192.03 33.1318 191.963 32.9275C191.895 32.7134 191.761 32.4993 191.559 32.2853C191.434 32.1296 191.405 31.9933 191.453 31.8766C191.511 31.7598 191.617 31.7014 191.761 31.7014H195.288L200.123 40.206L201.738 43.2127L201.526 39.7389V31.7014H204.842V47.7861H201.574L196.663 39.048L195.192 36.1775L195.375 39.7389V47.7764H192.059H192.068Z"/><path fill="#77787B" d="M208.072 47.7764V33.774C208.072 33.414 208.034 33.1318 207.966 32.9275C207.899 32.7134 207.764 32.4993 207.563 32.2853C207.438 32.1296 207.409 31.9933 207.457 31.8766C207.515 31.7598 207.62 31.7014 207.764 31.7014H211.379V38.3863L216.79 31.7209H220.539L214.897 38.7366L221 47.7764H217.453L212.945 41.1109C212.743 40.8287 212.561 40.6244 212.397 40.5076C212.224 40.3811 212.013 40.3227 211.753 40.3227H211.388V47.7861H208.072V47.7764Z"/><mask id="mask0_13_12160" width="31" height="32" x="19" y="24" maskUnits="userSpaceOnUse" style="mask-type:luminance"><path fill="#fff" d="M33.607 24.53C25.1677 24.9095 18.6317 32.1587 19.0161 40.7022C19.4006 49.2457 26.5518 55.8625 34.9911 55.4732C43.4303 55.0937 49.976 47.8445 49.5915 39.301C49.2166 30.9911 42.4499 24.5105 34.3086 24.5105C34.0779 24.5105 33.8376 24.5105 33.607 24.53Z"/></mask><g mask="url(#mask0_13_12160)"><path fill="url(#paint0_radial_13_12160)" d="M49.976 24.5105H18.6317V55.8722H49.976V24.5105Z"/></g><mask id="mask1_13_12160" width="24" height="29" x="21" y="26" maskUnits="userSpaceOnUse" style="mask-type:luminance"><path fill="#fff" d="M22.2842 45.8205C22.7648 47.5331 23.774 49.4792 25.3888 50.8901C27.1478 52.4276 29.1663 52.9627 30.858 53.1379C32.2036 53.2741 33.3859 53.06 33.357 52.5735C33.3186 51.8924 31.2905 52.087 29.5892 50.4814C30.7234 49.6641 31.1944 48.944 31.5596 48.4283C32.2709 47.4066 31.848 47.2703 31.0983 47.3287C29.1086 47.5039 28.1955 47.8055 27.8014 47.8055C27.3689 47.8055 27.638 46.0248 27.5323 44.536C27.4361 43.3197 26.9075 43.4559 26.4173 43.8646C25.581 44.6042 24.9947 45.9081 24.8313 45.7718C24.4565 45.4896 24.0624 45.0128 23.5722 44.1663C23.1012 43.3489 22.659 42.2202 22.4091 42.1715C22.3803 42.1715 22.3515 42.1715 22.3226 42.1715C21.6017 42.1715 21.8132 44.1274 22.2938 45.8108M35.0872 27.7702C34.8181 28.4125 36.4905 29.4439 35.7985 31.2051C35.2794 32.5188 34.8277 33.3069 34.6258 35.0001C34.5201 35.8077 34.5489 36.4402 34.6835 36.9462C34.6835 36.9462 35.0007 38.3669 36.5578 38.6977C36.9038 38.7366 39.8258 38.8437 38.6532 35.798C38.0669 34.4649 37.6055 33.0345 38.3744 32.7231C39.153 32.4117 39.9123 32.9664 40.2199 34.0562C40.8255 36.2456 42.3538 36.7029 43.8436 35.5936C45.1604 34.6206 45.122 32.7231 43.1804 32.2074C42.4691 32.0128 42.1327 31.9933 41.4406 31.2149C40.8639 30.3878 41.8443 30.1542 42.6325 30.5435C43.6994 31.0689 44.5837 30.2223 44.007 29.5315C43.3726 28.7822 41.9501 28.3735 40.7582 28.2081C39.8643 28.0913 39.1722 28.1497 38.0188 28.0816C37.048 28.0232 36.1637 27.4297 35.5966 27.4297C35.3755 27.4297 35.2025 27.5172 35.0968 27.7605M25.0236 32.2755C25.0236 32.2755 24.543 36.3624 30.5504 41.6071C30.5504 41.6071 36.8462 47.1147 37.5286 47.7569C39.1242 49.2943 40.4506 52.2913 35.9234 53.206C35.9234 53.206 35.414 53.2936 35.4332 53.6439C35.4428 53.9747 35.7792 54.072 35.9619 54.0526C37.99 53.9455 39.5375 53.4785 40.9408 52.4957C42.7671 51.2112 44.4107 47.5136 39.6144 43.4754C39.6144 43.4754 38.1245 42.1034 35.4044 39.5734C33.9818 38.2112 33.2802 37.5787 33.2802 37.5787C32.7899 37.1213 32.319 36.664 31.8768 36.2359C28.3397 32.8107 27.5611 29.7455 30.214 27.9357C30.9252 27.4491 31.8576 27.3421 32.9149 27.2837C32.9149 27.2837 33.4243 27.2545 33.4916 26.9042C33.5589 26.5734 33.3474 26.3398 32.963 26.3107C32.6746 26.2815 32.3766 26.2717 32.0691 26.2717C28.9356 26.2717 25.2927 27.7119 25.0236 32.3047"/></mask><g mask="url(#mask1_13_12160)"><path fill="url(#paint1_radial_13_12160)" d="M45.17 26.2522H21.5921V54.072H45.17V26.2522Z"/></g><defs><radialGradient id="paint0_radial_13_12160" cx="0" cy="0" r="1" gradientTransform="translate(36.4744 37.1225) scale(32.1102 32.5068)" gradientUnits="userSpaceOnUse"><stop stop-color="#00C0F3"/><stop offset=".06" stop-color="#00B2E9"/><stop offset=".16" stop-color="#0097D6"/><stop offset=".17" stop-color="#0092D3"/><stop offset=".23" stop-color="#007FC4"/><stop offset=".3" stop-color="#0070BA"/><stop offset=".38" stop-color="#0068B4"/><stop offset=".52" stop-color="#0066B3"/><stop offset="1" stop-color="#0066B3"/></radialGradient><radialGradient id="paint1_radial_13_12160" cx="0" cy="0" r="1" gradientTransform="translate(35.3125 34.0325) scale(14.2935 14.4701)" gradientUnits="userSpaceOnUse"><stop stop-color="#fff"/><stop offset=".22" stop-color="#F2E4CD"/><stop offset=".6" stop-color="#DFBA80"/><stop offset=".87" stop-color="#D3A04F"/><stop offset="1" stop-color="#CF963D"/></radialGradient></defs></svg>