<svg xmlns="http://www.w3.org/2000/svg" width="130" height="40" fill="none" viewBox="0 0 130 40"><g clip-path="url(#clip0_5_6969)"><path fill="url(#paint0_linear_5_6969)" d="M28.7641 0.00341797C28.7641 0.0034696 28.7668 0.00393552 28.7672 0.00393552H28.7829C28.7749 0.00341797 28.7716 0.00381932 28.7641 0.00341797Z"/><path fill="url(#paint1_linear_5_6969)" d="M28.6242 0.000497381C28.6571 -0.00050787 28.7077 -6.37234e-06 28.7645 0.00308565C28.706 -0.000206447 28.6578 -0.00048292 28.6242 0.000497381Z"/><path fill="#5E2E86" fill-rule="evenodd" d="M57.5187 3.54704C54.4041 3.5885 51.4179 4.74575 51.4179 4.74575V24.3014H55.2558V16.6549C56.2189 16.979 57.7388 17.119 60.1018 16.5616C65.3913 15.3138 65.0576 10.2091 65.0576 10.2091C65.0576 10.2091 65.4194 6.49408 61.5776 4.39557C60.377 3.73978 58.9345 3.5282 57.5187 3.54704ZM74.2514 3.61164C72.2595 3.62695 70.2279 4.05772 68.7666 4.55246V23.2406V23.2411C68.7725 23.2437 74.0025 25.5484 78.4788 23.6256C82.9576 21.7018 81.6085 17.1947 81.6085 17.1947C81.6085 17.1947 80.8801 14.4736 77.8044 13.5392C77.8044 13.5392 82.0939 12.1651 80.8258 7.30055C79.9881 4.4538 77.1616 3.58927 74.2504 3.61164L74.2514 3.61164ZM110.722 3.61777V24.2849H112.961V16.4964L119.922 24.2849H122.728L115.524 16.4523L122.755 8.78484H119.949L112.961 16.1442V3.6178L110.722 3.61777ZM34.5172 3.63008V7.0975H39.1946V24.3034H43.0365V7.09752H47.6852V3.63009L34.5172 3.63008ZM74.7043 5.50555C75.3481 5.52102 75.9774 5.62428 76.5103 5.87163C78.6418 6.86102 78.6414 8.39978 78.6414 8.39978C78.6414 8.39978 79.4242 12.3575 75.2152 12.6598C72.9451 12.8229 71.7227 12.7853 71.0603 12.7168V6.0885C71.7134 5.88555 73.232 5.47019 74.7043 5.50555ZM57.6244 6.69298C61.7168 6.7497 61.0762 10.89 61.0762 10.89C61.0762 10.89 60.8258 13.4703 57.6521 13.6689C56.5429 13.7382 55.7826 13.6678 55.2558 13.5484V7.01088C55.8904 6.80902 56.666 6.6797 57.6244 6.69298ZM102.6 8.67459C102.6 8.67459 99.7401 8.56456 97.177 9.91124V24.2849H99.4973V11.4504C99.4973 11.4504 101.953 10.0765 104.165 10.9284C106.378 11.7804 106.215 13.8965 106.242 14.0339V24.2849H108.536V13.4017C108.536 13.4017 108.86 8.72956 102.6 8.67459ZM89.7846 8.70228C89.7846 8.70228 86.4659 8.62015 84.7931 9.85689L85.4403 11.4781C85.4403 11.4781 88.5973 9.82902 91.2684 10.8459C91.2684 10.8459 93.0491 11.3953 92.9681 13.7314V14.5835C92.9681 14.5835 85.5277 14.2266 84.2263 17.9915C82.8773 21.8941 86.2769 23.6805 86.2769 23.6805C86.2769 23.6805 87.147 24.3076 90.1897 24.3167C91.6418 24.3211 93.3605 24.0793 95.0997 23.2682V13.7591C95.0997 13.7591 95.3965 8.70228 89.7846 8.70228ZM73.2558 14.5379C75.2859 14.524 77.7915 14.8224 78.6414 16.2601C79.9949 18.5497 79.0194 20.19 79.0194 20.19C79.0194 20.19 77.8323 22.6913 74.0551 22.3889C72.6528 22.2767 71.7035 22.1302 71.0603 21.9906V14.6681C71.5871 14.6108 72.3476 14.5441 73.2558 14.5379ZM92.9681 16.2324V21.949C92.9681 21.949 88.6781 23.4608 86.8164 21.482C84.9548 19.5032 87.0595 17.5244 87.0595 17.5244C87.0595 17.5244 88.2465 16.2049 92.9681 16.2324Z" clip-rule="evenodd"/><path fill="#5E2E86" d="M109.574 28.98C109.428 28.98 109.281 28.9967 109.135 29.0302C108.989 29.0638 108.872 29.0988 108.786 29.1353C108.753 29.1475 108.72 29.1659 108.687 29.1902C108.654 29.2146 108.633 29.2481 108.624 29.2907L108.584 29.4778C108.554 29.627 108.63 29.6726 108.812 29.6147C108.959 29.569 109.08 29.5371 109.175 29.5188C109.274 29.4975 109.386 29.487 109.512 29.487C109.638 29.487 109.694 29.5462 109.682 29.665L109.673 29.7106C109.658 29.7805 109.631 29.845 109.593 29.9029C109.557 29.9576 109.485 30.0351 109.377 30.1356L109.158 30.332C109.074 30.4081 109.005 30.4782 108.951 30.5422C108.897 30.6061 108.856 30.6716 108.826 30.7386C108.796 30.8025 108.772 30.88 108.754 30.9713L108.714 31.1631C108.705 31.2027 108.715 31.2425 108.745 31.282C108.775 31.3185 108.822 31.3364 108.884 31.3364H109.05C109.113 31.3364 109.167 31.3186 109.211 31.282C109.259 31.2455 109.288 31.2057 109.297 31.1631L109.337 30.9713C109.346 30.9256 109.359 30.8874 109.377 30.857C109.395 30.8236 109.413 30.7978 109.431 30.7796C109.449 30.7582 109.501 30.7065 109.588 30.6242L109.799 30.4279C109.921 30.3122 110.017 30.2148 110.086 30.1356C110.158 30.0564 110.209 29.9832 110.242 29.9162C110.278 29.8492 110.304 29.7811 110.319 29.7111L110.328 29.6655C110.379 29.428 110.332 29.2542 110.189 29.1446C110.048 29.035 109.843 28.98 109.574 28.98ZM56.8286 30.8755C56.7629 30.8755 56.7254 30.8964 56.7164 30.939C56.7104 30.9634 56.7177 30.988 56.7385 31.0123L57.5278 32.1905C57.5517 32.2301 57.5697 32.2589 57.5816 32.2772C57.5966 32.2954 57.613 32.3096 57.6309 32.3187C57.6519 32.3276 57.677 32.3321 57.7069 32.3321H58.2047C58.2585 32.3321 58.2899 32.3111 58.2988 32.2685C58.3078 32.2289 58.3032 32.1965 58.2853 32.1721L57.6355 31.0124C57.5787 30.921 57.5113 30.8755 57.4336 30.8755L56.8286 30.8755ZM72.9986 30.8755C72.9477 30.8755 72.9092 30.8824 72.8823 30.898C72.8554 30.9132 72.8117 30.9514 72.7519 31.0123L71.6089 32.1726C71.579 32.197 71.5594 32.229 71.5505 32.2685C71.5415 32.311 71.5641 32.332 71.6179 32.332H72.1152C72.16 32.332 72.1945 32.3251 72.2184 32.3095C72.2453 32.2912 72.2916 32.2514 72.3573 32.1905L73.6443 31.0123C73.6712 30.9879 73.6877 30.9639 73.6936 30.9395C73.7026 30.897 73.6728 30.8755 73.6041 30.8755H72.9986ZM91.8069 30.8755C91.7561 30.8755 91.717 30.8824 91.6901 30.898C91.6632 30.9132 91.6185 30.9514 91.5558 31.0123L90.4303 32.1721C90.4034 32.1965 90.3854 32.2289 90.3765 32.2685C90.3675 32.311 90.3901 32.332 90.4439 32.332H90.9236C90.9654 32.332 90.9999 32.3231 91.0268 32.3049C91.0566 32.2866 91.1029 32.2484 91.1657 32.1905L92.116 31.2861L92.6812 32.1905C92.72 32.2515 92.7483 32.2912 92.7663 32.3095C92.7842 32.3247 92.8155 32.332 92.8604 32.332H93.3355C93.3923 32.332 93.4252 32.3111 93.4342 32.2684C93.4431 32.2289 93.4375 32.1969 93.4166 32.1726L92.7844 31.0123C92.7306 30.9209 92.6648 30.8754 92.5871 30.8754L91.8069 30.8755ZM107.454 31.0123C107.403 31.0123 107.364 31.0202 107.337 31.0354C107.31 31.0506 107.265 31.0883 107.203 31.1492L106.077 32.3095C106.05 32.3339 106.033 32.3659 106.024 32.4054C106.015 32.4479 106.037 32.4689 106.091 32.4689H106.571C106.612 32.4689 106.647 32.46 106.674 32.4418C106.701 32.4235 106.747 32.3853 106.813 32.3274L107.763 31.4235L108.328 32.3274C108.367 32.3884 108.395 32.4281 108.413 32.4464C108.431 32.4616 108.463 32.4689 108.507 32.4689H108.982C109.039 32.4689 109.072 32.448 109.081 32.4054C109.09 32.3658 109.084 32.3338 109.064 32.3095L108.431 31.1492C108.378 31.0579 108.312 31.0123 108.234 31.0123L107.454 31.0123ZM95.2129 31.0718C95.1591 31.0718 95.1113 31.0902 95.0695 31.1267C95.0276 31.1633 95.0009 31.2072 94.989 31.259L94.8319 32.0034C94.823 32.0552 94.8322 32.0992 94.8591 32.1357C94.889 32.1722 94.9291 32.1905 94.9799 32.1905H95.446C95.4968 32.1905 95.5436 32.1738 95.5854 32.1403C95.6302 32.1037 95.657 32.0581 95.6659 32.0034L95.823 31.259C95.8349 31.2011 95.8273 31.1555 95.8003 31.1221C95.7764 31.0886 95.7363 31.0718 95.6795 31.0718H95.2129ZM104.176 31.0718C104.122 31.0718 104.074 31.0902 104.032 31.1267C103.99 31.1633 103.964 31.2072 103.952 31.259L103.795 32.0034C103.786 32.0552 103.795 32.0992 103.822 32.1357C103.852 32.1722 103.892 32.1905 103.943 32.1905H104.409C104.46 32.1905 104.506 32.1738 104.548 32.1403C104.593 32.1037 104.62 32.0581 104.629 32.0034L104.786 31.259C104.798 31.2011 104.79 31.1555 104.763 31.1221C104.739 31.0886 104.699 31.0718 104.642 31.0718H104.176ZM65.7204 31.1267C65.6696 31.1267 65.6234 31.145 65.5815 31.1815C65.5427 31.215 65.519 31.259 65.51 31.3138L64.1198 37.9723C64.1079 38.0241 64.1156 38.0681 64.1425 38.1046C64.1724 38.1411 64.2099 38.1595 64.2547 38.1595H64.7027C64.7505 38.1595 64.7968 38.1411 64.8416 38.1046C64.8865 38.0651 64.9152 38.0211 64.9272 37.9723L65.7698 33.9307C65.967 33.8454 66.1942 33.7815 66.4513 33.7389C66.7083 33.6933 66.9206 33.6702 67.088 33.6702C67.4078 33.6702 67.6319 33.7618 67.7604 33.9445C67.8919 34.1272 67.9115 34.4434 67.8188 34.894L67.1776 37.9723C67.1656 38.0241 67.1733 38.0681 67.2002 38.1046C67.2301 38.1411 67.2702 38.1595 67.321 38.1595H67.7604C67.8053 38.1595 67.85 38.1411 67.8948 38.1046C67.9426 38.068 67.973 38.024 67.9849 37.9723L68.6256 34.894C68.7153 34.4556 68.723 34.0902 68.6483 33.7979C68.5736 33.5026 68.4255 33.2879 68.2044 33.1539C67.9832 33.0169 67.7066 32.9488 67.3749 32.9488C67.1567 32.9488 66.9161 32.9729 66.6531 33.0216C66.3931 33.0704 66.1463 33.1437 65.9132 33.2411L66.3169 31.3138C66.3259 31.259 66.3182 31.215 66.2942 31.1815C66.2703 31.145 66.2318 31.1267 66.178 31.1267H65.7204ZM99.3166 31.1267C99.2658 31.1267 99.2195 31.145 99.1776 31.1815C99.1388 31.215 99.1146 31.259 99.1057 31.3138L97.716 37.9723C97.704 38.0241 97.7112 38.0681 97.7381 38.1046C97.768 38.1411 97.8055 38.1595 97.8504 38.1595H98.2988C98.3467 38.1595 98.3929 38.1411 98.4378 38.1046C98.4826 38.0651 98.5109 38.0211 98.5228 37.9723L99.3659 33.9307C99.5632 33.8454 99.7904 33.7815 100.047 33.7389C100.304 33.6933 100.517 33.6702 100.684 33.6702C101.004 33.6702 101.228 33.7618 101.357 33.9445C101.488 34.1272 101.507 34.4434 101.414 34.894L100.774 37.9723C100.762 38.0241 100.769 38.0681 100.796 38.1046C100.826 38.1411 100.866 38.1595 100.917 38.1595H101.357C101.401 38.1595 101.446 38.1411 101.491 38.1046C101.539 38.068 101.569 38.024 101.581 37.9723L102.222 34.894C102.311 34.4556 102.319 34.0902 102.244 33.7979C102.169 33.5026 102.021 33.2879 101.8 33.1539C101.579 33.0169 101.303 32.9488 100.971 32.9488C100.753 32.9488 100.512 32.9729 100.249 33.0216C99.9887 33.0704 99.7425 33.1437 99.5093 33.2411L99.9125 31.3138C99.9215 31.259 99.9143 31.215 99.8904 31.1815C99.8665 31.145 99.8274 31.1267 99.7736 31.1267H99.3166ZM117.826 31.1267C117.772 31.1267 117.727 31.145 117.692 31.1815C117.656 31.2181 117.632 31.2589 117.62 31.3046L116.257 37.8488C116.242 37.9188 116.242 37.9691 116.257 37.9995C116.275 38.027 116.324 38.0499 116.405 38.0682C116.919 38.1717 117.469 38.2235 118.055 38.2235C118.727 38.2235 119.271 38.0193 119.687 37.6114C120.105 37.2034 120.39 36.6374 120.543 35.9128L120.682 35.2411C120.76 34.8667 120.787 34.5378 120.763 34.2547C120.742 33.9716 120.667 33.7344 120.538 33.5425C120.413 33.3507 120.235 33.2041 120.005 33.1037C119.778 33.0002 119.495 32.9488 119.158 32.9488C118.972 32.9488 118.784 32.9558 118.593 32.9714C118.405 32.9867 118.228 33.0113 118.064 33.0447L118.427 31.3046C118.439 31.2559 118.431 31.215 118.404 31.1815C118.377 31.145 118.34 31.1267 118.293 31.1267L117.826 31.1267ZM51.6056 31.2087C51.5638 31.2087 51.5221 31.2239 51.4803 31.2543C51.4414 31.2817 51.4173 31.3199 51.4083 31.3687C51.4023 31.393 51.4008 31.4114 51.4038 31.4235L51.8341 37.5155C51.867 37.9874 52.1302 38.2235 52.6233 38.2235C52.8326 38.2235 53.033 38.1717 53.2243 38.0682C53.4186 37.9647 53.58 37.7804 53.7085 37.5155L56.6671 31.4235C56.676 31.4114 56.6837 31.393 56.6897 31.3687C56.7106 31.2621 56.669 31.2087 56.5644 31.2087H56.0218C55.9471 31.2087 55.8859 31.2558 55.8381 31.3502L52.9862 37.3099C52.9235 37.4408 52.852 37.5063 52.7713 37.5063C52.6846 37.5063 52.6368 37.4408 52.6279 37.3099L52.278 31.3502C52.2751 31.3106 52.2586 31.2771 52.2287 31.2497C52.2018 31.2223 52.172 31.2087 52.1391 31.2087H51.6056ZM88.0778 31.8388L87.58 31.9116C87.4694 31.9329 87.4036 31.9958 87.3827 32.0993L87.1899 33.017H86.298C86.1814 33.017 86.111 33.072 86.0871 33.1816L86.0332 33.4374C86.0123 33.541 86.0586 33.597 86.1722 33.6061L87.0464 33.7066L86.3649 36.972C86.2603 37.4622 86.286 37.7942 86.4414 37.9677C86.5969 38.1382 86.8986 38.223 87.3469 38.223C87.5412 38.223 87.7442 38.2078 87.9565 38.1774C88.07 38.1622 88.1358 38.1093 88.1538 38.018L88.2212 37.6934C88.2391 37.6051 88.1836 37.5611 88.0551 37.5611H87.5397C87.3484 37.5611 87.2261 37.5261 87.1723 37.456C87.1185 37.383 87.1185 37.2217 87.1723 36.972L87.8538 33.7066H88.8443C88.8892 33.7066 88.9339 33.6883 88.9787 33.6518C89.0265 33.6152 89.0553 33.5712 89.0643 33.5195L89.1312 33.2042C89.1432 33.1524 89.1344 33.1084 89.1045 33.0719C89.0776 33.0354 89.0386 33.017 88.9878 33.017H87.9972L88.2076 31.9942C88.2196 31.9485 88.2155 31.9118 88.1945 31.8845C88.1766 31.854 88.1463 31.8388 88.1044 31.8388H88.0778ZM63.0372 32.9427C62.6128 32.9427 62.2329 33.0338 61.8982 33.2165C61.5664 33.3991 61.2929 33.6609 61.0777 34.0019C60.8625 34.3399 60.7058 34.7451 60.6071 35.217L60.4546 35.9476C60.3799 36.3069 60.3547 36.6237 60.3786 36.8977C60.4025 37.1717 60.4755 37.4073 60.5981 37.6052C60.7236 37.8031 60.8999 37.9555 61.1271 38.062C61.3542 38.1656 61.6231 38.2174 61.9339 38.2174C62.185 38.2174 62.4255 38.1871 62.6557 38.1261C62.8858 38.0653 63.0652 38.003 63.1937 37.939C63.2505 37.9115 63.2911 37.8854 63.315 37.8611C63.3389 37.8367 63.3569 37.7974 63.3689 37.7426L63.4358 37.4048C63.4627 37.2738 63.4016 37.234 63.2521 37.2858C62.8247 37.4289 62.4361 37.5006 62.0864 37.5006C61.7128 37.5006 61.4542 37.3708 61.3108 37.112C61.1703 36.8502 61.1538 36.4622 61.2614 35.9476L61.414 35.217C61.6292 34.1819 62.1195 33.6641 62.8847 33.6641C63.2344 33.6641 63.5927 33.7358 63.9603 33.8789C64.0918 33.9276 64.1715 33.8868 64.1984 33.7558L64.2698 33.4221C64.2788 33.3672 64.2773 33.3295 64.2653 33.3082C64.2563 33.2838 64.2281 33.2561 64.1802 33.2257C64.0846 33.1618 63.9319 33.0995 63.7227 33.0386C63.5165 32.9746 63.2883 32.9427 63.0372 32.9427ZM107.436 32.9483C106.79 32.9483 106.248 33.1447 105.808 33.5374C105.369 33.9271 105.079 34.4601 104.939 35.136L104.76 35.981C104.646 36.532 104.649 36.975 104.769 37.3099C104.891 37.6418 105.094 37.8774 105.378 38.0174C105.662 38.1544 105.995 38.223 106.378 38.223C106.984 38.223 107.584 38.0801 108.176 37.7939C108.268 37.7452 108.322 37.6887 108.337 37.6247L108.418 37.2412C108.43 37.1834 108.419 37.1425 108.387 37.1182C108.354 37.0911 108.301 37.0925 108.229 37.1233C108.107 37.1689 107.946 37.2255 107.745 37.2925C107.545 37.3565 107.342 37.4083 107.136 37.4478C106.933 37.4874 106.729 37.5068 106.526 37.5068C106.089 37.5068 105.792 37.3884 105.634 37.151C105.478 36.9135 105.456 36.5234 105.566 35.9815L105.598 35.8492H108.673C108.79 35.8492 108.861 35.7806 108.888 35.6436L108.996 35.1365C109.086 34.6981 109.089 34.3128 109.005 33.9809C108.924 33.649 108.751 33.3951 108.485 33.2185C108.219 33.0389 107.869 32.9488 107.436 32.9488V32.9483ZM123.597 32.9483C123.298 32.9483 123.003 32.9834 122.713 33.0534C122.423 33.1204 122.201 33.1858 122.045 33.2498C121.953 33.2863 121.898 33.3424 121.88 33.4185L121.803 33.784C121.794 33.8358 121.806 33.874 121.839 33.8984C121.875 33.923 121.927 33.9244 121.996 33.9035C122.271 33.8243 122.512 33.7667 122.718 33.7302C122.927 33.6906 123.171 33.6707 123.449 33.6707C123.81 33.6707 124.048 33.7466 124.161 33.8989C124.278 34.0481 124.294 34.3177 124.211 34.7074L124.135 35.0817H123.453C122.918 35.0817 122.477 35.1366 122.13 35.2463C121.784 35.3528 121.515 35.5172 121.324 35.7395C121.132 35.9617 120.999 36.2481 120.924 36.5983L120.911 36.6803C120.798 37.2192 120.871 37.6119 121.131 37.8585C121.394 38.1021 121.883 38.2241 122.597 38.2241C122.905 38.2241 123.184 38.2057 123.435 38.1692C123.686 38.1327 123.939 38.0793 124.193 38.0092C124.289 37.9879 124.348 37.9193 124.372 37.8036L125.018 34.7069C125.263 33.5347 124.789 32.9488 123.597 32.9488V32.9483ZM76.8782 32.9488C76.3581 32.9488 75.7069 33.0462 74.9238 33.2411C74.8042 33.2746 74.7323 33.3489 74.7084 33.4646L73.7717 37.9723C73.7597 38.0241 73.7669 38.0681 73.7938 38.1046C73.8237 38.1411 73.8612 38.1595 73.906 38.1595H74.3545C74.4023 38.1595 74.4486 38.1411 74.4934 38.1046C74.5383 38.0651 74.5665 38.0211 74.5785 37.9723L75.4437 33.821C75.8801 33.7083 76.2867 33.6523 76.6633 33.6523C76.9143 33.6523 77.1102 33.6916 77.2507 33.7707C77.3911 33.8499 77.4775 33.9808 77.5104 34.1634C77.5462 34.3461 77.5313 34.5927 77.4656 34.9033L76.8289 37.9723C76.8169 38.0241 76.8246 38.0681 76.8515 38.1046C76.8814 38.1411 76.9215 38.1595 76.9723 38.1595H77.4117C77.4566 38.1595 77.5018 38.1411 77.5466 38.1046C77.5944 38.068 77.6243 38.0241 77.6362 37.9723L78.2729 34.9033C78.3417 34.5745 78.3715 34.2928 78.3625 34.0583C78.3535 33.8209 78.2996 33.6203 78.2009 33.4559C78.1023 33.2915 77.9424 33.1664 77.7213 33.0811C77.5031 32.9928 77.2219 32.9488 76.8782 32.9488ZM81.4036 32.9488C80.9463 32.9488 80.5474 33.0326 80.2067 33.2001C79.869 33.3645 79.5893 33.6153 79.3682 33.9532C79.15 34.2912 78.9855 34.7205 78.8749 35.2412L78.7315 35.9261C78.4116 37.4575 78.9349 38.2236 80.3008 38.2236C80.4413 38.2236 80.6207 38.2099 80.8389 38.1825C81.0571 38.1551 81.2288 38.1257 81.3543 38.0954L81.3407 38.1595C81.278 38.4731 81.1916 38.7134 81.081 38.8809C80.9704 39.0513 80.8255 39.1686 80.6461 39.2326C80.4698 39.2966 80.2318 39.3284 79.9329 39.3284C79.643 39.3284 79.4158 39.3045 79.2514 39.2556C79.087 39.2069 78.8614 39.1216 78.5744 38.9998C78.5176 38.9724 78.4673 38.9724 78.4224 38.9998C78.3776 39.0272 78.3504 39.0686 78.3414 39.1234L78.2744 39.4335C78.2565 39.5218 78.2848 39.5935 78.3595 39.6484C78.4791 39.7306 78.6672 39.8096 78.9242 39.8858C79.1843 39.9619 79.4742 40.0001 79.794 40.0001C80.4486 40.0001 80.9703 39.8598 81.3588 39.5797C81.7474 39.3026 82.0106 38.8293 82.1481 38.1595L83.1477 33.378C83.1626 33.3079 83.1595 33.2592 83.1386 33.2319C83.1207 33.2014 83.0744 33.1789 82.9997 33.1637C82.4169 33.0206 81.8848 32.9488 81.4036 32.9488ZM91.7485 32.9488C91.091 32.9488 90.5441 33.1541 90.1077 33.5651C89.6713 33.9731 89.3799 34.5286 89.2334 35.2319L89.0854 35.9446C88.939 36.6448 88.9986 37.2004 89.2646 37.6114C89.5306 38.0194 89.9927 38.2236 90.6503 38.2236C91.3108 38.2236 91.8593 38.0194 92.2956 37.6114C92.732 37.2004 93.0235 36.6448 93.1699 35.9446L93.3179 35.2319C93.4644 34.5286 93.4042 33.9731 93.1382 33.5651C92.8722 33.1541 92.4091 32.9488 91.7485 32.9488ZM128.515 32.9488C127.995 32.9488 127.343 33.0462 126.56 33.2411C126.44 33.2746 126.369 33.3489 126.345 33.4646L125.408 37.9723C125.396 38.0241 125.403 38.0681 125.43 38.1046C125.46 38.1411 125.497 38.1595 125.542 38.1595H125.99C126.038 38.1595 126.085 38.1411 126.129 38.1046C126.174 38.0651 126.202 38.0211 126.214 37.9723L127.08 33.821C127.517 33.7083 127.923 33.6523 128.299 33.6523C128.55 33.6523 128.746 33.6916 128.887 33.7707C129.027 33.8499 129.114 33.9808 129.147 34.1634C129.183 34.3461 129.168 34.5927 129.102 34.9033L128.465 37.9723C128.453 38.0241 128.461 38.0681 128.488 38.1046C128.518 38.1411 128.558 38.1595 128.609 38.1595H129.048C129.093 38.1595 129.138 38.1411 129.183 38.1046C129.23 38.068 129.26 38.0241 129.272 37.9723L129.909 34.9033C129.978 34.5745 130.007 34.2928 129.998 34.0583C129.989 33.8209 129.936 33.6203 129.837 33.4559C129.739 33.2915 129.579 33.1664 129.358 33.0811C129.14 32.9928 128.858 32.9488 128.515 32.9488ZM57.344 33.017C57.2932 33.017 57.2454 33.0354 57.2006 33.0719C57.1588 33.1085 57.1331 33.153 57.1241 33.2047L56.129 37.9723C56.1171 38.0241 56.1258 38.0681 56.1557 38.1046C56.1886 38.1411 56.2276 38.1595 56.2725 38.1595H56.7119C56.7627 38.1595 56.8089 38.1427 56.8508 38.1092C56.8956 38.0727 56.9239 38.0272 56.9358 37.9723L57.9314 33.2047C57.9434 33.1468 57.9357 33.1008 57.9088 33.0673C57.8819 33.0338 57.8402 33.017 57.7834 33.017H57.344ZM70.0843 33.017C70.0305 33.017 69.9827 33.0354 69.9408 33.0719C69.899 33.1085 69.8738 33.153 69.8648 33.2047L69.2236 36.2686V36.2691C69.1339 36.6984 69.1134 37.056 69.1612 37.3422C69.209 37.6254 69.3493 37.8432 69.5825 37.9954C69.8186 38.1477 70.1625 38.2236 70.6138 38.2236C71.1458 38.2236 71.7986 38.1277 72.5727 37.9359C72.6923 37.9025 72.7643 37.8276 72.7882 37.7119L73.7294 33.2047C73.7384 33.1529 73.7296 33.1085 73.7027 33.0719C73.6788 33.0354 73.6413 33.0176 73.5905 33.0176H73.142C73.0882 33.0176 73.0404 33.037 72.9986 33.0765C72.9567 33.113 72.9315 33.1559 72.9226 33.2047L72.0528 37.3556C71.8705 37.4013 71.6566 37.4411 71.4116 37.4745C71.1665 37.5079 70.9737 37.5248 70.8332 37.5248C70.4566 37.5248 70.2043 37.4305 70.0757 37.2417C69.9502 37.053 69.9353 36.7284 70.0309 36.2686L70.6717 33.2047C70.6806 33.1529 70.6704 33.1085 70.6405 33.0719C70.6136 33.0354 70.5745 33.017 70.5237 33.017L70.0843 33.017ZM94.8138 33.017C94.763 33.017 94.7152 33.0354 94.6703 33.0719C94.6285 33.1085 94.6033 33.153 94.5943 33.2047L93.5993 37.9723C93.5873 38.0241 93.596 38.0681 93.6259 38.1046C93.6588 38.1411 93.6979 38.1595 93.7427 38.1595H94.1821C94.2329 38.1595 94.2792 38.1428 94.321 38.1092C94.3659 38.0727 94.3941 38.0272 94.4061 37.9723L95.4012 33.2047C95.4131 33.1468 95.4059 33.1008 95.379 33.0673C95.3521 33.0338 95.31 33.017 95.2532 33.017H94.8138ZM103.777 33.017C103.726 33.017 103.678 33.0354 103.634 33.0719C103.592 33.1085 103.566 33.153 103.557 33.2047L102.562 37.9723C102.55 38.0241 102.559 38.0681 102.589 38.1046C102.622 38.1411 102.661 38.1595 102.705 38.1595H103.145C103.196 38.1595 103.242 38.1428 103.284 38.1092C103.329 38.0727 103.357 38.0272 103.369 37.9723L104.364 33.2047C104.376 33.1468 104.369 33.1008 104.342 33.0673C104.315 33.0338 104.273 33.017 104.216 33.017H103.777ZM110.393 33.017C110.339 33.017 110.291 33.0354 110.249 33.0719C110.208 33.1085 110.182 33.153 110.173 33.2047L109.532 36.2686V36.2691C109.442 36.6984 109.421 37.056 109.469 37.3422C109.517 37.6254 109.657 37.8432 109.89 37.9954C110.127 38.1476 110.47 38.2236 110.922 38.2236C111.454 38.2236 112.107 38.1278 112.881 37.9359C113 37.9025 113.072 37.8276 113.096 37.7119L114.037 33.2047C114.046 33.1529 114.038 33.1084 114.011 33.0719C113.987 33.0354 113.949 33.0176 113.898 33.0176H113.45C113.396 33.0176 113.348 33.037 113.307 33.0765C113.265 33.113 113.24 33.156 113.231 33.2047L112.361 37.3556C112.178 37.4013 111.965 37.441 111.72 37.4745C111.474 37.508 111.282 37.5248 111.141 37.5248C110.765 37.5248 110.512 37.4305 110.384 37.2417C110.258 37.053 110.243 36.7284 110.339 36.2686L110.98 33.2047C110.989 33.1529 110.978 33.1084 110.948 33.0719C110.922 33.0354 110.883 33.017 110.832 33.017L110.393 33.017ZM81.2602 33.6431C81.583 33.6431 81.9176 33.6766 82.2643 33.7435L81.4932 37.4289C81.3498 37.4593 81.1765 37.4851 80.9733 37.5063C80.77 37.5245 80.5953 37.534 80.4488 37.534C80.1679 37.534 79.9463 37.4822 79.7849 37.3786C79.6235 37.2751 79.5223 37.106 79.4804 36.8716C79.4386 36.6371 79.4581 36.3219 79.5388 35.9261L79.6822 35.2412C79.742 34.9519 79.815 34.7069 79.9017 34.5059C79.9914 34.305 80.0962 34.1406 80.2158 34.0127C80.3383 33.8849 80.4858 33.7922 80.6592 33.7343C80.8326 33.6734 81.033 33.6431 81.2602 33.6431ZM91.6005 33.6702C91.8815 33.6702 92.0995 33.7325 92.2549 33.8574C92.4133 33.9822 92.512 34.1618 92.5508 34.3962C92.5927 34.6276 92.5793 34.9062 92.5106 35.2319L92.3626 35.9446C92.258 36.4439 92.0745 36.8293 91.8114 37.1002C91.5514 37.3712 91.2137 37.5063 90.7982 37.5063C89.9763 37.5063 89.6741 36.9858 89.8923 35.9446L90.0402 35.2319C90.1448 34.7357 90.3273 34.3524 90.5873 34.0814C90.8474 33.8074 91.1851 33.6702 91.6005 33.6702ZM107.284 33.6702C107.556 33.6702 107.769 33.7189 107.924 33.8163C108.08 33.9138 108.179 34.0719 108.22 34.2911C108.265 34.5103 108.252 34.792 108.18 35.1361L108.162 35.2232H105.728L105.746 35.1361C105.949 34.1587 106.462 33.6702 107.284 33.6702ZM119.005 33.6702C119.439 33.6702 119.72 33.7996 119.848 34.0583C119.977 34.3171 119.986 34.7114 119.875 35.2412L119.736 35.9128C119.625 36.4486 119.452 36.8487 119.216 37.1136C118.98 37.3754 118.644 37.5063 118.207 37.5063C117.941 37.5063 117.588 37.4863 117.149 37.4468L117.92 33.7343C118.162 33.6918 118.524 33.6702 119.005 33.6702ZM123.328 35.6795H124.009L123.632 37.4976C123.573 37.5127 123.495 37.5265 123.399 37.5386C123.307 37.5508 123.202 37.5618 123.086 37.5709C122.972 37.5768 122.854 37.5796 122.731 37.5796C122.421 37.5796 122.183 37.5493 122.019 37.4883C121.857 37.4274 121.757 37.3316 121.718 37.2007C121.679 37.0668 121.682 36.8898 121.727 36.6706L121.745 36.5885C121.781 36.415 121.832 36.2736 121.897 36.164C121.966 36.0514 122.059 35.9582 122.175 35.8851C122.295 35.812 122.444 35.7602 122.624 35.7298C122.803 35.6963 123.038 35.6795 123.328 35.6795ZM122.193 38.5568C122.148 38.5568 122.102 38.5767 122.054 38.6163C122.01 38.6559 121.983 38.6984 121.974 38.744L121.812 39.5023C121.803 39.554 121.814 39.5964 121.844 39.6299C121.876 39.6634 121.915 39.6802 121.96 39.6802H122.319C122.37 39.6802 122.416 39.6634 122.458 39.6299C122.503 39.5964 122.53 39.554 122.539 39.5023L122.7 38.744C122.709 38.6983 122.698 38.6559 122.668 38.6163C122.642 38.5767 122.603 38.5568 122.552 38.5568H122.193Z"/><path fill="url(#paint2_linear_5_6969)" d="M28.6242 0.000676307C28.5871 0.00194705 28.5668 0.00375357 28.5668 0.00375357H2.3595L26.481 10.5696L30.4286 3.60243C30.8539 2.69256 30.8657 1.8118 30.6209 1.33063C29.9641 0.0398485 28.8839 -0.00762457 28.6242 0.000676307Z"/><path fill="url(#paint3_linear_5_6969)" d="M28.6242 0.000747614C28.5871 0.00201836 28.5668 0.00382489 28.5668 0.00382489H28.7822C28.7153 -0.000752714 28.6613 -0.000421965 28.6242 0.000747614ZM30.4966 3.43792L9.5083 19.6328L13.6381 26.8778C13.6381 26.8778 14.1129 27.8442 15.4269 27.8442C16.7409 27.8442 17.325 26.7291 17.325 26.7291L30.4286 3.6025C30.4544 3.5473 30.4738 3.49283 30.4966 3.43792Z"/><path fill="url(#paint4_linear_5_6969)" d="M10.6846 3.65078L2.35951 0.00390625C2.35951 0.00390625 0.644309 0.0041597 0.133308 1.48358C-0.311154 2.77032 0.498217 3.82612 0.498217 3.82612L13.632 26.8671L10.6846 3.65078Z"/></g><defs><linearGradient id="paint0_linear_5_6969" x1="1.617" x2="30.871" y1="5.37" y2="5.37" gradientUnits="userSpaceOnUse"><stop stop-color="#FBB413" stop-opacity=".784"/><stop offset="1" stop-color="#DF5F27"/></linearGradient><linearGradient id="paint1_linear_5_6969" x1="2.282" x2="30.82" y1="5.227" y2="5.227" gradientUnits="userSpaceOnUse"><stop stop-color="#FBB413" stop-opacity=".784"/><stop offset="1" stop-color="#DF5F27"/></linearGradient><linearGradient id="paint2_linear_5_6969" x1="2.36" x2="26.548" y1=".004" y2="4.76" gradientUnits="userSpaceOnUse"><stop stop-color="#FBB413"/><stop offset="1" stop-color="#DE5D27"/></linearGradient><linearGradient id="paint3_linear_5_6969" x1="30.315" x2="12.816" y1="12.791" y2="20.795" gradientUnits="userSpaceOnUse"><stop stop-color="#FBB413"/><stop offset="1" stop-color="#DE5D27"/></linearGradient><linearGradient id="paint4_linear_5_6969" x1="1.786" x2="6.669" y1="23.021" y2="2.205" gradientUnits="userSpaceOnUse"><stop stop-color="#FBB413"/><stop offset="1" stop-color="#DE5D27"/></linearGradient><clipPath id="clip0_5_6969"><rect width="130" height="40" fill="#fff"/></clipPath></defs></svg>