<svg xmlns="http://www.w3.org/2000/svg" width="40" height="40" fill="none" viewBox="0 0 40 40"><path fill="url(#paint0_linear_20_5938)" d="M27.487 0L1 5.48696V9.91304L25.2348 5.68696L39.1826 10.9043V7.65217L27.487 0Z"/><path fill="url(#paint1_linear_20_5938)" d="M1 11.5649V16.1649L21.887 14.3997L39.1826 16.3041V12.2345L24.3913 7.97363L1 11.5649Z"/><path fill="url(#paint2_linear_20_5938)" d="M1 17.6697V22.3827L17.9739 23.574L39.1826 22.5219V17.7219L20.913 16.5566L1 17.6697Z"/><path fill="url(#paint3_linear_20_5938)" d="M1 27.7046L14.5913 32.1133L39.1826 28.6264V23.9742L17.0174 25.6872L1 23.8003V27.7046Z"/><path fill="url(#paint4_linear_20_5938)" d="M1 32.165L11.4783 39.9998L39.1826 34.8084V30.3302L13.687 34.3998L1 29.1128V32.165Z"/><defs><linearGradient id="paint0_linear_20_5938" x1="38.183" x2="2.722" y1="13.67" y2=".757" gradientUnits="userSpaceOnUse"><stop offset=".4" stop-color="#FFC425"/><stop offset=".68" stop-color="#AA8E40"/><stop offset=".9" stop-color="#6F6854"/><stop offset="1" stop-color="#58595B"/></linearGradient><linearGradient id="paint1_linear_20_5938" x1="37.626" x2="2.383" y1="20.582" y2="7.756" gradientUnits="userSpaceOnUse"><stop offset=".45" stop-color="#FFC425"/><stop offset=".71" stop-color="#AA8E40"/><stop offset=".91" stop-color="#6F6854"/><stop offset="1" stop-color="#58595B"/></linearGradient><linearGradient id="paint2_linear_20_5938" x1="37.748" x2="2.47" y1="26.478" y2="13.635" gradientUnits="userSpaceOnUse"><stop offset=".52" stop-color="#FFC425"/><stop offset=".74" stop-color="#AA8E40"/><stop offset=".92" stop-color="#6F6854"/><stop offset="1" stop-color="#58595B"/></linearGradient><linearGradient id="paint3_linear_20_5938" x1="37.843" x2="2.574" y1="32.305" y2="19.47" gradientUnits="userSpaceOnUse"><stop offset=".6" stop-color="#FFC425"/><stop offset=".79" stop-color="#AA8E40"/><stop offset=".93" stop-color="#6F6854"/><stop offset="1" stop-color="#58595B"/></linearGradient><linearGradient id="paint4_linear_20_5938" x1="37.452" x2="1.904" y1="39.574" y2="26.634" gradientUnits="userSpaceOnUse"><stop offset=".65" stop-color="#FFC425"/><stop offset=".81" stop-color="#AA8E40"/><stop offset=".94" stop-color="#6F6854"/><stop offset="1" stop-color="#58595B"/></linearGradient></defs></svg>