<svg xmlns="http://www.w3.org/2000/svg" width="91" height="40" fill="none" viewBox="0 0 91 40"><g clip-path="url(#clip0_20_5861)"><path fill="#000" fill-rule="evenodd" d="M4.44893 11.9375L2.76923 12.8709L2.74472 14.7898L2.7202 16.7086H1.3601H0V18.2955V19.8824H1.36192H2.72383L2.72438 23.8496C2.72538 31.589 3.45609 32.7531 8.46658 32.9978L9.71501 33.0588V31.322V29.5851H9.00772C6.43079 29.5851 6.27145 29.2121 6.26718 23.1695L6.26482 19.8824H7.98991H9.71501V18.2955V16.7086H7.98991H6.26482V13.8522C6.26482 12.2812 6.23413 10.9977 6.19672 11C6.15931 11.0024 5.37276 11.4242 4.44893 11.9375ZM46.0815 16.4468C44.6763 16.6512 43.6228 17.2001 42.518 18.3034L41.6818 19.1386L40.8383 18.2984C38.4415 15.911 34.711 15.7711 32.2992 17.9782L31.6873 18.5383V17.6235V16.7086H29.9168H28.1463V24.8698V33.0309H29.9127H31.679L31.7077 27.7942C31.74 21.9097 31.7171 22.1159 32.4627 20.9931C33.937 18.7726 37.671 18.9927 38.7741 21.3649C39.1739 22.2246 39.2232 22.9795 39.2232 28.2452V33.0309H40.9937H42.7642L42.7657 28.1116C42.7675 22.7249 42.7891 22.4525 43.2935 21.4545C44.5568 18.9551 48.4737 18.8235 49.7886 21.2363C50.2705 22.1207 50.2969 22.4684 50.2986 27.9755L50.3001 33.0309H52.116H53.9319L53.9314 27.8395C53.9308 22.0976 53.8858 21.4587 53.3916 20.1817C52.3384 17.46 49.4081 15.9628 46.0815 16.4468ZM62.5073 16.4384C54.8347 17.4024 52.5412 27.4888 59.004 31.8459C63.4379 34.8353 70.1406 32.6443 71.6764 27.7035L71.7399 27.4995H69.8324H67.9249L67.6385 28.0361C65.7552 31.5649 60.0939 30.8284 58.7328 26.8776C58.4135 25.9507 57.6399 26.0486 65.2812 26.0486H72V24.8865C72 19.5228 67.7887 15.7749 62.5073 16.4384ZM10.5322 16.7558C10.5322 16.7817 12.0235 20.2306 13.8462 24.4201C15.6689 28.6096 17.1602 32.0913 17.1602 32.1574C17.1602 32.2235 16.4451 34.0028 15.5712 36.1115C14.6974 38.22 13.9823 39.9614 13.9823 39.9811C13.9823 40.0008 14.8046 40.006 15.8094 39.9925L17.6365 39.9679L22.3471 28.5423C24.9381 22.2582 27.0824 17.0249 27.1125 16.9127L27.1672 16.7086H25.3027H23.4381L23.1658 17.4114C22.6011 18.8683 19.05 27.8179 19.0276 27.8405C19.0147 27.8536 17.9501 25.3543 16.6616 22.2864L14.3189 16.7086H12.4256C11.3842 16.7086 10.5322 16.7299 10.5322 16.7558ZM63.2383 19.6214C61.3238 19.7706 59.3599 21.2357 58.9681 22.8068L58.9059 23.0562H63.6371C67.4172 23.0562 68.3682 23.0329 68.3682 22.9403C68.3682 21.1905 65.6522 19.4333 63.2383 19.6214Z" clip-rule="evenodd"/><path fill="#8ABBC2" d="M79.6091 8.87726L84.0057 4.43863C86.424 1.99741 88.443 0 88.443 0C88.562 0 91 2.40838 91 2.52834C91 2.5795 89.0214 4.61904 86.6033 7.06063L82.2065 11.5L86.6033 15.9394C89.0214 18.381 91 20.4205 91 20.4717C91 20.5912 88.6117 23 88.4931 23C88.4439 23 86.9784 21.5616 85.2364 19.8035L82.0691 16.607V14.1229V11.6388L78.3327 15.41L74.5963 19.1812L73.2982 17.8707L72 16.5602L74.505 14.0301L77.01 11.5L74.505 8.96991L72 6.43982L73.298 5.12937L74.5961 3.81901L77.1026 6.34818L79.6091 8.87726Z"/></g><defs><clipPath id="clip0_20_5861"><rect width="91" height="40" fill="#fff"/></clipPath></defs></svg>