<svg xmlns="http://www.w3.org/2000/svg" width="240" height="80" fill="none" viewBox="0 0 240 80"><path fill="#DD127B" d="M116.728 23.7113C117.872 22.4497 119.041 21.2094 120.24 20C124.035 23.6832 127.751 27.4507 131.331 31.3466C132.885 33.0965 134.489 34.8264 135.735 36.8212C137.003 38.7424 138.229 40.7171 139.049 42.8791C139.579 44.2117 139.832 45.6258 140 47.0439V48.3899C139.871 50.4917 139.203 52.54 138.131 54.3461C136.808 56.6058 134.691 58.3772 132.228 59.2561C131.095 59.6294 129.923 59.9719 128.717 59.9558C128.717 59.4421 128.717 58.9284 128.717 58.4146C128.157 58.4106 127.597 58.4106 127.037 58.416C127.032 58.9404 127.032 59.4635 127.032 59.9866C126.561 59.9826 126.091 59.9799 125.62 59.9813C125.607 57.9851 125.617 55.9904 125.615 53.9956C126.673 53.9956 127.733 54.0063 128.792 53.9929C130.215 53.9769 131.653 53.4925 132.731 52.544C133.991 51.4442 134.567 49.6983 134.473 48.0527C134.437 45.8292 133.689 43.6685 132.559 41.7727C131.231 39.4662 129.431 37.4928 127.7 35.49C124.144 31.4697 120.441 27.5845 116.728 23.7113ZM128.756 54.3608C128.743 54.4919 128.717 54.7542 128.705 54.8853C129.295 55.0753 129.881 55.4713 130.068 56.0947C130.269 56.9349 129.52 57.6801 128.748 57.8407C128.768 58.036 128.793 58.2313 128.82 58.428C129.669 58.4481 130.484 57.8888 130.815 57.1115C130.98 56.48 130.976 55.7281 130.543 55.201C130.136 54.6297 129.449 54.3247 128.756 54.3608ZM126.977 55.2251C126.969 55.9449 126.964 56.6647 126.98 57.3844C127.551 57.3604 128.121 57.3242 128.693 57.3162C128.713 56.6687 128.735 56.0211 128.691 55.3749C128.127 55.2612 127.553 55.193 126.977 55.2251Z"/><path fill="#DD127B" d="M116.133 24.3494C116.248 24.2143 116.407 24.3106 116.483 24.431C120.271 28.4407 124.067 32.4409 127.859 36.4465C128 36.575 127.956 36.7797 127.973 36.9483C127.965 39.3912 127.971 41.8342 127.965 44.2785C126.527 42.7975 125.095 41.3097 123.652 39.8314C121.087 37.252 118.605 34.5882 116.015 32.0369C115.221 32.7433 114.488 33.5166 113.732 34.2618C112.132 35.8766 110.531 37.5048 109.169 39.3324C107.896 41.1091 106.825 43.0477 106.103 45.116C105.764 46.1984 105.464 47.3142 105.483 48.4581C105.469 49.9177 106.075 51.4148 107.236 52.3272C108.679 53.4537 110.536 53.8711 112.325 54.0103C112.341 55.0592 112.319 56.1067 112.332 57.1556C112.317 57.8299 112.919 58.4507 113.6 58.4159C113.947 58.4734 114.367 58.2112 114.313 57.8232C114.331 56.5496 114.307 55.2746 114.323 54.0009C114.785 53.9982 115.248 53.9982 115.712 53.9982C115.716 55.7201 115.711 57.4406 115.717 59.1611C115.713 59.4314 115.745 59.8006 115.429 59.9143C114.857 60.0414 114.261 59.8983 113.78 59.5718C112.259 58.7383 111.319 57.1703 110.749 55.5769C110.623 55.221 110.549 54.8411 110.363 54.5093C109.789 54.2885 109.216 54.0624 108.621 53.9019C109.181 56.3382 110.567 58.7357 112.821 59.9411C112.412 59.9464 112 59.9505 111.592 59.9036C109.044 59.5464 106.515 58.6835 104.465 57.0887C102.365 55.4926 100.887 53.142 100.235 50.592C100.121 49.9939 100.141 49.3785 100 48.7858V48.252C100.157 47.159 100.119 46.0365 100.429 44.9675C101.067 41.9533 102.547 39.1638 104.469 36.7783C107.961 32.2804 111.996 28.2453 116.133 24.3494Z"/><path fill="#DD127B" d="M116.304 33.1006C119.961 36.8868 123.645 40.6476 127.316 44.4231C127.548 44.7214 128.019 44.9422 127.971 45.3783C127.945 47.737 128.005 50.0984 127.94 52.4571C124.157 48.5143 120.309 44.6331 116.504 40.7105C116.409 40.5941 116.26 40.4817 116.292 40.3091C116.297 37.9063 116.276 35.5034 116.304 33.1006Z"/><path fill="#DD127B" d="M116.387 53.9766C117.277 53.9887 118.169 53.9539 119.059 53.9967C119.681 54.0315 120.251 54.5225 120.34 55.1486C120.495 55.7855 120.209 56.4276 119.716 56.829C121.041 57.3013 120.872 59.4834 119.605 59.9142C118.556 60.052 117.495 59.9423 116.44 59.9998C116.403 59.8098 116.371 59.6172 116.376 59.4232C116.389 57.6077 116.369 55.7921 116.387 53.9766ZM117.42 54.9881C117.405 55.4577 117.407 55.9273 117.409 56.3982C117.943 56.3648 118.511 56.4878 119.02 56.2952C119.505 56.049 119.452 55.3747 119.092 55.0376C118.536 54.9894 117.977 54.972 117.42 54.9881ZM117.424 57.407C117.404 57.9247 117.407 58.4425 117.417 58.9603C118.021 58.9455 118.651 59.0432 119.237 58.8733C119.724 58.5669 119.647 57.8137 119.228 57.4779C118.631 57.3856 118.025 57.3976 117.424 57.407Z"/><path fill="#DD127B" d="M121.787 54.2553C122.743 53.7055 124.324 53.9182 124.728 55.0714C124.819 55.2895 124.841 55.525 124.876 55.7578C124.541 55.7685 124.207 55.7952 123.872 55.7738C123.743 55.4835 123.636 55.1383 123.321 54.9992C122.88 54.9029 122.403 54.9417 122.045 55.2427C122.045 55.4661 121.948 55.7778 122.197 55.9103C122.915 56.3678 123.877 56.3063 124.512 56.9164C125.373 57.7285 125.084 59.3781 123.987 59.837C123.393 60.039 122.737 60.0216 122.129 59.8972C121.315 59.643 120.929 58.7921 120.811 58.0067C121.141 57.9706 121.471 57.9372 121.801 57.9091C121.912 58.3091 122.079 58.7881 122.509 58.9379C122.975 59.0637 123.607 59.0543 123.891 58.5914C124.031 58.3091 124.033 57.8636 123.704 57.7097C123.132 57.3766 122.424 57.394 121.863 57.0261C120.8 56.5378 120.749 54.7998 121.787 54.2553Z"/></svg>