<svg xmlns="http://www.w3.org/2000/svg" width="66" height="40" fill="none" viewBox="0 0 66 40"><g clip-path="url(#clip0_4_2092)"><path fill="#FCB813" fill-rule="evenodd" d="M52.7969 0.00790514C51.3281 0.00790514 50.6641 0.347826 49.8672 1.2253L48 3.31225L46.1328 1.21739C45.2656 0.339921 44.6641 0 43.2031 0H41C41 0 44.3984 4.31621 44.8672 4.79051C45.6016 5.59684 46.0703 6 47.0703 6H48.8672C49.8672 6 50.3984 5.59684 51.1328 4.79051C51.5937 4.31621 55 0 55 0H52.7969V0.00790514Z" clip-rule="evenodd"/><path fill="#F37920" fill-rule="evenodd" d="M51.6536 6.05473C50.5297 6.27238 49.8934 6.54862 49.3232 7.48616L48.8274 8.27302L48.406 9.13522C47.844 10.0644 47.9101 10.7759 48.3316 11.9227C48.5464 12.5673 50.5875 18 50.5875 18L51.7858 15.9994C52.5625 14.6433 52.5625 13.8564 52.2072 12.6426L51.3643 9.78815L54.1905 9.14359C55.4548 8.85898 56.0911 8.4237 56.8679 7.07598L58 5C58 5 52.356 5.92917 51.6536 6.07147V6.05473Z" clip-rule="evenodd"/><path fill="#F6921E" fill-rule="evenodd" d="M47.6346 9.15196L47.1401 8.28976L46.7198 7.5029C46.1593 6.57373 45.5247 6.28912 44.3956 6.07147C43.695 5.92917 38 5 38 5L39.1951 7.07598C39.9615 8.43207 40.5961 8.85898 41.7994 9.14359L44.6758 9.78815L43.761 12.6426C43.4148 13.8564 43.4725 14.6433 44.2472 15.9994L45.3764 18C45.3764 18 47.4863 12.5673 47.6923 11.9227C48.0385 10.7759 48.1868 10.0644 47.6264 9.13522L47.6346 9.15196Z" clip-rule="evenodd"/><path fill="#0066B2" fill-rule="evenodd" d="M22.4233 11.0082H20.1477C19.7347 11.0082 19.4594 11.3591 19.4594 11.7019V26.9554C19.4594 27.3716 19.7347 27.6491 20.1477 27.6491H22.4233C22.8363 27.6491 23.1197 27.3716 23.1197 26.9554V11.71C23.1197 11.3673 22.8363 11.0163 22.4233 11.0163V11.0082ZM33.6147 11.0082V13.8646H30.092V17.627H33.6147V20.3365H30.092V24.7926H33.6147V27.6491H27.193C26.7071 27.6491 26.4318 27.3716 26.4318 26.7432V11.8488C26.4318 11.2938 26.7071 11.0163 27.2578 11.0163H33.6147V11.0082ZM16.1311 11.0082H14.131C13.5074 11.0082 13.305 11.2856 13.0944 12.1916C12.3332 15.3989 11.4343 20.4834 9.63658 23.193C9.63658 23.193 9.1588 23.8867 8.60004 23.8867C8.04128 23.8867 7.62828 23.193 7.62828 23.193C5.83054 20.4753 4.59155 15.3989 3.89512 12.1916C3.69267 11.2856 3.48213 11.0082 2.7938 11.0082H0.801699C0.242939 11.0082 0 11.3836 0 11.7753C0 11.8651 0.0161959 11.963 0.0404898 12.0528C0.664033 15.3989 1.77345 20.41 4.32431 24.7926C5.49852 26.8819 6.59984 28 8.60814 28C10.6164 28 11.7825 26.8819 12.9648 24.7926C15.5157 20.41 16.2769 15.3989 16.9005 12.0528C17.0381 11.5713 16.8357 11.0082 16.1392 11.0082H16.1311ZM33.6147 27.6491H35.129C38.5139 27.6491 41 26.1147 41 22.7033C41 20.6875 39.6881 19.0879 37.4774 18.59C37.5692 18.5465 37.6609 18.5002 37.7527 18.4513C38.9269 17.7576 39.8906 16.5742 39.8906 15.0398C39.8906 12.1181 37.6151 11 34.2949 11H33.6066V13.8565H33.7442C35.2585 13.8565 36.0926 14.4114 36.0926 15.6683C36.0926 16.9904 35.1209 17.6188 33.8819 17.6188H33.6066V20.3284H34.2949C35.9469 20.3284 37.1292 21.0221 37.1292 22.6217C37.1292 24.3601 35.6796 24.7763 34.2301 24.7763H33.6066V27.6327L33.6147 27.6491Z" clip-rule="evenodd"/><path fill="#0066B2" fill-rule="evenodd" d="M6.74276 39.7169V39.9919H6.60565C6.12172 39.9919 5.64585 39.9191 5.29903 39.6522L5.43615 39.3771C5.71038 39.5147 6.12978 39.7169 6.67824 39.7169H6.74276ZM6.74276 34.2002V34.5399C5.92008 34.6127 5.36356 35.2275 5.36356 36.2629C5.36356 37.1608 5.84749 37.9211 6.74276 37.9211V38.269H6.67824C5.71844 38.269 4.96028 37.4358 4.96028 36.3438C4.96028 34.9606 5.85555 34.273 6.75082 34.2002H6.74276ZM0.346817 38.269V35.4378C0.346817 34.5399 0.346817 33.9171 0.282293 33.2295H0.346817C0.621044 33.7877 0.96786 34.4024 1.44372 35.0253L3.58108 38.269H3.91983V32.6795H3.58108V35.5106C3.58108 36.3438 3.58108 36.9585 3.65367 37.7189L3.58108 37.7917C3.30686 37.2417 3.02456 36.6835 2.5487 35.996L0.346817 32.6795H0V38.269H0.346817ZM6.74276 39.9919C7.1541 39.9919 7.63803 39.8544 7.97678 39.5066C8.3236 39.2315 8.5333 38.7462 8.5333 37.7108V34.3296H8.18648L8.11389 34.9606C7.97678 34.6775 7.56544 34.2002 6.80728 34.2002H6.74276V34.5399H6.80728C7.50092 34.5399 7.91226 34.9606 8.04937 35.4378C8.11389 35.5753 8.11389 35.7128 8.11389 35.8584V36.6107C8.11389 36.7482 8.11389 36.9585 8.04937 37.0313C7.83967 37.6461 7.3638 37.9292 6.80728 37.9292H6.74276V38.277C7.42833 38.277 7.91226 37.9292 8.11389 37.5167V38.0748C8.11389 39.2477 7.56544 39.6603 6.74276 39.725V40V39.9919ZM10.9449 35.9232V36.1982C10.3964 36.3438 9.9125 36.6107 9.9125 37.2336C9.9125 37.7836 10.3238 38.0586 10.7352 38.0586H10.9368V38.3337C10.8723 38.3337 10.7997 38.4065 10.6626 38.4065C9.9125 38.4065 9.4931 37.7836 9.4931 37.2983C9.4931 36.5379 9.97703 36.0607 10.9368 35.9151L10.9449 35.9232ZM10.9449 34.2002V34.5399C10.5981 34.5399 10.1867 34.6127 9.9125 34.815L9.77539 34.5399C10.1867 34.3296 10.5981 34.2002 10.9449 34.2002ZM10.9449 32.6148V33.0273L10.5335 33.7149H10.1222L10.8804 32.6148H10.9449ZM20.0266 38.269H20.3735V35.8584C20.3735 35.7209 20.438 35.5834 20.438 35.4378C20.6396 34.9606 21.1236 34.5399 21.6801 34.5399C22.5028 34.5399 22.785 35.2275 22.785 35.9232V38.269H23.1964V35.8584C23.1964 34.4105 22.164 34.2002 21.7527 34.2002C21.4784 34.2002 21.2042 34.2649 20.9945 34.4752C20.7203 34.6127 20.5106 34.8231 20.446 35.0253H20.3815V32.4044H20.0347V38.269H20.0266ZM13.6952 38.269H14.042V35.8584C14.042 35.7209 14.1146 35.5834 14.1146 35.4378C14.3243 34.9606 14.7357 34.5399 15.3567 34.5399C16.1794 34.5399 16.4536 35.2275 16.4536 35.9232V38.269H16.865V35.9232C16.865 34.4024 15.8326 34.2002 15.4212 34.2002C14.8083 34.2002 14.2517 34.6127 14.042 35.0253L13.9775 34.3296H13.6307C13.6307 34.6047 13.7033 34.8797 13.7033 35.2275V38.2609L13.6952 38.269ZM10.9449 33.0273L11.0094 32.8898H11.0739L11.5579 33.7149H11.9692L11.1465 32.6148H10.9449V33.0273ZM10.9449 38.3418C11.4288 38.269 11.8402 37.9939 11.9773 37.7189L12.0499 38.269H12.3886V35.7856C12.3886 35.0981 12.1144 34.2002 11.0175 34.2002H10.953V34.5399C11.9127 34.5399 11.9853 35.3003 11.9853 35.7128V35.8504C11.574 35.8504 11.2272 35.8504 10.953 35.9151V36.1901C11.2998 36.1254 11.6385 36.1254 11.9853 36.1254V37.0233C11.9853 37.088 11.9853 37.1608 11.9208 37.2255C11.7837 37.5733 11.5095 37.913 10.961 38.0506V38.3256L10.9449 38.3418ZM25.5999 35.9232V36.1982C24.9789 36.3438 24.5675 36.6107 24.5675 37.2336C24.5675 37.7836 24.9143 38.0586 25.3902 38.0586H25.5999V38.3337C25.4628 38.3337 25.3902 38.4065 25.3257 38.4065C24.503 38.4065 24.1562 37.7836 24.1562 37.2983C24.1562 36.5379 24.6401 36.0607 25.5999 35.9151V35.9232ZM25.5999 34.2002V34.5399H25.5273C25.1805 34.5399 24.8417 34.6127 24.5675 34.815L24.4304 34.5399C24.7772 34.3296 25.1886 34.2002 25.5999 34.2002ZM25.5999 33.2295V33.7149L24.5675 32.6148H25.1886L25.5999 33.2295ZM28.2857 38.269H28.6971V35.8584C28.6971 35.7209 28.6971 35.5834 28.7696 35.4378C28.9068 34.9606 29.3907 34.5399 29.9391 34.5399C30.7618 34.5399 31.0441 35.2275 31.0441 35.9232V38.269H31.4555V35.9232C31.4555 34.4024 30.4231 34.2002 30.0843 34.2002C29.3907 34.2002 28.9148 34.6127 28.7051 35.0253H28.6406V34.3296H28.2938V38.269H28.2857ZM25.5999 33.7149H25.8741L25.5999 33.2295V33.7149ZM25.5999 38.3418C26.0838 38.269 26.4226 37.9939 26.6323 37.7189L26.7049 38.269H27.0436C26.971 37.9939 26.971 37.6461 26.971 37.3711V35.7856C26.971 35.0981 26.7694 34.2002 25.5918 34.2002V34.5399C26.4871 34.5399 26.5516 35.3003 26.5516 35.7128V35.8504C26.2129 35.8504 25.8661 35.8504 25.5918 35.9151V36.1901C25.8661 36.1254 26.2774 36.1254 26.5516 36.1254V37.2336C26.4145 37.5814 26.0677 37.9211 25.5918 38.0586V38.3337L25.5999 38.3418ZM34.2058 39.7169V39.9919H34.0687C33.5848 39.9919 33.1089 39.9191 32.8266 39.6522L32.9637 39.3771C33.2379 39.5147 33.5848 39.7169 34.1332 39.7169H34.2058ZM34.2058 34.2002V34.5399C33.3831 34.6127 32.8266 35.2275 32.8266 36.2629C32.8266 37.1608 33.3105 37.9211 34.2058 37.9211V38.269C33.1734 38.269 32.4798 37.4358 32.4798 36.3438C32.4798 34.9606 33.375 34.273 34.2058 34.2002ZM34.2058 39.9919C34.6171 39.9919 35.1011 39.8544 35.4479 39.5066C35.7866 39.2315 35.9963 38.7462 35.9963 37.7108V34.3296H35.6576V34.9606C35.4559 34.6775 35.0365 34.2002 34.2784 34.2002H34.2139V34.5399H34.2784C34.964 34.5399 35.3834 34.9606 35.5205 35.4378C35.5931 35.5753 35.5931 35.7128 35.5931 35.8584V36.6107C35.5931 36.7482 35.5931 36.9585 35.5205 37.0313C35.3188 37.6461 34.8349 37.9292 34.2784 37.9292H34.2139V38.277C34.8994 38.277 35.3834 37.9292 35.5931 37.5167V38.0748C35.5931 39.2477 35.0365 39.6603 34.2139 39.725V40L34.2058 39.9919ZM41.2954 32.6148V32.9626C39.9162 32.9626 39.2306 34.273 39.2306 35.5834C39.2306 36.8291 39.9888 38.0667 41.2954 38.0667V38.4146C39.9162 38.3418 38.8112 37.3792 38.8112 35.5834C38.8112 33.7877 39.9081 32.6148 41.2954 32.6148ZM47.901 34.3377H47.4897V36.7563C47.4897 36.9666 47.4897 37.1041 47.4252 37.2417C47.288 37.6542 46.8041 38.002 46.2557 38.002C45.433 38.002 45.1587 37.3792 45.1587 36.5541V34.3458H44.8119V36.6188C44.8119 38.1395 45.6427 38.4146 46.1185 38.4146C46.8767 38.4146 47.3606 37.9292 47.4897 37.5895H47.5623V38.277H47.9091V34.3377H47.901ZM41.2954 38.4146C41.4325 38.4146 41.497 38.4146 41.6341 38.4874C42.1906 38.6249 43.0133 38.8352 43.7715 39.0374L43.836 38.6249C43.3601 38.5521 42.6665 38.4146 42.0455 38.277V38.2042C43.0778 37.9292 43.836 36.9585 43.836 35.4459C43.836 33.723 42.8036 32.6229 41.3599 32.6229H41.2954V32.9707H41.3599C42.7391 32.9707 43.4247 34.2811 43.4247 35.454C43.4247 36.8372 42.6665 38.0748 41.2954 38.0748V38.4226V38.4146ZM50.7885 34.2083V34.548C49.7561 34.548 49.3447 35.4459 49.3447 36.3438C49.3447 37.3064 49.9577 38.0667 50.7885 38.0667V38.4146C49.7561 38.4146 48.9334 37.5895 48.9334 36.3438C48.9334 34.9606 49.8287 34.2002 50.7885 34.2002V34.2083ZM50.7885 32.6229V32.9707L50.3771 33.731H50.0303L50.6514 32.6309H50.7885V32.6229ZM51.6111 37.7998C51.4095 37.9373 51.1353 38.0748 50.7885 38.0748V38.4226C51.0627 38.3498 51.3369 38.3498 51.6111 38.2123V37.7998ZM51.6111 34.4186C51.4095 34.2811 51.1353 34.2164 50.7885 34.2164V34.5561C51.1353 34.5561 51.4095 34.6289 51.6111 34.8311V34.4186ZM51.6111 33.5935L50.9901 32.6309H50.7804V32.9788V32.906H50.853L51.3369 33.731H51.6111V33.5935ZM51.6111 32.8332V32.9707H51.5386L51.6111 32.8332ZM60.0073 38.2851H60.4187V33.0435H62.2737V32.6957H58.1442V33.0435H59.9993V38.2851H60.0073ZM56.3617 37.7998C56.152 37.9373 55.8778 38.002 55.3939 38.002C54.4341 38.002 53.7404 37.3792 53.7404 36.3519C53.7404 35.3812 54.2889 34.5561 55.3939 34.5561C55.8778 34.5561 56.152 34.6936 56.3617 34.8311L56.4988 34.4833C56.3617 34.3458 55.9504 34.2083 55.4665 34.2083C54.2244 34.2083 53.4017 35.1062 53.4017 36.3519C53.4017 37.5167 54.1598 38.4226 55.3293 38.4226C55.8778 38.4226 56.2972 38.2123 56.4988 38.1476L56.3617 37.8079V37.7998ZM51.6111 32.9707V32.8332L52.0305 32.0081H52.579L51.8209 32.9788H51.6111V32.9707ZM51.6111 33.731V33.5935L51.6837 33.731H51.6111ZM51.6111 38.2123V37.7998C52.0306 37.452 52.2967 36.9666 52.2967 36.2791C52.2967 35.7937 52.087 35.1709 51.6111 34.8311V34.4186C52.2967 34.6936 52.7161 35.3893 52.7161 36.2791C52.7161 37.3145 52.2322 37.9373 51.6111 38.2123ZM64.2095 34.2083V34.548C63.3142 34.6208 62.9754 35.3812 62.9028 35.9312H64.2095V36.2791H62.9028C62.9028 37.3873 63.4513 37.9373 64.2095 38.002V38.3498C63.1126 38.277 62.4915 37.452 62.4915 36.3519C62.4915 35.1062 63.1771 34.2811 64.2095 34.2083ZM64.2095 32.6229V33.1082L63.8626 33.731H63.4513L64.1369 32.6309H64.2095V32.6229ZM65.1047 38.002H64.2095V38.3498C64.274 38.3498 64.274 38.4226 64.3466 38.4226C64.6208 38.4226 64.895 38.3498 65.1047 38.3498V38.002ZM65.1047 35.9312H64.2095V36.2791H65.1047V35.9312ZM65.1047 34.4105C64.9031 34.273 64.6208 34.2083 64.2821 34.2083H64.2175V34.548H64.2821C64.6208 34.548 64.9031 34.6855 65.1047 34.8959V34.4105ZM65.1047 33.5854L64.4837 32.6229H64.2095V33.1082L64.274 32.8979H64.3466L64.7579 33.723H65.1047V33.5854ZM65.1047 32.8251V32.9626H64.9676L65.1047 32.8251ZM65.1047 32.9626V32.8251L65.5161 32H66L65.3144 32.9707H65.1047V32.9626ZM65.1047 33.723V33.5854L65.1693 33.723H65.1047ZM65.1047 36.271V35.9232H65.4515C65.4515 35.5753 65.387 35.1628 65.1047 34.8878V34.4024C65.7258 34.7503 65.8629 35.5753 65.8629 35.996V36.271H65.1047ZM65.1047 38.3418V37.9939C65.3144 37.9211 65.4515 37.8564 65.5161 37.7917L65.6532 38.1314C65.5161 38.2042 65.379 38.269 65.1047 38.3418Z" clip-rule="evenodd"/><path fill="#0066B2" fill-rule="evenodd" d="M65.516 32L64.9674 32.9687H65.3143L66 32H65.516ZM64.1364 32.6216H64.4833L65.1691 33.7195H64.7576L64.3462 32.8961H64.2736L63.8621 33.7195H63.4507L64.1364 32.6216ZM62.9021 35.9233C62.9666 35.3017 63.3781 34.5429 64.2736 34.5429C65.2336 34.5429 65.4433 35.3744 65.4433 35.9233H62.9021ZM65.8548 36.2704V35.996C65.8548 35.439 65.645 34.2038 64.2736 34.2038C63.2409 34.2038 62.4826 35.0272 62.4826 36.3431C62.4826 37.5056 63.2409 38.4097 64.3381 38.4097C65.0964 38.4097 65.5079 38.1998 65.645 38.1352L65.5079 37.7962C65.3062 37.9334 65.0319 37.998 64.4107 37.998C63.5878 37.998 62.9021 37.5136 62.9021 36.2785H65.8548V36.2704ZM60.0059 38.2725H60.4173V33.0414H62.2728V32.6942H58.1423V33.0414H59.9978V38.2725H60.0059ZM56.3594 37.7881C56.1496 37.9253 55.8753 37.9899 55.3913 37.9899C54.4312 37.9899 53.7374 37.3683 53.7374 36.3431C53.7374 35.3744 54.286 34.551 55.3913 34.551C55.8753 34.551 56.1496 34.6882 56.3594 34.8254L56.4965 34.4783C56.3594 34.3411 55.9479 34.2038 55.4639 34.2038C54.2215 34.2038 53.3986 35.0999 53.3986 36.3431C53.3986 37.5056 54.1569 38.4097 55.3267 38.4097C55.8753 38.4097 56.2948 38.1998 56.4965 38.1352L56.3594 37.7962V37.7881ZM52.0191 32L51.535 32.9687H51.8093L52.5677 32H52.0191ZM50.6395 32.6216H50.9784L51.6641 33.7195H51.3253L50.8412 32.8961H50.7686L50.3572 33.7195H50.0103L50.6315 32.6216H50.6395ZM50.7767 34.551C51.8819 34.551 52.2934 35.5843 52.2934 36.2704C52.2934 37.3037 51.6076 38.0626 50.7767 38.0626C49.9457 38.0626 49.3326 37.3037 49.3326 36.3431C49.3326 35.439 49.744 34.551 50.7767 34.551ZM50.7767 34.2119C49.8086 34.2119 48.9212 34.9707 48.9212 36.3512C48.9212 37.5943 49.7521 38.4178 50.7767 38.4178C51.6722 38.4178 52.7048 37.7235 52.7048 36.2785C52.7048 35.0434 51.9465 34.22 50.7767 34.22V34.2119ZM47.8885 34.3491H47.4771V36.7629C47.4771 36.9728 47.4771 37.11 47.4125 37.2472C47.2754 37.6589 46.7913 38.0061 46.2428 38.0061C45.4199 38.0061 45.1456 37.3845 45.1456 36.5611V34.3572H44.7987V36.6256C44.7987 38.1433 45.6296 38.4178 46.1056 38.4178C46.864 38.4178 47.348 37.9334 47.4771 37.5943H47.5497V38.2805H47.8966V34.3491H47.8885ZM41.2813 38.0706C39.9743 38.0706 39.216 36.8274 39.216 35.5923C39.216 34.2846 39.9017 32.9768 41.3539 32.9768C42.806 32.9768 43.4191 34.2846 43.4191 35.4551C43.4191 36.8355 42.6608 38.0706 41.2893 38.0706H41.2813ZM43.8225 38.6276C43.3465 38.555 42.6527 38.4178 42.0315 38.2805V38.2079C43.0642 37.9334 43.8225 36.9647 43.8225 35.4551C43.8225 33.7356 42.7899 32.6377 41.3458 32.6377C39.9017 32.6377 38.7965 33.7356 38.7965 35.6004C38.7965 37.4652 39.8937 38.3532 41.2813 38.4258C41.4184 38.4258 41.483 38.4258 41.6201 38.4985C42.1768 38.6357 42.9996 38.8456 43.758 39.0474L43.8225 38.6357V38.6276ZM35.5695 36.6256C35.5695 36.7629 35.5695 36.9728 35.4969 37.0454C35.2952 37.6589 34.8111 37.9415 34.2545 37.9415C33.2945 37.9415 32.8104 37.1826 32.8104 36.2866C32.8104 35.2533 33.4316 34.5671 34.2545 34.5671C34.9402 34.5671 35.3597 34.9869 35.4969 35.4632C35.5695 35.6004 35.5695 35.7376 35.5695 35.8829V36.6337V36.6256ZM35.9809 35.3179V34.3491H35.6421V34.9788C35.4404 34.6963 35.0209 34.22 34.2626 34.22C33.3671 34.22 32.4716 34.9788 32.4716 36.3592C32.4716 37.4571 33.1573 38.2805 34.198 38.2805C34.8838 38.2805 35.3678 37.9334 35.5776 37.5217V38.0787C35.5776 39.2492 34.9564 39.7255 34.1335 39.7255C33.5849 39.7255 33.238 39.5237 32.9637 39.3865L32.8266 39.661C33.1008 39.9354 33.5849 40 34.0689 40C34.553 40 35.1016 39.8628 35.4485 39.5156C35.7873 39.2412 35.9971 38.7568 35.9971 37.7235V35.3179H35.9809ZM28.2765 38.2805H28.6879V35.8749C28.6879 35.7376 28.6879 35.6004 28.7605 35.4551C28.8977 34.9788 29.3817 34.559 29.9303 34.559C30.7532 34.559 31.0356 35.2452 31.0356 35.9395V38.2805H31.447V35.9395C31.447 34.4218 30.4144 34.22 30.0755 34.22C29.3817 34.22 28.9058 34.6317 28.696 35.0434H28.6315V34.3491H28.2846V38.2805H28.2765ZM26.5501 37.0454V37.2472C26.4129 37.6589 26.0015 38.0706 25.3803 38.0706C24.9043 38.0706 24.5574 37.7962 24.5574 37.2472C24.5574 36.2785 25.7272 36.1413 26.5501 36.1413V37.0373V37.0454ZM26.9615 35.8022C26.9615 35.116 26.7598 34.22 25.582 34.22C25.2351 34.22 24.7591 34.3572 24.4122 34.559L24.5493 34.8335C24.8236 34.6236 25.1705 34.559 25.5094 34.559C26.4774 34.559 26.542 35.3179 26.542 35.7296V35.8668C24.9608 35.7941 24.1379 36.3512 24.1379 37.3118C24.1379 37.7962 24.4848 38.4178 25.3077 38.4178C25.9289 38.4178 26.4129 38.0061 26.6146 37.7235L26.6872 38.2725H27.026C26.9534 37.998 26.9534 37.6509 26.9534 37.3764V35.7941L26.9615 35.8022ZM24.5574 32.6377L25.59 33.7356H25.8643L25.1786 32.6377H24.5574ZM20.0154 38.2805H20.3623V35.8749C20.3623 35.7376 20.4268 35.6004 20.4268 35.4551C20.6285 34.9788 21.1126 34.559 21.6692 34.559C22.4921 34.559 22.7745 35.2452 22.7745 35.9395V38.2805H23.1859V35.8749C23.1859 34.4299 22.1533 34.22 21.7418 34.22C21.4675 34.22 21.1933 34.2846 20.9835 34.4945C20.7092 34.6317 20.4995 34.8416 20.4349 35.0434H20.3704V32.4278H20.0235V38.2805H20.0154ZM13.6824 38.2805H14.0293V35.8749C14.0293 35.7376 14.1019 35.6004 14.1019 35.4551C14.3117 34.9788 14.7231 34.559 15.3443 34.559C16.1672 34.559 16.4415 35.2452 16.4415 35.9395V38.2805H16.853V35.9395C16.853 34.4218 15.8203 34.22 15.4089 34.22C14.7957 34.22 14.2391 34.6317 14.0293 35.0434L13.9648 34.3491H13.6179C13.6179 34.6236 13.6905 34.8981 13.6905 35.2452V38.2725L13.6824 38.2805ZM11.9641 37.0454C11.9641 37.11 11.9641 37.1826 11.8995 37.2472C11.7624 37.6589 11.4155 38.0706 10.7297 38.0706C10.3183 38.0706 9.90686 37.7962 9.90686 37.2472C9.90686 36.2785 11.0686 36.1413 11.9721 36.1413V37.0373L11.9641 37.0454ZM12.3755 35.8022C12.3755 35.116 12.1012 34.22 11.004 34.22C10.5926 34.22 10.1812 34.3572 9.76971 34.559L9.90686 34.8335C10.1812 34.6236 10.5926 34.559 10.9395 34.559C11.8995 34.559 11.9721 35.3179 11.9721 35.7296V35.8668C10.3183 35.7941 9.49542 36.3512 9.49542 37.3118C9.49542 37.7962 9.91493 38.4178 10.6652 38.4178C11.359 38.4178 11.7704 38.0061 11.9721 37.7235L12.0447 38.2725H12.3836V35.7941L12.3755 35.8022ZM10.8669 32.6377L10.1085 33.7356H10.52L11.004 32.9122H11.0686L11.5526 33.7356H11.9641L11.1412 32.6377H10.8669ZM8.10781 36.6256C8.10781 36.7629 8.10781 36.9728 8.04327 37.0454C7.83352 37.6589 7.35754 37.9415 6.80088 37.9415C5.84085 37.9415 5.3568 37.1826 5.3568 36.2866C5.3568 35.2533 5.978 34.5671 6.80088 34.5671C7.49468 34.5671 7.90612 34.9869 8.04327 35.4632C8.10781 35.6004 8.10781 35.7376 8.10781 35.8829V36.6337V36.6256ZM8.52732 35.3179V34.3491H8.18042L8.10781 34.9788C7.97066 34.6963 7.55922 34.22 6.80088 34.22C5.90539 34.22 4.94536 34.9788 4.94536 36.3592C4.94536 37.4571 5.7037 38.2805 6.66373 38.2805C7.42208 38.2805 7.90612 37.9334 8.10781 37.5217V38.0787C8.10781 39.2492 7.49468 39.7255 6.66373 39.7255C6.11515 39.7255 5.7037 39.5237 5.42134 39.3865L5.28419 39.661C5.6311 39.9354 6.11515 40 6.59113 40C7.00257 40 7.55922 39.8628 7.97066 39.5156C8.31757 39.2412 8.52732 38.7568 8.52732 37.7235V35.3179ZM0.346901 38.2725V35.447C0.346901 34.551 0.346901 33.9294 0.282362 33.2432H0.346901C0.621195 33.8002 0.968097 34.4137 1.44408 35.0353L3.58196 38.2725H3.92079V32.6942H3.58196V35.5197C3.58196 36.3512 3.58196 36.9647 3.65457 37.7235L3.58196 37.7962C3.30766 37.2472 3.0253 36.6902 2.54932 36.004L0.346901 32.6942H0V38.2725H0.346901Z" clip-rule="evenodd"/></g><defs><clipPath id="clip0_4_2092"><rect width="66" height="40" fill="#fff"/></clipPath></defs></svg>