<svg xmlns="http://www.w3.org/2000/svg" width="240" height="80" fill="none" viewBox="0 0 240 80"><path fill="#FCB813" fill-rule="evenodd" d="M145.055 15.0101C143.162 15.0101 142.306 15.4429 141.279 16.5603L138.872 19.2178L136.465 16.5502C135.347 15.4329 134.572 15 132.689 15H129.849C129.849 15 134.23 20.4963 134.834 21.1003C135.78 22.127 136.385 22.6404 137.674 22.6404H139.99C141.279 22.6404 141.964 22.127 142.91 21.1003C143.505 20.4963 147.895 15 147.895 15H145.055V15.0101Z" clip-rule="evenodd"/><path fill="#F37920" fill-rule="evenodd" d="M143.515 22.137C142.145 22.3988 141.37 22.7309 140.675 23.8584L140.07 24.8046L139.557 25.8415C138.872 26.9588 138.953 27.8145 139.466 29.1936C139.728 29.9687 142.215 36.5018 142.215 36.5018L143.676 34.096C144.622 32.4652 144.622 31.5189 144.189 30.0593L143.162 26.6267L146.606 25.8515C148.147 25.5093 148.922 24.9858 149.869 23.3651L151.249 20.8687C151.249 20.8687 144.371 21.986 143.515 22.1572V22.137Z" clip-rule="evenodd"/><path fill="#F6921E" fill-rule="evenodd" d="M138.187 25.8318L137.583 24.795L137.069 23.8487C136.385 22.7314 135.609 22.3891 134.23 22.1274C133.374 21.9562 126.415 20.8389 126.415 20.8389L127.875 23.3353C128.812 24.9661 129.587 25.4795 131.057 25.8218L134.572 26.5969L133.454 30.0295C133.031 31.4892 133.102 32.4354 134.048 34.0662L135.428 36.472C135.428 36.472 138.006 29.9389 138.258 29.1638C138.681 27.7847 138.862 26.9291 138.177 25.8117L138.187 25.8318Z" clip-rule="evenodd"/><path fill="#0066B2" fill-rule="evenodd" d="M106.657 29.0023H103.827C103.313 29.0023 102.971 29.4351 102.971 29.8579V48.6721C102.971 49.1855 103.313 49.5277 103.827 49.5277H106.657C107.17 49.5277 107.523 49.1855 107.523 48.6721V29.868C107.523 29.4452 107.17 29.0123 106.657 29.0123V29.0023ZM120.574 29.0023V32.5255H116.193V37.1661H120.574V40.5082H116.193V46.0045H120.574V49.5277H112.588C111.984 49.5277 111.641 49.1855 111.641 48.4103V30.0391C111.641 29.3546 111.984 29.0123 112.669 29.0123H120.574V29.0023ZM98.8318 29.0023H96.3444C95.569 29.0023 95.3172 29.3445 95.0554 30.4619C94.1088 34.418 92.9909 40.6894 90.7553 44.0314C90.7553 44.0314 90.1611 44.8871 89.4663 44.8871C88.7714 44.8871 88.2578 44.0314 88.2578 44.0314C86.0221 40.6793 84.4814 34.418 83.6153 30.4619C83.3635 29.3445 83.1017 29.0023 82.2457 29.0023H79.7684C79.0735 29.0023 78.7714 29.4653 78.7714 29.9485C78.7714 30.0592 78.7915 30.18 78.8217 30.2908C79.5972 34.418 80.9768 40.5988 84.149 46.0045C85.6093 48.5815 86.9788 49.9606 89.4763 49.9606C91.9738 49.9606 93.424 48.5815 94.8943 46.0045C98.0665 40.5988 99.0131 34.418 99.7885 30.2908C99.9597 29.6968 99.7079 29.0023 98.8419 29.0023H98.8318ZM120.574 49.5277H122.457C126.667 49.5277 129.758 47.6352 129.758 43.4275C129.758 40.941 128.127 38.968 125.378 38.354C125.492 38.3003 125.606 38.2432 125.72 38.1828C127.18 37.3272 128.379 35.8676 128.379 33.9751C128.379 30.3713 125.549 28.9922 121.42 28.9922H120.564V32.5154H120.735C122.618 32.5154 123.656 33.2 123.656 34.7502C123.656 36.381 122.447 37.1561 120.906 37.1561H120.564V40.4981H121.42C123.474 40.4981 124.945 41.3538 124.945 43.3268C124.945 45.4709 123.142 45.9843 121.339 45.9843H120.564V49.5076L120.574 49.5277Z" clip-rule="evenodd"/><path fill="#0066B2" fill-rule="evenodd" d="M87.2407 64.6478V64.9901H87.0695C86.4653 64.9901 85.8711 64.8995 85.4381 64.5673L85.6093 64.225C85.9517 64.3962 86.4753 64.6478 87.1601 64.6478H87.2407ZM87.2407 57.7825V58.2053C86.2135 58.2959 85.5186 59.0609 85.5186 60.3494C85.5186 61.4668 86.1229 62.4131 87.2407 62.4131V62.8459H87.1601C85.9617 62.8459 85.0151 61.8091 85.0151 60.4501C85.0151 58.7287 86.1329 57.8731 87.2507 57.7825H87.2407ZM79.2548 62.8459V59.3227C79.2548 58.2053 79.2548 57.4302 79.1742 56.5745H79.2548C79.5972 57.2691 80.0302 58.0342 80.6244 58.8093L83.293 62.8459H83.716V55.89H83.293V59.4133C83.293 60.4501 83.293 61.2152 83.3837 62.1614L83.293 62.252C82.9506 61.5675 82.5982 60.8729 82.004 60.0173L79.2548 55.89H78.8217V62.8459H79.2548ZM87.2407 64.9901C87.7543 64.9901 88.3585 64.8189 88.7815 64.3861C89.2145 64.0438 89.4763 63.4398 89.4763 62.1513V57.9436H89.0433L88.9527 58.7287C88.7815 58.3764 88.2679 57.7825 87.3212 57.7825H87.2407V58.2053H87.3212C88.1873 58.2053 88.7009 58.7288 88.8721 59.3227C88.9527 59.4938 88.9527 59.6649 88.9527 59.8461V60.7823C88.9527 60.9534 88.9527 61.2152 88.8721 61.3058C88.6103 62.0708 88.0161 62.4231 87.3212 62.4231H87.2407V62.856C88.0967 62.856 88.7009 62.4231 88.9527 61.9097V62.6043C88.9527 64.064 88.2679 64.5774 87.2407 64.6579V65.0001V64.9901ZM92.4874 59.9267V60.2689C91.8026 60.4501 91.1984 60.7823 91.1984 61.5574C91.1984 62.2419 91.712 62.5842 92.2256 62.5842H92.4773V62.9265C92.3968 62.9265 92.3061 63.0171 92.1349 63.0171C91.1984 63.0171 90.6747 62.2419 90.6747 61.638C90.6747 60.6917 91.2789 60.0978 92.4773 59.9166L92.4874 59.9267ZM92.4874 57.7825V58.2053C92.0544 58.2053 91.5408 58.2959 91.1984 58.5476L91.0272 58.2053C91.5408 57.9436 92.0544 57.7825 92.4874 57.7825ZM92.4874 55.8095V56.3229L91.9738 57.1785H91.4602L92.4068 55.8095H92.4874ZM103.827 62.8459H104.26V59.8461C104.26 59.675 104.34 59.5039 104.34 59.3227C104.592 58.7288 105.196 58.2053 105.891 58.2053C106.918 58.2053 107.271 59.0609 107.271 59.9267V62.8459H107.784V59.8461C107.784 58.0442 106.495 57.7825 105.982 57.7825C105.639 57.7825 105.297 57.863 105.035 58.1248C104.693 58.2959 104.431 58.5576 104.35 58.8093H104.27V55.5478H103.837V62.8459H103.827ZM95.9214 62.8459H96.3545V59.8461C96.3545 59.675 96.4451 59.5039 96.4451 59.3227C96.7069 58.7288 97.2205 58.2053 97.996 58.2053C99.0232 58.2053 99.3656 59.0609 99.3656 59.9267V62.8459H99.8791V59.9267C99.8791 58.0342 98.5901 57.7825 98.0765 57.7825C97.3112 57.7825 96.6163 58.2959 96.3545 58.8093L96.2739 57.9436H95.8409C95.8409 58.2858 95.9315 58.6281 95.9315 59.0609V62.8359L95.9214 62.8459ZM92.4874 56.3229L92.568 56.1517H92.6485L93.2528 57.1785H93.7664L92.7392 55.8095H92.4874V56.3229ZM92.4874 62.9365C93.0916 62.8459 93.6052 62.5037 93.7764 62.1614L93.8671 62.8459H94.29V59.7555C94.29 58.8999 93.9476 57.7825 92.578 57.7825H92.4975V58.2053C93.6959 58.2053 93.7865 59.1515 93.7865 59.6649V59.8361C93.2729 59.8361 92.8399 59.8361 92.4975 59.9166V60.2588C92.9305 60.1783 93.3535 60.1783 93.7865 60.1783V61.2957C93.7865 61.3762 93.7865 61.4668 93.7059 61.5474C93.5347 61.9802 93.1923 62.403 92.5075 62.5741V62.9164L92.4874 62.9365ZM110.785 59.9267V60.2689C110.01 60.4501 109.496 60.7823 109.496 61.5574C109.496 62.2419 109.93 62.5842 110.524 62.5842H110.785V62.9265C110.614 62.9265 110.524 63.0171 110.443 63.0171C109.416 63.0171 108.983 62.2419 108.983 61.638C108.983 60.6917 109.587 60.0978 110.785 59.9166V59.9267ZM110.785 57.7825V58.2053H110.695C110.262 58.2053 109.839 58.2959 109.496 58.5476L109.325 58.2053C109.758 57.9436 110.272 57.7825 110.785 57.7825ZM110.785 56.5745V57.1785L109.496 55.8095H110.272L110.785 56.5745ZM114.139 62.8459H114.653V59.8461C114.653 59.675 114.653 59.5039 114.743 59.3227C114.914 58.7288 115.519 58.2053 116.203 58.2053C117.231 58.2053 117.583 59.0609 117.583 59.9267V62.8459H118.097V59.9267C118.097 58.0342 116.808 57.7825 116.385 57.7825C115.519 57.7825 114.924 58.2959 114.663 58.8093H114.582V57.9436H114.149V62.8459H114.139ZM110.785 57.1785H111.128L110.785 56.5745V57.1785ZM110.785 62.9365C111.39 62.8459 111.813 62.5037 112.075 62.1614L112.165 62.8459H112.588C112.497 62.5037 112.497 62.0708 112.497 61.7285V59.7555C112.497 58.8999 112.246 57.7825 110.775 57.7825V58.2053C111.893 58.2053 111.974 59.1515 111.974 59.6649V59.8361C111.551 59.8361 111.118 59.8361 110.775 59.9166V60.2588C111.118 60.1783 111.631 60.1783 111.974 60.1783V61.5574C111.803 61.9903 111.37 62.4131 110.775 62.5842V62.9265L110.785 62.9365ZM121.531 64.6478V64.9901H121.36C120.755 64.9901 120.161 64.8995 119.809 64.5673L119.98 64.225C120.322 64.3962 120.755 64.6478 121.44 64.6478H121.531ZM121.531 57.7825V58.2053C120.504 58.2959 119.809 59.0609 119.809 60.3494C119.809 61.4668 120.413 62.4131 121.531 62.4131V62.8459C120.242 62.8459 119.376 61.8091 119.376 60.4501C119.376 58.7287 120.493 57.8731 121.531 57.7825ZM121.531 64.9901C122.044 64.9901 122.649 64.8189 123.082 64.3861C123.505 64.0438 123.766 63.4398 123.766 62.1513V57.9436H123.343V58.7287C123.092 58.3764 122.568 57.7825 121.621 57.7825H121.541V58.2053H121.621C122.477 58.2053 123.001 58.7288 123.172 59.3227C123.263 59.4938 123.263 59.6649 123.263 59.8461V60.7823C123.263 60.9534 123.263 61.2152 123.172 61.3058C122.92 62.0708 122.316 62.4231 121.621 62.4231H121.541V62.856C122.397 62.856 123.001 62.4231 123.263 61.9097V62.6043C123.263 64.064 122.568 64.5774 121.541 64.6579V65.0001L121.531 64.9901ZM130.383 55.8095V56.2423C128.661 56.2423 127.805 57.8731 127.805 59.5039C127.805 61.0541 128.751 62.5943 130.383 62.5943V63.0271C128.661 62.9365 127.281 61.7386 127.281 59.5039C127.281 57.2691 128.651 55.8095 130.383 55.8095ZM138.63 57.9536H138.117V60.9635C138.117 61.2252 138.117 61.3964 138.036 61.5675C137.865 62.0809 137.261 62.5137 136.576 62.5137C135.549 62.5137 135.206 61.7386 135.206 60.7118V57.9637H134.773V60.7924C134.773 62.6849 135.811 63.0271 136.405 63.0271C137.351 63.0271 137.956 62.4231 138.117 62.0003H138.207V62.856H138.64V57.9536H138.63ZM130.383 63.0271C130.554 63.0271 130.634 63.0271 130.806 63.1177C131.5 63.2888 132.528 63.5506 133.474 63.8022L133.555 63.2888C132.961 63.1982 132.095 63.0271 131.319 62.856V62.7654C132.608 62.4231 133.555 61.2152 133.555 59.3327C133.555 57.1886 132.266 55.8195 130.463 55.8195H130.383V56.2524H130.463C132.185 56.2524 133.041 57.8832 133.041 59.3428C133.041 61.0642 132.095 62.6043 130.383 62.6043V63.0372V63.0271ZM142.236 57.7926V58.2154C140.947 58.2154 140.433 59.3327 140.433 60.4501C140.433 61.648 141.198 62.5943 142.236 62.5943V63.0271C140.947 63.0271 139.919 62.0003 139.919 60.4501C139.919 58.7287 141.037 57.7825 142.236 57.7825V57.7926ZM142.236 55.8195V56.2524L141.722 57.1987H141.289L142.064 55.8296H142.236V55.8195ZM143.263 62.2621C143.011 62.4332 142.669 62.6043 142.236 62.6043V63.0372C142.578 62.9466 142.92 62.9466 143.263 62.7755V62.2621ZM143.263 58.0543C143.011 57.8832 142.669 57.8026 142.236 57.8026V58.2254C142.669 58.2254 143.011 58.316 143.263 58.5677V58.0543ZM143.263 57.0275L142.487 55.8296H142.226V56.2625V56.1719H142.316L142.92 57.1987H143.263V57.0275ZM143.263 56.0813V56.2524H143.172L143.263 56.0813ZM153.746 62.8661H154.26V56.343H156.576V55.9101H151.42V56.343H153.736V62.8661H153.746ZM149.194 62.2621C148.933 62.4332 148.59 62.5137 147.986 62.5137C146.788 62.5137 145.921 61.7386 145.921 60.4602C145.921 59.2522 146.606 58.2254 147.986 58.2254C148.59 58.2254 148.933 58.3966 149.194 58.5677L149.366 58.1348C149.194 57.9637 148.681 57.7926 148.077 57.7926C146.526 57.7926 145.498 58.9099 145.498 60.4602C145.498 61.9097 146.445 63.0372 147.905 63.0372C148.59 63.0372 149.114 62.7755 149.366 62.6949L149.194 62.2721V62.2621ZM143.263 56.2524V56.0813L143.786 55.0545H144.471L143.525 56.2625H143.263V56.2524ZM143.263 57.1987V57.0275L143.353 57.1987H143.263ZM143.263 62.7755V62.2621C143.786 61.8292 144.119 61.2252 144.119 60.3696C144.119 59.7656 143.857 58.9905 143.263 58.5677V58.0543C144.119 58.3966 144.642 59.2623 144.642 60.3696C144.642 61.6581 144.038 62.4332 143.263 62.7755ZM158.993 57.7926V58.2154C157.875 58.306 157.452 59.2522 157.362 59.9367H158.993V60.3696H157.362C157.362 61.7487 158.046 62.4332 158.993 62.5137V62.9466C157.623 62.856 156.848 61.8292 156.848 60.4602C156.848 58.9099 157.704 57.8832 158.993 57.7926ZM158.993 55.8195V56.4235L158.56 57.1987H158.046L158.902 55.8296H158.993V55.8195ZM160.111 62.5137H158.993V62.9466C159.074 62.9466 159.074 63.0372 159.164 63.0372C159.507 63.0372 159.849 62.9466 160.111 62.9466V62.5137ZM160.111 59.9367H158.993V60.3696H160.111V59.9367ZM160.111 58.0442C159.859 57.8731 159.507 57.7926 159.084 57.7926H159.003V58.2154H159.084C159.507 58.2154 159.859 58.3865 160.111 58.6482V58.0442ZM160.111 57.0175L159.335 55.8195H158.993V56.4235L159.074 56.1618H159.164L159.678 57.1886H160.111V57.0175ZM160.111 56.0712V56.2423H159.94L160.111 56.0712ZM160.111 56.2423V56.0712L160.624 55.0444H161.229L160.373 56.2524H160.111V56.2423ZM160.111 57.1886V57.0175L160.191 57.1886H160.111ZM160.111 60.3595V59.9267H160.544C160.544 59.4938 160.463 58.9804 160.111 58.6382V58.0342C160.886 58.467 161.057 59.4938 161.057 60.0173V60.3595H160.111ZM160.111 62.9365V62.5037C160.373 62.4131 160.544 62.3325 160.624 62.252L160.796 62.6748C160.624 62.7654 160.453 62.8459 160.111 62.9365Z" clip-rule="evenodd"/><path fill="#0066B2" fill-rule="evenodd" d="M160.604 55.0244L159.919 56.2324H160.352L161.208 55.0244H160.604ZM158.882 55.7995H159.315L160.171 57.1686H159.658L159.144 56.1418H159.053L158.54 57.1686H158.026L158.882 55.7995ZM157.341 59.9167C157.422 59.1416 157.936 58.1953 159.053 58.1953C160.252 58.1953 160.514 59.2322 160.514 59.9167H157.341ZM161.027 60.3496V60.0073C161.027 59.3127 160.765 57.7726 159.053 57.7726C157.764 57.7726 156.818 58.7993 156.818 60.4402C156.818 61.8897 157.764 63.0172 159.134 63.0172C160.081 63.0172 160.594 62.7554 160.765 62.6749L160.594 62.2521C160.342 62.4232 160 62.5038 159.225 62.5038C158.197 62.5038 157.341 61.8998 157.341 60.3596H161.027V60.3496ZM153.726 62.846H154.24V56.323H156.556V55.8901H151.4V56.323H153.716V62.846H153.726ZM149.174 62.242C148.912 62.4132 148.57 62.4937 147.966 62.4937C146.767 62.4937 145.901 61.7186 145.901 60.4402C145.901 59.2322 146.586 58.2054 147.966 58.2054C148.57 58.2054 148.912 58.3765 149.174 58.5477L149.345 58.1148C149.174 57.9437 148.661 57.7726 148.056 57.7726C146.506 57.7726 145.478 58.8899 145.478 60.4402C145.478 61.8897 146.425 63.0172 147.885 63.0172C148.57 63.0172 149.094 62.7554 149.345 62.6749L149.174 62.2521V62.242ZM143.756 55.0244L143.152 56.2324H143.494L144.441 55.0244H143.756ZM142.034 55.7995H142.457L143.313 57.1686H142.89L142.286 56.1418H142.195L141.682 57.1686H141.249L142.024 55.7995H142.034ZM142.205 58.2054C143.585 58.2054 144.099 59.4939 144.099 60.3496C144.099 61.6381 143.243 62.5843 142.205 62.5843C141.168 62.5843 140.403 61.6381 140.403 60.4402C140.403 59.3127 140.916 58.2054 142.205 58.2054ZM142.205 57.7826C140.997 57.7826 139.889 58.7289 139.889 60.4502C139.889 62.0005 140.926 63.0272 142.205 63.0272C143.323 63.0272 144.612 62.1615 144.612 60.3596C144.612 58.8195 143.666 57.7927 142.205 57.7927V57.7826ZM138.6 57.9537H138.087V60.9636C138.087 61.2253 138.087 61.3965 138.006 61.5676C137.835 62.081 137.231 62.5138 136.546 62.5138C135.519 62.5138 135.176 61.7387 135.176 60.712V57.9638H134.743V60.7925C134.743 62.685 135.78 63.0272 136.375 63.0272C137.321 63.0272 137.925 62.4232 138.087 62.0005H138.177V62.8561H138.61V57.9537H138.6ZM130.352 62.5944C128.721 62.5944 127.774 61.0441 127.774 59.504C127.774 57.8732 128.63 56.2425 130.443 56.2425C132.256 56.2425 133.021 57.8732 133.021 59.3328C133.021 61.0542 132.075 62.5944 130.363 62.5944H130.352ZM133.525 63.289C132.931 63.1984 132.064 63.0272 131.289 62.8561V62.7655C132.578 62.4232 133.525 61.2153 133.525 59.3328C133.525 57.1887 132.236 55.8197 130.433 55.8197C128.63 55.8197 127.251 57.1887 127.251 59.514C127.251 61.8394 128.62 62.9467 130.352 63.0373C130.524 63.0373 130.604 63.0373 130.775 63.1279C131.47 63.299 132.497 63.5608 133.444 63.8124L133.525 63.299V63.289ZM123.223 60.7925C123.223 60.9636 123.223 61.2253 123.132 61.3159C122.88 62.081 122.276 62.4333 121.581 62.4333C120.383 62.4333 119.778 61.4871 119.778 60.3697C119.778 59.0812 120.554 58.2255 121.581 58.2255C122.437 58.2255 122.961 58.749 123.132 59.3429C123.223 59.514 123.223 59.6852 123.223 59.8664V60.8026V60.7925ZM123.736 59.1617V57.9537H123.313V58.7389C123.061 58.3866 122.538 57.7927 121.591 57.7927C120.473 57.7927 119.355 58.7389 119.355 60.4603C119.355 61.8293 120.211 62.8561 121.511 62.8561C122.367 62.8561 122.971 62.4232 123.233 61.9099V62.6044C123.233 64.0641 122.457 64.658 121.43 64.658C120.745 64.658 120.312 64.4063 119.97 64.2352L119.799 64.5775C120.141 64.9197 120.745 65.0003 121.349 65.0003C121.954 65.0003 122.638 64.8291 123.071 64.3963C123.494 64.054 123.756 63.45 123.756 62.1615V59.1617H123.736ZM114.119 62.8561H114.632V59.8563C114.632 59.6852 114.632 59.514 114.723 59.3328C114.894 58.7389 115.498 58.2155 116.183 58.2155C117.21 58.2155 117.563 59.0711 117.563 59.9368V62.8561H118.077V59.9368C118.077 58.0443 116.788 57.7927 116.365 57.7927C115.498 57.7927 114.904 58.3061 114.642 58.8195H114.562V57.9537H114.129V62.8561H114.119ZM111.964 61.3159V61.5676C111.793 62.081 111.279 62.5944 110.504 62.5944C109.909 62.5944 109.476 62.2521 109.476 61.5676C109.476 60.3596 110.937 60.1885 111.964 60.1885V61.3059V61.3159ZM112.477 59.7657C112.477 58.9101 112.226 57.7927 110.755 57.7927C110.322 57.7927 109.728 57.9638 109.295 58.2155L109.466 58.5577C109.809 58.296 110.242 58.2155 110.665 58.2155C111.873 58.2155 111.954 59.1617 111.954 59.6751V59.8462C109.98 59.7556 108.953 60.4502 108.953 61.6481C108.953 62.2521 109.386 63.0272 110.413 63.0272C111.188 63.0272 111.793 62.5138 112.044 62.1615L112.135 62.846H112.558C112.467 62.5038 112.467 62.0709 112.467 61.7287V59.7556L112.477 59.7657ZM109.476 55.8197L110.765 57.1887H111.108L110.252 55.8197H109.476ZM103.807 62.8561H104.24V59.8563C104.24 59.6852 104.32 59.514 104.32 59.3328C104.572 58.7389 105.176 58.2155 105.871 58.2155C106.898 58.2155 107.251 59.0711 107.251 59.9368V62.8561H107.764V59.8563C107.764 58.0544 106.475 57.7927 105.962 57.7927C105.619 57.7927 105.277 57.8732 105.015 58.1349C104.673 58.3061 104.411 58.5678 104.33 58.8195H104.25V55.5579H103.817V62.8561H103.807ZM95.9013 62.8561H96.3343V59.8563C96.3343 59.6852 96.425 59.514 96.425 59.3328C96.6868 58.7389 97.2004 58.2155 97.9758 58.2155C99.003 58.2155 99.3454 59.0711 99.3454 59.9368V62.8561H99.859V59.9368C99.859 58.0443 98.57 57.7927 98.0564 57.7927C97.291 57.7927 96.5962 58.3061 96.3343 58.8195L96.2538 57.9537H95.8207C95.8207 58.296 95.9114 58.6383 95.9114 59.0711V62.846L95.9013 62.8561ZM93.7563 61.3159C93.7563 61.3965 93.7563 61.4871 93.6757 61.5676C93.5045 62.081 93.0715 62.5944 92.2155 62.5944C91.7019 62.5944 91.1883 62.2521 91.1883 61.5676C91.1883 60.3596 92.6385 60.1885 93.7664 60.1885V61.3059L93.7563 61.3159ZM94.2699 59.7657C94.2699 58.9101 93.9275 57.7927 92.5579 57.7927C92.0443 57.7927 91.5307 57.9638 91.0171 58.2155L91.1883 58.5577C91.5307 58.296 92.0443 58.2155 92.4773 58.2155C93.6757 58.2155 93.7664 59.1617 93.7664 59.6751V59.8462C91.7019 59.7556 90.6747 60.4502 90.6747 61.6481C90.6747 62.2521 91.1984 63.0272 92.1349 63.0272C93.001 63.0272 93.5146 62.5138 93.7664 62.1615L93.857 62.846H94.28V59.7556L94.2699 59.7657ZM92.3867 55.8197L91.4401 57.1887H91.9537L92.5579 56.1619H92.6385L93.2427 57.1887H93.7563L92.7291 55.8197H92.3867ZM88.9426 60.7925C88.9426 60.9636 88.9426 61.2253 88.862 61.3159C88.6002 62.081 88.006 62.4333 87.3112 62.4333C86.1128 62.4333 85.5086 61.4871 85.5086 60.3697C85.5086 59.0812 86.284 58.2255 87.3112 58.2255C88.1772 58.2255 88.6908 58.749 88.862 59.3429C88.9426 59.514 88.9426 59.6852 88.9426 59.8664V60.8026V60.7925ZM89.4663 59.1617V57.9537H89.0332L88.9426 58.7389C88.7714 58.3866 88.2578 57.7927 87.3112 57.7927C86.1933 57.7927 84.995 58.7389 84.995 60.4603C84.995 61.8293 85.9416 62.8561 87.14 62.8561C88.0866 62.8561 88.6908 62.4232 88.9426 61.9099V62.6044C88.9426 64.0641 88.1772 64.658 87.14 64.658C86.4552 64.658 85.9416 64.4063 85.5891 64.2352L85.4179 64.5775C85.851 64.9197 86.4552 65.0003 87.0493 65.0003C87.5629 65.0003 88.2578 64.8291 88.7714 64.3963C89.2044 64.054 89.4663 63.45 89.4663 62.1615V59.1617ZM79.2548 62.846V59.3228C79.2548 58.2054 79.2548 57.4303 79.1742 56.5746H79.2548C79.5972 57.2692 80.0302 58.0343 80.6244 58.8094L83.293 62.846H83.716V55.8901H83.293V59.4134C83.293 60.4502 83.293 61.2153 83.3837 62.1615L83.293 62.2521C82.9506 61.5676 82.5982 60.873 82.004 60.0174L79.2548 55.8901H78.8217V62.846H79.2548Z" clip-rule="evenodd"/></svg>