<svg xmlns="http://www.w3.org/2000/svg" width="40" height="40" fill="none" viewBox="0 0 40 40"><mask id="mask0_5_7550" width="30" height="33" x="5" y="0" maskUnits="userSpaceOnUse" style="mask-type:luminance"><path fill="#fff" d="M19.987 0C14.0404 0 8.69377 2.59944 5.03369 6.72029C5.08585 6.75507 9.11107 9.61532 10.3195 13.7362C11.3715 17.005 10.5542 19.7436 10.1543 21.0911C9.98914 21.604 9.84135 22.0735 9.71095 22.4908C8.90243 24.9772 8.57206 26.0118 8.5112 27.6636V27.7158C8.45035 30.2022 10.3021 32.2713 12.6407 32.3322C14.1448 32.3669 15.5271 31.5758 16.3356 30.2283C17.6744 27.681 17.1615 24.6121 16.9703 23.7253V23.6992C16.9703 23.6992 16.9616 23.6645 16.9529 23.6384V23.621C16.5964 22.1083 15.9965 20.4912 15.2228 18.9437C14.0665 16.4399 13.3536 14.4404 13.0407 12.8146C12.7798 11.4323 12.7885 10.2934 13.0754 9.14586C10.6151 7.63314 10.9629 5.48577 11.3888 4.3382L11.554 3.88612L11.5627 3.86004L11.5801 3.81657H11.5888C11.5888 3.81657 12.4234 5.00762 13.8579 5.56402C14.0057 5.61618 14.1535 5.66834 14.31 5.70312C14.5186 5.75528 14.7359 5.79875 14.9446 5.82483C15.1272 5.84222 15.3097 5.85091 15.501 5.85091C15.5358 5.85091 15.5619 5.85091 15.5966 5.85091C16.0574 5.81614 16.5269 5.66834 16.779 5.57271C16.7877 5.57271 16.8225 5.55532 16.779 5.57271L16.9616 5.49447C18.6308 4.84243 21.7084 3.86004 23.7775 5.30321C24.9511 6.03348 25.5162 7.09412 25.5162 7.09412C28.8025 8.31995 29.1155 10.589 29.3154 12.093L29.4024 12.7538L28.8633 12.3626C27.8114 11.5714 26.9768 11.1976 26.2291 11.1802H26.1596C25.6032 11.1802 24.9685 11.3367 24.4556 11.5975C22.7603 12.4756 22.4734 14.0318 22.4647 14.0491C21.9344 15.9705 22.6647 17.6397 25.2815 20.4565C25.3163 20.4912 28.9851 24.1079 29.7153 25.2467C30.9064 26.829 31.7236 28.4026 32.1409 29.9066C32.1409 29.9153 32.167 29.9762 32.2104 30.037C32.2104 30.037 32.3321 30.2022 32.4886 30.2022C32.5756 30.2022 32.6625 30.15 32.7495 30.037C33.1928 29.1763 32.9494 27.881 32.6625 26.942C32.5147 26.4726 31.9931 25.212 31.9844 25.2033V25.1859C31.9844 25.1859 31.967 25.1511 31.9583 25.1337C30.889 22.6734 30.3587 20.0218 30.4282 17.4832C30.4804 15.6749 30.7934 13.884 31.3845 12.18C31.4628 11.9018 31.5584 11.6062 31.6714 11.3193C31.6714 11.3193 31.6888 11.2758 31.7236 11.1889C32.2713 9.75442 32.8886 8.71117 33.1407 8.33733C33.558 7.64183 34.0188 6.92025 34.5491 6.30299C30.9064 2.42556 25.7336 0.00869398 19.987 0.00869398V0Z"/></mask><g mask="url(#mask0_5_7550)"><path fill="url(#paint0_linear_5_7550)" d="M28.0448 -12.2325L-8.38617 7.13818L11.5396 44.6131L47.9706 25.2424L28.0448 -12.2325Z"/></g><mask id="mask1_5_7550" width="1" height="1" x="16" y="5" maskUnits="userSpaceOnUse" style="mask-type:luminance"><path fill="#fff" d="M16.7702 5.58984C16.7442 5.59854 16.7529 5.59854 16.7702 5.58984V5.58984Z"/></mask><g mask="url(#mask1_5_7550)"><path fill="url(#paint1_linear_5_7550)" d="M16.772 5.5737L16.749 5.58594L16.7612 5.60897L16.7842 5.59673L16.772 5.5737Z"/></g><mask id="mask2_5_7550" width="40" height="34" x="0" y="6" maskUnits="userSpaceOnUse" style="mask-type:luminance"><path fill="#fff" d="M15.7357 9.31948C13.9014 13.0056 16.6312 16.7092 18.6221 19.4216L18.7438 19.5781C19.0568 20.0041 19.3437 20.4475 19.6219 20.9257C20.2652 21.9081 21.0998 23.4295 21.4736 25.0987L21.491 25.1422C21.491 25.1422 21.491 25.1682 21.491 25.1856C21.491 25.1943 21.491 25.203 21.491 25.2204C21.5171 25.3247 21.5345 25.4464 21.5606 25.5855C21.5606 25.6203 21.5693 25.6464 21.578 25.6812V25.7072C21.7171 26.4723 21.7518 27.2547 21.691 28.0285C21.6736 28.2806 21.6388 28.5501 21.5867 28.8283C21.3171 30.8714 20.4043 32.7492 18.9959 34.1141C17.5875 35.4877 15.7792 36.2441 13.9187 36.2441C13.8492 36.2441 13.7883 36.2441 13.7362 36.2441C13.7188 36.2441 13.6927 36.2441 13.6753 36.2441C13.6579 36.2441 13.6492 36.2441 13.6318 36.2441C10.9976 36.2267 9.15455 34.4532 9.13716 34.4358V34.4184C8.18954 33.6186 7.49404 32.584 7.12021 31.4278C6.05087 28.6371 6.77246 25.5508 6.78115 25.516C6.97241 24.5075 7.268 23.5599 7.52881 22.7253C7.92873 21.4212 8.31125 20.2041 8.28517 19.0391V19.0304V19.013C8.28517 18.9522 8.28517 18.9 8.28517 18.8479C8.28517 16.5788 7.22453 14.414 5.45969 13.0665C4.96415 12.7014 3.85134 11.9972 1.9561 11.3799C0.704196 13.9967 0 16.9178 0 20.0041C0 31.0452 8.95459 39.9998 19.9957 39.9998C31.0368 39.9998 39.9827 31.0452 39.9827 20.0041C39.9827 16.6396 39.1568 13.4751 37.6875 10.6931C37.192 11.1104 35.5662 12.5883 34.4795 14.9617C34.3752 15.1965 34.2883 15.4138 34.2013 15.6138C34.2013 15.6225 34.2013 15.6399 34.1926 15.6485C33.5493 17.2917 33.2015 19.0217 33.1581 20.804C33.1407 21.3951 33.1581 21.995 33.2102 22.5862C33.2537 23.0643 33.358 23.6468 33.5145 24.3336C33.7406 25.2552 34.0448 26.2376 34.1318 26.5158C34.4534 27.4634 35.2359 30.7844 31.6627 33.7403L31.6106 33.7838C31.202 34.1315 30.7673 34.4706 30.3413 34.7749C30.037 34.9835 29.7066 35.1922 29.3415 35.4182C29.2459 35.4877 29.1415 35.5486 29.0546 35.6095C28.6199 35.8616 28.1852 36.105 27.7332 36.3137C27.6375 36.3484 27.5767 36.3658 27.5158 36.3658C27.4289 36.3658 27.3593 36.3397 27.3158 36.2789C27.2376 36.1746 27.2637 36.0181 27.2811 35.9398L27.2985 35.8964C28.6982 31.4886 27.5941 28.098 26.4204 26.0289C25.7684 24.9596 24.8642 23.9337 24.386 23.4121L24.36 23.386C24.247 23.273 24.1426 23.16 24.0296 23.047L23.9688 22.9861C23.5862 22.5862 23.1863 22.1689 22.7951 21.7429C21.917 20.7866 21.2215 19.7868 20.7173 18.7696C19.7436 16.7266 19.8479 15.0574 20.1174 14.0141C20.3521 13.0752 20.7521 12.4666 20.8825 12.2841C20.7086 12.3014 20.5521 12.3101 20.3869 12.3101C17.9961 12.3101 17.857 10.0671 17.8483 10.0411V9.99759L18.3004 10.1367C18.3004 10.1367 19.2654 10.4323 20.2739 10.4671C20.9433 10.4844 21.4736 10.3801 21.8562 10.1715C22.5951 9.82372 22.969 9.24123 23.0037 8.45879C22.9168 7.31991 22.0213 6.81567 21.2215 6.71134C21.0042 6.68526 20.7781 6.66787 20.5608 6.65918C20.5086 6.65918 20.4478 6.65918 20.3956 6.65918C17.1354 6.65918 15.7966 9.23254 15.7357 9.33686V9.31948Z"/></mask><g mask="url(#mask2_5_7550)"><path fill="url(#paint2_linear_5_7550)" d="M31.1601 -9.9284L-13.8298 13.9932L8.80198 56.5574L53.7919 32.6359L31.1601 -9.9284Z"/></g><defs><linearGradient id="paint0_linear_5_7550" x1="5.884" x2="35.598" y1="23.801" y2="8.002" gradientUnits="userSpaceOnUse"><stop stop-color="#82222F"/><stop offset=".12" stop-color="#82222F"/><stop offset=".77" stop-color="#ED1A39"/><stop offset="1" stop-color="#ED1A39"/></linearGradient><linearGradient id="paint1_linear_5_7550" x1="17.492" x2="17.507" y1="5.799" y2="5.79" gradientUnits="userSpaceOnUse"><stop stop-color="#82222F"/><stop offset=".12" stop-color="#82222F"/><stop offset=".77" stop-color="#ED1A39"/><stop offset="1" stop-color="#ED1A39"/></linearGradient><linearGradient id="paint2_linear_5_7550" x1="923.369" x2="958.68" y1="-457.523" y2="-476.298" gradientUnits="userSpaceOnUse"><stop stop-color="#82222F"/><stop offset=".12" stop-color="#82222F"/><stop offset=".77" stop-color="#ED1A39"/><stop offset="1" stop-color="#ED1A39"/></linearGradient></defs></svg>