<svg xmlns="http://www.w3.org/2000/svg" width="40" height="40" fill="none" viewBox="0 0 40 40"><g clip-path="url(#clip0_4_3870)"><path fill="#005791" fill-rule="evenodd" d="M14.136 14.1551L25.8579 14.1551V24.4832C30.2145 25.1517 34.3383 26.55 38.0944 28.5433C39.3138 25.9613 40 23.0726 40 20.0183C40 8.96044 31.0355 0 19.9939 0C8.94608 0 0 8.96044 0 20.0183C0 23.0603 0.68021 25.949 1.89344 28.531C5.65567 26.5377 9.76718 25.1455 14.136 24.4832V14.1551Z" clip-rule="evenodd"/><path fill="#D71147" fill-rule="evenodd" d="M19.9939 40C26.9853 40 33.1373 36.4061 36.7219 30.9599C31.728 28.3165 26.0233 26.814 19.9756 26.814C13.94 26.814 8.25369 28.3105 3.26596 30.9538C6.84438 36.3999 12.9902 40 19.9939 40Z" clip-rule="evenodd"/></g><defs><clipPath id="clip0_4_3870"><rect width="40" height="40" fill="#fff"/></clipPath></defs></svg>