<svg xmlns="http://www.w3.org/2000/svg" width="240" height="80" fill="none" viewBox="0 0 240 80"><path fill="#005791" d="M85.9406 49.0442V45.8524H83.7328V42.4404H79.7039V45.8524H77.692V49.0442H79.7039V54.9235C79.7039 56.7886 81.2411 59.5545 84.57 59.5545L85.9357 59.5105L85.9393 55.9467C85.7972 55.9609 85.7091 55.968 85.68 55.968C84.5198 55.968 83.7316 55.0183 83.7316 54.0196V49.0459L85.9406 49.0442Z"/><path fill="#005791" d="M73.0757 51.2077C72.8015 49.651 71.4358 48.53 69.884 48.53C68.4056 48.53 66.9713 49.5629 66.6922 51.2077H73.0757ZM76.9382 53.9491H66.6237C66.6923 55.447 68.014 56.9548 69.884 56.9548C70.8582 56.9548 72.0771 56.4457 72.7429 55.2561H76.5759C76.1451 56.5142 75.1612 57.8017 74.0303 58.6388C72.8261 59.5297 71.4162 59.9605 69.9329 59.9605C67.9405 59.9605 66.2468 59.2556 64.8418 57.8408C63.4319 56.4359 62.7613 54.5218 62.7613 52.6958C62.7613 50.8405 63.4123 49.0439 64.7928 47.6145C66.1929 46.1606 67.9895 45.4214 69.9036 45.4214C71.8029 45.4214 73.6387 46.1606 75.0192 47.6145C76.3703 49.0439 77.1046 50.865 77.0459 52.877C77.0352 53.1853 76.9918 53.6651 76.9382 53.9491Z"/><path fill="#005791" d="M57.1952 49.4751C57.1952 47.3065 58.9624 45.8477 60.8227 45.8477H61.2192V59.5546H57.205L57.1952 49.4751Z"/><path fill="#005791" d="M87.5659 49.4751C87.5659 47.3065 89.338 45.8477 91.1934 45.8477H91.5899V59.5546H87.5806L87.5659 49.4751Z"/><path fill="#005791" d="M102.208 59.5542V51.2664C102.208 50.1894 101.381 49.0635 100.015 49.0635C98.3308 49.0635 97.7238 50.4147 97.7238 51.3301V59.5542H93.6313V45.8767H97.4496V47.3305H97.5036C98.2477 46.327 99.6625 45.4165 101.356 45.4165C104.411 45.4165 106.301 47.918 106.301 50.3216V59.5542H102.208Z"/><path fill="#005791" d="M134.028 55.1779C133.401 55.8436 132.613 56.1766 131.663 56.1766C130.743 56.1766 129.964 55.8387 129.323 55.1681C128.697 54.5024 128.383 53.6946 128.383 52.74C128.383 51.7462 128.682 50.9189 129.289 50.2532C129.906 49.558 130.689 49.2154 131.639 49.2154C132.593 49.2154 133.391 49.5483 134.018 50.1993C134.64 50.8602 134.958 51.6875 134.958 52.691C134.958 53.6848 134.649 54.517 134.028 55.1779ZM135.012 45.862V47.316H134.963C134.581 46.6796 134.013 46.1851 133.254 45.8474C132.574 45.5486 131.83 45.3921 131.022 45.3921C129.039 45.3921 127.399 46.1117 126.112 47.546C124.868 48.9363 124.247 50.6448 124.247 52.691C124.247 54.7667 124.859 56.4947 126.078 57.8703C127.34 59.29 128.99 59.9998 131.022 59.9998C131.839 59.9998 132.583 59.8531 133.264 59.5543C134.057 59.2115 134.62 58.7074 134.963 58.0515H135.012V59.5299H139.04V45.862H135.012Z"/><path fill="#005791" fill-rule="evenodd" d="M179.265 31.2984H188.63V39.5422C192.111 40.0758 195.405 41.192 198.406 42.783C199.38 40.722 199.929 38.4163 199.929 35.9784C199.929 27.1521 192.767 20 183.945 20C175.119 20 167.972 27.1521 167.972 35.9784C167.972 38.4065 168.515 40.7122 169.485 42.7732C172.49 41.1821 175.775 40.0709 179.265 39.5422V31.2984Z" clip-rule="evenodd"/><path fill="#D71147" fill-rule="evenodd" d="M183.945 51.9273C189.531 51.9273 194.446 49.0586 197.31 44.7116C193.32 42.6017 188.762 41.4023 183.931 41.4023C179.109 41.4023 174.566 42.5968 170.581 44.7067C173.44 49.0538 178.35 51.9273 183.945 51.9273Z" clip-rule="evenodd"/><path fill="#005791" d="M149.658 59.5542V51.2664C149.658 50.1894 148.831 49.0635 147.465 49.0635C145.781 49.0635 145.174 50.4147 145.174 51.3301V59.5542H141.082V45.8767H144.9V47.3305H144.954C145.693 46.327 147.113 45.4165 148.807 45.4165C151.861 45.4165 153.746 47.918 153.746 50.3216V59.5542H149.658Z"/><path fill="#005791" d="M49.0934 59.5448C50.1312 59.5448 51.5509 58.9819 52.2118 57.2734C53.9104 52.8823 59.0946 39.7383 59.0946 39.7383H54.9483L50.0138 52.3095L45.0841 39.7383H40.0713L47.85 59.5448H49.0934Z"/><path fill="#005791" d="M116.732 55.8925H112.943V51.1832H116.659C118.348 51.1832 119.058 52.6077 119.058 53.4595C119.058 54.9379 117.907 55.8925 116.732 55.8925ZM112.963 43.4192H115.939C117.188 43.4192 118.098 44.359 118.098 45.4703C118.098 46.7284 116.982 47.5264 115.939 47.5264H112.963V43.4192ZM119.89 48.9215C122.524 47.4872 122.362 45.0347 122.093 43.6835C121.755 41.9898 119.958 39.7379 115.905 39.7575H108.352V59.5542H116.042C121.011 59.5542 123.277 56.6709 123.214 53.5525C123.185 52.1574 122.793 49.8321 119.89 48.9215Z"/><path fill="#005791" d="M163.698 51.9371L169.485 45.8571H164.359L159.963 50.7329L159.977 43.3213C159.977 41.1527 158.2 39.6938 156.35 39.6938H155.787V59.5298H159.963V53.3763L164.104 59.5298H169.484L163.698 51.9371Z"/></svg>