<svg xmlns="http://www.w3.org/2000/svg" width="40" height="40" fill="none" viewBox="0 0 40 40"><g clip-path="url(#clip0_6_787)"><path fill="#fff" d="M40 20C40 23.9561 38.8267 27.8233 36.6286 31.1126C34.4305 34.4018 31.3063 36.9652 27.6511 38.4787C23.9959 39.9921 19.974 40.3875 16.094 39.6149C12.2141 38.8422 8.65047 36.9363 5.85387 34.1381C3.05727 31.3399 1.15335 27.7752 0.382922 23.8949C-0.387502 20.0145 0.0101841 15.9928 1.52568 12.3385C3.04117 8.68415 5.60638 5.56137 8.89685 3.3651C12.1873 1.16884 16.0552 -0.00223884 20.0113 3.21334e-06C25.3139 0.00225735 30.3985 2.11047 34.147 5.86104C37.8954 9.6116 40.0008 14.6974 40 20Z"/><path fill="#0869AB" d="M20.0255 39.0622C23.7936 39.0611 27.4767 37.9427 30.6093 35.8485C33.7418 33.7544 36.1831 30.7784 37.6244 27.2969C39.0657 23.8153 39.4424 19.9846 38.7068 16.2891C37.9712 12.5935 36.1564 9.19898 33.4918 6.53475C30.8271 3.87051 27.4324 2.05617 23.7367 1.32113C20.041 0.58608 16.2103 0.963329 12.729 2.40518C9.24773 3.84703 6.27212 6.28874 4.1784 9.42159C2.08467 12.5544 0.966871 16.2377 0.96631 20.0058C0.965193 22.5089 1.45742 24.9876 2.41488 27.3004C3.37233 29.6131 4.77623 31.7144 6.54631 33.4842C8.31638 35.254 10.4179 36.6576 12.7308 37.6147C15.0436 38.5718 17.5225 39.0637 20.0255 39.0622Z"/><mask id="mask0_6_787" width="40" height="40" x="0" y="0" maskUnits="userSpaceOnUse" style="mask-type:luminance"><path fill="#fff" d="M0.966309 20.0142C0.965748 23.7821 2.0825 27.4655 4.17536 30.5987C6.26821 33.7319 9.24317 36.1741 12.724 37.6165C16.2049 39.059 20.0353 39.4368 23.7309 38.7023C27.4264 37.9677 30.8212 36.1538 33.4859 33.4899C36.1506 30.826 37.9655 27.4318 38.7011 23.7364C39.4368 20.0411 39.0601 16.2105 37.6187 12.7293C36.1773 9.24798 33.736 6.2723 30.6034 4.17852C27.4708 2.08473 23.7877 0.96687 20.0199 0.966309C17.518 0.965565 15.0405 1.45771 12.7288 2.41462C10.4172 3.37153 8.31667 4.77447 6.54731 6.5433C4.77795 8.31214 3.37438 10.4122 2.41678 12.7236C1.45918 15.035 0.966309 17.5123 0.966309 20.0142Z"/></mask><g mask="url(#mask0_6_787)"><path fill="#0869AB" d="M20.187 29.195C28.569 29.195 35.7382 31.5356 38.8241 34.8482C39.8739 32.4153 40.4139 29.7931 40.4109 27.1434C40.4109 16.2027 31.3432 7.35596 20.187 7.35596C9.03092 7.35596 -0.0226437 16.2112 -0.0226437 27.1491C-0.0231145 29.797 0.517866 32.417 1.56705 34.8482C4.64724 31.5384 11.8249 29.195 20.187 29.195Z"/><path fill="#0D6BAD" d="M20.1871 29.2179C28.5464 29.2179 35.6986 31.5386 38.7731 34.8257C39.8232 32.412 40.3625 29.8071 40.3571 27.1748C40.3571 16.3247 31.3234 7.52051 20.1871 7.52051C9.0508 7.52051 0.0255813 16.3304 0.0255813 27.1805C0.0232448 29.813 0.564432 32.4177 1.61526 34.8314C4.68412 31.5386 11.842 29.2179 20.1871 29.2179Z"/><path fill="#0F6EAD" d="M20.1871 29.2377C28.5265 29.2377 35.6589 31.5415 38.7277 34.7945C39.7722 32.4051 40.3096 29.825 40.3061 27.2173C40.3061 16.4494 31.295 7.69336 20.1871 7.69336C9.07911 7.69336 0.0680542 16.4579 0.0680542 27.2201C0.0682673 29.8274 0.608571 32.4064 1.65491 34.7945C4.71243 31.5386 11.8561 29.2377 20.1786 29.2377"/><path fill="#1270B0" d="M20.1871 29.2715C28.5067 29.2715 35.6192 31.5555 38.6796 34.7858C39.7202 32.4153 40.2558 29.8541 40.2523 27.2653C40.2523 16.5909 31.2667 7.87451 20.1871 7.87451C9.10748 7.87451 0.130432 16.5965 0.130432 27.2709C0.131071 29.8587 0.670525 32.418 1.71445 34.7858C4.7578 31.5385 11.8788 29.2715 20.1871 29.2715Z"/><path fill="#1473B2" d="M20.1871 29.2715C28.4841 29.2715 35.5825 31.5385 38.6315 34.7405C39.6663 32.3924 40.1991 29.854 40.1956 27.288C40.1956 16.7014 31.2299 8.01904 20.1786 8.01904C9.12735 8.01904 0.172974 16.6957 0.172974 27.288C0.172764 29.8539 0.709434 32.3915 1.74849 34.7377C4.79751 31.5384 11.8958 29.2715 20.1871 29.2715Z"/><path fill="#1775B2" d="M20.1871 29.3026C28.4614 29.3026 35.5399 31.5469 38.5804 34.7262C39.6165 32.3984 40.1504 29.8784 40.1474 27.3304C40.1474 16.8288 31.2072 8.20312 20.1843 8.20312C9.1613 8.20312 0.232422 16.8373 0.232422 27.336C0.233281 29.8833 0.769076 32.402 1.80511 34.7291C4.83713 31.5497 11.9241 29.3054 20.1843 29.3054"/><path fill="#1A78B5" d="M20.1871 29.3227C28.4415 29.3227 35.4889 31.55 38.5351 34.7067C39.5678 32.3988 40.1009 29.8987 40.0992 27.3703C40.0992 16.9594 31.1789 8.38477 20.1871 8.38477C9.1953 8.38477 0.286255 16.9764 0.286255 27.3873C0.287418 29.9148 0.821365 32.4136 1.85327 34.7208C4.88246 31.567 11.9468 29.3369 20.1871 29.3369"/><path fill="#1C7AB5" d="M20.1701 29.3452C28.4019 29.3452 35.4435 31.5526 38.4699 34.6782C39.4989 32.3905 40.0283 29.9097 40.0227 27.4013C40.0227 17.0783 31.1279 8.5376 20.1616 8.5376C9.1953 8.5376 0.325928 17.0868 0.325928 27.4098C0.325566 29.9164 0.859786 32.3943 1.89294 34.6782C4.91363 31.5611 11.9609 29.3452 20.1757 29.3452"/><path fill="#1C7DB8" d="M20.1701 29.3648C28.3877 29.3648 35.4039 31.5524 38.4189 34.6496C39.4512 32.3857 39.9837 29.9261 39.9802 27.4379C39.9802 17.2056 31.108 8.70459 20.1701 8.70459C9.23215 8.70459 0.37128 17.2056 0.37128 27.4436C0.369698 29.9315 0.902134 32.3908 1.93262 34.6553C4.94481 31.5553 11.9723 29.3705 20.1673 29.3705"/><path fill="#1F80B8" d="M20.1672 29.3874C28.3565 29.3874 35.3613 31.558 38.3707 34.6297C39.3976 32.3863 39.9282 29.9476 39.9264 27.4804C39.9264 17.333 31.074 8.87451 20.1672 8.87451C9.26047 8.87451 0.419434 17.3387 0.419434 27.4804C0.419625 29.9477 0.95118 32.3861 1.97795 34.6297C4.98447 31.558 11.9978 29.3874 20.1672 29.3874Z"/><path fill="#2182BA" d="M20.1645 29.4076C28.3339 29.4076 35.3217 31.5584 38.3226 34.6017C39.3464 32.3806 39.8753 29.9634 39.8726 27.5176C39.8726 17.4581 31.0486 9.04492 20.1645 9.04492C9.28035 9.04492 0.467651 17.4637 0.467651 27.5204C0.468759 29.9664 0.999476 32.3832 2.02333 34.6046C5.02135 31.5612 12.0148 29.4105 20.1588 29.4105"/><path fill="#2485BA" d="M20.1587 29.4301C28.3027 29.4301 35.2735 31.561 38.2659 34.5789C39.2878 32.3781 39.8168 29.9807 39.8159 27.5542C39.8159 17.5826 31.0117 9.21191 20.1616 9.21191C9.31148 9.21191 0.518616 17.5882 0.518616 27.5712C0.518309 29.9967 1.04729 32.3931 2.06863 34.5931C5.05531 31.5752 12.0318 29.4443 20.1587 29.4443"/><path fill="#298ABD" d="M20.1588 29.4498C28.2829 29.4498 35.2339 31.5608 38.2177 34.5504C39.2383 32.3704 39.7656 29.9922 39.7621 27.5852C39.7621 17.7042 30.9777 9.37891 20.1616 9.37891C9.3455 9.37891 0.569641 17.7099 0.569641 27.588C0.571884 29.9941 1.10095 32.3706 2.11966 34.5504C5.09784 31.558 12.0573 29.4498 20.1644 29.4498"/><path fill="#2B8CBF" d="M20.1559 29.4729C28.2574 29.4729 35.1885 31.5641 38.1667 34.531C39.1826 32.3718 39.7081 30.0145 39.7054 27.6282C39.7054 17.8322 30.9522 9.55225 20.1531 9.55225C9.35402 9.55225 0.60083 17.8407 0.60083 27.6282C0.601376 30.0144 1.12769 32.3712 2.14234 34.531C5.11769 31.5641 12.0602 29.4729 20.1389 29.4729"/><path fill="#2E8FBF" d="M20.1531 29.4926C28.2347 29.4926 35.1488 31.5669 38.1185 34.5054C39.1305 32.3671 39.6541 30.0305 39.6515 27.6649C39.6515 17.9596 30.921 9.72217 20.1531 9.72217C9.38517 9.72217 0.663147 17.9653 0.663147 27.6649C0.664613 30.0307 1.19009 32.3668 2.20182 34.5054C5.16867 31.5669 12.0913 29.4926 20.1503 29.4926"/><path fill="#2E91C2" d="M20.1503 29.5152C28.2092 29.5152 35.1063 31.5696 38.0675 34.4826C39.0782 32.365 39.602 30.0481 39.6005 27.7017C39.6005 18.0842 30.8927 9.89209 20.1503 9.89209C9.40785 9.89209 0.714172 18.0927 0.714172 27.7073C0.714638 30.0517 1.23838 32.3664 2.24719 34.4826C5.2027 31.5696 12.1083 29.5152 20.1503 29.5152Z"/><path fill="#3394C2" d="M20.1474 29.5348C28.1865 29.5348 35.0638 31.5694 38.0165 34.4541C39.0242 32.3588 39.5463 30.0633 39.5439 27.7383C39.5439 18.2115 30.8558 10.0591 20.1474 10.0591C9.439 10.0591 0.762329 18.22 0.762329 27.7383C0.763326 30.0635 1.28725 32.3588 2.29533 34.4541C5.24518 31.5694 12.131 29.5348 20.1474 29.5348Z"/><path fill="#3396C2" d="M20.1446 29.555C28.161 29.555 35.0213 31.5726 37.9655 34.4289C38.9729 32.3547 39.4952 30.0785 39.4929 27.7726C39.4929 18.3337 30.8304 10.2266 20.1474 10.2266C9.46453 10.2266 0.813356 18.3365 0.813356 27.7754C0.812332 30.0814 1.33252 32.3579 2.33503 34.4345C5.27921 31.5754 12.1423 29.5607 20.1418 29.5607"/><path fill="#3699C4" d="M20.1417 29.5802C28.1355 29.5802 34.9788 31.5638 37.9117 34.3974C38.9165 32.3458 39.437 30.0908 39.4333 27.8063C39.4333 18.4552 30.7963 10.3906 20.1389 10.3906C9.4815 10.3906 0.869995 18.4552 0.869995 27.8063C0.87176 30.0909 1.3941 32.345 2.39734 34.3974C5.33019 31.5638 12.1763 29.5802 20.1531 29.5802"/><path fill="#389CC7" d="M20.1389 29.6002C28.1157 29.6002 34.9391 31.5838 37.8635 34.3863C38.8656 32.355 39.3854 30.1198 39.3823 27.8547C39.3823 18.5886 30.768 10.5693 20.1389 10.5693C9.50982 10.5693 0.918152 18.5914 0.918152 27.8547C0.919736 30.114 1.43729 32.3432 2.43133 34.3721C5.35567 31.564 12.1876 29.5861 20.1389 29.5861"/><path fill="#3DA1C9" d="M20.1361 29.6228C28.0902 29.6228 34.8938 31.5837 37.8097 34.3607C38.809 32.3506 39.3288 30.1362 39.3285 27.8914C39.3285 18.7132 30.734 10.7393 20.1361 10.7393C9.53822 10.7393 0.957886 18.7189 0.957886 27.8914C0.95798 30.1398 1.47779 32.3577 2.47673 34.372C5.3954 31.595 12.2047 29.6341 20.139 29.6341"/><path fill="#40A3C9" d="M20.1361 29.6458C28.0703 29.6458 34.8711 31.584 37.7615 34.3355C38.7591 32.3472 39.2773 30.153 39.2746 27.9286C39.2746 18.841 30.7057 10.9067 20.1361 10.9067C9.56652 10.9067 1.00885 18.841 1.00885 27.9286C1.01039 30.1522 1.52736 32.3453 2.51919 34.3355C5.4322 31.584 12.2245 29.6458 20.1361 29.6458Z"/><path fill="#42A6CC" d="M20.1304 29.6654C28.0392 29.6654 34.8116 31.5838 37.6992 34.3126C38.6914 32.3439 39.2078 30.1698 39.2067 27.9652C39.2067 18.9655 30.6632 11.0737 20.1191 11.0737C9.57504 11.0737 1.04572 18.9655 1.04572 27.9652C1.04637 30.1696 1.56261 32.3433 2.55322 34.3126C5.45772 31.5866 12.233 29.6654 20.1219 29.6654"/><path fill="#45A8CC" d="M20.1304 29.6854C28.0193 29.6854 34.7691 31.5868 37.6623 34.2816C38.6529 32.3359 39.1676 30.1828 39.1641 27.9994C39.1641 19.0875 30.6433 11.2383 20.1304 11.2383C9.6175 11.2383 1.11084 19.0875 1.11084 27.9966C1.11019 30.1806 1.62475 32.3339 2.61269 34.2816C5.50586 31.584 12.2641 29.6854 20.1304 29.6854Z"/><path fill="#47ABCF" d="M20.1248 29.7077C27.9939 29.7077 34.7238 31.5864 37.6113 34.2614C38.6006 32.3325 39.1146 30.1951 39.1103 28.0274C39.1103 19.2033 30.6093 11.3994 20.1248 11.3994C9.64021 11.3994 1.15339 19.2062 1.15339 28.0274C1.15175 30.1948 1.66555 32.3316 2.6524 34.2614C5.5399 31.5864 12.2869 29.7077 20.1219 29.7077"/><path fill="#4AADD1" d="M20.1247 29.7308C27.9712 29.7308 34.6869 31.5925 37.5603 34.2391C38.5467 32.3356 39.0608 30.2227 39.0593 28.0787C39.0593 19.3426 30.5838 11.584 20.1247 11.584C9.66569 11.584 1.20154 19.3539 1.20154 28.0759C1.20388 30.2194 1.71779 32.3314 2.70055 34.2363C5.57388 31.5925 12.2953 29.7279 20.1219 29.7279"/><path fill="#4AB0D1" d="M20.1219 29.7504C27.9457 29.7504 34.6416 31.5951 37.5093 34.2134C38.4936 32.3326 39.007 30.241 39.0055 28.1182C39.0055 19.4699 30.5498 11.751 20.1219 11.751C9.69405 11.751 1.25256 19.4699 1.25256 28.1125C1.25506 30.2367 1.7682 32.3291 2.74874 34.2134C5.61641 31.5951 12.3209 29.7504 20.1219 29.7504Z"/><path fill="#4FB2D4" d="M20.1191 29.773C27.9202 29.773 34.602 31.595 37.4612 34.1907C38.4419 32.3241 38.9525 30.2465 38.9488 28.138C38.9488 19.5803 30.5187 11.9067 20.1191 11.9067C9.71958 11.9067 1.30359 19.5803 1.30359 28.1351C1.30542 30.2397 1.81683 32.3126 2.7941 34.1765C5.6561 31.5809 12.3379 29.7588 20.1191 29.7588"/><path fill="#54BAD6" d="M20.1163 29.7931C27.8947 29.7931 34.5679 31.5982 37.4016 34.1655C38.3807 32.3258 38.8917 30.2733 38.8893 28.1893C38.8893 19.7166 30.4818 12.0884 20.1106 12.0884C9.73938 12.0884 1.34607 19.7166 1.34607 28.1864C1.34788 30.2705 1.85752 32.3227 2.83091 34.1655C5.68724 31.5982 12.352 29.7931 20.1163 29.7931Z"/><path fill="#54BDD6" d="M20.1134 29.8158C27.8719 29.8158 34.5169 31.601 37.3534 34.1399C38.3297 32.3228 38.8399 30.2918 38.8382 28.2289C38.8382 19.847 30.4563 12.2612 20.1134 12.2612C9.7705 12.2612 1.41119 19.847 1.41119 28.2289C1.4123 30.292 1.92128 32.323 2.8932 34.1428C5.72687 31.5925 12.3888 29.8186 20.1247 29.8186"/><path fill="#59BFD9" d="M20.1106 29.8383C27.8465 29.8383 34.4744 31.6036 37.3081 34.1171C38.2807 32.32 38.79 30.3089 38.7901 28.2656C38.7901 19.9686 30.4308 12.4282 20.1134 12.4282C9.79606 12.4282 1.45093 19.9686 1.45093 28.2599C1.45312 30.3044 1.96129 32.3167 2.9301 34.1171C5.76376 31.6036 12.3974 29.8383 20.1134 29.8383"/><path fill="#59C2D9" d="M20.1078 29.858C27.8238 29.858 34.4291 31.6035 37.2543 34.0915C38.2244 32.3162 38.7321 30.3254 38.7306 28.3023C38.7306 20.0847 30.394 12.5981 20.1049 12.5981C9.81589 12.5981 1.48492 20.096 1.48492 28.2966C1.48574 30.3208 1.99225 32.3128 2.95843 34.0915C5.7921 31.6035 12.4002 29.858 20.0936 29.858"/><path fill="#5EC2DB" d="M20.1078 29.9065C27.8097 29.9065 34.4121 31.6435 37.2344 34.1116C38.2019 32.3488 38.7087 30.3702 38.7079 28.3593C38.7079 20.2068 30.3826 12.7515 20.1078 12.7515C9.8329 12.7515 1.5246 20.204 1.5246 28.3565C1.52795 30.3677 2.03449 32.3462 2.9981 34.1116C5.83176 31.6435 12.4285 29.9065 20.1106 29.9065"/><path fill="#63C4DB" d="M20.1077 29.9544C27.8011 29.9544 34.3922 31.6802 37.2061 34.1313C38.1742 32.382 38.6813 30.4151 38.6796 28.4158C38.6796 20.3143 30.3684 12.9043 20.1077 12.9043C9.84704 12.9043 1.54724 20.3172 1.54724 28.4129C1.55118 30.4121 2.05685 32.3783 3.01791 34.1313C5.85158 31.6802 12.4342 29.9544 20.1077 29.9544Z"/><path fill="#69C7DE" d="M20.1078 30.0024C27.7927 30.0024 34.3724 31.7168 37.1863 34.1537C38.149 32.4199 38.6551 30.4697 38.6569 28.4864C38.6569 20.4388 30.3543 13.0713 20.1078 13.0713C9.86125 13.0713 1.57562 20.4388 1.57562 28.4836C1.58019 30.4661 2.08506 32.4154 3.04346 34.1509C5.86295 31.7168 12.4484 29.9996 20.1078 29.9996"/><path fill="#6EC9DE" d="M20.1078 30.0507C27.7813 30.0507 34.3554 31.7509 37.1608 34.1765C38.1227 32.4527 38.628 30.5116 38.6286 28.5375C38.6286 20.5409 30.3373 13.2188 20.1049 13.2188C9.87257 13.2188 1.59827 20.5438 1.59827 28.5205C1.60002 30.4968 2.10414 32.4401 3.06327 34.168C5.87994 31.7453 12.454 30.0422 20.1049 30.0422"/><path fill="#73CCE0" d="M20.1077 30.0987C27.7586 30.0987 34.3356 31.7989 37.1381 34.1962C38.0987 32.4852 38.6041 30.5562 38.6059 28.594C38.6059 20.6598 30.3259 13.3716 20.1077 13.3716C9.88955 13.3716 1.62659 20.6541 1.62659 28.5912C1.63121 30.5545 2.13537 32.4843 3.0916 34.199C5.90259 31.7904 12.4682 30.1015 20.1106 30.1015"/><path fill="#7ACFE0" d="M20.1078 30.1501C27.7587 30.1501 34.3129 31.8305 37.1098 34.2193C38.0678 32.5207 38.5723 30.604 38.5748 28.6539C38.5748 20.765 30.3033 13.5278 20.1021 13.5278C9.90093 13.5278 1.64929 20.7707 1.64929 28.6511C1.6534 30.6019 2.15781 32.519 3.1143 34.2193C5.91963 31.8305 12.4654 30.1501 20.1163 30.1501"/><path fill="#80CFE3" d="M20.1078 30.1982C27.7587 30.1982 34.2959 31.8672 37.0928 34.2418C38.0492 32.5571 38.5529 30.6534 38.5549 28.7162C38.5549 20.8811 30.2976 13.6978 20.1078 13.6978C9.91793 13.6978 1.68896 20.8924 1.68896 28.7162C1.69421 30.6535 2.19669 32.5571 3.1483 34.2446C5.95079 31.87 12.4994 30.201 20.1219 30.201"/><path fill="#85D1E3" d="M20.1078 30.2464C27.7388 30.2464 34.2761 31.9041 37.0672 34.2617C38.0215 32.5905 38.5253 30.7001 38.5294 28.7757C38.5294 20.9916 30.2806 13.8423 20.1106 13.8423C9.94057 13.8423 1.69177 20.9916 1.69177 28.7672C1.69674 30.6938 2.19943 32.5865 3.15111 34.2617C5.94793 31.9041 12.5022 30.2464 20.1021 30.2464"/><path fill="#8AD4E5" d="M20.1077 30.2943C27.7303 30.2943 34.2562 31.9406 37.0446 34.2812C37.9973 32.6219 38.5004 30.7426 38.5039 28.8293C38.5039 21.099 30.2693 13.9922 20.1077 13.9922C9.94623 13.9922 1.72577 21.099 1.72577 28.8236C1.73038 30.7386 2.23331 32.6195 3.1851 34.2812C5.97626 31.9406 12.5107 30.2943 20.1106 30.2943"/><path fill="#8FD6E5" d="M20.1078 30.3428C27.7162 30.3428 34.2393 31.9779 37.0219 34.31C37.9733 32.6645 38.4765 30.7983 38.4813 28.8977C38.4813 21.2213 30.2636 14.1626 20.1078 14.1626C9.95193 14.1626 1.74847 21.2269 1.74847 28.8977C1.75443 30.7983 2.25544 32.6646 3.20215 34.3128C5.9933 31.9863 12.5192 30.3456 20.1078 30.3456"/><path fill="#94D6E8" d="M20.1077 30.3906C27.7076 30.3906 34.2194 32.0143 36.9992 34.3209C37.95 32.6858 38.4515 30.8284 38.4529 28.937C38.4529 21.3116 30.2352 14.2954 20.1077 14.2954C9.98021 14.2954 1.76825 21.3371 1.76825 28.9454C1.7734 30.836 2.2736 32.6922 3.21908 34.3294C6.00458 32.02 12.5192 30.3963 20.0992 30.3963"/><path fill="#99D9E8" d="M20.1078 30.439C27.6963 30.439 34.1996 32.0513 36.9766 34.341C37.923 32.7217 38.4235 30.8807 38.4274 29.0052C38.4274 21.4336 30.224 14.46 20.1078 14.46C9.9916 14.46 1.80231 21.4364 1.80231 29.0023C1.80737 30.8796 2.30575 32.7226 3.24748 34.3466C6.03014 32.0542 12.5362 30.4418 20.1078 30.4418"/><path fill="#9EDBE8" d="M20.1077 30.487C27.6878 30.487 34.1797 32.088 36.9539 34.3634C37.8985 32.7569 38.3992 30.9282 38.4047 29.0645C38.4047 21.5439 30.2126 14.6128 20.1077 14.6128C10.0029 14.6128 1.82495 21.5468 1.82495 29.0645C1.83107 30.9304 2.33063 32.7615 3.27295 34.3719C6.04994 32.105 12.5475 30.4955 20.1077 30.4955"/><path fill="#A3DEEB" d="M20.1077 30.5351C27.6765 30.5351 34.1627 32.1247 36.9284 34.3832C37.8722 32.7897 38.373 30.973 38.3792 29.1211C38.3792 21.66 30.1984 14.7686 20.1106 14.7686C10.0227 14.7686 1.85327 21.66 1.85327 29.1182C1.86 30.9712 2.35872 32.789 3.29844 34.386C6.06693 32.1191 12.5617 30.5351 20.1106 30.5351"/><path fill="#A8DEED" d="M20.1078 30.5861C27.668 30.5861 34.1457 32.1673 36.9057 34.4059C37.8468 32.8259 38.3469 31.0224 38.3537 29.1834C38.3537 21.7705 30.1843 14.9272 20.1078 14.9272C10.0313 14.9272 1.87598 21.7734 1.87598 29.1806C1.88425 31.0204 2.38207 32.8249 3.31831 34.4087C6.0868 32.1644 12.5731 30.5861 20.1078 30.5861Z"/><path fill="#B0E3ED" d="M20.1078 30.6343C27.6538 30.6343 34.1231 32.2041 36.8831 34.4257C37.8218 32.8584 38.321 31.0671 38.3282 29.2401C38.3282 21.8726 30.1701 15.0718 20.1078 15.0718C10.0454 15.0718 1.90149 21.8726 1.90149 29.2401C1.90835 31.0685 2.4065 32.8615 3.34382 34.4314C6.10948 32.2041 12.5816 30.6371 20.1078 30.6343Z"/><path fill="#B5E3ED" d="M20.1078 30.6886C27.6453 30.6886 34.1032 32.2471 36.8604 34.4545C37.7961 32.9005 38.2944 31.1225 38.3027 29.3086C38.3027 22.0006 30.1559 15.2451 20.1078 15.2451C10.0596 15.2451 1.92413 22.0062 1.92413 29.3029C1.93312 31.1191 2.43032 32.8994 3.36364 34.4574C6.12363 32.2471 12.59 30.6914 20.1078 30.6886Z"/><path fill="#BAE5F0" d="M20.1077 30.7309C27.634 30.7309 34.0862 32.2781 36.8264 34.4685C37.7593 32.9299 38.2577 31.1672 38.2687 29.3679C38.2687 22.1109 30.1276 15.3979 20.0964 15.3979C10.0652 15.3979 1.93829 22.1166 1.93829 29.3622C1.94854 31.1609 2.44495 32.9233 3.37496 34.4628C6.13212 32.2696 12.59 30.7252 20.0936 30.7224"/><path fill="#BFE8F2" d="M20.1077 30.7788C27.6255 30.7788 34.0664 32.3146 36.8263 34.4909C37.758 32.9624 38.2547 31.2086 38.263 29.4186C38.263 22.2183 30.1389 15.5479 20.1276 15.5479C10.1162 15.5479 1.99213 22.2211 1.99213 29.4158C1.99624 31.2055 2.48591 32.9605 3.40896 34.4937C6.16328 32.3175 12.6099 30.7816 20.1077 30.7816"/><path fill="#C4E8F2" d="M20.1078 30.8274C27.6141 30.8274 34.0466 32.3547 36.7867 34.5111C37.7192 32.9964 38.2171 31.2544 38.2262 29.4757C38.2262 22.3264 30.1106 15.7041 20.1078 15.7041C10.1049 15.7041 1.9978 22.3349 1.9978 29.4757C2.00939 31.2542 2.50507 32.9959 3.43164 34.514C6.18312 32.3519 12.624 30.8302 20.1078 30.8302"/><path fill="#C9EBF2" d="M20.1077 30.8753C27.6056 30.8753 34.0267 32.3885 36.7668 34.5308C37.6962 33.0294 38.1933 31.3007 38.2035 29.535C38.2035 22.4509 30.0992 15.8569 20.1077 15.8569C10.1162 15.8569 2.02612 22.4424 2.02612 29.535C2.03291 31.2994 2.52293 33.0281 3.44296 34.5336C6.18878 32.3885 12.6212 30.8753 20.0936 30.8753"/><path fill="#CFEDF5" d="M20.1077 30.9234C27.5915 30.9234 34.0097 32.4225 36.7442 34.5534C37.6633 33.062 38.1535 31.3462 38.161 29.5945C38.161 22.5528 30.0681 16.0127 20.0936 16.0127C10.1191 16.0127 2.05164 22.5556 2.05164 29.5916C2.05971 31.3451 2.54986 33.0626 3.46847 34.5562C6.21145 32.4253 12.6354 30.9263 20.0992 30.9234"/><path fill="#D4F0F5" d="M20.1078 30.9719C27.583 30.9719 33.9927 32.4624 36.7216 34.5735C37.64 33.0965 38.1305 31.3935 38.1384 29.6543C38.1384 22.6608 30.0539 16.166 20.0964 16.166C10.139 16.166 2.08002 22.6693 2.08002 29.6514C2.08871 31.3933 2.57907 33.0987 3.49685 34.5792C6.23417 32.4652 12.6496 30.9776 20.1049 30.9747"/><path fill="#D9F2F5" d="M20.1078 31.0224C27.5688 31.0224 33.9701 32.5016 36.696 34.5957C37.6132 33.1316 38.1038 31.4408 38.1129 29.7133C38.1129 22.7793 30.0426 16.3242 20.0964 16.3242C10.1503 16.3242 2.0885 22.7793 2.0885 29.7104C2.09605 31.44 2.58679 33.133 3.50533 34.5985C6.23415 32.5016 12.6439 31.0253 20.0879 31.0224"/><path fill="#DEF2F7" d="M20.1078 31.071C27.5631 31.071 33.953 32.5388 36.6734 34.6188C37.5903 33.1693 38.0813 31.4912 38.0902 29.776C38.0902 22.8931 30.0284 16.4805 20.0964 16.4805C10.1644 16.4805 2.11682 22.8931 2.11682 29.7704C2.12626 31.4881 2.61712 33.1688 3.53365 34.6216C6.26531 32.5417 12.6609 31.0738 20.0936 31.0738"/><path fill="#E5F5FA" d="M20.1078 31.1192C27.5518 31.1192 33.9332 32.5757 36.6507 34.6386C37.567 33.1982 38.0581 31.5285 38.0675 29.8214C38.0675 22.9951 30.0199 16.625 20.1021 16.625C10.1843 16.625 2.15369 23.0036 2.15369 29.8384C2.16493 31.5452 2.65589 33.2145 3.57052 34.6556C6.29367 32.5899 12.6836 31.1362 20.1049 31.1334"/><path fill="#EBF7FA" d="M20.1077 31.1671C27.5404 31.1671 33.9134 32.6122 36.6252 34.6581C37.5395 33.2347 38.0308 31.5809 38.042 29.8891C38.042 23.1138 30.0029 16.7891 20.1021 16.7891C10.2013 16.7891 2.17065 23.1166 2.17065 29.8862C2.18344 31.5796 2.6746 33.2348 3.58749 34.661C6.3078 32.6122 12.6892 31.1671 20.1021 31.1671"/><path fill="#F0FAFC" d="M20.1077 31.2155C27.5291 31.2155 33.8935 32.6522 36.6025 34.6783C37.5154 33.2678 38.0069 31.6262 38.0193 29.9461C38.0193 23.2218 29.9916 16.9424 20.1021 16.9424C10.2126 16.9424 2.19897 23.2246 2.19897 29.9432C2.21314 31.6248 2.70447 33.2678 3.61581 34.6811C6.33046 32.6494 12.7062 31.2155 20.1077 31.2127"/><path fill="#F5FAFC" d="M20.1078 31.2549C27.5178 31.2549 33.8765 32.6718 36.5799 34.6893C37.4896 33.2932 37.9812 31.666 37.9967 29.9996C37.9967 23.3292 29.9803 17.0923 20.1049 17.0923C10.2296 17.0923 2.22736 23.3263 2.22736 29.994C2.2432 31.6638 2.73468 33.2945 3.64419 34.695C6.356 32.6774 12.7119 31.2549 20.1134 31.2549"/><path fill="#FAFCFF" d="M20.1077 31.3118C27.5064 31.3118 33.8567 32.7287 36.56 34.7122C37.4688 33.3272 37.9606 31.7102 37.9768 30.0537C37.9768 23.4371 29.9745 17.2427 20.1247 17.2427C10.2749 17.2427 2.27264 23.4399 2.27264 30.0508C2.28862 31.7083 2.7804 33.3262 3.68948 34.7122C6.39846 32.7117 12.7572 31.3118 20.1247 31.3118"/><path fill="#fff" d="M20.1078 31.3597C27.5008 31.3597 33.8369 32.7624 36.543 34.7431C37.4503 33.3721 37.9423 31.7682 37.9598 30.1242C37.9598 23.5558 29.9661 17.4067 20.1078 17.4067C10.2495 17.4067 2.28119 23.5643 2.28119 30.1214C2.29572 31.7676 2.78793 33.3741 3.69802 34.7459C6.40134 32.7624 12.7459 31.3625 20.1163 31.3597"/></g><path fill="#0869AB" d="M20.0199 24.8145C13.5534 24.8145 7.55175 25.9139 2.61267 27.7728C4.11464 31.1336 6.55746 33.9877 9.64615 35.9905C12.7348 37.9932 16.3373 39.059 20.0184 39.059C23.6996 39.059 27.3021 37.9932 30.3908 35.9905C33.4794 33.9877 35.9223 31.1336 37.4242 27.7728C32.4738 25.9139 26.4693 24.8145 20.0199 24.8145Z"/></g><defs><clipPath id="clip0_6_787"><rect width="40" height="40" fill="#fff"/></clipPath></defs></svg>