<svg xmlns="http://www.w3.org/2000/svg" width="320" height="320" fill="none" viewBox="0 0 320 320"><path fill="#E94646" fill-rule="evenodd" d="M320 16C320 7.16344 312.837 0 304 0C295.163 0 288 7.16345 288 16V272C288 280.837 280.837 288 272 288H80C71.1634 288 64 295.163 64 304C64 312.837 71.1634 320 80 320H288H304C312.837 320 320 312.837 320 304V288V16Z" clip-rule="evenodd"/><path fill="#FB7B05" fill-rule="evenodd" d="M256 80C256 71.1634 248.837 64 240 64C231.163 64 224 71.1634 224 80V208C224 216.837 216.837 224 208 224H80C71.1634 224 64 231.163 64 240C64 248.837 71.1634 256 80 256H224H240C248.837 256 256 248.837 256 240V224V80Z" clip-rule="evenodd"/><path fill="#4ACA3F" fill-rule="evenodd" d="M192 80C192 71.1634 184.837 64 176 64C167.163 64 160 71.1634 160 80V144C160 152.837 152.837 160 144 160H80C71.1634 160 64 167.163 64 176C64 184.837 71.1634 192 80 192H160H176C184.837 192 192 184.837 192 176V160V80Z" clip-rule="evenodd"/><path fill="#4180E9" fill-rule="evenodd" d="M16 0C7.16344 0 0 7.16344 0 16C0 24.8366 7.16344 32 16 32H240C248.837 32 256 24.8366 256 16C256 7.16344 248.837 0 240 0H16ZM32 80C32 71.1634 24.8366 64 16 64C7.16344 64 0 71.1634 0 80V304C0 312.837 7.16344 320 16 320C24.8366 320 32 312.837 32 304V80Z" clip-rule="evenodd"/></svg>