<svg xmlns="http://www.w3.org/2000/svg" width="2369" height="512" fill="none" viewBox="0 0 2369 512"><path fill="#E94646" fill-rule="evenodd" d="M512 25.6C512 11.4615 500.538 0 486.4 0V0C472.261 0 460.8 11.4615 460.8 25.6V428.8C460.8 446.473 446.473 460.8 428.8 460.8H128C113.861 460.8 102.4 472.262 102.4 486.4V486.4C102.4 500.538 113.861 512 128 512H460.8H480C497.673 512 512 497.673 512 480V460.8V25.6Z" clip-rule="evenodd"/><path fill="#FB7B05" fill-rule="evenodd" d="M409.6 128C409.6 113.862 398.138 102.4 384 102.4V102.4C369.861 102.4 358.4 113.862 358.4 128V326.4C358.4 344.073 344.073 358.4 326.4 358.4H128C113.861 358.4 102.4 369.862 102.4 384V384C102.4 398.138 113.861 409.6 128 409.6L358.4 409.6H377.6C395.273 409.6 409.6 395.273 409.6 377.6V358.4V128Z" clip-rule="evenodd"/><path fill="#4ACA3F" fill-rule="evenodd" d="M307.2 128C307.2 113.862 295.738 102.4 281.6 102.4V102.4C267.461 102.4 256 113.862 256 128V224C256 241.673 241.673 256 224 256H128C113.861 256 102.4 267.462 102.4 281.6V281.6C102.4 295.738 113.861 307.2 128 307.2L256 307.2H275.2C292.873 307.2 307.2 292.873 307.2 275.2V256V128Z" clip-rule="evenodd"/><path fill="#4180E9" fill-rule="evenodd" d="M25.6 0C11.4615 0 0 11.4615 0 25.6V25.6C0 39.7385 11.4615 51.2 25.6 51.2H384C398.138 51.2 409.6 39.7385 409.6 25.6V25.6C409.6 11.4615 398.138 0 384 0H25.6ZM51.2 128C51.2 113.862 39.7385 102.4 25.6 102.4V102.4C11.4615 102.4 0 113.862 0 128V486.4C0 500.538 11.4615 512 25.6 512V512C39.7385 512 51.2 500.538 51.2 486.4V128Z" clip-rule="evenodd"/><path fill="#000" d="M653.636 164.909V116.227H883V164.909H797.5V395.5H739.136V164.909H653.636ZM1025.5 306.318V186.045H1083.59V395.5H1027.82V357.455H1025.64C1020.91 369.727 1013.05 379.591 1002.05 387.045C991.136 394.5 977.818 398.227 962.091 398.227C948.091 398.227 935.773 395.045 925.136 388.682C914.5 382.318 906.182 373.273 900.182 361.545C894.273 349.818 891.273 335.773 891.182 319.409V186.045H949.273V309.045C949.364 321.409 952.682 331.182 959.227 338.364C965.773 345.545 974.545 349.136 985.545 349.136C992.545 349.136 999.091 347.545 1005.18 344.364C1011.27 341.091 1016.18 336.273 1019.91 329.909C1023.73 323.545 1025.59 315.682 1025.5 306.318ZM1241.47 186.045V229.682H1115.33V186.045H1241.47ZM1143.97 135.864H1202.06V331.136C1202.06 336.5 1202.88 340.682 1204.51 343.682C1206.15 346.591 1208.42 348.636 1211.33 349.818C1214.33 351 1217.78 351.591 1221.69 351.591C1224.42 351.591 1227.15 351.364 1229.88 350.909C1232.6 350.364 1234.69 349.955 1236.15 349.682L1245.28 392.909C1242.38 393.818 1238.28 394.864 1233.01 396.045C1227.74 397.318 1221.33 398.091 1213.78 398.364C1199.78 398.909 1187.51 397.045 1176.97 392.773C1166.51 388.5 1158.38 381.864 1152.56 372.864C1146.74 363.864 1143.88 352.5 1143.97 338.773V135.864ZM1413.62 306.318V186.045H1471.72V395.5H1415.94V357.455H1413.76C1409.03 369.727 1401.17 379.591 1390.17 387.045C1379.26 394.5 1365.94 398.227 1350.22 398.227C1336.22 398.227 1323.9 395.045 1313.26 388.682C1302.63 382.318 1294.31 373.273 1288.31 361.545C1282.4 349.818 1279.4 335.773 1279.31 319.409V186.045H1337.4V309.045C1337.49 321.409 1340.81 331.182 1347.35 338.364C1353.9 345.545 1362.67 349.136 1373.67 349.136C1380.67 349.136 1387.22 347.545 1393.31 344.364C1399.4 341.091 1404.31 336.273 1408.03 329.909C1411.85 323.545 1413.72 315.682 1413.62 306.318ZM1518.18 395.5V186.045H1574.5V222.591H1576.68C1580.5 209.591 1586.91 199.773 1595.91 193.136C1604.91 186.409 1615.27 183.045 1627 183.045C1629.91 183.045 1633.05 183.227 1636.41 183.591C1639.77 183.955 1642.73 184.455 1645.27 185.091V236.636C1642.55 235.818 1638.77 235.091 1633.95 234.455C1629.14 233.818 1624.73 233.5 1620.73 233.5C1612.18 233.5 1604.55 235.364 1597.82 239.091C1591.18 242.727 1585.91 247.818 1582 254.364C1578.18 260.909 1576.27 268.455 1576.27 277V395.5H1518.18ZM1809.62 306.318V186.045H1867.72V395.5H1811.94V357.455H1809.76C1805.03 369.727 1797.17 379.591 1786.17 387.045C1775.26 394.5 1761.94 398.227 1746.22 398.227C1732.22 398.227 1719.9 395.045 1709.26 388.682C1698.63 382.318 1690.31 373.273 1684.31 361.545C1678.4 349.818 1675.4 335.773 1675.31 319.409V186.045H1733.4V309.045C1733.49 321.409 1736.81 331.182 1743.35 338.364C1749.9 345.545 1758.67 349.136 1769.67 349.136C1776.67 349.136 1783.22 347.545 1789.31 344.364C1795.4 341.091 1800.31 336.273 1804.03 329.909C1807.85 323.545 1809.72 315.682 1809.62 306.318ZM2048.5 306.318V186.045H2106.59V395.5H2050.82V357.455H2048.64C2043.91 369.727 2036.05 379.591 2025.05 387.045C2014.14 394.5 2000.82 398.227 1985.09 398.227C1971.09 398.227 1958.77 395.045 1948.14 388.682C1937.5 382.318 1929.18 373.273 1923.18 361.545C1917.27 349.818 1914.27 335.773 1914.18 319.409V186.045H1972.27V309.045C1972.36 321.409 1975.68 331.182 1982.23 338.364C1988.77 345.545 1997.55 349.136 2008.55 349.136C2015.55 349.136 2022.09 347.545 2028.18 344.364C2034.27 341.091 2039.18 336.273 2042.91 329.909C2046.73 323.545 2048.59 315.682 2048.5 306.318ZM2287.38 306.318V186.045H2345.47V395.5H2289.69V357.455H2287.51C2282.78 369.727 2274.92 379.591 2263.92 387.045C2253.01 394.5 2239.69 398.227 2223.97 398.227C2209.97 398.227 2197.65 395.045 2187.01 388.682C2176.38 382.318 2168.06 373.273 2162.06 361.545C2156.15 349.818 2153.15 335.773 2153.06 319.409V186.045H2211.15V309.045C2211.24 321.409 2214.56 331.182 2221.1 338.364C2227.65 345.545 2236.42 349.136 2247.42 349.136C2254.42 349.136 2260.97 347.545 2267.06 344.364C2273.15 341.091 2278.06 336.273 2281.78 329.909C2285.6 323.545 2287.47 315.682 2287.38 306.318Z"/></svg>