<svg width="240" height="80" viewBox="0 0 240 80" fill="none" xmlns="http://www.w3.org/2000/svg">
<path d="M29.2202 33.3926C28.6012 33.0487 28.0903 33.1076 27.7563 33.7561L23.05 42.1763H30.9003L33.8479 47.6391C29.7901 47.6391 25.7421 47.6587 21.6843 47.6587C19.5817 47.5801 18.7368 50.1936 17.5577 52.3748H9L22.5686 27.6154L34.5062 27.7038L44.8128 46.4895C50.3837 46.3225 60.7984 46.2734 63.8933 46.2636C65.9468 46.0769 65.5046 42.5595 63.8933 42.363L46.4045 42.3826L38.2987 27.635H60.4054C61.5451 27.635 64.9446 27.5662 67.4107 27.6645C67.509 27.6645 67.617 27.694 67.7153 27.7136C69.081 27.9494 69.7491 28.3424 70.5941 29.2267C71.5569 30.2387 71.8517 31.8697 71.8517 33.4712C71.8517 34.8467 71.7436 36.2517 71.4194 37.2047C70.879 38.7964 69.8572 39.5333 68.6389 39.8084C70.5449 39.9853 72.4412 40.6436 72.736 44.3182C72.7949 45.1238 72.9226 46.0474 72.8735 47.138C72.7949 49.0539 72.0089 50.793 70.486 51.3923C66.9981 52.7777 61.1226 52.3159 58.8628 52.3257L46.601 52.3847C46.1785 52.3847 45.7855 52.365 45.4318 52.3257L39.6644 52.3454C36.1666 46.0278 32.718 39.7102 29.2202 33.3926ZM51.0813 37.3423C53.5572 37.3423 59.4228 37.3423 61.9577 37.3423C61.9676 37.3423 61.9872 37.3423 62.0069 37.3423C65.1214 37.4209 64.5811 33.9723 62.9992 33.6775C62.8125 33.6382 62.7437 33.5989 62.4785 33.5989C59.1379 33.5793 51.2974 33.6087 48.9688 33.6087L51.0813 37.3521V37.3423ZM75.9881 27.635H96.6799C98.5074 27.635 103.97 27.2715 106.702 29.4723C107.773 30.3271 108.116 31.8795 108.116 33.481C108.116 34.8565 108.008 36.2615 107.684 37.2146C107.144 38.8062 106.122 39.5431 104.904 39.8182C107.222 40.2113 109.453 41.459 109.246 46.8138C108.971 53.9076 98.3502 52.3945 95.1275 52.3355L75.9684 51.9916V27.635H75.9881ZM84.0742 46.4208C86.56 46.4208 96.3066 46.4208 98.8316 46.4208C98.8513 46.4208 98.8709 46.4208 98.8808 46.4208C101.995 46.4994 101.308 42.7068 99.7356 42.4121C99.5489 42.3728 99.6177 42.4612 99.3524 42.4612C96.0118 42.4416 86.2652 42.3335 83.9367 42.3335L84.0742 46.4208ZM84.0742 37.3521C86.56 37.3521 95.383 37.3521 97.9081 37.3521C97.9277 37.3521 97.9375 37.3521 97.9572 37.3521C101.072 37.4307 100.531 33.9821 98.9495 33.6873C98.7629 33.648 98.6941 33.6087 98.4288 33.6087C95.0882 33.5891 86.393 33.6186 84.0742 33.6186V37.3619V37.3521ZM146.779 27.4778H160.642C164.287 32.7539 167.922 38.0202 171.567 43.2964C172.697 45.3596 173.876 45.8411 174.269 44.2592L174.142 39.8772V27.6154L182.257 27.635L182.238 52.3945H168.649C164.385 46.6271 160.76 41.3313 156.496 35.5541C155.67 34.1295 154.58 34.945 154.58 35.9275C154.58 36.7331 154.56 37.7844 154.619 38.8652V52.5222L146.779 52.3945H145.983C145.56 52.3945 145.167 52.3748 144.804 52.3355L139.036 52.3552C135.548 46.0376 132.09 39.72 128.592 33.4024C127.973 33.0585 127.472 33.1175 127.128 33.7659L122.422 42.1861H129.928L132.876 47.6489C128.828 47.6489 125.104 47.6686 121.046 47.6686C118.944 47.59 118.099 50.2035 116.92 52.3847H108.362L121.94 27.6154H134.232L144.43 46.4699C144.755 46.9513 145.226 47.9142 145.6 48.0714C146.101 48.2188 146.454 48.0812 146.779 47.757V27.4778ZM185.077 27.6055H193.075V36.3205C194.038 38.2069 196.238 37.9515 197.86 36.1535L207.233 27.6055H216.95L203.342 40.0147L217.422 52.424H207.537C203.971 49.1522 200.208 46.1358 196.641 42.864C194.627 41.7342 193.104 42.5398 193.183 44.7701C193.203 45.2909 193.183 45.8411 193.183 46.4109V52.4927L185.087 52.5124V27.6055H185.077Z" fill="#00A9AC"/>
<path d="M222.531 27.6055H230.499L216.822 40.0147L231 52.4043L223.002 52.4239L208.834 40.0835L222.531 27.6055Z" fill="#DF762E"/>
</svg>
