<svg width="40" height="40" viewBox="0 0 40 40" fill="none" xmlns="http://www.w3.org/2000/svg">
<path d="M3.64328 19.0657C3.53175 19.0038 3.4397 19.0144 3.37951 19.1312L2.53153 20.6484H3.94601L4.4771 21.6327C3.74596 21.6327 3.0166 21.6362 2.28546 21.6362C1.90662 21.622 1.75437 22.0929 1.54193 22.4859H0L2.44479 18.0248L4.59571 18.0407L6.45275 21.4255C7.45652 21.3954 9.33304 21.3866 9.89068 21.3848C10.2607 21.3512 10.181 20.7174 9.89068 20.682L6.73954 20.6855L5.27904 18.0283H9.26223C9.46758 18.0283 10.0801 18.0159 10.5245 18.0336C10.5422 18.0336 10.5616 18.0389 10.5793 18.0425C10.8254 18.085 10.9458 18.1558 11.098 18.3151C11.2715 18.4975 11.3246 18.7913 11.3246 19.0799C11.3246 19.3277 11.3052 19.5809 11.2467 19.7526C11.1494 20.0394 10.9653 20.1722 10.7457 20.2217C11.0892 20.2536 11.4308 20.3722 11.484 21.0343C11.4946 21.1795 11.5176 21.3459 11.5087 21.5424C11.4946 21.8876 11.353 22.2009 11.0786 22.3089C10.4501 22.5585 9.39146 22.4753 8.98429 22.4771L6.77495 22.4877C6.69883 22.4877 6.62802 22.4842 6.56428 22.4771L5.52512 22.4806C4.89489 21.3423 4.27351 20.204 3.64328 19.0657ZM7.58221 19.7774C8.02833 19.7774 9.0852 19.7774 9.54193 19.7774C9.54193 19.7774 9.54724 19.7774 9.55079 19.7774C10.112 19.7915 10.0146 19.1702 9.72959 19.1171C9.69595 19.11 9.68356 19.1029 9.63576 19.1029C9.03386 19.0994 7.62115 19.1047 7.20159 19.1047L7.58221 19.7792V19.7774ZM12.0699 18.0283H15.7982C16.1275 18.0283 17.1118 17.9628 17.6039 18.3594C17.7969 18.5134 17.8588 18.7931 17.8588 19.0817C17.8588 19.3295 17.8393 19.5827 17.7809 19.7544C17.6836 20.0412 17.4994 20.1739 17.2799 20.2235C17.6977 20.2943 18.0996 20.5191 18.0624 21.484C18.0128 22.7621 16.0991 22.4895 15.5185 22.4789L12.0664 22.4169V18.0283H12.0699ZM13.5269 21.4131C13.9748 21.4131 15.7309 21.4131 16.1859 21.4131C16.1894 21.4131 16.1947 21.4131 16.1947 21.4131C16.7559 21.4273 16.632 20.744 16.3487 20.6909C16.3151 20.6838 16.3275 20.6997 16.2797 20.6997C15.6778 20.6962 13.9217 20.6767 13.5021 20.6767L13.5269 21.4131ZM13.5269 19.7792C13.9748 19.7792 15.5645 19.7792 16.0195 19.7792C16.023 19.7792 16.0248 19.7792 16.0283 19.7792C16.5895 19.7933 16.4921 19.1719 16.2071 19.1188C16.1735 19.1118 16.1611 19.1047 16.1133 19.1047C15.5114 19.1011 13.9447 19.1064 13.5269 19.1064V19.7809V19.7792ZM24.825 18H27.3229C27.9796 18.9507 28.6347 19.8995 29.2914 20.8502C29.495 21.222 29.7075 21.3087 29.7783 21.0237L29.7553 20.2341V18.0248L31.2175 18.0283L31.214 22.4895H28.7657C27.9973 21.4503 27.3441 20.4961 26.5758 19.4552C26.4271 19.1985 26.2306 19.3454 26.2306 19.5225C26.2306 19.6676 26.227 19.857 26.2377 20.0518V22.5125L24.825 22.4895H24.6816C24.6054 22.4895 24.5346 22.4859 24.4691 22.4789L23.43 22.4824C22.8015 21.3441 22.1784 20.2058 21.5481 19.0675C21.4366 19.0055 21.3463 19.0162 21.2844 19.133L20.4364 20.6501H21.7889L22.32 21.6344C21.5906 21.6344 20.9197 21.638 20.1885 21.638C19.8097 21.6238 19.6574 22.0947 19.445 22.4877H17.9031L20.3496 18.0248H22.5643L24.4019 21.422C24.4603 21.5087 24.5453 21.6822 24.6125 21.7106C24.7028 21.7371 24.7665 21.7123 24.825 21.6539V18ZM31.7256 18.023H33.1666V19.5933C33.3401 19.9332 33.7367 19.8871 34.0288 19.5632L35.7176 18.023H37.4685L35.0166 20.2589L37.5534 22.4948H35.7725C35.1299 21.9053 34.4519 21.3618 33.8092 20.7723C33.4463 20.5687 33.1719 20.7139 33.1861 21.1157C33.1896 21.2096 33.1861 21.3087 33.1861 21.4114V22.5072L31.7274 22.5107V18.023H31.7256Z" fill="#00A9AC"/>
<path d="M38.474 18.023H39.9097L37.4455 20.2589L40 22.4913L38.559 22.4948L36.0062 20.2713L38.474 18.023Z" fill="#DF762E"/>
</svg>
