<svg xmlns="http://www.w3.org/2000/svg" width="101" height="40" fill="none" viewBox="0 0 101 40"><g clip-path="url(#clip0_4_2082)"><path fill="#1F419B" d="M55.2198 3.77657e-09C44.2919 -0.00021234 35.4329 8.95414 35.4328 20C35.4329 31.0459 44.2919 40.0002 55.2198 40C60.6042 39.9998 65.4833 37.8232 69.0508 34.2962C69.4235 33.9291 69.3406 33.2495 69.0508 32.9556L64.9857 28.8349C64.5923 28.4361 63.9524 28.5268 63.7463 28.7317C61.6796 30.7861 58.8851 32.0466 55.8097 32.0464C49.4447 32.0462 44.2852 26.6458 44.2856 19.9845C44.2856 13.3496 49.4062 7.96066 55.7458 7.92364C55.7671 7.92357 55.7884 7.92357 55.8097 7.92364C58.8007 7.9235 61.5259 9.1158 63.5744 11.0712C63.8113 11.2974 64.4032 11.2661 64.751 10.9133L68.7687 6.83695C68.9596 6.64323 69.3211 5.99603 68.9118 5.56966C65.3569 2.12244 60.5351 0.000173916 55.2198 3.77657e-09ZM14.6566 0.979362C14.3651 1.00486 13.739 1.18034 13.3894 2.17338C12.9232 3.49743 0.209031 37.5862 0.209031 37.5862C0.209031 37.5862 -0.438426 38.9329 0.545642 38.9329H7.89963C7.89963 38.9329 8.69766 38.8906 9.14314 37.5077L11.4768 30.2642H25.0112L27.3994 37.7678C27.3994 37.7678 27.685 38.9329 28.7726 38.9329H36.5157C36.5157 38.9329 37.3445 38.8834 36.8266 37.7152C36.3087 36.5469 23.7739 2.01755 23.7739 2.01755C23.7739 2.01755 23.5675 0.979362 22.1691 0.979362H14.8141C14.8141 0.979362 14.7537 0.970839 14.6566 0.979362ZM72.8461 0.979362C72.8461 0.979362 71.932 0.95023 71.932 1.92776V37.9938C71.932 37.9938 71.933 38.9329 72.8266 38.9329H87.9185C87.9185 38.9329 94.7032 38.9505 98.2783 35.3664C101.853 31.7822 100.879 26.4469 100.879 26.4469C100.879 26.4469 100.026 20.3372 93.2816 18.7895C93.2816 18.7895 99.3354 17.0792 98.9495 9.9515C98.3797 3.71162 92.7615 0.979362 86.9241 0.979362H72.8461ZM80.2608 7.60991H85.8062C85.8062 7.60991 90.4784 7.60971 90.5393 11.9474C90.6003 16.2851 85.6436 16.1837 85.6436 16.1837H80.2608V7.60991ZM18.2842 9.13107L22.8794 23.5666H13.6344L18.2842 9.13107ZM80.2608 22.4355H86.5381C86.5381 22.4355 92.2456 22.4755 92.2862 27.4242C92.3269 32.3728 86.8016 32.3736 86.8016 32.3736H80.2608V22.4355Z"/><path fill="#00AEEF" d="M63 20C63 20.9193 62.8189 21.8295 62.4672 22.6788C62.1154 23.5281 61.5998 24.2997 60.9497 24.9497C60.2997 25.5998 59.5281 26.1154 58.6788 26.4672C57.8295 26.8189 56.9193 27 56 27C55.0807 27 54.1705 26.8189 53.3212 26.4672C52.4719 26.1154 51.7003 25.5998 51.0502 24.9497C50.4002 24.2997 49.8846 23.5281 49.5328 22.6788C49.1811 21.8295 49 20.9193 49 20C49 19.0807 49.1811 18.1705 49.5328 17.3212C49.8846 16.4719 50.4002 15.7003 51.0502 15.0503C51.7003 14.4002 52.4719 13.8846 53.3212 13.5328C54.1705 13.1811 55.0807 13 56 13C56.9193 13 57.8295 13.1811 58.6788 13.5328C59.5281 13.8846 60.2997 14.4002 60.9497 15.0503C61.5998 15.7003 62.1154 16.4719 62.4672 17.3212C62.8189 18.1705 63 19.0807 63 20Z"/></g><defs><clipPath id="clip0_4_2082"><rect width="101" height="40" fill="#fff"/></clipPath></defs></svg>