<svg width="40" height="40" viewBox="0 0 40 40" fill="none" xmlns="http://www.w3.org/2000/svg">
<path d="M22.1437 13C17.9594 12.9999 14.5673 16.4199 14.5673 20.6388C14.5673 24.8576 17.9594 28.2776 22.1437 28.2775C24.2055 28.2774 26.0736 27.4461 27.4396 26.099C27.5824 25.9588 27.5506 25.6992 27.4396 25.587L25.8831 24.0131C25.7325 23.8608 25.4875 23.8955 25.4085 23.9737C24.6172 24.7584 23.5472 25.2398 22.3696 25.2397C19.9325 25.2397 17.9569 23.177 17.957 20.6328C17.957 18.0987 19.9177 16.0405 22.3452 16.0263C22.3533 16.0263 22.3614 16.0263 22.3696 16.0263C23.5149 16.0263 24.5584 16.4817 25.3427 17.2285C25.4335 17.3149 25.6601 17.303 25.7932 17.1682L27.3316 15.6113C27.4047 15.5373 27.5431 15.2901 27.3864 15.1273C26.0253 13.8106 24.179 13.0001 22.1437 13ZM6.61202 13.3741C6.50043 13.3838 6.26068 13.4508 6.12681 13.8301C5.94833 14.3358 1.08004 27.3556 1.08004 27.3556C1.08004 27.3556 0.832126 27.8699 1.20893 27.8699H4.02478C4.02478 27.8699 4.33035 27.8538 4.50092 27.3256L5.39447 24.559H10.5768L11.4913 27.4249C11.4913 27.4249 11.6006 27.8699 12.0171 27.8699H14.9819C14.9819 27.8699 15.2993 27.851 15.101 27.4048C14.9026 26.9586 10.1031 13.7706 10.1031 13.7706C10.1031 13.7706 10.024 13.3741 9.48857 13.3741H6.67233C6.67233 13.3741 6.64922 13.3708 6.61202 13.3741ZM28.8929 13.3741C28.8929 13.3741 28.5429 13.3629 28.5429 13.7363V27.5113C28.5429 27.5113 28.5433 27.8699 28.8854 27.8699H34.6641C34.6641 27.8699 37.262 27.8767 38.6309 26.5077C39.9999 25.1388 39.6266 23.101 39.6266 23.101C39.6266 23.101 39.3 20.7675 36.7177 20.1764C36.7177 20.1764 39.0357 19.5232 38.8879 16.8009C38.6697 14.4176 36.5185 13.3741 34.2834 13.3741H28.8929ZM31.732 15.9065H33.8553C33.8553 15.9065 35.6443 15.9064 35.6676 17.5631C35.691 19.2199 33.793 19.1812 33.793 19.1812H31.732V15.9065ZM8.00103 16.4875L9.76054 22.001H6.22063L8.00103 16.4875ZM31.732 21.569H34.1356C34.1356 21.569 36.321 21.5842 36.3365 23.4743C36.3521 25.3644 34.2365 25.3647 34.2365 25.3647H31.732V21.569Z" fill="#1F419B"/>
<path d="M25.0908 20.6299C25.0908 20.9719 25.0235 21.3106 24.8926 21.6265C24.7617 21.9425 24.5699 22.2296 24.3281 22.4714C24.0862 22.7132 23.7992 22.905 23.4832 23.0359C23.1673 23.1668 22.8286 23.2341 22.4866 23.2341C22.1446 23.2341 21.806 23.1668 21.4901 23.0359C21.1741 22.905 20.887 22.7132 20.6452 22.4714C20.4034 22.2296 20.2115 21.9425 20.0807 21.6265C19.9498 21.3106 19.8824 20.9719 19.8824 20.6299C19.8824 20.288 19.9498 19.9493 20.0807 19.6334C20.2116 19.3174 20.4034 19.0303 20.6452 18.7885C20.887 18.5467 21.1741 18.3549 21.4901 18.224C21.806 18.0931 22.1446 18.0258 22.4866 18.0258C22.8286 18.0258 23.1673 18.0931 23.4832 18.224C23.7992 18.3549 24.0862 18.5467 24.3281 18.7885C24.5699 19.0303 24.7617 19.3174 24.8926 19.6334C25.0235 19.9493 25.0908 20.288 25.0908 20.6299Z" fill="#00AEEF"/>
</svg>
