<svg width="137" height="40" viewBox="0 0 137 40" fill="none" xmlns="http://www.w3.org/2000/svg">
<g clip-path="url(#clip0_5_7625)">
<path d="M127.346 22.9202C129.172 22.1814 131.157 21.9295 133.108 22.1889C134.211 22.3047 135.258 22.7334 136.127 23.4247C136.351 23.5846 136.541 23.7874 136.686 24.0214C136.832 24.2554 136.929 24.516 136.973 24.788C137.017 25.0601 137.007 25.3382 136.943 25.6063C136.879 25.8743 136.763 26.1271 136.601 26.3498C136.448 26.5619 136.083 27.0226 135.566 27.6588L135.201 28.1049C132.634 31.242 127.448 37.3773 125.822 39.264C125.613 39.5194 125.34 39.7149 125.032 39.8305C124.723 39.9461 124.389 39.9777 124.064 39.9221C122.924 39.5049 121.98 38.6756 121.417 37.5967C121.056 36.9442 120.793 36.2419 120.637 35.5126C120.286 34.0671 120.242 32.5639 120.507 31.1002C120.772 29.6365 121.341 28.2449 122.176 27.0152C123.508 25.2158 125.292 23.8028 127.346 22.9202ZM98.1741 22.1889C100.125 21.9284 102.111 22.1804 103.936 22.9202C105.993 23.8181 107.776 25.2492 109.099 27.0664C109.931 28.2976 110.497 29.6892 110.762 31.1524C111.027 32.6155 110.985 34.118 110.638 35.5638C110.477 36.2931 110.212 36.9951 109.85 37.6479C109.291 38.7294 108.346 39.5598 107.203 39.9733C106.878 40.0289 106.544 39.9973 106.236 39.8817C105.927 39.7661 105.654 39.5706 105.445 39.3152C103.782 37.3846 98.3783 30.9787 95.8841 27.922L95.5413 27.4979C95.111 26.9714 94.812 26.5838 94.6807 26.401C94.5198 26.1779 94.4044 25.9251 94.3411 25.6572C94.2778 25.3893 94.2679 25.1115 94.3119 24.8397C94.356 24.568 94.4531 24.3076 94.5977 24.0736C94.7423 23.8395 94.9317 23.6364 95.1548 23.4759C96.0177 22.7662 97.0656 22.3195 98.1741 22.1889ZM17.9504 25.2821L10.2489 37.6406C10.0275 38.0019 9.71758 38.3004 9.34867 38.5078C8.97976 38.7151 8.56409 38.8244 8.14118 38.8252H1.16171C0.950792 38.8339 0.741527 38.7847 0.556458 38.6829C0.371388 38.5811 0.217534 38.4306 0.111502 38.2475C0.0233678 38.0483 -0.0134585 37.8301 0.00438092 37.6129C0.0222203 37.3957 0.0941649 37.1865 0.213616 37.0044C0.403236 36.7046 3.21107 32.1926 6.30333 27.2273L6.69714 26.5911L6.89407 26.2694L7.29518 25.6332L7.49208 25.3114L17.9504 25.2821ZM78.9715 25.2821L74.7414 30.869H85.0539C85.2496 30.8524 85.4466 30.8787 85.6311 30.9463C85.8157 31.0139 85.9832 31.1211 86.1221 31.2604C86.261 31.3997 86.368 31.5677 86.4354 31.7527C86.5028 31.9377 86.5291 32.1353 86.5125 32.3316V37.3042C86.5304 37.5007 86.505 37.6989 86.438 37.8845C86.3711 38.0701 86.2642 38.2387 86.125 38.3782C85.9858 38.5178 85.8177 38.6249 85.6326 38.6921C85.4475 38.7592 85.2499 38.7847 85.0539 38.7667H63.2695C63.187 38.7744 63.104 38.7744 63.0215 38.7667C62.8399 38.7502 62.6634 38.6979 62.5019 38.6128C62.3405 38.5277 62.1975 38.4116 62.0809 38.271C61.9644 38.1303 61.8767 37.968 61.8228 37.7934C61.769 37.6187 61.75 37.435 61.7671 37.253V36.4047C61.6792 34.3432 62.2656 32.3094 63.4372 30.6131L67.514 25.2309L78.9715 25.2821ZM28.8972 25.2821L30.9685 37.0994C31.019 37.2958 31.0282 37.5006 30.9956 37.7008C30.963 37.901 30.8892 38.0921 30.7789 38.2621C30.6375 38.4477 30.4519 38.5945 30.239 38.6891C30.0261 38.7837 29.7929 38.8229 29.5609 38.8033H22.8586C22.4671 38.8256 22.0824 38.6935 21.7867 38.4353C21.491 38.177 21.3077 37.8131 21.276 37.4212C21.1739 36.8289 19.3725 26.6496 19.0881 25.2748H28.8462L28.8972 25.2821ZM39.2461 9.75733C41.434 9.80121 43.3375 10.4886 44.4679 12.3753L50.0836 22.5106V11.2199C50.0657 11.0233 50.0911 10.8252 50.158 10.6396C50.225 10.454 50.3319 10.2854 50.4711 10.1458C50.6103 10.0063 50.7784 9.8991 50.9635 9.83196C51.1486 9.76482 51.3462 9.73935 51.5422 9.75733H57.4715C57.6675 9.73935 57.8651 9.76482 58.0502 9.83196C58.2353 9.8991 58.4034 10.0063 58.5426 10.1458C58.6818 10.2854 58.7887 10.454 58.8557 10.6396C58.9226 10.8252 58.948 11.0233 58.9301 11.2199V23.2638H50.5139L51.6443 25.2748H58.9374V37.3115C58.954 37.5078 58.9277 37.7053 58.8603 37.8903C58.7929 38.0754 58.686 38.2434 58.547 38.3826C58.4081 38.5219 58.2406 38.6291 58.0561 38.6967C57.8715 38.7643 57.6745 38.7907 57.4788 38.774H53.1394C50.9515 38.7302 49.048 38.0428 47.9394 36.1634L42.2654 25.9257V37.2384C42.2834 37.435 42.258 37.6331 42.191 37.8187C42.124 38.0043 42.0172 38.1728 41.878 38.3124C41.7388 38.452 41.5707 38.5592 41.3856 38.6263C41.2004 38.6934 41.0029 38.7189 40.8068 38.7009H34.863C34.6672 38.7176 34.4702 38.6912 34.2857 38.6236C34.1012 38.556 33.9336 38.4488 33.7947 38.3095C33.6558 38.1703 33.5489 38.0022 33.4815 37.8172C33.4141 37.6322 33.3877 37.4347 33.4044 37.2384V25.2748H41.8935L40.7558 23.2638H33.3971V11.2199C33.3791 11.0233 33.4045 10.8252 33.4715 10.6396C33.5385 10.454 33.6453 10.2854 33.7845 10.1458C33.9237 10.0063 34.0918 9.8991 34.2769 9.83196C34.4621 9.76482 34.6597 9.73935 34.8557 9.75733H39.2315H39.2461ZM24.9298 9.75733C25.2994 9.77656 25.6499 9.92809 25.9175 10.1844C26.1852 10.4407 26.3523 10.7847 26.3884 11.1541L28.5326 23.2785H8.76837L13.4578 15.7391L13.6839 15.3735L14.6612 13.8086C15.4136 12.5758 16.4679 11.5564 17.724 10.8473C18.9801 10.1382 20.3961 9.76303 21.8376 9.75733H24.9007H24.9298ZM84.733 9.75733C84.9326 9.74585 85.1323 9.77781 85.3184 9.85102C85.5045 9.92423 85.6726 10.037 85.8112 10.1815C85.9498 10.326 86.0555 10.4988 86.1212 10.6882C86.1868 10.8775 86.2108 11.0788 86.1916 11.2784V13.1943C86.2076 14.8578 85.6484 16.4754 84.609 17.772L80.4373 23.2785H69.0456L73.2828 17.6916H63.4518C63.2555 17.7109 63.0573 17.6864 62.8716 17.6197C62.6859 17.553 62.5172 17.4459 62.3777 17.306C62.2382 17.1662 62.1314 16.997 62.0649 16.8108C61.9984 16.6246 61.9739 16.4259 61.9932 16.2291V11.2199C61.9739 11.023 61.9984 10.8243 62.0649 10.6381C62.1314 10.4519 62.2382 10.2828 62.3777 10.1429C62.5172 10.003 62.6859 9.8959 62.8716 9.82924C63.0573 9.76257 63.2555 9.73801 63.4518 9.75733H84.7476H84.733ZM106.547 4.37521C107.496 3.18202 108.67 2.18796 110.002 1.44978C111.334 0.711608 112.799 0.243768 114.311 0.0729882C115.824 -0.0977916 117.355 0.0318289 118.818 0.454444C120.28 0.87706 121.646 1.58439 122.836 2.53606C124.026 3.48773 125.017 4.6651 125.753 6.00095C126.489 7.33679 126.956 8.80496 127.126 10.3216C127.297 11.8383 127.167 13.3737 126.746 14.8402C126.324 16.3068 125.619 17.6757 124.67 18.8689C122.613 21.3552 120.061 22.262 119.025 22.2401C117.435 22.2401 117.72 20.9092 117.844 20.3754C118.016 19.7663 118.285 19.1887 118.638 18.6642C119.294 17.7418 119.649 16.638 119.652 15.5051C119.599 14.4648 119.153 13.4837 118.406 12.7602C117.659 12.0366 116.665 11.6246 115.626 11.6074C114.587 11.6262 113.594 12.0385 112.846 12.7616C112.098 13.4846 111.65 14.4648 111.593 15.5051C111.593 16.6386 111.942 17.7445 112.592 18.6715C112.948 19.195 113.217 19.7729 113.387 20.3827C113.511 20.9238 113.789 22.2328 112.206 22.2474C111.17 22.2474 108.625 21.3699 106.561 18.8762C104.922 16.8164 104.031 14.2593 104.032 11.6244C104.033 8.98957 104.928 6.43339 106.568 4.37521H106.547Z" fill="#056DFF"/>
</g>
<defs>
<clipPath id="clip0_5_7625">
<rect width="137" height="40" fill="white"/>
</clipPath>
</defs>
</svg>
