<svg width="240" height="80" viewBox="0 0 240 80" fill="none" xmlns="http://www.w3.org/2000/svg">
<path fill-rule="evenodd" clip-rule="evenodd" d="M145.211 41.9248C146.694 42.2089 147.802 42.663 148.538 43.2867C149.555 44.1557 150.065 45.2206 150.065 46.4771C150.065 47.4317 149.729 48.3479 149.057 49.2224C148.384 50.0956 147.463 50.7344 146.293 51.1364C145.12 51.5384 143.334 51.7397 140.927 51.7397H130.844V51.2144H131.648C132.541 51.2144 133.182 50.9584 133.57 50.4496C133.811 50.1175 133.932 49.4121 133.932 48.3349V35.9101C133.932 34.72 133.78 33.9667 133.476 33.6565C133.065 33.2382 132.458 33.0313 131.648 33.0313H130.844V32.5068H140.077C141.798 32.5068 143.18 32.6192 144.221 32.8478C145.795 33.1881 146.999 33.7887 147.827 34.657C148.658 35.5212 149.07 36.5156 149.07 37.6399C149.07 38.6048 148.746 39.4698 148.095 40.2278C147.445 40.9899 146.482 41.5556 145.211 41.9248ZM136.957 41.1584C137.346 41.2256 137.789 41.2754 138.288 41.3063C138.788 41.3412 139.334 41.3564 139.936 41.3564C141.466 41.3564 142.621 41.2071 143.395 40.9105C144.165 40.6125 144.754 40.1558 145.164 39.5416C145.576 38.928 145.78 38.2562 145.78 37.5283C145.78 36.4013 145.269 35.4425 144.25 34.651C143.234 33.8545 141.747 33.4573 139.792 33.4573C138.743 33.4573 137.796 33.56 136.957 33.7689V41.1584ZM136.957 50.3489C138.173 50.6051 139.379 50.733 140.564 50.733C142.467 50.733 143.915 50.3461 144.913 49.5744C145.911 48.8055 146.41 47.8536 146.41 46.7182C146.41 45.9691 146.183 45.2542 145.732 44.5639C145.28 43.8728 144.545 43.3278 143.526 42.9312C142.508 42.5327 141.246 42.3349 139.747 42.3349C139.094 42.3349 138.539 42.3458 138.076 42.365C137.614 42.3829 137.241 42.4165 136.957 42.465V50.3489Z" fill="#AF0B35" stroke="#9D1D26" stroke-width="0.0140607"/>
<path fill-rule="evenodd" clip-rule="evenodd" d="M166.591 45.2998H158.318L156.873 48.3348C156.515 49.0811 156.335 49.6407 156.335 50.0076C156.335 50.3021 156.491 50.5589 156.798 50.7808C157.11 51.004 157.782 51.1486 158.808 51.2123V51.7403H152.081V51.2123C152.973 51.0733 153.552 50.8877 153.813 50.661C154.351 50.2083 154.944 49.2853 155.594 47.8958L163.11 32.0676H163.663L171.098 48.0662C171.697 49.3509 172.241 50.1858 172.728 50.57C173.216 50.9527 173.897 51.1663 174.768 51.2123V51.7403H166.338V51.2123C167.191 51.1752 167.764 51.0506 168.066 50.8314C168.364 50.6157 168.512 50.3486 168.512 50.0384C168.512 49.6207 168.303 48.9648 167.883 48.0662L166.591 45.2998ZM166.15 44.2506L162.528 36.4777L158.808 44.2506H166.15Z" fill="#AF0B35" stroke="#9D1D26" stroke-width="0.0140607"/>
<path fill-rule="evenodd" clip-rule="evenodd" d="M174.704 32.5065H180.502L193.564 46.9309V35.84C193.564 34.6594 193.416 33.9212 193.122 33.6262C192.734 33.2296 192.12 33.0316 191.279 33.0316H190.536V32.5065H197.973V33.0316H197.219C196.315 33.0316 195.676 33.2768 195.295 33.7692C195.065 34.0712 194.95 34.7601 194.95 35.84V52.051H194.383L180.298 36.5625V48.4073C180.298 49.5871 180.441 50.3253 180.725 50.6204C181.122 51.0148 181.738 51.2142 182.565 51.2142H183.324V51.7401H175.887V51.2142H176.63C177.543 51.2142 178.188 50.9677 178.565 50.4787C178.795 50.1726 178.914 49.4844 178.914 48.4073V35.0319C178.294 34.3779 177.822 33.948 177.5 33.7405C177.182 33.5316 176.712 33.3371 176.092 33.1591C175.786 33.0755 175.325 33.0316 174.704 33.0316V32.5065Z" fill="#AF0B35" stroke="#9D1D26" stroke-width="0.0140607"/>
<path fill-rule="evenodd" clip-rule="evenodd" d="M208.076 41.0738L215.952 48.1216C217.243 49.2857 218.346 50.08 219.258 50.4984C220.175 50.9174 221.087 51.1566 222 51.2148V51.7399H211.841V51.2148C212.447 51.2148 212.886 51.1223 213.153 50.9367C213.423 50.7546 213.559 50.5457 213.559 50.3217C213.559 50.0944 213.507 49.8923 213.407 49.7116C213.308 49.5315 212.979 49.1961 212.424 48.7049L205.047 42.1371V48.3352C205.047 49.3082 205.117 49.9514 205.253 50.2643C205.36 50.5013 205.579 50.7039 205.915 50.8744C206.367 51.1003 206.846 51.2148 207.35 51.2148H208.076V51.7399H198.967V51.2148H199.722C200.605 51.2148 201.246 50.9819 201.646 50.5197C201.897 50.2185 202.024 49.4897 202.024 48.3352V35.9104C202.024 34.9345 201.956 34.2874 201.821 33.9669C201.715 33.7404 201.499 33.5431 201.171 33.3725C200.711 33.1446 200.229 33.0315 199.722 33.0315H198.967V32.5064H208.076V33.0315H207.35C206.855 33.0315 206.379 33.1404 205.915 33.3568C205.588 33.5096 205.365 33.7348 205.238 34.0376C205.114 34.3402 205.047 34.9646 205.047 35.9104V41.7961C205.26 41.6175 205.98 41.0169 207.207 39.9951C210.328 37.4231 212.211 35.7077 212.864 34.847C213.146 34.4683 213.29 34.1381 213.29 33.8547C213.29 33.6361 213.18 33.4446 212.957 33.2815C212.738 33.1138 212.366 33.0315 211.841 33.0315H211.35V32.5064H219.196V33.0315C218.737 33.0404 218.315 33.0986 217.936 33.2007C217.558 33.3048 217.096 33.5082 216.551 33.8046C216.005 34.1012 215.332 34.5832 214.535 35.2448C214.303 35.4317 213.238 36.4015 211.336 38.151L208.076 41.0738Z" fill="#AF0B35" stroke="#9D1D26" stroke-width="0.0140607"/>
<path fill-rule="evenodd" clip-rule="evenodd" d="M71.6563 51.746H62.9863V50.7881C63.7483 50.7415 64.3806 50.6524 64.8845 50.5169C65.3906 50.3812 65.6411 50.2162 65.6411 50.0169C65.6411 49.9355 65.6295 49.8382 65.6138 49.7197C65.5913 49.604 65.5631 49.4978 65.5247 49.4089L63.7922 45.1132H56.4992C56.2261 45.7438 56.0034 46.293 55.833 46.7594C55.6618 47.227 55.5077 47.6599 55.3708 48.0571C55.2419 48.4453 55.1536 48.7604 55.1051 49.0007C55.0577 49.2472 55.0338 49.4458 55.0338 49.5972C55.0338 49.958 55.3391 50.2387 55.9563 50.4333C56.5731 50.634 57.2677 50.7523 58.0414 50.7881V51.746H50.206V50.7881C50.4601 50.7681 50.7779 50.7196 51.1586 50.6305C51.5408 50.5456 51.8529 50.4292 52.0989 50.288C52.4898 50.045 52.7932 49.7909 53.0096 49.5238C53.2247 49.2569 53.4328 48.8904 53.6409 48.4234C54.6865 46.0178 55.8384 43.3135 57.1012 40.3149C58.3633 37.3141 59.487 34.6462 60.4744 32.3021H61.6496L68.5919 48.8411C68.7357 49.1925 68.9028 49.4759 69.0897 49.6917C69.2761 49.9081 69.5329 50.1211 69.867 50.3265C70.0924 50.4532 70.3855 50.5613 70.7504 50.6462C71.1107 50.7304 71.4112 50.7783 71.6563 50.7881V51.746ZM63.265 43.9101L60.1073 36.4781L57.0136 43.9101H63.265Z" fill="#AF0B35" stroke="#9D1D26" stroke-width="0.0140607"/>
<path fill-rule="evenodd" clip-rule="evenodd" d="M92.5015 44.0841C92.2674 44.1141 91.9516 44.1553 91.5571 44.2135C91.1587 44.2723 90.8376 44.3571 90.5938 44.4633C90.3007 44.5982 90.0911 44.7913 89.9699 45.0365C89.8488 45.2844 89.7884 45.5768 89.7884 45.911V47.3964C89.7884 48.4768 89.7933 49.2069 89.809 49.5848C89.8228 49.9656 89.8399 50.2731 89.8589 50.517C88.5585 51.0585 87.2622 51.4708 85.9727 51.7612C84.6786 52.0473 83.4137 52.1933 82.1708 52.1933C80.8404 52.1933 79.5571 51.9631 78.3272 51.5031C77.0938 51.0428 76.0194 50.3923 75.0991 49.5438C74.1685 48.6886 73.4296 47.647 72.8831 46.4233C72.3332 45.1967 72.0634 43.8278 72.0634 42.3137C72.0634 40.8546 72.3229 39.502 72.846 38.2536C73.3686 37.008 74.1095 35.9247 75.0696 35.0044C75.9969 34.1045 77.1048 33.4033 78.3922 32.9035C79.6774 32.4042 81.0553 32.1536 82.5222 32.1536C83.6979 32.1536 84.7211 32.2851 85.59 32.546C86.4611 32.8062 87.2287 33.1205 87.8956 33.4917L88.4962 32.5706H89.6706L89.7995 39.2754H88.5989C88.3929 38.5345 88.1367 37.8099 87.836 37.0936C87.5321 36.376 87.1398 35.7358 86.6603 35.1667C86.1816 34.6004 85.5969 34.147 84.9072 33.8108C84.217 33.4711 83.3945 33.3026 82.4366 33.3026C81.3895 33.3026 80.4549 33.4984 79.6316 33.891C78.8113 34.2805 78.0978 34.8654 77.4904 35.6399C76.8917 36.3876 76.4344 37.3196 76.1131 38.4373C75.7886 39.5548 75.6271 40.8025 75.6271 42.1788C75.6271 43.3978 75.7845 44.5435 76.1009 45.6179C76.4228 46.6945 76.8844 47.6237 77.4904 48.4091C78.0978 49.2117 78.8544 49.8402 79.7625 50.3019C80.6738 50.7586 81.7073 50.9894 82.8605 50.9894C83.722 50.9894 84.5052 50.8697 85.2161 50.6264C85.9248 50.3813 86.4281 50.1266 86.7193 49.8541C86.7979 49.3876 86.8412 48.9145 86.8439 48.4345C86.8494 47.9577 86.8521 47.5538 86.8521 47.2195V46.1671C86.8521 45.787 86.7974 45.4522 86.6843 45.1604C86.5727 44.8653 86.3392 44.6538 85.9851 44.5154C85.6625 44.3839 85.2264 44.2813 84.6723 44.2135C84.1219 44.1456 83.6857 44.1046 83.3747 44.0841V43.1006H92.5015V44.0841Z" fill="#AF0B35" stroke="#9D1D26" stroke-width="0.0140607"/>
<path fill-rule="evenodd" clip-rule="evenodd" d="M115.927 51.7461H110.32C109.08 49.9547 107.957 48.4045 106.953 47.0998C105.951 45.794 104.861 44.4436 103.689 43.0576H101.561V49.1385C101.561 49.4521 101.615 49.7322 101.723 49.9691C101.829 50.2095 102.06 50.3924 102.411 50.517C102.588 50.5786 102.897 50.639 103.338 50.6909C103.777 50.7457 104.146 50.7785 104.451 50.7882V51.7461H95.6475V50.7882C95.8816 50.7682 96.2199 50.7395 96.6691 50.6909C97.1137 50.6471 97.4211 50.591 97.5997 50.517C97.8928 50.4019 98.1038 50.2293 98.2373 50.0026C98.3702 49.7781 98.4324 49.4898 98.4324 49.1385V35.2756C98.4324 34.9606 98.3872 34.6813 98.2894 34.4381C98.1921 34.195 97.96 34.0108 97.5997 33.8821C97.3548 33.8027 97.0356 33.7287 96.6466 33.6637C96.2535 33.5939 95.9193 33.5486 95.6475 33.5315V32.5714H105.258C106.139 32.5714 106.961 32.6563 107.738 32.8212C108.513 32.9892 109.209 33.2577 109.838 33.6288C110.444 33.9862 110.928 34.4586 111.291 35.0386C111.652 35.6214 111.83 36.3192 111.83 37.1397C111.83 37.8799 111.711 38.5333 111.465 39.0995C111.219 39.6659 110.859 40.1582 110.379 40.5724C109.938 40.9608 109.412 41.2957 108.794 41.5771C108.177 41.8633 107.497 42.1049 106.755 42.3002C107.783 43.554 108.636 44.6086 109.317 45.4639C109.995 46.3205 110.831 47.3607 111.817 48.5844C112.248 49.1268 112.638 49.5239 112.984 49.7807C113.332 50.0362 113.677 50.2472 114.02 50.4101C114.274 50.5265 114.592 50.6184 114.971 50.6772C115.356 50.7416 115.673 50.7785 115.927 50.7882V51.7461ZM108.209 37.4499C108.209 36.2864 107.847 35.368 107.122 34.6888C106.398 34.0067 105.375 33.6692 104.057 33.6692H101.561V41.8962H103.483C104.833 41.8962 105.956 41.4989 106.857 40.6998C107.758 39.9027 108.209 38.8194 108.209 37.4499Z" fill="#AF0B35" stroke="#9D1D26" stroke-width="0.0140607"/>
<path fill-rule="evenodd" clip-rule="evenodd" d="M127.333 51.746H117.957V50.8827C118.222 50.8654 118.602 50.8435 119.101 50.8101C119.599 50.7784 119.954 50.7291 120.159 50.6662C120.48 50.5606 120.714 50.4135 120.86 50.2341C121.009 50.0513 121.083 49.798 121.083 49.4746V35.4181C121.083 35.1317 121.032 34.3141 120.918 34.1231C120.815 33.93 120.559 33.771 120.159 33.6417C119.864 33.5437 119.495 33.4534 119.05 33.3692C118.606 33.2836 118.241 33.2321 117.957 33.2164V32.3536H127.333V33.2164C127.029 33.2254 126.667 33.2527 126.247 33.3082C125.825 33.3609 125.459 33.4272 125.146 33.5082C124.775 33.6068 124.529 33.7636 124.399 33.9828C124.272 34.2038 124.21 34.4442 124.21 34.7113V49.3397C124.21 49.6068 124.279 49.8438 124.42 50.0513C124.564 50.258 124.804 50.4224 125.146 50.5435C125.35 50.6052 125.689 50.6771 126.153 50.7565C126.618 50.8312 127.01 50.8756 127.333 50.8827V51.746Z" fill="#AF0B35" stroke="#9D1D26" stroke-width="0.0140607"/>
<path fill-rule="evenodd" clip-rule="evenodd" d="M45.4901 27.7022C45.4901 26.9935 44.9089 26.4184 44.1928 26.4184H19.2994C18.5799 26.4184 18 26.9935 18 27.7022V52.297C18 53.0106 18.5799 53.5816 19.2994 53.5816H44.1928C44.9089 53.5816 45.4901 53.0106 45.4901 52.297V27.7022Z" fill="white" stroke="#C4C6C8" stroke-width="0.0303407"/>
<path fill-rule="evenodd" clip-rule="evenodd" d="M27.5839 52.2849L42.354 52.2861C43.3494 52.2861 44.1691 51.4777 44.1691 50.4938L44.1727 35.8925L27.5839 52.2849Z" fill="#00422B"/>
<path fill-rule="evenodd" clip-rule="evenodd" d="M44.1748 29.512C44.1748 28.507 43.3529 27.7176 42.3575 27.7176H36.9221L19.3158 45.1368V50.4852C19.3158 51.4738 20.112 52.2836 21.1303 52.2836L26.4768 52.2848L44.1727 34.7967L44.1748 29.512Z" fill="#AF0B35"/>
<path fill-rule="evenodd" clip-rule="evenodd" d="M21.1349 27.7138C20.1171 27.7138 19.3183 28.5011 19.3183 29.5072L19.3159 44.0228L35.8161 27.7178L21.1349 27.7138Z" fill="#00422B"/>
<path fill-rule="evenodd" clip-rule="evenodd" d="M28.2118 52.0369C28.2118 52.0369 29.1524 51.6608 30.027 51.5116C30.3578 51.438 32.2751 50.9923 32.1763 49.0435C32.1528 48.5362 31.3876 49.181 31.3876 49.181C31.3876 49.181 29.8716 49.3918 29.2395 49.7808C28.9242 49.9638 28.2193 50.7364 28.2118 52.0369Z" fill="#FFDC00" stroke="#9D1D26" stroke-width="0.0303407"/>
<path fill-rule="evenodd" clip-rule="evenodd" d="M34.7174 45.7915C34.7174 45.7915 35.0738 47.999 33.2986 48.7013C32.5437 49.0106 31.4126 49.3576 31.2376 49.534C31.2376 49.534 30.8339 47.999 32.1459 47.0771C32.5672 46.7773 33.4309 46.4896 33.986 46.2897C34.5216 46.096 34.7174 45.7915 34.7174 45.7915Z" fill="#FFDC00" stroke="#9D1D26" stroke-width="0.0303407"/>
<path fill-rule="evenodd" clip-rule="evenodd" d="M35.6348 43.0621C35.6348 43.0621 36.7421 44.4 35.5003 45.9329C35.2335 46.2866 33.9052 47.1375 33.571 47.5339C33.571 47.5339 32.9085 46.1084 33.7075 44.9482C33.9263 44.618 34.6826 44.0068 35.0147 43.7651C35.3478 43.52 35.6348 43.0621 35.6348 43.0621Z" fill="#FFDC00" stroke="#9D1D26" stroke-width="0.0303407"/>
<path fill-rule="evenodd" clip-rule="evenodd" d="M34.2873 40.1461C34.2873 40.1461 33.2502 40.7443 33.9389 42.4509C34.0051 42.6488 34.8093 44.0695 34.8357 44.4633C34.8357 44.4633 36.2728 43.5827 35.6914 41.787C35.6022 41.4576 34.9322 40.4101 34.2873 40.1461Z" fill="#FFDC00" stroke="#9D1D26" stroke-width="0.0303407"/>
<path fill-rule="evenodd" clip-rule="evenodd" d="M31.6423 37.8178C31.6423 37.8178 31.2864 38.8942 32.1306 39.9065C32.4864 40.3191 34.0821 40.8032 34.7702 41.307C34.7702 41.307 35.6118 38.5891 31.6423 37.8178Z" fill="#FFDC00" stroke="#9D1D26" stroke-width="0.0303407"/>
<path fill-rule="evenodd" clip-rule="evenodd" d="M29.429 35.8925C29.429 35.8925 32.8805 36.1377 32.4165 39.2609C32.4165 39.2609 31.6359 38.7774 30.9999 38.5248C30.7231 38.389 29.3459 37.9589 29.429 36.6792C29.452 36.3274 29.429 35.8925 29.429 35.8925Z" fill="#FFDC00" stroke="#9D1D26" stroke-width="0.0303407"/>
<path fill-rule="evenodd" clip-rule="evenodd" d="M29.493 32.9244C29.493 32.9244 28.2074 33.8883 28.8475 35.5088C28.9623 35.8161 29.6276 36.6961 29.9807 36.85C29.9807 36.85 30.3811 35.7284 30.6256 34.9179C30.7154 34.5877 30.9598 33.2966 30.1582 32.7922C29.7361 32.5525 29.493 32.9244 29.493 32.9244Z" fill="#FFDC00" stroke="#9D1D26" stroke-width="0.0303407"/>
<path fill-rule="evenodd" clip-rule="evenodd" d="M29.2248 33.8844C29.2248 33.8844 28.2287 30.9895 31.7983 30.2041C31.7983 30.2041 32.5957 31.3216 31.2896 32.4826C30.9365 32.8114 29.4509 33.5562 29.2248 33.8844Z" fill="#FFDC00" stroke="#9D1D26" stroke-width="0.0303407"/>
<path fill-rule="evenodd" clip-rule="evenodd" d="M34.7905 28.0042C34.7905 28.0042 31.0873 27.9192 31.2433 31.1971C31.2433 31.1971 33.5622 30.4927 34.1868 29.8133C34.4956 29.4601 34.8317 28.7963 34.7905 28.0042Z" fill="#FFDC00" stroke="#9D1D26" stroke-width="0.0303407"/>
</svg>
