<svg width="40" height="40" viewBox="0 0 40 40" fill="none" xmlns="http://www.w3.org/2000/svg">
<g clip-path="url(#clip0_4_3885)">
<path fill-rule="evenodd" clip-rule="evenodd" d="M40 1.86803C40 0.836735 39.1542 -5.34058e-05 38.1123 -5.34058e-05H1.89079C0.843796 -5.34058e-05 0 0.836735 0 1.86803V37.6552C0 38.6935 0.843796 39.5243 1.89079 39.5243H38.1123C39.1542 39.5243 40 38.6935 40 37.6552V1.86803Z" fill="white" stroke="#C4C6C8" stroke-width="0.0303407"/>
<path fill-rule="evenodd" clip-rule="evenodd" d="M13.9453 37.6374L35.4367 37.6391C36.8851 37.6391 38.0778 36.4629 38.0778 35.0312L38.0831 13.7854L13.9453 37.6374Z" fill="#00422B"/>
<path fill-rule="evenodd" clip-rule="evenodd" d="M38.0862 4.50107C38.0862 3.03874 36.8901 1.89006 35.4418 1.89006H27.5329L1.91461 27.2363V35.0185C1.91461 36.4571 3.07304 37.6353 4.55479 37.6353L12.3343 37.637L38.0831 12.1906L38.0862 4.50107Z" fill="#AF0B35"/>
<path fill-rule="evenodd" clip-rule="evenodd" d="M4.5615 1.88491C3.08056 1.88491 1.91822 3.03048 1.91822 4.49441L1.91467 25.6156L25.9237 1.89075L4.5615 1.88491Z" fill="#00422B"/>
<path fill-rule="evenodd" clip-rule="evenodd" d="M14.8588 37.2765C14.8588 37.2765 16.2275 36.7293 17.5002 36.5123C17.9814 36.4051 20.7713 35.7567 20.6275 32.9209C20.5933 32.1828 19.48 33.1211 19.48 33.1211C19.48 33.1211 17.274 33.4278 16.3543 33.9938C15.8955 34.26 14.8697 35.3842 14.8588 37.2765Z" fill="#FFDC00" stroke="#9D1D26" stroke-width="0.0303407"/>
<path fill-rule="evenodd" clip-rule="evenodd" d="M24.325 28.189C24.325 28.189 24.8436 31.4011 22.2605 32.423C21.162 32.8731 19.5162 33.3781 19.2616 33.6346C19.2616 33.6346 18.6742 31.4011 20.5832 30.0597C21.1962 29.6235 22.453 29.2048 23.2607 28.914C24.0401 28.6322 24.325 28.189 24.325 28.189Z" fill="#FFDC00" stroke="#9D1D26" stroke-width="0.0303407"/>
<path fill-rule="evenodd" clip-rule="evenodd" d="M25.6598 24.2177C25.6598 24.2177 27.271 26.1643 25.4642 28.3948C25.076 28.9095 23.1432 30.1476 22.6569 30.7245C22.6569 30.7245 21.6929 28.6502 22.8555 26.962C23.1738 26.4816 24.2743 25.5923 24.7575 25.2405C25.2422 24.8839 25.6598 24.2177 25.6598 24.2177Z" fill="#FFDC00" stroke="#9D1D26" stroke-width="0.0303407"/>
<path fill-rule="evenodd" clip-rule="evenodd" d="M23.6991 19.9747C23.6991 19.9747 22.1901 20.8451 23.1922 23.3283C23.2886 23.6162 24.4587 25.6835 24.4972 26.2565C24.4972 26.2565 26.5881 24.9752 25.7422 22.3623C25.6124 21.8829 24.6375 20.3588 23.6991 19.9747Z" fill="#FFDC00" stroke="#9D1D26" stroke-width="0.0303407"/>
<path fill-rule="evenodd" clip-rule="evenodd" d="M19.8504 16.5868C19.8504 16.5868 19.3326 18.1531 20.561 19.6259C21.0787 20.2264 23.4005 20.9308 24.4019 21.6639C24.4019 21.6639 25.6263 17.7091 19.8504 16.5868Z" fill="#FFDC00" stroke="#9D1D26" stroke-width="0.0303407"/>
<path fill-rule="evenodd" clip-rule="evenodd" d="M16.63 13.7854C16.63 13.7854 21.6522 14.1421 20.977 18.6867C20.977 18.6867 19.8412 17.9831 18.9157 17.6155C18.5129 17.4179 16.5091 16.7921 16.63 14.9301C16.6634 14.4182 16.63 13.7854 16.63 13.7854Z" fill="#FFDC00" stroke="#9D1D26" stroke-width="0.0303407"/>
<path fill-rule="evenodd" clip-rule="evenodd" d="M16.723 9.46662C16.723 9.46662 14.8525 10.8691 15.7838 13.2271C15.951 13.6742 16.9189 14.9546 17.4328 15.1785C17.4328 15.1785 18.0154 13.5466 18.3711 12.3673C18.5018 11.8868 18.8575 10.0081 17.691 9.27415C17.0768 8.92548 16.723 9.46662 16.723 9.46662Z" fill="#FFDC00" stroke="#9D1D26" stroke-width="0.0303407"/>
<path fill-rule="evenodd" clip-rule="evenodd" d="M16.3329 10.8634C16.3329 10.8634 14.8834 6.65113 20.0774 5.50831C20.0774 5.50831 21.2378 7.13438 19.3373 8.82366C18.8235 9.30221 16.6618 10.3859 16.3329 10.8634Z" fill="#FFDC00" stroke="#9D1D26" stroke-width="0.0303407"/>
<path fill-rule="evenodd" clip-rule="evenodd" d="M24.4314 2.30726C24.4314 2.30726 19.043 2.18359 19.2699 6.95321C19.2699 6.95321 22.644 5.9282 23.5529 4.93963C24.0022 4.4258 24.4913 3.45984 24.4314 2.30726Z" fill="#FFDC00" stroke="#9D1D26" stroke-width="0.0303407"/>
</g>
<defs>
<clipPath id="clip0_4_3885">
<rect width="40" height="40" fill="white"/>
</clipPath>
</defs>
</svg>
