<svg xmlns="http://www.w3.org/2000/svg" width="174" height="40" fill="none" viewBox="0 0 174 40"><g clip-path="url(#clip0_8_1238)"><path fill="#1E3F99" fill-rule="evenodd" d="M24.0475 29.6292C22.3146 31.0056 20.4868 32.2397 18.6827 33.5687C18.6827 33.5687 17.6383 34.3281 17.211 34.6366C17.116 34.6366 16.9973 34.6603 16.9499 34.5891C16.9973 33.0228 16.4988 31.148 17.7095 30.0326C19.4898 27.9442 21.3651 25.9508 22.9081 23.72C22.9081 23.72 24.4985 21.4417 25.2581 20.35C25.4955 20.3975 25.5905 20.6823 25.6142 20.8721C26.445 23.7912 26.7062 26.7102 24.0475 29.6292ZM14.6948 28.7986C14.6473 28.7986 14.5761 28.7511 14.5523 28.7036C12.2498 25.9745 9.63859 22.8894 7.35975 20.1839C6.9562 19.4957 6.52892 18.8312 6.48144 17.9294C6.45771 17.2412 6.41023 16.6004 6.97994 15.7223C6.97994 15.7223 7.35975 15.1765 7.47844 15.0104C7.47844 15.0104 12.1548 8.43667 14.6236 5.30406C14.6473 5.28033 14.671 5.2566 14.6948 5.2566C14.7185 5.2566 14.766 5.30406 14.766 5.30406C17.2347 8.41293 21.9111 15.0104 21.9111 15.0104C22.0298 15.1765 22.4096 15.7223 22.4096 15.7223C22.9793 16.6004 22.9318 17.2412 22.9081 17.9294C22.8606 18.8312 22.4333 19.472 22.0298 20.1839C19.7272 22.9131 17.1398 25.9982 14.8135 28.7036C14.7897 28.7511 14.7422 28.7748 14.6948 28.7986ZM12.4159 34.5891C12.3685 34.6603 12.2498 34.6366 12.1548 34.6366C11.7275 34.3518 10.6831 33.5924 10.6831 33.5924C8.87897 32.2397 7.05115 31.0056 5.31829 29.6292C2.65964 26.7102 2.94449 23.7912 3.75158 20.8721C3.77532 20.6823 3.87027 20.3975 4.10765 20.35C4.86727 21.4417 6.43397 23.72 6.43397 23.72C7.97693 25.9508 9.85223 27.9442 11.6326 30.0326C12.8907 31.1243 12.3922 32.9991 12.4159 34.5891ZM29.0562 20.9433C28.7001 19.5669 28.1779 18.5702 27.3233 17.0276C27.0385 16.6004 26.6824 16.102 26.3738 15.5799C22.6945 10.1454 15.4544 0.652625 14.7897 0.0355977C14.7422 -0.0118659 14.671 -0.0118659 14.6236 0.0355977C13.9589 0.652625 6.71882 10.1454 3.03945 15.5799C2.73085 16.102 2.37478 16.6004 2.08993 17.0276C1.23536 18.5702 0.713127 19.5906 0.357058 20.9433C-0.0939622 23.0792 -0.117701 25.2625 0.285844 27.3984C0.665651 29.1783 2.35104 30.9819 4.03644 32.3346L6.62387 34.3993C6.62387 34.3993 13.8639 39.6203 14.5523 39.9525C14.5998 39.9763 14.6473 40 14.6948 40C14.7422 40 14.7897 39.9763 14.8372 39.9525C15.5019 39.6203 22.7657 34.3993 22.7657 34.3993L25.3531 32.3346C27.0385 30.9819 28.7239 29.1783 29.1037 27.3984C29.531 25.2863 29.5072 23.0792 29.0562 20.9433ZM100.982 30.8158C100.982 31.3853 101.409 32.2634 102.264 32.2634C103.214 32.2634 103.57 31.3853 103.57 30.8158V26.6864C103.57 26.1169 103.237 25.1201 102.288 25.1201C101.338 25.1201 100.982 26.1169 100.982 26.6864V30.8158ZM107.652 29.9377C107.652 31.1006 107.605 32.4295 106.513 33.2602C105.421 34.0908 103.807 34.1857 102.43 34.1857C101.196 34.1857 99.4154 34.0908 98.371 33.4737C96.8992 32.6194 96.8992 31.3379 96.8992 29.9377V27.1848C96.8992 26.0457 96.923 24.8116 98.0386 24.0285C99.1306 23.2691 100.602 23.1741 101.955 23.1741C103.19 23.1741 105.018 23.2691 106.086 23.7912C107.534 24.5506 107.629 25.8321 107.629 27.1848V29.9377H107.652ZM80.3776 25.8321C79.9978 25.6897 79.5943 25.6185 79.2145 25.6185C77.9089 25.6185 77.719 26.7339 77.719 27.3035V29.7478C77.719 30.2937 77.9564 31.6227 79.2145 31.6227C79.5943 31.6227 79.9978 31.5515 80.3776 31.4565V25.8321ZM85.1964 24.8116C84.6742 25.0489 84.3656 25.5473 84.3656 26.1169V33.4737C84.3656 34.6603 84.4131 36.2741 83.3686 37.1522C82.3241 38.0303 80.9948 38.1964 79.618 38.1964C77.6003 38.1964 76.2235 37.5082 74.4669 36.6538V34.6603H78.1225C78.1225 34.9926 78.17 35.3486 78.2649 35.6571C78.4074 35.8944 78.8821 36.0605 79.2382 36.0605C80.2352 36.0605 80.4014 34.6603 80.4014 34.067V33.4026C79.5468 33.9009 78.5973 34.1857 77.6003 34.162C74.6093 34.162 73.8734 32.2397 73.8734 29.9377V27.873C73.8734 25.571 74.1345 23.1979 77.3866 23.1979C78.4548 23.1979 79.6417 23.4352 80.5201 24.0285V23.4352H85.2202L85.1964 24.8116ZM145.206 29.1783C144.399 29.4631 142.713 29.819 142.713 30.7446C142.713 31.2667 142.975 31.86 143.782 31.86C144.28 31.9074 144.802 31.7651 145.206 31.4565V29.1783ZM145.467 33.1652C144.47 33.8535 143.259 34.2094 142.049 34.1857C139.936 34.1857 138.892 32.8804 138.892 31.1718C138.892 29.0596 140.078 28.4426 142.096 27.8493L145.135 27.0424V26.0694C145.135 25.5473 144.66 25.1201 144.019 25.1201C143.283 25.1201 142.785 25.5473 142.785 26.0694V27.0899H139.366V24.7879C140.909 23.8149 142.595 23.1741 144.47 23.1741C145.681 23.1741 146.678 23.3403 147.698 24.0047C148.956 24.8828 148.98 25.9745 148.956 27.2085V31.1006C148.956 31.6464 148.909 32.1448 149.502 32.5245L149.787 33.9484H145.752L145.467 33.1652ZM130.583 31.0531H132.245C133.266 31.0531 133.907 30.4598 133.907 29.4156C133.907 28.3714 133.384 27.7544 132.245 27.7544H130.583V31.0531ZM130.583 25.4287H132.103C133.1 25.4287 133.74 24.9778 133.74 24.0285C133.74 23.0792 133.052 22.5808 132.103 22.5808H130.583V25.4287ZM125.48 33.9721V32.3821C126.002 32.216 126.358 31.7651 126.405 31.243V22.3673C126.358 21.8452 126.002 21.3705 125.48 21.2281V19.6381H132.649C133.93 19.6381 135.378 19.6144 136.494 20.2314C137.728 20.8959 138.132 22.0825 138.132 23.2928C138.132 24.9303 137.396 26.0457 135.545 26.5203V26.5441C137.657 26.7814 138.393 28.2527 138.393 29.9377C138.393 31.1243 138.085 32.4296 137.016 33.1652C135.853 33.9958 134.358 34.0196 132.91 34.0196L125.48 33.9721ZM56.4973 29.1783C55.6902 29.4631 54.0048 29.819 54.0048 30.7446C54.0048 31.2667 54.2659 31.86 55.073 31.86C55.5715 31.9074 56.07 31.7651 56.4735 31.4565L56.4973 29.1783ZM56.7584 33.1652C55.7614 33.8535 54.5508 34.2094 53.3401 34.1857C51.2274 34.1857 50.183 32.8804 50.183 31.1718C50.183 29.0596 51.3699 28.4426 53.3876 27.8493L56.426 27.0187V26.0457C56.426 25.5236 55.9513 25.0964 55.3104 25.0964C54.5745 25.0964 54.076 25.5236 54.076 26.0457V27.0662H50.6815V24.7642C52.2244 23.7912 53.9098 23.1504 55.7851 23.1504C56.9958 23.1504 57.9927 23.3165 59.0135 23.981C60.2716 24.8591 60.2953 25.9508 60.2716 27.1848V31.0768C60.2716 31.6227 60.2241 32.121 60.8176 32.5007L61.0787 33.9246H56.972L56.7584 33.1652ZM112.543 26.9238L113.991 25.8558C114.513 25.3575 114.631 24.7642 114.631 23.8386V23.4115H118.928V24.8116C118.596 24.9303 118.287 25.1201 118.026 25.3812L115.557 27.5408L118.026 31.1006C118.335 31.6464 118.572 32.2397 119.284 32.5482V33.9721H115.439L112.566 29.3919H112.519V31.1718C112.519 31.7413 112.732 32.1685 113.35 32.5719V33.9958H108.009V32.5719C108.578 32.1922 108.839 31.8125 108.839 31.243V22.4147C108.839 21.8451 108.626 21.418 108.009 21.0145V19.5906H112.543V26.9238ZM167.235 26.9238L168.683 25.8558C169.205 25.3575 169.324 24.7642 169.324 23.8386V23.4115H173.644V24.8116C173.312 24.9303 173.003 25.1201 172.742 25.3812L170.273 27.5408L172.742 31.1006C173.05 31.6464 173.288 32.2397 174 32.5482V33.9721H170.154L167.282 29.3919H167.235V31.1718C167.235 31.7413 167.448 32.1685 168.066 32.5719V33.9958H162.701V32.5719C163.27 32.1922 163.532 31.8125 163.532 31.243V22.4147C163.532 21.8451 163.318 21.418 162.701 21.0145V19.5906H167.235V26.9238ZM90.1102 26.9238L91.5582 25.8558C92.0804 25.3575 92.1991 24.7642 92.1991 23.8386V23.4115H96.4957V24.8116C96.1633 24.9303 95.8548 25.1201 95.5936 25.3812L93.1249 27.5408L95.5936 31.1006C95.9022 31.6464 96.1396 32.2397 96.8517 32.5482V33.9721H93.0062L90.1339 29.3919H90.0864V31.1718C90.0864 31.7413 90.3001 32.1685 90.9173 32.5719V33.9958H85.5762V32.5719C86.1459 32.1922 86.4071 31.8125 86.4071 31.243V22.4147C86.4071 21.8451 86.1934 21.418 85.5762 21.0145V19.5906H90.1102V26.9238ZM155.176 24.0759C156.125 23.5064 157.194 23.1979 158.309 23.1979C159.259 23.2216 159.923 23.5064 160.398 23.9098C161.229 24.598 161.324 25.3575 161.324 26.283V31.0531C161.3 31.6464 161.609 32.1685 162.131 32.4533V33.9958H157.597C157.336 32.9279 157.36 31.8125 157.36 30.7209V27.0187C157.407 26.6864 157.36 26.3779 157.217 26.0694C156.766 25.571 156.03 25.4049 155.389 25.666V31.1718C155.389 31.6939 155.342 32.2634 155.935 32.5719V33.9958H150.571V32.5719C151.093 32.3346 151.425 31.8125 151.401 31.243V26.4966C151.401 25.927 151.14 25.5473 150.571 25.1913V23.3877H155.2L155.176 24.0759ZM66.2773 24.0759C67.2268 23.5064 68.295 23.2216 69.4107 23.1979C70.3602 23.2216 71.0486 23.5064 71.4996 23.9098C72.3305 24.598 72.4254 25.3575 72.4254 26.283V31.0531C72.4017 31.6464 72.7103 32.1922 73.2325 32.4533V33.9958H68.6986C68.4374 32.9279 68.4374 31.8125 68.4374 30.7209V27.0187C68.4849 26.6864 68.4374 26.3779 68.295 26.0694C67.844 25.571 67.1081 25.4049 66.4672 25.666V31.1718C66.4672 31.6939 66.4197 32.2634 67.0369 32.5719V33.9958H61.6721V32.5719C62.1944 32.3346 62.5267 31.8125 62.503 31.243V26.4966C62.503 25.927 62.2418 25.5473 61.6721 25.1913V23.3877H66.2773V24.0759ZM41.8035 31.0531V27.7306H43.4651C44.6046 27.7306 45.1268 28.3951 45.1268 29.3919C45.1268 30.3886 44.4621 31.0294 43.4651 31.0294L41.8035 31.0531ZM41.8035 25.4287H43.3227C44.3197 25.4287 44.9606 24.9778 44.9606 24.0285C44.9606 23.0792 44.2722 22.5808 43.3227 22.5808H41.8035V25.4287ZM36.6998 33.9721V32.3821C37.2221 32.216 37.5781 31.7651 37.6256 31.243V22.3673C37.5781 21.8452 37.2221 21.3942 36.6998 21.2281V19.6381H43.8687C45.1505 19.6381 46.5985 19.6144 47.7142 20.2314C48.9486 20.8959 49.3521 22.0825 49.3521 23.2928C49.3521 24.9303 48.6163 26.0457 46.7647 26.5203V26.5441C48.8774 26.7814 49.6133 28.2527 49.6133 29.9377C49.6133 31.1243 49.3047 32.4296 48.2365 33.1652C47.0733 33.9958 45.5778 34.0196 44.1298 34.0196H36.6998V33.9721Z" clip-rule="evenodd"/></g><defs><clipPath id="clip0_8_1238"><rect width="174" height="40" fill="#fff"/></clipPath></defs></svg>