<svg xmlns="http://www.w3.org/2000/svg" width="240" height="80" fill="none" viewBox="0 0 240 80"><path fill="#B30738" fill-rule="evenodd" d="M71.6496 43.8531H64.4818C64.4818 43.8531 64.263 43.8272 64.1554 43.6381C64.0479 43.4526 64.0776 43.3525 64.0776 43.3525V36.6735C64.0776 36.6735 64.0664 36.4361 64.1962 36.2952C64.3186 36.158 64.5448 36.1543 64.5448 36.1543H73.9858C73.9858 36.1543 74.1378 36.132 74.3121 36.2284C74.4604 36.31 74.5457 36.6215 74.5457 36.6215V43.4749C74.5457 43.4749 74.4604 43.664 74.3826 43.7308C74.3047 43.7975 74.1527 43.8457 74.1527 43.8457H71.6534L71.6496 43.8531ZM71.594 31.8561V24.465C79.1846 25.5702 85.0102 32.1046 85.0102 40C85.0102 47.8954 79.1958 54.4372 71.6089 55.5424L71.594 48.1031H74.542C77.0005 48.1031 78.8064 46.26 78.8064 43.7975V36.0986C78.8064 33.6399 76.8485 31.8487 74.39 31.8487H71.594V31.8561ZM59.7316 36.1061C59.7316 33.6473 61.2223 31.8413 63.6845 31.8413L66.9551 31.8301V24.4836C59.4016 25.6184 53.6131 32.1305 53.6131 40C53.6131 47.8695 59.4016 54.3927 66.9551 55.5312L66.944 48.1587H64.2074C61.7488 48.1587 59.7353 46.2637 59.7353 43.8049V36.1061H59.7316ZM49.3116 40C49.3116 28.9523 58.2632 20 69.3135 20C80.3638 20 89.3116 28.9523 89.3116 40C89.3116 51.0477 80.3564 60 69.3135 60C58.2706 60 49.3116 51.0477 49.3116 40Z" clip-rule="evenodd"/><path fill="#231F20" fill-rule="evenodd" d="M182.939 58.2786L183.028 58.0784C183.087 58.0153 183.44 57.9263 183.584 57.7483C183.722 57.5703 186.651 50.9401 186.651 50.9401L186.833 50.8956L189.521 57.0734C189.699 57.4813 189.821 57.7557 189.925 57.8559C190.033 57.9523 190.304 58.0672 190.485 58.0821C190.593 58.0895 190.53 58.2452 190.53 58.2452H187.574C187.574 58.2452 187.378 58.0932 187.574 58.0153C187.693 57.9671 188.171 57.8225 188.246 57.5221C188.279 57.3886 188.216 57.0734 188.079 56.71C187.986 56.4579 187.715 55.898 187.567 55.7941C187.433 55.7014 186.877 55.7496 186.365 55.7348C185.902 55.72 185.283 55.7051 185.086 55.809C184.841 55.9387 184.574 56.9585 184.515 57.1179C184.459 57.27 184.515 57.6297 184.649 57.7335C184.875 57.9078 185.323 58.0487 185.49 58.0969L185.535 58.2749L182.939 58.2823V58.2786ZM187.415 55.249C187.493 55.1526 187.211 54.6001 186.948 54.0179C186.755 53.5841 186.421 52.7386 186.317 52.772C186.243 52.7942 185.972 53.4617 185.761 53.9437C185.535 54.4629 185.26 55.1118 185.368 55.2194C185.431 55.2861 185.939 55.3269 186.362 55.3121C186.844 55.2972 187.344 55.3454 187.411 55.2527L187.415 55.249ZM105.145 56.7026C105.301 55.9313 105.131 55.4233 104.682 55.0488C104.467 54.8708 103.896 54.6001 103.432 54.6001C102.795 54.6001 102.372 54.5408 102.372 55.2527L102.379 56.9919C102.379 57.9671 103.595 57.8633 103.595 57.8633C104.589 57.8633 105.023 57.2922 105.145 56.7063V56.7026ZM124.369 57.9931C124.369 57.9931 124.743 57.9004 124.91 57.6482C124.999 57.5147 125.107 57.3293 125.107 56.8658V52.2677C125.107 51.9821 125.018 51.7077 124.895 51.5891C124.777 51.4741 124.591 51.3517 124.176 51.3184C124.176 51.3184 123.857 51.1218 124.176 51.0328L126.953 51.0254C126.953 51.0254 127.209 51.107 126.987 51.2257C126.786 51.3332 126.608 51.2553 126.445 51.437C126.334 51.5631 126.267 51.8078 126.264 52.2009V54.474C126.264 54.563 126.352 54.6965 126.382 54.7002C126.53 54.715 126.623 54.5296 126.697 54.4888C126.998 54.233 127.461 53.7324 127.884 53.3319C128.64 52.6125 129.022 52.2417 129.148 52.0674C129.315 51.8449 129.345 51.526 129.256 51.4222C129.148 51.3035 128.926 51.3035 128.729 51.2405C128.729 51.2405 128.548 51.1218 128.759 51.0477H131.24C131.24 51.0477 131.329 51.2739 131.195 51.3332C130.854 51.3666 130.724 51.437 130.52 51.5446C130.324 51.6484 129.912 51.9339 129.56 52.2825C129.56 52.2825 127.747 53.8436 127.817 54.029C127.921 54.3146 128.97 55.5383 129.679 56.5209C129.987 56.9437 130.287 57.4702 130.461 57.6037C130.628 57.7261 130.895 57.9782 131.121 57.9782C131.384 57.9782 131.258 58.2193 131.258 58.2193C131.258 58.2193 129.846 58.1674 129.605 58.1896C129.438 58.2044 129.241 57.9041 129.241 57.9041C128.689 57.1847 127.109 54.9746 126.99 54.8374C126.927 54.7929 126.282 55.275 126.267 55.6792V57.0178C126.267 57.4183 126.36 57.6222 126.479 57.7409C126.675 57.9337 127.168 57.9968 127.168 57.9819C127.398 58.0413 127.246 58.1933 127.246 58.1933H124.257C124.257 58.1933 124.154 58.0413 124.376 57.9968L124.369 57.9931ZM115.102 57.9931C115.306 57.9152 115.677 57.6816 115.818 57.5258C115.955 57.3664 116.055 57.2255 116.055 56.6544C116.055 56.6544 116.025 53.1687 116.025 52.657C116.025 52.2343 115.877 51.6781 115.68 51.5297C115.484 51.3777 115.25 51.285 115.002 51.2739C115.002 51.2739 114.809 51.0625 115.017 51.018H116.897L121.346 55.935C121.346 55.935 121.521 56.1501 121.617 56.1019L121.658 55.8609C121.677 55.4863 121.662 52.594 121.662 52.594C121.662 52.2825 121.721 51.9376 121.51 51.6966C121.239 51.3888 120.705 51.3332 120.549 51.2776C120.427 51.2331 120.427 51.0959 120.564 51.0514H122.937C123.104 51.0662 122.985 51.2331 122.985 51.2331C122.715 51.3072 122.452 51.3666 122.325 51.5334C122.173 51.73 122.096 52.0229 122.096 52.5977V58.3231H121.899C121.899 58.3231 117.012 53.013 116.719 52.7201C116.585 52.5866 116.537 52.7646 116.537 52.9463C116.537 53.128 116.526 56.5988 116.526 56.5988C116.526 57.1958 116.645 57.5592 117.026 57.7595C117.175 57.8373 117.557 57.9337 117.727 57.9671C117.801 57.9819 117.839 58.197 117.839 58.197H115.102C115.102 58.197 115.031 58.0264 115.102 58.0005V57.9931ZM106.996 58.2081L107.085 58.0042C107.148 57.9449 107.5 57.8522 107.641 57.6742C107.778 57.4925 110.708 50.866 110.708 50.866L110.889 50.8215L113.582 56.9993C113.76 57.4035 113.878 57.6816 113.986 57.7817C114.093 57.8781 114.36 57.9931 114.542 58.0079C114.65 58.0153 114.59 58.1748 114.59 58.1748L111.598 58.2489C111.598 58.2489 111.494 58.0858 111.69 58.0116C111.813 57.9634 112.232 57.7557 112.306 57.4554C112.339 57.3219 112.276 57.0067 112.139 56.6433C112.046 56.3874 111.779 55.8312 111.631 55.7274C111.498 55.631 110.938 55.6829 110.43 55.668C109.962 55.6532 109.347 55.6384 109.154 55.7422C108.909 55.872 108.639 56.8917 108.583 57.0475C108.531 57.2032 108.583 57.5592 108.716 57.663C108.943 57.841 109.395 57.9782 109.558 58.0227L109.603 58.2044L107.003 58.2118L106.996 58.2081ZM111.472 55.1786C111.546 55.0784 111.268 54.5296 111.008 53.9475C110.812 53.5136 110.482 52.6681 110.374 52.6978C110.3 52.7238 110.029 53.3875 109.818 53.8696C109.592 54.3924 109.317 55.0414 109.428 55.1489C109.495 55.2119 109.999 55.2527 110.422 55.2416C110.904 55.2231 111.409 55.2713 111.475 55.1786H111.472ZM104.786 52.8832C104.793 52.4012 104.508 51.9525 104.196 51.6929C104.018 51.5409 103.673 51.3629 103.28 51.3629C102.739 51.3629 102.383 51.437 102.383 51.9488V53.8548C102.335 54.3071 103.414 54.1922 103.414 54.1922C104.319 54.1922 104.771 54.0661 104.786 52.8832ZM100.228 57.9857C100.588 57.8855 100.855 57.7965 100.966 57.6593C101.085 57.511 101.126 57.4146 101.133 57.0067V52.1898C101.133 51.9005 101.055 51.7374 100.889 51.5557C100.566 51.2034 100.18 51.4333 100.125 51.2998C100.08 51.1997 100.091 51.018 100.091 51.018H103.125C103.992 51.018 104.567 51.0551 105.082 51.3147C105.476 51.5112 105.939 51.9747 105.939 52.6756C105.939 53.6434 105.157 53.9882 104.841 54.2144C105.442 54.3813 106.432 54.7262 106.432 55.8535C106.432 56.9807 105.787 57.7632 105.171 57.956C104.749 58.0932 104.222 58.1711 103.618 58.1748H100.225V57.9782L100.228 57.9857ZM143.803 58.0487C143.803 58.0709 144.178 57.93 144.345 57.7928C144.463 57.6964 144.556 57.4962 144.556 57.0252L144.571 52.4716C144.571 52.0934 144.523 51.9154 144.389 51.704C144.252 51.4964 143.922 51.4482 143.532 51.3888C143.532 51.3888 143.247 51.1775 143.447 51.0922C143.425 51.0922 145.557 51.1033 146.584 51.1181C147.637 51.1367 148.687 51.0328 148.794 51.1033C148.932 51.196 148.857 52.2046 148.883 52.3974C148.898 52.5013 148.817 52.7163 148.716 52.7275C148.598 52.7423 148.568 52.5272 148.568 52.3974C148.568 52.1267 148.338 51.8153 148.283 51.7374C148.138 51.5446 147.86 51.5075 147.726 51.5075H146.11C145.965 51.5075 145.924 51.5075 145.876 51.5557C145.839 51.6039 145.776 51.7226 145.772 51.8709V53.8696C145.772 53.992 145.776 54.1625 145.846 54.1848C146.013 54.2441 147.092 54.2293 147.092 54.2293C147.274 54.2293 147.485 54.0476 147.545 53.9437C147.637 53.7806 147.793 53.5878 147.875 53.343C147.919 53.2095 148.16 53.102 148.16 53.4024C148.16 53.5915 148.194 55.7496 148.194 55.7496C148.071 55.9165 147.967 55.7051 147.967 55.7051C147.886 55.2861 147.812 55.1341 147.682 55.0006C147.556 54.8634 147.367 54.7002 147.096 54.7002L146.165 54.6891C145.82 54.6557 145.806 55.034 145.791 55.1674L145.776 57.092C145.791 57.2848 145.835 57.5481 145.958 57.663C146.08 57.7706 146.388 57.9894 146.799 58.0227C146.996 58.0376 146.862 58.2601 146.862 58.2601H143.736C143.736 58.2601 143.584 58.1599 143.811 58.0524L143.803 58.0487ZM136.316 51.9005C136.984 51.2627 137.944 50.9883 138.916 50.9846C139.887 50.9846 140.696 51.1367 141.363 51.7819C142.083 52.4716 142.457 53.3282 142.461 54.4888C142.461 55.6606 142.083 56.6173 141.333 57.3145C140.666 57.93 139.728 58.3008 138.779 58.3046C137.763 58.3046 136.791 58.0301 136.12 57.3441C135.441 56.647 135.193 55.7125 135.189 54.6075C135.189 53.4543 135.59 52.6051 136.316 51.9043V51.9005ZM137.247 57.1291C137.844 57.8077 138.256 57.956 139.079 57.956C139.65 57.956 140.228 57.6185 140.673 57.0846C141.048 56.6322 141.23 55.8349 141.23 54.6631C141.23 53.4914 140.903 52.6978 140.462 52.1527C139.95 51.5223 139.398 51.3777 138.764 51.3703C138.119 51.3703 137.473 51.5334 137.051 52.0155C136.591 52.5384 136.383 53.3801 136.376 54.5259C136.376 55.6606 136.917 56.7508 137.247 57.1254V57.1291ZM174.959 57.9857C174.959 57.9857 175.441 57.8336 175.619 57.5666C175.73 57.3961 175.805 57.2366 175.805 56.6655L175.742 52.1712C175.712 51.8264 175.452 51.5816 175.337 51.526C175.189 51.4519 174.941 51.4704 174.811 51.3592C174.811 51.3592 174.51 51.1367 174.766 51.0885C174.748 51.0959 176.583 51.0291 176.609 51.0959C176.81 51.2257 179.683 54.411 180.87 55.7793C181.259 56.2428 181.411 56.1686 181.397 55.72L181.411 52.3529C181.411 51.8709 181.17 51.704 181.067 51.6299C180.848 51.4741 180.644 51.3592 180.284 51.2961C180.284 51.2961 179.984 51.196 180.284 51.0959H182.646C182.813 51.0885 182.813 51.2257 182.646 51.2702C182.435 51.2702 182.183 51.4407 182.045 51.6002C181.908 51.7596 181.842 52.1193 181.842 52.6867L181.834 58.1822C181.819 58.438 181.578 58.3046 181.578 58.3046C181.578 58.3046 177.099 53.4172 176.568 52.8202C176.561 52.8128 176.487 52.6644 176.357 52.7608C176.276 52.8202 176.264 52.8461 176.276 52.9833L176.29 56.6655C176.29 57.2589 176.494 57.5815 176.669 57.7632C176.78 57.8818 176.965 57.9782 177.362 58.019C177.603 58.0042 177.559 58.2563 177.559 58.2563H174.807C174.807 58.2563 174.759 58.0487 174.97 57.9894L174.959 57.9857ZM170.78 58.0598C170.888 58.0301 171.114 57.9078 171.247 57.804C171.373 57.7038 171.444 57.5036 171.448 57.0809L171.47 52.4382C171.455 52.1379 171.455 51.7782 171.307 51.6261C171.088 51.4074 170.843 51.3147 170.394 51.2924C170.394 51.2924 170.205 51.1923 170.394 51.0922H173.379C173.62 51.133 173.35 51.2924 173.35 51.2924C173.112 51.2924 172.92 51.4222 172.827 51.5334C172.69 51.6966 172.697 52.034 172.675 52.2862V57.0772C172.675 57.4962 172.816 57.7409 172.946 57.8447C173.072 57.9412 173.224 58.019 173.669 58.0561C173.954 58.1006 173.669 58.2489 173.669 58.2489H170.784C170.558 58.1748 170.784 58.0524 170.784 58.0524L170.78 58.0598ZM161.402 58.0301C161.384 58.0301 161.851 57.7261 161.958 57.6074C162.066 57.4962 162.155 57.3108 162.155 56.8398L162.185 52.3604C162.185 51.9747 162.107 51.7559 162.018 51.6076C161.914 51.4259 161.669 51.3999 161.265 51.3666C161.265 51.3666 160.694 51.2294 161.22 51.0959H164.031C164.335 51.1107 164.079 51.2887 164.079 51.2887C163.853 51.2887 163.671 51.3666 163.56 51.5038C163.46 51.6336 163.36 51.8635 163.382 52.2602V53.8436C163.382 53.8436 163.36 54.2182 163.69 54.2033C164.172 54.1811 166.33 54.2441 166.664 54.2182C167.057 54.1885 167.131 53.9475 167.131 53.7695C167.146 53.3171 167.131 52.3047 167.131 52.3047C167.131 51.9191 167.027 51.6224 166.912 51.5038C166.794 51.3888 166.538 51.3184 166.134 51.2887C165.852 51.2479 166.048 51.0885 166.048 51.0885H169.041C169.041 51.0885 169.193 51.2627 168.952 51.2924C168.711 51.2776 168.614 51.3888 168.492 51.5075C168.373 51.6224 168.318 51.8746 168.318 52.2639V57.0364C168.322 57.4294 168.399 57.5518 168.518 57.6705C168.633 57.7743 168.763 57.956 169.163 58.0005C169.375 58.0301 169.464 58.2378 169.223 58.2563L166.486 58.3194C166.486 58.3194 166.126 58.1525 166.53 58.019C166.53 58.0339 166.846 57.9152 166.968 57.7187C167.046 57.5889 167.105 57.2403 167.105 56.9956C167.105 56.9956 167.12 55.3269 167.12 55.071C167.12 54.893 167.061 54.652 166.82 54.6965C166.82 54.6965 163.887 54.6891 163.649 54.6668C163.482 54.652 163.379 54.741 163.379 55.0562V56.9511C163.379 57.3404 163.59 57.663 163.709 57.778C163.824 57.8892 164.042 57.9968 164.446 58.0339C164.791 58.0784 164.535 58.2601 164.535 58.2601H161.339C161.339 58.2601 161.154 58.0969 161.413 58.0339L161.402 58.0301ZM158.41 51.2961C158.792 51.4964 159.099 51.6558 159.266 51.641C159.37 51.6299 159.455 51.4222 159.489 51.2961C159.656 51.0699 159.715 51.4778 159.715 51.463L159.848 53.4914C159.848 53.4914 159.715 53.6879 159.578 53.4914C159.437 53.0093 159.059 52.4827 158.795 52.1972C158.406 51.7782 157.698 51.3554 156.945 51.3406C156.088 51.3258 155.495 51.6781 155.05 52.2269C154.675 52.6904 154.449 53.4765 154.449 54.2886C154.449 55.249 154.857 56.3615 155.428 56.9029C155.981 57.4257 156.574 57.6927 157.353 57.7001C157.913 57.7001 158.228 57.5481 158.706 57.2774C158.977 57.1291 159.34 56.7323 159.667 56.4208C159.86 56.2539 159.967 56.4801 159.967 56.4801C159.997 56.6433 159.377 57.2922 158.869 57.6964C158.491 57.9968 157.516 58.3416 157.019 58.3416C155.858 58.3416 155.187 58.2823 154.164 57.3627C153.585 56.8435 153.263 55.7719 153.255 54.741C153.255 53.6879 153.589 52.8053 154.253 52.086C154.95 51.3369 155.858 50.9624 156.993 50.9624C157.382 50.9624 158.028 51.0959 158.402 51.2924" clip-rule="evenodd"/><path fill="#231F20" fill-rule="evenodd" d="M128.885 30.5952C128.93 30.5062 128.945 30.6693 129.167 30.9141C129.39 31.1551 129.252 31.2293 129.386 31.4259C129.519 31.6261 129.519 31.5186 129.486 31.7448C129.456 31.9673 129.408 31.9228 129.212 32.086C129.015 32.2454 129.182 32.175 128.985 31.9784C128.792 31.7819 128.963 31.4963 128.77 31.3294C128.577 31.1626 128.563 31.1626 128.607 30.8918C128.655 30.6211 128.833 30.6842 128.881 30.5952H128.885ZM128.125 31.3369C128.218 31.2775 128.377 31.5482 128.496 31.8375C128.611 32.1231 128.611 32.0637 128.711 32.379C128.815 32.6979 128.785 32.5458 128.526 32.8425C128.266 33.1429 127.921 33.1058 127.573 33.4173C127.224 33.7289 127.072 33.6361 126.757 33.8586C126.442 34.0812 126.486 34.007 126.215 33.8994C125.948 33.7919 125.963 33.714 126.145 33.4915C126.327 33.269 126.297 33.3914 126.43 33.269C126.568 33.1503 126.267 33.1318 126.416 33.0131C126.568 32.8944 126.549 33.0613 126.794 32.7943C127.039 32.5273 126.964 32.4791 127.057 32.3159C127.15 32.1527 127.254 31.9599 127.513 31.8412C127.769 31.7263 128.029 31.3962 128.118 31.3406L128.125 31.3369ZM130.098 24.9397C130.187 24.8989 130.383 24.8989 130.591 24.9323C130.713 24.9508 130.498 24.8989 131.029 24.8766C131.299 24.8655 131.448 25.0027 131.685 25.1399C132.245 25.4663 132.638 25.5775 132.757 25.7556C132.86 25.9039 132.938 26.1969 132.897 26.4157C132.864 26.5937 132.846 26.9386 132.619 27.1314C132.423 27.2983 132.308 27.4503 132.211 27.5468C132.119 27.6358 132.152 27.9065 131.996 27.9621C131.8 28.0363 131.651 27.8991 131.414 27.8954C131.158 27.8917 130.962 28.04 130.888 27.9621C130.832 27.9065 130.776 27.8138 130.68 27.7507C130.591 27.6877 130.457 27.7322 130.439 27.6284C130.409 27.4615 130.202 27.0202 130.042 26.8607C129.983 26.7976 130.135 26.4824 130.05 26.3786C129.961 26.271 129.975 26.1079 129.961 26.004C129.946 25.8928 129.949 25.8038 129.949 25.6888C129.949 25.585 129.812 25.4181 129.879 25.2846C129.927 25.1956 129.994 24.9879 130.094 24.9397H130.098ZM127.669 26.831C127.613 26.5455 127.943 26.6271 128.244 26.4639C128.548 26.3007 128.396 26.3452 128.485 26.5863C128.574 26.8273 128.396 26.6011 128.314 26.9312C128.236 27.2612 128.236 27.2019 128.025 27.3465C127.814 27.4911 127.843 27.328 127.743 27.1611C127.639 26.9942 127.728 27.1166 127.673 26.831H127.669ZM124.065 25.0176C124.005 24.8766 124.372 24.3908 125.348 23.1707C126.212 22.0878 128.01 21.3721 128.748 21.1125C128.907 21.0569 129.427 20.9048 129.608 20.8677C129.745 20.8381 130.291 20.8158 130.42 20.7713C130.676 20.686 131.106 20.7157 131.188 20.6749C131.373 20.5859 131.574 20.534 131.789 20.4895C132.041 20.4375 132.36 20.5711 132.586 20.5303C133.024 20.4487 133.372 20.7009 133.617 20.8307C134.466 21.2757 135.393 22.8481 135.742 23.7381C136.09 24.6282 136.81 27.1277 136.936 29.1711C137.017 30.4839 136.965 33.9143 136.917 34.4372C136.824 35.3717 136.787 37.5709 136.724 37.9899C136.646 38.498 136.587 39.3695 136.402 39.6847C136.064 40.2632 134.681 41.2942 134.384 41.5649C134.143 41.7874 133.098 42.696 132.975 42.6886C132.823 42.6775 132.649 42.3697 132.323 42.0507C131.74 41.4796 130.22 40.9456 129.579 40.5933C128.952 40.2447 126.887 40.0556 125.626 39.974C124.725 39.9184 123.349 39.796 123.304 39.6921C123.256 39.5735 123.156 39.6143 123.019 39.6105C122.897 39.6105 122.885 39.7626 122.852 39.8182C122.804 39.9072 122.911 39.8664 122.863 40.1186C122.815 40.3745 122.937 40.2076 122.963 40.419C122.993 40.6304 123.082 40.5414 123.004 40.7342C122.926 40.9271 123.316 41.068 123.39 41.2794C123.475 41.5278 123.471 41.8505 123.204 41.8616C122.911 41.8764 122.659 41.9914 122.348 41.8802C122.122 41.8023 121.35 41.1014 121.313 40.6675C121.28 40.2966 121.228 39.4362 121.198 39.1655C121.143 38.6871 120.965 37.4225 120.913 36.7921C120.857 36.1616 120.798 36.2951 120.92 36.0393C121.042 35.7871 120.727 35.7463 120.838 35.4088C120.916 35.1678 120.816 34.7079 120.957 34.4075C121.02 34.2703 120.857 34.2703 120.872 34.1331C120.89 33.9514 120.905 33.8327 120.953 33.6547C120.991 33.5175 120.972 33.3543 120.961 33.0984C120.95 32.8425 120.95 32.7387 121.057 32.5607C121.124 32.4494 120.998 32.3938 121.016 32.1713C121.028 32.0415 121.183 30.8659 121.246 30.4172C121.313 29.9721 121.413 28.778 121.495 28.6185C121.725 28.1846 121.858 27.213 121.951 26.8681C122.051 26.5047 122.37 26.1783 122.444 25.8965C122.477 25.7778 122.67 25.674 122.748 25.7222C122.852 25.7852 122.897 26.1004 122.893 26.2191C122.893 26.3971 122.774 27.1537 122.7 27.3131C122.607 27.506 122.507 28.2106 122.492 28.3181C122.463 28.5036 122.455 28.7224 122.44 28.8559C122.422 28.9931 122.333 29.1711 122.285 29.3194C122.248 29.4418 122.314 29.6903 122.277 29.8164C122.233 29.9833 122.244 30.0871 122.166 30.2206C122.092 30.3504 122.207 30.4765 122.162 30.5803C122.103 30.7101 122.218 30.8362 122.129 30.9846C122.033 31.1403 122.192 31.1737 122.14 31.3739C122.077 31.615 122.088 31.8078 122.029 31.9265C121.969 32.0452 122.14 32.2047 122.081 32.4235C122.003 32.7238 122.055 34.4223 122.01 34.7635C121.962 35.1084 121.977 36.1876 122.018 36.3841C122.047 36.5214 122.058 36.7884 122.177 36.7735C122.325 36.7587 122.351 36.2729 122.496 36.2989C122.589 36.3137 122.526 36.5918 122.552 36.7772C122.592 37.1258 122.566 36.8292 122.648 37.4411C122.704 37.849 122.633 38.5202 122.693 38.7353C122.748 38.9467 122.719 39.1396 122.945 39.1433C123.138 39.1433 123.067 38.9949 123.219 38.8021C123.371 38.6055 123.379 38.5796 123.505 38.6686C123.608 38.7465 124.346 38.739 124.584 38.6983C124.895 38.6426 125.11 38.3867 125.325 38.2273C125.581 38.0344 126.582 37.0888 127.087 36.6586C127.313 36.4657 127.94 35.724 128.181 35.4867C128.585 35.0936 129.204 34.4446 129.304 34.3296C129.382 34.2406 129.412 34.1182 129.326 33.9551C129.275 33.8549 129.193 33.8327 129.085 33.892C128.826 34.0367 128.496 34.4706 128.236 34.6337C127.784 34.9193 127.217 35.3013 126.905 35.4867C126.56 35.6907 126.06 35.9243 125.741 36.1023C125.333 36.3322 124.873 36.4806 124.803 36.5102C124.65 36.5844 124.599 36.6289 124.458 36.5214C124.339 36.4324 124.376 36.4843 124.491 36.1023C124.569 35.8464 124.369 35.572 124.654 35.2048C124.836 34.9675 125.01 34.3556 125.299 33.9959C125.403 33.8661 125.963 33.1689 126.078 32.9834C126.171 32.8351 126.356 32.7535 126.382 32.7053C126.475 32.5236 126.59 32.3011 126.645 32.2714C126.835 32.1713 127.024 31.8894 127.053 31.8561C127.116 31.7856 127.139 31.7374 127.102 31.6187C127.087 31.5705 126.99 31.4036 126.875 31.5408C126.757 31.6892 126.531 31.73 126.438 31.7893C126.267 31.8968 126.312 32.1045 126.149 32.1156C125.904 32.1342 125.93 31.7374 125.959 31.6039C125.997 31.4481 125.87 31.4073 125.948 31.2404C126.126 30.8622 126.074 30.8214 126.119 30.7509C126.163 30.673 126.208 30.7324 126.301 30.6174C126.364 30.5432 126.245 30.4357 126.319 30.3467C126.475 30.165 126.519 29.9536 126.671 29.8535C126.838 29.7533 127.128 29.3639 127.157 29.2601C127.194 29.1303 127.205 29.0005 127.254 28.8707C127.268 28.8262 127.098 28.8039 127.031 28.7187C126.957 28.6259 127.02 28.5666 127.05 28.4034C127.064 28.3144 126.887 28.2069 126.89 28.0845C126.89 27.9473 126.875 27.8879 126.712 27.9028C126.545 27.9139 126.186 28.2885 125.896 28.3441C125.592 28.3997 125.355 28.1883 125.511 27.8879C125.7 27.5171 126.152 26.9794 126.241 26.8755C126.378 26.7235 126.349 26.5788 126.338 26.4268C126.323 26.2747 126.186 25.9299 126.137 25.5664C126.111 25.355 125.882 24.5762 125.837 24.4835C125.807 24.4242 125.741 24.2388 125.915 24.1683C125.993 24.1386 126.141 24.3055 126.241 24.4576C126.397 24.6875 126.638 25.1066 126.712 25.2586C126.805 25.444 126.89 25.6369 126.931 25.7852C126.961 25.8928 127.031 26.0893 127.183 26.1042C127.331 26.119 127.424 26.1042 127.513 26.0189C127.665 25.8668 128.466 25.5553 128.811 25.4329C128.978 25.3773 129.067 25.3439 129.245 25.4552C129.345 25.5145 129.467 25.8631 129.527 25.8928C129.649 25.9558 129.708 25.941 129.675 26.03C129.653 26.0893 129.675 26.0597 129.523 26.2377C129.371 26.4157 129.504 26.4787 129.352 26.7161C129.197 26.9534 129.074 27.2798 129.011 27.4281C128.952 27.5727 128.815 27.6358 128.707 27.7433C128.585 27.862 128.629 28.0252 128.57 28.0548C128.381 28.1475 128.385 28.1179 128.325 28.2477C128.266 28.3812 128.233 28.5889 128.377 28.8633C128.451 28.9968 128.585 29.0302 128.611 29.134C128.666 29.3343 128.804 29.3306 128.878 29.4381C129.004 29.6198 128.982 29.6087 129.052 29.7274C129.186 29.9388 129.171 29.8497 129.338 29.9684C129.441 30.0463 129.527 30.2874 129.645 30.4097C129.842 30.6063 130.09 30.7583 130.268 30.9734C130.413 31.144 130.417 31.2293 130.398 31.3777C130.368 31.6298 130.428 31.4852 130.335 31.6632C130.268 31.7967 130.335 31.9784 130.328 32.0674C130.328 32.2343 130.328 32.353 130.22 32.5013C130.113 32.6497 129.809 33.0354 129.745 33.1837C129.694 33.3061 129.653 33.4359 129.712 33.4989C129.794 33.5842 129.86 33.6213 129.964 33.5471C130.157 33.4136 130.728 32.4754 131.214 31.8523C131.474 31.5186 132.011 30.6322 132.134 30.3949C132.26 30.1501 132.638 29.6903 132.712 29.5902C132.757 29.5308 132.894 29.5345 132.92 29.6384C132.946 29.7311 132.901 29.8349 132.931 29.8943C132.972 29.9758 133.079 29.9276 133.094 30.0611C133.105 30.1983 133.12 30.2577 133.075 30.3319C133.042 30.3912 133.161 30.4209 133.087 30.5432C133.024 30.6471 133.098 30.8585 132.931 31.0513C132.693 31.3257 132.104 32.1082 131.863 32.4197C131.529 32.8499 130.554 34.0107 130.402 34.1442C130.32 34.2147 130.22 34.3741 130.265 34.4743C130.335 34.6411 130.617 35.1084 130.78 35.2456C130.991 35.4236 131.433 35.6869 131.629 35.6907C131.859 35.6907 132.011 35.6239 132.096 35.5609C132.46 35.279 132.749 34.6671 132.875 34.3704C133.049 33.9551 133.328 33.1021 133.342 32.9686C133.368 32.7572 133.272 32.531 133.291 32.4531C133.313 32.3604 133.443 32.3827 133.468 32.4717C133.506 32.594 133.539 32.8166 133.569 32.9686C133.617 33.2171 133.239 34.4965 133.168 34.9304C133.087 35.4533 132.452 36.3508 132.401 36.4843C132.367 36.5584 132.382 36.6771 132.234 36.6882C132.059 36.7068 131.996 36.6549 131.889 36.6252C131.499 36.5139 131.173 36.2395 130.921 36.0096C130.669 35.7834 130.076 35.0528 130.001 34.9341C129.949 34.8451 129.753 34.7079 129.66 34.7821C129.493 34.9156 129.249 35.2864 129.126 35.3754C129.034 35.4422 128.848 35.5164 128.748 35.6239C128.596 35.7871 128.414 35.9948 128.233 36.1579C128.095 36.2803 127.517 36.7068 127.413 36.8106C127.246 36.9738 127.05 37.2408 126.927 37.3298C126.805 37.4188 126.397 37.6673 126.275 37.8045C126.137 37.9528 125.945 38.2569 125.789 38.3237C125.685 38.3682 125.548 38.5462 125.652 38.6352C125.756 38.7279 126.104 38.5685 126.327 38.524C126.505 38.4906 126.779 38.4832 126.975 38.472C127.094 38.4609 127.205 38.3348 127.484 38.2495C127.728 38.1791 127.891 38.2829 127.995 38.2569C128.125 38.2199 128.207 38.1679 128.418 38.1123C128.652 38.0493 128.974 38.0901 129.108 38.0307C129.204 37.9862 129.2 37.9566 129.382 37.8379C129.501 37.76 129.657 37.8305 129.786 37.7971C129.953 37.7526 130.254 37.6673 130.569 37.5523C130.817 37.4596 131.626 37.2668 131.744 37.2519C131.859 37.2408 132.03 36.9849 132.226 36.9145C132.475 36.8218 132.949 36.907 133.142 36.7884C133.257 36.7179 133.524 36.87 133.646 37.0962C133.81 37.3817 133.624 37.5301 133.58 37.6932C133.461 38.1086 133.346 38.2903 133.209 38.4387C133.072 38.587 133.024 38.8577 132.797 38.9171C132.538 38.9801 132.404 39.0172 132.122 38.8911C131.614 38.6612 131.34 38.88 131.043 38.8169C130.598 38.7205 130.424 38.943 130.216 38.9245C130.113 38.9171 129.775 38.8614 129.675 38.9208C129.382 39.0877 129.148 39.0469 128.952 39.1062C128.789 39.1544 128.726 39.3139 128.815 39.388C128.97 39.5215 129.486 39.6513 129.909 39.6254C130.584 39.5883 131.077 39.7292 131.347 39.7478C131.752 39.7737 132.033 39.9962 132.23 39.9999C132.449 39.9999 132.541 40.1075 132.768 40.1705C132.916 40.2113 133.094 40.267 133.261 40.2521C133.443 40.241 133.58 40.3745 133.65 40.3485C133.925 40.2484 133.925 40.2707 134.073 40.2336C134.195 40.2076 134.436 39.8924 134.603 39.7774C134.815 39.6291 135.256 39.2137 135.349 38.9616C135.445 38.702 135.475 38.5907 135.567 38.2569C135.649 37.9788 135.53 37.9566 135.638 37.5078C135.734 37.1184 135.638 36.488 135.716 36.2469C135.764 36.0949 135.749 36.0207 135.794 35.8872C135.857 35.7055 135.794 35.572 135.782 35.4978C135.771 35.4051 135.908 35.2123 135.908 35.0936C135.908 34.9897 135.794 34.897 135.871 34.6894C135.968 34.4261 135.894 34.1479 135.968 34.0589C136.046 33.9699 135.883 33.8179 135.927 33.6844C135.997 33.4804 136.001 32.646 135.957 32.2158C135.905 31.6743 135.986 30.9401 136.005 30.6693C136.012 30.5321 135.827 30.4283 135.89 30.3096C135.975 30.1464 135.883 29.8905 135.853 29.6792C135.816 29.3973 135.727 28.8818 135.716 28.5666C135.697 28.0252 135.193 24.8878 134.87 24.083C134.421 22.9519 133.216 21.7652 132.727 21.5501C132.26 21.3424 131.648 21.3721 131.258 21.3647C130.958 21.3647 129.89 21.5316 128.941 21.8319C128.099 22.1027 127.198 22.518 126.901 22.6923C126.553 22.8963 126.16 23.3747 125.9 23.6417C125.622 23.931 125.548 24.2759 125.47 24.4316C125.255 24.8655 125.47 25.407 125.518 25.5553C125.589 25.8112 125.526 25.9929 125.422 26.0337C125.188 26.1301 125.288 26.1375 124.851 26.1894C124.71 26.208 124.447 26.0819 124.432 25.9744C124.398 25.7148 124.168 25.2809 124.053 25.0101" clip-rule="evenodd"/><path fill="#231F20" fill-rule="evenodd" d="M190.537 30.4803C190.285 30.6175 189.517 31.4741 189.321 31.5594C189.132 31.6447 188.857 31.4371 188.694 31.463C188.257 31.5298 187.215 31.7819 186.48 31.9155C185.865 32.0267 184.841 32.4087 184.567 32.5533C184.371 32.6534 184.363 32.7944 184.474 32.8982C184.845 33.2468 185.157 33.4174 185.335 33.6436C185.457 33.7994 185.272 33.8661 185.223 34.122C185.164 34.4335 184.964 35.9058 185.057 36.7031C185.142 37.4003 185.505 39.4956 185.602 40.0742C185.683 40.586 185.757 41.2831 185.824 41.5465C185.917 41.9136 185.783 42.5663 185.646 42.7183C185.142 43.2635 184.352 44.0645 184.141 44.1387C183.822 44.25 183.403 44.2351 183.106 43.9904C182.72 43.6714 182.576 43.0966 182.461 42.7962C182.261 42.277 181.693 41.8839 181.289 41.5947C180.581 41.0829 179.027 40.293 178.793 39.733C178.76 39.6551 178.704 39.4919 178.871 39.4326C179.183 39.3213 179.331 39.7107 179.542 39.8628C179.936 40.1521 180.273 40.2336 180.559 40.3264C181.003 40.4747 181.804 40.6712 181.994 40.7343C182.446 40.8863 182.68 40.9531 183.028 40.8381C183.262 40.7603 183.655 40.0185 183.673 39.7033C183.718 38.9394 183.544 38.0382 183.562 37.6599C183.618 36.5808 183.592 36.3805 183.707 35.5609C183.788 34.9601 183.629 34.5114 183.647 34.2407C183.67 33.9069 183.673 33.4137 183.766 33.1763C183.844 32.9761 183.595 32.9872 183.421 33.0354C182.591 33.2802 182.205 33.6659 181.489 34.0033C180.992 34.237 180.099 34.7821 179.735 34.9119C179.483 35.0046 179.279 35.3569 179.131 35.2197C178.964 35.064 178.727 35.1085 178.582 34.8378C178.367 34.4409 178.712 34.0738 178.986 33.9143C179.346 33.6992 179.676 33.8328 180.777 33.2913C181.879 32.7499 183.073 32.0304 183.963 31.6818C184.834 31.3369 187.204 30.6286 187.548 30.5544C187.893 30.4803 188.646 30.4098 188.765 30.3579C189.232 30.1539 189.651 30.1576 189.803 30.1317C190.011 30.0909 190.311 30.165 190.493 30.1836C190.711 30.2058 190.775 30.3542 190.537 30.484V30.4803ZM181.174 27.8917C181.493 27.7285 181.578 28.1068 181.682 28.1068C181.994 28.1105 182.279 28.1476 182.672 28.0141C182.973 27.9103 184.875 26.9572 185.52 26.8014C186.629 26.5344 188.171 26.0968 188.709 26.1339C188.891 26.145 188.902 26.2711 188.72 26.3749C188.516 26.4899 188.461 26.7792 188.294 26.9386C188.186 27.0462 188.231 27.3725 188.138 27.4912C188.027 27.6358 187.864 27.7137 187.671 27.7137C187.367 27.7137 187.341 27.7137 187.148 27.7063C186.925 27.7063 186.48 27.9881 186.317 28.0252C186.258 28.0401 186.106 27.9103 185.958 27.8695C185.613 27.7768 184.307 28.2959 183.803 28.5185C183.277 28.7521 182.338 29.2157 181.867 29.7126C181.686 29.9054 181.497 30.2652 181.204 30.0946C180.933 29.9425 180.822 29.3232 180.751 29.0525C180.688 28.8188 180.718 28.1179 181.17 27.888L181.174 27.8917ZM179.479 20.4858C179.765 20.534 180.288 21.8172 180.581 22.392C180.673 22.5774 180.737 22.8778 180.792 23.3562C180.822 23.5824 181.026 24.0052 180.974 24.5133C180.948 24.7692 181.022 25.2253 180.933 25.4404C180.87 25.5887 180.629 25.7371 180.629 25.9485C180.629 26.0745 180.429 26.3527 180.306 26.4676C180.114 26.6531 179.999 27.1426 179.872 27.3058C179.646 27.6025 179.068 27.5913 178.653 27.71C178.348 27.799 177.985 27.9881 177.67 28.2106C177.355 28.4332 176.784 28.6297 176.387 28.9004C176.083 29.1081 175.463 29.7311 175.282 29.8758C175.156 29.9759 174.941 30.1465 175.141 30.3245C175.349 30.5062 175.934 30.4098 176.728 30.7658C177.251 30.9994 177.711 31.3184 177.974 31.756C178.196 32.1194 178.085 32.4346 177.844 32.5793C177.651 32.6979 177.518 33.0465 177.102 33.3951C176.891 33.5732 176.739 34.0256 176.402 34.3149C176.142 34.5374 175.211 35.5312 174.855 35.7983C174.659 35.9466 174.663 36.1914 174.985 36.31C175.285 36.4176 176.209 37.074 176.517 37.5153C176.839 37.9826 176.984 38.995 177.043 39.8183C177.084 40.3597 176.709 41.1793 176.554 41.7504C176.476 42.0323 176.42 42.1547 176.053 42.0879C175.96 42.0731 175.794 41.8506 175.638 41.6911C175.415 41.4649 175.108 41.3722 174.955 41.2053C174.777 41.0087 174.533 40.8938 174.407 40.7046C174.258 40.4784 174.277 39.4363 174.355 38.9765C174.418 38.5871 174.481 38.3126 174.574 38.0197C174.651 37.7823 174.803 36.9961 174.514 36.9368C174.347 36.9071 173.728 37.2446 173.398 37.404C173.031 37.5821 172.612 37.8305 172.43 38.0382C172.226 38.2681 172.108 38.5871 172.074 38.8281C172.041 39.0618 171.878 39.2249 171.77 39.1693C171.548 39.0469 171.325 39.1508 171.169 39.1915C170.947 39.2472 170.795 39.0432 170.543 38.9431C170.109 38.7725 170.305 38.9023 169.931 38.5908C169.694 38.3942 169.167 37.6154 169.367 37.0703C169.475 36.7699 169.371 36.6327 169.679 36.3508C170.417 35.6648 170.706 35.2828 171.455 34.4669C171.852 34.0367 172.519 33.3395 172.931 32.9983C173.094 32.8611 173.246 32.6164 173.372 32.3271C173.45 32.1491 173.884 31.8227 173.606 31.6373C173.305 31.4408 172.923 31.4185 172.705 31.5075C172.493 31.5965 172.356 31.3518 172.108 31.2145C171.885 31.0922 171.637 31.259 171.462 31.133C171.255 30.9809 171.151 30.8734 170.958 30.7361C170.776 30.6101 170.439 30.4246 170.606 30.0872C170.728 29.835 170.628 29.4715 170.899 29.2639C171.247 29.0006 171.492 28.7298 171.733 28.5259C172.204 28.1254 173.498 26.6271 174.366 25.6332C175.278 24.5837 176.958 22.0916 177.614 21.4241C177.751 21.2831 177.692 20.9568 178.389 20.5934C178.812 20.3746 179.146 20.4302 179.487 20.4858" clip-rule="evenodd"/><path fill="#231F20" fill-rule="evenodd" d="M159.244 23.7937C159.3 24.0496 159.077 24.9952 158.81 25.8C158.543 26.6047 158.484 26.8755 158.246 27.6097C158.143 27.9361 157.931 27.784 157.809 27.9213C157.672 28.0696 157.976 27.8026 157.397 28.3663C157.049 28.7075 156.311 29.1636 156.111 29.3861C156.007 29.5048 155.781 29.4418 155.736 29.2155C155.71 29.0672 155.71 28.93 155.699 28.6296C155.692 28.3737 155.914 28.0622 155.962 27.9287C156.04 27.7173 156.166 27.2982 156.17 27.0312C156.177 26.5194 156.722 25.8371 157.149 25.3327C157.575 24.8284 159.24 23.7974 159.24 23.7974L159.244 23.7937ZM156.578 31.7929C156.804 31.6298 156.785 32.0637 156.997 32.0229C157.13 31.9969 157.238 31.8337 157.331 31.7299C157.408 31.6372 157.52 31.5741 157.598 31.9561C157.642 32.1675 157.679 32.3678 157.56 32.5124C157.379 32.7349 156.337 33.1132 156.159 33.1836C156.029 33.2356 155.992 33.2912 155.936 33.0316C155.866 32.7015 156.259 32.5235 156.274 32.3752C156.303 32.1008 156.396 31.9265 156.582 31.7929H156.578ZM158.832 36.4138C159.044 36.4471 159.585 36.1393 159.815 35.9613C159.978 35.8315 160.13 36.0244 160.038 36.1875C159.937 36.3655 159.578 36.7809 159.504 36.9774C159.459 37.0887 159.337 37.1703 159.244 37.1406C159.073 37.0813 158.829 36.97 158.662 36.8773C158.45 36.7586 158.64 36.3841 158.832 36.4138ZM153.997 36.729C154.067 36.5621 154.486 37.0516 154.757 37.1147C155.046 37.1814 155.373 37.3186 155.729 37.4113C156.222 37.5411 156.745 37.8304 157.119 38.09C157.375 38.268 157.716 38.3348 158.013 38.6426C158.124 38.7538 158.083 38.9133 157.994 39.0171C157.89 39.1395 157.827 39.2841 157.631 39.4176C157.119 39.7625 155.41 40.6674 155.184 40.8566C154.894 41.1013 154.342 40.9678 154.164 40.8009C154.008 40.6526 153.841 40.4264 153.797 40.1223C153.726 39.6402 153.697 38.739 153.73 38.3051C153.763 37.8934 153.771 37.2704 154.004 36.7327L153.997 36.729ZM148.516 36.9774C148.516 36.8699 149.058 36.6214 149.362 36.4768C149.655 36.3359 149.922 36.2135 150.178 36.1875C150.307 36.1727 150.452 36.284 150.4 36.4471C150.322 36.6993 149.154 37.8267 148.742 38.2717C148.653 38.3681 148.49 38.0307 148.479 37.8193C148.464 37.5782 148.516 37.2074 148.52 36.9812L148.516 36.9774ZM147.585 34.4742C147.752 34.4557 147.823 34.6967 147.686 34.897C147.593 35.0305 147.341 35.1046 147.281 35.0268C147.181 34.9007 147.27 34.7894 147.422 34.6819C147.556 34.5929 147.467 34.489 147.589 34.4779L147.585 34.4742ZM148.932 30.0462C149.232 30.0203 149.239 30.1612 149.262 30.1835C149.336 30.2762 149.499 30.6581 149.614 30.7879C149.718 30.9103 149.799 31.0475 149.97 31.1069C150.059 31.1365 150.07 31.5445 150.051 31.7225C150.033 31.9153 149.558 31.9969 149.325 32.1786C149.173 32.2973 149.084 32.39 148.991 32.5198C148.869 32.683 148.839 32.772 148.672 32.9203C148.535 33.0427 148.702 33.688 148.598 33.9847C148.553 34.1182 148.731 34.1071 148.883 34.1071C148.958 34.1071 148.983 33.9661 149.08 33.8845C149.202 33.7807 149.536 33.5434 149.703 33.4432C149.825 33.3691 149.666 32.9611 149.844 32.9203C149.966 32.8907 149.974 33.3357 150.048 33.51C150.103 33.6472 150.3 34.1479 150.248 34.3518C150.2 34.5335 150.166 34.7301 150.107 34.8451C150.044 34.9637 149.321 35.2752 149.395 35.5868C149.436 35.7685 149.974 35.5126 150.252 35.5385C150.463 35.5571 150.86 35.5163 151.049 35.52C151.227 35.52 151.575 35.787 151.776 36.143C151.88 36.3247 151.142 36.97 150.752 37.467C150.37 37.9565 148.887 39.2137 148.583 39.5104C148.427 39.6624 148.531 40.215 148.409 40.2891C148.26 40.3782 148.134 40.2891 147.975 40.3262C147.852 40.3559 147.645 40.4375 147.578 40.5784C147.519 40.7119 147.504 40.8195 147.623 40.8788C147.771 40.9567 149.343 40.1631 150.1 39.4844C150.893 38.7724 151.98 37.6746 152.38 37.1666C152.684 36.7809 152.569 35.1454 152.922 33.5434C153.081 32.8054 153.437 30.4282 153.693 29.3045C153.986 28.0214 154.987 26.0299 155.176 25.737C155.254 25.6183 155.172 25.5033 155.243 25.3921C155.321 25.2734 155.35 25.1844 155.617 25.3068C155.729 25.3587 155.899 25.5664 156.003 25.5219C156.24 25.4217 155.881 25.6257 156.734 24.795C157.583 23.9643 158.402 23.5563 158.855 23.2152C159.307 22.874 159.611 22.4883 159.841 22.3882C160.026 22.3029 160.204 22.3845 160.271 22.5736C160.345 22.7701 160.364 23.0557 160.26 23.4154C160.197 23.6416 160.03 23.9532 159.83 24.4316C159.748 24.6207 159.504 25.5701 159.329 26.093C159.151 26.6122 158.944 27.8471 158.821 28.0659C158.64 28.3922 158.855 28.4738 158.725 28.8298C158.684 28.9448 158.443 29.4937 158.291 29.8015C158.135 30.1167 157.69 31.0995 157.598 31.1885C157.483 31.2997 157.564 31.5408 157.623 31.6372C157.694 31.7559 158.109 32.0155 158.391 32.6978C158.48 32.9092 158.45 33.128 158.276 33.3542C158.154 33.5211 157.661 33.6732 157.386 33.8104C157.023 33.9847 155.573 34.719 155.091 35.1195C154.983 35.2085 154.809 35.1862 154.853 35.0268C154.931 34.7412 154.835 33.8734 154.946 33.573C155.106 33.1317 155.039 33.306 155.406 32.798C155.603 32.5272 156.007 31.5445 156.448 31.055C156.493 31.0067 156.582 30.7546 156.437 30.6619C156.318 30.584 156.166 30.7434 156.014 30.7916C155.925 30.8213 155.907 31.0475 155.803 31.092C155.64 31.1588 155.484 30.9919 155.339 31.1143C155.232 31.2033 155.039 31.6335 154.998 31.9227C154.983 32.0414 154.779 32.2009 154.724 32.2788C154.664 32.3678 154.701 32.7572 154.668 33.0316C154.627 33.3579 154.32 34.1924 154.245 34.541C154.197 34.7635 154.104 35.2678 154.13 35.5608C154.142 35.7277 154.216 35.8426 154.334 35.8204C154.472 35.7907 154.564 35.5608 154.698 35.5385C154.865 35.5089 155.402 35.5015 155.64 35.5645C155.751 35.5942 155.955 35.7351 156.315 35.6609C156.518 35.6201 156.837 35.5348 157.082 35.5348C157.323 35.5348 158.491 35.5348 158.988 35.5423C159.17 35.5423 160.178 35.0453 160.497 34.9007C160.757 34.7783 161.387 34.1886 161.817 33.7436C162.062 33.4952 162.633 33.3209 162.934 33.4581C163.086 33.5285 162.993 33.9736 162.759 34.1479C162.578 34.2814 162.14 34.515 161.929 34.6633C161.588 34.9007 161.046 35.5756 160.787 36.0132C160.664 36.2246 160.267 36.7883 160.067 37.1443C160.026 37.2148 160.026 37.3928 160.182 37.5523C160.33 37.7043 161.573 38.0344 162.155 38.2346C162.207 38.2532 162.288 38.357 162.411 38.3125C162.492 38.2828 162.607 38.2383 162.618 38.4497C162.622 38.5499 163.438 38.5721 163.531 38.6426C163.846 38.8688 165.04 39.1395 165.429 39.3843C165.578 39.477 165.622 39.5141 165.756 39.6735C165.844 39.7811 166.071 39.7737 166.037 39.9331C166.004 40.1 163.701 40.6711 162.878 40.6303C162.17 40.597 161.439 40.5079 160.764 40.2743C160.167 40.0666 159.021 39.2026 158.858 39.1988C158.588 39.1988 158.617 39.2582 158.436 39.4325C158.384 39.4807 158.291 39.6476 158.161 39.7737C158.009 39.922 157.479 40.4412 157.371 40.5895C157.219 40.7972 156.86 40.8788 156.63 41.0605C156.463 41.194 156.144 41.55 155.947 41.6835C155.588 41.9283 155.132 42.2287 154.861 42.3474C154.583 42.466 154.097 42.288 153.689 42.2287C153.24 42.1657 152.688 41.691 152.484 41.283C152.362 41.042 152.365 40.4412 152.302 40.0815C152.261 39.8404 152.451 39.1024 152.302 39.0023C152.095 38.8651 151.983 39.0208 151.883 39.1321C151.716 39.3101 151.516 39.6513 150.986 40.0221C150.752 40.1816 150.749 40.2966 150.485 40.5562C150.289 40.749 149.825 41.0234 149.503 41.2942C149.184 41.5612 148.609 41.7243 148.238 41.7911C148.101 41.8133 147.726 42.047 147.511 42.1434C147.315 42.2324 146.692 42.4475 146.306 42.5625C146.065 42.6329 145.95 42.11 145.895 41.7466C145.839 41.3832 145.98 41.0123 146.191 40.8936C146.543 40.6971 147.1 40.0481 147.408 39.7217C147.485 39.6364 147.326 39.4399 147.185 39.451C146.692 39.4733 146.377 39.2619 146.377 39.2619C146.736 39.2063 147.352 39.1877 147.567 38.917C147.6 38.8725 147.704 38.7835 147.704 38.6611C147.704 38.4868 147.649 38.4423 147.634 38.3311C147.619 38.2458 147.734 38.0974 147.697 38.0158C147.656 37.9268 147.567 37.7117 147.415 37.8044C147.1 37.9899 146.558 38.5313 146.414 38.8095C146.321 38.9875 146.302 39.184 146.302 39.184C146.21 39.273 146.047 39.1951 146.047 39.1951C145.757 39.4918 145.301 39.9962 145.075 40.189C144.904 40.3336 144.675 40.4375 144.485 40.3485C144.263 40.2409 144.115 39.7737 144.015 39.6216C143.926 39.4844 144.048 39.2916 144.185 39.2026C144.389 39.069 144.923 38.7909 145.079 38.6574C145.246 38.5128 145.958 37.8007 146.128 37.6672C146.395 37.4521 146.766 37.2111 146.977 36.9849C147.129 36.8217 146.94 36.6214 146.833 36.7141C146.74 36.7846 146.607 36.7549 146.547 36.6214C146.403 36.2802 146.099 35.4458 146.102 35.1306C146.102 34.9341 146.106 34.8265 146.184 34.6522C146.414 34.1145 147.185 33.1095 147.422 32.9278C147.649 32.7497 147.515 32.5829 147.445 32.4494C147.356 32.2825 146.911 31.7373 146.929 31.5408C146.955 31.2515 147.385 30.9919 147.812 30.6952C148.234 30.3985 148.657 30.0759 148.958 30.0499L148.932 30.0462ZM150.367 25.5478C150.474 25.3253 151.208 25.2734 151.542 25.3364C151.839 25.3958 152.198 25.9817 152.31 26.2599C152.384 26.4416 152.51 26.8235 152.451 26.9682C152.373 27.1647 152.061 27.161 151.757 27.2463C151.65 27.276 151.368 27.3761 151.171 27.4799C150.915 27.6097 150.6 27.8879 150.489 27.9954C150.367 28.1141 150.163 28.166 150.066 28.1401C150.007 28.1252 150.011 27.9546 150.118 27.8397C150.315 27.632 150.563 27.0498 150.504 26.8235C150.474 26.7086 150.355 26.6567 150.344 26.2969C150.341 26.1152 150.278 25.7332 150.367 25.5478ZM150.266 21.5092C150.385 21.4796 150.47 21.6835 150.656 21.7688C150.789 21.8319 150.849 21.9543 150.982 21.9543C151.168 21.9543 151.175 22.2435 151.279 22.3325C151.368 22.4104 151.486 22.6923 151.587 22.785C151.705 22.8925 151.75 23.0297 151.868 23.1187C151.998 23.2189 152.035 23.5563 151.876 23.7492C151.753 23.8975 151.561 24.0978 151.301 24.1794C151.06 24.2498 150.53 24.2721 150.233 24.4501C149.992 24.5984 149.54 24.9545 149.291 25.2178C148.82 25.7221 148.286 26.601 147.856 27.3464C147.563 27.8508 146.477 29.7162 146.15 30.4468C146.017 30.7509 145.324 32.2343 145.071 32.7757C144.749 33.4766 143.955 35.0082 143.792 35.4162C143.573 35.9687 143.699 36.436 143.551 36.6437C143.414 36.8365 143.143 36.818 142.98 36.6956C142.813 36.5732 142.557 36.3247 142.49 36.0726C142.435 35.8464 142.554 35.3197 142.624 35.0527C142.668 34.871 142.769 34.7523 142.913 34.6819C143.002 34.6374 143.158 34.6819 143.288 34.6263C143.388 34.5855 143.822 33.8697 144.037 33.4655C144.322 32.9315 145.075 31.3368 145.253 30.9585C145.361 30.7286 145.794 29.7496 146.113 29.1525C146.314 28.7816 147.293 26.0893 147.767 25.4329C147.875 25.2845 148.379 24.2165 148.691 23.7344C148.965 23.3005 150.081 21.5426 150.263 21.5018" clip-rule="evenodd"/><path fill="#231F20" fill-rule="evenodd" d="M107.83 38.9764C107.919 38.9764 107.979 39.0506 108.008 39.2026C108.049 39.4103 108.019 39.4103 108.049 39.5883C108.079 39.7663 108.008 39.8145 108.045 39.9592C108.09 40.1409 108.071 40.2373 108.086 40.4227C108.112 40.7379 108.123 41.0198 108.064 41.2126C108.001 41.4055 108.075 41.4648 108.071 41.6614C108.071 41.8394 107.964 42.1212 107.945 42.3882C107.927 42.6107 108.145 42.8407 108.145 43.1077C108.145 43.2709 108.071 43.2709 107.919 43.256C107.756 43.2375 107.563 43.1299 107.504 42.9964C107.445 42.8629 107.274 42.4142 107.274 42.2473C107.274 42.0693 107.33 41.7429 107.356 41.5316C107.389 41.309 107.333 41.042 107.333 40.8307C107.337 40.5785 107.637 40.3115 107.641 40.0593C107.641 39.8071 107.585 39.7774 107.589 39.4622C107.593 39.1507 107.715 38.9727 107.834 38.9727L107.83 38.9764ZM110.281 27.3947C110.27 27.2278 110.864 26.8644 111.153 26.6753C111.423 26.501 111.631 26.2562 111.861 26.1301C112.191 25.9558 112.488 26.0114 112.681 26.0226C112.977 26.0411 113.341 25.8816 113.5 26.0782C113.645 26.2599 113.6 26.4083 113.552 26.6159C113.511 26.7791 112.655 28.1253 112.243 28.6111C111.817 29.1229 110.763 30.3319 110.66 30.3949C110.537 30.4691 110.441 30.2911 110.411 30.0352C110.381 29.809 110.352 29.6235 110.4 29.5123C110.463 29.3788 110.389 29.2935 110.359 29.1711C110.33 29.0339 110.196 28.5406 110.222 28.1698C110.241 27.8991 110.296 27.6321 110.274 27.3947H110.281ZM103.18 31.6892C103.217 31.5965 103.614 31.3962 103.792 31.2516C103.918 31.1477 104.23 30.9438 104.352 30.8399C104.697 30.5432 104.652 30.5989 104.968 30.3838C105.116 30.2836 105.327 30.2095 105.353 30.521C105.383 30.8956 105.342 31.5631 105.353 31.8041C105.364 32.0415 105.305 32.1008 105.286 32.2937C105.272 32.4605 105.342 32.5495 105.357 32.6534C105.372 32.7572 105.335 32.7869 105.309 32.9797C105.29 33.0984 105.379 33.2801 105.272 33.4878C105.164 33.6955 104.593 34.1516 104.411 34.2073C104.233 34.2666 104.356 33.9365 104.063 33.7251C103.766 33.5138 103.696 33.2134 103.562 33.002C103.399 32.7424 103.447 32.6126 103.258 32.3864C103.065 32.1639 103.069 31.9376 103.176 31.6855L103.18 31.6892ZM99.4275 28.0845C99.6092 28.0252 99.9689 28.7261 100.321 29.1043C100.673 29.4826 101.2 29.9573 101.308 30.0537C101.426 30.1613 101.704 30.5803 101.808 30.584C101.864 30.584 102.201 30.2911 102.483 30.0982C102.783 29.8943 103.466 29.4307 103.673 29.2935C103.84 29.1822 104.359 28.804 104.678 28.5592C105.001 28.3144 105.694 27.862 105.717 27.7989C105.731 27.7619 105.702 27.6061 105.813 27.3094C105.88 27.1277 105.735 27.0461 105.728 27.009C105.713 26.9349 105.806 26.7124 105.82 26.5937C105.854 26.3712 105.798 25.915 105.828 25.8186C105.906 25.5813 105.932 25.0843 105.943 24.9397C105.976 24.5317 105.928 24.3574 105.98 24.1943C106.154 23.6528 106.173 23.2115 106.132 22.811C106.099 22.4698 106.017 22.4364 106.113 21.9172C106.199 21.4463 106.629 20.9456 106.822 20.7194C106.951 20.5711 107.337 20.5451 107.63 20.8307C107.741 20.9382 108.001 21.0569 108.249 21.3165C108.494 21.5612 108.946 22.1249 109.102 22.2658C109.354 22.4921 109.836 23.1114 110.144 23.5008C110.378 23.8012 110.504 24.3389 110.533 24.5355C110.574 24.8284 110.511 25.2215 110.711 25.2586C110.997 25.3142 111.557 24.8321 112.454 24.6615C113.048 24.5503 114.019 24.5762 114.661 24.5837C114.942 24.5874 115.495 24.5614 115.543 24.6949C115.629 24.936 115.48 25.674 115.113 26.4973C114.79 27.2241 114.612 27.3613 114.249 27.8286C113.949 28.2143 113.904 28.4554 113.352 29.1748C112.821 29.8683 111.765 30.8844 111.972 31.081C112.15 31.2479 112.673 30.9994 112.758 31.3888C112.829 31.704 112.484 31.908 112.362 32.2158C112.191 32.6497 112.291 32.9612 111.902 33.1503C111.542 33.3246 111.334 33.2653 111.108 33.4099C110.838 33.5842 110.941 34.033 110.767 34.3593C110.463 34.9378 110.619 35.4904 110.433 35.954C110.152 36.6549 110.222 36.3804 109.988 37.111C109.94 37.2668 109.825 38.0715 109.762 38.3534C109.707 38.5944 109.525 38.7873 109.521 38.8726C109.499 39.1173 109.377 39.7552 109.388 39.8256C109.402 39.9184 109.236 40.0333 109.25 40.1965C109.265 40.3448 109.102 40.7231 109.076 40.9827C108.969 42.0174 109.058 42.1546 109.098 42.7294C109.139 43.3042 109.032 43.4266 108.969 43.5824C108.917 43.7196 108.698 43.753 108.55 43.7975C108.386 43.842 108.398 44.02 108.294 44.0533C108.171 44.0941 108.001 43.9681 107.945 44.0645C107.83 44.2647 107.704 44.5169 107.556 44.5317C107.4 44.5466 107.348 44.4539 107.304 44.2165C107.293 44.1535 107.144 44.1386 107.115 44.0051C107.07 43.7938 107.022 43.9235 106.833 43.5749C106.673 43.2857 106.81 43.1818 106.792 42.9223C106.781 42.7183 106.51 42.5366 106.581 42.2213C106.618 42.0508 106.573 41.7059 106.536 41.4203C106.495 41.0902 106.484 40.8603 106.484 40.7787C106.484 40.6267 106.436 40.775 106.477 40.3003C106.51 39.885 106.38 39.5401 106.384 39.4214C106.384 39.2731 106.328 39.1655 106.206 39.1655C106.11 39.1655 106.061 39.2174 106.013 39.4548C105.961 39.6921 105.954 40.1705 105.984 40.4561C106.01 40.7268 106.176 41.4722 106.191 41.7133C106.206 42.0322 106.173 41.8765 106.184 42.3103C106.188 42.5217 106.288 43.0446 106.362 43.3302C106.44 43.6157 106.607 43.6046 106.658 43.8049C106.714 44.0126 106.773 44.1943 106.848 44.3129C106.94 44.4687 107.307 44.554 107.259 44.6467C107.204 44.7543 107.048 44.9694 106.925 44.9842C106.684 45.0101 106.247 44.5132 106.158 44.2944C106.002 43.905 105.895 42.5106 105.813 42.0025C105.672 41.1459 105.524 40.7713 105.42 39.8219C105.312 38.8355 105.075 36.2618 105.082 35.7166C105.086 35.3569 104.849 35.2382 104.719 35.2308C104.563 35.2234 104.363 35.3903 104.348 35.5609C104.337 35.7685 104.382 36.2581 104.163 36.3471C103.981 36.4175 102.706 36.0615 101.715 35.4088C100.095 34.3408 99.5165 31.6855 99.2495 31.1774C98.8861 30.4876 98.875 29.0524 98.9492 28.7743C99.027 28.4887 99.1346 28.1661 99.409 28.0845" clip-rule="evenodd"/></svg>