<svg width="40" height="40" viewBox="0 0 40 40" fill="none" xmlns="http://www.w3.org/2000/svg">
<g clip-path="url(#clip0_11_410)">
<path fill-rule="evenodd" clip-rule="evenodd" d="M22.338 23.8509H15.1701C15.1701 23.8509 14.9513 23.825 14.8438 23.6359C14.7363 23.4505 14.7659 23.3503 14.7659 23.3503V16.6719C14.7659 16.6719 14.7548 16.4346 14.8846 16.2937C15.007 16.1565 15.2332 16.1528 15.2332 16.1528H24.6741C24.6741 16.1528 24.8262 16.1305 25.0005 16.2269C25.1488 16.3085 25.2341 16.62 25.2341 16.62V23.4727C25.2341 23.4727 25.1488 23.6618 25.0709 23.7286C24.993 23.7953 24.841 23.8435 24.841 23.8435H22.3417L22.338 23.8509ZM22.2824 11.855V4.46463C29.873 5.56967 35.6985 12.1035 35.6985 19.9981C35.6985 27.8928 29.8841 34.434 22.2972 35.5391L22.2824 28.1005H25.2304C27.6889 28.1005 29.4948 26.2575 29.4948 23.7953V16.0972C29.4948 13.6386 27.5368 11.8476 25.0783 11.8476H22.2824V11.855ZM10.4199 16.1046C10.4199 13.6461 11.9106 11.8402 14.3729 11.8402L17.6435 11.8291V4.48317C10.0899 5.61787 4.30147 12.1294 4.30147 19.9981C4.30147 27.8669 10.0899 34.3895 17.6435 35.528L17.6323 28.1561H14.8957C12.4372 28.1561 10.4237 26.2612 10.4237 23.8027V16.1046H10.4199ZM0 19.9981C0 8.95152 8.95152 0 20.0019 0C31.0522 0 40 8.95152 40 19.9981C40 31.0448 31.0448 39.9963 20.0019 39.9963C8.95893 39.9963 0 31.0448 0 19.9981Z" fill="#B30738"/>
</g>
<defs>
<clipPath id="clip0_11_410">
<rect width="40" height="40" fill="white"/>
</clipPath>
</defs>
</svg>
