<svg width="141" height="40" viewBox="0 0 141 40" fill="none" xmlns="http://www.w3.org/2000/svg">
<g clip-path="url(#clip0_8_1246)">
<path fill-rule="evenodd" clip-rule="evenodd" d="M22.338 23.8531H15.1701C15.1701 23.8531 14.9513 23.8272 14.8438 23.6381C14.7363 23.4526 14.7659 23.3525 14.7659 23.3525V16.6735C14.7659 16.6735 14.7548 16.4361 14.8846 16.2952C15.007 16.158 15.2332 16.1543 15.2332 16.1543H24.6741C24.6741 16.1543 24.8262 16.132 25.0005 16.2284C25.1488 16.31 25.2341 16.6215 25.2341 16.6215V23.4749C25.2341 23.4749 25.1488 23.664 25.0709 23.7308C24.993 23.7975 24.841 23.8457 24.841 23.8457H22.3417L22.338 23.8531ZM22.2824 11.8561V4.46505C29.873 5.57018 35.6985 12.1046 35.6985 20C35.6985 27.8954 29.8841 34.4372 22.2972 35.5424L22.2824 28.1031H25.2304C27.6889 28.1031 29.4948 26.26 29.4948 23.7975V16.0986C29.4948 13.6399 27.5368 11.8487 25.0783 11.8487H22.2824V11.8561ZM10.4199 16.1061C10.4199 13.6473 11.9106 11.8413 14.3729 11.8413L17.6435 11.8301V4.48359C10.0899 5.61839 4.30147 12.1305 4.30147 20C4.30147 27.8695 10.0899 34.3927 17.6435 35.5312L17.6323 28.1587H14.8957C12.4372 28.1587 10.4237 26.2637 10.4237 23.8049V16.1061H10.4199ZM0 20C0 8.95234 8.95152 0 20.0019 0C31.0522 0 40 8.95234 40 20C40 31.0477 31.0448 40 20.0019 40C8.95893 40 0 31.0477 0 20Z" fill="#B30738"/>
<path fill-rule="evenodd" clip-rule="evenodd" d="M133.43 38.9329L133.518 38.7199C133.577 38.6529 133.928 38.5582 134.072 38.3688C134.208 38.1795 137.123 31.1262 137.123 31.1262L137.303 31.0789L139.978 37.6509C140.155 38.0848 140.277 38.3767 140.38 38.4832C140.487 38.5858 140.757 38.7081 140.937 38.7239C141.044 38.7318 140.982 38.8974 140.982 38.8974H138.041C138.041 38.8974 137.846 38.7357 138.041 38.6529C138.159 38.6016 138.635 38.4477 138.709 38.1282C138.742 37.9862 138.68 37.6509 138.543 37.2643C138.451 36.9961 138.181 36.4004 138.034 36.2899C137.901 36.1913 137.348 36.2426 136.839 36.2268C136.377 36.211 135.761 36.1953 135.566 36.3057C135.322 36.4438 135.057 37.5286 134.998 37.6982C134.942 37.86 134.998 38.2426 135.13 38.3531C135.355 38.5385 135.802 38.6884 135.968 38.7396L136.012 38.929L133.43 38.9369V38.9329ZM137.883 35.7101C137.96 35.6075 137.68 35.0197 137.418 34.4004C137.226 33.9389 136.894 33.0394 136.791 33.075C136.717 33.0986 136.447 33.8087 136.237 34.3215C136.012 34.8738 135.739 35.5641 135.846 35.6785C135.909 35.7495 136.414 35.7929 136.835 35.7771C137.314 35.7613 137.813 35.8126 137.879 35.714L137.883 35.7101ZM56.0299 37.2564C56.1848 36.4359 56.0151 35.8955 55.5687 35.497C55.3547 35.3077 54.7865 35.0197 54.3254 35.0197C53.6908 35.0197 53.2702 34.9566 53.2702 35.714L53.2776 37.5641C53.2776 38.6016 54.4877 38.4911 54.4877 38.4911C55.4765 38.4911 55.9081 37.8836 56.0299 37.2604V37.2564ZM75.1557 38.6292C75.1557 38.6292 75.5283 38.5306 75.6943 38.2623C75.7829 38.1203 75.8898 37.9231 75.8898 37.43V32.5385C75.8898 32.2347 75.8013 31.9428 75.6796 31.8166C75.5615 31.6943 75.377 31.5641 74.9638 31.5286C74.9638 31.5286 74.6465 31.3195 74.9638 31.2249L77.7272 31.217C77.7272 31.217 77.9817 31.3037 77.7604 31.43C77.5611 31.5444 77.384 31.4615 77.2217 31.6548C77.111 31.789 77.0446 32.0493 77.0409 32.4675V34.8856C77.0409 34.9803 77.1295 35.1223 77.159 35.1262C77.3066 35.142 77.3988 34.9448 77.4726 34.9014C77.7714 34.6292 78.2326 34.0966 78.6532 33.6706C79.4058 32.9053 79.7858 32.5108 79.9113 32.3254C80.0773 32.0888 80.1068 31.7495 80.0183 31.6391C79.9113 31.5128 79.6899 31.5128 79.4944 31.4458C79.4944 31.4458 79.3136 31.3195 79.5239 31.2406H81.9921C81.9921 31.2406 82.0806 31.4813 81.9478 31.5444C81.6084 31.5799 81.4793 31.6548 81.2764 31.7692C81.0808 31.8797 80.6713 32.1834 80.3208 32.5542C80.3208 32.5542 78.5167 34.215 78.5868 34.4122C78.6901 34.716 79.7342 36.0178 80.4389 37.0631C80.7451 37.5128 81.0439 38.073 81.2173 38.215C81.3833 38.3452 81.649 38.6134 81.874 38.6134C82.136 38.6134 82.0105 38.8698 82.0105 38.8698C82.0105 38.8698 80.6049 38.8146 80.3651 38.8383C80.1991 38.854 80.0035 38.5345 80.0035 38.5345C79.4538 37.7692 77.8821 35.4181 77.7641 35.2722C77.7013 35.2249 77.0594 35.7377 77.0446 36.1677V37.5917C77.0446 38.0178 77.1369 38.2347 77.2549 38.3609C77.4505 38.5661 77.9411 38.6331 77.9411 38.6174C78.1699 38.6805 78.0186 38.8422 78.0186 38.8422H75.045C75.045 38.8422 74.9417 38.6805 75.163 38.6331L75.1557 38.6292ZM65.9359 38.6292C66.1388 38.5464 66.5077 38.2978 66.6479 38.1322C66.7844 37.9625 66.8841 37.8126 66.8841 37.2051C66.8841 37.2051 66.8545 33.497 66.8545 32.9527C66.8545 32.503 66.707 31.9112 66.5114 31.7535C66.3159 31.5917 66.0834 31.4931 65.8363 31.4813C65.8363 31.4813 65.6444 31.2564 65.851 31.2091H67.7215L72.1488 36.4398C72.1488 36.4398 72.3222 36.6686 72.4181 36.6174L72.4587 36.3609C72.4772 35.9625 72.4624 32.8856 72.4624 32.8856C72.4624 32.5542 72.5214 32.1874 72.3111 31.931C72.0418 31.6036 71.5105 31.5444 71.3556 31.4852C71.2338 31.4379 71.2338 31.2919 71.3703 31.2446H73.7316C73.8976 31.2604 73.7795 31.4379 73.7795 31.4379C73.5102 31.5168 73.2482 31.5799 73.1228 31.7574C72.9715 31.9665 72.8941 32.2781 72.8941 32.8895V38.9803H72.6985C72.6985 38.9803 67.8359 33.3314 67.5444 33.0197C67.4116 32.8777 67.3637 33.0671 67.3637 33.2604C67.3637 33.4536 67.3526 37.146 67.3526 37.146C67.3526 37.7811 67.4707 38.1677 67.8507 38.3807C67.9982 38.4635 68.3783 38.5661 68.548 38.6016C68.6217 38.6174 68.6586 38.8462 68.6586 38.8462H65.9359C65.9359 38.8462 65.8658 38.6647 65.9359 38.6371V38.6292ZM57.8709 38.858L57.9594 38.641C58.0221 38.5779 58.3726 38.4793 58.5128 38.2899C58.6493 38.0966 61.564 31.0473 61.564 31.0473L61.7447 31L64.4232 37.572C64.6003 38.002 64.7184 38.2978 64.8254 38.4043C64.9324 38.5069 65.198 38.6292 65.3788 38.645C65.4858 38.6529 65.4267 38.8225 65.4267 38.8225L62.4494 38.9014C62.4494 38.9014 62.3461 38.7278 62.5416 38.6489C62.6634 38.5976 63.0803 38.3767 63.1541 38.0572C63.1873 37.9152 63.1246 37.5799 62.9881 37.1933C62.8958 36.9211 62.6302 36.3294 62.4826 36.2189C62.3498 36.1164 61.7927 36.1716 61.2872 36.1558C60.8224 36.14 60.2099 36.1243 60.0181 36.2347C59.7746 36.3728 59.5053 37.4576 59.4499 37.6233C59.3983 37.789 59.4499 38.1677 59.5827 38.2781C59.8078 38.4675 60.2579 38.6134 60.4202 38.6607L60.4645 38.854L57.8783 38.8619L57.8709 38.858ZM62.324 35.6351C62.3978 35.5286 62.121 34.9448 61.8628 34.3254C61.6673 33.8639 61.3389 32.9645 61.2319 32.9961C61.1581 33.0237 60.8888 33.7298 60.6785 34.2426C60.4534 34.7988 60.1804 35.4892 60.2911 35.6035C60.3575 35.6706 60.8593 35.714 61.2799 35.7022C61.7595 35.6824 62.2612 35.7337 62.3277 35.6351H62.324ZM55.672 33.1933C55.6794 32.6805 55.3953 32.2032 55.0854 31.927C54.9083 31.7653 54.5652 31.5759 54.1741 31.5759C53.6355 31.5759 53.2813 31.6548 53.2813 32.1992V34.2268C53.2333 34.7081 54.3069 34.5858 54.3069 34.5858C55.2071 34.5858 55.6572 34.4517 55.672 33.1933ZM51.1377 38.6213C51.4956 38.5148 51.7612 38.4201 51.8719 38.2742C51.99 38.1164 52.0306 38.0138 52.0379 37.5799V32.4556C52.0379 32.1479 51.9605 31.9744 51.7944 31.7811C51.4735 31.4063 51.0898 31.6509 51.0344 31.5089C50.9902 31.4024 51.0012 31.2091 51.0012 31.2091H54.0191C54.8825 31.2091 55.4543 31.2485 55.9671 31.5247C56.3582 31.7337 56.8194 32.2268 56.8194 32.9724C56.8194 34.002 56.0409 34.3688 55.7273 34.6095C56.325 34.787 57.3101 35.1538 57.3101 36.3531C57.3101 37.5523 56.6681 38.3846 56.0557 38.5897C55.6351 38.7357 55.1112 38.8185 54.5098 38.8225H51.134V38.6134L51.1377 38.6213ZM94.4917 38.6884C94.4917 38.712 94.8644 38.5621 95.0304 38.4162C95.1485 38.3136 95.2407 38.1006 95.2407 37.5996L95.2555 32.7554C95.2555 32.3531 95.2075 32.1637 95.0747 31.9389C94.9382 31.7179 94.6098 31.6667 94.2224 31.6035C94.2224 31.6035 93.9383 31.3787 94.1376 31.288C94.1154 31.288 96.2368 31.2998 97.2588 31.3156C98.3066 31.3353 99.3507 31.2249 99.4577 31.2998C99.5942 31.3984 99.5204 32.4714 99.5462 32.6765C99.561 32.787 99.4798 33.0158 99.3802 33.0276C99.2621 33.0434 99.2326 32.8146 99.2326 32.6765C99.2326 32.3886 99.0039 32.0572 98.9485 31.9744C98.8046 31.7692 98.5279 31.7298 98.3951 31.7298H96.7865C96.6427 31.7298 96.6021 31.7298 96.5541 31.7811C96.5172 31.8323 96.4545 31.9586 96.4508 32.1164V34.2426C96.4508 34.3728 96.4545 34.5542 96.5246 34.5779C96.6906 34.641 97.7642 34.6252 97.7642 34.6252C97.945 34.6252 98.1553 34.432 98.2143 34.3215C98.3066 34.1479 98.4615 33.9428 98.5427 33.6824C98.587 33.5404 98.8268 33.426 98.8268 33.7456C98.8268 33.9467 98.86 36.2426 98.86 36.2426C98.7382 36.4201 98.6349 36.1953 98.6349 36.1953C98.5538 35.7495 98.48 35.5878 98.3508 35.4458C98.2254 35.2998 98.0373 35.1262 97.7679 35.1262L96.8419 35.1144C96.4988 35.0789 96.484 35.4813 96.4693 35.6233L96.4545 37.6706C96.4693 37.8757 96.5135 38.1558 96.6353 38.2781C96.757 38.3925 97.0632 38.6252 97.4728 38.6607C97.6683 38.6765 97.5355 38.9132 97.5355 38.9132H94.4253C94.4253 38.9132 94.2741 38.8067 94.4991 38.6923L94.4917 38.6884ZM87.0429 32.1479C87.707 31.4694 88.6625 31.1775 89.6291 31.1736C90.5958 31.1736 91.4 31.3353 92.0641 32.0217C92.7799 32.7554 93.1525 33.6667 93.1562 34.9014C93.1562 36.1479 92.7799 37.1657 92.0346 37.9073C91.3705 38.5621 90.4371 38.9566 89.4926 38.9606C88.4817 38.9606 87.5151 38.6686 86.8473 37.9389C86.1722 37.1972 85.925 36.2032 85.9213 35.0276C85.9213 33.8008 86.3198 32.8974 87.0429 32.1519V32.1479ZM87.9689 37.7101C88.5629 38.432 88.9724 38.5897 89.7915 38.5897C90.3596 38.5897 90.9352 38.2308 91.3779 37.6627C91.7505 37.1815 91.9313 36.3333 91.9313 35.0868C91.9313 33.8402 91.6066 32.9961 91.1676 32.4162C90.6585 31.7456 90.1087 31.5917 89.4779 31.5838C88.8359 31.5838 88.194 31.7574 87.7734 32.2702C87.3159 32.8264 87.1093 33.7219 87.1019 34.9408C87.1019 36.1479 87.6405 37.3077 87.9689 37.7061V37.7101ZM125.49 38.6213C125.49 38.6213 125.97 38.4596 126.147 38.1755C126.257 37.9941 126.331 37.8245 126.331 37.217L126.268 32.4359C126.239 32.069 125.981 31.8087 125.866 31.7495C125.719 31.6706 125.472 31.6903 125.342 31.572C125.342 31.572 125.044 31.3353 125.298 31.284C125.28 31.2919 127.106 31.2209 127.132 31.2919C127.331 31.43 130.19 34.8185 131.371 36.2742C131.758 36.7673 131.91 36.6884 131.895 36.211L131.91 32.6292C131.91 32.1164 131.67 31.9389 131.566 31.86C131.349 31.6943 131.146 31.572 130.788 31.5049C130.788 31.5049 130.489 31.3984 130.788 31.2919H133.138C133.304 31.284 133.304 31.43 133.138 31.4773C132.928 31.4773 132.677 31.6588 132.54 31.8284C132.404 31.998 132.338 32.3807 132.338 32.9842L132.33 38.8304C132.315 39.1026 132.076 38.9606 132.076 38.9606C132.076 38.9606 127.619 33.7613 127.091 33.1262C127.084 33.1183 127.01 32.9606 126.881 33.0631C126.8 33.1262 126.789 33.1538 126.8 33.2998L126.814 37.217C126.814 37.8481 127.017 38.1913 127.191 38.3846C127.301 38.5108 127.486 38.6134 127.881 38.6568C128.121 38.641 128.076 38.9093 128.076 38.9093H125.339C125.339 38.9093 125.291 38.6884 125.501 38.6252L125.49 38.6213ZM121.332 38.7002C121.439 38.6686 121.664 38.5385 121.797 38.428C121.922 38.3215 121.992 38.1085 121.996 37.6588L122.018 32.7199C122.004 32.4004 122.004 32.0178 121.856 31.856C121.638 31.6233 121.395 31.5247 120.948 31.501C120.948 31.501 120.76 31.3945 120.948 31.288H123.918C124.158 31.3314 123.889 31.501 123.889 31.501C123.653 31.501 123.461 31.6391 123.369 31.7574C123.232 31.931 123.239 32.2899 123.217 32.5582V37.6548C123.217 38.1006 123.358 38.3609 123.487 38.4714C123.612 38.574 123.763 38.6568 124.206 38.6963C124.49 38.7436 124.206 38.9014 124.206 38.9014H121.336C121.111 38.8225 121.336 38.6923 121.336 38.6923L121.332 38.7002ZM112.002 38.6686C111.983 38.6686 112.448 38.3452 112.555 38.2189C112.662 38.1006 112.751 37.9034 112.751 37.4024L112.78 32.6371C112.78 32.2268 112.703 31.9941 112.614 31.8363C112.511 31.643 112.267 31.6154 111.865 31.5799C111.865 31.5799 111.297 31.4339 111.821 31.2919H114.617C114.92 31.3077 114.665 31.497 114.665 31.497C114.44 31.497 114.259 31.5799 114.149 31.7258C114.049 31.8639 113.95 32.1085 113.972 32.5306V34.215C113.972 34.215 113.95 34.6134 114.278 34.5976C114.758 34.574 116.905 34.641 117.237 34.6134C117.628 34.5819 117.702 34.3254 117.702 34.1361C117.716 33.6548 117.702 32.5779 117.702 32.5779C117.702 32.1677 117.598 31.8521 117.484 31.7258C117.366 31.6035 117.111 31.5286 116.709 31.497C116.429 31.4536 116.624 31.284 116.624 31.284H119.602C119.602 31.284 119.753 31.4694 119.513 31.501C119.273 31.4852 119.177 31.6035 119.056 31.7298C118.938 31.8521 118.882 32.1203 118.882 32.5345V37.6114C118.886 38.0296 118.963 38.1598 119.082 38.286C119.196 38.3965 119.325 38.5897 119.723 38.6371C119.934 38.6686 120.022 38.8895 119.783 38.9093L117.06 38.9763C117.06 38.9763 116.702 38.7988 117.104 38.6568C117.104 38.6726 117.418 38.5464 117.539 38.3373C117.617 38.1992 117.676 37.8284 117.676 37.568C117.676 37.568 117.691 35.7929 117.691 35.5207C117.691 35.3314 117.632 35.0749 117.392 35.1223C117.392 35.1223 114.473 35.1144 114.237 35.0907C114.071 35.075 113.968 35.1696 113.968 35.5049V37.5207C113.968 37.9349 114.178 38.2781 114.296 38.4004C114.411 38.5187 114.628 38.6331 115.031 38.6726C115.374 38.7199 115.119 38.9132 115.119 38.9132H111.939C111.939 38.9132 111.754 38.7396 112.013 38.6726L112.002 38.6686ZM109.024 31.5049C109.404 31.7179 109.71 31.8876 109.876 31.8718C109.98 31.86 110.065 31.6391 110.098 31.5049C110.264 31.2643 110.323 31.6982 110.323 31.6824L110.456 33.8402C110.456 33.8402 110.323 34.0493 110.186 33.8402C110.046 33.3274 109.67 32.7673 109.408 32.4635C109.021 32.0178 108.316 31.568 107.567 31.5523C106.715 31.5365 106.124 31.9112 105.682 32.4951C105.309 32.9882 105.084 33.8245 105.084 34.6884C105.084 35.7101 105.49 36.8935 106.058 37.4694C106.608 38.0256 107.198 38.3097 107.973 38.3176C108.53 38.3176 108.843 38.1558 109.319 37.8678C109.589 37.7101 109.95 37.288 110.275 36.9566C110.467 36.7791 110.574 37.0197 110.574 37.0197C110.603 37.1933 109.987 37.8836 109.482 38.3136C109.105 38.6331 108.135 39 107.641 39C106.486 39 105.818 38.9369 104.8 37.9586C104.224 37.4063 103.903 36.2663 103.896 35.1696C103.896 34.0493 104.228 33.1105 104.888 32.3452C105.582 31.5483 106.486 31.1499 107.615 31.1499C108.002 31.1499 108.644 31.2919 109.017 31.501" fill="#231F20"/>
<path fill-rule="evenodd" clip-rule="evenodd" d="M78.989 10.0216C79.0331 9.93342 79.0477 10.095 79.268 10.3375C79.4882 10.5762 79.3524 10.6497 79.4845 10.8444C79.6167 11.0427 79.6167 10.9362 79.5836 11.1603C79.5543 11.3807 79.5066 11.3366 79.312 11.4982C79.1175 11.6562 79.2827 11.5864 79.0881 11.3917C78.8973 11.197 79.0661 10.9142 78.8752 10.7489C78.6844 10.5836 78.6697 10.5836 78.7137 10.3154C78.7614 10.0473 78.9376 10.1097 78.9853 10.0216H78.989ZM78.2366 10.7562C78.3283 10.6975 78.4861 10.9656 78.6036 11.2521C78.7174 11.5349 78.7174 11.4762 78.8165 11.7884C78.9193 12.1043 78.8899 11.9537 78.633 12.2476C78.376 12.5451 78.0347 12.5084 77.6896 12.8169C77.3446 13.1255 77.1941 13.0336 76.8821 13.254C76.5701 13.4744 76.6142 13.4009 76.3462 13.2944C76.082 13.1879 76.0966 13.1108 76.2765 12.8904C76.4563 12.67 76.427 12.7912 76.5591 12.67C76.6949 12.5524 76.3976 12.5341 76.5444 12.4165C76.6949 12.299 76.6766 12.4643 76.9188 12.1998C77.1611 11.9353 77.0877 11.8876 77.1794 11.726C77.2712 11.5643 77.374 11.3733 77.6309 11.2558C77.8842 11.1419 78.1411 10.815 78.2292 10.7599L78.2366 10.7562ZM80.1893 4.41992C80.2774 4.37952 80.4719 4.37952 80.6775 4.41257C80.7986 4.43094 80.5857 4.37952 81.1106 4.35748C81.3785 4.34646 81.5253 4.48237 81.7603 4.61828C82.3145 4.94152 82.7036 5.05172 82.821 5.22803C82.9238 5.37496 83.0009 5.66514 82.9605 5.88186C82.9275 6.05818 82.9091 6.39979 82.6852 6.59079C82.4907 6.75609 82.3769 6.90669 82.2815 7.0022C82.1897 7.09035 82.2227 7.3585 82.0686 7.4136C81.874 7.48706 81.7272 7.35115 81.4923 7.34748C81.239 7.3438 81.0445 7.49073 80.9711 7.4136C80.916 7.3585 80.861 7.26667 80.7655 7.20422C80.6775 7.14178 80.5453 7.18586 80.527 7.08301C80.4976 6.91771 80.2921 6.4806 80.1342 6.32265C80.0755 6.2602 80.226 5.94798 80.1416 5.84513C80.0535 5.73861 80.0682 5.57699 80.0535 5.47414C80.0388 5.36394 80.0425 5.27578 80.0425 5.16191C80.0425 5.05906 79.9066 4.89377 79.9727 4.76153C80.0204 4.67337 80.0865 4.46767 80.1856 4.41992H80.1893ZM77.7851 6.29326C77.73 6.01043 78.0567 6.09124 78.354 5.92962C78.655 5.76799 78.5045 5.81207 78.5926 6.05083C78.6807 6.28959 78.5045 6.06552 78.4238 6.39244C78.3467 6.71936 78.3467 6.66059 78.1375 6.80384C77.9282 6.9471 77.9576 6.78547 77.8585 6.62018C77.7557 6.45489 77.8438 6.5761 77.7888 6.29326H77.7851ZM74.2173 4.49706C74.1586 4.35748 74.522 3.87628 75.4873 2.6678C76.3426 1.59522 78.1228 0.886283 78.8532 0.629158C79.011 0.57406 79.5249 0.423458 79.7048 0.386725C79.8406 0.35734 80.3801 0.3353 80.5086 0.291222C80.7619 0.206738 81.1877 0.236124 81.2684 0.195718C81.4519 0.107561 81.6501 0.0561357 81.863 0.0120571C82.1126 -0.039368 82.4283 0.0928679 82.6522 0.0524625C83.0853 -0.0283484 83.4304 0.221431 83.6726 0.349993C84.5132 0.79078 85.4308 2.34822 85.7758 3.2298C86.1209 4.11137 86.8329 6.58712 86.9577 8.61107C87.0385 9.91139 86.9871 13.3091 86.9394 13.827C86.8476 14.7527 86.8109 16.9309 86.7485 17.346C86.6714 17.8492 86.6127 18.7124 86.4292 19.0246C86.0952 19.5977 84.7261 20.6188 84.4324 20.887C84.1938 21.1074 83.1587 22.0073 83.0376 22C82.8871 21.9889 82.7146 21.6841 82.3916 21.3682C81.8153 20.8025 80.3104 20.2735 79.6754 19.9246C79.0551 19.5793 77.0106 19.392 75.7626 19.3112C74.8707 19.2561 73.5089 19.1348 73.4649 19.032C73.4171 18.9144 73.318 18.9549 73.1822 18.9512C73.0611 18.9512 73.0501 19.1018 73.0171 19.1569C72.9693 19.245 73.0758 19.2046 73.0281 19.4544C72.9804 19.7079 73.1015 19.5426 73.1272 19.7519C73.1565 19.9613 73.2446 19.8732 73.1676 20.0642C73.0905 20.2552 73.4759 20.3948 73.5493 20.6041C73.6337 20.8502 73.63 21.1698 73.3658 21.1808C73.0758 21.1955 72.8262 21.3094 72.5179 21.1992C72.294 21.1221 71.5305 20.4278 71.4938 19.998C71.4608 19.6307 71.4094 18.7785 71.38 18.5104C71.3249 18.0366 71.1488 16.784 71.0974 16.1595C71.0423 15.5351 70.9836 15.6673 71.1047 15.4139C71.2258 15.1641 70.9138 15.1237 71.024 14.7894C71.101 14.5507 71.0019 14.0952 71.1414 13.7977C71.2038 13.6617 71.0423 13.6617 71.057 13.5258C71.0754 13.3458 71.09 13.2283 71.1378 13.052C71.1745 12.9161 71.1561 12.7545 71.1451 12.501C71.1341 12.2476 71.1341 12.1447 71.2405 11.9684C71.3066 11.8582 71.1818 11.8031 71.2001 11.5827C71.2112 11.4541 71.3653 10.2897 71.4277 9.84527C71.4938 9.40448 71.5929 8.2217 71.6737 8.06376C71.9012 7.63399 72.0334 6.67161 72.1251 6.33C72.2242 5.97002 72.5399 5.64678 72.6133 5.36761C72.6463 5.25007 72.8372 5.14722 72.9143 5.19497C73.0171 5.25742 73.0611 5.56964 73.0574 5.68718C73.0574 5.8635 72.94 6.61283 72.8666 6.77078C72.7748 6.96179 72.6757 7.6597 72.661 7.76622C72.6317 7.94989 72.6243 8.16661 72.6096 8.29884C72.5913 8.43475 72.5032 8.61106 72.4555 8.75799C72.4188 8.87921 72.4848 9.12532 72.4481 9.25021C72.4041 9.4155 72.4151 9.51835 72.338 9.65059C72.2646 9.77915 72.3784 9.90404 72.3343 10.0069C72.2756 10.1355 72.3894 10.2603 72.3013 10.4073C72.2059 10.5615 72.3637 10.5946 72.3123 10.793C72.2499 11.0317 72.2609 11.2227 72.2022 11.3403C72.1435 11.4578 72.3123 11.6158 72.2536 11.8325C72.1765 12.13 72.2279 13.8123 72.1839 14.1503C72.1361 14.4919 72.1508 15.5608 72.1912 15.7555C72.2206 15.8914 72.2316 16.1559 72.349 16.1412C72.4958 16.1265 72.5215 15.6453 72.6647 15.671C72.7565 15.6857 72.6941 15.9612 72.7197 16.1448C72.7601 16.4901 72.7344 16.1963 72.8152 16.8023C72.8702 17.2064 72.8005 17.8713 72.8592 18.0843C72.9143 18.2937 72.8849 18.4847 73.1088 18.4884C73.2997 18.4884 73.23 18.3414 73.3804 18.1504C73.5309 17.9557 73.5383 17.93 73.6631 18.0182C73.7659 18.0953 74.4963 18.088 74.7312 18.0476C75.0395 17.9925 75.2524 17.739 75.4653 17.5811C75.7186 17.3901 76.7096 16.4534 77.2088 16.0273C77.4327 15.8363 78.053 15.1016 78.2916 14.8666C78.6917 14.4772 79.3047 13.8344 79.4038 13.7205C79.4809 13.6324 79.5102 13.5111 79.4258 13.3495C79.3744 13.2503 79.2937 13.2283 79.1872 13.2871C78.9303 13.4303 78.6036 13.8601 78.3467 14.0217C77.8989 14.3046 77.3373 14.6829 77.029 14.8666C76.6876 15.0686 76.1921 15.3 75.8764 15.4763C75.4726 15.7041 75.0175 15.851 74.9478 15.8804C74.7973 15.9538 74.7459 15.9979 74.6064 15.8914C74.4889 15.8032 74.5257 15.8547 74.6394 15.4763C74.7165 15.2229 74.5183 14.951 74.8009 14.5874C74.9808 14.3523 75.1533 13.7462 75.4396 13.3899C75.5424 13.2614 76.0966 12.5708 76.2104 12.3871C76.3022 12.2402 76.4857 12.1594 76.5114 12.1116C76.6032 11.9317 76.717 11.7113 76.772 11.6819C76.9592 11.5827 77.1464 11.3035 77.1758 11.2705C77.2382 11.2007 77.2602 11.1529 77.2235 11.0354C77.2088 10.9876 77.1134 10.8223 76.9996 10.9583C76.8821 11.1052 76.6582 11.1456 76.5665 11.2044C76.3976 11.3109 76.4417 11.5166 76.2802 11.5276C76.0379 11.546 76.0636 11.1529 76.093 11.0207C76.1297 10.8664 76.0049 10.826 76.082 10.6607C76.2581 10.2861 76.2068 10.2456 76.2508 10.1759C76.2948 10.0987 76.3389 10.1575 76.4307 10.0436C76.4931 9.97016 76.3756 9.86363 76.449 9.77548C76.6032 9.59549 76.6472 9.38612 76.7977 9.28694C76.9629 9.18776 77.2492 8.80207 77.2785 8.69922C77.3152 8.57066 77.3263 8.4421 77.374 8.31353C77.3887 8.26946 77.2198 8.24742 77.1537 8.16293C77.0803 8.0711 77.1427 8.01233 77.1721 7.85071C77.1868 7.76255 77.0106 7.65603 77.0143 7.53481C77.0143 7.3989 76.9996 7.34013 76.8381 7.35482C76.6729 7.36584 76.3169 7.73684 76.0306 7.79194C75.7296 7.84704 75.4947 7.63766 75.6488 7.34013C75.836 6.97281 76.2838 6.44019 76.3719 6.33734C76.5077 6.18674 76.4784 6.04348 76.4674 5.89288C76.4527 5.74228 76.3169 5.40067 76.2691 5.0407C76.2435 4.83132 76.0159 4.05995 75.9718 3.96812C75.9425 3.90934 75.8764 3.72568 76.0489 3.65589C76.126 3.62651 76.2728 3.7918 76.3719 3.9424C76.5261 4.17014 76.7647 4.58522 76.8381 4.73582C76.9298 4.91948 77.0143 5.11049 77.0546 5.25742C77.084 5.36394 77.1537 5.55862 77.3042 5.57331C77.4511 5.58801 77.5428 5.57331 77.6309 5.48883C77.7814 5.33823 78.5742 5.02968 78.9156 4.90846C79.0808 4.85336 79.1689 4.8203 79.3451 4.9305C79.4442 4.98927 79.5653 5.33455 79.624 5.36394C79.7451 5.42638 79.8039 5.41169 79.7708 5.49985C79.7488 5.55862 79.7708 5.52923 79.6203 5.70555C79.4699 5.88186 79.602 5.94431 79.4515 6.17939C79.2973 6.41448 79.1762 6.73772 79.1138 6.88465C79.0551 7.02791 78.9193 7.09035 78.8128 7.19688C78.6917 7.31442 78.7357 7.47604 78.677 7.50543C78.4898 7.59726 78.4935 7.56787 78.4348 7.69643C78.376 7.82867 78.343 8.03437 78.4862 8.30619C78.5596 8.43842 78.6917 8.47148 78.7174 8.57433C78.7725 8.77269 78.9083 8.76901 78.9817 8.87554C79.1065 9.05553 79.0844 9.04451 79.1542 9.16205C79.2863 9.37142 79.2716 9.28326 79.4368 9.40081C79.5396 9.47795 79.624 9.7167 79.7415 9.83792C79.936 10.0326 80.1819 10.1832 80.3581 10.3963C80.5013 10.5652 80.5049 10.6497 80.4866 10.7966C80.4572 11.0464 80.516 10.9032 80.4242 11.0795C80.3581 11.2117 80.4242 11.3917 80.4168 11.4799C80.4168 11.6451 80.4169 11.7627 80.3104 11.9096C80.204 12.0565 79.903 12.4386 79.8406 12.5855C79.7892 12.7067 79.7488 12.8353 79.8075 12.8977C79.8883 12.9822 79.9544 13.0189 80.0571 12.9455C80.248 12.8132 80.8133 11.8839 81.2941 11.2668C81.551 10.9362 82.0833 10.0583 82.2044 9.82323C82.3292 9.5808 82.7036 9.12532 82.777 9.02614C82.821 8.96737 82.9569 8.97104 82.9826 9.07389C83.0082 9.16572 82.9642 9.26857 82.9936 9.32734C83.0339 9.40815 83.1404 9.3604 83.1551 9.49264C83.1661 9.62855 83.1808 9.68732 83.1367 9.76078C83.1037 9.81956 83.2211 9.84894 83.1477 9.97016C83.0853 10.073 83.1587 10.2824 82.9936 10.4734C82.7586 10.7452 82.175 11.5203 81.9364 11.8288C81.6061 12.2549 80.6407 13.4046 80.4903 13.5369C80.4095 13.6066 80.3104 13.7646 80.3545 13.8638C80.4242 14.0291 80.7031 14.4919 80.8647 14.6278C81.0739 14.8041 81.5107 15.0649 81.7052 15.0686C81.9328 15.0686 82.0833 15.0025 82.1677 14.94C82.5274 14.6609 82.8137 14.0548 82.9385 13.7609C83.111 13.3495 83.3863 12.5047 83.401 12.3724C83.4267 12.1631 83.3313 11.939 83.3496 11.8619C83.3716 11.77 83.5001 11.7921 83.5258 11.8802C83.5625 12.0014 83.5955 12.2218 83.6249 12.3724C83.6726 12.6186 83.2982 13.8858 83.2285 14.3156C83.1477 14.8335 82.5201 15.7224 82.4687 15.8547C82.4356 15.9281 82.4503 16.0457 82.3035 16.0567C82.131 16.0751 82.0686 16.0236 81.9621 15.9942C81.5767 15.884 81.2537 15.6122 81.0041 15.3845C80.7545 15.1604 80.1673 14.4368 80.0938 14.3193C80.0425 14.2311 79.8479 14.0952 79.7562 14.1686C79.591 14.3009 79.3487 14.6682 79.2276 14.7564C79.1358 14.8225 78.9523 14.8959 78.8532 15.0025C78.7027 15.1641 78.5229 15.3698 78.343 15.5314C78.2072 15.6526 77.6346 16.0751 77.5318 16.1779C77.3666 16.3395 77.1721 16.604 77.051 16.6922C76.9298 16.7803 76.5261 17.0264 76.405 17.1623C76.2692 17.3093 76.0783 17.6105 75.9241 17.6766C75.8213 17.7207 75.6855 17.897 75.7883 17.9851C75.8911 18.077 76.2361 17.919 76.4563 17.8749C76.6325 17.8419 76.9042 17.8345 77.0987 17.8235C77.2161 17.8125 77.3263 17.6876 77.6016 17.6031C77.8438 17.5333 78.0053 17.6362 78.1081 17.6105C78.2366 17.5737 78.3173 17.5223 78.5265 17.4672C78.7578 17.4048 79.0771 17.4452 79.2092 17.3864C79.3047 17.3423 79.301 17.3129 79.4809 17.1954C79.5983 17.1182 79.7525 17.188 79.881 17.155C80.0461 17.1109 80.3434 17.0264 80.6554 16.9125C80.9014 16.8207 81.7015 16.6297 81.819 16.615C81.9328 16.604 82.1016 16.3505 82.2962 16.2808C82.5421 16.1889 83.0119 16.2734 83.2028 16.1559C83.3166 16.0861 83.5808 16.2367 83.702 16.4607C83.8635 16.7436 83.68 16.8905 83.6359 17.0521C83.5184 17.4635 83.4047 17.6435 83.2689 17.7904C83.133 17.9374 83.0853 18.2055 82.8614 18.2643C82.6045 18.3267 82.4723 18.3635 82.1934 18.2386C81.6905 18.0108 81.4189 18.2276 81.1253 18.1651C80.6848 18.0696 80.5123 18.29 80.3067 18.2716C80.204 18.2643 79.8699 18.2092 79.7708 18.268C79.4809 18.4333 79.2496 18.3929 79.0551 18.4516C78.8936 18.4994 78.8312 18.6573 78.9193 18.7308C79.0734 18.863 79.5836 18.9916 80.0021 18.9659C80.6701 18.9291 81.1583 19.0687 81.4262 19.0871C81.8263 19.1128 82.1053 19.3332 82.2998 19.3369C82.5164 19.3369 82.6082 19.4434 82.8321 19.5058C82.9789 19.5462 83.1551 19.6013 83.3202 19.5866C83.5001 19.5756 83.6359 19.7079 83.7056 19.6822C83.9773 19.583 83.9773 19.605 84.1241 19.5683C84.2452 19.5426 84.4838 19.2303 84.649 19.1165C84.8582 18.9695 85.295 18.5581 85.3867 18.3084C85.4822 18.0512 85.5115 17.941 85.6033 17.6105C85.6841 17.335 85.5666 17.3129 85.673 16.8685C85.7685 16.4828 85.673 15.8583 85.7501 15.6196C85.7978 15.469 85.7832 15.3955 85.8272 15.2633C85.8896 15.0833 85.8272 14.951 85.8162 14.8776C85.8052 14.7858 85.941 14.5947 85.941 14.4772C85.941 14.3743 85.8272 14.2825 85.9043 14.0768C85.9997 13.816 85.9263 13.5405 85.9997 13.4524C86.0768 13.3642 85.9153 13.2136 85.9594 13.0814C86.0291 12.8793 86.0328 12.0529 85.9887 11.6268C85.9373 11.0905 86.0181 10.3632 86.0364 10.095C86.0438 9.95914 85.8602 9.85629 85.9226 9.73874C86.0071 9.57712 85.9153 9.32367 85.8859 9.1143C85.8492 8.83513 85.7611 8.32455 85.7501 8.01233C85.7318 7.47604 85.2326 4.3685 84.9132 3.57141C84.4691 2.45108 83.2762 1.27564 82.7917 1.0626C82.3292 0.856898 81.7236 0.886283 81.3382 0.878937C81.0408 0.878937 79.9837 1.04423 79.0441 1.34176C78.2109 1.60991 77.3189 2.02131 77.0253 2.19395C76.6803 2.39598 76.2912 2.86982 76.0342 3.13429C75.7589 3.42081 75.6855 3.76241 75.6085 3.91669C75.3956 4.34646 75.6085 4.88275 75.6562 5.02968C75.7259 5.28313 75.6635 5.46312 75.5607 5.50352C75.3295 5.59903 75.4286 5.60637 74.9955 5.6578C74.856 5.67616 74.5954 5.55127 74.5807 5.44475C74.5477 5.18762 74.3201 4.75786 74.2063 4.48971" fill="#231F20"/>
<path fill-rule="evenodd" clip-rule="evenodd" d="M140.851 10.1419C140.604 10.2805 139.849 11.1455 139.656 11.2316C139.47 11.3177 139.2 11.108 139.04 11.1342C138.61 11.2016 137.586 11.4563 136.864 11.5911C136.259 11.7034 135.253 12.0891 134.983 12.2351C134.79 12.3362 134.783 12.4785 134.892 12.5833C135.257 12.9353 135.563 13.1076 135.738 13.336C135.858 13.4932 135.676 13.5606 135.629 13.819C135.57 14.1336 135.373 15.6201 135.465 16.4252C135.548 17.1291 135.906 19.2448 136 19.8289C136.081 20.3456 136.153 21.0496 136.219 21.3155C136.31 21.6862 136.179 22.3452 136.044 22.4987C135.548 23.0491 134.772 23.858 134.564 23.9328C134.251 24.0452 133.839 24.0302 133.547 23.7831C133.168 23.461 133.026 22.8806 132.913 22.5773C132.716 22.0531 132.159 21.6562 131.762 21.3641C131.065 20.8474 129.538 20.0498 129.309 19.4844C129.276 19.4058 129.221 19.241 129.385 19.1811C129.691 19.0688 129.837 19.4619 130.045 19.6155C130.431 19.9075 130.763 19.9899 131.044 20.0835C131.481 20.2333 132.268 20.4318 132.454 20.4954C132.899 20.6489 133.128 20.7163 133.471 20.6003C133.701 20.5216 134.087 19.7727 134.105 19.4545C134.149 18.6831 133.978 17.7732 133.996 17.3912C134.05 16.3016 134.025 16.0994 134.138 15.2719C134.218 14.6653 134.061 14.2122 134.08 13.9388C134.101 13.6018 134.105 13.1038 134.196 12.8642C134.273 12.662 134.029 12.6732 133.857 12.7219C133.041 12.969 132.662 13.3584 131.958 13.6992C131.47 13.9351 130.592 14.4855 130.234 14.6166C129.987 14.7102 129.786 15.0659 129.64 14.9274C129.476 14.7701 129.243 14.815 129.101 14.5417C128.889 14.141 129.228 13.7703 129.498 13.6093C129.852 13.3921 130.176 13.5269 131.259 12.9803C132.341 12.4336 133.515 11.7071 134.389 11.3551C135.246 11.0069 137.575 10.2917 137.914 10.2168C138.253 10.1419 138.993 10.0708 139.109 10.0184C139.569 9.81242 139.98 9.81617 140.13 9.78996C140.334 9.74877 140.629 9.82366 140.808 9.84238C141.023 9.86485 141.085 10.0146 140.851 10.1457V10.1419ZM131.649 7.5283C131.962 7.36354 132.046 7.74547 132.148 7.74547C132.454 7.74922 132.735 7.78666 133.121 7.65186C133.416 7.54702 135.286 6.58469 135.92 6.42742C137.01 6.15782 138.526 5.71597 139.055 5.75341C139.233 5.76465 139.244 5.89196 139.066 5.9968C138.865 6.11288 138.81 6.40495 138.646 6.56596C138.541 6.67455 138.584 7.00407 138.493 7.12389C138.384 7.26993 138.224 7.34856 138.034 7.34856C137.735 7.34856 137.71 7.34856 137.52 7.34107C137.301 7.34107 136.864 7.62565 136.704 7.6631C136.645 7.67807 136.496 7.54702 136.35 7.50583C136.011 7.41222 134.728 7.93644 134.233 8.16111C133.715 8.39701 132.793 8.86507 132.33 9.36683C132.152 9.56155 131.966 9.92476 131.678 9.75251C131.412 9.59899 131.302 8.97366 131.233 8.70032C131.171 8.46441 131.2 7.75671 131.645 7.52455L131.649 7.5283ZM129.983 0.0505757C130.264 0.0992539 130.777 1.39484 131.065 1.97524C131.156 2.16246 131.218 2.46576 131.273 2.9488C131.302 3.17721 131.503 3.60408 131.452 4.11708C131.426 4.37545 131.499 4.83602 131.412 5.0532C131.35 5.20297 131.113 5.35275 131.113 5.56619C131.113 5.6935 130.916 5.97434 130.796 6.09042C130.606 6.27764 130.493 6.77191 130.369 6.93667C130.147 7.23623 129.578 7.22499 129.17 7.34482C128.871 7.43468 128.514 7.62565 128.204 7.85032C127.894 8.07499 127.333 8.27345 126.943 8.54679C126.644 8.75648 126.036 9.38555 125.857 9.53159C125.733 9.63269 125.522 9.80494 125.719 9.98467C125.923 10.1681 126.499 10.0708 127.279 10.4303C127.792 10.6662 128.244 10.9882 128.503 11.43C128.722 11.797 128.612 12.1153 128.376 12.2613C128.186 12.3811 128.055 12.7331 127.647 13.0851C127.439 13.2648 127.289 13.7217 126.958 14.0137C126.703 14.2384 125.788 15.2419 125.438 15.5115C125.245 15.6613 125.248 15.9084 125.565 16.0283C125.861 16.1368 126.768 16.7996 127.071 17.2452C127.388 17.717 127.53 18.7393 127.588 19.5705C127.628 20.1172 127.26 20.9448 127.107 21.5214C127.031 21.806 126.976 21.9296 126.615 21.8622C126.524 21.8472 126.36 21.6225 126.207 21.4615C125.988 21.2331 125.686 21.1395 125.536 20.971C125.361 20.7725 125.121 20.6564 124.997 20.4655C124.851 20.237 124.869 19.1848 124.946 18.7205C125.008 18.3274 125.07 18.0503 125.161 17.7545C125.237 17.5148 125.387 16.721 125.103 16.6611C124.939 16.6311 124.33 16.9719 124.006 17.1329C123.645 17.3126 123.233 17.5635 123.054 17.7732C122.854 18.0053 122.737 18.3274 122.704 18.5708C122.672 18.8067 122.511 18.9714 122.406 18.9152C122.187 18.7917 121.968 18.8965 121.815 18.9377C121.596 18.9939 121.447 18.7879 121.199 18.6868C120.773 18.5146 120.966 18.6456 120.598 18.3311C120.364 18.1327 119.847 17.3463 120.044 16.7959C120.149 16.4926 120.047 16.354 120.35 16.0694C121.075 15.3767 121.359 14.991 122.096 14.1673C122.486 13.7329 123.142 13.0289 123.546 12.6844C123.707 12.5459 123.856 12.2988 123.98 12.0067C124.057 11.827 124.483 11.4974 124.21 11.3102C123.914 11.1118 123.539 11.0893 123.324 11.1792C123.116 11.269 122.981 11.0219 122.737 10.8833C122.519 10.7598 122.274 10.9283 122.103 10.801C121.899 10.6474 121.797 10.5389 121.607 10.4003C121.429 10.273 121.097 10.0858 121.261 9.74502C121.381 9.4904 121.283 9.12344 121.549 8.91375C121.892 8.64789 122.132 8.37455 122.369 8.1686C122.832 7.7642 124.104 6.25143 124.957 5.24791C125.853 4.18822 127.504 1.67193 128.15 0.997928C128.284 0.855638 128.226 0.526124 128.911 0.159166C129.327 -0.0617585 129.655 -0.00559144 129.99 0.0505757" fill="#231F20"/>
<path fill-rule="evenodd" clip-rule="evenodd" d="M110.078 4.28456C110.134 4.53963 109.908 5.48229 109.636 6.28448C109.364 7.08666 109.303 7.35652 109.062 8.08847C108.956 8.41378 108.741 8.26222 108.616 8.39899C108.476 8.54686 108.786 8.2807 108.197 8.8426C107.842 9.18269 107.09 9.63739 106.886 9.85919C106.781 9.97749 106.55 9.91464 106.505 9.68914C106.479 9.54127 106.479 9.4045 106.467 9.10506C106.46 8.84999 106.686 8.53947 106.735 8.40639C106.815 8.19567 106.943 7.77795 106.947 7.51178C106.954 7.00164 107.51 6.32145 107.944 5.81869C108.378 5.31594 110.074 4.28826 110.074 4.28826L110.078 4.28456ZM107.362 12.2584C107.593 12.0957 107.574 12.5282 107.789 12.4875C107.925 12.4617 108.035 12.299 108.129 12.1955C108.208 12.1031 108.322 12.0402 108.401 12.421C108.446 12.6317 108.484 12.8313 108.363 12.9755C108.178 13.1973 107.117 13.5744 106.936 13.6446C106.803 13.6964 106.766 13.7518 106.709 13.4931C106.637 13.164 107.037 12.9866 107.053 12.8387C107.083 12.5652 107.177 12.3914 107.366 12.2584H107.362ZM109.659 16.8644C109.874 16.8977 110.425 16.5909 110.659 16.4134C110.826 16.2841 110.98 16.4763 110.886 16.6389C110.784 16.8164 110.418 17.2304 110.342 17.4263C110.297 17.5372 110.172 17.6186 110.078 17.589C109.904 17.5299 109.655 17.4189 109.485 17.3265C109.27 17.2082 109.462 16.8349 109.659 16.8644ZM104.734 17.1787C104.805 17.0123 105.232 17.5003 105.508 17.5631C105.803 17.6297 106.135 17.7664 106.497 17.8589C107 17.9882 107.532 18.2766 107.914 18.5354C108.174 18.7128 108.522 18.7793 108.824 19.0862C108.937 19.1971 108.896 19.356 108.805 19.4595C108.699 19.5815 108.635 19.7257 108.435 19.8588C107.914 20.2026 106.173 21.1046 105.942 21.2931C105.648 21.5371 105.085 21.404 104.904 21.2376C104.745 21.0898 104.575 20.8643 104.53 20.5611C104.458 20.0806 104.428 19.1823 104.462 18.7498C104.496 18.3394 104.503 17.7184 104.741 17.1824L104.734 17.1787ZM99.1518 17.4263C99.1518 17.3191 99.7032 17.0715 100.013 16.9273C100.311 16.7868 100.583 16.6648 100.844 16.6389C100.976 16.6242 101.123 16.7351 101.07 16.8977C100.991 17.1491 99.8014 18.2729 99.3822 18.7165C99.2915 18.8126 99.1253 18.4762 99.114 18.2655C99.0989 18.0252 99.1518 17.6555 99.1556 17.43L99.1518 17.4263ZM98.2038 14.9311C98.3738 14.9126 98.4455 15.1529 98.3058 15.3525C98.2114 15.4856 97.9546 15.5595 97.8941 15.4819C97.7922 15.3562 97.8828 15.2453 98.0376 15.1381C98.1736 15.0494 98.083 14.9459 98.2076 14.9348L98.2038 14.9311ZM99.5748 10.5172C99.8807 10.4913 99.8882 10.6318 99.9109 10.654C99.9864 10.7464 100.153 11.1272 100.27 11.2565C100.375 11.3785 100.459 11.5153 100.632 11.5745C100.723 11.604 100.734 12.0107 100.715 12.1881C100.696 12.3803 100.213 12.4617 99.9751 12.6428C99.8202 12.7611 99.7296 12.8535 99.6352 12.9829C99.5106 13.1456 99.4803 13.2343 99.3104 13.3821C99.1707 13.5041 99.3406 14.1474 99.2349 14.4431C99.1895 14.5762 99.3708 14.5651 99.5257 14.5651C99.6012 14.5651 99.6276 14.4246 99.7258 14.3433C99.8505 14.2398 100.19 14.0032 100.36 13.9034C100.485 13.8295 100.323 13.4228 100.504 13.3821C100.628 13.3526 100.636 13.7962 100.712 13.9699C100.768 14.1067 100.968 14.6058 100.915 14.8091C100.866 14.9902 100.832 15.1861 100.772 15.3007C100.708 15.419 99.9713 15.7296 100.047 16.0401C100.088 16.2212 100.636 15.9661 100.919 15.992C101.135 16.0105 101.539 15.9698 101.731 15.9735C101.913 15.9735 102.268 16.2397 102.471 16.5946C102.577 16.7757 101.826 17.4189 101.429 17.9143C101.04 18.4023 99.5294 19.6555 99.2197 19.9512C99.0611 20.1028 99.1669 20.6536 99.0422 20.7275C98.8912 20.8162 98.7628 20.7275 98.6004 20.7645C98.4757 20.794 98.2643 20.8754 98.1963 21.0158C98.1358 21.1489 98.1207 21.2561 98.2416 21.3153C98.3927 21.3929 99.994 20.6018 100.764 19.9253C101.573 19.2155 102.679 18.1213 103.087 17.6149C103.397 17.2304 103.28 15.6002 103.638 14.0032C103.801 13.2676 104.163 10.898 104.424 9.77786C104.722 8.4988 105.742 6.51367 105.935 6.22164C106.014 6.10334 105.931 5.98874 106.003 5.87784C106.082 5.75955 106.112 5.67083 106.384 5.79282C106.497 5.84457 106.671 6.05159 106.777 6.00723C107.019 5.90742 106.652 6.11073 107.521 5.28267C108.386 4.45461 109.22 4.04797 109.681 3.70788C110.142 3.36778 110.452 2.98332 110.686 2.88351C110.875 2.79849 111.056 2.87982 111.124 3.06835C111.199 3.26427 111.218 3.54892 111.113 3.9075C111.048 4.133 110.878 4.44352 110.674 4.9204C110.591 5.10893 110.342 6.05528 110.165 6.57652C109.983 7.09406 109.772 8.32506 109.647 8.54317C109.462 8.86847 109.681 8.9498 109.549 9.30469C109.507 9.41928 109.262 9.9664 109.107 10.2732C108.948 10.5874 108.495 11.5671 108.401 11.6558C108.284 11.7667 108.367 12.007 108.427 12.1031C108.499 12.2214 108.922 12.4802 109.209 13.1603C109.3 13.3711 109.27 13.5892 109.092 13.8147C108.967 13.981 108.465 14.1326 108.186 14.2694C107.815 14.4431 106.339 15.1751 105.848 15.5743C105.738 15.663 105.561 15.6408 105.606 15.4819C105.685 15.1972 105.587 14.3322 105.701 14.0328C105.863 13.5929 105.795 13.7666 106.169 13.2602C106.369 12.9903 106.781 12.0107 107.23 11.5227C107.275 11.4747 107.366 11.2233 107.219 11.1309C107.098 11.0532 106.943 11.2122 106.788 11.2602C106.698 11.2898 106.679 11.5153 106.573 11.5597C106.407 11.6262 106.248 11.4599 106.101 11.5819C105.991 11.6706 105.795 12.0994 105.753 12.3877C105.738 12.506 105.531 12.665 105.474 12.7426C105.414 12.8313 105.451 13.2195 105.417 13.4931C105.376 13.8184 105.062 14.6501 104.987 14.9976C104.938 15.2194 104.843 15.7222 104.87 16.0142C104.881 16.1806 104.957 16.2952 105.077 16.273C105.217 16.2434 105.312 16.0142 105.448 15.992C105.617 15.9624 106.165 15.9551 106.407 16.0179C106.52 16.0475 106.728 16.1879 107.094 16.114C107.302 16.0733 107.627 15.9883 107.876 15.9883C108.121 15.9883 109.311 15.9883 109.817 15.9957C110.002 15.9957 111.029 15.5004 111.354 15.3562C111.619 15.2342 112.261 14.6464 112.699 14.2028C112.948 13.9551 113.53 13.7814 113.836 13.9182C113.99 13.9884 113.896 14.432 113.658 14.6058C113.473 14.7388 113.027 14.9717 112.812 15.1196C112.465 15.3562 111.913 16.029 111.649 16.4652C111.524 16.6759 111.12 17.2378 110.916 17.5927C110.875 17.6629 110.875 17.8404 111.033 17.9993C111.184 18.1509 112.449 18.4799 113.042 18.6795C113.095 18.698 113.178 18.8015 113.303 18.7572C113.386 18.7276 113.503 18.6832 113.515 18.8939C113.518 18.9937 114.349 19.0159 114.444 19.0862C114.765 19.3117 115.981 19.5815 116.377 19.8255C116.528 19.9179 116.574 19.9549 116.71 20.1138C116.8 20.2211 117.031 20.2137 116.997 20.3726C116.963 20.539 114.617 21.1083 113.779 21.0676C113.058 21.0343 112.314 20.9456 111.626 20.7127C111.018 20.5057 109.851 19.6444 109.685 19.6407C109.409 19.6407 109.439 19.6998 109.254 19.8736C109.202 19.9216 109.107 20.088 108.975 20.2137C108.82 20.3615 108.28 20.8791 108.17 21.0269C108.016 21.2339 107.649 21.3153 107.415 21.4964C107.245 21.6295 106.92 21.9844 106.72 22.1175C106.354 22.3614 105.889 22.6609 105.614 22.7792C105.33 22.8975 104.836 22.72 104.42 22.6609C103.963 22.598 103.401 22.1249 103.193 21.7182C103.068 21.4779 103.072 20.8791 103.008 20.5205C102.966 20.2802 103.159 19.5446 103.008 19.4447C102.796 19.308 102.683 19.4632 102.581 19.5741C102.411 19.7516 102.207 20.0917 101.667 20.4613C101.429 20.6203 101.425 20.7349 101.157 20.9937C100.957 21.1859 100.485 21.4594 100.156 21.7293C99.8316 21.9955 99.2462 22.1581 98.8685 22.2247C98.7288 22.2468 98.3473 22.4797 98.1283 22.5759C97.9281 22.6646 97.2936 22.879 96.9009 22.9936C96.6554 23.0638 96.5383 22.5426 96.4817 22.1803C96.425 21.818 96.5685 21.4484 96.7838 21.3301C97.1426 21.1341 97.7091 20.4872 98.0225 20.1619C98.1019 20.0769 97.9395 19.881 97.7959 19.892C97.2936 19.9142 96.9726 19.7035 96.9726 19.7035C97.339 19.6481 97.9659 19.6296 98.1849 19.3597C98.2189 19.3154 98.3247 19.2266 98.3247 19.1046C98.3247 18.9309 98.268 18.8865 98.2529 18.7756C98.2378 18.6906 98.3549 18.5427 98.3171 18.4614C98.2756 18.3727 98.1849 18.1583 98.0301 18.2507C97.7091 18.4355 97.1577 18.9753 97.0104 19.2525C96.916 19.43 96.8971 19.6259 96.8971 19.6259C96.8027 19.7146 96.6365 19.637 96.6365 19.637C96.3419 19.9327 95.8774 20.4355 95.647 20.6277C95.4733 20.7719 95.2391 20.8754 95.0465 20.7866C94.8199 20.6794 94.6688 20.2137 94.5669 20.0621C94.4762 19.9253 94.6009 19.7331 94.7406 19.6444C94.9483 19.5113 95.4922 19.234 95.6508 19.101C95.8207 18.9568 96.5459 18.247 96.7196 18.1139C96.9915 17.8995 97.3692 17.6592 97.5844 17.4337C97.7393 17.2711 97.5467 17.0715 97.4372 17.1639C97.3427 17.2341 97.2068 17.2045 97.1464 17.0715C96.9991 16.7314 96.6894 15.8996 96.6931 15.5854C96.6931 15.3895 96.6969 15.2823 96.7762 15.1085C97.0104 14.5725 97.7959 13.5707 98.0376 13.3895C98.268 13.2121 98.1321 13.0457 98.0603 12.9127C97.9697 12.7463 97.5165 12.2029 97.5354 12.007C97.5618 11.7186 97.9999 11.4599 98.4342 11.1641C98.8647 10.8684 99.2953 10.5468 99.6012 10.5209L99.5748 10.5172ZM101.036 6.0331C101.146 5.8113 101.894 5.75955 102.234 5.82239C102.536 5.88154 102.902 6.46562 103.015 6.74287C103.091 6.92401 103.219 7.30477 103.159 7.44894C103.08 7.64487 102.762 7.64117 102.453 7.72619C102.343 7.75577 102.056 7.85558 101.856 7.95909C101.595 8.08847 101.274 8.36572 101.161 8.47293C101.036 8.59122 100.829 8.64298 100.73 8.6171C100.67 8.60231 100.674 8.43226 100.783 8.31767C100.983 8.11065 101.237 7.53027 101.176 7.30477C101.146 7.19017 101.025 7.13842 101.014 6.77984C101.01 6.5987 100.946 6.21794 101.036 6.0331ZM100.934 2.00739C101.055 1.97782 101.142 2.18114 101.331 2.26616C101.467 2.32901 101.527 2.451 101.663 2.451C101.852 2.451 101.86 2.73934 101.965 2.82806C102.056 2.90569 102.177 3.18664 102.279 3.27906C102.4 3.38626 102.445 3.52304 102.566 3.61176C102.698 3.71157 102.736 4.04797 102.573 4.2402C102.449 4.38807 102.252 4.58769 101.988 4.66902C101.743 4.73926 101.203 4.76144 100.9 4.93888C100.655 5.08675 100.194 5.44163 99.9411 5.7041C99.4615 6.20685 98.9176 7.08297 98.4795 7.826C98.1812 8.32876 97.0746 10.1882 96.7422 10.9164C96.6063 11.2196 95.9 12.6983 95.6432 13.238C95.3147 13.9367 94.5064 15.4634 94.3403 15.87C94.1174 16.4208 94.2459 16.8866 94.0948 17.0936C93.9551 17.2859 93.6794 17.2674 93.5132 17.1454C93.3432 17.0234 93.0826 16.7757 93.0147 16.5243C92.958 16.2988 93.0789 15.7739 93.1506 15.5078C93.1959 15.3266 93.2979 15.2083 93.4452 15.1381C93.5358 15.0937 93.6945 15.1381 93.8266 15.0826C93.9286 15.042 94.3705 14.3285 94.5895 13.9256C94.8803 13.3932 95.647 11.8037 95.8283 11.4266C95.9378 11.1974 96.3797 10.2215 96.7045 9.6263C96.9084 9.25663 97.9055 6.57282 98.3889 5.91851C98.4984 5.77064 99.012 4.70599 99.3293 4.22542C99.6088 3.7929 100.746 2.04066 100.931 2" fill="#231F20"/>
<path fill-rule="evenodd" clip-rule="evenodd" d="M58.1028 19.0835C58.1937 19.0835 58.2542 19.1566 58.2845 19.3063C58.3262 19.5108 58.2959 19.5108 58.3262 19.686C58.3564 19.8613 58.2845 19.9088 58.3224 20.0512C58.3678 20.2301 58.3489 20.3251 58.364 20.5076C58.3905 20.818 58.4019 21.0955 58.3413 21.2854C58.277 21.4753 58.3527 21.5337 58.3489 21.7273C58.3489 21.9025 58.2391 22.18 58.2202 22.443C58.2013 22.662 58.4246 22.8884 58.4246 23.1514C58.4246 23.312 58.3489 23.312 58.1937 23.2974C58.0271 23.2792 57.8303 23.1733 57.7697 23.0418C57.7092 22.9104 57.5351 22.4685 57.5351 22.3042C57.5351 22.1289 57.5918 21.8076 57.6183 21.5995C57.6524 21.3804 57.5956 21.1174 57.5956 20.9093C57.5994 20.661 57.906 20.3981 57.9098 20.1498C57.9098 19.9015 57.853 19.8723 57.8568 19.5619C57.8606 19.2552 57.9855 19.0799 58.1066 19.0799L58.1028 19.0835ZM60.6049 7.67978C60.5935 7.51546 61.1991 7.15761 61.4944 6.97138C61.7707 6.79976 61.9827 6.55876 62.2174 6.43461C62.5542 6.26298 62.8571 6.31776 63.0539 6.32871C63.3567 6.34697 63.7277 6.18995 63.8904 6.38348C64.038 6.56241 63.9926 6.70847 63.9434 6.91296C63.9018 7.07363 63.0274 8.39913 62.6072 8.87749C62.1719 9.3814 61.0969 10.5718 60.991 10.6339C60.866 10.7069 60.7676 10.5316 60.7373 10.2797C60.7071 10.0569 60.6768 9.87436 60.726 9.76481C60.7903 9.63336 60.7146 9.54937 60.6844 9.42887C60.6541 9.29376 60.5178 8.80811 60.5443 8.44295C60.5632 8.17639 60.62 7.91348 60.5973 7.67978H60.6049ZM53.3562 11.9083C53.394 11.817 53.7991 11.6198 53.9808 11.4774C54.1094 11.3751 54.4274 11.1743 54.5523 11.0721C54.9043 10.7799 54.8589 10.8347 55.1807 10.6229C55.3321 10.5243 55.5478 10.4513 55.5743 10.758C55.6046 11.1268 55.563 11.7841 55.5743 12.0215C55.5857 12.2552 55.5251 12.3136 55.5062 12.5035C55.491 12.6678 55.563 12.7554 55.5781 12.8577C55.5933 12.9599 55.5554 12.9891 55.5289 13.179C55.51 13.2958 55.6008 13.4748 55.4911 13.6793C55.3813 13.8837 54.7984 14.3329 54.6129 14.3877C54.4312 14.4461 54.5561 14.1211 54.2571 13.913C53.9543 13.7048 53.8823 13.409 53.7461 13.2009C53.5795 12.9453 53.6287 12.8175 53.4357 12.5948C53.2389 12.3757 53.2426 12.1529 53.3524 11.9046L53.3562 11.9083ZM49.5256 8.35897C49.711 8.30054 50.0782 8.99068 50.4378 9.36314C50.7974 9.7356 51.3349 10.203 51.4447 10.2979C51.5658 10.4038 51.8497 10.8165 51.9557 10.8201C52.0124 10.8201 52.3569 10.5316 52.6446 10.3418C52.9512 10.1409 53.6477 9.68448 53.8596 9.54937C54.03 9.43982 54.5599 9.06737 54.8854 8.82636C55.2147 8.58536 55.9226 8.13988 55.9453 8.0778C55.9604 8.04128 55.9301 7.88792 56.0437 7.5958C56.1118 7.41687 55.9642 7.33654 55.9566 7.30002C55.9415 7.22699 56.0361 7.0079 56.0513 6.89105C56.0853 6.67196 56.0286 6.22282 56.0588 6.12788C56.1383 5.89418 56.1648 5.40487 56.1762 5.26246C56.2102 4.86079 56.161 4.68917 56.214 4.5285C56.3919 3.99538 56.4109 3.56084 56.3692 3.16648C56.3351 2.83054 56.2519 2.79767 56.3503 2.28646C56.4373 1.82271 56.8764 1.32975 57.0733 1.10701C57.2057 0.960947 57.5994 0.935386 57.8984 1.21656C58.012 1.32245 58.277 1.4393 58.5306 1.69491C58.7804 1.93591 59.2422 2.49094 59.4012 2.6297C59.6586 2.85245 60.1506 3.46225 60.4648 3.84566C60.7033 4.14144 60.832 4.67091 60.8623 4.86444C60.9039 5.15292 60.8395 5.53998 61.0439 5.57649C61.3354 5.63127 61.907 5.15657 62.823 4.9886C63.4286 4.87905 64.4203 4.90461 65.0752 4.91191C65.3629 4.91556 65.9269 4.89 65.9761 5.02146C66.0631 5.25881 65.9117 5.98547 65.537 6.79611C65.2077 7.51181 65.026 7.64692 64.655 8.10701C64.3484 8.48677 64.303 8.72412 63.739 9.43252C63.1977 10.1154 62.1189 11.1159 62.3309 11.3094C62.5126 11.4737 63.0463 11.2291 63.1334 11.6125C63.2053 11.9229 62.8533 12.1237 62.7284 12.4268C62.5542 12.854 62.6564 13.1607 62.259 13.347C61.8918 13.5186 61.6799 13.4602 61.449 13.6026C61.1726 13.7742 61.2786 14.216 61.1007 14.5374C60.7903 15.107 60.9493 15.6511 60.7601 16.1075C60.4724 16.7977 60.5443 16.5275 60.3058 17.2468C60.2566 17.4002 60.1393 18.1926 60.0749 18.4701C60.0182 18.7074 59.8327 18.8973 59.8289 18.9813C59.8062 19.2223 59.6813 19.8504 59.6926 19.9197C59.7078 20.011 59.5374 20.1242 59.5526 20.2849C59.5677 20.431 59.4012 20.8034 59.3747 21.059C59.2649 22.0778 59.3557 22.2129 59.3974 22.7789C59.439 23.3449 59.3293 23.4654 59.2649 23.6188C59.2119 23.7539 58.9886 23.7867 58.8372 23.8305C58.6706 23.8744 58.682 24.0496 58.576 24.0825C58.4511 24.1227 58.277 23.9985 58.2202 24.0935C58.1028 24.2906 57.9741 24.5389 57.8227 24.5535C57.6638 24.5682 57.6108 24.4769 57.5653 24.2432C57.554 24.1811 57.4026 24.1665 57.3723 24.035C57.3269 23.8269 57.2777 23.9547 57.0846 23.6115C56.9219 23.3266 57.0619 23.2244 57.043 22.9688C57.0316 22.7679 56.7553 22.589 56.8272 22.2786C56.8651 22.1107 56.8197 21.7711 56.7818 21.4899C56.7402 21.1649 56.7288 20.9385 56.7288 20.8582C56.7288 20.7085 56.6796 20.8545 56.7212 20.3871C56.7553 19.9782 56.6228 19.6386 56.6266 19.5217C56.6266 19.3757 56.5698 19.2698 56.4449 19.2698C56.3465 19.2698 56.2973 19.3209 56.2481 19.5546C56.1951 19.7883 56.1875 20.2593 56.2178 20.5405C56.2443 20.8071 56.4146 21.541 56.4298 21.7784C56.4449 22.0924 56.4109 21.939 56.4222 22.3663C56.426 22.5744 56.5282 23.0893 56.6039 23.3704C56.6834 23.6516 56.8537 23.6407 56.9067 23.8378C56.9635 24.0423 57.0241 24.2213 57.0998 24.3381C57.1944 24.4915 57.5691 24.5755 57.5199 24.6667C57.4631 24.7726 57.3042 24.9844 57.1792 24.999C56.9332 25.0246 56.4866 24.5353 56.3957 24.3198C56.2367 23.9364 56.127 22.5635 56.0437 22.0632C55.8999 21.2197 55.7484 20.8509 55.6425 19.9161C55.5327 18.9448 55.2904 16.4106 55.298 15.8738C55.3018 15.5196 55.0595 15.4028 54.9271 15.3955C54.7681 15.3882 54.5637 15.5525 54.5485 15.7205C54.5372 15.925 54.5826 16.407 54.3593 16.4946C54.1738 16.564 52.8717 16.2134 51.861 15.5708C50.2069 14.5191 49.6164 11.9046 49.3439 11.4044C48.9729 10.7252 48.9616 9.31202 49.0373 9.03815C49.1168 8.75699 49.2265 8.4393 49.5066 8.35897" fill="#231F20"/>
</g>
<defs>
<clipPath id="clip0_8_1246">
<rect width="141" height="40" fill="white"/>
</clipPath>
</defs>
</svg>
