<svg xmlns="http://www.w3.org/2000/svg" width="240" height="80" fill="none" viewBox="0 0 240 80"><path fill="#243F8E" d="M103.915 25.2386H98.758V48.3801H103.915V25.2386Z"/><path fill="#ED1B23" fill-rule="evenodd" d="M140.448 48.1887C139.748 48.1832 139.01 48.1887 138.31 48.1231C136.888 47.9973 135.554 47.8715 134.192 47.4395C133.104 47.1005 132.169 46.5865 131.261 45.8866C130.988 45.6788 130.753 45.4327 130.506 45.1976C130.381 45.0773 130.26 44.957 130.151 44.8203C128.97 43.3657 128.265 41.8948 127.909 40.0574C127.34 37.0937 127.444 34.0861 128.598 31.2591C128.697 31.013 128.811 30.7779 128.943 30.5482C129.79 29.0335 130.813 27.9508 132.273 27.0431C132.579 26.8517 132.902 26.7041 133.224 26.5345C133.241 26.5236 133.268 26.5236 133.29 26.5127C133.591 26.4033 133.886 26.2775 134.192 26.1791C135.57 25.7416 136.964 25.5831 138.397 25.4573C138.49 25.4518 138.583 25.4628 138.676 25.4573C138.922 25.4464 139.163 25.4136 139.409 25.4136C141.241 25.4026 143.078 25.4136 144.91 25.4136C143.947 26.376 142.679 27.7594 141.547 28.946C139.737 28.9788 137.779 28.8312 136.111 29.6295C135.483 29.9303 135.488 29.9522 135.247 30.149C134.843 30.4717 134.832 30.4662 134.509 30.8435C133.968 31.4833 133.602 32.1504 133.295 32.9433C133.098 33.4518 133.098 33.4518 132.951 34.108C132.475 36.2516 132.563 38.4334 133.273 40.5113C133.405 40.905 133.591 41.2659 133.793 41.6323C133.951 41.9221 134.225 42.2775 134.258 42.2994C134.263 42.3049 134.274 42.3158 134.28 42.3213C135.105 43.4259 136.204 43.9617 137.511 44.2953C138.118 44.4484 139.042 44.6453 139.671 44.6507C142.028 44.6726 144.385 44.6507 146.742 44.6507V48.1887C144.642 48.1887 142.542 48.2051 140.448 48.1887Z" clip-rule="evenodd"/><path fill="#243F8E" fill-rule="evenodd" d="M106.479 48.38C109.005 48.38 111.526 48.3964 114.053 48.38C114.403 48.38 114.758 48.3636 115.108 48.3363C116.546 48.2324 117.935 48.0574 119.313 47.6145C119.619 47.5161 119.925 47.4012 120.221 47.27C121.194 46.8325 122.003 46.2529 122.807 45.553C122.813 45.553 122.824 45.542 122.829 45.5311C123.343 45.0007 123.797 44.4484 124.202 43.8305C124.399 43.5243 124.563 43.2071 124.721 42.879C125.005 42.2775 125.235 41.6705 125.41 41.0253C126.203 38.0779 126.181 34.9173 125.241 32.0137C124.858 30.8216 124.289 29.8373 123.513 28.864C123.305 28.6015 123.059 28.3773 122.835 28.1312C122.829 28.1258 122.818 28.1148 122.813 28.1094C122.096 27.4969 121.38 26.9939 120.549 26.5345C120.538 26.5291 120.522 26.5181 120.505 26.5126C120.215 26.3923 119.931 26.2611 119.641 26.1572C118.17 25.6323 116.71 25.4245 115.157 25.3042C114.599 25.2604 114.036 25.244 113.473 25.2386C111.144 25.2221 108.814 25.2386 106.485 25.2386V48.38H106.479ZM119.247 42.3213C119.247 42.3213 119.264 42.3103 119.269 42.2994C119.619 41.7744 119.926 41.2604 120.144 40.6644C121.068 38.067 121.036 35.0923 119.991 32.5332C119.893 32.2871 119.778 32.0465 119.647 31.8223C119.122 30.92 118.58 30.3295 117.716 29.7662C117.503 29.6241 117.268 29.5092 117.027 29.4217C115.299 28.7656 113.435 28.8585 111.614 28.853V44.8093C113.697 44.7874 115.748 44.8093 117.612 43.8086C118.312 43.4368 118.766 42.961 119.247 42.3322V42.3213Z" clip-rule="evenodd"/><path fill="#F78C94" d="M155.627 33.2823H155.606V34.9447H155.627V33.2823Z"/><path fill="#243F8E" fill-rule="evenodd" d="M91.0424 42.8627C90.6924 43.9672 89.648 44.5469 88.5598 44.7055C86.4545 45.0117 84.2836 44.875 82.1565 44.8476V38.8709C84.3383 38.8709 86.5311 38.7779 88.6692 39.1607C89.4074 39.2974 90.069 39.538 90.5885 40.1122C90.7963 40.3418 90.9877 40.6316 91.0424 40.9433C91.0424 40.9707 91.0478 41.0035 91.0642 41.0308C91.0642 41.0308 91.0861 41.0253 91.0861 41.0308C91.1955 41.6378 91.2009 42.1682 91.0861 42.7752C91.0861 42.7806 91.0697 42.7752 91.0642 42.7752C91.0533 42.8025 91.0533 42.8299 91.0424 42.8627ZM82.1565 34.5182V28.9132C83.7587 28.9132 85.3664 28.875 86.9631 28.9242C88.2044 28.9625 89.3855 29.0828 90.1456 30.1436C90.7744 31.0185 90.7689 32.1723 90.1674 33.0527C89.7519 33.6651 89.1886 33.9768 88.4778 34.1409C86.3889 34.6166 84.2946 34.5127 82.1565 34.5182ZM86.2959 25.2441C86.8264 25.2441 87.3623 25.2769 87.8927 25.3206C89.7901 25.4683 91.4853 25.7198 93.1312 26.6986C93.9132 27.1689 94.4381 27.6884 94.9139 28.4813C95.9528 30.2201 96.0567 32.4402 95.0178 34.1955C94.7553 34.6439 94.4217 34.9994 94.0171 35.3275C93.3609 35.8524 92.65 36.1805 91.8571 36.4484C91.4962 36.5687 91.4908 36.5523 91.4689 36.5742C92.2836 36.7929 93.0328 37.039 93.7765 37.4382C94.2577 37.7007 94.6514 37.996 95.0287 38.3897C95.5208 38.9037 95.8325 39.4232 96.0731 40.1012C96.3356 40.8394 96.3848 41.5503 96.3301 42.3213C96.259 43.404 95.9692 44.268 95.3787 45.1867C95.2748 45.3452 95.1599 45.4983 95.0342 45.6405C94.4436 46.324 93.8038 46.849 92.9945 47.2482C91.9391 47.7731 90.9057 48.0356 89.7355 48.1996C88.9863 48.3035 88.2262 48.3746 87.4716 48.3801C83.9774 48.4238 80.4832 48.3801 76.989 48.3801V25.2386C80.0895 25.2386 83.1845 25.2167 86.285 25.2386L86.2959 25.2441Z" clip-rule="evenodd"/><path fill="#F7525A" fill-rule="evenodd" d="M150.29 31.4614C150.301 31.0677 150.312 30.674 150.323 30.2748C150.312 31.0805 150.301 31.476 150.29 31.4614Z" clip-rule="evenodd"/><path fill="#FFC5CE" fill-rule="evenodd" d="M150.132 31.0677H150.154V30.2037H150.176C150.176 30.5044 150.176 30.7997 150.165 31.1005C150.154 31.0895 150.143 31.0786 150.132 31.0677Z" clip-rule="evenodd"/><path fill="#F7525A" fill-rule="evenodd" d="M154.249 28.4758H154.271V29.471H154.293C154.293 29.471 154.271 29.4929 154.26 29.5038C154.26 29.1648 154.255 28.8203 154.249 28.4812V28.4758Z" clip-rule="evenodd"/><path fill="#F7525A" d="M149.224 28.5195H149.202V29.1429H149.224V28.5195Z"/><path fill="#F7525A" d="M149.919 25.5831H149.897V26.1244H149.919V25.5831Z"/><path fill="#F7525A" fill-rule="evenodd" d="M153.992 25.4683H154.014V25.7307H154.036C154.031 25.8073 154.02 25.8838 154.014 25.9549H153.992V25.4683Z" clip-rule="evenodd"/><path fill="#FFC5CE" fill-rule="evenodd" d="M151.297 24.8503H151.319V24.216H151.34V24.8722C151.311 24.8722 151.297 24.8649 151.297 24.8503Z" clip-rule="evenodd"/><path fill="#F78C94" fill-rule="evenodd" d="M151.499 23.6145C151.51 23.4504 151.521 23.2864 151.532 23.1169C151.521 23.4668 151.51 23.6327 151.499 23.6145Z" clip-rule="evenodd"/><path fill="#EF1921" fill-rule="evenodd" d="M148.612 31.013C148.612 30.7833 148.617 30.5537 148.623 30.324C148.951 30.3459 149.164 30.3732 149.432 30.5646C149.722 30.8654 150.006 31.1661 150.296 31.4669C150.296 31.4669 150.307 31.0713 150.329 30.2803C150.898 29.7553 151.45 29.1593 152.128 28.771C152.527 28.6507 152.68 28.7054 153.047 28.9132C153.577 29.3452 154.075 29.7991 154.583 30.2529C154.594 30.6685 154.599 31.0786 154.61 31.4887C154.856 31.2208 155.097 30.9583 155.343 30.6904C155.666 30.406 155.857 30.3568 156.284 30.324C156.284 30.499 156.284 30.6685 156.295 30.8435C156.262 31.2481 156.202 31.5762 156.054 31.959C155.846 32.3473 155.638 32.741 155.436 33.1292C155.436 33.1839 155.436 33.2331 155.436 33.2878C155.491 33.2878 155.551 33.2878 155.606 33.2933V34.9556H149.328V33.2933C149.383 33.2933 149.443 33.2878 149.503 33.2823C149.503 33.2331 149.498 33.1839 149.492 33.1292C149.208 32.6207 148.754 31.9918 148.634 31.3903C148.628 31.2645 148.617 31.1442 148.606 31.0185L148.612 31.013ZM154.769 31.0786C154.764 30.7888 154.753 30.4935 154.747 30.2037C154.146 29.635 153.468 28.9023 152.697 28.5523C152.631 28.5523 152.609 28.5304 152.33 28.5304C152.33 28.5304 152.248 28.5596 152.084 28.6179C151.362 29.039 150.788 29.646 150.176 30.2037H150.154V31.0677H150.132C150.083 31.0185 150.034 30.9638 149.984 30.9146C149.651 30.3185 149.268 29.8264 149.224 29.1429V28.5195C149.569 28.5523 149.678 28.5633 149.962 28.7546C150.192 29.0007 150.422 29.2522 150.651 29.4983C150.657 29.1593 150.668 28.8203 150.673 28.4867C151.176 28.0274 151.647 27.5134 152.248 27.1798C152.757 27.0759 153.036 27.3931 153.413 27.6993C153.692 27.9617 153.976 28.2188 154.255 28.4758C154.255 28.8148 154.26 29.1593 154.266 29.4983C154.277 29.4874 154.288 29.4764 154.299 29.4655C154.605 29.1265 154.955 28.5468 155.463 28.5468C155.463 28.5468 155.533 28.5396 155.671 28.525C155.671 29.0937 155.649 29.5257 155.409 30.0397C155.212 30.3951 155.07 30.7998 154.769 31.0732V31.0786ZM150.799 27.7758C150.805 27.4641 150.815 27.1525 150.821 26.8353C151.258 26.4306 151.701 25.9549 152.226 25.6596C152.697 25.5667 152.893 25.7635 153.271 26.0697C153.55 26.3268 153.823 26.5783 154.102 26.8353C154.102 27.147 154.113 27.4641 154.124 27.7758C154.342 27.5352 154.567 27.2946 154.785 27.0595C155.004 26.9173 155.146 26.9064 155.414 26.89V27.3821C155.36 27.8305 155.267 28.0766 155.064 28.4758C154.982 28.5359 154.906 28.5961 154.824 28.6562C154.758 28.7328 154.485 29.0335 154.424 29.0882C154.419 28.864 154.408 28.6343 154.403 28.4101C153.861 27.8961 153.358 27.3766 152.697 27.0212C152.631 27.0212 152.609 26.9993 152.308 26.9993C152.286 27.0212 152.221 27.0212 151.915 27.1853C151.422 27.568 150.974 27.9836 150.515 28.4101C150.515 28.6343 150.504 28.864 150.493 29.0882C150.378 28.9843 150.187 28.8312 150.116 28.7C149.509 28.2188 149.487 27.6118 149.487 26.8845C149.755 26.9064 149.891 26.9173 150.105 27.054C150.334 27.2946 150.564 27.5352 150.794 27.7758H150.799ZM149.913 26.1299V25.5885C150.061 25.594 150.165 25.6214 150.301 25.6432C150.44 25.7562 150.681 25.9841 151.023 26.3268C151.023 26.0643 151.029 25.8018 151.034 25.5339C151.379 25.2386 151.718 24.9433 152.068 24.6425C152.461 24.4129 152.615 24.5386 152.975 24.7683C153.15 24.9269 153.692 25.419 153.839 25.5339C153.839 25.7963 153.85 26.0588 153.85 26.3213C154.255 25.9057 154.397 25.6268 154.949 25.5776C154.944 25.8565 154.944 26.119 154.889 26.3924C154.816 26.5892 154.722 26.7988 154.605 27.0212C154.49 27.136 154.381 27.2509 154.271 27.3657C154.266 27.1689 154.255 26.972 154.25 26.7751C153.927 26.4799 153.604 26.1846 153.276 25.8893C152.79 25.5175 152.538 25.3315 151.953 25.6432C151.504 25.9768 151.1 26.376 150.69 26.7533C150.673 26.7587 150.657 26.7642 150.646 26.7642C150.646 26.972 150.64 27.1853 150.635 27.3931C150.28 27.0048 149.957 26.6658 149.913 26.1299ZM153.019 24.5988C152.675 24.3965 152.62 24.3473 152.243 24.3746C151.723 24.6699 151.335 25.0964 150.87 25.4737V25.6706H150.837C150.679 25.3698 150.52 25.0909 150.422 24.7738C150.422 24.6043 150.422 24.4402 150.422 24.2707C150.87 24.2707 150.996 24.5332 151.297 24.8613C151.297 24.8613 151.311 24.8686 151.34 24.8831V24.227C151.658 23.9371 151.969 23.6364 152.336 23.4067C152.511 23.3794 152.642 23.4395 152.79 23.527C153.078 23.7713 153.338 24.0028 153.571 24.2215C153.582 24.4402 153.588 24.6535 153.599 24.8722C153.79 24.6589 153.96 24.4621 154.189 24.2926C154.277 24.2926 154.293 24.2707 154.479 24.2707C154.479 24.4293 154.468 24.5824 154.463 24.741C154.364 25.1073 154.206 25.4026 154.036 25.7417H154.014V25.4792C153.91 25.3972 153.15 24.7191 153.025 24.6043L153.019 24.5988ZM151.499 23.62C151.499 23.62 151.515 23.6473 151.532 23.1224C151.8 22.8818 152.046 22.5701 152.401 22.4717C152.773 22.5154 153.057 22.8982 153.325 23.1333C153.331 23.2919 153.336 23.4559 153.347 23.62C153.582 23.3794 153.703 23.1661 154.047 23.1661C154.031 23.5926 153.998 23.8387 153.741 24.1941C153.683 24.1212 153.429 23.8825 152.981 23.4778C152.522 23.1552 152.33 23.2044 151.92 23.5052C151.674 23.7184 151.433 23.9317 151.193 24.1449C151.187 24.2051 151.176 24.2598 151.165 24.3199C151.04 24.0957 150.854 23.8606 150.799 23.6036C150.799 23.4559 150.799 23.3138 150.799 23.1661C151.138 23.1661 151.275 23.3958 151.51 23.62H151.499ZM153.298 22.931C153.112 22.7287 152.882 22.5974 152.669 22.4224C152.374 22.2967 152.27 22.3459 152.008 22.5099C151.783 22.6904 151.603 22.8708 151.565 22.8872C151.565 22.7013 151.406 22.5045 151.319 22.3404C151.304 22.242 151.295 22.1144 151.291 21.9576C151.576 21.9576 151.576 22.149 151.8 22.2803C151.8 22.1709 151.805 22.0561 151.811 21.9467C152.013 21.7608 152.193 21.5694 152.445 21.4655C152.675 21.5585 152.893 21.7772 153.079 21.9467C153.079 22.0561 153.085 22.1709 153.09 22.2803C153.26 22.1217 153.353 21.9576 153.599 21.9576C153.588 22.0944 153.577 22.2311 153.566 22.3678C153.468 22.5591 153.358 22.7123 153.331 22.931H153.298ZM152.243 39.3302C151.969 39.2208 151.822 39.1224 151.597 38.931C150.105 37.4382 148.606 35.9453 147.113 34.4525L146.594 33.9385C145.413 32.7519 144.226 31.5653 143.045 30.3787C142.75 29.903 142.69 29.5475 142.98 29.0445C144.188 27.836 145.391 26.6275 146.594 25.419C146.599 25.4136 146.61 25.4026 146.616 25.3972C149.372 22.6466 150.766 21.2304 151.833 20.1914C151.991 20.1149 152.122 20.0547 152.286 20.0055H152.609C152.766 20.0565 152.903 20.1094 153.019 20.1641C153.528 20.6671 154.036 21.1648 154.55 21.6624C154.55 21.6678 154.561 21.6788 154.572 21.6842L159.422 26.5345C160.254 27.3712 161.085 28.2023 161.91 29.039C162.014 29.2249 162.064 29.3671 162.118 29.5749V29.7499C162.042 30.0506 161.976 30.1982 161.785 30.4388C160.45 31.7676 159.116 33.0964 157.782 34.4306C157.777 34.4361 157.771 34.4471 157.76 34.4525C156.699 35.5188 155.633 36.5797 154.567 37.646C154.561 37.6514 154.55 37.6624 154.545 37.6678C154.058 38.149 153.566 38.6357 153.079 39.1224C152.937 39.2153 152.8 39.2646 152.647 39.3247H152.237L152.243 39.3302Z" clip-rule="evenodd"/><path fill="#243F8E" d="M117 58.294C116.869 58.294 116.754 58.2502 116.661 58.1682C116.568 58.0862 116.519 57.9659 116.519 57.8182C116.519 57.687 116.568 57.5776 116.661 57.4956C116.754 57.4081 116.863 57.3644 116.989 57.3644C117.087 57.3644 117.17 57.3917 117.252 57.4409C117.328 57.4956 117.388 57.5722 117.432 57.6761C117.476 57.78 117.498 57.9057 117.498 58.0588C117.498 58.2666 117.454 58.4526 117.372 58.633C117.29 58.808 117.186 58.9502 117.066 59.0541C116.945 59.158 116.841 59.2126 116.743 59.2126C116.683 59.2126 116.634 59.1908 116.59 59.147C116.552 59.1033 116.535 59.0595 116.535 58.9994C116.535 58.9174 116.573 58.8463 116.655 58.797C116.885 58.6658 117 58.4963 117 58.294ZM161.314 56.566C161.314 56.6809 161.309 56.7793 161.282 56.8777C161.156 57.4081 160.735 57.7253 160.275 57.7253C159.532 57.7253 159.16 57.0691 159.16 56.2762C159.16 55.4122 159.581 54.7615 160.292 54.7615C160.806 54.7615 161.178 55.1333 161.282 55.5872C161.303 55.6802 161.314 55.8005 161.314 55.888V56.566ZM161.314 52.4594V54.7998H161.298C161.128 54.4826 160.735 54.2037 160.161 54.2037C159.236 54.2037 158.455 55.0021 158.465 56.309C158.465 57.5011 159.171 58.2994 160.084 58.2994C160.702 58.2994 161.161 57.9659 161.375 57.5284H161.391L161.424 58.2119H162.042C162.02 57.944 162.009 57.5448 162.009 57.2003V52.4649H161.32L161.314 52.4594ZM154.403 58.2065H155.092V55.8497C155.092 55.7294 155.108 55.6091 155.135 55.5161C155.25 55.1224 155.606 54.7888 156.054 54.7888C156.705 54.7888 156.929 55.3138 156.929 55.9481V58.2065H157.618V55.8661C157.618 54.5209 156.803 54.1983 156.284 54.1983C155.66 54.1983 155.223 54.5647 155.031 54.9365H155.015L154.977 54.2912H154.364C154.386 54.6139 154.397 54.9474 154.397 55.3521V58.2119L154.403 58.2065ZM152.631 56.8886C152.631 56.9597 152.614 57.0418 152.593 57.1128C152.483 57.4464 152.172 57.769 151.679 57.769C151.329 57.769 151.029 57.5503 151.029 57.0855C151.029 56.3254 151.882 56.1887 152.631 56.1996V56.8832V56.8886ZM153.358 58.2065C153.309 57.9385 153.293 57.605 153.293 57.266V55.8005C153.293 55.013 153.014 54.1983 151.854 54.1983C151.379 54.1983 150.925 54.335 150.613 54.5482L150.772 55.0185C151.034 54.8435 151.406 54.7287 151.756 54.7287C152.532 54.7287 152.614 55.3083 152.614 55.6364V55.7184C151.154 55.713 150.34 56.227 150.34 57.1785C150.34 57.7472 150.728 58.3049 151.499 58.3049C152.035 58.3049 152.445 58.0315 152.658 57.7253H152.68L152.735 58.2174H153.358V58.2065ZM146.304 58.2065H146.993V55.8387C146.993 55.702 146.999 55.5981 147.042 55.4997C147.168 55.1115 147.518 54.7888 147.966 54.7888C148.617 54.7888 148.841 55.3247 148.841 55.9536V58.2065H149.525V55.877C149.525 54.5209 148.716 54.1983 148.207 54.1983C147.95 54.1983 147.709 54.2803 147.507 54.4006C147.299 54.5209 147.124 54.7014 147.015 54.9037H146.999V52.4594H146.31V58.2065H146.304ZM142.094 58.2065H142.772V56.1176C142.772 55.9973 142.788 55.8825 142.804 55.7841C142.897 55.2536 143.242 54.8709 143.729 54.8709C143.822 54.8709 143.893 54.8763 143.964 54.8982V54.2256C143.904 54.2092 143.849 54.2037 143.767 54.2037C143.302 54.2037 142.892 54.5318 142.717 55.0623H142.684L142.662 54.2912H142.061C142.083 54.6576 142.094 55.0513 142.094 55.5107V58.2065ZM140.951 54.2858H140.262V56.6918C140.262 56.823 140.24 56.9543 140.202 57.0582C140.076 57.3753 139.759 57.7089 139.294 57.7089C138.671 57.7089 138.452 57.2058 138.452 56.4621V54.2912H137.763V56.5824C137.763 57.9549 138.474 58.2994 139.07 58.2994C139.742 58.2994 140.141 57.8839 140.322 57.5722H140.338L140.377 58.2119H140.989C140.967 57.9003 140.956 57.5448 140.956 57.1456V54.2967L140.951 54.2858ZM135.083 54.7287C135.898 54.7287 136.215 55.5708 136.215 56.2379C136.215 57.1183 135.723 57.7581 135.067 57.7581C134.411 57.7581 133.919 57.1128 133.919 56.2543C133.919 55.5107 134.274 54.7287 135.083 54.7287ZM135.1 54.1983C134.05 54.1983 133.224 54.9693 133.224 56.2762C133.224 57.5175 134.012 58.294 135.034 58.294C135.947 58.294 136.921 57.6651 136.921 56.2106C136.921 55.013 136.182 54.1983 135.1 54.1983ZM129.396 54.2858L130.796 57.8948C130.829 57.9878 130.846 58.0424 130.846 58.0807C130.846 58.119 130.824 58.1791 130.791 58.2502C130.632 58.6166 130.403 58.89 130.211 59.0431C130.009 59.2181 129.785 59.3329 129.61 59.3931L129.779 59.9891C129.949 59.9563 130.288 59.836 130.621 59.5298C131.092 59.1087 131.425 58.4197 131.917 57.0746L132.945 54.2803H132.218L131.469 56.5824C131.376 56.8668 131.299 57.1621 131.228 57.3972H131.212C131.152 57.1621 131.059 56.8558 130.971 56.5988L130.14 54.2803H129.391L129.396 54.2858ZM124.059 54.2858L125.459 57.8948C125.492 57.9878 125.509 58.0424 125.509 58.0807C125.509 58.119 125.487 58.1791 125.454 58.2502C125.295 58.6166 125.06 58.89 124.874 59.0431C124.672 59.2181 124.442 59.3329 124.273 59.3931L124.442 59.9891C124.612 59.9563 124.951 59.836 125.284 59.5298C125.755 59.1087 126.088 58.4197 126.58 57.0746L127.608 54.2803H126.881L126.132 56.5824C126.039 56.8668 125.962 57.1621 125.891 57.3972H125.875C125.815 57.1621 125.722 56.8558 125.634 56.5988L124.803 54.2803H124.054L124.059 54.2858ZM120.844 55.9262C120.844 55.8169 120.866 55.713 120.882 55.6364C121.025 55.0951 121.462 54.7615 121.932 54.7615C122.671 54.7615 123.059 55.4341 123.059 56.2161C123.059 57.1128 122.632 57.7253 121.91 57.7253C121.413 57.7253 121.008 57.3862 120.877 56.8886C120.861 56.8066 120.844 56.7191 120.844 56.6262V55.9208V55.9262ZM120.729 58.201L120.762 57.5558H120.784C121.063 58.0752 121.506 58.294 122.047 58.294C122.895 58.294 123.742 57.5995 123.742 56.1942C123.748 55.0021 123.086 54.1928 122.151 54.1928C121.544 54.1928 121.101 54.4772 120.861 54.9146H120.844V52.4539H120.166V57.1894C120.166 57.5394 120.15 57.9331 120.133 58.201H120.724H120.729ZM113.085 55.8606C113.139 55.3685 113.446 54.7014 114.14 54.7014C114.911 54.7014 115.097 55.4068 115.092 55.8606H113.085ZM115.731 56.3746C115.737 56.3035 115.753 56.1887 115.753 56.0411C115.753 55.3193 115.425 54.1983 114.189 54.1983C113.085 54.1983 112.412 55.1279 112.412 56.309C112.412 57.4901 113.107 58.283 114.271 58.283C114.873 58.283 115.288 58.1518 115.529 58.037L115.414 57.5284C115.157 57.6433 114.856 57.7307 114.364 57.7307C113.675 57.7307 113.085 57.3316 113.068 56.3692H115.726L115.731 56.3746ZM110.865 56.5605C110.865 56.6754 110.859 56.7738 110.832 56.8722C110.706 57.4027 110.285 57.7198 109.826 57.7198C109.087 57.7198 108.71 57.0636 108.71 56.2707C108.71 55.4068 109.131 54.756 109.842 54.756C110.362 54.756 110.733 55.1279 110.837 55.5817C110.859 55.6747 110.87 55.795 110.87 55.8825V56.5605H110.865ZM110.865 52.4539V54.7943H110.848C110.679 54.4772 110.285 54.1983 109.705 54.1983C108.787 54.1983 108.005 54.9966 108.01 56.3035C108.01 57.4956 108.716 58.294 109.629 58.294C110.247 58.294 110.706 57.9604 110.919 57.523H110.936L110.969 58.2065H111.586C111.565 57.9385 111.554 57.5394 111.554 57.1949V52.4594H110.865V52.4539ZM106.802 52.7383C106.55 52.7383 106.375 52.9351 106.375 53.1812C106.375 53.4273 106.545 53.6186 106.791 53.6186C107.064 53.6186 107.234 53.4273 107.228 53.1812C107.228 52.9297 107.064 52.7383 106.807 52.7383H106.802ZM106.457 58.2065H107.141V54.2858H106.457V58.2065ZM103.094 58.0206C103.357 58.1791 103.745 58.2885 104.155 58.2885C105.052 58.2885 105.571 57.8018 105.571 57.1128C105.571 56.5332 105.238 56.1887 104.576 55.9317C104.084 55.7403 103.86 55.5927 103.86 55.2701C103.86 54.9802 104.084 54.7342 104.489 54.7342C104.844 54.7342 105.118 54.8654 105.265 54.9584L105.435 54.4389C105.221 54.3076 104.888 54.1983 104.505 54.1983C103.696 54.1983 103.198 54.7178 103.198 55.3466C103.198 55.8169 103.521 56.2051 104.199 56.4567C104.707 56.6535 104.904 56.834 104.904 57.1785C104.904 57.523 104.669 57.7581 104.166 57.7581C103.822 57.7581 103.461 57.6104 103.258 57.4737L103.089 58.0151L103.094 58.0206ZM99.1463 58.2065H99.8298V56.1176C99.8298 55.9973 99.8462 55.8825 99.8626 55.7841C99.9556 55.2536 100.3 54.8709 100.781 54.8709C100.874 54.8709 100.945 54.8763 101.016 54.8982V54.2256C100.956 54.2092 100.902 54.2037 100.82 54.2037C100.36 54.2037 99.9446 54.5318 99.7751 55.0623H99.7423L99.7204 54.2912H99.1189C99.1408 54.6576 99.1517 55.0513 99.1517 55.5107V58.2065H99.1463ZM98.0034 54.2858H97.3199V56.6918C97.3199 56.823 97.298 56.9543 97.2597 57.0582C97.134 57.3753 96.8113 57.7089 96.352 57.7089C95.7286 57.7089 95.5099 57.2058 95.5099 56.4621V54.2912H94.8264V56.5824C94.8264 57.9549 95.5372 58.2994 96.1333 58.2994C96.8059 58.2994 97.205 57.8839 97.3855 57.5722H97.4019L97.4402 58.2119H98.0472C98.0253 57.9003 98.0143 57.5448 98.0143 57.1456V54.2967L98.0034 54.2858ZM92.136 54.7287C92.9453 54.7287 93.2679 55.5708 93.2679 56.2379C93.2679 57.1183 92.7758 57.7581 92.1196 57.7581C91.4634 57.7581 90.9713 57.1128 90.9713 56.2543C90.9713 55.5107 91.3212 54.7287 92.136 54.7287ZM92.1524 54.1983C91.1025 54.1983 90.2768 54.9693 90.2768 56.2762C90.2768 57.5175 91.0642 58.294 92.0923 58.294C93.0055 58.294 93.9733 57.6651 93.9733 56.2106C93.9733 55.013 93.2406 54.1983 92.1524 54.1983ZM86.4491 54.2858L87.8489 57.8948C87.8817 57.9878 87.8981 58.0424 87.8981 58.0807C87.8981 58.119 87.8763 58.1791 87.8435 58.2502C87.6849 58.6166 87.4552 58.89 87.2638 59.0431C87.0615 59.2181 86.8373 59.3329 86.6623 59.3931L86.8373 59.9891C87.0068 59.9563 87.3459 59.836 87.6794 59.5298C88.1497 59.1087 88.4832 58.4197 88.9754 57.0746L90.0089 54.2803H89.2816L88.5325 56.5824C88.4395 56.8668 88.3629 57.1621 88.2919 57.3972H88.2755C88.2153 57.1621 88.1169 56.8558 88.0348 56.5988L87.2037 54.2803H86.4545L86.4491 54.2858ZM81.7683 55.8661C81.823 55.3739 82.1292 54.7068 82.8236 54.7068C83.5947 54.7068 83.7806 55.4122 83.7751 55.8661H81.7683ZM84.4149 56.3801C84.4204 56.309 84.4368 56.1942 84.4368 56.0465C84.4368 55.3247 84.1087 54.2037 82.8729 54.2037C81.7683 54.2037 81.0957 55.1333 81.0957 56.3145C81.0957 57.4956 81.7901 58.2885 82.9549 58.2885C83.5564 58.2885 83.9665 58.1573 84.2126 58.0424L84.0977 57.5339C83.8353 57.6487 83.54 57.7362 83.0478 57.7362C82.3588 57.7362 81.7683 57.337 81.7519 56.3746H84.4094L84.4149 56.3801ZM77.8148 55.5927H78.378C79.1217 55.5927 79.7396 55.9044 79.7396 56.648C79.7396 57.4409 79.0943 57.7089 78.3889 57.7089C78.1483 57.7089 77.9515 57.6979 77.8202 57.6761V55.5927H77.8148ZM77.8148 53.3015C77.9241 53.2742 78.1046 53.2523 78.4163 53.2523C79.1053 53.2523 79.5755 53.5038 79.5755 54.1436C79.5755 54.6685 79.1545 55.0568 78.4327 55.0568H77.8148V53.3015ZM77.1312 58.1955C77.3554 58.2284 77.7163 58.2557 78.1866 58.2557C79.0451 58.2557 79.6411 58.0971 80.0075 57.7472C80.2754 57.4792 80.4559 57.1238 80.4559 56.6535C80.4559 55.8442 79.8708 55.4122 79.3677 55.281V55.2646C79.92 55.0513 80.259 54.592 80.259 54.067C80.259 53.6405 80.095 53.3124 79.8216 53.1046C79.4935 52.8312 79.056 52.7055 78.378 52.7055C77.9022 52.7055 77.432 52.7547 77.1367 52.8203V58.1901L77.1312 58.1955Z"/></svg>