<svg width="240" height="80" viewBox="0 0 240 80" fill="none" xmlns="http://www.w3.org/2000/svg">
<path d="M158.703 42.0977C159.056 40.565 159.908 39.0872 160.869 37.8591C161.217 37.4156 162.216 36.713 162.16 36.1016C162.098 35.4083 161.051 34.5823 160.651 34.0341C159.778 32.8403 159.135 31.435 158.768 30.0028C158.652 29.552 158.253 28.5157 158.509 28.0836C158.754 27.669 159.745 27.8131 160.147 27.8411C161.221 27.9146 162.308 28.0805 163.343 28.3789C163.839 28.5219 164.575 28.9344 165.092 28.8287C165.808 28.6826 166.481 27.3157 166.962 26.7985C168.138 25.5322 169.615 24.4305 171.181 23.6968C170.818 22.8367 170.046 22.1258 169.324 21.5558C165.277 18.3536 158.893 20.3267 157.456 25.3508C156.725 27.9084 157.36 30.7697 158.524 33.1045C158.862 33.7833 159.27 34.46 159.723 35.0683C159.933 35.3502 160.364 35.7233 160.364 36.1026C160.364 36.5347 159.808 37.0187 159.566 37.3431C158.836 38.3193 158.247 39.4064 157.818 40.5474C157.704 40.8479 157.352 41.5091 157.575 41.8148C157.769 42.079 158.406 42.0593 158.703 42.0977ZM159.013 28.4515C159.05 30.235 161.132 29.7054 162.519 30.0515C163.398 30.2712 165.053 31.3998 165.9 31.206C166.518 31.0651 167.268 29.2681 167.684 28.7624C169.056 27.0939 170.695 26.1104 172.522 25.0409C172.874 26.3301 173.391 27.5167 173.536 28.866C173.625 29.6753 173.397 31.0101 173.719 31.7376C173.878 32.0931 174.361 32.1501 174.689 32.263C175.512 32.5501 176.305 32.8931 177.06 33.3263C177.938 33.8289 178.782 34.4072 179.535 35.086C179.781 35.3077 180.17 35.8622 180.558 35.7565C181.007 35.6342 181.291 34.829 181.463 34.4486C182.114 32.9988 182.452 31.3759 182.23 29.7966C181.655 25.699 177.966 23.1155 173.968 23.3963C171.348 23.5808 169.028 25.4233 167.265 27.212C166.746 27.7395 166.018 29.3043 165.345 29.5323C164.886 29.6878 163.918 29.0815 163.45 28.9572C161.96 28.5623 160.545 28.4515 159.013 28.4515ZM171.077 26.2804C171.334 28.0266 171.841 29.5365 171.798 31.3459C171.785 31.8288 171.369 32.9532 171.757 33.3253C172.204 33.7512 173.47 33.7833 174.068 33.9844C175.444 34.4486 176.751 35.173 177.883 36.0819C178.261 36.3855 179.321 37.1099 179.321 37.6436C179.321 38.0747 178.402 38.5441 178.09 38.7535C177.193 39.3535 176.215 39.8592 175.203 40.2323C174.753 40.3971 173.955 40.4821 173.615 40.8303C173.2 41.2552 173.486 42.4708 173.42 43.0293C173.181 45.0564 172.144 46.7798 171.8 48.7156C173.356 49.2141 175.04 49.4244 176.647 49.0358C182.183 47.699 183.503 41.136 180.53 36.827C179.469 35.2891 177.617 34.0476 175.925 33.2983C175.272 33.0081 173.511 32.7553 173.145 32.1521C172.771 31.5355 173.054 30.1945 173.037 29.4878C173.006 28.238 172.659 26.926 172.213 25.7664L171.077 26.2804Z" fill="#FFC72F"/>
<path d="M76.2072 43.1309C77.6647 42.4832 78.9434 41.9578 79.9689 40.65C82.2875 37.6965 81.9619 32.6009 79.0943 30.1366C75.1528 26.7478 68.4284 27.9344 63.6267 27.9344H60.0169C59.4618 27.9344 58.8468 27.8556 58.3723 28.208C57.4368 28.9044 57.8513 31.0319 57.8513 32.0693V54.8123C57.8513 55.9813 57.4027 58.3555 58.0591 59.3503C58.7372 60.3794 61.5065 59.8778 62.5951 59.8778H70.7418C72.8021 59.8778 74.855 59.9701 76.8264 59.2519C78.8256 58.5234 80.5188 57.2248 81.5381 55.3284C84.1058 50.551 81.5205 44.3517 76.2072 43.1309ZM63.42 32.3802H69.5045C71.022 32.3802 72.5798 32.3449 73.9381 33.1398C76.5917 34.6912 76.1958 39.3411 73.629 40.764C72.3793 41.4562 70.9817 41.3744 69.6078 41.3744H63.42V32.3802ZM74.454 54.7843C72.9871 55.5201 71.4045 55.432 69.8136 55.432H63.42V45.301H69.7102C71.3703 45.301 73.0636 45.2606 74.5573 46.1155C77.6926 47.9104 77.7474 53.1324 74.454 54.7843ZM89.752 28.4629C89.3396 27.924 88.679 27.9344 88.066 27.9344H84.4573V57.087C84.4573 57.7886 84.2568 58.8602 84.7302 59.4426C85.1261 59.9286 85.7505 59.8778 86.3128 59.8778H90.025V30.9324C90.025 30.1915 90.2317 29.0878 89.752 28.4629ZM119.732 39.6157C119.315 37.1058 118.382 34.5917 116.79 32.5864C113.318 28.2111 108.358 27.9344 103.225 27.9344H96.0061C95.146 27.9344 93.8766 27.6857 93.274 28.4619C92.816 29.0536 93.0155 30.1262 93.0155 30.8288V59.8778H103.328C105.637 59.8778 107.974 60.0374 110.237 59.5006C118.926 57.4394 121.004 47.2544 119.732 39.6157ZM113.502 49.6442C112.939 51.4059 111.986 53.0433 110.443 54.1128C107.246 56.3305 102.265 55.4331 98.5842 55.4331V32.3802C102.277 32.3802 107.242 31.5169 110.443 33.7699C114.947 36.9389 115.023 44.8813 113.502 49.6442ZM150.723 28.2598C150.61 27.668 148.75 27.9344 148.288 27.9344C146.035 27.9344 143.229 27.4483 141.839 29.692C140.305 32.1698 139.684 35.6166 138.766 38.3753C136.971 43.7745 134.977 49.1281 133.438 54.6061C132.835 53.005 132.473 51.2743 131.926 49.6442C130.342 44.9248 128.755 40.2054 127.182 35.4819C126.643 33.859 126.074 32.2455 125.532 30.6226C125.266 29.8205 125.092 28.8339 124.362 28.3116C123.052 27.3758 120.138 27.9344 118.59 27.9344C118.965 30.4443 120.302 33.0807 121.133 35.4808C123.028 40.9526 124.944 46.4233 126.771 51.9179C127.357 53.6796 127.941 55.4507 128.588 57.1906C128.981 58.2477 129.42 59.2446 130.552 59.6623C131.985 60.1898 133.891 59.8778 135.399 59.8778C135.851 59.8778 136.714 60.0426 137.1 59.7711C137.546 59.4571 137.71 58.4094 137.874 57.913C138.403 56.3212 138.995 54.7491 139.524 53.1573C141.512 47.1788 143.558 41.192 145.716 35.2725C146.361 33.5025 147.104 31.49 148.598 30.2547C149.125 29.8205 150.889 29.1127 150.723 28.2598Z" fill="#016B69"/>
<path d="M170.252 46.3352C169.018 45.5621 167.914 44.4325 167.091 43.2335C166.766 42.7588 166.298 41.4562 165.777 41.2303C165.103 40.938 163.432 41.9909 162.724 42.1847C160.676 42.7464 158.808 42.5671 156.743 42.3039C157.052 40.8033 157.705 39.368 158.496 38.0653C158.82 37.5306 159.684 36.743 159.686 36.1015C159.689 35.3077 158.514 34.118 158.129 33.4133C157.338 31.9687 156.95 30.3655 156.64 28.7613C155.561 28.8566 154.481 29.5738 153.65 30.2308C149.682 33.3615 149.78 39.4001 153.959 42.3329C156.232 43.9278 159.119 44.1371 161.795 43.706C162.639 43.5703 164.306 42.6738 165.085 42.8863C165.51 43.0024 165.793 43.7236 166.026 44.0615C166.722 45.0729 167.548 45.9486 168.498 46.7227C168.761 46.9373 169.235 47.443 169.61 47.3798C169.996 47.3145 170.162 46.6471 170.252 46.3352Z" fill="#FFC72F"/>
<path d="M169.84 48.3001L166.379 45.302L164.881 43.5372L162.003 44.2243L156.95 44.2678C156.95 46.5239 157.539 48.6898 159.146 50.3499C162.447 53.7573 167.858 52.9034 170.621 49.3333C171.929 47.6441 172.551 45.5373 172.802 43.4408C172.885 42.7413 172.559 41.0013 172.997 40.4873C173.423 39.9878 174.696 39.8707 175.307 39.6469C176.577 39.1826 177.722 38.4344 178.814 37.6509C178.637 37.2758 178.269 36.7524 177.782 36.8364C177.233 36.9307 176.616 37.5214 176.132 37.7981C175.266 38.2914 174.31 38.6489 173.348 38.9038C172.922 39.0168 171.879 39.0292 171.598 39.3816C171.382 39.651 171.53 40.137 171.565 40.4417C171.656 41.2107 171.625 42.0459 171.591 42.819C171.5 44.8502 170.599 46.4824 169.84 48.3001Z" fill="#FFC72F"/>
</svg>
