<svg width="40" height="40" viewBox="0 0 40 40" fill="none" xmlns="http://www.w3.org/2000/svg">
<g clip-path="url(#clip0_20_5992)">
<path d="M33.1649 12.0133C33.3998 11.9935 33.6356 12.0022 33.8712 12.0003H38.1739C38.5232 12.0003 38.8743 12.0958 39.1682 12.2874C39.5122 12.5082 39.7783 12.8491 39.9036 13.2387C40.0828 13.7717 39.9911 14.3868 39.6626 14.8434C39.3375 15.3094 38.7802 15.5998 38.2124 15.6017C37.4779 15.6061 36.7434 15.6024 36.0089 15.6035C36.4095 15.7258 36.7648 15.991 36.9928 16.3428C37.2783 16.774 37.3589 17.3312 37.2139 17.8268C37.0509 18.4052 36.5767 18.8806 36.0004 19.0485C36.7328 19.0471 37.4652 19.0483 38.1976 19.048C38.5853 19.0499 38.9723 19.1764 39.2806 19.4127C39.5867 19.6436 39.8166 19.9746 39.922 20.3435C40.0525 20.7872 40.004 21.2814 39.7854 21.6894C39.4978 22.2482 38.8961 22.6294 38.2672 22.6456C36.6444 22.6451 35.0216 22.6454 33.3988 22.6454C32.9413 22.6573 32.4837 22.5038 32.1205 22.2268C31.7904 21.9739 31.5343 21.6224 31.4069 21.2255C31.3321 21.0075 31.3032 20.7766 31.3013 20.5472C31.3018 18.5174 31.3013 16.4876 31.3016 14.4578C31.3039 14.2142 31.29 13.9685 31.3319 13.7273C31.4074 13.2688 31.6444 12.8392 31.9916 12.5308C32.3152 12.2402 32.7318 12.0549 33.1649 12.0133Z" fill="#FF37A5"/>
<path d="M4.77567 12.0314C5.80713 11.9261 6.86846 12.1245 7.78684 12.6079C8.2117 12.8254 8.55779 13.1927 8.74565 13.6316C8.9502 14.1026 8.96854 14.6506 8.80043 15.1354C8.6469 15.5815 8.33325 15.9685 7.93261 16.2168C7.38196 16.5612 6.66696 16.6202 6.06624 16.3745C5.94209 16.3294 5.83276 16.2513 5.70674 16.2106C5.41049 16.1051 5.07239 16.1279 4.79236 16.2701C4.47918 16.4267 4.24148 16.7277 4.16765 17.0702C4.08818 17.4142 4.17776 17.7913 4.40089 18.0643C4.67974 18.4175 5.1702 18.5865 5.60634 18.4699C5.77657 18.4339 5.92023 18.3305 6.08128 18.2698C6.48381 18.1111 6.93594 18.0822 7.35516 18.1896C7.79742 18.2994 8.19782 18.5637 8.47738 18.9232C8.75882 19.282 8.91752 19.7372 8.91282 20.194C8.9194 20.6678 8.74941 21.1397 8.44987 21.506C8.23215 21.7754 7.94343 21.9798 7.62884 22.1215C6.76477 22.5403 5.78527 22.7126 4.82974 22.624C3.72139 22.5266 2.65019 22.0658 1.81528 21.3308C1.16424 20.7625 0.655674 20.0327 0.346963 19.2258C0.108552 18.5985 -0.0130043 17.9258 0.00110287 17.2543C0.00651061 16.166 0.368594 15.0849 1.00788 14.2051C1.45061 13.5933 2.02501 13.0772 2.68075 12.7027C3.32169 12.3352 4.04045 12.1052 4.77567 12.0314Z" fill="#FF37A5"/>
<path d="M14.0168 12.1375C14.4238 11.9821 14.8808 11.9629 15.301 12.0767C15.8782 12.2314 16.3767 12.652 16.6273 13.1944C17.6023 15.2832 18.5757 17.3727 19.5503 19.4617C19.6326 19.6409 19.7252 19.817 19.7765 20.0086C19.9107 20.4725 19.8729 20.9827 19.6752 21.4233C19.5266 21.7586 19.2851 22.0513 18.987 22.2644C18.6324 22.5143 18.1988 22.6561 17.7641 22.646C17.1147 22.6478 16.4757 22.3156 16.1013 21.7854C15.9723 21.6114 15.8881 21.4109 15.7964 21.2162C15.4482 20.4695 15.1004 19.7227 14.7518 18.9762C14.3704 19.7987 13.9857 20.6195 13.6034 21.4414C13.4278 21.8256 13.1323 22.1543 12.766 22.3652C12.3354 22.6194 11.8116 22.705 11.3218 22.6095C10.9205 22.53 10.5403 22.3321 10.2537 22.0386C9.97908 21.769 9.78864 21.417 9.70211 21.0424C9.59796 20.5969 9.64757 20.117 9.84248 19.7027C10.8119 17.6229 11.7817 15.5435 12.7514 13.4636C12.8327 13.2957 12.9014 13.1203 13.0041 12.9638C13.2411 12.5892 13.6016 12.2937 14.0168 12.1375Z" fill="#FF37A5"/>
<path d="M21.4014 12.6157C21.771 12.2397 22.2906 12.0161 22.818 12.006C23.4197 11.982 24.0256 12.2369 24.4271 12.6857C24.7013 12.9862 24.8814 13.3713 24.9336 13.7748C24.9625 14.0012 24.9512 14.2298 24.9533 14.4574C24.9533 14.6861 24.9531 14.9149 24.9536 15.1434C25.3664 14.4322 25.7755 13.7186 26.1884 13.0074C26.4362 12.591 26.8373 12.2696 27.2972 12.117C27.8404 11.9296 28.4613 11.9846 28.9628 12.2656C29.3484 12.4762 29.6623 12.8146 29.8443 13.2148C30.117 13.804 30.0914 14.5213 29.7707 15.0868C29.343 15.8272 28.9167 16.5685 28.4874 17.3079C28.8573 17.9531 29.2306 18.5962 29.6021 19.2404C29.6997 19.4137 29.8088 19.5813 29.8824 19.7668C30.0839 20.2606 30.0813 20.8326 29.8781 21.3254C29.7476 21.6457 29.5365 21.9334 29.2666 22.1502C28.8911 22.4552 28.4063 22.6247 27.9219 22.6106C27.2243 22.6059 26.5467 22.2149 26.1903 21.616C25.7772 20.9024 25.3657 20.1879 24.9531 19.4741C24.9519 19.8583 24.9569 20.2425 24.9505 20.6266C24.9404 21.1658 24.7093 21.6979 24.3171 22.0684C23.8149 22.5661 23.0463 22.762 22.3644 22.5833C21.7656 22.434 21.2481 21.999 20.9953 21.4364C20.8745 21.1731 20.8134 20.8839 20.8094 20.5947V14.1757C20.8063 14.0092 20.8124 13.8421 20.8425 13.6782C20.9152 13.2782 21.1129 12.902 21.4014 12.6157Z" fill="#FF37A5"/>
<path d="M26.17 26.6249C26.1698 25.9118 26.1698 25.1984 26.17 24.4853C26.2542 24.485 26.3384 24.485 26.4228 24.4853C26.4233 24.7919 26.4216 25.0982 26.4235 25.4048C26.4985 25.2856 26.5904 25.1636 26.7287 25.1152C26.9314 25.047 27.1759 25.0747 27.3395 25.2196C27.4898 25.3503 27.5589 25.5513 27.577 25.7448C27.5972 25.987 27.5594 26.2513 27.3985 26.4431C27.1973 26.6923 26.7691 26.7184 26.5505 26.4789C26.5004 26.4285 26.4639 26.3674 26.4244 26.3093C26.4211 26.4144 26.4233 26.5195 26.4228 26.6249H26.17ZM26.76 25.3131C26.5874 25.3489 26.482 25.5153 26.4463 25.6769C26.404 25.8826 26.4251 26.1151 26.5585 26.2851C26.6896 26.4513 26.9549 26.4709 27.1234 26.3524C27.2647 26.2428 27.3202 26.0556 27.3226 25.8833C27.3287 25.7157 27.2854 25.5391 27.1707 25.4128C27.0658 25.3051 26.9015 25.2819 26.76 25.3131Z" fill="#BCBEC0"/>
<path d="M38.8547 24.4968C38.9389 24.4968 39.0231 24.4966 39.1077 24.4971C39.1075 24.8956 39.1075 25.2939 39.1075 25.6926C39.2998 25.502 39.4896 25.3085 39.6831 25.1189C39.7778 25.1206 39.873 25.1192 39.9683 25.1204C39.7501 25.348 39.5274 25.5718 39.3052 25.7954C39.5363 26.0721 39.7679 26.3484 40 26.6244C39.902 26.6247 39.8041 26.6249 39.7068 26.6242C39.5074 26.3792 39.3097 26.133 39.1084 25.8897C39.1061 26.1347 39.1084 26.3797 39.1073 26.6249C39.0228 26.6244 38.9387 26.6247 38.8547 26.6247V24.4968Z" fill="#BCBEC0"/>
<path d="M29.8586 24.6325C29.9439 24.6318 30.0293 24.6321 30.1149 24.6321C30.3187 25.2142 30.5169 25.7983 30.7212 26.3804C30.9286 25.7994 31.1263 25.2149 31.3281 24.6321C31.413 24.6321 31.4983 24.6321 31.5837 24.6318C31.3546 25.296 31.1245 25.9596 30.8957 26.6238C30.7805 26.6259 30.6655 26.6242 30.5505 26.6249C30.3187 25.9612 30.0883 25.297 29.8586 24.6325Z" fill="#BCBEC0"/>
<path d="M31.8599 26.6246C31.8599 25.9604 31.8597 25.2962 31.8602 24.6319C32.099 24.6317 32.3379 24.6324 32.5768 24.6315C32.7228 24.6319 32.8733 24.6705 32.9892 24.7627C33.2481 24.9573 33.2894 25.3509 33.1446 25.627C33.0487 25.8061 32.8512 25.9145 32.652 25.93C32.4686 25.9444 32.2845 25.9333 32.1012 25.9369C32.1007 26.1661 32.1014 26.3953 32.1007 26.6248C32.0203 26.6243 31.9401 26.6246 31.8599 26.6246ZM32.1009 24.8553V25.7194C32.3403 25.7057 32.6045 25.7647 32.8213 25.6345C32.9687 25.5501 32.9967 25.3585 32.9777 25.2045C32.968 25.0845 32.8984 24.9686 32.7865 24.9188C32.5733 24.8146 32.3288 24.8689 32.1009 24.8553Z" fill="#BCBEC0"/>
<path d="M33.5646 24.632C33.854 24.6322 34.1434 24.6313 34.4329 24.6324C34.6073 24.6369 34.7872 24.727 34.8678 24.8868C34.9511 25.0507 34.9558 25.2677 34.8377 25.4163C34.7783 25.4977 34.6863 25.5475 34.5925 25.5781C34.7094 25.6014 34.8279 25.6472 34.9066 25.741C35.0303 25.8687 35.039 26.0664 34.9927 26.2291C34.9452 26.4041 34.7999 26.5454 34.6268 26.5952C34.5417 26.6197 34.4526 26.6248 34.3647 26.6248C34.0981 26.6244 33.8314 26.6246 33.5648 26.6248C33.5643 25.9604 33.5646 25.2962 33.5646 24.632ZM33.8114 24.8436C33.8114 25.0632 33.811 25.2825 33.8119 25.5021C33.9857 25.5003 34.1597 25.5047 34.3336 25.5C34.4613 25.4883 34.6064 25.4326 34.6591 25.3056C34.7002 25.2012 34.6993 25.0726 34.6339 24.9783C34.561 24.8814 34.4324 24.8462 34.3162 24.8436C34.1479 24.8433 33.9796 24.8438 33.8114 24.8436ZM33.8117 25.7018C33.8112 25.9366 33.8114 26.1718 33.8114 26.4071C33.9958 26.4071 34.1803 26.4067 34.3647 26.4074C34.4728 26.4083 34.5857 26.3798 34.6703 26.3098C34.7846 26.2127 34.7964 26.038 34.7496 25.9042C34.6988 25.7683 34.5441 25.7133 34.411 25.7032C34.2112 25.6996 34.0113 25.7029 33.8117 25.7018Z" fill="#BCBEC0"/>
<path d="M35.427 25.3014C35.593 25.0778 35.9264 25.019 36.1699 25.1408C36.2807 25.1981 36.3512 25.3037 36.4189 25.4046C36.4229 25.3096 36.4206 25.2146 36.4213 25.1199C36.5052 25.1196 36.5896 25.1196 36.674 25.1199V26.6246H36.4213C36.4196 26.519 36.425 26.4135 36.4171 26.3084C36.3345 26.4419 36.2254 26.575 36.0686 26.6199C35.8883 26.6672 35.679 26.647 35.5304 26.5266C35.3689 26.4029 35.2899 26.2002 35.2676 26.0034C35.2398 25.7617 35.2765 25.4991 35.427 25.3014ZM35.8563 25.3087C35.6828 25.3413 35.5741 25.5047 35.5372 25.6667C35.4933 25.8617 35.5104 26.0801 35.6214 26.2505C35.7505 26.4605 36.0818 26.4857 36.2541 26.3171C36.3759 26.1906 36.4199 26.0081 36.4156 25.8367C36.41 25.6816 36.3651 25.5189 36.2529 25.4062C36.1518 25.3028 35.9929 25.2769 35.8563 25.3087Z" fill="#BCBEC0"/>
<path d="M37.6406 25.1215C37.8395 25.0461 38.0918 25.0672 38.2488 25.2212C38.3791 25.3414 38.4315 25.5241 38.4372 25.6966C38.4376 26.0058 38.4372 26.3152 38.4374 26.6247H38.1847C38.1844 26.323 38.1847 26.0213 38.1849 25.7199C38.1844 25.5789 38.1209 25.4293 37.9928 25.36C37.8223 25.2668 37.5804 25.2908 37.4532 25.4455C37.3775 25.5337 37.3476 25.6524 37.3497 25.7669C37.3502 26.0529 37.3497 26.3388 37.35 26.6247C37.2656 26.6247 37.1814 26.6244 37.0975 26.6249C37.097 26.1232 37.097 25.6214 37.0975 25.1197C37.1814 25.1199 37.2656 25.1199 37.35 25.1199C37.3505 25.2128 37.3481 25.3059 37.3514 25.399C37.4226 25.284 37.5099 25.1716 37.6406 25.1215Z" fill="#BCBEC0"/>
<path d="M27.7209 25.1194C27.8088 25.1201 27.897 25.1194 27.9852 25.1203C28.126 25.5069 28.2635 25.8948 28.4067 26.2804C28.5628 25.8967 28.7011 25.5055 28.8523 25.1196C28.9397 25.1199 29.0274 25.1194 29.1151 25.1203C28.904 25.6341 28.6936 26.1483 28.4827 26.6622C28.4154 26.808 28.3769 26.9766 28.2574 27.0906C28.1305 27.2143 27.9377 27.2185 27.7747 27.1818C27.7747 27.1191 27.7745 27.0563 27.774 26.9938C27.8869 27.0079 28.0256 27.0159 28.1037 26.915C28.182 26.8033 28.2217 26.6705 28.2762 26.5468C28.0917 26.0709 27.9059 25.5953 27.7209 25.1194Z" fill="#BCBEC0"/>
</g>
<defs>
<clipPath id="clip0_20_5992">
<rect width="40" height="40" fill="white"/>
</clipPath>
</defs>
</svg>
