<svg width="105" height="40" viewBox="0 0 105 40" fill="none" xmlns="http://www.w3.org/2000/svg">
<g clip-path="url(#clip0_20_5864)">
<path d="M87.0578 0.0349186C87.6744 -0.0170479 88.2934 0.00584211 88.9118 0.00089292H100.206C101.124 0.00089292 102.045 0.252065 102.816 0.756264C103.719 1.33718 104.418 2.23422 104.747 3.25932C105.217 4.6618 104.977 6.28018 104.114 7.4816C103.261 8.70776 101.798 9.47179 100.308 9.47674C98.3795 9.4885 96.4514 9.4786 94.5233 9.48169C95.575 9.80339 96.5076 10.5012 97.1062 11.4267C97.8555 12.5613 98.0672 14.0275 97.6864 15.3316C97.2587 16.8535 96.0138 18.1044 94.5011 18.5461C96.4236 18.5424 98.3462 18.5455 100.269 18.5449C101.286 18.5499 102.302 18.8827 103.111 19.5044C103.915 20.1119 104.519 20.983 104.795 21.9537C105.138 23.121 105.011 24.4214 104.437 25.4948C103.682 26.9653 102.102 27.9682 100.451 28.0109C96.1916 28.0096 91.9317 28.0102 87.6719 28.0102C86.4709 28.0418 85.2698 27.6378 84.3163 26.909C83.4497 26.2434 82.7776 25.3185 82.4431 24.2742C82.2468 23.7007 82.1709 23.0932 82.166 22.4894C82.1672 17.1486 82.166 11.8078 82.1666 6.46701C82.1728 5.82609 82.1364 5.17961 82.2462 4.54487C82.4443 3.33851 83.0665 2.20823 83.9781 1.39657C84.8273 0.631915 85.921 0.14442 87.0578 0.0349186Z" fill="#FF37A5"/>
<path d="M12.5361 0.0825913C15.2437 -0.194563 18.0297 0.327577 20.4404 1.59952C21.5557 2.17177 22.4642 3.1381 22.9573 4.29312C23.4943 5.53227 23.5424 6.97434 23.1011 8.25C22.6981 9.42358 21.8748 10.4419 20.8231 11.0952C19.3776 12.0015 17.5008 12.1568 15.9239 11.5103C15.598 11.3915 15.311 11.1861 14.9802 11.0791C14.2025 10.8013 13.315 10.8613 12.5799 11.2356C11.7578 11.6476 11.1339 12.4395 10.9401 13.3409C10.7315 14.2459 10.9666 15.2383 11.5523 15.9565C12.2843 16.8857 13.5718 17.3305 14.7166 17.0237C15.1635 16.929 15.5406 16.6568 15.9634 16.4972C17.02 16.0796 18.2068 16.0035 19.3073 16.2863C20.4682 16.5752 21.5193 17.2705 22.2531 18.2164C22.9919 19.1605 23.4085 20.3582 23.3962 21.5602C23.4134 22.8068 22.9672 24.0484 22.1809 25.0123C21.6094 25.7213 20.8515 26.2589 20.0257 26.6319C17.7575 27.7337 15.1863 28.1872 12.6781 27.954C9.76865 27.6979 6.95675 26.4853 4.76511 24.5514C3.05612 23.0561 1.72115 21.1358 0.910778 19.0126C0.28495 17.3621 -0.0341362 15.5921 0.00289503 13.8253C0.0170903 10.9615 0.967559 8.11699 2.64569 5.802C3.80786 4.19228 5.31565 2.83434 7.03698 1.84883C8.71943 0.881886 10.6062 0.276847 12.5361 0.0825913Z" fill="#FF37A5"/>
<path d="M36.794 0.361895C37.8623 -0.0470323 39.0621 -0.0977615 40.1651 0.201665C41.6802 0.608736 42.9887 1.7155 43.6466 3.14272C46.2061 8.6388 48.7612 14.1367 51.3195 19.6334C51.5355 20.1048 51.7787 20.5682 51.9132 21.0724C52.2656 22.293 52.1663 23.6355 51.6472 24.7948C51.2571 25.677 50.6233 26.4472 49.8407 27.0077C48.91 27.6654 47.7719 28.0384 46.6307 28.0118C44.926 28.0168 43.2485 27.1426 42.266 25.7475C41.9271 25.2897 41.7062 24.762 41.4655 24.2498C40.5514 22.285 39.6386 20.3201 38.7233 18.3559C37.7222 20.52 36.7125 22.6797 35.709 24.8425C35.2479 25.8533 34.4721 26.7182 33.5105 27.2731C32.3805 27.9419 31.0054 28.1671 29.7198 27.9159C28.6662 27.7068 27.6682 27.1859 26.9159 26.4138C26.195 25.7042 25.6951 24.7781 25.468 23.7926C25.1945 22.6203 25.3248 21.3576 25.8364 20.2676C28.3811 14.795 30.927 9.32365 33.4723 3.85108C33.6858 3.40936 33.866 2.94785 34.1357 2.53583C34.7579 1.55032 35.704 0.772678 36.794 0.361895Z" fill="#FF37A5"/>
<path d="M56.1786 1.61996C57.1489 0.630744 58.5128 0.0424089 59.8972 0.0158069C61.4766 -0.0472953 63.0671 0.62332 64.1212 1.80432C64.8409 2.59496 65.3136 3.6083 65.4507 4.66991C65.5266 5.26566 65.4969 5.86699 65.5025 6.46584C65.5025 7.06779 65.5019 7.66973 65.5031 8.27106C66.5869 6.39965 67.6608 4.52205 68.7446 2.65063C69.3951 1.55501 70.448 0.709313 71.6552 0.307809C73.0809 -0.185254 74.7109 -0.0404901 76.0274 0.698796C77.0396 1.25311 77.8635 2.14334 78.3412 3.19628C79.0572 4.74662 78.9899 6.63412 78.1481 8.12197C77.0254 10.0701 75.9064 12.0207 74.7794 13.9663C75.7503 15.6639 76.7304 17.3559 77.7055 19.051C77.9617 19.507 78.248 19.9481 78.4412 20.4362C78.9701 21.7353 78.9634 23.2405 78.4301 24.5372C78.0876 25.3798 77.5333 26.137 76.8248 26.7074C75.8392 27.5098 74.5665 27.9559 73.2951 27.9187C71.4639 27.9064 69.6852 26.8776 68.7495 25.3019C67.6651 23.4243 66.585 21.5442 65.5019 19.666C65.4988 20.6768 65.5118 21.6877 65.4951 22.6986C65.4685 24.1171 64.8619 25.5171 63.8324 26.4921C62.5141 27.8018 60.4965 28.3172 58.7066 27.847C57.1347 27.4541 55.7762 26.3096 55.1128 24.8292C54.7955 24.1363 54.6351 23.3754 54.6246 22.6144V5.7247C54.6165 5.2867 54.6326 4.84684 54.7116 4.41564C54.9023 3.36332 55.4214 2.37348 56.1786 1.61996Z" fill="#FF37A5"/>
<path d="M68.6964 38.4812C68.6958 36.6049 68.6958 34.7279 68.6964 32.8515C68.9174 32.8509 69.1383 32.8509 69.3599 32.8515C69.3611 33.6583 69.3568 34.4644 69.3617 35.2711C69.5586 34.9574 69.7999 34.6363 70.1628 34.5089C70.6949 34.3295 71.3367 34.4025 71.7663 34.7836C72.1607 35.1275 72.3421 35.6565 72.3897 36.1656C72.4427 36.8029 72.3434 37.4982 71.9212 38.003C71.3929 38.6588 70.269 38.7275 69.695 38.0971C69.5636 37.9647 69.4679 37.8038 69.3642 37.651C69.3556 37.9276 69.3611 38.2041 69.3599 38.4812H68.6964ZM70.2449 35.0298C69.7919 35.1238 69.5154 35.5618 69.4216 35.9869C69.3105 36.5282 69.3661 37.14 69.716 37.5873C70.0604 38.0247 70.7566 38.076 71.1991 37.7642C71.57 37.4759 71.7157 36.9835 71.7219 36.53C71.7379 36.0889 71.6244 35.6243 71.3232 35.2921C71.0479 35.0088 70.6165 34.9475 70.2449 35.0298Z" fill="#BCBEC0"/>
<path d="M101.994 32.8825C102.215 32.8825 102.436 32.8819 102.658 32.8831C102.657 33.9317 102.657 34.9797 102.657 36.0289C103.162 35.5272 103.66 35.0181 104.168 34.5194C104.417 34.5238 104.667 34.52 104.917 34.5231C104.344 35.122 103.759 35.7109 103.176 36.2993C103.783 37.0274 104.391 37.7543 105 38.4806C104.743 38.4813 104.486 38.4819 104.23 38.48C103.707 37.8354 103.188 37.1877 102.66 36.5474C102.653 37.192 102.66 37.8366 102.657 38.4819C102.435 38.4806 102.214 38.4813 101.994 38.4813V32.8825Z" fill="#BCBEC0"/>
<path d="M78.3788 33.2394C78.6029 33.2376 78.8269 33.2382 79.0516 33.2382C79.5867 34.7699 80.107 36.3067 80.6433 37.8384C81.1877 36.3098 81.7067 34.7718 82.2363 33.2382C82.4591 33.2382 82.6831 33.2382 82.9072 33.2375C82.306 34.9852 81.7018 36.7311 81.1013 38.4787C80.7988 38.4843 80.497 38.48 80.1952 38.4818C79.5867 36.7354 78.9818 34.9877 78.3788 33.2394Z" fill="#BCBEC0"/>
<path d="M83.6324 38.4812C83.6324 36.7335 83.6317 34.9859 83.633 33.2382C84.26 33.2376 84.8871 33.2394 85.5142 33.2369C85.8974 33.2382 86.2924 33.3396 86.5967 33.5821C87.2762 34.0944 87.3849 35.13 87.0047 35.8563C86.7529 36.3277 86.2344 36.6129 85.7117 36.6537C85.2303 36.6915 84.747 36.6624 84.2656 36.6717C84.2644 37.2749 84.2662 37.878 84.2644 38.4818C84.0533 38.4806 83.8428 38.4812 83.6324 38.4812ZM84.265 33.8259V36.0994C84.8933 36.0635 85.587 36.2188 86.156 35.8761C86.543 35.654 86.6165 35.1498 86.5665 34.7446C86.5412 34.4291 86.3585 34.1241 86.0647 33.9929C85.5049 33.7189 84.863 33.8618 84.265 33.8259Z" fill="#BCBEC0"/>
<path d="M88.107 33.2382C88.8667 33.2388 89.6265 33.2364 90.3862 33.2394C90.8442 33.2512 91.3163 33.4881 91.528 33.9088C91.7465 34.34 91.7589 34.911 91.449 35.302C91.2929 35.5161 91.0516 35.6472 90.8053 35.7277C91.1121 35.7889 91.4231 35.9095 91.6299 36.1564C91.9545 36.4923 91.9774 37.0126 91.8558 37.4407C91.7311 37.901 91.3497 38.2728 90.8954 38.4039C90.672 38.4683 90.4381 38.4819 90.2073 38.4819C89.5074 38.4806 88.8075 38.4813 88.1076 38.4819C88.1063 36.7336 88.107 34.9859 88.107 33.2382ZM88.755 33.795C88.755 34.3728 88.7538 34.95 88.7562 35.5278C89.2123 35.5229 89.6691 35.5346 90.1258 35.5223C90.4609 35.4913 90.8417 35.3447 90.98 35.0106C91.088 34.736 91.0855 34.3976 90.9139 34.1495C90.7226 33.8946 90.385 33.8018 90.0801 33.795C89.6382 33.7944 89.1963 33.7956 88.755 33.795ZM88.7556 36.0531C88.7544 36.6711 88.755 37.2897 88.755 37.909C89.2389 37.909 89.7234 37.9078 90.2073 37.9096C90.4912 37.9121 90.7874 37.8372 91.0096 37.6529C91.3095 37.3974 91.3404 36.9377 91.2176 36.5857C91.0843 36.2281 90.6782 36.0834 90.3288 36.0568C89.8042 36.0475 89.2796 36.0562 88.7556 36.0531Z" fill="#BCBEC0"/>
<path d="M92.9957 34.9995C93.4314 34.4111 94.3066 34.2565 94.946 34.5769C95.2367 34.7279 95.4219 35.0057 95.5996 35.2711C95.6101 35.0211 95.6039 34.7712 95.6058 34.5219C95.8261 34.5213 96.0477 34.5213 96.2693 34.5219V38.4812H95.6058C95.6015 38.2035 95.6157 37.9257 95.5947 37.6492C95.378 38.0005 95.0917 38.3507 94.68 38.4689C94.2066 38.5932 93.6573 38.54 93.2673 38.2233C92.8432 37.8979 92.6359 37.3646 92.5772 36.8468C92.5044 36.2108 92.6007 35.5198 92.9957 34.9995ZM94.1227 35.0187C93.6672 35.1046 93.382 35.5346 93.2851 35.9609C93.1697 36.4737 93.2148 37.0484 93.5061 37.497C93.8449 38.0494 94.7146 38.1156 95.167 37.672C95.4867 37.3392 95.6021 36.8591 95.591 36.4081C95.5761 35.9998 95.4583 35.5717 95.1639 35.2754C94.8985 35.0032 94.4813 34.9351 94.1227 35.0187Z" fill="#BCBEC0"/>
<path d="M98.8065 34.5262C99.3287 34.3276 99.9909 34.3833 100.403 34.7885C100.745 35.1047 100.883 35.5854 100.898 36.0394C100.899 36.853 100.898 37.6671 100.898 38.4813H100.235C100.234 37.6875 100.235 36.8938 100.235 36.1007C100.234 35.7295 100.067 35.336 99.7311 35.1535C99.2836 34.9086 98.6485 34.9717 98.3146 35.3787C98.1159 35.6107 98.0375 35.9231 98.0431 36.2244C98.0443 36.9767 98.0431 37.729 98.0437 38.4813C97.8221 38.4813 97.6011 38.4806 97.3808 38.4819C97.3796 37.1617 97.3796 35.8415 97.3808 34.5213C97.6011 34.5219 97.8221 34.5219 98.0437 34.5219C98.0449 34.7663 98.0387 35.0113 98.0474 35.2562C98.2344 34.9537 98.4634 34.658 98.8065 34.5262Z" fill="#BCBEC0"/>
<path d="M72.7674 34.5206C72.9982 34.5225 73.2296 34.5206 73.4611 34.5231C73.8308 35.5402 74.1918 36.5609 74.5677 37.5755C74.9775 36.5659 75.3404 35.5365 75.7373 34.5212C75.9669 34.5219 76.1971 34.5206 76.4273 34.5231C75.873 35.8749 75.3207 37.2278 74.7671 38.5802C74.5905 38.9638 74.4893 39.4073 74.1758 39.7074C73.8425 40.0328 73.3364 40.0439 72.9087 39.9474C72.9087 39.7822 72.9081 39.6171 72.9068 39.4525C73.2031 39.4896 73.5672 39.5107 73.7721 39.2453C73.9777 38.9514 74.082 38.6019 74.2252 38.2765C73.7407 37.0243 73.2531 35.7728 72.7674 34.5206Z" fill="#BCBEC0"/>
</g>
<defs>
<clipPath id="clip0_20_5864">
<rect width="105" height="40.0004" fill="white"/>
</clipPath>
</defs>
</svg>
