<svg xmlns="http://www.w3.org/2000/svg" width="124" height="40" fill="none" viewBox="0 0 124 40"><g clip-path="url(#clip0_10_36)"><path fill="#000" d="M59.4933 34.7591C59.4933 37.9831 57.2677 39.7168 53.6214 39.7168H46.3487V22.2156H53.0502C56.7014 22.2156 58.9518 23.84 58.9518 26.9796C58.9518 28.8624 57.9235 30.2285 56.6418 30.6855C58.2961 31.227 59.4933 32.8515 59.4933 34.7591ZM52.8216 29.3989C54.5603 29.3989 55.4744 28.7134 55.4744 27.3174C55.4744 25.9215 54.5603 25.2906 52.8216 25.2906H49.8559V29.3939L52.8216 29.3989ZM49.8559 36.6418H53.3035C55.0124 36.6418 55.9265 35.7874 55.9265 34.4461C55.9265 33.075 55.0174 32.2504 53.3035 32.2504H49.8559V36.6418ZM75.3154 26.9747H78.8524V28.1421C79.538 27.3423 80.7898 26.6865 82.2752 26.6865C85.1565 26.6865 86.7809 28.5693 86.7809 31.391V39.7168H83.2439V32.1311C83.2439 30.7899 82.5584 29.8808 81.1624 29.8808C80.0795 29.8808 79.1356 30.5365 78.8524 31.6493V39.7168H75.3154V26.9747ZM93.8599 34.5852L92.8365 35.698V39.7168H89.2995V21.1873H92.8365V31.7089L97.1982 26.9747H101.59L96.4282 32.3895L101.788 39.7168H97.5956L93.8599 34.5852ZM69.374 39.7168L69.0213 38.7233C68.2663 39.692 66.9399 40 65.688 40C63.3234 40 61.0978 38.4848 61.0978 35.9116C61.0978 32.8366 64.0089 31.8679 66.5872 31.8679C67.2975 31.8679 68.306 31.9622 69.0164 32.1262V32.0318C69.0164 30.5663 68.3706 29.6423 66.6219 29.6423C65.2012 29.6423 63.8202 30.1639 62.6825 30.7302L61.689 28.1073C63.4128 27.2529 65.3552 26.7611 67.2926 26.7611C70.77 26.7611 72.5931 28.8177 72.5931 32.1311V39.7218L69.374 39.7168ZM69.0164 34.2722C68.4699 34.153 67.7446 34.0586 67.2479 34.0586C66.0854 34.0586 64.8336 34.5554 64.8336 35.9066C64.8336 36.8505 65.6632 37.4416 66.5574 37.4416C67.4565 37.4416 68.3706 37.1088 69.0114 36.5176L69.0164 34.2722ZM53.5569 0.690512C57.6503 0.690512 60.1639 3.08992 60.8147 6.56234H57.228C56.6319 4.98261 55.5638 3.90959 53.5569 3.90959C50.7898 3.90959 49.1505 6.3388 49.1505 9.64232C49.1505 12.916 50.7898 15.3751 53.5569 15.3751C55.5638 15.3751 56.6319 14.302 57.228 12.6925H60.8147C60.1639 16.1947 57.6503 18.5941 53.5569 18.5941C48.927 18.5941 45.4794 14.9528 45.4794 9.64232C45.4794 4.33184 48.922 0.690512 53.5569 0.690512ZM76.5574 8.50969H74.6349V5.68306H76.5574V2.27024H80.0298V5.68803H82.7968V8.51465H80.0298V14.0487C80.0298 15.0373 80.5663 15.4893 81.4704 15.4893C82.0069 15.4893 82.5981 15.3204 82.9955 15.0671V18.1719C82.5136 18.4252 81.6691 18.5693 80.7352 18.5693C78.1669 18.5693 76.5574 17.2976 76.5574 14.5007V8.50969ZM85.3353 0H88.8375V6.89021C89.5131 6.10035 90.76 5.44958 92.2255 5.44958C95.077 5.44958 96.6865 7.31247 96.6865 10.1093V18.3557H93.1843V10.8445C93.1843 9.51813 92.5087 8.61401 91.1227 8.61401C90.0497 8.61401 89.1207 9.26478 88.8375 10.3626V18.3557H85.3353V0ZM113.487 23.6066L115.509 18.3706L110.681 5.68803H114.382L117.293 14.0735L120.174 5.68803H123.701L116.935 23.6066H113.487ZM70.3626 18.3607L70.0099 17.377C69.2598 18.3358 67.9483 18.6438 66.7064 18.6438C64.3616 18.6438 62.1609 17.1436 62.1609 14.5902C62.1609 11.545 65.0422 10.5862 67.5956 10.5862C68.301 10.5862 69.2995 10.6806 70 10.8445V10.7501C70 9.29955 69.3641 8.38549 67.6304 8.38549C66.2245 8.38549 64.8534 8.90214 63.7307 9.46349L62.7471 6.86041C64.456 6.0159 66.3785 5.52409 68.301 5.52409C71.7437 5.52409 73.5469 7.56085 73.5469 10.8395V18.3607H70.3626ZM70.0049 12.9707C69.4684 12.8515 68.7481 12.762 68.2563 12.762C67.1088 12.762 65.8668 13.2538 65.8668 14.5902C65.8668 15.5291 66.6865 16.1152 67.5757 16.1152C68.465 16.1152 69.3741 15.7874 70.0049 15.2012V12.9707ZM106.696 18.3607L106.344 17.377C105.594 18.3358 104.282 18.6438 103.04 18.6438C100.7 18.6438 98.4948 17.1436 98.4948 14.5902C98.4948 11.545 101.376 10.5862 103.929 10.5862C104.63 10.5862 105.633 10.6806 106.334 10.8445V10.7501C106.334 9.29955 105.698 8.38549 103.964 8.38549C102.558 8.38549 101.187 8.90214 100.065 9.46349L99.081 6.86538C100.79 6.02086 102.712 5.52906 104.63 5.52906C108.073 5.52906 109.876 7.56582 109.876 10.8445V18.3607H106.696ZM106.339 12.9757C105.802 12.8564 105.082 12.762 104.59 12.762C103.443 12.762 102.201 13.2538 102.201 14.5902C102.201 15.5241 103.02 16.1103 103.91 16.1103C104.799 16.1103 105.708 15.7824 106.339 15.1962V12.9757Z"/><path fill="#C13838" d="M33.0899 0.635864H6.09041C2.72727 0.635864 0 3.36314 0 6.72628V33.6215C0 36.9846 2.72727 39.7119 6.09041 39.7119H32.9856C36.3537 39.7119 39.076 36.9846 39.076 33.6215V6.62195C39.076 3.31346 36.3984 0.635864 33.0899 0.635864ZM34.1927 17.7298H17.0939V22.613H34.1927V32.2951C34.1927 33.691 33.0601 34.8236 31.6642 34.8236H7.41182C6.0159 34.8236 4.88326 33.691 4.88326 32.2951V8.04769C4.88326 6.65176 6.0159 5.51912 7.41182 5.51912H31.6642C33.0601 5.51912 34.1927 6.65176 34.1927 8.04769V17.7298ZM31.7188 9.2151V15.2608H14.62V25.0919H31.7188V31.1376C31.7188 31.8132 31.1724 32.3597 30.4968 32.3597H8.57924C7.90363 32.3597 7.35718 31.8132 7.35718 31.1376V9.2151C7.35718 8.53949 7.90363 7.99304 8.57924 7.99304H30.5017C31.1724 7.99304 31.7188 8.53949 31.7188 9.2151Z"/></g><defs><clipPath id="clip0_10_36"><rect width="123.701" height="40" fill="#fff"/></clipPath></defs></svg>