<svg width="240" height="80" viewBox="0 0 240 80" fill="none" xmlns="http://www.w3.org/2000/svg">
<path d="M117.643 54.7591C117.643 57.9831 115.417 59.7168 111.771 59.7168H104.498V42.2156H111.2C114.851 42.2156 117.101 43.84 117.101 46.9796C117.101 48.8624 116.073 50.2285 114.791 50.6855C116.446 51.227 117.643 52.8515 117.643 54.7591ZM110.971 49.3989C112.71 49.3989 113.624 48.7134 113.624 47.3174C113.624 45.9215 112.71 45.2906 110.971 45.2906H108.005V49.3939L110.971 49.3989ZM108.005 56.6418H111.453C113.162 56.6418 114.076 55.7874 114.076 54.4461C114.076 53.075 113.167 52.2504 111.453 52.2504H108.005V56.6418ZM133.465 46.9747H137.002V48.1421C137.688 47.3423 138.939 46.6865 140.425 46.6865C143.306 46.6865 144.93 48.5693 144.93 51.391V59.7168H141.393V52.1311C141.393 50.7899 140.708 49.8808 139.312 49.8808C138.229 49.8808 137.285 50.5365 137.002 51.6493V59.7168H133.465V46.9747ZM152.009 54.5852L150.986 55.698V59.7168H147.449V41.1873H150.986V51.7089L155.348 46.9747H159.739L154.578 52.3895L159.938 59.7168H155.745L152.009 54.5852ZM127.524 59.7168L127.171 58.7233C126.416 59.692 125.089 60 123.838 60C121.473 60 119.247 58.4848 119.247 55.9116C119.247 52.8366 122.158 51.8679 124.737 51.8679C125.447 51.8679 126.456 51.9622 127.166 52.1262V52.0318C127.166 50.5663 126.52 49.6423 124.771 49.6423C123.351 49.6423 121.97 50.1639 120.832 50.7302L119.839 48.1073C121.562 47.2529 123.505 46.7611 125.442 46.7611C128.92 46.7611 130.743 48.8177 130.743 52.1311V59.7218L127.524 59.7168ZM127.166 54.2722C126.619 54.153 125.894 54.0586 125.397 54.0586C124.235 54.0586 122.983 54.5554 122.983 55.9066C122.983 56.8505 123.813 57.4416 124.707 57.4416C125.606 57.4416 126.52 57.1088 127.161 56.5176L127.166 54.2722ZM111.706 20.6905C115.8 20.6905 118.313 23.0899 118.964 26.5623H115.378C114.781 24.9826 113.713 23.9096 111.706 23.9096C108.939 23.9096 107.3 26.3388 107.3 29.6423C107.3 32.916 108.939 35.3751 111.706 35.3751C113.713 35.3751 114.781 34.302 115.378 32.6925H118.964C118.313 36.1947 115.8 38.5941 111.706 38.5941C107.076 38.5941 103.629 34.9528 103.629 29.6423C103.629 24.3318 107.072 20.6905 111.706 20.6905ZM134.707 28.5097H132.784V25.6831H134.707V22.2702H138.179V25.688H140.946V28.5147H138.179V34.0487C138.179 35.0373 138.716 35.4893 139.62 35.4893C140.156 35.4893 140.748 35.3204 141.145 35.0671V38.1719C140.663 38.4252 139.819 38.5693 138.885 38.5693C136.316 38.5693 134.707 37.2976 134.707 34.5007V28.5097ZM143.485 20H146.987V26.8902C147.663 26.1003 148.91 25.4496 150.375 25.4496C153.227 25.4496 154.836 27.3125 154.836 30.1093V38.3557H151.334V30.8445C151.334 29.5181 150.658 28.614 149.272 28.614C148.199 28.614 147.27 29.2648 146.987 30.3626V38.3557H143.485V20ZM171.637 43.6066L173.659 38.3706L168.83 25.688H172.531L175.442 34.0735L178.323 25.688H181.85L175.084 43.6066H171.637ZM128.512 38.3607L128.159 37.377C127.409 38.3358 126.098 38.6438 124.856 38.6438C122.511 38.6438 120.31 37.1436 120.31 34.5902C120.31 31.545 123.192 30.5862 125.745 30.5862C126.451 30.5862 127.449 30.6806 128.15 30.8445V30.7501C128.15 29.2996 127.514 28.3855 125.78 28.3855C124.374 28.3855 123.003 28.9021 121.88 29.4635L120.897 26.8604C122.606 26.0159 124.528 25.5241 126.451 25.5241C129.893 25.5241 131.696 27.5609 131.696 30.8395V38.3607H128.512ZM128.154 32.9707C127.618 32.8515 126.898 32.762 126.406 32.762C125.258 32.762 124.016 33.2538 124.016 34.5902C124.016 35.5291 124.836 36.1152 125.725 36.1152C126.614 36.1152 127.524 35.7874 128.154 35.2012V32.9707ZM164.846 38.3607L164.493 37.377C163.743 38.3358 162.432 38.6438 161.19 38.6438C158.85 38.6438 156.644 37.1436 156.644 34.5902C156.644 31.545 159.526 30.5862 162.079 30.5862C162.779 30.5862 163.783 30.6806 164.483 30.8445V30.7501C164.483 29.2996 163.847 28.3855 162.114 28.3855C160.708 28.3855 159.337 28.9021 158.214 29.4635L157.23 26.8654C158.939 26.0209 160.862 25.5291 162.779 25.5291C166.222 25.5291 168.025 27.5658 168.025 30.8445V38.3607H164.846ZM164.488 32.9757C163.952 32.8564 163.231 32.762 162.74 32.762C161.592 32.762 160.35 33.2538 160.35 34.5902C160.35 35.5241 161.17 36.1103 162.059 36.1103C162.948 36.1103 163.857 35.7824 164.488 35.1962V32.9757Z" fill="black"/>
<path d="M91.2395 20.6359H64.2399C60.8768 20.6359 58.1495 23.3631 58.1495 26.7263V53.6215C58.1495 56.9846 60.8768 59.7119 64.2399 59.7119H91.1351C94.5032 59.7119 97.2255 56.9846 97.2255 53.6215V26.622C97.2255 23.3135 94.5479 20.6359 91.2395 20.6359ZM92.3423 37.7298H75.2434V42.613H92.3423V52.2951C92.3423 53.691 91.2096 54.8236 89.8137 54.8236H65.5614C64.1654 54.8236 63.0328 53.691 63.0328 52.2951V28.0477C63.0328 26.6518 64.1654 25.5191 65.5614 25.5191H89.8137C91.2096 25.5191 92.3423 26.6518 92.3423 28.0477V37.7298ZM89.8684 29.2151V35.2608H72.7695V45.0919H89.8684V51.1376C89.8684 51.8132 89.3219 52.3597 88.6463 52.3597H66.7288C66.0532 52.3597 65.5067 51.8132 65.5067 51.1376V29.2151C65.5067 28.5395 66.0532 27.993 66.7288 27.993H88.6513C89.3219 27.993 89.8684 28.5395 89.8684 29.2151Z" fill="#C13838"/>
</svg>
