<svg width="240" height="80" viewBox="0 0 240 80" fill="none" xmlns="http://www.w3.org/2000/svg">
<mask id="mask0_13_13313" style="mask-type:luminance" maskUnits="userSpaceOnUse" x="129" y="24" width="15" height="16">
<path d="M129.108 24.1204V31.9057C129.108 32.3836 129.371 32.8367 129.824 33.0674L143.072 39.6911V31.9057L135.287 28.0172L129.824 25.2902C129.371 25.0595 129.108 24.6064 129.108 24.1286V24.1204Z" fill="white"/>
</mask>
<g mask="url(#mask0_13_13313)">
<path d="M143.072 24.1204H129.108V39.6829H143.072V24.1204Z" fill="url(#paint0_linear_13_13313)"/>
</g>
<mask id="mask1_13_13313" style="mask-type:luminance" maskUnits="userSpaceOnUse" x="143" y="24" width="15" height="12">
<path d="M143.064 31.9057L150.849 35.7943L156.311 33.0674C156.764 32.8367 157.028 32.3836 157.028 31.9057C157.028 31.708 156.987 31.5103 156.888 31.329C156.764 31.0819 156.558 30.8759 156.311 30.7523L143.064 24.1286V31.914V31.9057Z" fill="white"/>
</mask>
<g mask="url(#mask1_13_13313)">
<path d="M154.156 18.4853L138.35 26.5352L145.947 41.4525L161.753 33.4026L154.156 18.4853Z" fill="url(#paint1_linear_13_13313)"/>
</g>
<mask id="mask2_13_13313" style="mask-type:luminance" maskUnits="userSpaceOnUse" x="143" y="31" width="15" height="17">
<path d="M157.028 31.9057C157.028 32.3835 156.764 32.8366 156.311 33.0673L150.849 35.8025L143.064 39.6911V47.4764L156.311 40.8527C156.764 40.622 157.028 40.1689 157.028 39.6911V31.9057Z" fill="white"/>
</mask>
<g mask="url(#mask2_13_13313)">
<path d="M157.028 31.9057H143.064V47.4682H157.028V31.9057Z" fill="url(#paint2_linear_13_13313)"/>
</g>
<mask id="mask3_13_13313" style="mask-type:luminance" maskUnits="userSpaceOnUse" x="129" y="12" width="22" height="17">
<path d="M143.064 16.3349L129.816 22.9587C129.569 23.0822 129.363 23.2882 129.239 23.5436C129.149 23.7331 129.108 23.9308 129.108 24.1203C129.108 24.5981 129.371 25.0512 129.824 25.2819L135.287 28.0171L143.072 24.1285L150.033 27.6052V12.8583L143.072 16.3349H143.064Z" fill="white"/>
</mask>
<g mask="url(#mask3_13_13313)">
<path d="M150.033 12.8583H129.108V28.0089H150.033V12.8583Z" fill="url(#paint3_radial_13_13313)"/>
</g>
<path d="M94.5966 50.1785C92.8748 50.1785 91.6308 50.055 90.8563 49.816C90.1231 49.5689 89.5052 48.984 88.9944 48.0695C88.7473 47.5999 88.5413 47.1633 88.393 46.7678C88.2447 46.3724 88.1212 45.9934 88.0141 45.6227C87.9152 45.2602 87.8493 44.8977 87.8163 44.5517C87.7834 44.2056 87.7669 43.8184 87.7669 43.39C87.7669 42.6403 87.8411 41.9153 87.9811 41.2068C88.1212 40.5066 88.4178 39.7651 88.8626 38.9907C89.3075 38.2163 89.9748 37.689 90.8481 37.4006C91.7214 37.1123 92.8418 36.9722 94.2094 36.9722H97.1505C97.5954 36.9722 98.0156 36.7416 98.2545 36.3544L101.006 31.8973H92.5864C90.601 31.8973 88.8791 32.1774 87.4044 32.7212C85.9297 33.2732 84.7928 34.2288 83.9854 35.5964C83.2028 36.9393 82.6755 38.2492 82.4037 39.5262C82.1318 40.7949 82 42.1625 82 43.6125C82 45.0624 82.1483 46.4383 82.4531 47.7976C82.7579 49.157 83.2852 50.4834 84.0514 51.7933C84.4468 52.4441 84.8752 52.9879 85.353 53.4327C85.8309 53.8776 86.3828 54.2319 87.0172 54.4955C87.6516 54.7509 88.3766 54.9486 89.2004 55.0722C90.0243 55.1958 90.9717 55.2534 92.0427 55.2534H97.8508C98.3039 55.2534 98.7159 55.0228 98.9548 54.6356L101.706 50.1785H94.5884H94.5966Z" fill="#005BAA"/>
<path d="M119.757 39.032C119.757 39.7158 119.452 40.2101 118.851 40.5396C118.241 40.8609 117.302 41.0257 116.017 41.0257H114.221C113.776 41.0257 113.364 41.2564 113.133 41.6354L110.365 46.1089V36.9806H116.173C117.5 36.9806 118.439 37.1124 118.999 37.5161C119.551 37.9116 119.806 38.4223 119.765 39.0402M119.114 55.2536C120.663 55.2536 121.891 55.1218 122.805 54.8581C123.72 54.6027 124.519 53.9601 125.211 52.9138C125.886 51.8428 126.232 50.7059 126.232 49.4949C126.191 47.8801 125.779 46.5867 125.005 45.6145C124.23 44.6342 123.291 43.9833 122.187 43.6538C123.868 43.1265 124.964 41.4706 125.277 40.0124C125.359 39.6004 125.425 39.2297 125.466 38.9167C125.507 38.5954 125.532 38.3235 125.532 38.0928C125.532 37.3266 125.425 36.5769 125.211 35.8437C124.997 35.1105 124.585 34.3772 123.967 33.6605C123.67 33.2898 123.349 32.9932 122.995 32.7625C122.649 32.5318 122.245 32.3588 121.784 32.227C121.331 32.1034 120.803 32.0128 120.218 31.9716C119.633 31.9304 119.518 31.9057 118.785 31.9057H104.59V55.2536H119.106H119.114ZM116.346 46.1089C117.862 46.1089 118.933 46.1995 119.567 46.5867C120.202 46.9739 120.498 47.5012 120.457 48.1602C120.457 48.5145 120.342 48.8852 120.111 49.2724C119.881 49.6596 119.543 49.9068 119.098 50.0139C118.637 50.1292 117.936 50.1869 117.014 50.1869H110.373V46.1089H116.354H116.346Z" fill="#005BAA"/>
<path d="M87.0913 60.0153V65.6587H86.4899C86.3993 65.6587 86.3252 65.6422 86.2593 65.6092C86.1934 65.5763 86.1357 65.5269 86.078 65.4527L83.2687 61.869C83.2687 61.9596 83.2852 62.0502 83.2852 62.1408C83.2852 62.2315 83.2852 62.3056 83.2852 62.388V65.6504H82.2554V60.0071H82.8732C82.9227 60.0071 82.9639 60.0071 82.9968 60.0071C83.0298 60.0071 83.0627 60.0236 83.0957 60.0318C83.1204 60.0483 83.1534 60.0647 83.1781 60.0895C83.2028 60.1142 83.2357 60.1389 83.2605 60.1801L86.0945 63.7721C86.0863 63.6732 86.078 63.5826 86.0698 63.4837C86.0698 63.3931 86.0698 63.3025 86.0698 63.2201V59.9906H87.0996L87.0913 60.0153Z" fill="#005BAA"/>
<path d="M89.5464 63.5085C89.7689 63.5085 89.9336 63.4508 90.0325 63.3437C90.1396 63.2366 90.189 63.0883 90.189 62.9153C90.189 62.7341 90.1396 62.5858 90.0325 62.4787C89.9254 62.3716 89.7606 62.3222 89.5464 62.3222C89.3322 62.3222 89.1675 62.3716 89.0604 62.4787C88.9533 62.5858 88.9038 62.7258 88.9038 62.9153C88.9038 63.0883 88.9533 63.2284 89.0604 63.3437C89.1675 63.4591 89.324 63.5085 89.5464 63.5085ZM90.5598 65.8235C90.5598 65.7576 90.5351 65.6999 90.4939 65.6505C90.4527 65.6093 90.395 65.5681 90.3209 65.5434C90.2467 65.5187 90.1561 65.5022 90.0572 65.4857C89.9584 65.4775 89.8513 65.461 89.7359 65.461C89.6206 65.461 89.5052 65.4528 89.3817 65.4445C89.2581 65.4445 89.1427 65.4281 89.0274 65.4116C88.9368 65.4693 88.8626 65.5269 88.805 65.6011C88.7473 65.6752 88.7143 65.7576 88.7143 65.8482C88.7143 65.9141 88.7308 65.9718 88.7638 66.0295C88.7967 66.0789 88.8462 66.1283 88.9121 66.1695C88.9862 66.2107 89.0768 66.2354 89.1922 66.2601C89.3075 66.2849 89.4476 66.2931 89.6206 66.2931C89.7936 66.2931 89.9501 66.2849 90.0655 66.2601C90.189 66.2354 90.2879 66.2025 90.362 66.1613C90.4362 66.1201 90.4939 66.0707 90.5268 66.0048C90.5598 65.9471 90.5762 65.8812 90.5762 65.807M91.639 61.7619V62.1574C91.639 62.2151 91.6225 62.2727 91.5896 62.3057C91.5566 62.3386 91.499 62.3716 91.4166 62.3881L91.087 62.454C91.1282 62.5775 91.1529 62.7176 91.1529 62.8659C91.1529 63.0636 91.1117 63.2449 91.0294 63.4014C90.947 63.5579 90.8399 63.698 90.6916 63.8133C90.5515 63.9287 90.3785 64.011 90.189 64.0769C89.9913 64.1346 89.7854 64.1676 89.5547 64.1676C89.4146 64.1676 89.2746 64.1593 89.151 64.1346C89.0439 64.2005 88.9862 64.2747 88.9862 64.3571C88.9862 64.4394 89.0192 64.4889 89.0933 64.5218C89.1675 64.5548 89.2663 64.5795 89.3817 64.596C89.5052 64.6124 89.6371 64.6207 89.7936 64.6207C89.9501 64.6207 90.1067 64.6372 90.2632 64.6454C90.4197 64.6619 90.5762 64.6784 90.7328 64.7113C90.8893 64.7443 91.0211 64.7937 91.1447 64.8678C91.2683 64.942 91.3589 65.0409 91.433 65.1644C91.5072 65.288 91.5401 65.4445 91.5401 65.634C91.5401 65.8153 91.499 65.9883 91.4083 66.153C91.3177 66.3261 91.1941 66.4743 91.0211 66.6062C90.8564 66.738 90.6504 66.8451 90.4032 66.9275C90.1561 67.0098 89.8842 67.0428 89.5711 67.0428C89.2581 67.0428 88.9945 67.0098 88.7638 66.9604C88.5331 66.9027 88.3519 66.8204 88.1953 66.7215C88.047 66.6226 87.9317 66.5155 87.8658 66.3837C87.7916 66.2601 87.7587 66.1283 87.7587 65.9883C87.7587 65.807 87.8164 65.6587 87.9235 65.5352C88.0306 65.4116 88.1871 65.3127 88.3766 65.2386C88.2777 65.1809 88.1953 65.1068 88.1294 65.0161C88.0717 64.9255 88.0388 64.8019 88.0388 64.6536C88.0388 64.5383 88.08 64.4147 88.1706 64.2747C88.2612 64.1429 88.393 64.0358 88.5743 63.9451C88.3683 63.838 88.2036 63.6897 88.0882 63.5085C87.9729 63.3272 87.907 63.113 87.907 62.8659C87.907 62.6682 87.9482 62.4869 88.0306 62.3222C88.1129 62.1656 88.2283 62.0256 88.3683 61.9102C88.5166 61.7949 88.6814 61.7125 88.8791 61.6548C89.0768 61.5972 89.291 61.5642 89.5217 61.5642C89.8677 61.5642 90.1643 61.6301 90.428 61.7619H91.6061H91.639Z" fill="#005BAA"/>
<path d="M94.2506 63.9863C93.987 64.0027 93.7728 64.0192 93.5997 64.0522C93.4267 64.0851 93.2867 64.1263 93.1878 64.1758C93.089 64.2252 93.0148 64.2829 92.9736 64.3488C92.9324 64.4147 92.9077 64.4888 92.9077 64.563C92.9077 64.7195 92.9489 64.8266 93.0395 64.8925C93.1302 64.9584 93.2455 64.9914 93.402 64.9914C93.5833 64.9914 93.7316 64.9584 93.8634 64.8925C93.9952 64.8266 94.127 64.7277 94.2588 64.5959V63.9698L94.2506 63.9863ZM95.0827 61.1193H94.3659C94.3247 61.1193 94.2835 61.111 94.2423 61.0946C94.2012 61.0781 94.16 61.0534 94.1188 61.0204L93.7728 60.6497C93.7728 60.6497 93.748 60.625 93.7316 60.6085C93.7151 60.592 93.6986 60.5755 93.6904 60.5508C93.6574 60.592 93.6327 60.625 93.5997 60.6497L93.2455 61.0204C93.1713 61.0863 93.089 61.1193 93.0066 61.1193H92.2651L93.1713 60.0153H94.1764L95.0827 61.1193ZM92.0674 62.2068C92.3063 61.9926 92.5617 61.836 92.85 61.7289C93.1384 61.6218 93.4432 61.5724 93.7728 61.5724C94.0117 61.5724 94.2259 61.6053 94.4154 61.6877C94.6048 61.7619 94.7614 61.869 94.8932 62.009C95.025 62.1491 95.1239 62.3139 95.198 62.5033C95.2639 62.6928 95.3051 62.907 95.3051 63.1377V65.6587H94.819C94.7202 65.6587 94.6378 65.6422 94.5884 65.6175C94.5389 65.5928 94.4895 65.5269 94.4565 65.4362L94.3742 65.1808C94.2753 65.2715 94.1764 65.3456 94.0776 65.4198C93.9787 65.4857 93.8881 65.5433 93.781 65.5928C93.6821 65.634 93.575 65.6669 93.4597 65.6916C93.3444 65.7164 93.2125 65.7246 93.0725 65.7246C92.8995 65.7246 92.7347 65.6999 92.5864 65.6587C92.4381 65.6092 92.3145 65.5433 92.2074 65.4527C92.1003 65.3621 92.018 65.2468 91.9685 65.1067C91.9109 64.9666 91.8861 64.8101 91.8861 64.6289C91.8861 64.4806 91.9273 64.3323 92.0015 64.184C92.0756 64.0357 92.2074 63.9039 92.3887 63.7803C92.5699 63.665 92.8171 63.5579 93.1219 63.4837C93.4267 63.4013 93.8057 63.3601 94.2671 63.3519V63.1459C94.2671 62.8988 94.2176 62.7093 94.1105 62.594C94.0034 62.4786 93.8469 62.421 93.6492 62.421C93.5009 62.421 93.3773 62.4374 93.2784 62.4704C93.1796 62.5033 93.0972 62.5445 93.0231 62.5857C92.9489 62.6269 92.883 62.6599 92.8171 62.6928C92.7512 62.734 92.677 62.7423 92.5946 62.7423C92.5205 62.7423 92.4546 62.7258 92.4052 62.6846C92.3557 62.6434 92.3145 62.6022 92.2816 62.5528L92.0921 62.215L92.0674 62.2068Z" fill="#005BAA"/>
<path d="M97.1011 62.1163C97.1835 62.0339 97.2659 61.968 97.3483 61.9021C97.4389 61.8361 97.5295 61.7785 97.6284 61.7373C97.7272 61.6879 97.8343 61.6549 97.9414 61.6302C98.0568 61.6055 98.1804 61.5972 98.3122 61.5972C98.5264 61.5972 98.7241 61.6302 98.8889 61.7043C99.0536 61.7785 99.2019 61.8856 99.3173 62.0174C99.4326 62.1492 99.5232 62.314 99.5809 62.5035C99.6386 62.6847 99.6715 62.8907 99.6715 63.1131V65.667H98.6005V63.1131C98.6005 62.8907 98.5511 62.7177 98.444 62.5941C98.3369 62.4705 98.1886 62.4046 97.9826 62.4046C97.8343 62.4046 97.6943 62.4376 97.5542 62.5035C97.4224 62.5694 97.2988 62.66 97.1753 62.7753V65.6588H96.1043V61.6467H96.7633C96.8952 61.6467 96.9858 61.7126 97.0352 61.8361L97.1011 62.1163Z" fill="#005BAA"/>
<path d="M104.376 62.0421C104.45 61.9762 104.532 61.9103 104.615 61.8608C104.697 61.8032 104.788 61.7537 104.878 61.7125C104.969 61.6714 105.068 61.6384 105.175 61.6219C105.282 61.5972 105.389 61.589 105.513 61.589C105.727 61.589 105.925 61.6219 106.089 61.6961C106.262 61.7702 106.402 61.8773 106.518 62.0091C106.633 62.1409 106.724 62.3057 106.781 62.4952C106.839 62.6764 106.872 62.8824 106.872 63.1049V65.6588H105.801V63.1049C105.801 62.8824 105.752 62.7094 105.644 62.5858C105.537 62.4622 105.389 62.3963 105.183 62.3963C105.035 62.3963 104.895 62.4293 104.763 62.4952C104.631 62.5611 104.508 62.6517 104.384 62.7671V65.6505H103.313V59.8506H104.384V62.0338L104.376 62.0421Z" fill="#005BAA"/>
<path d="M109.772 63.9863C109.508 64.0027 109.294 64.0192 109.121 64.0522C108.948 64.0851 108.808 64.1263 108.709 64.1757C108.61 64.2252 108.536 64.2828 108.487 64.3488C108.446 64.4147 108.421 64.4888 108.421 64.563C108.421 64.7195 108.462 64.8266 108.553 64.8925C108.643 64.9584 108.759 64.9914 108.915 64.9914C109.096 64.9914 109.253 64.9584 109.376 64.8925C109.508 64.8266 109.64 64.7277 109.764 64.5959V63.9698L109.772 63.9863ZM108.866 59.9576C108.973 59.9576 109.063 59.9741 109.113 60.0153C109.171 60.0483 109.22 60.1059 109.261 60.1801L109.805 61.1275H109.195C109.113 61.1275 109.047 61.111 108.997 61.0946C108.948 61.0698 108.899 61.0369 108.841 60.9792L107.852 59.9659H108.857L108.866 59.9576ZM107.58 62.2068C107.819 61.9926 108.075 61.836 108.363 61.7289C108.651 61.6218 108.956 61.5724 109.286 61.5724C109.525 61.5724 109.739 61.6053 109.928 61.6877C110.118 61.7619 110.274 61.869 110.406 62.009C110.538 62.1491 110.637 62.3138 110.711 62.5033C110.777 62.6928 110.818 62.907 110.818 63.1377V65.6587H110.324C110.225 65.6587 110.143 65.6422 110.093 65.6175C110.044 65.5928 109.994 65.5269 109.961 65.4362L109.879 65.1808C109.78 65.2715 109.681 65.3456 109.582 65.4198C109.492 65.4857 109.393 65.5433 109.286 65.5928C109.187 65.634 109.08 65.6669 108.965 65.6916C108.849 65.7163 108.717 65.7246 108.577 65.7246C108.404 65.7246 108.24 65.6999 108.091 65.6587C107.943 65.6092 107.819 65.5433 107.712 65.4527C107.605 65.3621 107.523 65.2468 107.473 65.1067C107.416 64.9666 107.391 64.8101 107.391 64.6289C107.391 64.4806 107.432 64.3323 107.506 64.184C107.58 64.0357 107.712 63.9039 107.894 63.7803C108.075 63.665 108.322 63.5579 108.627 63.4837C108.932 63.4013 109.311 63.3601 109.772 63.3519V63.1459C109.772 62.8988 109.722 62.7093 109.615 62.594C109.508 62.4786 109.36 62.421 109.154 62.421C109.006 62.421 108.882 62.4374 108.783 62.4704C108.684 62.5033 108.602 62.5445 108.528 62.5857C108.454 62.6269 108.388 62.6599 108.322 62.6928C108.256 62.734 108.182 62.7423 108.1 62.7423C108.025 62.7423 107.959 62.7258 107.91 62.6846C107.861 62.6434 107.819 62.6022 107.786 62.5528L107.597 62.215L107.58 62.2068Z" fill="#005BAA"/>
<path d="M112.631 62.1163C112.713 62.0339 112.795 61.968 112.878 61.9021C112.968 61.8361 113.059 61.7785 113.158 61.7373C113.257 61.6879 113.364 61.6549 113.471 61.6302C113.586 61.6055 113.71 61.5972 113.842 61.5972C114.056 61.5972 114.254 61.6302 114.418 61.7043C114.591 61.7785 114.731 61.8856 114.847 62.0174C114.962 62.1492 115.053 62.314 115.11 62.5035C115.168 62.6847 115.201 62.8907 115.201 63.1131V65.667H114.13V63.1131C114.13 62.8907 114.081 62.7177 113.974 62.5941C113.866 62.4705 113.718 62.4046 113.512 62.4046C113.364 62.4046 113.224 62.4376 113.084 62.5035C112.952 62.5694 112.828 62.66 112.705 62.7753V65.6588H111.634V61.6467H112.293C112.425 61.6467 112.515 61.7126 112.565 61.8361L112.631 62.1163Z" fill="#005BAA"/>
<path d="M117.475 63.5085C117.697 63.5085 117.854 63.4508 117.961 63.3437C118.068 63.2366 118.118 63.0883 118.118 62.9153C118.118 62.7341 118.068 62.5858 117.961 62.4787C117.854 62.3716 117.689 62.3222 117.475 62.3222C117.261 62.3222 117.096 62.3716 116.989 62.4787C116.882 62.5858 116.832 62.7258 116.832 62.9153C116.832 63.0883 116.882 63.2284 116.989 63.3437C117.096 63.4591 117.252 63.5085 117.475 63.5085ZM118.488 65.8235C118.488 65.7576 118.464 65.6999 118.422 65.6505C118.381 65.6093 118.315 65.5681 118.249 65.5434C118.175 65.5187 118.085 65.5022 117.986 65.4857C117.887 65.4775 117.78 65.461 117.664 65.461C117.549 65.461 117.434 65.4528 117.31 65.4445C117.187 65.4445 117.071 65.4281 116.956 65.4116C116.865 65.4693 116.791 65.5269 116.733 65.6011C116.676 65.6752 116.643 65.7576 116.643 65.8482C116.643 65.9141 116.659 65.9718 116.684 66.0295C116.717 66.0789 116.766 66.1283 116.832 66.1695C116.906 66.2107 116.997 66.2354 117.112 66.2601C117.228 66.2849 117.368 66.2931 117.541 66.2931C117.714 66.2931 117.87 66.2849 117.986 66.2601C118.109 66.2354 118.208 66.2025 118.282 66.1613C118.356 66.1201 118.414 66.0707 118.447 66.0048C118.48 65.9471 118.496 65.8812 118.496 65.807M119.559 61.7619V62.1574C119.559 62.2151 119.543 62.2727 119.51 62.3057C119.477 62.3386 119.419 62.3716 119.337 62.3881L119.007 62.454C119.048 62.5775 119.073 62.7176 119.073 62.8659C119.073 63.0636 119.032 63.2449 118.95 63.4014C118.867 63.5579 118.752 63.698 118.612 63.8133C118.472 63.9287 118.299 64.011 118.109 64.0769C117.912 64.1346 117.706 64.1676 117.475 64.1676C117.335 64.1676 117.203 64.1593 117.071 64.1346C116.964 64.2005 116.906 64.2747 116.906 64.3571C116.906 64.4394 116.939 64.4889 117.014 64.5218C117.088 64.5548 117.187 64.5795 117.302 64.596C117.425 64.6124 117.557 64.6207 117.714 64.6207C117.87 64.6207 118.027 64.6372 118.183 64.6454C118.34 64.6619 118.496 64.6784 118.653 64.7113C118.81 64.7443 118.941 64.7937 119.065 64.8678C119.189 64.942 119.279 65.0409 119.353 65.1644C119.427 65.288 119.46 65.4445 119.46 65.634C119.46 65.8153 119.419 65.9883 119.329 66.153C119.238 66.3261 119.114 66.4743 118.941 66.6062C118.777 66.738 118.571 66.8451 118.323 66.9275C118.076 67.0098 117.804 67.0428 117.491 67.0428C117.178 67.0428 116.915 67.0098 116.692 66.9604C116.462 66.9027 116.28 66.8204 116.124 66.7215C115.975 66.6226 115.86 66.5155 115.794 66.3837C115.72 66.2601 115.687 66.1283 115.687 65.9883C115.687 65.807 115.745 65.6587 115.852 65.5352C115.959 65.4116 116.107 65.3127 116.305 65.2386C116.206 65.1809 116.124 65.1068 116.058 65.0161C116 64.9255 115.967 64.8019 115.967 64.6536C115.967 64.5383 116.008 64.4147 116.099 64.2747C116.19 64.1429 116.322 64.0358 116.503 63.9451C116.297 63.838 116.132 63.6897 116.017 63.5085C115.901 63.3272 115.835 63.113 115.835 62.8659C115.835 62.6682 115.877 62.4869 115.959 62.3222C116.041 62.1656 116.157 62.0256 116.297 61.9102C116.445 61.7949 116.61 61.7125 116.808 61.6548C117.005 61.5972 117.22 61.5642 117.45 61.5642C117.796 61.5642 118.093 61.6301 118.356 61.7619H119.535H119.559Z" fill="#005BAA"/>
<path d="M127.757 65.667H126.587C126.513 65.667 126.447 65.6423 126.397 65.6093C126.348 65.5681 126.315 65.5269 126.282 65.4693L125.063 63.3932C125.063 63.3932 125.038 63.4508 125.03 63.4755C125.021 63.5003 125.005 63.525 124.988 63.5497L123.827 65.4693C123.794 65.5187 123.753 65.5681 123.711 65.6011C123.662 65.6423 123.613 65.6587 123.538 65.6587H122.451L124.296 62.7506L122.517 60.0071H123.687C123.761 60.0071 123.819 60.0154 123.86 60.0401C123.893 60.0648 123.926 60.0978 123.959 60.139L125.17 62.1327C125.17 62.1327 125.194 62.0668 125.211 62.0338C125.227 62.0009 125.244 61.9679 125.269 61.9349L126.356 60.1554C126.389 60.106 126.422 60.0648 126.455 60.0401C126.496 60.0154 126.537 60.0071 126.595 60.0071H127.715L125.919 62.6929L127.757 65.6505V65.667Z" fill="#005BAA"/>
<path d="M130.261 63.9863C129.997 64.0027 129.783 64.0192 129.61 64.0522C129.437 64.0851 129.297 64.1263 129.198 64.1758C129.099 64.2252 129.025 64.2829 128.984 64.3488C128.943 64.4147 128.918 64.4888 128.918 64.563C128.918 64.7195 128.959 64.8266 129.05 64.8925C129.141 64.9584 129.256 64.9914 129.412 64.9914C129.594 64.9914 129.75 64.9584 129.874 64.8925C130.006 64.8266 130.137 64.7277 130.261 64.5959V63.9698V63.9863ZM131.093 61.1193H130.376C130.376 61.1193 130.294 61.111 130.253 61.0946C130.212 61.0781 130.17 61.0534 130.129 61.0204L129.783 60.6497C129.783 60.6497 129.758 60.625 129.742 60.6085C129.726 60.592 129.709 60.5755 129.701 60.5508C129.668 60.592 129.643 60.625 129.61 60.6497L129.256 61.0204C129.182 61.0863 129.099 61.1193 129.017 61.1193H128.276L129.182 60.0153H130.187L131.093 61.1193ZM128.078 62.2068C128.317 61.9926 128.572 61.836 128.86 61.7289C129.149 61.6218 129.454 61.5724 129.783 61.5724C130.022 61.5724 130.236 61.6053 130.426 61.6877C130.615 61.7619 130.772 61.869 130.904 62.009C131.035 62.1491 131.134 62.3139 131.208 62.5033C131.283 62.6928 131.316 62.907 131.316 63.1377V65.6587H130.821C130.722 65.6587 130.64 65.6422 130.591 65.6175C130.533 65.5928 130.492 65.5269 130.459 65.4362L130.376 65.1808C130.277 65.2715 130.179 65.3456 130.08 65.4198C129.989 65.4857 129.89 65.5433 129.783 65.5928C129.684 65.634 129.577 65.6669 129.462 65.6916C129.347 65.7164 129.215 65.7246 129.075 65.7246C128.902 65.7246 128.737 65.6999 128.589 65.6587C128.44 65.6092 128.317 65.5433 128.21 65.4527C128.103 65.3621 128.02 65.2468 127.962 65.1067C127.905 64.9666 127.88 64.8101 127.88 64.6289C127.88 64.4806 127.921 64.3323 127.995 64.184C128.07 64.0357 128.201 63.9039 128.383 63.7803C128.564 63.665 128.811 63.5579 129.116 63.4837C129.421 63.4013 129.8 63.3601 130.261 63.3519V63.1459C130.261 62.8988 130.212 62.7093 130.104 62.594C129.997 62.4786 129.849 62.421 129.643 62.421C129.495 62.421 129.371 62.4374 129.272 62.4704C129.174 62.5033 129.091 62.5445 129.017 62.5857C128.943 62.6269 128.877 62.6599 128.811 62.6928C128.745 62.734 128.671 62.7423 128.589 62.7423C128.514 62.7423 128.449 62.7258 128.399 62.6846C128.35 62.6434 128.308 62.6022 128.276 62.5528L128.086 62.215L128.078 62.2068Z" fill="#005BAA"/>
<path d="M135.657 61.6465L133.491 66.7379C133.458 66.8121 133.416 66.8615 133.367 66.9027C133.317 66.9439 133.243 66.9604 133.136 66.9604H132.337L133.095 65.3456L131.48 61.6548H132.42C132.502 61.6548 132.568 61.6795 132.617 61.7125C132.667 61.7536 132.7 61.7948 132.716 61.8525L133.482 63.7721C133.507 63.8462 133.54 63.9204 133.556 64.0028C133.581 64.0769 133.598 64.1593 133.622 64.2334C133.672 64.0769 133.721 63.9204 133.779 63.7721L134.487 61.8607C134.504 61.8031 134.545 61.7536 134.603 61.7207C134.66 61.6877 134.718 61.663 134.784 61.663H135.641L135.657 61.6465Z" fill="#005BAA"/>
<path d="M142.874 62.8329C142.874 62.5364 142.833 62.2727 142.759 62.0338C142.685 61.7949 142.569 61.5972 142.421 61.4324C142.273 61.2676 142.1 61.1441 141.894 61.0534C141.688 60.9628 141.449 60.9216 141.185 60.9216H140.188V64.736H141.185C141.449 64.736 141.688 64.6948 141.894 64.6042C142.1 64.5218 142.281 64.39 142.421 64.2252C142.569 64.0605 142.676 63.8628 142.759 63.6238C142.833 63.3849 142.874 63.1213 142.874 62.8247M144.077 62.8247C144.077 63.2366 144.011 63.6156 143.871 63.9616C143.731 64.3076 143.533 64.6042 143.286 64.8514C143.031 65.0985 142.726 65.2963 142.372 65.4363C142.017 65.5764 141.622 65.6505 141.185 65.6505H139.01V60.0071H141.185C141.622 60.0071 142.009 60.0731 142.372 60.2213C142.726 60.3614 143.031 60.5591 143.286 60.8063C143.541 61.0534 143.731 61.35 143.871 61.696C144.011 62.042 144.077 62.421 144.077 62.8247Z" fill="#005BAA"/>
<path d="M146.993 66.5732C146.993 66.6556 146.977 66.7297 146.944 66.7956C146.911 66.8615 146.87 66.9274 146.812 66.9769C146.754 67.0263 146.697 67.0675 146.623 67.0922C146.549 67.1252 146.474 67.1416 146.392 67.1416C146.31 67.1416 146.235 67.1252 146.17 67.0922C146.095 67.0675 146.038 67.0263 145.988 66.9769C145.939 66.9274 145.898 66.8615 145.865 66.7956C145.832 66.7297 145.815 66.6556 145.815 66.5732C145.815 66.4908 145.832 66.4167 145.865 66.3508C145.898 66.2848 145.939 66.2189 145.988 66.1695C146.038 66.1201 146.104 66.0789 146.17 66.0459C146.235 66.013 146.31 66.0047 146.392 66.0047C146.474 66.0047 146.549 66.0212 146.623 66.0459C146.697 66.0789 146.754 66.1201 146.812 66.1695C146.87 66.2189 146.911 66.2848 146.944 66.3508C146.977 66.4167 146.993 66.499 146.993 66.5732ZM149.696 61.0369C149.712 61.0864 149.72 61.1523 149.737 61.2264C149.745 61.3006 149.753 61.3829 149.753 61.4653C149.753 61.6383 149.729 61.8031 149.671 61.9596C149.613 62.1162 149.531 62.2562 149.416 62.3716C149.3 62.4869 149.152 62.594 148.979 62.6681C148.798 62.7423 148.592 62.7835 148.345 62.8V65.667H147.685C147.545 65.667 147.463 65.601 147.422 65.4775L147.356 65.1974C147.274 65.2797 147.191 65.3457 147.109 65.4116C147.026 65.4775 146.936 65.5351 146.837 65.5763C146.738 65.6258 146.631 65.6587 146.524 65.6834C146.408 65.7082 146.285 65.7164 146.153 65.7164C145.939 65.7164 145.741 65.6834 145.568 65.601C145.395 65.5269 145.255 65.4198 145.14 65.288C145.024 65.1562 144.942 64.9914 144.876 64.8019C144.818 64.6207 144.785 64.4147 144.785 64.1923V61.6383H145.856V64.1923C145.856 64.4147 145.906 64.5877 146.013 64.7113C146.112 64.8349 146.268 64.9008 146.466 64.9008C146.614 64.9008 146.754 64.8678 146.886 64.8019C147.018 64.736 147.142 64.6454 147.265 64.53V61.6466H148.336V62.3304C148.501 62.3139 148.625 62.2645 148.699 62.1821C148.781 62.0997 148.814 62.0173 148.814 61.9184C148.814 61.8773 148.806 61.8443 148.789 61.8113C148.773 61.7784 148.748 61.7454 148.732 61.7125C148.707 61.6795 148.691 61.6383 148.674 61.5889C148.658 61.5477 148.649 61.49 148.649 61.4324C148.649 61.3088 148.691 61.2099 148.781 61.144C148.864 61.0781 149.004 61.0452 149.185 61.0452H149.704L149.696 61.0369Z" fill="#005BAA"/>
<path d="M151.088 62.1163C151.17 62.0339 151.253 61.968 151.335 61.9021C151.426 61.8361 151.516 61.7785 151.615 61.7373C151.714 61.6879 151.821 61.6549 151.928 61.6302C152.044 61.6055 152.167 61.5972 152.299 61.5972C152.521 61.5972 152.711 61.6302 152.876 61.7043C153.049 61.7785 153.189 61.8856 153.304 62.0174C153.419 62.1492 153.51 62.314 153.568 62.5035C153.625 62.6847 153.658 62.8907 153.658 63.1131V65.667H152.587V63.1131C152.587 62.8907 152.538 62.7177 152.431 62.5941C152.324 62.4705 152.175 62.4046 151.969 62.4046C151.821 62.4046 151.681 62.4376 151.541 62.5035C151.409 62.5694 151.286 62.66 151.162 62.7753V65.6588H150.091V61.6467H150.75C150.882 61.6467 150.973 61.7126 151.022 61.8361L151.088 62.1163Z" fill="#005BAA"/>
<path d="M155.932 63.5085C156.155 63.5085 156.311 63.4508 156.418 63.3437C156.525 63.2366 156.575 63.0883 156.575 62.9153C156.575 62.7341 156.525 62.5858 156.418 62.4787C156.311 62.3716 156.155 62.3222 155.932 62.3222C155.71 62.3222 155.553 62.3716 155.446 62.4787C155.347 62.5858 155.29 62.7258 155.29 62.9153C155.29 63.0883 155.339 63.2284 155.446 63.3437C155.553 63.4591 155.71 63.5085 155.932 63.5085ZM156.945 65.8235C156.945 65.7576 156.921 65.6999 156.88 65.6505C156.838 65.6093 156.772 65.5681 156.707 65.5434C156.632 65.5187 156.542 65.5022 156.443 65.4857C156.344 65.4775 156.237 65.461 156.122 65.461C156.006 65.461 155.891 65.4528 155.767 65.4445C155.644 65.4445 155.528 65.4281 155.405 65.4116C155.314 65.4693 155.24 65.5269 155.182 65.6011C155.125 65.6752 155.092 65.7576 155.092 65.8482C155.092 65.9141 155.108 65.9718 155.133 66.0295C155.166 66.0789 155.215 66.1283 155.281 66.1695C155.347 66.2107 155.446 66.2354 155.553 66.2601C155.668 66.2849 155.809 66.2931 155.982 66.2931C156.155 66.2931 156.303 66.2849 156.426 66.2601C156.55 66.2354 156.649 66.2025 156.723 66.1613C156.797 66.1201 156.855 66.0707 156.888 66.0048C156.921 65.9471 156.937 65.8812 156.937 65.807M158 61.7619V62.1574C158 62.2151 157.984 62.2727 157.951 62.3057C157.918 62.3386 157.86 62.3716 157.778 62.3881L157.448 62.454C157.489 62.5775 157.514 62.7176 157.514 62.8659C157.514 63.0636 157.473 63.2449 157.39 63.4014C157.308 63.5579 157.193 63.698 157.053 63.8133C156.913 63.9287 156.74 64.011 156.55 64.0769C156.352 64.1346 156.146 64.1676 155.924 64.1676C155.784 64.1676 155.644 64.1593 155.52 64.1346C155.413 64.2005 155.355 64.2747 155.355 64.3571C155.355 64.4394 155.388 64.4889 155.463 64.5218C155.537 64.5548 155.636 64.5795 155.751 64.596C155.874 64.6124 156.006 64.6207 156.163 64.6207C156.319 64.6207 156.476 64.6372 156.632 64.6454C156.789 64.6619 156.945 64.6784 157.102 64.7113C157.259 64.7443 157.39 64.7937 157.514 64.8678C157.638 64.942 157.728 65.0409 157.802 65.1644C157.876 65.288 157.918 65.4445 157.918 65.634C157.918 65.8153 157.876 65.9883 157.786 66.153C157.695 66.3261 157.572 66.4743 157.407 66.6062C157.242 66.738 157.036 66.8451 156.789 66.9275C156.542 67.0098 156.27 67.0428 155.957 67.0428C155.644 67.0428 155.38 67.0098 155.158 66.9604C154.927 66.9027 154.746 66.8204 154.589 66.7215C154.441 66.6226 154.326 66.5155 154.26 66.3837C154.186 66.2601 154.153 66.1283 154.153 65.9883C154.153 65.807 154.21 65.6587 154.317 65.5352C154.424 65.4116 154.573 65.3127 154.771 65.2386C154.672 65.1809 154.589 65.1068 154.523 65.0161C154.466 64.9255 154.433 64.8019 154.433 64.6536C154.433 64.5383 154.474 64.4147 154.565 64.2747C154.647 64.1429 154.787 64.0358 154.968 63.9451C154.762 63.838 154.597 63.6897 154.482 63.5085C154.367 63.3272 154.301 63.113 154.301 62.8659C154.301 62.6682 154.342 62.4869 154.424 62.3222C154.507 62.1656 154.622 62.0256 154.762 61.9102C154.911 61.7949 155.075 61.7125 155.273 61.6548C155.471 61.5972 155.685 61.5642 155.916 61.5642C156.253 61.5642 156.558 61.6301 156.822 61.7619H158Z" fill="#005BAA"/>
<defs>
<linearGradient id="paint0_linear_13_13313" x1="129.308" y1="32.1849" x2="143.012" y2="32.1849" gradientUnits="userSpaceOnUse">
<stop stop-color="#007BC1"/>
<stop offset="0.25" stop-color="#2070B8"/>
<stop offset="0.4" stop-color="#2D6CB5"/>
<stop offset="0.46" stop-color="#2767AF"/>
<stop offset="0.8" stop-color="#0A4F93"/>
<stop offset="1" stop-color="#004789"/>
</linearGradient>
<linearGradient id="paint1_linear_13_13313" x1="146.214" y1="23.0061" x2="152.449" y2="35.2475" gradientUnits="userSpaceOnUse">
<stop stop-color="#007BC1"/>
<stop offset="0.25" stop-color="#2070B8"/>
<stop offset="0.4" stop-color="#2D6CB5"/>
<stop offset="0.48" stop-color="#2567AF"/>
<stop offset="0.81" stop-color="#0A579E"/>
<stop offset="1" stop-color="#005198"/>
</linearGradient>
<linearGradient id="paint2_linear_13_13313" x1="157.231" y1="40.1046" x2="143.603" y2="40.1046" gradientUnits="userSpaceOnUse">
<stop stop-color="#007BC1"/>
<stop offset="0.25" stop-color="#2070B8"/>
<stop offset="0.4" stop-color="#2D6CB5"/>
<stop offset="0.46" stop-color="#2767AF"/>
<stop offset="0.8" stop-color="#0A4F93"/>
<stop offset="1" stop-color="#004789"/>
</linearGradient>
<radialGradient id="paint3_radial_13_13313" cx="0" cy="0" r="1" gradientUnits="userSpaceOnUse" gradientTransform="translate(149.34 12.2923) scale(28.3687 28.3687)">
<stop stop-color="#FFCF01"/>
<stop offset="0.7" stop-color="#FBAD18"/>
<stop offset="0.92" stop-color="#F89B1C"/>
<stop offset="1" stop-color="#F7941E"/>
</radialGradient>
</defs>
</svg>
