<svg width="215" height="40" viewBox="0 0 215 40" fill="none" xmlns="http://www.w3.org/2000/svg">
<g clip-path="url(#clip0_8_1266)">
<path d="M189.333 0.000105228C189.158 -0.00210004 188.983 0.030377 188.821 0.0956018C188.658 0.160827 188.51 0.257482 188.386 0.379887C188.261 0.502292 188.163 0.647971 188.097 0.808319C188.031 0.968667 187.998 1.14042 188 1.31351V11H214L202.167 0.000105228H189.333Z" fill="#126BC5"/>
<path d="M215 14.3335C215.002 14.1577 214.97 13.9833 214.904 13.8206C214.839 13.6578 214.743 13.5099 214.62 13.3856C214.498 13.2614 214.352 13.1633 214.192 13.0971C214.031 13.0308 213.86 12.9979 213.686 13.0001H204V39L215 27.1667V14.3335Z" fill="#126BC5"/>
<path d="M200.667 39.9999C200.842 40.0021 201.017 39.9696 201.179 39.9044C201.342 39.8392 201.49 39.7425 201.614 39.6201C201.739 39.4977 201.837 39.352 201.903 39.1917C201.969 39.0313 202.002 38.8596 202 38.6865V29H176L187.833 39.9999H200.667Z" fill="#126BC5"/>
<path d="M175 25.6579C174.998 25.8348 175.03 26.0103 175.096 26.1741C175.161 26.338 175.257 26.4868 175.38 26.6119C175.502 26.7369 175.648 26.8357 175.808 26.9023C175.969 26.969 176.14 27.0021 176.314 26.9999H186V1L175 12.9096V25.6579Z" fill="#126BC5"/>
<path d="M54.7977 5V17.2637H38.0347V5H32V36H38.0347V22.7143H54.7977V36H61V5H54.7977Z" fill="black"/>
<path d="M137 5V35H164L160.625 29.8619H143.244V22.2376H159.95V17.0994H143.244V10.3039H160.456L163.831 5H137Z" fill="black"/>
<path d="M9.66668 5C3.22224 5 0 8.9176 0 14.7088V26.2912C0 32.934 4.23979 36 9.66668 36H29L25.4386 30.2088H10.8538C7.80116 30.2088 6.44442 29.0165 6.44442 25.6099V15.2198C6.44442 11.8132 7.63158 10.4506 11.0234 10.4506H25.6082L29 5H9.66668Z" fill="black"/>
<path d="M109.711 5C106.023 5 102.335 7.2143 102.335 13.0055V14.5385C102.335 20.5 106.023 22.8846 109.543 22.8846H122.283C123.624 22.8846 124.63 23.0549 124.63 25.4395V27.9945C124.63 30.0384 123.624 30.5494 122.116 30.5494H105.353L102 36H122.619C127.647 36 131 33.4451 131 27.6539V25.6099C131 19.989 127.815 17.4341 122.954 17.4341H110.717C109.376 17.4341 108.37 17.0934 108.37 15.0494V12.6648C108.37 10.9615 109.04 10.2802 110.549 10.2802H126.474L129.827 5H109.711Z" fill="black"/>
<path d="M79.4019 5L65 35H71.866L74.7129 28.8674H90.2871L93.134 35H100L85.4306 5H79.4019ZM82.2488 11.2984L87.7751 23.7293H76.7225L82.2488 11.2984Z" fill="black"/>
</g>
<defs>
<clipPath id="clip0_8_1266">
<rect width="215" height="40" fill="white"/>
</clipPath>
</defs>
</svg>
