<svg width="240" height="80" viewBox="0 0 240 80" fill="none" xmlns="http://www.w3.org/2000/svg">
<path d="M201.849 20C201.671 19.9977 201.496 20.031 201.331 20.0977C201.167 20.1645 201.018 20.2635 200.893 20.3888C200.768 20.5141 200.669 20.6632 200.602 20.8273C200.535 20.9915 200.502 21.1673 200.504 21.3445V31.2605H226.723L214.79 20H201.849Z" fill="#126BC5"/>
<path d="M227.563 34.2857C227.565 34.1085 227.532 33.9326 227.465 33.7684C227.398 33.6043 227.3 33.4552 227.174 33.3299C227.049 33.2046 226.9 33.1056 226.736 33.0388C226.572 32.9721 226.396 32.9388 226.218 32.9411H216.302V59.1596L227.563 47.2268V34.2857Z" fill="#126BC5"/>
<path d="M213.277 60C213.454 60.0023 213.63 59.969 213.794 59.9023C213.958 59.8355 214.108 59.7366 214.233 59.6113C214.358 59.486 214.457 59.3368 214.524 59.1727C214.591 59.0085 214.624 58.8327 214.622 58.6555V48.7396H188.403L200.336 60H213.277Z" fill="#126BC5"/>
<path d="M187.563 45.7143C187.561 45.8915 187.594 46.0673 187.661 46.2315C187.727 46.3956 187.826 46.5448 187.952 46.6701C188.077 46.7954 188.226 46.8943 188.39 46.9611C188.554 47.0279 188.73 47.0611 188.907 47.0588H198.823V21.0084L187.563 32.9412V45.7143Z" fill="#126BC5"/>
<path d="M67.7311 24.7059V36.8067H50.9244V24.7059H44.8739V55.2941H50.9244V42.1849H67.7311V55.2941H73.9496V24.7059H67.7311Z" fill="black"/>
<path d="M149.244 24.7059V55.126H176.134L172.773 49.916H155.462V42.1849H172.101V36.9748H155.462V30.084H172.605L175.966 24.7059H149.244Z" fill="black"/>
<path d="M22.0167 24.7059C15.6302 24.7059 12.4369 28.5714 12.4369 34.2857V45.7143C12.4369 52.2689 16.6386 55.2941 22.0167 55.2941H41.1764L37.647 49.5799H23.1932C20.1679 49.5799 18.8234 48.4034 18.8234 45.042V34.7899C18.8234 31.4286 19.9999 30.084 23.3612 30.084H37.815L41.1764 24.7059H22.0167Z" fill="black"/>
<path d="M122.353 24.7059C118.655 24.7059 114.958 26.8908 114.958 32.6051V34.1176C114.958 40 118.655 42.3529 122.185 42.3529H134.958C136.303 42.3529 137.311 42.521 137.311 44.8739V47.3949C137.311 49.4118 136.302 49.916 134.79 49.916H117.983L114.622 55.2941H135.294C140.336 55.2941 143.697 52.7731 143.697 47.0588V45.042C143.697 39.4958 140.504 36.9748 135.63 36.9748H123.361C122.017 36.9748 121.008 36.6386 121.008 34.6218V32.2689C121.008 30.5882 121.681 29.916 123.193 29.916H139.16L142.521 24.7059H122.353Z" fill="black"/>
<path d="M91.7646 24.7059L77.3108 55.1261H84.2015L87.0587 48.9075H102.689L105.546 55.1261H112.437L97.8149 24.7059H91.7646ZM94.6217 31.0925L100.168 43.6975H89.0755L94.6217 31.0925Z" fill="black"/>
</svg>
