<svg width="267" height="40" viewBox="0 0 267 40" fill="none" xmlns="http://www.w3.org/2000/svg">
<g clip-path="url(#clip0_5_8001)">
<path d="M38.4508 39.9999H0V-0.00012207H38.4508V39.9999Z" fill="#790008"/>
<path d="M25.6371 7.55863H5.19385L14.2412 20.0049H34.6844L25.6371 7.55863Z" fill="white"/>
<path d="M34.6838 20.0038H14.2424L5.19507 32.4426H25.6365L34.6838 20.0038Z" fill="#ED1D24"/>
<path d="M131.031 28.359H126.038V22.1895H131.031C133.352 22.1895 134.183 23.7744 134.183 25.2557C134.183 26.7593 133.352 28.359 131.031 28.359ZM126.038 11.6444H130.709C132.67 11.6444 133.834 12.7225 133.834 14.5257C133.834 16.3288 132.67 17.4125 130.709 17.4125H126.038V11.6444ZM135.966 19.6706C137.088 19.0307 138.913 17.235 138.913 14.3038C138.913 9.73396 135.93 6.88964 131.103 6.88964H120.963V33.1044H131.525C136.302 33.1044 139.269 30.1935 139.269 25.5109C139.269 21.9897 137.276 20.3641 135.966 19.6706ZM101.163 23.6394C100.975 23.2954 92.2544 6.8397 92.2544 6.8397H87.3013V33.0527H92.3646V17.3959C92.7539 18.0802 101.163 33.2672 101.163 33.2672C101.163 33.2672 109.519 18.0839 109.894 17.4014V33.0527H114.995V6.8397H110.008C110.008 6.8397 101.344 23.2954 101.163 23.6394ZM75.957 33.1044H81.0541V6.88964H75.957V33.1044ZM67.5355 26.7925C66.0475 28.0224 64.2554 28.6752 62.3549 28.6752C57.7663 28.6752 54.1876 24.86 54.1876 20.0035C54.1876 15.1286 57.7663 11.3281 62.3549 11.3281C64.2554 11.3281 66.0475 11.9772 67.5319 13.2126L67.5977 13.2718L71.1623 9.58047L71.0645 9.50279C68.6413 7.32054 65.5408 6.124 62.3549 6.124C54.9272 6.124 48.8648 12.3527 48.8648 20.0035C48.8648 27.6544 54.9272 33.8738 62.3549 33.8738C65.5408 33.8738 68.6413 32.6754 71.0645 30.4913L71.1623 30.4155L67.5977 26.7334L67.5355 26.7925Z" fill="#790008"/>
<path d="M166.624 11.526C164.966 9.68958 162.644 8.56886 159.625 8.56886C153.308 8.56886 149.55 13.7194 149.55 19.5985C149.55 25.4758 153.308 30.6226 159.625 30.6226C162.155 30.6226 164.573 29.8995 166.418 28.825V20.2865H160.555V17.8989H168.891V30.4025C166.183 32.0965 162.601 32.999 159.625 32.999C152.322 32.999 146.841 27.3474 146.841 19.5985C146.841 11.8533 152.322 6.18872 159.625 6.18872C163.504 6.18872 166.311 7.34458 168.488 9.6193L166.624 11.526Z" fill="#790008"/>
<path d="M184.905 9.14456H178.33V18.5505H184.905C187.772 18.5505 189.824 17.0044 189.824 13.8605C189.824 10.7313 187.772 9.14456 184.905 9.14456ZM189.852 32.3523L184.247 20.9731H178.33V32.3523H175.694V6.69415H185.15C189.442 6.69415 192.457 9.40348 192.457 13.829C192.457 17.5795 190.276 20.0318 187.084 20.7161L192.949 32.3523H189.852Z" fill="#790008"/>
<path d="M209.301 8.56923C202.983 8.56923 199.228 13.7179 199.228 19.597C199.228 25.4743 202.983 30.6211 209.301 30.6211C215.598 30.6211 219.369 25.4743 219.369 19.597C219.369 13.7179 215.598 8.56923 209.301 8.56923ZM209.301 32.9994C201.975 32.9994 196.521 27.3477 196.521 19.597C196.521 11.8519 201.975 6.18724 209.301 6.18724C216.605 6.18724 222.071 11.8519 222.071 19.597C222.071 27.3477 216.605 32.9994 209.301 32.9994Z" fill="#790008"/>
<path d="M244.256 22.8354C244.256 27.0963 242.628 32.9995 235.275 32.9995C227.936 32.9995 226.309 27.0963 226.309 22.8354V6.83834H228.802V22.5506C228.802 29.8981 233.398 30.6212 235.275 30.6212C237.14 30.6212 241.759 29.8981 241.759 22.5506V6.83834H244.256V22.8354Z" fill="#790008"/>
<path d="M259.147 9.14544H252.834V19.3503H259.147C262.221 19.3503 264.369 17.6081 264.369 14.2275C264.369 10.8413 262.221 9.14544 259.147 9.14544ZM259.394 21.7914H252.834V32.3513H250.2V6.69502H259.394C263.876 6.69502 267 9.61888 267 14.2275C267 18.8398 263.876 21.7914 259.394 21.7914Z" fill="#790008"/>
</g>
<defs>
<clipPath id="clip0_5_8001">
<rect width="267" height="40" fill="white"/>
</clipPath>
</defs>
</svg>
