<svg width="156" height="40" viewBox="0 0 156 40" fill="none" xmlns="http://www.w3.org/2000/svg">
<g clip-path="url(#clip0_4_2071)">
<path fill-rule="evenodd" clip-rule="evenodd" d="M61.7623 10.6565C57.1042 3.97814 49.37 0 41.4932 0C33.6164 0 25.889 3.97814 21.2377 10.6565L21 11H26.8668L26.928 10.9313C30.9207 6.76077 36.1356 4.56215 41.4932 4.56215C46.8508 4.56215 52.0658 6.76764 56.0653 10.9313L56.1332 11H62L61.7623 10.6565Z" fill="#E04245"/>
<path fill-rule="evenodd" clip-rule="evenodd" d="M19.1044 32.1418L18.9885 32.2514C17.1762 34.108 15.0845 35.0877 12.9247 35.0877C8.428 35.0877 5.15763 31.6896 5.15763 27.0034C5.15763 22.3173 8.428 18.9191 12.9247 18.9191C15.0845 18.9191 17.1762 19.9057 18.9885 21.7623L19.1044 21.8719L22 18.3505L21.9182 18.2545C19.5132 15.3908 16.6175 14 13.0678 14C9.51812 14 6.24775 15.2126 3.89718 17.3776C1.34221 19.7344 0 23.0572 0 26.9966C0 30.936 1.34221 34.2588 3.89718 36.6155C6.24775 38.8011 9.50449 40 13.0678 40C16.6312 40 19.5132 38.6092 21.9182 35.7386L22 35.6564L19.1044 32.1349V32.1418Z" fill="#1F4889"/>
<path d="M30 15H25V40H30V15Z" fill="#1F4889"/>
<path fill-rule="evenodd" clip-rule="evenodd" d="M49.6968 34.2037C48.3118 35.0324 47.0301 35.4467 45.8794 35.4467C44.2119 35.4467 43.447 34.5773 43.447 32.6414V19.4302H48.7252V14.7434H43.447V7L38.3755 9.67622V14.7434H34V19.4302H38.3755V33.4837C38.3755 37.3078 40.677 39.9297 44.1154 39.9977C46.4444 40.0452 47.8501 39.3592 48.7046 38.8565L48.7597 38.8226L50 34.0203L49.6968 34.2037Z" fill="#1F4889"/>
<path d="M59 15H54V40H59V15Z" fill="#1F4889"/>
<path d="M68.2063 37.0443H68.097L67.8443 39.4195H66V7.49451L68.2131 6V14.4533L68.1038 19.0302C70.5287 17.0287 73.4522 15.354 76.3757 15.354C82.8238 15.354 86 20.0644 86 27.3234C86 35.2963 81.0751 40 75.4057 40C73.1107 40 70.4604 38.8391 68.1995 37.0377L68.2063 37.0443ZM83.6844 27.3434C83.6844 21.5722 81.5806 17.2755 76.0342 17.2755C73.6503 17.2755 71.0273 18.6433 68.2131 21.1452V35.0695C70.8361 37.2712 73.4658 38.0918 75.2896 38.0918C80.1735 38.0918 83.6776 33.7084 83.6776 27.3434H83.6844Z" fill="#1F4889"/>
<path d="M89 33.4827C89 28.1903 93.8921 25.6727 104.752 24.5019C104.821 20.8406 103.794 16.922 98.9923 16.922C95.6962 16.922 92.8512 18.5057 91.2136 19.7171L90.1796 18.0929C91.9075 16.9017 95.2938 15 99.2629 15C105.05 15 107 19.0945 107 24.1906V39.4044H105.099L104.856 36.3116H104.745C102.254 38.2742 99.2837 40 96.0779 40C92.2128 40 89 37.9494 89 33.4759V33.4827ZM104.752 34.2745V26.1735C94.7247 27.3037 91.2968 29.5777 91.2968 33.3744C91.2968 36.7921 93.6631 38.105 96.4734 38.105C99.2837 38.105 101.733 36.7853 104.752 34.2745Z" fill="#1F4889"/>
<path d="M113 15.5855H114.897L115.139 19.2118H115.25C117.735 16.8298 120.269 15 123.634 15C128.667 15 131 17.9343 131 23.9825V39H128.757V24.2686C128.757 19.305 127.123 16.9429 123.205 16.9429C120.304 16.9429 118.199 18.4134 115.243 21.341V39H113V15.5855Z" fill="#1F4889"/>
<path d="M140.189 6V30.5373H140.298L152.141 15.9815H154.691L146.877 25.4851L156 40H153.539L145.575 27.1305L140.189 33.4526V39.9932H138V7.46787L140.189 6Z" fill="#1F4889"/>
</g>
<defs>
<clipPath id="clip0_4_2071">
<rect width="156" height="40" fill="white"/>
</clipPath>
</defs>
</svg>
