<svg xmlns="http://www.w3.org/2000/svg" width="40" height="40" fill="none" viewBox="0 0 40 40"><path fill="#E04245" fill-rule="evenodd" d="M39.8478 13.7457C36.8642 9.51821 31.9104 7 26.8653 7C21.8202 7 16.8707 9.51821 13.8915 13.7457L13.7393 13.9631H17.497L17.5361 13.9196C20.0935 11.2797 23.4337 9.8879 26.8653 9.8879C30.2968 9.8879 33.6371 11.284 36.1988 13.9196L36.2423 13.9631H40L39.8478 13.7457Z" clip-rule="evenodd"/><path fill="#1F4889" fill-rule="evenodd" d="M12.1953 27.7982L12.1213 27.8678C10.9644 29.0464 9.62923 29.6683 8.25052 29.6683C5.38002 29.6683 3.29238 27.5111 3.29238 24.5362C3.29238 21.5614 5.38002 19.4041 8.25052 19.4041C9.62923 19.4041 10.9644 20.0304 12.1213 21.2091L12.1953 21.2787L14.0437 19.0431L13.9915 18.9823C12.4562 17.1643 10.6078 16.2814 8.34185 16.2814C6.0759 16.2814 3.98826 17.0512 2.48777 18.4255C0.856801 19.9217 0 22.0311 0 24.5319C0 27.0327 0.856801 29.1421 2.48777 30.6382C3.98826 32.0256 6.0672 32.7868 8.34185 32.7868C10.6165 32.7868 12.4562 31.9039 13.9915 30.0815L14.0437 30.0293L12.1953 27.7938V27.7982Z" clip-rule="evenodd"/><path fill="#1F4889" d="M19.1758 16.5424H15.9095V32.4867H19.1758V16.5424Z"/><path fill="#1F4889" fill-rule="evenodd" d="M31.9713 29.0203C31.0971 29.5509 30.2881 29.8162 29.5618 29.8162C28.5093 29.8162 28.0265 29.2595 28.0265 28.02V19.5607H31.3581V16.5597H28.0265V11.6016L24.8255 13.3152V16.5597H22.0637V19.5607H24.8255V28.5593C24.8255 31.0079 26.2781 32.6867 28.4484 32.7302C29.9185 32.7606 30.8057 32.3214 31.345 31.9995L31.3798 31.9778L32.1627 28.9029L31.9713 29.0203Z" clip-rule="evenodd"/><path fill="#1F4889" d="M37.9428 16.5424H34.6722V32.4867H37.9428V16.5424Z"/></svg>