<svg xmlns="http://www.w3.org/2000/svg" width="254" height="40" fill="none" viewBox="0 0 254 40"><g clip-path="url(#clip0_6_1055)"><path fill="#000" fill-rule="evenodd" d="M9.53575 17.191H14.4374C14.4374 14.1291 12.2882 11 7.31993 11C2.41688 11 0 14.6866 0 18.9993C0 23.5907 2.88695 26.8599 7.6555 26.8599C12.2216 26.8599 14.4388 23.8695 14.4388 20.6689H9.60232C9.40125 21.7138 8.93119 22.8246 7.58757 22.8246C6.17738 22.8246 5.10276 21.7138 5.10276 18.8606C5.10276 16.0775 6.37845 15.174 7.58757 15.174C8.86326 15.174 9.39989 16.2876 9.53575 17.191ZM27.3968 26.5126V15.8688H31.5594V16.7736C32.2985 15.9388 33.3731 15.3127 34.8498 15.3127C36.26 15.3127 37.7368 16.0088 38.2082 16.9823C38.8128 16.0775 40.1564 15.3813 41.6332 15.3813C43.3789 15.3813 44.4535 16.2161 44.9902 17.0509C45.5282 16.2161 46.8704 15.3127 48.2806 15.3127C50.0943 15.3127 51.0344 16.0775 51.7721 17.0509C52.1329 16.5139 52.6148 16.0751 53.1763 15.7723C53.7379 15.4696 54.3623 15.3118 54.996 15.3127C58.1519 15.3127 58.9589 17.4683 58.9589 19.8341V26.5126H54.4593V20.6003C54.4593 19.5554 54.1224 19.1394 53.3847 19.1394C52.6457 19.1394 52.1756 19.8355 52.1756 20.6689V26.5126H47.6095V20.6003C47.6095 19.5554 47.3418 19.1394 46.6028 19.1394C45.8637 19.1394 45.3937 19.8355 45.3937 20.6689V26.5126H40.8941V20.6003C40.8941 19.5554 40.5585 19.1394 39.8195 19.1394C39.147 19.1394 38.6783 19.8355 38.6783 20.6689V26.5126H34.1787V20.6003C34.1787 19.5554 33.8432 19.1394 33.1041 19.1394C32.365 19.1394 31.895 19.8355 31.895 20.6689V26.5126H27.3968ZM83.4022 18.9293V26.5126H78.9026V20.6003C78.9026 19.5554 78.5005 19.1394 77.7614 19.1394C77.0224 19.1394 76.5523 19.8355 76.5523 20.6689V26.5126H72.0527V15.8688H76.2154V16.7736C76.9544 15.9388 78.3646 15.3127 79.5058 15.3127C80.9839 15.2427 83.4022 16.1475 83.4022 18.9293ZM93.7435 26.584C93.5425 25.8178 93.2055 24.8443 92.87 23.6594C92.6023 22.7559 92.3999 21.9912 92.3999 21.5752C92.3999 21.9912 92.2654 22.7573 91.9964 23.6594C91.6609 24.7043 91.3932 25.8178 91.1242 26.5126H86.4236L83.2677 15.8001H88.1028C88.3038 16.4963 88.5049 17.4698 88.8405 18.4432C89.0415 19.278 89.1774 19.9742 89.1774 20.3916C89.1774 19.9742 89.3785 19.278 89.5795 18.4432C89.9165 17.3997 90.1841 16.4949 90.3852 15.8001H94.4812C94.6823 16.4963 94.9513 17.4011 95.2203 18.4432C95.4214 19.278 95.6224 19.9742 95.6224 20.3916C95.6224 19.9742 95.8235 19.278 96.0259 18.4432C96.2949 17.4698 96.5626 16.4949 96.7636 15.8001H101.531L98.4428 26.5126L93.7435 26.584ZM125.841 11.3474H130.34V26.5126H125.841V11.3474ZM138.667 23.1747V26.2338C138.466 26.3739 137.526 26.7913 136.048 26.7913C133.094 26.7913 132.287 25.259 132.287 22.4086V18.5819H130.945V15.59H132.287V11.3474H136.787V15.59H138.599V18.5819H136.787V21.5738C136.787 22.4772 137.055 22.7559 137.389 23.1033C137.662 23.4507 138.399 23.312 138.667 23.1747ZM151.025 18.5119V26.5112H146.525V20.5989C146.525 19.554 146.055 19.138 145.384 19.138C144.643 19.138 144.173 19.8341 144.173 20.6675V26.5112H139.541L139.474 11.416H143.839V16.7022C144.441 15.8674 145.988 15.1712 147.13 15.1712C149.345 15.174 151.025 16.7036 151.025 18.5119ZM188.761 20.1128L186.815 22.0612V26.5126H185.874V11.1387H186.815V21.0163L192.455 15.4514H193.53L189.502 19.4867L194 26.5126H192.995L188.761 20.1128ZM181.242 16.2175C179.496 16.2175 177.951 17.6785 177.951 19.4867V26.5126H177.013V15.5214H177.951V17.3997C178.355 16.7036 179.429 15.3127 181.376 15.3127C184.197 15.3127 185.001 17.4684 185.001 19.208V26.5126H184.062V19.6954C184.062 16.8436 182.651 16.2175 181.242 16.2175ZM161.702 11.4174C164.321 11.4174 165.997 12.9483 165.931 15.104C165.931 16.9823 164.856 18.0258 163.848 18.5133C164.722 18.862 166.668 19.6968 166.668 22.3385C166.602 25.4004 164.386 26.5126 162.237 26.5126H155.99V11.4174H161.702ZM161.5 18.1645C162.843 18.1645 164.992 17.6771 164.924 15.2427C164.924 12.8769 163.178 12.3208 161.836 12.3909H156.936V18.1645H161.5ZM156.934 25.5391H162.104C164.59 25.5391 165.595 24.2182 165.595 22.3385C165.595 20.4616 164.12 19.1394 162.374 19.1394H156.934V25.5391ZM176.609 25.8178V26.4439C176.272 26.6512 175.869 26.6512 175.67 26.6512C175.333 26.6512 174.46 26.4439 174.46 24.7029C173.452 26.1638 172.109 26.7899 170.498 26.7899C168.819 26.7899 167.208 25.9551 167.208 23.5893C167.208 21.2936 169.02 20.7375 169.758 20.5989C170.498 20.4588 172.311 20.1801 172.781 20.1114C173.251 19.9714 174.46 19.9714 174.46 18.8578V17.883C174.46 17.0481 173.855 15.936 171.504 15.936C168.884 15.936 168.416 18.2317 168.416 18.4404H167.678C167.678 17.1196 168.617 15.1712 171.372 15.1712C175.267 15.1712 175.4 17.3283 175.4 18.6491V24.9088C175.399 25.6778 175.802 26.0251 176.609 25.8178ZM174.393 22.4086V20.5288L170.699 21.1549C169.691 21.3622 168.147 21.7811 168.147 23.658C168.147 25.5377 169.558 25.9565 170.766 25.9565C172.578 25.9565 174.393 24.7043 174.393 22.4086ZM20.6828 15.104C24.9812 15.104 26.9946 17.8858 26.9946 21.0163C26.9946 25.1231 23.9053 26.8599 20.8838 26.8599C17.0568 26.8599 14.9075 24.3569 14.9075 21.2278C14.9075 18.2345 16.5188 15.104 20.6828 15.104ZM20.8838 23.8695C22.0929 23.8695 22.294 22.2013 22.294 21.0877C22.294 20.0428 22.0929 18.3732 20.8838 18.3732C19.6747 18.3732 19.5402 20.0414 19.5402 21.0877C19.5402 22.2013 19.6747 23.8695 20.8838 23.8695ZM65.2708 15.104C69.5679 15.104 71.5827 17.8858 71.5827 21.0163C71.5827 25.1231 68.4933 26.8599 65.4718 26.8599C61.6448 26.8599 59.4955 24.3569 59.4955 21.2278C59.4955 18.2345 61.1068 15.104 65.2708 15.104ZM65.4718 23.8695C66.681 23.8695 66.8155 22.2013 66.8155 21.0877C66.8155 20.0428 66.681 18.3732 65.4718 18.3732C64.2627 18.3732 64.0617 20.0414 64.0617 21.0877C64.0617 22.2013 64.2641 23.8695 65.4718 23.8695ZM105.628 22.2013C105.628 23.1047 106.233 23.7994 107.038 23.7994C107.576 23.7994 108.18 23.5921 108.381 23.1761H112.679C111.739 25.6792 109.321 26.8613 106.836 26.8613C103.076 26.8613 100.86 24.3583 100.86 21.2292C100.86 18.2359 102.471 15.1054 106.702 15.1054C111 15.1054 112.947 17.8872 112.947 21.0177C112.947 21.5051 112.947 21.7839 112.88 22.2027L105.628 22.2013ZM108.248 19.4167C108.113 18.722 107.643 18.0959 106.972 18.0959C106.166 18.0959 105.763 18.6519 105.696 19.4167H108.248ZM120.873 26.5126L120.537 25.7464C119.865 26.5126 118.052 27 117.247 27C116.508 27 113.217 26.7213 113.217 23.5235C113.217 19.9055 117.783 19.7655 118.723 19.6268C119.597 19.4867 120.268 19.2094 120.268 18.6533C120.268 18.1659 119.933 17.7485 119.328 17.7485C118.522 17.7485 118.052 18.4432 118.052 19.1394H113.89C113.89 16.4949 116.039 14.9653 119.193 14.9653C124.366 14.9653 124.902 16.775 124.902 19.6954V23.1747C124.902 24.0095 124.902 24.983 125.037 25.6778L125.304 26.5126H120.873ZM118.454 22.5486C117.916 22.8246 117.85 23.1747 118.119 23.5907C118.388 24.0095 119.127 24.0782 119.798 23.5907C120.403 23.1033 120.268 22.2699 120.268 21.9225C119.462 22.2013 118.926 22.3371 118.454 22.5486Z" clip-rule="evenodd"/><path fill="#F2CA30" fill-rule="evenodd" d="M234.03 40L214 20.0326L234.03 0L249 14.9749L242.797 21.2481L234.03 40Z" clip-rule="evenodd"/><path fill="#000" fill-rule="evenodd" d="M234 40L242.784 21.267L249 15L254 20.0526L234 40Z" clip-rule="evenodd"/></g><defs><clipPath id="clip0_6_1055"><rect width="254" height="40" fill="#fff"/></clipPath></defs></svg>