<svg xmlns="http://www.w3.org/2000/svg" width="240" height="80" fill="none" viewBox="0 0 240 80"><path fill="#000" fill-rule="evenodd" d="M21.0287 37.3013H25.1557C25.1557 34.8008 23.3461 32.2455 19.1631 32.2455C15.0349 32.2455 13 35.2561 13 38.778C13 42.5276 15.4307 45.1973 19.4456 45.1973C23.2901 45.1973 25.1569 42.7552 25.1569 40.1415H21.0848C20.9155 40.9948 20.5197 41.9019 19.3884 41.9019C18.2011 41.9019 17.2963 40.9948 17.2963 38.6648C17.2963 36.3919 18.3704 35.6542 19.3884 35.6542C20.4625 35.6542 20.9143 36.5635 21.0287 37.3013ZM36.0669 44.9137V36.2215H39.5717V36.9604C40.194 36.2787 41.0987 35.7674 42.3421 35.7674C43.5294 35.7674 44.7728 36.3359 45.1697 37.1309C45.6787 36.392 46.81 35.8235 48.0534 35.8235C49.5232 35.8235 50.428 36.5052 50.8798 37.1869C51.3328 36.5052 52.4629 35.7674 53.6502 35.7674C55.1773 35.7674 55.9688 36.3919 56.5899 37.1869C56.8937 36.7483 57.2994 36.39 57.7722 36.1428C58.245 35.8955 58.7708 35.7667 59.3043 35.7674C61.9615 35.7674 62.6409 37.5278 62.6409 39.4598V44.9137H58.8525V40.0855C58.8525 39.2321 58.5688 38.8924 57.9477 38.8924C57.3254 38.8924 56.9297 39.4609 56.9297 40.1415V44.9137H53.0852V40.0855C53.0852 39.2321 52.8598 38.8924 52.2376 38.8924C51.6153 38.8924 51.2196 39.4609 51.2196 40.1415V44.9137H47.4311V40.0855C47.4311 39.2321 47.1486 38.8924 46.5263 38.8924C45.9601 38.8924 45.5655 39.4609 45.5655 40.1415V44.9137H41.777V40.0855C41.777 39.2321 41.4945 38.8924 40.8723 38.8924C40.25 38.8924 39.8542 39.4609 39.8542 40.1415V44.9137H36.0669ZM83.2211 38.7208V44.9137H79.4327V40.0855C79.4327 39.2321 79.0941 38.8924 78.4718 38.8924C77.8496 38.8924 77.4538 39.4609 77.4538 40.1415V44.9137H73.6654V36.2215H77.1701V36.9604C77.7924 36.2787 78.9797 35.7674 79.9405 35.7674C81.1851 35.7102 83.2211 36.4491 83.2211 38.7208ZM91.9281 44.972C91.7588 44.3463 91.4752 43.5513 91.1926 42.5836C90.9673 41.8458 90.7969 41.2213 90.7969 40.8816C90.7969 41.2213 90.6836 41.847 90.4571 42.5836C90.1746 43.4369 89.9493 44.3463 89.7228 44.9137H85.765L83.1079 36.1655H87.1788C87.3481 36.734 87.5174 37.5289 87.8 38.3239C87.9692 39.0057 88.0836 39.5741 88.0836 39.915C88.0836 39.5741 88.2529 39.0057 88.4222 38.3239C88.7059 37.4717 88.9312 36.7328 89.1005 36.1655H92.5492C92.7185 36.734 92.945 37.4729 93.1715 38.3239C93.3408 39.0057 93.5101 39.5741 93.5101 39.915C93.5101 39.5741 93.6794 39.0057 93.8498 38.3239C94.0763 37.5289 94.3016 36.7328 94.4709 36.1655H98.4847L95.8847 44.9137L91.9281 44.972ZM118.953 32.5292H122.741V44.9137H118.953V32.5292ZM129.752 42.1879V44.686C129.583 44.8004 128.791 45.1413 127.547 45.1413C125.06 45.1413 124.38 43.8899 124.38 41.5622V38.4372H123.25V35.9939H124.38V32.5292H128.169V35.9939H129.695V38.4372H128.169V40.8804C128.169 41.6182 128.394 41.8458 128.676 42.1295C128.905 42.4132 129.527 42.3 129.752 42.1879ZM140.156 38.38V44.9125H136.368V40.0843C136.368 39.231 135.972 38.8913 135.407 38.8913C134.784 38.8913 134.388 39.4598 134.388 40.1404V44.9125H130.487L130.431 32.5852H134.107V36.9021C134.613 36.2204 135.916 35.6519 136.877 35.6519C138.743 35.6542 140.156 36.9033 140.156 38.38ZM171.929 39.6874L170.29 41.2785V44.9137H169.498V32.3587H170.29V40.4252L175.039 35.8806H175.944L172.553 39.1761L176.34 44.9137H175.493L171.929 39.6874ZM165.598 36.5063C164.128 36.5063 162.828 37.6994 162.828 39.1761V44.9137H162.037V35.9378H162.828V37.4717C163.167 36.9033 164.072 35.7674 165.711 35.7674C168.086 35.7674 168.763 37.5278 168.763 38.9485V44.9137H167.973V39.3465C167.973 37.0176 166.784 36.5063 165.598 36.5063ZM149.146 32.5864C151.351 32.5864 152.763 33.8366 152.707 35.597C152.707 37.1309 151.802 37.983 150.953 38.3811C151.689 38.6659 153.328 39.3477 153.328 41.505C153.272 44.0054 151.406 44.9137 149.597 44.9137H144.337V32.5864H149.146ZM148.977 38.0963C150.107 38.0963 151.916 37.6982 151.859 35.7102C151.859 33.7782 150.389 33.3241 149.259 33.3813H145.133V38.0963H148.977ZM145.132 44.1187H149.485C151.578 44.1187 152.424 43.04 152.424 41.505C152.424 39.9722 151.182 38.8924 149.712 38.8924H145.132V44.1187ZM161.697 44.3463V44.8576C161.414 45.0269 161.074 45.0269 160.907 45.0269C160.623 45.0269 159.888 44.8576 159.888 43.4358C159.039 44.6288 157.909 45.1401 156.552 45.1401C155.139 45.1401 153.782 44.4584 153.782 42.5264C153.782 40.6517 155.308 40.1976 155.929 40.0843C156.552 39.9699 158.078 39.7423 158.474 39.6862C158.87 39.5719 159.888 39.5719 159.888 38.6625V37.8664C159.888 37.1846 159.379 36.2764 157.399 36.2764C155.193 36.2764 154.799 38.1512 154.799 38.3216H154.178C154.178 37.243 154.968 35.6519 157.288 35.6519C160.567 35.6519 160.679 37.4134 160.679 38.4921V43.6039C160.678 44.2319 161.018 44.5156 161.697 44.3463ZM159.832 41.5622V40.0271L156.722 40.5384C155.873 40.7077 154.572 41.0497 154.572 42.5825C154.572 44.1175 155.761 44.4595 156.778 44.4595C158.304 44.4595 159.832 43.4369 159.832 41.5622ZM30.414 35.597C34.0332 35.597 35.7284 37.8687 35.7284 40.4252C35.7284 43.779 33.1272 45.1973 30.5833 45.1973C27.3611 45.1973 25.5515 43.1533 25.5515 40.5979C25.5515 38.1535 26.9081 35.597 30.414 35.597ZM30.5833 42.7552C31.6013 42.7552 31.7706 41.3929 31.7706 40.4835C31.7706 39.6302 31.6013 38.2667 30.5833 38.2667C29.5653 38.2667 29.452 39.6291 29.452 40.4835C29.452 41.3929 29.5653 42.7552 30.5833 42.7552ZM67.9553 35.597C71.5733 35.597 73.2696 37.8687 73.2696 40.4252C73.2696 43.779 70.6685 45.1973 68.1245 45.1973C64.9023 45.1973 63.0927 43.1533 63.0927 40.5979C63.0927 38.1535 64.4494 35.597 67.9553 35.597ZM68.1245 42.7552C69.1426 42.7552 69.2558 41.3929 69.2558 40.4835C69.2558 39.6302 69.1426 38.2667 68.1245 38.2667C67.1065 38.2667 66.9372 39.6291 66.9372 40.4835C66.9372 41.3929 67.1077 42.7552 68.1245 42.7552ZM101.935 41.3929C101.935 42.1307 102.444 42.698 103.122 42.698C103.575 42.698 104.083 42.5287 104.252 42.189H107.871C107.08 44.2331 105.044 45.1985 102.951 45.1985C99.7852 45.1985 97.9196 43.1544 97.9196 40.599C97.9196 38.1546 99.2762 35.5981 102.838 35.5981C106.457 35.5981 108.096 37.8698 108.096 40.4263C108.096 40.8244 108.096 41.052 108.04 41.394L101.935 41.3929ZM104.14 39.1189C104.027 38.5515 103.631 38.0402 103.066 38.0402C102.388 38.0402 102.048 38.4944 101.992 39.1189H104.14ZM114.77 44.9137L114.487 44.288C113.921 44.9137 112.395 45.3117 111.717 45.3117C111.095 45.3117 108.324 45.0841 108.324 42.4727C108.324 39.5181 112.169 39.4037 112.96 39.2905C113.696 39.1761 114.261 38.9496 114.261 38.4955C114.261 38.0974 113.978 37.7566 113.469 37.7566C112.791 37.7566 112.395 38.3239 112.395 38.8924H108.89C108.89 36.7328 110.7 35.4837 113.356 35.4837C117.711 35.4837 118.162 36.9616 118.162 39.3465V42.1879C118.162 42.8696 118.162 43.6646 118.276 44.2319L118.501 44.9137H114.77ZM112.734 41.6766C112.281 41.9019 112.225 42.1878 112.451 42.5276C112.678 42.8696 113.3 42.9256 113.865 42.5276C114.374 42.1295 114.261 41.4489 114.261 41.1653C113.582 41.3929 113.131 41.5038 112.734 41.6766Z" clip-rule="evenodd"/><path fill="#F2CA30" fill-rule="evenodd" stroke="#F2CA30" stroke-miterlimit="2.613" stroke-width=".122" d="M210.264 56.845L193.47 40.0275L210.264 23.155L222.816 35.7676L217.615 41.0513L210.264 56.845Z" clip-rule="evenodd"/><path stroke="#F2CA30" stroke-miterlimit="2.613" stroke-width=".187" d="M222.816 35.881L217.615 41.1072L210.546 56.3903"/><path fill="#000" fill-rule="evenodd" d="M210.264 56.8442L217.615 41.051L222.816 35.7676L227 40.0273L210.264 56.8442Z" clip-rule="evenodd"/></svg>