<svg width="240" height="80" viewBox="0 0 240 80" fill="none" xmlns="http://www.w3.org/2000/svg">
<path d="M15.2954 59.6191H9.95077V43.3828H15.2954C20.9499 43.3828 23.9804 46.1452 23.9804 51.4898C23.9804 56.7889 21.463 59.6191 15.2954 59.6191ZM14.9081 45.8528H13.1556V57.1482H14.8694C19.2845 57.2382 20.7078 55.0829 20.7078 51.5121C20.7078 47.582 18.6649 45.8528 14.9081 45.8528Z" fill="#1C62B7"/>
<path d="M28.8797 52.7698C28.9668 51.2875 29.693 49.9174 31.3681 49.9174C32.9947 49.9174 33.7983 51.1296 33.7305 52.7698H28.8797ZM31.4649 48.009C27.195 48.009 25.7136 51.0406 25.7136 53.892C25.7136 57.2837 27.4177 59.8205 31.0582 59.9328C33.9532 59.956 36.5191 59.0798 36.6933 55.9137H33.7305C33.7305 57.1937 32.6945 58.0244 31.4842 58.0244C29.4413 58.0244 28.7926 56.5198 28.7635 54.6782L36.9451 54.6559C37.1871 51.2875 35.7251 48.009 31.4649 48.009Z" fill="#1C62B7"/>
<path d="M50.084 59.619H47.0244L47.005 57.7775C46.4918 59.2366 45.0685 59.9783 43.3257 59.9783C41.2537 59.9783 39.2979 58.7205 39.2785 55.7113V48.4127H42.3768V55.2843C42.3575 56.9012 42.9868 57.7997 44.507 57.822C45.8818 57.822 47.005 57.0358 47.005 54.8582V48.4127H50.084V59.619Z" fill="#1C62B7"/>
<path d="M54.0537 48.4583V46.6835L57.0456 45.1121V48.4583H59.9018V50.6358H57.0456V56.0482C57.0456 57.1481 57.4232 57.7775 58.5463 57.822C58.9723 57.822 59.3596 57.8666 59.9212 57.7097V59.6413C58.4592 59.8437 56.7745 60.2252 55.3802 59.4835C54.3248 58.9229 54.0537 57.9343 54.0537 56.3629V50.6358H51.6525V48.4583H54.0537Z" fill="#1C62B7"/>
<path d="M71.5303 54.7905C72.0241 55.779 72.0047 57.0813 71.3948 57.9798C70.3394 59.5958 68.0447 60.0005 66.2728 59.956C63.7554 59.7982 61.5188 59.1475 61.6253 56.1383H64.6849C64.6559 57.4405 65.4692 57.9121 66.6311 57.9566C67.7542 57.9566 68.8774 57.5751 68.8774 56.542C68.8774 55.7113 68.0931 55.352 67.0861 55.1274C65.9339 54.8805 65.1109 54.7682 63.8232 54.2512C62.7969 53.7574 61.7802 52.9266 61.7802 51.3552C61.7802 50.0519 62.7969 49.0644 64.1233 48.525C65.0141 48.1436 66.1179 48.0312 67.0668 48.0312C69.1969 48.0312 71.5109 48.772 71.3754 51.4665H68.4997C68.4997 51.0628 68.4126 50.6135 68.0737 50.3444C67.4444 49.7828 65.5079 49.715 64.9076 50.6358C64.2298 52.2082 66.3212 52.3205 68.6353 52.9489C70.0973 53.2858 71.0849 53.892 71.5303 54.7905Z" fill="#1C62B7"/>
<path d="M79.189 47.9858C81.6386 47.9858 84.1754 49.109 84.1754 52.186L81.1642 52.1628C81.1642 50.7259 80.3799 49.8497 78.8985 49.9175C78.5113 49.9397 78.1046 50.0743 77.7754 50.2544C76.8459 50.7937 76.5554 52.2983 76.5554 53.803C76.5554 55.3967 76.9427 56.9468 77.6398 57.5074C78.1046 57.9567 78.9373 58.0922 79.6538 57.9567C80.8447 57.7553 81.2029 56.5866 81.232 55.5768L84.1754 55.5545C84.2141 58.7652 81.5902 59.9784 78.8501 59.9328C75.1902 59.7983 73.5055 57.4183 73.5055 53.892C73.5055 50.3222 75.5485 47.9858 79.189 47.9858Z" fill="#1C62B7"/>
<path d="M86.5476 43.405H89.6459V50.1865C90.4592 48.7497 91.6695 48.1213 93.3058 48.1213C95.3779 48.1213 97.3337 49.6705 97.3337 51.8935V59.619H94.2741V52.7465C94.2741 51.2196 93.6254 50.2098 92.1633 50.2098C90.7981 50.2098 89.6266 51.1073 89.6266 53.1735V59.619H86.5476V43.405Z" fill="#1C62B7"/>
<path d="M102.901 52.7698C102.988 51.2875 103.705 49.9174 105.389 49.9174C107.006 49.9174 107.82 51.1296 107.752 52.7698H102.901ZM105.486 48.009C101.216 48.009 99.7349 51.0406 99.7349 53.892C99.7349 57.2837 101.439 59.8205 105.08 59.9328C107.975 59.956 110.54 59.0798 110.715 55.9137H107.752C107.752 57.1937 106.716 58.0244 105.506 58.0244C103.463 58.0244 102.814 56.5198 102.785 54.6782L110.966 54.6559C111.208 51.2875 109.746 48.009 105.486 48.009Z" fill="#1C62B7"/>
<path d="M130.07 59.1476C129.024 59.4836 127.668 59.6191 126.216 59.6191H120.349V43.4274H126.594C129.382 43.4274 132.297 44.3036 132.413 47.4252C132.481 49.4014 131.135 50.6581 129.45 51.2197C130.747 51.5566 131.803 51.9381 132.519 53.1513C133.149 54.229 133.197 55.6668 132.684 56.8567C132.142 57.9799 131.309 58.7206 130.07 59.1476ZM126.594 45.8528H123.428V50.052H126.642C128.327 50.052 129.198 49.3559 129.198 47.9858C129.198 46.7058 128.191 45.8528 126.594 45.8528ZM126.913 52.4774L123.428 52.4552V57.216H126.797C129.043 57.216 129.76 56.1151 129.76 54.746C129.76 53.6906 128.995 52.4552 126.913 52.4774Z" fill="#1C62B7"/>
<path d="M139.868 58.0021C138.726 57.912 138.048 57.3505 138.048 56.2728C138.067 53.9152 141.059 54.1621 142.608 54.1621C142.676 56.0259 142.521 57.9566 139.868 58.0021ZM145.552 51.4897C145.552 49.1989 143.083 48.0535 140.226 48.0758C137.506 48.1213 135.53 48.9966 135.492 51.6243H138.474C138.406 50.4111 139.239 49.7828 140.343 49.7605C141.998 49.7605 142.744 50.5235 142.589 52.4105C140.943 52.4996 138.745 52.3873 137.109 53.1512C135.918 53.7128 134.998 54.7682 134.998 56.4519C134.998 58.6082 136.499 59.9105 138.697 59.9782C140.275 60.1351 142.066 59.4389 142.763 57.9798L142.879 59.619H145.552C145.552 56.9012 145.552 54.2289 145.552 51.4897Z" fill="#1C62B7"/>
<path d="M148.534 48.4128H151.632V50.2098C152.445 48.7497 153.927 48.1213 155.592 48.1213C157.451 48.1213 159.359 49.199 159.359 51.8936V59.6191H156.26V52.7466C156.28 51.2874 155.563 50.2098 154.15 50.2098C152.755 50.2098 151.613 51.1074 151.613 53.1736V59.6191H148.534V48.4128Z" fill="#1C62B7"/>
<path d="M170.203 59.619L165.488 53.1958L169.757 48.4127H173.398L168.973 53.0835L174.182 59.619H170.203ZM162.35 43.405H165.4V59.619H162.35V43.405Z" fill="#1C62B7"/>
<path d="M190.613 20H230.049V59.5958H190.613V20ZM214.577 29.3783L199.172 50.0529H206.134L221.597 29.3783H214.577ZM196.103 54.1118H224.559V25.485H196.103V54.1118Z" fill="#1C62B7"/>
</svg>
