<svg width="220" height="40" viewBox="0 0 220 40" fill="none" xmlns="http://www.w3.org/2000/svg">
<path d="M5.33333 39H0V23H5.33333C10.9758 23 14 25.7222 14 30.989C14 36.211 11.4879 39 5.33333 39ZM4.94686 25.434H3.19807V36.565H4.90821C9.31401 36.6538 10.7343 34.5299 10.7343 31.011C10.7343 27.1381 8.69565 25.434 4.94686 25.434Z" fill="#1C62B7"/>
<path d="M19.0939 32.7911C19.179 31.2993 19.8886 29.9205 21.5254 29.9205C23.1149 29.9205 23.9002 31.1404 23.834 32.7911H19.0939ZM21.62 28C17.4476 28 16 31.0508 16 33.9204C16 37.3336 17.6652 39.8865 21.2227 39.9995C24.0516 40.0229 26.5589 39.1411 26.7292 35.9549H23.834C23.834 37.243 22.8216 38.079 21.639 38.079C19.6426 38.079 19.0087 36.5648 18.9803 34.7116L26.9752 34.6892C27.2117 31.2993 25.783 28 21.62 28Z" fill="#1C62B7"/>
<path d="M40 39.6273H36.8853L36.8656 37.7165C36.3432 39.2305 34.8943 40 33.1201 40C31.0108 40 29.0197 38.695 29 35.5727V28H32.1541V35.1297C32.1344 36.8074 32.7751 37.7396 34.3226 37.7627C35.7222 37.7627 36.8656 36.947 36.8656 34.6877V28H40V39.6273Z" fill="#1C62B7"/>
<path d="M44.3232 28.3893V26.5917L47.2178 25V28.3893H49.9813V30.595H47.2178V36.0771C47.2178 37.1912 47.5831 37.8287 48.6698 37.8738C49.082 37.8738 49.4567 37.9189 50 37.76V39.7166C48.5855 39.9215 46.9555 40.3079 45.6066 39.5567C44.5855 38.9889 44.3232 37.9876 44.3232 36.3959V30.595H42V28.3893H44.3232Z" fill="#1C62B7"/>
<path d="M61.6605 34.8001C62.142 35.7946 62.1231 37.1047 61.5284 38.0087C60.4994 39.6344 58.2622 40.0416 56.5347 39.9968C54.0803 39.838 51.8997 39.1834 52.0036 36.156H54.9866C54.9582 37.4661 55.7512 37.9405 56.884 37.9853C57.979 37.9853 59.074 37.6015 59.074 36.5622C59.074 35.7264 58.3094 35.365 57.3276 35.139C56.2043 34.8906 55.4019 34.7776 54.1464 34.2575C53.1458 33.7607 52.1546 32.9249 52.1546 31.344C52.1546 30.0329 53.1458 29.0393 54.439 28.4968C55.3075 28.113 56.3837 28 57.3088 28C59.3855 28 61.6417 28.7452 61.5095 31.456H58.7059C58.7059 31.0498 58.6209 30.5979 58.2905 30.3271C57.6769 29.7621 55.7889 29.6939 55.2037 30.6203C54.5429 32.2022 56.5819 32.3152 58.838 32.9474C60.2634 33.2863 61.2263 33.8961 61.6605 34.8001Z" fill="#1C62B7"/>
<path d="M69.8591 28C72.3844 28 74.9996 29.128 74.9996 32.2184L71.8953 32.195C71.8953 30.752 71.0868 29.8719 69.5597 29.94C69.1604 29.9624 68.7412 30.0975 68.4018 30.2784C67.4436 30.82 67.1442 32.3312 67.1442 33.8423C67.1442 35.4429 67.5434 36.9998 68.2621 37.5628C68.7412 38.014 69.5996 38.1502 70.3382 38.014C71.5659 37.8118 71.9353 36.6381 71.9652 35.6238L74.9996 35.6015C75.0395 38.826 72.3345 40.0445 69.5098 39.9988C65.7368 39.8636 64 37.4734 64 33.9318C64 30.3465 66.1061 28 69.8591 28Z" fill="#1C62B7"/>
<path d="M77 23H80.1598V29.692C80.9892 28.2741 82.2235 27.654 83.8923 27.654C86.0054 27.654 88 29.1827 88 31.3764V39H84.8797V32.2182C84.8797 30.7115 84.2181 29.7149 82.7271 29.7149C81.3348 29.7149 80.14 30.6006 80.14 32.6396V39H77V23Z" fill="#1C62B7"/>
<path d="M93.0939 32.7911C93.179 31.2993 93.8792 29.9205 95.5254 29.9205C97.1055 29.9205 97.9002 31.1404 97.834 32.7911H93.0939ZM95.62 28C91.4476 28 90 31.0508 90 33.9204C90 37.3336 91.6652 39.8865 95.2227 39.9995C98.0516 40.0229 100.559 39.1411 100.729 35.9549H97.834C97.834 37.243 96.8216 38.079 95.639 38.079C93.6426 38.079 93.0087 36.5648 92.9803 34.7116L100.975 34.6892C101.212 31.2993 99.783 28 95.62 28Z" fill="#1C62B7"/>
<path d="M119.962 38.5341C118.891 38.8661 117.502 39 116.013 39H110V23H116.4C119.258 23 122.245 23.8659 122.364 26.9505C122.433 28.9032 121.054 30.1451 119.327 30.7C120.657 31.033 121.738 31.41 122.473 32.6088C123.118 33.6737 123.167 35.0945 122.641 36.2703C122.086 37.3802 121.232 38.1121 119.962 38.5341ZM116.4 25.3967H113.155V29.5462H116.45C118.176 29.5462 119.069 28.8583 119.069 27.5045C119.069 26.2396 118.037 25.3967 116.4 25.3967ZM116.728 31.9429L113.155 31.9209V36.6253H116.608C118.911 36.6253 119.645 35.5375 119.645 34.1846C119.645 33.1417 118.861 31.9209 116.728 31.9429Z" fill="#1C62B7"/>
<path d="M130.076 37.9895C128.885 37.8989 128.179 37.3337 128.179 36.2493C128.199 33.8767 131.317 34.1252 132.932 34.1252C133.003 36.0008 132.841 37.9437 130.076 37.9895ZM136 31.4359C136 29.1306 133.427 27.9779 130.45 28.0003C127.614 28.0461 125.555 28.9269 125.515 31.5714H128.623C128.552 30.3505 129.42 29.7181 130.571 29.6957C132.296 29.6957 133.073 30.4635 132.912 32.3625C131.196 32.4522 128.906 32.3392 127.2 33.1079C125.959 33.6731 125 34.7351 125 36.4295C125 38.5994 126.564 39.91 128.855 39.9782C130.5 40.136 132.367 39.4354 133.094 37.9671L133.215 39.6167H136C136 36.8816 136 34.1924 136 31.4359Z" fill="#1C62B7"/>
<path d="M139 28.2788H142.148V29.9981C142.975 28.6012 144.48 28 146.173 28C148.062 28 150 29.031 150 31.6089V39H146.852V32.425C146.871 31.029 146.143 29.9981 144.707 29.9981C143.29 29.9981 142.129 30.8568 142.129 32.8335V39H139V28.2788Z" fill="#1C62B7"/>
<path d="M159.964 39L155.182 32.6615L159.512 27.9416H163.205L158.717 32.5507L164 39H159.964ZM152 23H155.093V39H152V23Z" fill="#1C62B7"/>
<path d="M181 0H220V40H181V0ZM204.699 9.47402L189.465 30.3597H196.349L211.641 9.47402H204.699ZM186.429 34.46H214.571V5.54102H186.429V34.46Z" fill="#1C62B7"/>
</svg>
