<svg width="40" height="40" viewBox="0 0 40 40" fill="none" xmlns="http://www.w3.org/2000/svg">
<g clip-path="url(#clip0_4_4284)">
<path fill-rule="evenodd" clip-rule="evenodd" d="M1.55328 32.542L2.34645 32.8504C2.1041 32.7733 1.85072 32.6962 1.61938 32.6191C1.59735 32.5971 1.58633 32.564 1.5643 32.542H1.55328Z" fill="#F08921"/>
<path fill-rule="evenodd" clip-rule="evenodd" d="M2.34644 32.8504L1.55327 32.5419C1.45412 32.3987 1.35498 32.2555 1.26685 32.1123L4.73696 33.4893C3.91075 33.3131 3.10656 33.0928 2.34644 32.8614V32.8504Z" fill="#F08A21"/>
<path fill-rule="evenodd" clip-rule="evenodd" d="M4.73698 33.4785L1.26686 32.1014C1.18975 31.9693 1.11264 31.826 1.03552 31.6938L6.27926 33.7649C5.75048 33.6768 5.24373 33.5886 4.73698 33.4785Z" fill="#F08A21"/>
<path fill-rule="evenodd" clip-rule="evenodd" d="M6.27928 33.7648L1.03554 31.6937C0.969445 31.5615 0.903348 31.4293 0.848267 31.2971L7.29277 33.8529C7.29277 33.8529 7.32582 33.897 7.33684 33.919C6.98432 33.8749 6.6318 33.8309 6.27928 33.7758V33.7648Z" fill="#F08C21"/>
<path fill-rule="evenodd" clip-rule="evenodd" d="M7.28172 33.8528L0.837211 31.2971C0.78213 31.1759 0.727048 31.0437 0.682983 30.9115L6.97326 33.4012C7.07241 33.5444 7.18257 33.6986 7.29273 33.8418L7.28172 33.8528Z" fill="#F08C21"/>
<path fill-rule="evenodd" clip-rule="evenodd" d="M6.97332 33.4012L0.683037 30.9115C0.638972 30.7904 0.594907 30.6692 0.550842 30.537L6.68689 32.9606C6.77502 33.1038 6.87417 33.247 6.97332 33.3902V33.4012Z" fill="#F08C21"/>
<path fill-rule="evenodd" clip-rule="evenodd" d="M6.68689 32.9717L0.550836 30.5481C0.506771 30.4269 0.473723 30.3057 0.440674 30.1846L6.43351 32.5531C6.51063 32.6963 6.59876 32.8285 6.68689 32.9717Z" fill="#F08E20"/>
<path fill-rule="evenodd" clip-rule="evenodd" d="M6.42246 32.5529L0.440638 30.1844C0.407589 30.0633 0.37454 29.9531 0.341492 29.8319L6.19112 32.1453C6.26823 32.2775 6.34535 32.4207 6.42246 32.5529Z" fill="#F08C21"/>
<path fill-rule="evenodd" clip-rule="evenodd" d="M6.19115 32.1344L0.341518 29.821C0.308469 29.6998 0.286437 29.5897 0.264404 29.4685L5.99285 31.7379C6.05895 31.87 6.12505 32.0022 6.20216 32.1455L6.19115 32.1344Z" fill="#F08E20"/>
<path fill-rule="evenodd" clip-rule="evenodd" d="M5.98183 31.7378L0.264401 29.4685C0.242368 29.3583 0.220336 29.2371 0.198303 29.127L5.80557 31.3412C5.86066 31.4734 5.92675 31.6056 5.99285 31.7378H5.98183Z" fill="#F08E20"/>
<path fill-rule="evenodd" clip-rule="evenodd" d="M5.80554 31.3413L0.19827 29.127C0.176237 29.0169 0.165221 28.9067 0.143188 28.7855L5.6403 30.9557C5.69538 31.0879 5.75046 31.2091 5.80554 31.3413ZM12.7237 33.7539L13.2856 33.9742L13.0763 33.9962C12.9551 33.9191 12.8339 33.831 12.7237 33.7539Z" fill="#F19020"/>
<path fill-rule="evenodd" clip-rule="evenodd" d="M13.2746 33.9851L12.7127 33.7648C12.4043 33.5445 12.1068 33.3242 11.8094 33.0928L13.9025 33.919C13.6932 33.9411 13.4839 33.9631 13.2746 33.9962V33.9851ZM5.62928 30.9667L0.143186 28.7855C0.13217 28.6753 0.110137 28.5651 0.0991211 28.444L5.49708 30.5811C5.54115 30.7023 5.59623 30.8345 5.64029 30.9557L5.62928 30.9667Z" fill="#F19020"/>
<path fill-rule="evenodd" clip-rule="evenodd" d="M13.9025 33.908L11.8094 33.0817C11.556 32.8834 11.3137 32.6851 11.0823 32.4758L14.5084 33.8308C14.2991 33.8529 14.1008 33.8859 13.8915 33.908H13.9025ZM5.4861 30.581L0.0991498 28.4439C0.0881336 28.3337 0.0771173 28.2236 0.0661011 28.1134L5.36492 30.2065C5.40898 30.3277 5.45305 30.4488 5.49711 30.581H5.4861Z" fill="#F19020"/>
<path fill-rule="evenodd" clip-rule="evenodd" d="M14.5194 33.8309L11.0934 32.4759C10.8841 32.2886 10.6858 32.1123 10.4875 31.9141L15.1253 33.7538C14.927 33.7868 14.7288 33.8088 14.5194 33.8309ZM5.36494 30.2065L0.0551136 28.1134C0.0551136 28.0033 0.0440973 27.8931 0.0330811 27.783L5.24377 29.843C5.27682 29.9642 5.32088 30.0854 5.35393 30.2065H5.36494Z" fill="#F19120"/>
<path fill-rule="evenodd" clip-rule="evenodd" d="M15.1143 33.7537L10.4764 31.914C10.3002 31.7487 10.1239 31.5725 9.95866 31.3962L15.6981 33.6656C15.4998 33.6986 15.3126 33.7206 15.1143 33.7537ZM5.2437 29.8539L0.0330188 27.7829C0.0330188 27.6727 0.0220026 27.5626 0.0109863 27.4524L5.14456 29.4794C5.17761 29.6006 5.21066 29.7217 5.2437 29.8429V29.8539Z" fill="#F19020"/>
<path fill-rule="evenodd" clip-rule="evenodd" d="M15.7092 33.6657L9.9697 31.3963C9.81548 31.2311 9.67227 31.0659 9.52905 30.9006L16.271 33.5665C16.0837 33.5996 15.8964 33.6326 15.7092 33.6657ZM5.1556 29.4905L0.0110162 27.4525C0.0110162 27.3424 0.0110162 27.2432 0 27.1331L5.06747 29.138C5.08951 29.2592 5.12256 29.3694 5.1556 29.4905Z" fill="#F19120"/>
<path fill-rule="evenodd" clip-rule="evenodd" d="M16.271 33.5666L9.52906 30.9006C9.39686 30.7464 9.26467 30.5922 9.14349 30.4269L16.8218 33.4674C16.6456 33.5005 16.4693 33.5445 16.282 33.5776L16.271 33.5666ZM5.06747 29.138L0 27.1331C0 27.0229 0 26.9238 0 26.8136L5.00138 28.7855C5.02341 28.8957 5.04544 29.0168 5.06747 29.138Z" fill="#F19120"/>
<path fill-rule="evenodd" clip-rule="evenodd" d="M16.8108 33.4673L9.13247 30.4268C9.01129 30.2726 8.90113 30.1294 8.79097 29.9752L17.3175 33.3461C17.1523 33.3902 16.976 33.4232 16.7998 33.4673H16.8108ZM4.99036 28.7964L0 26.8135C0 26.7033 0 26.6042 0 26.494L4.93528 28.4439C4.95731 28.5541 4.96833 28.6752 4.99036 28.7854V28.7964Z" fill="#F4941E"/>
<path fill-rule="evenodd" clip-rule="evenodd" d="M17.3286 33.3461L8.80198 29.9752C8.70284 29.832 8.59267 29.6887 8.49353 29.5345L17.8023 33.2139C17.648 33.258 17.4828 33.3021 17.3286 33.3461ZM4.93528 28.4439L0 26.494C0 26.3949 0 26.2847 0 26.1746L4.8802 28.1024C4.89121 28.2126 4.91325 28.3337 4.92426 28.4439H4.93528Z" fill="#F4941E"/>
<path fill-rule="evenodd" clip-rule="evenodd" d="M17.8023 33.2141L8.49353 29.5347C8.4054 29.3914 8.30625 29.2482 8.21812 29.105L18.2429 33.0709C18.0997 33.126 17.9565 33.17 17.8023 33.2141ZM4.89121 28.1025L0 26.1747C0 26.0756 0 25.9654 0.0110162 25.8552L4.84715 27.7721C4.84715 27.8822 4.86918 27.9924 4.8802 28.1025H4.89121Z" fill="#F4941E"/>
<path fill-rule="evenodd" clip-rule="evenodd" d="M18.2539 33.0708L8.22914 29.105C8.14101 28.9728 8.0639 28.8296 7.98678 28.6864L18.6615 32.9056C18.5293 32.9607 18.3971 33.0157 18.2539 33.0598V33.0708ZM4.85817 27.772L0.0220337 25.8662C0.0220337 25.767 0.0220337 25.6569 0.0440662 25.5577L4.83613 27.4525C4.83613 27.5627 4.84715 27.6729 4.85817 27.783V27.772Z" fill="#F4961E"/>
<path fill-rule="evenodd" clip-rule="evenodd" d="M18.6505 32.9165L7.97577 28.6973C7.89865 28.5651 7.83255 28.4219 7.75544 28.2897L17.615 32.1894C17.9895 32.4428 18.3641 32.6631 18.7607 32.8614C18.7276 32.8834 18.6836 32.8945 18.6505 32.9165ZM4.83614 27.4524L0.0440674 25.5466C0.0440674 25.4475 0.0550836 25.3373 0.0660999 25.2382L4.82512 27.1219C4.82512 27.2321 4.82512 27.3423 4.83614 27.4524Z" fill="#F4961E"/>
<path fill-rule="evenodd" clip-rule="evenodd" d="M17.626 32.1895L7.76646 28.2898C7.70036 28.1576 7.63426 28.0254 7.56817 27.8932L16.7227 31.5175C17.0201 31.7599 17.3175 31.9912 17.626 32.2005V32.1895ZM4.82512 27.122L0.0661011 25.2383C0.0661011 25.1391 0.0881336 25.029 0.0991498 24.9298L4.82512 26.8026C4.82512 26.9127 4.82512 27.0119 4.82512 27.122Z" fill="#F5971E"/>
<path fill-rule="evenodd" clip-rule="evenodd" d="M16.7226 31.5065L7.56814 27.8821C7.50204 27.75 7.44696 27.6178 7.39188 27.4966L16.0727 30.9336C16.282 31.1319 16.5023 31.3302 16.7226 31.5065ZM4.81407 26.8026L0.0991211 24.9298C0.0991211 24.8306 0.121154 24.7315 0.13217 24.6213L4.82509 26.4831C4.82509 26.5932 4.82509 26.6924 4.82509 26.8026H4.81407Z" fill="#F5971E"/>
<path fill-rule="evenodd" clip-rule="evenodd" d="M16.0727 30.9336L7.39191 27.4965C7.33683 27.3643 7.28175 27.2432 7.22667 27.111L15.5439 30.4048C15.7202 30.5921 15.8965 30.7684 16.0727 30.9336ZM4.82512 26.483L0.132202 24.6323C0.143218 24.5332 0.154235 24.434 0.165251 24.3239L4.83614 26.1746C4.83614 26.2847 4.83614 26.3839 4.82512 26.4941V26.483Z" fill="#F5971E"/>
<path fill-rule="evenodd" clip-rule="evenodd" d="M15.544 30.4049L7.2267 27.111C7.18263 26.9899 7.12755 26.8577 7.08349 26.7365L15.1033 29.9092C15.2465 30.0744 15.3897 30.2397 15.544 30.4049ZM4.83617 26.1747L0.165283 24.3239C0.176299 24.2248 0.198332 24.1256 0.209348 24.0265L4.84719 25.8662C4.84719 25.9653 4.83617 26.0755 4.82516 26.1747H4.83617Z" fill="#F5971E"/>
<path fill-rule="evenodd" clip-rule="evenodd" d="M15.1033 29.9091L7.08343 26.7365C7.03936 26.6153 6.9953 26.4941 6.95123 26.3619L14.7067 29.4354C14.8279 29.6007 14.96 29.7549 15.0922 29.9091H15.1033ZM4.85815 25.8552L0.20929 24.0155C0.220306 23.9163 0.242338 23.8172 0.253355 23.718L4.88018 25.5467C4.88018 25.6459 4.85815 25.756 4.84713 25.8552H4.85815Z" fill="#F59722"/>
<path fill-rule="evenodd" clip-rule="evenodd" d="M14.7177 29.4354L6.96225 26.3619C6.91819 26.2407 6.88514 26.1195 6.84107 25.9983L14.3762 28.9837C14.4864 29.138 14.6075 29.2922 14.7177 29.4354ZM4.8912 25.5467L0.253357 23.718C0.264373 23.6188 0.286406 23.5197 0.308438 23.4205L4.91323 25.2492C4.90221 25.3484 4.8912 25.4475 4.88018 25.5577L4.8912 25.5467Z" fill="#F89A22"/>
<path fill-rule="evenodd" clip-rule="evenodd" d="M14.3652 28.9837L6.83009 25.9983C6.79704 25.8771 6.75298 25.7559 6.71993 25.6348L14.0568 28.532C14.1559 28.6752 14.255 28.8295 14.3652 28.9727V28.9837ZM4.91326 25.2492L0.308472 23.4205C0.330504 23.3213 0.34152 23.2222 0.363553 23.123L4.95733 24.9407C4.94631 25.0399 4.92428 25.139 4.91326 25.2492Z" fill="#F89A22"/>
<path fill-rule="evenodd" clip-rule="evenodd" d="M14.0677 28.5431L6.73092 25.6458C6.69787 25.5247 6.66482 25.4145 6.63177 25.2933L13.7923 28.1245C13.8805 28.2677 13.9686 28.4109 14.0677 28.5541V28.5431ZM4.9573 24.9408L0.363525 23.1231C0.385558 23.024 0.40759 22.9248 0.418607 22.8257L5.00137 24.6434C4.97933 24.7425 4.96832 24.8417 4.9573 24.9408Z" fill="#F59B26"/>
<path fill-rule="evenodd" clip-rule="evenodd" d="M13.7923 28.1134L6.63174 25.2823C6.59869 25.1611 6.57666 25.0509 6.54361 24.9297L13.5389 27.6948C13.616 27.838 13.7042 27.9702 13.7923 28.1134ZM5.00134 24.6433L0.418579 22.8256C0.440612 22.7265 0.462644 22.6273 0.484677 22.5282L5.06744 24.3349C5.0454 24.434 5.03439 24.5332 5.01236 24.6323L5.00134 24.6433Z" fill="#F89C27"/>
<path fill-rule="evenodd" clip-rule="evenodd" d="M13.539 27.6949L6.54365 24.9298C6.52161 24.8197 6.48857 24.6985 6.46653 24.5773L13.3076 27.2873C13.3847 27.4305 13.4619 27.5627 13.539 27.6949ZM5.05645 24.3349L0.473694 22.5283C0.495726 22.4291 0.517759 22.33 0.539791 22.2308L5.11153 24.0375C5.0895 24.1366 5.06747 24.2358 5.05645 24.3349Z" fill="#F59B28"/>
<path fill-rule="evenodd" clip-rule="evenodd" d="M13.3076 27.2873L6.46654 24.5773C6.4445 24.4672 6.42247 24.346 6.40044 24.2358L13.0983 26.8797C13.1644 27.0119 13.2415 27.1551 13.3076 27.2873ZM5.11154 24.0486L0.539795 22.2419C0.561827 22.1428 0.58386 22.0436 0.605892 21.9445L5.17764 23.7511C5.1556 23.8503 5.13357 23.9494 5.11154 24.0486Z" fill="#F59D2A"/>
<path fill-rule="evenodd" clip-rule="evenodd" d="M13.0983 26.8795L6.40044 24.2356C6.37841 24.1255 6.35638 24.0043 6.34536 23.8941L12.911 26.494C12.9771 26.6262 13.0322 26.7584 13.0983 26.8906V26.8795ZM5.17764 23.7509L0.605896 21.9443C0.627928 21.8451 0.649961 21.746 0.68301 21.6578L5.25475 23.4645C5.23272 23.5636 5.21069 23.6628 5.18866 23.7619L5.17764 23.7509Z" fill="#F59D2C"/>
<path fill-rule="evenodd" clip-rule="evenodd" d="M12.911 26.4832L6.34534 23.8833C6.3233 23.7732 6.31229 23.652 6.29025 23.5418L12.7237 26.0866C12.7788 26.2188 12.8449 26.351 12.9 26.4721L12.911 26.4832ZM5.25473 23.4537L0.682983 21.647C0.705016 21.5479 0.727048 21.4487 0.760097 21.3606L5.33184 23.1673C5.30981 23.2664 5.27676 23.3656 5.25473 23.4537Z" fill="#F59D2C"/>
<path fill-rule="evenodd" clip-rule="evenodd" d="M12.7348 26.0974L6.30131 23.5526C6.27927 23.4425 6.26826 23.3323 6.25724 23.2111L12.5806 25.7118C12.6356 25.844 12.6907 25.9652 12.7458 26.0974H12.7348ZM5.33188 23.1671L0.760132 21.3604C0.782164 21.2613 0.815213 21.1731 0.837246 21.074L5.39797 22.8806C5.37594 22.9798 5.34289 23.0679 5.32086 23.1671H5.33188Z" fill="#F59D32"/>
<path fill-rule="evenodd" clip-rule="evenodd" d="M12.5695 25.7119L6.2462 23.2112C6.23518 23.101 6.22416 22.9908 6.21315 22.8807L12.4153 25.3373C12.4704 25.4695 12.5144 25.5907 12.5695 25.7119ZM5.39795 22.8807L0.837219 21.074C0.859252 20.9749 0.8923 20.8867 0.914333 20.7876L5.48608 22.5943C5.45303 22.6934 5.43099 22.7815 5.39795 22.8807Z" fill="#F69F32"/>
<path fill-rule="evenodd" clip-rule="evenodd" d="M12.4263 25.3375L6.22417 22.8809C6.21315 22.7707 6.20214 22.6605 6.19112 22.5504L12.2941 24.9629C12.3382 25.0841 12.3823 25.2163 12.4373 25.3375H12.4263ZM5.4971 22.5944L0.925354 20.7878C0.947386 20.6886 0.980435 20.6005 1.01348 20.5013L5.58523 22.308C5.55218 22.4072 5.53015 22.4953 5.4971 22.5944Z" fill="#F89F33"/>
<path fill-rule="evenodd" clip-rule="evenodd" d="M12.2831 24.9628L6.18014 22.5503C6.18014 22.4401 6.15811 22.33 6.15811 22.2198L12.162 24.5883C12.206 24.7095 12.2501 24.8307 12.2942 24.9628H12.2831ZM5.57425 22.3079L1.0025 20.5013C1.03555 20.4021 1.05758 20.314 1.09063 20.2148L5.66238 22.0215C5.62933 22.1207 5.59628 22.2088 5.57425 22.3079Z" fill="#F8A036"/>
<path fill-rule="evenodd" clip-rule="evenodd" d="M12.151 24.5882L6.1471 22.2197C6.1471 22.1096 6.13608 21.9994 6.12506 21.8892L12.0298 24.2247C12.0628 24.3459 12.1069 24.467 12.151 24.5882ZM5.66238 22.0214L1.09064 20.2148C1.12369 20.1266 1.15673 20.0275 1.17877 19.9283L5.75051 21.735C5.71746 21.8342 5.68441 21.9223 5.66238 22.0214Z" fill="#F9A236"/>
<path fill-rule="evenodd" clip-rule="evenodd" d="M12.0408 24.2246L6.13605 21.8892C6.13605 21.779 6.13605 21.6688 6.12504 21.5587L11.9306 23.8611C11.9636 23.9822 11.9967 24.1034 12.0408 24.2246ZM5.7615 21.7349L1.18976 19.9283C1.22281 19.8291 1.24484 19.741 1.27789 19.6418L5.86065 21.4485C5.8276 21.5366 5.79455 21.6358 5.7615 21.7239V21.7349Z" fill="#F9A238"/>
<path fill-rule="evenodd" clip-rule="evenodd" d="M11.9306 23.8613L6.12501 21.5589C6.12501 21.4488 6.12501 21.3386 6.12501 21.2395L11.8424 23.4978C11.8755 23.619 11.9085 23.7401 11.9416 23.8613H11.9306ZM5.84961 21.4598L1.26685 19.6531C1.29989 19.554 1.33294 19.4658 1.36599 19.3667L5.94875 21.1844C5.9157 21.2725 5.88265 21.3717 5.84961 21.4598Z" fill="#F6A138"/>
<path fill-rule="evenodd" clip-rule="evenodd" d="M11.8315 23.5087L6.11403 21.2504C6.11403 21.1402 6.11403 21.0411 6.11403 20.9309L11.7543 23.1562C11.7874 23.2774 11.8094 23.3985 11.8425 23.5087H11.8315ZM5.94879 21.1843L1.36603 19.3666C1.39908 19.2674 1.43213 19.1793 1.46517 19.0912L6.04793 20.9089C6.01488 21.008 5.98184 21.0961 5.94879 21.1843Z" fill="#F6A13B"/>
<path fill-rule="evenodd" clip-rule="evenodd" d="M11.7433 23.1452L6.10299 20.9199V20.7547L6.04791 20.8979L1.46515 19.0802C1.4982 18.9921 1.53125 18.8929 1.5643 18.8048L11.6552 22.7927C11.6772 22.9139 11.7103 23.024 11.7323 23.1452H11.7433Z" fill="#F6A33D"/>
<path fill-rule="evenodd" clip-rule="evenodd" d="M11.6662 22.8036L1.57532 18.8157C1.60837 18.7276 1.64141 18.6284 1.67446 18.5403L11.5891 22.4621C11.6111 22.5832 11.6332 22.6934 11.6662 22.8146V22.8036Z" fill="#F6A53D"/>
<path fill-rule="evenodd" clip-rule="evenodd" d="M11.5891 22.4511L1.6745 18.5293C1.70755 18.4412 1.7406 18.342 1.78466 18.2539L11.534 22.1096C11.5561 22.2198 11.5781 22.3409 11.6001 22.4511H11.5891Z" fill="#F6A540"/>
<path fill-rule="evenodd" clip-rule="evenodd" d="M11.523 22.1095L1.77362 18.2538C1.80667 18.1657 1.85073 18.0665 1.88378 17.9784L11.4569 21.768C11.4789 21.8781 11.49 21.9993 11.512 22.1095H11.523Z" fill="#F6A540"/>
<path fill-rule="evenodd" clip-rule="evenodd" d="M11.4679 21.757L1.89478 17.9674C1.92782 17.8793 1.97189 17.7801 2.00494 17.692L11.4128 21.4155C11.4348 21.5257 11.4459 21.6469 11.4679 21.757Z" fill="#F9A641"/>
<path fill-rule="evenodd" clip-rule="evenodd" d="M11.4128 21.4156L2.00494 17.6922C2.03799 17.604 2.08206 17.5159 2.11511 17.4167L11.3688 21.0741C11.3798 21.1843 11.4018 21.2945 11.4128 21.4156Z" fill="#F9A641"/>
<path fill-rule="evenodd" clip-rule="evenodd" d="M11.3688 21.085L2.11511 17.4276C2.15918 17.3395 2.19223 17.2404 2.23629 17.1522L11.3357 20.7545C11.3467 20.8647 11.3577 20.9749 11.3798 21.085H11.3688Z" fill="#F9A643"/>
<path fill-rule="evenodd" clip-rule="evenodd" d="M11.3247 20.7437L2.22528 17.1414C2.26935 17.0532 2.30239 16.9651 2.34646 16.866L11.2917 20.4022C11.2917 20.5123 11.3137 20.6225 11.3247 20.7327V20.7437Z" fill="#F9A846"/>
<path fill-rule="evenodd" clip-rule="evenodd" d="M11.2916 20.4132L2.34644 16.877C2.3905 16.7888 2.42355 16.7007 2.46761 16.6016L11.2586 20.0827C11.2586 20.1929 11.2806 20.303 11.2806 20.4132H11.2916Z" fill="#F7A947"/>
<path fill-rule="evenodd" clip-rule="evenodd" d="M11.2696 20.0827L2.47864 16.6016C2.5227 16.5134 2.56677 16.4253 2.59982 16.3262L11.2476 19.7412C11.2476 19.8514 11.2586 19.9615 11.2696 20.0717V20.0827Z" fill="#F7A949"/>
<path fill-rule="evenodd" clip-rule="evenodd" d="M11.2476 19.7521L2.59985 16.337C2.64392 16.2489 2.68798 16.1608 2.73205 16.0726L11.2366 19.4326C11.2366 19.5427 11.2366 19.6529 11.2476 19.7521Z" fill="#F7A94B"/>
<path fill-rule="evenodd" clip-rule="evenodd" d="M11.2256 19.4326L2.72101 16.0726C2.76507 15.9845 2.80914 15.8964 2.8532 15.8082L11.2145 19.1131C11.2145 19.2233 11.2145 19.3334 11.2256 19.4436V19.4326Z" fill="#F7A94B"/>
<path fill-rule="evenodd" clip-rule="evenodd" d="M11.2145 19.1021L2.85321 15.7972C2.89728 15.7091 2.94134 15.621 2.98541 15.5328L11.2145 18.7826C11.2145 18.8928 11.2145 18.9919 11.2145 19.1021Z" fill="#F7A94D"/>
<path fill-rule="evenodd" clip-rule="evenodd" d="M11.2146 18.7826L2.98541 15.5328C3.02948 15.4447 3.07354 15.3566 3.11761 15.2684L11.2035 18.4631C11.2035 18.5733 11.2035 18.6725 11.2035 18.7826H11.2146Z" fill="#F7AB4D"/>
<path fill-rule="evenodd" clip-rule="evenodd" d="M11.2145 18.4633L3.1286 15.2685C3.17267 15.1804 3.21673 15.0923 3.27181 15.0042L11.2255 18.1548C11.2255 18.265 11.2255 18.3641 11.2255 18.4743L11.2145 18.4633Z" fill="#FAAC50"/>
<path fill-rule="evenodd" clip-rule="evenodd" d="M11.2145 18.1548L3.2608 15.0041C3.30487 14.916 3.34893 14.8279 3.40401 14.7397L11.2256 17.8353C11.2256 17.9455 11.2256 18.0446 11.2256 18.1548H11.2145Z" fill="#FAAD50"/>
<path fill-rule="evenodd" clip-rule="evenodd" d="M11.2255 17.8353L3.40399 14.7397C3.44806 14.6516 3.50314 14.5635 3.5472 14.4753L11.2476 17.5158C11.2476 17.626 11.2476 17.7251 11.2365 17.8353H11.2255Z" fill="#FAAD52"/>
<path fill-rule="evenodd" clip-rule="evenodd" d="M11.2476 17.5158L3.54724 14.4753C3.59131 14.3872 3.64639 14.2991 3.69045 14.2109L11.2586 17.2074C11.2586 17.3065 11.2476 17.4167 11.2366 17.5158H11.2476Z" fill="#FAAD52"/>
<path fill-rule="evenodd" clip-rule="evenodd" d="M11.2586 17.2075L3.69043 14.211C3.73449 14.1229 3.78958 14.0348 3.83364 13.9467L11.2806 16.888C11.2806 16.9871 11.2696 17.0973 11.2586 17.1964V17.2075Z" fill="#FAAD54"/>
<path fill-rule="evenodd" clip-rule="evenodd" d="M11.2807 16.8988L3.83368 13.9575C3.87774 13.8694 3.93283 13.7812 3.98791 13.6931L11.3137 16.5904C11.3137 16.6895 11.2917 16.7997 11.2807 16.8988Z" fill="#FAAD54"/>
<path fill-rule="evenodd" clip-rule="evenodd" d="M11.3137 16.5905L3.98785 13.6932C4.04294 13.6051 4.087 13.517 4.14208 13.4288L11.3467 16.282C11.3357 16.3812 11.3247 16.4803 11.3137 16.5905Z" fill="#F7AF56"/>
<path fill-rule="evenodd" clip-rule="evenodd" d="M11.3467 16.282L4.14209 13.4288C4.19717 13.3407 4.24124 13.2525 4.29632 13.1754L11.3798 15.9735C11.3687 16.0727 11.3577 16.1829 11.3467 16.282Z" fill="#F7AF56"/>
<path fill-rule="evenodd" clip-rule="evenodd" d="M11.3798 15.9735L4.29633 13.1754C4.35141 13.0872 4.39547 12.9991 4.45055 12.922L11.4238 15.6761C11.4128 15.7752 11.3908 15.8744 11.3798 15.9735Z" fill="#F7AF59"/>
<path fill-rule="evenodd" clip-rule="evenodd" d="M11.4238 15.6761L4.45056 12.9221C4.50564 12.8339 4.56072 12.7568 4.61581 12.6687L11.4679 15.3787C11.4569 15.4778 11.4349 15.577 11.4238 15.6761Z" fill="#F7AF5B"/>
<path fill-rule="evenodd" clip-rule="evenodd" d="M11.4679 15.3787L4.61578 12.6687C4.67086 12.5805 4.72595 12.5034 4.78103 12.4153L11.523 15.0812C11.512 15.1804 11.4899 15.2795 11.4789 15.3787H11.4679Z" fill="#FAB15B"/>
<path fill-rule="evenodd" clip-rule="evenodd" d="M11.523 15.0703L4.78107 12.4044C4.83615 12.3162 4.89123 12.2391 4.94631 12.151L11.5781 14.7729C11.5561 14.872 11.545 14.9712 11.523 15.0703Z" fill="#FAB15B"/>
<path fill-rule="evenodd" clip-rule="evenodd" d="M11.5781 14.7727L4.94629 12.1508C5.00137 12.0627 5.05645 11.9856 5.11153 11.8975L11.6332 14.4753C11.6111 14.5744 11.5891 14.6736 11.5781 14.7727Z" fill="#FBB460"/>
<path fill-rule="evenodd" clip-rule="evenodd" d="M11.6331 14.4753L5.11151 11.8975C5.16659 11.8094 5.22167 11.7323 5.28777 11.6442L11.6992 14.1779C11.6772 14.277 11.6552 14.3762 11.6331 14.4753Z" fill="#FBB460"/>
<path fill-rule="evenodd" clip-rule="evenodd" d="M11.6992 14.178L5.28778 11.6442C5.34286 11.5561 5.39794 11.479 5.46404 11.3909L11.7653 13.8805C11.7433 13.9797 11.7213 14.0788 11.6992 14.178Z" fill="#FBB460"/>
<path fill-rule="evenodd" clip-rule="evenodd" d="M11.7653 13.8915L5.46405 11.4018C5.51913 11.3137 5.58523 11.2366 5.64031 11.1484L11.8314 13.6051C11.8094 13.7042 11.7874 13.8034 11.7653 13.8915Z" fill="#FBB461"/>
<path fill-rule="evenodd" clip-rule="evenodd" d="M11.8315 13.594L5.64032 11.1374C5.6954 11.0493 5.7615 10.9722 5.81658 10.884L11.9086 13.2966C11.8865 13.3957 11.8535 13.4949 11.8315 13.583V13.594Z" fill="#FBB464"/>
<path fill-rule="evenodd" clip-rule="evenodd" d="M11.9086 13.3076L5.81659 10.8951C5.87167 10.8069 5.93777 10.7298 6.00387 10.6527L11.9857 13.0212C11.9637 13.1203 11.9306 13.2085 11.9086 13.3076Z" fill="#FBB664"/>
<path fill-rule="evenodd" clip-rule="evenodd" d="M11.9747 13.0212L5.99286 10.6527C6.04794 10.5645 6.11404 10.4874 6.16912 10.3993L12.0518 12.7237C12.0298 12.8229 11.9967 12.911 11.9747 13.0101V13.0212Z" fill="#FBB664"/>
<path fill-rule="evenodd" clip-rule="evenodd" d="M12.0628 12.7348L6.18011 10.4103C6.24621 10.3332 6.30129 10.2451 6.36739 10.168L12.1509 12.4483C12.1179 12.5475 12.0958 12.6356 12.0628 12.7348Z" fill="#F8B766"/>
<path fill-rule="evenodd" clip-rule="evenodd" d="M12.1399 12.4484L6.35638 10.168C6.42248 10.0909 6.47756 10.0028 6.54366 9.92566L12.228 12.173C12.195 12.2721 12.1619 12.3603 12.1399 12.4594V12.4484Z" fill="#FBB868"/>
<path fill-rule="evenodd" clip-rule="evenodd" d="M12.2391 12.1618L6.55469 9.91448C6.62078 9.83736 6.68688 9.74923 6.75298 9.67212L12.3272 11.8754C12.2942 11.9745 12.2721 12.0626 12.2391 12.1618Z" fill="#FBB868"/>
<path fill-rule="evenodd" clip-rule="evenodd" d="M12.3272 11.8755L6.75299 9.67229C6.81909 9.59517 6.88519 9.50705 6.95128 9.42993L12.4264 11.6001C12.3933 11.6883 12.3603 11.7874 12.3272 11.8755Z" fill="#FBB86B"/>
<path fill-rule="evenodd" clip-rule="evenodd" d="M12.4153 11.6001L6.94025 9.42986C7.00634 9.35274 7.07244 9.26461 7.13854 9.1875L12.5145 11.3136C12.4814 11.4128 12.4484 11.5009 12.4153 11.589V11.6001Z" fill="#FBB86C"/>
<path fill-rule="evenodd" clip-rule="evenodd" d="M12.5145 11.3138L7.13855 9.18767C7.20465 9.11056 7.27074 9.03344 7.33684 8.94531L12.6136 11.0384C12.5806 11.1265 12.5475 11.2257 12.5145 11.3138Z" fill="#FBBA6D"/>
<path fill-rule="evenodd" clip-rule="evenodd" d="M12.6246 11.0382L7.34784 8.94512C7.41394 8.868 7.48003 8.79089 7.54613 8.70276L12.7238 10.7518C12.6907 10.8399 12.6577 10.9391 12.6136 11.0272L12.6246 11.0382Z" fill="#FCBC6D"/>
<path fill-rule="evenodd" clip-rule="evenodd" d="M12.7238 10.7519L7.54614 8.7029C7.61224 8.62579 7.68935 8.54867 7.75545 8.47156L12.8339 10.4765C12.8009 10.5646 12.7568 10.6638 12.7238 10.7519Z" fill="#FCBC6F"/>
<path fill-rule="evenodd" clip-rule="evenodd" d="M12.8339 10.4764L7.75543 8.47145C7.82153 8.39434 7.89864 8.31723 7.96474 8.24011L12.9441 10.212C12.9 10.3002 12.867 10.3993 12.8339 10.4874V10.4764Z" fill="#FCBC6F"/>
<path fill-rule="evenodd" clip-rule="evenodd" d="M12.9441 10.2011L7.96472 8.22914C8.03082 8.15203 8.10793 8.07492 8.17403 7.9978L13.0542 9.92565C13.0102 10.0138 12.9771 10.1129 12.9441 10.2011Z" fill="#FBBC71"/>
<path fill-rule="evenodd" clip-rule="evenodd" d="M13.0653 9.93665L8.18506 8.00881C8.25116 7.93169 8.32827 7.85458 8.40538 7.77747L13.1975 9.67226C13.1534 9.76039 13.1203 9.84852 13.0763 9.94767L13.0653 9.93665Z" fill="#FBBC73"/>
<path fill-rule="evenodd" clip-rule="evenodd" d="M13.1864 9.66117L8.39435 7.76638C8.47146 7.68926 8.53756 7.61215 8.61467 7.53503L13.3076 9.38576C13.2635 9.47389 13.2305 9.56202 13.1864 9.66117Z" fill="#FBBC74"/>
<path fill-rule="evenodd" clip-rule="evenodd" d="M13.3076 9.3859L8.61469 7.53517C8.6918 7.45806 8.76891 7.38095 8.83501 7.30383L13.4288 9.12151C13.3847 9.20964 13.3407 9.29777 13.2966 9.3859H13.3076Z" fill="#FCBE77"/>
<path fill-rule="evenodd" clip-rule="evenodd" d="M13.4288 9.12141L8.83502 7.30373C8.91214 7.22662 8.98925 7.1495 9.05535 7.07239L13.55 8.846C13.5059 8.93413 13.4618 9.02226 13.4178 9.11039L13.4288 9.12141Z" fill="#FCC077"/>
<path fill-rule="evenodd" clip-rule="evenodd" d="M13.561 8.84602L9.06635 7.07241C9.14346 6.99529 9.22057 6.91818 9.29769 6.84106L13.6932 8.58163C13.6491 8.66976 13.605 8.75789 13.561 8.84602Z" fill="#FCC079"/>
<path fill-rule="evenodd" clip-rule="evenodd" d="M13.6932 8.58165L9.29773 6.84108C9.37484 6.76397 9.45196 6.68685 9.52907 6.60974L13.8364 8.30624C13.7924 8.39437 13.7483 8.4825 13.7042 8.57063L13.6932 8.58165Z" fill="#FCC07B"/>
<path fill-rule="evenodd" clip-rule="evenodd" d="M13.8254 8.31725L9.51807 6.62075C9.59518 6.54363 9.67229 6.46652 9.74941 6.3894L13.9576 8.05286C13.9135 8.14099 13.8695 8.22912 13.8254 8.31725Z" fill="#FCC07B"/>
<path fill-rule="evenodd" clip-rule="evenodd" d="M13.9686 8.05285L9.76038 6.38939C9.83749 6.31228 9.92562 6.23516 10.0027 6.16907L14.1118 7.78846C14.0677 7.87659 14.0126 7.96472 13.9686 8.05285Z" fill="#FCC07B"/>
<path fill-rule="evenodd" clip-rule="evenodd" d="M14.1118 7.78844L10.0027 6.16906C10.0799 6.09194 10.168 6.01483 10.2451 5.94873L14.255 7.53507C14.211 7.6232 14.1559 7.71133 14.1118 7.79946V7.78844Z" fill="#FCC07D"/>
<path fill-rule="evenodd" clip-rule="evenodd" d="M14.255 7.52395L10.2451 5.93761C10.3222 5.8605 10.4104 5.7944 10.4985 5.71729L14.4093 7.25956C14.3542 7.34769 14.3101 7.43582 14.255 7.52395Z" fill="#FCC37F"/>
<path fill-rule="evenodd" clip-rule="evenodd" d="M14.3983 7.27066L10.4875 5.72838C10.5756 5.65127 10.6527 5.58517 10.7409 5.50806L14.5525 7.01728C14.4974 7.10541 14.4533 7.19354 14.3983 7.28167V7.27066Z" fill="#FCC480"/>
<path fill-rule="evenodd" clip-rule="evenodd" d="M14.5525 7.00641L10.7408 5.49718C10.829 5.42007 10.9171 5.35397 10.9942 5.27686L14.7067 6.74202C14.6516 6.83015 14.6075 6.91828 14.5525 6.99539V7.00641Z" fill="#FCC480"/>
<path fill-rule="evenodd" clip-rule="evenodd" d="M14.7067 6.75287L10.9942 5.28771C11.0823 5.21059 11.1705 5.1445 11.2476 5.06738L14.8609 6.4995C14.8058 6.58763 14.7507 6.67576 14.7067 6.75287Z" fill="#FCC481"/>
<path fill-rule="evenodd" clip-rule="evenodd" d="M14.8719 6.48859L11.2586 5.05648C11.3467 4.97936 11.4349 4.91327 11.523 4.84717L15.0262 6.23521C14.9711 6.32334 14.916 6.40046 14.8719 6.48859Z" fill="#FCC483"/>
<path fill-rule="evenodd" clip-rule="evenodd" d="M15.0262 6.23505L11.523 4.847C11.6111 4.76989 11.6993 4.70379 11.7874 4.6377L15.1914 5.98168C15.1363 6.06981 15.0813 6.14692 15.0262 6.23505Z" fill="#FCC784"/>
<path fill-rule="evenodd" clip-rule="evenodd" d="M15.1914 5.98176L11.7874 4.63778C11.8755 4.57168 11.9637 4.49456 12.0628 4.42847L15.3567 5.72838C15.3016 5.81651 15.2465 5.89363 15.1914 5.98176Z" fill="#FCC784"/>
<path fill-rule="evenodd" clip-rule="evenodd" d="M15.3567 5.72846L12.0628 4.42855C12.1509 4.36245 12.2501 4.28534 12.3382 4.21924L15.5329 5.48611C15.4778 5.57424 15.4228 5.65135 15.3677 5.73948L15.3567 5.72846Z" fill="#FCC785"/>
<path fill-rule="evenodd" clip-rule="evenodd" d="M15.5329 5.47508L12.3382 4.20821C12.4263 4.14211 12.5255 4.065 12.6136 3.9989L15.6982 5.2217C15.6431 5.30983 15.577 5.38695 15.5219 5.47508H15.5329Z" fill="#FCC787"/>
<path fill-rule="evenodd" clip-rule="evenodd" d="M15.7092 5.22166L12.6246 3.99886C12.7238 3.93276 12.8119 3.86666 12.9111 3.78955L15.8854 4.96829C15.8304 5.05642 15.7643 5.13353 15.7092 5.22166Z" fill="#FCC787"/>
<path fill-rule="evenodd" clip-rule="evenodd" d="M15.8855 4.97936L12.9111 3.80062C13.0102 3.73452 13.0983 3.65741 13.1975 3.59131L16.0617 4.72598C15.9956 4.8031 15.9405 4.89123 15.8855 4.97936Z" fill="#FDC98A"/>
<path fill-rule="evenodd" clip-rule="evenodd" d="M16.0617 4.72591L13.1974 3.59124C13.2966 3.52514 13.3957 3.45904 13.4949 3.39294L16.249 4.48355C16.1829 4.56067 16.1278 4.6488 16.0617 4.72591Z" fill="#FDC98C"/>
<path fill-rule="evenodd" clip-rule="evenodd" d="M16.2489 4.4836L13.4949 3.39299C13.594 3.3269 13.6932 3.2608 13.7923 3.1947L16.4362 4.24125C16.3701 4.31836 16.315 4.40649 16.2489 4.4836Z" fill="#FDC98C"/>
<path fill-rule="evenodd" clip-rule="evenodd" d="M16.4252 4.23031L13.7813 3.18377C13.8805 3.11767 13.9906 3.05157 14.0898 2.98547L16.6125 3.98795C16.5464 4.06507 16.4803 4.1532 16.4252 4.23031Z" fill="#FDCB8C"/>
<path fill-rule="evenodd" clip-rule="evenodd" d="M16.6236 3.988L14.1008 2.98552C14.2 2.91943 14.3101 2.85333 14.4093 2.78723L16.8108 3.73463C16.7447 3.81174 16.6896 3.89987 16.6236 3.97699V3.988Z" fill="#FDCB8E"/>
<path fill-rule="evenodd" clip-rule="evenodd" d="M16.8108 3.74554L14.4092 2.79815C14.5194 2.73205 14.6185 2.66595 14.7287 2.59985L17.0091 3.50319C16.943 3.5803 16.8769 3.66843 16.8108 3.74554Z" fill="#FDCB8F"/>
<path fill-rule="evenodd" clip-rule="evenodd" d="M17.0091 3.50321L14.7287 2.59987C14.8389 2.53378 14.938 2.46768 15.0482 2.4126L17.2074 3.27187C17.1413 3.34898 17.0752 3.43711 17.0091 3.51422V3.50321Z" fill="#FDCB8F"/>
<path fill-rule="evenodd" clip-rule="evenodd" d="M17.2074 3.26078L15.0482 2.40151C15.1584 2.33541 15.2685 2.26931 15.3787 2.21423L17.4057 3.01842C17.3396 3.09553 17.2735 3.17265 17.2074 3.26078Z" fill="#FDCD90"/>
<path fill-rule="evenodd" clip-rule="evenodd" d="M17.4057 3.01856L15.3787 2.21438C15.4888 2.14828 15.599 2.0932 15.7091 2.0271L17.615 2.7762C17.5489 2.85332 17.4828 2.93043 17.4057 3.01856Z" fill="#FDCD94"/>
<path fill-rule="evenodd" clip-rule="evenodd" d="M17.615 2.78721L15.7092 2.03811C15.8193 1.97201 15.9405 1.91693 16.0507 1.85083L17.8133 2.54485C17.7472 2.62197 17.6811 2.69908 17.604 2.78721H17.615Z" fill="#FDCD94"/>
<path fill-rule="evenodd" clip-rule="evenodd" d="M17.8133 2.54475L16.0507 1.85073C16.1608 1.78463 16.282 1.72955 16.4032 1.66345L18.0336 2.31341C17.9675 2.39052 17.8904 2.46764 17.8243 2.54475H17.8133Z" fill="#FDCF96"/>
<path fill-rule="evenodd" clip-rule="evenodd" d="M18.0226 2.31352L16.3922 1.66356C16.5133 1.59747 16.6235 1.54239 16.7447 1.4873L18.2319 2.07117C18.1658 2.14828 18.0887 2.22539 18.0226 2.30251V2.31352Z" fill="#FDCF96"/>
<path fill-rule="evenodd" clip-rule="evenodd" d="M18.2429 2.07116L16.7557 1.4873C16.8769 1.43221 16.9981 1.36612 17.1193 1.31104L18.4633 1.83981C18.3861 1.91693 18.32 1.99404 18.2429 2.07116Z" fill="#FDCF98"/>
<path fill-rule="evenodd" clip-rule="evenodd" d="M18.4522 1.83968L17.1082 1.3109C17.2294 1.25582 17.3506 1.20074 17.4828 1.13464L18.6725 1.60834C18.5954 1.68546 18.5183 1.76257 18.4522 1.83968Z" fill="#FDCF9A"/>
<path fill-rule="evenodd" clip-rule="evenodd" d="M18.6725 1.60842L17.4828 1.13473C17.604 1.07964 17.7362 1.02456 17.8573 0.969482L18.8929 1.37708C18.8158 1.4542 18.7497 1.53131 18.6725 1.60842Z" fill="#FDCF9A"/>
<path fill-rule="evenodd" clip-rule="evenodd" d="M18.8928 1.37704L17.8573 0.969443C17.9895 0.914362 18.1217 0.85928 18.2429 0.804199L19.1132 1.1457C19.036 1.22282 18.9589 1.29993 18.8818 1.37704H18.8928Z" fill="#FDCF9A"/>
<path fill-rule="evenodd" clip-rule="evenodd" d="M19.1242 1.14566L18.2539 0.80416C18.3861 0.749079 18.5183 0.693997 18.6505 0.638916L19.3555 0.914322C19.2784 0.991436 19.2013 1.06855 19.1242 1.14566Z" fill="#FDD19D"/>
<path fill-rule="evenodd" clip-rule="evenodd" d="M19.3556 0.914351L18.6505 0.638945C19.1793 0.429636 19.7081 0.231344 20.2589 0.0440674C19.9504 0.33049 19.653 0.616912 19.3556 0.914351Z" fill="#FDD39F"/>
<path fill-rule="evenodd" clip-rule="evenodd" d="M38.4797 31.2641L36.8824 26.9127V26.8906C37.5544 28.2566 38.1272 29.832 38.4797 31.2641Z" fill="#F19020"/>
<path fill-rule="evenodd" clip-rule="evenodd" d="M36.8824 26.9126L38.4798 31.264C38.612 31.7708 38.7111 32.2665 38.7772 32.7292C38.7552 32.7732 38.7331 32.8173 38.7221 32.8504L36.6951 27.3312C36.7612 27.199 36.8273 27.0558 36.8934 26.9126H36.8824Z" fill="#F19020"/>
<path fill-rule="evenodd" clip-rule="evenodd" d="M36.6841 27.3314L38.7111 32.8506C38.656 32.9828 38.5899 33.126 38.5128 33.2582L36.4858 27.728C36.5519 27.5958 36.618 27.4636 36.6841 27.3314Z" fill="#F19120"/>
<path fill-rule="evenodd" clip-rule="evenodd" d="M36.4858 27.7278L38.5128 33.258C38.4467 33.3792 38.3806 33.5003 38.3035 33.6215L36.2765 28.1134C36.3426 27.9922 36.4197 27.86 36.4858 27.7278ZM34.2715 22.6383L33.7648 21.2393C33.9631 21.5257 34.1503 21.8121 34.3266 22.1095C34.3156 22.2858 34.2936 22.4621 34.2825 22.6383H34.2715Z" fill="#F19020"/>
<path fill-rule="evenodd" clip-rule="evenodd" d="M33.7648 21.2504L34.2715 22.6494C34.2495 22.8918 34.2165 23.1231 34.1834 23.3655L33.0598 20.303C33.3021 20.6114 33.5335 20.9309 33.7538 21.2504H33.7648ZM36.2875 28.1135L38.3145 33.6216C38.2484 33.7318 38.1713 33.8419 38.0942 33.9631L36.0782 28.4881C36.1553 28.3669 36.2214 28.2457 36.2875 28.1245V28.1135Z" fill="#F19120"/>
<path fill-rule="evenodd" clip-rule="evenodd" d="M33.0708 20.292L34.1945 23.3545C34.1614 23.5749 34.1284 23.7952 34.0953 24.0155L32.4429 19.5209C32.6522 19.7632 32.8615 20.0166 33.0708 20.281V20.292ZM36.0782 28.4771L38.0942 33.9522C38.0171 34.0623 37.94 34.1615 37.8629 34.2606L35.8689 28.8186C35.946 28.6974 36.0121 28.5872 36.0892 28.4661L36.0782 28.4771Z" fill="#F19120"/>
<path fill-rule="evenodd" clip-rule="evenodd" d="M32.4429 19.5318L34.0953 24.0264C34.0623 24.2357 34.0182 24.445 33.9741 24.6433L31.859 18.8928C32.0463 19.0911 32.2446 19.3114 32.4429 19.5318ZM35.8579 28.8295L37.8518 34.2715C37.7747 34.3707 37.6976 34.4698 37.6095 34.5689L35.6266 29.171C35.7037 29.0608 35.7808 28.9507 35.8469 28.8405L35.8579 28.8295Z" fill="#F4941E"/>
<path fill-rule="evenodd" clip-rule="evenodd" d="M31.859 18.9039L33.9741 24.6544C33.9301 24.8527 33.886 25.04 33.8419 25.2382L31.3192 18.3751C31.4955 18.5404 31.6827 18.7166 31.859 18.9149V18.9039ZM35.6266 29.171L37.6095 34.569C37.5324 34.6682 37.4442 34.7563 37.3671 34.8444L35.4062 29.4905C35.4834 29.3804 35.5605 29.2812 35.6376 29.171H35.6266Z" fill="#F4941E"/>
<path fill-rule="evenodd" clip-rule="evenodd" d="M31.3192 18.3641L33.8419 25.2272C33.7978 25.4145 33.7428 25.5908 33.6987 25.778L30.8124 17.9235C30.9777 18.0557 31.1429 18.2099 31.3192 18.3641ZM35.4062 29.4905L37.3671 34.8444C37.29 34.9325 37.2019 35.0207 37.1137 35.1088L35.1639 29.81C35.241 29.7108 35.3181 29.6117 35.3952 29.5015L35.4062 29.4905Z" fill="#F4941E"/>
<path fill-rule="evenodd" clip-rule="evenodd" d="M30.8125 17.9234L33.6987 25.778C33.6547 25.9543 33.5996 26.1195 33.5445 26.2958L30.4159 17.7582C30.4159 17.7582 30.4159 17.6591 30.4159 17.615C30.5481 17.7031 30.6913 17.8133 30.8345 17.9234H30.8125ZM35.1749 29.799L37.1248 35.0978C37.0367 35.1859 36.9595 35.263 36.8714 35.3401L34.9436 30.0854C35.0207 29.9862 35.1088 29.8871 35.1859 29.7879L35.1749 29.799Z" fill="#F4961E"/>
<path fill-rule="evenodd" clip-rule="evenodd" d="M30.4049 17.7582L33.5335 26.2958C33.4784 26.461 33.4233 26.6263 33.3682 26.7805L30.3939 18.6946C30.4049 18.3861 30.4049 18.0666 30.3939 17.7582H30.4049ZM34.9326 30.0964L36.8604 35.3511C36.7723 35.4282 36.6841 35.5054 36.596 35.5825L34.6792 30.3718C34.7563 30.2837 34.8444 30.1845 34.9215 30.0854L34.9326 30.0964Z" fill="#F4961E"/>
<path fill-rule="evenodd" clip-rule="evenodd" d="M30.3938 18.6946L33.3682 26.7805C33.3131 26.9347 33.258 27.089 33.192 27.2432L30.3387 19.4767C30.3718 19.2123 30.3828 18.959 30.3938 18.6946ZM34.6791 30.3828L36.596 35.5935C36.5078 35.6706 36.4197 35.7367 36.3316 35.8138L34.4368 30.6582C34.5249 30.5701 34.602 30.482 34.6791 30.3938V30.3828Z" fill="#F5971E"/>
<path fill-rule="evenodd" clip-rule="evenodd" d="M30.3388 19.4657L33.192 27.2322C33.1369 27.3754 33.0708 27.5296 33.0047 27.6728L30.2396 20.1487C30.2727 19.9174 30.3057 19.697 30.3388 19.4657ZM34.4368 30.6472L36.3316 35.8028C36.2435 35.8689 36.1554 35.946 36.0672 36.0121L34.1834 30.9006C34.2716 30.8124 34.3487 30.7353 34.4368 30.6472Z" fill="#F5971E"/>
<path fill-rule="evenodd" clip-rule="evenodd" d="M30.2396 20.1487L33.0047 27.6728C32.9386 27.816 32.8835 27.9482 32.8064 28.0914L30.1184 20.7656C30.1625 20.5563 30.2065 20.358 30.2396 20.1487ZM34.1834 30.9005L36.0672 36.0121C35.9791 36.0782 35.8909 36.1443 35.7918 36.2104L33.93 31.1429C34.0182 31.0658 34.1063 30.9777 34.1834 30.9005Z" fill="#F5971E"/>
<path fill-rule="evenodd" clip-rule="evenodd" d="M30.1184 20.7656L32.8064 28.0914C32.7403 28.2236 32.6742 28.3558 32.6081 28.488L29.9862 21.3275C30.0413 21.1402 30.0854 20.9529 30.1294 20.7656H30.1184ZM33.93 31.1429L35.7918 36.2104C35.7036 36.2765 35.6155 36.3426 35.5164 36.4087L33.6656 31.3743C33.7538 31.2972 33.8419 31.22 33.93 31.1429Z" fill="#F5971E"/>
<path fill-rule="evenodd" clip-rule="evenodd" d="M29.9862 21.3385L32.6081 28.4991C32.542 28.6313 32.4759 28.7524 32.3988 28.8736L29.821 21.8673C29.8761 21.691 29.9311 21.5148 29.9752 21.3385H29.9862ZM33.6767 31.3853L35.5274 36.4197C35.4393 36.4858 35.3401 36.5409 35.252 36.607L33.4123 31.6167C33.5004 31.5395 33.5885 31.4734 33.6767 31.3963V31.3853Z" fill="#F59722"/>
<path fill-rule="evenodd" clip-rule="evenodd" d="M29.832 21.8672L32.4098 28.8735C32.3437 28.9947 32.2666 29.1159 32.2005 29.2371L29.6778 22.3629C29.7329 22.1977 29.788 22.0324 29.843 21.8672H29.832ZM33.4123 31.6056L35.252 36.5959C35.1639 36.651 35.0647 36.7171 34.9656 36.7722L33.1479 31.8149C33.236 31.7488 33.3242 31.6716 33.4123 31.6056Z" fill="#F89A22"/>
<path fill-rule="evenodd" clip-rule="evenodd" d="M29.6668 22.3629L32.1895 29.2371C32.1234 29.3582 32.0463 29.4684 31.9692 29.5786L29.4905 22.8256C29.5566 22.6714 29.6117 22.5171 29.6668 22.3629ZM33.1369 31.8259L34.9546 36.7832C34.8555 36.8383 34.7673 36.8933 34.6682 36.9594L32.8615 32.0352C32.9496 31.9691 33.0488 31.903 33.1369 31.8369V31.8259Z" fill="#F89A22"/>
<path fill-rule="evenodd" clip-rule="evenodd" d="M29.4905 22.8257L31.9692 29.5786C31.8921 29.6888 31.826 29.799 31.7489 29.9091L29.3143 23.2663C29.3804 23.1231 29.4354 22.9689 29.5015 22.8257H29.4905ZM32.8615 32.0243L34.6682 36.9485C34.569 37.0036 34.4809 37.0587 34.3817 37.1138L32.5861 32.2115C32.6742 32.1454 32.7734 32.0793 32.8615 32.0132V32.0243Z" fill="#F59B26"/>
<path fill-rule="evenodd" clip-rule="evenodd" d="M29.3143 23.2664L31.7488 29.9092C31.6717 30.0193 31.5946 30.1185 31.5175 30.2286L29.116 23.696C29.1821 23.5528 29.2482 23.4096 29.3032 23.2774L29.3143 23.2664ZM32.5971 32.2116L34.3927 37.1138C34.2936 37.1689 34.2055 37.2129 34.1063 37.268L32.3217 32.3988C32.4208 32.3437 32.509 32.2776 32.5971 32.2116Z" fill="#F89C27"/>
<path fill-rule="evenodd" clip-rule="evenodd" d="M29.116 23.696L31.5175 30.2286C31.4404 30.3277 31.3633 30.4379 31.2862 30.537L28.9177 24.0925C28.9838 23.9603 29.0499 23.8281 29.116 23.6849V23.696ZM32.3107 32.3988L34.0953 37.268C33.9962 37.3231 33.908 37.3671 33.8089 37.4222L32.0353 32.575C32.1344 32.52 32.2225 32.4539 32.3107 32.3988Z" fill="#F59B28"/>
<path fill-rule="evenodd" clip-rule="evenodd" d="M28.9176 24.1036L31.2861 30.5481C31.209 30.6473 31.1319 30.7464 31.0438 30.8456L28.7083 24.5002C28.7744 24.368 28.8405 24.2468 28.9176 24.1147V24.1036ZM32.0352 32.5862L33.8088 37.4333C33.7097 37.4774 33.6105 37.5324 33.5114 37.5765L31.7378 32.7514C31.8369 32.6963 31.9251 32.6412 32.0242 32.5862H32.0352Z" fill="#F59D2A"/>
<path fill-rule="evenodd" clip-rule="evenodd" d="M28.7194 24.489L31.0548 30.8344C30.9777 30.9335 30.9006 31.0216 30.8125 31.1208L28.5101 24.8636C28.5872 24.7424 28.6533 24.6102 28.7194 24.489ZM31.7488 32.7512L33.5225 37.5763C33.4233 37.6204 33.3242 37.6644 33.225 37.7195L31.4624 32.9164C31.5616 32.8614 31.6497 32.8063 31.7488 32.7512Z" fill="#F59D2C"/>
<path fill-rule="evenodd" clip-rule="evenodd" d="M28.51 24.8636L30.8124 31.1208C30.7353 31.2089 30.6472 31.3081 30.5701 31.3962L28.3007 25.2161C28.3778 25.0949 28.4439 24.9737 28.51 24.8525V24.8636ZM31.4624 32.9164L33.225 37.7195C33.1258 37.7636 33.0267 37.8076 32.9275 37.8517L31.176 33.0707C31.2751 33.0156 31.3743 32.9715 31.4624 32.9164Z" fill="#F59D2C"/>
<path fill-rule="evenodd" clip-rule="evenodd" d="M28.2897 25.2163L30.5591 31.3964C30.482 31.4846 30.3938 31.5727 30.3057 31.6608L28.0694 25.5688C28.1465 25.4587 28.2126 25.3375 28.2897 25.2163ZM31.165 33.0599L32.9165 37.8409C32.8174 37.885 32.7183 37.9291 32.6191 37.9731L30.8675 33.2031C30.9667 33.159 31.0658 33.1039 31.165 33.0599Z" fill="#F59D32"/>
<path fill-rule="evenodd" clip-rule="evenodd" d="M28.0694 25.5687L30.3057 31.6607C30.2176 31.7488 30.1404 31.837 30.0523 31.9141L27.8491 25.8992C27.9262 25.7891 28.0033 25.6789 28.0694 25.5687ZM30.8785 33.214L32.6301 37.984C32.531 38.0281 32.4318 38.0722 32.3327 38.1052L30.5921 33.3572C30.6913 33.3131 30.7904 33.2691 30.8895 33.214H30.8785Z" fill="#F69F32"/>
<path fill-rule="evenodd" clip-rule="evenodd" d="M27.8491 25.8993L30.0523 31.9142C29.9642 31.9913 29.8871 32.0794 29.799 32.1565L27.6177 26.2188C27.6949 26.1086 27.772 26.0095 27.8491 25.8993ZM30.5811 33.3463L32.3217 38.0943C32.2225 38.1383 32.1234 38.1714 32.0132 38.2155L30.2727 33.4785C30.3718 33.4344 30.4709 33.3903 30.5701 33.3463H30.5811Z" fill="#F89F33"/>
<path fill-rule="evenodd" clip-rule="evenodd" d="M27.6178 26.2186L29.799 32.1564C29.7108 32.2335 29.6227 32.3106 29.5346 32.3987L27.3864 26.5381C27.4635 26.439 27.5406 26.3288 27.6178 26.2296V26.2186ZM30.2837 33.4783L32.0243 38.2153C31.9251 38.2594 31.826 38.2924 31.7158 38.3365L29.9752 33.6105C30.0744 33.5665 30.1735 33.5224 30.2727 33.4894L30.2837 33.4783Z" fill="#F8A036"/>
<path fill-rule="evenodd" clip-rule="evenodd" d="M27.3864 26.5381L29.5346 32.3987C29.4464 32.4758 29.3583 32.553 29.2702 32.6301L27.144 26.8355C27.2212 26.7364 27.2983 26.6372 27.3754 26.5381H27.3864ZM29.9862 33.6105L31.7268 38.3365C31.6277 38.3695 31.5285 38.4136 31.4183 38.4467L29.6888 33.7317C29.7879 33.6876 29.8871 33.6546 29.9862 33.6105Z" fill="#F9A236"/>
<path fill-rule="evenodd" clip-rule="evenodd" d="M27.1551 26.8357L29.2812 32.6302C29.1931 32.7074 29.105 32.7735 29.0168 32.8506L26.9127 27.1331C26.9898 27.034 27.078 26.9348 27.1551 26.8357ZM29.6888 33.7319L31.4184 38.4468C31.3192 38.4799 31.2091 38.5129 31.1099 38.557L29.3804 33.853C29.4795 33.82 29.5787 33.7759 29.6888 33.7429V33.7319Z" fill="#F9A238"/>
<path fill-rule="evenodd" clip-rule="evenodd" d="M26.9127 27.1331L29.0168 32.8505C28.9287 32.9276 28.8406 32.9937 28.7524 33.0708L26.6703 27.4195C26.7475 27.3313 26.8356 27.2322 26.9127 27.1331ZM29.3803 33.842L31.1099 38.5459C31.0108 38.5789 30.9006 38.612 30.8014 38.645L29.0719 33.9411C29.171 33.908 29.2812 33.864 29.3803 33.8309V33.842Z" fill="#F6A138"/>
<path fill-rule="evenodd" clip-rule="evenodd" d="M26.6704 27.4193L28.7524 33.0707C28.6643 33.1368 28.5762 33.2139 28.488 33.28L26.439 27.6837C26.5272 27.5956 26.6043 27.4965 26.6814 27.4083L26.6704 27.4193ZM29.0719 33.963L30.8015 38.6669C30.7023 38.7 30.5922 38.733 30.493 38.7661L28.7745 34.0732C28.8736 34.0401 28.9838 34.0071 29.0829 33.963H29.0719Z" fill="#F6A13B"/>
<path fill-rule="evenodd" clip-rule="evenodd" d="M26.428 27.6949L28.477 33.2912C28.3889 33.3573 28.3008 33.4234 28.2016 33.5005L26.1746 27.9704C26.2628 27.8822 26.3399 27.7941 26.428 27.706V27.6949ZM28.7634 34.0623L30.482 38.7553C30.3828 38.7883 30.2727 38.8214 30.1735 38.8544L28.455 34.1725C28.5541 34.1395 28.6643 34.1064 28.7634 34.0734V34.0623Z" fill="#F6A33D"/>
<path fill-rule="evenodd" clip-rule="evenodd" d="M26.1856 27.9592L28.2126 33.4894C28.1245 33.5555 28.0253 33.6216 27.9372 33.6877L25.9323 28.2236C26.0204 28.1355 26.0975 28.0474 26.1856 27.9592ZM28.466 34.1614L30.1845 38.8433C30.0854 38.8763 29.9752 38.8984 29.8651 38.9314L28.1465 34.2495C28.2457 34.2165 28.3558 34.1834 28.455 34.1504L28.466 34.1614Z" fill="#F6A53D"/>
<path fill-rule="evenodd" clip-rule="evenodd" d="M25.9323 28.2237L27.9372 33.6877C27.8491 33.7538 27.7499 33.8199 27.6618 33.875L25.6789 28.466C25.767 28.3779 25.8552 28.3008 25.9323 28.2126V28.2237ZM28.1465 34.2606L29.8651 38.9425C29.7659 38.9755 29.6558 38.9976 29.5456 39.0306L27.8271 34.3597C27.9262 34.3267 28.0364 34.3046 28.1355 34.2716L28.1465 34.2606Z" fill="#F6A540"/>
<path fill-rule="evenodd" clip-rule="evenodd" d="M25.6789 28.4661L27.6618 33.875C27.5737 33.9411 27.4746 33.9962 27.3864 34.0623L25.4255 28.7084C25.5137 28.6313 25.6018 28.5432 25.6789 28.4661ZM27.8381 34.3487L29.5566 39.0196C29.4575 39.0527 29.3473 39.0747 29.2372 39.0967L27.5296 34.4369C27.6398 34.4038 27.739 34.3818 27.8491 34.3487H27.8381Z" fill="#F6A540"/>
<path fill-rule="evenodd" clip-rule="evenodd" d="M25.4145 28.7194L27.3754 34.0733C27.2873 34.1394 27.1881 34.1944 27.1 34.2495L25.1611 28.9617C25.2493 28.8846 25.3374 28.8075 25.4255 28.7194H25.4145ZM27.5186 34.4478L29.2261 39.1077C29.116 39.1297 29.0168 39.1628 28.9067 39.1848L27.1991 34.5249C27.3093 34.4919 27.4084 34.4698 27.5186 34.4368V34.4478Z" fill="#F9A641"/>
<path fill-rule="evenodd" clip-rule="evenodd" d="M25.1611 28.9507L27.1 34.2385C27.0119 34.2936 26.9127 34.3597 26.8136 34.4148L24.8857 29.171C24.9739 29.0939 25.062 29.0168 25.1501 28.9397L25.1611 28.9507ZM27.2102 34.5249L28.9177 39.1848C28.8075 39.2068 28.7084 39.2399 28.5982 39.2619L26.8907 34.6131C26.9898 34.591 27.1 34.558 27.2102 34.5249Z" fill="#F9A641"/>
<path fill-rule="evenodd" clip-rule="evenodd" d="M24.8967 29.1819L26.8246 34.4256C26.7364 34.4807 26.6373 34.5358 26.5381 34.6019L24.6323 29.4132C24.7205 29.3361 24.8086 29.259 24.8967 29.1929V29.1819ZM26.8907 34.6129L28.5982 39.2618C28.488 39.2838 28.3889 39.3058 28.2787 39.3279L26.5712 34.69C26.6813 34.668 26.7805 34.6349 26.8907 34.6129Z" fill="#F9A643"/>
<path fill-rule="evenodd" clip-rule="evenodd" d="M24.6323 29.4023L26.5381 34.591C26.439 34.6461 26.3508 34.7012 26.2517 34.7562L24.3679 29.6227C24.456 29.5456 24.5442 29.4795 24.6323 29.4023ZM26.5712 34.6791C26.461 34.7012 26.3619 34.7342 26.2517 34.7562L27.9482 39.3831C28.0584 39.361 28.1685 39.339 28.2677 39.317L26.5602 34.6791H26.5712Z" fill="#F9A846"/>
<path fill-rule="evenodd" clip-rule="evenodd" d="M24.3679 29.6226L26.2517 34.7562L27.9482 39.383C27.8381 39.405 27.7389 39.4271 27.6287 39.4491L24.0925 29.8209C24.1807 29.7548 24.2688 29.6777 24.3569 29.6116L24.3679 29.6226Z" fill="#F7A947"/>
<path fill-rule="evenodd" clip-rule="evenodd" d="M24.1036 29.8319L27.6398 39.4601C27.5296 39.4821 27.4195 39.5042 27.3203 39.5152L23.8392 30.0412C23.9273 29.9751 24.0154 29.898 24.1146 29.8319H24.1036Z" fill="#F7A949"/>
<path fill-rule="evenodd" clip-rule="evenodd" d="M23.8281 30.0414L27.3093 39.5154C27.1991 39.5374 27.089 39.5594 26.9788 39.5704L23.5527 30.2397C23.6409 30.1736 23.74 30.1075 23.8281 30.0414Z" fill="#F7A94B"/>
<path fill-rule="evenodd" clip-rule="evenodd" d="M23.5527 30.2396L26.9788 39.5704C26.8686 39.5924 26.7585 39.6034 26.6483 39.6255L23.2773 30.4379C23.3655 30.3718 23.4646 30.3057 23.5527 30.2396Z" fill="#F7A94B"/>
<path fill-rule="evenodd" clip-rule="evenodd" d="M23.2773 30.4379L26.6483 39.6254C26.5381 39.6475 26.428 39.6585 26.3178 39.6695L22.9909 30.6142C23.0901 30.5481 23.1782 30.493 23.2663 30.4269L23.2773 30.4379Z" fill="#F7A94D"/>
<path fill-rule="evenodd" clip-rule="evenodd" d="M23.0019 30.6252L26.3288 39.6806C26.2187 39.6916 26.1085 39.7137 25.9983 39.7247L22.7265 30.8015C22.8256 30.7464 22.9138 30.6803 23.0019 30.6252Z" fill="#F7AB4D"/>
<path fill-rule="evenodd" clip-rule="evenodd" d="M22.7265 30.8013L25.9984 39.7244C25.8882 39.7354 25.778 39.7575 25.6679 39.7685L22.4401 30.9885C22.5393 30.9335 22.6274 30.8674 22.7155 30.8123L22.7265 30.8013Z" fill="#FAAC50"/>
<path fill-rule="evenodd" clip-rule="evenodd" d="M22.4401 30.9777L25.6678 39.7576C25.5577 39.7686 25.4475 39.7796 25.3374 39.7907L22.1647 31.1429C22.2638 31.0878 22.3519 31.0327 22.4511 30.9777H22.4401Z" fill="#FAAD50"/>
<path fill-rule="evenodd" clip-rule="evenodd" d="M22.1537 31.154L25.3263 39.8017C25.2162 39.8127 25.106 39.8237 24.9959 39.8348L21.8672 31.3082C21.9664 31.2531 22.0545 31.198 22.1537 31.1429V31.154Z" fill="#FAAD52"/>
<path fill-rule="evenodd" clip-rule="evenodd" d="M21.8672 31.3192L24.9958 39.8458C24.8857 39.8458 24.7755 39.8678 24.6654 39.8788L21.5808 31.4845C21.68 31.4294 21.7681 31.3743 21.8672 31.3192Z" fill="#FAAD52"/>
<path fill-rule="evenodd" clip-rule="evenodd" d="M21.5808 31.4734L24.6654 39.8678C24.5552 39.8678 24.4451 39.8898 24.3349 39.8898L21.3054 31.6276C21.4046 31.5725 21.5037 31.5285 21.5918 31.4734H21.5808Z" fill="#FAAD54"/>
<path fill-rule="evenodd" clip-rule="evenodd" d="M21.2944 31.6276L24.3239 39.8898C24.2138 39.8898 24.1036 39.9118 23.9824 39.9118L20.997 31.7708C21.0962 31.7267 21.1953 31.6717 21.2834 31.6166L21.2944 31.6276Z" fill="#FAAD54"/>
<path fill-rule="evenodd" clip-rule="evenodd" d="M21.008 31.7819L23.9934 39.9229C23.8833 39.9229 23.7731 39.9339 23.6519 39.9449L20.7106 31.9251C20.8097 31.881 20.9089 31.8259 21.008 31.7819Z" fill="#F7AF56"/>
<path fill-rule="evenodd" clip-rule="evenodd" d="M20.7105 31.925L23.6519 39.9449C23.5417 39.9449 23.4205 39.9559 23.3104 39.9669L20.4131 32.0793C20.5122 32.0352 20.6114 31.9801 20.7105 31.9361V31.925Z" fill="#F7AF56"/>
<path fill-rule="evenodd" clip-rule="evenodd" d="M20.4131 32.0684L23.3104 39.956C23.2002 39.956 23.079 39.956 22.9689 39.967L20.1157 32.2006C20.2148 32.1565 20.314 32.1124 20.4131 32.0684Z" fill="#F7AF59"/>
<path fill-rule="evenodd" clip-rule="evenodd" d="M20.1157 32.2005L22.9689 39.967C22.8587 39.967 22.7375 39.967 22.6274 39.967L19.8182 32.3107C19.9174 32.2666 20.0165 32.2225 20.1157 32.1785V32.2005Z" fill="#F7AF5B"/>
<path fill-rule="evenodd" clip-rule="evenodd" d="M19.8183 32.3326L22.6274 39.9889C22.5172 39.9889 22.3961 39.9889 22.2859 39.9889L19.5208 32.4538C19.62 32.4098 19.7191 32.3767 19.8183 32.3326Z" fill="#FAB15B"/>
<path fill-rule="evenodd" clip-rule="evenodd" d="M19.5208 32.4539L22.2859 39.989C22.1757 39.989 22.0546 39.989 21.9444 39.989L19.2234 32.575C19.3225 32.531 19.4217 32.4979 19.5208 32.4539Z" fill="#FAB15B"/>
<path fill-rule="evenodd" clip-rule="evenodd" d="M19.2123 32.5751L21.9333 39.989H21.5808L18.9039 32.6852C19.003 32.6522 19.1132 32.6081 19.2123 32.5751Z" fill="#FBB460"/>
<path fill-rule="evenodd" clip-rule="evenodd" d="M18.9149 32.6963L21.5918 40.0001C21.4817 40.0001 21.3605 40.0001 21.2393 40.0001L18.6064 32.8175C18.7056 32.7844 18.8158 32.7404 18.9149 32.7073V32.6963Z" fill="#FBB460"/>
<path fill-rule="evenodd" clip-rule="evenodd" d="M18.6065 32.8063L21.2393 39.9889C21.1182 39.9889 21.008 39.9889 20.8868 39.9889L18.287 32.9164C18.3861 32.8834 18.4963 32.8503 18.5954 32.8063H18.6065Z" fill="#FBB460"/>
<path fill-rule="evenodd" clip-rule="evenodd" d="M18.298 32.9056L20.8979 39.9781C20.7767 39.9781 20.6665 39.9781 20.5453 39.9781L17.9896 33.0158C18.0887 32.9828 18.1989 32.9497 18.298 32.9167V32.9056Z" fill="#FBB461"/>
<path fill-rule="evenodd" clip-rule="evenodd" d="M17.9895 33.0046L20.5453 39.9669C20.4241 39.9669 20.314 39.9669 20.1928 39.9559L17.6811 33.1148C17.7802 33.0818 17.8904 33.0487 17.9895 33.0157V33.0046Z" fill="#FBB464"/>
<path fill-rule="evenodd" clip-rule="evenodd" d="M17.6811 33.1039L20.1928 39.945C20.0716 39.945 19.9614 39.934 19.8403 39.9229L17.3726 33.192C17.4718 33.159 17.5819 33.1369 17.6811 33.1039Z" fill="#FBB664"/>
<path fill-rule="evenodd" clip-rule="evenodd" d="M17.3726 33.2029L19.8403 39.9338C19.7191 39.9338 19.5979 39.9228 19.4878 39.9118L17.0532 33.291C17.1633 33.258 17.2625 33.2359 17.3726 33.2029Z" fill="#FBB664"/>
<path fill-rule="evenodd" clip-rule="evenodd" d="M17.0531 33.2911L19.4877 39.9119C19.3666 39.9119 19.2564 39.8899 19.1352 39.8789L16.7447 33.3683C16.8549 33.3462 16.954 33.3132 17.0642 33.2911H17.0531Z" fill="#F8B766"/>
<path fill-rule="evenodd" clip-rule="evenodd" d="M16.7337 33.3682L19.1242 39.8788C19.003 39.8788 18.8818 39.8567 18.7606 39.8457L16.4142 33.4453C16.5243 33.4232 16.6235 33.3902 16.7337 33.3682Z" fill="#FBB868"/>
<path fill-rule="evenodd" clip-rule="evenodd" d="M16.4142 33.4453L18.7607 39.8458C18.6395 39.8458 18.5183 39.8237 18.3972 39.8127L16.0837 33.5224C16.1939 33.5004 16.293 33.4784 16.4032 33.4563L16.4142 33.4453Z" fill="#FBB868"/>
<path fill-rule="evenodd" clip-rule="evenodd" d="M16.0947 33.5224L18.4082 39.8126C18.287 39.8016 18.1658 39.7906 18.0446 39.7686L15.7753 33.5885C15.8854 33.5664 15.9846 33.5444 16.0947 33.5114V33.5224Z" fill="#FBB86B"/>
<path fill-rule="evenodd" clip-rule="evenodd" d="M15.7752 33.5885L18.0446 39.7686C17.9234 39.7576 17.8022 39.7356 17.6811 39.7246L15.4448 33.6436C15.5549 33.6216 15.6651 33.5995 15.7642 33.5775L15.7752 33.5885Z" fill="#FBB86C"/>
<path fill-rule="evenodd" clip-rule="evenodd" d="M15.4558 33.6547L17.6921 39.7356C17.5709 39.7246 17.4498 39.7026 17.3286 39.6916L15.1364 33.7318C15.2465 33.7097 15.3567 33.6877 15.4558 33.6657V33.6547Z" fill="#FBBA6D"/>
<path fill-rule="evenodd" clip-rule="evenodd" d="M15.1363 33.7209L17.3285 39.6806C17.2074 39.6696 17.0862 39.6476 16.965 39.6256L14.8168 33.7649C14.927 33.7429 15.0372 33.7319 15.1473 33.7098L15.1363 33.7209Z" fill="#FCBC6D"/>
<path fill-rule="evenodd" clip-rule="evenodd" d="M14.8058 33.7759L16.954 39.6365C16.8328 39.6145 16.7116 39.6035 16.5905 39.5814L14.4753 33.831C14.5855 33.8199 14.6957 33.7979 14.8058 33.7759Z" fill="#FCBC6F"/>
<path fill-rule="evenodd" clip-rule="evenodd" d="M14.4754 33.8199L16.5905 39.5704C16.4693 39.5484 16.3481 39.5264 16.2269 39.5043L14.1559 33.864C14.266 33.853 14.3762 33.831 14.4864 33.8199H14.4754Z" fill="#FCBC6F"/>
<path fill-rule="evenodd" clip-rule="evenodd" d="M14.1449 33.864L16.2159 39.5043C16.0948 39.4823 15.9736 39.4603 15.8414 39.4382L13.8144 33.9081C13.9246 33.8971 14.0347 33.875 14.1449 33.864Z" fill="#FBBC71"/>
<path fill-rule="evenodd" clip-rule="evenodd" d="M13.8144 33.908L15.8414 39.4381C15.7202 39.4161 15.588 39.3941 15.4668 39.372L13.4729 33.952C13.5831 33.941 13.6932 33.93 13.8034 33.919L13.8144 33.908Z" fill="#FBBC73"/>
<path fill-rule="evenodd" clip-rule="evenodd" d="M13.4839 33.952L15.4778 39.372C15.3566 39.35 15.2244 39.3169 15.1033 39.2949L13.1534 33.9851C13.2635 33.9851 13.3737 33.963 13.4839 33.952Z" fill="#FBBC74"/>
<path fill-rule="evenodd" clip-rule="evenodd" d="M13.1534 33.9851L15.1033 39.2949C14.9821 39.2729 14.8499 39.2399 14.7287 39.2178L12.8119 34.0071C12.9221 34.0071 13.0432 33.9851 13.1534 33.9851Z" fill="#FCBE77"/>
<path fill-rule="evenodd" clip-rule="evenodd" d="M12.8119 34.0071L14.7287 39.2178C14.6075 39.1847 14.4753 39.1627 14.3541 39.1296L12.4814 34.0401C12.5915 34.0401 12.7127 34.0181 12.8229 34.0181L12.8119 34.0071Z" fill="#FCC077"/>
<path fill-rule="evenodd" clip-rule="evenodd" d="M12.4814 34.0403L14.3542 39.1298C14.233 39.0967 14.1008 39.0747 13.9796 39.0417L12.1509 34.0623C12.2611 34.0623 12.3713 34.0513 12.4924 34.0403H12.4814Z" fill="#FCC079"/>
<path fill-rule="evenodd" clip-rule="evenodd" d="M12.1399 34.0513L13.9686 39.0306C13.8364 38.9976 13.7152 38.9645 13.583 38.9315L11.7984 34.0623C11.9086 34.0623 12.0297 34.0623 12.1399 34.0513Z" fill="#FCC07B"/>
<path fill-rule="evenodd" clip-rule="evenodd" d="M11.7984 34.0732L13.583 38.9424C13.4508 38.9094 13.3296 38.8763 13.1974 38.8433L11.4459 34.0843C11.556 34.0843 11.6772 34.0843 11.7874 34.0843L11.7984 34.0732Z" fill="#FCC07B"/>
<path fill-rule="evenodd" clip-rule="evenodd" d="M11.4569 34.0842L13.2085 38.8432C13.0763 38.8102 12.9441 38.7661 12.8229 38.7331L11.1154 34.0952C11.2256 34.0952 11.3468 34.0952 11.4569 34.0952V34.0842Z" fill="#FCC07B"/>
<path fill-rule="evenodd" clip-rule="evenodd" d="M11.1154 34.0842L12.8229 38.7221C12.6907 38.689 12.5695 38.645 12.4373 38.6119L10.7739 34.0842C10.895 34.0842 11.0052 34.0842 11.1154 34.0842Z" fill="#FCC07D"/>
<path fill-rule="evenodd" clip-rule="evenodd" d="M10.7629 34.0842L12.4263 38.6119C12.2941 38.5678 12.1619 38.5348 12.0297 38.4907L10.4103 34.0842C10.5315 34.0842 10.6417 34.0842 10.7629 34.0842Z" fill="#FCC37F"/>
<path fill-rule="evenodd" clip-rule="evenodd" d="M10.4214 34.0842L12.0408 38.4907C11.9086 38.4467 11.7764 38.4026 11.6442 38.3696L10.0688 34.0842C10.19 34.0842 10.3002 34.0842 10.4214 34.0842Z" fill="#FCC480"/>
<path fill-rule="evenodd" clip-rule="evenodd" d="M10.0688 34.0732L11.6442 38.3585C11.512 38.3144 11.3798 38.2703 11.2476 38.2263L9.71631 34.0621C9.83749 34.0621 9.94765 34.0621 10.0688 34.0732Z" fill="#FCC480"/>
<path fill-rule="evenodd" clip-rule="evenodd" d="M9.71629 34.0623L11.2475 38.2265C11.1154 38.1824 10.9832 38.1383 10.851 38.0832L9.36377 34.0403C9.48495 34.0403 9.59511 34.0513 9.71629 34.0513V34.0623Z" fill="#FCC481"/>
<path fill-rule="evenodd" clip-rule="evenodd" d="M9.36384 34.0513L10.851 38.0943C10.7188 38.0502 10.5866 37.9951 10.4545 37.9511L9.02234 34.0403C9.14352 34.0403 9.25368 34.0513 9.37486 34.0623L9.36384 34.0513Z" fill="#FCC483"/>
<path fill-rule="evenodd" clip-rule="evenodd" d="M9.0113 34.0291L10.4434 37.9399C10.3112 37.8848 10.179 37.8407 10.0358 37.7857L8.64777 34.0071C8.76894 34.0071 8.87911 34.0291 9.00029 34.0291H9.0113Z" fill="#FCC784"/>
<path fill-rule="evenodd" clip-rule="evenodd" d="M8.65876 34.0072L10.0468 37.7857C9.91462 37.7307 9.7714 37.6756 9.63921 37.6205L8.29523 33.9741C8.41641 33.9741 8.53758 33.9962 8.65876 34.0072Z" fill="#FCC784"/>
<path fill-rule="evenodd" clip-rule="evenodd" d="M8.29521 33.9741L9.63919 37.6205C9.507 37.5654 9.36378 37.4993 9.23159 37.4442L7.94269 33.9301C8.06387 33.9411 8.18505 33.9521 8.30622 33.9631L8.29521 33.9741Z" fill="#FCC785"/>
<path fill-rule="evenodd" clip-rule="evenodd" d="M7.94273 33.941L9.23163 37.4552C9.09944 37.4001 8.95623 37.334 8.82403 37.2789L7.59021 33.908C7.71139 33.919 7.83257 33.941 7.95375 33.952L7.94273 33.941Z" fill="#FCC787"/>
<path fill-rule="evenodd" clip-rule="evenodd" d="M7.57917 33.8971L8.81299 37.268C8.66978 37.2019 8.53759 37.1358 8.39438 37.0808L7.21564 33.864C7.33682 33.875 7.45799 33.8971 7.57917 33.9081V33.8971Z" fill="#FCC787"/>
<path fill-rule="evenodd" clip-rule="evenodd" d="M7.21565 33.8529L8.39439 37.0697C8.25118 37.0036 8.11898 36.9375 7.97577 36.8714L6.85211 33.7979C6.97329 33.8089 7.09447 33.8309 7.21565 33.8529Z" fill="#FDC98A"/>
<path fill-rule="evenodd" clip-rule="evenodd" d="M6.85212 33.8089L7.97578 36.8824C7.83257 36.8163 7.68936 36.7392 7.55716 36.6731L6.48859 33.7538C6.60977 33.7758 6.73094 33.7868 6.85212 33.8089Z" fill="#FDC98C"/>
<path fill-rule="evenodd" clip-rule="evenodd" d="M6.48857 33.7538L7.55714 36.6731C7.41393 36.596 7.27072 36.5299 7.12751 36.4528L6.11401 33.6987C6.23519 33.7208 6.35637 33.7428 6.47755 33.7538H6.48857Z" fill="#FDC98C"/>
<path fill-rule="evenodd" clip-rule="evenodd" d="M6.11402 33.6877L7.12752 36.4417C6.98431 36.3646 6.8411 36.2875 6.69789 36.2104L5.75049 33.6216C5.87167 33.6436 5.99285 33.6656 6.11402 33.6877Z" fill="#FDCB8C"/>
<path fill-rule="evenodd" clip-rule="evenodd" d="M5.75047 33.6325L6.69787 36.2213C6.55465 36.1442 6.41144 36.0561 6.25722 35.979L5.37592 33.5664C5.49709 33.5884 5.62929 33.6105 5.75047 33.6325Z" fill="#FDCB8E"/>
<path fill-rule="evenodd" clip-rule="evenodd" d="M5.37596 33.5555L6.25726 35.9681C6.11404 35.8799 5.95982 35.7918 5.81661 35.7037L5.0014 33.4784C5.12258 33.5004 5.25478 33.5225 5.37596 33.5445V33.5555Z" fill="#FDCB8F"/>
<path fill-rule="evenodd" clip-rule="evenodd" d="M5.00138 33.4893L5.81659 35.7146C5.67338 35.6265 5.51915 35.5384 5.37594 35.4392L4.62683 33.4122C4.74801 33.4343 4.8802 33.4673 5.00138 33.4893Z" fill="#FDCB8F"/>
<path fill-rule="evenodd" clip-rule="evenodd" d="M4.62681 33.4123L5.37592 35.4393C5.22169 35.3402 5.07848 35.252 4.92425 35.1529L4.25226 33.3352C4.37344 33.3683 4.50563 33.3903 4.62681 33.4233V33.4123Z" fill="#FDCD90"/>
<path fill-rule="evenodd" clip-rule="evenodd" d="M4.25227 33.3241L4.92426 35.1418C4.77003 35.0427 4.6158 34.9435 4.46158 34.8333L3.8667 33.225C3.99889 33.258 4.12007 33.2801 4.24125 33.3131L4.25227 33.3241Z" fill="#FDCD94"/>
<path fill-rule="evenodd" clip-rule="evenodd" d="M3.87773 33.2361L4.4726 34.8445C4.31838 34.7343 4.16415 34.6351 4.00992 34.525L3.50317 33.1479C3.63537 33.181 3.75655 33.214 3.87773 33.2471V33.2361Z" fill="#FDCD94"/>
<path fill-rule="evenodd" clip-rule="evenodd" d="M3.49214 33.1479L3.99888 34.5249C3.84466 34.4147 3.67941 34.3046 3.52518 34.1834L3.10657 33.0487C3.23876 33.0818 3.35994 33.1148 3.49214 33.1479Z" fill="#FDCF96"/>
<path fill-rule="evenodd" clip-rule="evenodd" d="M3.10658 33.0489L3.52519 34.1835C3.35995 34.0623 3.20572 33.9412 3.04048 33.82L2.72101 32.9497C2.8532 32.9828 2.97438 33.0158 3.10658 33.0489Z" fill="#FDCF96"/>
<path fill-rule="evenodd" clip-rule="evenodd" d="M2.72102 32.9385L3.04049 33.8088C2.87525 33.6766 2.71 33.5554 2.55577 33.4232L2.33545 32.8394C2.46764 32.8724 2.58882 32.9055 2.72102 32.9495V32.9385Z" fill="#FDCF98"/>
<path fill-rule="evenodd" clip-rule="evenodd" d="M2.33546 32.8394L2.55578 33.4233C2.39054 33.2911 2.2253 33.1479 2.06005 33.0047L1.94989 32.7183C2.08209 32.7623 2.21428 32.7954 2.33546 32.8284V32.8394Z" fill="#FDCF9A"/>
<path fill-rule="evenodd" clip-rule="evenodd" d="M1.94987 32.7183L2.06003 33.0047C1.90581 32.8725 1.7626 32.7513 1.61938 32.6191C1.72955 32.6522 1.85073 32.6852 1.96089 32.7183H1.94987Z" fill="#FDCF9A"/>
<path fill-rule="evenodd" clip-rule="evenodd" d="M20.4241 0.0330811L18.981 1.17877C19.3996 0.77117 19.8293 0.385601 20.2589 0.0440973C20.314 0.0440973 20.3691 0.0440973 20.4241 0.0330811Z" fill="#EF8721"/>
<path fill-rule="evenodd" clip-rule="evenodd" d="M18.97 1.17874L20.4241 0.0330487C20.5894 0.0110162 20.7546 0.0110162 20.9199 0L17.7252 2.53374C18.1328 2.04902 18.5514 1.59736 18.97 1.17874Z" fill="#EF8721"/>
<path fill-rule="evenodd" clip-rule="evenodd" d="M17.7252 2.53374L20.9199 0C21.0741 0 21.2173 0 21.3716 0L16.954 3.50317C17.2074 3.16166 17.4608 2.84219 17.7252 2.52272V2.53374Z" fill="#EF8721"/>
<path fill-rule="evenodd" clip-rule="evenodd" d="M16.965 3.51418L21.3715 0C21.5147 0 21.6469 0.0220325 21.7901 0.0330487L16.3701 4.32939C16.5684 4.04296 16.7557 3.76756 16.965 3.50317V3.51418Z" fill="#F08921"/>
<path fill-rule="evenodd" clip-rule="evenodd" d="M16.3701 4.3404L21.8011 0.0440674C21.9333 0.0550836 22.0655 0.0771161 22.1977 0.0991486L16.9099 4.29634C16.7337 4.30736 16.5574 4.32939 16.3811 4.35142L16.3701 4.3404Z" fill="#F08921"/>
<path fill-rule="evenodd" clip-rule="evenodd" d="M16.9099 4.2853L22.1867 0.0991211C22.3079 0.121154 22.4401 0.143186 22.5613 0.165219L17.4057 4.25225C17.2404 4.25225 17.0752 4.27428 16.8989 4.2853H16.9099Z" fill="#F08A21"/>
<path fill-rule="evenodd" clip-rule="evenodd" d="M17.4057 4.25231L22.5613 0.165283C22.6825 0.187316 22.8037 0.220364 22.9248 0.253413L17.8904 4.24129C17.7362 4.24129 17.5709 4.24129 17.4057 4.25231Z" fill="#F08A21"/>
<path fill-rule="evenodd" clip-rule="evenodd" d="M17.8904 4.2413L22.9248 0.253418C23.035 0.286467 23.1561 0.308499 23.2663 0.352564L18.3531 4.25232C18.1988 4.25232 18.0446 4.25232 17.8904 4.25232V4.2413Z" fill="#F08C21"/>
<path fill-rule="evenodd" clip-rule="evenodd" d="M18.3531 4.24131L23.2663 0.341553C23.3765 0.374601 23.4867 0.40765 23.5968 0.440699L18.7937 4.25232C18.6505 4.25232 18.4963 4.24131 18.3531 4.23029V4.24131Z" fill="#F08C21"/>
<path fill-rule="evenodd" clip-rule="evenodd" d="M18.7937 4.25239L23.5968 0.451782C23.707 0.484831 23.8061 0.528896 23.9163 0.561945L19.2123 4.28544C19.0691 4.27442 18.9259 4.2634 18.7827 4.25239H18.7937Z" fill="#F08C21"/>
<path fill-rule="evenodd" clip-rule="evenodd" d="M19.2234 4.28538L23.9273 0.56189C24.0265 0.594938 24.1366 0.639003 24.2358 0.683068L19.631 4.32945C19.4988 4.30741 19.3556 4.2964 19.2234 4.28538ZM13.4949 9.19863L13.2966 9.35286L13.3297 9.27574C13.3297 9.27574 13.4398 9.22066 13.4949 9.19863Z" fill="#F08E20"/>
<path fill-rule="evenodd" clip-rule="evenodd" d="M13.2856 9.36376L13.4839 9.20953C13.8364 9.04429 14.1779 8.89006 14.5304 8.74685L13.0322 9.9366C13.1093 9.74933 13.1975 9.56205 13.2856 9.36376ZM19.6199 4.34035L24.2247 0.69397C24.3239 0.738035 24.423 0.771083 24.5332 0.815148L20.0165 4.39543C19.8843 4.3734 19.7632 4.35136 19.631 4.34035H19.6199Z" fill="#F08C21"/>
<path fill-rule="evenodd" clip-rule="evenodd" d="M13.0322 9.92565L14.5304 8.7359C14.8279 8.61472 15.1253 8.50456 15.4227 8.39439L12.7899 10.4875C12.867 10.3002 12.9441 10.1129 13.0322 9.92565ZM20.0165 4.38448L24.5332 0.804199C24.6323 0.848264 24.7315 0.892329 24.8306 0.936394L20.3911 4.45058C20.2699 4.42854 20.1377 4.40651 20.0165 4.38448Z" fill="#F08E20"/>
<path fill-rule="evenodd" clip-rule="evenodd" d="M12.7899 10.4875L15.4228 8.3944C15.6871 8.30627 15.9405 8.21814 16.2049 8.14103L12.5585 11.0273C12.6356 10.851 12.7017 10.6637 12.7899 10.4765V10.4875ZM20.3911 4.45059L24.8306 0.936401C24.9298 0.980466 25.0179 1.02453 25.1171 1.07961L20.7656 4.53871C20.6445 4.50567 20.5233 4.48363 20.4021 4.4616L20.3911 4.45059Z" fill="#F08E20"/>
<path fill-rule="evenodd" clip-rule="evenodd" d="M12.5586 11.0383L16.2049 8.15202C16.4363 8.08592 16.6786 8.01983 16.91 7.95373L12.3492 11.5671C12.4153 11.3908 12.4814 11.2145 12.5586 11.0383ZM20.7546 4.53869L25.1061 1.07959C25.2052 1.12365 25.2933 1.16772 25.3925 1.2228L21.1072 4.62682C20.997 4.59377 20.8758 4.56072 20.7546 4.53869Z" fill="#F19020"/>
<path fill-rule="evenodd" clip-rule="evenodd" d="M12.3492 11.5671L16.9099 7.95374C17.1192 7.89865 17.3396 7.85459 17.5599 7.81052L12.1619 12.0958C12.217 11.9306 12.2831 11.7543 12.3492 11.5781V11.5671ZM21.1071 4.61581L25.3924 1.21179C25.4806 1.25586 25.5797 1.31094 25.6678 1.36602L21.4486 4.71496C21.3385 4.68191 21.2283 4.64886 21.1071 4.61581Z" fill="#F19020"/>
<path fill-rule="evenodd" clip-rule="evenodd" d="M12.1619 12.0849L17.5599 7.79958C17.7582 7.75551 17.9565 7.72246 18.1548 7.68942L11.9857 12.5806C12.0407 12.4154 12.0958 12.2501 12.1509 12.0849H12.1619ZM21.4486 4.71503L25.6678 1.36609C25.756 1.41015 25.8441 1.46524 25.9432 1.52032L21.7791 4.82519C21.6689 4.79214 21.5588 4.74808 21.4486 4.71503Z" fill="#F19020"/>
<path fill-rule="evenodd" clip-rule="evenodd" d="M11.9967 12.5806L18.1658 7.68936C18.353 7.65631 18.5403 7.63428 18.7276 7.61225L11.8535 13.0653C11.8975 12.9111 11.9416 12.7458 11.9967 12.5806ZM21.7791 4.82514L25.9432 1.52026C26.0314 1.57534 26.1195 1.61941 26.2076 1.67449L22.0986 4.9353C21.9994 4.89124 21.8893 4.85819 21.7791 4.82514Z" fill="#F19120"/>
<path fill-rule="evenodd" clip-rule="evenodd" d="M11.8535 13.0652L18.7276 7.6122C18.9039 7.59016 19.0802 7.57915 19.2564 7.55712L11.7433 13.5169C11.7764 13.3627 11.8205 13.2085 11.8645 13.0542L11.8535 13.0652ZM22.0986 4.93525L26.2077 1.67444C26.2958 1.72952 26.3839 1.7846 26.4721 1.83968L22.4071 5.06744C22.3079 5.02338 22.1978 4.97931 22.0986 4.94626V4.93525Z" fill="#F19020"/>
<path fill-rule="evenodd" clip-rule="evenodd" d="M11.7323 13.528L19.2454 7.56817C19.4106 7.55715 19.5759 7.54614 19.7411 7.53512L11.6332 13.9686C11.6552 13.8254 11.6883 13.6822 11.7213 13.528H11.7323ZM22.4071 5.06748L26.4721 1.83972C26.5602 1.8948 26.6483 1.94988 26.7254 2.00497L22.7045 5.19968C22.6054 5.15561 22.5062 5.11155 22.4071 5.06748Z" fill="#F19120"/>
<path fill-rule="evenodd" clip-rule="evenodd" d="M11.6442 13.9686L19.7521 7.53507C19.9063 7.53507 20.0716 7.53507 20.2258 7.52405L11.5781 14.3872C11.6001 14.255 11.6221 14.1118 11.6442 13.9686ZM22.7045 5.18861L26.7254 1.9939C26.8135 2.04898 26.8906 2.10406 26.9788 2.15914L23.0019 5.3208C22.9028 5.27674 22.8146 5.23267 22.7155 5.18861H22.7045Z" fill="#F19120"/>
<path fill-rule="evenodd" clip-rule="evenodd" d="M11.5781 14.3872L20.2258 7.52406C20.38 7.52406 20.5343 7.52406 20.6775 7.52406L12.4594 14.0457C12.1509 14.2109 11.8425 14.3762 11.556 14.5745C11.556 14.5084 11.567 14.4533 11.5781 14.3872ZM23.0019 5.33183L26.9788 2.17017C27.0669 2.22525 27.144 2.28033 27.2322 2.33541L23.2883 5.46402C23.2002 5.41996 23.1011 5.36488 23.0019 5.32081V5.33183Z" fill="#F4941E"/>
<path fill-rule="evenodd" clip-rule="evenodd" d="M12.4594 14.0567L20.6775 7.53509C20.8207 7.53509 20.9639 7.53509 21.1181 7.55712L13.5389 13.572C13.1644 13.7152 12.8119 13.8804 12.4594 14.0567ZM23.2773 5.47505L27.2211 2.34644C27.2982 2.40152 27.3864 2.46761 27.4635 2.5227L23.5527 5.62928C23.4646 5.5742 23.3654 5.53013 23.2773 5.47505Z" fill="#F4941E"/>
<path fill-rule="evenodd" clip-rule="evenodd" d="M13.539 13.561L21.1182 7.54614C21.2614 7.54614 21.3936 7.56818 21.5368 7.57919L14.3652 13.2746C14.0898 13.3627 13.8144 13.4619 13.539 13.561ZM23.5528 5.6183L27.4635 2.51172C27.5407 2.5668 27.6288 2.6329 27.7059 2.68798L23.8172 5.77253C23.729 5.71745 23.6409 5.67338 23.5528 5.6183Z" fill="#F4941E"/>
<path fill-rule="evenodd" clip-rule="evenodd" d="M14.3652 13.2745L21.5368 7.57908C21.6689 7.5901 21.8122 7.60111 21.9444 7.62315L15.0702 13.0762C14.8279 13.1313 14.5965 13.1974 14.3652 13.2635V13.2745ZM23.8171 5.77242L27.7058 2.68787C27.783 2.74295 27.8601 2.80904 27.9372 2.86413L24.0815 5.92664C23.9934 5.87156 23.9052 5.81648 23.8171 5.7614V5.77242Z" fill="#F4961E"/>
<path fill-rule="evenodd" clip-rule="evenodd" d="M15.0703 13.0763L21.9444 7.62325C22.0766 7.64528 22.2088 7.6563 22.341 7.67833L15.7092 12.9331C15.4889 12.9771 15.2796 13.0212 15.0703 13.0763ZM24.0815 5.93776L27.9372 2.87524C28.0143 2.93033 28.0915 2.99642 28.1686 3.06252L24.3349 6.10301C24.2468 6.04792 24.1697 5.99284 24.0815 5.93776Z" fill="#F4961E"/>
<path fill-rule="evenodd" clip-rule="evenodd" d="M15.7092 12.9441L22.3409 7.68932C22.4731 7.71136 22.5943 7.73339 22.7265 7.75542L16.293 12.8559C16.0947 12.889 15.9075 12.911 15.7092 12.9551V12.9441ZM24.3349 6.10298L28.1685 3.0625C28.2457 3.1286 28.3228 3.18368 28.3999 3.24978L24.5772 6.27924C24.5001 6.22416 24.412 6.16908 24.3349 6.114V6.10298Z" fill="#F5971E"/>
<path fill-rule="evenodd" clip-rule="evenodd" d="M16.293 12.8449L22.7265 7.74442C22.8477 7.76645 22.9689 7.78848 23.1011 7.82153L16.8438 12.7788C16.6566 12.8009 16.4803 12.8229 16.293 12.8449ZM24.5772 6.26824L28.3999 3.23877C28.477 3.30487 28.5541 3.35995 28.6312 3.42605L24.8306 6.4445C24.7535 6.38942 24.6654 6.32332 24.5883 6.26824H24.5772Z" fill="#F5971E"/>
<path fill-rule="evenodd" clip-rule="evenodd" d="M16.8439 12.7788L23.1011 7.82151C23.2223 7.84354 23.3435 7.87659 23.4646 7.89862L17.3727 12.7348C17.1964 12.7458 17.0311 12.7568 16.8549 12.7788H16.8439ZM24.8196 6.44448L28.6202 3.42603C28.6974 3.49212 28.7635 3.5472 28.8406 3.6133L25.051 6.62074C24.9739 6.55464 24.8968 6.49956 24.8196 6.44448Z" fill="#F5971E"/>
<path fill-rule="evenodd" clip-rule="evenodd" d="M17.3616 12.7348L23.4536 7.89869C23.5748 7.92073 23.6849 7.95378 23.8061 7.98682L17.8463 12.7128C17.6811 12.7128 17.5158 12.7238 17.3506 12.7348H17.3616ZM25.062 6.63183L28.8516 3.62439C28.9287 3.69049 28.9948 3.75658 29.0719 3.82268L25.2933 6.8191C25.2162 6.753 25.1391 6.69792 25.062 6.63183Z" fill="#F5971E"/>
<path fill-rule="evenodd" clip-rule="evenodd" d="M17.8573 12.7127L23.8171 7.98677C23.9273 8.01982 24.0484 8.05287 24.1586 8.08592L18.331 12.7127C18.1768 12.7127 18.0115 12.7127 17.8573 12.7127ZM25.2933 6.81905L29.0718 3.82263C29.149 3.88873 29.2151 3.95483 29.2922 4.02092L25.5246 7.00633C25.4475 6.94023 25.3704 6.88515 25.2933 6.81905Z" fill="#F59722"/>
<path fill-rule="evenodd" clip-rule="evenodd" d="M18.3311 12.7017L24.1587 8.07488C24.2688 8.10793 24.379 8.14098 24.4891 8.17403L18.7827 12.7017C18.6285 12.7017 18.4853 12.7017 18.3311 12.7017ZM25.5247 6.99529L29.2922 4.00989C29.3583 4.07599 29.4354 4.14208 29.5015 4.20818L25.745 7.19358C25.6679 7.12749 25.6018 7.06139 25.5247 7.00631V6.99529Z" fill="#F89A22"/>
<path fill-rule="evenodd" clip-rule="evenodd" d="M18.7827 12.7128L24.4891 8.18512C24.5993 8.21817 24.7095 8.25122 24.8196 8.29528L19.2234 12.7348C19.0802 12.7348 18.9259 12.7238 18.7827 12.7128ZM25.745 7.19366L29.5015 4.20825C29.5676 4.27435 29.6447 4.34045 29.7108 4.40654L25.9653 7.38093C25.8882 7.31483 25.8221 7.24874 25.745 7.18264V7.19366Z" fill="#F89A22"/>
<path fill-rule="evenodd" clip-rule="evenodd" d="M19.2234 12.7239L24.8196 8.28434C24.9298 8.31738 25.029 8.36145 25.1391 8.3945L19.642 12.7569C19.4988 12.7459 19.3556 12.7349 19.2234 12.7239ZM25.9653 7.381L29.7109 4.40662C29.777 4.47271 29.8541 4.53881 29.9202 4.60491L26.1746 7.5793C26.1085 7.5132 26.0314 7.4471 25.9653 7.381Z" fill="#F59B26"/>
<path fill-rule="evenodd" clip-rule="evenodd" d="M19.642 12.7569L25.1391 8.39445C25.2382 8.4275 25.3484 8.47156 25.4585 8.51563L20.0606 12.8009C19.9284 12.7899 19.7852 12.7679 19.653 12.7569H19.642ZM26.1746 7.57925L29.9201 4.60486C29.9862 4.67096 30.0523 4.73705 30.1294 4.80315L26.3839 7.76652C26.3178 7.70042 26.2407 7.63433 26.1746 7.56823V7.57925Z" fill="#F89C27"/>
<path fill-rule="evenodd" clip-rule="evenodd" d="M20.0606 12.8009L25.4586 8.51555C25.5577 8.55961 25.6679 8.59266 25.767 8.63673L20.4572 12.8449C20.325 12.8229 20.1928 12.8119 20.0606 12.7899V12.8009ZM26.3839 7.77746L30.1295 4.81409C30.1956 4.88018 30.2617 4.94628 30.3388 5.0234L26.6043 7.98677C26.5382 7.92067 26.4721 7.85457 26.3949 7.78847L26.3839 7.77746Z" fill="#F59B28"/>
<path fill-rule="evenodd" clip-rule="evenodd" d="M20.4572 12.8449L25.767 8.63667C25.8661 8.68074 25.9653 8.7248 26.0754 8.75785L20.8427 12.9C20.7105 12.8779 20.5893 12.8559 20.4572 12.8449ZM26.5932 7.9757L30.3277 5.01233C30.3938 5.07843 30.4599 5.15554 30.526 5.22164L26.7915 8.18501C26.7254 8.11891 26.6593 8.05281 26.5932 7.9757Z" fill="#F59D2A"/>
<path fill-rule="evenodd" clip-rule="evenodd" d="M20.8427 12.911L26.0754 8.76888C26.1746 8.81295 26.2737 8.85701 26.3729 8.90108L21.2283 12.9881C21.0961 12.9661 20.9749 12.944 20.8537 12.922L20.8427 12.911ZM26.7915 8.19604L30.526 5.23267C30.5921 5.29876 30.6582 5.37588 30.7243 5.44197L26.9898 8.40535C26.9237 8.33925 26.8576 8.26213 26.7915 8.19604Z" fill="#F59D2C"/>
<path fill-rule="evenodd" clip-rule="evenodd" d="M21.2283 12.9772L26.3729 8.89013C26.4721 8.9342 26.5712 8.97826 26.6704 9.02233L21.6029 13.0433C21.4817 13.0212 21.3605 12.9882 21.2283 12.9661V12.9772ZM27.0008 8.3944L30.7354 5.43103C30.8015 5.49713 30.8675 5.57424 30.9336 5.64034L27.1991 8.60371C27.133 8.53761 27.0669 8.4605 27.0008 8.3944Z" fill="#F59D2C"/>
<path fill-rule="evenodd" clip-rule="evenodd" d="M21.5918 13.0543L26.6593 9.03336C26.7584 9.07742 26.8466 9.12148 26.9457 9.16555L21.9443 13.1314C21.8232 13.0984 21.702 13.0763 21.5808 13.0543H21.5918ZM27.1881 8.61474L30.9226 5.65137C30.9887 5.71746 31.0548 5.79458 31.1209 5.86068L27.3864 8.82405C27.3203 8.74693 27.2542 8.68084 27.1881 8.61474Z" fill="#F59D32"/>
<path fill-rule="evenodd" clip-rule="evenodd" d="M21.9554 13.1314L26.9568 9.16559C27.0559 9.20966 27.144 9.25372 27.2432 9.3088L22.3079 13.2196C22.1867 13.1865 22.0766 13.1645 21.9554 13.1314ZM27.3864 8.82409L31.1209 5.86072C31.187 5.92682 31.2531 6.00393 31.3082 6.08104L27.5737 9.04441C27.5076 8.9673 27.4415 8.9012 27.3864 8.82409Z" fill="#F69F32"/>
<path fill-rule="evenodd" clip-rule="evenodd" d="M22.3079 13.2195L27.2432 9.30869C27.3313 9.35276 27.4305 9.40784 27.5186 9.4519L22.6494 13.3076C22.5282 13.2745 22.4181 13.2415 22.3079 13.2195ZM27.5737 9.0443L31.3082 6.08093C31.3743 6.15805 31.4404 6.22414 31.4955 6.30126L27.761 9.26463C27.6949 9.18751 27.6398 9.12142 27.5737 9.0443Z" fill="#F89F33"/>
<path fill-rule="evenodd" clip-rule="evenodd" d="M22.6494 13.3076L27.5186 9.45195C27.6067 9.49601 27.7059 9.55109 27.794 9.59516L22.9909 13.4068C22.8808 13.3737 22.7596 13.3407 22.6494 13.3076ZM27.761 9.25365C27.8271 9.33077 27.8821 9.39687 27.9482 9.47398L31.6827 6.51061C31.6166 6.43349 31.5616 6.3674 31.4955 6.29028L27.761 9.25365Z" fill="#F8A036"/>
<path fill-rule="evenodd" clip-rule="evenodd" d="M22.9909 13.4068L27.794 9.59517C27.8821 9.63923 27.9813 9.69432 28.0694 9.7494L23.3324 13.5059C23.2222 13.4729 23.1121 13.4398 23.0019 13.3958L22.9909 13.4068ZM27.9482 9.47399C28.0143 9.55111 28.0694 9.6172 28.1355 9.69432L31.87 6.73095C31.8149 6.65383 31.7488 6.58773 31.6827 6.51062L27.9482 9.47399Z" fill="#F9A236"/>
<path fill-rule="evenodd" clip-rule="evenodd" d="M23.3214 13.5059L28.0584 9.74941C28.1355 9.79347 28.2016 9.82652 28.2787 9.87059C28.2347 9.81551 28.1796 9.74941 28.1355 9.69433L31.87 6.73096C31.9361 6.80807 31.9912 6.87417 32.0573 6.95128L23.6629 13.6161C23.5528 13.5831 23.4426 13.539 23.3324 13.5059H23.3214Z" fill="#F9A238"/>
<path fill-rule="evenodd" clip-rule="evenodd" d="M23.6519 13.6161L32.0463 6.95129C32.1013 7.02841 32.1674 7.10552 32.2225 7.17162L23.9603 13.7263C23.8502 13.6822 23.751 13.6492 23.6409 13.6161H23.6519Z" fill="#F6A138"/>
<path fill-rule="evenodd" clip-rule="evenodd" d="M23.9714 13.7263L32.2336 7.17163C32.2886 7.24874 32.3547 7.31484 32.4098 7.39196L24.2798 13.8365C24.1807 13.7924 24.0705 13.7593 23.9714 13.7153V13.7263Z" fill="#F6A13B"/>
<path fill-rule="evenodd" clip-rule="evenodd" d="M24.2908 13.8473L32.4208 7.40283C32.4759 7.47995 32.542 7.55706 32.5971 7.63417L24.6103 13.9685C24.5112 13.9245 24.401 13.8914 24.3018 13.8473H24.2908Z" fill="#F6A33D"/>
<path fill-rule="evenodd" clip-rule="evenodd" d="M24.5993 13.9686L32.5861 7.63428C32.6412 7.71139 32.7073 7.7885 32.7623 7.86562L24.9078 14.1008C24.8086 14.0568 24.7095 14.0127 24.5993 13.9796V13.9686Z" fill="#F6A53D"/>
<path fill-rule="evenodd" clip-rule="evenodd" d="M24.8967 14.1009L32.7513 7.86572C32.8064 7.94284 32.8615 8.01995 32.9276 8.09706L25.1942 14.2331C25.095 14.189 24.9959 14.145 24.8967 14.1009Z" fill="#F6A540"/>
<path fill-rule="evenodd" clip-rule="evenodd" d="M25.1942 14.233L32.9276 8.09692C32.9827 8.17404 33.0378 8.25115 33.0928 8.32827L25.4806 14.3652C25.3815 14.3211 25.2823 14.277 25.1832 14.233H25.1942Z" fill="#F6A540"/>
<path fill-rule="evenodd" clip-rule="evenodd" d="M25.4916 14.3652L33.1038 8.32825C33.1589 8.40536 33.214 8.48247 33.2691 8.55959L25.778 14.4973C25.6789 14.4533 25.5907 14.3982 25.4916 14.3541V14.3652Z" fill="#F9A641"/>
<path fill-rule="evenodd" clip-rule="evenodd" d="M25.778 14.4975L33.2691 8.55969C33.3241 8.63681 33.3792 8.71392 33.4343 8.79103L26.0644 14.6407C25.9653 14.5966 25.8772 14.5415 25.778 14.4975Z" fill="#F9A641"/>
<path fill-rule="evenodd" clip-rule="evenodd" d="M26.0645 14.6405L33.4343 8.79089C33.4894 8.86801 33.5445 8.94512 33.5996 9.02223L26.3399 14.7727C26.2517 14.7287 26.1526 14.6736 26.0645 14.6295V14.6405Z" fill="#F9A643"/>
<path fill-rule="evenodd" clip-rule="evenodd" d="M26.3398 14.7838L33.5996 9.03333C33.6546 9.11044 33.7097 9.19857 33.7648 9.27568L26.6263 14.938C26.5381 14.883 26.439 14.8389 26.3509 14.7948L26.3398 14.7838Z" fill="#F9A846"/>
<path fill-rule="evenodd" clip-rule="evenodd" d="M26.6153 14.9381L33.7538 9.27576C33.8089 9.35287 33.864 9.42998 33.908 9.51811L26.8797 15.0923C26.7915 15.0373 26.7034 14.9932 26.6042 14.9381H26.6153Z" fill="#F7A947"/>
<path fill-rule="evenodd" clip-rule="evenodd" d="M26.8907 15.0922L33.9191 9.51794C33.9741 9.59506 34.0292 9.68319 34.0733 9.7603L27.1551 15.2464C27.0669 15.1913 26.9788 15.1362 26.8907 15.0922Z" fill="#F7A949"/>
<path fill-rule="evenodd" clip-rule="evenodd" d="M27.155 15.2465L34.0732 9.76038C34.1283 9.83749 34.1724 9.92562 34.2275 10.0027L27.4194 15.4007C27.3313 15.3456 27.2432 15.2905 27.155 15.2465Z" fill="#F7A94B"/>
<path fill-rule="evenodd" clip-rule="evenodd" d="M27.4194 15.4008L34.2275 10.0028C34.2826 10.0799 34.3266 10.1681 34.3817 10.2452L27.6728 15.566C27.5847 15.5109 27.4965 15.4559 27.4194 15.4008Z" fill="#F7A94B"/>
<path fill-rule="evenodd" clip-rule="evenodd" d="M27.6838 15.566L34.3927 10.2451C34.4478 10.3222 34.4919 10.4104 34.547 10.4875L27.9482 15.7202C27.8601 15.6651 27.772 15.61 27.6949 15.5549L27.6838 15.566Z" fill="#F7A94D"/>
<path fill-rule="evenodd" clip-rule="evenodd" d="M27.9372 15.7311L34.5359 10.4984C34.591 10.5755 34.6351 10.6637 34.6902 10.7408L28.1906 15.8964C28.1024 15.8413 28.0253 15.7862 27.9372 15.7311Z" fill="#F7AB4D"/>
<path fill-rule="evenodd" clip-rule="evenodd" d="M28.1906 15.8966L34.6902 10.741C34.7342 10.8181 34.7893 10.9062 34.8334 10.9943L28.4329 16.0728C28.3448 16.0177 28.2677 15.9627 28.1796 15.9076L28.1906 15.8966Z" fill="#FAAC50"/>
<path fill-rule="evenodd" clip-rule="evenodd" d="M28.4329 16.0616L34.8334 10.9832C34.8774 11.0713 34.9325 11.1484 34.9766 11.2365L28.6753 16.2379C28.5982 16.1828 28.51 16.1167 28.4329 16.0616Z" fill="#FAAD50"/>
<path fill-rule="evenodd" clip-rule="evenodd" d="M28.6753 16.2381L34.9766 11.2367C35.0207 11.3248 35.0757 11.4019 35.1198 11.4901L28.9176 16.4033C28.8405 16.3482 28.7524 16.2821 28.6753 16.2271V16.2381Z" fill="#FAAD52"/>
<path fill-rule="evenodd" clip-rule="evenodd" d="M28.9177 16.4142L35.1198 11.501C35.1639 11.5891 35.219 11.6662 35.263 11.7544L29.16 16.6015C29.0829 16.5464 29.0058 16.4803 28.9287 16.4252L28.9177 16.4142Z" fill="#FAAD52"/>
<path fill-rule="evenodd" clip-rule="evenodd" d="M29.16 16.5904L35.263 11.7433C35.307 11.8314 35.3621 11.9085 35.4062 11.9967L29.3913 16.7667C29.3142 16.7006 29.2371 16.6455 29.16 16.5904Z" fill="#FAAD54"/>
<path fill-rule="evenodd" clip-rule="evenodd" d="M29.3914 16.7776L35.4062 12.0076C35.4503 12.0957 35.4944 12.1838 35.5384 12.2609L29.6227 16.9539C29.5456 16.8878 29.4685 16.8327 29.3914 16.7666V16.7776Z" fill="#FAAD54"/>
<path fill-rule="evenodd" clip-rule="evenodd" d="M29.6227 16.954L35.5384 12.2611C35.5825 12.3492 35.6266 12.4374 35.6706 12.5255L29.843 17.1413C29.7659 17.0752 29.6888 17.0201 29.6117 16.954H29.6227Z" fill="#F7AF56"/>
<path fill-rule="evenodd" clip-rule="evenodd" d="M29.8541 17.1413L35.6817 12.5255C35.7257 12.6136 35.7698 12.7018 35.8139 12.7899L30.0744 17.3396C29.9973 17.2735 29.9312 17.2074 29.8541 17.1523V17.1413Z" fill="#F7AF56"/>
<path fill-rule="evenodd" clip-rule="evenodd" d="M30.0743 17.3285L35.8138 12.7788C35.8579 12.8669 35.9019 12.9551 35.946 13.0432L30.3057 17.5158C30.2286 17.4497 30.1625 17.3836 30.0854 17.3285H30.0743Z" fill="#F7AF59"/>
<path fill-rule="evenodd" clip-rule="evenodd" d="M30.2947 17.5269L35.935 13.0543C35.9791 13.1425 36.0231 13.2306 36.0672 13.3187L30.515 17.7252C30.4379 17.6591 30.3718 17.593 30.2947 17.5269Z" fill="#F7AF5B"/>
<path fill-rule="evenodd" clip-rule="evenodd" d="M30.515 17.714L36.0672 13.3075C36.1113 13.3956 36.1554 13.4838 36.1884 13.5719L30.7244 17.9123C30.6583 17.8462 30.5811 17.7801 30.504 17.714H30.515Z" fill="#FAB15B"/>
<path fill-rule="evenodd" clip-rule="evenodd" d="M30.7354 17.9124L36.1994 13.572C36.2435 13.6602 36.2875 13.7483 36.3316 13.8364L30.9447 18.0997C30.8786 18.0336 30.8014 17.9675 30.7354 17.9014V17.9124Z" fill="#FAB15B"/>
<path fill-rule="evenodd" clip-rule="evenodd" d="M30.9446 18.1106L36.3316 13.8473C36.3757 13.9354 36.4087 14.0236 36.4528 14.1117L31.154 18.3089C31.0879 18.2428 31.0107 18.1767 30.9446 18.1106Z" fill="#FBB460"/>
<path fill-rule="evenodd" clip-rule="evenodd" d="M31.1539 18.32L36.4527 14.1228C36.4968 14.2109 36.5299 14.2991 36.5739 14.3982L31.3632 18.5293C31.2971 18.4632 31.231 18.3971 31.1539 18.331V18.32Z" fill="#FBB460"/>
<path fill-rule="evenodd" clip-rule="evenodd" d="M31.3633 18.5182L36.574 14.3871C36.618 14.4752 36.6511 14.5633 36.6951 14.6625L31.5726 18.7275C31.5065 18.6614 31.4404 18.5843 31.3743 18.5182H31.3633Z" fill="#FBB460"/>
<path fill-rule="evenodd" clip-rule="evenodd" d="M31.5616 18.7276L36.6841 14.6626C36.7282 14.7507 36.7612 14.8499 36.7943 14.938L31.7488 18.9369C31.6827 18.8708 31.6166 18.7937 31.5505 18.7276H31.5616Z" fill="#FBB461"/>
<path fill-rule="evenodd" clip-rule="evenodd" d="M31.7598 18.9258L36.8053 14.9269C36.8493 15.015 36.8824 15.1142 36.9264 15.2023L31.9691 19.1351C31.903 19.069 31.8369 18.9919 31.7708 18.9258H31.7598Z" fill="#FBB464"/>
<path fill-rule="evenodd" clip-rule="evenodd" d="M31.9582 19.1462L36.9155 15.2134C36.9595 15.3015 36.9926 15.4007 37.0256 15.4888L32.1454 19.3555C32.0793 19.2784 32.0132 19.2123 31.9471 19.1462H31.9582Z" fill="#FBB664"/>
<path fill-rule="evenodd" clip-rule="evenodd" d="M32.1564 19.3555L37.0366 15.4888C37.0807 15.5769 37.1137 15.676 37.1468 15.7642L32.3547 19.5648C32.2886 19.4877 32.2225 19.4216 32.1674 19.3445L32.1564 19.3555Z" fill="#FBB664"/>
<path fill-rule="evenodd" clip-rule="evenodd" d="M32.3437 19.5649L37.1358 15.7643C37.1688 15.8634 37.2129 15.9516 37.2459 16.0397L32.531 19.7742C32.4649 19.6971 32.3988 19.631 32.3437 19.5539V19.5649Z" fill="#F8B766"/>
<path fill-rule="evenodd" clip-rule="evenodd" d="M32.542 19.7852L37.2569 16.0507C37.29 16.1498 37.323 16.2379 37.3671 16.3371L32.7293 20.0165C32.6632 19.9394 32.6081 19.8733 32.542 19.7962V19.7852Z" fill="#FBB868"/>
<path fill-rule="evenodd" clip-rule="evenodd" d="M32.7183 20.0056L37.3561 16.3262C37.3892 16.4253 37.4222 16.5134 37.4552 16.6126L32.9055 20.2259C32.8394 20.1488 32.7844 20.0827 32.7183 20.0056Z" fill="#FBB868"/>
<path fill-rule="evenodd" clip-rule="evenodd" d="M32.9055 20.2258L37.4552 16.6124C37.4883 16.7116 37.5213 16.7997 37.5544 16.8988L33.0818 20.4461C33.0267 20.369 32.9606 20.2919 32.9055 20.2258Z" fill="#FBB86B"/>
<path fill-rule="evenodd" clip-rule="evenodd" d="M33.0928 20.446L37.5654 16.8988C37.5985 16.9979 37.6315 17.0861 37.6646 17.1852L33.2691 20.6664C33.214 20.5892 33.1479 20.5121 33.0928 20.446Z" fill="#FBB86C"/>
<path fill-rule="evenodd" clip-rule="evenodd" d="M33.2691 20.6775L37.6646 17.1964C37.6976 17.2956 37.7307 17.3837 37.7637 17.4828L33.4454 20.9089C33.3903 20.8318 33.3242 20.7547 33.2691 20.6775Z" fill="#FBBA6D"/>
<path fill-rule="evenodd" clip-rule="evenodd" d="M33.4453 20.8979L37.7637 17.4718C37.7967 17.5709 37.8298 17.6701 37.8628 17.7692L33.6216 21.1292C33.5665 21.0521 33.5114 20.975 33.4453 20.8979Z" fill="#FCBC6D"/>
<path fill-rule="evenodd" clip-rule="evenodd" d="M33.6216 21.1292L37.8628 17.7693C37.8959 17.8684 37.9289 17.9676 37.951 18.0667L33.7978 21.3606C33.7428 21.2835 33.6877 21.2064 33.6216 21.1292Z" fill="#FCBC6F"/>
<path fill-rule="evenodd" clip-rule="evenodd" d="M33.7869 21.3605L37.94 18.0667C37.973 18.1658 37.9951 18.2649 38.0281 18.3641L33.9521 21.6029C33.897 21.5258 33.8419 21.4486 33.7869 21.3715V21.3605Z" fill="#FCBC6F"/>
<path fill-rule="evenodd" clip-rule="evenodd" d="M33.9521 21.5918L38.0281 18.353C38.0611 18.4522 38.0832 18.5513 38.1162 18.6505L34.1173 21.8231C34.0622 21.746 34.0072 21.6689 33.9521 21.5918Z" fill="#FBBC71"/>
<path fill-rule="evenodd" clip-rule="evenodd" d="M34.1284 21.8343L38.1273 18.6616C38.1603 18.7608 38.1823 18.8599 38.2154 18.9591L34.2936 22.0656C34.2385 21.9885 34.1834 21.9114 34.1284 21.8343Z" fill="#FBBC73"/>
<path fill-rule="evenodd" clip-rule="evenodd" d="M34.2826 22.0656L38.2043 18.959C38.2374 19.0581 38.2594 19.1573 38.2815 19.2564L34.4368 22.3079C34.3817 22.2308 34.3266 22.1427 34.2715 22.0656H34.2826Z" fill="#FBBC74"/>
<path fill-rule="evenodd" clip-rule="evenodd" d="M34.4478 22.308L38.2925 19.2565C38.3145 19.3556 38.3476 19.4548 38.3696 19.5539L34.602 22.5393C34.547 22.4622 34.4919 22.3741 34.4478 22.297V22.308Z" fill="#FCBE77"/>
<path fill-rule="evenodd" clip-rule="evenodd" d="M34.6021 22.5503L38.3696 19.5649C38.3916 19.6641 38.4247 19.7743 38.4467 19.8734L34.7563 22.7927C34.7012 22.7156 34.6571 22.6275 34.6021 22.5503Z" fill="#FCC077"/>
<path fill-rule="evenodd" clip-rule="evenodd" d="M34.7563 22.7926L38.4467 19.8733C38.4688 19.9724 38.5018 20.0826 38.5238 20.1817L34.9215 23.046C34.8665 22.9578 34.8224 22.8807 34.7673 22.8036L34.7563 22.7926Z" fill="#FCC079"/>
<path fill-rule="evenodd" clip-rule="evenodd" d="M34.9105 23.035L38.5128 20.1708C38.5349 20.2699 38.5569 20.3801 38.5899 20.4792L35.0647 23.2774C35.0207 23.1892 34.9656 23.1121 34.9105 23.035Z" fill="#FCC07B"/>
<path fill-rule="evenodd" clip-rule="evenodd" d="M35.0647 23.2884L38.5899 20.4902C38.6119 20.5894 38.634 20.6995 38.656 20.7987L35.2079 23.5307C35.1638 23.4426 35.1088 23.3655 35.0647 23.2773V23.2884Z" fill="#FCC07B"/>
<path fill-rule="evenodd" clip-rule="evenodd" d="M35.2079 23.5307L38.656 20.7987C38.678 20.9089 38.7 21.008 38.7221 21.1182L35.3511 23.7951C35.307 23.707 35.252 23.6299 35.2079 23.5418V23.5307Z" fill="#FCC07B"/>
<path fill-rule="evenodd" clip-rule="evenodd" d="M35.3621 23.784L38.7331 21.1071C38.7551 21.2172 38.7772 21.3164 38.7992 21.4265L35.5053 24.0374C35.4613 23.9492 35.4062 23.8611 35.3621 23.784Z" fill="#FCC07D"/>
<path fill-rule="evenodd" clip-rule="evenodd" d="M35.5054 24.0376L38.7992 21.4268C38.8213 21.5369 38.8433 21.6361 38.8653 21.7462L35.6596 24.291C35.6155 24.2029 35.5605 24.1257 35.5164 24.0376H35.5054Z" fill="#FCC37F"/>
<path fill-rule="evenodd" clip-rule="evenodd" d="M35.6486 24.291L38.8543 21.7462C38.8763 21.8564 38.8873 21.9665 38.9094 22.0657L35.7808 24.5443C35.7367 24.4562 35.6926 24.3681 35.6486 24.291Z" fill="#FCC480"/>
<path fill-rule="evenodd" clip-rule="evenodd" d="M35.7808 24.5553L38.9094 22.0767C38.9314 22.1868 38.9424 22.297 38.9645 22.3961L35.924 24.8087C35.8799 24.7206 35.8358 24.6324 35.7918 24.5443L35.7808 24.5553Z" fill="#FCC480"/>
<path fill-rule="evenodd" clip-rule="evenodd" d="M35.924 24.8087L38.9645 22.3961C38.9865 22.5063 38.9975 22.6164 39.0196 22.7266L36.0562 25.0731C36.0121 24.9849 35.9681 24.8968 35.924 24.8087Z" fill="#FCC481"/>
<path fill-rule="evenodd" clip-rule="evenodd" d="M36.0562 25.073L39.0195 22.7266C39.0416 22.8367 39.0526 22.9469 39.0636 23.0571L36.1883 25.3374C36.1443 25.2493 36.1002 25.1612 36.0562 25.073Z" fill="#FCC483"/>
<path fill-rule="evenodd" clip-rule="evenodd" d="M36.1884 25.3372L39.0636 23.0569C39.0746 23.167 39.0967 23.2772 39.1077 23.3874L36.3096 25.6016C36.2655 25.5135 36.2214 25.4254 36.1774 25.3372H36.1884Z" fill="#FCC784"/>
<path fill-rule="evenodd" clip-rule="evenodd" d="M36.3096 25.6017L39.1077 23.3875C39.1187 23.4976 39.1297 23.6078 39.1518 23.7179L36.4418 25.8661C36.3977 25.778 36.3536 25.6898 36.3096 25.6017Z" fill="#FCC784"/>
<path fill-rule="evenodd" clip-rule="evenodd" d="M36.4418 25.8662L39.1518 23.718C39.1628 23.8282 39.1738 23.9383 39.1958 24.0595L36.574 26.1416C36.5299 26.0535 36.4969 25.9653 36.4528 25.8772L36.4418 25.8662Z" fill="#FCC785"/>
<path fill-rule="evenodd" clip-rule="evenodd" d="M36.5629 26.1305L39.1848 24.0485C39.1958 24.1586 39.2068 24.2798 39.2178 24.39L36.6841 26.3949C36.64 26.3068 36.607 26.2187 36.5629 26.1305Z" fill="#FCC787"/>
<path fill-rule="evenodd" clip-rule="evenodd" d="M36.6841 26.406L39.2178 24.401C39.2178 24.5112 39.2399 24.6323 39.2509 24.7425L36.8053 26.6814C36.7612 26.5932 36.7281 26.4941 36.6841 26.406Z" fill="#FCC787"/>
<path fill-rule="evenodd" clip-rule="evenodd" d="M36.8053 26.6704L39.2509 24.7316C39.2509 24.8527 39.2729 24.9629 39.2729 25.0841L36.9265 26.9458C36.8824 26.8577 36.8494 26.7586 36.8053 26.6704Z" fill="#FDC98A"/>
<path fill-rule="evenodd" clip-rule="evenodd" d="M36.9265 26.9457L39.2729 25.084C39.2729 25.2052 39.284 25.3153 39.295 25.4365L37.0366 27.2322C37.0036 27.133 36.9595 27.0449 36.9155 26.9567L36.9265 26.9457Z" fill="#FDC98C"/>
<path fill-rule="evenodd" clip-rule="evenodd" d="M37.0366 27.2212L39.295 25.4255C39.295 25.5467 39.306 25.6569 39.317 25.7781L37.1578 27.4966C37.1248 27.4085 37.0807 27.3093 37.0476 27.2212H37.0366Z" fill="#FDC98C"/>
<path fill-rule="evenodd" clip-rule="evenodd" d="M37.1578 27.5075L39.317 25.7889C39.317 25.9101 39.317 26.0313 39.328 26.1415L37.257 27.7829C37.2239 27.6837 37.1798 27.5956 37.1468 27.5075H37.1578Z" fill="#FDCB8C"/>
<path fill-rule="evenodd" clip-rule="evenodd" d="M37.268 27.7831L39.339 26.1417C39.339 26.2629 39.339 26.3841 39.339 26.5053L37.3671 28.0696C37.3341 27.9814 37.301 27.8823 37.257 27.7942L37.268 27.7831Z" fill="#FDCB8E"/>
<path fill-rule="evenodd" clip-rule="evenodd" d="M37.3671 28.0583L39.339 26.494C39.339 26.6152 39.339 26.7364 39.339 26.8576L37.4662 28.3337C37.4332 28.2346 37.4001 28.1465 37.3561 28.0473L37.3671 28.0583Z" fill="#FDCB8F"/>
<path fill-rule="evenodd" clip-rule="evenodd" d="M37.4773 28.3447L39.3501 26.8685C39.3501 26.9897 39.3501 27.1109 39.3501 27.2321L37.5875 28.6311C37.5544 28.532 37.5214 28.4439 37.4773 28.3447Z" fill="#FDCB8F"/>
<path fill-rule="evenodd" clip-rule="evenodd" d="M37.5764 28.6311L39.339 27.2321C39.339 27.3532 39.339 27.4744 39.339 27.6066L37.6866 28.9175C37.6535 28.8184 37.6205 28.7303 37.5874 28.6311H37.5764Z" fill="#FDCD90"/>
<path fill-rule="evenodd" clip-rule="evenodd" d="M37.6866 28.9176L39.339 27.6067C39.339 27.7279 39.339 27.8601 39.339 27.9812L37.7857 29.2151C37.7527 29.1159 37.7196 29.0168 37.6866 28.9286V28.9176Z" fill="#FDCD94"/>
<path fill-rule="evenodd" clip-rule="evenodd" d="M37.7857 29.204L39.339 27.9702C39.339 28.1024 39.328 28.2236 39.317 28.3558L37.8849 29.5015C37.8518 29.4023 37.8188 29.3142 37.7857 29.2151V29.204Z" fill="#FDCD94"/>
<path fill-rule="evenodd" clip-rule="evenodd" d="M37.8739 29.5015L39.306 28.3558C39.306 28.488 39.306 28.6092 39.295 28.7414L37.962 29.799C37.929 29.6998 37.8959 29.6007 37.8739 29.5015Z" fill="#FDCF96"/>
<path fill-rule="evenodd" clip-rule="evenodd" d="M37.973 29.7879L39.306 28.7303C39.306 28.8625 39.284 28.9947 39.2729 29.1159L38.0612 30.0743C38.0281 29.9752 37.9951 29.876 37.973 29.7769V29.7879Z" fill="#FDCF96"/>
<path fill-rule="evenodd" clip-rule="evenodd" d="M38.0612 30.0854L39.2729 29.127C39.2729 29.2591 39.2509 29.3913 39.2399 29.5125L38.1493 30.3828C38.1162 30.2837 38.0942 30.1845 38.0612 30.0854Z" fill="#FDCF98"/>
<path fill-rule="evenodd" clip-rule="evenodd" d="M38.1493 30.3829L39.2399 29.5126C39.2289 29.6448 39.2178 29.777 39.1958 29.9092L38.2264 30.6693C38.1933 30.5701 38.1713 30.471 38.1382 30.3718L38.1493 30.3829Z" fill="#FDCF9A"/>
<path fill-rule="evenodd" clip-rule="evenodd" d="M38.2374 30.6803L39.2069 29.9202C39.1958 30.0524 39.1848 30.1846 39.1628 30.3168L38.3256 30.9777C38.2925 30.8786 38.2705 30.7794 38.2374 30.6803Z" fill="#FDCF9A"/>
<path fill-rule="evenodd" clip-rule="evenodd" d="M38.3255 30.9776L39.1627 30.3167C39.1517 30.4488 39.1297 30.5921 39.1077 30.7243L38.4136 31.2751C38.3806 31.1759 38.3585 31.0768 38.3365 30.9776H38.3255Z" fill="#FDCF9A"/>
<path fill-rule="evenodd" clip-rule="evenodd" d="M38.4137 31.2752L39.1077 30.7244C39.0857 30.8566 39.0747 30.9998 39.0526 31.132L38.4908 31.5836C38.4688 31.4845 38.4357 31.3853 38.4137 31.2752Z" fill="#FDD19D"/>
<path fill-rule="evenodd" clip-rule="evenodd" d="M38.4908 31.5836L39.0526 31.132C38.9755 31.6607 38.8763 32.1895 38.7662 32.7293C38.678 32.3437 38.5789 31.9582 38.4797 31.5836H38.4908Z" fill="#FDD39F"/>
</g>
<defs>
<clipPath id="clip0_4_4284">
<rect width="40" height="40" fill="white"/>
</clipPath>
</defs>
</svg>
