<svg width="199" height="40" viewBox="0 0 199 40" fill="none" xmlns="http://www.w3.org/2000/svg">
<g clip-path="url(#clip0_4_2077)">
<path fill-rule="evenodd" clip-rule="evenodd" d="M1 26L2 26.2454C1.69444 26.184 1.375 26.1227 1.08333 26.0613C1.05556 26.0438 1.04167 26.0175 1.01389 26H1Z" fill="#F08921"/>
<path fill-rule="evenodd" clip-rule="evenodd" d="M1.93333 26.536L1.24762 26.312C1.1619 26.208 1.07619 26.104 1 26L4 27C3.28571 26.872 2.59048 26.712 1.93333 26.544V26.536Z" fill="#F08A21"/>
<path fill-rule="evenodd" clip-rule="evenodd" d="M3.82353 26.7234L1.17647 25.3936C1.11765 25.266 1.05882 25.1277 1 25L5 27C4.59664 26.9149 4.21008 26.8298 3.82353 26.7234Z" fill="#F08A21"/>
<path fill-rule="evenodd" clip-rule="evenodd" d="M5.18506 26.8824L1.14431 25.3025C1.09338 25.2017 1.04244 25.1008 1 25L5.96604 26.9496C5.96604 26.9496 5.99151 26.9832 6 27C5.72835 26.9664 5.45671 26.9328 5.18506 26.8908V26.8824Z" fill="#F08C21"/>
<path fill-rule="evenodd" clip-rule="evenodd" d="M5.99167 27L1.11667 25.2622C1.075 25.1798 1.03333 25.0899 1 25L5.75833 26.6929C5.83333 26.7903 5.91667 26.8951 6 26.9925L5.99167 27Z" fill="#F08C21"/>
<path fill-rule="evenodd" clip-rule="evenodd" d="M5 26L0.102916 24.2615C0.0686106 24.1769 0.0343053 24.0923 0 24L4.77702 25.6923C4.84563 25.7923 4.92281 25.8923 5 25.9923V26Z" fill="#F08C21"/>
<path fill-rule="evenodd" clip-rule="evenodd" d="M5 26L0.0881834 24.2609C0.05291 24.1739 0.026455 24.087 0 24L4.79718 25.6996C4.85891 25.8024 4.92945 25.8972 5 26Z" fill="#F08E20"/>
<path fill-rule="evenodd" clip-rule="evenodd" d="M5 26L0.0815217 24.2591C0.0543478 24.17 0.0271739 24.0891 0 24L4.80978 25.7004C4.87319 25.7976 4.93659 25.9028 5 26Z" fill="#F08C21"/>
<path fill-rule="evenodd" clip-rule="evenodd" d="M4.99072 24.9918L0.0649351 23.2634C0.0371058 23.1728 0.0185529 23.0905 0 23L4.82375 24.6955C4.87941 24.7942 4.93506 24.893 5 25L4.99072 24.9918Z" fill="#F08E20"/>
<path fill-rule="evenodd" clip-rule="evenodd" d="M4.99049 25L0.0570342 23.2616C0.0380228 23.1772 0.0190114 23.0844 0 23L4.8384 24.6962C4.88593 24.7975 4.94297 24.8987 5 25H4.99049Z" fill="#F08E20"/>
<path fill-rule="evenodd" clip-rule="evenodd" d="M4.30847 24.9619L0.0419112 23.2622C0.0251467 23.1776 0.0167645 23.093 0 23L4.18273 24.666C4.22464 24.7674 4.26655 24.8605 4.30847 24.9619ZM9.57251 26.814L10 26.9831L9.84074 27C9.74853 26.9408 9.65633 26.8731 9.57251 26.814Z" fill="#F19020"/>
<path fill-rule="evenodd" clip-rule="evenodd" d="M10.4996 26.9921L10.0519 26.8333C9.80607 26.6746 9.56903 26.5159 9.332 26.3492L11 26.9444C10.8332 26.9603 10.6664 26.9762 10.4996 27V26.9921ZM4.40702 24.8175L0.0351157 23.246C0.0263368 23.1667 0.00877893 23.0873 0 23L4.30168 24.5397C4.33679 24.627 4.38069 24.7222 4.4158 24.8095L4.40702 24.8175Z" fill="#F19020"/>
<path fill-rule="evenodd" clip-rule="evenodd" d="M11.4966 27L9.75744 26.2871C9.54691 26.116 9.34554 25.9449 9.15332 25.7643L12 26.9335C11.8261 26.9525 11.6613 26.981 11.4874 27H11.4966ZM4.50343 24.1293L0.02746 22.2852C0.0183066 22.1901 0.00915332 22.0951 0 22L4.40275 23.8061C4.43936 23.9106 4.47597 24.0152 4.51259 24.1293H4.50343Z" fill="#F19020"/>
<path fill-rule="evenodd" clip-rule="evenodd" d="M11.5182 27L8.79416 25.8798C8.62774 25.725 8.47007 25.5792 8.31241 25.4153L12 26.9362C11.8423 26.9636 11.6847 26.9818 11.5182 27ZM4.23942 24.0036L0.0175183 22.2732C0.0175183 22.1822 0.00875912 22.0911 0 22L4.14307 23.7031C4.16934 23.8033 4.20438 23.9035 4.23066 24.0036H4.23942Z" fill="#F19120"/>
<path fill-rule="evenodd" clip-rule="evenodd" d="M12.5162 27L8.67275 25.5402C8.52669 25.4091 8.38062 25.2692 8.24368 25.1294L13 26.9301C12.8357 26.9563 12.6805 26.9738 12.5162 27ZM4.33638 23.9056L0.0182584 22.2622C0.0182584 22.1748 0.00912921 22.0874 0 22L4.25421 23.6084C4.2816 23.7045 4.30899 23.8007 4.33638 23.8969V23.9056Z" fill="#F19020"/>
<path fill-rule="evenodd" clip-rule="evenodd" d="M12.5511 27L7.96547 25.2631C7.84225 25.1366 7.72783 25.0101 7.61341 24.8836L13 26.9241C12.8504 26.9494 12.7007 26.9747 12.5511 27ZM4.11916 23.8044L0.00880162 22.2445C0.00880162 22.1602 0.00880162 22.0843 0 22L4.04875 23.5346C4.06635 23.6273 4.09276 23.7116 4.11916 23.8044Z" fill="#F19120"/>
<path fill-rule="evenodd" clip-rule="evenodd" d="M12.5743 25.9919L7.36411 24.0212C7.26195 23.9072 7.15979 23.7932 7.06614 23.671L13 25.9186C12.8638 25.943 12.7276 25.9756 12.5828 26L12.5743 25.9919ZM3.91618 22.7182L0 21.2362C0 21.1547 0 21.0814 0 21L3.86509 22.4577C3.88212 22.5391 3.89915 22.6287 3.91618 22.7182Z" fill="#F19120"/>
<path fill-rule="evenodd" clip-rule="evenodd" d="M13.5903 27L7.38295 24.3839C7.28499 24.2512 7.19593 24.128 7.10687 23.9953L14 26.8957C13.8664 26.9337 13.7239 26.9621 13.5814 27H13.5903ZM4.03435 22.981L0 21.2749C0 21.1801 0 21.0948 0 21L3.98982 22.6777C4.00763 22.7725 4.01654 22.8768 4.03435 22.9716V22.981Z" fill="#F4941E"/>
<path fill-rule="evenodd" clip-rule="evenodd" d="M13.6275 27L6.92203 24.1797C6.84406 24.0599 6.75743 23.9401 6.67946 23.8111L14 26.8894C13.8787 26.9263 13.7488 26.9631 13.6275 27ZM3.88119 22.8986L0 21.2673C0 21.1843 0 21.0922 0 21L3.83787 22.6129C3.84653 22.7051 3.86386 22.8065 3.87252 22.8986H3.88119Z" fill="#F4941E"/>
<path fill-rule="evenodd" clip-rule="evenodd" d="M14.6377 27L6.9837 24C6.91123 23.8832 6.82971 23.7665 6.75725 23.6497L15 26.8832C14.8822 26.9281 14.7645 26.9641 14.6377 27ZM4.02174 22.8323L0 21.2605C0 21.1796 0 21.0898 0.00905797 21L3.98551 22.5629C3.98551 22.6527 4.00362 22.7425 4.01268 22.8323H4.02174Z" fill="#F4941E"/>
<path fill-rule="evenodd" clip-rule="evenodd" d="M14.672 26L6.60461 22.8328C6.53369 22.7273 6.47163 22.6129 6.40957 22.4985L15 25.868C14.8936 25.912 14.7872 25.956 14.672 25.9912V26ZM3.89184 21.7683L0 20.2463C0 20.1672 0 20.0792 0.0177305 20L3.87411 21.5132C3.87411 21.6012 3.88298 21.6891 3.89184 21.7771V21.7683Z" fill="#F4961E"/>
<path fill-rule="evenodd" clip-rule="evenodd" d="M14.9117 26L6.35668 22.703C6.29488 22.5997 6.24191 22.4878 6.18011 22.3845L14.0818 25.4319C14.382 25.6298 14.6822 25.802 15 25.957C14.9735 25.9742 14.9382 25.9828 14.9117 26ZM3.84049 21.7303L0 20.241C0 20.1636 0.00882872 20.0775 0.0176574 20L3.83167 21.472C3.83167 21.5581 3.83167 21.6442 3.84049 21.7303Z" fill="#F4961E"/>
<path fill-rule="evenodd" clip-rule="evenodd" d="M14 25.9909L6.13927 22.7727C6.08658 22.6636 6.03388 22.5545 5.98118 22.4455L13.2798 25.4364C13.5169 25.6364 13.7541 25.8273 14 26V25.9909ZM3.79423 21.8091L0 20.2545C0 20.1727 0.0175659 20.0818 0.0263488 20L3.79423 21.5455C3.79423 21.6364 3.79423 21.7182 3.79423 21.8091Z" fill="#F5971E"/>
<path fill-rule="evenodd" clip-rule="evenodd" d="M13 25L5.84095 22.368C5.78926 22.272 5.74619 22.176 5.70311 22.088L12.4917 24.584C12.6554 24.728 12.8277 24.872 13 25ZM3.68721 21.584L0 20.224C0 20.152 0.0172299 20.08 0.0258449 20L3.69583 21.352C3.69583 21.432 3.69583 21.504 3.69583 21.584H3.68721Z" fill="#F5971E"/>
<path fill-rule="evenodd" clip-rule="evenodd" d="M13 24L5.92053 21.4C5.8756 21.3 5.83068 21.2083 5.78576 21.1083L12.5688 23.6C12.7125 23.7417 12.8563 23.875 13 24ZM3.82723 20.6333L0 19.2333C0.0089841 19.1583 0.0179682 19.0833 0.0269523 19L3.83621 20.4C3.83621 20.4833 3.83621 20.5583 3.82723 20.6417V20.6333Z" fill="#F5971E"/>
<path fill-rule="evenodd" clip-rule="evenodd" d="M12 24L5.51003 21.418C5.47564 21.323 5.43266 21.2193 5.39828 21.1244L11.6562 23.6114C11.7679 23.7409 11.8797 23.8705 12 24ZM3.6447 20.6839L0 19.2332C0.00859599 19.1554 0.025788 19.0777 0.0343839 19L3.6533 20.4421C3.6533 20.5199 3.6447 20.6062 3.6361 20.6839H3.6447Z" fill="#F5971E"/>
<path fill-rule="evenodd" clip-rule="evenodd" d="M12 24L5.53846 21.4377C5.50296 21.3399 5.46746 21.242 5.43195 21.1352L11.6805 23.6174C11.7781 23.7509 11.8846 23.8754 11.9911 24H12ZM3.74556 20.726L0 19.2402C0.00887574 19.1601 0.0266272 19.0801 0.035503 19L3.76331 20.4769C3.76331 20.5569 3.74556 20.6459 3.73669 20.726H3.74556Z" fill="#F59722"/>
<path fill-rule="evenodd" clip-rule="evenodd" d="M12 24L5.56588 21.4451C5.52932 21.3443 5.5019 21.2436 5.46535 21.1429L11.7167 23.6245C11.8081 23.7527 11.9086 23.881 12 24ZM3.84768 20.7674L0 19.2473C0.00913938 19.1648 0.0274181 19.0824 0.0456969 19L3.86596 20.5201C3.85682 20.6026 3.84768 20.685 3.83854 20.7766L3.84768 20.7674Z" fill="#F89A22"/>
<path fill-rule="evenodd" clip-rule="evenodd" d="M11 23L5.10345 20.453C5.07759 20.3496 5.0431 20.2462 5.01724 20.1429L10.7586 22.6147C10.8362 22.7368 10.9138 22.8684 11 22.9906V23ZM3.60345 19.8139L0 18.2538C0.0172414 18.1692 0.0258621 18.0846 0.0431035 18L3.63793 19.5508C3.62931 19.6353 3.61207 19.7199 3.60345 19.8139Z" fill="#F89A22"/>
<path fill-rule="evenodd" clip-rule="evenodd" d="M11 22.9904L5.11093 20.4615C5.0844 20.3558 5.05788 20.2596 5.03135 20.1538L10.7789 22.625C10.8497 22.75 10.9204 22.875 11 23V22.9904ZM3.6873 19.8462L0 18.2596C0.0176849 18.1731 0.0353698 18.0865 0.0442122 18L3.72267 19.5865C3.70498 19.6731 3.69614 19.7596 3.6873 19.8462Z" fill="#F59B26"/>
<path fill-rule="evenodd" clip-rule="evenodd" d="M11 22L5.11038 19.9724C5.0832 19.8856 5.06507 19.8067 5.03789 19.7199L10.7916 21.7002C10.855 21.8028 10.9275 21.8974 11 22ZM3.76936 19.5148L0 18.213C0.0181219 18.142 0.0362438 18.071 0.0543657 18L3.82372 19.2939C3.8056 19.3649 3.79654 19.4359 3.77842 19.5069L3.76936 19.5148Z" fill="#F89C27"/>
<path fill-rule="evenodd" clip-rule="evenodd" d="M10 22L4.64587 19.9758C4.62901 19.8952 4.60371 19.8065 4.58685 19.7177L9.82293 21.7016C9.88196 21.8065 9.94098 21.9032 10 22ZM3.50759 19.5403L0 18.2177C0.0168634 18.1452 0.0337268 18.0726 0.0505902 18L3.54975 19.3226C3.53288 19.3952 3.51602 19.4677 3.50759 19.5403Z" fill="#F59B28"/>
<path fill-rule="evenodd" clip-rule="evenodd" d="M10 21L4.64193 18.9711C4.62468 18.8887 4.60742 18.7979 4.59016 18.7155L9.83607 20.6948C9.88783 20.7938 9.94823 20.901 10 21ZM3.58067 18.5753L0 17.2227C0.0172563 17.1485 0.0345125 17.0742 0.0517688 17L3.63244 18.3526C3.61519 18.4268 3.59793 18.501 3.58067 18.5753Z" fill="#F59D2A"/>
<path fill-rule="evenodd" clip-rule="evenodd" d="M10 20.9916L4.63845 18.9705C4.62081 18.8863 4.60317 18.7937 4.59436 18.7095L9.85009 20.6968C9.903 20.7979 9.94709 20.8989 10 21V20.9916ZM3.65961 18.6L0 17.2189C0.0176367 17.1432 0.0352734 17.0674 0.0617284 17L3.72134 18.3811C3.7037 18.4568 3.68607 18.5326 3.66843 18.6084L3.65961 18.6Z" fill="#F59D2C"/>
<path fill-rule="evenodd" clip-rule="evenodd" d="M11 21L5.63063 18.9699C5.61261 18.8839 5.6036 18.7892 5.58559 18.7032L10.8468 20.6903C10.8919 20.7935 10.9459 20.8968 10.991 20.9914L11 21ZM4.73874 18.6344L1 17.2237C1.01802 17.1462 1.03604 17.0688 1.06306 17L4.8018 18.4108C4.78378 18.4882 4.75676 18.5656 4.73874 18.6344Z" fill="#F59D2C"/>
<path fill-rule="evenodd" clip-rule="evenodd" d="M10.9908 21L5.62316 18.9737C5.60478 18.886 5.59559 18.7982 5.5864 18.7018L10.8621 20.693C10.9081 20.7982 10.954 20.8947 11 21H10.9908ZM4.81434 18.6667L1 17.2281C1.01838 17.1491 1.04596 17.0789 1.06434 17L4.86949 18.4386C4.8511 18.5175 4.82353 18.5877 4.80515 18.6667H4.81434Z" fill="#F59D32"/>
<path fill-rule="evenodd" clip-rule="evenodd" d="M10 21L5.1493 18.9687C5.14085 18.8792 5.13239 18.7897 5.12394 18.7002L9.88169 20.6957C9.92394 20.8031 9.95775 20.9016 10 21ZM4.49859 18.7002L1 17.2327C1.0169 17.1521 1.04225 17.0805 1.05915 17L4.5662 18.4676C4.54085 18.5481 4.52394 18.6197 4.49859 18.7002Z" fill="#F69F32"/>
<path fill-rule="evenodd" clip-rule="evenodd" d="M9.99139 20L5.14258 17.9681C5.13397 17.877 5.12536 17.7859 5.11675 17.6948L9.88804 19.6902C9.92249 19.7904 9.95694 19.8998 10 20H9.99139ZM4.57416 17.7312L1 16.2369C1.01722 16.1549 1.04306 16.082 1.0689 16L4.64306 17.4943C4.61722 17.5763 4.6 17.6492 4.57416 17.7312Z" fill="#F89F33"/>
<path fill-rule="evenodd" clip-rule="evenodd" d="M9.99122 20L5.12683 17.9675C5.12683 17.8747 5.10927 17.7819 5.10927 17.6891L9.89463 19.6845C9.92976 19.7865 9.96488 19.8886 10 20H9.99122ZM4.6439 17.7633L1 16.2413C1.02634 16.1578 1.0439 16.0835 1.07024 16L4.71415 17.522C4.6878 17.6056 4.66146 17.6798 4.6439 17.7633Z" fill="#F8A036"/>
<path fill-rule="evenodd" clip-rule="evenodd" d="M10 20L5.11454 17.9669C5.11454 17.8723 5.10558 17.7778 5.09661 17.6832L9.90139 19.6879C9.92829 19.792 9.96414 19.896 10 20ZM4.72012 17.7967L1 16.2459C1.02689 16.1702 1.05378 16.0851 1.07171 16L4.79183 17.5508C4.76494 17.6359 4.73805 17.7116 4.72012 17.7967Z" fill="#F9A236"/>
<path fill-rule="evenodd" clip-rule="evenodd" d="M10 20L5.10254 17.9615C5.10254 17.8654 5.10254 17.7692 5.0934 17.6731L9.90863 19.6827C9.93604 19.7885 9.96345 19.8942 10 20ZM4.79188 17.8269L1 16.25C1.02741 16.1635 1.04569 16.0865 1.0731 16L4.87411 17.5769C4.8467 17.6538 4.81929 17.7404 4.79188 17.8173V17.8269Z" fill="#F9A238"/>
<path fill-rule="evenodd" clip-rule="evenodd" d="M9.99071 19L5.09597 16.951C5.09597 16.8529 5.09597 16.7549 5.09597 16.6667L9.91641 18.6765C9.94427 18.7843 9.97214 18.8922 10 19H9.99071ZM4.86378 16.8627L1 15.2549C1.02786 15.1667 1.05573 15.0882 1.08359 15L4.94737 16.6176C4.9195 16.6961 4.89164 16.7843 4.86378 16.8627Z" fill="#F6A138"/>
<path fill-rule="evenodd" clip-rule="evenodd" d="M8.99159 19L4.62566 16.9551C4.62566 16.8554 4.62566 16.7656 4.62566 16.6658L8.9327 18.6808C8.95794 18.7905 8.97476 18.9002 9 19H8.99159ZM4.49947 16.8953L1 15.2494C1.02524 15.1596 1.05047 15.0798 1.07571 15L4.57518 16.6459C4.54995 16.7357 4.52471 16.8155 4.49947 16.8953Z" fill="#F6A13B"/>
<path fill-rule="evenodd" clip-rule="evenodd" d="M9 18L4.60986 16.4619V16.3477L4.56699 16.4467L1 15.1904C1.02572 15.1294 1.05145 15.0609 1.07717 15L8.9314 17.7563C8.94855 17.8401 8.97428 17.9162 8.99143 18H9Z" fill="#F6A33D"/>
<path fill-rule="evenodd" clip-rule="evenodd" d="M9 17.9923L1 15.1933C1.0262 15.1314 1.0524 15.0619 1.0786 15L8.93887 17.7526C8.95633 17.8376 8.9738 17.9149 9 18V17.9923Z" fill="#F6A53D"/>
<path fill-rule="evenodd" clip-rule="evenodd" d="M8.99112 18L1 15.1969C1.02664 15.1339 1.05327 15.063 1.08879 15L8.94673 17.7559C8.96448 17.8346 8.98224 17.9213 9 18H8.99112Z" fill="#F6A540"/>
<path fill-rule="evenodd" clip-rule="evenodd" d="M9 17L1 14.2C1.02712 14.136 1.06328 14.064 1.0904 14L8.94576 16.752C8.96384 16.832 8.97288 16.92 8.99096 17H9Z" fill="#F6A540"/>
<path fill-rule="evenodd" clip-rule="evenodd" d="M10 17L2 14.2033C2.02762 14.1382 2.06444 14.065 2.09206 14L9.95397 16.748C9.97238 16.8293 9.98159 16.9187 10 17Z" fill="#F9A641"/>
<path fill-rule="evenodd" clip-rule="evenodd" d="M9 17L2 14.2066C2.02459 14.1405 2.05738 14.0744 2.08197 14L8.96721 16.7438C8.97541 16.8264 8.9918 16.9091 9 17Z" fill="#F9A641"/>
<path fill-rule="evenodd" clip-rule="evenodd" d="M8.99168 17L2 14.2101C2.03329 14.1429 2.05826 14.0672 2.09156 14L8.96671 16.7479C8.97503 16.8319 8.98335 16.916 9 17H8.99168Z" fill="#F9A643"/>
<path fill-rule="evenodd" clip-rule="evenodd" d="M9 16L2 13.2131C2.0339 13.1449 2.05932 13.0767 2.09322 13L8.97458 15.7358C8.97458 15.821 8.99153 15.9062 9 15.9915V16Z" fill="#F9A846"/>
<path fill-rule="evenodd" clip-rule="evenodd" d="M9 16L2 13.2168C2.03448 13.1474 2.06034 13.078 2.09483 13L8.97414 15.7399C8.97414 15.8266 8.99138 15.9133 8.99138 16H9Z" fill="#F7A947"/>
<path fill-rule="evenodd" clip-rule="evenodd" d="M9 16L2 13.2199C2.03509 13.1496 2.07018 13.0792 2.09649 13L8.98246 15.7273C8.98246 15.8152 8.99123 15.9032 9 15.9912V16Z" fill="#F7A949"/>
<path fill-rule="evenodd" clip-rule="evenodd" d="M9 16L2 13.2156C2.03567 13.1437 2.07134 13.0719 2.10701 13L8.99108 15.7395C8.99108 15.8293 8.99108 15.9192 9 16Z" fill="#F7A94B"/>
<path fill-rule="evenodd" clip-rule="evenodd" d="M9 15.9909L2 13.2182C2.03627 13.1455 2.07254 13.0727 2.10881 13L8.99093 15.7273C8.99093 15.8182 8.99093 15.9091 9 16V15.9909Z" fill="#F7A94B"/>
<path fill-rule="evenodd" clip-rule="evenodd" d="M9 15L2 12.2222C2.03689 12.1481 2.07378 12.0741 2.11067 12L9 14.7315C9 14.8241 9 14.9074 9 15Z" fill="#F7A94D"/>
<path fill-rule="evenodd" clip-rule="evenodd" d="M9 15L2 12.2257C2.03748 12.1505 2.07497 12.0752 2.11245 12L8.99063 14.7273C8.99063 14.8213 8.99063 14.906 8.99063 15H9Z" fill="#F7AB4D"/>
<path fill-rule="evenodd" clip-rule="evenodd" d="M7.99184 14.9905L2 12.2286C2.03265 12.1524 2.06531 12.0762 2.10612 12L8 14.7238C8 14.819 8 14.9048 8 15L7.99184 14.9905Z" fill="#FAAC50"/>
<path fill-rule="evenodd" clip-rule="evenodd" d="M8.9917 15L3 12.2323C3.0332 12.1548 3.06639 12.0774 3.10788 12L9 14.7194C9 14.8161 9 14.9032 9 15H8.9917Z" fill="#FAAD50"/>
<path fill-rule="evenodd" clip-rule="evenodd" d="M8.98315 15L3 12.2361C3.03371 12.1574 3.07584 12.0787 3.10955 12L9 14.7148C9 14.8131 9 14.9016 8.99157 15H8.98315Z" fill="#FAAD52"/>
<path fill-rule="evenodd" clip-rule="evenodd" d="M8.99143 14L3 11.24C3.03429 11.16 3.07714 11.08 3.11143 11L9 13.72C9 13.81 8.99143 13.91 8.98286 14H8.99143Z" fill="#FAAD52"/>
<path fill-rule="evenodd" clip-rule="evenodd" d="M8.98258 14L3 11.2432C3.03483 11.1622 3.07837 11.0811 3.11321 11L9 13.7061C9 13.7973 8.99129 13.8986 8.98258 13.9899V14Z" fill="#FAAD54"/>
<path fill-rule="evenodd" clip-rule="evenodd" d="M8.97349 14L3 11.2474C3.03535 11.1649 3.07953 11.0825 3.12371 11L9 13.7113C9 13.8041 8.98233 13.9072 8.97349 14Z" fill="#FAAD54"/>
<path fill-rule="evenodd" clip-rule="evenodd" d="M8.97305 14L3 11.2509C3.04491 11.1672 3.08084 11.0836 3.12575 11L9 13.7073C8.99102 13.8014 8.98204 13.8955 8.97305 14Z" fill="#F7AF56"/>
<path fill-rule="evenodd" clip-rule="evenodd" d="M8.9726 12L3 10.1631C3.04566 10.1064 3.08219 10.0496 3.12785 10L9 11.8014C8.99087 11.8652 8.98174 11.9362 8.9726 12Z" fill="#F7AF56"/>
<path fill-rule="evenodd" clip-rule="evenodd" d="M8.96291 12L3 10.1661C3.04637 10.1083 3.08346 10.0505 3.12983 10L9 11.8051C8.99073 11.87 8.97218 11.935 8.96291 12Z" fill="#F7AF59"/>
<path fill-rule="evenodd" clip-rule="evenodd" d="M9.96232 12L4 10.1685C4.0471 10.1099 4.09419 10.0586 4.14129 10L10 11.8022C9.99058 11.8681 9.97174 11.9341 9.96232 12Z" fill="#F7AF5B"/>
<path fill-rule="evenodd" clip-rule="evenodd" d="M9.95215 12L4 10.171C4.04785 10.1115 4.09569 10.0595 4.14354 10L10 11.7993C9.99043 11.8662 9.97129 11.9331 9.96172 12H9.95215Z" fill="#FAB15B"/>
<path fill-rule="evenodd" clip-rule="evenodd" d="M8.95948 12L4 10.1736C4.04052 10.1132 4.08104 10.0604 4.12156 10L9 11.7962C8.98379 11.8642 8.97569 11.9321 8.95948 12Z" fill="#FAB15B"/>
<path fill-rule="evenodd" clip-rule="evenodd" d="M8.95881 11L4 9.17624C4.04119 9.11494 4.08237 9.0613 4.12356 9L9 10.7931C8.98353 10.8621 8.96705 10.931 8.95881 11Z" fill="#FBB460"/>
<path fill-rule="evenodd" clip-rule="evenodd" d="M8.94983 11L4 9.17899C4.04181 9.11673 4.08361 9.06226 4.13378 9L9 10.7899C8.98328 10.8599 8.96656 10.93 8.94983 11Z" fill="#FBB460"/>
<path fill-rule="evenodd" clip-rule="evenodd" d="M8.94898 11L4 9.18182C4.04252 9.11858 4.08503 9.06324 4.13605 9L9 10.7866C8.98299 10.8577 8.96599 10.9289 8.94898 11Z" fill="#FBB460"/>
<path fill-rule="evenodd" clip-rule="evenodd" d="M8.9481 11L4 9.18474C4.04325 9.12048 4.09516 9.06426 4.13841 9L9 10.7912C8.9827 10.8635 8.9654 10.9357 8.9481 11Z" fill="#FBB461"/>
<path fill-rule="evenodd" clip-rule="evenodd" d="M8.93849 11L4 9.18699C4.04394 9.12195 4.09666 9.06504 4.1406 9L9 10.7805C8.98243 10.8537 8.95606 10.9268 8.93849 10.9919V11Z" fill="#FBB464"/>
<path fill-rule="evenodd" clip-rule="evenodd" d="M9.9375 10L5 8.18257C5.04464 8.11618 5.09821 8.05809 5.15179 8L10 9.78423C9.98214 9.85892 9.95536 9.92531 9.9375 10Z" fill="#FBB664"/>
<path fill-rule="evenodd" clip-rule="evenodd" d="M9.93636 10L5 8.19328C5.04545 8.12605 5.1 8.06723 5.14545 8L10 9.77311C9.98182 9.84874 9.95455 9.91597 9.93636 9.9916V10Z" fill="#FBB664"/>
<path fill-rule="evenodd" clip-rule="evenodd" d="M9.9262 10L5 8.18884C5.05535 8.12876 5.10148 8.06009 5.15683 8L10 9.77682C9.97232 9.85408 9.95387 9.92275 9.9262 10Z" fill="#F8B766"/>
<path fill-rule="evenodd" clip-rule="evenodd" d="M9.92495 9.9913L5 8.1913C5.05629 8.13043 5.10319 8.06087 5.15947 8L10 9.77391C9.97186 9.85217 9.94371 9.92174 9.92495 10V9.9913Z" fill="#FBB868"/>
<path fill-rule="evenodd" clip-rule="evenodd" d="M9.92366 10L5 8.19469C5.05725 8.13274 5.1145 8.06195 5.17176 8L10 9.76991C9.97137 9.84956 9.95229 9.92035 9.92366 10Z" fill="#FBB868"/>
<path fill-rule="evenodd" clip-rule="evenodd" d="M9.91262 10L5 8.1982C5.05825 8.13513 5.1165 8.06306 5.17476 8L10 9.77477C9.97087 9.84685 9.94175 9.92793 9.91262 10Z" fill="#FBB86B"/>
<path fill-rule="evenodd" clip-rule="evenodd" d="M9.92885 9L6 7.20091C6.04743 7.13699 6.09486 7.06393 6.14229 7L10 8.76256C9.97628 8.84475 9.95257 8.91781 9.92885 8.99087V9Z" fill="#FBB86C"/>
<path fill-rule="evenodd" clip-rule="evenodd" d="M9.92757 9L6 7.20465C6.04829 7.13954 6.09658 7.07442 6.14487 7L10 8.76744C9.97586 8.84186 9.95171 8.92558 9.92757 9Z" fill="#FBBA6D"/>
<path fill-rule="evenodd" clip-rule="evenodd" d="M9.92623 9L6 7.20755C6.04918 7.14151 6.09836 7.07547 6.14754 7L10 8.75472C9.97541 8.83019 9.95082 8.91509 9.91803 8.99057L9.92623 9Z" fill="#FCBC6D"/>
<path fill-rule="evenodd" clip-rule="evenodd" d="M9.91667 9L6 7.2029C6.05 7.13527 6.10833 7.06763 6.15833 7L10 8.75845C9.975 8.83575 9.94167 8.92271 9.91667 9Z" fill="#FCBC6F"/>
<path fill-rule="evenodd" clip-rule="evenodd" d="M9.91507 8.9902L6 7.20588C6.05096 7.13725 6.1104 7.06863 6.16136 7L10 8.7549C9.96603 8.83333 9.94055 8.92157 9.91507 9V8.9902Z" fill="#FCBC6F"/>
<path fill-rule="evenodd" clip-rule="evenodd" d="M9.91342 8L6 6.21C6.05195 6.14 6.11255 6.07 6.1645 6L10 7.75C9.96537 7.83 9.93939 7.92 9.91342 8Z" fill="#FBBC71"/>
<path fill-rule="evenodd" clip-rule="evenodd" d="M10.8945 7.98985L7 6.2132C7.05275 6.14213 7.11429 6.07107 7.17582 6L11 7.74619C10.9648 7.82741 10.9385 7.90863 10.9033 8L10.8945 7.98985Z" fill="#FBBC73"/>
<path fill-rule="evenodd" clip-rule="evenodd" d="M10.9013 8L7 6.21762C7.06278 6.14508 7.11659 6.07254 7.17937 6L11 7.74093C10.9641 7.82383 10.9372 7.90674 10.9013 8Z" fill="#FBBC74"/>
<path fill-rule="evenodd" clip-rule="evenodd" d="M10.8993 8L7 6.22222C7.06407 6.14815 7.12815 6.07407 7.18307 6L11 7.74603C10.9634 7.83069 10.9268 7.91534 10.8902 8H10.8993Z" fill="#FCBE77"/>
<path fill-rule="evenodd" clip-rule="evenodd" d="M10.8972 8L7 6.22581C7.06542 6.15054 7.13084 6.07527 7.18692 6L11 7.73118C10.9626 7.8172 10.9252 7.90323 10.8879 7.98925L10.8972 8Z" fill="#FCC077"/>
<path fill-rule="evenodd" clip-rule="evenodd" d="M10.8857 7L7 5.23077C7.06667 5.15385 7.13333 5.07692 7.2 5L11 6.73626C10.9619 6.82418 10.9238 6.91209 10.8857 7Z" fill="#FCC079"/>
<path fill-rule="evenodd" clip-rule="evenodd" d="M10.8738 7L7 5.23464C7.06796 5.15642 7.13592 5.07821 7.20388 5L11 6.72067C10.9612 6.81006 10.9223 6.89944 10.8835 6.98883L10.8738 7Z" fill="#FCC07B"/>
<path fill-rule="evenodd" clip-rule="evenodd" d="M11.8809 7L8 5.24C8.06948 5.16 8.13896 5.08 8.20844 5L12 6.72571C11.9603 6.81714 11.9206 6.90857 11.8809 7Z" fill="#FCC07B"/>
<path fill-rule="evenodd" clip-rule="evenodd" d="M10.9013 6L8 5.11696C8.05316 5.07602 8.11392 5.03509 8.16709 5L11 5.85965C10.9696 5.90643 10.9316 5.95322 10.9013 6Z" fill="#FCC07B"/>
<path fill-rule="evenodd" clip-rule="evenodd" d="M10.899 5.99405L8 5.11905C8.0544 5.07738 8.11658 5.03571 8.17098 5L11 5.85714C10.9689 5.90476 10.9301 5.95238 10.899 6V5.99405Z" fill="#FCC07D"/>
<path fill-rule="evenodd" clip-rule="evenodd" d="M10.8889 6L8 5.12195C8.05556 5.07927 8.11905 5.04268 8.18254 5L11 5.85366C10.9603 5.90244 10.9286 5.95122 10.8889 6Z" fill="#FCC37F"/>
<path fill-rule="evenodd" clip-rule="evenodd" d="M10.8862 4.99379L8 4.12422C8.06504 4.08075 8.12195 4.04348 8.18699 4L11 4.85093C10.9593 4.90062 10.9268 4.95031 10.8862 5V4.99379Z" fill="#FCC480"/>
<path fill-rule="evenodd" clip-rule="evenodd" d="M11.8833 5L9 4.12739C9.06667 4.0828 9.13333 4.04459 9.19167 4L12 4.84713C11.9583 4.89809 11.925 4.94904 11.8833 4.99363V5Z" fill="#FCC480"/>
<path fill-rule="evenodd" clip-rule="evenodd" d="M11.8803 5L9 4.13072C9.06838 4.08497 9.13675 4.04575 9.19658 4L12 4.84967C11.9573 4.90196 11.9145 4.95425 11.8803 5Z" fill="#FCC481"/>
<path fill-rule="evenodd" clip-rule="evenodd" d="M11.8772 5L9 4.12752C9.07018 4.08054 9.14035 4.04027 9.21053 4L12 4.84564C11.9561 4.89933 11.9123 4.94631 11.8772 5Z" fill="#FCC483"/>
<path fill-rule="evenodd" clip-rule="evenodd" d="M11.8649 5L9 4.13103C9.07207 4.08276 9.14414 4.04138 9.21622 4L12 4.84138C11.955 4.89655 11.9099 4.94483 11.8649 5Z" fill="#FCC784"/>
<path fill-rule="evenodd" clip-rule="evenodd" d="M11.8611 5L9 4.13475C9.07407 4.0922 9.14815 4.04255 9.23148 4L12 4.83688C11.9537 4.89362 11.9074 4.94326 11.8611 5Z" fill="#FCC784"/>
<path fill-rule="evenodd" clip-rule="evenodd" d="M12.8476 3.99275L10 3.13768C10.0762 3.0942 10.1619 3.04348 10.2381 3L13 3.83333C12.9524 3.8913 12.9048 3.94203 12.8571 4L12.8476 3.99275Z" fill="#FCC785"/>
<path fill-rule="evenodd" clip-rule="evenodd" d="M12.8525 4L10 3.14179C10.0787 3.09701 10.1672 3.04478 10.2459 3L13 3.82836C12.9508 3.88806 12.8918 3.9403 12.8426 4H12.8525Z" fill="#FCC787"/>
<path fill-rule="evenodd" clip-rule="evenodd" d="M12.8378 4L10 3.14615C10.0912 3.1 10.1723 3.05385 10.2635 3L13 3.82308C12.9493 3.88462 12.8885 3.93846 12.8378 4Z" fill="#FCC787"/>
<path fill-rule="evenodd" clip-rule="evenodd" d="M12.8322 4L10 3.15079C10.0944 3.10317 10.1783 3.04762 10.2727 3L13 3.81746C12.9371 3.87302 12.8846 3.93651 12.8322 4Z" fill="#FDC98A"/>
<path fill-rule="evenodd" clip-rule="evenodd" d="M12.8773 4L11 3.14876C11.065 3.09917 11.13 3.04959 11.1949 3L13 3.81818C12.9567 3.87603 12.9206 3.94215 12.8773 4Z" fill="#FDC98C"/>
<path fill-rule="evenodd" clip-rule="evenodd" d="M12.8727 4L11 3.15385C11.0674 3.10256 11.1348 3.05128 11.2022 3L13 3.81197C12.9551 3.87179 12.9176 3.94017 12.8727 4Z" fill="#FDC98C"/>
<path fill-rule="evenodd" clip-rule="evenodd" d="M12.8677 3L11 2.15929C11.07 2.10619 11.1479 2.0531 11.2179 2L13 2.80531C12.9533 2.86726 12.9066 2.93805 12.8677 3Z" fill="#FDCB8C"/>
<path fill-rule="evenodd" clip-rule="evenodd" d="M12.8618 3L11 2.16514C11.0732 2.11009 11.1545 2.05505 11.2276 2L13 2.78899C12.9512 2.85321 12.9106 2.92661 12.8618 2.99083V3Z" fill="#FDCB8E"/>
<path fill-rule="evenodd" clip-rule="evenodd" d="M12.8475 3L11 2.17308C11.0847 2.11538 11.161 2.05769 11.2458 2L13 2.78846C12.9492 2.85577 12.8983 2.93269 12.8475 3Z" fill="#FDCB8F"/>
<path fill-rule="evenodd" clip-rule="evenodd" d="M13.84 2.99L12 2.17C12.0889 2.11 12.1689 2.05 12.2578 2L14 2.78C13.9467 2.85 13.8933 2.93 13.84 3V2.99Z" fill="#FDCB8F"/>
<path fill-rule="evenodd" clip-rule="evenodd" d="M13.8318 3L12 2.17895C12.0935 2.11579 12.1869 2.05263 12.2804 2L14 2.76842C13.9439 2.84211 13.8879 2.91579 13.8318 3Z" fill="#FDCD90"/>
<path fill-rule="evenodd" clip-rule="evenodd" d="M13.8128 3L12 2.18889C12.0985 2.12222 12.197 2.06667 12.2956 2L14 2.75556C13.9409 2.83333 13.8818 2.91111 13.8128 3Z" fill="#FDCD94"/>
<path fill-rule="evenodd" clip-rule="evenodd" d="M14.8115 2L13 1.2C13.1047 1.12941 13.2199 1.07059 13.3246 1L15 1.74118C14.9372 1.82353 14.8743 1.90588 14.801 2H14.8115Z" fill="#FDCD94"/>
<path fill-rule="evenodd" clip-rule="evenodd" d="M14.7778 2L13 1.2125C13.1111 1.1375 13.2333 1.075 13.3556 1L15 1.7375C14.9333 1.825 14.8556 1.9125 14.7889 2H14.7778Z" fill="#FDCF96"/>
<path fill-rule="evenodd" clip-rule="evenodd" d="M13.8862 2L13 1.21333C13.0659 1.13333 13.1257 1.06667 13.1916 1L14 1.70667C13.9641 1.8 13.9222 1.89333 13.8862 1.98667V2Z" fill="#FDCF96"/>
<path fill-rule="evenodd" clip-rule="evenodd" d="M13.871 2L13 1.23188C13.071 1.15942 13.1419 1.07246 13.2129 1L14 1.69565C13.9548 1.7971 13.9161 1.89855 13.871 2Z" fill="#FDCF98"/>
<path fill-rule="evenodd" clip-rule="evenodd" d="M14.8592 2L14 1.25C14.0775 1.17188 14.1549 1.09375 14.2394 1L15 1.67188C14.9507 1.78125 14.9014 1.89062 14.8592 2Z" fill="#FDCF9A"/>
<path fill-rule="evenodd" clip-rule="evenodd" d="M14.8438 2L14 1.25862C14.0859 1.17241 14.1797 1.08621 14.2656 1L15 1.63793C14.9453 1.75862 14.8984 1.87931 14.8438 2Z" fill="#FDCF9A"/>
<path fill-rule="evenodd" clip-rule="evenodd" d="M14.8252 1.45574L14 1.13146C14.1053 1.08764 14.2107 1.04382 14.3072 1L15.0008 1.27169C14.9393 1.33304 14.8779 1.39439 14.8164 1.45574H14.8252Z" fill="#FDCF9A"/>
<path fill-rule="evenodd" clip-rule="evenodd" d="M15.79 1.40316L15 1.13146C15.12 1.08764 15.24 1.04382 15.36 1L16 1.21911C15.93 1.28046 15.86 1.34181 15.79 1.40316Z" fill="#FDD19D"/>
<path fill-rule="evenodd" clip-rule="evenodd" d="M15.4384 1L15 0.683544C15.3288 0.443038 15.6575 0.21519 16 0C15.8082 0.329114 15.6233 0.658228 15.4384 1Z" fill="#FDD39F"/>
<path fill-rule="evenodd" clip-rule="evenodd" d="M30 24L29 21.0151V21C29.4207 21.937 29.7793 23.0176 30 24Z" fill="#F19020"/>
<path fill-rule="evenodd" clip-rule="evenodd" d="M29.1799 21L30.7143 24.6642C30.8413 25.0909 30.9365 25.5083 31 25.898C30.9788 25.9351 30.9577 25.9722 30.9471 26L29 21.3525C29.0635 21.2412 29.127 21.1206 29.1905 21H29.1799Z" fill="#F19020"/>
<path fill-rule="evenodd" clip-rule="evenodd" d="M29.1782 22L31 26.6561C30.9505 26.7677 30.8911 26.8885 30.8218 27L29 22.3346C29.0594 22.223 29.1188 22.1115 29.1782 22Z" fill="#F19120"/>
<path fill-rule="evenodd" clip-rule="evenodd" d="M29.2923 22.2402L31 26.7064C30.9443 26.8043 30.8886 26.9021 30.8237 27L29.116 22.5516C29.1717 22.4537 29.2367 22.347 29.2923 22.2402ZM27.4269 18.1299L27 17C27.1671 17.2313 27.3248 17.4626 27.4733 17.7028C27.464 17.8452 27.4455 17.9875 27.4362 18.1299H27.4269Z" fill="#F19020"/>
<path fill-rule="evenodd" clip-rule="evenodd" d="M26.5367 16.7629L26.9224 17.8895C26.9057 18.0847 26.8805 18.271 26.8553 18.4661L26 16C26.1845 16.2484 26.3606 16.5056 26.5283 16.7629H26.5367ZM28.457 22.2895L30 26.725C29.9497 26.8137 29.891 26.9024 29.8323 27L28.2977 22.5911C28.3564 22.4935 28.4067 22.396 28.457 22.2984V22.2895Z" fill="#F19120"/>
<path fill-rule="evenodd" clip-rule="evenodd" d="M26.5556 16.6278L27.5497 19.1211C27.5205 19.3004 27.4912 19.4798 27.462 19.6592L26 16C26.1852 16.1973 26.3704 16.4036 26.5556 16.6188V16.6278ZM29.2164 23.2915L31 27.7489C30.9318 27.8386 30.8635 27.9193 30.7953 28L29.0312 23.5695C29.0994 23.4709 29.1579 23.3812 29.2261 23.2825L29.2164 23.2915Z" fill="#F19120"/>
<path fill-rule="evenodd" clip-rule="evenodd" d="M25.4871 15.4891L26.8658 18.9297C26.8382 19.09 26.8015 19.2502 26.7647 19.402L25 15C25.1562 15.1518 25.3217 15.3204 25.4871 15.4891ZM28.3364 22.6065L30 26.7723C29.9357 26.8482 29.8713 26.9241 29.7978 27L28.1434 22.8679C28.2077 22.7836 28.2721 22.6992 28.3272 22.6149L28.3364 22.6065Z" fill="#F4941E"/>
<path fill-rule="evenodd" clip-rule="evenodd" d="M25.4291 15.4174L27.1103 19.9565C27.0753 20.113 27.0403 20.2609 27.0053 20.4174L25 15C25.1401 15.1304 25.289 15.2696 25.4291 15.4261V15.4174ZM28.4238 23.5217L30 27.7826C29.9387 27.8609 29.8687 27.9304 29.8074 28L28.2487 23.7739C28.31 23.687 28.3713 23.6087 28.4326 23.5217H28.4238Z" fill="#F4941E"/>
<path fill-rule="evenodd" clip-rule="evenodd" d="M25.3866 14.359L27.3109 19.95C27.2773 20.1026 27.2353 20.2462 27.2017 20.3987L25 14C25.1261 14.1077 25.2521 14.2333 25.3866 14.359ZM28.5042 23.4231L30 27.7846C29.9412 27.8564 29.874 27.9282 29.8067 28L28.3193 23.6833C28.3782 23.6026 28.437 23.5218 28.4958 23.4321L28.5042 23.4231Z" fill="#F4941E"/>
<path fill-rule="evenodd" clip-rule="evenodd" d="M24.2956 14.2436L26.4466 20.4475C26.4138 20.5867 26.3727 20.7172 26.3317 20.8564L24 14.1131C24 14.1131 24 14.0348 24 14C24.0985 14.0696 24.2053 14.1566 24.312 14.2436H24.2956ZM27.5468 23.6234L29 27.8086C28.9343 27.8782 28.8768 27.9391 28.8112 28L27.3744 23.8496C27.4319 23.7713 27.4975 23.693 27.555 23.6147L27.5468 23.6234Z" fill="#F4961E"/>
<path fill-rule="evenodd" clip-rule="evenodd" d="M24.0085 14L26.4276 20.7058C26.385 20.8356 26.3424 20.9654 26.2998 21.0865L24 14.7355C24.0085 14.4932 24.0085 14.2423 24 14H24.0085ZM27.5094 23.691L29 27.8183C28.9319 27.8789 28.8637 27.9394 28.7956 28L27.3135 23.9073C27.3731 23.8381 27.4412 23.7602 27.5009 23.6823L27.5094 23.691Z" fill="#F4961E"/>
<path fill-rule="evenodd" clip-rule="evenodd" d="M24.044 15L26.4208 21.6126C26.3768 21.7387 26.3327 21.8649 26.2799 21.991L24 15.6396C24.0264 15.4234 24.0352 15.2162 24.044 15ZM27.4683 24.5586L29 28.8198C28.9296 28.8829 28.8592 28.9369 28.7887 29L27.2746 24.7838C27.3451 24.7117 27.4067 24.6396 27.4683 24.5676V24.5586Z" fill="#F5971E"/>
<path fill-rule="evenodd" clip-rule="evenodd" d="M24.0814 15L26.4231 21.1019C26.3779 21.2144 26.3237 21.3356 26.2694 21.4481L24 15.5366C24.0271 15.3549 24.0542 15.1818 24.0814 15ZM27.4448 23.785L29 27.8356C28.9277 27.8875 28.8553 27.9481 28.783 28L27.2369 23.984C27.3092 23.9148 27.3725 23.8542 27.4448 23.785Z" fill="#F5971E"/>
<path fill-rule="evenodd" clip-rule="evenodd" d="M24.1019 16L26.4259 22.0898C26.3704 22.2058 26.3241 22.3128 26.2593 22.4287L24 16.4993C24.037 16.3299 24.0741 16.1694 24.1019 16ZM27.4167 24.7023L29 28.8395C28.9259 28.893 28.8519 28.9465 28.7685 29L27.2037 24.8985C27.2778 24.8361 27.3519 24.7647 27.4167 24.7023Z" fill="#F5971E"/>
<path fill-rule="evenodd" clip-rule="evenodd" d="M24.1139 17L26.4288 22.6197C26.3719 22.7211 26.315 22.8225 26.2581 22.9239L24 17.431C24.0474 17.2873 24.0854 17.1437 24.1233 17H24.1139ZM27.3966 24.9606L29 28.8479C28.9241 28.8986 28.8482 28.9493 28.7628 29L27.1689 25.138C27.2448 25.0789 27.3207 25.0197 27.3966 24.9606Z" fill="#F5971E"/>
<path fill-rule="evenodd" clip-rule="evenodd" d="M24.1448 17L26.4421 22.6277C26.3842 22.7316 26.3263 22.8268 26.2587 22.9221L24 17.4156C24.0483 17.2771 24.0965 17.1385 24.1351 17H24.1448ZM27.3784 24.8961L29 28.8528C28.9228 28.9048 28.8359 28.9481 28.7587 29L27.1467 25.0779C27.2239 25.0173 27.3012 24.9654 27.3784 24.9048V24.8961Z" fill="#F59722"/>
<path fill-rule="evenodd" clip-rule="evenodd" d="M24.1107 17L25.9605 22.6408C25.913 22.7384 25.8577 22.8359 25.8103 22.9335L24 17.3991C24.0395 17.2661 24.0791 17.133 24.1186 17H24.1107ZM26.6798 24.8404L28 28.8581C27.9368 28.9024 27.8656 28.9557 27.7945 29L26.4901 25.0089C26.5534 24.9557 26.6166 24.8936 26.6798 24.8404Z" fill="#F89A22"/>
<path fill-rule="evenodd" clip-rule="evenodd" d="M24.129 18L25.9758 23.6513C25.9274 23.7509 25.871 23.8415 25.8145 23.9321L24 18.3804C24.0484 18.2536 24.0887 18.1268 24.129 18ZM26.6694 25.7796L28 29.8551C27.9274 29.9004 27.8629 29.9457 27.7903 30L26.4677 25.9517C26.5323 25.8974 26.6048 25.843 26.6694 25.7887V25.7796Z" fill="#F89A22"/>
<path fill-rule="evenodd" clip-rule="evenodd" d="M23.1317 18L24.9835 23.1989C24.9259 23.2837 24.8765 23.3685 24.8189 23.4534L23 18.3392C23.0494 18.229 23.0905 18.1103 23.1399 18H23.1317ZM25.6502 25.0817L27 28.8728C26.9259 28.9152 26.8601 28.9576 26.786 29L25.4444 25.2259C25.5103 25.175 25.5844 25.1241 25.6502 25.0732V25.0817Z" fill="#F59B26"/>
<path fill-rule="evenodd" clip-rule="evenodd" d="M23.1503 19L24.9958 24.2187C24.9374 24.3053 24.8789 24.3832 24.8205 24.4697L23 19.3375C23.0501 19.225 23.1002 19.1125 23.142 19.0087L23.1503 19ZM25.6388 26.0275L27 29.8788C26.9248 29.9221 26.858 29.9567 26.7829 30L25.4301 26.1747C25.5052 26.1314 25.572 26.0795 25.6388 26.0275Z" fill="#F89C27"/>
<path fill-rule="evenodd" clip-rule="evenodd" d="M23.1532 19.0088L25.0085 24.2398C24.9489 24.3192 24.8894 24.4074 24.8298 24.4868L23 19.3264C23.0511 19.2205 23.1021 19.1147 23.1532 19V19.0088ZM25.6213 25.9775L27 29.8765C26.9234 29.9206 26.8553 29.9559 26.7787 30L25.4085 26.1187C25.4851 26.0746 25.5532 26.0217 25.6213 25.9775Z" fill="#F59B28"/>
<path fill-rule="evenodd" clip-rule="evenodd" d="M23.1641 19L25.0216 24.2617C24.9611 24.3426 24.9006 24.4235 24.8315 24.5045L23 19.3238C23.0518 19.2159 23.1037 19.1169 23.1641 19.009V19ZM25.6091 25.9256L27 29.8831C26.9222 29.9191 26.8445 29.964 26.7667 30L25.3758 26.0605C25.4536 26.0155 25.5227 25.9706 25.6004 25.9256H25.6091Z" fill="#F59D2A"/>
<path fill-rule="evenodd" clip-rule="evenodd" d="M23.167 19L25.0308 24.2756C24.9692 24.358 24.9077 24.4313 24.8374 24.5137L23 19.3114C23.0615 19.2107 23.1143 19.1007 23.167 19ZM25.5846 25.8693L27 29.8809C26.9209 29.9176 26.8418 29.9542 26.7626 30L25.356 26.0067C25.4352 25.9609 25.5055 25.9151 25.5846 25.8693Z" fill="#F59D2C"/>
<path fill-rule="evenodd" clip-rule="evenodd" d="M23.17 20.0085L25.0403 24.822C24.9776 24.8898 24.906 24.9661 24.8434 25.0339L23 20.2797C23.0626 20.1864 23.1163 20.0932 23.17 20V20.0085ZM25.5682 26.2034L27 29.8983C26.9195 29.9322 26.8389 29.9661 26.7584 30L25.3356 26.322C25.4161 26.2797 25.4966 26.2458 25.5682 26.2034Z" fill="#F59D2C"/>
<path fill-rule="evenodd" clip-rule="evenodd" d="M22.1818 20L24.0545 24.8446C23.9909 24.9136 23.9182 24.9827 23.8455 25.0518L22 20.2763C22.0636 20.19 22.1182 20.095 22.1818 20ZM24.5545 26.1485L26 29.8964C25.9182 29.9309 25.8364 29.9655 25.7545 30L24.3091 26.2608C24.3909 26.2263 24.4727 26.1831 24.5545 26.1485Z" fill="#F59D32"/>
<path fill-rule="evenodd" clip-rule="evenodd" d="M22.1843 20L24.0553 24.8594C23.9816 24.9297 23.9171 25 23.8433 25.0615L22 20.2636C22.0645 20.1757 22.129 20.0879 22.1843 20ZM24.5346 26.0984L26 29.9033C25.9171 29.9385 25.8341 29.9736 25.7512 30L24.2949 26.2127C24.3779 26.1775 24.4608 26.1424 24.5438 26.0984H24.5346Z" fill="#F69F32"/>
<path fill-rule="evenodd" clip-rule="evenodd" d="M22.1967 21L24.0703 25.8837C23.9953 25.9463 23.9297 26.0179 23.8548 26.0805L22 21.2594C22.0656 21.1699 22.1311 21.0894 22.1967 21ZM24.5199 27.0465L26 30.9016C25.9157 30.9374 25.8314 30.9642 25.7377 31L24.2576 27.1538C24.3419 27.1181 24.4262 27.0823 24.5105 27.0465H24.5199Z" fill="#F89F33"/>
<path fill-rule="evenodd" clip-rule="evenodd" d="M22.1995 21L24.0808 25.9C24.0047 25.9636 23.9287 26.0273 23.8527 26.1L22 21.2636C22.0665 21.1818 22.133 21.0909 22.1995 21.0091V21ZM24.4988 26.9909L26 30.9C25.9145 30.9364 25.829 30.9636 25.734 31L24.2328 27.1C24.3183 27.0636 24.4038 27.0273 24.4893 27L24.4988 26.9909Z" fill="#F8A036"/>
<path fill-rule="evenodd" clip-rule="evenodd" d="M22.2115 21L24.0865 25.4292C24.0096 25.4875 23.9327 25.5458 23.8558 25.6041L22 21.2248C22.0673 21.1499 22.1346 21.0749 22.2019 21H22.2115ZM24.4808 26.3451L26 29.9167C25.9135 29.9417 25.8269 29.975 25.7308 30L24.2212 26.4366C24.3077 26.4033 24.3942 26.3784 24.4808 26.3451Z" fill="#F9A236"/>
<path fill-rule="evenodd" clip-rule="evenodd" d="M21.2152 21L23.1027 25.4492C23.0244 25.5085 22.9462 25.5592 22.868 25.6184L21 21.2284C21.0685 21.1523 21.1467 21.0761 21.2152 21ZM23.4645 26.2951L25 29.9154C24.912 29.9408 24.8142 29.9662 24.7262 30L23.1907 26.3882C23.2787 26.3628 23.3667 26.3289 23.4645 26.3036V26.2951Z" fill="#F9A238"/>
<path fill-rule="evenodd" clip-rule="evenodd" d="M21.2184 22L23.1141 26.4699C23.0347 26.5301 22.9553 26.5818 22.8759 26.6421L21 22.2239C21.0695 22.155 21.1489 22.0775 21.2184 22ZM23.4417 27.245L25 30.9225C24.9107 30.9483 24.8114 30.9742 24.7221 31L23.1638 27.3225C23.2531 27.2966 23.3524 27.2622 23.4417 27.2364V27.245Z" fill="#F6A138"/>
<path fill-rule="evenodd" clip-rule="evenodd" d="M21.1591 22.0087L22.5909 26.4869C22.5303 26.5393 22.4697 26.6004 22.4091 26.6528L21 22.2182C21.0606 22.1484 21.1136 22.0698 21.1667 22L21.1591 22.0087ZM22.8106 27.194L24 30.9214C23.9318 30.9476 23.8561 30.9738 23.7879 31L22.6061 27.2813C22.6742 27.2551 22.75 27.2289 22.8182 27.194H22.8106Z" fill="#F6A13B"/>
<path fill-rule="evenodd" clip-rule="evenodd" d="M21.1765 22L22.6036 26.5133C22.5422 26.5666 22.4808 26.6199 22.4118 26.6821L21 22.2221C21.0614 22.151 21.1151 22.08 21.1765 22.0089V22ZM22.8031 27.1352L24 30.92C23.9309 30.9467 23.8542 30.9733 23.7852 31L22.5882 27.2241C22.6573 27.1974 22.734 27.1708 22.8031 27.1441V27.1352Z" fill="#F6A33D"/>
<path fill-rule="evenodd" clip-rule="evenodd" d="M21.1788 22L22.6088 26.5361C22.5466 26.5904 22.4767 26.6446 22.4145 26.6988L21 22.2169C21.0622 22.1446 21.1166 22.0723 21.1788 22ZM22.7876 27.0873L24 30.9277C23.9301 30.9548 23.8523 30.9729 23.7746 31L22.5622 27.1596C22.6321 27.1325 22.7098 27.1054 22.7798 27.0783L22.7876 27.0873Z" fill="#F6A53D"/>
<path fill-rule="evenodd" clip-rule="evenodd" d="M20.1816 22.0092L21.6184 26.555C21.5553 26.61 21.4842 26.665 21.4211 26.7108L20 22.2108C20.0632 22.1375 20.1263 22.0733 20.1816 22V22.0092ZM21.7684 27.0316L23 30.9267C22.9289 30.9542 22.85 30.9725 22.7711 31L21.5395 27.1141C21.6105 27.0866 21.6895 27.0682 21.7605 27.0407L21.7684 27.0316Z" fill="#F6A540"/>
<path fill-rule="evenodd" clip-rule="evenodd" d="M20.184 23L21.624 27.0705C21.56 27.1202 21.488 27.1617 21.424 27.2114L20 23.1824C20.064 23.1244 20.128 23.058 20.184 23ZM21.752 27.4269L23 30.942C22.928 30.9668 22.848 30.9834 22.768 31L21.528 27.4933C21.608 27.4684 21.68 27.4518 21.76 27.4269H21.752Z" fill="#F6A540"/>
<path fill-rule="evenodd" clip-rule="evenodd" d="M20.187 23L21.6341 27.0926C21.5691 27.1432 21.4959 27.1853 21.4309 27.2274L20 23.1853C20.065 23.1263 20.1301 23.0674 20.1951 23H20.187ZM21.7398 27.3789L23 30.9411C22.9187 30.9579 22.8455 30.9832 22.7642 31L21.5041 27.4379C21.5854 27.4126 21.6585 27.3958 21.7398 27.3705V27.3789Z" fill="#F9A641"/>
<path fill-rule="evenodd" clip-rule="evenodd" d="M20.2049 23.0085L21.6475 27.1067C21.582 27.1494 21.5082 27.2006 21.4344 27.2433L20 23.1793C20.0656 23.1195 20.1311 23.0598 20.1967 23L20.2049 23.0085ZM21.7295 27.3287L23 30.9402C22.918 30.9573 22.8443 30.9829 22.7623 31L21.4918 27.397C21.5656 27.3799 21.6475 27.3543 21.7295 27.3287Z" fill="#F9A641"/>
<path fill-rule="evenodd" clip-rule="evenodd" d="M20.2 23L21.6583 27.1346C21.5917 27.1781 21.5167 27.2215 21.4417 27.2736L20 23.1824C20.0667 23.1216 20.1333 23.0608 20.2 23.0087V23ZM21.7083 27.2823L23 30.9479C22.9167 30.9653 22.8417 30.9826 22.7583 31L21.4667 27.3431C21.55 27.3257 21.625 27.2997 21.7083 27.2823Z" fill="#F9A643"/>
<path fill-rule="evenodd" clip-rule="evenodd" d="M19.2034 23L20.6695 27.1589C20.5932 27.2031 20.5254 27.2472 20.4492 27.2914L19 23.1766C19.0678 23.1148 19.1356 23.0618 19.2034 23ZM20.6949 27.2296C20.6102 27.2472 20.5339 27.2737 20.4492 27.2914L21.7542 31C21.839 30.9823 21.9237 30.9647 22 30.947L20.6864 27.2296H20.6949Z" fill="#F9A846"/>
<path fill-rule="evenodd" clip-rule="evenodd" d="M19.2143 24.009L20.68 28.1836L22 31.9462C21.9143 31.9642 21.8371 31.9821 21.7514 32L19 24.1702C19.0686 24.1165 19.1371 24.0538 19.2057 24L19.2143 24.009Z" fill="#F7A947"/>
<path fill-rule="evenodd" clip-rule="evenodd" d="M19.2087 24L22 31.9545C21.913 31.9727 21.8261 31.9909 21.7478 32L19 24.1729C19.0696 24.1183 19.1391 24.0546 19.2174 24H19.2087Z" fill="#F7A949"/>
<path fill-rule="evenodd" clip-rule="evenodd" d="M19.2199 24L22 31.9538C21.912 31.9723 21.824 31.9908 21.7361 32L19 24.1665C19.0704 24.111 19.1496 24.0555 19.2199 24Z" fill="#F7A94B"/>
<path fill-rule="evenodd" clip-rule="evenodd" d="M19.2232 24L22 30.9589C21.9107 30.9753 21.8214 30.9836 21.7321 31L19 24.1479C19.0714 24.0986 19.1518 24.0493 19.2232 24Z" fill="#F7A94B"/>
<path fill-rule="evenodd" clip-rule="evenodd" d="M18.2349 24.0083L21 30.9666C20.9096 30.9833 20.8193 30.9917 20.7289 31L18 24.1418C18.0813 24.0918 18.1536 24.0501 18.2259 24L18.2349 24.0083Z" fill="#F7A94D"/>
<path fill-rule="evenodd" clip-rule="evenodd" d="M18.2294 24L21 30.9661C20.9083 30.9746 20.8165 30.9915 20.7248 31L18 24.1356C18.0826 24.0932 18.156 24.0424 18.2294 24Z" fill="#F7AB4D"/>
<path fill-rule="evenodd" clip-rule="evenodd" d="M18.2415 25L21 31.9656C20.9071 31.9742 20.8142 31.9914 20.7214 32L18 25.1462C18.0836 25.1032 18.1579 25.0516 18.2322 25.0086L18.2415 25Z" fill="#FAAC50"/>
<path fill-rule="evenodd" clip-rule="evenodd" d="M18.2358 25L21 31.9738C20.9057 31.9825 20.8113 31.9913 20.717 32L18 25.1312C18.0849 25.0875 18.1604 25.0438 18.2453 25H18.2358Z" fill="#FAAD50"/>
<path fill-rule="evenodd" clip-rule="evenodd" d="M17.2484 25.0089L20 31.9734C19.9045 31.9823 19.8089 31.9911 19.7134 32L17 25.1331C17.086 25.0887 17.1624 25.0444 17.2484 25V25.0089Z" fill="#FAAD52"/>
<path fill-rule="evenodd" clip-rule="evenodd" d="M17.2516 25L20 31.973C19.9032 31.973 19.8065 31.991 19.7097 32L17 25.1351C17.0871 25.0901 17.1645 25.045 17.2516 25Z" fill="#FAAD52"/>
<path fill-rule="evenodd" clip-rule="evenodd" d="M17.2459 25L20 31.9817C19.9016 31.9817 19.8033 32 19.7049 32L17 25.1283C17.0885 25.0825 17.177 25.0458 17.2557 25H17.2459Z" fill="#FAAD54"/>
<path fill-rule="evenodd" clip-rule="evenodd" d="M17.2682 25.0093L20 31.9814C19.9007 31.9814 19.8013 32 19.6921 32L17 25.1301C17.0894 25.093 17.1788 25.0465 17.2583 25L17.2682 25.0093Z" fill="#FAAD54"/>
<path fill-rule="evenodd" clip-rule="evenodd" d="M17.2718 25L20 30.9838C19.8993 30.9838 19.7987 30.9919 19.6879 31L17 25.1053C17.0906 25.0729 17.1812 25.0324 17.2718 25Z" fill="#F7AF56"/>
<path fill-rule="evenodd" clip-rule="evenodd" d="M16.2755 25L19 30.9836C18.898 30.9836 18.7857 30.9918 18.6837 31L16 25.1151C16.0918 25.0822 16.1837 25.0411 16.2755 25.0082V25Z" fill="#F7AF56"/>
<path fill-rule="evenodd" clip-rule="evenodd" d="M16.2793 26L19 31.9916C18.8966 31.9916 18.7828 31.9916 18.6793 32L16 26.1004C16.0931 26.0669 16.1862 26.0335 16.2793 26Z" fill="#F7AF59"/>
<path fill-rule="evenodd" clip-rule="evenodd" d="M16.2832 26.017L19 32C18.8951 32 18.7797 32 18.6748 32L16 26.1018C16.0944 26.0679 16.1888 26.0339 16.2832 26V26.017Z" fill="#F7AF5B"/>
<path fill-rule="evenodd" clip-rule="evenodd" d="M16.1915 26L18 32C17.9291 32 17.8511 32 17.7801 32L16 26.095C16.0638 26.0604 16.1277 26.0345 16.1915 26Z" fill="#FAB15B"/>
<path fill-rule="evenodd" clip-rule="evenodd" d="M15.1942 26L17 32C16.9281 32 16.8489 32 16.777 32L15 26.0965C15.0647 26.0614 15.1295 26.0351 15.1942 26Z" fill="#FAB15B"/>
<path fill-rule="evenodd" clip-rule="evenodd" d="M15.2036 26L17 32H16.7673L15 26.0892C15.0655 26.0624 15.1382 26.0267 15.2036 26Z" fill="#FBB460"/>
<path fill-rule="evenodd" clip-rule="evenodd" d="M15.2066 26L17 32C16.9262 32 16.845 32 16.7638 32L15 26.0995C15.0664 26.0724 15.1402 26.0362 15.2066 26.009V26Z" fill="#FBB460"/>
<path fill-rule="evenodd" clip-rule="evenodd" d="M15.2164 26L17 32C16.9179 32 16.8433 32 16.7612 32L15 26.092C15.0672 26.0644 15.1418 26.0368 15.209 26H15.2164Z" fill="#FBB460"/>
<path fill-rule="evenodd" clip-rule="evenodd" d="M14.2121 26L16 32C15.9167 32 15.8409 32 15.7576 32L14 26.0935C14.0682 26.0654 14.1439 26.0374 14.2121 26.0093V26Z" fill="#FBB461"/>
<path fill-rule="evenodd" clip-rule="evenodd" d="M14.2154 26L16 32C15.9154 32 15.8385 32 15.7538 31.9905L14 26.0949C14.0692 26.0665 14.1462 26.038 14.2154 26.0095V26Z" fill="#FBB464"/>
<path fill-rule="evenodd" clip-rule="evenodd" d="M14.2187 26L16 31C15.9141 31 15.8359 30.992 15.75 30.9839L14 26.0644C14.0703 26.0403 14.1484 26.0242 14.2187 26Z" fill="#FBB664"/>
<path fill-rule="evenodd" clip-rule="evenodd" d="M14.2292 26L16 31C15.913 31 15.8261 30.9918 15.747 30.9836L14 26.0655C14.0791 26.0409 14.1502 26.0245 14.2292 26Z" fill="#FBB664"/>
<path fill-rule="evenodd" clip-rule="evenodd" d="M13.2249 26L15 31C14.9116 31 14.8313 30.9834 14.743 30.975L13 26.0582C13.0803 26.0416 13.1526 26.0166 13.2329 26H13.2249Z" fill="#F8B766"/>
<path fill-rule="evenodd" clip-rule="evenodd" d="M13.2358 27L15 32C14.9106 32 14.8211 31.9831 14.7317 31.9746L13 27.0592C13.0813 27.0423 13.1545 27.0169 13.2358 27Z" fill="#FBB868"/>
<path fill-rule="evenodd" clip-rule="evenodd" d="M13.2469 27L15 32C14.9095 32 14.8189 31.9828 14.7284 31.9742L13 27.0602C13.0823 27.043 13.1564 27.0258 13.2387 27.0086L13.2469 27Z" fill="#FBB868"/>
<path fill-rule="evenodd" clip-rule="evenodd" d="M13.2427 27.0087L15 32C14.9079 31.9913 14.8159 31.9825 14.7238 31.965L13 27.0612C13.0837 27.0437 13.159 27.0262 13.2427 27V27.0087Z" fill="#FBB86B"/>
<path fill-rule="evenodd" clip-rule="evenodd" d="M12.2542 27.0089L14 32C13.9068 31.9911 13.8136 31.9733 13.7203 31.9644L12 27.0534C12.0847 27.0356 12.1695 27.0178 12.2458 27L12.2542 27.0089Z" fill="#FBB86C"/>
<path fill-rule="evenodd" clip-rule="evenodd" d="M12.25 27L14 32C13.9052 31.9909 13.8103 31.9728 13.7155 31.9638L12 27.0634C12.0862 27.0453 12.1724 27.0272 12.25 27.0091V27Z" fill="#FBBA6D"/>
<path fill-rule="evenodd" clip-rule="evenodd" d="M12.2544 27.0092L14 32C13.9035 31.9908 13.807 31.9723 13.7105 31.9539L12 27.0461C12.0877 27.0277 12.1754 27.0185 12.2632 27L12.2544 27.0092Z" fill="#FCBC6D"/>
<path fill-rule="evenodd" clip-rule="evenodd" d="M12.2667 27L14 32C13.9022 31.9812 13.8044 31.9718 13.7067 31.953L12 27.047C12.0889 27.0376 12.1778 27.0188 12.2667 27Z" fill="#FCBC6F"/>
<path fill-rule="evenodd" clip-rule="evenodd" d="M11.2624 27L13 32C12.9005 31.9808 12.8009 31.9617 12.7014 31.9425L11 27.0383C11.0905 27.0287 11.181 27.0096 11.2715 27H11.2624Z" fill="#FCBC6F"/>
<path fill-rule="evenodd" clip-rule="evenodd" d="M11.2752 27L13 31C12.8991 30.9844 12.7982 30.9687 12.6881 30.9531L11 27.0313C11.0917 27.0234 11.1835 27.0078 11.2752 27Z" fill="#FBBC71"/>
<path fill-rule="evenodd" clip-rule="evenodd" d="M11.2884 27L13 31C12.8977 30.9841 12.786 30.9681 12.6837 30.9522L11 27.0319C11.093 27.0239 11.186 27.0159 11.2791 27.008L11.2884 27Z" fill="#FBBC73"/>
<path fill-rule="evenodd" clip-rule="evenodd" d="M10.2844 27L12 31C11.8957 30.9837 11.782 30.9593 11.6777 30.9431L10 27.0244C10.0948 27.0244 10.1896 27.0081 10.2844 27Z" fill="#FBBC74"/>
<path fill-rule="evenodd" clip-rule="evenodd" d="M10.2981 27L12 31C11.8942 30.9834 11.7788 30.9585 11.6731 30.9419L10 27.0166C10.0962 27.0166 10.2019 27 10.2981 27Z" fill="#FCBE77"/>
<path fill-rule="evenodd" clip-rule="evenodd" d="M10.2941 27L12 31C11.8922 30.9746 11.7745 30.9577 11.6667 30.9323L10 27.0254C10.098 27.0254 10.2059 27.0085 10.3039 27.0085L10.2941 27Z" fill="#FCC077"/>
<path fill-rule="evenodd" clip-rule="evenodd" d="M10.3 27L12 31C11.89 30.974 11.77 30.9567 11.66 30.9307L10 27.0173C10.1 27.0173 10.2 27.0087 10.31 27H10.3Z" fill="#FCC079"/>
<path fill-rule="evenodd" clip-rule="evenodd" d="M9.31472 27L11 31C10.8782 30.9735 10.7665 30.9469 10.6447 30.9204L9 27.0088C9.10152 27.0088 9.2132 27.0088 9.31472 27Z" fill="#FCC07B"/>
<path fill-rule="evenodd" clip-rule="evenodd" d="M9.3299 27L11 31C10.8763 30.9729 10.7629 30.9457 10.6392 30.9186L9 27.009C9.10309 27.009 9.21649 27.009 9.31959 27.009L9.3299 27Z" fill="#FCC07B"/>
<path fill-rule="evenodd" clip-rule="evenodd" d="M9.32632 27L11 31C10.8737 30.9722 10.7474 30.9352 10.6316 30.9074L9 27.0093C9.10526 27.0093 9.22105 27.0093 9.32632 27.0093V27Z" fill="#FCC07B"/>
<path fill-rule="evenodd" clip-rule="evenodd" d="M9.33333 27L11 31C10.871 30.9715 10.7527 30.9335 10.6237 30.905L9 27C9.11828 27 9.22581 27 9.33333 27Z" fill="#FCC07D"/>
<path fill-rule="evenodd" clip-rule="evenodd" d="M8.34973 27L10 31C9.86885 30.9611 9.73771 30.9319 9.60656 30.8929L8 27C8.12022 27 8.22951 27 8.34973 27Z" fill="#FCC37F"/>
<path fill-rule="evenodd" clip-rule="evenodd" d="M8.35754 27L10 31C9.86592 30.96 9.73184 30.92 9.59776 30.89L8 27C8.12291 27 8.23464 27 8.35754 27Z" fill="#FCC480"/>
<path fill-rule="evenodd" clip-rule="evenodd" d="M8.36572 27.0077L10 30C9.86286 29.9692 9.72571 29.9385 9.58857 29.9077L8 27C8.12571 27 8.24 27 8.36572 27.0077Z" fill="#FCC480"/>
<path fill-rule="evenodd" clip-rule="evenodd" d="M7.37427 27.0158L9 30C8.85965 29.9684 8.7193 29.9368 8.57895 29.8974L7 27C7.12865 27 7.24561 27.0079 7.37427 27.0079V27.0158Z" fill="#FCC481"/>
<path fill-rule="evenodd" clip-rule="evenodd" d="M7.18675 27.0082L8 30C7.92771 29.9674 7.85542 29.9266 7.78313 29.894L7 27C7.06627 27 7.12651 27.0082 7.19277 27.0163L7.18675 27.0082Z" fill="#FCC483"/>
<path fill-rule="evenodd" clip-rule="evenodd" d="M7.20245 27.0168L8 30C7.92638 29.958 7.85276 29.9244 7.77301 29.8824L7 27C7.06748 27 7.12883 27.0168 7.19632 27.0168H7.20245Z" fill="#FCC784"/>
<path fill-rule="evenodd" clip-rule="evenodd" d="M7.20755 27.026L8 30C7.92453 29.9566 7.84277 29.9133 7.7673 29.8699L7 27C7.06918 27 7.13836 27.0173 7.20755 27.026Z" fill="#FCC784"/>
<path fill-rule="evenodd" clip-rule="evenodd" d="M6.20779 27.0358L7 30C6.92208 29.9552 6.83766 29.9015 6.75974 29.8567L6 27C6.07143 27.009 6.14286 27.0179 6.21429 27.0269L6.20779 27.0358Z" fill="#FCC785"/>
<path fill-rule="evenodd" clip-rule="evenodd" d="M6.21477 27.0279L7 30C6.91946 29.9534 6.83221 29.8975 6.75168 29.8509L6 27C6.07383 27.0093 6.14765 27.0279 6.22148 27.0373L6.21477 27.0279Z" fill="#FCC787"/>
<path fill-rule="evenodd" clip-rule="evenodd" d="M6.22759 27.0291L7 30C6.91034 29.9417 6.82759 29.8835 6.73793 29.8349L6 27C6.07586 27.0097 6.15172 27.0291 6.22759 27.0388V27.0291Z" fill="#FCC787"/>
<path fill-rule="evenodd" clip-rule="evenodd" d="M5.23571 27.0505L6 30C5.90714 29.9394 5.82143 29.8788 5.72857 29.8182L5 27C5.07857 27.0101 5.15714 27.0303 5.23571 27.0505Z" fill="#FDC98A"/>
<path fill-rule="evenodd" clip-rule="evenodd" d="M5.24444 27.0352L6 29C5.9037 28.9577 5.80741 28.9085 5.71852 28.8662L5 27C5.08148 27.0141 5.16296 27.0211 5.24444 27.0352Z" fill="#FDC98C"/>
<path fill-rule="evenodd" clip-rule="evenodd" d="M5.25954 27.037L6 29C5.90076 28.9481 5.80153 28.9037 5.70229 28.8519L5 27C5.08397 27.0148 5.16794 27.0296 5.25191 27.037H5.25954Z" fill="#FDC98C"/>
<path fill-rule="evenodd" clip-rule="evenodd" d="M5.264 27.0469L6 29C5.896 28.9453 5.792 28.8906 5.688 28.8359L5 27C5.088 27.0156 5.176 27.0312 5.264 27.0469Z" fill="#FDCB8C"/>
<path fill-rule="evenodd" clip-rule="evenodd" d="M4.28333 27.0498L5 29C4.89167 28.9419 4.78333 28.8755 4.66667 28.8174L4 27C4.09167 27.0166 4.19167 27.0332 4.28333 27.0498Z" fill="#FDCB8E"/>
<path fill-rule="evenodd" clip-rule="evenodd" d="M4.29825 27.0619L5 29C4.88596 28.9292 4.76316 28.8584 4.64912 28.7876L4 27C4.09649 27.0177 4.20175 27.0354 4.29825 27.0531V27.0619Z" fill="#FDCB8F"/>
<path fill-rule="evenodd" clip-rule="evenodd" d="M4.31481 27.067L5 29C4.87963 28.9234 4.75 28.8469 4.62963 28.7608L4 27C4.10185 27.0191 4.21296 27.0478 4.31481 27.067Z" fill="#FDCB8F"/>
<path fill-rule="evenodd" clip-rule="evenodd" d="M3.33333 27.0733L4 29C3.86275 28.9058 3.73529 28.822 3.59804 28.7278L3 27C3.10784 27.0314 3.22549 27.0524 3.33333 27.0838V27.0733Z" fill="#FDCD90"/>
<path fill-rule="evenodd" clip-rule="evenodd" d="M3.36458 26.1034L4 28C3.85417 27.8966 3.70833 27.7931 3.5625 27.6782L3 26C3.125 26.0345 3.23958 26.0575 3.35417 26.092L3.36458 26.1034Z" fill="#FDCD94"/>
<path fill-rule="evenodd" clip-rule="evenodd" d="M3.38636 26.0519L4 27C3.84091 26.9351 3.68182 26.8766 3.52273 26.8117L3 26C3.13636 26.0195 3.26136 26.039 3.38636 26.0584V26.0519Z" fill="#FDCD94"/>
<path fill-rule="evenodd" clip-rule="evenodd" d="M2.4321 26.0672L3 27C2.82716 26.9254 2.64198 26.8507 2.46914 26.7687L2 26C2.14815 26.0224 2.28395 26.0448 2.4321 26.0672Z" fill="#FDCF96"/>
<path fill-rule="evenodd" clip-rule="evenodd" d="M2.47945 26.0804L3 27C2.79452 26.9018 2.60274 26.8036 2.39726 26.7054L2 26C2.16438 26.0268 2.31507 26.0536 2.47945 26.0804Z" fill="#FDCF96"/>
<path fill-rule="evenodd" clip-rule="evenodd" d="M2.54688 26.1023L3 27C2.76563 26.8636 2.53125 26.7386 2.3125 26.6023L2 26C2.1875 26.0341 2.35938 26.0682 2.54688 26.1136V26.1023Z" fill="#FDCF98"/>
<path fill-rule="evenodd" clip-rule="evenodd" d="M2.30675 26.1719L2.48203 27C2.35057 26.8125 2.21911 26.6094 2.08764 26.4062L2 26C2.10517 26.0625 2.21034 26.1094 2.30675 26.1562V26.1719Z" fill="#FDCF9A"/>
<path fill-rule="evenodd" clip-rule="evenodd" d="M1.55336 26.0319L1.64101 26.2598C1.51831 26.1546 1.40437 26.0582 1.29044 25.953C1.37808 25.9793 1.47448 26.0056 1.56213 26.0319H1.55336Z" fill="#FDCF9A"/>
<path fill-rule="evenodd" clip-rule="evenodd" d="M16.2754 0.0262451L15.1254 0.937726C15.4589 0.613449 15.8013 0.306701 16.1437 0.0350094C16.1876 0.0350094 16.2315 0.0350094 16.2754 0.0262451Z" fill="#EF8721"/>
<path fill-rule="evenodd" clip-rule="evenodd" d="M15.1166 0.937774L16.2754 0.0262927C16.407 0.00876424 16.5387 0.00876424 16.6704 0L14.1246 2.01578C14.4494 1.63015 14.783 1.27082 15.1166 0.937774Z" fill="#EF8721"/>
<path fill-rule="evenodd" clip-rule="evenodd" d="M14.1246 2.01578L16.6704 0C16.7933 0 16.9074 0 17.0303 0L13.5101 2.78703C13.712 2.51534 13.9139 2.26117 14.1246 2.00701V2.01578Z" fill="#EF8721"/>
<path fill-rule="evenodd" clip-rule="evenodd" d="M13.5189 2.79579L17.0303 0C17.1444 0 17.2498 0.0175285 17.3639 0.0262927L13.0449 3.44435C13.2029 3.21648 13.3521 2.99737 13.5189 2.78703V2.79579Z" fill="#F08921"/>
<path fill-rule="evenodd" clip-rule="evenodd" d="M13.0449 3.45309L17.3727 0.0350342C17.478 0.0437984 17.5833 0.0613269 17.6887 0.0788554L13.475 3.41803C13.3346 3.4268 13.1941 3.44432 13.0536 3.46185L13.0449 3.45309Z" fill="#F08921"/>
<path fill-rule="evenodd" clip-rule="evenodd" d="M13.475 3.40927L17.6799 0.0788574C17.7765 0.0963859 17.8818 0.113914 17.9784 0.131443L13.87 3.38298C13.7384 3.38298 13.6067 3.40051 13.4662 3.40927H13.475Z" fill="#F08A21"/>
<path fill-rule="evenodd" clip-rule="evenodd" d="M13.8701 3.383L17.9784 0.13147C18.075 0.148998 18.1715 0.175291 18.2681 0.201584L14.2563 3.37424C14.1334 3.37424 14.0017 3.37424 13.8701 3.383Z" fill="#F08A21"/>
<path fill-rule="evenodd" clip-rule="evenodd" d="M14.2563 3.37419L18.2681 0.201538C18.3558 0.227831 18.4524 0.245359 18.5402 0.280416L14.625 3.38296C14.5021 3.38296 14.3792 3.38296 14.2563 3.38296V3.37419Z" fill="#F08C21"/>
<path fill-rule="evenodd" clip-rule="evenodd" d="M14.625 3.37427L18.5402 0.271729C18.628 0.298021 18.7158 0.324314 18.8036 0.350607L14.9761 3.38303C14.862 3.38303 14.7391 3.37427 14.625 3.36551V3.37427Z" fill="#F08C21"/>
<path fill-rule="evenodd" clip-rule="evenodd" d="M14.9761 3.38304L18.8036 0.359375C18.8913 0.385668 18.9703 0.420725 19.0581 0.447017L15.3097 3.40933C15.1956 3.40057 15.0815 3.3918 14.9673 3.38304H14.9761Z" fill="#F08C21"/>
<path fill-rule="evenodd" clip-rule="evenodd" d="M15.3185 3.40934L19.0669 0.447021C19.1459 0.473314 19.2337 0.508371 19.3127 0.543428L15.6433 3.44439C15.538 3.42686 15.4239 3.4181 15.3185 3.40934ZM10.7537 7.31819L10.5957 7.44089L10.622 7.37954C10.622 7.37954 10.7098 7.33572 10.7537 7.31819Z" fill="#F08E20"/>
<path fill-rule="evenodd" clip-rule="evenodd" d="M10.5869 7.44958L10.7449 7.32688C11.0258 7.19542 11.2979 7.07272 11.5789 6.95879L10.385 7.90532C10.4464 7.75633 10.5167 7.60734 10.5869 7.44958ZM15.6345 3.45309L19.3039 0.552124C19.3829 0.587181 19.462 0.613474 19.5497 0.648531L15.9506 3.49691C15.8452 3.47938 15.7486 3.46185 15.6433 3.45309H15.6345Z" fill="#F08C21"/>
<path fill-rule="evenodd" clip-rule="evenodd" d="M10.385 7.89656L11.5788 6.95002C11.8159 6.85362 12.0529 6.76598 12.2899 6.67833L10.1918 8.34354C10.2533 8.19455 10.3147 8.04556 10.385 7.89656ZM15.9505 3.48815L19.5497 0.639771C19.6287 0.674827 19.7077 0.709884 19.7867 0.744941L16.249 3.54073C16.1524 3.52321 16.0471 3.50568 15.9505 3.48815Z" fill="#F08E20"/>
<path fill-rule="evenodd" clip-rule="evenodd" d="M10.1919 8.34359L12.2899 6.67839C12.5006 6.60827 12.7025 6.53816 12.9132 6.47681L10.0075 8.77304C10.069 8.63281 10.1216 8.48382 10.1919 8.33483V8.34359ZM16.249 3.54079L19.7868 0.744995C19.8658 0.780052 19.936 0.815109 20.015 0.85893L16.5475 3.6109C16.4509 3.58461 16.3544 3.56708 16.2578 3.54955L16.249 3.54079Z" fill="#F08E20"/>
<path fill-rule="evenodd" clip-rule="evenodd" d="M10.0075 8.78176L12.9132 6.48553C13.0975 6.43295 13.2907 6.38036 13.475 6.32777L9.8407 9.20245C9.89337 9.06222 9.94604 8.92199 10.0075 8.78176ZM16.5387 3.61086L20.0062 0.858887C20.0852 0.893944 20.1554 0.929001 20.2345 0.972822L16.8196 3.68097C16.7318 3.65468 16.6353 3.62839 16.5387 3.61086Z" fill="#F19020"/>
<path fill-rule="evenodd" clip-rule="evenodd" d="M9.8407 9.2025L13.475 6.32783C13.6418 6.28401 13.8174 6.24895 13.9929 6.21389L9.69147 9.62318C9.73536 9.49172 9.78803 9.35149 9.8407 9.21126V9.2025ZM16.8196 3.67226L20.2345 0.964111C20.3047 0.999168 20.3837 1.04299 20.4539 1.08681L17.0917 3.75114C17.004 3.72485 16.9162 3.69855 16.8196 3.67226Z" fill="#F19020"/>
<path fill-rule="evenodd" clip-rule="evenodd" d="M9.69148 9.6144L13.9929 6.20511C14.151 6.17005 14.309 6.14376 14.467 6.11747L9.55103 10.0088C9.59492 9.87733 9.63881 9.74586 9.6827 9.6144H9.69148ZM17.0918 3.75112L20.4539 1.08679C20.5242 1.12185 20.5944 1.16567 20.6734 1.20949L17.3551 3.83876C17.2673 3.81247 17.1795 3.77741 17.0918 3.75112Z" fill="#F19020"/>
<path fill-rule="evenodd" clip-rule="evenodd" d="M9.5598 10.0088L14.4758 6.11745C14.625 6.09116 14.7742 6.07363 14.9235 6.0561L9.44568 10.3944C9.48079 10.2717 9.51591 10.1402 9.5598 10.0088ZM17.3551 3.83875L20.6734 1.20947C20.7436 1.25329 20.8138 1.28835 20.8841 1.33217L17.6097 3.92639C17.5307 3.89133 17.4429 3.86504 17.3551 3.83875Z" fill="#F19120"/>
<path fill-rule="evenodd" clip-rule="evenodd" d="M9.44567 10.3944L14.9235 6.05608C15.0639 6.03855 15.2044 6.02979 15.3448 6.01226L9.35788 10.7537C9.38422 10.631 9.41933 10.5083 9.45444 10.3856L9.44567 10.3944ZM17.6097 3.92637L20.8841 1.33215C20.9543 1.37597 21.0245 1.4198 21.0947 1.46362L17.8555 4.03154C17.7765 3.99648 17.6887 3.96143 17.6097 3.93513V3.92637Z" fill="#F19020"/>
<path fill-rule="evenodd" clip-rule="evenodd" d="M9.34912 10.7625L15.3361 6.02103C15.4677 6.01226 15.5994 6.0035 15.7311 5.99474L9.27011 11.1131C9.28767 10.9991 9.314 10.8852 9.34034 10.7625H9.34912ZM17.8555 4.03155L21.0948 1.46362C21.165 1.50744 21.2352 1.55127 21.2967 1.59509L18.0925 4.13672C18.0135 4.10166 17.9345 4.0666 17.8555 4.03155Z" fill="#F19120"/>
<path fill-rule="evenodd" clip-rule="evenodd" d="M9.2789 11.113L15.7399 5.99472C15.8628 5.99472 15.9945 5.99472 16.1174 5.98595L9.22623 11.4461C9.24378 11.3409 9.26134 11.227 9.2789 11.113ZM18.0925 4.12793L21.2967 1.5863C21.3669 1.63012 21.4284 1.67395 21.4986 1.71777L18.3295 4.2331C18.2505 4.19805 18.1803 4.16299 18.1013 4.12793H18.0925Z" fill="#F19120"/>
<path fill-rule="evenodd" clip-rule="evenodd" d="M9.22621 11.4461L16.1173 5.98598C16.2402 5.98598 16.3631 5.98598 16.4773 5.98598L9.92849 11.1744C9.68269 11.3059 9.43689 11.4373 9.20865 11.5951C9.20865 11.5425 9.21743 11.4987 9.22621 11.4461ZM18.3295 4.2419L21.4986 1.72656C21.5688 1.77038 21.6302 1.8142 21.7005 1.85803L18.5578 4.34707C18.4875 4.31201 18.4085 4.26819 18.3295 4.23314V4.2419Z" fill="#F4941E"/>
<path fill-rule="evenodd" clip-rule="evenodd" d="M9.9285 11.1832L16.4773 5.99478C16.5914 5.99478 16.7055 5.99478 16.8284 6.01231L10.7888 10.7976C10.4903 10.9115 10.2094 11.043 9.9285 11.1832ZM18.549 4.35587L21.6917 1.86682C21.7531 1.91064 21.8234 1.96323 21.8848 2.00705L18.7685 4.47857C18.6982 4.43474 18.6192 4.39969 18.549 4.35587Z" fill="#F4941E"/>
<path fill-rule="evenodd" clip-rule="evenodd" d="M10.7888 10.7888L16.8284 6.00355C16.9425 6.00355 17.0479 6.02108 17.162 6.02984L11.4472 10.561C11.2277 10.6311 11.0083 10.7099 10.7888 10.7888ZM18.7685 4.46981L21.8848 1.99829C21.9463 2.04211 22.0165 2.0947 22.0779 2.13852L18.9791 4.59251C18.9089 4.54869 18.8387 4.51363 18.7685 4.46981Z" fill="#F4941E"/>
<path fill-rule="evenodd" clip-rule="evenodd" d="M11.4472 10.5609L17.162 6.02975C17.2673 6.03852 17.3814 6.04728 17.4868 6.06481L12.009 10.4031C11.8159 10.4469 11.6315 10.4995 11.4472 10.5521V10.5609ZM18.9791 4.59242L22.0779 2.13843C22.1394 2.18225 22.2008 2.23483 22.2623 2.27866L19.1898 4.71511C19.1196 4.67129 19.0494 4.62747 18.9791 4.58365V4.59242Z" fill="#F4961E"/>
<path fill-rule="evenodd" clip-rule="evenodd" d="M12.009 10.4032L17.4868 6.06486C17.5921 6.08239 17.6975 6.09116 17.8028 6.10868L12.5182 10.2892C12.3426 10.3243 12.1758 10.3593 12.009 10.4032ZM19.1898 4.72393L22.2623 2.28748C22.3237 2.3313 22.3852 2.38388 22.4466 2.43647L19.3917 4.8554C19.3215 4.81158 19.2601 4.76776 19.1898 4.72393Z" fill="#F4961E"/>
<path fill-rule="evenodd" clip-rule="evenodd" d="M12.5182 10.2979L17.8028 6.11738C17.9082 6.13491 18.0047 6.15244 18.1101 6.16997L12.9834 10.2278C12.8254 10.2541 12.6762 10.2716 12.5182 10.3067V10.2979ZM19.3917 4.85533L22.4466 2.4364C22.5081 2.48899 22.5695 2.53281 22.631 2.58539L19.5849 4.99556C19.5234 4.95174 19.4532 4.90792 19.3917 4.8641V4.85533Z" fill="#F5971E"/>
<path fill-rule="evenodd" clip-rule="evenodd" d="M12.9834 10.2191L18.11 6.16124C18.2066 6.17876 18.3032 6.19629 18.4085 6.22258L13.4223 10.1665C13.2731 10.184 13.1326 10.2016 12.9834 10.2191ZM19.5848 4.98683L22.631 2.57666C22.6924 2.62925 22.7539 2.67307 22.8153 2.72565L19.7867 5.12705C19.7253 5.08323 19.6551 5.03065 19.5936 4.98683H19.5848Z" fill="#F5971E"/>
<path fill-rule="evenodd" clip-rule="evenodd" d="M13.4223 10.1668L18.4085 6.22288C18.5051 6.24041 18.6017 6.26671 18.6982 6.28423L13.8437 10.1317C13.7032 10.1405 13.5716 10.1493 13.4311 10.1668H13.4223ZM19.778 5.12735L22.8066 2.72595C22.868 2.77854 22.9207 2.82236 22.9821 2.87494L19.9623 5.26758C19.9009 5.215 19.8394 5.17118 19.778 5.12735Z" fill="#F5971E"/>
<path fill-rule="evenodd" clip-rule="evenodd" d="M13.8349 10.1315L18.6894 6.28395C18.786 6.30148 18.8738 6.32777 18.9703 6.35406L14.2212 10.1139C14.0895 10.1139 13.9578 10.1227 13.8261 10.1315H13.8349ZM19.9711 5.27606L22.9909 2.88342C23.0524 2.93601 23.105 2.98859 23.1665 3.04118L20.1554 5.42505C20.094 5.37247 20.0325 5.32865 19.9711 5.27606Z" fill="#F5971E"/>
<path fill-rule="evenodd" clip-rule="evenodd" d="M14.2299 10.1139L18.9791 6.35402C19.0669 6.38031 19.1635 6.40661 19.2513 6.4329L14.6074 10.1139C14.4845 10.1139 14.3528 10.1139 14.2299 10.1139ZM20.1554 5.42501L23.1665 3.04114C23.2279 3.09372 23.2806 3.14631 23.342 3.19889L20.3398 5.574C20.2783 5.52142 20.2169 5.4776 20.1554 5.42501Z" fill="#F59722"/>
<path fill-rule="evenodd" clip-rule="evenodd" d="M14.6075 10.1054L19.2513 6.42444C19.3391 6.45073 19.4269 6.47702 19.5146 6.50331L14.9674 10.1054C14.8445 10.1054 14.7304 10.1054 14.6075 10.1054ZM20.3398 5.56554L23.3421 3.19043C23.3947 3.24302 23.4562 3.2956 23.5089 3.34819L20.5154 5.7233C20.4539 5.67071 20.4013 5.61812 20.3398 5.5743V5.56554Z" fill="#F89A22"/>
<path fill-rule="evenodd" clip-rule="evenodd" d="M14.9673 10.1139L19.5146 6.51179C19.6024 6.53808 19.6902 6.56438 19.778 6.59943L15.3185 10.1314C15.2044 10.1314 15.0815 10.1227 14.9673 10.1139ZM20.5154 5.72301L23.5088 3.3479C23.5615 3.40049 23.623 3.45307 23.6756 3.50566L20.6909 5.872C20.6295 5.81942 20.5768 5.76683 20.5154 5.71425V5.72301Z" fill="#F89A22"/>
<path fill-rule="evenodd" clip-rule="evenodd" d="M15.3185 10.123L19.778 6.59099C19.8658 6.61729 19.9448 6.65234 20.0326 6.67864L15.6521 10.1493C15.538 10.1405 15.4239 10.1317 15.3185 10.123ZM20.691 5.87233L23.6757 3.50598C23.7283 3.55857 23.7898 3.61115 23.8424 3.66374L20.8578 6.03008C20.8051 5.9775 20.7436 5.92491 20.691 5.87233Z" fill="#F59B26"/>
<path fill-rule="evenodd" clip-rule="evenodd" d="M15.6521 10.1492L20.0326 6.6786C20.1116 6.70489 20.1994 6.73995 20.2872 6.775L15.9857 10.1843C15.8803 10.1755 15.7662 10.158 15.6609 10.1492H15.6521ZM20.8578 6.03004L23.8424 3.6637C23.8951 3.71628 23.9478 3.76887 24.0092 3.82145L21.0245 6.17903C20.9719 6.12645 20.9104 6.07386 20.8578 6.02128V6.03004Z" fill="#F89C27"/>
<path fill-rule="evenodd" clip-rule="evenodd" d="M15.9857 10.1843L20.2871 6.77499C20.3661 6.81004 20.4539 6.83634 20.5329 6.87139L16.3017 10.2193C16.1963 10.2018 16.091 10.193 15.9857 10.1755V10.1843ZM21.0245 6.18778L24.0092 3.8302C24.0619 3.88279 24.1146 3.93537 24.176 3.99672L21.2001 6.3543C21.1474 6.30172 21.0947 6.24913 21.0333 6.19655L21.0245 6.18778Z" fill="#F59B28"/>
<path fill-rule="evenodd" clip-rule="evenodd" d="M16.3017 10.2194L20.5329 6.87147C20.6119 6.90653 20.691 6.94159 20.7787 6.96788L16.6089 10.2632C16.5036 10.2457 16.407 10.2282 16.3017 10.2194ZM21.1913 6.34562L24.1672 3.98804C24.2199 4.04062 24.2726 4.10197 24.3253 4.15456L21.3493 6.51214C21.2967 6.45955 21.244 6.40697 21.1913 6.34562Z" fill="#F59D2A"/>
<path fill-rule="evenodd" clip-rule="evenodd" d="M16.6089 10.272L20.7787 6.97665C20.8577 7.01171 20.9367 7.04677 21.0157 7.08182L16.9162 10.3334C16.8108 10.3158 16.7143 10.2983 16.6177 10.2808L16.6089 10.272ZM21.3493 6.52091L24.3252 4.16333C24.3779 4.21592 24.4306 4.27727 24.4832 4.32985L21.5073 6.68743C21.4547 6.63485 21.402 6.5735 21.3493 6.52091Z" fill="#F59D2C"/>
<path fill-rule="evenodd" clip-rule="evenodd" d="M16.9162 10.3247L21.0158 7.07314C21.0948 7.1082 21.1738 7.14325 21.2528 7.17831L17.2147 10.3773C17.1181 10.3597 17.0215 10.3334 16.9162 10.3159V10.3247ZM21.5161 6.67875L24.4921 4.32117C24.5447 4.37375 24.5974 4.4351 24.6501 4.48769L21.6742 6.84527C21.6215 6.79268 21.5688 6.73133 21.5161 6.67875Z" fill="#F59D2C"/>
<path fill-rule="evenodd" clip-rule="evenodd" d="M17.2059 10.386L21.244 7.18708C21.323 7.22214 21.3932 7.2572 21.4722 7.29225L17.4868 10.4474C17.3902 10.4211 17.2937 10.4036 17.1971 10.386H17.2059ZM21.6654 6.85404L24.6413 4.49646C24.694 4.54905 24.7466 4.6104 24.7993 4.66298L21.8234 7.02056C21.7707 6.95921 21.718 6.90663 21.6654 6.85404Z" fill="#F59D32"/>
<path fill-rule="evenodd" clip-rule="evenodd" d="M17.4956 10.4474L21.481 7.29224C21.56 7.32729 21.6303 7.36235 21.7093 7.40617L17.7765 10.5175C17.6799 10.4912 17.5921 10.4737 17.4956 10.4474ZM21.8234 7.02055L24.7993 4.66296C24.852 4.71555 24.9046 4.7769 24.9485 4.83825L21.9726 7.19583C21.9199 7.13448 21.8673 7.08189 21.8234 7.02055Z" fill="#F69F32"/>
<path fill-rule="evenodd" clip-rule="evenodd" d="M17.7765 10.5175L21.7093 7.40618C21.7795 7.44124 21.8585 7.48506 21.9287 7.52011L18.0486 10.5876C17.9521 10.5613 17.8643 10.535 17.7765 10.5175ZM21.9726 7.19584L24.9485 4.83826C25.0012 4.89961 25.0539 4.95219 25.0978 5.01354L22.1219 7.37112C22.0692 7.30977 22.0253 7.25719 21.9726 7.19584Z" fill="#F89F33"/>
<path fill-rule="evenodd" clip-rule="evenodd" d="M18.0486 10.5876L21.9287 7.5201C21.9989 7.55516 22.078 7.59898 22.1482 7.63403L18.3207 10.6665C18.233 10.6402 18.1364 10.6139 18.0486 10.5876ZM22.1218 7.36234C22.1745 7.42369 22.2184 7.47628 22.2711 7.53763L25.247 5.18005C25.1943 5.1187 25.1504 5.06611 25.0978 5.00476L22.1218 7.36234Z" fill="#F8A036"/>
<path fill-rule="evenodd" clip-rule="evenodd" d="M18.3208 10.6665L22.1482 7.63404C22.2184 7.6691 22.2974 7.71292 22.3677 7.75674L18.5929 10.7453C18.5051 10.7191 18.4173 10.6928 18.3295 10.6577L18.3208 10.6665ZM22.2711 7.53764C22.3238 7.59898 22.3677 7.65157 22.4203 7.71292L25.3962 5.35534C25.3524 5.29399 25.2997 5.2414 25.247 5.18005L22.2711 7.53764Z" fill="#F9A236"/>
<path fill-rule="evenodd" clip-rule="evenodd" d="M18.5841 10.7454L22.3589 7.75675C22.4203 7.79181 22.473 7.8181 22.5344 7.85316C22.4993 7.80933 22.4554 7.75675 22.4203 7.71293L25.3962 5.35535C25.4489 5.4167 25.4928 5.46928 25.5455 5.53063L18.8562 10.833C18.7685 10.8067 18.6807 10.7716 18.5929 10.7454H18.5841Z" fill="#F9A238"/>
<path fill-rule="evenodd" clip-rule="evenodd" d="M18.8475 10.8331L25.5367 5.53076C25.5806 5.59211 25.6332 5.65346 25.6771 5.70605L19.0933 10.9208C19.0055 10.8857 18.9265 10.8594 18.8387 10.8331H18.8475Z" fill="#F6A138"/>
<path fill-rule="evenodd" clip-rule="evenodd" d="M19.102 10.9208L25.6859 5.70605C25.7298 5.7674 25.7825 5.81999 25.8264 5.88134L19.3478 11.0084C19.2688 10.9734 19.181 10.9471 19.102 10.912V10.9208Z" fill="#F6A13B"/>
<path fill-rule="evenodd" clip-rule="evenodd" d="M19.3566 11.0171L25.8352 5.89001C25.8791 5.95136 25.9317 6.01271 25.9756 6.07406L19.6112 11.1135C19.5322 11.0784 19.4444 11.0522 19.3654 11.0171H19.3566Z" fill="#F6A33D"/>
<path fill-rule="evenodd" clip-rule="evenodd" d="M19.6024 11.1135L25.9668 6.0741C26.0107 6.13545 26.0634 6.1968 26.1073 6.25815L19.8482 11.2187C19.7692 11.1837 19.6902 11.1486 19.6024 11.1223V11.1135Z" fill="#F6A53D"/>
<path fill-rule="evenodd" clip-rule="evenodd" d="M19.8394 11.2187L26.0985 6.25818C26.1424 6.31953 26.1863 6.38088 26.2389 6.44223L20.0764 11.3239C19.9974 11.2889 19.9184 11.2538 19.8394 11.2187Z" fill="#F6A540"/>
<path fill-rule="evenodd" clip-rule="evenodd" d="M20.0765 11.3239L26.239 6.44226C26.2829 6.50361 26.3268 6.56496 26.3707 6.62631L20.3047 11.4291C20.2257 11.3941 20.1467 11.359 20.0677 11.3239H20.0765Z" fill="#F6A540"/>
<path fill-rule="evenodd" clip-rule="evenodd" d="M20.3135 11.429L26.3794 6.62622C26.4233 6.68757 26.4672 6.74892 26.5111 6.81027L20.5417 11.5342C20.4627 11.4991 20.3925 11.4553 20.3135 11.4203V11.429Z" fill="#F9A641"/>
<path fill-rule="evenodd" clip-rule="evenodd" d="M20.5417 11.5342L26.5111 6.8103C26.555 6.87165 26.5989 6.933 26.6428 6.99435L20.77 11.6482C20.691 11.6131 20.6207 11.5693 20.5417 11.5342Z" fill="#F9A641"/>
<path fill-rule="evenodd" clip-rule="evenodd" d="M20.77 11.6483L26.6428 6.99451C26.6867 7.05586 26.7306 7.11721 26.7745 7.17856L20.9894 11.7535C20.9192 11.7184 20.8402 11.6746 20.77 11.6396V11.6483Z" fill="#F9A643"/>
<path fill-rule="evenodd" clip-rule="evenodd" d="M20.9894 11.7622L26.7744 7.18726C26.8183 7.24861 26.8622 7.31872 26.9061 7.38007L21.2177 11.8849C21.1474 11.8411 21.0684 11.806 20.9982 11.771L20.9894 11.7622Z" fill="#F9A846"/>
<path fill-rule="evenodd" clip-rule="evenodd" d="M21.2089 11.8849L26.8974 7.38013C26.9412 7.44148 26.9851 7.50283 27.0203 7.57294L21.4196 12.0076C21.3493 11.9638 21.2791 11.9288 21.2001 11.8849H21.2089Z" fill="#F7A947"/>
<path fill-rule="evenodd" clip-rule="evenodd" d="M21.4283 12.0076L27.029 7.57288C27.0729 7.63423 27.1168 7.70434 27.1519 7.76569L21.639 12.1303C21.5688 12.0865 21.4986 12.0426 21.4283 12.0076Z" fill="#F7A949"/>
<path fill-rule="evenodd" clip-rule="evenodd" d="M21.639 12.1303L27.1519 7.76575C27.1958 7.8271 27.2309 7.89721 27.2748 7.95856L21.8497 12.253C21.7795 12.2092 21.7092 12.1654 21.639 12.1303Z" fill="#F7A94B"/>
<path fill-rule="evenodd" clip-rule="evenodd" d="M21.8497 12.253L27.2748 7.9585C27.3187 8.01985 27.3539 8.08996 27.3977 8.15131L22.0516 12.3844C21.9814 12.3406 21.9112 12.2968 21.8497 12.253Z" fill="#F7A94B"/>
<path fill-rule="evenodd" clip-rule="evenodd" d="M22.0604 12.3845L27.4065 8.15137C27.4504 8.21272 27.4855 8.28283 27.5294 8.34418L22.2711 12.5072C22.2009 12.4634 22.1306 12.4196 22.0692 12.3757L22.0604 12.3845Z" fill="#F7A94D"/>
<path fill-rule="evenodd" clip-rule="evenodd" d="M22.2623 12.5159L27.5206 8.35291C27.5645 8.41425 27.5996 8.48437 27.6435 8.54572L22.4642 12.6474C22.3939 12.6036 22.3325 12.5597 22.2623 12.5159Z" fill="#F7AB4D"/>
<path fill-rule="evenodd" clip-rule="evenodd" d="M22.4642 12.6476L27.6435 8.5459C27.6787 8.60725 27.7225 8.67736 27.7577 8.74748L22.6573 12.7878C22.5871 12.744 22.5257 12.7001 22.4554 12.6563L22.4642 12.6476Z" fill="#FAAC50"/>
<path fill-rule="evenodd" clip-rule="evenodd" d="M22.6573 12.779L27.7577 8.73865C27.7928 8.80876 27.8367 8.87011 27.8718 8.94022L22.8505 12.9192C22.789 12.8754 22.7188 12.8228 22.6573 12.779Z" fill="#FAAD50"/>
<path fill-rule="evenodd" clip-rule="evenodd" d="M22.8505 12.9193L27.8718 8.94031C27.9069 9.01042 27.9508 9.07177 27.9859 9.14189L23.0436 13.0507C22.9821 13.0069 22.9119 12.9543 22.8505 12.9105V12.9193Z" fill="#FAAD52"/>
<path fill-rule="evenodd" clip-rule="evenodd" d="M23.0436 13.0595L27.9859 9.15063C28.021 9.22075 28.0649 9.2821 28.1 9.35221L23.2367 13.2085C23.1753 13.1647 23.1138 13.1121 23.0524 13.0683L23.0436 13.0595Z" fill="#FAAD52"/>
<path fill-rule="evenodd" clip-rule="evenodd" d="M23.2367 13.1997L28.1 9.34338C28.1351 9.4135 28.179 9.47485 28.2141 9.54496L23.421 13.3399C23.3596 13.2873 23.2981 13.2435 23.2367 13.1997Z" fill="#FAAD54"/>
<path fill-rule="evenodd" clip-rule="evenodd" d="M23.4211 13.3486L28.2141 9.55371C28.2492 9.62382 28.2843 9.69394 28.3195 9.75529L23.6054 13.4889C23.5439 13.4363 23.4825 13.3924 23.4211 13.3399V13.3486Z" fill="#FAAD54"/>
<path fill-rule="evenodd" clip-rule="evenodd" d="M23.6054 13.4889L28.3195 9.75537C28.3546 9.82549 28.3897 9.8956 28.4248 9.96571L23.781 13.6379C23.7195 13.5853 23.6581 13.5415 23.5966 13.4889H23.6054Z" fill="#F7AF56"/>
<path fill-rule="evenodd" clip-rule="evenodd" d="M23.7898 13.6379L28.4336 9.9657C28.4687 10.0358 28.5038 10.1059 28.5389 10.176L23.9653 13.7957C23.9039 13.7431 23.8512 13.6905 23.7898 13.6467V13.6379Z" fill="#F7AF56"/>
<path fill-rule="evenodd" clip-rule="evenodd" d="M23.9653 13.787L28.5389 10.1674C28.574 10.2375 28.6092 10.3076 28.6443 10.3777L24.1497 13.936C24.0882 13.8834 24.0356 13.8308 23.9741 13.787H23.9653Z" fill="#F7AF59"/>
<path fill-rule="evenodd" clip-rule="evenodd" d="M24.1409 13.9448L28.6355 10.3865C28.6706 10.4566 28.7057 10.5267 28.7408 10.5968L24.3165 14.1025C24.255 14.0499 24.2023 13.9973 24.1409 13.9448Z" fill="#F7AF5B"/>
<path fill-rule="evenodd" clip-rule="evenodd" d="M24.3165 14.0937L28.7408 10.588C28.7759 10.6581 28.8111 10.7282 28.8374 10.7984L24.4832 14.2515C24.4306 14.1989 24.3691 14.1463 24.3077 14.0937H24.3165Z" fill="#FAB15B"/>
<path fill-rule="evenodd" clip-rule="evenodd" d="M24.492 14.2515L28.8462 10.7983C28.8813 10.8685 28.9164 10.9386 28.9515 11.0087L24.6588 14.4004C24.6062 14.3479 24.5447 14.2953 24.492 14.2427V14.2515Z" fill="#FAB15B"/>
<path fill-rule="evenodd" clip-rule="evenodd" d="M24.6588 14.4092L28.9515 11.0175C28.9866 11.0876 29.013 11.1577 29.0481 11.2278L24.8256 14.567C24.7729 14.5144 24.7115 14.4618 24.6588 14.4092Z" fill="#FBB460"/>
<path fill-rule="evenodd" clip-rule="evenodd" d="M24.8256 14.5757L29.0481 11.2366C29.0832 11.3067 29.1095 11.3768 29.1446 11.4557L24.9924 14.7423C24.9397 14.6897 24.8871 14.6371 24.8256 14.5845V14.5757Z" fill="#FBB460"/>
<path fill-rule="evenodd" clip-rule="evenodd" d="M24.9924 14.7335L29.1446 11.4469C29.1798 11.517 29.2061 11.5871 29.2412 11.666L25.1592 14.9C25.1065 14.8474 25.0539 14.7861 25.0012 14.7335H24.9924Z" fill="#FBB460"/>
<path fill-rule="evenodd" clip-rule="evenodd" d="M25.1504 14.9001L29.2324 11.6661C29.2676 11.7363 29.2939 11.8151 29.3202 11.8852L25.2997 15.0667C25.247 15.0141 25.1943 14.9527 25.1417 14.9001H25.1504Z" fill="#FBB461"/>
<path fill-rule="evenodd" clip-rule="evenodd" d="M25.3084 15.0579L29.329 11.8765C29.3641 11.9466 29.3904 12.0255 29.4256 12.0956L25.4752 15.2244C25.4226 15.1718 25.3699 15.1105 25.3172 15.0579H25.3084Z" fill="#FBB464"/>
<path fill-rule="evenodd" clip-rule="evenodd" d="M25.4665 15.2332L29.4168 12.1044C29.4519 12.1745 29.4782 12.2534 29.5046 12.3235L25.6157 15.3997C25.563 15.3384 25.5103 15.2858 25.4577 15.2332H25.4665Z" fill="#FBB664"/>
<path fill-rule="evenodd" clip-rule="evenodd" d="M25.6245 15.3997L29.5134 12.3235C29.5485 12.3936 29.5748 12.4725 29.6011 12.5426L25.7825 15.5663C25.7298 15.5049 25.6772 15.4523 25.6333 15.391L25.6245 15.3997Z" fill="#FBB664"/>
<path fill-rule="evenodd" clip-rule="evenodd" d="M25.7737 15.5663L29.5923 12.5426C29.6187 12.6215 29.6538 12.6916 29.6801 12.7617L25.9229 15.7328C25.8702 15.6714 25.8176 15.6189 25.7737 15.5575V15.5663Z" fill="#F8B766"/>
<path fill-rule="evenodd" clip-rule="evenodd" d="M25.9317 15.7416L29.6889 12.7705C29.7153 12.8494 29.7416 12.9195 29.7767 12.9984L26.081 15.9256C26.0283 15.8643 25.9844 15.8117 25.9317 15.7503V15.7416Z" fill="#FBB868"/>
<path fill-rule="evenodd" clip-rule="evenodd" d="M26.0721 15.9169L29.7679 12.9896C29.7942 13.0685 29.8206 13.1386 29.8469 13.2175L26.2214 16.0922C26.1687 16.0308 26.1248 15.9782 26.0721 15.9169Z" fill="#FBB868"/>
<path fill-rule="evenodd" clip-rule="evenodd" d="M26.2214 16.0922L29.8469 13.2175C29.8733 13.2964 29.8996 13.3665 29.9259 13.4454L26.3619 16.2675C26.318 16.2061 26.2653 16.1448 26.2214 16.0922Z" fill="#FBB86B"/>
<path fill-rule="evenodd" clip-rule="evenodd" d="M26.3706 16.2675L29.9347 13.4454C29.961 13.5243 29.9874 13.5944 30.0137 13.6733L26.5111 16.4428C26.4672 16.3815 26.4145 16.3201 26.3706 16.2675Z" fill="#FBB86C"/>
<path fill-rule="evenodd" clip-rule="evenodd" d="M26.5111 16.4516L30.0137 13.6821C30.0401 13.761 30.0664 13.8311 30.0927 13.91L26.6516 16.6357C26.6077 16.5743 26.555 16.513 26.5111 16.4516Z" fill="#FBBA6D"/>
<path fill-rule="evenodd" clip-rule="evenodd" d="M26.6516 16.6269L30.0927 13.9012C30.1191 13.9801 30.1454 14.059 30.1717 14.1379L26.792 16.811C26.7481 16.7496 26.7042 16.6883 26.6516 16.6269Z" fill="#FCBC6D"/>
<path fill-rule="evenodd" clip-rule="evenodd" d="M26.792 16.8109L30.1717 14.1378C30.1981 14.2167 30.2244 14.2956 30.242 14.3745L26.9325 16.995C26.8886 16.9336 26.8447 16.8723 26.792 16.8109Z" fill="#FCBC6F"/>
<path fill-rule="evenodd" clip-rule="evenodd" d="M26.9237 16.995L30.2332 14.3745C30.2595 14.4534 30.2771 14.5323 30.3034 14.6111L27.0554 17.1878C27.0115 17.1265 26.9676 17.0651 26.9237 17.0038V16.995Z" fill="#FCBC6F"/>
<path fill-rule="evenodd" clip-rule="evenodd" d="M27.0554 17.179L30.3034 14.6023C30.3297 14.6812 30.3473 14.7601 30.3736 14.8389L27.187 17.363C27.1431 17.3017 27.0993 17.2403 27.0554 17.179Z" fill="#FBBC71"/>
<path fill-rule="evenodd" clip-rule="evenodd" d="M27.1958 17.372L30.3824 14.8479C30.4087 14.9268 30.4263 15.0057 30.4526 15.0845L27.3275 17.5561C27.2836 17.4947 27.2397 17.4334 27.1958 17.372Z" fill="#FBBC73"/>
<path fill-rule="evenodd" clip-rule="evenodd" d="M27.3187 17.556L30.4439 15.0845C30.4702 15.1634 30.4878 15.2422 30.5053 15.3211L27.4416 17.7488C27.3977 17.6875 27.3538 17.6173 27.3099 17.556H27.3187Z" fill="#FBBC74"/>
<path fill-rule="evenodd" clip-rule="evenodd" d="M27.4504 17.7489L30.5141 15.3212C30.5317 15.4 30.558 15.4789 30.5756 15.5578L27.5733 17.9329C27.5294 17.8716 27.4855 17.8014 27.4504 17.7401V17.7489Z" fill="#FCBE77"/>
<path fill-rule="evenodd" clip-rule="evenodd" d="M27.5733 17.9416L30.5755 15.5665C30.5931 15.6454 30.6194 15.733 30.637 15.8119L27.6962 18.1345C27.6523 18.0731 27.6172 18.003 27.5733 17.9416Z" fill="#FCC077"/>
<path fill-rule="evenodd" clip-rule="evenodd" d="M27.6962 18.1344L30.637 15.8119C30.6546 15.8908 30.6809 15.9784 30.6984 16.0573L27.8279 18.336C27.784 18.2659 27.7489 18.2045 27.705 18.1432L27.6962 18.1344Z" fill="#FCC079"/>
<path fill-rule="evenodd" clip-rule="evenodd" d="M27.8191 18.3273L30.6897 16.0486C30.7072 16.1275 30.7248 16.2151 30.7511 16.294L27.942 18.5201C27.9069 18.45 27.863 18.3886 27.8191 18.3273Z" fill="#FCC07B"/>
<path fill-rule="evenodd" clip-rule="evenodd" d="M27.942 18.529L30.7511 16.3029C30.7687 16.3817 30.7862 16.4694 30.8038 16.5483L28.0561 18.7218C28.021 18.6517 27.9771 18.5903 27.942 18.5202V18.529Z" fill="#FCC07B"/>
<path fill-rule="evenodd" clip-rule="evenodd" d="M28.0561 18.7218L30.8038 16.5482C30.8214 16.6359 30.8389 16.7147 30.8565 16.8024L28.1702 18.9321C28.1351 18.862 28.0912 18.8006 28.0561 18.7305V18.7218Z" fill="#FCC07B"/>
<path fill-rule="evenodd" clip-rule="evenodd" d="M28.179 18.9233L30.8652 16.7936C30.8828 16.8812 30.9004 16.9601 30.9179 17.0477L28.2931 19.1249C28.258 19.0548 28.2141 18.9846 28.179 18.9233Z" fill="#FCC07D"/>
<path fill-rule="evenodd" clip-rule="evenodd" d="M28.2932 19.125L30.9179 17.0479C30.9355 17.1355 30.953 17.2144 30.9706 17.302L28.4161 19.3266C28.3809 19.2564 28.337 19.1951 28.3019 19.125H28.2932Z" fill="#FCC37F"/>
<path fill-rule="evenodd" clip-rule="evenodd" d="M28.4073 19.3265L30.9618 17.302C30.9794 17.3896 30.9881 17.4773 31.0057 17.5562L28.5126 19.5281C28.4775 19.458 28.4424 19.3879 28.4073 19.3265Z" fill="#FCC480"/>
<path fill-rule="evenodd" clip-rule="evenodd" d="M28.5126 19.5369L31.0057 17.5649C31.0232 17.6526 31.032 17.7402 31.0496 17.8191L28.6267 19.7385C28.5916 19.6684 28.5565 19.5982 28.5214 19.5281L28.5126 19.5369Z" fill="#FCC480"/>
<path fill-rule="evenodd" clip-rule="evenodd" d="M28.6267 19.7386L31.0496 17.8192C31.0671 17.9069 31.0759 17.9945 31.0935 18.0821L28.7321 19.9489C28.6969 19.8788 28.6618 19.8087 28.6267 19.7386Z" fill="#FCC481"/>
<path fill-rule="evenodd" clip-rule="evenodd" d="M28.7321 19.9489L31.0935 18.0822C31.111 18.1698 31.1198 18.2574 31.1286 18.3451L28.8374 20.1593C28.8023 20.0892 28.7672 20.0191 28.7321 19.9489Z" fill="#FCC483"/>
<path fill-rule="evenodd" clip-rule="evenodd" d="M28.8374 20.1592L31.1286 18.345C31.1374 18.4326 31.1549 18.5203 31.1637 18.6079L28.934 20.3695C28.8988 20.2994 28.8637 20.2293 28.8286 20.1592H28.8374Z" fill="#FCC784"/>
<path fill-rule="evenodd" clip-rule="evenodd" d="M28.934 20.3695L31.1637 18.6079C31.1725 18.6956 31.1813 18.7832 31.1988 18.8708L29.0393 20.5799C29.0042 20.5098 28.9691 20.4396 28.934 20.3695Z" fill="#FCC784"/>
<path fill-rule="evenodd" clip-rule="evenodd" d="M29.0393 20.5799L31.1988 18.8708C31.2076 18.9585 31.2164 19.0461 31.2339 19.1425L29.1446 20.799C29.1095 20.7289 29.0832 20.6588 29.0481 20.5886L29.0393 20.5799Z" fill="#FCC785"/>
<path fill-rule="evenodd" clip-rule="evenodd" d="M29.1359 20.7902L31.2251 19.1338C31.2339 19.2214 31.2427 19.3178 31.2515 19.4055L29.2324 21.0006C29.1973 20.9305 29.171 20.8603 29.1359 20.7902Z" fill="#FCC787"/>
<path fill-rule="evenodd" clip-rule="evenodd" d="M29.2325 21.0095L31.2515 19.4144C31.2515 19.5021 31.2691 19.5985 31.2778 19.6861L29.329 21.2286C29.2939 21.1585 29.2676 21.0796 29.2325 21.0095Z" fill="#FCC787"/>
<path fill-rule="evenodd" clip-rule="evenodd" d="M29.329 21.2199L31.2778 19.6774C31.2778 19.7738 31.2954 19.8614 31.2954 19.9578L29.4256 21.439C29.3905 21.3689 29.3641 21.29 29.329 21.2199Z" fill="#FDC98A"/>
<path fill-rule="evenodd" clip-rule="evenodd" d="M29.4255 21.4389L31.2954 19.9578C31.2954 20.0542 31.3041 20.1418 31.3129 20.2382L29.5133 21.6668C29.487 21.5879 29.4519 21.5178 29.4167 21.4477L29.4255 21.4389Z" fill="#FDC98C"/>
<path fill-rule="evenodd" clip-rule="evenodd" d="M29.5134 21.6581L31.313 20.2295C31.313 20.3259 31.3217 20.4135 31.3305 20.5099L29.6099 21.8772C29.5836 21.8071 29.5485 21.7282 29.5221 21.6581H29.5134Z" fill="#FDC98C"/>
<path fill-rule="evenodd" clip-rule="evenodd" d="M29.6099 21.8859L31.3305 20.5187C31.3305 20.6151 31.3305 20.7115 31.3393 20.7991L29.6889 22.105C29.6626 22.0261 29.6275 21.956 29.6011 21.8859H29.6099Z" fill="#FDCB8C"/>
<path fill-rule="evenodd" clip-rule="evenodd" d="M29.6977 22.1052L31.348 20.7993C31.348 20.8957 31.348 20.9921 31.348 21.0885L29.7767 22.3331C29.7504 22.2629 29.724 22.1841 29.6889 22.114L29.6977 22.1052Z" fill="#FDCB8E"/>
<path fill-rule="evenodd" clip-rule="evenodd" d="M29.7767 22.3242L31.348 21.0797C31.348 21.1761 31.348 21.2725 31.348 21.3689L29.8557 22.5433C29.8294 22.4645 29.803 22.3943 29.7679 22.3155L29.7767 22.3242Z" fill="#FDCB8F"/>
<path fill-rule="evenodd" clip-rule="evenodd" d="M29.8645 22.5521L31.3568 21.3777C31.3568 21.4741 31.3568 21.5705 31.3568 21.6669L29.9523 22.78C29.9259 22.7011 29.8996 22.631 29.8645 22.5521Z" fill="#FDCB8F"/>
<path fill-rule="evenodd" clip-rule="evenodd" d="M29.9435 22.7799L31.348 21.6669C31.348 21.7633 31.348 21.8597 31.348 21.9649L30.0313 23.0078C30.0049 22.9289 29.9786 22.8588 29.9523 22.7799H29.9435Z" fill="#FDCD90"/>
<path fill-rule="evenodd" clip-rule="evenodd" d="M30.0313 23.0078L31.3481 21.9648C31.3481 22.0613 31.3481 22.1664 31.3481 22.2628L30.1103 23.2444C30.084 23.1655 30.0576 23.0867 30.0313 23.0166V23.0078Z" fill="#FDCD94"/>
<path fill-rule="evenodd" clip-rule="evenodd" d="M30.1103 23.2357L31.348 22.2542C31.348 22.3593 31.3393 22.4557 31.3305 22.5609L30.1893 23.4724C30.1629 23.3935 30.1366 23.3234 30.1103 23.2445V23.2357Z" fill="#FDCD94"/>
<path fill-rule="evenodd" clip-rule="evenodd" d="M30.1805 23.4725L31.3217 22.561C31.3217 22.6662 31.3217 22.7626 31.3129 22.8678L30.2507 23.7092C30.2244 23.6303 30.1981 23.5514 30.1805 23.4725Z" fill="#FDCF96"/>
<path fill-rule="evenodd" clip-rule="evenodd" d="M30.2595 23.7004L31.3217 22.859C31.3217 22.9642 31.3042 23.0694 31.2954 23.1658L30.3297 23.9282C30.3034 23.8494 30.2771 23.7705 30.2595 23.6916V23.7004Z" fill="#FDCF96"/>
<path fill-rule="evenodd" clip-rule="evenodd" d="M30.3297 23.9369L31.2954 23.1744C31.2954 23.2796 31.2778 23.3848 31.269 23.4812L30.4 24.1736C30.3736 24.0947 30.3561 24.0158 30.3297 23.9369Z" fill="#FDCF98"/>
<path fill-rule="evenodd" clip-rule="evenodd" d="M30.4 24.1736L31.269 23.4812C31.2602 23.5864 31.2515 23.6915 31.2339 23.7967L30.4614 24.4014C30.4351 24.3226 30.4175 24.2437 30.3912 24.1648L30.4 24.1736Z" fill="#FDCF9A"/>
<path fill-rule="evenodd" clip-rule="evenodd" d="M30.4702 24.4103L31.2427 23.8055C31.2339 23.9107 31.2252 24.0159 31.2076 24.1211L30.5404 24.6469C30.5141 24.568 30.4966 24.4892 30.4702 24.4103Z" fill="#FDCF9A"/>
<path fill-rule="evenodd" clip-rule="evenodd" d="M30.5404 24.6469L31.2076 24.1211C31.1988 24.2263 31.1812 24.3402 31.1637 24.4454L30.6106 24.8836C30.5843 24.8047 30.5667 24.7258 30.5492 24.6469H30.5404Z" fill="#FDCF9A"/>
<path fill-rule="evenodd" clip-rule="evenodd" d="M30.6107 24.8836L31.1628 24.4454C31.1453 24.5506 31.1365 24.6645 31.119 24.7697L30.672 25.129C30.6545 25.0502 30.6282 24.9713 30.6107 24.8836Z" fill="#FDD19D"/>
<path fill-rule="evenodd" clip-rule="evenodd" d="M30.6721 25.129L31.1191 24.7697C31.0577 25.1903 30.9788 25.611 30.8912 26.0405C30.8211 25.7337 30.7422 25.427 30.6633 25.129H30.6721Z" fill="#FDD39F"/>
<path fill-rule="evenodd" clip-rule="evenodd" d="M46.8333 21.7457H38.9415C37.9232 21.7457 36.782 22.6923 36.782 23.6302V39.6963H46.4646C49.3967 39.6963 52.952 37.882 52.952 34.2796V27.2676C52.952 24.3577 50.2394 21.7545 46.8333 21.7545V21.7457ZM49.1948 33.219C49.1948 35.9099 47.5005 37.3123 45.0952 37.3123H40.8025V24.0421H45.0952C47.4742 24.0421 49.1948 25.7601 49.1948 28.1354V33.219Z" fill="#2E3191"/>
<path fill-rule="evenodd" clip-rule="evenodd" d="M65.119 21.4478H60.3347C56.437 21.5266 54.4706 24.5242 54.4706 27.3027V33.4645C54.4706 36.988 56.6214 39.7489 60.44 39.7489H65.6545C68.7182 39.7489 71.1674 36.9003 71.1674 33.5434V27.3729C71.1674 24.086 68.4636 21.4565 65.119 21.4565V21.4478ZM67.1907 34.0342C67.1907 35.9537 65.435 37.5226 64.1446 37.5226H61.5198C60.2293 37.5226 58.5175 35.9537 58.5175 34.0342V27.1537C58.5175 25.2342 60.1942 23.7354 61.4847 23.7354H64.1094C65.3999 23.7354 67.1907 25.2342 67.1907 27.1537V34.0342Z" fill="#2E3191"/>
<path fill-rule="evenodd" clip-rule="evenodd" d="M99.8731 21.4477H95.2293C91.8495 21.5529 89.532 24.5242 89.532 27.3027V33.4645C89.532 36.988 91.6213 39.7489 95.3346 39.7489H100.409C102.63 39.7927 104.57 38.7935 105.439 37.8645V29.8358H98.1613V32.6143H101.892V36.3131C101.12 37.286 99.3025 37.5402 98.9338 37.5226H96.3793C95.1239 37.5226 93.456 35.9537 93.456 34.0342V27.1537C93.456 25.2342 95.0888 23.7354 96.3441 23.7354H98.8987C100.154 23.7354 101.901 25.2342 101.901 27.1537V27.9338H105.447V27.3641C105.57 24.0422 103.376 21.4127 99.8907 21.4477H99.8731Z" fill="#2E3191"/>
<path fill-rule="evenodd" clip-rule="evenodd" d="M85.055 33.8414L77.2509 21.7283H75.504H74.6788H74.6437H74.6349C73.5288 21.7546 72.6246 22.6661 72.6246 23.7793V39.7402H75.504V26.4876L84.0279 39.7402H88.1274V21.7458H85.0637V33.8502L85.055 33.8414Z" fill="#2E3191"/>
<path fill-rule="evenodd" clip-rule="evenodd" d="M118.949 17.5911C118.071 17.5911 117.184 17.5736 116.306 17.5736C114.797 17.6087 113.752 18.7656 113.392 19.7824C111.039 26.3999 108.687 33.0087 106.334 39.6262H109.74C110.521 37.2509 111.303 34.8844 112.084 32.5091H120.467C121.275 34.8668 122.083 37.2334 122.899 39.5911H127.201C124.453 32.2549 121.705 24.9274 118.958 17.5911H118.949ZM116.236 29.9672H112.9L114.568 25.5146L116.236 21.0621L117.904 25.5146L119.572 29.9672H116.236Z" fill="#2E3191"/>
<path fill-rule="evenodd" clip-rule="evenodd" d="M123.057 15.3912C121.837 15.3912 120.854 16.3816 120.854 17.5911C120.854 18.8005 121.846 19.7909 123.057 19.7909C124.269 19.7909 125.261 18.8005 125.261 17.5911C125.261 16.3816 124.269 15.3912 123.057 15.3912ZM124.216 18.9408L123.32 17.8102C123.487 17.7488 123.61 17.6524 123.707 17.5209C123.803 17.3895 123.847 17.2317 123.847 17.0301C123.847 16.8899 123.821 16.776 123.768 16.6796C123.715 16.5832 123.645 16.5131 123.557 16.4517C123.47 16.3904 123.373 16.3553 123.277 16.3378C123.18 16.3202 123.057 16.3115 122.908 16.3115H122.249V18.9758H122.592V17.9153H122.987L123.795 18.9758H124.19C123.882 19.23 123.496 19.3877 123.066 19.3877C122.083 19.3877 121.284 18.5902 121.284 17.6086C121.284 16.627 122.083 15.8294 123.066 15.8294C124.049 15.8294 124.848 16.627 124.848 17.6086C124.848 18.152 124.602 18.6252 124.225 18.9583L124.216 18.9408ZM123.154 17.5823C123.075 17.5998 122.987 17.6086 122.89 17.6086H122.592V16.6007H122.925C123.022 16.6007 123.101 16.6007 123.162 16.6182C123.224 16.6358 123.285 16.6533 123.329 16.6883C123.382 16.7234 123.426 16.776 123.452 16.8373C123.478 16.8987 123.487 16.9688 123.487 17.0477C123.487 17.1441 123.478 17.223 123.452 17.2931C123.426 17.3632 123.391 17.4245 123.347 17.4684C123.294 17.5209 123.224 17.5648 123.145 17.5823H123.154Z" fill="#231F20"/>
<path fill-rule="evenodd" clip-rule="evenodd" d="M190.88 30.7912C190.88 30.7912 193.162 28.0916 194.242 27.0135C195.322 25.9354 198.026 25.69 198.026 25.69V25.0326H191.24L191.363 25.9354C193.347 26.1721 192.32 27.2589 192.32 27.2589C192.32 27.2589 189.739 30.3792 189.133 30.9139C188.764 31.247 188.062 31.4398 187.57 31.5362V17.5912C187.333 17.7753 182.883 18.9147 182.883 18.9147L183.067 19.7561C185.051 19.7561 185.051 20.8956 185.051 20.8956V37.0932C185.051 38.9513 182.891 38.7147 182.891 38.7147V39.6175H189.984V38.8374C187.939 38.6007 187.579 37.3386 187.579 37.3386V32.4828H188.843L194.795 39.5649H199V38.7848C196.656 38.4868 190.889 30.8087 190.889 30.8087L190.88 30.7912Z" fill="black"/>
<path fill-rule="evenodd" clip-rule="evenodd" d="M180.135 37.4V36.2869H180.117V29.7132C180.117 27.0749 178.493 24.8574 175.974 24.6733C173.999 24.5331 171.339 26.514 170.268 27.3905V24.7347C170.031 24.9188 165.58 26.0582 165.58 26.0582L165.765 26.8996C167.749 26.8996 167.749 28.0391 167.749 28.0391V37.0407C167.749 38.8988 165.589 38.6622 165.589 38.6622V39.565H172.682V38.7849C170.637 38.5482 170.277 37.2861 170.277 37.2861V28.3458C171.128 27.6972 172.612 26.7769 174.359 26.549C177.124 26.1897 177.3 29.7921 177.3 29.7921V36.4972V37.4526C177.3 37.4526 176.931 38.7323 175.149 38.7323V39.6351H182.005V38.7498C182.005 38.7498 180.135 38.5395 180.135 37.4263V37.4Z" fill="black"/>
<path fill-rule="evenodd" clip-rule="evenodd" d="M162.701 36.1291V29.4677C162.701 25.9618 160.945 24.8311 158.645 24.6996C156.345 24.5681 152.693 27.5833 152.693 27.5833C152.509 27.7323 152.079 28.451 152.825 29.2924C153.475 30.0112 154.712 29.2661 154.765 28.5299C154.791 28.0653 155.099 26.2335 157.241 26.2335C160.576 26.2335 160.173 30.5546 160.173 30.5546C160.173 30.5546 158.013 31.7729 155.941 32.3076C153.87 32.851 152.333 33.8414 152.114 35.8136C151.886 37.7944 153.738 39.863 155.722 39.9944C157.706 40.1259 160.094 37.8821 160.094 37.8821C160.094 38.1976 161.446 39.9068 162.253 39.9944C163.061 40.0821 165.449 38.3291 165.449 38.3291L165.045 37.5227C162.701 38.5132 162.701 36.1291 162.701 36.1291ZM160.085 36.7602C160.085 36.7602 154.827 39.9418 154.827 35.5331C154.827 33.4032 160.085 31.7203 160.085 31.7203V36.7602Z" fill="black"/>
<path fill-rule="evenodd" clip-rule="evenodd" d="M148.471 29.3625C147.365 28.486 145.951 27.7585 144.363 27.7235C145.758 27.3641 146.338 27.0223 147.426 26.286C148.418 25.6111 149.103 24.235 149.103 22.6924C149.103 21.8597 148.901 21.0797 148.497 20.3522C148.093 19.6247 147.567 19.0199 146.908 18.5554C146.382 18.2135 145.802 17.9506 145.161 17.7753C144.521 17.6 143.836 17.5123 142.563 17.5123H132.652V18.6868C132.828 18.6956 133.082 18.7131 133.416 18.7307C134.057 18.7745 134.513 18.792 134.776 18.792C135.277 18.9761 135.523 19.4757 135.523 19.949V35.8398C135.523 36.1466 135.523 36.392 135.505 36.5848C135.496 36.7777 135.479 37.3824 135.461 37.584C135.294 38.031 135.049 38.2765 134.733 38.3115C134.241 38.4342 133.916 38.5044 133.749 38.5219C133.583 38.5394 133.381 38.5569 133.161 38.5569H132.371V39.4948H142.344C143.23 39.4948 144.09 39.4334 144.933 39.3107C145.161 39.2669 145.434 39.2231 145.767 39.1617C146.092 39.1004 146.399 39.004 146.68 38.8812C147.409 38.5569 147.9 38.3115 148.146 38.1538C148.541 37.882 148.927 37.5139 149.296 37.0318C149.674 36.5585 149.946 35.9888 150.13 35.349C150.306 34.7091 150.393 34.0693 150.393 33.4382C150.393 31.7466 149.753 30.3793 148.48 29.3625H148.471ZM138.56 20.8342C138.56 20.7115 138.56 20.545 138.578 20.3346C138.586 20.1243 138.604 19.9227 138.621 19.7474C138.736 19.4056 138.955 19.1426 139.297 18.9585C139.578 18.8972 139.842 18.8621 140.07 18.8534C140.307 18.8446 140.553 18.8358 140.816 18.8358C141.694 18.8358 142.423 18.8621 143.002 18.9235C143.573 18.9848 143.818 19.1338 144.266 19.3793C144.828 19.7036 145.24 20.1944 145.504 20.8781C145.767 21.553 145.899 22.2805 145.899 23.0693C145.899 23.9984 145.767 24.7522 145.504 25.3307C145.188 26.0143 144.679 26.5314 143.985 26.8733C143.52 27.0749 143.239 27.2064 142.624 27.2677C142.001 27.3291 141.22 27.3554 140.263 27.3554H138.578V20.8342H138.56ZM146.61 35.6645C146.347 36.3657 145.951 36.8916 145.425 37.2334C144.898 37.5753 144.284 37.7944 143.581 37.8733C142.879 37.9522 142.01 37.996 140.974 37.996H140.412C139.605 37.996 139.095 37.882 138.876 37.6454C138.657 37.4175 138.551 36.804 138.551 35.8223V28.8191C138.604 28.8191 138.937 28.8016 139.552 28.7577C140.158 28.7139 140.597 28.6964 140.86 28.6964C142.923 28.6964 144.38 28.9506 145.223 29.4589C146.408 30.1689 146.996 31.5362 146.996 33.5609C146.996 34.2709 146.864 34.9721 146.601 35.6733L146.61 35.6645Z" fill="black"/>
</g>
<defs>
<clipPath id="clip0_4_2077">
<rect width="199" height="40" fill="white"/>
</clipPath>
</defs>
</svg>
