<svg xmlns="http://www.w3.org/2000/svg" width="40" height="40" fill="none" viewBox="0 0 40 40"><g clip-path="url(#clip0_20_5969)"><path fill="#fff" d="M6.53528 33.3325H32.9854V6.62781H6.53528V33.3325Z"/><path fill="#F33" d="M32.1292 32.4994L22.5257 24.3769C22.5257 24.3769 21.2298 23.1042 19.7719 23.1042C18.2909 23.1042 16.995 24.3769 16.995 24.3769L7.39148 32.4994L7.36834 32.4763L15.4214 22.7802C15.4214 22.7802 16.6941 21.4612 16.6941 19.9802C16.6941 18.4991 15.4214 17.2033 15.4214 17.2033L7.36834 7.48405L7.39148 7.46091L16.995 15.6065C16.995 15.6065 18.2909 16.9024 19.7719 16.9024C21.2298 16.9024 22.5257 15.6065 22.5257 15.6065L32.1292 7.46091L32.1754 7.50718L24.0993 17.2033C24.0993 17.2033 22.8496 18.5223 22.8496 19.9802C22.8496 21.4612 24.0993 22.7802 24.0993 22.7802L32.1754 32.4763L32.1292 32.4994ZM36.6185 19.9802C36.6185 17.3421 36.7342 15.0049 38.6549 10.8626C39.2103 9.65929 40.4368 7.90059 38.6318 5.86418C37.1508 4.38316 35.4846 4.61457 34.3507 5.28566C34.9986 4.15175 35.2532 2.43932 33.7722 0.958294C31.7589 -0.869842 30.0002 0.379768 28.82 0.935151C24.7241 2.87899 22.41 2.9947 19.795 2.9947C17.1801 2.9947 14.8429 2.87899 10.7701 0.935151C9.58987 0.379768 7.83116 -0.869842 5.81789 0.958294C4.33687 2.46246 4.59142 4.15175 5.23937 5.28566C4.10546 4.61457 2.41617 4.38316 0.958293 5.86418C-0.869843 7.90059 0.37977 9.65929 0.935153 10.8626C2.87899 15.0049 2.9947 17.3652 2.9947 19.9802C2.9947 22.6182 2.87899 24.9786 0.935153 29.1208C0.37977 30.3242 -0.846702 32.0829 0.958293 34.1193C2.43931 35.6003 4.1286 35.3458 5.23937 34.6978C4.59142 35.8317 4.33687 37.5442 5.81789 39.0252C7.83116 40.8764 9.58987 39.6268 10.7701 39.0483C14.866 37.1045 17.1801 36.9888 19.795 36.9888C22.41 36.9888 24.7241 37.0813 28.82 39.0483C30.0002 39.6037 31.7589 40.8533 33.7722 39.0252C35.2532 37.5442 34.9986 35.8549 34.3507 34.6978C35.4846 35.3458 37.1508 35.6003 38.6318 34.1193C40.4599 32.0829 39.2103 30.301 38.6549 29.1208C36.7111 24.9786 36.6185 22.6182 36.6185 19.9802Z"/></g><defs><clipPath id="clip0_20_5969"><rect width="40" height="40" fill="#fff"/></clipPath></defs></svg>