<svg width="139" height="40" viewBox="0 0 139 40" fill="none" xmlns="http://www.w3.org/2000/svg">
<g clip-path="url(#clip0_20_5863)">
<path d="M7 34H33V7H7V34Z" fill="white"/>
<path d="M32.4618 32.4994L22.7589 24.3769C22.7589 24.3769 21.4496 23.1042 19.9766 23.1042C18.4803 23.1042 17.1709 24.3769 17.1709 24.3769L7.46801 32.4994L7.44463 32.4763L15.5811 22.7802C15.5811 22.7802 16.867 21.4612 16.867 19.9802C16.867 18.4991 15.5811 17.2033 15.5811 17.2033L7.44463 7.48405L7.46801 7.46091L17.1709 15.6065C17.1709 15.6065 18.4803 16.9024 19.9766 16.9024C21.4496 16.9024 22.7589 15.6065 22.7589 15.6065L32.4618 7.46091L32.5086 7.50718L24.3488 17.2033C24.3488 17.2033 23.0862 18.5223 23.0862 19.9802C23.0862 21.4612 24.3488 22.7802 24.3488 22.7802L32.5086 32.4763L32.4618 32.4994ZM36.9977 19.9802C36.9977 17.3421 37.1146 15.0049 39.0552 10.8626C39.6163 9.65929 40.8555 7.90059 39.0318 5.86418C37.5354 4.38316 35.852 4.61457 34.7064 5.28566C35.361 4.15175 35.6182 2.43932 34.1219 0.958294C32.0878 -0.869842 30.3108 0.379768 29.1184 0.935151C24.9801 2.87899 22.642 2.9947 20 2.9947C17.358 2.9947 14.9966 2.87899 10.8816 0.935151C9.68917 0.379768 7.91224 -0.869842 5.87814 0.958294C4.38178 2.46246 4.63897 4.15175 5.29362 5.28566C4.14797 4.61457 2.44119 4.38316 0.968216 5.86418C-0.878849 7.90059 0.383702 9.65929 0.944835 10.8626C2.9088 15.0049 3.02571 17.3652 3.02571 19.9802C3.02571 22.6182 2.9088 24.9786 0.944835 29.1208C0.383702 30.3242 -0.855469 32.0829 0.968216 34.1193C2.46457 35.6003 4.17135 35.3458 5.29362 34.6978C4.63897 35.8317 4.38178 37.5442 5.87814 39.0252C7.91224 40.8764 9.68917 39.6268 10.8816 39.0483C15.0199 37.1045 17.358 36.9888 20 36.9888C22.642 36.9888 24.9801 37.0813 29.1184 39.0483C30.3108 39.6037 32.0878 40.8533 34.1219 39.0252C35.6182 37.5442 35.361 35.8549 34.7064 34.6978C35.852 35.3458 37.5354 35.6003 39.0318 34.1193C40.8788 32.0829 39.6163 30.301 39.0552 29.1208C37.0912 24.9786 36.9977 22.6182 36.9977 19.9802Z" fill="#FF3333"/>
<path d="M68.1313 35.2659C71.4171 34.0998 75.4896 28.4984 74.8186 19.6734C74.1707 11.1455 70.908 4.44666 62.2308 3.8065C62.2308 3.8065 60.5879 3.69219 59.1995 3.69219C57.7186 3.69219 57.4177 3.6236 57.302 5.20114C57.1169 8.15045 57.0475 31.1048 57.2558 34.4199C57.2789 34.8772 57.3252 35.9746 59.2226 36.1575C62.6704 36.4776 65.5397 36.2032 68.1313 35.2659ZM64.7761 2.34327C72.1113 2.32041 81.7836 7.32739 81.7604 19.902C81.7373 30.8304 73.8236 37.5521 66.5347 37.5521H48L48.0231 37.1635C49.0644 36.9806 50.2445 36.3404 50.4296 35.6317C51.0544 33.0024 50.8924 8.92779 50.5222 4.97251C50.4065 3.73791 49.4346 2.93771 48.2314 2.73194L48.1851 2.36614C48.1851 2.34328 63.1101 2.36614 64.7761 2.34327ZM105.386 28.91C105.525 21.3423 99.9712 19.3304 94.2326 19.0332C94.1169 19.0332 94.1632 18.736 94.2557 18.736C96.13 18.6674 103.558 17.7986 103.257 10.7111C102.956 3.8065 97.7035 3.64646 95.7829 3.6236C94.2094 3.60074 93.8855 3.60073 93.2144 3.64646C92.1038 3.69218 91.8261 3.78364 91.8261 4.97251C91.8261 5.13255 91.5715 17.4099 91.4327 26.0521C91.3633 30.739 91.3401 34.3513 91.3401 34.3513C91.3633 35.2201 91.2707 36.0889 93.3764 36.1804C95.5747 36.2947 98.3977 36.3861 100.365 35.9517C102.193 35.5859 105.27 34.2599 105.386 28.91ZM103.118 18.7588C111.749 20.8851 112.281 27.1267 112.166 28.8642C111.772 36.6605 105.154 37.5521 102.47 37.5521H82.0844L82.1075 37.1635C83.5884 36.9577 84.6991 36.1575 84.6991 33.5511L84.8148 6.71009C84.838 3.8065 84.0744 2.91485 82.4777 2.70908L82.4315 2.34327H97.8423C100.665 2.34327 109.204 1.7717 109.921 9.59081C110.523 15.8552 103.627 18.4845 103.118 18.7588ZM136.369 2.45759H136.717L136.832 8.72202H136.439C135.814 6.16138 133.361 3.76078 128.433 3.50928C122.602 3.21207 120.079 6.66436 120.056 9.95662C120.033 14.3234 123.435 15.2151 128.479 16.4497C130.862 17.0213 139.655 18.1873 138.961 28.064C138.475 34.9686 132.505 38.238 124.059 37.9865C124.059 37.9865 120.542 37.8722 115.637 36.5233C114.734 36.2718 114.48 36.569 114.132 37.2321L113.739 37.2549L113.762 30.4875L114.156 30.5104C114.341 31.1963 114.41 32.4766 115.637 33.5511C116.539 34.3513 118.668 36.3175 123.342 36.3633C127.924 36.4319 131.718 34.4885 132.228 29.3672C132.366 27.9954 132.228 24.8175 129.127 23.3771C126.697 22.2569 119.987 21.5024 116.747 18.6674C116.747 18.6674 112.883 15.9924 113.485 10.9626C114.341 3.87509 120.264 2.11465 125.586 2.00033C125.586 2.00033 130.353 1.95461 134.148 2.93771C134.148 2.93771 135.074 3.1892 135.837 2.89199C136.115 2.77767 136.277 2.5719 136.369 2.45759Z" fill="black"/>
</g>
<defs>
<clipPath id="clip0_20_5863">
<rect width="139" height="40" fill="white"/>
</clipPath>
</defs>
</svg>
