<svg xmlns="http://www.w3.org/2000/svg" width="240" height="80" fill="none" viewBox="0 0 240 80"><path fill="#005D98" d="M52.4543 46.5524C52.542 46.6298 52.6187 46.7183 52.6953 46.8067L53.0897 47.2048L52.4543 46.5524Z"/><path fill="#005D98" d="M158.595 39.5743H164.576V45.3692L169.735 39.5743H177.961L171.641 46.7626L178.235 59.1596H170.896L167.084 51.7834L164.576 54.6918V59.1596H158.595V39.5743Z"/><path fill="#005D98" d="M135.702 39.5743H141.124L149.865 50.5226V39.5743H155.681V59.1596H149.865L141.518 48.7643L141.529 59.1596H135.702V39.5743Z"/><path fill="#005D98" d="M28.9916 44.4843H37.5136V39.5631H23V59.1373H37.5136V54.2714H28.9916V51.8053H36.0677V46.8952H28.9916V46.8509V44.4843Z"/><path fill="#005D98" d="M95.3159 39.5743H106.5C108.362 39.5743 109.797 40.0388 110.793 40.9788C111.79 41.9078 112.294 43.0689 112.294 44.4513C112.294 45.6014 111.933 46.5967 111.221 47.4262C110.739 47.9791 110.049 48.4104 109.139 48.7311C110.531 49.0629 111.549 49.649 112.206 50.4784C112.864 51.2968 113.192 52.3363 113.192 53.5749C113.192 54.5923 112.962 55.4991 112.491 56.3175C112.031 57.1248 111.385 57.7662 110.574 58.2307C110.07 58.5293 109.315 58.7726 108.307 58.9053C106.96 59.0822 106.072 59.1707 105.634 59.1707H95.3159V39.5854V39.5743ZM101.34 47.2492H103.936C104.867 47.2492 105.514 47.0833 105.886 46.7626C106.248 46.4419 106.434 45.9664 106.434 45.3581C106.434 44.7831 106.259 44.3407 105.886 44.02C105.525 43.6993 104.889 43.5445 103.98 43.5445H101.34V47.2492ZM101.34 54.9351H104.386C105.415 54.9351 106.138 54.7471 106.565 54.3822C106.993 54.0172 107.201 53.5196 107.201 52.9003C107.201 52.3252 106.993 51.8608 106.576 51.5069C106.16 51.153 105.426 50.9761 104.386 50.9761H101.351V54.9351H101.34Z"/><path fill="#005D98" d="M127.027 55.8971H120.235L119.283 59.1595H113.192L120.466 39.5963H126.983L134.256 59.1595H128.013L127.038 55.8971H127.027ZM125.789 51.6726L123.653 44.6392L121.539 51.6726H125.789Z"/><path fill="#005D98" d="M67.7566 39.5743H61.7649V59.1596H67.7566V39.5743Z"/><path fill="#005D98" d="M92.3913 39.5743H86.4106H84.5595L81.5472 49.3836L78.5131 39.5743H76.6619H70.6703H70.6593V59.1596H70.6703H75.5556H76.6619V49.3062L79.3127 59.1596H83.7489L86.4106 49.3062V59.1596H87.517H92.3913H92.4132V39.5743H92.3913Z"/><path fill="#005D98" d="M60.2424 55.6871C60.2424 55.6871 60.2424 55.6761 60.2424 55.665L60.2205 55.6429C60.2205 55.6429 60.2095 55.6429 60.1986 55.6429L56.3758 51.7833C55.8829 51.1862 55.4995 50.2572 55.4995 49.2951C55.4995 48.2998 55.9048 47.2713 56.6058 46.5525L60.1986 42.9252C60.1986 42.9252 60.2095 42.9141 60.2205 42.9031C60.2424 42.8699 60.2643 42.8256 60.2643 42.7814C60.2643 42.7372 60.2424 42.6929 60.2205 42.6598L60.1986 42.6376L56.2334 38.6343C56.2334 38.6343 56.1567 38.5901 56.1129 38.5901C56.0691 38.5901 56.0253 38.6122 55.9814 38.6454L52.4215 42.2395L50.1103 44.5619C51.0852 45.5461 51.7643 46.2207 51.7643 46.2207C52.8706 47.4593 53.0459 48.2445 53.0459 49.3393C53.0459 50.7217 52.4872 51.6064 51.5124 52.5906L50.0993 54.0172C52.4215 56.3617 55.9705 59.9448 55.9705 59.9448C56.0033 59.978 56.0472 59.989 56.091 59.989C56.1348 59.989 56.1786 59.9669 56.2115 59.9448C56.2115 59.9448 59.4647 56.6603 60.1876 55.9304C60.1876 55.9304 60.2095 55.9083 60.2205 55.8972C60.2424 55.8641 60.2643 55.8309 60.2643 55.7756C60.2643 55.7314 60.2534 55.6982 60.2315 55.665"/><mask id="mask0_13_12808" width="9" height="15" x="39" y="38" maskUnits="userSpaceOnUse" style="mask-type:luminance"><path fill="#fff" d="M43.0671 38.6785C43.0671 38.6785 39.8029 41.963 39.091 42.6928L39.0691 42.715C39.0471 42.7481 39.0252 42.7924 39.0252 42.8366C39.0252 42.8808 39.0362 42.914 39.0581 42.9361C39.0581 42.9361 39.0581 42.9472 39.0691 42.9583L39.091 42.9804C39.091 42.9804 39.091 42.9804 39.1129 42.9804L42.9357 46.8399C43.4286 47.426 43.812 48.366 43.812 49.3282C43.812 50.3235 43.4067 51.3519 42.7057 52.0708C42.7057 52.0708 49.0259 47.1164 46.4956 41.8745C45.9151 41.2884 43.33 38.6785 43.3191 38.6674C43.2862 38.6453 43.2424 38.6232 43.1986 38.6232C43.1548 38.6232 43.1109 38.6453 43.0781 38.6674"/></mask><g mask="url(#mask0_13_12808)"><path fill="url(#paint0_linear_13_12808)" d="M40.5515 34.9481L34.1573 49.9523L47.4188 55.7129L53.813 40.7088L40.5515 34.9481Z"/></g><path fill="#005D98" d="M51.118 46.5634C51.118 46.5634 47.8429 43.2568 46.4517 41.8523C48.6753 46.8841 43.3738 51.3298 42.6618 52.0486L39.069 55.6759C39.069 55.6759 39.058 55.687 39.0471 55.698C39.0142 55.7312 39.0033 55.7754 39.0033 55.8197C39.0033 55.8639 39.0252 55.9081 39.0471 55.9413L39.069 55.9634L43.0342 59.9557C43.0342 59.9557 43.1109 59.9999 43.1547 59.9999C43.1985 59.9999 43.2423 59.9778 43.2752 59.9446L46.8351 56.3505L50.8989 52.2476C51.7752 51.374 52.2681 50.5667 52.2681 49.3392C52.2681 48.3549 52.1148 47.6582 51.129 46.5523"/><mask id="mask1_13_12808" width="3" height="30" x="201" y="20" maskUnits="userSpaceOnUse" style="mask-type:luminance"><path fill="#fff" d="M201.599 49.2619H203.308V20.0775H201.599V49.273V49.2619Z"/></mask><g mask="url(#mask1_13_12808)"><path fill="url(#paint1_linear_13_12808)" d="M203.308 20.0664H201.599V49.2619H203.308V20.0664Z"/></g><mask id="mask2_13_12808" width="16" height="16" x="201" y="20" maskUnits="userSpaceOnUse" style="mask-type:luminance"><path fill="#fff" d="M201.665 20H201.599V23.0301C201.95 21.6257 203.319 21.8026 203.319 21.8026C209.091 22.1897 213.812 26.4252 214.974 31.9989C214.974 31.9989 215.05 32.4191 215.05 32.6403C215.05 33.9231 214.108 35.0401 212.881 35.2391C216.639 35.1064 216.792 32.5076 216.759 32.021C215.565 25.441 210.023 20.4092 203.253 20.0442L202.454 20.0111H201.654L201.665 20Z"/></mask><g mask="url(#mask2_13_12808)"><path fill="url(#paint2_linear_13_12808)" d="M207.391 12.5644L194.291 29.4434L211.027 42.6823L224.126 25.8033L207.391 12.5644Z"/></g><mask id="mask3_13_12808" width="13" height="19" x="204" y="31" maskUnits="userSpaceOnUse" style="mask-type:luminance"><path fill="#fff" d="M212.597 35.1507H204.272V49.1734C211.271 48.2997 216.726 42.3943 216.989 35.1617C216.989 34.9737 217 34.7968 217 34.6199C217 33.702 216.912 32.8173 216.759 31.9436C216.759 31.9436 216.869 35.1507 212.597 35.1507Z"/></mask><g mask="url(#mask3_13_12808)"><path fill="url(#paint3_linear_13_12808)" d="M209.35 25.6363L195.896 42.2722L211.899 55.463L225.352 38.8271L209.35 25.6363Z"/></g><g style="mix-blend-mode:overlay"><mask id="mask4_13_12808" width="13" height="19" x="204" y="31" maskUnits="userSpaceOnUse" style="mask-type:luminance"><path fill="#fff" d="M216.989 31.9436H204.261V49.1734H216.989V31.9436Z"/></mask><g mask="url(#mask4_13_12808)"><mask id="mask5_13_12808" width="13" height="19" x="204" y="31" maskUnits="userSpaceOnUse" style="mask-type:luminance"><path fill="#fff" d="M204.261 49.1734C211.26 48.2997 216.715 42.3943 216.978 35.1617C216.978 34.9737 216.989 34.7968 216.989 34.6199C216.989 33.702 216.901 32.8173 216.748 31.9436C216.748 31.9436 216.858 35.1507 212.586 35.1507H204.261V49.1734Z"/></mask><g mask="url(#mask5_13_12808)"><path fill="url(#paint4_radial_13_12808)" d="M216.989 31.9436H204.261V49.1734H216.989V31.9436Z"/></g></g></g><mask id="mask6_13_12808" width="16" height="16" x="188" y="34" maskUnits="userSpaceOnUse" style="mask-type:luminance"><path fill="#fff" d="M188.159 37.3404C189.353 43.9204 194.896 48.9522 201.665 49.3172L202.464 49.3504H203.319V46.3202C202.968 47.7247 201.599 47.5478 201.599 47.5478C195.827 47.1607 191.106 42.9251 189.944 37.3515C189.944 37.3515 189.868 36.9312 189.868 36.71C189.868 35.4272 190.81 34.3103 192.037 34.1112C188.28 34.2439 188.137 36.8428 188.159 37.3293"/></mask><g mask="url(#mask6_13_12808)"><path fill="url(#paint5_linear_13_12808)" d="M193.913 26.6843L180.814 43.5634L197.549 56.8023L210.649 39.9233L193.913 26.6843Z"/></g><mask id="mask7_13_12808" width="14" height="18" x="187" y="20" maskUnits="userSpaceOnUse" style="mask-type:luminance"><path fill="#fff" d="M187.929 34.1885C187.929 34.3765 187.918 34.5534 187.918 34.7304C187.918 35.6483 188.006 36.533 188.159 37.4066C188.159 37.4066 188.049 34.1996 192.321 34.1996H200.646V20.1769C193.647 21.0505 188.192 26.956 187.929 34.1885Z"/></mask><g mask="url(#mask7_13_12808)"><path fill="url(#paint6_linear_13_12808)" d="M193.015 13.886L179.559 30.5195L195.559 43.7131L209.015 27.0796L193.015 13.886Z"/></g><g style="mix-blend-mode:overlay"><mask id="mask8_13_12808" width="14" height="18" x="187" y="20" maskUnits="userSpaceOnUse" style="mask-type:luminance"><path fill="#fff" d="M200.646 20.1769H187.918V37.4066H200.646V20.1769Z"/></mask><g mask="url(#mask8_13_12808)"><mask id="mask9_13_12808" width="14" height="18" x="187" y="20" maskUnits="userSpaceOnUse" style="mask-type:luminance"><path fill="#fff" d="M200.646 20.1769C193.647 21.0505 188.192 26.956 187.929 34.1885C187.929 34.3765 187.918 34.5534 187.918 34.7304C187.918 35.6483 188.006 36.533 188.159 37.4066C188.159 37.4066 188.049 34.1996 192.321 34.1996H200.646V20.1769Z"/></mask><g mask="url(#mask9_13_12808)"><path fill="url(#paint7_radial_13_12808)" d="M200.646 20.1769H187.918V37.4066H200.646V20.1769Z"/></g></g></g><defs><linearGradient id="paint0_linear_13_12808" x1="47.862" x2="41.536" y1="47.778" y2="45.082" gradientUnits="userSpaceOnUse"><stop stop-color="#153A63"/><stop offset=".35" stop-color="#153A63"/><stop offset="1" stop-color="#005D98"/></linearGradient><linearGradient id="paint1_linear_13_12808" x1="203.197" x2="203.197" y1="49.014" y2="19.297" gradientUnits="userSpaceOnUse"><stop stop-color="#153A63"/><stop offset=".1" stop-color="#153A63"/><stop offset=".35" stop-color="#23A8E0"/><stop offset=".5" stop-color="#61CAF4"/><stop offset=".65" stop-color="#109CD8"/><stop offset=".9" stop-color="#153A63"/><stop offset="1" stop-color="#153A63"/></linearGradient><linearGradient id="paint2_linear_13_12808" x1="201.116" x2="216.321" y1="19.887" y2="31.686" gradientUnits="userSpaceOnUse"><stop stop-color="#005D98"/><stop offset=".35" stop-color="#23A8E0"/><stop offset=".53" stop-color="#61CAF4"/><stop offset=".62" stop-color="#3EB6E8"/><stop offset=".71" stop-color="#24A7DF"/><stop offset=".79" stop-color="#159FD9"/><stop offset=".85" stop-color="#109CD8"/><stop offset=".87" stop-color="#1095D0"/><stop offset=".91" stop-color="#1185BC"/><stop offset=".94" stop-color="#12699C"/><stop offset=".99" stop-color="#14446F"/><stop offset="1" stop-color="#153A63"/></linearGradient><linearGradient id="paint3_linear_13_12808" x1="214.059" x2="203.879" y1="35.586" y2="47.935" gradientUnits="userSpaceOnUse"><stop stop-color="#19BAED"/><stop offset=".41" stop-color="#0C8DC9"/><stop offset=".79" stop-color="#036BAD"/><stop offset="1" stop-color="#005EA3"/></linearGradient><radialGradient id="paint4_radial_13_12808" cx="0" cy="0" r="1" gradientTransform="translate(203.034 35.3453) scale(14.4733 14.621)" gradientUnits="userSpaceOnUse"><stop stop-color="#fff"/><stop offset=".85" stop-color="#fff"/><stop offset="1" stop-color="#fff"/></radialGradient><linearGradient id="paint5_linear_13_12808" x1="204.012" x2="188.807" y1="49.353" y2="37.553" gradientUnits="userSpaceOnUse"><stop stop-color="#005D98"/><stop offset=".35" stop-color="#23A8E0"/><stop offset=".53" stop-color="#61CAF4"/><stop offset=".62" stop-color="#3EB6E8"/><stop offset=".71" stop-color="#24A7DF"/><stop offset=".79" stop-color="#159FD9"/><stop offset=".85" stop-color="#109CD8"/><stop offset=".87" stop-color="#1095D0"/><stop offset=".91" stop-color="#1185BC"/><stop offset=".94" stop-color="#12699C"/><stop offset=".99" stop-color="#14446F"/><stop offset="1" stop-color="#153A63"/></linearGradient><linearGradient id="paint6_linear_13_12808" x1="190.928" x2="201.11" y1="33.24" y2="20.893" gradientUnits="userSpaceOnUse"><stop stop-color="#19BAED"/><stop offset=".41" stop-color="#0C8DC9"/><stop offset=".79" stop-color="#036BAD"/><stop offset="1" stop-color="#005EA3"/></linearGradient><radialGradient id="paint7_radial_13_12808" cx="0" cy="0" r="1" gradientTransform="translate(201.498 33.7163) rotate(180) scale(14.4733 14.621)" gradientUnits="userSpaceOnUse"><stop stop-color="#fff"/><stop offset=".85" stop-color="#fff"/><stop offset="1" stop-color="#fff"/></radialGradient></defs></svg>