<svg width="40" height="40" viewBox="0 0 40 40" fill="none" xmlns="http://www.w3.org/2000/svg">
<g clip-path="url(#clip0_4_4143)">
<mask id="mask0_4_4143" style="mask-type:luminance" maskUnits="userSpaceOnUse" x="18" y="0" width="4" height="40">
<path d="M18.8173 39.8794H21.1685V0.105469H18.8173V39.8945V39.8794Z" fill="white"/>
</mask>
<g mask="url(#mask0_4_4143)">
<path d="M21.1685 0.090332H18.8173V39.8793H21.1685V0.090332Z" fill="url(#paint0_linear_4_4143)"/>
</g>
<mask id="mask1_4_4143" style="mask-type:luminance" maskUnits="userSpaceOnUse" x="18" y="0" width="22" height="21">
<path d="M18.9077 0H18.8173V4.12962C19.2994 2.21552 21.1827 2.45667 21.1827 2.45667C29.1224 2.98417 35.6158 8.7566 37.2128 16.3527C37.2128 16.3527 37.3183 16.9254 37.3183 17.2268C37.3183 18.9751 36.0226 20.4974 34.3352 20.7687C39.5028 20.5878 39.7137 17.046 39.6685 16.3828C38.0263 7.41523 30.403 0.557649 21.0923 0.0602863L19.9925 0.0150712H18.8927L18.9077 0Z" fill="white"/>
</mask>
<g mask="url(#mask1_4_4143)">
<path d="M26.7875 -10.1304L8.76599 12.8699L31.7879 30.9084L49.8094 7.90813L26.7875 -10.1304Z" fill="url(#paint1_linear_4_4143)"/>
</g>
<mask id="mask2_4_4143" style="mask-type:luminance" maskUnits="userSpaceOnUse" x="22" y="16" width="18" height="24">
<path d="M33.9435 20.6481H22.4934V39.7589C32.1205 38.5682 39.6233 30.52 39.9849 20.6632C39.9849 20.407 40 20.1658 40 19.9247C40 18.6737 39.8795 17.468 39.6685 16.2773C39.6685 16.2773 39.8192 20.6481 33.9435 20.6481Z" fill="white"/>
</mask>
<g mask="url(#mask2_4_4143)">
<path d="M29.4817 7.68487L10.9737 30.3536L32.9871 48.3265L51.4951 25.6578L29.4817 7.68487Z" fill="url(#paint2_linear_4_4143)"/>
</g>
<g style="mix-blend-mode:overlay">
<mask id="mask3_4_4143" style="mask-type:luminance" maskUnits="userSpaceOnUse" x="22" y="16" width="18" height="24">
<path d="M39.9849 16.2773H22.4783V39.7589H39.9849V16.2773Z" fill="white"/>
</mask>
<g mask="url(#mask3_4_4143)">
<mask id="mask4_4_4143" style="mask-type:luminance" maskUnits="userSpaceOnUse" x="22" y="16" width="18" height="24">
<path d="M22.4783 39.7589C32.1054 38.5682 39.6083 30.52 39.9699 20.6632C39.9699 20.407 39.9849 20.1658 39.9849 19.9247C39.9849 18.6737 39.8644 17.468 39.6535 16.2773C39.6535 16.2773 39.8041 20.6481 33.9284 20.6481H22.4783V39.7589Z" fill="white"/>
</mask>
<g mask="url(#mask4_4_4143)">
<path d="M39.9849 16.2773H22.4783V39.7589H39.9849V16.2773Z" fill="url(#paint3_radial_4_4143)"/>
</g>
</g>
</g>
<mask id="mask5_4_4143" style="mask-type:luminance" maskUnits="userSpaceOnUse" x="0" y="19" width="22" height="21">
<path d="M0.331608 23.6322C1.97379 32.5998 9.59714 39.4574 18.9079 39.9548L20.0077 40H21.1828V35.8704C20.7007 37.7845 18.8175 37.5433 18.8175 37.5433C10.8777 37.0158 4.38434 31.2434 2.78736 23.6473C2.78736 23.6473 2.68189 23.0746 2.68189 22.7731C2.68189 21.0248 3.97757 19.5026 5.66495 19.2313C0.497346 19.4122 0.301476 22.954 0.331608 23.6172" fill="white"/>
</mask>
<g mask="url(#mask5_4_4143)">
<path d="M8.25004 9.11304L-9.77148 32.1133L13.2504 50.1518L31.2719 27.1515L8.25004 9.11304Z" fill="url(#paint4_linear_4_4143)"/>
</g>
<mask id="mask6_4_4143" style="mask-type:luminance" maskUnits="userSpaceOnUse" x="0" y="0" width="18" height="24">
<path d="M0.0150806 19.3369C0.0150806 19.5931 0 19.8343 0 20.0754C0 21.3264 0.120529 22.5321 0.331452 23.7228C0.331452 23.7228 0.180797 19.352 6.0565 19.352H17.5066V0.241211C7.87946 1.43187 0.376662 9.4801 0.0150806 19.3369Z" fill="white"/>
</mask>
<g mask="url(#mask6_4_4143)">
<path d="M7.01491 -8.32874L-11.497 14.3368L10.5133 32.3135L29.0252 9.64801L7.01491 -8.32874Z" fill="url(#paint5_linear_4_4143)"/>
</g>
<g style="mix-blend-mode:overlay">
<mask id="mask7_4_4143" style="mask-type:luminance" maskUnits="userSpaceOnUse" x="0" y="0" width="18" height="24">
<path d="M17.5066 0.241211H0V23.7228H17.5066V0.241211Z" fill="white"/>
</mask>
<g mask="url(#mask7_4_4143)">
<mask id="mask8_4_4143" style="mask-type:luminance" maskUnits="userSpaceOnUse" x="0" y="0" width="18" height="24">
<path d="M17.5066 0.241211C7.87946 1.43187 0.376662 9.4801 0.0150806 19.3369C0.0150806 19.5931 0 19.8343 0 20.0754C0 21.3264 0.120529 22.5321 0.331452 23.7228C0.331452 23.7228 0.180797 19.352 6.0565 19.352H17.5066V0.241211Z" fill="white"/>
</mask>
<g mask="url(#mask8_4_4143)">
<path d="M17.5066 0.241211H0V23.7228H17.5066V0.241211Z" fill="url(#paint6_radial_4_4143)"/>
</g>
</g>
</g>
</g>
<defs>
<linearGradient id="paint0_linear_4_4143" x1="21.0154" y1="39.5414" x2="21.0154" y2="-0.958952" gradientUnits="userSpaceOnUse">
<stop stop-color="#153A63"/>
<stop offset="0.1" stop-color="#153A63"/>
<stop offset="0.35" stop-color="#23A8E0"/>
<stop offset="0.5" stop-color="#61CAF4"/>
<stop offset="0.65" stop-color="#109CD8"/>
<stop offset="0.9" stop-color="#153A63"/>
<stop offset="1" stop-color="#153A63"/>
</linearGradient>
<linearGradient id="paint1_linear_4_4143" x1="18.1557" y1="-0.152639" x2="38.9206" y2="16.1174" gradientUnits="userSpaceOnUse">
<stop stop-color="#005D98"/>
<stop offset="0.35" stop-color="#23A8E0"/>
<stop offset="0.53" stop-color="#61CAF4"/>
<stop offset="0.62" stop-color="#3EB6E8"/>
<stop offset="0.71" stop-color="#24A7DF"/>
<stop offset="0.79" stop-color="#159FD9"/>
<stop offset="0.85" stop-color="#109CD8"/>
<stop offset="0.87" stop-color="#1095D0"/>
<stop offset="0.91" stop-color="#1185BC"/>
<stop offset="0.94" stop-color="#12699C"/>
<stop offset="0.99" stop-color="#14446F"/>
<stop offset="1" stop-color="#153A63"/>
</linearGradient>
<linearGradient id="paint2_linear_4_4143" x1="35.9594" y1="21.2416" x2="22.1142" y2="38.1994" gradientUnits="userSpaceOnUse">
<stop stop-color="#19BAED"/>
<stop offset="0.41" stop-color="#0C8DC9"/>
<stop offset="0.79" stop-color="#036BAD"/>
<stop offset="1" stop-color="#005EA3"/>
</linearGradient>
<radialGradient id="paint3_radial_4_4143" cx="0" cy="0" r="1" gradientUnits="userSpaceOnUse" gradientTransform="translate(20.7909 20.9134) scale(19.9069 19.9262)">
<stop stop-color="white"/>
<stop offset="0.85" stop-color="white"/>
<stop offset="1" stop-color="white"/>
</radialGradient>
<linearGradient id="paint4_linear_4_4143" x1="22.141" y1="40.0014" x2="1.37613" y2="23.7313" gradientUnits="userSpaceOnUse">
<stop stop-color="#005D98"/>
<stop offset="0.35" stop-color="#23A8E0"/>
<stop offset="0.53" stop-color="#61CAF4"/>
<stop offset="0.62" stop-color="#3EB6E8"/>
<stop offset="0.71" stop-color="#24A7DF"/>
<stop offset="0.79" stop-color="#159FD9"/>
<stop offset="0.85" stop-color="#109CD8"/>
<stop offset="0.87" stop-color="#1095D0"/>
<stop offset="0.91" stop-color="#1185BC"/>
<stop offset="0.94" stop-color="#12699C"/>
<stop offset="0.99" stop-color="#14446F"/>
<stop offset="1" stop-color="#153A63"/>
</linearGradient>
<linearGradient id="paint5_linear_4_4143" x1="4.14279" y1="18.0436" x2="17.991" y2="1.08827" gradientUnits="userSpaceOnUse">
<stop stop-color="#19BAED"/>
<stop offset="0.41" stop-color="#0C8DC9"/>
<stop offset="0.79" stop-color="#036BAD"/>
<stop offset="1" stop-color="#005EA3"/>
</linearGradient>
<radialGradient id="paint6_radial_4_4143" cx="0" cy="0" r="1" gradientUnits="userSpaceOnUse" gradientTransform="translate(18.6781 18.6934) rotate(180) scale(19.9069 19.9262)">
<stop stop-color="white"/>
<stop offset="0.85" stop-color="white"/>
<stop offset="1" stop-color="white"/>
</radialGradient>
<clipPath id="clip0_4_4143">
<rect width="40" height="40" fill="white"/>
</clipPath>
</defs>
</svg>
