<svg width="240" height="80" viewBox="0 0 240 80" fill="none" xmlns="http://www.w3.org/2000/svg">
<path d="M104.611 25.8842H102.677C99.3096 25.8842 96.5631 28.6306 96.5631 31.9985V41.4653C96.5631 44.8408 99.3096 47.5796 102.677 47.5796H104.611C107.979 47.5796 110.725 44.8331 110.725 41.4653V36.448H103.33V39.5397H107.242V41.4653C107.242 42.9152 106.061 44.0967 104.611 44.0967H102.677C101.227 44.0967 100.046 42.9152 100.046 41.4653V31.9985C100.046 30.5485 101.227 29.3671 102.677 29.3671H104.611C106.061 29.3671 107.242 30.5485 107.242 31.9985V33.0802H110.725V31.9985C110.725 28.6306 107.979 25.8842 104.611 25.8842Z" fill="#2E5795"/>
<path d="M121.266 26.0145H114.476V47.3264H118.236V39.7161H121.266C125.04 39.7161 128.117 36.6474 128.117 32.8653C128.117 29.0832 125.048 26.0145 121.266 26.0145ZM121.266 36.2255H118.236V29.4975H121.266C123.122 29.4975 124.626 31.0088 124.626 32.8576C124.626 34.7065 123.115 36.2178 121.266 36.2178" fill="#2E5795"/>
<path d="M141.442 36.1719C142.348 35.0979 142.892 33.7093 142.892 32.198C142.892 28.7841 140.115 26.007 136.701 26.007H130.088V47.6717H137.752C141.25 47.6717 144.089 44.8255 144.089 41.3349C144.089 39.2099 143.038 37.3303 141.435 36.1796M133.847 29.4976H136.694C138.19 29.4976 139.402 30.7097 139.402 32.2057C139.402 33.7016 138.19 34.9137 136.694 34.9137H133.847V29.4976ZM137.752 44.1888H133.847V38.4811H137.752C139.325 38.4811 140.606 39.7622 140.606 41.3349C140.606 42.9076 139.325 44.1888 137.752 44.1888Z" fill="#2E5795"/>
<path d="M154.216 25.9993H150.549L150.564 26.0606L144.273 47.664H147.902L149.329 42.7695H155.466L156.901 47.664H160.529L154.2 26.0606L154.216 26.0069V25.9993ZM154.446 39.2789H150.349L152.39 32.267L154.446 39.2789Z" fill="#2E5795"/>
<path d="M173.318 39.7929L166.038 26.0376H162.532V47.664H166.406V34.6145L173.533 47.664H177.2V26.0376H173.318V39.7929Z" fill="#2E5795"/>
<path d="M195.451 26.0376H190.648L184.572 34.3537V26.0376H180.698V47.664H184.572V40.9206L185.355 39.8466L190.326 47.664H194.914L187.81 36.4864L195.451 26.0376Z" fill="#2E5795"/>
<path d="M67.0809 34.8523L44.5493 40.8669V47.3264L67.0809 41.3118V34.8523Z" fill="#2E5795"/>
<path d="M67.0809 27.4261L44.5493 33.4407V39.9003L67.0809 33.8857V27.4261Z" fill="#2E5795"/>
<path d="M67.0809 34.8523L89.9501 40.8669V47.3264L67.0809 41.3118V34.8523Z" fill="#FFC609"/>
<path d="M67.0809 27.4261L89.9501 33.4407V39.9003L67.0809 33.8857V27.4261Z" fill="#FFC609"/>
<path d="M67.0809 20L89.9501 26.0146V32.4741L67.0809 26.4595V20Z" fill="#FFC609"/>
<path d="M59.7468 25.8842L44.5493 30.4872V32.4741L67.0733 26.4595V20L65.0326 20.5447L59.7468 25.8842Z" fill="#2E5795"/>
<path d="M96.2793 58.1588L97.6141 51.799H98.4427L99.5167 54.1848C99.8466 54.9136 100.1 55.5274 100.292 56.026C100.399 56.3176 100.529 56.7088 100.675 57.1998C100.752 56.6628 100.852 56.1104 100.967 55.5427L101.749 51.799H102.578L101.25 58.1588H100.407L98.8262 54.484C98.5424 53.8396 98.3276 53.2642 98.1665 52.7732C98.1204 53.1875 98.0361 53.6938 97.9133 54.2999L97.1078 58.1664H96.2793V58.1588Z" fill="#2E5795"/>
<path d="M102.708 58.1588L103.675 53.5481H104.457L103.491 58.1588H102.708ZM103.851 52.6889L104.035 51.799H104.818L104.634 52.6889H103.851Z" fill="#2E5795"/>
<path d="M108.278 56.5937L109.045 56.6704C108.937 57.0464 108.684 57.4069 108.285 57.7521C107.894 58.0897 107.418 58.2661 106.874 58.2661C106.536 58.2661 106.222 58.1894 105.93 58.0283C105.646 57.8672 105.432 57.6371 105.278 57.3379C105.125 57.0387 105.056 56.6935 105.056 56.3099C105.056 55.8035 105.171 55.3202 105.409 54.8446C105.639 54.3689 105.946 54.0161 106.314 53.7859C106.682 53.5558 107.081 53.4407 107.518 53.4407C108.071 53.4407 108.508 53.6095 108.838 53.9547C109.168 54.2999 109.329 54.7602 109.329 55.3509C109.329 55.5734 109.306 55.8112 109.267 56.049H105.869C105.861 56.1411 105.853 56.2178 105.853 56.2945C105.853 56.7241 105.953 57.054 106.153 57.2842C106.352 57.5143 106.59 57.6294 106.881 57.6294C107.15 57.6294 107.419 57.5373 107.679 57.3609C107.94 57.1844 108.14 56.9313 108.285 56.5937H108.278ZM105.992 55.4506H108.577C108.577 55.3663 108.577 55.3126 108.577 55.2742C108.577 54.8829 108.477 54.5761 108.285 54.3689C108.086 54.1618 107.833 54.0544 107.526 54.0544C107.188 54.0544 106.881 54.1695 106.605 54.3996C106.329 54.6298 106.122 54.9827 105.984 55.443L105.992 55.4506ZM106.529 52.988L107.679 51.7913H108.546L109.083 52.988H108.4L108.055 52.2132L107.342 52.988H106.536H106.529ZM108.239 51.446L107.395 50.2493H108.354L108.861 51.446H108.247H108.239Z" fill="#2E5795"/>
<path d="M110.012 58.1588L110.978 53.5481H111.768L111.607 54.3076C111.899 53.9777 112.16 53.7552 112.39 53.6325C112.62 53.5097 112.873 53.4484 113.142 53.4484C113.425 53.4484 113.671 53.5251 113.863 53.6785C114.054 53.8319 114.185 54.0391 114.246 54.3153C114.484 54.0237 114.73 53.8089 114.983 53.6632C115.244 53.5174 115.512 53.4484 115.804 53.4484C116.187 53.4484 116.479 53.5404 116.671 53.7245C116.862 53.9087 116.962 54.1618 116.962 54.4917C116.962 54.6375 116.931 54.8676 116.862 55.1975L116.241 58.1664H115.458L116.095 55.1208C116.149 54.8753 116.18 54.6912 116.18 54.5838C116.18 54.4303 116.133 54.3153 116.034 54.2309C115.942 54.1465 115.804 54.1005 115.627 54.1005C115.389 54.1005 115.152 54.1695 114.914 54.3153C114.668 54.4533 114.484 54.6451 114.346 54.8753C114.216 55.1054 114.093 55.4583 113.993 55.934L113.525 58.1664H112.743L113.395 55.0517C113.441 54.8369 113.464 54.6912 113.464 54.5991C113.464 54.4457 113.418 54.3306 113.326 54.2309C113.234 54.1388 113.111 54.0928 112.957 54.0928C112.735 54.0928 112.497 54.1618 112.259 54.3076C112.014 54.4457 111.814 54.6451 111.661 54.8983C111.507 55.1515 111.377 55.512 111.285 55.98L110.832 58.1588H110.05H110.012Z" fill="#2E5795"/>
<path d="M122.087 57.5219L121.956 58.1664C121.764 58.2124 121.588 58.2431 121.412 58.2431C121.097 58.2431 120.852 58.1664 120.667 58.0129C120.529 57.8979 120.46 57.7368 120.46 57.5373C120.46 57.4376 120.499 57.1997 120.575 56.8392L121.135 54.1618H120.514L120.637 53.5557H121.258L121.496 52.4203L122.394 51.8756L122.041 53.548H122.816L122.685 54.1541H121.918L121.381 56.7011C121.312 57.0233 121.281 57.2151 121.281 57.2841C121.281 57.3762 121.312 57.4452 121.366 57.4989C121.419 57.545 121.504 57.5756 121.626 57.5756C121.803 57.5756 121.956 57.5603 122.094 57.5219H122.087Z" fill="#2E5795"/>
<path d="M122.862 58.1588L123.828 53.5481H124.618L123.652 58.1588H122.869H122.862ZM124.005 52.6889L124.189 51.799H124.971L124.787 52.6889H124.005Z" fill="#2E5795"/>
<path d="M125.048 58.1588L126.015 53.5481H126.728L126.559 54.3536C126.866 54.0391 127.158 53.8089 127.426 53.6632C127.695 53.5174 127.971 53.4484 128.255 53.4484C128.631 53.4484 128.922 53.5481 129.129 53.7552C129.344 53.9547 129.451 54.2309 129.451 54.5684C129.451 54.7372 129.413 55.0057 129.336 55.3739L128.753 58.1664H127.963L128.577 55.2435C128.638 54.9597 128.669 54.7525 128.669 54.6145C128.669 54.461 128.615 54.3383 128.508 54.2385C128.4 54.1465 128.247 54.0928 128.048 54.0928C127.649 54.0928 127.288 54.2385 126.974 54.5301C126.659 54.8216 126.429 55.3126 126.283 56.0184L125.838 58.1588H125.048Z" fill="#2E5795"/>
<path d="M132.812 58.1588L133.778 53.5481H134.568L134.407 54.3076C134.699 53.9777 134.96 53.7552 135.19 53.6325C135.42 53.5097 135.666 53.4484 135.942 53.4484C136.226 53.4484 136.471 53.5251 136.663 53.6785C136.855 53.8319 136.985 54.0391 137.046 54.3153C137.277 54.0237 137.53 53.8089 137.783 53.6632C138.044 53.5174 138.312 53.4484 138.604 53.4484C138.987 53.4484 139.279 53.5404 139.471 53.7245C139.662 53.9087 139.762 54.1618 139.762 54.4917C139.762 54.6375 139.731 54.8676 139.662 55.1975L139.041 58.1664H138.251L138.888 55.1208C138.941 54.8753 138.972 54.6912 138.972 54.5838C138.972 54.4303 138.926 54.3153 138.826 54.2309C138.734 54.1465 138.596 54.1005 138.42 54.1005C138.189 54.1005 137.944 54.1695 137.706 54.3153C137.461 54.4533 137.277 54.6451 137.138 54.8753C137 55.1054 136.885 55.4583 136.786 55.934L136.318 58.1664H135.535L136.187 55.0517C136.233 54.8369 136.256 54.6912 136.256 54.5991C136.256 54.4457 136.21 54.3306 136.118 54.2309C136.026 54.1388 135.903 54.0928 135.75 54.0928C135.527 54.0928 135.29 54.1618 135.052 54.3076C134.806 54.4457 134.607 54.6451 134.453 54.8983C134.3 55.1515 134.17 55.512 134.077 55.98L133.617 58.1588H132.835H132.812Z" fill="#2E5795"/>
<path d="M145.056 54.438L145.24 53.5481H146.137L145.976 54.3229C145.807 55.1284 145.447 55.5887 144.895 55.7038C144.856 56.1104 144.756 56.4863 144.588 56.8469C144.381 57.2918 144.074 57.6447 143.667 57.8979C143.283 58.1434 142.869 58.2661 142.424 58.2661C141.642 58.2661 141.097 57.9746 140.775 57.3839C140.621 57.1 140.545 56.7778 140.545 56.4096C140.545 55.512 140.806 54.7679 141.343 54.1771C141.78 53.6938 142.355 53.4483 143.061 53.4483C143.621 53.4483 144.066 53.6248 144.404 53.97C144.741 54.3152 144.91 54.7832 144.91 55.3663C145.232 55.2512 145.439 54.9443 145.547 54.438H145.063H145.056ZM141.327 56.3329C141.327 56.7548 141.427 57.0847 141.642 57.3225C141.841 57.545 142.102 57.6601 142.44 57.6601C142.8 57.6601 143.115 57.522 143.399 57.2458C143.667 56.985 143.867 56.6321 144.005 56.1948C144.097 55.9033 144.135 55.6271 144.135 55.3663C144.135 54.9597 144.035 54.6374 143.82 54.392C143.621 54.1618 143.353 54.0467 143.023 54.0467C142.539 54.0467 142.133 54.2769 141.803 54.7372C141.481 55.1745 141.327 55.7038 141.327 56.3252V56.3329ZM142.562 52.988L143.376 51.7913H144.365L143.207 52.988H142.555H142.562Z" fill="#2E5795"/>
<path d="M145.923 58.1588L146.889 53.5481H147.672L146.705 58.1588H145.923ZM147.066 52.6889L147.25 51.799H148.032L147.848 52.6889H147.066Z" fill="#2E5795"/>
<path d="M148.293 58.1587L148.477 57.2688H149.375L149.214 58.0436C149.114 58.5116 148.96 58.8492 148.753 59.0716C148.546 59.2864 148.301 59.4092 148.025 59.4476L148.101 59.1023C148.446 59.0103 148.677 58.6881 148.784 58.1587H148.301H148.293Z" fill="#2E5795"/>
<path d="M153.356 58.573L154.154 58.6497C154.154 58.8262 154.17 58.9643 154.216 59.0563C154.262 59.1484 154.346 59.2174 154.446 59.2635C154.591 59.3248 154.776 59.3555 154.998 59.3555C155.474 59.3555 155.811 59.2328 156.026 58.9873C156.164 58.8262 156.287 58.4656 156.402 57.9133L156.479 57.5374C156.072 57.9516 155.635 58.1588 155.175 58.1588C154.714 58.1588 154.315 57.99 154.001 57.6448C153.686 57.2995 153.533 56.8162 153.533 56.1871C153.533 55.6655 153.656 55.1898 153.901 54.7602C154.147 54.3229 154.446 54.0007 154.783 53.7782C155.129 53.5558 155.474 53.4484 155.842 53.4484C156.448 53.4484 156.916 53.7322 157.238 54.3076L157.399 53.5481H158.12L157.192 57.9977C157.092 58.4886 156.954 58.8646 156.793 59.1407C156.632 59.4169 156.402 59.624 156.103 59.7775C155.811 59.9309 155.466 60 155.082 60C154.699 60 154.392 59.9539 154.124 59.8542C153.855 59.7621 153.656 59.6164 153.525 59.4323C153.395 59.2481 153.326 59.041 153.326 58.8032C153.326 58.7341 153.326 58.6497 153.349 58.5654L153.356 58.573ZM154.338 56.1181C154.338 56.4326 154.369 56.6705 154.43 56.8316C154.515 57.054 154.638 57.2228 154.799 57.3456C154.96 57.4606 155.136 57.522 155.336 57.522C155.596 57.522 155.85 57.43 156.103 57.2535C156.356 57.0694 156.563 56.7932 156.724 56.4173C156.878 56.0414 156.962 55.6731 156.962 55.3279C156.962 54.952 156.855 54.6451 156.647 54.4227C156.44 54.2002 156.18 54.0851 155.865 54.0851C155.673 54.0851 155.489 54.1388 155.313 54.2385C155.136 54.3383 154.967 54.4994 154.814 54.7065C154.661 54.9136 154.545 55.1668 154.461 55.4583C154.384 55.7499 154.338 55.9723 154.338 56.1258V56.1181Z" fill="#2E5795"/>
<path d="M158.489 58.1588L159.455 53.5481H160.238L159.271 58.1588H158.481H158.489ZM159.632 52.6889L159.816 51.799H160.598L160.414 52.6889H159.632Z" fill="#2E5795"/>
<path d="M163.782 57.5834C163.514 57.8212 163.245 57.99 163 58.0974C162.746 58.2048 162.478 58.2585 162.194 58.2585C161.772 58.2585 161.427 58.1357 161.166 57.8826C160.905 57.6294 160.775 57.3149 160.775 56.9236C160.775 56.6628 160.836 56.4403 160.951 56.2408C161.066 56.0414 161.227 55.8803 161.419 55.7652C161.611 55.6424 161.849 55.558 162.133 55.5043C162.309 55.466 162.647 55.443 163.138 55.42C163.629 55.3969 163.982 55.3509 164.196 55.2665C164.258 55.0517 164.288 54.8753 164.288 54.7295C164.288 54.5454 164.219 54.4073 164.089 54.2999C163.905 54.1541 163.644 54.0851 163.291 54.0851C162.961 54.0851 162.693 54.1541 162.486 54.3076C162.278 54.4533 162.125 54.6605 162.025 54.929L161.227 54.8599C161.389 54.3996 161.642 54.0544 161.995 53.8089C162.348 53.5634 162.792 53.4483 163.322 53.4483C163.89 53.4483 164.342 53.5864 164.68 53.8549C164.933 54.0544 165.063 54.3229 165.063 54.6451C165.063 54.8906 165.025 55.1745 164.956 55.5043L164.703 56.6474C164.618 57.008 164.58 57.3072 164.58 57.5373C164.58 57.6831 164.611 57.8902 164.672 58.1587H163.874C163.828 58.0053 163.797 57.8135 163.782 57.5834ZM164.074 55.8189C163.966 55.8649 163.843 55.8956 163.721 55.9186C163.598 55.9416 163.383 55.9646 163.092 55.9953C162.631 56.0337 162.309 56.0874 162.125 56.1488C161.941 56.2101 161.795 56.3099 161.703 56.448C161.611 56.586 161.557 56.7318 161.557 56.9006C161.557 57.1231 161.634 57.2995 161.787 57.4453C161.941 57.591 162.156 57.6601 162.44 57.6601C162.7 57.6601 162.954 57.591 163.191 57.4529C163.429 57.3148 163.621 57.1231 163.759 56.8776C163.897 56.6321 164.005 56.2792 164.081 55.8266L164.074 55.8189ZM162.792 52.988L163.606 51.7913H164.595L163.437 52.988H162.785H162.792Z" fill="#2E5795"/>
<path d="M170.28 57.5219L170.15 58.1664C169.958 58.2124 169.781 58.2431 169.605 58.2431C169.29 58.2431 169.045 58.1664 168.861 58.0129C168.723 57.8979 168.654 57.7368 168.654 57.5373C168.654 57.4376 168.692 57.1997 168.769 56.8392L169.329 54.1618H168.707L168.83 53.5557H169.451L169.689 52.4203L170.587 51.8756L170.234 53.548H171.009L170.878 54.1541H170.111L169.574 56.7011C169.505 57.0233 169.474 57.2151 169.474 57.2841C169.474 57.3762 169.505 57.4452 169.551 57.4989C169.605 57.545 169.697 57.5756 169.812 57.5756C169.989 57.5756 170.142 57.5603 170.28 57.5219Z" fill="#2E5795"/>
<path d="M171.093 58.1588L172.06 53.5481H172.758L172.566 54.4917C172.804 54.1388 173.034 53.8703 173.264 53.7015C173.487 53.5327 173.725 53.4484 173.962 53.4484C174.116 53.4484 174.308 53.5021 174.538 53.6171L174.216 54.3459C174.077 54.2462 173.932 54.2002 173.771 54.2002C173.494 54.2002 173.211 54.3536 172.927 54.6605C172.635 54.9673 172.413 55.5197 172.244 56.3176L171.853 58.1664H171.109L171.093 58.1588Z" fill="#2E5795"/>
<path d="M173.832 59.5703L174.016 58.6804H174.906L174.714 59.5703H173.832ZM174.2 58.1588L175.167 53.5481H175.949L174.983 58.1588H174.193H174.2ZM175.343 52.6889L175.527 51.799H176.31L176.126 52.6889H175.343Z" fill="#2E5795"/>
<path d="M179.026 58.1588L179.992 53.5481H180.775L180.614 54.3076C180.905 53.9777 181.166 53.7552 181.396 53.6325C181.626 53.5097 181.872 53.4484 182.148 53.4484C182.432 53.4484 182.677 53.5251 182.869 53.6785C183.061 53.8319 183.191 54.0391 183.253 54.3153C183.483 54.0237 183.736 53.8089 183.989 53.6632C184.25 53.5174 184.519 53.4484 184.81 53.4484C185.194 53.4484 185.485 53.5404 185.677 53.7245C185.869 53.9087 185.969 54.1618 185.969 54.4917C185.969 54.6375 185.938 54.8676 185.869 55.1975L185.247 58.1664H184.457L185.094 55.1208C185.148 54.8753 185.178 54.6912 185.178 54.5838C185.178 54.4303 185.132 54.3153 185.033 54.2309C184.941 54.1465 184.802 54.1005 184.626 54.1005C184.396 54.1005 184.15 54.1695 183.913 54.3153C183.675 54.461 183.483 54.6451 183.345 54.8753C183.207 55.1054 183.092 55.4583 182.992 55.934L182.524 58.1664H181.741L182.394 55.0517C182.44 54.8369 182.463 54.6912 182.463 54.5991C182.463 54.4457 182.417 54.3306 182.325 54.2309C182.232 54.1388 182.11 54.0928 181.956 54.0928C181.734 54.0928 181.496 54.1618 181.258 54.3076C181.013 54.4457 180.813 54.6451 180.66 54.8983C180.506 55.1515 180.384 55.512 180.284 55.98L179.831 58.1588H179.049H179.026Z" fill="#2E5795"/>
<path d="M191.27 54.438L191.454 53.5481H192.351L192.19 54.3229C192.021 55.1284 191.661 55.5887 191.109 55.7038C191.07 56.1104 190.97 56.4863 190.802 56.8469C190.595 57.2918 190.288 57.6447 189.881 57.8979C189.498 58.1434 189.083 58.2661 188.638 58.2661C187.856 58.2661 187.311 57.9746 186.989 57.3839C186.835 57.1 186.751 56.7778 186.751 56.4096C186.751 55.512 187.02 54.7679 187.549 54.1771C187.986 53.6938 188.562 53.4483 189.267 53.4483C189.827 53.4483 190.272 53.6248 190.61 53.97C190.947 54.3152 191.116 54.7832 191.116 55.3663C191.431 55.2512 191.646 54.9443 191.753 54.438H191.27ZM187.541 56.3329C187.541 56.7548 187.641 57.0847 187.856 57.3225C188.055 57.545 188.316 57.6601 188.654 57.6601C189.014 57.6601 189.329 57.522 189.613 57.2458C189.881 56.985 190.081 56.6321 190.219 56.1948C190.311 55.9033 190.349 55.6271 190.349 55.3663C190.349 54.9597 190.249 54.6374 190.035 54.392C189.835 54.1618 189.567 54.0467 189.237 54.0467C188.753 54.0467 188.347 54.2769 188.017 54.7372C187.695 55.1745 187.541 55.7038 187.541 56.3252V56.3329ZM188.776 52.988L189.59 51.7913H190.579L189.421 52.988H188.769H188.776Z" fill="#2E5795"/>
<path d="M192.137 58.1588L193.103 53.5481H193.893L192.927 58.1588H192.144H192.137ZM193.28 52.6889L193.464 51.799H194.246L194.062 52.6889H193.28Z" fill="#2E5795"/>
</svg>
