<svg width="151" height="40" viewBox="0 0 151 40" fill="none" xmlns="http://www.w3.org/2000/svg">
<g clip-path="url(#clip0_4_2083)">
<path d="M60.1006 5.88416H58.1661C54.796 5.88416 52.0478 8.63061 52.0478 11.9985V21.4653C52.0478 24.8408 54.796 27.5796 58.1661 27.5796H60.1006C63.4707 27.5796 66.2189 24.8331 66.2189 21.4653V16.448H58.8186V19.5397H62.7337V21.4653C62.7337 22.9152 61.5515 24.0967 60.1006 24.0967H58.1661C56.7152 24.0967 55.533 22.9152 55.533 21.4653V11.9985C55.533 10.5485 56.7152 9.36708 58.1661 9.36708H60.1006C61.5515 9.36708 62.7337 10.5485 62.7337 11.9985V13.0802H66.2189V11.9985C66.2189 8.63061 63.4707 5.88416 60.1006 5.88416Z" fill="#2E5795"/>
<path d="M76.7667 6.01453H69.9728V27.3264H73.7344V19.7161H76.7667C80.5436 19.7161 83.6219 16.6474 83.6219 12.8653C83.6219 9.08319 80.5513 6.01453 76.7667 6.01453ZM76.7667 16.2255H73.7344V9.49746H76.7667C78.6244 9.49746 80.129 11.0088 80.129 12.8576C80.129 14.7065 78.6167 16.2178 76.7667 16.2178" fill="#2E5795"/>
<path d="M96.9563 16.1719C97.8621 15.0979 98.4072 13.7093 98.4072 12.198C98.4072 8.7841 95.6282 6.00696 92.2121 6.00696H85.5948V27.6717H93.2638C96.7644 27.6717 99.6047 24.8255 99.6047 21.3349C99.6047 19.2099 98.553 17.3303 96.9486 16.1796M89.3564 9.49756H92.2044C93.7014 9.49756 94.9143 10.7097 94.9143 12.2057C94.9143 13.7016 93.7014 14.9137 92.2044 14.9137H89.3564V9.49756ZM93.2638 24.1888H89.3564V18.4811H93.2638C94.8375 18.4811 96.1195 19.7622 96.1195 21.3349C96.1195 22.9076 94.8375 24.1888 93.2638 24.1888Z" fill="#2E5795"/>
<path d="M109.738 5.99927H106.069L106.084 6.06064L99.789 27.664H103.42L104.848 22.7695H110.989L112.425 27.664H116.056L109.723 6.06064L109.738 6.00694V5.99927ZM109.968 19.2789H105.869L107.911 12.267L109.968 19.2789Z" fill="#2E5795"/>
<path d="M128.853 19.7929L121.568 6.0376H118.059V27.664H121.936V14.6145L129.068 27.664H132.737V6.0376H128.853V19.7929Z" fill="#2E5795"/>
<path d="M151 6.0376H146.194L140.114 14.3537V6.0376H136.238V27.664H140.114V20.9206L140.898 19.8466L145.872 27.664H150.463L143.354 16.4864L151 6.0376Z" fill="#2E5795"/>
<path d="M22.5464 14.8523L0 20.8669V27.3264L22.5464 21.3118V14.8523Z" fill="#2E5795"/>
<path d="M22.5464 7.42615L0 13.4407V19.9003L22.5464 13.8857V7.42615Z" fill="#2E5795"/>
<path d="M22.5464 14.8523L45.4305 20.8669V27.3264L22.5464 21.3118V14.8523Z" fill="#FFC609"/>
<path d="M22.5464 7.42615L45.4305 13.4407V19.9003L22.5464 13.8857V7.42615Z" fill="#FFC609"/>
<path d="M22.5464 0L45.4305 6.01458V12.4741L22.5464 6.45953V0Z" fill="#FFC609"/>
<path d="M15.2075 5.88416L0 10.4872V12.4741L22.5387 6.45953V0L20.4967 0.544687L15.2075 5.88416Z" fill="#2E5795"/>
<path d="M51.7637 38.1588L53.0995 31.799H53.9286L55.0033 34.1848C55.3334 34.9136 55.5867 35.5274 55.7786 36.026C55.8861 36.3176 56.0166 36.7088 56.1625 37.1998C56.2392 36.6628 56.339 36.1104 56.4542 35.5427L57.2372 31.799H58.0663L56.7382 38.1588H55.8938L54.3124 34.484C54.0283 33.8396 53.8134 33.2642 53.6522 32.7732C53.6061 33.1875 53.5217 33.6938 53.3989 34.2999L52.5928 38.1664H51.7637V38.1588Z" fill="#2E5795"/>
<path d="M58.1968 38.1588L59.164 33.5481H59.9471L58.9798 38.1588H58.1968ZM59.3406 32.6889L59.5248 31.799H60.3079L60.1236 32.6889H59.3406Z" fill="#2E5795"/>
<path d="M63.77 36.5937L64.5377 36.6704C64.4302 37.0464 64.1769 37.4069 63.7777 37.7521C63.3862 38.0897 62.9102 38.2661 62.3652 38.2661C62.0274 38.2661 61.7127 38.1894 61.421 38.0283C61.1369 37.8672 60.922 37.6371 60.7685 37.3379C60.6149 37.0387 60.5458 36.6935 60.5458 36.3099C60.5458 35.8035 60.661 35.3202 60.899 34.8446C61.1293 34.3689 61.4363 34.0161 61.8048 33.7859C62.1733 33.5558 62.5725 33.4407 63.01 33.4407C63.5628 33.4407 64.0003 33.6095 64.3304 33.9547C64.6605 34.2999 64.8217 34.7602 64.8217 35.3509C64.8217 35.5734 64.7987 35.8112 64.7603 36.049H61.3596C61.3519 36.1411 61.3442 36.2178 61.3442 36.2945C61.3442 36.7241 61.444 37.054 61.6436 37.2842C61.8432 37.5143 62.0812 37.6294 62.3729 37.6294C62.6416 37.6294 62.9102 37.5373 63.1713 37.3609C63.4323 37.1844 63.6319 36.9313 63.7777 36.5937H63.77ZM61.4824 35.4506H64.0694C64.0694 35.3663 64.0694 35.3126 64.0694 35.2742C64.0694 34.8829 63.9696 34.5761 63.7777 34.3689C63.5781 34.1618 63.3248 34.0544 63.0177 34.0544C62.68 34.0544 62.3729 34.1695 62.0965 34.3996C61.8202 34.6298 61.6129 34.9827 61.4747 35.443L61.4824 35.4506ZM62.0198 32.988L63.1713 31.7913H64.0387L64.5761 32.988H63.8929L63.5474 32.2132L62.8335 32.988H62.0274H62.0198ZM63.7317 31.446L62.8872 30.2493H63.8468L64.3535 31.446H63.7393H63.7317Z" fill="#2E5795"/>
<path d="M65.505 38.1588L66.4722 33.5481H67.2629L67.1017 34.3076C67.3934 33.9777 67.6544 33.7552 67.8847 33.6325C68.115 33.5097 68.3684 33.4484 68.6371 33.4484C68.9211 33.4484 69.1667 33.5251 69.3587 33.6785C69.5506 33.8319 69.6811 34.0391 69.7425 34.3153C69.9805 34.0237 70.2261 33.8089 70.4795 33.6632C70.7405 33.5174 71.0091 33.4484 71.3009 33.4484C71.6847 33.4484 71.9764 33.5404 72.1683 33.7245C72.3602 33.9087 72.46 34.1618 72.46 34.4917C72.46 34.6375 72.4293 34.8676 72.3602 35.1975L71.7384 38.1664H70.9554L71.5926 35.1208C71.6463 34.8753 71.677 34.6912 71.677 34.5838C71.677 34.4303 71.631 34.3153 71.5312 34.2309C71.439 34.1465 71.3009 34.1005 71.1243 34.1005C70.8863 34.1005 70.6483 34.1695 70.4104 34.3153C70.1647 34.4533 69.9805 34.6451 69.8423 34.8753C69.7118 35.1054 69.589 35.4583 69.4892 35.934L69.0209 38.1664H68.2379L68.8904 35.0517C68.9364 34.8369 68.9595 34.6912 68.9595 34.5991C68.9595 34.4457 68.9134 34.3306 68.8213 34.2309C68.7292 34.1388 68.6063 34.0928 68.4528 34.0928C68.2302 34.0928 67.9922 34.1618 67.7542 34.3076C67.5086 34.4457 67.309 34.6451 67.1555 34.8983C67.0019 35.1515 66.8714 35.512 66.7793 35.98L66.3264 38.1588H65.5434H65.505Z" fill="#2E5795"/>
<path d="M77.5881 37.5219L77.4575 38.1664C77.2656 38.2124 77.0891 38.2431 76.9125 38.2431C76.5978 38.2431 76.3521 38.1664 76.1679 38.0129C76.0297 37.8979 75.9606 37.7368 75.9606 37.5373C75.9606 37.4376 75.999 37.1997 76.0757 36.8392L76.6361 34.1618H76.0143L76.1372 33.5557H76.759L76.9969 32.4203L77.8951 31.8756L77.542 33.548H78.3173L78.1868 34.1541H77.4192L76.8818 36.7011C76.8127 37.0233 76.782 37.2151 76.782 37.2841C76.782 37.3762 76.8127 37.4452 76.8664 37.4989C76.9202 37.545 77.0046 37.5756 77.1274 37.5756C77.304 37.5756 77.4575 37.5603 77.5957 37.5219H77.5881Z" fill="#2E5795"/>
<path d="M78.3634 38.1588L79.3306 33.5481H80.1213L79.1541 38.1588H78.3711H78.3634ZM79.5072 32.6889L79.6914 31.799H80.4745L80.2902 32.6889H79.5072Z" fill="#2E5795"/>
<path d="M80.5512 38.1588L81.5185 33.5481H82.2324L82.0635 34.3536C82.3706 34.0391 82.6623 33.8089 82.931 33.6632C83.1997 33.5174 83.4761 33.4484 83.7601 33.4484C84.1362 33.4484 84.428 33.5481 84.6352 33.7552C84.8502 33.9547 84.9576 34.2309 84.9576 34.5684C84.9576 34.7372 84.9193 35.0057 84.8425 35.3739L84.2591 38.1664H83.4684L84.0825 35.2435C84.1439 34.9597 84.1746 34.7525 84.1746 34.6145C84.1746 34.461 84.1209 34.3383 84.0134 34.2385C83.9059 34.1465 83.7524 34.0928 83.5528 34.0928C83.1536 34.0928 82.7928 34.2385 82.4781 34.5301C82.1633 34.8216 81.933 35.3126 81.7872 36.0184L81.3419 38.1588H80.5512Z" fill="#2E5795"/>
<path d="M88.32 38.1588L89.2873 33.5481H90.078L89.9168 34.3076C90.2085 33.9777 90.4695 33.7552 90.6998 33.6325C90.9301 33.5097 91.1757 33.4484 91.4521 33.4484C91.7361 33.4484 91.9818 33.5251 92.1737 33.6785C92.3656 33.8319 92.4961 34.0391 92.5575 34.3153C92.7878 34.0237 93.0412 33.8089 93.2945 33.6632C93.5555 33.5174 93.8242 33.4484 94.1159 33.4484C94.4997 33.4484 94.7914 33.5404 94.9834 33.7245C95.1753 33.9087 95.2751 34.1618 95.2751 34.4917C95.2751 34.6375 95.2444 34.8676 95.1753 35.1975L94.5535 38.1664H93.7628L94.3999 35.1208C94.4537 34.8753 94.4844 34.6912 94.4844 34.5838C94.4844 34.4303 94.4383 34.3153 94.3385 34.2309C94.2464 34.1465 94.1082 34.1005 93.9317 34.1005C93.7014 34.1005 93.4557 34.1695 93.2177 34.3153C92.9721 34.4533 92.7878 34.6451 92.6496 34.8753C92.5115 35.1054 92.3963 35.4583 92.2965 35.934L91.8282 38.1664H91.0452L91.6977 35.0517C91.7438 34.8369 91.7668 34.6912 91.7668 34.5991C91.7668 34.4457 91.7208 34.3306 91.6287 34.2309C91.5365 34.1388 91.4137 34.0928 91.2602 34.0928C91.0375 34.0928 90.7996 34.1618 90.5616 34.3076C90.3159 34.4457 90.1163 34.6451 89.9628 34.8983C89.8093 35.1515 89.6788 35.512 89.5867 35.98L89.1261 38.1588H88.343H88.32Z" fill="#2E5795"/>
<path d="M100.572 34.438L100.756 33.5481H101.654L101.493 34.3229C101.324 35.1284 100.963 35.5887 100.411 35.7038C100.372 36.1104 100.273 36.4863 100.104 36.8469C99.8964 37.2918 99.5894 37.6447 99.1825 37.8979C98.7987 38.1434 98.3841 38.2661 97.9389 38.2661C97.1559 38.2661 96.6108 37.9746 96.2884 37.3839C96.1349 37.1 96.0581 36.7778 96.0581 36.4096C96.0581 35.512 96.3191 34.7679 96.8565 34.1771C97.2941 33.6938 97.8698 33.4483 98.5761 33.4483C99.1364 33.4483 99.5817 33.6248 99.9195 33.97C100.257 34.3152 100.426 34.7832 100.426 35.3663C100.749 35.2512 100.956 34.9443 101.063 34.438H100.58H100.572ZM96.8411 36.3329C96.8411 36.7548 96.9409 37.0847 97.1559 37.3225C97.3555 37.545 97.6165 37.6601 97.9542 37.6601C98.315 37.6601 98.6298 37.522 98.9138 37.2458C99.1825 36.985 99.3821 36.6321 99.5203 36.1948C99.6124 35.9033 99.6508 35.6271 99.6508 35.3663C99.6508 34.9597 99.551 34.6374 99.336 34.392C99.1365 34.1618 98.8678 34.0467 98.5377 34.0467C98.054 34.0467 97.6472 34.2769 97.3171 34.7372C96.9947 35.1745 96.8411 35.7038 96.8411 36.3252V36.3329ZM98.0771 32.988L98.8908 31.7913H99.8811L98.7219 32.988H98.0694H98.0771Z" fill="#2E5795"/>
<path d="M101.439 38.1588L102.407 33.5481H103.19L102.222 38.1588H101.439ZM102.583 32.6889L102.768 31.799H103.551L103.366 32.6889H102.583Z" fill="#2E5795"/>
<path d="M103.811 38.1587L103.995 37.2688H104.893L104.732 38.0436C104.632 38.5116 104.479 38.8492 104.272 39.0716C104.065 39.2864 103.819 39.4092 103.543 39.4476L103.62 39.1023C103.965 39.0103 104.195 38.6881 104.302 38.1587H103.819H103.811Z" fill="#2E5795"/>
<path d="M108.878 38.573L109.676 38.6497C109.676 38.8262 109.692 38.9643 109.738 39.0563C109.784 39.1484 109.868 39.2174 109.968 39.2635C110.114 39.3248 110.298 39.3555 110.521 39.3555C110.997 39.3555 111.335 39.2328 111.55 38.9873C111.688 38.8262 111.811 38.4656 111.926 37.9133L112.003 37.5374C111.596 37.9516 111.158 38.1588 110.697 38.1588C110.237 38.1588 109.838 37.99 109.523 37.6448C109.208 37.2995 109.055 36.8162 109.055 36.1871C109.055 35.6655 109.178 35.1898 109.423 34.7602C109.669 34.3229 109.968 34.0007 110.306 33.7782C110.651 33.5558 110.997 33.4484 111.365 33.4484C111.972 33.4484 112.44 33.7322 112.763 34.3076L112.924 33.5481H113.645L112.716 37.9977C112.617 38.4886 112.478 38.8646 112.317 39.1407C112.156 39.4169 111.926 39.624 111.626 39.7775C111.335 39.9309 110.989 40 110.605 40C110.222 40 109.914 39.9539 109.646 39.8542C109.377 39.7621 109.178 39.6164 109.047 39.4323C108.916 39.2481 108.847 39.041 108.847 38.8032C108.847 38.7341 108.847 38.6497 108.87 38.5654L108.878 38.573ZM109.861 36.1181C109.861 36.4326 109.891 36.6705 109.953 36.8316C110.037 37.054 110.16 37.2228 110.321 37.3456C110.483 37.4606 110.659 37.522 110.859 37.522C111.12 37.522 111.373 37.43 111.626 37.2535C111.88 37.0694 112.087 36.7932 112.248 36.4173C112.402 36.0414 112.486 35.6731 112.486 35.3279C112.486 34.952 112.379 34.6451 112.171 34.4227C111.964 34.2002 111.703 34.0851 111.388 34.0851C111.196 34.0851 111.012 34.1388 110.836 34.2385C110.659 34.3383 110.49 34.4994 110.337 34.7065C110.183 34.9136 110.068 35.1668 109.984 35.4583C109.907 35.7499 109.861 35.9723 109.861 36.1258V36.1181Z" fill="#2E5795"/>
<path d="M114.014 38.1588L114.981 33.5481H115.764L114.797 38.1588H114.006H114.014ZM115.158 32.6889L115.342 31.799H116.125L115.941 32.6889H115.158Z" fill="#2E5795"/>
<path d="M119.311 37.5834C119.042 37.8212 118.773 37.99 118.528 38.0974C118.274 38.2048 118.006 38.2585 117.722 38.2585C117.299 38.2585 116.954 38.1357 116.693 37.8826C116.432 37.6294 116.301 37.3149 116.301 36.9236C116.301 36.6628 116.363 36.4403 116.478 36.2408C116.593 36.0414 116.754 35.8803 116.946 35.7652C117.138 35.6424 117.376 35.558 117.66 35.5043C117.837 35.466 118.175 35.443 118.666 35.42C119.157 35.3969 119.51 35.3509 119.725 35.2665C119.787 35.0517 119.817 34.8753 119.817 34.7295C119.817 34.5454 119.748 34.4073 119.618 34.2999C119.434 34.1541 119.173 34.0851 118.819 34.0851C118.489 34.0851 118.221 34.1541 118.013 34.3076C117.806 34.4533 117.653 34.6605 117.553 34.929L116.754 34.8599C116.916 34.3996 117.169 34.0544 117.522 33.8089C117.875 33.5634 118.32 33.4483 118.85 33.4483C119.418 33.4483 119.871 33.5864 120.209 33.8549C120.462 34.0544 120.593 34.3229 120.593 34.6451C120.593 34.8906 120.554 35.1745 120.485 35.5043L120.232 36.6474C120.147 37.008 120.109 37.3072 120.109 37.5373C120.109 37.6831 120.14 37.8902 120.201 38.1587H119.403C119.357 38.0053 119.326 37.8135 119.311 37.5834ZM119.602 35.8189C119.495 35.8649 119.372 35.8956 119.249 35.9186C119.126 35.9416 118.912 35.9646 118.62 35.9953C118.159 36.0337 117.837 36.0874 117.653 36.1488C117.468 36.2101 117.322 36.3099 117.23 36.448C117.138 36.586 117.084 36.7318 117.084 36.9006C117.084 37.1231 117.161 37.2995 117.315 37.4453C117.468 37.591 117.683 37.6601 117.967 37.6601C118.228 37.6601 118.482 37.591 118.72 37.4529C118.958 37.3148 119.15 37.1231 119.288 36.8776C119.426 36.6321 119.533 36.2792 119.61 35.8266L119.602 35.8189ZM118.32 32.988L119.134 31.7913H120.124L118.965 32.988H118.313H118.32Z" fill="#2E5795"/>
<path d="M125.813 37.5219L125.682 38.1664C125.49 38.2124 125.314 38.2431 125.137 38.2431C124.823 38.2431 124.577 38.1664 124.393 38.0129C124.255 37.8979 124.185 37.7368 124.185 37.5373C124.185 37.4376 124.224 37.1997 124.301 36.8392L124.861 34.1618H124.239L124.362 33.5557H124.984L125.222 32.4203L126.12 31.8756L125.767 33.548H126.542L126.412 34.1541H125.644L125.107 36.7011C125.038 37.0233 125.007 37.2151 125.007 37.2841C125.007 37.3762 125.038 37.4452 125.084 37.4989C125.137 37.545 125.229 37.5756 125.345 37.5756C125.521 37.5756 125.675 37.5603 125.813 37.5219Z" fill="#2E5795"/>
<path d="M126.627 38.1588L127.594 33.5481H128.292L128.101 34.4917C128.338 34.1388 128.569 33.8703 128.799 33.7015C129.022 33.5327 129.26 33.4484 129.498 33.4484C129.651 33.4484 129.843 33.5021 130.073 33.6171L129.751 34.3459C129.613 34.2462 129.467 34.2002 129.306 34.2002C129.029 34.2002 128.745 34.3536 128.461 34.6605C128.17 34.9673 127.947 35.5197 127.778 36.3176L127.387 38.1664H126.642L126.627 38.1588Z" fill="#2E5795"/>
<path d="M129.367 39.5703L129.551 38.6804H130.442L130.25 39.5703H129.367ZM129.736 38.1588L130.703 33.5481H131.486L130.519 38.1588H129.728H129.736ZM130.879 32.6889L131.064 31.799H131.847L131.662 32.6889H130.879Z" fill="#2E5795"/>
<path d="M134.564 38.1588L135.532 33.5481H136.315L136.153 34.3076C136.445 33.9777 136.706 33.7552 136.936 33.6325C137.167 33.5097 137.412 33.4484 137.689 33.4484C137.973 33.4484 138.218 33.5251 138.41 33.6785C138.602 33.8319 138.733 34.0391 138.794 34.3153C139.024 34.0237 139.278 33.8089 139.531 33.6632C139.792 33.5174 140.061 33.4484 140.352 33.4484C140.736 33.4484 141.028 33.5404 141.22 33.7245C141.412 33.9087 141.512 34.1618 141.512 34.4917C141.512 34.6375 141.481 34.8676 141.412 35.1975L140.79 38.1664H139.999L140.637 35.1208C140.69 34.8753 140.721 34.6912 140.721 34.5838C140.721 34.4303 140.675 34.3153 140.575 34.2309C140.483 34.1465 140.345 34.1005 140.168 34.1005C139.938 34.1005 139.692 34.1695 139.454 34.3153C139.216 34.461 139.024 34.6451 138.886 34.8753C138.748 35.1054 138.633 35.4583 138.533 35.934L138.065 38.1664H137.282L137.934 35.0517C137.98 34.8369 138.003 34.6912 138.003 34.5991C138.003 34.4457 137.957 34.3306 137.865 34.2309C137.773 34.1388 137.65 34.0928 137.497 34.0928C137.274 34.0928 137.036 34.1618 136.798 34.3076C136.553 34.4457 136.353 34.6451 136.199 34.8983C136.046 35.1515 135.923 35.512 135.823 35.98L135.37 38.1588H134.587H134.564Z" fill="#2E5795"/>
<path d="M146.816 34.438L147 33.5481H147.899L147.737 34.3229C147.569 35.1284 147.208 35.5887 146.655 35.7038C146.617 36.1104 146.517 36.4863 146.348 36.8469C146.141 37.2918 145.834 37.6447 145.427 37.8979C145.043 38.1434 144.628 38.2661 144.183 38.2661C143.4 38.2661 142.855 37.9746 142.533 37.3839C142.379 37.1 142.295 36.7778 142.295 36.4096C142.295 35.512 142.563 34.7679 143.093 34.1771C143.531 33.6938 144.106 33.4483 144.813 33.4483C145.373 33.4483 145.818 33.6248 146.156 33.97C146.494 34.3152 146.663 34.7832 146.663 35.3663C146.977 35.2512 147.192 34.9443 147.3 34.438H146.816ZM143.085 36.3329C143.085 36.7548 143.185 37.0847 143.4 37.3225C143.6 37.545 143.861 37.6601 144.198 37.6601C144.559 37.6601 144.874 37.522 145.158 37.2458C145.427 36.985 145.626 36.6321 145.765 36.1948C145.857 35.9033 145.895 35.6271 145.895 35.3663C145.895 34.9597 145.795 34.6374 145.58 34.392C145.381 34.1618 145.112 34.0467 144.782 34.0467C144.298 34.0467 143.891 34.2769 143.561 34.7372C143.239 35.1745 143.085 35.7038 143.085 36.3252V36.3329ZM144.321 32.988L145.135 31.7913H146.125L144.966 32.988H144.314H144.321Z" fill="#2E5795"/>
<path d="M147.684 38.1588L148.651 33.5481H149.442L148.474 38.1588H147.691H147.684ZM148.828 32.6889L149.012 31.799H149.795L149.611 32.6889H148.828Z" fill="#2E5795"/>
</g>
<defs>
<clipPath id="clip0_4_2083">
<rect width="151" height="40" fill="white"/>
</clipPath>
</defs>
</svg>
