<svg xmlns="http://www.w3.org/2000/svg" width="111" height="40" fill="none" viewBox="0 0 111 40"><g clip-path="url(#clip0_11_465)"><path fill="url(#paint0_linear_11_465)" d="M89.7828 0.817282C90.202 0.490435 90.6419 0.155935 91.1625 0.0149208C91.3175 -0.0266184 91.5981 0.0116414 91.5992 0.218244C91.6592 1.08838 91.561 1.96617 91.6788 2.83302C91.8229 4.1743 92.1176 5.58554 93.0203 6.63604C93.3653 7.06018 93.863 7.30176 94.316 7.59035C92.7202 7.84068 91.1134 8.02104 89.5023 8.11068C88.7503 8.11943 87.9731 8.18501 87.2483 7.94671C86.7451 7.81116 86.35 7.37719 86.2725 6.86123C86.1077 5.89162 86.517 4.94715 86.9645 4.1109C87.6969 2.85707 88.6618 1.7388 89.7828 0.817282Z"/><path fill="url(#paint1_linear_11_465)" d="M110.396 5.49475C110.586 5.40074 110.797 5.41932 111 5.45649C110.998 5.75929 110.93 6.05881 110.789 6.32881C109.393 9.25951 107.797 12.1104 105.815 14.6869C104.568 16.2982 103.16 17.8133 101.468 18.9655C100.135 19.8673 98.5642 20.533 96.9302 20.4849C96.1203 20.4663 95.4151 19.9897 94.8224 19.4803C93.6643 18.4386 92.8315 17.0885 92.1602 15.6948C91.263 13.8266 90.7161 11.7945 90.5294 9.73174C95.2853 9.547 99.993 8.67796 104.58 7.43069C106.545 6.87429 108.507 6.27962 110.396 5.49475Z"/><path fill="#BE1128" d="M1.45174 11.9356C2.12958 11.8678 2.81397 11.9192 3.494 11.9082C3.5071 14.0486 3.48418 16.189 3.50491 18.3304C5.8266 18.3238 8.14829 18.3206 10.47 18.3304C10.4918 16.189 10.4711 14.0475 10.4798 11.9061C11.6685 11.9104 12.8582 11.8886 14.0469 11.9192C14.0284 17.6658 14.0295 23.4124 14.0469 29.159C12.8593 29.1874 11.6707 29.1656 10.4831 29.1721C10.4743 26.6142 10.4853 24.0573 10.4776 21.4994C8.15156 21.4841 5.82551 21.483 3.49946 21.4994C3.494 24.0562 3.50601 26.6131 3.49291 29.1699C2.32933 29.1732 1.16467 29.1688 0.00109863 29.171V13.2681C0.247785 12.6363 0.741157 12.0263 1.45284 11.9356H1.45174Z"/><path fill="#BE1128" d="M15.7639 13.6518C15.7552 12.7073 16.6262 11.8732 17.5671 11.9071C19.2088 11.9093 20.8515 11.8951 22.4943 11.9148C24.3772 11.9749 26.3627 12.493 27.7173 13.8791C29.0566 15.2772 29.5794 17.2471 29.7453 19.1295C29.9134 21.4316 29.7213 23.8901 28.4912 25.9014C27.4695 27.6493 25.568 28.8048 23.5727 29.0322C21.835 29.2289 20.0831 29.1612 18.3377 29.1732C17.4754 29.1655 16.6131 29.1896 15.7519 29.159C15.7781 23.9895 15.7541 18.8212 15.7639 13.6518ZM19.223 14.9384C19.2295 18.6364 19.2284 22.3334 19.2241 26.0315C20.5797 26.0228 21.9682 26.1758 23.2966 25.8271C24.3237 25.556 25.2471 24.8334 25.6575 23.8376C26.2295 22.4526 26.2197 20.9178 26.1487 19.4454C26.0341 18.2101 25.7558 16.8918 24.8716 15.9659C24.125 15.1745 22.9898 14.9176 21.9376 14.9209C21.0327 14.9318 20.1278 14.9012 19.223 14.9384Z"/><path fill="#464646" d="M31.5169 13.7644C31.458 12.7936 32.3061 11.8798 33.2841 11.9071C35.251 11.9027 37.2191 11.9082 39.186 11.9049C40.1727 11.894 41.1791 11.9268 42.1233 12.2416C42.9114 12.4865 43.6711 12.915 44.1677 13.5905C44.8543 14.4661 45.0824 15.6238 44.9929 16.7158C44.9329 17.5149 44.6753 18.3271 44.1241 18.925C43.8086 19.3076 43.372 19.5525 42.9812 19.8476C43.9178 20.2827 44.8096 20.9637 45.2091 21.9465C45.6129 22.962 45.6271 24.0956 45.4405 25.1603C45.2156 26.4393 44.445 27.6384 43.3 28.2735C42.0622 28.9994 40.5941 29.159 39.186 29.1743C36.6329 29.1721 34.0787 29.1754 31.5256 29.1721C31.5016 24.0365 31.5202 18.8999 31.5169 13.7644ZM34.9159 14.9362C34.8974 16.1485 34.9017 17.3608 34.9137 18.5731C36.2651 18.5763 37.6164 18.5731 38.9677 18.5741C39.5779 18.5741 40.2262 18.5162 40.7502 18.1741C41.1311 17.9281 41.3592 17.493 41.3985 17.0459C41.4749 16.425 41.3472 15.6981 40.8091 15.31C40.2732 14.9449 39.5899 14.9438 38.9655 14.9231C37.6164 14.9307 36.2651 14.9045 34.9159 14.9362ZM34.9181 21.5398C34.8952 23.0374 34.9017 24.5361 34.9148 26.0348C36.3011 26.0643 37.6895 26.037 39.0758 26.0479C39.8595 26.0577 40.6999 25.9299 41.3232 25.4161C41.8133 25.004 41.9225 24.3164 41.9159 23.7086C41.9148 23.0877 41.7151 22.4154 41.1988 22.0306C40.6246 21.6076 39.8791 21.577 39.1936 21.5464C37.7681 21.5322 36.3436 21.5464 34.9181 21.5398Z"/><path fill="#464646" d="M74.3453 11.9115C74.962 11.906 75.5798 11.8973 76.1976 11.9082C77.0108 11.9115 77.7509 12.6297 77.7956 13.4397C77.8294 15.7724 77.764 18.1074 77.8284 20.439C79.2342 18.6998 80.5965 16.9235 81.9882 15.1723C83.3657 15.1592 84.7454 15.1461 86.1229 15.1788C84.6068 17.0831 83.0601 18.9644 81.5243 20.8533C81.4315 20.9397 81.5483 21.0588 81.5799 21.1474C82.7151 23.1095 83.8405 25.0772 84.9768 27.0394C85.3665 27.7521 85.8151 28.432 86.1666 29.1644C84.7836 29.1699 83.3973 29.1961 82.0155 29.1513C81.3998 27.9182 80.7209 26.718 80.0802 25.498C79.7855 24.9635 79.5322 24.3983 79.1502 23.9185C78.993 23.7403 78.8195 23.5381 78.5771 23.4856C78.2093 23.4648 77.7781 23.7359 77.8098 24.1447C77.7945 25.8183 77.8032 27.493 77.8065 29.1666C76.6528 29.1786 75.499 29.1743 74.3453 29.1688C74.3507 23.4167 74.3507 17.6646 74.3453 11.9115Z"/><path fill="#464646" d="M49.9485 15.791C51.4111 15.0772 53.0943 15.1012 54.6781 15.2324C55.9028 15.3745 57.2017 15.6762 58.1164 16.5616C58.7899 17.1804 59.1173 18.1084 59.0922 19.0135C59.0813 22.411 59.1075 25.8074 59.0791 29.2048C58.4537 29.2114 57.8239 29.2519 57.2006 29.1863C56.6832 29.1141 56.3208 28.6944 56.0905 28.256C54.6912 29.1108 52.9982 29.2245 51.4002 29.1469C50.288 29.0485 49.1746 28.6386 48.3341 27.8887C47.5329 27.1345 47.2502 25.9834 47.2775 24.9143C47.26 23.8583 47.5395 22.6919 48.4029 22.0076C49.5097 21.1484 50.9112 20.7658 52.2855 20.627C53.2929 20.4303 54.4183 20.4598 55.2795 19.8257C55.8067 19.4486 55.691 18.5216 55.0896 18.2844C54.2448 17.939 53.2886 17.8658 52.3946 18.0352C51.8794 18.1237 51.41 18.4254 51.1601 18.8911C49.9921 18.9228 48.8231 18.902 47.6552 18.902C47.7731 17.5389 48.7445 16.3725 49.9485 15.791ZM52.4066 23.0636C51.8008 23.2254 51.0673 23.4593 50.8381 24.113C50.5783 24.7623 50.6602 25.6248 51.2365 26.0818C51.7975 26.5004 52.5441 26.4622 53.2045 26.3846C54.0974 26.2752 54.951 25.7429 55.3494 24.9209C55.7827 24.0715 55.6594 23.0898 55.6648 22.1716C54.6213 22.6132 53.5069 22.8231 52.4066 23.0636Z"/><path fill="#464646" d="M62.7369 16.3594C64.1995 15.4597 65.9678 15.0017 67.6793 15.2444C68.7752 15.3712 69.8318 15.7724 70.7683 16.3517C71.4222 16.7562 71.8937 17.4088 72.1633 18.1215C72.5661 19.1687 72.6272 20.3056 72.6174 21.4162C72.6087 24.0015 72.6327 26.5868 72.6065 29.172C71.9788 29.1676 71.3512 29.1873 70.7247 29.1655C70.1178 29.1523 69.5087 28.8025 69.2598 28.2352C69.0928 27.8821 69.095 27.4831 69.0961 27.1005C69.1016 24.841 69.095 22.5804 69.0994 20.3209C69.1048 19.7634 68.9848 19.1655 68.594 18.7468C67.6487 17.7706 65.9187 17.7269 64.9407 18.6779C64.4768 19.1305 64.3796 19.8137 64.3851 20.4335C64.3872 23.3445 64.3807 26.2566 64.3883 29.1687C63.1997 29.1731 62.011 29.1819 60.8234 29.1633C60.8354 26.4359 60.8267 23.7074 60.8278 20.979C60.8201 19.8421 60.9587 18.6626 61.5078 17.6493C61.7905 17.1158 62.2195 16.6676 62.7369 16.3594Z"/><path fill="#464646" d="M1.53469 33.5668C2.13394 33.2247 2.83907 33.2356 3.50709 33.2476C3.506 33.4826 3.50491 33.7166 3.50272 33.9516C2.57165 33.8641 1.50413 34.1527 1.03914 35.036C0.523935 35.9575 0.788086 37.2879 1.71916 37.841C2.24855 38.1908 2.90675 38.1361 3.51146 38.1449C3.51146 38.3701 3.51146 38.5974 3.51036 38.8237C2.76703 38.8631 1.96694 38.8805 1.31202 38.4706C0.569779 38.0618 0.142991 37.2594 0 36.4461V35.5683C0.237954 34.7387 0.743333 33.956 1.53469 33.5668Z"/><path fill="#464646" d="M18.8879 33.2477H19.5537C19.6039 34.2971 19.5734 35.3498 19.5679 36.4014C19.8386 36.4254 20.1726 36.4757 20.368 36.2341C20.6594 35.857 20.8603 35.4186 21.1059 35.012C21.3787 35.0065 21.6516 35.0022 21.9245 34.9956C21.5981 35.5356 21.3427 36.1336 20.8843 36.5796C21.2314 36.6965 21.5861 36.9217 21.656 37.312C21.7324 37.8093 21.6724 38.3155 21.6986 38.8172C21.4584 38.8369 21.2183 38.8369 20.9792 38.8172C20.9585 38.3297 21.0818 37.8028 20.8788 37.3437C20.5699 36.9501 20.0023 37.1403 19.5734 37.0879C19.5766 37.6683 19.5875 38.2488 19.5657 38.8292C19.3354 38.8314 19.1051 38.8314 18.8748 38.8292C18.8715 36.9687 18.8464 35.1071 18.8879 33.2477Z"/><path fill="#464646" d="M25.926 33.2772C26.1542 33.1755 26.4194 33.2378 26.6628 33.2247C26.4074 33.5592 26.1105 33.8576 25.8311 34.1714C25.6892 34.1779 25.5484 34.1845 25.4087 34.19C25.5418 33.8653 25.7143 33.5559 25.926 33.2772Z"/><path fill="#464646" d="M34.3679 33.2477C34.5873 33.2477 34.8078 33.2477 35.0283 33.2466C35.0589 35.1071 35.0382 36.9687 35.0392 38.8292C34.8111 38.8314 34.583 38.8314 34.3559 38.8292C34.3439 36.9687 34.321 35.1071 34.3679 33.2477Z"/><path fill="#464646" d="M52.8148 33.2477C53.0342 33.2477 53.2547 33.2477 53.4752 33.2466C53.5014 33.9254 53.485 34.6053 53.4894 35.2853C54.2665 34.6283 55.7739 34.8633 55.9912 35.9652C56.156 36.9009 56.0152 37.8629 56.0752 38.8085C55.8351 38.8347 55.5928 38.838 55.3526 38.8249C55.3559 38.1231 55.3592 37.4202 55.357 36.7173C55.3526 36.3948 55.3286 36.0221 55.0645 35.798C54.5569 35.3716 53.6487 35.6427 53.5287 36.3194C53.4359 37.1513 53.5188 37.993 53.4861 38.8292C53.258 38.8314 53.0298 38.8314 52.8028 38.8292C52.7908 36.9687 52.7668 35.106 52.8148 33.2477Z"/><path fill="#464646" d="M81.783 33.2499C82.0187 33.251 82.2545 33.251 82.4903 33.2521C82.4848 33.9123 82.4728 34.5726 82.4979 35.2317C83.0742 34.8918 83.8241 34.7923 84.4179 35.1476C84.8851 35.4176 85.0412 35.9936 85.0532 36.4998C85.0674 37.2759 85.0674 38.052 85.0488 38.8281C84.8174 38.8314 84.586 38.8314 84.3568 38.8292C84.323 38.0181 84.3677 37.2059 84.3361 36.3948C84.3317 35.9947 84.0097 35.6395 83.6091 35.61C83.0655 35.4941 82.5023 35.9434 82.4957 36.4998C82.4674 37.2693 82.4881 38.0411 82.4925 38.8117C82.2545 38.8369 82.0155 38.8369 81.7786 38.8183C81.7939 36.9622 81.7851 35.106 81.783 33.2499Z"/><path fill="#464646" d="M89.3986 33.2192C89.6246 33.2214 89.8527 33.2236 90.0808 33.2302C89.8276 33.5647 89.5329 33.8642 89.2491 34.1724C89.1072 34.1779 88.9674 34.1845 88.8277 34.1888C88.9587 33.8336 89.1814 33.5253 89.3986 33.2192Z"/><path fill="#464646" d="M47.439 33.6193C47.6672 33.5516 47.9095 33.5811 48.1453 33.5734C47.8986 33.9036 47.6344 34.2238 47.3266 34.4971C47.1683 34.5419 47.0013 34.5288 46.8409 34.5398C47.0374 34.2315 47.2131 33.9079 47.439 33.6193Z"/><path fill="#464646" d="M24.2451 33.6631C24.4525 33.6631 24.661 33.6653 24.8706 33.6675C25.0998 33.9845 25.329 34.3026 25.5353 34.636C25.3661 34.6327 25.1959 34.636 25.0288 34.6174C24.8433 34.448 24.7123 34.2315 24.5584 34.0358C24.4001 34.2293 24.2473 34.4261 24.0989 34.6272C23.9242 34.6272 23.7496 34.6294 23.576 34.6294C23.7801 34.2949 24.0104 33.9768 24.2451 33.6631Z"/><path fill="#464646" d="M87.6882 33.7013C87.8825 33.6794 88.079 33.686 88.2765 33.686C88.5112 33.9964 88.7393 34.3123 88.9544 34.6381C88.7775 34.6414 88.6007 34.6447 88.4261 34.6479C88.2776 34.4501 88.1303 34.2522 87.9764 34.0609C87.817 34.2489 87.6685 34.4457 87.5245 34.6468C87.3476 34.6447 87.1719 34.6425 86.9984 34.6403C87.2199 34.3222 87.4066 33.9713 87.6882 33.7013Z"/><path fill="#464646" d="M41.6715 33.8467C41.8213 33.7942 42.0126 33.7549 42.1514 33.8576C42.3099 34.0085 42.2323 34.238 42.2257 34.4271C42.0191 34.473 41.8092 34.4719 41.6026 34.426C41.595 34.2315 41.548 34.0172 41.6715 33.8467Z"/><path fill="#464646" d="M27.702 34.062C27.9301 34.0576 28.1593 34.0576 28.3886 34.062C28.394 34.3714 28.3951 34.6818 28.3951 34.9912C28.8525 35.0141 29.3098 35.0097 29.7682 35.001C29.7661 35.2338 29.765 35.4667 29.765 35.6995C29.3065 35.682 28.8492 35.6776 28.3918 35.7072C28.4017 36.3379 28.3875 36.9697 28.3962 37.6016C28.3995 37.7885 28.4071 38.0498 28.6265 38.1164C29.0009 38.1984 29.3884 38.1569 29.7693 38.1678C29.7683 38.381 29.7683 38.5941 29.7693 38.8073C29.2039 38.8215 28.5228 38.9822 28.0545 38.5734C27.6823 38.2498 27.6769 37.7196 27.6856 37.266C27.6987 36.198 27.6736 35.13 27.7009 34.062H27.702Z"/><path fill="#464646" d="M91.1156 34.062C91.3448 34.0577 91.5751 34.0577 91.8065 34.0609C91.8109 34.3714 91.813 34.6807 91.813 34.9912C92.2693 35.0141 92.7277 35.0098 93.1862 35.001C93.1829 35.2339 93.1818 35.4667 93.1818 35.7006C92.7245 35.6821 92.266 35.6777 91.8098 35.7072C91.8272 36.4046 91.7901 37.1042 91.8261 37.8005C91.8218 37.9722 91.9593 38.1274 92.134 38.1372C92.4822 38.1853 92.8358 38.1624 93.1873 38.1678C93.1851 38.381 93.1862 38.5942 93.1884 38.8073C92.683 38.8292 92.1329 38.9287 91.6591 38.7089C91.2618 38.4947 91.0926 38.0268 91.1046 37.595C91.1079 36.4177 91.0904 35.2393 91.1156 34.062Z"/><path fill="#464646" d="M5.16623 35.224C5.89755 34.7846 6.92032 34.8141 7.60362 35.3355C8.02276 35.6602 8.21924 36.1991 8.21924 36.7194C8.22361 37.4212 8.22906 38.1252 8.20942 38.827C7.9791 38.8313 7.7477 38.8313 7.51739 38.8292C7.477 38.0301 7.55013 37.2277 7.48355 36.4308C7.32746 35.6929 6.37783 35.4219 5.74801 35.7039C4.99158 36.0406 4.78747 37.1337 5.28957 37.7655C5.58319 38.1569 6.12896 38.3427 6.59613 38.1864C6.82754 38.0978 7.01746 37.9317 7.22049 37.7929C7.22704 38.0476 7.25542 38.3066 7.20957 38.5591C6.53173 39.1462 5.40855 38.9855 4.83877 38.3219C4.04086 37.4638 4.13364 35.8602 5.16623 35.224Z"/><path fill="#464646" d="M9.32386 36.1805C9.33696 35.5574 9.86417 35.0065 10.4776 34.9387C10.9677 34.8512 11.4523 35.0589 11.7962 35.4044C12.1051 35.1486 12.4587 34.9026 12.8801 34.9245C13.5819 34.8709 14.2827 35.4459 14.2925 36.1663C14.3122 37.0539 14.2925 37.9437 14.298 38.8313C14.0556 38.8379 13.8122 38.8313 13.571 38.8029C13.5939 38.0727 13.5776 37.3414 13.5874 36.6112C13.5797 36.3499 13.5983 36.058 13.4269 35.8405C13.1999 35.5366 12.7327 35.5355 12.4369 35.7367C12.2131 35.9181 12.1575 36.2242 12.1586 36.4986C12.1498 37.2758 12.1782 38.053 12.1466 38.8302C11.9173 38.8313 11.6881 38.8313 11.46 38.8291C11.448 38.0508 11.4654 37.2714 11.4545 36.4931C11.4567 36.187 11.3781 35.8329 11.0878 35.6755C10.7898 35.5333 10.3575 35.5738 10.1698 35.8744C10.0268 36.0898 10.0355 36.3598 10.0257 36.6079C10.0246 37.3469 10.0257 38.0869 10.0301 38.8259C9.78994 38.8379 9.54981 38.8335 9.31076 38.804C9.33805 37.9295 9.30858 37.055 9.32386 36.1805Z"/><path fill="#464646" d="M23.0117 35.7192C23.6481 34.8206 25.0769 34.6468 25.9054 35.3716C26.1553 35.5771 26.3311 35.8547 26.4555 36.151C25.5954 36.6145 24.7527 37.1129 23.8849 37.5633C23.8184 37.3654 23.4647 37.0637 23.7638 36.9205C24.2943 36.5992 24.852 36.3259 25.3869 36.0143C25.4655 35.8416 25.2603 35.776 25.1467 35.7028C24.7243 35.518 24.1818 35.5672 23.8249 35.8711C23.1361 36.4319 23.2333 37.7098 24.0421 38.1131C24.4231 38.2979 24.8957 38.2826 25.2723 38.0946C25.651 37.8869 25.7907 37.4474 25.901 37.0572C26.1226 37.0703 26.3463 37.078 26.5646 37.1271C26.6596 37.4092 26.4751 37.712 26.3551 37.9656C25.7809 38.9997 24.2462 39.2249 23.3566 38.4761C22.5293 37.8421 22.3874 36.5401 23.0117 35.7192Z"/><path fill="#464646" d="M36.9429 35.3531C37.6862 34.7431 38.8803 34.7824 39.5636 35.4667C39.6902 35.5684 39.7852 35.7214 39.9457 35.775C40.0581 35.7335 40.1705 35.6897 40.2818 35.6427C40.1782 35.4219 40.1268 35.1847 40.1345 34.942C40.2928 34.9377 40.4521 34.9355 40.6126 34.9355C40.6038 35.1891 40.6322 35.4514 40.5667 35.6996C40.4827 35.916 40.2305 35.9772 40.0526 36.092C40.2338 36.7599 40.2491 37.5295 39.8103 38.1045C39.163 39.0522 37.6764 39.19 36.849 38.4051C35.9605 37.6344 36.0009 36.0647 36.9429 35.3531ZM37.7997 35.6569C36.8708 35.9259 36.6722 37.2803 37.3391 37.9121C37.7397 38.3001 38.4099 38.3482 38.8749 38.0509C39.5975 37.5809 39.6422 36.3784 38.96 35.8537C38.6402 35.5946 38.1872 35.5356 37.7997 35.6569Z"/><path fill="#464646" d="M41.584 35.001C41.8045 35.001 42.0239 35.001 42.2455 34.9999C42.3001 36.2745 42.2706 37.5524 42.2608 38.828C42.0294 38.8313 41.7991 38.8313 41.5688 38.8291C41.5589 37.5534 41.5295 36.2745 41.584 35.001Z"/><path fill="#464646" d="M47.0755 35.0032C47.3102 35.0032 47.5449 35.0032 47.7796 35.0021C47.7818 36.2734 47.7698 37.5458 47.7861 38.8171C47.5482 38.8379 47.3091 38.8368 47.0723 38.8116C47.0875 37.5425 47.0799 36.2723 47.0755 35.0032Z"/><path fill="#464646" d="M50.0664 35.3716C50.5772 34.9813 51.2419 34.9857 51.8543 34.9977C51.8663 35.2317 51.863 35.4656 51.8401 35.6995C51.3685 35.6777 50.8315 35.6416 50.4484 35.9728C49.8557 36.4254 49.859 37.4496 50.4735 37.8825C50.8588 38.2061 51.3882 38.1646 51.8586 38.1656C51.863 38.3843 51.8652 38.604 51.8685 38.8237C51.1863 38.8871 50.4255 38.8401 49.8993 38.3449C49.0087 37.5983 49.0829 36.0067 50.0664 35.3716Z"/><path fill="#464646" d="M61.8494 35.1432C62.2806 34.9606 62.7565 35.012 63.2128 34.9978C63.2335 35.2306 63.2324 35.4657 63.2007 35.6996C62.7259 35.6766 62.1889 35.6428 61.8058 35.9783C61.2262 36.4353 61.2185 37.441 61.8265 37.8771C62.214 38.2029 62.7456 38.1668 63.2193 38.1646C63.2259 38.3832 63.2291 38.603 63.2291 38.8227C62.6943 38.8544 62.1234 38.8784 61.6399 38.6073C60.9959 38.2794 60.58 37.5536 60.6411 36.8288C60.6422 36.0833 61.1639 35.4055 61.8494 35.1432Z"/><path fill="#464646" d="M64.5554 35.4557C65.1219 34.8971 66.0093 34.8097 66.7417 35.0371C67.3748 35.2316 67.8595 35.8296 67.8933 36.4975C67.9282 37.2736 67.9064 38.0519 67.9009 38.8291C67.6717 38.8313 67.4436 38.8313 67.2154 38.828C67.1707 38.0312 67.246 37.2299 67.1794 36.4352C66.9655 35.5454 65.6567 35.318 65.0684 35.9684C64.4604 36.6013 64.6351 37.8169 65.4821 38.1503C65.9907 38.3952 66.53 38.1306 66.9175 37.7907C66.9229 38.0497 66.9229 38.311 66.9207 38.5712C66.2767 39.0598 65.3118 39.0259 64.706 38.4935C63.8241 37.7622 63.7422 36.2679 64.5554 35.4557Z"/><path fill="#464646" d="M70.2237 35.0131C70.9779 34.7737 71.8643 35.0076 72.3707 35.6252C73.1282 36.5107 72.9121 38.0487 71.8839 38.6325C70.9201 39.2457 69.4771 38.8358 69.0295 37.77C68.5274 36.726 69.0961 35.3356 70.2237 35.0131ZM70.4365 35.658C69.5393 35.9215 69.3308 37.2015 69.9257 37.8531C70.3678 38.3504 71.2268 38.3745 71.6983 37.9077C72.1459 37.4716 72.1939 36.7326 71.909 36.1959C71.6328 35.6865 70.9725 35.481 70.4365 35.658Z"/><path fill="#464646" d="M77.7826 35.4755C78.4036 34.719 79.7419 34.7343 80.328 35.5258C80.566 35.8319 80.6762 36.2199 80.6686 36.6058C80.6707 37.3469 80.6697 38.0881 80.6653 38.8292C80.4372 38.8314 80.209 38.8314 79.982 38.8292C79.9482 38.0553 79.9896 37.2803 79.9645 36.5063C79.9503 35.9893 79.4471 35.5159 78.9221 35.61C78.4822 35.6548 78.1275 36.0614 78.1187 36.5009C78.0958 37.2682 78.1089 38.0378 78.1209 38.8063C77.8786 38.8325 77.6352 38.838 77.394 38.8303C77.3983 38.087 77.3852 37.3448 77.3972 36.6036C77.4027 36.1992 77.5195 35.787 77.7826 35.4755Z"/><path fill="#464646" d="M86.5934 35.4404C87.1632 34.8884 88.0539 34.8108 88.7819 35.0469C89.4041 35.2513 89.8767 35.846 89.9084 36.5051C89.9389 37.2769 89.9051 38.0497 89.9247 38.8215C89.6846 38.839 89.4445 38.8368 89.2076 38.8084C89.2174 38.0749 89.2316 37.3414 89.2087 36.609C89.2054 36.0253 88.6367 35.6131 88.0899 35.6022C87.5015 35.5312 86.9045 35.9356 86.7789 36.5194C86.5552 37.2058 86.947 38.065 87.6849 38.2093C88.1696 38.3558 88.6291 38.0727 88.9402 37.7207C88.9304 38.0006 88.9282 38.2804 88.9304 38.5602C88.3453 39.0336 87.4688 39.027 86.8608 38.604C85.8555 37.9197 85.7049 36.2789 86.5934 35.4404Z"/><path fill="#464646" d="M37.9911 40C37.6413 39.8131 37.7342 39.1987 38.1703 39.2752C38.5562 39.3288 38.4589 39.7595 38.319 40H37.9911Z"/></g><defs><linearGradient id="paint0_linear_11_465" x1="86.235" x2="94.316" y1="4.063" y2="4.063" gradientUnits="userSpaceOnUse"><stop stop-color="#F9A51A"/><stop offset=".5" stop-color="#FFDC00"/><stop offset="1" stop-color="#FFDC00"/></linearGradient><linearGradient id="paint1_linear_11_465" x1="90.529" x2="111" y1="12.957" y2="12.957" gradientUnits="userSpaceOnUse"><stop stop-color="#F9A51A"/><stop offset=".5" stop-color="#FFDC00"/><stop offset="1" stop-color="#FFDC00"/></linearGradient><clipPath id="clip0_11_465"><rect width="111" height="40" fill="#fff"/></clipPath></defs></svg>