<svg width="240" height="80" viewBox="0 0 240 80" fill="none" xmlns="http://www.w3.org/2000/svg">
<path d="M105.76 20H65.7754V59.8167H105.76V20Z" fill="white"/>
<path d="M125.676 39.9007L105.775 20V60L125.676 39.9007Z" fill="#DB0011"/>
<path d="M85.6761 39.9007L105.775 20H65.7754L85.6761 39.9007Z" fill="#DB0011"/>
<path d="M45.6761 39.9007L65.7754 60V20L45.6761 39.9007Z" fill="#DB0011"/>
<path d="M85.6761 39.9006L65.7754 59.9999H105.775L85.6761 39.9006Z" fill="#DB0011"/>
<path d="M143.27 41.2452H136.073V48.2735H132.376V31.5355H136.073V38.411H143.27V31.5355H146.952V48.2735H143.27V41.2452Z" fill="black"/>
<path d="M155.638 48.6172C151.956 48.6172 149.114 47.097 148.946 43.0786H152.628C152.628 44.935 153.644 46.1038 155.638 46.1038C157.158 46.1038 158.831 45.2559 158.831 43.5828C158.831 42.2459 157.662 41.9251 155.821 41.4209L154.652 41.0694C151.963 40.2444 149.297 39.2283 149.297 36.2184C149.297 32.5515 152.811 31.2146 155.989 31.2146C159.167 31.2146 162.017 32.3834 162.17 36.0656H158.487C158.335 34.5454 157.479 33.7203 155.638 33.7203C154.469 33.7203 152.972 34.3926 152.972 35.8823C152.972 37.0511 154.141 37.5553 156.486 38.2276L157.976 38.7318C160.833 39.5798 162.666 40.5729 162.666 43.4148C162.666 47.097 158.999 48.6172 155.638 48.6172Z" fill="black"/>
<path d="M170.886 45.7754C172.559 45.7754 174.217 45.424 174.217 43.4148C174.217 41.2376 172.727 40.9167 171.039 40.9167H168.189V45.7678H170.886V45.7754ZM170.535 38.5791C172.223 38.5791 173.728 38.2277 173.728 36.3866C173.728 34.5455 172.223 34.0413 170.703 34.0413H168.189V38.5714H170.535V38.5791ZM164.675 31.5355H170.535C171.551 31.5355 172.727 31.5355 173.896 31.7036C175.737 32.2078 177.41 33.56 177.41 35.89C177.41 38.0672 176.058 39.0833 174.049 39.5875C176.241 39.9083 177.914 41.2452 177.914 43.5905C177.914 47.4561 174.217 48.2735 171.39 48.2735H164.683V31.5355H164.675Z" fill="black"/>
<path d="M187.441 48.6172C181.918 48.6172 179.572 45.2559 179.572 40.0687C179.572 34.8815 182.269 31.2146 187.624 31.2146C190.955 31.2146 194.156 32.7043 194.316 36.5698H190.466C190.283 34.7135 189.114 33.8808 187.624 33.8808C184.263 33.8808 183.262 37.563 183.262 40.252C183.262 42.9411 184.263 45.9281 187.448 45.9281C189.121 45.9281 190.29 45.1031 190.642 43.4148H194.324C193.973 47.265 190.795 48.6172 187.448 48.6172H187.441Z" fill="black"/>
</svg>
