<svg width="149" height="40" viewBox="0 0 149 40" fill="none" xmlns="http://www.w3.org/2000/svg">
<g clip-path="url(#clip0_4_2088)">
<path d="M60 0H20V40H60V0Z" fill="white"/>
<path d="M80 19.9007L60 0V40L80 19.9007Z" fill="#DB0011"/>
<path d="M39.9007 20L60 0H20L39.9007 20Z" fill="#DB0011"/>
<path d="M0 19.9007L20 40V0L0 19.9007Z" fill="#DB0011"/>
<path d="M39.9007 20L20 40H60L39.9007 20Z" fill="#DB0011"/>
<path d="M98.2107 21.8617H90.805V29H87V12H90.805V18.9831H98.2107V12H102V29H98.2107V21.8617Z" fill="black"/>
<path d="M110.829 28C107.071 28 104.171 26.5149 104 22.5896H107.757C107.757 24.403 108.794 25.5448 110.829 25.5448C112.38 25.5448 114.087 24.7164 114.087 23.0821C114.087 21.7761 112.894 21.4627 111.016 20.9701L109.823 20.6269C107.079 19.8209 104.359 18.8284 104.359 15.8881C104.359 12.306 107.944 11 111.187 11C114.43 11 117.337 12.1418 117.493 15.7388H113.736C113.58 14.2537 112.707 13.4478 110.829 13.4478C109.636 13.4478 108.108 14.1045 108.108 15.5597C108.108 16.7015 109.301 17.194 111.694 17.8507L113.214 18.3433C116.129 19.1716 118 20.1418 118 22.9179C118 26.5149 114.258 28 110.829 28Z" fill="black"/>
<path d="M125.099 26.4628C126.741 26.4628 128.369 26.1059 128.369 24.0653C128.369 21.8539 126.907 21.5281 125.249 21.5281H122.451V26.455H125.099V26.4628ZM124.754 19.1538C126.411 19.1538 127.889 18.7969 127.889 16.927C127.889 15.0571 126.411 14.545 124.919 14.545H122.451V19.1461H124.754V19.1538ZM119 12H124.754C125.751 12 126.907 12 128.054 12.1707C129.862 12.6828 131.505 14.0561 131.505 16.4226C131.505 18.634 130.177 19.6659 128.204 20.178C130.357 20.5039 132 21.8617 132 24.2437C132 28.1698 128.369 29 125.594 29H119.007V12H119Z" fill="black"/>
<path d="M142.001 28C136.385 28 134 24.7164 134 19.6493C134 14.5821 136.742 11 142.187 11C145.574 11 148.829 12.4552 148.992 16.2313H145.077C144.891 14.4179 143.702 13.6045 142.187 13.6045C138.77 13.6045 137.752 17.2015 137.752 19.8284C137.752 22.4552 138.77 25.3731 142.009 25.3731C143.71 25.3731 144.898 24.5672 145.256 22.9179H149C148.643 26.6791 145.411 28 142.009 28H142.001Z" fill="black"/>
</g>
<defs>
<clipPath id="clip0_4_2088">
<rect width="149" height="40" fill="white"/>
</clipPath>
</defs>
</svg>
