<svg xmlns="http://www.w3.org/2000/svg" width="240" height="80" fill="none" viewBox="0 0 240 80"><path fill="#fff" d="M61.2101 20.4983C60.0949 21.0551 59.2641 22.0131 58.8714 23.1959L51.4053 45.6351C51.0096 46.8143 51.1018 48.083 51.6636 49.2029C52.2212 50.3106 53.1803 51.1434 54.3589 51.5375L78.8441 59.7583C80.0314 60.1522 81.2987 60.0625 82.4123 59.5034C83.5275 58.9403 84.36 57.9871 84.7478 56.8012L92.2172 34.3685C93.0352 31.925 91.7051 29.2736 89.2618 28.4596L64.7789 20.2415C63.5893 19.8493 62.3302 19.9348 61.2101 20.4983Z"/><path fill="#0099DA" d="M73.1787 42.049C71.8488 43.5326 70.1906 44.73 68.2683 45.4725L67.1635 45.9004V35.5038L68.255 35.9269C70.1799 36.6618 71.8423 37.8591 73.1787 39.3363C74.13 37.8052 74.721 36.0292 74.8419 34.0974C75.1444 29.1131 72.0228 24.5396 67.7347 22.9478L64.1976 21.7709C62.6012 21.2389 60.9021 22.1197 60.3753 23.7113L52.8876 46.1631C52.356 47.7613 53.2514 49.4952 54.8498 50.0205L71.8423 55.694C73.5747 53.852 74.6986 51.411 74.8625 48.6885C75.0128 46.2589 74.3795 43.9682 73.1787 42.049ZM63.3567 46.5408H61.6696V34.8843H63.3567V46.5408Z"/><path fill="#F15C21" d="M72.1985 40.6927C71.2497 39.5804 70.1028 38.6458 68.7787 37.9614V43.4404C70.1028 42.7544 71.256 41.8086 72.1985 40.6927Z"/><path fill="#0055A2" d="M88.7187 29.9578L73.1246 24.7461C75.2191 27.0391 76.5006 30.0853 76.5067 33.4214C76.51 36.0588 75.6878 38.5813 74.2569 40.6927C75.6931 42.7977 76.5201 45.3185 76.5274 47.9555C76.5284 51.1057 75.3964 54.008 73.5116 56.2549L79.3677 58.2095C80.9693 58.742 82.66 57.8615 83.1925 56.265L90.684 33.8153C91.2143 32.2198 90.3179 30.4878 88.7187 29.9578ZM84.5874 46.5034L82.4808 46.5092L78.1474 40.68L82.5491 34.8525L84.6738 34.844L80.262 40.6885L84.5874 46.5034Z"/><path fill="#0055A2" d="M132.92 33.6811C133.559 33.6811 134.077 33.8155 134.553 33.9559C134.547 33.9869 134.451 34.9695 134.444 35.0341C134.102 34.8513 133.351 34.6814 133.063 34.6814C132.46 34.6814 131.817 34.928 131.817 35.6156C131.817 36.2893 132.339 36.5774 133.074 36.9122L133.111 36.9277C133.95 37.3084 135.101 37.8301 135.101 39.0819C135.101 40.4872 133.704 41.2438 132.389 41.2438C131.818 41.2438 131.081 41.1996 130.426 40.8596C130.43 40.8294 130.493 39.8215 130.495 39.7537C131.045 40.0877 131.778 40.2432 132.135 40.2432C132.773 40.2432 133.464 39.9541 133.464 39.1531C133.464 38.5645 132.786 38.1618 132.195 37.874C131.217 37.3972 130.211 36.7669 130.211 35.7143C130.211 34.4773 131.273 33.6811 132.92 33.6811ZM153.818 33.6811C155.882 33.6811 156.969 34.7099 156.969 36.6585C156.969 36.6585 156.969 41.0233 156.969 41.0715C156.927 41.0715 155.642 41.0715 155.594 41.0715C155.594 41.0285 155.594 39.9988 155.594 39.9988L155.464 40.1743C155.231 40.4965 154.542 41.244 153.26 41.244C151.511 41.244 150.509 40.4307 150.509 39.011C150.509 37.1384 152.778 36.6422 153.977 36.6422C154.468 36.6422 154.858 36.6422 155.374 36.67L155.45 36.6744V36.6004C155.441 35.2391 154.906 34.6816 153.601 34.6816C152.865 34.6816 152.072 34.9544 151.522 35.3904C151.517 35.3202 151.457 34.3752 151.457 34.3502C152.208 33.9056 153.003 33.6811 153.818 33.6811ZM153.376 40.2432C154.653 40.2432 155.45 39.4865 155.45 38.279V37.5922L154.551 37.562C153.775 37.562 151.97 37.7039 151.97 39.011C151.97 39.7692 152.7 40.2432 153.376 40.2432ZM113.046 48.347C115.112 48.347 116.201 49.3747 116.201 51.3274C116.201 51.3274 116.201 55.693 116.201 55.7375C116.155 55.7375 114.867 55.7375 114.819 55.7375C114.819 55.6949 114.819 54.6652 114.819 54.6652L114.693 54.8409C114.458 55.166 113.772 55.9132 112.487 55.9132C110.737 55.9132 109.735 55.0972 109.735 53.6764C109.735 51.806 112.007 51.3125 113.203 51.3125C113.695 51.3125 114.083 51.3125 114.6 51.3406L114.677 51.3425V51.267C114.672 49.9086 114.133 49.3512 112.829 49.3512C112.092 49.3512 111.299 49.6231 110.749 50.0572C110.744 49.9792 110.684 49.0432 110.682 49.0151C111.433 48.5741 112.23 48.347 113.046 48.347ZM112.604 54.9082C113.885 54.9082 114.68 54.1552 114.68 52.9452V52.2597L113.778 52.2295C113.002 52.2295 111.2 52.3728 111.2 53.6764C111.2 54.4392 111.926 54.9082 112.604 54.9082ZM185.684 48.347C187.747 48.347 188.837 49.3747 188.837 51.3274C188.837 51.3274 188.837 55.693 188.837 55.7375C188.793 55.7375 187.508 55.7375 187.458 55.7375C187.458 55.6949 187.458 54.6652 187.458 54.6652L187.33 54.8409C187.095 55.166 186.41 55.9132 185.127 55.9132C183.379 55.9132 182.373 55.0972 182.373 53.6764C182.373 51.806 184.641 51.3125 185.841 51.3125C186.333 51.3125 186.723 51.3125 187.239 51.3406L187.314 51.3425V51.267C187.306 49.9086 186.772 49.3512 185.467 49.3512C184.731 49.3512 183.936 49.6231 183.388 50.0572C183.385 49.9849 183.324 49.0432 183.321 49.0151C184.077 48.5741 184.873 48.347 185.684 48.347ZM185.237 54.9082C186.519 54.9082 187.317 54.1552 187.317 52.9452V52.2597L186.413 52.2295C185.638 52.2295 183.836 52.3728 183.836 53.6764C183.836 54.4392 184.566 54.9082 185.237 54.9082ZM139.575 48.347C141.782 48.347 143.386 49.9354 143.386 52.1292C143.386 54.2501 141.711 55.9131 139.575 55.9131C137.425 55.9131 135.746 54.2501 135.746 52.1292C135.746 49.9354 137.357 48.347 139.575 48.347ZM139.575 54.9082C141.152 54.9082 141.874 53.4678 141.874 52.1292C141.874 50.783 141.071 49.351 139.575 49.351C138.068 49.351 137.261 50.783 137.261 52.1292C137.261 53.4678 137.985 54.9082 139.575 54.9082ZM164.639 48.347C166.848 48.347 168.451 49.9354 168.451 52.1292C168.451 54.2501 166.777 55.9131 164.639 55.9131C162.492 55.9131 160.812 54.2501 160.812 52.1292C160.812 49.9354 162.421 48.347 164.639 48.347ZM164.639 54.9082C166.218 54.9082 166.94 53.4678 166.94 52.1292C166.94 50.783 166.137 49.351 164.639 49.351C163.137 49.351 162.323 50.783 162.323 52.1292C162.323 53.4678 163.05 54.9082 164.639 54.9082ZM178.138 48.347C180.245 48.347 181.365 49.7459 181.376 52.3875C181.328 52.3875 176.108 52.3875 176.108 52.3875V52.4586C176.121 53.8342 177.197 54.9082 178.555 54.9082C179.434 54.9082 180.449 54.4746 180.818 54.2132C180.818 54.2965 180.818 55.4207 180.818 55.4528C180.781 55.4652 180.649 55.5132 180.649 55.5132C180.143 55.7067 179.517 55.9131 178.498 55.9131C176.031 55.9131 174.559 54.4482 174.559 52.0012C174.559 49.8835 176.064 48.347 178.138 48.347ZM176.101 51.4714H179.97V51.3966C179.957 50.3817 179.379 49.3512 178.108 49.3512C176.807 49.3512 176.224 50.4042 176.109 51.3897L176.104 51.4448L176.101 51.4714ZM101.857 31.259C101.857 31.3066 101.857 41.0231 101.857 41.0713C101.898 41.0713 103.294 41.0713 103.338 41.0713C103.338 41.0231 103.338 31.3066 103.338 31.259C103.294 31.259 101.898 31.259 101.857 31.259ZM101.857 45.9254C101.903 45.9254 103.467 45.9306 103.467 45.9306H104.701C107.002 45.9306 108.218 46.7809 108.218 48.3831C108.218 49.5858 107.59 50.336 106.295 50.6782L106.257 50.687L106.267 50.8117L106.305 50.8169C107.719 50.9645 108.704 51.9202 108.704 53.1445C108.704 54.8166 107.267 55.7377 104.656 55.7377C104.656 55.7377 101.903 55.7377 101.857 55.7377C101.857 55.693 101.857 45.9731 101.857 45.9254ZM103.398 50.1526H104.218C105.608 50.1526 106.858 50.0298 106.858 48.5252C106.858 47.1561 105.508 47.0075 104.928 47.0075H103.398V50.1321V50.1526ZM103.398 54.6635H104.5C106.243 54.6635 107.085 54.1237 107.085 53.0179C107.085 51.4159 105.531 51.2333 104.358 51.2333H103.398V54.6394V54.6635ZM158.638 31.259C158.638 31.3066 158.638 41.0231 158.638 41.0713C158.682 41.0713 160.076 41.0713 160.119 41.0713C160.119 41.0231 160.119 31.3066 160.119 31.259C160.076 31.259 158.682 31.259 158.638 31.259ZM145.243 48.1506V48.5202C145.243 48.5202 143.645 48.5202 143.602 48.5202C143.602 48.564 143.602 49.4774 143.602 49.5225C143.645 49.5225 145.243 49.5225 145.243 49.5225C145.243 49.5225 145.243 55.693 145.243 55.7375C145.291 55.7375 146.682 55.7375 146.722 55.7375C146.722 55.693 146.722 49.5225 146.722 49.5225C146.722 49.5225 148.469 49.5225 148.514 49.5225C148.514 49.4772 148.514 48.5638 148.514 48.5202C148.469 48.5202 146.722 48.5202 146.722 48.5202V48.037C146.722 47.0924 146.825 46.3104 148.049 46.3104C148.271 46.3104 148.398 46.3364 148.532 46.3811C148.533 46.326 148.584 45.3799 148.584 45.3378C148.239 45.2856 147.922 45.2566 147.651 45.2566C145.534 45.2566 145.243 46.6471 145.243 48.1506ZM126.48 45.9254C126.48 45.9731 126.48 55.693 126.48 55.7375C126.528 55.7375 127.918 55.7375 127.964 55.7375C127.964 55.693 127.964 51.9175 127.964 51.9175C127.964 51.9175 131.274 55.7241 131.29 55.7375C131.312 55.7375 133.017 55.7375 133.117 55.7375C133.051 55.6651 129.441 51.5052 129.441 51.5052C129.441 51.5052 132.314 48.5978 132.386 48.5202C132.283 48.5202 131.01 48.5202 130.99 48.5202C130.974 48.5322 127.964 51.5442 127.964 51.5442C127.964 51.5442 127.964 45.9732 127.964 45.9254C127.918 45.9254 126.528 45.9254 126.48 45.9254ZM147.689 33.8502C147.689 33.8972 147.689 41.0231 147.689 41.0713C147.73 41.0713 149.119 41.0713 149.166 41.0713C149.166 41.0231 149.166 33.8972 149.166 33.8502C149.119 33.8502 147.73 33.8502 147.689 33.8502ZM147.689 31.259C147.689 31.3038 147.689 32.6484 147.689 32.6922C147.73 32.6922 149.119 32.6922 149.166 32.6922C149.166 32.6484 149.166 31.304 149.166 31.259C149.119 31.259 147.73 31.259 147.689 31.259ZM145.467 33.6811C144.755 33.6905 144.025 34.1643 143.654 34.859V34.8538C143.652 34.8676 143.631 34.8986 143.565 35.0238L143.518 35.1072C143.518 35.1072 143.518 33.8947 143.518 33.8502C143.474 33.8502 142.139 33.8502 142.091 33.8502C142.091 33.8972 142.091 41.0231 142.091 41.0713C142.139 41.0713 143.528 41.0713 143.577 41.0713C143.577 41.0231 143.577 37.7901 143.577 37.7901C143.577 36.0139 144.352 34.8538 145.602 34.767C145.914 34.7498 146.245 34.8383 146.4 34.885C146.4 34.828 146.4 33.8037 146.4 33.767C146.301 33.7404 145.984 33.6708 145.467 33.6811ZM173.049 48.347C172.34 48.3571 171.614 48.8328 171.24 49.5267V49.5223C171.234 49.5325 171.217 49.5654 171.146 49.6914L171.107 49.7755C171.107 49.7755 171.107 48.5636 171.107 48.5198C171.06 48.5198 169.725 48.5198 169.677 48.5198C169.677 48.5653 169.677 55.6928 169.677 55.7371C169.725 55.7371 171.115 55.7371 171.16 55.7371C171.16 55.6926 171.16 52.4582 171.16 52.4582C171.16 50.6819 171.934 49.5222 173.187 49.4363C173.499 49.4141 173.832 49.507 173.983 49.5508C173.983 49.4969 173.983 48.4712 173.983 48.4359C173.881 48.4068 173.573 48.3393 173.049 48.347ZM137.401 32.0443C137.401 32.0933 137.401 33.8502 137.401 33.8502C137.401 33.8502 135.799 33.8502 135.753 33.8502C135.753 33.8947 135.753 34.8089 135.753 34.8538C135.799 34.8538 137.401 34.8538 137.401 34.8538V39.1657C137.401 40.5633 138.085 41.2438 139.489 41.2438C139.938 41.2438 140.578 41.1187 140.829 41.0524C140.829 41.0182 140.829 40.0043 140.829 39.9344C140.672 40.0105 140.392 40.1196 140.063 40.1196C139.713 40.1196 138.893 40.0019 138.893 38.8934L138.882 34.8538C138.882 34.8538 140.67 34.8538 140.713 34.8538C140.713 34.8089 140.713 33.8947 140.713 33.8502C140.67 33.8502 138.882 33.8502 138.882 33.8502C138.882 33.8502 138.882 32.0933 138.882 32.0443C138.834 32.0443 137.445 32.0443 137.401 32.0443ZM120.382 31.259C120.382 31.3066 120.382 41.0231 120.382 41.0713C120.334 41.0713 118.942 41.0713 118.898 41.0713C118.898 41.0266 118.898 39.9009 118.898 39.9009L118.771 40.094C118.387 40.6466 117.547 41.2438 116.338 41.2438C114.11 41.2438 113.096 39.2154 113.096 37.3333C113.096 35.5728 114.114 33.6811 116.351 33.6811C117.463 33.6811 118.297 34.0653 118.769 34.7997L118.898 35.0064C118.898 35.0064 118.898 31.3068 118.898 31.2592C118.942 31.259 120.334 31.259 120.382 31.259ZM114.59 37.4316V37.5088C114.59 38.1752 114.794 39.0993 115.381 39.7009C115.732 40.0594 116.156 40.2432 116.651 40.2432C118.157 40.2432 118.838 38.8096 118.838 37.4756C118.838 36.1315 118.153 34.6814 116.639 34.6814C116.098 34.6814 115.652 34.8642 115.303 35.2177C114.849 35.6864 114.59 36.456 114.59 37.3346V37.4316H114.59ZM106.702 34.8829L106.57 35.0624C106.57 35.0624 106.57 33.8947 106.57 33.8502C106.526 33.8502 105.137 33.8502 105.091 33.8502C105.091 33.8972 105.091 41.0231 105.091 41.0713C105.137 41.0713 106.526 41.0713 106.57 41.0713C106.57 41.0231 106.57 37.7331 106.57 37.7331C106.57 35.7667 107.376 34.6814 108.831 34.6814C109.975 34.7515 110.425 35.4976 110.425 37.3333C110.425 37.3333 110.425 41.0233 110.425 41.0713C110.467 41.0713 111.863 41.0713 111.905 41.0713C111.905 41.0231 111.905 36.7725 111.905 36.7725C111.905 34.7496 110.964 33.6809 109.178 33.6809C108.165 33.6811 107.235 34.1307 106.702 34.8829ZM119.618 49.5493L119.487 49.7308C119.487 49.7308 119.487 48.5636 119.487 48.52C119.447 48.52 118.056 48.52 118.01 48.52C118.01 48.5655 118.01 55.693 118.01 55.7373C118.056 55.7373 119.447 55.7373 119.487 55.7373C119.487 55.6928 119.487 52.4012 119.487 52.4012C119.487 50.4344 120.292 49.351 121.752 49.351C122.897 49.4185 123.344 50.1637 123.344 52.0012C123.344 52.0012 123.344 55.693 123.344 55.7375C123.388 55.7375 124.78 55.7375 124.826 55.7375C124.826 55.693 124.826 51.4417 124.826 51.4417C124.826 49.4185 123.881 48.347 122.099 48.347C121.085 48.347 120.155 48.795 119.618 49.5493ZM127.354 33.8502C127.354 33.8972 127.354 37.1914 127.354 37.1914C127.354 39.1578 126.547 40.243 125.089 40.243C123.945 40.1686 123.501 39.4292 123.501 37.592C123.501 37.592 123.501 33.8972 123.501 33.8502C123.457 33.8502 122.064 33.8502 122.018 33.8502C122.018 33.8972 122.018 38.148 122.018 38.148C122.018 40.1741 122.963 41.2438 124.745 41.2438C125.759 41.2438 126.685 40.7937 127.221 40.0437L127.354 39.8609C127.354 39.8609 127.354 41.0266 127.354 41.0713C127.398 41.0713 128.79 41.0713 128.836 41.0713C128.836 41.0231 128.836 33.8972 128.836 33.8502C128.79 33.8502 127.398 33.8502 127.354 33.8502ZM158.769 45.9235C158.755 45.9388 155.052 50.3256 155.052 50.3256H154.914C154.914 50.3256 154.914 45.9698 154.914 45.9235C154.868 45.9235 153.291 45.9235 153.245 45.9235C153.245 45.9698 153.245 55.693 153.245 55.7375C153.291 55.7375 154.868 55.7375 154.914 55.7375C154.914 55.693 154.914 50.9067 154.914 50.9067H155.052C155.052 50.9067 158.87 55.7218 158.886 55.7375C158.905 55.7375 160.762 55.7375 160.86 55.7375C160.798 55.6654 156.471 50.3966 156.471 50.3966C156.471 50.3966 160.337 45.9994 160.406 45.9237C160.305 45.9235 158.791 45.9235 158.769 45.9235Z"/></svg>