<svg width="138" height="40" viewBox="0 0 138 40" fill="none" xmlns="http://www.w3.org/2000/svg">
<g clip-path="url(#clip0_5_7841)">
<path d="M9.97491 0.498274C8.86772 1.05509 8.04284 2.01307 7.65289 3.19591L0.240149 25.6352C-0.152644 26.8144 -0.0611377 28.0831 0.496631 29.203C1.05022 30.3107 2.00249 31.1435 3.17271 31.5376L27.4829 39.7584C28.6617 40.1523 29.92 40.0626 31.0257 39.5035C32.1328 38.9404 32.9594 37.9872 33.3444 36.8013L40.7604 14.3685C41.5726 11.925 40.252 9.27363 37.8261 8.45963L13.5182 0.241474C12.3372 -0.150704 11.087 -0.065232 9.97491 0.498274Z" fill="white"/>
<path d="M22.3059 22.3864C20.9851 23.8666 19.3381 25.0613 17.4289 25.802L16.3316 26.229V15.8563L17.4156 16.2784C19.3275 17.0116 20.9786 18.2062 22.3059 19.6799C23.2508 18.1524 23.8378 16.3805 23.9578 14.4531C24.2583 9.48023 21.1579 4.91732 16.8989 3.32913L13.3858 2.15492C11.8002 1.62419 10.1126 2.50289 9.5894 4.09089L2.15251 26.4911C1.62455 28.0856 2.51392 29.8155 4.10142 30.3396L20.9786 36C22.6993 34.1623 23.8156 31.7269 23.9783 29.0106C24.1276 26.5867 23.4986 24.3012 22.3059 22.3864ZM12.5506 26.8679H10.8749V15.2381H12.5506V26.8679Z" fill="#0099DA"/>
<path d="M21 20.4925C20.1677 19.4775 19.1616 18.6245 18 18V23C19.1616 22.3739 20.1732 21.5109 21 20.4925Z" fill="#F15C21"/>
<path d="M37.8475 10.2708L22 5C24.1286 7.31902 25.4309 10.3998 25.4371 13.7737C25.4404 16.441 24.6048 18.992 23.1508 21.1273C24.6103 23.2563 25.4507 25.8056 25.4581 28.4725C25.4591 31.6584 24.3087 34.5936 22.3933 36.866L28.3445 38.8427C29.9721 39.3813 31.6903 38.4907 32.2315 36.8762L39.8447 14.172C40.3836 12.5585 39.4726 10.8068 37.8475 10.2708ZM33.649 27.004L31.5082 27.0098L27.1044 21.1146L31.5776 15.2209L33.7369 15.2124L29.2533 21.1231L33.649 27.004Z" fill="#0055A2"/>
<path d="M82.0709 13.4561C82.7101 13.4561 83.2272 13.5924 83.7034 13.7347C83.6973 13.7661 83.6013 14.7625 83.5948 14.8281C83.2528 14.6427 82.5014 14.4703 82.2139 14.4703C81.6101 14.4703 80.9675 14.7205 80.9675 15.4177C80.9675 16.1008 81.4893 16.393 82.2243 16.7325L82.2612 16.7482C83.1008 17.1342 84.2523 17.6632 84.2523 18.9326C84.2523 20.3575 82.8543 21.1248 81.5398 21.1248C80.9677 21.1248 80.2314 21.08 79.5761 20.7353C79.5797 20.7046 79.6425 19.6826 79.6448 19.6138C80.1952 19.9525 80.9281 20.1101 81.2852 20.1101C81.9232 20.1101 82.6144 19.817 82.6144 19.0047C82.6144 18.4079 81.9362 17.9996 81.3451 17.7078C80.3666 17.2242 79.3611 16.5851 79.3611 15.5177C79.361 14.2634 80.4228 13.4561 82.0709 13.4561ZM102.974 13.4561C105.038 13.4561 106.125 14.4992 106.125 16.4752C106.125 16.4752 106.125 20.9012 106.125 20.9501C106.083 20.9501 104.798 20.9501 104.75 20.9501C104.75 20.9065 104.75 19.8623 104.75 19.8623L104.62 20.0403C104.387 20.3671 103.698 21.125 102.415 21.125C100.665 21.125 99.6637 20.3004 99.6637 18.8607C99.6637 16.9619 101.933 16.4587 103.133 16.4587C103.623 16.4587 104.013 16.4587 104.53 16.4868L104.606 16.4913V16.4163C104.597 15.0359 104.061 14.4705 102.756 14.4705C102.02 14.4705 101.227 14.7472 100.677 15.1893C100.672 15.1181 100.611 14.1599 100.611 14.1345C101.363 13.6837 102.158 13.4561 102.974 13.4561ZM102.532 20.1101C103.809 20.1101 104.606 19.3429 104.606 18.1185V17.422L103.706 17.3913C102.93 17.3913 101.125 17.5352 101.125 18.8607C101.125 19.6295 101.855 20.1101 102.532 20.1101ZM62.192 28.3276C64.2579 28.3276 65.3472 29.3698 65.3472 31.3498C65.3472 31.3498 65.3472 35.7766 65.3472 35.8218C65.3013 35.8218 64.0137 35.8218 63.9655 35.8218C63.9655 35.7786 63.9655 34.7345 63.9655 34.7345L63.8387 34.9126C63.6046 35.2423 62.9182 36 61.6324 36C59.8822 36 58.8804 35.1725 58.8804 33.7318C58.8804 31.8351 61.1527 31.3347 62.3484 31.3347C62.8407 31.3347 63.2292 31.3347 63.7461 31.3632L63.8234 31.3651V31.2886C63.8182 29.9111 63.2787 29.3459 61.9751 29.3459C61.238 29.3459 60.4445 29.6216 59.8944 30.0618C59.8896 29.9827 59.8292 29.0336 59.8273 29.0051C60.5787 28.5579 61.3757 28.3276 62.192 28.3276ZM61.7498 34.9809C63.0308 34.9809 63.8257 34.2173 63.8257 32.9904V32.2953L62.9241 32.2646C62.148 32.2646 60.345 32.4098 60.345 33.7318C60.345 34.5053 61.0718 34.9809 61.7498 34.9809ZM134.847 28.3276C136.911 28.3276 138 29.3698 138 31.3498C138 31.3498 138 35.7766 138 35.8218C137.956 35.8218 136.671 35.8218 136.621 35.8218C136.621 35.7786 136.621 34.7345 136.621 34.7345L136.493 34.9126C136.258 35.2423 135.573 36 134.29 36C132.541 36 131.535 35.1725 131.535 33.7318C131.535 31.8351 133.803 31.3347 135.003 31.3347C135.496 31.3347 135.886 31.3347 136.402 31.3632L136.477 31.3651V31.2886C136.469 29.9111 135.935 29.3459 134.629 29.3459C133.893 29.3459 133.098 29.6216 132.55 30.0618C132.547 29.9885 132.486 29.0336 132.483 29.0051C133.24 28.5579 134.035 28.3276 134.847 28.3276ZM134.4 34.9809C135.682 34.9809 136.48 34.2173 136.48 32.9904V32.2953L135.576 32.2646C134.801 32.2646 132.998 32.4098 132.998 33.7318C132.998 34.5053 133.728 34.9809 134.4 34.9809ZM88.7268 28.3276C90.9341 28.3276 92.5393 29.9383 92.5393 32.1628C92.5393 34.3135 90.8633 35.9998 88.7268 35.9998C86.5769 35.9998 84.8975 34.3135 84.8975 32.1628C84.8975 29.9383 86.5084 28.3276 88.7268 28.3276ZM88.7268 34.9809C90.3043 34.9809 91.0265 33.5203 91.0265 32.1628C91.0265 30.7978 90.223 29.3457 88.7268 29.3457C87.2193 29.3457 86.4122 30.7978 86.4122 32.1628C86.4122 33.5203 87.1365 34.9809 88.7268 34.9809ZM113.797 28.3276C116.006 28.3276 117.609 29.9383 117.609 32.1628C117.609 34.3135 115.935 35.9998 113.797 35.9998C111.649 35.9998 109.969 34.3135 109.969 32.1628C109.969 29.9383 111.578 28.3276 113.797 28.3276ZM113.797 34.9809C115.376 34.9809 116.098 33.5203 116.098 32.1628C116.098 30.7978 115.295 29.3457 113.797 29.3457C112.294 29.3457 111.48 30.7978 111.48 32.1628C111.48 33.5203 112.208 34.9809 113.797 34.9809ZM127.299 28.3276C129.407 28.3276 130.527 29.7461 130.538 32.4248C130.489 32.4248 125.268 32.4248 125.268 32.4248V32.4969C125.281 33.8918 126.358 34.9809 127.716 34.9809C128.595 34.9809 129.611 34.5411 129.98 34.2761C129.98 34.3606 129.98 35.5005 129.98 35.5331C129.943 35.5457 129.811 35.5944 129.811 35.5944C129.304 35.7906 128.678 35.9998 127.659 35.9998C125.191 35.9998 123.719 34.5144 123.719 32.0331C123.719 29.8857 125.224 28.3276 127.299 28.3276ZM125.262 31.4958H129.131V31.42C129.118 30.3908 128.54 29.3459 127.269 29.3459C125.967 29.3459 125.385 30.4137 125.27 31.413L125.265 31.4689L125.262 31.4958ZM51 11C51 11.0483 51 20.901 51 20.9499C51.0411 20.9499 52.4377 20.9499 52.4819 20.9499C52.4819 20.901 52.4819 11.0483 52.4819 11C52.4377 11 51.0411 11 51 11ZM51 25.8721C51.0461 25.8721 52.6102 25.8773 52.6102 25.8773H53.8444C56.1465 25.8773 57.3631 26.7396 57.3631 28.3642C57.3631 29.5838 56.7343 30.3445 55.4389 30.6916L55.4012 30.7005L55.4113 30.8269L55.4494 30.8321C56.8638 30.9818 57.8493 31.9509 57.8493 33.1924C57.8493 34.888 56.4112 35.822 53.8002 35.822C53.8002 35.822 51.0461 35.822 51 35.822C51 35.7766 51 25.9204 51 25.8721ZM52.5419 30.1585H53.3622C54.7517 30.1585 56.0025 30.0341 56.0025 28.5083C56.0025 27.12 54.6517 26.9694 54.072 26.9694H52.5419V30.1378V30.1585ZM52.5419 34.7327H53.6441C55.3869 34.7327 56.2297 34.1853 56.2297 33.064C56.2297 31.4396 54.675 31.2544 53.5018 31.2544H52.5419V34.7083V34.7327ZM107.794 11C107.794 11.0483 107.794 20.901 107.794 20.9499C107.838 20.9499 109.232 20.9499 109.276 20.9499C109.276 20.901 109.276 11.0483 109.276 11C109.232 11 107.838 11 107.794 11ZM94.3961 28.1285V28.5033C94.3961 28.5033 92.7983 28.5033 92.7549 28.5033C92.7549 28.5477 92.7549 29.4739 92.7549 29.5197C92.7983 29.5197 94.3961 29.5197 94.3961 29.5197C94.3961 29.5197 94.3961 35.7766 94.3961 35.8218C94.4443 35.8218 95.836 35.8218 95.8754 35.8218C95.8754 35.7766 95.8754 29.5197 95.8754 29.5197C95.8754 29.5197 97.6231 29.5197 97.6683 29.5197C97.6683 29.4737 97.6683 28.5475 97.6683 28.5033C97.6229 28.5033 95.8754 28.5033 95.8754 28.5033V28.0133C95.8754 27.0554 95.9789 26.2624 97.2031 26.2624C97.4248 26.2624 97.552 26.2888 97.6859 26.3342C97.6874 26.2783 97.7377 25.3189 97.7377 25.2763C97.3932 25.2233 97.0763 25.1939 96.8051 25.1939C94.687 25.1939 94.3961 26.6039 94.3961 28.1285ZM75.6291 25.8721C75.6291 25.9204 75.6291 35.7766 75.6291 35.8218C75.6771 35.8218 77.067 35.8218 77.1129 35.8218C77.1129 35.7766 77.1129 31.9482 77.1129 31.9482C77.1129 31.9482 80.4245 35.8082 80.4398 35.8218C80.4624 35.8218 82.1675 35.8218 82.2671 35.8218C82.2011 35.7483 78.5904 31.5301 78.5904 31.5301C78.5904 31.5301 81.4642 28.582 81.5365 28.5033C81.4328 28.5033 80.1598 28.5033 80.1396 28.5033C80.1243 28.5155 77.1129 31.5697 77.1129 31.5697C77.1129 31.5697 77.1129 25.9206 77.1129 25.8721C77.067 25.8721 75.6773 25.8721 75.6291 25.8721ZM96.8426 13.6275C96.8426 13.6752 96.8426 20.901 96.8426 20.9499C96.8837 20.9499 98.2736 20.9499 98.3203 20.9499C98.3203 20.901 98.3203 13.6752 98.3203 13.6275C98.2736 13.6275 96.8837 13.6275 96.8426 13.6275ZM96.8426 11C96.8426 11.0454 96.8426 12.4088 96.8426 12.4532C96.8837 12.4532 98.2736 12.4532 98.3203 12.4532C98.3203 12.4088 98.3203 11.0456 98.3203 11C98.2736 11 96.8837 11 96.8426 11ZM94.6202 13.4561C93.9082 13.4656 93.1779 13.946 92.8065 14.6505V14.6452C92.8046 14.6592 92.7839 14.6906 92.7183 14.8176L92.6705 14.9021C92.6705 14.9021 92.6705 13.6726 92.6705 13.6275C92.6271 13.6275 91.2914 13.6275 91.2434 13.6275C91.2434 13.6752 91.2434 20.901 91.2434 20.9499C91.2916 20.9499 92.6812 20.9499 92.7294 20.9499C92.7294 20.901 92.7294 17.6227 92.7294 17.6227C92.7294 15.8216 93.5052 14.6452 94.7552 14.5572C95.067 14.5397 95.3981 14.6295 95.5534 14.6768C95.5534 14.619 95.5534 13.5804 95.5534 13.5431C95.4547 13.5162 95.1379 13.4456 94.6202 13.4561ZM122.209 28.3276C121.499 28.3379 120.773 28.8203 120.399 29.5239V29.5195C120.393 29.5297 120.376 29.5631 120.306 29.6909L120.266 29.7762C120.266 29.7762 120.266 28.5473 120.266 28.5029C120.219 28.5029 118.884 28.5029 118.836 28.5029C118.836 28.549 118.836 35.7764 118.836 35.8214C118.884 35.8214 120.274 35.8214 120.319 35.8214C120.319 35.7762 120.319 32.4965 120.319 32.4965C120.319 30.6952 121.094 29.5193 122.346 29.4322C122.659 29.4097 122.992 29.504 123.143 29.5484C123.143 29.4937 123.143 28.4536 123.143 28.4178C123.041 28.3883 122.733 28.3198 122.209 28.3276ZM86.5522 11.7963C86.5522 11.846 86.5522 13.6275 86.5522 13.6275C86.5522 13.6275 84.9497 13.6275 84.9038 13.6275C84.9038 13.6726 84.9038 14.5997 84.9038 14.6452C84.9497 14.6452 86.5522 14.6452 86.5522 14.6452V19.0175C86.5522 20.4347 87.2362 21.1248 88.6411 21.1248C89.0898 21.1248 89.7303 20.998 89.9809 20.9307C89.9809 20.896 89.9809 19.868 89.9809 19.797C89.8239 19.8742 89.5444 19.9849 89.2149 19.9849C88.8645 19.9849 88.0446 19.8654 88.0446 18.7414L88.0337 14.6452C88.0337 14.6452 89.8221 14.6452 89.8656 14.6452C89.8656 14.5997 89.8656 13.6726 89.8656 13.6275C89.8221 13.6275 88.0337 13.6275 88.0337 13.6275C88.0337 13.6275 88.0337 11.846 88.0337 11.7963C87.9855 11.7963 86.596 11.7963 86.5522 11.7963ZM69.5296 11C69.5296 11.0483 69.5296 20.901 69.5296 20.9499C69.4814 20.9499 68.0888 20.9499 68.0454 20.9499C68.0454 20.9045 68.0454 19.7631 68.0454 19.7631L67.9182 19.9589C67.534 20.5193 66.6936 21.1248 65.4851 21.1248C63.2561 21.1248 62.2419 19.068 62.2419 17.1595C62.2419 15.3743 63.2602 13.4561 65.4975 13.4561C66.6095 13.4561 67.4441 13.8456 67.9159 14.5903L68.0454 14.7999C68.0454 14.7999 68.0454 11.0485 68.0454 11.0002C68.0888 11 69.4814 11 69.5296 11ZM63.736 17.2591V17.3374C63.736 18.0132 63.9405 18.9503 64.527 19.5603C64.878 19.9238 65.3028 20.1101 65.7978 20.1101C67.3045 20.1101 67.9848 18.6565 67.9848 17.3037C67.9848 15.9408 67.3005 14.4703 65.7853 14.4703C65.2443 14.4703 64.7988 14.6557 64.4496 15.0142C63.9954 15.4894 63.7358 16.2699 63.7358 17.1608V17.2591H63.736ZM55.8461 14.6747L55.7139 14.8568C55.7139 14.8568 55.7139 13.6726 55.7139 13.6275C55.6701 13.6275 54.2806 13.6275 54.2345 13.6275C54.2345 13.6752 54.2345 20.901 54.2345 20.9499C54.2806 20.9499 55.6701 20.9499 55.7139 20.9499C55.7139 20.901 55.7139 17.5649 55.7139 17.5649C55.7139 15.5709 56.5201 14.4703 57.9759 14.4703C59.1202 14.5415 59.5702 15.2981 59.5702 17.1595C59.5702 17.1595 59.5702 20.9012 59.5702 20.9499C59.6127 20.9499 61.0083 20.9499 61.0506 20.9499C61.0506 20.901 61.0506 16.5908 61.0506 16.5908C61.0506 14.5395 60.1094 13.4559 58.3227 13.4559C57.3102 13.4561 56.3797 13.9119 55.8461 14.6747ZM68.7655 29.5468L68.6343 29.7308C68.6343 29.7308 68.6343 28.5473 68.6343 28.5031C68.5941 28.5031 67.2029 28.5031 67.1566 28.5031C67.1566 28.5492 67.1566 35.7766 67.1566 35.8216C67.2029 35.8216 68.5941 35.8216 68.6343 35.8216C68.6343 35.7764 68.6343 32.4387 68.6343 32.4387C68.6343 30.4443 69.4399 29.3457 70.9001 29.3457C72.0456 29.4142 72.4925 30.1698 72.4925 32.0331C72.4925 32.0331 72.4925 35.7766 72.4925 35.8218C72.5363 35.8218 73.9281 35.8218 73.9744 35.8218C73.9744 35.7766 73.9744 31.4658 73.9744 31.4658C73.9744 29.4142 73.029 28.3276 71.2471 28.3276C70.233 28.3276 69.3022 28.7819 68.7655 29.5468ZM76.5034 13.6275C76.5034 13.6752 76.5034 17.0156 76.5034 17.0156C76.5034 19.0096 75.6959 20.1099 74.2374 20.1099C73.0936 20.0345 72.6494 19.2847 72.6494 17.4218C72.6494 17.4218 72.6494 13.6752 72.6494 13.6275C72.6056 13.6275 71.2115 13.6275 71.1656 13.6275C71.1656 13.6752 71.1656 17.9856 71.1656 17.9856C71.1656 20.0401 72.1112 21.1248 73.8933 21.1248C74.9075 21.1248 75.8338 20.6684 76.3701 19.9079L76.5036 19.7225C76.5036 19.7225 76.5036 20.9045 76.5036 20.9499C76.5474 20.9499 77.9397 20.9499 77.9856 20.9499C77.9856 20.901 77.9856 13.6752 77.9856 13.6275C77.9395 13.6275 76.5472 13.6275 76.5034 13.6275ZM107.926 25.8702C107.911 25.8857 104.207 30.334 104.207 30.334H104.069C104.069 30.334 104.069 25.9171 104.069 25.8702C104.024 25.8702 102.446 25.8702 102.4 25.8702C102.4 25.9171 102.4 35.7766 102.4 35.8218C102.446 35.8218 104.024 35.8218 104.069 35.8218C104.069 35.7766 104.069 30.9233 104.069 30.9233H104.207C104.207 30.9233 108.026 35.8059 108.042 35.8218C108.062 35.8218 109.918 35.8218 110.017 35.8218C109.955 35.7487 105.627 30.4059 105.627 30.4059C105.627 30.4059 109.494 25.9471 109.563 25.8704C109.462 25.8702 107.947 25.8702 107.926 25.8702Z" fill="#0055A2"/>
</g>
<defs>
<clipPath id="clip0_5_7841">
<rect width="138" height="40" fill="white"/>
</clipPath>
</defs>
</svg>
