<svg width="40" height="40" viewBox="0 0 40 40" fill="none" xmlns="http://www.w3.org/2000/svg">
<g clip-path="url(#clip0_6_896)">
<path d="M10.0467 0.498272C8.93154 1.05508 8.10072 2.01306 7.70797 3.1959L0.241877 25.6351C-0.153742 26.8143 -0.0615777 28.083 0.500206 29.2029C1.05778 30.3106 2.01691 31.1434 3.19554 31.5375L27.6807 39.7583C28.868 40.1522 30.1353 40.0625 31.249 39.5034C32.3641 38.9403 33.1966 37.9871 33.5844 36.8012L41.0538 14.3685C41.8718 11.925 40.5417 9.2736 38.0984 8.45961L13.6155 0.241474C12.426 -0.150704 11.1668 -0.0652318 10.0467 0.498272Z" fill="white"/>
<path d="M22.0153 22.049C20.6854 23.5326 19.0272 24.73 17.105 25.4725L16.0001 25.9004V15.5038L17.0916 15.9269C19.0165 16.6618 20.6789 17.8591 22.0153 19.3363C22.9666 17.8052 23.5576 16.0292 23.6785 14.0974C23.981 9.11307 20.8594 4.53964 16.5713 2.9478L13.0342 1.77088C11.4378 1.23893 9.73867 2.11965 9.21188 3.71131L1.72417 26.1631C1.1926 27.7613 2.08805 29.4952 3.6864 30.0205L20.6789 35.694C22.4113 33.852 23.5352 31.411 23.6991 28.6885C23.8494 26.2589 23.2161 23.9682 22.0153 22.049ZM12.1933 26.5408H10.5062V14.8843H12.1933V26.5408Z" fill="#0099DA"/>
<path d="M21.0351 20.6927C20.0863 19.5804 18.9394 18.6458 17.6153 17.9614V23.4404C18.9394 22.7544 20.0926 21.8086 21.0351 20.6927Z" fill="#F15C21"/>
<path d="M37.5554 9.95779L21.9612 4.74609C24.0557 7.03912 25.3372 10.0853 25.3434 13.4214C25.3466 16.0588 24.5244 18.5813 23.0935 20.6927C24.5297 22.7977 25.3567 25.3185 25.364 27.9555C25.365 31.1057 24.233 34.008 22.3482 36.2549L28.2043 38.2095C29.8059 38.742 31.4966 37.8615 32.0291 36.265L39.5206 13.8153C40.0509 12.2198 39.1545 10.4878 37.5554 9.95779ZM33.424 26.5034L31.3174 26.5092L26.984 20.68L31.3857 14.8525L33.5104 14.844L29.0986 20.6885L33.424 26.5034Z" fill="#0055A2"/>
</g>
<defs>
<clipPath id="clip0_6_896">
<rect width="40" height="40" fill="white"/>
</clipPath>
</defs>
</svg>
