<svg width="240" height="80" viewBox="0 0 240 80" fill="none" xmlns="http://www.w3.org/2000/svg">
<path fill-rule="evenodd" clip-rule="evenodd" d="M148.714 32.9164C148.574 32.7819 148.383 32.756 148.114 32.8388C147.726 32.9578 147.224 33.289 146.577 33.8582C146.572 33.8634 146.566 33.8686 146.566 33.8686C146.121 34.2877 145.858 34.6862 145.697 35.0225C145.438 35.5607 145.454 36.0833 145.733 36.6215C145.749 36.6525 145.77 36.6887 145.79 36.725C145.852 36.8233 145.92 36.9216 146.008 37.0147C146.002 36.9578 145.997 36.9061 145.997 36.8491C145.997 36.7094 146.013 36.5645 146.049 36.4248C146.121 36.1557 146.256 35.8867 146.416 35.6642C146.546 35.4882 146.701 35.3278 146.867 35.1933C147.043 35.0484 147.224 34.919 147.415 34.7948C147.736 34.593 148.057 34.386 148.357 34.148C148.533 34.0083 148.693 33.8375 148.786 33.6254C148.859 33.4546 148.905 33.2373 148.812 33.0613C148.786 33.0096 148.75 32.9578 148.709 32.9164" fill="#0A70B8"/>
<path fill-rule="evenodd" clip-rule="evenodd" d="M152.331 26.0398C152.31 25.9466 152.259 25.8483 152.155 25.7138C152.041 25.5689 151.824 25.3826 151.25 25.4757C151.012 25.5119 150.742 25.5947 150.437 25.7138C150.318 25.7655 150.199 25.8224 150.08 25.8845C149.852 25.9932 149.625 26.107 149.397 26.2209C148.657 26.6038 147.917 27.0333 147.25 27.5611C146.727 27.9751 146.09 28.5236 145.552 29.1911C145.175 29.6568 144.859 30.1794 144.662 30.7435C144.662 30.759 144.642 30.8107 144.636 30.8159C144.538 31.1264 144.471 31.4679 144.44 31.7888C144.388 32.389 144.548 32.9944 144.704 33.486C144.724 33.5585 144.75 33.6309 144.771 33.7034C144.786 33.574 144.807 33.4136 144.849 33.248C144.874 33.129 144.911 33.0048 144.952 32.8909C145.376 31.7888 146.815 30.1484 149.501 28.7099C150.887 27.9699 152.088 27.1885 152.295 26.521C152.347 26.3606 152.352 26.195 152.321 26.0346" fill="#0A70B8"/>
<path fill-rule="evenodd" clip-rule="evenodd" d="M154.592 21.6671C154.582 21.5791 154.53 21.4652 154.437 21.31C154.37 21.1962 154.204 20.9374 153.475 20.9737C153.169 20.9944 152.507 21.0979 151.534 21.4911C151.032 21.6981 150.479 21.962 149.873 22.2932C149.097 22.7123 148.238 23.2453 147.296 23.9025C146.592 24.3993 145.78 25.1185 145.107 25.9879C144.642 26.5881 144.248 27.2505 143.995 27.9542C143.715 28.7615 143.679 29.4652 143.731 30.0396C143.783 30.5363 143.912 31.0072 144.01 31.3177C144.046 31.4316 144.078 31.5247 144.098 31.592C144.098 31.592 144.098 31.2194 144.31 30.6088C144.341 30.5312 144.378 30.4484 144.414 30.3656C144.45 30.2828 144.486 30.2 144.528 30.1172C144.569 30.0344 144.611 29.9464 144.652 29.8636C144.698 29.7705 144.745 29.6825 144.802 29.5946C144.859 29.5014 144.916 29.4031 144.973 29.3048C145.04 29.2013 145.107 29.103 145.175 29.0047C145.247 28.896 145.33 28.7925 145.407 28.689C145.495 28.5752 145.583 28.4665 145.676 28.3578C145.78 28.244 145.878 28.1302 145.982 28.0215C146.096 27.9025 146.204 27.7835 146.318 27.6748C146.442 27.5506 146.572 27.4316 146.701 27.3177C146.841 27.1935 146.986 27.0745 147.125 26.9555C147.286 26.8313 147.441 26.7071 147.601 26.5933C147.777 26.4691 147.953 26.3449 148.129 26.2259C148.321 26.1017 148.512 25.9827 148.709 25.8585C148.916 25.7291 149.128 25.6101 149.345 25.4911C149.568 25.3617 149.795 25.2427 150.028 25.1237C150.266 24.9943 150.51 24.8753 150.753 24.7511C151.006 24.6218 151.26 24.4976 151.513 24.3734C152.259 24.0112 152.993 23.6903 153.645 23.1729C153.889 22.9814 154.121 22.7796 154.297 22.526C154.37 22.4277 154.447 22.3087 154.494 22.1949C154.566 22.0138 154.592 21.8378 154.582 21.6619" fill="#F79121"/>
<path fill-rule="evenodd" clip-rule="evenodd" d="M156.848 16.5184C156.771 16.3684 156.6 16.032 155.7 16.001C155.068 15.9855 154.411 16.1562 153.816 16.3373C153.325 16.4822 152.843 16.6478 152.367 16.8444C151.896 17.0359 151.431 17.2481 150.975 17.4757C150.711 17.6051 150.453 17.7448 150.194 17.8845C149.702 18.1536 149.221 18.4331 148.74 18.7228C148.321 18.9764 147.907 19.2403 147.503 19.5197C147.11 19.7888 146.722 20.0734 146.359 20.3787C146.153 20.5546 145.946 20.7358 145.754 20.922C145.045 21.5999 144.419 22.3606 143.907 23.204C143.622 23.6698 143.384 24.1717 143.203 24.6892C143.001 25.2584 142.903 25.7862 142.867 26.2726C142.758 27.6439 143.172 28.627 143.312 29.041C143.312 29.041 143.374 28.2648 143.555 27.7318C143.669 27.4007 143.819 27.0798 143.984 26.7797C144.253 26.2778 144.579 25.8121 144.936 25.3774C145.495 24.6995 146.132 24.0889 146.82 23.5352C147.363 23.0954 147.943 22.6969 148.538 22.3244C149.138 21.9518 149.749 21.6154 150.375 21.2946C150.742 21.1083 151.115 20.9272 151.488 20.7513C152.274 20.3787 153.066 20.0268 153.863 19.6853C154.463 19.4318 155.074 19.1678 155.627 18.8108C156.083 18.521 156.6 18.1122 156.854 17.6206C156.962 17.4137 157.014 17.1963 157.014 16.979C157.014 16.8703 156.957 16.7203 156.859 16.5236" fill="#0A70B8"/>
<path fill-rule="evenodd" clip-rule="evenodd" d="M150.323 30.4844C150.359 30.3447 150.359 30.2102 150.323 30.0756C150.303 29.998 150.256 29.91 150.163 29.8065C150.002 29.6151 149.749 29.5633 149.392 29.6306C148.957 29.7186 148.388 30.0032 147.689 30.4637C147.524 30.5724 147.353 30.6914 147.177 30.8259C146.489 31.3796 145.609 32.2076 145.262 33.2477C145.262 33.2477 145.262 33.258 145.262 33.2632L145.252 33.2994C145.164 33.5737 145.112 33.8427 145.097 34.0704C145.076 34.3913 145.123 34.7638 145.226 35.1416C145.283 35.0743 145.34 35.007 145.407 34.9398C145.899 33.7858 147.074 32.8233 149.133 31.7211C149.93 31.2917 150.251 30.7897 150.323 30.4844Z" fill="#F79121"/>
<path fill-rule="evenodd" clip-rule="evenodd" d="M147.431 37.7236C147.338 37.7236 147.239 37.6926 147.156 37.6667C147.058 37.6357 146.955 37.5891 146.846 37.527C146.748 37.4701 146.598 37.3821 146.437 37.2734C146.101 37.0457 146.189 36.668 146.23 36.5335C146.292 36.3213 146.385 36.135 146.53 35.9487L146.572 35.9746L146.68 36.0419C146.794 36.1143 146.918 36.1868 147.037 36.2592C147.048 36.2696 147.053 36.2747 147.058 36.2747L147.074 36.2851C147.074 36.2851 147.084 36.2903 147.089 36.2954C147.177 36.3524 147.296 36.43 147.41 36.5179C147.493 36.5852 147.565 36.6525 147.622 36.7197C147.803 36.9423 147.87 37.3459 147.653 37.6201C147.643 37.6408 147.617 37.6615 147.591 37.6771C147.57 37.6874 147.544 37.6978 147.519 37.7029C147.488 37.7133 147.462 37.7133 147.425 37.7133" fill="#F79121"/>
<path fill-rule="evenodd" clip-rule="evenodd" d="M122.96 29.0411C122.913 29.0359 122.867 29.0308 122.815 29.0308L121.009 29.0411H118.81C118.292 29.0411 117.832 29.3309 117.661 29.7707C117.444 30.3244 117.04 31.2972 116.512 32.5857L115.674 34.64C115.353 35.4318 114.981 36.358 114.551 37.4292C114.127 38.4951 113.635 39.7112 113.076 41.0773C112.89 41.5378 112.699 42.0139 112.497 42.5106C112.295 42.0139 112.098 41.5378 111.912 41.0773C111.358 39.7112 110.867 38.4951 110.437 37.4292C110.008 36.358 109.635 35.4318 109.314 34.64L108.481 32.5857C107.948 31.2972 107.55 30.3244 107.333 29.7707C107.157 29.3309 106.701 29.0411 106.184 29.0411H100.921C100.248 29.0411 99.7 29.5327 99.7 30.1433V30.7229C99.7 31.3283 100.243 31.8199 100.921 31.8199C101.527 31.8199 101.998 31.9337 102.324 32.1511C102.52 32.2856 102.913 32.6582 103.338 33.7034L110.044 50.0449C110.225 50.4744 110.675 50.7641 111.188 50.7641H113.806C114.096 50.7641 114.38 50.6658 114.593 50.5054C114.753 50.3812 114.877 50.2312 114.95 50.0449L120.885 35.587L121.661 33.7034C121.754 33.4758 121.842 33.2843 121.925 33.1187L123.25 29.9725L123.358 29.7086C123.488 29.3464 123.332 29.0929 122.955 29.0463" fill="#0A70B8"/>
<path fill-rule="evenodd" clip-rule="evenodd" d="M142.127 41.5274C141.764 40.7823 141.283 40.1613 140.688 39.6697C140.347 39.3851 139.974 39.1367 139.576 38.9298C139.689 38.8418 139.803 38.7486 139.912 38.6555C140.388 38.2312 140.792 37.7085 141.107 37.0824C141.433 36.4356 141.599 35.6594 141.599 34.7745C141.599 34.5934 141.599 34.4175 141.578 34.2519C141.495 33.0721 141.107 32.1251 140.455 31.3903C139.332 30.1019 137.682 29.0618 135.022 29.0618C134.437 29.0307 133.92 29.0411 133.454 29.0462C133.19 29.0411 132.942 29.0359 132.792 29.0359H124.973C124.305 29.0359 123.762 29.5275 123.762 30.1329V30.7125C123.762 31.3179 124.305 31.8095 124.973 31.8095C125.356 31.8095 126.308 31.8095 126.437 32.0786C126.468 32.1665 126.458 32.389 126.458 32.8134L126.448 49.5222C126.448 49.5222 126.448 49.5481 126.453 49.5636V49.6516C126.453 50.257 126.996 50.7486 127.664 50.7486H133.195C134.049 50.7486 134.986 50.6968 135.984 50.5985C137.076 50.4898 138.106 50.2311 139.048 49.8378C140.057 49.4135 140.916 48.5183 141.594 47.6852C142.313 46.8107 142.68 45.6464 142.68 44.213C142.68 43.1781 142.494 42.2726 142.127 41.5222M131.865 32.4304C132.026 32.4097 132.222 32.3787 132.719 32.3787C133.268 32.3787 133.79 32.4304 134.266 32.5288C134.68 32.6115 135.022 32.7461 135.312 32.9375C135.565 33.1083 135.772 33.336 135.927 33.6361C135.948 33.6775 135.969 33.7189 135.984 33.7603C136.109 34.0708 136.171 34.4744 136.171 34.9556C136.171 35.6387 136.046 36.1562 135.808 36.4615C135.539 36.803 135.229 37.0462 134.862 37.1963C134.432 37.3722 133.971 37.4757 133.495 37.5067C132.906 37.543 132.305 37.5585 131.86 37.5585V36.8392C131.86 35.4938 131.834 32.7564 131.86 32.5546C131.865 32.4977 131.855 32.4563 131.86 32.4253M136.937 45.6257C136.719 45.9879 136.45 46.2725 136.114 46.4743C135.741 46.7072 135.312 46.8728 134.83 46.9815C134.303 47.0953 133.744 47.1522 133.18 47.1522C132.58 47.1522 132.171 47.1315 131.86 47.0901C131.84 47.0901 131.876 47.0849 131.86 47.0798C131.86 47.0073 131.871 42.6917 131.86 41.3101V40.8909C132.492 40.8909 133.273 40.922 133.997 40.9841C134.608 41.041 135.172 41.1859 135.679 41.4187C136.14 41.6309 136.512 41.9362 136.823 42.3657C137.112 42.7693 137.257 43.3851 137.257 44.2027C137.257 44.7874 137.154 45.2635 136.942 45.6205" fill="#0A70B8"/>
<path fill-rule="evenodd" clip-rule="evenodd" d="M98.158 29.0308H92.5746C91.8915 29.0308 91.3378 29.5275 91.3378 30.1433V30.7332C91.3378 31.349 91.8915 31.8458 92.5746 31.8458C93.6561 31.8458 93.92 31.8458 93.9976 31.9803C94.0752 32.1148 94.0286 32.5857 94.0286 33.1291V49.6361C94.0286 50.2519 94.5875 50.7486 95.2654 50.7486H98.158C98.841 50.7486 99.3947 50.2519 99.3947 49.6361V30.1433C99.3947 29.5327 98.841 29.0308 98.1631 29.0308" fill="#0A70B8"/>
<path d="M84.4504 57.4023H82.986V63.8965H84.4504V57.4023Z" fill="#0A70B8"/>
<path fill-rule="evenodd" clip-rule="evenodd" d="M85.7234 63.8965V57.4023H87.4413L88.7919 59.7827C89.1748 60.4657 89.5526 61.2781 89.8527 62.0078H89.8734C89.7854 61.1488 89.7596 60.2743 89.7596 59.2911V57.4023H91.1101V63.8965H89.5681L88.1813 61.392C87.7984 60.6882 87.3637 59.8603 87.0532 59.0996H87.017C87.0636 59.969 87.0843 60.8849 87.0843 61.9405V63.8965H85.7337H85.7234Z" fill="#0A70B8"/>
<path fill-rule="evenodd" clip-rule="evenodd" d="M92.3779 57.4955C92.9161 57.4023 93.6198 57.3506 94.3546 57.3506C95.5965 57.3506 96.409 57.5524 97.0247 58.0233C97.6974 58.5252 98.1218 59.3325 98.1218 60.4916C98.1218 61.7335 97.6664 62.5925 97.0506 63.1255C96.3676 63.6947 95.3171 63.9637 94.0442 63.9637C93.2835 63.9637 92.735 63.9172 92.3779 63.8654V57.4955ZM93.8423 62.7891C93.9665 62.815 94.1787 62.815 94.3546 62.815C95.6949 62.8253 96.5694 62.0905 96.5694 60.5433C96.5694 59.1462 95.7777 58.4786 94.5099 58.4786C94.189 58.4786 93.9717 58.5045 93.8475 58.5356V62.7839L93.8423 62.7891Z" fill="#0A70B8"/>
<path fill-rule="evenodd" clip-rule="evenodd" d="M101.842 63.9998C99.9225 63.9998 98.7893 62.5457 98.7893 60.6932C98.7893 58.7476 100.042 57.2883 101.951 57.2883C103.86 57.2883 105.035 58.7838 105.035 60.5742C105.035 62.7165 103.752 63.9946 101.853 63.9946H101.842V63.9998ZM101.91 62.8355C102.903 62.8355 103.472 61.8989 103.472 60.6311C103.472 59.4617 102.924 58.463 101.91 58.463C100.895 58.463 100.326 59.4461 100.326 60.6622C100.326 61.8782 100.916 62.8407 101.899 62.8407H101.91V62.8355Z" fill="#0A70B8"/>
<path fill-rule="evenodd" clip-rule="evenodd" d="M107.369 63.8965L105.289 57.4023H106.898L107.69 60.1501C107.912 60.9314 108.114 61.661 108.269 62.4735H108.295C108.461 61.6921 108.662 60.9211 108.885 60.1811L109.713 57.4075H111.276L109.087 63.9017H107.369V63.8965Z" fill="#0A70B8"/>
<path d="M113.444 57.4023H111.979V63.8965H113.444V57.4023Z" fill="#0A70B8"/>
<path fill-rule="evenodd" clip-rule="evenodd" d="M114.717 63.8965V57.4023H116.43L117.78 59.7827C118.163 60.4657 118.541 61.2781 118.841 62.0078H118.862C118.774 61.1488 118.743 60.2743 118.743 59.2911V57.4023H120.093V63.8965H118.551L117.164 61.392C116.776 60.6882 116.347 59.8603 116.036 59.0996H115.995C116.041 59.969 116.062 60.8849 116.062 61.9405V63.8965H114.712H114.717Z" fill="#0A70B8"/>
<path fill-rule="evenodd" clip-rule="evenodd" d="M122.872 62.2303L122.417 63.8965H120.895L122.882 57.3972H124.802L126.825 63.8965H125.247L124.745 62.2303H122.877H122.872ZM124.517 61.1333L124.114 59.7568C124.005 59.3739 123.891 58.8823 123.793 58.5046H123.762C123.674 58.8927 123.571 59.3843 123.472 59.7568L123.079 61.1333H124.512H124.517Z" fill="#0A70B8"/>
<path fill-rule="evenodd" clip-rule="evenodd" d="M129.64 57.4955C130.023 57.4179 130.794 57.3506 131.539 57.3506C132.435 57.3506 132.983 57.4386 133.459 57.718C133.915 57.9612 134.23 58.401 134.23 59.0013C134.23 59.6015 133.894 60.0983 133.169 60.3777V60.3984C133.915 60.5899 134.463 61.1591 134.463 61.9974C134.463 62.5976 134.194 63.0582 133.79 63.3738C133.319 63.7516 132.528 63.9637 131.234 63.9637C130.51 63.9637 129.971 63.9172 129.645 63.8654V57.4955H129.64ZM131.094 59.9741H131.576C132.357 59.9741 132.761 59.6533 132.761 59.172C132.761 58.6908 132.383 58.4217 131.72 58.4217C131.394 58.4217 131.208 58.4424 131.094 58.4683V59.9689V59.9741ZM131.094 62.8564C131.239 62.8822 131.41 62.8822 131.664 62.8822C132.331 62.8822 132.916 62.6235 132.916 61.9405C132.916 61.2574 132.326 61.0246 131.596 61.0246H131.094V62.8564Z" fill="#0A70B8"/>
<path fill-rule="evenodd" clip-rule="evenodd" d="M136.931 62.2303L136.481 63.8965H134.96L136.947 57.3972H138.867L140.89 63.8965H139.306L138.805 62.2303H136.931ZM138.582 61.1333L138.178 59.7568C138.07 59.3739 137.956 58.8823 137.858 58.5046H137.832C137.744 58.8927 137.635 59.3843 137.542 59.7568L137.149 61.1333H138.587H138.582Z" fill="#0A70B8"/>
<path fill-rule="evenodd" clip-rule="evenodd" d="M141.754 63.8965V57.4023H143.472L144.823 59.7827C145.211 60.4657 145.583 61.2781 145.883 62.0078H145.904C145.816 61.1488 145.79 60.2743 145.79 59.2911V57.4023H147.141V63.8965H145.599L144.212 61.392C143.829 60.6882 143.394 59.8603 143.084 59.0996H143.048C143.094 59.969 143.115 60.8849 143.115 61.9405V63.8965H141.764H141.754Z" fill="#0A70B8"/>
<path fill-rule="evenodd" clip-rule="evenodd" d="M148.403 57.4023H149.858V60.2743H149.878C150.023 60.0259 150.178 59.793 150.334 59.5602L151.798 57.4023H153.609L151.457 60.1708L153.713 63.9017H152.005L150.406 61.097L149.858 61.7801V63.9017H148.403V57.4023Z" fill="#0A70B8"/>
</svg>
