<svg xmlns="http://www.w3.org/2000/svg" width="62" height="40" fill="none" viewBox="0 0 62 40"><g clip-path="url(#clip0_5_7158)"><path fill="#0A70B8" fill-rule="evenodd" d="M55.0485 14.097C54.9315 13.9849 54.7711 13.9634 54.5458 14.0323C54.2207 14.1315 53.8003 14.4075 53.2586 14.8818C53.2543 14.8862 53.2499 14.8905 53.2499 14.8905C52.8772 15.2398 52.6562 15.5718 52.5219 15.8521C52.3052 16.3006 52.3182 16.7361 52.5522 17.1846C52.5652 17.2104 52.5825 17.2406 52.5999 17.2708C52.6519 17.3527 52.7082 17.4347 52.7819 17.5123C52.7776 17.4648 52.7732 17.4217 52.7732 17.3743C52.7732 17.2579 52.7862 17.1371 52.8166 17.0207C52.8772 16.7965 52.9899 16.5722 53.1243 16.3868C53.2326 16.2402 53.3626 16.1065 53.5013 15.9944C53.6487 15.8736 53.8003 15.7658 53.9607 15.6624C54.2294 15.4942 54.4981 15.3217 54.7495 15.1233C54.8968 15.0069 55.0312 14.8646 55.1092 14.6878C55.1698 14.5455 55.2088 14.3644 55.1308 14.2178C55.1092 14.1746 55.0788 14.1315 55.0442 14.097" clip-rule="evenodd"/><path fill="#0A70B8" fill-rule="evenodd" d="M58.0779 8.36638C58.0606 8.28876 58.0172 8.20683 57.9306 8.09471C57.8352 7.97397 57.6532 7.81873 57.1721 7.89635C56.9728 7.92654 56.7474 7.99553 56.4917 8.09471C56.3921 8.13784 56.2924 8.18527 56.1927 8.23702C56.002 8.32757 55.8113 8.42244 55.6206 8.51731C55.0009 8.83641 54.3811 9.19432 53.8221 9.63416C53.3844 9.97914 52.8513 10.4362 52.4006 10.9925C52.0842 11.3806 51.8198 11.8161 51.6552 12.2862C51.6552 12.2991 51.6378 12.3422 51.6335 12.3465C51.5511 12.6053 51.4948 12.8899 51.4688 13.1572C51.4255 13.6574 51.5598 14.162 51.6898 14.5716C51.7072 14.632 51.7288 14.6924 51.7462 14.7527C51.7592 14.6449 51.7765 14.5112 51.8112 14.3733C51.8328 14.2741 51.8632 14.1706 51.8979 14.0757C52.2532 13.1572 53.458 11.7903 55.7073 10.5915C56.8688 9.97483 57.8742 9.32369 58.0476 8.76741C58.0909 8.63374 58.0953 8.49575 58.0693 8.36207" clip-rule="evenodd"/><path fill="#F79121" fill-rule="evenodd" d="M59.9718 4.72255C59.9631 4.64924 59.9198 4.55438 59.8418 4.42501C59.7854 4.33014 59.6468 4.11453 59.0357 4.14472C58.78 4.16197 58.2252 4.24821 57.4105 4.57594C56.9901 4.74842 56.5264 4.96834 56.0193 5.24432C55.3692 5.59361 54.6498 6.03777 53.8611 6.58542C53.2717 6.99939 52.5912 7.59878 52.0278 8.32323C51.6378 8.82344 51.3084 9.3754 51.0961 9.96186C50.862 10.6346 50.8317 11.221 50.875 11.6997C50.9184 12.1136 51.0267 12.506 51.1091 12.7648C51.1394 12.8596 51.1654 12.9373 51.1827 12.9933C51.1827 12.9933 51.1827 12.6828 51.3604 12.174C51.3864 12.1093 51.4168 12.0403 51.4471 11.9713C51.4774 11.9023 51.5078 11.8333 51.5425 11.7644C51.5771 11.6954 51.6118 11.622 51.6465 11.5531C51.6855 11.4754 51.7245 11.4021 51.7722 11.3288C51.8198 11.2512 51.8675 11.1693 51.9152 11.0873C51.9715 11.0011 52.0278 10.9192 52.0842 10.8372C52.1449 10.7467 52.2142 10.6604 52.2792 10.5742C52.3529 10.4793 52.4266 10.3888 52.5046 10.2982C52.5912 10.2033 52.6736 10.1085 52.7603 10.0179C52.8556 9.91874 52.9466 9.81956 53.042 9.729C53.146 9.62551 53.2543 9.52633 53.3627 9.43146C53.4797 9.32797 53.601 9.22879 53.718 9.12961C53.8524 9.02611 53.9824 8.92262 54.1168 8.82775C54.2641 8.72426 54.4115 8.62077 54.5588 8.52159C54.7192 8.41809 54.8795 8.31891 55.0442 8.21542C55.2176 8.10762 55.3952 8.00844 55.5773 7.90926C55.7636 7.80145 55.9543 7.70227 56.1493 7.60309C56.3487 7.49529 56.5524 7.39611 56.7561 7.29261C56.9684 7.18481 57.1808 7.08132 57.3931 6.97782C58.0172 6.67597 58.6326 6.40862 59.1787 5.9774C59.3824 5.81785 59.5774 5.64967 59.7248 5.43837C59.7854 5.35644 59.8504 5.25726 59.8894 5.16239C59.9501 5.01147 59.9718 4.86485 59.9631 4.71824" clip-rule="evenodd"/><path fill="#0A70B8" fill-rule="evenodd" d="M61.8613 0.432038C61.7963 0.306985 61.6533 0.0266926 60.8992 0.000819467C60.3705 -0.0121171 59.8201 0.130185 59.3217 0.281112C58.91 0.401853 58.5069 0.539843 58.1082 0.703706C57.7138 0.863257 57.3238 1.04006 56.9424 1.22979C56.7214 1.3376 56.5047 1.45403 56.288 1.57046C55.8763 1.79469 55.4732 2.02755 55.0702 2.26903C54.7192 2.48033 54.3724 2.70025 54.0344 2.93311C53.705 3.15734 53.38 3.39451 53.0766 3.64893C52.9033 3.79554 52.7299 3.94647 52.5696 4.10171C51.9758 4.66661 51.4514 5.3005 51.0224 6.00338C50.784 6.39148 50.5847 6.80976 50.433 7.24098C50.264 7.71532 50.1816 8.15516 50.1513 8.56051C50.0603 9.70324 50.407 10.5226 50.524 10.8675C50.524 10.8675 50.576 10.2207 50.7277 9.77655C50.823 9.50057 50.9487 9.23321 51.0874 8.9831C51.3127 8.56482 51.5858 8.17673 51.8848 7.8145C52.3529 7.24961 52.8859 6.74077 53.4623 6.27936C53.9174 5.91283 54.4028 5.58079 54.9012 5.27031C55.4039 4.95983 55.9153 4.67954 56.4397 4.41219C56.7474 4.25695 57.0594 4.10602 57.3715 3.95941C58.0302 3.64893 58.6933 3.3557 59.3607 3.0711C59.8634 2.8598 60.3748 2.63988 60.8385 2.34234C61.2199 2.10085 61.6533 1.76019 61.8657 1.35053C61.9567 1.17805 62 0.996935 62 0.815823C62 0.725267 61.9523 0.600213 61.87 0.43635" clip-rule="evenodd"/><path fill="#F79121" fill-rule="evenodd" d="M56.3964 12.0703C56.4267 11.9539 56.4267 11.8418 56.3964 11.7297C56.379 11.665 56.34 11.5917 56.262 11.5055C56.1277 11.3459 55.9153 11.3028 55.6163 11.3588C55.2522 11.4321 54.7755 11.6693 54.1904 12.0531C54.0517 12.1437 53.9087 12.2428 53.7614 12.355C53.185 12.8164 52.4482 13.5063 52.1579 14.3731C52.1579 14.3731 52.1579 14.3817 52.1579 14.386L52.1492 14.4162C52.0755 14.6447 52.0322 14.869 52.0192 15.0587C52.0018 15.326 52.0408 15.6365 52.1275 15.9513C52.1752 15.8953 52.2229 15.8392 52.2792 15.7831C52.6909 14.8215 53.6747 14.0195 55.3996 13.101C56.067 12.743 56.3357 12.3248 56.3964 12.0703Z" clip-rule="evenodd"/><path fill="#F79121" fill-rule="evenodd" d="M53.9738 18.1031C53.8957 18.1031 53.8134 18.0772 53.7441 18.0557C53.6617 18.0298 53.575 17.991 53.484 17.9392C53.4017 17.8918 53.276 17.8185 53.1417 17.7279C52.86 17.5382 52.9336 17.2234 52.9683 17.1113C53.0203 16.9345 53.0983 16.7793 53.2197 16.624L53.2543 16.6456L53.3453 16.7016C53.4407 16.762 53.5447 16.8224 53.6444 16.8828C53.653 16.8914 53.6574 16.8957 53.6617 16.8957L53.6747 16.9043C53.6747 16.9043 53.6834 16.9086 53.6877 16.9129C53.7614 16.9604 53.8611 17.0251 53.9564 17.0984C54.0258 17.1544 54.0864 17.2105 54.1341 17.2665C54.2858 17.452 54.3421 17.7883 54.1601 18.0169C54.1514 18.0341 54.1298 18.0514 54.1081 18.0643C54.0908 18.0729 54.0691 18.0815 54.0474 18.0859C54.0214 18.0945 53.9998 18.0945 53.9694 18.0945" clip-rule="evenodd"/><path fill="#0A70B8" fill-rule="evenodd" d="M33.4789 10.8675C33.4399 10.8632 33.4009 10.8589 33.3576 10.8589L31.8451 10.8675H30.0032C29.5698 10.8675 29.1841 11.109 29.0411 11.4755C28.8591 11.9369 28.521 12.7476 28.079 13.8214L27.3769 15.5333C27.1082 16.1931 26.7961 16.9649 26.4364 17.8576C26.0811 18.7459 25.6693 19.7592 25.2013 20.8977C25.0453 21.2814 24.8849 21.6782 24.7159 22.0921C24.5469 21.6782 24.3822 21.2814 24.2262 20.8977C23.7624 19.7592 23.3507 18.7459 22.991 17.8576C22.6313 16.9649 22.3193 16.1931 22.0506 15.5333L21.3528 13.8214C20.9064 12.7476 20.5727 11.9369 20.3907 11.4755C20.2434 11.109 19.862 10.8675 19.4286 10.8675H15.0211C14.4577 10.8675 13.9983 11.2772 13.9983 11.786V12.269C13.9983 12.7735 14.4533 13.1832 15.0211 13.1832C15.5281 13.1832 15.9225 13.278 16.1956 13.4591C16.3602 13.5713 16.6896 13.8817 17.045 14.7528L22.6617 28.3707C22.8133 28.7286 23.1904 28.9701 23.6194 28.9701H25.8124C26.0551 28.9701 26.2934 28.8881 26.4711 28.7545C26.6055 28.651 26.7095 28.5259 26.7701 28.3707L31.7411 16.3224L32.3911 14.7528C32.4691 14.5631 32.5428 14.4035 32.6122 14.2655L33.7216 11.6437L33.8126 11.4238C33.921 11.1219 33.791 10.9106 33.4746 10.8718" clip-rule="evenodd"/><path fill="#0A70B8" fill-rule="evenodd" d="M49.5315 21.2729C49.2282 20.6519 48.8251 20.1345 48.3267 19.7248C48.0407 19.4877 47.7287 19.2807 47.395 19.1082C47.4903 19.0349 47.5857 18.9573 47.6767 18.8796C48.0754 18.526 48.4134 18.0905 48.6778 17.5687C48.9508 17.0297 49.0895 16.3829 49.0895 15.6455C49.0895 15.4946 49.0895 15.348 49.0722 15.21C49.0028 14.2268 48.6778 13.4377 48.1317 12.8253C47.1913 11.7516 45.8088 10.8848 43.5812 10.8848C43.0914 10.859 42.6581 10.8676 42.268 10.8719C42.047 10.8676 41.839 10.8633 41.7133 10.8633H35.1648C34.6058 10.8633 34.1507 11.2729 34.1507 11.7775V12.2604C34.1507 12.765 34.6058 13.1746 35.1648 13.1746C35.4855 13.1746 36.283 13.1746 36.3913 13.3988C36.4173 13.4722 36.4087 13.6576 36.4087 14.0112L36.4 27.9352C36.4 27.9352 36.4 27.9568 36.4043 27.9697V28.043C36.4043 28.5476 36.8594 28.9572 37.4184 28.9572H42.0513C42.7664 28.9572 43.5508 28.9141 44.3873 28.8322C45.3017 28.7416 46.1641 28.526 46.9529 28.1983C47.798 27.8447 48.5174 27.0987 49.0852 26.4044C49.6876 25.6756 49.9953 24.7054 49.9953 23.5109C49.9953 22.6485 49.8392 21.8939 49.5315 21.2686M40.9375 13.6921C41.0719 13.6748 41.2366 13.649 41.6526 13.649C42.112 13.649 42.5497 13.6921 42.9484 13.774C43.2951 13.843 43.5812 13.9551 43.8239 14.1147C44.0362 14.257 44.2096 14.4467 44.3396 14.6968C44.3569 14.7313 44.3743 14.7658 44.3873 14.8003C44.4913 15.059 44.5433 15.3954 44.5433 15.7964C44.5433 16.3656 44.4393 16.7969 44.2399 17.0513C44.0146 17.3359 43.7545 17.5385 43.4468 17.6636C43.0871 17.8102 42.7014 17.8965 42.3027 17.9223C41.8086 17.9525 41.3059 17.9655 40.9332 17.9655V17.3661C40.9332 16.2449 40.9115 13.9637 40.9332 13.7956C40.9375 13.7481 40.9289 13.7136 40.9332 13.6878M45.1847 24.6882C45.0027 24.99 44.7773 25.2272 44.4956 25.3953C44.1836 25.5894 43.8239 25.7274 43.4208 25.8179C42.9788 25.9128 42.5107 25.9602 42.0383 25.9602C41.5356 25.9602 41.1932 25.943 40.9332 25.9085C40.9159 25.9085 40.9462 25.9042 40.9332 25.8999C40.9332 25.8395 40.9419 22.2431 40.9332 21.0918V20.7425C41.4619 20.7425 42.1163 20.7684 42.7231 20.8201C43.2345 20.8676 43.7069 20.9883 44.1316 21.1823C44.5173 21.3591 44.8293 21.6136 45.0894 21.9715C45.332 22.3078 45.4534 22.821 45.4534 23.5023C45.4534 23.9896 45.3667 24.3863 45.189 24.6838" clip-rule="evenodd"/><path fill="#0A70B8" fill-rule="evenodd" d="M12.7069 10.8589H8.03063C7.45856 10.8589 6.99484 11.2729 6.99484 11.786V12.2776C6.99484 12.7907 7.45856 13.2047 8.03063 13.2047C8.93641 13.2047 9.15743 13.2047 9.22244 13.3168C9.28745 13.4289 9.24844 13.8214 9.24844 14.2741V28.03C9.24844 28.5432 9.7165 28.9571 10.2842 28.9571H12.7069C13.2789 28.9571 13.7426 28.5432 13.7426 28.03V11.786C13.7426 11.2772 13.2789 10.8589 12.7112 10.8589" clip-rule="evenodd"/><path fill="#0A70B8" d="M1.22648 34.502H0V39.9137H1.22648V34.502Z"/><path fill="#0A70B8" fill-rule="evenodd" d="M2.29257 39.9137V34.502H3.73141L4.86254 36.4856C5.18325 37.0548 5.49962 37.7318 5.75098 38.3398H5.76832C5.69464 37.624 5.67297 36.8952 5.67297 36.0759V34.502H6.80411V39.9137H5.51262L4.35115 37.8266C4.03044 37.2402 3.6664 36.5502 3.40637 35.9164H3.37603C3.41504 36.6408 3.43237 37.4041 3.43237 38.2837V39.9137H2.30124H2.29257Z" clip-rule="evenodd"/><path fill="#0A70B8" fill-rule="evenodd" d="M7.86594 34.5797C8.31666 34.5021 8.90606 34.459 9.52147 34.459C10.5616 34.459 11.242 34.6272 11.7577 35.0196C12.3211 35.4378 12.6765 36.1106 12.6765 37.0765C12.6765 38.1114 12.2951 38.8272 11.7794 39.2714C11.2073 39.7457 10.3276 39.97 9.26144 39.97C8.62436 39.97 8.16497 39.9311 7.86594 39.888V34.5797ZM9.09241 38.9911C9.19643 39.0127 9.37411 39.0127 9.52147 39.0127C10.6439 39.0213 11.3764 38.4089 11.3764 37.1196C11.3764 35.9553 10.7133 35.399 9.65148 35.399C9.38278 35.399 9.20076 35.4206 9.09675 35.4465V38.9868L9.09241 38.9911Z" clip-rule="evenodd"/><path fill="#0A70B8" fill-rule="evenodd" d="M15.7926 39.9999C14.1847 39.9999 13.2356 38.7882 13.2356 37.2444C13.2356 35.623 14.2844 34.407 15.8836 34.407C17.4828 34.407 18.4665 35.6532 18.4665 37.1452C18.4665 38.9305 17.3918 39.9956 15.8012 39.9956H15.7926V39.9999ZM15.8489 39.0296C16.681 39.0296 17.1577 38.2491 17.1577 37.1927C17.1577 36.2181 16.6983 35.3858 15.8489 35.3858C14.9995 35.3858 14.5227 36.2052 14.5227 37.2185C14.5227 38.2319 15.0168 39.034 15.8402 39.034H15.8489V39.0296Z" clip-rule="evenodd"/><path fill="#0A70B8" fill-rule="evenodd" d="M20.4211 39.9137L18.6789 34.502H20.0267L20.6898 36.7917C20.8762 37.4429 21.0452 38.0509 21.1752 38.7279H21.1969C21.3355 38.0768 21.5046 37.4342 21.6909 36.8176L22.3843 34.5063H23.6932L21.8599 39.9181H20.4211V39.9137Z" clip-rule="evenodd"/><path fill="#0A70B8" d="M25.509 34.502H24.2826V39.9137H25.509V34.502Z"/><path fill="#0A70B8" fill-rule="evenodd" d="M26.5751 39.9137V34.502H28.0096L29.1408 36.4856C29.4615 37.0548 29.7778 37.7318 30.0292 38.3398H30.0465C29.9729 37.624 29.9469 36.8952 29.9469 36.0759V34.502H31.078V39.9137H29.7865L28.625 37.8266C28.3 37.2402 27.9403 36.5502 27.6803 35.9164H27.6456C27.6846 36.6408 27.7019 37.4041 27.7019 38.2837V39.9137H26.5708H26.5751Z" clip-rule="evenodd"/><path fill="#0A70B8" fill-rule="evenodd" d="M33.4053 38.5254L33.0239 39.9139H31.7498L33.414 34.4978H35.0218L36.7164 39.9139H35.3945L34.9742 38.5254H33.4096H33.4053ZM34.7835 37.6112L34.4454 36.4642C34.3544 36.1451 34.2591 35.7354 34.1767 35.4206H34.1507C34.0771 35.744 33.9904 36.1537 33.908 36.4642L33.5787 37.6112H34.7791H34.7835Z" clip-rule="evenodd"/><path fill="#0A70B8" fill-rule="evenodd" d="M39.0739 34.5797C39.3946 34.515 40.0404 34.459 40.6645 34.459C41.4142 34.459 41.8736 34.5323 42.2723 34.7651C42.6537 34.9678 42.9181 35.3344 42.9181 35.8346C42.9181 36.3348 42.6364 36.7488 42.0296 36.9816V36.9989C42.6537 37.1584 43.1131 37.6328 43.1131 38.3313C43.1131 38.8315 42.8877 39.2153 42.5497 39.4784C42.1553 39.7932 41.4922 39.97 40.4088 39.97C39.802 39.97 39.3513 39.9311 39.0783 39.888V34.5797H39.0739ZM40.2918 36.6453H40.6948C41.3492 36.6453 41.6873 36.3779 41.6873 35.9769C41.6873 35.5758 41.3709 35.3516 40.8161 35.3516C40.5431 35.3516 40.3871 35.3689 40.2918 35.3904V36.6409V36.6453ZM40.2918 39.0472C40.4131 39.0687 40.5561 39.0687 40.7685 39.0687C41.3275 39.0687 41.8173 38.8531 41.8173 38.2839C41.8173 37.7147 41.3232 37.5206 40.7121 37.5206H40.2918V39.0472Z" clip-rule="evenodd"/><path fill="#0A70B8" fill-rule="evenodd" d="M45.1803 38.5254L44.8033 39.9139H43.5291L45.1933 34.4978H46.8012L48.4957 39.9139H47.1696L46.7492 38.5254H45.1803ZM46.5628 37.6112L46.2248 36.4642C46.1338 36.1451 46.0384 35.7354 45.9561 35.4206H45.9344C45.8608 35.744 45.7697 36.1537 45.6917 36.4642L45.3624 37.6112H46.5672H46.5628Z" clip-rule="evenodd"/><path fill="#0A70B8" fill-rule="evenodd" d="M49.2195 39.9137V34.502H50.6583L51.7895 36.4856C52.1145 37.0548 52.4266 37.7318 52.6779 38.3398H52.6953C52.6216 37.624 52.5999 36.8952 52.5999 36.0759V34.502H53.731V39.9137H52.4396L51.2781 37.8266C50.9574 37.2402 50.5933 36.5502 50.3333 35.9164H50.303C50.342 36.6408 50.3593 37.4041 50.3593 38.2837V39.9137H49.2282H49.2195Z" clip-rule="evenodd"/><path fill="#0A70B8" fill-rule="evenodd" d="M54.7885 34.502H56.0063V36.8952H56.0236C56.145 36.6882 56.275 36.4942 56.405 36.3001L57.6315 34.502H59.1483L57.3455 36.809L59.235 39.9181H57.8048L56.4657 37.5809L56.0063 38.1501V39.9181H54.7885V34.502Z" clip-rule="evenodd"/></g><defs><clipPath id="clip0_5_7158"><rect width="62" height="40" fill="#fff"/></clipPath></defs></svg>