<svg xmlns="http://www.w3.org/2000/svg" width="40" height="40" fill="none" viewBox="0 0 40 40"><path fill="#0A70B8" fill-rule="evenodd" d="M34.9448 19.3031C34.8597 19.2212 34.7431 19.2054 34.5793 19.2559C34.3429 19.3284 34.0372 19.5301 33.6432 19.8767C33.6401 19.8799 33.6369 19.883 33.6369 19.883C33.3659 20.1383 33.2052 20.381 33.1075 20.5858C32.9499 20.9136 32.9593 21.2319 33.1295 21.5597C33.139 21.5786 33.1516 21.6006 33.1642 21.6227C33.202 21.6826 33.243 21.7425 33.2966 21.7992C33.2934 21.7645 33.2903 21.733 33.2903 21.6983C33.2903 21.6133 33.2997 21.525 33.3218 21.4399C33.3659 21.276 33.4478 21.1122 33.5455 20.9766C33.6243 20.8695 33.7189 20.7718 33.8197 20.6898C33.9269 20.6016 34.0372 20.5228 34.1538 20.4472C34.3492 20.3243 34.5446 20.1982 34.7274 20.0532C34.8345 19.9681 34.9322 19.8641 34.989 19.7349C35.0331 19.6309 35.0615 19.4985 35.0047 19.3914C34.989 19.3599 34.9669 19.3284 34.9417 19.3031" clip-rule="evenodd"/><path fill="#0A70B8" fill-rule="evenodd" d="M37.1478 15.1146C37.1352 15.0579 37.1037 14.998 37.0407 14.9161C36.9714 14.8278 36.839 14.7144 36.4892 14.7711C36.3442 14.7932 36.1803 14.8436 35.9944 14.9161C35.9219 14.9476 35.8494 14.9823 35.7769 15.0201C35.6382 15.0863 35.4996 15.1556 35.3609 15.2249C34.9102 15.4582 34.4595 15.7197 34.053 16.0412C33.7347 16.2933 33.347 16.6274 33.0193 17.034C32.7892 17.3176 32.5969 17.6359 32.4772 17.9794C32.4772 17.9889 32.4646 18.0204 32.4614 18.0236C32.4015 18.2126 32.3606 18.4207 32.3417 18.6161C32.3101 18.9816 32.4078 19.3504 32.5024 19.6498C32.515 19.6939 32.5308 19.738 32.5434 19.7821C32.5528 19.7034 32.5654 19.6057 32.5906 19.5048C32.6064 19.4323 32.6285 19.3567 32.6537 19.2873C32.9121 18.6161 33.7882 17.617 35.4239 16.7409C36.2685 16.2902 36.9997 15.8143 37.1258 15.4077C37.1573 15.31 37.1604 15.2092 37.1415 15.1115" clip-rule="evenodd"/><path fill="#F79121" fill-rule="evenodd" d="M38.5251 12.4518C38.5188 12.3982 38.4873 12.3288 38.4305 12.2343C38.3896 12.165 38.2887 12.0074 37.8443 12.0294C37.6584 12.042 37.255 12.1051 36.6625 12.3446C36.3568 12.4707 36.0196 12.6314 35.6508 12.8331C35.1781 13.0884 34.6549 13.413 34.0813 13.8132C33.6527 14.1158 33.1579 14.5539 32.7482 15.0833C32.4646 15.4489 32.2251 15.8523 32.0706 16.2809C31.9004 16.7726 31.8784 17.2012 31.9099 17.551C31.9414 17.8536 32.0202 18.1404 32.0801 18.3295C32.1021 18.3988 32.121 18.4555 32.1337 18.4965C32.1337 18.4965 32.1337 18.2696 32.2629 17.8977C32.2818 17.8504 32.3038 17.8 32.3259 17.7496C32.348 17.6992 32.37 17.6487 32.3952 17.5983C32.4205 17.5479 32.4457 17.4943 32.4709 17.4439C32.4992 17.3872 32.5276 17.3336 32.5623 17.28C32.5969 17.2233 32.6316 17.1634 32.6663 17.1035C32.7072 17.0405 32.7482 16.9806 32.7892 16.9207C32.8333 16.8545 32.8837 16.7915 32.931 16.7285C32.9846 16.6591 33.0382 16.5929 33.0949 16.5268C33.1579 16.4574 33.2178 16.3881 33.2808 16.3219C33.3502 16.2494 33.4164 16.1769 33.4857 16.1108C33.5613 16.0351 33.6401 15.9626 33.7189 15.8933C33.804 15.8177 33.8922 15.7452 33.9773 15.6727C34.075 15.597 34.1696 15.5214 34.2673 15.4521C34.3744 15.3764 34.4816 15.3008 34.5887 15.2283C34.7054 15.1527 34.822 15.0802 34.9417 15.0045C35.0678 14.9258 35.197 14.8533 35.3294 14.7808C35.4649 14.702 35.6036 14.6295 35.7454 14.557C35.8904 14.4782 36.0385 14.4057 36.1866 14.3301C36.341 14.2513 36.4955 14.1757 36.6499 14.1C37.1037 13.8794 37.5512 13.684 37.9483 13.3689C38.0965 13.2523 38.2383 13.1293 38.3454 12.9749C38.3896 12.915 38.4368 12.8426 38.4652 12.7732C38.5093 12.6629 38.5251 12.5558 38.5188 12.4486" clip-rule="evenodd"/><path fill="#0A70B8" fill-rule="evenodd" d="M39.8992 9.31576C39.8519 9.22436 39.7479 9.01951 39.1995 9.0006C38.815 8.99114 38.4148 9.09515 38.0523 9.20545C37.7529 9.2937 37.4598 9.39455 37.1699 9.51431C36.8831 9.63092 36.5994 9.76013 36.3221 9.8988C36.1614 9.97759 36.0038 10.0627 35.8462 10.1478C35.5468 10.3117 35.2537 10.4818 34.9606 10.6583C34.7053 10.8128 34.4532 10.9735 34.2074 11.1437C33.9679 11.3076 33.7315 11.4809 33.5109 11.6668C33.3848 11.774 33.2588 11.8843 33.1422 11.9978C32.7104 12.4106 32.329 12.8739 32.017 13.3876C31.8437 13.6713 31.6987 13.977 31.5884 14.2921C31.4655 14.6388 31.4056 14.9603 31.3836 15.2565C31.3174 16.0917 31.5695 16.6905 31.6546 16.9426C31.6546 16.9426 31.6924 16.4699 31.8027 16.1453C31.8721 15.9436 31.9635 15.7482 32.0643 15.5654C32.2282 15.2597 32.4267 14.976 32.6442 14.7113C32.9846 14.2984 33.3722 13.9265 33.7914 13.5893C34.1223 13.3214 34.4753 13.0788 34.8377 12.8518C35.2033 12.6249 35.5752 12.4201 35.9565 12.2247C36.1803 12.1112 36.4072 12.0009 36.6341 11.8938C37.1132 11.6668 37.5954 11.4525 38.0807 11.2445C38.4463 11.0901 38.8182 10.9294 39.1554 10.7119C39.4327 10.5354 39.7479 10.2864 39.9023 9.98705C39.9685 9.86098 40 9.72862 40 9.59625C40 9.53007 39.9653 9.43867 39.9055 9.31891" clip-rule="evenodd"/><path fill="#F79121" fill-rule="evenodd" d="M35.925 17.822C35.9471 17.7369 35.9471 17.655 35.925 17.573C35.9124 17.5258 35.884 17.4722 35.8273 17.4092C35.7296 17.2926 35.5752 17.261 35.3577 17.302C35.093 17.3556 34.7463 17.5289 34.3208 17.8094C34.22 17.8756 34.116 17.9481 34.0088 18.03C33.5897 18.3672 33.0539 18.8715 32.8427 19.505C32.8427 19.505 32.8427 19.5113 32.8427 19.5144L32.8364 19.5365C32.7829 19.7035 32.7513 19.8674 32.7419 20.0061C32.7293 20.2015 32.7576 20.4284 32.8207 20.6585C32.8553 20.6175 32.89 20.5765 32.931 20.5355C33.2304 19.8327 33.9458 19.2465 35.2001 18.5752C35.6855 18.3137 35.8809 18.008 35.925 17.822Z" clip-rule="evenodd"/><path fill="#F79121" fill-rule="evenodd" d="M34.1633 22.2311C34.1065 22.2311 34.0467 22.2122 33.9962 22.1965C33.9364 22.1776 33.8733 22.1492 33.8071 22.1114C33.7473 22.0767 33.6559 22.0231 33.5582 21.957C33.3533 21.8183 33.4069 21.5882 33.4321 21.5063C33.4699 21.3771 33.5267 21.2636 33.6149 21.1501L33.6401 21.1659L33.7063 21.2069C33.7756 21.251 33.8513 21.2951 33.9238 21.3392C33.9301 21.3455 33.9332 21.3487 33.9364 21.3487L33.9458 21.355C33.9458 21.355 33.9521 21.3582 33.9553 21.3613C34.0088 21.396 34.0813 21.4432 34.1507 21.4968C34.2011 21.5378 34.2452 21.5788 34.2799 21.6197C34.3902 21.7553 34.4312 22.0011 34.2988 22.1681C34.2925 22.1807 34.2767 22.1933 34.261 22.2028C34.2484 22.2091 34.2326 22.2154 34.2169 22.2185C34.1979 22.2248 34.1822 22.2248 34.1601 22.2248" clip-rule="evenodd"/><path fill="#0A70B8" fill-rule="evenodd" d="M19.2594 16.9426C19.231 16.9394 19.2026 16.9363 19.1711 16.9363L18.0712 16.9426H16.7318C16.4166 16.9426 16.1361 17.1191 16.0321 17.387C15.8998 17.7242 15.6539 18.3167 15.3325 19.1014L14.8219 20.3526C14.6265 20.8348 14.3996 21.3989 14.138 22.0513C13.8796 22.7005 13.5802 23.4412 13.2398 24.2732C13.1264 24.5537 13.0098 24.8436 12.8868 25.1462C12.7639 24.8436 12.6442 24.5537 12.5307 24.2732C12.1935 23.4412 11.8941 22.7005 11.6325 22.0513C11.3709 21.3989 11.144 20.8348 10.9486 20.3526L10.4412 19.1014C10.1166 18.3167 9.87392 17.7242 9.74156 17.387C9.6344 17.1191 9.35706 16.9426 9.0419 16.9426H5.83673C5.42703 16.9426 5.09296 17.242 5.09296 17.6139V17.9669C5.09296 18.3356 5.42387 18.635 5.83673 18.635C6.20547 18.635 6.49226 18.7043 6.69081 18.8367C6.81057 18.9186 7.0501 19.1455 7.30853 19.7822L11.393 29.7349C11.5033 29.9965 11.7775 30.173 12.0895 30.173H13.6842C13.8607 30.173 14.034 30.1131 14.1632 30.0154C14.2609 29.9398 14.3366 29.8484 14.3807 29.7349L17.9956 20.9293L18.4683 19.7822C18.525 19.6435 18.5786 19.5269 18.629 19.426L19.4359 17.5099L19.502 17.3491C19.5808 17.1285 19.4863 16.9741 19.2562 16.9457" clip-rule="evenodd"/><path fill="#0A70B8" fill-rule="evenodd" d="M30.9329 24.5474C30.7123 24.0936 30.4192 23.7154 30.0567 23.416C29.8487 23.2426 29.6218 23.0914 29.3791 22.9653C29.4485 22.9117 29.5178 22.855 29.584 22.7983C29.8739 22.5398 30.1198 22.2215 30.312 21.8402C30.5106 21.4462 30.6114 20.9735 30.6114 20.4346C30.6114 20.3243 30.6114 20.2171 30.5988 20.1163C30.5484 19.3977 30.312 18.821 29.9149 18.3734C29.231 17.5887 28.2256 16.9552 26.6057 16.9552C26.2496 16.9363 25.9344 16.9426 25.6508 16.9458C25.4901 16.9426 25.3388 16.9395 25.2474 16.9395H20.4853C20.0788 16.9395 19.7479 17.2389 19.7479 17.6076V17.9606C19.7479 18.3293 20.0788 18.6287 20.4853 18.6287C20.7186 18.6287 21.2984 18.6287 21.3772 18.7926C21.3961 18.8462 21.3898 18.9817 21.3898 19.2401L21.3835 29.4166C21.3835 29.4166 21.3835 29.4324 21.3867 29.4418V29.4954C21.3867 29.8641 21.7176 30.1635 22.1242 30.1635H25.4932C26.0132 30.1635 26.5837 30.132 27.1919 30.0721C27.8569 30.006 28.4841 29.8484 29.0577 29.6089C29.6722 29.3504 30.1954 28.8052 30.6083 28.2978C31.0463 27.7652 31.2701 27.0561 31.2701 26.1831C31.2701 25.5528 31.1566 25.0012 30.9329 24.5442M24.6833 19.0069C24.781 18.9943 24.9007 18.9754 25.2033 18.9754C25.5373 18.9754 25.8556 19.0069 26.1456 19.0668C26.3977 19.1172 26.6057 19.1991 26.7822 19.3158C26.9366 19.4198 27.0627 19.5584 27.1573 19.7412C27.1699 19.7664 27.1825 19.7916 27.1919 19.8169C27.2676 20.006 27.3054 20.2518 27.3054 20.5449C27.3054 20.9609 27.2297 21.276 27.0848 21.462C26.9209 21.67 26.7318 21.8181 26.508 21.9095C26.2464 22.0167 25.966 22.0797 25.676 22.0986C25.3167 22.1207 24.9511 22.1301 24.6801 22.1301V21.6921C24.6801 20.8726 24.6643 19.2054 24.6801 19.0825C24.6833 19.0479 24.677 19.0227 24.6801 19.0037M27.7718 27.0435C27.6395 27.2641 27.4756 27.4374 27.2707 27.5603C27.0438 27.7021 26.7822 27.803 26.4891 27.8692C26.1677 27.9385 25.8273 27.9732 25.4838 27.9732C25.1182 27.9732 24.8692 27.9606 24.6801 27.9354C24.6675 27.9354 24.6896 27.9322 24.6801 27.9291C24.6801 27.8849 24.6864 25.2565 24.6801 24.415V24.1598C25.0646 24.1598 25.5405 24.1787 25.9817 24.2165C26.3536 24.2511 26.6971 24.3394 27.006 24.4812C27.2865 24.6104 27.5134 24.7964 27.7025 25.058C27.879 25.3038 27.9672 25.6788 27.9672 26.1768C27.9672 26.5329 27.9042 26.8228 27.775 27.0403" clip-rule="evenodd"/><path fill="#0A70B8" fill-rule="evenodd" d="M4.1538 16.9363H0.753231C0.337221 16.9363 0 17.2388 0 17.6139V17.9732C0 18.3482 0.337221 18.6507 0.753231 18.6507C1.41191 18.6507 1.57265 18.6507 1.61992 18.7327C1.66719 18.8146 1.63883 19.1014 1.63883 19.4323V29.4859C1.63883 29.861 1.9792 30.1635 2.39206 30.1635H4.1538C4.56981 30.1635 4.90703 29.861 4.90703 29.4859V17.6139C4.90703 17.242 4.56981 16.9363 4.15695 16.9363" clip-rule="evenodd"/></svg>