<svg width="122" height="40" viewBox="0 0 122 40" fill="none" xmlns="http://www.w3.org/2000/svg">
<g clip-path="url(#clip0_9_15)">
<path d="M55.0981 20.5264L54.6141 20.2169C52.9626 18.5642 50.6627 17.8479 47.5878 18.0281C45.0278 18.1851 42.9969 19.2032 41.4468 20.1483C41.4468 20.1251 41.4446 20.1019 41.4446 20.0787C41.4446 19.2739 41.535 18.4028 41.6254 17.5561C41.7136 16.6961 41.8062 15.8206 41.8062 14.9926C41.8062 14.147 41.7114 13.3455 41.4203 12.6602C41.3476 12.4844 41.1855 12.3794 40.9815 12.3794C40.1547 12.3982 38.5395 12.9653 38.1481 13.3101C38.1481 13.3124 37.9353 13.7777 37.9353 13.7777C37.9221 14.6964 37.7203 17.2598 37.5152 17.5716C37.5241 17.5605 37.4072 17.8811 37.4072 17.8811C37.0588 21.5434 37.0522 24.7635 37.373 27.5281C37.4094 27.8045 37.9419 28.219 38.3509 28.3694C38.8008 28.5363 40.2076 28.1582 41.019 27.8531C41.008 27.8565 41.3222 27.8045 41.3222 27.8045C41.578 27.7769 41.729 27.5602 41.718 27.2673C41.7136 27.2606 41.7379 26.4714 41.7379 26.4714C42.3233 24.0858 44.6926 21.2383 47.4963 20.8105C49.0817 20.5584 50.332 20.9674 51.3209 22.0463C51.4543 22.2409 51.7432 23.9576 50.6991 25.9308C49.9218 27.3911 48.3673 28.6236 46.321 29.3919C44.385 30.1303 42.2549 30.4277 39.6243 30.337C39.5141 30.2663 37.1613 28.6667 37.1613 28.6667C35.0743 27.1976 32.4823 25.3704 30.1328 24.4761C29.7194 24.3169 28.9807 23.7012 28.5353 23.3319L28.2916 23.1319C26.9366 22.043 24.3578 20.3174 22.2862 18.9357C22.2862 18.9357 21.3513 18.3067 21.1705 18.1851C21.1727 18.1077 21.1727 17.9507 21.1727 17.9507C21.2333 17.8844 22.5354 17.1018 22.5354 17.1018C24.3567 16.0328 25.1991 15.5088 25.3777 15.238C25.3413 15.2822 25.6191 15.0954 25.6191 15.0954C25.6368 15.0877 30.1372 12.533 30.1372 12.533C34.4745 10.1453 39.3862 7.4337 41.9661 4.75525C41.9705 4.75193 42.0929 4.34513 42.0929 4.34513L42.1458 3.98034C42.3178 3.40663 42.3266 2.96888 42.1822 2.45927C42.1458 2.31336 42.0124 2.14533 41.8338 2.11328C39.8184 1.91098 37.2209 3.12253 34.8549 5.34775C34.3213 5.84851 33.8725 6.09502 33.3996 6.35259L33.0368 6.55599C30.4294 8.04279 24.5552 11.6984 21.4781 13.6716C21.6809 10.3553 22.2917 5.63848 23.0458 1.70648L22.9621 1.23667C22.9532 1.2212 22.6434 0.641953 22.6434 0.641953L22.4031 0.216363L22.3336 0.197571C21.7195 -0.113054 21.2179 0.0129647 20.8496 0.104715L20.2355 0.332433L19.4153 0.630898C19.2543 0.662956 19.1396 0.76355 19.0768 0.92052C17.6082 4.47999 16.3834 10.3343 16.0923 15.018C13.1574 13.1465 10.4441 11.8001 9.11338 11.1501L9.077 11.1291L8.91934 11.0949C8.44085 11.033 7.85762 10.6803 7.29754 10.3399C7.2369 10.3034 6.17959 9.6136 6.17959 9.6136L4.4751 8.51812C4.48723 8.52917 4.02418 8.41531 4.02418 8.41531C3.29211 8.54244 1.8864 9.48979 1.46855 10.1354C1.41453 10.2216 1.39137 10.3133 1.39137 10.4095C1.39137 10.5466 1.43437 10.6825 1.46855 10.8163L1.54352 11.1645L1.6229 11.3734C2.44097 12.2136 4.50377 13.613 6.52578 14.7041L8.87083 15.9499L12.4606 17.9154C12.4606 17.9319 13.0725 18.4028 13.0725 18.4028L13.4948 18.646C13.4948 18.646 13.5444 18.6748 13.5719 18.6936C12.6161 19.3358 7.04286 23.0655 7.04286 23.0655L3.61073 25.346C3.28549 25.5671 1.9316 26.1751 1.63172 26.2956C0.888626 26.5996 0.324139 27.0661 0.0926112 27.5724L0 27.7724L0.0926112 27.904L0.355009 28.1041C0.341779 28.1041 0.705609 28.334 0.705609 28.334L1.08487 28.5938C1.09369 28.5971 1.44209 28.6513 1.44209 28.6513C2.04516 28.6745 2.9382 28.3296 4.60961 27.5956C6.14541 26.9146 10.314 24.392 12.0968 23.3154L12.8564 22.8588C13.1706 22.8842 13.5157 22.6178 13.8255 22.3846C14.1827 22.0983 14.96 21.6196 15.4341 21.4096C15.4495 21.4052 15.7185 21.2537 15.9743 21.1111C15.9721 21.1896 15.9699 21.3156 15.9699 21.3156C16.0493 26.7831 16.3613 30.7571 16.9578 33.8213L16.9666 33.8733L17.025 33.9971C17.3183 34.4282 17.6512 35.7249 17.9489 36.8668L18.627 39.1484C18.6424 39.176 18.8188 39.3629 18.8188 39.3629C19.2069 39.627 20.3888 40.0814 21.1771 39.9874L21.3733 39.9642L21.499 39.6856C21.5663 39.3441 21.5894 39.0091 21.5894 38.6399C21.5894 38.2231 21.5597 37.7644 21.5222 37.2006L21.4682 36.3782C21.2179 32.5623 20.9687 27.0517 20.9687 23.3883C20.9687 23.2855 20.9687 23.1927 20.9687 23.0965C21.617 23.5022 24.4438 25.2897 24.4438 25.2897C29.2585 28.4213 36.5307 33.1515 40.9253 34.4017C41.1535 34.4713 41.395 34.4183 41.5626 34.2558C41.5692 34.2469 42.2384 33.8202 42.2384 33.8202L42.3652 33.7683C42.6177 33.6478 42.7853 33.2222 42.815 32.7601C46.5184 32.5733 51.6847 31.1429 54.4499 27.6586C55.5204 26.3067 56 24.6529 56 23.2369C56.0022 22.0784 55.6814 21.0769 55.0981 20.5264Z" fill="#FCAF16"/>
<path d="M69 6H73.2795V18.0854L87.6779 6H93.738L78.5186 18.1943L95 33H88.9476L73.2795 18.5331V33H69V6Z" fill="#776C61"/>
<path d="M98 6H111.284C117.601 6 120.906 8.09841 120.906 12.6835C120.906 15.9455 118.627 18.189 115.595 18.7917V18.9061C119.942 19.4208 122 22.2748 122 25.4851C122 29.5136 119.043 33 111.704 33H98V6ZM102.305 17.3741H111.071C114.324 17.3741 116.731 16.1379 116.731 13.2576C116.731 10.7489 115.546 9.07613 110.572 9.07613H102.305V17.3741ZM102.305 29.936H110.8C116.077 29.936 117.476 27.876 117.476 25.2629C117.476 22.1582 115.326 20.4403 110.572 20.4403H102.305V29.936Z" fill="#776C61"/>
</g>
<defs>
<clipPath id="clip0_9_15">
<rect width="122" height="40" fill="white"/>
</clipPath>
</defs>
</svg>
