<svg width="240" height="80" viewBox="0 0 240 80" fill="none" xmlns="http://www.w3.org/2000/svg">
<path d="M114.07 40.5264L113.584 40.2169C111.928 38.5642 109.622 37.8479 106.539 38.0281C103.972 38.1851 101.936 39.2032 100.382 40.1483C100.382 40.1251 100.38 40.1019 100.38 40.0787C100.38 39.2739 100.47 38.4028 100.561 37.5561C100.649 36.6961 100.742 35.8206 100.742 34.9926C100.742 34.147 100.647 33.3455 100.355 32.6602C100.282 32.4844 100.12 32.3794 99.9154 32.3794C99.0863 32.3982 97.4668 32.9653 97.0744 33.3101C97.0744 33.3124 96.861 33.7777 96.861 33.7777C96.8478 34.6964 96.6455 37.2598 96.4399 37.5716C96.4487 37.5605 96.3315 37.8811 96.3315 37.8811C95.9822 41.5434 95.9756 44.7635 96.2973 47.5281C96.3337 47.8045 96.8677 48.219 97.2778 48.3694C97.7288 48.5363 99.1394 48.1582 99.953 47.8531C99.942 47.8565 100.257 47.8045 100.257 47.8045C100.513 47.7769 100.665 47.5602 100.654 47.2673C100.649 47.2606 100.674 46.4714 100.674 46.4714C101.261 44.0858 103.636 41.2383 106.448 40.8105C108.037 40.5584 109.291 40.9674 110.282 42.0463C110.416 42.2409 110.706 43.9576 109.659 45.9308C108.88 47.3911 107.321 48.6236 105.269 49.3919C103.328 50.1303 101.192 50.4277 98.5546 50.337C98.4441 50.2663 96.085 48.6667 96.085 48.6667C93.9924 47.1976 91.3934 45.3704 89.0377 44.4761C88.6231 44.3169 87.8825 43.7012 87.4359 43.3319L87.1916 43.1319C85.833 42.043 83.2473 40.3174 81.1701 38.9357C81.1701 38.9357 80.2327 38.3067 80.0514 38.1851C80.0536 38.1077 80.0536 37.9507 80.0536 37.9507C80.1144 37.8844 81.42 37.1018 81.42 37.1018C83.2462 36.0328 84.0908 35.5088 84.2698 35.238C84.2334 35.2822 84.5119 35.0954 84.5119 35.0954C84.5296 35.0877 89.0421 32.533 89.0421 32.533C93.391 30.1453 98.3158 27.4337 100.903 24.7552C100.907 24.7519 101.03 24.3451 101.03 24.3451L101.083 23.9803C101.255 23.4066 101.264 22.9689 101.119 22.4593C101.083 22.3134 100.949 22.1453 100.77 22.1133C98.7492 21.911 96.1447 23.1225 93.7724 25.3478C93.2373 25.8485 92.7874 26.095 92.3132 26.3526L91.9495 26.556C89.3351 28.0428 83.4452 31.6984 80.3598 33.6716C80.5632 30.3553 81.1757 25.6385 81.9318 21.7065L81.8478 21.2367C81.8389 21.2212 81.5283 20.642 81.5283 20.642L81.2873 20.2164L81.2177 20.1976C80.6019 19.8869 80.0989 20.013 79.7297 20.1047L79.114 20.3324L78.2915 20.6309C78.1301 20.663 78.0151 20.7635 77.9521 20.9205C76.4797 24.48 75.2515 30.3343 74.9597 35.018C72.0169 33.1465 69.2964 31.8001 67.9621 31.1501L67.9256 31.1291L67.7675 31.0949C67.2878 31.033 66.703 30.6803 66.1414 30.3399C66.0806 30.3034 65.0204 29.6136 65.0204 29.6136L63.3114 28.5181C63.3236 28.5292 62.8593 28.4153 62.8593 28.4153C62.1252 28.5424 60.7158 29.4898 60.2968 30.1354C60.2426 30.2216 60.2194 30.3133 60.2194 30.4095C60.2194 30.5466 60.2625 30.6825 60.2968 30.8163L60.372 31.1645L60.4516 31.3734C61.2718 32.2136 63.3401 33.613 65.3676 34.7041L67.7189 35.9499L71.3183 37.9154C71.3183 37.9319 71.9318 38.4028 71.9318 38.4028L72.3552 38.646C72.3552 38.646 72.4049 38.6748 72.4326 38.6936C71.4741 39.3358 65.886 43.0655 65.886 43.0655L62.4447 45.346C62.1186 45.5671 60.7611 46.1751 60.4604 46.2956C59.7153 46.5996 59.1493 47.0661 58.9172 47.5724L58.8243 47.7724L58.9172 47.904L59.1803 48.1041C59.167 48.1041 59.5318 48.334 59.5318 48.334L59.9121 48.5938C59.921 48.5971 60.2703 48.6513 60.2703 48.6513C60.875 48.6745 61.7704 48.3296 63.4463 47.5956C64.9862 46.9146 69.1659 44.392 70.9535 43.3154L71.7151 42.8588C72.0302 42.8842 72.3762 42.6178 72.6868 42.3846C73.045 42.0983 73.8243 41.6196 74.2997 41.4096C74.3152 41.4052 74.5849 41.2537 74.8414 41.1111C74.8392 41.1896 74.8369 41.3156 74.8369 41.3156C74.9165 46.7831 75.2294 50.7571 75.8274 53.8213L75.8363 53.8733L75.8949 53.9971C76.1889 54.4282 76.5228 55.7249 76.8212 56.8668L77.5011 59.1484C77.5166 59.176 77.6935 59.3629 77.6935 59.3629C78.0826 59.627 79.2676 60.0814 80.058 59.9874L80.2548 59.9642L80.3808 59.6856C80.4483 59.3441 80.4715 59.0091 80.4715 58.6399C80.4715 58.2231 80.4416 57.7644 80.404 57.2006L80.3499 56.3782C80.0989 52.5623 79.8491 47.0517 79.8491 43.3883C79.8491 43.2855 79.8491 43.1927 79.8491 43.0965C80.4991 43.5022 83.3335 45.2897 83.3335 45.2897C88.1611 48.4213 95.4527 53.1515 99.8591 54.4017C100.088 54.4713 100.33 54.4183 100.498 54.2558C100.505 54.2469 101.176 53.8202 101.176 53.8202L101.303 53.7683C101.556 53.6478 101.724 53.2222 101.754 52.7601C105.467 52.5733 110.647 51.1429 113.42 47.6586C114.493 46.3067 114.974 44.6529 114.974 43.2369C114.976 42.0784 114.655 41.0769 114.07 40.5264Z" fill="#FCAF16"/>
<path d="M127.728 25.5569H132.061V37.7026L146.641 25.5569H152.777L137.366 37.812L154.055 52.6915H147.927L132.061 38.1525V52.6915H127.728V25.5569Z" fill="#776C61"/>
<path d="M157.077 25.6121H170.415C176.758 25.6121 180.077 27.7213 180.077 32.3299C180.077 35.6087 177.789 37.8639 174.744 38.4697V38.5846C179.11 39.102 181.176 41.9707 181.176 45.1975C181.176 49.2468 178.206 52.7511 170.837 52.7511H157.077V25.6121ZM161.399 37.0447H170.202C173.468 37.0447 175.885 35.8022 175.885 32.907C175.885 30.3854 174.695 28.704 169.701 28.704H161.399V37.0447ZM161.399 49.6713H169.93C175.228 49.6713 176.633 47.6008 176.633 44.9742C176.633 41.8535 174.474 40.1268 169.701 40.1268H161.399V49.6713Z" fill="#776C61"/>
</svg>
