<svg width="183" height="40" viewBox="0 0 183 40" fill="none" xmlns="http://www.w3.org/2000/svg">
<g clip-path="url(#clip0_5_7900)">
<path d="M63 11V32H58.829V21.8929H50.171V32H46V11H50.171V19.1618H58.829V11H63Z" fill="#231F20"/>
<path d="M75.2045 31.6616C75.0832 31.5819 74.9477 31.403 74.7965 31.1142C74.6399 30.8272 74.5643 30.5473 74.5643 30.2568C73.9382 30.93 73.2206 31.3888 72.4098 31.6333C71.599 31.8813 70.8023 32 70.0161 32C68.5756 32 67.3796 31.5571 66.4299 30.6678C65.4749 29.7838 65 28.5773 65 27.0485C65 25.6436 65.5013 24.4124 66.5055 23.36C67.508 22.3148 68.9573 21.6841 70.8603 21.4822L74.2618 21.0853C74.2618 19.7779 73.9716 18.8868 73.3947 18.4103C72.8196 17.9284 72.1653 17.691 71.4372 17.691C70.549 17.691 69.7013 17.8912 68.9063 18.2845C68.106 18.6849 67.3709 19.188 66.7043 19.801L66.0043 16.7113C66.8133 16.1391 67.6698 15.7104 68.5721 15.4287C69.4691 15.1435 70.505 15 71.6817 15C72.4098 15 73.1626 15.101 73.9435 15.3047C74.7226 15.5102 75.4261 15.8468 76.0505 16.3127C76.6995 16.7857 77.2254 17.4023 77.6317 18.1658C78.0344 18.9293 78.2402 19.8701 78.2402 20.995V27.6596C78.2402 28.2921 78.2877 28.9671 78.3915 29.6757C78.4935 30.3932 78.6922 31.054 79 31.6616H75.2045ZM74.2952 23.6559L72.2568 23.9252C71.307 24.0492 70.5384 24.3787 69.951 24.9066C69.3636 25.4363 69.0716 26.0971 69.0716 26.8979C69.0716 27.6083 69.2704 28.1769 69.6661 28.6074C70.0565 29.0362 70.5261 29.2487 71.0749 29.2487C71.4987 29.2487 71.9121 29.1867 72.3078 29.0645C72.7018 28.9423 73.0394 28.7208 73.3191 28.3949C73.6269 28.0653 73.8643 27.6348 74.0367 27.0927C74.2073 26.5542 74.2952 25.8562 74.2952 24.997V23.6559Z" fill="#231F20"/>
<path d="M84.8061 15.3126V16.7473C85.3337 16.1872 85.9569 15.7571 86.6741 15.4536C87.3913 15.15 88.134 15 88.9024 15C90.7892 15 92.2714 15.5818 93.3693 16.7473C94.4536 17.911 95 19.5048 95 21.5214V32H91.1427V22.1141C91.1427 20.8456 90.8729 19.8156 90.3282 19.0259C89.7886 18.2363 89.0288 17.8388 88.0452 17.8388C87.1403 17.8388 86.3804 18.2309 85.764 19.0097C85.1407 19.7867 84.8351 20.8672 84.8351 22.2369V32H81V15.3126H84.8061Z" fill="#231F20"/>
<path d="M108.206 31.6616C108.083 31.5819 107.946 31.403 107.794 31.1142C107.645 30.8272 107.566 30.5473 107.566 30.2568C106.937 30.93 106.219 31.3888 105.41 31.6333C104.601 31.8813 103.796 32 103.01 32C101.57 32 100.379 31.5571 99.4218 30.6678C98.4751 29.7838 98 28.5773 98 27.0485C98 25.6436 98.4997 24.4124 99.5063 23.36C100.502 22.3148 101.958 21.6841 103.861 21.4822L107.259 21.0853C107.259 19.7779 106.974 18.8868 106.397 18.4103C105.82 17.9284 105.167 17.691 104.439 17.691C103.545 17.691 102.704 17.8912 101.898 18.2845C101.099 18.6849 100.367 19.188 99.6998 19.801L99.003 16.7113C99.8107 16.1391 100.664 15.7104 101.563 15.4287C102.47 15.1435 103.506 15 104.683 15C105.41 15 106.165 15.101 106.943 15.3047C107.726 15.5102 108.426 15.8468 109.054 16.3127C109.702 16.7857 110.223 17.4023 110.636 18.1658C111.041 18.9293 111.24 19.8701 111.24 20.995V27.6596C111.24 28.2921 111.294 28.9671 111.393 29.6757C111.491 30.3932 111.697 31.054 112 31.6616H108.206ZM107.291 23.6559L105.26 23.9252C104.305 24.0492 103.539 24.3787 102.952 24.9066C102.364 25.4363 102.068 26.0971 102.068 26.8979C102.068 27.6083 102.267 28.1769 102.66 28.6074C103.052 29.0362 103.529 29.2487 104.073 29.2487C104.498 29.2487 104.907 29.1867 105.303 29.0645C105.693 28.9423 106.036 28.7208 106.322 28.3949C106.624 28.0653 106.858 27.6348 107.034 27.0927C107.205 26.5542 107.291 25.8562 107.291 24.997V23.6559Z" fill="#231F20"/>
<path d="M125.589 32H119V11H126.029C127.761 11 129.199 11.4468 130.332 12.3455C131.46 13.2495 132.026 14.4073 132.026 15.8293C132.026 17.2478 131.687 18.3691 130.992 19.1897C130.306 20.0119 129.546 20.5717 128.72 20.8724C129.921 21.1697 130.934 21.7243 131.761 22.5204C132.588 23.3219 133 24.4327 133 25.8565C133 27.7148 132.365 29.2064 131.095 30.3242C129.829 31.4437 127.992 32 125.589 32ZM123.077 13.6094V19.7599H124.583C125.702 19.7599 126.551 19.4539 127.121 18.8454C127.693 18.2335 127.982 17.4199 127.982 16.3978C127.982 15.5599 127.741 14.8836 127.256 14.3725C126.775 13.8649 126.087 13.6094 125.201 13.6094H123.077ZM123.077 22.3744V29.3906H125.201C126.229 29.3906 127.078 29.0864 127.761 28.478C128.437 27.8678 128.781 26.9934 128.781 25.8565C128.781 24.5909 128.374 23.6974 127.568 23.1706C126.76 22.6352 125.851 22.3744 124.85 22.3744H123.077Z" fill="#231F20"/>
<path d="M145.204 31.6616C145.086 31.5819 144.947 31.403 144.796 31.1142C144.641 30.8272 144.567 30.5473 144.567 30.2568C143.936 30.93 143.219 31.3888 142.412 31.6333C141.599 31.8813 140.798 32 140.012 32C138.569 32 137.381 31.5571 136.425 30.6678C135.475 29.7838 135 28.5773 135 27.0485C135 25.6436 135.505 24.4124 136.508 23.36C137.504 22.3148 138.959 21.6841 140.863 21.4822L144.259 21.0853C144.259 19.7779 143.974 18.8868 143.399 18.4103C142.822 17.9284 142.169 17.691 141.439 17.691C140.545 17.691 139.704 17.8912 138.899 18.2845C138.101 18.6849 137.369 19.188 136.698 19.801L136.003 16.7113C136.812 16.1391 137.668 15.7104 138.565 15.4287C139.471 15.1435 140.508 15 141.685 15C142.412 15 143.167 15.101 143.943 15.3047C144.726 15.5102 145.426 15.8468 146.056 16.3127C146.704 16.7857 147.224 17.4023 147.638 18.1658C148.039 18.9293 148.242 19.8701 148.242 20.995V27.6596C148.242 28.2921 148.294 28.9671 148.393 29.6757C148.493 30.3932 148.696 31.054 149 31.6616H145.204ZM144.293 23.6559L142.259 23.9252C141.307 24.0492 140.538 24.3787 139.952 24.9066C139.366 25.4363 139.068 26.0971 139.068 26.8979C139.068 27.6083 139.265 28.1769 139.661 28.6074C140.054 29.0362 140.529 29.2487 141.073 29.2487C141.5 29.2487 141.908 29.1867 142.304 29.0645C142.695 28.9423 143.036 28.7208 143.322 28.3949C143.624 28.0653 143.86 27.6348 144.034 27.0927C144.208 26.5542 144.293 25.8562 144.293 24.997V23.6559Z" fill="#231F20"/>
<path d="M155.807 15.3126V16.7473C156.334 16.1872 156.958 15.7571 157.673 15.4536C158.392 15.15 159.133 15 159.903 15C161.787 15 163.274 15.5818 164.369 16.7473C165.459 17.911 166 19.5048 166 21.5214V32H162.144V22.1141C162.144 20.8456 161.874 19.8156 161.333 19.0259C160.786 18.2363 160.03 17.8388 159.044 17.8388C158.138 17.8388 157.383 18.2309 156.765 19.0097C156.141 19.7867 155.832 20.8672 155.832 22.2369V32H152V15.3126H155.807Z" fill="#231F20"/>
<path d="M169 32V10H172.911V21.5448L178.035 15.8763H182.22L175.985 22.783L183 32H178.517L172.911 24.6812V32H169Z" fill="#231F20"/>
<path d="M28.8583 23.8031C28.754 23.1965 28.5869 22.6092 28.3353 22.0658C27.5483 20.4074 26.4504 19.0172 24.8116 18.0793C22.2545 16.6278 19.1674 16.6348 16.6391 18.1337C15.4945 18.8069 14.5529 19.7763 13.9473 20.9438C13.7424 21.3383 13.5735 21.752 13.4388 22.1762C12.7721 24.2413 12.7955 27.0182 13.9958 28.9045C14.3875 29.518 14.9554 30.0474 15.6436 30.3051C16.339 30.5663 17.1602 30.5365 17.7855 30.1456C18.5888 29.639 18.7325 28.6713 18.5816 27.8123C18.3929 26.7149 18.2474 25.6333 18.6624 24.5586C18.7936 24.2168 18.9823 23.8855 19.2518 23.633C19.4172 23.4788 19.613 23.3543 19.8179 23.2561C20.2545 23.0475 20.7505 22.9563 21.2303 23.0317C22.0676 23.1614 22.7523 23.7961 23.1242 24.5393C23.4926 25.2826 23.595 26.1224 23.6364 26.9515C23.8107 30.5488 22.9302 34.2758 21.9904 37.7311C21.8933 38.0887 21.7927 38.4428 21.6903 38.7987C21.6112 39.0722 21.4675 39.421 21.6454 39.6857C21.7226 39.7979 21.843 39.8803 21.9724 39.9312C22.5205 40.1468 22.9679 39.819 23.3345 39.4578C25.498 37.3349 26.8816 34.5966 27.8304 31.7812C28.1844 30.7276 28.4881 29.6618 28.6929 28.5696C28.9733 27.0795 29.1314 25.3738 28.8583 23.8031Z" fill="#009591"/>
<path d="M44 6.86375C44 6.33312 43.5184 5.98338 43.0033 6.00061C42.4776 6.01784 41.9907 6.28143 41.5091 6.4606C32.168 9.92694 21.6344 10.5851 11.7906 9.20163C10.1077 8.96388 8.39999 8.63137 6.70643 8.37467C5.64972 8.21445 4.6036 7.9767 3.53454 7.90261C2.62249 7.83198 1.48816 7.79924 0.750751 8.41946C-0.219516 9.23781 -0.150715 10.7884 0.399692 11.8152C1.06124 13.047 2.2185 13.9687 3.42516 14.6716C4.59654 15.3521 5.99196 16.0792 7.38562 15.993C11.1485 15.757 14.9008 15.4004 18.639 14.9283C25.0145 14.1203 31.7005 13.3571 37.688 10.94C39.6461 10.1509 41.5814 9.16717 43.2573 7.894C43.5625 7.66659 44 7.29618 44 6.86375Z" fill="#009591"/>
<path d="M17 3.54149C17 5.45164 18.5677 7 20.5 7C22.4323 7 24 5.45164 24 3.54149C24 3.25936 23.9328 2.97226 23.8118 2.71503C23.5094 2.08606 23.1716 1.78236 23.2069 1.02726C23.2506 0.0149369 21.9349 0 21.2242 0C20.4513 0 19.6279 0.107872 18.9289 0.453059C18.3728 0.730204 17.8939 1.15671 17.5562 1.67117C17.2084 2.20389 17.0151 2.82954 17 3.46349V3.54149Z" fill="#ED1651"/>
</g>
<defs>
<clipPath id="clip0_5_7900">
<rect width="183" height="40" fill="white"/>
</clipPath>
</defs>
</svg>
