<svg xmlns="http://www.w3.org/2000/svg" width="240" height="80" fill="none" viewBox="0 0 240 80"><path fill="#231F20" d="M91.4731 30.7731V52.0811H87.305V41.8257H78.653V52.0811H74.4849V30.7731H78.653V39.0546H87.305V30.7731H91.4731Z"/><path fill="#231F20" d="M103.96 52.0813C103.838 52.0019 103.702 51.8238 103.551 51.5363C103.394 51.2505 103.318 50.9718 103.318 50.6825C102.69 51.3528 101.97 51.8097 101.157 52.0531C100.344 52.3 99.5449 52.4182 98.7564 52.4182C97.3118 52.4182 96.1123 51.9772 95.1598 51.0918C94.202 50.2116 93.7257 49.0103 93.7257 47.4881C93.7257 46.0893 94.2285 44.8634 95.2356 43.8157C96.2411 42.7749 97.6945 42.147 99.6031 41.9459L103.014 41.5508C103.014 40.249 102.723 39.3618 102.145 38.8873C101.568 38.4075 100.912 38.1712 100.182 38.1712C99.2909 38.1712 98.4407 38.3705 97.6434 38.7621C96.8408 39.1607 96.1035 39.6617 95.435 40.272L94.7329 37.1957C95.5443 36.626 96.4033 36.1991 97.3082 35.9187C98.2078 35.6347 99.2468 35.4918 100.427 35.4918C101.157 35.4918 101.912 35.5923 102.695 35.7952C103.477 35.9998 104.182 36.3349 104.808 36.7988C105.459 37.2698 105.987 37.8836 106.394 38.6439C106.798 39.4041 107.004 40.3408 107.004 41.4608V48.0966C107.004 48.7264 107.052 49.3984 107.156 50.104C107.258 50.8184 107.458 51.4763 107.766 52.0813H103.96ZM103.048 44.1102L101.004 44.3783C100.051 44.5018 99.2803 44.8299 98.6911 45.3555C98.102 45.8829 97.8092 46.5409 97.8092 47.3382C97.8092 48.0455 98.0085 48.6117 98.4054 49.0403C98.797 49.4672 99.2679 49.6789 99.8183 49.6789C100.243 49.6789 100.658 49.6171 101.055 49.4954C101.45 49.3737 101.789 49.1532 102.069 48.8287C102.378 48.5006 102.616 48.072 102.789 47.5322C102.96 46.996 103.048 46.301 103.048 45.4455V44.1102Z"/><path fill="#231F20" d="M113.946 35.7946V37.1951C114.491 36.6483 115.135 36.2285 115.875 35.9322C116.616 35.6358 117.384 35.4894 118.177 35.4894C120.126 35.4894 121.658 36.0574 122.792 37.1951C123.912 38.3311 124.476 39.8868 124.476 41.8553V52.0842H120.492V42.4339C120.492 41.1956 120.213 40.1902 119.65 39.4194C119.093 38.6486 118.308 38.2605 117.292 38.2605C116.357 38.2605 115.572 38.6433 114.935 39.4035C114.291 40.162 113.976 41.2168 113.976 42.5539V52.0842H110.014V35.7946H113.946Z"/><path fill="#231F20" d="M136.842 52.0813C136.718 52.0019 136.581 51.8238 136.429 51.5363C136.279 51.2505 136.2 50.9718 136.2 50.6825C135.57 51.3528 134.85 51.8097 134.039 52.0531C133.228 52.3 132.422 52.4182 131.633 52.4182C130.19 52.4182 128.996 51.9772 128.037 51.0918C127.088 50.2116 126.611 49.0103 126.611 47.4881C126.611 46.0893 127.112 44.8634 128.121 43.8157C129.12 42.7749 130.578 42.147 132.487 41.9459L135.893 41.5508C135.893 40.249 135.607 39.3618 135.029 38.8873C134.45 38.4075 133.796 38.1712 133.065 38.1712C132.169 38.1712 131.326 38.3705 130.518 38.7621C129.718 39.1607 128.984 39.6617 128.315 40.272L127.617 37.1957C128.426 36.626 129.282 36.1991 130.183 35.9187C131.092 35.6347 132.131 35.4918 133.311 35.4918C134.039 35.4918 134.796 35.5923 135.575 35.7952C136.36 35.9998 137.062 36.3349 137.692 36.7988C138.341 37.2698 138.863 37.8836 139.278 38.6439C139.684 39.4041 139.883 40.3408 139.883 41.4608V48.0966C139.883 48.7264 139.938 49.3984 140.036 50.104C140.135 50.8184 140.341 51.4763 140.645 52.0813H136.842ZM135.925 44.1102L133.889 44.3783C132.931 44.5018 132.164 44.8299 131.575 45.3555C130.986 45.8829 130.689 46.5409 130.689 47.3382C130.689 48.0455 130.889 48.6117 131.282 49.0403C131.675 49.4672 132.153 49.6789 132.699 49.6789C133.125 49.6789 133.535 49.6171 133.931 49.4954C134.323 49.3737 134.667 49.1532 134.953 48.8287C135.256 48.5006 135.491 48.072 135.667 47.5322C135.838 46.996 135.925 46.301 135.925 45.4455V44.1102Z"/><path fill="#231F20" d="M154.075 52.0813H147.284V30.7733H154.528C156.313 30.7733 157.795 31.2267 158.962 32.1386C160.125 33.0558 160.709 34.2306 160.709 35.6735C160.709 37.1128 160.359 38.2505 159.643 39.0831C158.936 39.9174 158.153 40.4854 157.301 40.7905C158.539 41.0922 159.583 41.6549 160.435 42.4627C161.287 43.2759 161.712 44.403 161.712 45.8477C161.712 47.7333 161.058 49.2467 159.749 50.3809C158.444 51.5168 156.551 52.0813 154.075 52.0813ZM151.485 33.421V39.6616H153.037C154.191 39.6616 155.066 39.3512 155.653 38.7338C156.242 38.1129 156.541 37.2874 156.541 36.2503C156.541 35.4001 156.292 34.7139 155.793 34.1953C155.297 33.6802 154.588 33.421 153.674 33.421H151.485ZM151.485 42.3146V49.4337H153.674C154.734 49.4337 155.609 49.125 156.313 48.5076C157.01 47.8885 157.364 47.0013 157.364 45.8477C157.364 44.5635 156.944 43.6569 156.114 43.1224C155.281 42.5791 154.344 42.3146 153.313 42.3146H151.485Z"/><path fill="#231F20" d="M173.86 52.0813C173.742 52.0019 173.602 51.8238 173.451 51.5363C173.295 51.2505 173.221 50.9718 173.221 50.6825C172.588 51.3528 171.87 51.8097 171.061 52.0531C170.246 52.3 169.443 52.4182 168.655 52.4182C167.208 52.4182 166.018 51.9772 165.06 51.0918C164.107 50.2116 163.631 49.0103 163.631 47.4881C163.631 46.0893 164.137 44.8634 165.143 43.8157C166.141 42.7749 167.6 42.147 169.508 41.9459L172.913 41.5508C172.913 40.249 172.627 39.3618 172.05 38.8873C171.472 38.4075 170.817 38.1712 170.085 38.1712C169.189 38.1712 168.346 38.3705 167.54 38.7621C166.739 39.1607 166.005 39.6617 165.333 40.272L164.636 37.1957C165.448 36.626 166.305 36.1991 167.205 35.9187C168.113 35.6347 169.152 35.4918 170.332 35.4918C171.061 35.4918 171.817 35.5923 172.595 35.7952C173.38 35.9998 174.082 36.3349 174.714 36.7988C175.363 37.2698 175.885 37.8836 176.299 38.6439C176.702 39.4041 176.904 40.3408 176.904 41.4608V48.0966C176.904 48.7264 176.957 49.3984 177.056 50.104C177.157 50.8184 177.36 51.4763 177.665 52.0813H173.86ZM172.946 44.1102L170.907 44.3783C169.953 44.5018 169.182 44.8299 168.595 45.3555C168.007 45.8829 167.709 46.5409 167.709 47.3382C167.709 48.0455 167.907 48.6117 168.304 49.0403C168.697 49.4672 169.173 49.6789 169.718 49.6789C170.147 49.6789 170.556 49.6171 170.953 49.4954C171.345 49.3737 171.687 49.1532 171.973 48.8287C172.276 48.5006 172.512 48.072 172.687 47.5322C172.862 46.996 172.946 46.301 172.946 45.4455V44.1102Z"/><path fill="#231F20" d="M183.851 35.7946V37.1951C184.396 36.6483 185.04 36.2285 185.779 35.9322C186.521 35.6358 187.287 35.4894 188.082 35.4894C190.028 35.4894 191.564 36.0574 192.695 37.1951C193.82 38.3311 194.379 39.8868 194.379 41.8553V52.0842H190.397V42.4339C190.397 41.1956 190.118 40.1902 189.559 39.4194C188.994 38.6486 188.213 38.2605 187.195 38.2605C186.258 38.2605 185.479 38.6433 184.84 39.4035C184.196 40.162 183.877 41.2168 183.877 42.5539V52.0842H179.919V35.7946H183.851Z"/><path fill="#231F20" d="M197.183 52.0813V29.8596H201.138V41.5208L206.319 35.7952H210.55L204.246 42.7714L211.339 52.0813H206.805L201.138 44.6888V52.0813H197.183Z"/><path fill="#009591" d="M57.456 43.7028C57.3537 43.0925 57.1897 42.5016 56.9427 41.9548C56.1701 40.2861 55.0924 38.8874 53.4837 37.9437C50.9737 36.4832 47.9433 36.4902 45.4615 37.9984C44.3379 38.6757 43.4136 39.6511 42.8191 40.8259C42.618 41.2228 42.4522 41.639 42.3199 42.0659C41.6655 44.1438 41.6885 46.9378 42.8668 48.8358C43.2513 49.4531 43.8087 49.9858 44.4843 50.2451C45.1669 50.508 45.973 50.478 46.5868 50.0846C47.3753 49.5749 47.5164 48.6012 47.3682 47.7369C47.183 46.6327 47.0402 45.5443 47.4476 44.4631C47.5764 44.1191 47.7616 43.7857 48.0262 43.5317C48.1885 43.3765 48.3807 43.2513 48.5818 43.1525C49.0104 42.9426 49.4973 42.8508 49.9682 42.9267C50.7902 43.0572 51.4623 43.6958 51.8274 44.4437C52.189 45.1916 52.2895 46.0365 52.3301 46.8708C52.5012 50.4903 51.6369 54.2404 50.7144 57.717C50.6191 58.0769 50.5203 58.4332 50.4198 58.7913C50.3422 59.0664 50.2011 59.4174 50.3757 59.6838C50.4515 59.7967 50.5697 59.8796 50.6967 59.9307C51.2347 60.1477 51.6739 59.8178 52.0338 59.4545C54.1575 57.3184 55.5157 54.5632 56.4471 51.7303C56.7945 50.6702 57.0926 49.5978 57.2937 48.4989C57.5689 46.9996 57.7241 45.2833 57.456 43.7028Z"/><path fill="#009591" d="M72.6559 26.9665C72.6559 26.4232 72.1744 26.0651 71.6593 26.0828C71.1337 26.1004 70.6468 26.3703 70.1653 26.5537C60.8254 30.1027 50.2931 30.7765 40.4506 29.3601C38.7678 29.1167 37.0603 28.7763 35.367 28.5134C34.3104 28.3494 33.2644 28.106 32.1955 28.0301C31.2835 27.9578 30.1493 27.9243 29.412 28.5593C28.4419 29.3971 28.5107 30.9847 29.061 32.0359C29.7225 33.2971 30.8796 34.2408 32.0861 34.9605C33.2573 35.6572 34.6526 36.4016 36.0461 36.3134C39.8085 36.0718 43.5603 35.7066 47.298 35.2233C53.6728 34.396 60.358 33.6146 66.3447 31.1399C68.3026 30.332 70.2376 29.3248 71.9133 28.0213C72.2185 27.7885 72.6559 27.4092 72.6559 26.9665Z"/><path fill="#ED1651" d="M45.8717 23.7642C45.8717 25.7945 47.5175 27.4402 49.546 27.4402C51.5745 27.4402 53.2202 25.7945 53.2202 23.7642C53.2202 23.4643 53.1496 23.1592 53.0226 22.8858C52.7051 22.2173 52.3506 21.8945 52.3876 21.0919C52.4335 20.0159 51.0523 20 50.3062 20C49.4948 20 48.6305 20.1147 47.8967 20.4816C47.3129 20.7762 46.8101 21.2295 46.4556 21.7763C46.0905 22.3425 45.8876 23.0075 45.8717 23.6813V23.7642Z"/></svg>