<svg xmlns="http://www.w3.org/2000/svg" width="40" height="40" fill="none" viewBox="0 0 40 40"><path fill="#009591" d="M26.1802 25.1825C26.0872 24.6276 25.938 24.0904 25.7135 23.5932C25.0111 22.0761 24.0312 20.8043 22.5686 19.9463C20.2864 18.6184 17.5312 18.6248 15.2747 19.996C14.2531 20.6119 13.4128 21.4987 12.8723 22.5668C12.6895 22.9277 12.5387 23.3062 12.4184 23.6943C11.8235 25.5835 11.8443 28.1238 12.9156 29.8494C13.2652 30.4108 13.772 30.8951 14.3862 31.1308C15.0069 31.3698 15.7398 31.3425 16.2979 30.9849C17.0148 30.5214 17.1431 29.6361 17.0084 28.8503C16.84 27.8464 16.7101 26.8569 17.0805 25.8738C17.1976 25.561 17.366 25.2579 17.6066 25.027C17.7541 24.8858 17.9289 24.772 18.1118 24.6822C18.5015 24.4913 18.9441 24.4079 19.3723 24.4769C20.1196 24.5956 20.7307 25.1761 21.0626 25.8561C21.3914 26.5361 21.4828 27.3043 21.5197 28.0629C21.6753 31.3538 20.8894 34.7633 20.0507 37.9243C19.9641 38.2515 19.8743 38.5754 19.7829 38.901C19.7123 39.1512 19.584 39.4703 19.7428 39.7125C19.8117 39.8151 19.9192 39.8905 20.0346 39.937C20.5238 40.1343 20.9231 39.8344 21.2503 39.504C23.1812 37.5619 24.4161 35.0568 25.2629 32.4812C25.5788 31.5173 25.8498 30.5423 26.0327 29.5431C26.2829 28.1799 26.424 26.6195 26.1802 25.1825Z"/><path fill="#009591" d="M40 9.9657C40 9.47175 39.5622 9.14619 39.0939 9.16222C38.616 9.17826 38.1733 9.42363 37.7355 9.59042C29.2437 12.8172 19.6677 13.4298 10.7188 12.142C9.18879 11.9207 7.63636 11.6111 6.09676 11.3722C5.13611 11.223 4.18509 11.0017 3.21322 10.9328C2.38408 10.867 1.35287 10.8365 0.682501 11.4139C-0.19956 12.1757 -0.137013 13.619 0.363356 14.5749C0.964762 15.7216 2.01682 16.5796 3.11379 17.2339C4.17867 17.8674 5.44724 18.5442 6.7142 18.464C10.135 18.2443 13.5462 17.9123 16.9445 17.4728C22.7405 16.7207 28.8187 16.0102 34.2618 13.7602C36.042 13.0257 37.8013 12.1099 39.3248 10.9247C39.6023 10.713 40 10.3682 40 9.9657Z"/><path fill="#ED1651" d="M15.6477 7.05427C15.6477 8.90019 17.144 10.3965 18.9883 10.3965C20.8326 10.3965 22.3289 8.90019 22.3289 7.05427C22.3289 6.78163 22.2648 6.50419 22.1493 6.25561C21.8606 5.64778 21.5383 5.3543 21.572 4.62459C21.6136 3.64631 20.3579 3.63187 19.6795 3.63187C18.9418 3.63187 18.156 3.73612 17.4888 4.0697C16.958 4.33752 16.5009 4.74969 16.1785 5.24685C15.8466 5.76165 15.6621 6.36626 15.6477 6.9789V7.05427Z"/></svg>