<svg width="40" height="40" viewBox="0 0 40 40" fill="none" xmlns="http://www.w3.org/2000/svg">
<path fill-rule="evenodd" clip-rule="evenodd" d="M20.0022 29.0852C12.828 29.0852 7.01111 23.2465 7.01111 16.042H0C0 27.1317 8.95395 36.123 20.0007 36.123C31.0475 36.123 40 27.1317 40 16.042H32.9903C32.9903 23.245 27.175 29.0852 20.0007 29.0852" fill="#F8961D"/>
<path fill-rule="evenodd" clip-rule="evenodd" d="M26.3289 16.042C26.3289 16.3564 26.106 16.5465 26.1046 16.5465C26.0143 16.6474 24.571 17.5364 23.0316 19.082C21.4922 20.6276 20.6038 22.0752 20.5047 22.1674C20.5047 22.1674 20.3154 22.3896 20.0023 22.3896C19.6891 22.3896 19.4998 22.1674 19.4998 22.1674C19.4022 22.0752 18.5138 20.6276 16.9744 19.082C15.435 17.5364 13.9932 16.6474 13.9014 16.5465C13.9014 16.5465 13.6771 16.3564 13.6771 16.042H26.3303H26.3289Z" fill="#F8961D"/>
<path fill-rule="evenodd" clip-rule="evenodd" d="M20.0022 3C12.828 3 7.01111 8.83876 7.01111 16.0418H13.6741C13.6741 15.7274 13.8984 15.5373 13.8984 15.5373C13.9887 15.4364 15.432 14.5488 16.9714 13.0018C18.5094 11.4576 19.3978 10.0086 19.4968 9.9179C19.4968 9.9179 19.6862 9.69417 20.0007 9.69417C20.3153 9.69417 20.5046 9.91643 20.5046 9.91643C20.6037 10.0071 21.4921 11.4562 23.0301 13.0018C24.5695 14.5474 26.0113 15.4364 26.1031 15.5373C26.1031 15.5373 26.3273 15.7274 26.3273 16.0418H32.9918C32.9918 8.83876 27.1764 3 20.0022 3Z" fill="#F8961D"/>
</svg>
