<svg xmlns="http://www.w3.org/2000/svg" width="156" height="40" fill="none" viewBox="0 0 156 40"><g clip-path="url(#clip0_4_2079)"><path fill="#F8961D" d="M18.043 40.0002H0.0430298V14.0002H5.38889V35.2619H18.043V40.0002Z"/><path fill="#F8961D" d="M25.5986 40.0002H20.1049V14.0002H31.6867C34.2167 14.0002 36.2517 14.8025 37.793 16.4082C39.3343 18.014 40.1049 20.017 40.1049 22.4185C40.1049 24.82 39.3343 26.7777 37.793 28.2916C36.2517 29.8055 34.2154 30.5624 31.6867 30.5624H25.5999V39.999L25.5986 40.0002ZM25.5986 26.1385H30.8167C32.345 26.1385 33.4709 25.793 34.1958 25.1008C34.9207 24.4098 35.2825 23.4627 35.2825 22.2619C35.2825 21.0612 34.9129 20.2007 34.1762 19.5214C33.4382 18.8434 32.3188 18.5031 30.8167 18.5031H25.5986V26.1385Z"/><path fill="#F8961D" d="M53.583 39.999H42.1049V14.0002H54.6587C57.1159 14.0002 59.0087 14.6329 60.3407 15.8996C61.6714 17.1663 62.3374 18.8949 62.3374 21.088C62.3374 22.1839 62.0431 23.1698 61.4545 24.0444C60.8659 24.9191 60.1237 25.5518 59.2281 25.9438C61.8122 26.9362 63.1049 29.0374 63.1049 32.2475C63.1049 34.6747 62.2981 36.5741 60.687 37.9443C59.0746 39.3145 56.7075 40.0002 53.5855 40.0002L53.583 39.999ZM53.6603 18.5029H47.249V24.1415H53.9673C56.1176 24.1415 57.1921 23.2021 57.1921 21.3222C57.1921 20.3298 56.9168 19.613 56.3662 19.1692C55.8157 18.7254 54.9137 18.5042 53.6603 18.5042V18.5029ZM47.249 35.574H54.0054C55.208 35.574 56.1607 35.2285 56.8648 34.5363C57.5688 33.8454 57.9202 32.95 57.9202 31.8541C57.9202 29.6611 56.6402 28.5652 54.0815 28.5652H47.2477V35.574H47.249Z"/><path fill="#F8961D" d="M82.1049 39.4974H77.4507C77.2969 39.0087 77.194 38.4423 77.1432 37.7993C75.81 39.2664 73.8997 40 71.4125 40C69.3358 40 67.765 39.5305 66.7012 38.5903C65.6374 37.6513 65.1049 36.3832 65.1049 34.7873C65.1049 33.7322 65.2587 32.8188 65.5662 32.0457C65.8738 31.2726 66.2398 30.6691 66.6618 30.2316C67.085 29.794 67.7319 29.4214 68.6038 29.1114C69.4756 28.8027 70.2445 28.5846 70.9118 28.4557C71.5778 28.3268 72.5398 28.1725 73.7968 27.9926C75.0271 27.8127 75.8672 27.5742 76.3158 27.2782C76.7644 26.9822 76.9894 26.5 76.9894 25.8302C76.9894 25.2127 76.7009 24.7305 76.1239 24.3822C75.5469 24.0352 74.7716 23.8604 73.7968 23.8604C71.7709 23.8604 70.6296 24.8007 70.3742 26.6786H65.72C65.7975 22.2262 68.5656 20 74.0281 20C76.9258 20 78.9949 20.6238 80.2392 21.8728C81.4821 23.1218 82.1049 24.9933 82.1049 27.49V39.4961V39.4974ZM77.0669 32.2779L77.105 30.1933C76.6945 30.6053 75.618 30.9791 73.8743 31.3134C72.4636 31.5711 71.4837 31.9245 70.9321 32.3748C70.3805 32.8252 70.1047 33.463 70.1047 34.2859C70.1047 35.702 70.9118 36.4088 72.5271 36.4088C73.8082 36.4088 74.8796 36.0031 75.7388 35.193C76.5979 34.3829 77.0402 33.4107 77.0656 32.2779H77.0669Z"/><path fill="#F8961D" d="M101.104 39.9987H96.1108V28.1966C96.1108 26.7177 95.8753 25.7087 95.4055 25.1669C94.9344 24.6264 94.1031 24.3555 92.9091 24.3555C90.3421 24.3555 89.0599 25.8474 89.0599 28.8313V40H84.1049V20.5143H88.8307V23.3661C89.9995 21.1216 92.0198 20 94.8916 20C96.7456 20 98.2457 20.568 99.3894 21.7027C100.533 22.8386 101.105 24.4353 101.105 26.4952V40L101.104 39.9987Z"/><path fill="#F8961D" d="M121.944 40H116.13L111.83 31.2689L109.321 33.8368V40H104.105V14H109.321V27.9491L115.772 20.5614H122.105L115.534 27.7115L121.946 39.9974L121.944 40Z"/><path fill="#F8961D" fill-rule="evenodd" d="M138.459 23.6915C132.181 23.6915 127.092 18.4579 127.092 12H120.957C120.957 21.9404 128.792 30 138.458 30C148.124 30 155.957 21.9404 155.957 12H149.824C149.824 18.4566 144.735 23.6915 138.458 23.6915" clip-rule="evenodd"/><path fill="#F8961D" fill-rule="evenodd" d="M143.999 12C143.999 12.2972 143.805 12.4768 143.804 12.4768C143.725 12.5722 142.471 13.4126 141.132 14.8735C139.794 16.3345 139.022 17.7028 138.936 17.7899C138.936 17.7899 138.771 18 138.499 18C138.227 18 138.062 17.7899 138.062 17.7899C137.977 17.7028 137.205 16.3345 135.866 14.8735C134.528 13.4126 133.275 12.5722 133.195 12.4768C133.195 12.4768 133 12.2972 133 12H144H143.999Z" clip-rule="evenodd"/><path fill="#F8961D" fill-rule="evenodd" d="M138.501 0C132.15 0 127 5.37235 127 12H132.899C132.899 11.7107 133.097 11.5358 133.097 11.5358C133.177 11.443 134.455 10.6263 135.818 9.20283C137.179 7.78204 137.966 6.4487 138.053 6.36529C138.053 6.36529 138.221 6.15943 138.499 6.15943C138.778 6.15943 138.945 6.36394 138.945 6.36394C139.033 6.44736 139.82 7.78069 141.181 9.20283C142.544 10.625 143.82 11.443 143.902 11.5358C143.902 11.5358 144.1 11.7107 144.1 12H150C150 5.37235 144.852 0 138.501 0Z" clip-rule="evenodd"/></g><defs><clipPath id="clip0_4_2079"><rect width="156" height="40" fill="#fff"/></clipPath></defs></svg>