<svg width="240" height="80" viewBox="0 0 240 80" fill="none" xmlns="http://www.w3.org/2000/svg">
<path d="M191.271 20H48.7292V60H191.271V20Z" fill="#FFCE01"/>
<mask id="mask0_13_12514" style="mask-type:luminance" maskUnits="userSpaceOnUse" x="48" y="20" width="144" height="40">
<path d="M191.264 20H48.7292V60H191.264V20Z" fill="white"/>
</mask>
<g mask="url(#mask0_13_12514)">
<path d="M137.078 47.7481C135.371 47.7648 133.673 47.4934 132.056 46.9455V31.2363H136.172V36.5184C136.857 36.3082 137.569 36.1995 138.285 36.196C141.77 36.196 144.15 38.1374 144.15 41.5604C144.15 45.745 141.64 47.7343 137.091 47.7343M137.469 38.741C137.027 38.7436 136.589 38.8201 136.172 38.9674V44.9355C136.564 45.037 136.968 45.0854 137.373 45.0796C139.06 45.0796 140.055 43.8928 140.055 41.828C140.055 39.7632 139.115 38.741 137.469 38.741Z" fill="#231F20"/>
<path d="M150.976 47.7481C146.75 47.7481 144.665 46.4447 144.665 44.0575C144.665 41.1009 148.294 40.4149 152.348 40.2297V39.7975C152.348 38.9057 151.607 38.4941 150.208 38.4941C148.914 38.5314 147.632 38.7626 146.407 39.1801L145.412 36.8958C147.115 36.3034 148.906 36.0042 150.708 36.0109C154.365 36.0109 156.196 37.2456 156.196 40.2091V46.9455C154.516 47.5128 152.749 47.7843 150.976 47.7481ZM152.348 42.3631C150.139 42.4386 148.472 42.6512 148.472 43.9752C148.472 44.8876 149.391 45.3815 150.859 45.3815C151.362 45.3856 151.864 45.3304 152.355 45.2168L152.348 42.3631Z" fill="#231F20"/>
<path d="M165.299 47.5012V40.2777C165.299 39.3448 164.771 38.7343 163.303 38.7343C162.81 38.7433 162.323 38.8385 161.862 39.0155V47.5286H157.747V36.889C159.553 36.296 161.443 35.9972 163.344 36.004C167.542 36.004 169.388 37.4309 169.388 39.8524V47.5012" fill="#231F20"/>
<path d="M179.191 47.5011L175.095 41.9309H175.04V47.5011H170.986V31.2363H175.04V41.1214H175.095L178.8 36.3332H183.423L179.245 41.533L183.766 47.5011" fill="#231F20"/>
<path d="M124.339 51.9532H120.038L122.055 47.5011L116.999 36.3333H121.465L124.188 44.2633L126.884 36.3333H131.35" fill="#231F20"/>
<path d="M102.998 32.5054H98.2233L95.0678 41.7662L91.9122 32.5054H87.1377L84.9769 47.5011H88.8801L90.1218 37.1907L93.7781 47.5011H96.3574L100.021 37.1907L101.262 47.5011H105.166" fill="#231F20"/>
<path d="M111.998 47.7483C107.772 47.7483 105.687 46.4449 105.687 44.0576C105.687 41.101 109.323 40.415 113.363 40.2298V39.7976C113.363 38.9059 112.622 38.4943 111.23 38.4943C109.936 38.5311 108.655 38.7623 107.429 39.1803L106.435 36.8959C108.145 36.3362 109.931 36.0379 111.73 36.011C115.387 36.011 117.218 37.2458 117.218 40.2092V46.9456C115.538 47.5129 113.771 47.7845 111.998 47.7483ZM113.37 42.3632C111.161 42.4387 109.494 42.6514 109.494 43.9753C109.494 44.8877 110.413 45.3816 111.881 45.3816C112.382 45.3859 112.882 45.3306 113.37 45.217V42.3632Z" fill="#231F20"/>
<path d="M80.2093 39.9895C80.2093 42.2608 79.5358 44.481 78.2739 46.3694C77.0121 48.2579 75.2186 49.7297 73.1203 50.5989C71.022 51.468 68.7131 51.6955 66.4855 51.2524C64.2579 50.8093 62.2118 49.7156 60.6058 48.1096C58.9998 46.5036 57.9061 44.4574 57.463 42.2299C57.0199 40.0023 57.2473 37.6934 58.1165 35.595C58.9856 33.4967 60.4575 31.7032 62.3459 30.4414C64.2344 29.1796 66.4546 28.5061 68.7258 28.5061C70.2338 28.5061 71.7271 28.8031 73.1203 29.3802C74.5136 29.9573 75.7795 30.8032 76.8458 31.8695C77.9122 32.9359 78.758 34.2018 79.3351 35.595C79.9122 36.9883 80.2093 38.4815 80.2093 39.9895Z" fill="#FFCE01"/>
<path d="M68.7258 27.5046C66.2551 27.5046 63.84 28.2373 61.7857 29.6099C59.7314 30.9825 58.1303 32.9335 57.1848 35.2161C56.2393 37.4987 55.992 40.0104 56.474 42.4335C56.956 44.8567 58.1457 47.0825 59.8927 48.8296C61.6397 50.5766 63.8656 51.7663 66.2887 52.2483C68.7119 52.7303 71.2236 52.4829 73.5062 51.5375C75.7888 50.592 77.7398 48.9909 79.1124 46.9366C80.485 44.8823 81.2176 42.4671 81.2176 39.9965C81.2176 36.6834 79.9015 33.5061 77.5589 31.1634C75.2162 28.8207 72.0388 27.5046 68.7258 27.5046ZM68.7258 51.5142C66.4526 51.5156 64.2302 50.8427 62.3395 49.5806C60.4489 48.3186 58.9751 46.5241 58.1046 44.4242C57.234 42.3244 57.0059 40.0135 57.4491 37.784C57.8922 35.5544 58.9867 33.5064 60.594 31.899C62.2014 30.2917 64.2494 29.1972 66.479 28.7541C68.7085 28.3109 71.0194 28.539 73.1192 29.4096C75.2191 30.2801 77.0136 31.7539 78.2756 33.6445C79.5377 35.5352 80.2106 37.7576 80.2092 40.0308C80.2092 43.0764 78.9994 45.9972 76.8458 48.1508C74.6922 50.3044 71.7714 51.5142 68.7258 51.5142Z" fill="#231F20"/>
<path d="M63.7386 39.4203C62.8469 39.187 62.0648 40.2366 61.6258 41.0255C61.7767 39.9485 63.1007 38.1855 63.7386 39.4203Z" fill="#231F20"/>
<path d="M61.7767 39.4339C62.0786 38.4049 62.7851 38.0619 63.1487 38.3363C62.5834 38.5419 62.1014 38.9276 61.7767 39.4339Z" fill="#231F20"/>
<path d="M64.0611 41.0804C64.5207 40.6963 64.4727 40.12 63.7592 39.9348C63.231 39.7976 62.0923 40.7512 61.9688 41.8076C62.4216 41.2176 63.7387 40.1475 64.0268 41.0804" fill="#231F20"/>
<path d="M71.2228 43.8174C71.3051 42.4454 69.988 41.8349 69.741 40.4492C69.4941 39.0635 71.799 36.8477 70.3379 34.584C73.0818 36.7929 70.9347 38.0962 72.3135 39.9347C71.8263 39.7629 71.3997 39.453 71.0856 39.0429C70.3173 40.0582 72.9789 41.4439 71.2228 43.8448" fill="#231F20"/>
<path d="M66.8187 32.917C67.1412 32.917 67.6968 33.1434 67.5047 33.4041C66.7433 34.09 65.7143 33.8294 64.9048 34.5428C65.241 33.6442 66.7296 33.5207 66.8531 32.917" fill="#231F20"/>
<path d="M69.2814 33.9186C69.597 33.5618 69.2814 33.0748 67.9986 32.9102C69.3706 33.5961 67.1686 33.7128 67.1 34.8584C66.414 35.1465 65.8103 34.6731 65.4605 35.0024C65.1106 35.3317 64.7196 35.0985 64.8362 34.7349C64.7506 34.7841 64.6806 34.8566 64.6346 34.9441C64.5886 35.0315 64.5683 35.1302 64.5762 35.2287C64.5841 35.3272 64.6199 35.4214 64.6793 35.5003C64.7387 35.5793 64.8192 35.6398 64.9117 35.6747C64.994 35.7158 65.0626 35.7913 65.0009 35.853C64.5618 36.2646 64.356 36.6213 64.8157 37.0398C64.9717 36.7027 65.207 36.4085 65.5016 36.1823C65.7692 36.3607 66.2288 36.2372 66.8736 35.5581C66.8736 35.5238 66.9422 35.5581 66.9285 35.5581C66.4346 37.2593 65.1724 37.5337 64.7676 37.4514C65.0146 37.815 66.6198 38.0482 66.8256 37.3279C67.2852 35.709 68.8424 35.0093 67.5116 35.0367C67.8752 34.6114 69.0962 34.2067 69.3638 33.9048M65.9338 35.8873C65.8309 35.8873 65.7417 35.7433 65.7212 35.5649C65.8515 35.9011 66.1808 35.7364 65.9887 35.2631C66.1053 35.2631 66.2905 35.2631 66.6335 35.2631C66.2768 35.4552 66.1122 35.8942 65.9475 35.8873" fill="#231F20"/>
<path d="M69.9606 33.0475C70.4853 33.3634 70.9498 33.7698 71.3325 34.248C71.4149 33.562 71.0238 32.19 70.4407 31.8813C70.1869 31.7373 69.8302 32.6976 69.9469 33.0475" fill="#231F20"/>
<path d="M59.561 38.5901C60.1886 37.1366 61.2786 35.9309 62.6616 35.1602C63.0458 34.1792 62.9155 33.5001 66.9354 31.9429C67.0314 31.3461 67.0177 30.6395 67.1892 30.6395C67.683 30.7685 68.1081 31.083 68.3759 31.5176L68.8218 31.4627C68.9414 30.8395 69.1493 30.2367 69.4392 29.6723C69.7342 29.2195 70.2898 29.1715 71.0101 29.7614C71.884 30.3656 72.6611 31.0987 73.315 31.936C74.6281 32.4062 75.7976 33.2072 76.7107 34.2615C76.2383 33.971 75.7056 33.7927 75.1535 33.7402C76.107 34.5839 76.7381 35.9628 76.2579 37.9864C76.0727 36.1 74.6802 35.3111 73.8295 34.7005C74.2891 36.3058 72.2929 35.7501 71.6824 34.5496C71.767 34.5855 71.858 34.604 71.9499 34.604C72.0418 34.604 72.1328 34.5855 72.2175 34.5496C72.2343 33.7593 72.0896 32.9739 71.7924 32.2414C71.4951 31.5089 71.0515 30.8448 70.4888 30.2896C69.8371 29.7409 69.4872 31.0511 69.2609 32.0389C69.2288 32.1962 69.1426 32.3373 69.0172 32.4375C68.8919 32.5378 68.7354 32.5909 68.5749 32.5877C68.6606 32.4192 68.7207 32.2389 68.7532 32.0526C67.7568 32.2283 66.7954 32.5642 65.9064 33.0473C64.1297 33.8499 63.6906 34.2478 63.2928 35.5992C61.8793 36.352 60.6203 37.3644 59.5816 38.5832" fill="#231F20"/>
<path d="M68.4308 38.2197C68.8624 38.8436 69.0937 39.5842 69.0937 40.3429C69.0937 41.1015 68.8624 41.8421 68.4308 42.466C68.8013 40.8128 67.7448 37.6641 66.6335 39.2624C66.7924 39.31 66.9402 39.389 67.0681 39.4946C67.196 39.6003 67.3014 39.7305 67.3782 39.8776C67.4549 40.0246 67.5014 40.1856 67.5149 40.3509C67.5284 40.5163 67.5086 40.6827 67.4567 40.8402C67.2879 40.4902 67.0078 40.206 66.6602 40.0322C66.3127 39.8584 65.9172 39.8048 65.5359 39.8798C65.2993 39.9746 65.0366 39.9817 64.7951 39.9C64.5536 39.8182 64.3493 39.6529 64.2189 39.4339C63.7044 38.6793 64.5687 37.7533 63.1007 37.8287C64.8705 36.9232 64.3629 38.6725 65.2135 38.8851C66.2082 39.1252 66.3248 38.5079 66.6678 38.11C66.8161 37.91 67.0357 37.7749 67.281 37.7328C67.5263 37.6906 67.7784 37.7446 67.9849 37.8836C68.2387 37.1016 67.8683 35.8874 68.5955 35.2357C68.8448 35.1161 69.122 35.0663 69.3974 35.0917C69.6728 35.117 69.9362 35.2166 70.1595 35.3797C69.5284 35.3797 68.7875 36.1206 68.424 38.2266" fill="#231F20"/>
<path d="M77.4996 35.1602C78.4051 38.3157 78.1444 41.3341 77.2183 43.152C77.3349 42.0132 76.3403 40.36 76.7381 38.4186C74.8517 40.2502 77.8014 44.7503 73.514 47.7001C74.1553 46.2829 74.3927 44.7161 74.2 43.1725C74.4524 43.3159 74.6592 43.5275 74.7968 43.783C75.2128 42.286 75.1186 40.6932 74.5293 39.2555C74.872 39.3295 75.192 39.4848 75.4622 39.7083C75.5651 37.1015 73.6649 36.9095 73.3082 36.2029C73.3082 36.9575 74.2 37.5749 74.3578 38.5901C73.9354 38.3703 73.4609 38.2706 72.9858 38.302C73.4638 38.8661 73.8202 39.5229 74.0327 40.2311C74.2452 40.9394 74.3091 41.6838 74.2206 42.4179C73.843 42.0699 73.3603 41.8575 72.8486 41.8143C73.418 42.6718 73.6512 44.9287 72.9378 45.9302C72.9176 45.5085 72.7875 45.0994 72.5605 44.7434C72.4398 45.2207 72.1895 45.6553 71.8372 45.9991C71.4849 46.343 71.0443 46.5827 70.5642 46.6917C70.7733 46.4922 70.9287 46.2433 71.0163 45.968C71.1039 45.6927 71.1208 45.3997 71.0654 45.1162C71.0101 44.8326 70.8843 44.5675 70.6996 44.3453C70.5149 44.1232 70.2773 43.951 70.0086 43.8448C68.9042 43.4607 67.4979 44.2152 66.9285 46.8563C66.1259 47.0895 63.7318 46.575 65.1655 45.0316C66.0436 45.3197 68.2662 43.8311 68.1153 42.7884C68.0064 42.1988 67.6803 41.6715 67.2015 41.3108C66.7226 40.95 66.1258 40.7821 65.5291 40.8402C64.2326 40.8402 63.3614 42.0612 62.3049 42.5894C61.4132 42.4522 61.1182 42.3219 60.6654 41.142C60.6105 40.4217 61.3514 39.9141 61.3514 39.1664C60.7203 39.2967 60.5694 38.35 59.3415 39.331C59.2454 39.1526 59.4101 38.7342 59.4101 38.7342C59.1181 38.9927 58.9243 39.344 58.8613 39.7289C59.119 40.2363 59.5134 40.6616 60 40.9568C60.7203 42.8913 61.468 43.1039 62.2295 43.1794C62.5725 43.6593 63.0764 44 63.6495 44.1398C63.5339 43.6011 63.5107 43.0467 63.5809 42.5003C65.1518 40.9293 66.3248 41.8897 66.4757 42.3013C65.1038 42.5894 66.0641 45.5735 63.7318 44.2427C63.6685 44.7663 63.7846 45.2958 64.0611 45.745C64.3012 47.803 66.8668 47.2885 67.6556 47.6452C67.5665 45.6627 68.6709 44.2152 69.6107 44.3319C70.5505 44.4485 70.8043 45.9988 69.1854 47.46C69.5833 47.6726 71.3188 47.3776 72.19 46.774C72.2724 47.2816 71.6275 48.7702 70.8181 49.8129C72.3468 49.4821 73.7769 48.7979 74.9937 47.8151C76.2104 46.8322 77.1801 45.578 77.8249 44.1529C78.4698 42.7279 78.7719 41.1716 78.7071 39.6088C78.6422 38.046 78.2122 36.5201 77.4516 35.1533M60.3018 40.7167C59.9506 40.4638 59.6523 40.1445 59.4238 39.7769C59.6031 39.559 59.8412 39.3971 60.1098 39.3104C60.3636 39.2418 60.5214 39.3859 60.4871 39.4682C60.4528 39.5505 60.2264 39.5505 60.1647 39.7426C60.1029 39.9347 60.391 40.1199 60.4528 40.2502C60.4765 40.2893 60.4917 40.333 60.4976 40.3784C60.5035 40.4237 60.4999 40.4698 60.487 40.5137C60.4741 40.5576 60.4522 40.5983 60.4227 40.6333C60.3932 40.6682 60.3567 40.6966 60.3156 40.7167M62.5725 42.9736C62.6987 42.7651 62.9 42.613 63.135 42.5483C63.1159 42.9524 63.1575 43.357 63.2585 43.7488C63.2585 43.7488 62.5725 43.3166 62.5725 42.9805M66.1053 43.4607C66.2837 43.4607 66.4277 43.6253 66.5924 43.5087C66.757 43.392 66.5924 42.9119 66.462 42.7678C66.6129 42.7678 67.2303 42.7678 67.2029 43.0216C67.1274 43.6047 66.7639 43.7899 65.8789 44.2221C66.0299 44.078 66.0093 43.7693 66.1053 43.4675M64.3629 45.402C64.181 45.2191 64.0755 44.9738 64.0679 44.716C64.2808 44.8444 64.5122 44.9393 64.7539 44.9973C64.6546 45.1713 64.5131 45.3176 64.3423 45.4226" fill="#231F20"/>
</g>
</svg>
