<svg width="240" height="80" viewBox="0 0 240 80" fill="none" xmlns="http://www.w3.org/2000/svg">
<path d="M94.0256 20.0735C94.7585 19.889 95.5779 20.0539 96.1574 20.546C97.1327 21.3181 97.3008 22.8883 96.5043 23.8465C94.9707 25.6322 93.4323 27.413 91.8971 29.1971C91.4964 29.6689 90.841 29.9072 90.2314 29.7978C89.6176 29.7048 89.0757 29.2624 88.8546 28.6846C88.6391 28.1549 88.7044 27.5273 89.0129 27.0474C90.1857 25.1172 91.3585 23.187 92.528 21.2544C92.8414 20.679 93.3882 20.2359 94.0256 20.0735Z" fill="#EB2D4B"/>
<path d="M95.4098 27.4947C95.9999 27.2923 96.7026 27.4432 97.1294 27.9068C97.3914 28.1745 97.5416 28.5393 97.5701 28.9115C97.8166 31.4995 98.0672 34.0867 98.312 36.6746C98.3945 37.3994 98.1472 38.16 97.6126 38.6644C96.856 39.4365 95.5502 39.554 94.6549 38.9574C93.9318 38.4922 93.4951 37.6173 93.5841 36.7587C93.8371 34.1152 94.0885 31.4709 94.3456 28.8274C94.4051 28.2259 94.841 27.6905 95.4098 27.4947Z" fill="#EB2D4B"/>
<path d="M73.5413 27.5869C74.5035 27.3225 75.6134 27.715 76.1513 28.5655C77.3649 30.5609 78.5744 32.5597 79.788 34.5559C80.0296 34.9412 80.1316 35.417 80.0378 35.865C79.9325 36.4861 79.4665 37.0256 78.8707 37.2272C78.1916 37.4745 77.3731 37.2647 76.9079 36.7097C75.3849 34.9395 73.8587 33.1726 72.3366 31.4024C71.6315 30.583 71.6094 29.2763 72.2811 28.4308C72.5945 28.0219 73.0434 27.7191 73.5413 27.5869Z" fill="#EB2D4B"/>
<path d="M80.3952 29.1391C80.6874 29.0436 81.0041 29.0436 81.302 29.1106C83.8842 29.6876 86.469 30.2524 89.0496 30.8351C90.2053 31.1052 91.01 32.3417 90.7945 33.508C90.6476 34.6089 89.6323 35.4977 88.5248 35.5148C88.1559 35.5312 87.7895 35.4455 87.4541 35.2986C85.0497 34.2531 82.6445 33.2092 80.2402 32.1654C79.6444 31.9148 79.2535 31.2742 79.2796 30.6319C79.2877 29.9651 79.7603 29.3391 80.3952 29.1391Z" fill="#EB2D4B"/>
<path d="M100.876 35.6561C101.494 35.4275 102.13 35.6854 102.738 35.8136C104.696 36.2755 106.654 36.7358 108.613 37.1961C109.096 37.3079 109.549 37.5618 109.875 37.938C110.398 38.5118 110.599 39.354 110.402 40.1049C110.246 40.7668 109.777 41.3405 109.172 41.6457C108.557 41.9559 107.809 41.9828 107.175 41.7143C105.024 40.8084 102.869 39.909 100.717 39.0031C100.072 38.7256 99.6317 38.0343 99.6619 37.3308C99.657 36.5881 100.171 35.8854 100.876 35.6561Z" fill="#EB2D4B"/>
<path d="M81.9304 36.7783C83.0028 36.4984 84.2074 37.0844 84.653 38.0972C85.0342 38.915 84.8995 39.945 84.307 40.6281C82.6355 42.5199 80.9633 44.4109 79.2918 46.3027C79.1025 46.5174 78.9213 46.75 78.6699 46.8961C78.0529 47.2805 77.1723 47.1842 76.6712 46.6504C76.1684 46.1624 76.0566 45.3356 76.4027 44.7276C77.7444 42.4497 79.0861 40.1719 80.432 37.8956C80.7502 37.3374 81.3052 36.9236 81.9304 36.7783Z" fill="#EB2D4B"/>
<path d="M101.766 41.2581C102.392 41.0933 103.113 41.3308 103.487 41.8662C103.894 42.4056 103.903 43.2006 103.517 43.7539C103.341 44.0175 103.078 44.2126 102.789 44.3358C100.404 45.3691 98.019 46.4047 95.6359 47.4421C94.9642 47.7481 94.1497 47.7302 93.5009 47.3768C92.7345 46.9703 92.2309 46.1207 92.2562 45.2523C92.2464 44.1922 93.043 43.1957 94.0771 42.968C96.6397 42.3958 99.2041 41.8327 101.766 41.2581Z" fill="#EB2D4B"/>
<path d="M85.6194 44.321C86.6028 44.0133 87.7634 44.4173 88.3077 45.3004C89.665 47.5888 91.0116 49.8847 92.3648 52.1764C92.6447 52.64 92.6733 53.2439 92.435 53.7311C92.1869 54.2535 91.6368 54.6199 91.0565 54.6338C90.5807 54.6656 90.1 54.4648 89.7784 54.1155C88.1984 52.3233 86.6134 50.5367 85.0334 48.7453C84.6155 48.276 84.1315 47.8092 84.0026 47.1677C83.681 45.9859 84.4368 44.645 85.6194 44.321Z" fill="#EB2D4B"/>
<path d="M81.2244 47.7538C82.1214 47.5277 83.1187 48.1129 83.3521 49.0074C83.61 49.8366 83.166 50.8119 82.3638 51.1506C80.1953 52.0606 78.0268 52.9722 75.8558 53.8773C74.8724 54.2846 73.6425 53.9279 73.0418 53.0457C72.5554 52.3707 72.4689 51.4346 72.8157 50.6788C73.1063 50.021 73.7167 49.5224 74.4154 49.3559C76.685 48.8229 78.9547 48.2867 81.2244 47.7538Z" fill="#EB2D4B"/>
<path d="M95.5045 48.8981C96.0676 48.7479 96.6985 48.8989 97.1368 49.2825C97.5073 49.6 97.7285 50.0758 97.7522 50.5622C97.9219 52.6271 98.0933 54.6903 98.2655 56.7543C98.2982 57.1362 98.3422 57.5198 98.3112 57.9034C98.2435 58.5931 97.8387 59.2345 97.2608 59.6116C96.5932 60.058 95.6938 60.1225 94.965 59.7895C94.0909 59.4051 93.5107 58.4527 93.5792 57.4986C93.749 55.4003 93.9293 53.3028 94.0999 51.2053C94.1521 50.745 94.1203 50.2562 94.3399 49.8334C94.5667 49.3706 95.0034 49.0205 95.5045 48.8981Z" fill="#EB2D4B"/>
<path d="M152.189 27.3615C154.828 27.3011 157.48 27.177 160.107 27.5059C161.598 27.6887 163.098 28.0748 164.376 28.8909C165.334 29.4924 166.12 30.3616 166.616 31.3785C167.393 32.8525 167.408 34.6684 166.784 36.1987C166.354 37.227 165.535 38.0293 164.66 38.6912C166.005 39.2641 167.016 40.4369 167.59 41.7599C168.255 43.2575 168.334 44.9583 168.059 46.5563C167.804 48.0319 167.062 49.4324 165.916 50.4077C164.996 51.2361 163.832 51.738 162.646 52.0522C160.78 52.5476 158.84 52.6733 156.917 52.715C153.936 52.7207 150.956 52.6725 147.98 52.5052C147.981 44.1691 147.982 35.8322 147.98 27.4961C149.381 27.4178 150.786 27.4031 152.189 27.3615ZM153.898 32.1726V37.0613C155.423 37.1984 156.96 37.2433 158.487 37.1217C159.373 37.0311 160.35 36.8565 160.976 36.1603C161.844 35.2413 161.672 33.5927 160.642 32.8639C159.712 32.1979 158.521 32.1024 157.414 32.051C156.242 32.0461 155.062 32.0037 153.898 32.1726ZM153.898 41.7435V47.5275C154.93 47.5863 155.964 47.6304 156.998 47.6336C158.007 47.5961 159.047 47.632 160.012 47.2868C160.879 46.9905 161.65 46.3294 161.951 45.4488C162.402 44.2156 161.831 42.6658 160.618 42.11C159.491 41.5934 158.216 41.5681 156.998 41.5738C155.962 41.5566 154.928 41.6358 153.898 41.7435Z" fill="#141ED2"/>
<path d="M118.663 27.497C120.605 27.4929 122.546 27.4962 124.487 27.4954C126.56 31.8103 128.626 36.1343 130.398 40.5831C130.442 40.579 130.529 40.5716 130.573 40.5676C131.758 37.5168 133.142 34.5477 134.521 31.581C135.162 30.2164 135.812 28.8559 136.468 27.4986C138.41 27.4938 140.354 27.4913 142.297 27.4995C143.154 33.9535 143.596 40.4549 143.977 46.9514C144.078 48.8041 144.182 50.6559 144.251 52.5094C142.319 52.511 140.387 52.5102 138.455 52.5102C138.344 48.995 138.216 45.4807 138.058 41.9681C137.979 40.4141 137.92 38.8577 137.755 37.3103C137.578 37.3356 137.555 37.5364 137.484 37.6678C135.806 41.5208 134.187 45.4008 132.588 49.2872C131.181 49.2856 129.776 49.2872 128.37 49.2864C126.744 45.3379 125.104 41.3951 123.391 37.4833C123.357 37.3928 123.297 37.3299 123.209 37.294C123 39.1744 122.951 41.0678 122.857 42.9564C122.715 46.1402 122.615 49.3256 122.494 52.5102C120.563 52.5094 118.631 52.511 116.699 52.5094C116.898 48.1512 117.144 43.7938 117.469 39.4429C117.774 35.4528 118.121 31.4627 118.663 27.497Z" fill="#141ED2"/>
</svg>
