<svg width="40" height="40" viewBox="0 0 40 40" fill="none" xmlns="http://www.w3.org/2000/svg">
<path d="M23.2333 0.0734574C23.9662 -0.110991 24.7856 0.05387 25.3651 0.546004C26.3404 1.31808 26.5085 2.88834 25.712 3.84649C24.1784 5.63221 22.64 7.41303 21.1048 9.19712C20.7041 9.66885 20.0488 9.90717 19.4391 9.79781C18.8254 9.70477 18.2834 9.26242 18.0623 8.68459C17.8468 8.15491 17.9121 7.52729 18.2206 7.0474C19.3934 5.11722 20.5662 3.18704 21.7357 1.25442C22.0491 0.679036 22.5959 0.23587 23.2333 0.0734574Z" fill="#EB2D4B"/>
<path d="M24.6175 7.49467C25.2076 7.29226 25.9103 7.44325 26.3372 7.90682C26.5991 8.17451 26.7493 8.53933 26.7779 8.91149C27.0244 11.4995 27.2749 14.0867 27.5198 16.6746C27.6022 17.3994 27.3549 18.16 26.8203 18.6644C26.0638 19.4365 24.7579 19.554 23.8626 18.9574C23.1395 18.4922 22.7029 17.6173 22.7918 16.7587C23.0448 14.1152 23.2962 11.4709 23.5533 8.82743C23.6129 8.22593 24.0487 7.69054 24.6175 7.49467Z" fill="#EB2D4B"/>
<path d="M2.74898 7.5869C3.71121 7.32246 4.82116 7.71503 5.359 8.56545C6.57261 10.5609 7.78213 12.5597 8.99574 14.5559C9.23732 14.9412 9.33933 15.417 9.24548 15.865C9.14019 16.4861 8.67418 17.0256 8.07839 17.2272C7.39936 17.4745 6.58077 17.2647 6.11557 16.7097C4.59264 14.9395 3.06646 13.1726 1.54435 11.4024C0.839201 10.583 0.817165 9.27631 1.48885 8.43079C1.80225 8.0219 2.25113 7.71911 2.74898 7.5869Z" fill="#EB2D4B"/>
<path d="M9.60292 9.13914C9.8951 9.04365 10.2118 9.04365 10.5097 9.11057C13.0919 9.68759 15.6767 10.2524 18.2573 10.8351C19.413 11.1052 20.2177 12.3417 20.0022 13.508C19.8553 14.6089 18.84 15.4977 17.7325 15.5148C17.3636 15.5312 16.9972 15.4455 16.6617 15.2986C14.2574 14.2531 11.8522 13.2092 9.44786 12.1654C8.85207 11.9148 8.46114 11.2742 8.48726 10.6319C8.49542 9.96507 8.96797 9.33909 9.60292 9.13914Z" fill="#EB2D4B"/>
<path d="M30.084 15.6561C30.7019 15.4275 31.3376 15.6854 31.9457 15.8136C33.9036 16.2755 35.8615 16.7358 37.8203 17.1961C38.3034 17.3079 38.7564 17.5618 39.0828 17.938C39.606 18.5118 39.8068 19.354 39.6101 20.1049C39.4534 20.7668 38.9849 21.3405 38.3793 21.6457C37.7648 21.9559 37.0172 21.9828 36.383 21.7143C34.2317 20.8084 32.0763 19.909 29.9249 19.0031C29.2793 18.7256 28.8394 18.0343 28.8696 17.3308C28.8647 16.5881 29.3789 15.8854 30.084 15.6561Z" fill="#EB2D4B"/>
<path d="M11.1381 16.7783C12.2105 16.4984 13.4152 17.0844 13.8608 18.0972C14.2419 18.915 14.1073 19.945 13.5147 20.6281C11.8433 22.5199 10.171 24.4109 8.49953 26.3027C8.31019 26.5174 8.129 26.75 7.87763 26.8961C7.26063 27.2805 6.38001 27.1842 5.8789 26.6504C5.37615 26.1624 5.26434 25.3356 5.61039 24.7276C6.95212 22.4497 8.29386 20.1719 9.63968 17.8956C9.95798 17.3374 10.513 16.9236 11.1381 16.7783Z" fill="#EB2D4B"/>
<path d="M30.9737 21.2581C31.5997 21.0933 32.3203 21.3308 32.6949 21.8662C33.1014 22.4056 33.1103 23.2006 32.7251 23.7539C32.5488 24.0175 32.286 24.2126 31.9963 24.3358C29.6115 25.3691 27.2268 26.4047 24.8436 27.4421C24.1719 27.7481 23.3574 27.7302 22.7086 27.3768C21.9422 26.9703 21.4387 26.1207 21.464 25.2523C21.4542 24.1922 22.2507 23.1957 23.2848 22.968C25.8475 22.3958 28.4118 21.8327 30.9737 21.2581Z" fill="#EB2D4B"/>
<path d="M14.8271 24.321C15.8105 24.0133 16.9711 24.4173 17.5155 25.3004C18.8727 27.5888 20.2193 29.8847 21.5725 32.1764C21.8524 32.64 21.881 33.2439 21.6427 33.7311C21.3946 34.2535 20.8445 34.6199 20.2642 34.6338C19.7884 34.6656 19.3077 34.4648 18.9861 34.1155C17.4061 32.3233 15.8211 30.5367 14.2411 28.7453C13.8232 28.276 13.3392 27.8092 13.2103 27.1677C12.8887 25.9859 13.6445 24.645 14.8271 24.321Z" fill="#EB2D4B"/>
<path d="M10.4321 27.7538C11.3291 27.5277 12.3264 28.1129 12.5598 29.0074C12.8177 29.8366 12.3737 30.8119 11.5715 31.1506C9.40297 32.0606 7.23447 32.9722 5.06353 33.8773C4.08008 34.2846 2.85015 33.9279 2.24947 33.0457C1.76305 32.3707 1.67654 31.4346 2.0234 30.6788C2.31395 30.021 2.92442 29.5224 3.62304 29.3559C5.89273 28.8229 8.16243 28.2867 10.4321 27.7538Z" fill="#EB2D4B"/>
<path d="M24.7122 28.8981C25.2753 28.7479 25.9062 28.8989 26.3445 29.2825C26.715 29.6 26.9362 30.0758 26.9599 30.5622C27.1296 32.6271 27.301 34.6903 27.4732 36.7543C27.5059 37.1362 27.5499 37.5198 27.5189 37.9034C27.4512 38.5931 27.0464 39.2345 26.4685 39.6116C25.8009 40.058 24.9015 40.1225 24.1727 39.7895C23.2986 39.4051 22.7184 38.4527 22.7869 37.4986C22.9567 35.4003 23.137 33.3028 23.3076 31.2053C23.3598 30.745 23.328 30.2562 23.5476 29.8334C23.7745 29.3706 24.2111 29.0205 24.7122 28.8981Z" fill="#EB2D4B"/>
</svg>
