<svg xmlns="http://www.w3.org/2000/svg" width="96" height="40" fill="none" viewBox="0 0 96 40"><g clip-path="url(#clip0_11_191)"><path fill="#EB2D4B" d="M22.1176 0.0747729C22.8256 -0.112979 23.6172 0.0548347 24.1771 0.555782C25.1193 1.34168 25.2817 2.94006 24.5121 3.91537C23.0306 5.73307 21.5444 7.54579 20.0613 9.36183C19.6742 9.84201 19.041 10.0846 18.4521 9.97327C17.8591 9.87856 17.3356 9.42829 17.1219 8.84011C16.9138 8.30095 16.9769 7.66209 17.2749 7.17361C18.4079 5.20886 19.5409 3.24412 20.6708 1.27688C20.9736 0.691196 21.5018 0.240094 22.1176 0.0747729Z"/><path fill="#EB2D4B" d="M23.9319 7.08845C24.5523 6.88484 25.2913 7.03673 25.7401 7.50306C26.0156 7.77235 26.1735 8.13934 26.2035 8.51372C26.4627 11.1171 26.7262 13.7197 26.9837 16.3231C27.0703 17.0522 26.8103 17.8174 26.2482 18.3247C25.4526 19.1014 24.0795 19.2196 23.138 18.6195C22.3776 18.1515 21.9185 17.2714 22.012 16.4077C22.2781 13.7484 22.5424 11.0884 22.8127 8.42915C22.8754 7.82407 23.3337 7.28549 23.9319 7.08845Z"/><path fill="#EB2D4B" d="M1.68992 8.08298C2.6196 7.81383 3.692 8.2134 4.21164 9.07902C5.38418 11.1101 6.55279 13.1446 7.72533 15.1765C7.95874 15.5686 8.0573 16.0529 7.96662 16.509C7.8649 17.1412 7.41465 17.6903 6.83902 17.8955C6.18297 18.1472 5.39207 17.9337 4.94261 17.3688C3.47121 15.567 1.99666 13.7685 0.526049 11.9666C-0.155241 11.1326 -0.176531 9.80258 0.472429 8.94195C0.775225 8.52576 1.20892 8.21756 1.68992 8.08298Z"/><path fill="#EB2D4B" d="M8.1603 9.07035C8.46383 8.98157 8.7928 8.98156 9.10227 9.04379C11.7849 9.58026 14.47 10.1054 17.151 10.6471C18.3515 10.8983 19.1875 12.0479 18.9637 13.1322C18.8111 14.1559 17.7563 14.9822 16.6058 14.9982C16.2226 15.0133 15.8419 14.9337 15.4934 14.7971C12.9956 13.825 10.497 12.8545 7.99921 11.884C7.38027 11.6511 6.97415 11.0554 7.00128 10.4582C7.00976 9.83826 7.50067 9.25625 8.1603 9.07035Z"/><path fill="#EB2D4B" d="M29.2366 16.0863C29.8649 15.8698 30.5115 16.1142 31.1298 16.2355C33.1211 16.6732 35.1123 17.1092 37.1043 17.5453C37.5957 17.6512 38.0564 17.8917 38.3884 18.2481C38.9204 18.7916 39.1246 19.5895 38.9246 20.3008C38.7652 20.9279 38.2888 21.4714 37.6729 21.7606C37.0479 22.0544 36.2876 22.0799 35.6427 21.8255C33.4547 20.9673 31.2626 20.1153 29.0747 19.2571C28.4182 18.9942 27.9708 18.3393 28.0015 17.6729C27.9965 16.9693 28.5194 16.3036 29.2366 16.0863Z"/><path fill="#EB2D4B" d="M9.9494 17.067C11.0633 16.7984 12.3146 17.3607 12.7775 18.3326C13.1734 19.1174 13.0335 20.1057 12.418 20.7613C10.6819 22.5767 8.94483 24.3913 7.20866 26.2067C7.01199 26.4126 6.82379 26.6359 6.56268 26.776C5.92179 27.1449 5.00708 27.0525 4.48657 26.5403C3.96436 26.072 3.84822 25.2786 4.20766 24.6951C5.60135 22.5093 6.99503 20.3235 8.39295 18.1392C8.72357 17.6035 9.30004 17.2064 9.9494 17.067Z"/><path fill="#EB2D4B" d="M29.0624 21.048C29.6589 20.8947 30.3456 21.1155 30.7026 21.6135C31.0898 22.1152 31.0984 22.8546 30.7313 23.3692C30.5634 23.6144 30.3129 23.7958 30.0369 23.9104C27.7645 24.8714 25.4921 25.8347 23.2213 26.7994C22.5812 27.0841 21.8051 27.0674 21.1868 26.7387C20.4566 26.3607 19.9768 25.5705 20.0009 24.7629C19.9915 23.7768 20.7506 22.85 21.7359 22.6382C24.1778 22.1061 26.6213 21.5824 29.0624 21.048Z"/><path fill="#EB2D4B" d="M13.7559 24.0981C14.7771 23.8028 15.9821 24.1906 16.5474 25.0382C17.9566 27.2348 19.3549 29.4384 20.7599 31.6381C21.0506 32.0831 21.0803 32.6628 20.8328 33.1304C20.5752 33.6318 20.004 33.9835 19.4015 33.9968C18.9075 34.0274 18.4083 33.8347 18.0744 33.4994C16.4338 31.7791 14.7881 30.0643 13.1475 28.3448C12.7136 27.8944 12.2111 27.4463 12.0772 26.8305C11.7433 25.6962 12.528 24.4091 13.7559 24.0981Z"/><path fill="#EB2D4B" d="M9.76237 28.0461C10.6742 27.8321 11.6881 28.3859 11.9254 29.2325C12.1876 30.0172 11.7362 30.9402 10.9206 31.2608C8.71611 32.122 6.51158 32.9847 4.30456 33.8413C3.30477 34.2268 2.0544 33.8892 1.44374 33.0543C0.949231 32.4155 0.861282 31.5296 1.21391 30.8143C1.50928 30.1918 2.1299 29.7199 2.84013 29.5623C5.14755 29.0579 7.45496 28.5505 9.76237 28.0461Z"/><path fill="#EB2D4B" d="M24.0332 29.0565C24.6263 28.9084 25.2906 29.0573 25.7521 29.4354C26.1423 29.7483 26.3752 30.2174 26.4002 30.6968C26.5789 32.7323 26.7594 34.766 26.9408 36.8007C26.9751 37.1772 27.0215 37.5553 26.9889 37.9334C26.9176 38.6132 26.4913 39.2456 25.8828 39.6172C25.1797 40.0573 24.2326 40.1209 23.4651 39.7926C22.5447 39.4137 21.9336 38.4748 22.0058 37.5344C22.1845 35.466 22.3745 33.3984 22.5541 31.3308C22.6091 30.8771 22.5756 30.3952 22.8068 29.9784C23.0457 29.5223 23.5055 29.1771 24.0332 29.0565Z"/><path fill="#141ED2" d="M80.1615 7.07262C82.7704 7.01324 85.3931 6.89127 87.9907 7.21464C89.465 7.39439 90.9482 7.77393 92.2119 8.57634C93.1585 9.16772 93.9356 10.0223 94.4262 11.0221C95.1945 12.4712 95.2098 14.2566 94.5925 15.7611C94.1672 16.7722 93.357 17.561 92.4919 18.2117C93.8226 18.775 94.8217 19.9281 95.3898 21.2288C96.0466 22.7012 96.1249 24.3734 95.853 25.9446C95.6012 27.3953 94.8668 28.7723 93.7347 29.7311C92.8244 30.5456 91.6737 31.0391 90.5012 31.348C88.6556 31.8351 86.7375 31.9586 84.8363 31.9996C81.8892 32.0052 78.9422 31.9578 76 31.7933C76.0008 23.5975 76.0016 15.4009 76 7.20502C77.3856 7.12798 78.7743 7.11354 80.1615 7.07262ZM81.8513 11.8028V16.6093C83.3587 16.7441 84.879 16.7882 86.3889 16.6687C87.2652 16.5796 88.2312 16.4079 88.8493 15.7234C89.7079 14.8199 89.5376 13.199 88.5193 12.4825C87.6001 11.8277 86.4219 11.7338 85.3277 11.6833C84.1689 11.6785 83.002 11.6367 81.8513 11.8028ZM81.8513 21.2127V26.8994C82.8721 26.9572 83.8937 27.0005 84.9162 27.0037C85.9144 26.9668 86.9424 27.0021 87.8971 26.6627C88.7541 26.3714 89.5158 25.7215 89.8136 24.8557C90.2599 23.6432 89.695 22.1195 88.4958 21.573C87.3814 21.0651 86.121 21.0402 84.917 21.0458C83.8921 21.029 82.8697 21.1068 81.8513 21.2127Z"/><path fill="#141ED2" d="M46.9251 7.00287C48.8278 6.9988 50.7297 7.00206 52.6324 7.00124C54.663 11.3134 56.6881 15.6345 58.4244 20.0804C58.4676 20.0763 58.5532 20.069 58.5956 20.0649C59.7577 17.0162 61.1133 14.049 62.4649 11.0842C63.0928 9.7205 63.7302 8.36087 64.3724 7.0045C66.2759 6.99961 68.181 6.99716 70.0853 7.00532C70.9251 13.4552 71.3578 19.9524 71.7313 26.4447C71.8304 28.2961 71.932 30.1467 72 31.999C70.1069 32.0006 68.213 31.9998 66.3199 31.9998C66.2111 28.4869 66.0856 24.9749 65.9312 21.4645C65.8536 19.9116 65.7953 18.3562 65.6337 16.8098C65.4601 16.8351 65.4377 17.0357 65.369 17.167C63.7238 21.0176 62.1378 24.895 60.5702 28.7789C59.1922 28.7773 57.815 28.7789 56.4369 28.7781C54.8438 24.8322 53.2362 20.892 51.5575 16.9827C51.5247 16.8922 51.4655 16.8294 51.3791 16.7935C51.1752 18.6727 51.1264 20.5649 51.0344 22.4522C50.8952 25.6339 50.7977 28.8173 50.6793 31.9998C48.7862 31.999 46.8931 32.0006 45 31.999C45.1951 27.6436 45.4359 23.289 45.755 18.941C46.0533 14.9535 46.394 10.9659 46.9251 7.00287Z"/></g><defs><clipPath id="clip0_11_191"><rect width="96" height="40" fill="#fff"/></clipPath></defs></svg>