<svg width="240" height="80" viewBox="0 0 240 80" fill="none" xmlns="http://www.w3.org/2000/svg">
<path d="M56.3479 53.2169C69.208 53.2169 74.8755 47.0316 75.9001 43.2798C74.3406 52.6732 66.1776 59.8294 56.3479 59.8294C46.5174 59.8294 38.3548 52.6736 36.795 43.2798C37.8192 47.0316 43.4867 53.2169 56.3479 53.2169Z" fill="url(#paint0_linear_20_6122)"/>
<path d="M56.3479 39.9997V27.6238C67.0597 27.6238 74.1538 31.2733 75.9092 36.7382C76.0876 37.7986 76.1768 38.8859 76.1768 39.9993C76.1768 47.3614 72.1664 53.7771 66.2135 57.1996C76.5776 48.1452 68.0581 39.9997 56.3479 39.9997Z" fill="url(#paint1_linear_20_6122)"/>
<path d="M56.3479 26.7831C43.4867 26.7831 37.8192 32.9684 36.795 36.7202C38.3548 27.3264 46.5174 20.1709 56.3479 20.1709C66.1779 20.1709 74.3406 27.3264 75.9001 36.7205C74.8755 32.9684 69.208 26.7831 56.3479 26.7831Z" fill="url(#paint2_linear_20_6122)"/>
<path d="M56.3479 39.9999V52.3761C45.6357 52.3761 38.5416 48.7266 36.7863 43.2617C36.6068 42.1837 36.5172 41.0927 36.5186 39.9999C36.5186 32.6384 40.529 26.2218 46.4822 22.8003C36.1179 31.8547 44.637 39.9999 56.3479 39.9999Z" fill="url(#paint3_linear_20_6122)"/>
<path d="M86.0652 35.3435C87.6187 34.491 88.8602 33.7263 89.7496 33.0123V28.1732H90.8154V33.8521C90.7403 38.4651 88.5222 39.1543 86.6411 39.5937L85.977 38.5651C86.6535 38.5034 87.3054 38.3149 87.9326 38.0261C89.0604 37.4242 89.6497 36.1709 89.7255 34.3159C88.8605 34.9679 87.8323 35.6574 86.6293 36.359L86.0652 35.3435ZM88.2582 32.5478C87.5308 31.3197 86.8785 30.3917 86.3027 29.7401L87.1676 29.1133C87.8189 29.828 88.4963 30.768 89.1607 31.9589L88.2582 32.5478ZM92.3444 28.1484H93.4099V37.7505C93.4099 38.0764 93.6235 38.3397 94.0115 38.3649H95.8289C95.9299 38.3649 96.0305 38.3273 96.1432 38.2391C96.2059 38.2015 96.28 37.6753 96.3306 36.6726L97.384 36.8604C97.2838 38.1767 97.1704 38.9038 97.045 39.0041C96.7934 39.2801 96.5312 39.43 96.2931 39.43H93.4095C92.9581 39.4055 92.3441 38.9669 92.3441 38.3525V28.1484H92.3444ZM93.7992 31.595C94.9147 30.4796 95.729 29.5271 96.2558 28.7249L97.0829 29.4014C96.5064 30.2918 95.6797 31.2821 94.6135 32.3228L93.7992 31.595ZM96.72 36.083C95.5911 35.0423 94.6387 34.2904 93.8361 33.8142L94.4884 32.9486C95.3785 33.4761 96.3565 34.2525 97.4092 35.2684L96.72 36.083ZM104.452 38.5651L104.1 37.7377H102.396C102.308 37.7377 102.27 37.6878 102.27 37.5996V35.6195C102.27 35.532 102.308 35.4944 102.396 35.4944H111.483C111.572 35.4944 111.622 35.5316 111.622 35.6195V37.5996C111.622 37.6878 111.572 37.7377 111.483 37.7377H109.88L109.54 38.5651H112.65V39.5303H101.218V38.5651H104.452ZM101.368 34.2525H112.5V35.1178H101.368V34.2525ZM108.989 32.2849H107.886V31.5079H108.989V30.9059H107.886V30.1412H108.989V29.4899H107.836V28.7125H108.989V28.0606H109.855V28.7125H110.933V29.4899H109.855V30.1412H110.882V30.9059H109.855V31.5079H110.933V32.2849H109.855V32.8745H111.22C111.333 32.8745 111.384 32.8369 111.384 32.7236V28.2111H112.349V33.3252C112.349 33.6009 112.211 33.7515 111.923 33.7515H101.958C101.681 33.7515 101.543 33.6009 101.543 33.3252V28.2111H102.509V32.7239C102.509 32.8369 102.559 32.8748 102.658 32.8748H103.987V32.2852H102.885V31.5082H103.987V30.8559H102.935V30.0912H103.987V29.4899H102.885V28.7125H103.987V28.0606H104.865V28.7125H105.843V29.4899H104.865V30.0912H105.843V30.8559H104.865V31.5079H105.893V32.2849H104.865V32.8745H106.394V28.0606H107.36V32.8745H108.989V32.2849ZM110.607 36.3211H103.286C103.248 36.3211 103.236 36.3342 103.248 36.359V36.8731L103.286 36.9228H110.607L110.644 36.8731V36.359L110.607 36.3211ZM105.467 38.5651H108.5L108.8 37.9011L108.864 37.7381H105.141L105.467 38.5651ZM117.836 39.0916V39.6182H116.772V28.7749C116.772 28.5495 116.897 28.4241 117.122 28.4241H127.213C127.451 28.4241 127.576 28.5499 127.576 28.7749V39.6185H126.511V39.092L117.836 39.0916ZM125.258 29.389L125.533 30.2415H126.11V31.2067H123.778C123.954 32.5478 124.13 33.563 124.293 34.2026C124.606 33.4634 124.869 32.6615 125.082 31.7835L126.022 32.0344C125.496 34.0399 124.882 35.1433 124.643 35.482L124.97 36.3842C125.082 36.6474 125.158 36.798 125.195 36.798C125.345 36.798 125.358 36.2336 125.358 35.9455C125.358 35.7198 125.345 35.482 125.333 35.2312L126.273 35.4823C126.248 36.473 126.123 37.1995 125.921 37.6509C125.822 37.8135 125.66 38.0389 125.307 38.0389C124.618 38.0389 124.242 37.0613 124.004 36.4472C123.565 37.0489 123.113 37.6002 122.675 38.0516L121.848 37.4248L122.55 36.7353C121.321 37.0365 119.968 37.2243 118.501 37.3004L118.288 36.2973C120.155 36.1595 121.597 35.9462 122.575 35.6705L122.75 36.5227L123.653 35.3569C123.326 34.2787 123.051 32.8876 122.812 31.2077H118.412V30.2425H122.712L122.649 29.39H117.987C117.862 29.39 117.824 29.453 117.836 29.5406V38.115H126.512V29.5396C126.512 29.4396 126.462 29.389 126.361 29.389H125.258ZM122.437 35.1808C122.437 35.2684 122.388 35.3187 122.3 35.3187H118.552C118.476 35.3187 118.439 35.2684 118.439 35.1808V32.1219C118.439 32.0344 118.477 31.9965 118.552 31.9965H122.3C122.388 31.9965 122.437 32.034 122.437 32.1219V35.1808ZM121.423 32.8617H119.441C119.404 32.8617 119.391 32.8745 119.404 32.8986V34.4031L119.441 34.4407H121.423L121.472 34.4031V32.8986L121.423 32.8617ZM124.505 30.2418L124.205 29.3893H123.603L123.678 30.2418H124.505ZM137.445 33.1119C136.995 33.5382 136.468 33.9396 135.879 34.328L135.14 33.6261C135.791 33.2625 136.33 32.8745 136.768 32.4858L135.44 31.2694L135.127 31.5582L134.624 31.044L134.349 32.0465C134.324 32.1474 134.298 32.2346 134.298 32.2973C134.298 32.3731 134.324 32.4355 134.349 32.4861C134.989 33.4507 135.326 34.3159 135.326 35.3059C135.326 35.8201 135.214 36.2208 134.989 36.5217C134.563 37.023 134.187 37.023 133.848 37.023C133.534 37.023 133.171 36.9858 132.783 36.8601V39.6306H131.767V28.4741L131.805 28.349L131.918 28.3238H134.613L135.314 28.7746L134.737 30.6926C135.415 30.0782 135.791 29.715 136.33 28.1229L137.245 28.0726L137.145 28.4489H139.013L139.727 28.7994L139.639 29.0881C139.941 29.8907 140.266 30.5551 140.591 31.0813C141.031 30.5551 141.419 30.0282 141.783 29.5147H140.266V28.5992H142.674L143.05 29.2387C142.597 30.0413 141.971 30.8931 141.156 31.8087C141.632 32.36 142.271 32.9114 143.061 33.4634L142.259 34.1274C141.808 33.8015 141.407 33.4252 141.031 33.0496V33.9017H137.445V33.1119H137.445ZM134.087 29.5526C134.099 29.5151 134.099 29.4644 134.099 29.4399C134.099 29.289 133.987 29.289 133.874 29.289H132.871L132.808 29.3138L132.783 29.3766V35.757C133.055 35.9461 133.379 36.0469 133.711 36.0458C134.263 36.0458 134.325 35.5316 134.325 35.2429C134.325 34.6037 133.974 33.6515 133.259 32.3976V32.3228L134.087 29.5526ZM134.4 38.4524C135.339 37.9383 136.142 37.2484 136.769 36.409L137.585 37.0234C136.744 38.0892 135.892 38.8287 135.065 39.2422L134.4 38.4524ZM138.812 35.858H135.98V34.8924H142.798V35.858H139.84V38.4779C139.84 38.8284 139.677 39.6681 138.599 39.6681C138.223 39.6681 137.734 39.5937 137.132 39.4297L137.158 38.3773C137.71 38.5399 138.136 38.6278 138.399 38.6278C138.725 38.6278 138.812 38.5279 138.812 38.214V35.858ZM136.581 31.0692L137.384 31.8462L137.784 31.2942L137.873 31.145C137.375 30.807 136.85 30.5093 136.305 30.2546L136.042 30.6178L136.581 31.0692ZM137.533 29.8907L138.297 30.3297L138.549 29.7525C138.562 29.6653 138.574 29.6019 138.574 29.5396C138.574 29.4272 138.537 29.3642 138.473 29.3642H136.806L136.756 29.4768L137.533 29.8907ZM140.906 32.9241C140.226 32.1837 139.653 31.3527 139.201 30.4548C138.674 31.6832 138.072 32.5478 137.633 32.9241H140.906ZM142.235 39.2925C141.595 38.3146 141.019 37.5627 140.517 37.0609L141.32 36.4217C141.884 36.9862 142.46 37.7377 143.062 38.6784L142.235 39.2925ZM155.75 38.3022C155.75 38.3645 155.727 38.4138 155.676 38.4393C155.975 38.5399 156.214 38.5778 156.39 38.5778C156.778 38.5778 156.879 38.2009 156.879 38.0506V34.5289H153.858C153.544 34.5289 153.381 34.3783 153.381 34.0399V32.1601H151.915L151.814 32.7742C151.527 33.727 150.624 34.5044 149.157 35.0936L148.53 34.1908C149.508 33.8648 150.8 33.4393 150.875 32.1605H148.479C148.43 32.1605 148.405 32.185 148.405 32.248V39.6561H147.339V31.3945C147.339 31.2318 147.427 31.1446 147.591 31.1446H150.248L149.733 29.9531H147.064V28.9379H152.14V28.0103H153.193V28.9379H158.246V29.9531H155.526L155.275 30.6298L155.061 31.1446H157.681C157.869 31.1446 157.945 31.2318 157.945 31.3945V38.4779C157.945 38.9038 157.745 39.6812 156.592 39.6812C156.265 39.6812 155.864 39.6185 155.412 39.5175L155.388 38.4524H149.683C149.584 38.4524 149.535 38.4018 149.535 38.3022V35.3311C149.535 35.2305 149.584 35.1805 149.683 35.1805H155.6C155.701 35.1805 155.751 35.2305 155.751 35.3311V38.3022H155.75ZM154.686 36.196C154.686 36.1588 154.673 36.146 154.635 36.146H150.636C150.599 36.146 150.586 36.1588 150.599 36.196V37.4242C150.586 37.4624 150.599 37.4748 150.636 37.4872H154.635L154.686 37.4242V36.196ZM151.364 31.1446H153.92L154.41 29.9531H150.887L151.364 31.1446ZM154.397 33.3132C154.397 33.4765 154.485 33.5637 154.673 33.5637H156.879V32.2477C156.879 32.1846 156.855 32.1601 156.791 32.1601H154.397V33.3132ZM173.135 39.0916C171.267 38.602 169.688 37.9135 168.409 37.0358V39.6306H167.382V37.1361C165.628 38.1891 163.995 38.8284 162.531 39.0417L162.142 38.0137C163.872 37.7629 165.514 37.1616 167.029 36.2463H162.493V35.2811H167.382V34.5792H163.131V33.7136H167.382V32.9617H162.78V32.0968H165.538C165.363 31.646 165.214 31.2694 165.05 30.9565H162.343V29.991H164.474C164.211 29.4396 163.96 29.013 163.721 28.6998L164.56 28.1857C164.862 28.5868 165.163 29.0881 165.439 29.7153L164.912 29.991H166.378V28.0606H167.356V29.991H168.484V28.0606H169.463V29.991H170.666L170.29 29.7153C170.766 29.0881 171.105 28.5743 171.317 28.1481L172.145 28.6626C171.944 29.0633 171.657 29.5151 171.305 29.991H173.374V30.9565H170.528L170.089 32.0968H172.985V32.9617H168.409V33.7136H172.633V34.5792H168.409V35.2811H173.273V36.2463H168.922C170.214 37.1237 171.806 37.7629 173.649 38.1271L173.135 39.0916ZM166.58 32.0968H169.012L169.5 30.9565H166.141L166.58 32.0968ZM181.814 30.3797C181.292 30.0054 180.794 29.5994 180.322 29.1639C179.885 29.7153 179.156 30.3169 178.204 30.9565L177.314 30.2918C178.605 29.6023 179.496 28.8758 179.909 28.1484L180.874 28.2115L180.785 28.399C181.351 28.8255 181.94 29.2142 182.541 29.5899L181.814 30.3797ZM179.394 38.0889V34.3411H177.677V33.3755H179.394V32.0844H178.016V31.1188H181.902V32.0844H180.41V33.3755H182.241V34.3411H180.41V37.888L182.14 37.4872L182.303 38.4779C180.097 38.9538 178.506 39.2546 177.552 39.3549L177.452 38.3521L179.394 38.0889ZM177.941 37.5875C177.916 36.8228 177.791 35.9827 177.591 35.093L178.542 34.9803C178.744 36.1336 178.881 37.0106 178.907 37.5627L177.941 37.5875ZM180.836 36.8228C181.062 36.083 181.199 35.4314 181.25 34.88L182.14 35.0933C182.015 35.8704 181.864 36.5341 181.701 37.0985L180.836 36.8228ZM185.963 34.0399C186 34.7546 186.113 35.3687 186.277 35.858C187.066 35.4314 187.68 35.0299 188.131 34.6791L188.67 35.4944C188.143 35.9203 187.467 36.3342 186.678 36.7601C187.192 37.5627 187.956 38.327 188.958 39.0165L188.081 39.6812C187.155 38.9541 186.639 38.4903 186.54 38.2897C185.587 37.2115 185.048 35.7825 184.947 34.0399H183.882V38.2773C184.583 38.0892 185.186 37.9138 185.688 37.7008L185.974 38.6788C184.96 39.0923 183.706 39.4179 182.202 39.6685L181.977 38.666L182.868 38.5155V28.6243C182.868 28.4238 182.966 28.3238 183.168 28.3238H187.931C188.143 28.3238 188.244 28.4238 188.244 28.6243V33.7263C188.244 33.9269 188.131 34.0396 187.918 34.0396L185.963 34.0399ZM183.882 30.7305H187.229V29.5275C187.229 29.3645 187.142 29.289 186.979 29.289H184.133C183.971 29.289 183.882 29.3766 183.882 29.5399V30.7305ZM187.23 31.6957H183.883V33.0747H187.066C187.178 33.0747 187.23 33.0247 187.23 32.9114V31.6957ZM194.24 34.7418L193.413 35.5192L192.548 34.8418C193.751 33.8266 194.679 32.6106 195.28 31.2188L196.246 31.6581C195.957 32.2395 195.644 32.8082 195.306 33.3628V39.6306H194.24V34.7418ZM192.635 31.2942C193.614 30.4169 194.34 29.3266 194.805 28.0609L195.806 28.4368C195.167 29.9913 194.39 31.1701 193.537 31.9217L192.635 31.2942ZM201.184 32.6236H196.709V31.5582H204.205V32.6236H202.251V38.2515C202.251 39.0041 201.737 39.6309 200.42 39.6309C199.767 39.6309 198.966 39.4934 197.989 39.2046L198.014 38.0889C198.628 38.2512 199.755 38.5648 200.269 38.5648C200.76 38.5648 201.184 38.4393 201.184 37.9758V32.6236H201.184ZM197.098 28.6243H203.717V29.6901H197.098V28.6243ZM91.4037 49.303H90.8124V45.7638C90.8124 45.4841 90.8288 45.1421 90.862 44.7376H90.848C90.7909 44.9751 90.7406 45.1458 90.6957 45.2487L88.9595 49.3027H88.6691L86.9369 45.2779C86.8879 45.1605 86.8369 44.9797 86.7849 44.7376H86.7705C86.7893 44.9482 86.7987 45.2927 86.7987 45.7712V49.303H86.2249V44.0276H87.0113L88.5701 47.7063C88.6905 47.9884 88.7687 48.1993 88.8042 48.3392H88.8253C88.9266 48.0491 89.0081 47.8338 89.0695 47.6916L90.6598 44.0276H91.404L91.4037 49.303ZM95.5774 47.5698H93.0168C93.0259 47.9894 93.1345 48.313 93.3425 48.5411C93.5504 48.7695 93.8361 48.8835 94.1997 48.8835C94.6082 48.8835 94.9834 48.7436 95.3265 48.4639V49.0304C95.0076 49.2708 94.586 49.3909 94.0612 49.3909C93.5487 49.3909 93.1466 49.2205 92.8532 48.8774C92.5604 48.5357 92.4138 48.0544 92.4138 47.434C92.4138 46.8474 92.5738 46.3702 92.8937 46.0006C93.2137 45.632 93.6114 45.4476 94.086 45.4476C94.5605 45.4476 94.9278 45.6069 95.1877 45.9258C95.4476 46.2448 95.5774 46.6875 95.5774 47.2539V47.5698ZM94.9821 47.0587C94.9801 46.7106 94.8986 46.439 94.7396 46.2454C94.5807 46.0516 94.3586 45.9547 94.0756 45.9547C93.8019 45.9547 93.5692 46.0566 93.3777 46.2602C93.1868 46.4638 93.0681 46.7304 93.0239 47.0587H94.9821ZM99.5519 49.0009C99.5519 50.3843 98.9143 51.0758 97.6389 51.0758C97.1909 51.0758 96.7985 50.9876 96.4631 50.8105V50.2075C96.8709 50.4433 97.2613 50.5607 97.6319 50.5607C98.525 50.5607 98.971 50.0677 98.971 49.082V48.6698H98.9569C98.6809 49.1504 98.2651 49.3906 97.7097 49.3906C97.2593 49.3906 96.8954 49.2232 96.6207 48.8888C96.3454 48.5538 96.2075 48.1044 96.2075 47.5403C96.2075 46.9008 96.3561 46.3917 96.6523 46.0137C96.9484 45.6364 97.3549 45.4476 97.8697 45.4476C98.358 45.4476 98.7208 45.6508 98.9569 46.0583H98.971V45.5358H99.5519V49.0009ZM98.971 47.5993V47.044C98.971 46.7445 98.8734 46.4883 98.6792 46.2746C98.5884 46.1718 98.4762 46.0899 98.3505 46.0346C98.2249 45.9794 98.0887 45.9521 97.9515 45.9547C97.5923 45.9547 97.3116 46.0905 97.1084 46.3608C96.9051 46.6328 96.8032 47.0121 96.8032 47.5001C96.8032 47.9193 96.9011 48.2553 97.0959 48.5062C97.2908 48.7574 97.5487 48.8831 97.8703 48.8831C98.196 48.8831 98.4609 48.7631 98.6655 48.5226C98.8694 48.2825 98.971 47.975 98.971 47.5993ZM103.325 49.303H102.745V48.7138H102.73C102.477 49.1652 102.105 49.3909 101.614 49.3909C101.253 49.3909 100.97 49.292 100.765 49.0931C100.562 48.8946 100.46 48.6306 100.46 48.3023C100.46 47.5983 100.858 47.1888 101.657 47.0731L102.745 46.9149C102.745 46.2746 102.495 45.9547 101.997 45.9547C101.56 45.9547 101.165 46.1093 100.814 46.4185V45.8004C101.17 45.5646 101.581 45.4473 102.046 45.4473C102.899 45.4473 103.325 45.9154 103.325 46.8525V49.303ZM102.745 47.3971L101.87 47.5222C101.6 47.5614 101.397 47.6309 101.26 47.7298C101.123 47.8294 101.055 48.0051 101.055 48.258C101.055 48.4418 101.118 48.592 101.244 48.7084C101.37 48.8251 101.538 48.8835 101.749 48.8835C102.037 48.8835 102.275 48.7785 102.463 48.5689C102.65 48.3596 102.745 48.0937 102.745 47.7724V47.3971ZM107.576 44.0273V44.5572H107.081V48.7728H107.576V49.303H105.99V48.7728H106.486V44.5572H105.99V44.0273H107.576ZM111.35 49.303H110.768V47.1543C110.768 46.3548 110.488 45.955 109.926 45.955C109.635 45.955 109.395 46.069 109.205 46.2954C109.014 46.5228 108.919 46.8089 108.919 47.1543V49.303H108.338V45.5358H108.919V46.1613H108.933C109.207 45.685 109.604 45.4476 110.123 45.4476C110.521 45.4476 110.824 45.5807 111.034 45.8464C111.245 46.1126 111.35 46.497 111.35 47V49.303ZM114.127 49.2658C113.99 49.3446 113.809 49.3832 113.585 49.3832C112.949 49.3832 112.632 49.0153 112.632 48.2798V46.0506H112.008V45.5355H112.632V44.6155L113.213 44.4203V45.5355H114.127V46.0506H113.213V48.1735C113.213 48.426 113.254 48.6065 113.336 48.7134C113.42 48.8218 113.556 48.8758 113.748 48.8758C113.894 48.8758 114.02 48.8338 114.127 48.751V49.2658ZM117.762 47.5698H115.2C115.21 47.9894 115.319 48.313 115.527 48.5411C115.734 48.7695 116.02 48.8835 116.383 48.8835C116.793 48.8835 117.168 48.7436 117.509 48.4639V49.0304C117.192 49.2708 116.77 49.3909 116.245 49.3909C115.733 49.3909 115.33 49.2205 115.037 48.8774C114.744 48.5357 114.598 48.0544 114.598 47.434C114.598 46.8474 114.758 46.3702 115.078 46.0006C115.397 45.632 115.795 45.4476 116.27 45.4476C116.744 45.4476 117.112 45.6069 117.372 45.9258C117.631 46.2448 117.762 46.6875 117.762 47.2539V47.5698H117.762ZM117.166 47.0587C117.165 46.7106 117.083 46.439 116.923 46.2454C116.764 46.0516 116.543 45.9547 116.26 45.9547C115.985 45.9547 115.753 46.0566 115.561 46.2602C115.37 46.4638 115.252 46.7304 115.208 47.0587H117.166ZM120.532 46.1462C120.43 46.0657 120.284 46.0254 120.092 46.0254C119.844 46.0254 119.637 46.1462 119.47 46.3893C119.304 46.6325 119.221 46.9635 119.221 47.3824V49.3034H118.64V45.5358H119.221V46.3118H119.235C119.318 46.0466 119.444 45.8407 119.614 45.6917C119.784 45.5438 119.974 45.4694 120.184 45.4694C120.336 45.4694 120.451 45.4862 120.532 45.5207L120.532 46.1462ZM124.16 49.303H123.579V47.1543C123.579 46.3548 123.297 45.955 122.736 45.955C122.445 45.955 122.205 46.069 122.015 46.2954C121.825 46.5228 121.73 46.8089 121.73 47.1543V49.303H121.149V45.5358H121.73V46.1613H121.744C122.018 45.685 122.414 45.4476 122.934 45.4476C123.331 45.4476 123.635 45.5807 123.845 45.8464C124.055 46.1126 124.16 46.497 124.16 47V49.303ZM127.851 49.303H127.27V48.7138H127.255C127.003 49.1652 126.632 49.3909 126.14 49.3909C125.778 49.3909 125.496 49.292 125.291 49.0931C125.087 48.8946 124.985 48.6306 124.985 48.3023C124.985 47.5983 125.384 47.1888 126.182 47.0731L127.27 46.9149C127.27 46.2746 127.021 45.9547 126.523 45.9547C126.086 45.9547 125.691 46.1093 125.34 46.4185V45.8004C125.696 45.5646 126.107 45.4473 126.572 45.4473C127.424 45.4473 127.851 45.9154 127.851 46.8525V49.303ZM127.27 47.3971L126.394 47.5222C126.126 47.5614 125.923 47.6309 125.786 47.7298C125.649 47.8294 125.58 48.0051 125.58 48.258C125.58 48.4418 125.644 48.592 125.769 48.7084C125.896 48.8251 126.065 48.8835 126.275 48.8835C126.562 48.8835 126.801 48.7785 126.989 48.5689C127.176 48.3596 127.27 48.0937 127.27 47.7724V47.3971H127.27ZM130.628 49.2658C130.491 49.3446 130.311 49.3832 130.087 49.3832C129.452 49.3832 129.134 49.0153 129.134 48.2798V46.0506H128.51V45.5355H129.134V44.6155L129.715 44.4203V45.5355H130.629V46.0506H129.715V48.1735C129.715 48.426 129.756 48.6065 129.839 48.7134C129.921 48.8218 130.058 48.8758 130.25 48.8758C130.396 48.8758 130.522 48.8338 130.629 48.751V49.2658H130.628ZM131.702 44.5793C131.598 44.5793 131.509 44.5424 131.436 44.4686C131.4 44.432 131.372 44.3883 131.353 44.3403C131.334 44.2922 131.325 44.2409 131.326 44.1893C131.326 44.0763 131.363 43.9827 131.436 43.9082C131.509 43.8331 131.598 43.7952 131.702 43.7952C131.808 43.7952 131.898 43.8331 131.973 43.9082C132.047 43.9827 132.085 44.0763 132.085 44.1893C132.085 44.2969 132.047 44.3892 131.973 44.465C131.938 44.5017 131.896 44.5309 131.849 44.5506C131.803 44.5703 131.753 44.5801 131.702 44.5793ZM131.986 49.303H131.404V45.5358H131.986V49.303ZM134.678 49.3906C134.141 49.3906 133.714 49.2152 133.394 48.8627C133.074 48.5112 132.913 48.0444 132.913 47.4632C132.913 46.8307 133.08 46.3367 133.413 45.9808C133.747 45.6253 134.196 45.4476 134.762 45.4476C135.303 45.4476 135.726 45.6206 136.029 45.9661C136.333 46.3115 136.484 46.7911 136.484 47.4045C136.484 48.0051 136.32 48.4867 135.994 48.8483C135.667 49.2105 135.228 49.3906 134.678 49.3906ZM134.72 45.9547C134.348 45.9547 134.052 46.0871 133.835 46.3504C133.618 46.614 133.509 46.9776 133.509 47.441C133.509 47.8878 133.618 48.2396 133.838 48.4968C134.057 48.7547 134.351 48.8831 134.719 48.8831C135.096 48.8831 135.384 48.7567 135.586 48.5042C135.789 48.2516 135.888 47.8928 135.888 47.4263C135.888 46.9554 135.788 46.5926 135.586 46.3373C135.384 46.0825 135.096 45.9547 134.72 45.9547ZM140.424 49.303H139.843V47.1543C139.843 46.3548 139.561 45.955 139 45.955C138.709 45.955 138.469 46.069 138.279 46.2954C138.089 46.5228 137.994 46.8089 137.994 47.1543V49.303H137.413V45.5358H137.994V46.1613H138.008C138.282 45.685 138.679 45.4476 139.198 45.4476C139.595 45.4476 139.898 45.5807 140.108 45.8464C140.319 46.1126 140.424 46.497 140.424 47V49.303ZM144.116 49.303H143.534V48.7138H143.52C143.267 49.1652 142.895 49.3909 142.405 49.3909C142.044 49.3909 141.76 49.292 141.555 49.0931C141.352 48.8946 141.249 48.6306 141.249 48.3023C141.249 47.5983 141.648 47.1888 142.447 47.0731L143.534 46.9149C143.534 46.2746 143.286 45.9547 142.788 45.9547C142.35 45.9547 141.956 46.1093 141.604 46.4185V45.8004C141.96 45.5646 142.372 45.4473 142.836 45.4473C143.689 45.4473 144.116 45.9154 144.116 46.8525V49.303ZM143.534 47.3971L142.66 47.5222C142.391 47.5614 142.187 47.6309 142.05 47.7298C141.913 47.8294 141.846 48.0051 141.846 48.258C141.846 48.4418 141.908 48.592 142.034 48.7084C142.161 48.8251 142.33 48.8835 142.54 48.8835C142.827 48.8835 143.065 48.7785 143.253 48.5689C143.441 48.3596 143.535 48.0937 143.535 47.7724V47.3971H143.534ZM145.792 49.303H145.21V43.7258H145.792V49.303ZM152.49 49.082C152.115 49.2879 151.647 49.3906 151.088 49.3906C150.365 49.3906 149.786 49.1491 149.352 48.6662C148.917 48.1829 148.7 47.5487 148.7 46.7643C148.7 45.9205 148.944 45.2383 149.433 44.7185C149.922 44.199 150.542 43.9381 151.292 43.9381C151.775 43.9381 152.174 44.0112 152.49 44.1557V44.8137C152.126 44.6031 151.725 44.4975 151.286 44.4975C150.702 44.4975 150.229 44.7001 149.867 45.1045C149.505 45.5093 149.323 46.0503 149.323 46.7267C149.323 47.3696 149.492 47.8814 149.832 48.263C150.171 48.6447 150.614 48.8352 151.166 48.8352C151.676 48.8352 152.116 48.7171 152.49 48.4817V49.082ZM154.963 49.3906C154.427 49.3906 153.999 49.2152 153.679 48.8627C153.359 48.5112 153.199 48.0444 153.199 47.4632C153.199 46.8307 153.366 46.3367 153.698 45.9808C154.031 45.6253 154.482 45.4476 155.049 45.4476C155.588 45.4476 156.012 45.6206 156.315 45.9661C156.618 46.3118 156.77 46.7911 156.77 47.4045C156.77 48.0051 156.606 48.4867 156.279 48.8483C155.953 49.2105 155.513 49.3906 154.963 49.3906ZM155.005 45.9547C154.632 45.9547 154.337 46.0871 154.12 46.3504C153.903 46.614 153.794 46.9776 153.794 47.441C153.794 47.8878 153.903 48.2396 154.123 48.4968C154.343 48.7547 154.637 48.8831 155.005 48.8831C155.381 48.8831 155.669 48.7567 155.872 48.5042C156.073 48.2516 156.174 47.8928 156.174 47.4263C156.174 46.9554 156.072 46.5926 155.872 46.3373C155.67 46.0825 155.381 45.9547 155.005 45.9547ZM162.849 49.303H162.268V47.1399C162.268 46.723 162.205 46.4212 162.082 46.2347C161.958 46.0482 161.75 45.955 161.458 45.955C161.21 45.955 160.998 46.0734 160.824 46.3088C160.651 46.5443 160.565 46.826 160.565 47.1543V49.303H159.983V47.0661C159.983 46.3253 159.708 45.955 159.159 45.955C158.903 45.955 158.693 46.0667 158.528 46.288C158.362 46.5104 158.28 46.7991 158.28 47.1543V49.303H157.698V45.5358H158.28V46.1314H158.294C158.552 45.6753 158.927 45.4476 159.42 45.4476C159.668 45.4476 159.884 45.5197 160.069 45.6626C160.254 45.8064 160.379 45.9946 160.447 46.2273C160.717 45.7078 161.119 45.4479 161.653 45.4479C162.45 45.4479 162.85 45.959 162.85 46.9816V49.303H162.849ZM169.098 49.303H168.518V47.1399C168.518 46.723 168.455 46.4212 168.332 46.2347C168.207 46.0482 167.999 45.955 167.706 45.955C167.457 45.955 167.247 46.0734 167.074 46.3088C166.9 46.5443 166.814 46.826 166.814 47.1543V49.303H166.232V47.0661C166.232 46.3253 165.957 45.955 165.406 45.955C165.152 45.955 164.941 46.0667 164.776 46.288C164.611 46.5104 164.528 46.7991 164.528 47.1543V49.303H163.947V45.5358H164.528V46.1314H164.543C164.8 45.6753 165.175 45.4476 165.669 45.4476C165.917 45.4476 166.133 45.5197 166.318 45.6626C166.502 45.8064 166.628 45.9946 166.696 46.2273C166.966 45.7078 167.367 45.4479 167.9 45.4479C168.699 45.4479 169.098 45.959 169.098 46.9816V49.303H169.098ZM173.111 47.5698H170.551C170.559 47.9894 170.669 48.313 170.876 48.5411C171.085 48.7695 171.37 48.8835 171.734 48.8835C172.143 48.8835 172.518 48.7436 172.861 48.4639V49.0304C172.542 49.2708 172.12 49.3909 171.595 49.3909C171.083 49.3909 170.681 49.2205 170.387 48.8774C170.095 48.5357 169.949 48.0544 169.949 47.434C169.949 46.8474 170.108 46.3702 170.429 46.0006C170.748 45.632 171.145 45.4476 171.621 45.4476C172.096 45.4476 172.462 45.6069 172.722 45.9258C172.982 46.2448 173.111 46.6875 173.111 47.2539V47.5698ZM172.517 47.0587C172.515 46.7106 172.434 46.439 172.274 46.2454C172.115 46.0516 171.894 45.9547 171.61 45.9547C171.337 45.9547 171.104 46.0566 170.911 46.2602C170.721 46.4638 170.603 46.7304 170.558 47.0587H172.517ZM175.882 46.1462C175.781 46.0657 175.635 46.0254 175.443 46.0254C175.195 46.0254 174.988 46.1462 174.821 46.3893C174.654 46.6325 174.572 46.9635 174.572 47.3824V49.3034H173.99V45.5358H174.572V46.3118H174.585C174.668 46.0466 174.795 45.8407 174.965 45.6917C175.134 45.5438 175.326 45.4694 175.534 45.4694C175.687 45.4694 175.802 45.4862 175.882 45.5207V46.1462ZM178.891 49.13C178.612 49.304 178.281 49.3909 177.898 49.3909C177.381 49.3909 176.963 49.2162 176.646 48.8667C176.328 48.5176 176.17 48.0642 176.17 47.5075C176.17 46.8877 176.342 46.3886 176.683 46.0127C177.026 45.6357 177.482 45.4476 178.054 45.4476C178.372 45.4476 178.654 45.509 178.898 45.631V46.2495C178.628 46.0533 178.34 45.9547 178.033 45.9547C177.663 45.9547 177.358 46.0932 177.12 46.3692C176.883 46.6449 176.764 47.0071 176.764 47.4551C176.764 47.8972 176.875 48.2456 177.1 48.5005C177.323 48.7554 177.621 48.8831 177.997 48.8831C178.313 48.8831 178.612 48.7742 178.891 48.5558V49.13ZM180.066 44.5793C180.016 44.5801 179.967 44.5707 179.921 44.5516C179.876 44.5326 179.834 44.5043 179.8 44.4686C179.727 44.3952 179.691 44.3016 179.691 44.1893C179.691 44.0763 179.727 43.9827 179.8 43.9082C179.874 43.8331 179.961 43.7952 180.066 43.7952C180.172 43.7952 180.263 43.8331 180.338 43.9082C180.411 43.9827 180.449 44.0763 180.449 44.1893C180.449 44.2969 180.411 44.3892 180.338 44.465C180.303 44.5017 180.261 44.5309 180.214 44.5506C180.167 44.5702 180.117 44.58 180.066 44.5793ZM180.349 49.303H179.769V45.5358H180.349V49.303ZM184.123 49.303H183.542V48.7138H183.527C183.275 49.1652 182.902 49.3909 182.412 49.3909C182.05 49.3909 181.768 49.292 181.563 49.0931C181.359 48.8946 181.257 48.6306 181.257 48.3023C181.257 47.5983 181.655 47.1888 182.454 47.0731L183.542 46.9149C183.542 46.2746 183.293 45.9547 182.794 45.9547C182.358 45.9547 181.963 46.1093 181.612 46.4185V45.8004C181.969 45.5646 182.378 45.4473 182.845 45.4473C183.696 45.4473 184.123 45.9154 184.123 46.8525V49.303H184.123ZM183.542 47.3971L182.666 47.5222C182.397 47.5614 182.194 47.6309 182.057 47.7298C181.921 47.8294 181.853 48.0051 181.853 48.258C181.853 48.4418 181.916 48.592 182.041 48.7084C182.169 48.8251 182.336 48.8835 182.546 48.8835C182.835 48.8835 183.072 48.7785 183.261 48.5689C183.449 48.3596 183.543 48.0937 183.543 47.7724V47.3971H183.542ZM185.798 49.303H185.218V43.7258H185.798V49.303ZM189.041 49.303V44.0276H190.486C190.925 44.0276 191.273 44.1393 191.53 44.3627C191.788 44.5854 191.916 44.8761 191.916 45.2343C191.916 45.5335 191.839 45.7937 191.682 46.0137C191.527 46.2347 191.312 46.3917 191.037 46.4852V46.4997C191.38 46.5412 191.654 46.6757 191.86 46.9024C192.065 47.1292 192.168 47.4243 192.168 47.7875C192.168 48.2386 192.011 48.6045 191.7 48.8838C191.388 49.1632 190.995 49.3034 190.521 49.3034L189.041 49.303ZM189.635 44.5864V46.29H190.244C190.571 46.29 190.827 46.2082 191.014 46.0449C191.199 45.8826 191.293 45.6522 191.293 45.3557C191.293 44.8426 190.967 44.5864 190.319 44.5864H189.635ZM189.635 46.8454V48.7433H190.442C190.793 48.7433 191.064 48.6578 191.255 48.4861C191.448 48.3144 191.545 48.0789 191.545 47.7798C191.545 47.1567 191.136 46.8454 190.319 46.8454H189.635ZM195.717 49.303H195.138V48.7138H195.123C194.87 49.1652 194.498 49.3909 194.006 49.3909C193.646 49.3909 193.362 49.292 193.158 49.0931C192.954 48.8946 192.852 48.6306 192.852 48.3023C192.852 47.5983 193.25 47.1888 194.05 47.0731L195.138 46.9149C195.138 46.2746 194.887 45.9547 194.389 45.9547C193.952 45.9547 193.558 46.1093 193.206 46.4185V45.8004C193.562 45.5646 193.974 45.4473 194.44 45.4473C195.292 45.4473 195.718 45.9154 195.718 46.8525V49.303H195.717ZM195.138 47.3971L194.262 47.5222C193.992 47.5614 193.788 47.6309 193.653 47.7298C193.516 47.8294 193.447 48.0051 193.447 48.258C193.447 48.4418 193.51 48.592 193.637 48.7084C193.764 48.8251 193.931 48.8835 194.141 48.8835C194.429 48.8835 194.667 48.7785 194.855 48.5689C195.043 48.3596 195.138 48.0937 195.138 47.7724V47.3971H195.138ZM199.824 49.303H199.243V47.1543C199.243 46.3548 198.962 45.955 198.399 45.955C198.109 45.955 197.869 46.069 197.679 46.2954C197.489 46.5228 197.393 46.8089 197.393 47.1543V49.303H196.812V45.5358H197.393V46.1613H197.408C197.68 45.685 198.078 45.4476 198.599 45.4476C198.994 45.4476 199.298 45.5807 199.509 45.8464C199.719 46.1126 199.824 46.497 199.824 47V49.303ZM203.93 49.303H203.116L201.515 47.493H201.5V49.303H200.919V43.7258H201.5V47.2613H201.515L203.039 45.5358H203.8L202.116 47.3528L203.93 49.303Z" fill="black"/>
<defs>
<linearGradient id="paint0_linear_20_6122" x1="75.3997" y1="51.5541" x2="37.0586" y2="51.5541" gradientUnits="userSpaceOnUse">
<stop stop-color="white"/>
<stop offset="0.485" stop-color="#AE893D"/>
<stop offset="1" stop-color="#74623B"/>
</linearGradient>
<linearGradient id="paint1_linear_20_6122" x1="54.1898" y1="28.9589" x2="72.1245" y2="47.3715" gradientUnits="userSpaceOnUse">
<stop stop-color="white"/>
<stop offset="0.485" stop-color="#AE893D"/>
<stop offset="1" stop-color="#74623B"/>
</linearGradient>
<linearGradient id="paint2_linear_20_6122" x1="37.2954" y1="28.4455" x2="75.6365" y2="28.4455" gradientUnits="userSpaceOnUse">
<stop stop-color="white"/>
<stop offset="0.485" stop-color="#AE893D"/>
<stop offset="1" stop-color="#74623B"/>
</linearGradient>
<linearGradient id="paint3_linear_20_6122" x1="58.5057" y1="51.041" x2="40.5706" y2="32.6277" gradientUnits="userSpaceOnUse">
<stop stop-color="white"/>
<stop offset="0.485" stop-color="#AE893D"/>
<stop offset="1" stop-color="#74623B"/>
</linearGradient>
</defs>
</svg>
