<svg width="167" height="40" viewBox="0 0 167 40" fill="none" xmlns="http://www.w3.org/2000/svg">
<g clip-path="url(#clip0_20_5862)">
<path d="M19.5003 33.2075C32.326 33.2075 37.9782 26.8539 39 23C37.4447 32.6491 29.3037 40 19.5003 40C9.69632 40 1.55563 32.6494 0 23C1.02147 26.8539 6.6737 33.2075 19.5003 33.2075Z" fill="url(#paint0_linear_20_5862)"/>
<path d="M19 20.5534V8C29.8042 8 36.9596 11.7019 38.7301 17.2451C38.91 18.3208 39 19.4237 39 20.5531C39 28.0208 34.955 34.5284 28.9508 38C39.4042 28.8158 30.8112 20.5534 19 20.5534Z" fill="url(#paint1_linear_20_5862)"/>
<path d="M19.5003 6.79215C6.6737 6.79215 1.02147 13.1457 0 16.9997C1.55563 7.35023 9.69632 0 19.5003 0C29.304 0 37.4447 7.35023 39 17C37.9782 13.1457 32.326 6.79215 19.5003 6.79215Z" fill="url(#paint2_linear_20_5862)"/>
<path d="M20 20.4463V33C9.19563 33 2.0404 29.2981 0.269948 23.7549C0.0888886 22.6614 -0.00140003 21.5547 1.64087e-05 20.4463C1.64087e-05 12.9792 4.04493 6.47054 10.0494 3C-0.404205 12.1842 8.18829 20.4463 20 20.4463Z" fill="url(#paint3_linear_20_5862)"/>
<path d="M49.088 15.3124C50.6385 14.4623 51.8776 13.6998 52.7653 12.9879V8.16253H53.8291V13.8252C53.7541 18.4252 51.5402 19.1124 49.6628 19.5505L49 18.5248C49.6751 18.4633 50.3258 18.2754 50.9518 17.9874C52.0775 17.3871 52.6656 16.1374 52.7412 14.2877C51.878 14.9379 50.8517 15.6254 49.651 16.325L49.088 15.3124ZM51.2768 12.5247C50.5508 11.3 49.8997 10.3747 49.325 9.72493L50.1883 9.0999C50.8383 9.81255 51.5145 10.7499 52.1776 11.9374L51.2768 12.5247ZM55.3551 8.13778H56.4185V17.7125C56.4185 18.0376 56.6318 18.3001 57.019 18.3252H58.8329C58.9337 18.3252 59.0341 18.2877 59.1466 18.1998C59.2091 18.1623 59.2831 17.6376 59.3337 16.6377L60.385 16.825C60.285 18.1376 60.1718 18.8626 60.0466 18.9626C59.7956 19.2378 59.5338 19.3873 59.2962 19.3873H56.4182C55.9677 19.3629 55.3548 18.9255 55.3548 18.3128V8.13778H55.3551ZM56.8071 11.5746C57.9204 10.4623 58.7332 9.51258 59.259 8.71265L60.0845 9.38717C59.5091 10.2751 58.684 11.2626 57.6199 12.3003L56.8071 11.5746ZM59.7223 16.0498C58.5956 15.0121 57.645 14.2623 56.844 13.7875L57.495 12.9243C58.3834 13.4504 59.3594 14.2245 60.4101 15.2375L59.7223 16.0498ZM67.4394 18.5248L67.0879 17.6998H65.3872C65.2992 17.6998 65.2617 17.65 65.2617 17.562V15.5876C65.2617 15.5003 65.2992 15.4629 65.3872 15.4629H74.4573C74.546 15.4629 74.5958 15.5 74.5958 15.5876V17.562C74.5958 17.65 74.546 17.6998 74.4573 17.6998H72.8566L72.5179 18.5248H75.6211V19.4873H64.2113V18.5248H67.4394ZM64.3609 14.2245H75.4718V15.0873H64.3609V14.2245ZM71.9679 12.2625H70.867V11.4877H71.9679V10.8874H70.867V10.1249H71.9679V9.47546H70.8171V8.70027H71.9679V8.05016H72.8318V8.70027H73.908V9.47546H72.8318V10.1249H73.8571V10.8874H72.8318V11.4877H73.908V12.2625H72.8318V12.8504H74.1948C74.3073 12.8504 74.3578 12.813 74.3578 12.6999V8.20032H75.3209V13.2999C75.3209 13.5748 75.1836 13.7249 74.8958 13.7249H64.9497C64.6736 13.7249 64.536 13.5748 64.536 13.2999V8.20032H65.4997V12.7003C65.4997 12.813 65.5502 12.8507 65.6493 12.8507H66.9755V12.2628H65.8752V11.488H66.9755V10.8375H65.9254V10.0751H66.9755V9.47546H65.8752V8.70027H66.9755V8.05016H67.8518V8.70027H68.8278V9.47546H67.8518V10.0751H68.8278V10.8375H67.8518V11.4877H68.878V12.2625H67.8518V12.8504H69.3781V8.05016H70.3415V12.8504H71.9679V12.2625ZM73.5826 16.2872H66.2759C66.2381 16.2872 66.2253 16.3003 66.2381 16.325V16.8377L66.2759 16.8872H73.5826L73.6198 16.8377V16.325L73.5826 16.2872ZM68.4519 18.5248H71.4795L71.7794 17.8627L71.8427 17.7002H68.1266L68.4519 18.5248ZM80.798 19.0499V19.5749H79.7356V8.76248C79.7356 8.53775 79.8607 8.41267 80.0853 8.41267H90.1569C90.3946 8.41267 90.5191 8.53808 90.5191 8.76248V19.5752H89.4563V19.0502L80.798 19.0499ZM88.2055 9.3748L88.4803 10.2249H89.0553V11.1873H86.7283C86.9041 12.5247 87.0791 13.537 87.2418 14.1747C87.5544 13.4377 87.8172 12.6381 88.0301 11.7625L88.968 12.0127C88.4428 14.0125 87.8296 15.1128 87.5916 15.4505L87.9176 16.3501C88.0301 16.6126 88.105 16.7628 88.1429 16.7628C88.2925 16.7628 88.3052 16.2 88.3052 15.9127C88.3052 15.6876 88.2925 15.4505 88.2804 15.2004L89.2187 15.4509C89.1936 16.4387 89.0684 17.1631 88.8672 17.6132C88.7678 17.7754 88.6061 18.0001 88.2547 18.0001C87.5665 18.0001 87.1912 17.0253 86.9536 16.413C86.5151 17.0129 86.0646 17.5627 85.6274 18.0128L84.802 17.3878L85.5029 16.7002C84.2758 17.0006 82.9252 17.1878 81.4614 17.2637L81.2489 16.2635C83.1126 16.126 84.5516 15.9134 85.5273 15.6385L85.7024 16.4882L86.6035 15.3258C86.2774 14.2506 86.0023 12.8635 85.7643 11.1884H81.3727V10.2259H85.6639L85.601 9.3758H80.9486C80.8238 9.3758 80.7856 9.43867 80.798 9.52595V18.076H89.4567V9.52495C89.4567 9.42529 89.4068 9.3748 89.3064 9.3748H88.2055ZM85.3901 15.1502C85.3901 15.2375 85.3409 15.2877 85.2525 15.2877H81.5119C81.4366 15.2877 81.3991 15.2375 81.3991 15.1502V12.1C81.3991 12.0127 81.437 11.9749 81.5119 11.9749H85.2525C85.3405 11.9749 85.3901 12.0124 85.3901 12.1V15.1502ZM84.3772 12.8377H82.3996C82.3622 12.8377 82.3498 12.8504 82.3622 12.8745V14.3747L82.3996 14.4121H84.3772L84.4271 14.3747V12.8745L84.3772 12.8377ZM87.454 10.2252L87.1541 9.37513H86.5536L86.6279 10.2252H87.454ZM100.369 13.0872C99.9195 13.5122 99.3934 13.9125 98.8059 14.2998L98.0678 13.5998C98.7179 13.2373 99.2558 12.8504 99.6936 12.4628L98.3674 11.2499L98.0551 11.5378L97.5534 11.0252L97.2786 12.0247C97.2538 12.1254 97.2283 12.2123 97.2283 12.2749C97.2283 12.3505 97.2538 12.4127 97.2786 12.4632C97.9175 13.4249 98.2543 14.2877 98.2543 15.275C98.2543 15.7876 98.1421 16.1872 97.9179 16.4872C97.4921 16.9872 97.1169 16.9872 96.7785 16.9872C96.4658 16.9872 96.1033 16.9501 95.7154 16.8246V19.5873H94.7018V8.4625L94.7393 8.33776L94.8521 8.31268H97.5427L98.2422 8.76214L97.6665 10.6747C98.343 10.062 98.7179 9.69985 99.2558 8.11236L100.17 8.0622L100.069 8.43742H101.934L102.646 8.78689L102.559 9.07482C102.86 9.87509 103.185 10.5376 103.509 11.0623C103.948 10.5376 104.335 10.0122 104.698 9.5002H103.185V8.58724H105.587L105.963 9.22498C105.511 10.0252 104.887 10.8747 104.073 11.7876C104.548 12.3374 105.185 12.8872 105.974 13.4377L105.173 14.0998C104.723 13.7747 104.324 13.3995 103.948 13.025V13.8747H100.369V13.0872H100.369ZM97.0171 9.53799C97.0288 9.50054 97.0288 9.45004 97.0288 9.42563C97.0288 9.27514 96.9174 9.27514 96.8046 9.27514H95.8037L95.7405 9.29989L95.7157 9.36242V15.7247C95.9875 15.9133 96.3107 16.0138 96.6416 16.0127C97.1925 16.0127 97.2548 15.5 97.2548 15.2121C97.2548 14.5747 96.9047 13.6253 96.1914 12.3749V12.3003L97.0171 9.53799ZM97.3294 18.4125C98.267 17.8998 99.0687 17.2119 99.6939 16.3749L100.508 16.9875C99.6695 18.0503 98.819 18.7877 97.9935 19.2L97.3294 18.4125ZM101.733 15.8254H98.9067V14.8626H105.712V15.8254H102.76V18.4379C102.76 18.7874 102.597 19.6247 101.521 19.6247C101.146 19.6247 100.657 19.5505 100.057 19.387L100.082 18.3376C100.633 18.4998 101.058 18.5874 101.321 18.5874C101.646 18.5874 101.733 18.4877 101.733 18.1747V15.8254ZM99.5065 11.0502L100.307 11.8251L100.707 11.2746L100.796 11.1258C100.299 10.7888 99.7754 10.4919 99.231 10.2379L98.9686 10.6001L99.5065 11.0502ZM100.457 9.87509L101.22 10.3128L101.471 9.73731C101.484 9.65036 101.496 9.58715 101.496 9.52495C101.496 9.41292 101.459 9.35005 101.395 9.35005H99.7311L99.6809 9.46241L100.457 9.87509ZM103.823 12.8999C103.145 12.1616 102.572 11.3329 102.122 10.4376C101.596 11.6626 100.995 12.5247 100.557 12.8999H103.823ZM105.15 19.2502C104.511 18.275 103.936 17.5253 103.435 17.025L104.237 16.3876C104.8 16.9504 105.375 17.6998 105.975 18.6379L105.15 19.2502ZM118.639 18.2626C118.639 18.3249 118.616 18.374 118.565 18.3994C118.863 18.4998 119.102 18.5375 119.277 18.5375C119.665 18.5375 119.765 18.1617 119.765 18.0118V14.5001H116.75C116.437 14.5001 116.275 14.3499 116.275 14.0125V12.1381H114.811L114.71 12.7504C114.424 13.7005 113.522 14.4757 112.058 15.0633L111.433 14.163C112.409 13.838 113.698 13.4136 113.773 12.1384H111.382C111.332 12.1384 111.308 12.1628 111.308 12.2257V19.6127H110.244V11.3746C110.244 11.2124 110.331 11.1255 110.495 11.1255H113.147L112.633 9.93729H109.97V8.925H115.036V8H116.087V8.925H121.129V9.93729H118.415L118.164 10.6121L117.951 11.1255H120.565C120.753 11.1255 120.83 11.2124 120.83 11.3746V18.4379C120.83 18.8626 120.629 19.6378 119.479 19.6378C119.153 19.6378 118.753 19.5752 118.302 19.4746L118.277 18.4125H112.584C112.484 18.4125 112.435 18.362 112.435 18.2626V15.3C112.435 15.1997 112.484 15.1499 112.584 15.1499H118.489C118.589 15.1499 118.639 15.1997 118.639 15.3V18.2626H118.639ZM117.576 16.1625C117.576 16.1254 117.563 16.1127 117.526 16.1127H113.535C113.497 16.1127 113.485 16.1254 113.497 16.1625V17.3871C113.485 17.4253 113.497 17.4376 113.535 17.45H117.526L117.576 17.3871V16.1625ZM114.261 11.1255H116.812L117.302 9.93729H113.785L114.261 11.1255ZM117.288 13.2878C117.288 13.4507 117.376 13.5376 117.563 13.5376H119.765V12.2254C119.765 12.1625 119.741 12.1381 119.678 12.1381H117.288V13.2878ZM135.99 19.0499C134.126 18.5616 132.55 17.8751 131.273 16.9999V19.5873H130.248V17.0999C128.497 18.15 126.868 18.7874 125.407 19L125.018 17.975C126.745 17.7249 128.384 17.1253 129.896 16.2127H125.368V15.2502H130.248V14.5503H126.005V13.6871H130.248V12.9374H125.655V12.0749H128.408C128.233 11.6254 128.084 11.2499 127.921 10.9379H125.218V9.97508H127.346C127.083 9.42529 126.833 8.99991 126.594 8.68757L127.432 8.1749C127.733 8.57487 128.034 9.07482 128.309 9.70019L127.783 9.97508H129.246V8.05016H130.223V9.97508H131.348V8.05016H132.325V9.97508H133.526L133.15 9.70019C133.626 9.07482 133.964 8.56249 134.176 8.13745L135.002 8.65044C134.802 9.05008 134.514 9.50054 134.164 9.97508H136.228V10.9379H133.388L132.95 12.0749H135.84V12.9374H131.273V13.6871H135.489V14.5503H131.273V15.2502H136.128V16.2127H131.785C133.075 17.0875 134.664 17.7249 136.503 18.0881L135.99 19.0499ZM129.448 12.0749H131.875L132.363 10.9379H129.009L129.448 12.0749ZM144.652 10.3627C144.132 9.98948 143.634 9.58462 143.163 9.1504C142.727 9.70019 142 10.3001 141.049 10.9379L140.161 10.2751C141.45 9.58749 142.339 8.86314 142.751 8.13778L143.714 8.20065L143.626 8.38759C144.19 8.81297 144.778 9.20056 145.378 9.57511L144.652 10.3627ZM142.237 18.05V14.3128H140.523V13.35H142.237V12.0625H140.861V11.0997H144.74V12.0625H143.252V13.35H145.078V14.3128H143.252V17.8496L144.978 17.45L145.14 18.4379C142.939 18.9124 141.35 19.2124 140.399 19.3124L140.299 18.3125L142.237 18.05ZM140.787 17.55C140.762 16.7875 140.637 15.9498 140.437 15.0626L141.387 14.9502C141.588 16.1003 141.725 16.9748 141.751 17.5253L140.787 17.55ZM143.676 16.7875C143.902 16.0498 144.039 15.4 144.09 14.8502L144.977 15.0629C144.853 15.8378 144.702 16.4996 144.54 17.0624L143.676 16.7875ZM148.793 14.0125C148.83 14.7252 148.943 15.3375 149.107 15.8254C149.894 15.4 150.507 14.9997 150.958 14.6499L151.495 15.4629C150.969 15.8876 150.294 16.3003 149.507 16.725C150.02 17.5253 150.783 18.2874 151.783 18.975L150.908 19.6378C149.983 18.9128 149.468 18.4503 149.369 18.2503C148.418 17.1751 147.88 15.7502 147.779 14.0125H146.716V18.2379C147.417 18.0503 148.018 17.8754 148.518 17.663L148.805 18.6382C147.792 19.0505 146.541 19.3753 145.039 19.6251L144.815 18.6255L145.704 18.4753V8.61232C145.704 8.41234 145.802 8.31268 146.003 8.31268H150.758C150.969 8.31268 151.07 8.41234 151.07 8.61232V13.6998C151.07 13.8998 150.958 14.0122 150.745 14.0122L148.793 14.0125ZM146.717 10.7125H150.057V9.51291C150.057 9.35038 149.97 9.27514 149.807 9.27514H146.967C146.805 9.27514 146.717 9.36242 146.717 9.52529V10.7125ZM150.058 11.6749H146.717V13.0501H149.895C150.006 13.0501 150.058 13.0002 150.058 12.8872V11.6749ZM157.055 14.7125L156.23 15.4876L155.366 14.8121C156.566 13.7998 157.493 12.5872 158.092 11.1994L159.057 11.6375C158.768 12.2172 158.455 12.7843 158.118 13.3373V19.5873H157.055V14.7125ZM155.452 11.2746C156.429 10.3998 157.154 9.31259 157.618 8.0505L158.617 8.42538C157.98 9.97541 157.204 11.1509 156.353 11.9003L155.452 11.2746ZM163.985 12.6003H159.518V11.5378H167V12.6003H165.05V18.2122C165.05 18.9626 164.537 19.5876 163.223 19.5876C162.571 19.5876 161.771 19.4505 160.797 19.1626L160.821 18.05C161.434 18.2118 162.559 18.5245 163.072 18.5245C163.562 18.5245 163.985 18.3994 163.985 17.9373V12.6003H163.985ZM159.907 8.61232H166.513V9.6751H159.907V8.61232ZM54.4162 29.2323H53.8261V25.7031C53.8261 25.4242 53.8425 25.0831 53.8756 24.6798H53.8616C53.8047 24.9166 53.7544 25.0868 53.7096 25.1895L51.9767 29.2319H51.6868L49.958 25.2186C49.9091 25.1015 49.8582 24.9213 49.8064 24.6798H49.792C49.8107 24.8898 49.8201 25.2333 49.8201 25.7105V29.2323H49.2474V23.9719H50.0323L51.5881 27.6401C51.7083 27.9213 51.7863 28.1317 51.8217 28.2711H51.8428C51.9439 27.9819 52.0253 27.7672 52.0865 27.6254L53.6738 23.9719H54.4165L54.4162 29.2323ZM58.5819 27.504H56.0262C56.0353 27.9223 56.1437 28.2451 56.3513 28.4725C56.5588 28.7002 56.844 28.8139 57.2068 28.8139C57.6145 28.8139 57.9891 28.6744 58.3315 28.3955V28.9604C58.0132 29.2002 57.5924 29.3199 57.0686 29.3199C56.5571 29.3199 56.1558 29.15 55.8629 28.8079C55.5707 28.4671 55.4244 27.9872 55.4244 27.3685C55.4244 26.7836 55.5841 26.3078 55.9034 25.9392C56.2227 25.5717 56.6197 25.3878 57.0933 25.3878C57.567 25.3878 57.9335 25.5466 58.1929 25.8647C58.4523 26.1827 58.5819 26.6241 58.5819 27.189V27.504ZM57.9877 26.9943C57.9857 26.6472 57.9044 26.3763 57.7457 26.1834C57.5871 25.9901 57.3655 25.8934 57.083 25.8934C56.8098 25.8934 56.5775 25.9951 56.3864 26.1981C56.1959 26.4011 56.0774 26.6669 56.0333 26.9943H57.9877ZM62.5487 28.9309C62.5487 30.3104 61.9124 31 60.6394 31C60.1922 31 59.8006 30.912 59.4659 30.7355V30.1342C59.8729 30.3693 60.2625 30.4863 60.6324 30.4863C61.5238 30.4863 61.969 29.9947 61.969 29.0119V28.6009H61.9549C61.6794 29.0801 61.2644 29.3195 60.7101 29.3195C60.2605 29.3195 59.8973 29.1527 59.6232 28.8193C59.3484 28.4852 59.2108 28.037 59.2108 27.4746C59.2108 26.8368 59.3591 26.3292 59.6547 25.9523C59.9502 25.5761 60.3559 25.3878 60.8697 25.3878C61.3571 25.3878 61.7193 25.5904 61.9549 25.9968H61.969V25.4757H62.5487V28.9309ZM61.969 27.5334V26.9796C61.969 26.681 61.8716 26.4255 61.6778 26.2125C61.587 26.1099 61.4751 26.0282 61.3497 25.9731C61.2243 25.9181 61.0884 25.8909 60.9514 25.8934C60.5929 25.8934 60.3127 26.0289 60.1099 26.2984C59.9071 26.5696 59.8053 26.9478 59.8053 27.4344C59.8053 27.8524 59.903 28.1875 60.0975 28.4377C60.292 28.6882 60.5494 28.8136 60.8704 28.8136C61.1954 28.8136 61.4598 28.6938 61.664 28.4541C61.8675 28.2146 61.969 27.908 61.969 27.5334ZM66.315 29.2323H65.7353V28.6447H65.7206C65.4685 29.0948 65.097 29.3199 64.6073 29.3199C64.2461 29.3199 63.9639 29.2212 63.7597 29.0229C63.5566 28.8249 63.4548 28.5618 63.4548 28.2344C63.4548 27.5324 63.8528 27.1241 64.6494 27.0087L65.7353 26.8509C65.7353 26.2125 65.4863 25.8934 64.9889 25.8934C64.5531 25.8934 64.1591 26.0476 63.808 26.3559V25.7396C64.1638 25.5045 64.5738 25.3874 65.0384 25.3874C65.8893 25.3874 66.315 25.8543 66.315 26.7887V29.2323ZM65.7353 27.3318L64.862 27.4565C64.5929 27.4956 64.39 27.5648 64.2538 27.6635C64.1169 27.7628 64.0486 27.9381 64.0486 28.1902C64.0486 28.3735 64.1115 28.5233 64.2377 28.6393C64.3636 28.7557 64.5313 28.8139 64.7415 28.8139C65.0294 28.8139 65.267 28.7092 65.4538 28.5002C65.6412 28.2915 65.7353 28.0263 65.7353 27.706V27.3318ZM70.5577 23.9715V24.4999H70.063V28.7035H70.5577V29.2323H68.9741V28.7035H69.4692V24.4999H68.9741V23.9715H70.5577ZM74.3237 29.2323H73.7436V27.0896C73.7436 26.2924 73.4635 25.8938 72.9025 25.8938C72.6123 25.8938 72.3729 26.0075 72.1828 26.2332C71.993 26.4599 71.8979 26.7452 71.8979 27.0896V29.2323H71.3179V25.4757H71.8979V26.0994H71.9117C72.1851 25.6245 72.5815 25.3878 73.0999 25.3878C73.4966 25.3878 73.7992 25.5205 74.0091 25.7854C74.2189 26.0509 74.3237 26.4342 74.3237 26.9358V29.2323ZM77.0956 29.1951C76.9587 29.2737 76.7783 29.3122 76.555 29.3122C75.9204 29.3122 75.6037 28.9453 75.6037 28.212V25.9891H74.9808V25.4754H75.6037V24.5581L76.1831 24.3635V25.4754H77.0956V25.9891H76.1831V28.1059C76.1831 28.3578 76.2246 28.5377 76.3066 28.6444C76.3896 28.7524 76.5259 28.8062 76.717 28.8062C76.8636 28.8062 76.9891 28.7644 77.0956 28.6818V29.1951ZM80.7237 27.504H78.1667C78.1764 27.9223 78.2852 28.2451 78.4927 28.4725C78.6999 28.7002 78.9848 28.8139 79.3476 28.8139C79.7566 28.8139 80.1305 28.6744 80.4716 28.3955V28.9604C80.1546 29.2002 79.7335 29.3199 79.21 29.3199C78.6982 29.3199 78.2966 29.15 78.004 28.8079C77.7111 28.4671 77.5655 27.9872 77.5655 27.3685C77.5655 26.7836 77.7252 26.3078 78.0445 25.9392C78.3635 25.5717 78.7608 25.3878 79.2345 25.3878C79.7081 25.3878 80.075 25.5466 80.334 25.8647C80.5935 26.1827 80.7233 26.6241 80.7233 27.189V27.504H80.7237ZM80.1292 26.9943C80.1275 26.6472 80.0462 26.3763 79.8865 26.1834C79.7279 25.9901 79.5069 25.8934 79.2244 25.8934C78.9503 25.8934 78.7187 25.9951 78.5272 26.1981C78.3364 26.4011 78.2189 26.6669 78.1744 26.9943H80.1292ZM83.4885 26.0844C83.3867 26.0041 83.2411 25.964 83.0493 25.964C82.8016 25.964 82.5955 26.0844 82.4288 26.3268C82.2631 26.5693 82.1797 26.8994 82.1797 27.317V29.2326H81.6V25.4757H82.1797V26.2496H82.1941C82.2771 25.9851 82.403 25.7797 82.572 25.6312C82.7421 25.4838 82.9312 25.4095 83.1414 25.4095C83.2927 25.4095 83.4078 25.4262 83.4882 25.4607L83.4885 26.0844ZM87.1096 29.2323H86.5295V27.0896C86.5295 26.2924 86.2483 25.8938 85.688 25.8938C85.3978 25.8938 85.1578 26.0075 84.9683 26.2332C84.7785 26.4599 84.6838 26.7452 84.6838 27.0896V29.2323H84.1044V25.4757H84.6838V26.0994H84.6982C84.972 25.6245 85.367 25.3878 85.8861 25.3878C86.2821 25.3878 86.5854 25.5205 86.7946 25.7854C87.0048 26.0509 87.1096 26.4342 87.1096 26.9358V29.2323ZM90.7932 29.2323H90.2135V28.6447H90.1988C89.947 29.0948 89.5762 29.3199 89.0855 29.3199C88.724 29.3199 88.4425 29.2212 88.2386 29.0229C88.0348 28.8249 87.933 28.5618 87.933 28.2344C87.933 27.5324 88.3313 27.1241 89.128 27.0087L90.2135 26.8509C90.2135 26.2125 89.9651 25.8934 89.4681 25.8934C89.0319 25.8934 88.6373 26.0476 88.2868 26.3559V25.7396C88.6423 25.5045 89.0527 25.3874 89.5173 25.3874C90.3671 25.3874 90.7932 25.8543 90.7932 26.7887V29.2323ZM90.2135 27.3318L89.3395 27.4565C89.0714 27.4956 88.8689 27.5648 88.732 27.6635C88.5954 27.7628 88.5265 27.9381 88.5265 28.1902C88.5265 28.3735 88.5904 28.5233 88.7156 28.6393C88.8421 28.7557 89.0105 28.8139 89.22 28.8139C89.5072 28.8139 89.7449 28.7092 89.9327 28.5002C90.1194 28.2915 90.2132 28.0263 90.2132 27.706V27.3318H90.2135ZM93.5654 29.1951C93.4285 29.2737 93.2488 29.3122 93.0245 29.3122C92.3909 29.3122 92.0739 28.9453 92.0739 28.212V25.9891H91.451V25.4754H92.0739V24.5581L92.6533 24.3635V25.4754H93.5658V25.9891H92.6533V28.1059C92.6533 28.3578 92.6948 28.5377 92.7772 28.6444C92.8595 28.7524 92.9961 28.8062 93.1872 28.8062C93.3331 28.8062 93.4597 28.7644 93.5658 28.6818V29.1951H93.5654ZM94.6369 24.522C94.5331 24.522 94.4448 24.4852 94.3718 24.4116C94.3355 24.3751 94.3071 24.3315 94.2882 24.2836C94.2693 24.2357 94.2604 24.1845 94.262 24.133C94.262 24.0203 94.2988 23.927 94.3718 23.8528C94.4448 23.7779 94.5331 23.7401 94.6369 23.7401C94.7427 23.7401 94.8327 23.7779 94.9074 23.8528C94.9813 23.927 95.0188 24.0203 95.0188 24.133C95.0188 24.2404 94.9817 24.3324 94.9074 24.4079C94.8726 24.4446 94.8307 24.4737 94.7841 24.4933C94.7376 24.513 94.6874 24.5227 94.6369 24.522ZM94.9201 29.2323H94.3397V25.4757H94.9201V29.2323ZM97.6073 29.3195C97.0717 29.3195 96.6446 29.1446 96.3256 28.7932C96.0059 28.4427 95.8456 27.9772 95.8456 27.3976C95.8456 26.7669 96.0123 26.2743 96.345 25.9195C96.6777 25.565 97.1259 25.3878 97.6909 25.3878C98.2312 25.3878 98.6529 25.5603 98.9559 25.9048C99.2588 26.2492 99.4098 26.7275 99.4098 27.3391C99.4098 27.9381 99.2464 28.4183 98.9207 28.7788C98.5944 29.14 98.1559 29.3195 97.6073 29.3195ZM97.6488 25.8934C97.2779 25.8934 96.9823 26.0255 96.7661 26.288C96.5488 26.5509 96.4401 26.9134 96.4401 27.3756C96.4401 27.821 96.5495 28.1718 96.7688 28.4283C96.9877 28.6855 97.2812 28.8136 97.6484 28.8136C98.0243 28.8136 98.3115 28.6875 98.5137 28.4357C98.7155 28.1839 98.8149 27.826 98.8149 27.3609C98.8149 26.8913 98.7152 26.5295 98.5137 26.275C98.3119 26.0208 98.0247 25.8934 97.6488 25.8934ZM103.342 29.2323H102.762V27.0896C102.762 26.2924 102.481 25.8938 101.921 25.8938C101.631 25.8938 101.391 26.0075 101.201 26.2332C101.011 26.4599 100.917 26.7452 100.917 27.0896V29.2323H100.337V25.4757H100.917V26.0994H100.931C101.205 25.6245 101.601 25.3878 102.119 25.3878C102.515 25.3878 102.818 25.5205 103.027 25.7854C103.237 26.0509 103.342 26.4342 103.342 26.9358V29.2323ZM107.027 29.2323H106.446V28.6447H106.432C106.179 29.0948 105.809 29.3199 105.319 29.3199C104.959 29.3199 104.675 29.2212 104.471 29.0229C104.268 28.8249 104.166 28.5618 104.166 28.2344C104.166 27.5324 104.564 27.1241 105.361 27.0087L106.446 26.8509C106.446 26.2125 106.198 25.8934 105.701 25.8934C105.264 25.8934 104.871 26.0476 104.52 26.3559V25.7396C104.875 25.5045 105.286 25.3874 105.75 25.3874C106.6 25.3874 107.027 25.8543 107.027 26.7887V29.2323ZM106.446 27.3318L105.574 27.4565C105.305 27.4956 105.102 27.5648 104.965 27.6635C104.829 27.7628 104.761 27.9381 104.761 28.1902C104.761 28.3735 104.824 28.5233 104.949 28.6393C105.076 28.7557 105.244 28.8139 105.454 28.8139C105.74 28.8139 105.978 28.7092 106.166 28.5002C106.353 28.2915 106.447 28.0263 106.447 27.706V27.3318H106.446ZM108.699 29.2323H108.119V23.6709H108.699V29.2323ZM115.385 29.0119C115.011 29.2172 114.544 29.3195 113.985 29.3195C113.264 29.3195 112.686 29.0788 112.253 28.5972C111.819 28.1153 111.602 27.4829 111.602 26.7007C111.602 25.8593 111.846 25.1791 112.334 24.6608C112.822 24.1427 113.44 23.8826 114.19 23.8826C114.671 23.8826 115.069 23.9555 115.385 24.0996V24.7557C115.021 24.5457 114.621 24.4404 114.183 24.4404C113.6 24.4404 113.129 24.6424 112.767 25.0457C112.405 25.4493 112.224 25.9887 112.224 26.6633C112.224 27.3043 112.393 27.8147 112.732 28.1952C113.07 28.5758 113.513 28.7657 114.063 28.7657C114.572 28.7657 115.012 28.648 115.385 28.4133V29.0119ZM117.853 29.3195C117.319 29.3195 116.89 29.1446 116.571 28.7932C116.252 28.4427 116.093 27.9772 116.093 27.3976C116.093 26.7669 116.259 26.2743 116.591 25.9195C116.923 25.565 117.373 25.3878 117.939 25.3878C118.477 25.3878 118.9 25.5603 119.202 25.9048C119.505 26.2496 119.657 26.7275 119.657 27.3391C119.657 27.9381 119.493 28.4183 119.167 28.7788C118.841 29.14 118.402 29.3195 117.853 29.3195ZM117.895 25.8934C117.523 25.8934 117.228 26.0255 117.011 26.288C116.795 26.5509 116.687 26.9134 116.687 27.3756C116.687 27.821 116.795 28.1718 117.014 28.4283C117.234 28.6855 117.527 28.8136 117.895 28.8136C118.27 28.8136 118.558 28.6875 118.76 28.4357C118.961 28.1839 119.062 27.826 119.062 27.3609C119.062 26.8913 118.96 26.5295 118.76 26.275C118.558 26.0208 118.271 25.8934 117.895 25.8934ZM125.724 29.2323H125.145V27.0753C125.145 26.6596 125.082 26.3586 124.959 26.1727C124.835 25.9867 124.627 25.8938 124.335 25.8938C124.088 25.8938 123.877 26.0118 123.703 26.2466C123.53 26.4813 123.444 26.7622 123.444 27.0896V29.2323H122.864V27.0017C122.864 26.263 122.589 25.8938 122.041 25.8938C121.786 25.8938 121.576 26.0051 121.411 26.2258C121.246 26.4476 121.163 26.7355 121.163 27.0896V29.2323H120.583V25.4757H121.163V26.0697H121.178C121.435 25.6149 121.809 25.3878 122.302 25.3878C122.549 25.3878 122.765 25.4597 122.949 25.6021C123.133 25.7456 123.259 25.9332 123.327 26.1653C123.596 25.6473 123.997 25.3881 124.53 25.3881C125.326 25.3881 125.725 25.8978 125.725 26.9174V29.2323H125.724ZM131.961 29.2323H131.382V27.0753C131.382 26.6596 131.32 26.3586 131.196 26.1727C131.072 25.9867 130.864 25.8938 130.571 25.8938C130.323 25.8938 130.114 26.0118 129.941 26.2466C129.767 26.4813 129.681 26.7622 129.681 27.0896V29.2323H129.101V27.0017C129.101 26.263 128.825 25.8938 128.276 25.8938C128.022 25.8938 127.812 26.0051 127.647 26.2258C127.483 26.4476 127.4 26.7355 127.4 27.0896V29.2323H126.82V25.4757H127.4V26.0697H127.414C127.671 25.6149 128.046 25.3878 128.538 25.3878C128.786 25.3878 129.001 25.4597 129.186 25.6021C129.37 25.7456 129.496 25.9332 129.564 26.1653C129.833 25.6473 130.233 25.3881 130.766 25.3881C131.563 25.3881 131.961 25.8978 131.961 26.9174V29.2323H131.961ZM135.966 27.504H133.411C133.419 27.9223 133.528 28.2451 133.736 28.4725C133.944 28.7002 134.229 28.8139 134.591 28.8139C135 28.8139 135.374 28.6744 135.717 28.3955V28.9604C135.398 29.2002 134.977 29.3199 134.453 29.3199C133.942 29.3199 133.54 29.15 133.248 28.8079C132.956 28.4671 132.81 27.9872 132.81 27.3685C132.81 26.7836 132.969 26.3078 133.289 25.9392C133.608 25.5717 134.004 25.3878 134.479 25.3878C134.953 25.3878 135.318 25.5466 135.578 25.8647C135.838 26.1827 135.966 26.6241 135.966 27.189V27.504ZM135.373 26.9943C135.371 26.6472 135.291 26.3763 135.131 26.1834C134.972 25.9901 134.751 25.8934 134.468 25.8934C134.195 25.8934 133.963 25.9951 133.77 26.1981C133.581 26.4011 133.463 26.6669 133.418 26.9943H135.373ZM138.731 26.0844C138.631 26.0041 138.486 25.964 138.294 25.964C138.046 25.964 137.84 26.0844 137.673 26.3268C137.507 26.5693 137.424 26.8994 137.424 27.317V29.2326H136.844V25.4757H137.424V26.2496H137.437C137.52 25.9851 137.647 25.7797 137.816 25.6312C137.986 25.4838 138.177 25.4095 138.385 25.4095C138.537 25.4095 138.652 25.4262 138.731 25.4607V26.0844ZM141.735 29.0597C141.456 29.2333 141.126 29.3199 140.744 29.3199C140.228 29.3199 139.811 29.1456 139.494 28.7972C139.177 28.4491 139.019 27.9969 139.019 27.4418C139.019 26.8238 139.191 26.3262 139.531 25.9513C139.874 25.5754 140.329 25.3878 140.9 25.3878C141.217 25.3878 141.499 25.449 141.742 25.5707V26.1874C141.472 25.9917 141.185 25.8934 140.879 25.8934C140.509 25.8934 140.205 26.0315 139.968 26.3068C139.731 26.5817 139.612 26.9428 139.612 27.3896C139.612 27.8304 139.723 28.1778 139.947 28.432C140.17 28.6862 140.468 28.8136 140.843 28.8136C141.158 28.8136 141.456 28.7049 141.735 28.4872V29.0597ZM142.908 24.522C142.858 24.5227 142.809 24.5133 142.763 24.4944C142.718 24.4754 142.676 24.4472 142.642 24.4116C142.569 24.3384 142.533 24.2451 142.533 24.133C142.533 24.0203 142.569 23.927 142.642 23.8528C142.716 23.7779 142.803 23.7401 142.908 23.7401C143.014 23.7401 143.104 23.7779 143.179 23.8528C143.253 23.927 143.29 24.0203 143.29 24.133C143.29 24.2404 143.253 24.3324 143.179 24.4079C143.144 24.4446 143.102 24.4737 143.055 24.4933C143.009 24.5129 142.958 24.5227 142.908 24.522ZM143.19 29.2323H142.612V25.4757H143.19V29.2323ZM146.957 29.2323H146.377V28.6447H146.362C146.11 29.0948 145.738 29.3199 145.249 29.3199C144.888 29.3199 144.606 29.2212 144.402 29.0229C144.198 28.8249 144.096 28.5618 144.096 28.2344C144.096 27.5324 144.494 27.1241 145.291 27.0087L146.377 26.8509C146.377 26.2125 146.128 25.8934 145.631 25.8934C145.195 25.8934 144.801 26.0476 144.451 26.3559V25.7396C144.807 25.5045 145.216 25.3874 145.681 25.3874C146.531 25.3874 146.957 25.8543 146.957 26.7887V29.2323H146.957ZM146.377 27.3318L145.503 27.4565C145.234 27.4956 145.031 27.5648 144.895 27.6635C144.759 27.7628 144.691 27.9381 144.691 28.1902C144.691 28.3735 144.754 28.5233 144.879 28.6393C145.006 28.7557 145.174 28.8139 145.383 28.8139C145.672 28.8139 145.908 28.7092 146.097 28.5002C146.284 28.2915 146.378 28.0263 146.378 27.706V27.3318H146.377ZM148.629 29.2323H148.049V23.6709H148.629V29.2323ZM151.865 29.2323V23.9719H153.307C153.746 23.9719 154.093 24.0832 154.35 24.3059C154.607 24.528 154.735 24.8179 154.735 25.1751C154.735 25.4734 154.658 25.7329 154.502 25.9523C154.347 26.1727 154.132 26.3292 153.858 26.4225V26.4369C154.2 26.4783 154.473 26.6124 154.679 26.8385C154.883 27.0646 154.986 27.3588 154.986 27.721C154.986 28.1708 154.83 28.5357 154.519 28.8142C154.208 29.0928 153.816 29.2326 153.342 29.2326L151.865 29.2323ZM152.458 24.529V26.2278H153.066C153.392 26.2278 153.648 26.1462 153.835 25.9834C154.019 25.8215 154.113 25.5918 154.113 25.2962C154.113 24.7845 153.788 24.529 153.141 24.529H152.458ZM152.458 26.7816V28.6741H153.264C153.614 28.6741 153.884 28.5888 154.075 28.4176C154.268 28.2464 154.364 28.0116 154.364 27.7133C154.364 27.092 153.957 26.7816 153.141 26.7816H152.458ZM158.529 29.2323H157.95V28.6447H157.936C157.683 29.0948 157.312 29.3199 156.821 29.3199C156.461 29.3199 156.178 29.2212 155.974 29.0229C155.771 28.8249 155.669 28.5618 155.669 28.2344C155.669 27.5324 156.067 27.1241 156.865 27.0087L157.95 26.8509C157.95 26.2125 157.701 25.8934 157.203 25.8934C156.767 25.8934 156.374 26.0476 156.022 26.3559V25.7396C156.378 25.5045 156.789 25.3874 157.254 25.3874C158.105 25.3874 158.53 25.8543 158.53 26.7887V29.2323H158.529ZM157.95 27.3318L157.076 27.4565C156.807 27.4956 156.604 27.5648 156.469 27.6635C156.332 27.7628 156.263 27.9381 156.263 28.1902C156.263 28.3735 156.326 28.5233 156.452 28.6393C156.579 28.7557 156.746 28.8139 156.955 28.8139C157.243 28.8139 157.481 28.7092 157.668 28.5002C157.856 28.2915 157.951 28.0263 157.951 27.706V27.3318H157.95ZM162.628 29.2323H162.048V27.0896C162.048 26.2924 161.767 25.8938 161.206 25.8938C160.916 25.8938 160.676 26.0075 160.487 26.2332C160.297 26.4599 160.202 26.7452 160.202 27.0896V29.2323H159.622V25.4757H160.202V26.0994H160.216C160.488 25.6245 160.885 25.3878 161.405 25.3878C161.8 25.3878 162.103 25.5205 162.314 25.7854C162.523 26.0509 162.628 26.4342 162.628 26.9358V29.2323ZM166.726 29.2323H165.913L164.316 27.4274H164.3V29.2323H163.721V23.6709H164.3V27.1963H164.316L165.836 25.4757H166.596L164.916 27.2876L166.726 29.2323Z" fill="black"/>
</g>
<defs>
<linearGradient id="paint0_linear_20_5862" x1="38.501" y1="31.4995" x2="0.262893" y2="31.4995" gradientUnits="userSpaceOnUse">
<stop stop-color="white"/>
<stop offset="0.485" stop-color="#AE893D"/>
<stop offset="1" stop-color="#74623B"/>
</linearGradient>
<linearGradient id="paint1_linear_20_5862" x1="16.8233" y1="9.35427" x2="35.0176" y2="27.9282" gradientUnits="userSpaceOnUse">
<stop stop-color="white"/>
<stop offset="0.485" stop-color="#AE893D"/>
<stop offset="1" stop-color="#74623B"/>
</linearGradient>
<linearGradient id="paint2_linear_20_5862" x1="0.499031" y1="8.49983" x2="38.7371" y2="8.49983" gradientUnits="userSpaceOnUse">
<stop stop-color="white"/>
<stop offset="0.485" stop-color="#AE893D"/>
<stop offset="1" stop-color="#74623B"/>
</linearGradient>
<linearGradient id="paint3_linear_20_5862" x1="22.1764" y1="31.6457" x2="3.98168" y2="13.0714" gradientUnits="userSpaceOnUse">
<stop stop-color="white"/>
<stop offset="0.485" stop-color="#AE893D"/>
<stop offset="1" stop-color="#74623B"/>
</linearGradient>
<clipPath id="clip0_20_5862">
<rect width="167" height="40" fill="white"/>
</clipPath>
</defs>
</svg>
