<svg width="135" height="40" viewBox="0 0 135 40" fill="none" xmlns="http://www.w3.org/2000/svg">
<g clip-path="url(#clip0_5_7940)">
<mask id="mask0_5_7940" style="mask-type:luminance" maskUnits="userSpaceOnUse" x="0" y="0" width="135" height="40">
<path d="M0 0H135V40H0V0Z" fill="white"/>
</mask>
<g mask="url(#mask0_5_7940)">
<path d="M20.6788 0C19.5843 2.82675 18.416 5.6636 17.2122 8.51985L15.5835 12.3063L13.9357 8.51985C12.6934 5.6636 11.5025 2.82675 10.3856 0H1.27018V0.740904C2.28088 0.740904 3.11137 1.59628 3.11137 2.65054C2.96322 4.60251 2.8024 6.55804 2.60602 8.51985L2.001 14.4804C1.71115 17.3334 1.38278 20.1765 1 23H3.91277C4.09298 20.1765 4.31818 17.3334 4.60156 14.4804L5.49967 5.49368C6.79348 8.2259 8.03261 10.9745 9.23322 13.7297L9.56483 14.4804C10.8104 17.3334 11.9949 20.1765 13.1182 23H14.0001C15.1008 20.1765 16.2661 17.3334 17.4761 14.4804L18.0009 13.2562C19.1756 10.5011 20.3986 7.75272 21.6604 5.02378L22.6099 14.4804C22.8933 17.3334 23.1282 20.1765 23.2987 23H30C29.6137 20.1765 29.2821 17.3334 28.999 14.4804L28.4004 8.51985C28.1203 5.6636 27.8789 2.82675 27.7149 0H20.6788Z" fill="#183181"/>
<path d="M50.8824 20.7006C51.6009 19.2815 52.3767 17.8462 53.1996 16.4105L61.2055 2.58475V2H43.589V6.25377H44.2852C44.2852 5.22889 45.0451 4.39122 45.9946 4.32881C46.5454 4.30929 47.0933 4.2994 47.6346 4.2994H53.3198C52.6141 5.68882 51.8606 7.09144 51.0469 8.49406L43 22.4186V23H62V20.5299C60.6642 20.6415 59.3093 20.7006 57.9608 20.7006H50.8824Z" fill="#183181"/>
<path d="M84.8107 22.715C84.8694 22.7118 84.9281 22.7053 84.9835 22.702C84.8759 21.3024 84.8107 19.8998 84.8107 18.4871V13.3555H92.9147V18.4871C92.9147 19.8998 92.8658 21.3154 92.7583 22.715H99C98.8859 21.3154 98.8338 19.8998 98.8338 18.4871V6.23444C98.8338 4.81202 98.8859 3.40615 99 2H91.0429V2.65454H91.2222C92.1092 2.65454 92.8235 3.35083 92.8855 4.23232C92.9048 4.89635 92.9147 5.56363 92.9147 6.23444V11.0844H84.8107V6.23444C84.8107 4.81202 84.8628 3.40615 84.9769 2H77.0231V2.65454H77.1958C78.0796 2.65454 78.7972 3.34459 78.8591 4.22256C78.882 4.89309 78.8949 5.56038 78.8949 6.23444V20.5768C78.0763 20.6804 77.2349 20.7292 76.3839 20.7292C75.4674 20.7292 74.5642 20.6579 73.6837 20.5152C71.1856 20.0421 70.7876 17.7127 70.7876 16.2613V6.11459C70.7876 4.73746 70.8496 3.3671 70.9541 2H63V2.65454H63.1695C64.0565 2.65454 64.7675 3.3446 64.8295 4.2193C64.8524 4.89309 64.8655 5.56038 64.8655 6.23444V15.2798C64.8655 17.3144 65.5143 21.811 71.0715 22.6274C72.8062 22.8642 74.5803 23 76.3839 23C79.2145 23 82.0257 22.8997 84.8107 22.715Z" fill="#183181"/>
<path d="M125 12.5016C125 19.4643 118.952 23 112.994 23C107.035 23 101 19.4643 101 12.5016C101 5.53567 107.035 2 112.994 2C118.952 2 125 5.53567 125 12.5016ZM119.148 12.5016C119.141 8.70694 117.548 4.241 112.994 4.241C108.445 4.241 106.846 8.70694 106.846 12.5016C106.846 16.2931 108.445 20.759 112.994 20.759C117.548 20.759 119.141 16.2931 119.148 12.5016Z" fill="#183181"/>
<path d="M39.8307 6.29269C39.8307 4.85098 39.8818 3.42549 40 2H32V2.74573H32.166C33.2014 2.74573 34.0097 3.60608 34.0097 4.67671C34.0255 5.20886 34.0319 5.74762 34.0319 6.29269V18.7139C34.0319 20.146 33.9776 21.5814 33.8851 23H40C39.8818 21.5814 39.8307 20.146 39.8307 18.7139V6.29269Z" fill="#183181"/>
<path d="M12.2597 34.6521C28.4821 30.9538 45.3413 29 62.651 29C87.0876 29 110.668 32.7276 132.881 39.6594C132.965 39.6857 133.013 39.7643 132.997 39.8591C132.978 39.9476 132.884 40.0163 132.798 39.9966C109.97 36.1641 86.5886 33.978 62.77 33.5556C45.7562 33.2513 28.9452 33.8632 12.369 35.3229C12.2018 35.3393 12.0537 35.2314 12.0087 35.0646C11.967 34.8811 12.0795 34.6946 12.2597 34.6521Z" fill="#ED1A3A"/>
</g>
</g>
<defs>
<clipPath id="clip0_5_7940">
<rect width="135" height="40" fill="white"/>
</clipPath>
</defs>
</svg>
