<svg width="40" height="40" viewBox="0 0 40 40" fill="none" xmlns="http://www.w3.org/2000/svg">
<mask id="mask0_6_951" style="mask-type:luminance" maskUnits="userSpaceOnUse" x="0" y="14" width="40" height="12">
<path d="M0 14.1084H40V26H0V14.1084Z" fill="white"/>
</mask>
<g mask="url(#mask0_6_951)">
<path d="M6.24426 14.2273C5.91922 15.055 5.57226 15.8858 5.21474 16.7222L4.73106 17.831L4.2417 16.7222C3.87274 15.8858 3.51906 15.055 3.18738 14.2273H0.480264V14.4442C0.780424 14.4442 1.02706 14.6947 1.02706 15.0034C0.983065 15.575 0.935304 16.1477 0.876984 16.7222L0.697305 18.4676C0.611225 19.303 0.513704 20.1356 0.400024 20.9624H1.26506C1.31858 20.1356 1.38546 19.303 1.46962 18.4676L1.73634 15.836C2.12058 16.6361 2.48858 17.441 2.84514 18.2478L2.94362 18.4676C3.31354 19.303 3.6653 20.1356 3.9989 20.9624H4.26082C4.5877 20.1356 4.93378 19.303 5.29314 18.4676L5.44898 18.1091C5.79786 17.3023 6.16106 16.4975 6.53578 15.6984L6.81778 18.4676C6.90194 19.303 6.9717 20.1356 7.02234 20.9624H9.0125C8.89778 20.1356 8.7993 19.303 8.71522 18.4676L8.53746 16.7222C8.45426 15.8858 8.38258 15.055 8.33386 14.2273H6.24426Z" fill="#183181"/>
<path d="M15.1712 20.293C15.3881 19.8801 15.6224 19.4624 15.8709 19.0446L18.2883 15.0214V14.8512H12.9689V16.089H13.1791C13.1791 15.7908 13.4085 15.547 13.6953 15.5289C13.8616 15.5232 14.027 15.5203 14.1905 15.5203H15.9072C15.6941 15.9246 15.4665 16.3328 15.2209 16.741L12.791 20.793V20.9622H18.5282V20.2434C18.1249 20.2758 17.7157 20.293 17.3085 20.293H15.1712Z" fill="#183181"/>
<path d="M25.0054 20.9623C25.0226 20.9613 25.0398 20.9594 25.056 20.9585C25.0245 20.5455 25.0054 20.1317 25.0054 19.7149V18.2008H27.3807V19.7149C27.3807 20.1317 27.3664 20.5493 27.3349 20.9623H29.1644C29.131 20.5493 29.1157 20.1317 29.1157 19.7149V16.0997C29.1157 15.6801 29.131 15.2653 29.1644 14.8504H26.8321V15.0435H26.8847C27.1447 15.0435 27.354 15.2489 27.3722 15.509C27.3779 15.7049 27.3807 15.9018 27.3807 16.0997V17.5307H25.0054V16.0997C25.0054 15.6801 25.0207 15.2653 25.0541 14.8504H22.7227V15.0435H22.7734C23.0324 15.0435 23.2427 15.2471 23.2609 15.5061C23.2676 15.704 23.2714 15.9009 23.2714 16.0997V20.3314C23.0315 20.362 22.7848 20.3764 22.5354 20.3764C22.2667 20.3764 22.002 20.3553 21.7439 20.3133C21.0117 20.1737 20.8951 19.4864 20.8951 19.0581V16.0644C20.8951 15.6581 20.9132 15.2537 20.9439 14.8504H18.6124V15.0435H18.6621C18.9221 15.0435 19.1305 15.2471 19.1487 15.5052C19.1554 15.704 19.1592 15.9009 19.1592 16.0997V18.7685C19.1592 19.3689 19.3494 20.6956 20.9783 20.9365C21.4867 21.0063 22.0067 21.0464 22.5354 21.0464C23.3651 21.0464 24.1891 21.0168 25.0054 20.9623Z" fill="#183181"/>
<path d="M36.9957 17.907C36.9957 19.9889 35.1958 21.0461 33.4226 21.0461C31.6495 21.0461 29.8533 19.9889 29.8533 17.907C29.8533 15.8241 31.6495 14.7669 33.4226 14.7669C35.1958 14.7669 36.9957 15.8241 36.9957 17.907ZM35.2541 17.907C35.2522 16.7724 34.7781 15.437 33.4226 15.437C32.0691 15.437 31.5931 16.7724 31.5931 17.907C31.5931 19.0407 32.0691 20.3761 33.4226 20.3761C34.7781 20.3761 35.2522 19.0407 35.2541 17.907Z" fill="#183181"/>
<path d="M11.9637 16.0998C11.9637 15.6802 11.9789 15.2654 12.0143 14.8505H9.62079V15.0675H9.67047C9.98023 15.0675 10.2221 15.3179 10.2221 15.6295C10.2268 15.7844 10.2287 15.9412 10.2287 16.0998V19.715C10.2287 20.1318 10.2125 20.5495 10.1848 20.9624H12.0143C11.9789 20.5495 11.9637 20.1318 11.9637 19.715V16.0998Z" fill="#183181"/>
<path d="M3.72857 24.3192C8.54817 23.239 13.557 22.6684 18.6996 22.6684C25.9596 22.6684 32.9652 23.7571 39.5647 25.7816C39.5895 25.7893 39.6039 25.8123 39.5991 25.84C39.5934 25.8658 39.5656 25.8859 39.5399 25.8801C32.7579 24.7608 25.8114 24.1223 18.735 23.9989C13.6803 23.91 8.68577 24.0888 3.76105 24.5151C3.71137 24.5199 3.66737 24.4884 3.65401 24.4396C3.64161 24.386 3.67505 24.3316 3.72857 24.3192Z" fill="#ED1A3A"/>
</g>
</svg>
