<svg width="240" height="80" viewBox="0 0 240 80" fill="none" xmlns="http://www.w3.org/2000/svg">
<mask id="mask0_13_12479" style="mask-type:luminance" maskUnits="userSpaceOnUse" x="52" y="20" width="136" height="40">
<path d="M52.2641 20H187.736V60H52.2641V20Z" fill="white"/>
</mask>
<g mask="url(#mask0_13_12479)">
<path d="M73.4122 20.3999C72.3114 23.1842 71.1363 25.9785 69.9255 28.792L68.2873 32.5216L66.63 28.792C65.3804 25.9785 64.1825 23.1842 63.0592 20.3999H53.8908V21.1297C54.9073 21.1297 55.7427 21.9722 55.7427 23.0107C55.5936 24.9334 55.4319 26.8596 55.2344 28.792L54.6258 34.6631C54.3343 37.4733 54.004 40.2738 53.619 43.0549H56.5487C56.73 40.2738 56.9565 37.4733 57.2415 34.6631L58.1448 25.8112C59.4462 28.5024 60.6925 31.2098 61.9001 33.9236L62.2336 34.6631C63.4865 37.4733 64.6778 40.2738 65.8077 43.0549H66.6947C67.8018 40.2738 68.9739 37.4733 70.191 34.6631L70.7188 33.4573C71.9004 30.7435 73.1304 28.0363 74.3995 25.3483L75.3546 34.6631C75.6397 37.4733 75.8759 40.2738 76.0474 43.0549H82.7877C82.3992 40.2738 82.0656 37.4733 81.7809 34.6631L81.1788 28.792C80.897 25.9785 80.6543 23.1842 80.4893 20.3999H73.4122Z" fill="#183181"/>
<path d="M103.646 40.8032C104.381 39.4141 105.174 38.0092 106.015 36.604L114.203 23.0708V22.4984H96.187V26.6621H96.899C96.899 25.659 97.6761 24.839 98.6472 24.7779C99.2105 24.7588 99.7708 24.7491 100.324 24.7491H106.138C105.417 26.1092 104.646 27.4821 103.814 28.855L95.5847 42.4848V43.054H115.015V40.6361C113.649 40.7454 112.264 40.8032 110.885 40.8032H103.646Z" fill="#183181"/>
<path d="M136.952 43.0546C137.011 43.0514 137.069 43.0449 137.124 43.0417C137.017 41.6526 136.952 40.2605 136.952 38.8585V33.7656H144.997V38.8585C144.997 40.2605 144.949 41.6655 144.842 43.0546H151.038C150.925 41.6655 150.873 40.2605 150.873 38.8585V26.6983C150.873 25.2866 150.925 23.8913 151.038 22.4958H143.139V23.1454H143.317C144.198 23.1454 144.907 23.8364 144.968 24.7113C144.987 25.3703 144.997 26.0325 144.997 26.6983V31.5116H136.952V26.6983C136.952 25.2866 137.004 23.8913 137.117 22.4958H129.221V23.1454H129.393C130.27 23.1454 130.983 23.8303 131.044 24.7016C131.067 25.3671 131.08 26.0293 131.08 26.6983V40.9325C130.267 41.0353 129.432 41.0837 128.587 41.0837C127.677 41.0837 126.781 41.0129 125.906 40.8714C123.427 40.4018 123.032 38.09 123.032 36.6495V26.5794C123.032 25.2126 123.093 23.8526 123.197 22.4958H115.301V23.1454H115.469C116.349 23.1454 117.055 23.8303 117.117 24.6984C117.14 25.3671 117.153 26.0293 117.153 26.6983V35.6754C117.153 37.6947 117.797 42.1574 123.313 42.9677C125.035 43.2026 126.797 43.3374 128.587 43.3374C131.397 43.3374 134.188 43.2378 136.952 43.0546Z" fill="#183181"/>
<path d="M177.561 32.7776C177.561 39.7805 171.465 43.3367 165.46 43.3367C159.454 43.3367 153.371 39.7805 153.371 32.7776C153.371 25.7713 159.454 22.2152 165.46 22.2152C171.465 22.2152 177.561 25.7713 177.561 32.7776ZM171.663 32.7776C171.656 28.9609 170.05 24.4692 165.46 24.4692C160.876 24.4692 159.263 28.9609 159.263 32.7776C159.263 36.5909 160.876 41.0827 165.46 41.0827C170.05 41.0827 171.656 36.5909 171.663 32.7776Z" fill="#183181"/>
<path d="M92.7828 26.6986C92.7828 25.2872 92.8345 23.8917 92.9543 22.4962H84.8479V23.2262H85.0162C86.0653 23.2262 86.8843 24.0685 86.8843 25.1166C86.9003 25.6376 86.9068 26.165 86.9068 26.6986V38.8589C86.9068 40.2609 86.8518 41.6661 86.7581 43.0549H92.9543C92.8345 41.6661 92.7828 40.2609 92.7828 38.8589V26.6986Z" fill="#183181"/>
<path d="M64.8921 54.3459C81.2151 50.7125 98.1788 48.7931 115.596 48.7931C140.184 48.7931 163.91 52.4552 186.261 59.2653C186.346 59.2911 186.394 59.3683 186.378 59.4614C186.359 59.5483 186.265 59.6159 186.177 59.5965C163.208 55.8313 139.682 53.6836 115.716 53.2687C98.5963 52.9697 81.6811 53.5709 65.0021 55.0049C64.8338 55.021 64.6848 54.915 64.6395 54.7511C64.5976 54.5708 64.7108 54.3876 64.8921 54.3459Z" fill="#ED1A3A"/>
</g>
</svg>
