<svg xmlns="http://www.w3.org/2000/svg" width="166" height="40" fill="none" viewBox="0 0 166 40"><g clip-path="url(#clip0_4_2086)"><path fill="url(#paint0_radial_4_2086)" d="M45 30.9292C45 28.7383 44.2079 26.7349 42.927 25.1407L24.6826 3.19693C23.1067 1.20205 20.6376 0 17.8736 0C13.0449 0 9 3.98977 9 8.97698C9 11.1679 9.79213 13.1714 11.073 14.7656L29.3174 36.8116C30.8933 38.8065 33.3624 40 36.1264 40C41.0562 39.8977 45 35.9079 45 30.9207V30.9292Z"/><path fill="url(#paint1_radial_4_2086)" d="M41.5135 38.1089C43.2221 36.8117 44.4241 34.9087 44.8276 32.9118L49.7557 11.0396C50.3567 8.53922 49.8588 5.74866 48.1502 3.54694C45.1367 -0.44688 39.5131 -1.14665 35.4864 1.84871C33.7779 3.14585 32.5759 5.04889 32.1724 7.0458L27.3473 28.4145L27.2443 29.0118C26.6433 31.5122 27.1412 34.3028 28.8498 36.5045C31.8633 40.3959 37.5899 41.1981 41.5135 38.1003V38.1089Z"/><path fill="url(#paint2_radial_4_2086)" d="M67.9916 30.9292C67.9916 28.7383 67.2017 26.7349 65.9244 25.1407L47.6387 3.19693C46.0588 1.20205 43.605 0 40.8487 0C36.0252 0 32 3.98977 32 8.97698C32 11.1679 32.7899 13.1714 34.0672 14.7656L52.2605 36.8116C53.8319 38.8065 56.2941 40 59.0504 40C64.0672 39.8977 68 35.9079 68 30.9207L67.9916 30.9292Z"/><path fill="url(#paint3_radial_4_2086)" d="M9 22C13.9744 22 18 26.0342 18 31C18 35.9658 13.9658 40 9 40C4.03419 40 0 35.9744 0 31C0 26.0256 4.03419 22 9 22Z"/><path fill="#000" d="M163.322 19.1885L163.127 18.992L163.322 18.7955C164.713 17.0956 165.408 14.9941 165.306 12.7987C165.111 7.80139 160.643 4 155.184 4H143.476C141.492 4 140 5.59744 140 7.5024V32.4976C140 34.4965 141.585 36 143.476 36H155.082C157.956 36 160.635 35.0005 162.72 33.1041C164.806 31.2077 165.993 28.7047 165.993 26.0053C166.095 23.4084 165.103 21.008 163.314 19.2056L163.322 19.1885ZM146.85 10.2872H155.684C157.371 10.2872 158.465 11.7907 158.465 13.0892C158.465 14.7891 156.973 15.8911 155.684 15.8911H146.85V10.2958V10.2872ZM155.777 29.4821H146.85V22.2808H155.684C157.074 22.2808 159.253 23.2803 159.253 25.9797C159.253 27.4832 158.066 29.4821 155.777 29.4821Z"/><path fill="#000" d="M125.52 16.3986C122.876 15.7085 119.747 14.8248 119.546 12.6534C119.446 11.1722 120.626 9.89288 122.583 9.59832C126.499 9.11018 129.929 11.3741 131.787 11.8623C133.644 12.3588 135.116 10.7766 135.309 9.20275C135.602 6.8378 133.251 5.55853 132.372 4.9694C130.908 4.08569 128.256 3 124.34 3C117.388 3 112.594 7.03979 112.594 12.7544C112.594 15.9105 113.765 18.1744 116.024 19.8493C120.433 23.1989 129.042 22.8034 129.042 26.254C129.042 29.3091 123.362 31.2785 117.095 27.1377C116.509 26.7422 115.924 26.4476 115.137 26.4476C113.472 26.4476 112 27.8279 112 29.6037C112 30.1928 112.1 30.6894 112.393 31.1775C112.393 31.2785 112.494 31.2785 112.494 31.3711C113.079 32.2548 113.866 33.0459 114.945 33.635C116.509 34.7207 119.446 36 123.855 36C127.478 36 130.515 35.1163 132.665 33.3405C134.824 31.5647 135.995 29.0061 135.995 25.951C136.187 20.0428 131 17.8715 125.52 16.3986Z"/><path fill="#000" d="M105.425 4H103.242C102.053 4 100.856 4.69335 100.363 5.78412L93.0085 21.021L85.6539 5.78412C85.0594 4.69335 83.9639 4 82.673 4H80.482C78.5966 4 77 5.58119 77 7.46677V32.6051C77 35.0826 79.6836 36.9597 82.2654 35.4715C83.259 34.9811 83.8535 33.8903 83.8535 32.7996V17.8586L90.0191 29.6372C90.6136 30.821 91.811 31.4213 93 31.4213C94.189 31.4213 95.3864 30.8294 95.9809 29.6372L102.147 17.8586V32.7996C102.147 33.8903 102.741 34.9727 103.735 35.4715C106.316 36.8582 109 34.9811 109 32.6051V7.46677C109 5.58964 107.412 4 105.425 4Z"/></g><defs><radialGradient id="paint0_radial_4_2086" cx="0" cy="0" r="1" gradientTransform="translate(31.0508 11.6448) scale(18.8613 19.0811)" gradientUnits="userSpaceOnUse"><stop offset=".02" stop-color="#6F0000"/><stop offset=".33" stop-color="#910D11"/><stop offset=".45" stop-color="#A61519"/><stop offset=".59" stop-color="#BC1B20"/><stop offset=".74" stop-color="#CB1E24"/><stop offset=".88" stop-color="#D52027"/><stop offset="1" stop-color="#DA2128"/></radialGradient><radialGradient id="paint1_radial_4_2086" cx="0" cy="0" r="1" gradientTransform="translate(45.4275 23.2154) scale(17.137 17.0337)" gradientUnits="userSpaceOnUse"><stop offset=".04" stop-color="#6F0000"/><stop offset=".3" stop-color="#910D11"/><stop offset=".42" stop-color="#A01317"/><stop offset=".68" stop-color="#BE1B21"/><stop offset=".88" stop-color="#D11F26"/><stop offset="1" stop-color="#DA2128"/></radialGradient><radialGradient id="paint2_radial_4_2086" cx="0" cy="0" r="1" gradientTransform="translate(36.891 3.76496) scale(33.8612 34.3519)" gradientUnits="userSpaceOnUse"><stop offset=".36" stop-color="#DA2128"/><stop offset="1" stop-color="#F37021"/></radialGradient><radialGradient id="paint3_radial_4_2086" cx="0" cy="0" r="1" gradientTransform="translate(4.38573 34.3961) scale(17.87)" gradientUnits="userSpaceOnUse"><stop offset=".31" stop-color="#DA2128"/><stop offset=".79" stop-color="#910D11"/><stop offset="1" stop-color="#6F0000"/></radialGradient><clipPath id="clip0_4_2086"><rect width="166" height="40" fill="#fff"/></clipPath></defs></svg>