<svg xmlns="http://www.w3.org/2000/svg" width="40" height="40" fill="none" viewBox="0 0 40 40"><path fill="#0072BC" fill-rule="evenodd" d="M2.68359 21.9831L1.09505 19.3159V21.9831H0V18H1.63083L3.23816 20.6554V18H4.33087V21.9831H2.68359Z" clip-rule="evenodd"/><path fill="#0072BC" fill-rule="evenodd" d="M7.92621 21.9831L7.65363 21.2969H6.01575L5.74316 21.9831H4.52356L6.08859 18H7.52673L9.14111 21.9831H7.92621ZM7.32229 20.4345L6.82646 19.1609L6.33768 20.4345H7.32229Z" clip-rule="evenodd"/><path fill="#0072BC" fill-rule="evenodd" d="M13.6646 21.9831V19.471L12.5602 21.9831H11.6061L10.4923 19.4851V21.9831H9.39252V18H11.0092L12.0761 20.4697L13.1265 18H14.7597V21.9831H13.6646Z" clip-rule="evenodd"/><path fill="#0072BC" fill-rule="evenodd" d="M19.4901 21.9831L19.2105 21.2969H17.5773L17.3023 21.9831H16.0851L17.6478 18H19.0859L20.6956 21.9831H19.4901ZM18.8838 20.4345L18.3856 19.1609L17.8945 20.4345H18.8838Z" clip-rule="evenodd"/><path fill="#0072BC" fill-rule="evenodd" d="M22.0726 21.9831V18H24.399C24.9207 18 25.2802 18.0775 25.487 18.242C25.7032 18.4159 25.8137 18.7073 25.8137 19.1139C25.8137 19.4099 25.762 19.6261 25.6539 19.7695C25.6257 19.8165 25.5834 19.8564 25.534 19.8987C25.6257 19.9551 25.7032 20.0233 25.7643 20.1055C25.8701 20.2559 25.9218 20.4838 25.9218 20.8034C25.9218 21.217 25.816 21.5155 25.6045 21.694C25.386 21.8891 25.003 21.9878 24.4719 21.9878H22.075L22.0726 21.9831ZM24.2933 21.0478C24.5776 21.0478 24.6669 20.9961 24.6857 20.982C24.728 20.9491 24.7515 20.8622 24.7515 20.7423C24.7515 20.512 24.7045 20.458 24.6951 20.4509C24.6857 20.4439 24.6223 20.3898 24.3403 20.3898H23.2311V21.0478H24.2933ZM24.1922 19.5227C24.4789 19.5227 24.5659 19.4663 24.587 19.4522C24.6058 19.4334 24.6552 19.3794 24.6552 19.1867C24.6552 19.0363 24.6199 18.994 24.6199 18.994C24.6082 18.9823 24.533 18.9376 24.204 18.9376H23.2288V19.5227H24.1899H24.1922Z" clip-rule="evenodd"/><path fill="#0072BC" fill-rule="evenodd" d="M29.3784 21.9831L29.1058 21.2969H27.468L27.1977 21.9831H25.9805L27.5408 18H28.9789L30.591 21.9831H29.3808H29.3784ZM28.7792 20.4345L28.2787 19.1609L27.7852 20.4345H28.7792Z" clip-rule="evenodd"/><path fill="#0072BC" fill-rule="evenodd" d="M33.5354 21.9831L31.9422 19.3042V21.9831H30.8448V18H32.4827L34.0829 20.653V18H35.1827V21.9831H33.5354Z" clip-rule="evenodd"/><path fill="#0072BC" fill-rule="evenodd" d="M38.489 21.9831L36.8982 20.4204H36.7454V21.9831H35.5775V18H36.7454V19.4875H36.8935L38.3269 18H39.8097L37.9063 19.9434L40 21.9831H38.489Z" clip-rule="evenodd"/></svg>