<svg width="240" height="80" viewBox="0 0 240 80" fill="none" xmlns="http://www.w3.org/2000/svg">
<path fill-rule="evenodd" clip-rule="evenodd" d="M29.0888 50.431L20.749 36.445V50.431H15V29.5444H23.5619L32.0003 43.4688V29.5444H37.737V50.431H29.0888Z" fill="#0072BC"/>
<path fill-rule="evenodd" clip-rule="evenodd" d="M56.6126 50.431L55.1815 46.8328H46.5827L45.1516 50.431H38.7487L46.9651 29.5444H54.5153L62.9908 50.431H56.6126ZM53.442 42.3105L50.8389 35.6317L48.2728 42.3105H53.442Z" fill="#0072BC"/>
<path fill-rule="evenodd" clip-rule="evenodd" d="M86.7395 50.431V37.2583L80.9411 50.431H75.9323L70.0846 37.3322V50.431H64.3109V29.5444H72.7987L78.3997 42.4953L83.9143 29.5444H92.4885V50.431H86.7395Z" fill="#0072BC"/>
<path fill-rule="evenodd" clip-rule="evenodd" d="M117.323 50.431L115.855 46.8328H107.281L105.837 50.431H99.4466L107.651 29.5444H115.201L123.652 50.431H117.323ZM114.14 42.3105L111.524 35.6317L108.946 42.3105H114.14Z" fill="#0072BC"/>
<path fill-rule="evenodd" clip-rule="evenodd" d="M130.881 50.431V29.5444H143.095C145.834 29.5444 147.721 29.9511 148.807 30.8136C149.942 31.7255 150.522 33.2535 150.522 35.3853C150.522 36.9379 150.25 38.0716 149.683 38.8232C149.535 39.0697 149.313 39.2792 149.054 39.501C149.535 39.7967 149.942 40.154 150.263 40.5853C150.818 41.374 151.089 42.5692 151.089 44.2451C151.089 46.4138 150.534 47.9788 149.424 48.9153C148.276 49.9381 146.265 50.4556 143.477 50.4556H130.894L130.881 50.431ZM142.54 45.5266C144.032 45.5266 144.501 45.2555 144.6 45.1816C144.822 45.0091 144.945 44.5532 144.945 43.9247C144.945 42.7171 144.699 42.4337 144.649 42.3967C144.6 42.3598 144.267 42.0763 142.786 42.0763H136.963V45.5266H142.54ZM142.009 37.5294C143.514 37.5294 143.971 37.2336 144.082 37.1597C144.18 37.0611 144.439 36.7777 144.439 35.7673C144.439 34.9786 144.254 34.7568 144.254 34.7568C144.193 34.6952 143.798 34.4611 142.071 34.4611H136.951V37.5294H141.997H142.009Z" fill="#0072BC"/>
<path fill-rule="evenodd" clip-rule="evenodd" d="M169.237 50.431L167.806 46.8328H159.207L157.788 50.431H151.398L159.589 29.5444H167.14L175.603 50.431H169.249H169.237ZM166.091 42.3105L163.463 35.6317L160.872 42.3105H166.091Z" fill="#0072BC"/>
<path fill-rule="evenodd" clip-rule="evenodd" d="M191.061 50.431L182.696 36.3834V50.431H176.935V29.5444H185.534L193.935 43.4565V29.5444H199.709V50.431H191.061Z" fill="#0072BC"/>
<path fill-rule="evenodd" clip-rule="evenodd" d="M217.067 50.431L208.715 42.2365H207.913V50.431H201.782V29.5444H207.913V37.3445H208.691L216.216 29.5444H224.001L214.008 39.7351L225 50.431H217.067Z" fill="#0072BC"/>
</svg>
