<svg xmlns="http://www.w3.org/2000/svg" width="240" height="80" fill="none" viewBox="0 0 240 80"><path fill="#1E417E" fill-rule="evenodd" d="M47.3238 28.4791C47.3238 28.4791 52.708 26.3594 58.9613 26.3594C65.2146 26.3594 68.0763 28.6275 67.8855 33.3758C67.716 37.4034 65.1722 50.3975 65.1722 50.3975H58.5374C58.5374 50.3975 61.0175 37.1066 61.0175 34.8172C61.0175 32.5279 57.6895 32.3159 57.0959 32.3159C56.5024 32.3159 54.743 32.3159 53.1955 33.079C52.8352 35.2624 50.1007 50.2703 50.1007 50.2703H43.4658L47.3238 28.4791Z" clip-rule="evenodd"/><path fill="#1E417E" fill-rule="evenodd" d="M82.5331 39.8199C82.5331 39.8199 78.9719 39.608 77.9968 39.9683C77.0217 40.3499 75.5591 41.2402 75.5591 43.2116C75.5591 45.1829 77.6153 46.3488 79.5019 46.3488C80.0318 46.3488 80.9009 46.3276 81.4308 46.0309C81.876 43.7203 82.5331 39.7987 82.5331 39.7987V39.8199ZM71.3831 33.2063L72.2099 27.8856C72.2099 27.8856 76.4706 26.3806 80.4769 26.3806C84.4833 26.3806 90.2067 27.2497 90.2067 32.8035C90.2067 34.1178 87.7266 48.2566 87.557 49.5285C84.5469 50.6095 81.1553 50.8427 79.2475 50.8427C77.3397 50.8427 68.9666 50.2492 68.9666 43.5719C68.9666 36.3859 77.1489 35.4744 83.1903 36.1527C83.6354 34.8809 84.5469 31.892 79.0567 31.892C77.3821 31.892 73.2485 32.5067 71.362 33.2063H71.3831Z" clip-rule="evenodd"/><path fill="#1E417E" fill-rule="evenodd" d="M129.804 39.8199C129.804 39.8199 126.243 39.608 125.268 39.9683C124.293 40.3499 122.83 41.2402 122.83 43.2116C122.83 45.1829 124.886 46.3488 126.773 46.3488C127.303 46.3488 128.172 46.3276 128.702 46.0309C129.147 43.7203 129.804 39.7987 129.804 39.7987V39.8199ZM118.654 33.2063L119.481 27.8856C119.481 27.8856 123.741 26.3806 127.748 26.3806C131.754 26.3806 137.478 27.2497 137.478 32.8035C137.478 34.1178 134.997 48.2566 134.828 49.5285C131.818 50.6095 128.426 50.8427 126.518 50.8427C124.611 50.8427 116.237 50.2492 116.237 43.5719C116.237 36.3859 124.42 35.4744 130.461 36.1527C130.906 34.8809 131.818 31.892 126.328 31.892C124.653 31.892 120.519 32.5067 118.633 33.2063H118.654Z" clip-rule="evenodd"/><path fill="#1E417E" fill-rule="evenodd" d="M100.466 33.2909C100.466 33.2909 101.611 32.443 104.028 32.443C106.444 32.443 108.458 33.9057 108.458 36.8309C108.458 39.7562 107.144 45.31 101.95 45.31C101.145 45.31 98.8977 44.8437 98.4738 44.4621C98.9825 41.1129 100.466 33.2909 100.466 33.2909ZM94.5734 28.3731C94.5734 28.3731 99.3853 26.3169 104.24 26.3169C105.787 26.3169 115.05 26.3805 115.05 36.7038C115.05 39.947 114.69 50.6094 102.48 50.6094C100.509 50.6094 97.6047 49.6979 97.6047 49.6979L95.7817 60H88.9136L94.5734 28.3731Z" clip-rule="evenodd"/><path fill="#1E417E" fill-rule="evenodd" d="M156.534 34.3933C156.534 34.3933 157.361 29.5602 157.552 28.6911C155.707 27.3133 153.015 26.3594 150.154 26.3594C147.292 26.3594 140.191 26.9529 140.191 34.0965C140.191 35.5168 140.382 38.6964 144.854 40.4558C149.327 42.194 150.111 41.8337 150.111 43.6143C150.111 45.3949 148.013 45.5857 146.826 45.5857C145.639 45.5857 142.65 45.1829 139.152 42.3212C138.919 44.7166 138.368 47.4511 138.262 48.0234C139.767 49.4012 142.438 50.7579 146.974 50.7579C151.51 50.7579 156.873 48.7441 156.873 42.83C156.873 40.8798 156.619 37.6365 148.818 35.5168C147.398 35.1564 146.868 34.2237 146.868 33.4818C146.868 32.7399 147.462 31.7012 150.069 31.7012C152.676 31.7012 155.368 33.1426 156.513 34.3933H156.534Z" clip-rule="evenodd"/><path fill="#049BD7" fill-rule="evenodd" d="M194.414 29.3479L182.544 29.3903L170.355 40.9642L182.226 40.9218L194.414 29.3479Z" clip-rule="evenodd"/><path fill="#1E417E" fill-rule="evenodd" d="M184.303 20H172.348V33.6301L184.303 40.1378V20Z" clip-rule="evenodd"/><path fill="#A5CE39" fill-rule="evenodd" d="M162.067 26.8469H174.128L193.842 50.2703H182.141L162.067 26.8469Z" clip-rule="evenodd"/><path fill="#049BD7" fill-rule="evenodd" d="M166.539 54.3826H178.304L184.303 38.9507L176.778 40.9221L170.291 45.0768L166.539 54.3826Z" clip-rule="evenodd"/><path fill="#1E417E" fill-rule="evenodd" d="M184.303 38.9507L172.454 38.9719L160.498 50.3338H172.369L180.975 42.1515L184.303 38.9507Z" clip-rule="evenodd"/><path fill="#1E417E" d="M194.33 33.1426H194.966C195.093 33.1426 195.199 33.1426 195.284 33.1002C195.368 33.079 195.411 33.0366 195.453 32.973C195.495 32.9094 195.517 32.8458 195.517 32.7822C195.517 32.6762 195.474 32.5914 195.411 32.5278C195.326 32.4642 195.22 32.4219 195.05 32.4219H194.351V33.1638L194.33 33.1426ZM194.033 34.372V32.1675H195.008C195.199 32.1675 195.347 32.1675 195.453 32.2311C195.559 32.2735 195.644 32.3371 195.707 32.4431C195.771 32.549 195.792 32.655 195.792 32.7822C195.792 32.9306 195.75 33.079 195.644 33.185C195.538 33.291 195.39 33.3546 195.178 33.3969C195.262 33.4393 195.305 33.4605 195.347 33.5029C195.432 33.5877 195.517 33.6725 195.58 33.7997L195.962 34.3932H195.601L195.305 33.9269C195.22 33.7997 195.156 33.6937 195.093 33.6301C195.029 33.5665 194.987 33.5029 194.944 33.4817C194.902 33.4605 194.86 33.4393 194.817 33.4181C194.775 33.4181 194.732 33.4181 194.648 33.4181H194.308V34.3932H194.012L194.033 34.372Z"/><path stroke="#1E417E" stroke-linecap="round" stroke-linejoin="round" stroke-width=".11" d="M194.796 31.5527C193.842 31.5527 193.058 32.337 193.058 33.2909C193.058 34.2448 193.842 35.0292 194.796 35.0292C195.75 35.0292 196.534 34.2448 196.534 33.2909C196.534 32.337 195.75 31.5527 194.796 31.5527Z"/></svg>