<svg width="153" height="40" viewBox="0 0 153 40" fill="none" xmlns="http://www.w3.org/2000/svg">
<g clip-path="url(#clip0_10_34)">
<path fill-rule="evenodd" clip-rule="evenodd" d="M3.79028 8.1164C3.79028 8.1164 9.08001 6 15.2236 6C21.3672 6 24.1787 8.26455 23.9912 13.0053C23.8246 17.0265 21.3255 30 21.3255 30H14.8071C14.8071 30 17.2437 16.7302 17.2437 14.4444C17.2437 12.1587 13.9741 11.9471 13.3909 11.9471C12.8078 11.9471 11.0793 11.9471 9.559 12.709C9.20497 14.8889 6.51845 29.873 6.51845 29.873H0L3.79028 8.1164Z" fill="#1E417E"/>
<path fill-rule="evenodd" clip-rule="evenodd" d="M38.4132 19.1854C38.4132 19.1854 34.8922 18.9775 33.9281 19.331C32.9641 19.7054 31.518 20.5789 31.518 22.513C31.518 24.4471 33.5509 25.591 35.4162 25.591C35.9401 25.591 36.7994 25.5702 37.3234 25.279C37.7635 23.0121 38.4132 19.1646 38.4132 19.1646V19.1854ZM27.3892 12.6967L28.2066 7.4766C28.2066 7.4766 32.4192 6 36.3802 6C40.3413 6 46 6.85269 46 12.3016C46 13.591 43.5479 27.4627 43.3802 28.7106C40.4042 29.7712 37.0509 30 35.1647 30C33.2784 30 25 29.4177 25 22.8666C25 15.8163 33.0898 14.922 39.0629 15.5875C39.503 14.3397 40.4042 11.4073 34.9761 11.4073C33.3204 11.4073 29.2335 12.0104 27.3683 12.6967H27.3892Z" fill="#1E417E"/>
<path fill-rule="evenodd" clip-rule="evenodd" d="M86.4132 19.1854C86.4132 19.1854 82.8922 18.9775 81.9281 19.331C80.9641 19.7054 79.518 20.5789 79.518 22.513C79.518 24.4471 81.5509 25.591 83.4162 25.591C83.9401 25.591 84.7994 25.5702 85.3234 25.279C85.7635 23.0121 86.4132 19.1646 86.4132 19.1646V19.1854ZM75.3892 12.6967L76.2066 7.4766C76.2066 7.4766 80.4192 6 84.3802 6C88.3413 6 94 6.85269 94 12.3016C94 13.591 91.5479 27.4627 91.3802 28.7106C88.4042 29.7712 85.0509 30 83.1647 30C81.2784 30 73 29.4177 73 22.8666C73 15.8163 81.0898 14.922 87.0629 15.5875C87.503 14.3397 88.4042 11.4073 82.976 11.4073C81.3204 11.4073 77.2335 12.0104 75.3683 12.6967H75.3892Z" fill="#1E417E"/>
<path fill-rule="evenodd" clip-rule="evenodd" d="M56.4923 13.0396C56.4923 13.0396 57.631 12.1838 60.0349 12.1838C62.4388 12.1838 64.442 13.6602 64.442 16.613C64.442 19.5658 63.1346 25.1718 57.9684 25.1718C57.1671 25.1718 54.9319 24.7011 54.5101 24.3159C55.0162 20.9352 56.4923 13.0396 56.4923 13.0396ZM50.6302 8.07552C50.6302 8.07552 55.4169 6 60.2457 6C61.7851 6 71 6.06419 71 16.4846C71 19.7583 70.6415 30.5211 58.4955 30.5211C56.5345 30.5211 53.6456 29.601 53.6456 29.601L51.8321 40H45L50.6302 8.07552Z" fill="#1E417E"/>
<path fill-rule="evenodd" clip-rule="evenodd" d="M112.998 13.9027C112.998 13.9027 113.812 9.14857 114 8.29366C112.184 6.93831 109.532 6 106.713 6C103.895 6 96.9 6.58384 96.9 13.6108C96.9 15.0078 97.0879 18.1355 101.493 19.8662C105.899 21.576 106.671 21.2215 106.671 22.9731C106.671 24.7246 104.604 24.9122 103.435 24.9122C102.266 24.9122 99.322 24.5161 95.8769 21.7011C95.6472 24.0573 95.1044 26.7472 95 27.3102C96.4824 28.6655 99.1132 30 103.581 30C108.049 30 113.332 28.0191 113.332 22.2016C113.332 20.2832 113.081 17.093 105.398 15.0078C103.999 14.6533 103.477 13.7359 103.477 13.0061C103.477 12.2763 104.062 11.2546 106.63 11.2546C109.198 11.2546 111.849 12.6725 112.977 13.9027H112.998Z" fill="#1E417E"/>
<path fill-rule="evenodd" clip-rule="evenodd" d="M151 9L139.159 9.0438L127 21L138.841 20.9562L151 9Z" fill="#049BD7"/>
<path fill-rule="evenodd" clip-rule="evenodd" d="M141 0H129V13.5368L141 20V0Z" fill="#1E417E"/>
<path fill-rule="evenodd" clip-rule="evenodd" d="M119 7H131.147L151 30H139.216L119 7Z" fill="#A5CE39"/>
<path fill-rule="evenodd" clip-rule="evenodd" d="M123 34H134.921L141 19L133.375 20.9162L126.802 24.9547L123 34Z" fill="#049BD7"/>
<path fill-rule="evenodd" clip-rule="evenodd" d="M141 19L129.053 19.0205L117 30H128.968L137.645 22.0931L141 19Z" fill="#1E417E"/>
<path d="M150.326 12.8762H150.978C151.109 12.8762 151.217 12.8762 151.304 12.8381C151.391 12.819 151.435 12.781 151.478 12.7238C151.522 12.6667 151.543 12.6095 151.543 12.5524C151.543 12.4571 151.5 12.381 151.435 12.3238C151.348 12.2667 151.239 12.2286 151.065 12.2286H150.348V12.8952L150.326 12.8762ZM150.022 13.981V12H151.022C151.217 12 151.37 12 151.478 12.0571C151.587 12.0952 151.674 12.1524 151.739 12.2476C151.804 12.3429 151.826 12.4381 151.826 12.5524C151.826 12.6857 151.783 12.819 151.674 12.9143C151.565 13.0095 151.413 13.0667 151.196 13.1048C151.283 13.1429 151.326 13.1619 151.37 13.2C151.457 13.2762 151.543 13.3524 151.609 13.4667L152 14H151.63L151.326 13.581C151.239 13.4667 151.174 13.3714 151.109 13.3143C151.043 13.2571 151 13.2 150.957 13.181C150.913 13.1619 150.87 13.1429 150.826 13.1238C150.783 13.1238 150.739 13.1238 150.652 13.1238H150.304V14H150L150.022 13.981Z" fill="#1E417E"/>
</g>
<defs>
<clipPath id="clip0_10_34">
<rect width="153" height="40" fill="white"/>
</clipPath>
</defs>
</svg>
