<svg width="130" height="40" viewBox="0 0 130 40" fill="none" xmlns="http://www.w3.org/2000/svg">
<g clip-path="url(#clip0_4_2072)">
<mask id="mask0_4_2072" style="mask-type:luminance" maskUnits="userSpaceOnUse" x="0" y="31" width="45" height="9">
<path d="M22.1842 31.1473C9.92038 31.1473 0 33.0992 0 35.5366C0 37.9845 10.018 39.9786 22.3892 39.9997C34.7506 40.0314 44.7784 38.0478 44.7882 35.6104C44.7882 33.1626 34.7702 31.1578 22.399 31.1367H22.1842V31.1473Z" fill="white"/>
</mask>
<g mask="url(#mask0_4_2072)">
<path d="M0.00217046 31.0637L-0.0138245 40.0322L44.8036 40.1249L44.8196 31.1563L0.00217046 31.0637Z" fill="url(#paint0_linear_4_2072)"/>
</g>
<mask id="mask1_4_2072" style="mask-type:luminance" maskUnits="userSpaceOnUse" x="5" y="31" width="35" height="5">
<path d="M22.1451 31.0942C15.3786 31.0942 9.34431 31.7062 5.33124 32.6769L5.71204 35.7262L38.9785 35.7895L39.3691 32.7402C35.317 31.7484 29.1948 31.1048 22.3502 31.0942H22.1451Z" fill="white"/>
</mask>
<g mask="url(#mask1_4_2072)">
<path d="M5.32525 31.0256L5.31754 35.7842L39.3651 35.8481L39.3728 31.0896L5.32525 31.0256Z" fill="url(#paint1_linear_4_2072)"/>
</g>
<mask id="mask2_4_2072" style="mask-type:luminance" maskUnits="userSpaceOnUse" x="5" y="31" width="35" height="5">
<path d="M22.1451 31.0942C15.3786 31.0942 9.34431 31.7062 5.33124 32.6769L5.71204 35.7262L38.9785 35.7895L39.3691 32.7402C35.317 31.7484 29.1948 31.1048 22.3502 31.0942H22.1451Z" fill="white"/>
</mask>
<g mask="url(#mask2_4_2072)">
<path d="M5.32525 31.0256L5.31754 35.7842L39.3651 35.8481L39.3728 31.0896L5.32525 31.0256Z" fill="url(#paint2_linear_4_2072)"/>
</g>
<path d="M38.9688 35.7264C38.9688 35.3571 38.6954 35.0616 38.3536 35.0405H6.31741C5.97567 35.0405 5.6925 35.3465 5.6925 35.7158C5.6925 36.0851 5.97567 36.3911 6.31741 36.3911H38.3536C38.6954 36.3911 38.9688 36.0745 38.9688 35.7158" fill="white"/>
<mask id="mask3_4_2072" style="mask-type:luminance" maskUnits="userSpaceOnUse" x="7" y="14" width="30" height="20">
<path d="M7.1864 16.5443C7.17664 25.6922 14.0213 33.1414 22.4966 33.1414C28.2867 33.1519 33.3348 29.6911 35.9516 24.5738C36.1762 23.909 36.3031 23.1916 36.3031 22.4424C36.3031 19.0449 33.7644 16.2911 30.6204 16.2805C29.0483 16.2805 27.6325 16.9663 26.5975 18.0742L23.1215 21.7777C21.4518 23.698 19.0791 24.8798 16.4428 24.8798C11.385 24.8587 7.28404 20.4271 7.29381 14.9511C7.29381 14.8139 7.29381 14.6451 7.29381 14.4868C7.21569 15.1515 7.17664 15.8268 7.17664 16.5232" fill="white"/>
</mask>
<g mask="url(#mask3_4_2072)">
<path d="M10.4077 4.60902L1.7431 31.0786L33.0685 43.0524L41.7331 16.5828L10.4077 4.60902Z" fill="url(#paint3_linear_4_2072)"/>
</g>
<mask id="mask4_4_2072" style="mask-type:luminance" maskUnits="userSpaceOnUse" x="8" y="0" width="30" height="20">
<path d="M22.5259 0C16.8139 0 11.8342 3.37639 9.18807 8.38821C8.87561 9.1479 8.69986 9.98144 8.69986 10.8677C8.69986 14.2652 11.2385 17.0191 14.3826 17.0191C15.9546 17.0191 17.3802 16.3333 18.4054 15.2359L21.8815 11.5325C23.5511 9.61215 25.9238 8.41986 28.5504 8.43041C33.6082 8.43041 37.7092 12.883 37.6994 18.3485C37.6994 18.5596 37.6994 18.8023 37.6799 19.0344C37.7873 18.2325 37.8459 17.4306 37.8459 16.6076C37.8654 7.44915 31.011 0.0211024 22.5357 0H22.5064L22.5259 0Z" fill="white"/>
</mask>
<g mask="url(#mask4_4_2072)">
<path d="M37.8652 0H8.68985V19.0344H37.8652V0Z" fill="url(#paint4_linear_4_2072)"/>
</g>
<mask id="mask5_4_2072" style="mask-type:luminance" maskUnits="userSpaceOnUse" x="7" y="8" width="16" height="17">
<path d="M7.30359 14.5078C7.30359 14.666 7.30359 14.8243 7.30359 14.972C7.30359 20.4376 11.3948 24.8796 16.4526 24.9007C18.8351 24.9007 21.0027 23.9195 22.6431 22.3157L17.097 16.312C16.2866 16.7763 15.3688 17.0401 14.3924 17.0401C11.2483 17.0401 8.69986 14.2757 8.70963 10.8887C8.70963 10.0024 8.88538 9.16887 9.19783 8.40918C8.22142 10.2556 7.56722 12.3342 7.31335 14.5394" fill="white"/>
</mask>
<g mask="url(#mask5_4_2072)">
<path d="M21.7979 4.64476L3.83005 9.28467L8.11478 28.6598L26.0826 24.0199L21.7979 4.64476Z" fill="url(#paint5_linear_4_2072)"/>
</g>
<mask id="mask6_4_2072" style="mask-type:luminance" maskUnits="userSpaceOnUse" x="22" y="8" width="16" height="17">
<path d="M28.277 8.43018C26.0606 8.50403 24.0296 9.42199 22.4771 10.9097L28.0524 16.945C28.8238 16.5335 29.6928 16.2908 30.6204 16.2908C33.7645 16.2908 36.3129 19.0552 36.3032 22.4527C36.3032 23.1913 36.1762 23.9088 35.9516 24.5735C36.8109 22.8853 37.4065 21.0072 37.6897 19.0341C37.6994 18.802 37.7092 18.5593 37.7092 18.3483C37.719 12.9672 33.7547 8.58844 28.8043 8.43018H28.277Z" fill="white"/>
</mask>
<g mask="url(#mask6_4_2072)">
<path d="M37.719 8.43018H22.4771V24.5841H37.719V8.43018Z" fill="url(#paint6_linear_4_2072)"/>
</g>
<path d="M69.0717 21.2185L55.1968 5.71878C54.5816 4.94854 53.5759 4.45264 52.6581 4.45264H51.3692C49.9339 4.45264 48.7622 5.69768 48.7622 7.23816V26.6102H52.8241V9.81265L66.699 25.3546C67.3141 26.1248 68.3198 26.6207 69.2474 26.6207H70.5656C71.9911 26.6207 73.1433 25.3651 73.1433 23.8036V4.45264H69.0717V21.2185Z" fill="#EB2427"/>
<path d="M77.1857 10.0237V21.0391C77.1857 24.1095 79.4802 26.5996 82.2923 26.5996H101.537V22.2103H83.2883C82.5755 22.2103 81.2671 21.6828 81.2671 20.1106V11.0577C81.2671 10.2664 81.892 8.8947 83.2883 8.8947H101.537V4.45264H82.2923C79.4802 4.45264 77.1857 6.95327 77.1857 10.0131" fill="#EB2427"/>
<path d="M129.971 10.0236C129.971 6.95322 127.676 4.46313 124.874 4.46313H105.619V26.589H124.874C127.686 26.589 129.971 24.0989 129.971 21.0391V18.8972C129.971 17.631 129.57 16.4177 128.858 15.4364C129.502 14.6978 129.971 14.1702 129.971 12.8091V10.0236ZM125.88 20.7964C125.88 21.5772 125.303 22.1997 124.591 22.1997H109.661V17.7155H124.591C125.303 17.7155 125.88 18.3485 125.88 19.1188V20.7859V20.7964ZM125.958 11.965C125.958 12.3765 125.909 13.3261 124.815 13.3261H109.661V8.81023H124.659C125.372 8.81023 125.948 9.45386 125.948 10.2557V11.9756L125.958 11.965Z" fill="#EB2427"/>
<path d="M51.1251 33.922L49.8167 31.0942H48.772V35.4835H49.6019V32.6242L50.9396 35.4835H51.9649V31.0942H51.1251V33.922Z" fill="#06519F"/>
<path d="M54.4938 31.0942L53.0877 35.4835H54.0056L54.3083 34.5234H55.6264L55.9193 35.4835H56.9055L55.4311 31.0942H54.4938ZM54.5426 33.7109L54.9429 32.3709L55.353 33.7109H54.5328H54.5426Z" fill="#06519F"/>
<path d="M57.6378 31.9172H58.7119V35.4835H59.6102V31.9172H60.6745V31.0942H57.6378V31.9172Z" fill="#06519F"/>
<path d="M62.8324 31.0942H61.9243V35.4835H62.8324V31.0942Z" fill="#06519F"/>
<path d="M65.9471 31.0205C65.4687 31.0205 65.0976 31.1577 64.8438 31.432C64.5996 31.6958 64.4727 32.0756 64.4727 32.5293V33.8588C64.4727 34.3969 64.5606 34.7978 64.7754 35.0827C65.0195 35.4204 65.4198 35.5786 65.9569 35.5786C66.4939 35.5786 66.8845 35.4098 67.1286 35.0722C67.3238 34.7873 67.4215 34.3969 67.4215 33.8588V32.5188C67.4215 32.0651 67.2946 31.6958 67.0407 31.4215C66.7868 31.1577 66.4158 31.0205 65.9569 31.0205M66.5232 32.4977V33.8799C66.5232 34.2597 66.4646 34.4497 66.4158 34.5446C66.367 34.6396 66.2596 34.7662 65.9569 34.7662C65.6542 34.7662 65.537 34.6396 65.4784 34.5446C65.4296 34.4602 65.3808 34.2703 65.3808 33.901V32.5082C65.3808 31.8963 65.6737 31.8118 65.9471 31.8118C66.1424 31.8118 66.2888 31.8752 66.3865 31.9912C66.4744 32.1073 66.5232 32.2656 66.5232 32.4871" fill="#06519F"/>
<path d="M71.4053 33.922L70.0969 31.0942H69.0521V35.4835H69.8821V32.6242L71.2198 35.4835H72.245V31.0942H71.4053V33.922Z" fill="#06519F"/>
<path d="M74.7739 31.0942L73.3679 35.4835H74.2857L74.5884 34.5234H75.8968L76.1897 35.4835H77.1759L75.7015 31.0942H74.7642H74.7739ZM74.8227 33.7109L75.2231 32.3709L75.6332 33.7109H74.8227Z" fill="#06519F"/>
<path d="M79.1971 31.0942H78.289V35.4835H80.7007V34.6711H79.1971V31.0942Z" fill="#06519F"/>
<path d="M86.3542 34.1226C86.3542 34.3125 86.3151 34.4708 86.237 34.5869C86.1589 34.7135 86.0515 34.7662 85.8855 34.7662C85.5828 34.7662 85.4852 34.6396 85.4364 34.5447C85.3875 34.4603 85.3387 34.2809 85.3387 33.9116V32.7404C85.3387 32.3395 85.3875 32.1601 85.4364 32.0651C85.4852 31.9596 85.5926 31.8225 85.8953 31.8225C86.198 31.8225 86.3151 31.9491 86.3151 32.2551V32.561H87.2232V32.1284C87.2232 31.6114 86.9986 31.01 85.9246 31.01C85.2509 31.01 84.4404 31.2843 84.4404 32.6349V33.8272C84.4404 34.3758 84.5283 34.7768 84.7138 35.0511C84.9384 35.3888 85.3387 35.5681 85.8855 35.5681C86.7838 35.5681 87.2525 35.0617 87.2525 34.1121V33.9327H86.3542V34.1121V34.1226Z" fill="#06519F"/>
<path d="M89.6252 31.0942H88.7171V35.4835H89.6252V31.0942Z" fill="#06519F"/>
<path d="M90.8653 31.9172H91.9296V35.4835H92.8279V31.9172H93.9019V31.0942H90.8653V31.9172Z" fill="#06519F"/>
<path d="M96.05 31.0942H95.1419V35.4835H96.05V31.0942Z" fill="#06519F"/>
<path d="M100.229 31.8539V31.0942H97.3975V31.9172H99.1745L97.3291 34.6605V35.4835H100.278V34.6711H98.3543L100.229 31.8539Z" fill="#06519F"/>
<path d="M102.192 33.6583H103.676V32.8459H102.192V31.9385H103.793V31.1155H101.284V35.5153H103.822V34.7029H102.192V33.6583Z" fill="#06519F"/>
<path d="M107.962 33.922L106.654 31.0942H105.599V35.4835H106.439V32.6242L107.777 35.4835H108.802V31.0942H107.962V33.922Z" fill="#06519F"/>
<path d="M115.51 33.1622C115.774 32.9723 115.901 32.6663 115.901 32.2548C115.901 31.8855 115.783 31.6006 115.53 31.4002C115.295 31.1997 114.992 31.1047 114.641 31.1047H113.079V35.5046H114.67C115.559 35.5046 116.027 35.0403 116.027 34.1857C116.027 33.7003 115.852 33.3521 115.5 33.1622M113.977 33.6054H114.387C115.041 33.6054 115.119 33.9008 115.119 34.1646C115.119 34.3229 115.071 34.4389 114.973 34.5339C114.866 34.6288 114.729 34.671 114.563 34.671H113.987V33.6054H113.977ZM114.983 32.3498C114.983 32.6558 114.856 32.7929 114.553 32.7929H113.977V31.9172H114.534C114.68 31.9172 114.797 31.9594 114.866 32.0332C114.944 32.1071 114.983 32.2126 114.983 32.3498ZM114.875 33.2044C114.875 33.2044 114.885 33.2044 114.895 33.2044C114.895 33.2044 114.885 33.2044 114.875 33.2044Z" fill="#06519F"/>
<path d="M118.488 31.0942L117.082 35.4835H118L118.303 34.5234H119.611L119.904 35.4835H120.89L119.416 31.0942H118.478H118.488ZM118.537 33.7109L118.937 32.3709L119.357 33.7109H118.537Z" fill="#06519F"/>
<path d="M124.386 33.922L123.077 31.0942H122.023V35.4835H122.862V32.6242L124.2 35.4835H125.225V31.0942H124.386V33.922Z" fill="#06519F"/>
<path d="M128.291 33.1201L129.941 31.0942H128.867L127.686 32.5503V31.0942H126.788V35.4835H127.686V33.7742L128.867 35.4835H130L128.291 33.1201Z" fill="#06519F"/>
</g>
<defs>
<linearGradient id="paint0_linear_4_2072" x1="22.2002" y1="31.2309" x2="22.1835" y2="40.1078" gradientUnits="userSpaceOnUse">
<stop stop-color="#20366A"/>
<stop offset="0.26" stop-color="#1D3B73"/>
<stop offset="0.69" stop-color="#18498B"/>
<stop offset="1" stop-color="#1357A2"/>
</linearGradient>
<linearGradient id="paint1_linear_4_2072" x1="4.17307" y1="33.9209" x2="38.8762" y2="33.9772" gradientUnits="userSpaceOnUse">
<stop stop-color="#676D94"/>
<stop offset="0.06" stop-color="#6F759A"/>
<stop offset="0.17" stop-color="#888DAB"/>
<stop offset="0.3" stop-color="#B0B3C7"/>
<stop offset="0.45" stop-color="#E6E7EE"/>
<stop offset="0.52" stop-color="white"/>
<stop offset="0.59" stop-color="#DFE1E9"/>
<stop offset="0.73" stop-color="#ACAFC4"/>
<stop offset="0.84" stop-color="#868BAA"/>
<stop offset="0.94" stop-color="#6F7599"/>
<stop offset="1" stop-color="#676D94"/>
</linearGradient>
<linearGradient id="paint2_linear_4_2072" x1="6.09211" y1="33.3841" x2="40.0309" y2="33.4391" gradientUnits="userSpaceOnUse">
<stop stop-color="#60658F"/>
<stop offset="0.17" stop-color="#9094B1"/>
<stop offset="0.52" stop-color="white"/>
<stop offset="1" stop-color="#60658F"/>
</linearGradient>
<linearGradient id="paint3_linear_4_2072" x1="18.3867" y1="32.0565" x2="24.9495" y2="14.8869" gradientUnits="userSpaceOnUse">
<stop stop-color="#0C5DAA"/>
<stop offset="0.19" stop-color="#0C5AA5"/>
<stop offset="0.41" stop-color="#0E5198"/>
<stop offset="0.63" stop-color="#114482"/>
<stop offset="0.86" stop-color="#153163"/>
<stop offset="1" stop-color="#18234C"/>
</linearGradient>
<linearGradient id="paint4_linear_4_2072" x1="23.6856" y1="3.78261" x2="23.6856" y2="16.9577" gradientUnits="userSpaceOnUse">
<stop stop-color="#EC2227"/>
<stop offset="0.16" stop-color="#E72126"/>
<stop offset="0.34" stop-color="#D81F23"/>
<stop offset="0.55" stop-color="#C01B1F"/>
<stop offset="0.76" stop-color="#9F1619"/>
<stop offset="0.98" stop-color="#750F11"/>
<stop offset="1" stop-color="#700F11"/>
</linearGradient>
<linearGradient id="paint5_linear_4_2072" x1="13.4224" y1="9.51641" x2="16.8615" y2="22.834" gradientUnits="userSpaceOnUse">
<stop stop-color="#0C5DAA"/>
<stop offset="0.17" stop-color="#0C58A3"/>
<stop offset="0.42" stop-color="#0F4C8F"/>
<stop offset="0.72" stop-color="#13396F"/>
<stop offset="1" stop-color="#18234C"/>
</linearGradient>
<linearGradient id="paint6_linear_4_2072" x1="23.7761" y1="16.7973" x2="36.7921" y2="16.7973" gradientUnits="userSpaceOnUse">
<stop stop-color="#700F11"/>
<stop offset="0.71" stop-color="#C51F21"/>
<stop offset="1" stop-color="#EA2629"/>
</linearGradient>
<clipPath id="clip0_4_2072">
<rect width="130" height="40" fill="white"/>
</clipPath>
</defs>
</svg>
