<svg width="240" height="80" viewBox="0 0 240 80" fill="none" xmlns="http://www.w3.org/2000/svg">
<mask id="mask0_13_12381" style="mask-type:luminance" maskUnits="userSpaceOnUse" x="54" y="51" width="46" height="9">
<path d="M77.0203 51.1473C64.7096 51.1473 54.7513 53.0992 54.7513 55.5366C54.7513 57.9845 64.8076 59.9786 77.2262 59.9997C89.6349 60.0314 99.701 58.0478 99.7108 55.6104C99.7108 53.1626 89.6545 51.1578 77.236 51.1367H77.0203V51.1473Z" fill="white"/>
</mask>
<g mask="url(#mask0_13_12381)">
<path d="M54.7535 51.0637L54.7375 60.0322L99.7263 60.1252L99.7423 51.1567L54.7535 51.0637Z" fill="url(#paint0_linear_13_12381)"/>
</g>
<mask id="mask1_13_12381" style="mask-type:luminance" maskUnits="userSpaceOnUse" x="60" y="51" width="35" height="5">
<path d="M76.9811 51.0942C70.1887 51.0942 64.1313 51.7062 60.1029 52.6769L60.4852 55.7262L93.8789 55.7895L94.271 52.7402C90.2034 51.7484 84.0578 51.1048 77.187 51.0942H76.9811Z" fill="white"/>
</mask>
<g mask="url(#mask1_13_12381)">
<path d="M60.0969 51.0256L60.0892 55.7842L94.267 55.8484L94.2748 51.0898L60.0969 51.0256Z" fill="url(#paint1_linear_13_12381)"/>
</g>
<mask id="mask2_13_12381" style="mask-type:luminance" maskUnits="userSpaceOnUse" x="60" y="51" width="35" height="5">
<path d="M76.9811 51.0942C70.1887 51.0942 64.1313 51.7062 60.1029 52.6769L60.4852 55.7262L93.8789 55.7895L94.271 52.7402C90.2034 51.7484 84.0578 51.1048 77.187 51.0942H76.9811Z" fill="white"/>
</mask>
<g mask="url(#mask2_13_12381)">
<path d="M60.0969 51.0256L60.0892 55.7842L94.267 55.8484L94.2748 51.0898L60.0969 51.0256Z" fill="url(#paint2_linear_13_12381)"/>
</g>
<path d="M93.8692 55.7264C93.8692 55.3571 93.5947 55.0616 93.2517 55.0405H61.0929C60.7498 55.0405 60.4656 55.3465 60.4656 55.7158C60.4656 56.0851 60.7498 56.3911 61.0929 56.3911H93.2517C93.5947 56.3911 93.8692 56.0745 93.8692 55.7158" fill="white"/>
<mask id="mask3_13_12381" style="mask-type:luminance" maskUnits="userSpaceOnUse" x="61" y="34" width="31" height="20">
<path d="M61.9652 36.5443C61.9554 45.6922 68.8262 53.1414 77.334 53.1414C83.1463 53.1519 88.2137 49.6911 90.8405 44.5738C91.0659 43.909 91.1933 43.1916 91.1933 42.4424C91.1933 39.0449 88.6449 36.2911 85.4888 36.2805C83.9108 36.2805 82.4896 36.9663 81.4506 38.0742L77.9613 41.7777C76.2852 43.698 73.9034 44.8798 71.257 44.8798C66.1798 44.8587 62.0632 40.4271 62.073 34.9511C62.073 34.8139 62.073 34.6451 62.073 34.4868C61.9946 35.1515 61.9554 35.8268 61.9554 36.5232" fill="white"/>
</mask>
<g mask="url(#mask3_13_12381)">
<path d="M65.1988 24.609L56.5011 51.0786L87.9464 63.0524L96.6441 36.5828L65.1988 24.609Z" fill="url(#paint3_linear_13_12381)"/>
</g>
<mask id="mask4_13_12381" style="mask-type:luminance" maskUnits="userSpaceOnUse" x="63" y="20" width="30" height="20">
<path d="M77.3634 20C71.6295 20 66.6307 23.3764 63.9745 28.3882C63.6609 29.1479 63.4844 29.9814 63.4844 30.8677C63.4844 34.2652 66.0328 37.0191 69.1889 37.0191C70.767 37.0191 72.198 36.3333 73.2271 35.2359L76.7165 31.5325C78.3925 29.6122 80.7743 28.4199 83.4109 28.4304C88.4881 28.4304 92.6047 32.883 92.5949 38.3485C92.5949 38.5596 92.5949 38.8023 92.5753 39.0344C92.6832 38.2325 92.742 37.4306 92.742 36.6076C92.7616 27.4492 85.8809 20.0211 77.3732 20H77.3438L77.3634 20Z" fill="white"/>
</mask>
<g mask="url(#mask4_13_12381)">
<path d="M92.7614 20H63.4744V39.0344H92.7614V20Z" fill="url(#paint4_linear_13_12381)"/>
</g>
<mask id="mask5_13_12381" style="mask-type:luminance" maskUnits="userSpaceOnUse" x="62" y="28" width="16" height="17">
<path d="M62.0828 34.5078C62.0828 34.666 62.0828 34.8243 62.0828 34.972C62.0828 40.4376 66.1897 44.8796 71.2668 44.9007C73.6584 44.9007 75.8344 43.9195 77.481 42.3157L71.9137 36.312C71.1002 36.7763 70.1789 37.0401 69.1987 37.0401C66.0426 37.0401 63.4844 34.2757 63.4942 30.8887C63.4942 30.0024 63.6707 29.1689 63.9843 28.4092C63.0042 30.2556 62.3475 32.3342 62.0926 34.5394" fill="white"/>
</mask>
<g mask="url(#mask5_13_12381)">
<path d="M76.6326 24.6448L58.596 29.2847L62.8971 48.6598L80.9337 44.0199L76.6326 24.6448Z" fill="url(#paint5_linear_13_12381)"/>
</g>
<mask id="mask6_13_12381" style="mask-type:luminance" maskUnits="userSpaceOnUse" x="77" y="28" width="16" height="17">
<path d="M83.1365 28.4302C80.9115 28.504 78.8728 29.422 77.3144 30.9097L82.9111 36.945C83.6854 36.5335 84.5577 36.2908 85.4889 36.2908C88.6449 36.2908 91.2031 39.0552 91.1933 42.4527C91.1933 43.1913 91.0659 43.9088 90.8405 44.5735C91.703 42.8853 92.3009 41.0072 92.5852 39.0341C92.595 38.802 92.6048 38.5593 92.6048 38.3483C92.6146 32.9672 88.6351 28.5884 83.6658 28.4302H83.1365Z" fill="white"/>
</mask>
<g mask="url(#mask6_13_12381)">
<path d="M92.6146 28.4302H77.3144V44.5841H92.6146V28.4302Z" fill="url(#paint6_linear_13_12381)"/>
</g>
<path d="M124.087 41.2185L110.159 25.7188C109.542 24.9485 108.532 24.4526 107.611 24.4526H106.317C104.876 24.4526 103.7 25.6977 103.7 27.2382V46.6102H107.778V29.8127L121.705 45.3546C122.323 46.1248 123.333 46.6207 124.264 46.6207H125.587C127.018 46.6207 128.174 45.3651 128.174 43.8036V24.4526H124.087V41.2185Z" fill="#EB2427"/>
<path d="M132.232 30.0237V41.0391C132.232 44.1095 134.536 46.5996 137.358 46.5996H156.677V42.2103H138.358C137.643 42.2103 136.329 41.6828 136.329 40.1106V31.0577C136.329 30.2664 136.957 28.8947 138.358 28.8947H156.677V24.4526H137.358C134.536 24.4526 132.232 26.9533 132.232 30.0131" fill="#EB2427"/>
<path d="M185.219 30.0236C185.219 26.9532 182.916 24.4631 180.103 24.4631H160.774V46.589H180.103C182.926 46.589 185.219 44.0989 185.219 41.0391V38.8972C185.219 37.631 184.817 36.4177 184.102 35.4364C184.749 34.6978 185.219 34.1702 185.219 32.8091V30.0236ZM181.112 40.7964C181.112 41.5772 180.534 42.1997 179.819 42.1997H164.832V37.7155H179.819C180.534 37.7155 181.112 38.3485 181.112 39.1188V40.7859V40.7964ZM181.191 31.965C181.191 32.3765 181.142 33.3261 180.044 33.3261H164.832V28.8102H179.887C180.603 28.8102 181.181 29.4539 181.181 30.2557V31.9756L181.191 31.965Z" fill="#EB2427"/>
<path d="M106.072 53.922L104.759 51.0942H103.71V55.4835H104.543V52.6242L105.886 55.4835H106.915V51.0942H106.072V53.922Z" fill="#06519F"/>
<path d="M109.454 51.0942L108.042 55.4835H108.963L109.267 54.5234H110.591L110.885 55.4835H111.875L110.395 51.0942H109.454ZM109.503 53.7109L109.904 52.3709L110.316 53.7109H109.493H109.503Z" fill="#06519F"/>
<path d="M112.61 51.9172H113.688V55.4835H114.59V51.9172H115.658V51.0942H112.61V51.9172Z" fill="#06519F"/>
<path d="M117.824 51.0942H116.913V55.4835H117.824V51.0942Z" fill="#06519F"/>
<path d="M120.951 51.0205C120.47 51.0205 120.098 51.1577 119.843 51.432C119.598 51.6958 119.471 52.0756 119.471 52.5293V53.8588C119.471 54.3969 119.559 54.7978 119.775 55.0827C120.02 55.4204 120.421 55.5786 120.961 55.5786C121.5 55.5786 121.892 55.4098 122.137 55.0722C122.333 54.7873 122.431 54.3969 122.431 53.8588V52.5188C122.431 52.0651 122.303 51.6958 122.048 51.4215C121.794 51.1577 121.421 51.0205 120.961 51.0205M121.529 52.4977V53.8799C121.529 54.2597 121.47 54.4497 121.421 54.5446C121.372 54.6396 121.264 54.7662 120.961 54.7662C120.657 54.7662 120.539 54.6396 120.48 54.5446C120.431 54.4602 120.382 54.2703 120.382 53.901V52.5082C120.382 51.8963 120.676 51.8118 120.951 51.8118C121.147 51.8118 121.294 51.8752 121.392 51.9912C121.48 52.1073 121.529 52.2656 121.529 52.4871" fill="#06519F"/>
<path d="M126.43 53.922L125.116 51.0942H124.068V55.4835H124.901V52.6242L126.244 55.4835H127.273V51.0942H126.43V53.922Z" fill="#06519F"/>
<path d="M129.811 51.0942L128.4 55.4835H129.321L129.625 54.5234H130.938L131.233 55.4835H132.222L130.742 51.0942H129.802H129.811ZM129.86 53.7109L130.262 52.3709L130.674 53.7109H129.86Z" fill="#06519F"/>
<path d="M134.251 51.0942H133.34V55.4835H135.761V54.6711H134.251V51.0942Z" fill="#06519F"/>
<path d="M141.436 54.1226C141.436 54.3125 141.397 54.4708 141.318 54.5869C141.24 54.7135 141.132 54.7662 140.965 54.7662C140.662 54.7662 140.564 54.6396 140.515 54.5447C140.466 54.4603 140.417 54.2809 140.417 53.9116V52.7404C140.417 52.3395 140.466 52.1601 140.515 52.0651C140.564 51.9596 140.671 51.8225 140.975 51.8225C141.279 51.8225 141.397 51.9491 141.397 52.2551V52.561H142.308V52.1284C142.308 51.6114 142.083 51.01 141.005 51.01C140.328 51.01 139.515 51.2843 139.515 52.6349V53.8272C139.515 54.3758 139.603 54.7768 139.789 55.0511C140.015 55.3888 140.417 55.5681 140.965 55.5681C141.867 55.5681 142.338 55.0617 142.338 54.1121V53.9327H141.436V54.1121V54.1226Z" fill="#06519F"/>
<path d="M144.719 51.0942H143.808V55.4835H144.719V51.0942Z" fill="#06519F"/>
<path d="M145.964 51.9172H147.033V55.4835H147.934V51.9172H149.013V51.0942H145.964V51.9172Z" fill="#06519F"/>
<path d="M151.169 51.0942H150.257V55.4835H151.169V51.0942Z" fill="#06519F"/>
<path d="M155.364 51.8539V51.0942H152.521V51.9172H154.305L152.453 54.6605V55.4835H155.413V54.6711H153.482L155.364 51.8539Z" fill="#06519F"/>
<path d="M157.334 53.6583H158.824V52.8459H157.334V51.9385H158.941V51.1155H156.422V55.5153H158.971V54.7029H157.334V53.6583Z" fill="#06519F"/>
<path d="M163.127 53.922L161.813 51.0942H160.755V55.4835H161.598V52.6242L162.94 55.4835H163.97V51.0942H163.127V53.922Z" fill="#06519F"/>
<path d="M170.703 53.1622C170.968 52.9723 171.095 52.6663 171.095 52.2548C171.095 51.8855 170.978 51.6006 170.723 51.4002C170.488 51.1997 170.184 51.1047 169.831 51.1047H168.263V55.5046H169.86C170.752 55.5046 171.223 55.0403 171.223 54.1857C171.223 53.7003 171.046 53.3521 170.693 53.1622M169.164 53.6054H169.576C170.233 53.6054 170.311 53.9008 170.311 54.1646C170.311 54.3229 170.262 54.4389 170.164 54.5339C170.056 54.6288 169.919 54.671 169.752 54.671H169.174V53.6054H169.164ZM170.174 52.3498C170.174 52.6558 170.047 52.7929 169.743 52.7929H169.164V51.9172H169.723C169.87 51.9172 169.988 51.9594 170.056 52.0332C170.135 52.1071 170.174 52.2126 170.174 52.3498ZM170.066 53.2044C170.066 53.2044 170.076 53.2044 170.086 53.2044C170.086 53.2044 170.076 53.2044 170.066 53.2044Z" fill="#06519F"/>
<path d="M173.693 51.0942L172.281 55.4835H173.203L173.507 54.5234H174.82L175.114 55.4835H176.104L174.624 51.0942H173.683H173.693ZM173.742 53.7109L174.144 52.3709L174.565 53.7109H173.742Z" fill="#06519F"/>
<path d="M179.613 53.922L178.299 51.0942H177.241V55.4835H178.084V52.6242L179.427 55.4835H180.456V51.0942H179.613V53.922Z" fill="#06519F"/>
<path d="M183.533 53.1201L185.19 51.0942H184.112L182.926 52.5503V51.0942H182.024V55.4835H182.926V53.7742L184.112 55.4835H185.249L183.533 53.1201Z" fill="#06519F"/>
<defs>
<linearGradient id="paint0_linear_13_12381" x1="77.0364" y1="51.2311" x2="77.0197" y2="60.108" gradientUnits="userSpaceOnUse">
<stop stop-color="#20366A"/>
<stop offset="0.26" stop-color="#1D3B73"/>
<stop offset="0.69" stop-color="#18498B"/>
<stop offset="1" stop-color="#1357A2"/>
</linearGradient>
<linearGradient id="paint1_linear_13_12381" x1="58.9403" y1="53.9209" x2="93.7763" y2="53.9774" gradientUnits="userSpaceOnUse">
<stop stop-color="#676D94"/>
<stop offset="0.06" stop-color="#6F759A"/>
<stop offset="0.17" stop-color="#888DAB"/>
<stop offset="0.3" stop-color="#B0B3C7"/>
<stop offset="0.45" stop-color="#E6E7EE"/>
<stop offset="0.52" stop-color="white"/>
<stop offset="0.59" stop-color="#DFE1E9"/>
<stop offset="0.73" stop-color="#ACAFC4"/>
<stop offset="0.84" stop-color="#868BAA"/>
<stop offset="0.94" stop-color="#6F7599"/>
<stop offset="1" stop-color="#676D94"/>
</linearGradient>
<linearGradient id="paint2_linear_13_12381" x1="60.8667" y1="53.3841" x2="94.9354" y2="53.4393" gradientUnits="userSpaceOnUse">
<stop stop-color="#60658F"/>
<stop offset="0.17" stop-color="#9094B1"/>
<stop offset="0.52" stop-color="white"/>
<stop offset="1" stop-color="#60658F"/>
</linearGradient>
<linearGradient id="paint3_linear_13_12381" x1="73.2083" y1="52.0565" x2="79.7525" y2="34.8702" gradientUnits="userSpaceOnUse">
<stop stop-color="#0C5DAA"/>
<stop offset="0.19" stop-color="#0C5AA5"/>
<stop offset="0.41" stop-color="#0E5198"/>
<stop offset="0.63" stop-color="#114482"/>
<stop offset="0.86" stop-color="#153163"/>
<stop offset="1" stop-color="#18234C"/>
</linearGradient>
<linearGradient id="paint4_linear_13_12381" x1="78.5276" y1="23.7826" x2="78.5276" y2="36.9577" gradientUnits="userSpaceOnUse">
<stop stop-color="#EC2227"/>
<stop offset="0.16" stop-color="#E72126"/>
<stop offset="0.34" stop-color="#D81F23"/>
<stop offset="0.55" stop-color="#C01B1F"/>
<stop offset="0.76" stop-color="#9F1619"/>
<stop offset="0.98" stop-color="#750F11"/>
<stop offset="1" stop-color="#700F11"/>
</linearGradient>
<linearGradient id="paint5_linear_13_12381" x1="68.2251" y1="29.5164" x2="71.6526" y2="42.8403" gradientUnits="userSpaceOnUse">
<stop stop-color="#0C5DAA"/>
<stop offset="0.17" stop-color="#0C58A3"/>
<stop offset="0.42" stop-color="#0F4C8F"/>
<stop offset="0.72" stop-color="#13396F"/>
<stop offset="1" stop-color="#18234C"/>
</linearGradient>
<linearGradient id="paint6_linear_13_12381" x1="78.6184" y1="36.7973" x2="91.6842" y2="36.7973" gradientUnits="userSpaceOnUse">
<stop stop-color="#700F11"/>
<stop offset="0.71" stop-color="#C51F21"/>
<stop offset="1" stop-color="#EA2629"/>
</linearGradient>
</defs>
</svg>
