<svg width="240" height="80" viewBox="0 0 240 80" fill="none" xmlns="http://www.w3.org/2000/svg">
<path d="M114.667 44.9617C110.544 44.9617 107.189 41.2164 107.189 36.6131C107.189 32.0097 110.544 28.2678 114.667 28.2678C118.789 28.2678 122.144 32.0131 122.144 36.6131C122.144 41.2131 118.789 44.9617 114.667 44.9617ZM114.667 23.5198C106.802 23.5198 100.404 29.3951 100.404 36.6131C100.404 43.831 106.802 49.7097 114.667 49.7097C122.531 49.7097 128.929 43.8344 128.929 36.6131C128.929 29.3917 122.531 23.5198 114.667 23.5198Z" fill="#008C44"/>
<path d="M165.112 28.0223C168.198 28.0223 169.252 28.6583 169.252 30.9768C169.252 32.9521 168.044 33.7698 165.217 33.7698H163.551L161.848 38.4303H165.456C168.555 38.4303 170.167 39.4533 170.167 41.829C170.167 44.2047 168.434 45.2142 165.324 45.2142L161.199 45.2041V28.019H165.116L165.112 28.0223ZM176.857 41.8761C176.814 40.9104 176.578 39.9917 176.161 39.1471C175.737 38.2857 175.084 37.5319 174.216 36.9161C173.765 36.5964 173.246 36.3205 172.671 36.1018C173.62 35.6374 174.364 35.0182 174.895 34.2645C175.696 33.1203 176.067 31.7575 175.992 30.2197C175.905 28.3656 175.239 26.8749 174.004 25.7947C172.779 24.7179 170.938 24.1425 168.538 24.1357H154.475V49.0773L166.802 49.0907C168.969 49.0907 170.827 48.8249 172.324 48.2831C173.882 47.7212 175.057 46.8799 175.817 45.7863C176.575 44.6927 176.921 43.3769 176.851 41.8795L176.857 41.8761Z" fill="#008C44"/>
<path d="M151.867 42.97C150.292 44.2319 148.239 44.9957 145.998 44.9957C141.024 44.9957 136.992 41.2404 136.992 36.6135C136.992 31.9866 141.024 28.2312 145.998 28.2312C148.239 28.2312 150.292 28.995 151.867 30.2569V25.1757C149.767 24.1191 147.344 23.5134 144.766 23.5134C136.726 23.5134 130.208 29.3787 130.208 36.6101C130.208 43.8415 136.726 49.7067 144.766 49.7067C147.344 49.7067 149.767 49.1044 151.867 48.0444V42.9632V42.97Z" fill="#008C44"/>
<path d="M104.517 56.9345C104.51 56.5205 104.507 56.0999 104.503 55.6826C104.503 55.3057 104.503 54.9321 104.503 54.5451C104.503 54.2321 104.51 53.8047 104.524 53.3V53.2158H103.521V53.3C103.527 53.549 103.534 53.8653 103.541 54.3567C103.548 54.7504 103.554 55.2249 103.558 55.8037V56.0763C103.561 56.3085 103.564 56.5105 103.564 56.6821C103.46 56.4903 103.349 56.2816 103.225 56.0629C103.029 55.7061 102.841 55.3696 102.652 55.0331C102.464 54.6932 102.302 54.4004 102.158 54.1413L102.134 54.0975C101.963 53.7812 101.821 53.5153 101.69 53.2596L101.666 53.2158H100.411V53.3C100.428 53.7173 100.435 54.1413 100.445 54.5922C100.452 54.9759 100.452 55.3763 100.452 55.7835C100.452 56.2109 100.452 56.6047 100.445 56.9816C100.438 57.4191 100.431 57.8095 100.418 58.183V58.2705H101.448V58.183C101.431 57.7119 101.421 57.3686 101.417 57.0624C101.411 56.7023 101.407 56.2412 101.401 55.76L101.394 55.3326C101.394 55.1509 101.394 54.9927 101.387 54.8514L103.326 58.2739H104.534V58.1897C104.524 57.8027 104.513 57.3955 104.51 56.9412L104.517 56.9345Z" fill="#008C44"/>
<path d="M107.478 56.5607C107.445 56.8333 107.367 57.0487 107.236 57.2068C107.111 57.3583 106.97 57.4323 106.795 57.4323C106.603 57.4323 106.445 57.3684 106.307 57.2304C106.169 57.0958 106.095 56.8669 106.082 56.554C106.072 56.2376 106.115 55.9819 106.213 55.79C106.307 55.6016 106.432 55.467 106.583 55.3929C106.738 55.3122 106.913 55.2718 107.101 55.2718C107.273 55.2718 107.404 55.2852 107.498 55.3088C107.509 55.9415 107.505 56.3621 107.482 56.5641L107.478 56.5607ZM107.101 54.3699C106.825 54.3699 106.56 54.4136 106.317 54.5011C106.068 54.5886 105.853 54.7199 105.654 54.9117C105.466 55.0968 105.314 55.3357 105.213 55.6251C105.109 55.9112 105.065 56.2511 105.079 56.6314C105.096 57.0116 105.176 57.3347 105.318 57.5871C105.459 57.8395 105.644 58.028 105.863 58.1424C106.082 58.2568 106.314 58.314 106.56 58.314C106.788 58.314 107 58.2568 107.192 58.1457C107.313 58.0751 107.421 57.9775 107.515 57.8631V57.89C107.522 58.2063 107.502 58.4554 107.455 58.6371C107.408 58.8087 107.334 58.9332 107.226 59.0073C107.118 59.0847 106.963 59.1217 106.765 59.1217C106.432 59.1217 106.038 59.0275 105.597 58.8424L105.469 58.7885L105.563 59.7813L105.614 59.7981C105.799 59.8587 106.024 59.9092 106.28 59.9428C106.533 59.9798 106.782 59.9967 107.024 59.9967C107.505 59.9967 107.882 59.8822 108.138 59.6534C108.4 59.4212 108.525 59.0241 108.505 58.4722C108.471 57.0823 108.471 55.7934 108.508 54.6492V54.5819L108.444 54.5651C107.879 54.4338 107.441 54.3732 107.105 54.3732L107.101 54.3699Z" fill="#008C44"/>
<path d="M110.483 53.6902L110.736 54.0099H111.429L111.035 53.209H109.891L109.534 54.0099H110.238L110.483 53.6902Z" fill="#008C44"/>
<path d="M112.011 57.3145C112.011 56.951 112.011 56.5977 112.011 56.2308C112.015 55.8371 112.015 55.5376 112.015 55.4097C111.984 54.7164 111.537 54.3665 110.685 54.3665C110.282 54.3665 109.834 54.4405 109.359 54.5886L109.306 54.6054L109.235 55.4938L109.37 55.4198C109.511 55.3424 109.686 55.2751 109.898 55.2179C110.11 55.1607 110.312 55.127 110.5 55.127C110.931 55.127 110.988 55.302 110.995 55.4333C111.002 55.615 110.924 55.6688 110.864 55.6958C110.739 55.753 110.473 55.8438 110.1 55.965C109.693 56.0929 109.403 56.2443 109.208 56.4193C109.006 56.6044 108.909 56.8803 108.925 57.2371C108.939 57.5669 109.05 57.8394 109.255 58.0447C109.46 58.2467 109.763 58.351 110.154 58.351C110.271 58.351 110.457 58.3308 110.712 58.2904L110.77 58.2803L110.938 57.3919L110.776 57.4928C110.716 57.5298 110.591 57.577 110.325 57.5971C109.962 57.5736 109.911 57.3851 109.905 57.2472C109.895 57.0856 109.945 56.9746 110.053 56.9039C110.184 56.8198 110.379 56.7323 110.638 56.638C110.81 56.5775 110.938 56.5203 111.032 56.463C111.032 57.2236 111.029 57.7991 111.015 58.176V58.2635H112.035V58.176C112.018 57.9034 112.011 57.6173 112.008 57.3111L112.011 57.3145Z" fill="#008C44"/>
<path d="M115.959 57.6409C115.959 57.4962 115.959 57.2539 115.955 56.8703C115.955 56.554 115.955 56.2713 115.955 56.0761C115.955 55.9314 115.949 55.7597 115.942 55.5881C115.932 55.3593 115.885 55.1506 115.804 54.9723C115.717 54.7872 115.579 54.6391 115.39 54.5314C115.205 54.4237 114.966 54.3699 114.677 54.3699C114.209 54.3699 113.852 54.5314 113.617 54.8511V54.4574H112.594V54.5449C112.637 55.7194 112.634 56.9443 112.587 58.1828V58.2703H113.64V58.1828C113.64 58.0818 113.633 57.964 113.63 57.8227L113.623 57.6544C113.617 57.3986 113.617 57.227 113.613 57.0823C113.613 56.9006 113.613 56.7525 113.62 56.6213C113.627 56.4766 113.637 56.3487 113.65 56.2343C113.728 55.6554 113.963 55.3727 114.367 55.3727C114.744 55.3727 114.929 55.5915 114.953 56.0626C114.98 56.6751 114.963 57.3886 114.902 58.1828L114.895 58.2736H115.979V58.1861C115.969 57.9741 115.962 57.789 115.959 57.6443V57.6409Z" fill="#008C44"/>
<path d="M122.514 53.2965V53.2124H121.39V53.2999C121.414 53.697 121.424 54.3162 121.427 55.1441H119.56C119.56 54.9422 119.563 54.6729 119.566 54.3431C119.566 53.9595 119.57 53.5994 119.573 53.2965V53.2124H118.449L118.456 53.2999C118.49 54.0739 118.51 54.885 118.513 55.7128C118.513 56.5373 118.506 57.3719 118.49 58.1863V58.2705H119.617L119.61 58.1156C119.61 58.0046 119.603 57.8767 119.6 57.7286C119.6 57.6479 119.593 57.557 119.59 57.4628C119.59 57.3484 119.583 57.2272 119.583 57.096V57.0152C119.577 56.8166 119.573 56.6416 119.573 56.507C119.573 56.3556 119.573 56.221 119.573 56.0965H121.434C121.444 56.4566 121.451 56.8133 121.451 57.1532C121.451 57.5368 121.451 57.8733 121.434 58.183V58.2705H122.568V58.183C122.508 56.8705 122.491 55.2249 122.514 53.2999V53.2965Z" fill="#008C44"/>
<path d="M125.176 54.0974L124.779 53.209H123.605L124.345 54.0974H125.176Z" fill="#008C44"/>
<path d="M126.082 57.3145C126.078 57.0049 126.082 56.6414 126.082 56.2308C126.082 56.0087 126.082 55.827 126.085 55.689C126.085 55.5578 126.085 55.4669 126.085 55.4097C126.051 54.7164 125.607 54.3665 124.756 54.3665C124.349 54.3665 123.901 54.4405 123.426 54.5886L123.373 54.6054L123.302 55.4938L123.437 55.4198C123.575 55.3458 123.753 55.2785 123.965 55.2179C124.174 55.1607 124.375 55.127 124.564 55.127C124.998 55.127 125.055 55.302 125.059 55.4366C125.065 55.615 124.988 55.6722 124.927 55.6991C124.799 55.7563 124.537 55.8506 124.163 55.9683C123.76 56.0962 123.467 56.2477 123.272 56.4227C123.07 56.6077 122.972 56.8837 122.989 57.2404C123.002 57.5702 123.117 57.8428 123.319 58.0447C123.524 58.2467 123.827 58.351 124.214 58.351C124.332 58.351 124.517 58.3308 124.773 58.2904L124.83 58.2803L125.001 57.3919L124.84 57.4928C124.779 57.5298 124.651 57.577 124.389 57.5971C124.022 57.5736 123.972 57.3851 123.965 57.2472C123.958 57.0856 124.009 56.9746 124.116 56.9039C124.244 56.8198 124.439 56.7323 124.699 56.638C124.87 56.5775 124.998 56.5203 125.092 56.463C125.092 57.2573 125.089 57.8193 125.075 58.176V58.2635H126.095V58.176C126.078 57.9 126.072 57.6072 126.072 57.3111L126.082 57.3145Z" fill="#008C44"/>
<path d="M130.029 57.6375C130.029 57.5332 130.026 57.2909 130.026 56.8702C130.026 56.5842 130.026 56.3621 130.026 56.1972V56.076C130.026 55.9145 130.019 55.7496 130.012 55.5881C130.002 55.3592 129.955 55.1539 129.874 54.9722C129.79 54.7871 129.652 54.639 129.464 54.528C129.279 54.4203 129.036 54.3665 128.754 54.3665C128.283 54.3665 127.926 54.528 127.69 54.8443V54.4506H126.667V54.5381C126.711 55.6789 126.708 56.9039 126.661 58.176V58.2635H127.714V58.176C127.71 58.1255 127.707 58.0683 127.707 58.001C127.707 57.8967 127.7 57.7789 127.697 57.6443C127.69 57.4188 127.687 57.2303 127.687 57.0722C127.687 56.9174 127.687 56.7626 127.694 56.6145C127.7 56.4597 127.707 56.3385 127.721 56.2275C127.801 55.6486 128.037 55.366 128.437 55.366C128.814 55.366 129.003 55.5847 129.023 56.0558C129.05 56.6683 129.033 57.3818 128.969 58.176L128.962 58.2668H130.049V58.1793C130.036 57.9673 130.033 57.7856 130.029 57.6375Z" fill="#008C44"/>
<path d="M132.846 56.5607C132.816 56.8333 132.735 57.0487 132.604 57.2068C132.482 57.3583 132.338 57.4323 132.163 57.4323C131.971 57.4323 131.813 57.3684 131.675 57.2304C131.537 57.0958 131.459 56.8669 131.446 56.554C131.439 56.2376 131.48 55.9819 131.574 55.79C131.668 55.6016 131.793 55.467 131.944 55.3896C132.102 55.3088 132.274 55.2684 132.459 55.2684C132.631 55.2684 132.765 55.2819 132.856 55.3054C132.866 55.9213 132.863 56.3554 132.843 56.5607H132.846ZM132.469 54.3699C132.193 54.3699 131.927 54.4136 131.682 54.5011C131.436 54.5886 131.214 54.7266 131.019 54.9117C130.83 55.0968 130.679 55.3357 130.578 55.6251C130.473 55.9112 130.43 56.2511 130.443 56.6347C130.46 57.015 130.541 57.3347 130.679 57.5905C130.823 57.8429 131.005 58.0313 131.221 58.1457C131.439 58.2602 131.675 58.3174 131.917 58.3174C132.146 58.3174 132.358 58.2602 132.55 58.1491C132.671 58.0784 132.782 57.9808 132.873 57.8664V57.8933C132.883 58.2063 132.859 58.4554 132.812 58.6404C132.769 58.8121 132.688 58.9366 132.583 59.0106C132.476 59.088 132.321 59.125 132.122 59.125C131.789 59.125 131.396 59.0308 130.955 58.8457L130.827 58.7919L130.921 59.7846L130.971 59.8015C131.157 59.862 131.382 59.9125 131.638 59.9462C131.89 59.9832 132.139 60 132.378 60C132.859 60 133.236 59.8856 133.495 59.6568C133.758 59.4246 133.882 59.0275 133.866 58.4755C133.829 57.0756 133.832 55.79 133.869 54.6526V54.5853L133.805 54.5684C133.246 54.4405 132.795 54.3766 132.466 54.3766L132.469 54.3699Z" fill="#008C44"/>
<path d="M143.373 57.4393C143.373 57.1499 143.369 56.8302 143.373 56.46C143.373 56.0864 143.373 55.8004 143.373 55.6086C143.352 55.1913 143.225 54.8749 142.992 54.673C142.76 54.4711 142.457 54.3701 142.094 54.3701C141.781 54.3701 141.518 54.4307 141.323 54.5518C141.202 54.6292 141.094 54.7302 141.003 54.8581C141.003 54.3095 141.007 53.798 141.017 53.3V53.2158H139.98V53.3033C140.034 55.0028 140.038 56.6484 140.004 58.1897V58.2739H141.061V58.1864C141.027 57.5133 141.027 56.9412 141.054 56.4936C141.071 56.11 141.145 55.8206 141.273 55.6388C141.397 55.4638 141.559 55.3763 141.771 55.3763C141.963 55.3763 142.107 55.4268 142.201 55.5311C142.299 55.6388 142.356 55.8206 142.366 56.0763C142.393 56.6989 142.373 57.409 142.313 58.183L142.306 58.2739H143.393V58.1864C143.379 57.9373 143.373 57.6883 143.369 57.4426L143.373 57.4393Z" fill="#008C44"/>
<path d="M154.909 57.6409C154.909 57.4895 154.909 57.2303 154.909 56.8702C154.909 56.4664 154.909 56.2275 154.909 56.076C154.909 55.8775 154.902 55.726 154.899 55.5881C154.889 55.3592 154.842 55.1539 154.757 54.9722C154.673 54.7871 154.535 54.639 154.344 54.528C154.155 54.4169 153.923 54.3665 153.63 54.3665C153.162 54.3665 152.806 54.528 152.57 54.8443V54.4506H151.55V54.5381C151.591 55.7025 151.587 56.9275 151.54 58.176V58.2635H152.594V58.176C152.59 58.112 152.587 58.0414 152.587 57.9606C152.583 57.8664 152.58 57.762 152.577 57.6476C152.57 57.4222 152.567 57.2337 152.567 57.0755C152.567 56.8871 152.567 56.7424 152.573 56.6145C152.577 56.4731 152.587 56.3486 152.6 56.2275C152.681 55.6486 152.917 55.366 153.317 55.366C153.694 55.366 153.879 55.5847 153.903 56.0558C153.926 56.665 153.913 57.3784 153.852 58.176L153.845 58.2668H154.929V58.1793C154.919 57.9808 154.912 57.7923 154.909 57.6375V57.6409Z" fill="#008C44"/>
<path d="M157.726 56.5607C157.692 56.8333 157.611 57.052 157.487 57.2068C157.362 57.3583 157.217 57.4323 157.046 57.4323C156.854 57.4323 156.696 57.3684 156.558 57.2304C156.42 57.0958 156.346 56.8669 156.332 56.554C156.322 56.241 156.366 55.9819 156.46 55.79C156.554 55.6016 156.679 55.467 156.83 55.3929C156.989 55.3122 157.164 55.2718 157.349 55.2718C157.52 55.2718 157.652 55.2852 157.746 55.3088C157.756 55.9415 157.749 56.3655 157.729 56.5641L157.726 56.5607ZM157.349 54.3699C157.073 54.3699 156.81 54.4136 156.561 54.5011C156.316 54.5886 156.093 54.7266 155.898 54.9117C155.713 55.0934 155.562 55.3324 155.457 55.6251C155.356 55.9112 155.309 56.2511 155.323 56.6314C155.34 57.0116 155.42 57.3313 155.562 57.5837C155.703 57.8361 155.885 58.0246 156.104 58.139C156.322 58.2534 156.554 58.3106 156.8 58.3106C157.029 58.3106 157.241 58.2534 157.433 58.1424C157.557 58.0683 157.665 57.9741 157.759 57.8563V57.8866C157.766 58.1996 157.746 58.452 157.699 58.6337C157.652 58.8053 157.574 58.9299 157.47 59.0039C157.359 59.0813 157.204 59.1183 157.009 59.1183C156.676 59.1183 156.285 59.0241 155.841 58.839L155.71 58.7852L155.807 59.7779L155.861 59.7947C156.046 59.8553 156.272 59.9058 156.528 59.9395C156.777 59.9765 157.029 59.9933 157.271 59.9933C157.753 59.9933 158.126 59.8789 158.385 59.65C158.648 59.4178 158.772 59.0207 158.755 58.4688C158.718 57.0318 158.718 55.7799 158.759 54.6458V54.5785L158.691 54.5617C158.136 54.4338 157.685 54.3699 157.352 54.3699H157.349Z" fill="#008C44"/>
<path d="M164.291 56.4296C164.207 56.6989 164.059 56.9142 163.84 57.0825C163.628 57.2474 163.332 57.3315 162.969 57.3315H162.397L162.383 56.1503H162.622C162.922 56.1503 163.154 56.157 163.305 56.1638H163.393L163.413 55.2652H162.373L162.366 54.1581H163.319C163.564 54.1581 163.77 54.222 163.925 54.3465C164.086 54.4778 164.2 54.6393 164.271 54.8412C164.345 55.0499 164.386 55.2753 164.399 55.5143C164.412 55.8508 164.379 56.1469 164.291 56.4263V56.4296ZM164.823 53.7811C164.45 53.4042 163.965 53.2124 163.386 53.2124H161.31V53.2999C161.347 54.0706 161.364 54.7167 161.357 55.2686H160.812L160.775 56.1537H161.367C161.367 56.8873 161.36 57.5705 161.337 58.183V58.2705H163.184C163.712 58.2705 164.153 58.1527 164.497 57.9171C164.84 57.6815 165.092 57.3517 165.247 56.9378C165.395 56.5306 165.462 56.0561 165.439 55.5277C165.405 54.7436 165.2 54.1581 164.826 53.7811H164.823Z" fill="#008C44"/>
<path d="M168.057 57.1395C167.939 57.3616 167.764 57.4726 167.515 57.4726C167.29 57.4726 167.115 57.3851 166.973 57.2068C166.832 57.0217 166.751 56.7794 166.741 56.4866C166.728 56.076 166.792 55.7631 166.926 55.5544C167.058 55.3525 167.236 55.2549 167.482 55.2549C167.727 55.2549 167.892 55.3458 168.01 55.5308C168.138 55.726 168.209 55.9818 168.222 56.288C168.235 56.6212 168.178 56.9073 168.054 57.1428L168.057 57.1395ZM168.999 55.2986C168.855 55.0025 168.649 54.7737 168.387 54.6121C168.124 54.4506 167.811 54.3665 167.451 54.3665C167.091 54.3665 166.755 54.4573 166.489 54.639C166.223 54.8208 166.021 55.0732 165.897 55.3929C165.769 55.7058 165.715 56.0659 165.732 56.4597C165.742 56.7053 165.789 56.9476 165.866 57.1731C165.947 57.3986 166.058 57.6039 166.21 57.7822C166.361 57.9606 166.546 58.1019 166.768 58.2029C166.99 58.3039 167.243 58.3577 167.522 58.3577C167.926 58.3577 168.266 58.2567 168.535 58.0616C168.797 57.863 168.989 57.6039 169.104 57.2943C169.215 56.9847 169.265 56.6549 169.248 56.3082C169.222 55.928 169.137 55.5881 168.996 55.302L168.999 55.2986Z" fill="#008C44"/>
<path d="M167.397 53.6902L167.65 54.0099H168.343L167.949 53.209H166.805L166.452 54.0099H167.152L167.397 53.6902Z" fill="#008C44"/>
<path d="M173.021 57.6376C173.021 57.4996 173.021 57.2607 173.021 56.8703V56.7189C173.021 56.4328 173.018 56.2208 173.018 56.0794C173.018 55.9145 173.011 55.753 173.007 55.5982V55.5915C172.997 55.3593 172.95 55.154 172.87 54.9756C172.785 54.7939 172.647 54.6425 172.459 54.5314C172.27 54.4237 172.032 54.3699 171.746 54.3699C171.274 54.3699 170.921 54.5314 170.682 54.8477V54.454H169.659V54.5415C169.703 55.7059 169.696 56.9309 169.652 58.1794V58.2669H170.706V58.1794C170.702 58.0414 170.696 57.8664 170.689 57.651C170.685 57.4458 170.679 57.2472 170.679 57.0789C170.679 56.9107 170.679 56.7592 170.685 56.6179C170.692 56.4698 170.699 56.3453 170.716 56.2309C170.793 55.6521 171.029 55.3694 171.429 55.3694C171.809 55.3694 171.995 55.5881 172.015 56.0593C172.042 56.665 172.021 57.3751 171.961 58.1794L171.954 58.2703H173.041V58.1828C173.028 57.964 173.021 57.7857 173.021 57.6409V57.6376Z" fill="#008C44"/>
<path d="M175.838 56.5607C175.807 56.8333 175.727 57.0487 175.599 57.2068C175.474 57.3583 175.33 57.4323 175.158 57.4323C174.969 57.4323 174.808 57.3684 174.67 57.2304C174.532 57.0958 174.455 56.8669 174.441 56.554C174.431 56.241 174.475 55.9819 174.569 55.79C174.663 55.6016 174.788 55.467 174.939 55.3896C175.097 55.3088 175.269 55.2684 175.454 55.2684C175.626 55.2684 175.76 55.2819 175.851 55.3054C175.861 55.9347 175.855 56.3554 175.834 56.5607H175.838ZM176.867 54.5785L176.8 54.5617C176.242 54.4338 175.794 54.3699 175.461 54.3699C175.185 54.3699 174.919 54.4136 174.673 54.5011C174.428 54.5886 174.206 54.7266 174.01 54.9117C173.822 55.0934 173.674 55.3324 173.566 55.6251C173.465 55.9145 173.418 56.2511 173.432 56.6314C173.448 57.0083 173.526 57.3313 173.667 57.5837C173.808 57.8361 173.994 58.0246 174.209 58.139C174.428 58.2534 174.663 58.3106 174.906 58.3106C175.134 58.3106 175.35 58.2534 175.538 58.1424C175.663 58.0683 175.77 57.9741 175.861 57.8597V57.8866C175.871 58.1962 175.848 58.4486 175.801 58.6337C175.757 58.8053 175.68 58.9299 175.572 59.0039C175.464 59.0813 175.309 59.1183 175.111 59.1183C174.781 59.1183 174.387 59.0241 173.943 58.839L173.815 58.7852L173.913 59.7779L173.963 59.7947C174.152 59.8553 174.374 59.9058 174.626 59.9395C174.879 59.9765 175.131 59.9933 175.37 59.9933C175.851 59.9933 176.225 59.8789 176.487 59.65C176.75 59.4178 176.874 59.0207 176.854 58.4688C176.82 57.0722 176.82 55.7867 176.857 54.6458V54.5785H176.867Z" fill="#008C44"/>
<path d="M147.122 55.211C147.36 55.1336 147.707 54.9149 147.825 54.6457C147.936 54.3866 147.825 54.0467 147.579 53.8885C147.455 53.8077 147.33 53.7673 147.202 53.7673C147.027 53.7673 146.873 53.838 146.694 53.9423L146.634 53.9793L146.778 54.363L146.862 54.3125C146.923 54.2755 146.997 54.2519 147.054 54.2519C147.088 54.2519 147.118 54.2587 147.135 54.2721H147.138C147.233 54.3361 147.256 54.474 147.216 54.5582V54.5649C147.216 54.5649 147.202 54.5918 147.135 54.649C147.135 54.6322 147.135 54.612 147.135 54.5952V54.5077H146.109V54.5952C146.125 55.0529 146.159 56.1668 146.115 56.6144C146.078 56.9677 145.93 57.3884 145.456 57.3884C145.089 57.3884 144.9 57.1663 144.877 56.7086C144.857 56.3081 144.877 54.9082 144.89 54.5986V54.5111H143.85V54.5986C143.887 55.3154 143.881 55.8706 143.877 56.3149C143.877 56.6413 143.871 56.924 143.884 57.1798C143.921 57.9336 144.382 58.3677 145.143 58.3677C145.614 58.3677 145.954 58.2196 146.173 57.91L146.189 58.2802H147.165V58.1927C147.125 57.2572 147.111 56.2812 147.125 55.2077L147.122 55.211Z" fill="#008C44"/>
<path d="M149.858 57.3078C149.743 57.429 149.588 57.4929 149.407 57.4929C148.878 57.4929 148.663 56.9612 148.639 56.5069C148.616 56.0492 148.707 55.6891 148.898 55.4905C149.016 55.366 149.174 55.3054 149.366 55.3054C150.002 55.3054 150.107 56.0155 150.12 56.3184C150.14 56.7492 150.046 57.1093 149.858 57.3078ZM150.682 55.0228C150.807 54.942 150.978 54.8007 151.052 54.6223C151.163 54.3632 151.052 54.0266 150.807 53.8685C150.679 53.7877 150.558 53.7473 150.426 53.7473C150.255 53.7473 150.1 53.818 149.918 53.9257L149.858 53.9627L150.002 54.3463L150.09 54.2925C150.15 54.2555 150.221 54.2353 150.282 54.2353C150.315 54.2353 150.346 54.242 150.366 54.2555C150.467 54.3194 150.473 54.4641 150.44 54.5415V54.5483C150.43 54.5684 150.393 54.6156 150.292 54.6862C150.019 54.518 149.693 54.4305 149.339 54.4305C148.841 54.4305 148.417 54.5987 148.111 54.9184C147.758 55.292 147.589 55.8338 147.62 56.4934C147.663 57.3616 148.161 58.3712 149.427 58.3712C149.938 58.3712 150.346 58.2131 150.642 57.9001C151.146 57.3684 151.15 56.5641 151.136 56.3319C151.109 55.8035 150.955 55.3526 150.682 55.0194V55.0228Z" fill="#008C44"/>
<path d="M139.587 54.5821C139.577 54.3297 139.523 54.0975 139.428 53.8956C139.334 53.687 139.196 53.5187 139.021 53.4009C138.846 53.2764 138.641 53.2158 138.409 53.2158H136.403V53.3033C136.427 53.7644 136.437 54.2019 136.447 54.599C136.457 55.0398 136.464 55.4134 136.467 55.7667C136.467 56.1268 136.47 56.5273 136.467 57.0253C136.467 57.4595 136.46 57.8498 136.45 58.1864V58.2705H137.504V58.183C137.487 57.8397 137.419 54.8143 137.416 54.5216V54.1345C137.598 54.111 137.79 54.1009 137.985 54.1009C138.18 54.1009 138.321 54.1379 138.412 54.2086C138.496 54.2759 138.547 54.4172 138.557 54.6192C138.567 54.8379 138.52 55.0163 138.412 55.1576C138.156 55.4908 137.699 55.3898 137.527 55.3427L137.712 56.2244C137.712 56.2244 138.426 56.3826 138.957 56.009C139.186 55.8509 139.351 55.6388 139.452 55.3831C139.55 55.134 139.593 54.8615 139.583 54.5788L139.587 54.5821Z" fill="#008C44"/>
<path d="M63.1909 38.39C63.625 42.2934 65.4153 45.7897 68.0807 48.3909C67.7677 47.5933 67.6903 46.7487 67.8787 45.9041C68.4004 43.5654 70.7695 41.9266 74.118 41.469V30.1827C65.4658 28.729 62.6794 34.2006 63.1909 38.39Z" fill="#E39717"/>
<path d="M96.0934 34.7152C95.6593 30.8118 93.869 27.3189 91.2037 24.7144C91.5166 25.5119 91.594 26.3565 91.4056 27.2011C90.884 29.5398 88.5148 31.1786 85.1663 31.6362V42.9225C93.8219 44.3762 96.6083 38.9046 96.0968 34.7152H96.0934Z" fill="#E39717"/>
<path d="M63.5038 32.8746C65.762 29.7956 69.8003 28.0256 77.2511 30.1253C90.3421 33.8134 94.5488 25.2629 87.0879 21.7666C84.85 20.636 82.3226 20 79.6438 20C71.7657 20 65.1764 25.5018 63.5038 32.8746Z" fill="#E39717"/>
<path d="M95.7805 40.2302C93.5224 43.3092 89.484 45.0792 82.0332 42.9794C68.9422 39.2947 64.7389 47.8453 72.1964 51.3382C74.4344 52.4654 76.9617 53.1048 79.6405 53.1048C87.5187 53.1048 94.1079 47.603 95.7805 40.2302Z" fill="#E39717"/>
</svg>
