<svg width="114" height="40" viewBox="0 0 114 40" fill="none" xmlns="http://www.w3.org/2000/svg">
<g clip-path="url(#clip0_3_230)">
<path d="M51.6541 24.9617C47.522 24.9617 44.159 21.2164 44.159 16.6131C44.159 12.0097 47.522 8.26782 51.6541 8.26782C55.7862 8.26782 59.1493 12.0131 59.1493 16.6131C59.1493 21.2131 55.7862 24.9617 51.6541 24.9617ZM51.6541 3.51978C43.7711 3.51978 37.3587 9.3951 37.3587 16.6131C37.3587 23.831 43.7711 29.7097 51.6541 29.7097C59.5372 29.7097 65.9495 23.8344 65.9495 16.6131C65.9495 9.39174 59.5372 3.51978 51.6541 3.51978Z" fill="#008C44"/>
<path d="M102.218 8.02234C105.311 8.02234 106.367 8.65833 106.367 10.9768C106.367 12.9521 105.156 13.7698 102.322 13.7698H100.652L98.9456 18.4303H102.562C105.668 18.4303 107.284 19.4533 107.284 21.829C107.284 24.2047 105.547 25.2142 102.43 25.2142L98.2946 25.2041V8.01898H102.221L102.218 8.02234ZM113.99 21.8761C113.946 20.9104 113.71 19.9917 113.292 19.1471C112.867 18.2857 112.212 17.5319 111.342 16.9161C110.89 16.5964 110.37 16.3205 109.794 16.1018C110.745 15.6374 111.49 15.0182 112.023 14.2645C112.826 13.1203 113.197 11.7575 113.123 10.2197C113.035 8.36557 112.367 6.87487 111.129 5.7947C109.902 4.71789 108.057 4.14247 105.651 4.13574H91.5551V29.0773L103.911 29.0907C106.083 29.0907 107.945 28.8249 109.446 28.2831C111.008 27.7212 112.185 26.8799 112.948 25.7863C113.707 24.6927 114.054 23.3769 113.983 21.8795L113.99 21.8761Z" fill="#008C44"/>
<path d="M88.9409 22.97C87.3623 24.2319 85.3046 24.9957 83.0581 24.9957C78.0726 24.9957 74.0316 21.2404 74.0316 16.6135C74.0316 11.9866 78.0726 8.23119 83.0581 8.23119C85.3046 8.23119 87.3623 8.99505 88.9409 10.2569V5.17575C86.8361 4.11913 84.4074 3.51343 81.8236 3.51343C73.7651 3.51343 67.2313 9.37866 67.2313 16.6101C67.2313 23.8415 73.7651 29.7067 81.8236 29.7067C84.4074 29.7067 86.8361 29.1044 88.9409 28.0444V22.9632V22.97Z" fill="#008C44"/>
<path d="M41.4807 36.9345C41.474 36.5205 41.4706 36.0999 41.4673 35.6826C41.4673 35.3057 41.4673 34.9321 41.4673 34.5451C41.4673 34.2321 41.474 33.8047 41.4875 33.3V33.2158H40.4823V33.3C40.489 33.549 40.4958 33.8653 40.5025 34.3567C40.5093 34.7504 40.516 35.2249 40.5194 35.8037V36.0763C40.5228 36.3085 40.5261 36.5105 40.5261 36.6821C40.4216 36.4903 40.3103 36.2816 40.1855 36.0629C39.9898 35.7061 39.8009 35.3696 39.612 35.0331C39.4231 34.6932 39.2612 34.4004 39.1162 34.1413L39.0926 34.0975C38.9205 33.7812 38.7789 33.5153 38.6473 33.2596L38.6237 33.2158H37.3655V33.3C37.3824 33.7173 37.3891 34.1413 37.3992 34.5922C37.406 34.9759 37.406 35.3763 37.406 35.7835C37.406 36.2109 37.406 36.6047 37.3992 36.9816C37.3925 37.4191 37.3857 37.8095 37.3723 38.183V38.2705H38.4044V38.183C38.3876 37.7119 38.3775 37.3686 38.3741 37.0624C38.3673 36.7023 38.364 36.2412 38.3572 35.76L38.3505 35.3326C38.3505 35.1509 38.3505 34.9927 38.3437 34.8514L40.2867 38.2739H41.4976V38.1897C41.4875 37.8027 41.4774 37.3955 41.474 36.9412L41.4807 36.9345Z" fill="#008C44"/>
<path d="M44.4491 36.5607C44.4154 36.8333 44.3378 37.0487 44.2062 37.2068C44.0814 37.3583 43.9397 37.4323 43.7643 37.4323C43.5721 37.4323 43.4135 37.3684 43.2752 37.2304C43.1369 37.0958 43.0627 36.8669 43.0492 36.554C43.0391 36.2376 43.083 35.9819 43.1808 35.79C43.2752 35.6016 43.4 35.467 43.5518 35.3929C43.707 35.3122 43.8824 35.2718 44.0713 35.2718C44.2433 35.2718 44.3749 35.2852 44.4693 35.3088C44.4794 35.9415 44.4761 36.3621 44.4525 36.5641L44.4491 36.5607ZM44.0713 34.3699C43.7947 34.3699 43.5282 34.4136 43.2854 34.5011C43.0357 34.5886 42.8199 34.7199 42.6208 34.9117C42.4319 35.0968 42.2802 35.3357 42.179 35.6251C42.0744 35.9112 42.0305 36.2511 42.044 36.6314C42.0609 37.0116 42.1419 37.3347 42.2835 37.5871C42.4252 37.8395 42.6107 38.028 42.83 38.1424C43.0492 38.2568 43.282 38.314 43.5282 38.314C43.7576 38.314 43.9701 38.2568 44.1624 38.1457C44.2838 38.0751 44.3917 37.9775 44.4862 37.8631V37.89C44.4929 38.2063 44.4727 38.4554 44.4255 38.6371C44.3782 38.8087 44.304 38.9332 44.1961 39.0073C44.0882 39.0847 43.933 39.1217 43.734 39.1217C43.4 39.1217 43.0054 39.0275 42.5635 38.8424L42.4353 38.7885L42.5298 39.7813L42.5804 39.7981C42.7659 39.8587 42.9919 39.9092 43.2482 39.9428C43.5012 39.9798 43.7508 39.9967 43.9937 39.9967C44.4761 39.9967 44.8539 39.8822 45.1102 39.6534C45.3733 39.4212 45.4981 39.0241 45.4779 38.4722C45.4442 37.0823 45.4442 35.7934 45.4813 34.6492V34.5819L45.4172 34.5651C44.8505 34.4338 44.412 34.3732 44.0747 34.3732L44.0713 34.3699Z" fill="#008C44"/>
<path d="M47.4613 33.6902L47.7143 34.0099H48.4091L48.0145 33.209H46.8676L46.5101 34.0099H47.2151L47.4613 33.6902Z" fill="#008C44"/>
<path d="M48.9927 37.3145C48.9927 36.951 48.9927 36.5977 48.9927 36.2308C48.9961 35.8371 48.9961 35.5376 48.9961 35.4097C48.9658 34.7164 48.5171 34.3665 47.6637 34.3665C47.2589 34.3665 46.8103 34.4405 46.3347 34.5886L46.2807 34.6054L46.2099 35.4938L46.3448 35.4198C46.4865 35.3424 46.6619 35.2751 46.8744 35.2179C47.0869 35.1607 47.2893 35.127 47.4782 35.127C47.91 35.127 47.9673 35.302 47.9741 35.4333C47.9808 35.615 47.9032 35.6688 47.8425 35.6958C47.7177 35.753 47.4512 35.8438 47.0768 35.965C46.6686 36.0929 46.3786 36.2443 46.1829 36.4193C45.9805 36.6044 45.8827 36.8803 45.8996 37.2371C45.9131 37.5669 46.0244 37.8394 46.2301 38.0447C46.4359 38.2467 46.7395 38.351 47.1308 38.351C47.2488 38.351 47.4344 38.3308 47.6907 38.2904L47.7481 38.2803L47.9167 37.3919L47.7548 37.4928C47.6941 37.5298 47.5693 37.577 47.3028 37.5971C46.9385 37.5736 46.8879 37.3851 46.8812 37.2472C46.871 37.0856 46.9216 36.9746 47.0296 36.9039C47.1611 36.8198 47.3568 36.7323 47.6165 36.638C47.7885 36.5775 47.9167 36.5203 48.0112 36.463C48.0112 37.2236 48.0078 37.7991 47.9943 38.176V38.2635H49.0164V38.176C48.9995 37.9034 48.9927 37.6173 48.9894 37.3111L48.9927 37.3145Z" fill="#008C44"/>
<path d="M52.9494 37.6409C52.9494 37.4962 52.9494 37.2539 52.9461 36.8703C52.9461 36.554 52.9461 36.2713 52.9461 36.0761C52.9461 35.9314 52.9393 35.7597 52.9326 35.5881C52.9225 35.3593 52.8752 35.1506 52.7943 34.9723C52.7066 34.7872 52.5683 34.6391 52.3794 34.5314C52.1939 34.4237 51.9544 34.3699 51.6643 34.3699C51.1954 34.3699 50.8379 34.5314 50.6017 34.8511V34.4574H49.5763V34.5449C49.6201 35.7194 49.6168 36.9443 49.5695 38.1828V38.2703H50.6253V38.1828C50.6253 38.0818 50.6186 37.964 50.6152 37.8227L50.6085 37.6544C50.6017 37.3986 50.6017 37.227 50.5984 37.0823C50.5984 36.9006 50.5984 36.7525 50.6051 36.6213C50.6119 36.4766 50.622 36.3487 50.6355 36.2343C50.713 35.6554 50.9492 35.3727 51.3539 35.3727C51.7317 35.3727 51.9173 35.5915 51.9409 36.0626C51.9679 36.6751 51.951 37.3886 51.8903 38.1828L51.8835 38.2736H52.9697V38.1861C52.9596 37.9741 52.9528 37.789 52.9494 37.6443V37.6409Z" fill="#008C44"/>
<path d="M59.5203 33.2965V33.2124H58.3937V33.2999C58.4173 33.697 58.4274 34.3162 58.4308 35.1441H56.5587C56.5587 34.9422 56.5621 34.6729 56.5654 34.3431C56.5654 33.9595 56.5688 33.5994 56.5722 33.2965V33.2124H55.4456L55.4523 33.2999C55.486 34.0739 55.5063 34.885 55.5096 35.7128C55.5096 36.5373 55.5029 37.3719 55.486 38.1863V38.2705H56.616L56.6093 38.1156C56.6093 38.0046 56.6025 37.8767 56.5992 37.7286C56.5992 37.6479 56.5924 37.557 56.5891 37.4628C56.5891 37.3484 56.5823 37.2272 56.5823 37.096V37.0152C56.5756 36.8166 56.5722 36.6416 56.5722 36.507C56.5722 36.3556 56.5722 36.221 56.5722 36.0965H58.4375C58.4477 36.4566 58.4544 36.8133 58.4544 37.1532C58.4544 37.5368 58.4544 37.8733 58.4375 38.183V38.2705H59.5743V38.183C59.5136 36.8705 59.4967 35.2249 59.5203 33.2999V33.2965Z" fill="#008C44"/>
<path d="M62.1885 34.0974L61.7904 33.209H60.6132L61.3553 34.0974H62.1885Z" fill="#008C44"/>
<path d="M63.0959 37.3145C63.0925 37.0049 63.0959 36.6414 63.0959 36.2308C63.0959 36.0087 63.0959 35.827 63.0992 35.689C63.0992 35.5578 63.0992 35.4669 63.0992 35.4097C63.0655 34.7164 62.6203 34.3665 61.7668 34.3665C61.3587 34.3665 60.9101 34.4405 60.4345 34.5886L60.3805 34.6054L60.3096 35.4938L60.4446 35.4198C60.5829 35.3458 60.7616 35.2785 60.9742 35.2179C61.1833 35.1607 61.3857 35.127 61.5746 35.127C62.0097 35.127 62.0671 35.302 62.0704 35.4366C62.0772 35.615 61.9996 35.6722 61.9389 35.6991C61.8107 35.7563 61.5476 35.8506 61.1732 35.9683C60.7684 36.0962 60.4749 36.2477 60.2793 36.4227C60.0769 36.6077 59.9791 36.8837 59.9959 37.2404C60.0094 37.5702 60.1241 37.8428 60.3265 38.0447C60.5323 38.2467 60.8359 38.351 61.2238 38.351C61.3418 38.351 61.5274 38.3308 61.7837 38.2904L61.8411 38.2803L62.0131 37.3919L61.8512 37.4928C61.7905 37.5298 61.6623 37.577 61.3992 37.5971C61.0315 37.5736 60.9809 37.3851 60.9742 37.2472C60.9674 37.0856 61.018 36.9746 61.126 36.9039C61.2541 36.8198 61.4498 36.7323 61.7095 36.638C61.8815 36.5775 62.0097 36.5203 62.1042 36.463C62.1042 37.2573 62.1008 37.8193 62.0873 38.176V38.2635H63.1094V38.176C63.0925 37.9 63.0857 37.6072 63.0857 37.3111L63.0959 37.3145Z" fill="#008C44"/>
<path d="M67.0525 37.6375C67.0525 37.5332 67.0492 37.2909 67.0492 36.8702C67.0492 36.5842 67.0492 36.3621 67.0492 36.1972V36.076C67.0492 35.9145 67.0424 35.7496 67.0357 35.5881C67.0256 35.3592 66.9783 35.1539 66.8974 34.9722C66.8131 34.7871 66.6748 34.639 66.4859 34.528C66.3003 34.4203 66.0575 34.3665 65.7741 34.3665C65.3019 34.3665 64.9443 34.528 64.7082 34.8443V34.4506H63.6828V34.5381C63.7266 35.6789 63.7232 36.9039 63.676 38.176V38.2635H64.7318V38.176C64.7284 38.1255 64.7251 38.0683 64.7251 38.001C64.7251 37.8967 64.7183 37.7789 64.715 37.6443C64.7082 37.4188 64.7048 37.2303 64.7048 37.0722C64.7048 36.9174 64.7048 36.7626 64.7116 36.6145C64.7183 36.4597 64.7251 36.3385 64.7386 36.2275C64.8195 35.6486 65.0556 35.366 65.457 35.366C65.8348 35.366 66.0237 35.5847 66.044 36.0558C66.071 36.6683 66.0541 37.3818 65.99 38.176L65.9833 38.2668H67.0728V38.1793C67.0593 37.9673 67.0559 37.7856 67.0525 37.6375Z" fill="#008C44"/>
<path d="M69.8759 36.5607C69.8455 36.8333 69.7646 37.0487 69.633 37.2068C69.5116 37.3583 69.3665 37.4323 69.1911 37.4323C68.9989 37.4323 68.8403 37.3684 68.702 37.2304C68.5637 37.0958 68.4862 36.8669 68.4727 36.554C68.4659 36.2376 68.5064 35.9819 68.6008 35.79C68.6953 35.6016 68.8201 35.467 68.9719 35.3896C69.1304 35.3088 69.3025 35.2684 69.488 35.2684C69.66 35.2684 69.7949 35.2819 69.886 35.3054C69.8961 35.9213 69.8928 36.3554 69.8725 36.5607H69.8759ZM69.4981 34.3699C69.2215 34.3699 68.955 34.4136 68.7088 34.5011C68.4625 34.5886 68.2399 34.7266 68.0443 34.9117C67.8554 35.0968 67.7036 35.3357 67.6024 35.6251C67.4978 35.9112 67.454 36.2511 67.4675 36.6347C67.4843 37.015 67.5653 37.3347 67.7036 37.5905C67.8486 37.8429 68.0308 38.0313 68.2467 38.1457C68.4659 38.2602 68.702 38.3174 68.9449 38.3174C69.1743 38.3174 69.3868 38.2602 69.5791 38.1491C69.7005 38.0784 69.8118 37.9808 69.9029 37.8664V37.8933C69.913 38.2063 69.8894 38.4554 69.8422 38.6404C69.7983 38.8121 69.7174 38.9366 69.6128 39.0106C69.5048 39.088 69.3497 39.125 69.1507 39.125C68.8167 39.125 68.4221 39.0308 67.9802 38.8457L67.852 38.7919L67.9464 39.7846L67.997 39.8015C68.1826 39.862 68.4086 39.9125 68.6649 39.9462C68.9179 39.9832 69.1675 40 69.407 40C69.8894 40 70.2672 39.8856 70.5269 39.6568C70.79 39.4246 70.9148 39.0275 70.898 38.4755C70.8608 37.0756 70.8642 35.79 70.9013 34.6526V34.5853L70.8372 34.5684C70.2773 34.4405 69.8253 34.3766 69.4947 34.3766L69.4981 34.3699Z" fill="#008C44"/>
<path d="M80.427 37.4393C80.427 37.1499 80.4237 36.8302 80.427 36.46C80.427 36.0864 80.427 35.8004 80.427 35.6086C80.4068 35.1913 80.2786 34.8749 80.0459 34.673C79.8131 34.4711 79.5096 34.3701 79.1453 34.3701C78.8315 34.3701 78.5684 34.4307 78.3728 34.5518C78.2514 34.6292 78.1434 34.7302 78.0524 34.8581C78.0524 34.3095 78.0557 33.798 78.0658 33.3V33.2158H77.0269V33.3033C77.0809 35.0028 77.0843 36.6484 77.0505 38.1897V38.2739H78.1097V38.1864C78.076 37.5133 78.076 36.9412 78.1029 36.4936C78.1198 36.11 78.194 35.8206 78.3222 35.6388C78.447 35.4638 78.6089 35.3763 78.8214 35.3763C79.0137 35.3763 79.1587 35.4268 79.2532 35.5311C79.351 35.6388 79.4084 35.8206 79.4185 36.0763C79.4455 36.6989 79.4252 37.409 79.3645 38.183L79.3578 38.2739H80.4473V38.1864C80.4338 37.9373 80.427 37.6883 80.4237 37.4426L80.427 37.4393Z" fill="#008C44"/>
<path d="M91.9902 37.6409C91.9902 37.4895 91.9902 37.2303 91.9902 36.8702C91.9902 36.4664 91.9902 36.2275 91.9902 36.076C91.9902 35.8775 91.9835 35.726 91.9801 35.5881C91.97 35.3592 91.9228 35.1539 91.8384 34.9722C91.7541 34.7871 91.6158 34.639 91.4235 34.528C91.2346 34.4169 91.0019 34.3665 90.7084 34.3665C90.2396 34.3665 89.882 34.528 89.6459 34.8443V34.4506H88.6238V34.5381C88.6643 35.7025 88.6609 36.9275 88.6137 38.176V38.2635H89.6695V38.176C89.6661 38.112 89.6628 38.0414 89.6628 37.9606C89.6594 37.8664 89.656 37.762 89.6526 37.6476C89.6459 37.4222 89.6425 37.2337 89.6425 37.0755C89.6425 36.8871 89.6425 36.7424 89.6493 36.6145C89.6526 36.4731 89.6628 36.3486 89.6762 36.2275C89.7572 35.6486 89.9933 35.366 90.3947 35.366C90.7725 35.366 90.958 35.5847 90.9817 36.0558C91.0053 36.665 90.9918 37.3784 90.9311 38.176L90.9243 38.2668H92.0105V38.1793C92.0003 37.9808 91.9936 37.7923 91.9902 37.6375V37.6409Z" fill="#008C44"/>
<path d="M94.8135 36.5607C94.7798 36.8333 94.6989 37.052 94.5741 37.2068C94.4492 37.3583 94.3042 37.4323 94.1322 37.4323C93.9399 37.4323 93.7814 37.3684 93.6431 37.2304C93.5048 37.0958 93.4306 36.8669 93.4171 36.554C93.4069 36.241 93.4508 35.9819 93.5452 35.79C93.6397 35.6016 93.7645 35.467 93.9163 35.3929C94.0748 35.3122 94.2502 35.2718 94.4358 35.2718C94.6078 35.2718 94.7393 35.2852 94.8338 35.3088C94.8439 35.9415 94.8372 36.3655 94.8169 36.5641L94.8135 36.5607ZM94.4358 34.3699C94.1592 34.3699 93.896 34.4136 93.6464 34.5011C93.4002 34.5886 93.1776 34.7266 92.9819 34.9117C92.7964 35.0934 92.6446 35.3324 92.54 35.6251C92.4389 35.9112 92.3916 36.2511 92.4051 36.6314C92.422 37.0116 92.5029 37.3313 92.6446 37.5837C92.7863 37.8361 92.9684 38.0246 93.1877 38.139C93.4069 38.2534 93.6397 38.3106 93.8859 38.3106C94.1153 38.3106 94.3278 38.2534 94.5201 38.1424C94.6449 38.0683 94.7528 37.9741 94.8473 37.8563V37.8866C94.854 38.1996 94.8338 38.452 94.7866 38.6337C94.7393 38.8053 94.6618 38.9299 94.5572 39.0039C94.4459 39.0813 94.2907 39.1183 94.0951 39.1183C93.7611 39.1183 93.3698 39.0241 92.9246 38.839L92.793 38.7852L92.8909 39.7779L92.9448 39.7947C93.1303 39.8553 93.3563 39.9058 93.6127 39.9395C93.8623 39.9765 94.1153 39.9933 94.3582 39.9933C94.8405 39.9933 95.215 39.8789 95.4747 39.65C95.7378 39.4178 95.8626 39.0207 95.8457 38.4688C95.8086 37.0318 95.8086 35.7799 95.8491 34.6458V34.5785L95.7816 34.5617C95.2251 34.4338 94.7731 34.3699 94.4391 34.3699H94.4358Z" fill="#008C44"/>
<path d="M101.395 36.4296C101.31 36.6989 101.162 36.9142 100.943 37.0825C100.73 37.2474 100.433 37.3315 100.069 37.3315H99.4955L99.482 36.1503H99.7215C100.022 36.1503 100.254 36.157 100.406 36.1638H100.494L100.514 35.2652H99.4719L99.4651 34.1581H100.42C100.666 34.1581 100.872 34.222 101.027 34.3465C101.189 34.4778 101.303 34.6393 101.374 34.8412C101.449 35.0499 101.489 35.2753 101.503 35.5143C101.516 35.8508 101.482 36.1469 101.395 36.4263V36.4296ZM101.928 33.7811C101.553 33.4042 101.067 33.2124 100.487 33.2124H98.406V33.2999C98.4431 34.0706 98.4599 34.7167 98.4532 35.2686H97.9067L97.8696 36.1537H98.4633C98.4633 36.8873 98.4566 37.5705 98.4329 38.183V38.2705H100.285C100.814 38.2705 101.256 38.1527 101.6 37.9171C101.944 37.6815 102.197 37.3517 102.353 36.9378C102.501 36.5306 102.568 36.0561 102.545 35.5277C102.511 34.7436 102.305 34.1581 101.931 33.7811H101.928Z" fill="#008C44"/>
<path d="M105.169 37.1395C105.051 37.3616 104.876 37.4726 104.626 37.4726C104.4 37.4726 104.225 37.3851 104.083 37.2068C103.941 37.0217 103.86 36.7794 103.85 36.4866C103.837 36.076 103.901 35.7631 104.036 35.5544C104.167 35.3525 104.346 35.2549 104.592 35.2549C104.839 35.2549 105.004 35.3458 105.122 35.5308C105.25 35.726 105.321 35.9818 105.334 36.288C105.348 36.6212 105.291 36.9073 105.166 37.1428L105.169 37.1395ZM106.114 35.2986C105.969 35.0025 105.763 34.7737 105.5 34.6121C105.237 34.4506 104.923 34.3665 104.562 34.3665C104.201 34.3665 103.864 34.4573 103.597 34.639C103.331 34.8208 103.128 35.0732 103.004 35.3929C102.875 35.7058 102.821 36.0659 102.838 36.4597C102.848 36.7053 102.896 36.9476 102.973 37.1731C103.054 37.3986 103.166 37.6039 103.317 37.7822C103.469 37.9606 103.655 38.1019 103.877 38.2029C104.1 38.3039 104.353 38.3577 104.633 38.3577C105.038 38.3577 105.378 38.2567 105.648 38.0616C105.911 37.863 106.104 37.6039 106.218 37.2943C106.33 36.9847 106.38 36.6549 106.363 36.3082C106.336 35.928 106.252 35.5881 106.11 35.302L106.114 35.2986Z" fill="#008C44"/>
<path d="M104.508 33.6902L104.761 34.0099H105.456L105.061 33.209H103.914L103.56 34.0099H104.262L104.508 33.6902Z" fill="#008C44"/>
<path d="M110.145 37.6376C110.145 37.4996 110.145 37.2607 110.145 36.8703V36.7189C110.145 36.4328 110.141 36.2208 110.141 36.0794C110.141 35.9145 110.134 35.753 110.131 35.5982V35.5915C110.121 35.3593 110.074 35.154 109.993 34.9756C109.908 34.7939 109.77 34.6425 109.581 34.5314C109.392 34.4237 109.153 34.3699 108.866 34.3699C108.394 34.3699 108.04 34.5314 107.8 34.8477V34.454H106.775V34.5415C106.819 35.7059 106.812 36.9309 106.768 38.1794V38.2669H107.824V38.1794C107.82 38.0414 107.814 37.8664 107.807 37.651C107.804 37.4458 107.797 37.2472 107.797 37.0789C107.797 36.9107 107.797 36.7592 107.804 36.6179C107.81 36.4698 107.817 36.3453 107.834 36.2309C107.912 35.6521 108.148 35.3694 108.549 35.3694C108.93 35.3694 109.116 35.5881 109.136 36.0593C109.163 36.665 109.143 37.3751 109.082 38.1794L109.075 38.2703H110.165V38.1828C110.151 37.964 110.145 37.7857 110.145 37.6409V37.6376Z" fill="#008C44"/>
<path d="M112.968 36.5607C112.938 36.8333 112.857 37.0487 112.728 37.2068C112.604 37.3583 112.459 37.4323 112.286 37.4323C112.098 37.4323 111.936 37.3684 111.797 37.2304C111.659 37.0958 111.581 36.8669 111.568 36.554C111.558 36.241 111.602 35.9819 111.696 35.79C111.791 35.6016 111.915 35.467 112.067 35.3896C112.226 35.3088 112.398 35.2684 112.583 35.2684C112.755 35.2684 112.89 35.2819 112.981 35.3054C112.991 35.9347 112.985 36.3554 112.964 36.5607H112.968ZM114 34.5785L113.933 34.5617C113.373 34.4338 112.924 34.3699 112.59 34.3699C112.313 34.3699 112.047 34.4136 111.801 34.5011C111.555 34.5886 111.332 34.7266 111.136 34.9117C110.947 35.0934 110.799 35.3324 110.691 35.6251C110.59 35.9145 110.543 36.2511 110.556 36.6314C110.573 37.0083 110.651 37.3313 110.792 37.5837C110.934 37.8361 111.119 38.0246 111.335 38.139C111.555 38.2534 111.791 38.3106 112.034 38.3106C112.263 38.3106 112.479 38.2534 112.668 38.1424C112.792 38.0683 112.9 37.9741 112.991 37.8597V37.8866C113.002 38.1962 112.978 38.4486 112.931 38.6337C112.887 38.8053 112.809 38.9299 112.701 39.0039C112.593 39.0813 112.438 39.1183 112.239 39.1183C111.909 39.1183 111.514 39.0241 111.069 38.839L110.941 38.7852L111.038 39.7779L111.089 39.7947C111.278 39.8553 111.501 39.9058 111.754 39.9395C112.007 39.9765 112.26 39.9933 112.499 39.9933C112.981 39.9933 113.356 39.8789 113.619 39.65C113.882 39.4178 114.007 39.0207 113.987 38.4688C113.953 37.0722 113.953 35.7867 113.99 34.6458V34.5785H114Z" fill="#008C44"/>
<path d="M84.1848 35.211C84.4243 35.1336 84.7717 34.9149 84.8898 34.6457C85.0011 34.3866 84.8897 34.0467 84.6435 33.8885C84.5187 33.8077 84.3939 33.7673 84.2657 33.7673C84.0903 33.7673 83.9352 33.838 83.7564 33.9423L83.6957 33.9793L83.8407 34.363L83.925 34.3125C83.9857 34.2755 84.06 34.2519 84.1173 34.2519C84.151 34.2519 84.1814 34.2587 84.1983 34.2721H84.2016C84.2961 34.3361 84.3197 34.474 84.2792 34.5582V34.5649C84.2792 34.5649 84.2657 34.5918 84.1983 34.649C84.1983 34.6322 84.1983 34.612 84.1983 34.5952V34.5077H83.1694V34.5952C83.1863 35.0529 83.22 36.1668 83.1762 36.6144C83.1391 36.9677 82.9907 37.3884 82.5151 37.3884C82.1474 37.3884 81.9585 37.1663 81.9349 36.7086C81.9146 36.3081 81.9349 34.9082 81.9484 34.5986V34.5111H80.9061V34.5986C80.9432 35.3154 80.9364 35.8706 80.933 36.3149C80.933 36.6413 80.9263 36.924 80.9398 37.1798C80.9769 37.9336 81.439 38.3677 82.2014 38.3677C82.6736 38.3677 83.0143 38.2196 83.2335 37.91L83.2504 38.2802H84.2286V38.1927C84.1881 37.2572 84.1746 36.2812 84.1881 35.2077L84.1848 35.211Z" fill="#008C44"/>
<path d="M86.9272 37.3078C86.8125 37.429 86.6573 37.4929 86.4752 37.4929C85.9456 37.4929 85.7297 36.9612 85.7061 36.5069C85.6825 36.0492 85.7735 35.6891 85.9658 35.4905C86.0839 35.366 86.2424 35.3054 86.4347 35.3054C87.0722 35.3054 87.1768 36.0155 87.1903 36.3184C87.2105 36.7492 87.1161 37.1093 86.9272 37.3078ZM87.7536 35.0228C87.8784 34.942 88.0504 34.8007 88.1246 34.6223C88.2359 34.3632 88.1246 34.0266 87.8784 33.8685C87.7502 33.7877 87.6288 33.7473 87.4972 33.7473C87.3252 33.7473 87.17 33.818 86.9879 33.9257L86.9272 33.9627L87.0722 34.3463L87.1599 34.2925C87.2206 34.2555 87.2915 34.2353 87.3522 34.2353C87.3859 34.2353 87.4163 34.242 87.4365 34.2555C87.5377 34.3194 87.5444 34.4641 87.5107 34.5415V34.5483C87.5006 34.5684 87.4635 34.6156 87.3623 34.6862C87.0891 34.518 86.7619 34.4305 86.4077 34.4305C85.9085 34.4305 85.4835 34.5987 85.1765 34.9184C84.8223 35.292 84.6537 35.8338 84.684 36.4934C84.7279 37.3616 85.2271 38.3712 86.4954 38.3712C87.0081 38.3712 87.4163 38.2131 87.7131 37.9001C88.2191 37.3684 88.2225 36.5641 88.209 36.3319C88.182 35.8035 88.0268 35.3526 87.7536 35.0194V35.0228Z" fill="#008C44"/>
<path d="M76.6323 34.5821C76.6222 34.3297 76.5682 34.0975 76.4737 33.8956C76.3793 33.687 76.241 33.5187 76.0656 33.4009C75.8902 33.2764 75.6844 33.2158 75.4517 33.2158H73.4413V33.3033C73.4649 33.7644 73.475 34.2019 73.4851 34.599C73.4953 35.0398 73.502 35.4134 73.5054 35.7667C73.5054 36.1268 73.5087 36.5273 73.5054 37.0253C73.5054 37.4595 73.4986 37.8498 73.4885 38.1864V38.2705H74.5443V38.183C74.5274 37.8397 74.46 34.8143 74.4566 34.5216V34.1345C74.6387 34.111 74.831 34.1009 75.0267 34.1009C75.2223 34.1009 75.364 34.1379 75.4551 34.2086C75.5394 34.2759 75.59 34.4172 75.6001 34.6192C75.6102 34.8379 75.563 35.0163 75.4551 35.1576C75.1987 35.4908 74.7399 35.3898 74.5679 35.3427L74.7534 36.2244C74.7534 36.2244 75.4685 36.3826 76.0015 36.009C76.2309 35.8509 76.3962 35.6388 76.4974 35.3831C76.5952 35.134 76.639 34.8615 76.6289 34.5788L76.6323 34.5821Z" fill="#008C44"/>
<path d="M0.0584936 18.39C0.49363 22.2934 2.28814 25.7897 4.95968 28.3909C4.64597 27.5933 4.56839 26.7487 4.75729 25.9041C5.28012 23.5654 7.65482 21.9266 11.0111 21.469V10.1827C2.33874 8.72903 -0.454225 14.2006 0.0584936 18.39Z" fill="#E39717"/>
<path d="M33.0378 14.7152C32.6026 10.8118 30.8081 7.31888 28.1366 4.71436C28.4503 5.51187 28.5279 6.35649 28.339 7.20111C27.8161 9.53979 25.4414 11.1786 22.0851 11.6362V22.9225C30.7609 24.3762 33.5538 18.9046 33.0411 14.7152H33.0378Z" fill="#E39717"/>
<path d="M0.372192 12.8746C2.63557 9.79557 6.68335 8.02557 14.1515 10.1253C27.273 13.8134 31.4895 5.26289 24.0112 1.76664C21.7681 0.635989 19.2348 0 16.5498 0C8.65327 0 2.04865 5.50181 0.372192 12.8746Z" fill="#E39717"/>
<path d="M32.7241 20.2302C30.4607 23.3092 26.4129 25.0792 18.9448 22.9794C5.82322 19.2947 1.61016 27.8453 9.08505 31.3382C11.3282 32.4654 13.8614 33.1048 16.5465 33.1048C24.443 33.1048 31.0476 27.603 32.7241 20.2302Z" fill="#E39717"/>
</g>
<defs>
<clipPath id="clip0_3_230">
<rect width="114" height="40" fill="white"/>
</clipPath>
</defs>
</svg>
