<svg width="240" height="80" viewBox="0 0 240 80" fill="none" xmlns="http://www.w3.org/2000/svg">
<path fill-rule="evenodd" clip-rule="evenodd" d="M201.006 32.947C200.562 32.947 200.118 32.9383 199.682 32.9557C199.02 32.9819 198.471 33.4436 198.323 34.0884C198.279 34.2888 198.279 34.4979 198.279 34.707C198.279 37.3731 198.279 40.0391 198.279 42.7139C198.279 42.8708 198.262 43.0276 198.253 43.289C198.07 43.0799 197.948 42.9579 197.844 42.8272C196.162 40.8581 194.472 38.8804 192.79 36.9113C191.832 35.7873 190.873 34.6721 189.924 33.5482C189.689 33.2694 189.41 33.0167 189.052 32.9906C188.469 32.947 187.885 32.9819 187.284 32.9819V48.778C187.929 48.778 188.547 48.839 189.157 48.7605C189.662 48.6996 190.028 48.3336 190.194 47.837C190.272 47.6018 190.298 47.3491 190.298 47.0964C190.298 44.4129 190.298 41.7294 190.298 39.0459C190.298 38.8891 190.316 38.7409 190.325 38.4883C190.499 38.6712 190.603 38.7845 190.708 38.9065C193.269 41.8949 195.84 44.8747 198.366 47.8893C198.933 48.5689 199.543 48.9261 200.414 48.8215C200.701 48.7867 200.989 48.8128 201.268 48.8041C201.364 48.0461 201.329 33.2868 201.233 32.9644C201.163 32.9644 201.093 32.947 201.024 32.947H201.006Z" fill="#1E417C"/>
<path fill-rule="evenodd" clip-rule="evenodd" d="M145.846 32.9472C145.681 32.9472 145.524 32.9472 145.358 32.9646C144.775 33.0343 144.243 33.5048 144.13 34.0798C144.078 34.3238 144.069 34.5765 144.069 34.8291C144.069 37.4517 144.069 40.0829 144.069 42.7054C144.069 42.8622 144.069 43.0191 144.051 43.2717C143.868 43.0801 143.764 42.9668 143.659 42.8535C141.995 40.9019 140.322 38.959 138.658 37.0073C137.674 35.8572 136.68 34.6984 135.696 33.5397C135.374 33.1563 134.973 32.9472 134.467 32.9559C134.102 32.9559 133.727 32.9559 133.361 32.9559C133.265 32.9559 133.169 32.9908 133.082 33.0082V48.7695C133.143 48.7869 133.187 48.813 133.23 48.813C133.614 48.813 133.997 48.813 134.38 48.8217C135.504 48.8827 136.166 48.0376 136.079 47.1315C136.062 47.0008 136.079 46.8701 136.079 46.7307V39.0287C136.079 38.8805 136.097 38.7237 136.097 38.5756C136.288 38.6714 136.402 38.7847 136.498 38.9067C137.648 40.2484 138.798 41.5989 139.948 42.9407C141.455 44.7006 142.962 46.4606 144.461 48.2205C144.696 48.4994 144.966 48.752 145.332 48.7782C145.899 48.813 146.474 48.7782 147.066 48.7782C147.162 48.0637 147.127 33.2783 147.031 32.9385C146.639 32.9385 146.247 32.9385 145.846 32.9385V32.9472Z" fill="#1E417C"/>
<path fill-rule="evenodd" clip-rule="evenodd" d="M165.737 40.0304C165.676 39.9956 165.633 39.9433 165.563 39.891C165.668 39.7516 165.755 39.6384 165.833 39.5164C166.835 38.044 166.783 36.1359 165.702 34.7244C164.805 33.5482 163.585 33.008 162.139 32.9732C160.257 32.9383 158.366 32.9557 156.476 32.947C156.38 32.947 156.275 32.9644 156.162 32.9732V48.8216C156.598 48.8216 157.007 48.8216 157.417 48.8216C159.307 48.8216 161.189 48.839 163.08 48.7867C164.448 48.7519 165.676 48.2814 166.626 47.2446C168.795 44.8921 168.046 41.3635 165.729 40.0304H165.737ZM159.194 35.7002C159.246 35.6741 159.272 35.648 159.299 35.648C160.222 35.6654 161.154 35.648 162.078 35.7089C162.784 35.7612 163.341 36.3101 163.481 36.9984C163.62 37.678 163.394 38.2443 162.862 38.6887C162.557 38.9414 162.174 39.0459 161.799 39.0633C160.945 39.0895 160.091 39.0633 159.246 39.0633C159.15 38.741 159.124 36.3973 159.203 35.6915L159.194 35.7002ZM163.028 46.0683C162.749 46.1119 162.47 46.138 162.191 46.138C161.32 46.1468 160.457 46.138 159.586 46.138C159.473 46.138 159.351 46.1293 159.185 46.1119V41.8166C159.307 41.7991 159.421 41.773 159.525 41.773C160.466 41.773 161.407 41.773 162.348 41.773C162.627 41.773 162.906 41.8078 163.176 41.8601C164.143 42.0344 164.883 42.8534 164.875 43.9773C164.866 45.0577 164.099 45.8941 163.019 46.0509L163.028 46.0683Z" fill="#1E417C"/>
<path fill-rule="evenodd" clip-rule="evenodd" d="M80.9018 33.6616C79.3161 32.8251 77.6171 32.5725 75.8397 32.7816C73.7486 33.0255 71.9713 33.8794 70.5859 35.4825C69.1571 37.1292 68.5559 39.0721 68.6343 41.2416C68.704 43.0974 69.2965 44.7615 70.4988 46.1904C71.8841 47.8371 73.6702 48.7258 75.7961 48.9872C77.4167 49.1789 78.9937 49.0133 80.4574 48.325C83.6027 46.8613 85.049 44.2911 85.1971 40.867C85.1536 40.4226 85.1361 39.9434 85.0577 39.4816C84.6047 36.8765 83.2455 34.8988 80.9018 33.6616ZM81.4681 43.6027C80.5533 45.3279 78.8543 46.3472 76.4322 46.356C74.8639 46.3037 73.3043 45.4063 72.3372 43.6115C71.4659 41.9996 71.4136 40.3093 72.1107 38.6278C72.8774 36.772 74.7419 35.2298 77.3557 35.4302C79.3771 35.5871 81.198 36.9462 81.8863 39.1506C82.3568 40.684 82.2261 42.1826 81.4768 43.6027H81.4681Z" fill="#1E417C"/>
<path fill-rule="evenodd" clip-rule="evenodd" d="M211.688 40.2047C213.997 37.8 216.28 35.4215 218.641 32.9732C218.432 32.9645 218.336 32.9471 218.231 32.9471C217.299 32.9471 216.376 32.9558 215.443 32.9471C214.903 32.9383 214.485 33.13 214.119 33.5221C212.446 35.3082 210.756 37.0856 209.074 38.863C208.961 38.985 208.83 39.1069 208.717 39.2202C208.682 39.2115 208.656 39.1941 208.621 39.1854V32.9732C207.985 32.9732 207.41 32.9383 206.844 32.9732C206.278 33.0168 205.763 33.5134 205.65 34.071C205.607 34.2888 205.589 34.5066 205.589 34.7332C205.589 39.3073 205.589 43.8815 205.589 48.447C205.589 48.5602 205.615 48.6735 205.624 48.7955C206.225 48.7955 206.8 48.8129 207.375 48.7955C207.68 48.7955 207.933 48.6212 208.151 48.4121C208.491 48.0897 208.63 47.6889 208.621 47.2185C208.621 45.3452 208.621 43.472 208.621 41.5988C208.621 41.4419 208.639 41.2938 208.647 41.0237C208.874 41.2677 209.013 41.4245 209.161 41.5813C211.139 43.7944 213.117 45.9987 215.077 48.2204C215.435 48.6212 215.844 48.839 216.384 48.8303C217.299 48.8129 218.214 48.8303 219.129 48.8303C219.216 48.8303 219.303 48.7955 219.442 48.7693C216.837 45.8941 214.276 43.0712 211.688 40.2222V40.2047Z" fill="#1E417C"/>
<path fill-rule="evenodd" clip-rule="evenodd" d="M180.34 37.7827C179.8 36.5106 179.242 35.2386 178.711 33.9665C178.501 33.4699 178.17 33.104 177.639 32.9907C177.134 32.8861 176.619 32.9471 176.123 32.9471C173.849 38.2444 171.601 43.4982 169.327 48.813C170.059 48.813 170.712 48.813 171.374 48.813C172.141 48.813 172.655 48.4557 172.951 47.7587C173.23 47.0791 173.553 46.4082 173.805 45.7199C173.927 45.3801 174.11 45.2843 174.459 45.293C176.288 45.3104 178.118 45.293 179.948 45.293H180.392C180.471 45.4586 180.531 45.5805 180.592 45.7199C180.88 46.3995 181.176 47.0704 181.455 47.75C181.743 48.4557 182.257 48.813 183.023 48.8042C183.598 48.8042 184.173 48.8042 184.748 48.8042C184.836 48.8042 184.914 48.7868 185.045 48.7694C184.975 48.5951 184.914 48.4383 184.853 48.2989C183.354 44.7877 181.847 41.2852 180.34 37.774V37.7827ZM175.147 42.5834C175.827 41.0064 176.48 39.4729 177.186 37.8349C177.883 39.4642 178.545 40.9889 179.225 42.5834H175.147Z" fill="#1E417C"/>
<path fill-rule="evenodd" clip-rule="evenodd" d="M126.243 38.0528C125.659 36.6849 125.066 35.317 124.483 33.9491C124.265 33.4438 123.916 33.0605 123.359 32.9908C122.888 32.9298 122.392 32.9733 121.895 32.9733C119.638 38.2358 117.391 43.4808 115.108 48.813C115.901 48.813 116.589 48.813 117.286 48.813C117.948 48.813 118.401 48.4732 118.671 47.8895C118.837 47.541 118.976 47.1837 119.124 46.8352C119.333 46.3386 119.551 45.8333 119.76 45.3454H126.19C126.295 45.5893 126.391 45.7984 126.487 46.0162C126.757 46.6348 127.018 47.2621 127.279 47.8895C127.497 48.3774 127.854 48.752 128.395 48.7869C129.188 48.8392 129.98 48.8043 130.834 48.8043C130.765 48.6388 130.712 48.5081 130.651 48.3774C129.179 44.9359 127.706 41.5031 126.234 38.0615L126.243 38.0528ZM120.937 42.6009C121.59 41.0239 122.27 39.4991 122.967 37.8611C123.69 39.4817 124.326 41.0064 125.014 42.6009H120.937Z" fill="#1E417C"/>
<path fill-rule="evenodd" clip-rule="evenodd" d="M111.056 46.1469H108.843C108.112 46.1469 107.38 46.1469 106.63 46.1469V41.6686H111.475V38.9851H109.854C109.305 38.9851 108.765 38.9851 108.216 38.9851C107.693 38.9851 107.162 39.0199 106.63 38.9502V35.6307H111.414C111.579 35.6307 111.736 35.6307 111.902 35.622C112.424 35.5784 112.912 35.195 113.025 34.6984C113.156 34.1321 113.095 33.5658 113.078 32.9907H103.607V48.8391H104.069C106.587 48.8391 109.113 48.8391 111.631 48.8391C111.797 48.8391 111.954 48.8391 112.119 48.8217C112.703 48.7694 113.217 48.3512 113.278 47.7762C113.339 47.2534 113.287 46.7306 113.287 46.1643H111.056V46.1469Z" fill="#1E417C"/>
<path fill-rule="evenodd" clip-rule="evenodd" d="M99.425 44.8922C98.9283 44.8922 98.5188 45.0752 98.1094 45.3453C96.6718 46.295 95.1122 46.5389 93.4568 46.1033C90.9649 45.4411 89.5099 43.1584 89.5535 40.7886C89.6232 36.7459 93.6397 34.2802 97.1858 36.0314C97.4907 36.1795 97.8131 36.2928 98.1442 36.3538C99.0852 36.5281 100.209 35.7962 100.375 34.8814C100.34 34.8465 100.305 34.7942 100.261 34.7594C100.166 34.6723 100.061 34.5851 99.9564 34.5067C98.7105 33.5483 97.2991 32.9994 95.7395 32.8513C93.5439 32.6422 91.5051 33.0865 89.719 34.4109C87.628 35.9704 86.5999 38.1051 86.565 40.6927C86.5215 43.8554 87.8371 46.3124 90.599 47.9068C92.2631 48.8652 94.0841 49.1266 95.9835 48.9088C97.5256 48.7345 98.9283 48.2031 100.166 47.2621C100.61 46.9223 101.028 46.5477 101.359 46.0859C100.924 45.3105 100.296 44.901 99.4163 44.8922H99.425Z" fill="#1E417C"/>
<path fill-rule="evenodd" clip-rule="evenodd" d="M40.4574 59.7996C47.8371 59.7996 54.2758 55.7831 57.7086 49.8236C44.0906 47.1662 38.3402 55.3823 26.1947 53.7792C29.8105 57.4995 34.8639 59.7996 40.4574 59.7996Z" fill="#1E417C"/>
<path fill-rule="evenodd" clip-rule="evenodd" d="M40.4574 20C29.4707 20 20.5576 28.9131 20.5576 39.8998C20.5576 41.4332 20.7319 42.9231 21.0542 44.352C22.1172 44.6569 24.4435 44.6831 29.4881 43.6288C31.6576 43.1758 34.9074 42.714 39.0721 43.5504C38.7846 42.714 38.6365 41.8253 38.6365 40.9018C38.6365 36.3624 42.3219 32.677 46.8612 32.677C51.4006 32.677 55.086 36.3624 55.086 40.9018C55.086 43.6376 53.753 46.0597 51.6968 47.5583C53.6136 47.5496 56.2361 47.7412 58.3272 48.6648C59.6254 46.0248 60.3572 43.0451 60.3572 39.9085C60.3572 28.9131 51.4441 20 40.4574 20Z" fill="#89D2DD"/>
<path fill-rule="evenodd" clip-rule="evenodd" d="M39.8214 45.1622C32.6508 43.5765 28.399 47.3491 22.3437 47.1487L22.4047 47.3142C24.4522 49.8845 26.6565 50.9736 29.0961 51.2262L30.1067 51.2872C33.9839 51.3395 38.4361 49.6057 43.7508 48.5166C42.1041 47.8457 40.7275 46.6608 39.8214 45.1622Z" fill="#0F9BD7"/>
<path d="M70.2026 58.78V53.0122H71.4049L73.8096 57.2204V53.0122H74.8813V58.78H73.6964L71.2742 54.5805V58.78H70.2026Z" fill="#1E417C"/>
<path d="M81.5465 54.7113H80.2657C80.1525 54.5545 80.0131 54.4151 79.8562 54.3018C79.6907 54.1886 79.5164 54.1014 79.3335 54.0405C79.1418 53.9795 78.9501 53.9446 78.7584 53.9446C78.2531 53.9446 77.8088 54.1102 77.4254 54.4412C77.2947 54.5545 77.1814 54.6939 77.0769 54.8507C76.9723 55.0076 76.9026 55.1818 76.8416 55.3648C76.7894 55.5478 76.7545 55.722 76.7545 55.8963C76.7545 56.1402 76.8068 56.3755 76.9026 56.6194C77.0072 56.8634 77.1379 57.0638 77.3034 57.238C77.5038 57.4471 77.7303 57.604 77.9917 57.7172C78.2531 57.8305 78.5145 57.8828 78.802 57.8828C79.1418 57.8828 79.4642 57.7869 79.7778 57.5952C80.0915 57.4036 80.3267 57.1596 80.4836 56.8459H78.0701V55.8353H81.834V55.9573C81.834 56.5062 81.6946 57.0115 81.4158 57.4558C81.137 57.9089 80.7624 58.2661 80.2919 58.5188C79.8214 58.7802 79.3161 58.9109 78.7672 58.9109C78.3577 58.9109 77.9656 58.8324 77.5909 58.6843C77.2163 58.5362 76.8852 58.3184 76.5977 58.0483C76.3102 57.7782 76.0836 57.4558 75.9268 57.0899C75.7613 56.724 75.6829 56.3319 75.6829 55.9137C75.6829 55.4955 75.7613 55.1034 75.9268 54.7375C76.0924 54.3715 76.3102 54.0492 76.5977 53.7704C76.8852 53.4916 77.2163 53.2825 77.5909 53.1256C77.9656 52.9688 78.3577 52.8904 78.7584 52.8904C79.1592 52.8904 79.5339 52.9601 79.9085 53.1082C80.2832 53.2563 80.6143 53.4654 80.9018 53.7355C81.1893 54.0056 81.4071 54.328 81.5465 54.6852V54.7113Z" fill="#1E417C"/>
<path d="M82.0606 58.78L84.4653 53.0122H85.3017L87.7325 58.78H86.5563L85.929 57.2902H83.8902L83.2542 58.78H82.0693H82.0606ZM83.7508 52.6202L84.6047 51.8186H85.2146L86.0684 52.6202H85.2233L84.9096 52.2455L84.5872 52.6202H83.7421H83.7508ZM84.2736 56.2447H85.5108L84.8922 54.5021L84.2736 56.2447Z" fill="#1E417C"/>
<path d="M88.3076 58.78V53.0122H89.5099L91.9146 57.2204V53.0122H92.9863V58.78H91.8014L89.3792 54.5805V58.78H88.3076Z" fill="#1E417C"/>
<path d="M96.271 58.78V53.0122H97.3426V55.3211H99.3988V53.0122H100.47V58.78H99.3988V56.3579H97.3426V58.78H96.271Z" fill="#1E417C"/>
<path d="M101.107 58.7801L103.511 53.0123H104.348L106.778 58.7801H105.602L104.975 57.2902H102.936L102.3 58.7801H101.115H101.107ZM102.962 51.8971L103.293 51.2959L104.592 52.0888L104.287 52.6289L102.971 51.9058L102.962 51.8971ZM103.311 56.2447H104.548L103.929 54.5022L103.311 56.2447Z" fill="#1E417C"/>
<path d="M107.354 58.78V53.0122H108.556L110.961 57.2204V53.0122H112.032V58.78H110.847L108.425 54.5805V58.78H107.354Z" fill="#1E417C"/>
<path d="M118.697 54.7113H117.417C117.303 54.5545 117.164 54.4151 117.007 54.3018C116.85 54.1886 116.667 54.1014 116.484 54.0405C116.293 53.9795 116.101 53.9446 115.909 53.9446C115.404 53.9446 114.96 54.1102 114.576 54.4412C114.446 54.5545 114.332 54.6939 114.228 54.8507C114.123 55.0076 114.054 55.1818 113.993 55.3648C113.94 55.5478 113.905 55.722 113.905 55.8963C113.905 56.1402 113.958 56.3755 114.054 56.6194C114.158 56.8634 114.289 57.0638 114.454 57.238C114.655 57.4471 114.881 57.604 115.143 57.7172C115.404 57.8305 115.665 57.8828 115.953 57.8828C116.293 57.8828 116.615 57.7869 116.929 57.5952C117.242 57.4036 117.478 57.1596 117.635 56.8459H115.221V55.8353H118.985V55.9573C118.985 56.5062 118.846 57.0115 118.567 57.4558C118.288 57.9089 117.913 58.2661 117.443 58.5188C116.972 58.7802 116.467 58.9109 115.918 58.9109C115.509 58.9109 115.117 58.8324 114.742 58.6843C114.367 58.5362 114.036 58.3184 113.749 58.0483C113.461 57.7782 113.235 57.4558 113.078 57.0899C112.912 56.724 112.834 56.3319 112.834 55.9137C112.834 55.4955 112.912 55.1034 113.078 54.7375C113.235 54.3715 113.461 54.0492 113.749 53.7704C114.036 53.4916 114.367 53.2825 114.742 53.1256C115.117 52.9688 115.509 52.8904 115.909 52.8904C116.31 52.8904 116.685 52.9601 117.059 53.1082C117.434 53.2563 117.765 53.4654 118.053 53.7355C118.34 54.0056 118.558 54.328 118.697 54.6852V54.7113Z" fill="#1E417C"/>
<path d="M122.453 58.78V54.049H121.398V53.0122H124.605V54.049H123.524V58.78H122.453Z" fill="#1E417C"/>
<path d="M125.154 58.78V53.0122H126.609L128.151 57.4208L129.719 53.0122H131.174V58.78H130.102V54.4585L128.613 58.78H127.706L126.217 54.4585V58.78H125.145H125.154Z" fill="#1E417C"/>
<path d="M134.938 58.78V54.049H133.884V53.0122H137.09V54.049H136.01V58.78H134.938Z" fill="#1E417C"/>
<path d="M137.63 58.78V53.0122H138.833L141.237 57.2204V53.0122H142.309V58.78H141.124L138.702 54.5805V58.78H137.63Z" fill="#1E417C"/>
<path d="M143.407 58.78V53.0122H144.478V55.3211H146.535V53.0122H147.606V58.78H146.535V56.3579H144.478V58.78H143.407Z" fill="#1E417C"/>
<path d="M148.721 58.78V53.0122H149.793V55.3211H151.849V53.0122H152.921V58.78H151.849V56.3579H149.793V58.78H148.721Z" fill="#1E417C"/>
<path d="M156.214 58.78V53.0122H157.669L159.212 57.4208L160.78 53.0122H162.235V58.78H161.163V54.4585L159.673 58.78H158.767L157.277 54.4585V58.78H156.206H156.214Z" fill="#1E417C"/>
<path d="M163.812 58.78V54.049H162.758V53.0122H165.964V54.049H164.883V58.78H163.812Z" fill="#1E417C"/>
<path d="M168.281 58.78L166.042 53.0122H167.166L168.717 57.4034L170.268 53.0122H171.392L169.161 58.78H168.281Z" fill="#1E417C"/>
<path d="M175.722 58.78H174.485V56.2795H173.736V55.4518H174.485V53.0122H175.696C175.931 53.0122 176.158 53.0209 176.376 53.0471C176.602 53.0645 176.811 53.0993 177.003 53.1429C177.195 53.1865 177.395 53.2562 177.587 53.3433C177.778 53.4304 177.961 53.5437 178.118 53.6831C178.432 53.9445 178.667 54.2756 178.841 54.685C179.015 55.0945 179.103 55.504 179.103 55.9222C179.103 56.1226 179.076 56.323 179.033 56.5321C178.989 56.7412 178.92 56.9329 178.833 57.1333C178.745 57.325 178.641 57.508 178.519 57.6735C178.397 57.839 178.257 57.9872 178.101 58.1266C177.787 58.3879 177.438 58.5709 177.055 58.658C176.672 58.7452 176.219 58.7887 175.705 58.7887L175.722 58.78ZM176.463 55.4605V56.2882H175.557V57.7519H175.687C175.914 57.7519 176.123 57.7519 176.306 57.7258C176.489 57.6996 176.672 57.6735 176.846 57.6125C177.029 57.5515 177.195 57.4644 177.343 57.3511C177.56 57.1856 177.735 56.9765 177.857 56.7238C177.979 56.4712 178.04 56.2098 178.04 55.9222C178.04 55.7219 178.014 55.5302 177.953 55.3385C177.892 55.1468 177.804 54.9726 177.691 54.807C177.578 54.6415 177.438 54.5108 177.273 54.3975C177.055 54.2494 176.82 54.1536 176.567 54.11C176.315 54.0752 176.001 54.049 175.635 54.049H175.557V55.4605H176.463Z" fill="#1E417C"/>
<path d="M179.477 58.78L181.882 53.0122H182.718L185.149 58.78H183.973L183.346 57.2901H181.307L180.671 58.78H179.486H179.477ZM181.69 56.2533H182.927L182.309 54.5108L181.69 56.2533ZM181.899 59.9998V59.2505H182.727V59.9998H181.899Z" fill="#1E417C"/>
<path d="M185.733 58.78V53.0122H186.805V58.78H185.733Z" fill="#1E417C"/>
<path d="M190.098 58.78V53.0122H191.309C191.544 53.0122 191.771 53.0209 191.989 53.0471C192.206 53.0732 192.424 53.0993 192.616 53.1429C192.808 53.1865 193.008 53.2562 193.2 53.3433C193.391 53.4304 193.566 53.5437 193.731 53.6831C194.045 53.9445 194.28 54.2756 194.463 54.685C194.637 55.0945 194.724 55.504 194.724 55.9222C194.724 56.1226 194.698 56.323 194.655 56.5321C194.611 56.7412 194.55 56.9329 194.463 57.1333C194.376 57.325 194.271 57.508 194.149 57.6735C194.027 57.839 193.888 57.9872 193.731 58.1266C193.418 58.3879 193.069 58.5709 192.686 58.658C192.302 58.7452 191.849 58.7887 191.335 58.7887H190.098V58.78ZM191.17 57.7432H191.3C191.527 57.7432 191.736 57.7432 191.919 57.7171C192.102 57.6996 192.285 57.6648 192.459 57.6038C192.642 57.5428 192.808 57.4557 192.956 57.3424C193.174 57.1769 193.348 56.9678 193.47 56.7151C193.592 56.4624 193.653 56.2011 193.653 55.9135C193.653 55.7131 193.627 55.5215 193.566 55.3298C193.505 55.1381 193.418 54.9639 193.304 54.7983C193.191 54.6328 193.052 54.5021 192.886 54.3888C192.668 54.2407 192.433 54.1449 192.18 54.1013C191.928 54.0664 191.614 54.0403 191.248 54.0403H191.17V57.7345V57.7432Z" fill="#1E417C"/>
<path d="M195.491 53.0122H196.563V56.6106C196.563 56.7935 196.563 56.9329 196.58 57.0462C196.589 57.1595 196.624 57.2727 196.676 57.3947C196.755 57.5428 196.868 57.6648 196.998 57.7519C197.129 57.839 197.277 57.8826 197.443 57.8826C197.582 57.8826 197.722 57.8478 197.852 57.7693C197.983 57.6909 198.088 57.5951 198.166 57.4731C198.236 57.3598 198.279 57.2292 198.297 57.1072C198.314 56.9765 198.323 56.8109 198.323 56.6106V53.0122H199.394V54.049C199.543 54.049 199.647 53.9706 199.708 53.8138C199.769 53.6569 199.804 53.3956 199.804 53.0209H200.379C200.379 53.4827 200.274 53.8312 200.091 54.0752C199.909 54.3191 199.682 54.4411 199.403 54.4411V56.6193C199.403 56.9591 199.377 57.2466 199.316 57.4992C199.264 57.7519 199.151 57.9784 198.976 58.1788C198.785 58.4141 198.549 58.5883 198.279 58.7277C198.009 58.8671 197.73 58.9281 197.443 58.9281C197.181 58.9281 196.911 58.8671 196.65 58.7364C196.38 58.6058 196.153 58.4402 195.97 58.2311C195.831 58.0743 195.735 57.9175 195.665 57.7519C195.596 57.5864 195.552 57.4121 195.535 57.2379C195.509 57.0636 195.5 56.8545 195.5 56.6193V53.0209L195.491 53.0122Z" fill="#1E417C"/>
<path d="M203.341 52.9077C203.733 52.9077 204.091 52.9687 204.396 53.082C204.709 53.1952 204.971 53.3346 205.18 53.5176C205.389 53.7006 205.572 53.8922 205.711 54.1014C205.868 54.1014 205.981 53.9968 206.068 53.7964C206.147 53.596 206.19 53.2998 206.19 52.9251H206.792C206.792 53.2475 206.748 53.5176 206.67 53.7441C206.582 53.9707 206.478 54.1449 206.347 54.2582C206.217 54.3714 206.086 54.4324 205.946 54.4324C206.077 54.6415 206.182 54.8506 206.251 55.0859C206.321 55.3124 206.356 55.5999 206.356 55.931C206.356 56.4712 206.217 56.9765 205.946 57.4383C205.676 57.9001 205.31 58.266 204.849 58.5274C204.387 58.7975 203.89 58.9282 203.35 58.9282C202.949 58.9282 202.566 58.8498 202.191 58.6929C201.817 58.5361 201.494 58.3183 201.215 58.0482C200.937 57.7694 200.719 57.447 200.562 57.0898C200.405 56.7239 200.327 56.3405 200.327 55.9397C200.327 55.3908 200.457 54.8855 200.727 54.4237C200.998 53.9619 201.364 53.596 201.825 53.3259C202.287 53.0558 202.792 52.9164 203.333 52.9164L203.341 52.9077ZM205.293 55.931C205.293 55.5738 205.206 55.2427 205.032 54.9378C204.857 54.6328 204.622 54.3889 204.317 54.2146C204.012 54.0404 203.69 53.9532 203.341 53.9532V53.9794C202.993 53.9794 202.662 54.0665 202.365 54.2495C202.069 54.4237 201.834 54.6677 201.668 54.9639C201.503 55.2601 201.416 55.5912 201.416 55.9484C201.416 56.3057 201.503 56.628 201.677 56.9243C201.851 57.2205 202.087 57.4645 202.383 57.6387C202.679 57.813 203.002 57.9001 203.341 57.9001C203.681 57.9001 204.012 57.813 204.308 57.6387C204.605 57.4557 204.849 57.2205 205.023 56.9156C205.197 56.6106 205.284 56.2882 205.284 55.9397L205.293 55.931Z" fill="#1E417C"/>
<path d="M207.184 58.78V53.0122H208.386L210.791 57.2204V53.0122H211.862V58.78H210.677L208.255 54.5805V58.78H207.184Z" fill="#1E417C"/>
<path d="M218.528 54.7113H217.256C217.142 54.5545 217.003 54.4151 216.846 54.3018C216.68 54.1886 216.506 54.1014 216.323 54.0405C216.132 53.9795 215.94 53.9446 215.748 53.9446C215.243 53.9446 214.799 54.1102 214.415 54.4412C214.284 54.5545 214.171 54.6939 214.067 54.8507C213.962 55.0076 213.884 55.1818 213.831 55.3648C213.779 55.5478 213.744 55.722 213.744 55.8963C213.744 56.1402 213.797 56.3755 213.892 56.6194C213.997 56.8634 214.128 57.0638 214.293 57.238C214.494 57.4471 214.72 57.604 214.981 57.7172C215.243 57.8305 215.504 57.8828 215.792 57.8828C216.132 57.8828 216.454 57.7869 216.768 57.5952C217.081 57.4036 217.316 57.1596 217.473 56.8459H215.06V55.8353H218.824V55.9573C218.824 56.5062 218.684 57.0115 218.406 57.4558C218.127 57.9089 217.752 58.2661 217.282 58.5188C216.811 58.7802 216.306 58.9109 215.766 58.9109C215.356 58.9109 214.964 58.8324 214.589 58.6843C214.215 58.5362 213.884 58.3184 213.605 58.0483C213.317 57.7782 213.091 57.4558 212.925 57.0899C212.76 56.724 212.681 56.3319 212.681 55.9137C212.681 55.4955 212.76 55.1034 212.925 54.7375C213.091 54.3715 213.309 54.0492 213.596 53.7704C213.884 53.4916 214.215 53.2825 214.581 53.1256C214.955 52.9688 215.347 52.8904 215.748 52.8904C216.149 52.8904 216.524 52.9601 216.898 53.1082C217.273 53.2563 217.604 53.4654 217.892 53.7355C218.179 54.0056 218.397 54.328 218.536 54.6852L218.528 54.7113Z" fill="#1E417C"/>
</svg>
