<svg width="199" height="40" viewBox="0 0 199 40" fill="none" xmlns="http://www.w3.org/2000/svg">
<g clip-path="url(#clip0_4_2069)">
<path fill-rule="evenodd" clip-rule="evenodd" d="M180.553 12.947C180.109 12.947 179.664 12.9383 179.228 12.9557C178.566 12.9819 178.016 13.4436 177.868 14.0884C177.825 14.2888 177.825 14.4979 177.825 14.707C177.825 17.3731 177.825 20.0391 177.825 22.7139C177.825 22.8708 177.807 23.0276 177.798 23.289C177.615 23.0799 177.493 22.9579 177.389 22.8272C175.706 20.8581 174.015 18.8804 172.332 16.9113C171.373 15.7873 170.415 14.6721 169.464 13.5482C169.229 13.2694 168.95 13.0167 168.593 12.9906C168.008 12.947 167.424 12.9819 166.823 12.9819V28.778C167.468 28.778 168.087 28.839 168.697 28.7605C169.203 28.6996 169.569 28.3336 169.735 27.837C169.813 27.6018 169.839 27.3491 169.839 27.0964C169.839 24.4129 169.839 21.7294 169.839 19.0459C169.839 18.8891 169.857 18.7409 169.865 18.4883C170.04 18.6712 170.144 18.7845 170.249 18.9065C172.812 21.8949 175.384 24.8747 177.912 27.8893C178.478 28.5689 179.089 28.9261 179.96 28.8215C180.248 28.7867 180.536 28.8128 180.815 28.8041C180.911 28.0461 180.876 13.2868 180.78 12.9644C180.71 12.9644 180.64 12.947 180.571 12.947H180.553Z" fill="#1E417C"/>
<path fill-rule="evenodd" clip-rule="evenodd" d="M125.361 12.9472C125.196 12.9472 125.039 12.9472 124.873 12.9646C124.289 13.0343 123.757 13.5048 123.644 14.0798C123.591 14.3238 123.583 14.5765 123.583 14.8291C123.583 17.4517 123.583 20.0829 123.583 22.7054C123.583 22.8622 123.583 23.0191 123.565 23.2717C123.382 23.0801 123.278 22.9668 123.173 22.8535C121.508 20.9019 119.834 18.959 118.169 17.0073C117.184 15.8572 116.19 14.6984 115.205 13.5397C114.882 13.1563 114.481 12.9472 113.976 12.9559C113.61 12.9559 113.235 12.9559 112.869 12.9559C112.773 12.9559 112.677 12.9908 112.59 13.0082V28.7695C112.651 28.7869 112.694 28.813 112.738 28.813C113.121 28.813 113.505 28.813 113.889 28.8217C115.013 28.8827 115.676 28.0376 115.589 27.1315C115.571 27.0008 115.589 26.8701 115.589 26.7307V19.0287C115.589 18.8805 115.606 18.7237 115.606 18.5756C115.798 18.6714 115.911 18.7847 116.007 18.9067C117.158 20.2484 118.309 21.5989 119.459 22.9407C120.967 24.7006 122.476 26.4606 123.975 28.2205C124.21 28.4994 124.481 28.752 124.847 28.7782C125.414 28.813 125.989 28.7782 126.582 28.7782C126.678 28.0637 126.643 13.2783 126.547 12.9385C126.155 12.9385 125.762 12.9385 125.361 12.9385V12.9472Z" fill="#1E417C"/>
<path fill-rule="evenodd" clip-rule="evenodd" d="M145.264 20.0304C145.203 19.9956 145.159 19.9433 145.089 19.891C145.194 19.7516 145.281 19.6384 145.36 19.5164C146.362 18.044 146.31 16.1359 145.229 14.7244C144.331 13.5482 143.111 13.008 141.663 12.9732C139.78 12.9383 137.889 12.9557 135.997 12.947C135.901 12.947 135.796 12.9644 135.683 12.9732V28.8216C136.119 28.8216 136.529 28.8216 136.938 28.8216C138.83 28.8216 140.713 28.839 142.605 28.7867C143.974 28.7519 145.203 28.2814 146.153 27.2446C148.324 24.8921 147.574 21.3635 145.255 20.0304H145.264ZM138.717 15.7002C138.769 15.6741 138.795 15.648 138.821 15.648C139.745 15.6654 140.678 15.648 141.602 15.7089C142.308 15.7612 142.866 16.3101 143.006 16.9984C143.145 17.678 142.919 18.2443 142.387 18.6887C142.082 18.9414 141.698 19.0459 141.323 19.0633C140.469 19.0895 139.615 19.0633 138.769 19.0633C138.673 18.741 138.647 16.3973 138.725 15.6915L138.717 15.7002ZM142.553 26.0683C142.274 26.1119 141.995 26.138 141.716 26.138C140.844 26.1468 139.981 26.138 139.109 26.138C138.996 26.138 138.874 26.1293 138.708 26.1119V21.8166C138.83 21.7991 138.943 21.773 139.048 21.773C139.99 21.773 140.931 21.773 141.873 21.773C142.152 21.773 142.431 21.8078 142.701 21.8601C143.668 22.0344 144.409 22.8534 144.401 23.9773C144.392 25.0577 143.625 25.8941 142.544 26.0509L142.553 26.0683Z" fill="#1E417C"/>
<path fill-rule="evenodd" clip-rule="evenodd" d="M60.3791 13.6616C58.7925 12.8251 57.0925 12.5725 55.3141 12.7816C53.2219 13.0255 51.4434 13.8794 50.0573 15.4825C48.6276 17.1292 48.0261 19.0721 48.1045 21.2416C48.1743 23.0974 48.7671 24.7615 49.9701 26.1904C51.3563 27.8371 53.1434 28.7258 55.2705 28.9872C56.892 29.1789 58.4699 29.0133 59.9345 28.325C63.0816 26.8613 64.5288 24.2911 64.677 20.867C64.6334 20.4226 64.6159 19.9434 64.5375 19.4816C64.0842 16.8765 62.7242 14.8988 60.3791 13.6616ZM60.9458 23.6027C60.0304 25.3279 58.3305 26.3472 55.9069 26.356C54.3377 26.3037 52.7773 25.4063 51.8096 23.6115C50.9378 21.9996 50.8855 20.3093 51.5829 18.6278C52.3501 16.772 54.2157 15.2298 56.831 15.4302C58.8535 15.5871 60.6755 16.9462 61.3642 19.1506C61.835 20.684 61.7042 22.1826 60.9545 23.6027H60.9458Z" fill="#1E417C"/>
<path fill-rule="evenodd" clip-rule="evenodd" d="M191.241 20.2047C193.551 17.8 195.835 15.4215 198.198 12.9732C197.989 12.9645 197.893 12.9471 197.788 12.9471C196.855 12.9471 195.931 12.9558 194.999 12.9471C194.458 12.9383 194.04 13.13 193.673 13.5221C192 15.3082 190.308 17.0856 188.626 18.863C188.513 18.985 188.382 19.1069 188.268 19.2202C188.234 19.2115 188.207 19.1941 188.173 19.1854V12.9732C187.536 12.9732 186.961 12.9383 186.394 12.9732C185.827 13.0168 185.313 13.5134 185.2 14.071C185.156 14.2888 185.139 14.5066 185.139 14.7332C185.139 19.3073 185.139 23.8815 185.139 28.447C185.139 28.5602 185.165 28.6735 185.174 28.7955C185.775 28.7955 186.351 28.8129 186.926 28.7955C187.231 28.7955 187.484 28.6212 187.702 28.4121C188.042 28.0897 188.181 27.6889 188.173 27.2185C188.173 25.3452 188.173 23.472 188.173 21.5988C188.173 21.4419 188.19 21.2938 188.199 21.0237C188.425 21.2677 188.565 21.4245 188.713 21.5813C190.692 23.7944 192.671 25.9987 194.632 28.2204C194.99 28.6212 195.4 28.839 195.94 28.8303C196.855 28.8129 197.771 28.8303 198.686 28.8303C198.773 28.8303 198.861 28.7955 199 28.7693C196.393 25.8941 193.83 23.0712 191.241 20.2222V20.2047Z" fill="#1E417C"/>
<path fill-rule="evenodd" clip-rule="evenodd" d="M159.875 17.7827C159.334 16.5106 158.776 15.2386 158.245 13.9665C158.035 13.4699 157.704 13.104 157.172 12.9907C156.667 12.8861 156.152 12.9471 155.655 12.9471C153.38 18.2444 151.131 23.4982 148.856 28.813C149.588 28.813 150.242 28.813 150.904 28.813C151.671 28.813 152.186 28.4557 152.482 27.7587C152.761 27.0791 153.084 26.4082 153.336 25.7199C153.458 25.3801 153.642 25.2843 153.99 25.293C155.821 25.3104 157.652 25.293 159.482 25.293H159.927C160.006 25.4586 160.067 25.5805 160.128 25.7199C160.415 26.3995 160.712 27.0704 160.991 27.75C161.278 28.4557 161.793 28.813 162.56 28.8042C163.135 28.8042 163.711 28.8042 164.286 28.8042C164.373 28.8042 164.452 28.7868 164.582 28.7694C164.513 28.5951 164.452 28.4383 164.391 28.2989C162.891 24.7877 161.383 21.2852 159.875 17.774V17.7827ZM154.679 22.5834C155.359 21.0064 156.013 19.4729 156.719 17.8349C157.416 19.4642 158.079 20.9889 158.759 22.5834H154.679Z" fill="#1E417C"/>
<path fill-rule="evenodd" clip-rule="evenodd" d="M105.746 18.0528C105.162 16.6849 104.569 15.317 103.985 13.9491C103.767 13.4438 103.419 13.0605 102.861 12.9908C102.39 12.9298 101.893 12.9733 101.396 12.9733C99.1382 18.2358 96.889 23.4808 94.605 28.813C95.3983 28.813 96.087 28.813 96.7844 28.813C97.447 28.813 97.9003 28.4732 98.1705 27.8895C98.3362 27.541 98.4757 27.1837 98.6239 26.8352C98.8331 26.3386 99.051 25.8333 99.2603 25.3454H105.694C105.799 25.5893 105.894 25.7984 105.99 26.0162C106.261 26.6348 106.522 27.2621 106.784 27.8895C107.002 28.3774 107.359 28.752 107.9 28.7869C108.693 28.8392 109.486 28.8043 110.341 28.8043C110.271 28.6388 110.218 28.5081 110.157 28.3774C108.684 24.9359 107.211 21.5031 105.738 18.0615L105.746 18.0528ZM100.437 22.6009C101.091 21.0239 101.771 19.4991 102.468 17.8611C103.192 19.4817 103.828 21.0064 104.517 22.6009H100.437Z" fill="#1E417C"/>
<path fill-rule="evenodd" clip-rule="evenodd" d="M90.5512 26.1469H88.3369C87.6046 26.1469 86.8723 26.1469 86.1226 26.1469V21.6686H90.9697V18.9851H89.3482C88.7989 18.9851 88.2584 18.9851 87.7092 18.9851C87.1862 18.9851 86.6544 19.0199 86.1226 18.9502V15.6307H90.9086C91.0743 15.6307 91.2312 15.6307 91.3968 15.622C91.9199 15.5784 92.4081 15.195 92.5214 14.6984C92.6522 14.1321 92.5912 13.5658 92.5737 12.9907H83.0975V28.8391H83.5596C86.079 28.8391 88.6071 28.8391 91.1266 28.8391C91.2922 28.8391 91.4491 28.8391 91.6148 28.8217C92.1989 28.7694 92.7132 28.3512 92.7742 27.7762C92.8353 27.2534 92.783 26.7306 92.783 26.1643H90.5512V26.1469Z" fill="#1E417C"/>
<path fill-rule="evenodd" clip-rule="evenodd" d="M78.9131 24.8922C78.4161 24.8922 78.0064 25.0752 77.5967 25.3453C76.1583 26.295 74.5978 26.5389 72.9414 26.1033C70.4481 25.4411 68.9923 23.1584 69.0359 20.7886C69.1056 16.7459 73.1245 14.2802 76.6726 16.0314C76.9777 16.1795 77.3003 16.2928 77.6316 16.3538C78.5731 16.5281 79.6977 15.7962 79.8633 14.8814C79.8284 14.8465 79.7936 14.7942 79.75 14.7594C79.6541 14.6723 79.5494 14.5851 79.4448 14.5067C78.1982 13.5483 76.7859 12.9994 75.2255 12.8513C73.0286 12.6422 70.9886 13.0865 69.2015 14.4109C67.1092 15.9704 66.0805 18.1051 66.0457 20.6927C66.0021 23.8554 67.3185 26.3124 70.082 27.9068C71.7471 28.8652 73.5691 29.1266 75.4695 28.9088C77.0126 28.7345 78.4161 28.2031 79.6541 27.2621C80.0987 26.9223 80.5171 26.5477 80.8484 26.0859C80.4125 25.3105 79.7848 24.901 78.9043 24.8922H78.9131Z" fill="#1E417C"/>
<path fill-rule="evenodd" clip-rule="evenodd" d="M19.9113 39.7996C27.2953 39.7996 33.7377 35.7831 37.1725 29.8236C23.5466 27.1662 17.7929 35.3823 5.64038 33.7792C9.25825 37.4995 14.3145 39.7996 19.9113 39.7996Z" fill="#1E417C"/>
<path fill-rule="evenodd" clip-rule="evenodd" d="M19.9113 0C8.91826 0 0 8.91309 0 19.8998C0 21.4332 0.174355 22.9231 0.496912 24.352C1.56048 24.6569 3.88812 24.6831 8.93569 23.6288C11.1064 23.1758 14.3581 22.714 18.5252 23.5504C18.2375 22.714 18.0893 21.8253 18.0893 20.9018C18.0893 16.3624 21.7769 12.677 26.3189 12.677C30.8608 12.677 34.5484 16.3624 34.5484 20.9018C34.5484 23.6376 33.2146 26.0597 31.1572 27.5583C33.0751 27.5496 35.6992 27.7412 37.7914 28.6648C39.0904 26.0248 39.8227 23.0451 39.8227 19.9085C39.8227 8.91309 30.9044 0 19.9113 0Z" fill="#89D2DD"/>
<path fill-rule="evenodd" clip-rule="evenodd" d="M19.2749 25.1622C12.1002 23.5765 7.84597 27.3491 1.78714 27.1487L1.84816 27.3142C3.89683 29.8845 6.10242 30.9736 8.54339 31.2262L9.55465 31.2872C13.434 31.3395 17.8888 29.6057 23.2066 28.5166C21.559 27.8457 20.1816 26.6608 19.2749 25.1622Z" fill="#0F9BD7"/>
<path d="M49.6737 38.78V33.0122H50.8768L53.2829 37.2204V33.0122H54.3551V38.78H53.1695L50.746 34.5805V38.78H49.6737Z" fill="#1E417C"/>
<path d="M61.0242 34.7113H59.7427C59.6294 34.5545 59.4899 34.4151 59.333 34.3018C59.1673 34.1886 58.993 34.1014 58.8099 34.0405C58.6181 33.9795 58.4263 33.9446 58.2345 33.9446C57.7289 33.9446 57.2843 34.1102 56.9007 34.4412C56.7699 34.5545 56.6566 34.6939 56.552 34.8507C56.4474 35.0076 56.3776 35.1818 56.3166 35.3648C56.2643 35.5478 56.2294 35.722 56.2294 35.8963C56.2294 36.1402 56.2818 36.3755 56.3776 36.6194C56.4823 36.8634 56.613 37.0638 56.7787 37.238C56.9792 37.4471 57.2058 37.604 57.4674 37.7172C57.7289 37.8305 57.9904 37.8828 58.2781 37.8828C58.6181 37.8828 58.9407 37.7869 59.2545 37.5952C59.5683 37.4036 59.8037 37.1596 59.9606 36.8459H57.5458V35.8353H61.3119V35.9573C61.3119 36.5062 61.1724 37.0115 60.8934 37.4558C60.6145 37.9089 60.2396 38.2661 59.7689 38.5188C59.2981 38.7802 58.7925 38.9109 58.2432 38.9109C57.8335 38.9109 57.4412 38.8324 57.0664 38.6843C56.6915 38.5362 56.3602 38.3184 56.0725 38.0483C55.7848 37.7782 55.5582 37.4558 55.4013 37.0899C55.2356 36.724 55.1572 36.3319 55.1572 35.9137C55.1572 35.4955 55.2356 35.1034 55.4013 34.7375C55.5669 34.3715 55.7848 34.0492 56.0725 33.7704C56.3602 33.4916 56.6915 33.2825 57.0664 33.1256C57.4412 32.9688 57.8335 32.8904 58.2345 32.8904C58.6355 32.8904 59.0104 32.9601 59.3853 33.1082C59.7601 33.2563 60.0914 33.4654 60.3791 33.7355C60.6668 34.0056 60.8847 34.328 61.0242 34.6852V34.7113Z" fill="#1E417C"/>
<path d="M61.5386 38.78L63.9447 33.0122H64.7816L67.2138 38.78H66.0369L65.4093 37.2902H63.3693L62.7329 38.78H61.5473H61.5386ZM63.2298 32.6202L64.0842 31.8186H64.6944L65.5487 32.6202H64.7031L64.3893 32.2455L64.0667 32.6202H63.2211H63.2298ZM63.7529 36.2447H64.9908L64.3718 34.5021L63.7529 36.2447Z" fill="#1E417C"/>
<path d="M67.7892 38.78V33.0122H68.9922L71.3983 37.2204V33.0122H72.4706V38.78H71.285L68.8615 34.5805V38.78H67.7892Z" fill="#1E417C"/>
<path d="M75.7572 38.78V33.0122H76.8295V35.3211H78.8869V33.0122H79.9592V38.78H78.8869V36.3579H76.8295V38.78H75.7572Z" fill="#1E417C"/>
<path d="M80.5956 38.7801L83.0017 33.0123H83.8386L86.2708 38.7801H85.0939L84.4662 37.2902H82.4263L81.7899 38.7801H80.6043H80.5956ZM82.4524 31.8971L82.7837 31.2959L84.0826 32.0888L83.7775 32.6289L82.4611 31.9058L82.4524 31.8971ZM82.8011 36.2447H84.0391L83.4201 34.5022L82.8011 36.2447Z" fill="#1E417C"/>
<path d="M86.8462 38.78V33.0122H88.0492L90.4553 37.2204V33.0122H91.5276V38.78H90.342L87.9185 34.5805V38.78H86.8462Z" fill="#1E417C"/>
<path d="M98.1967 34.7113H96.9152C96.8018 34.5545 96.6624 34.4151 96.5054 34.3018C96.3485 34.1886 96.1655 34.1014 95.9824 34.0405C95.7906 33.9795 95.5988 33.9446 95.407 33.9446C94.9014 33.9446 94.4568 34.1102 94.0732 34.4412C93.9424 34.5545 93.8291 34.6939 93.7245 34.8507C93.6199 35.0076 93.5501 35.1818 93.4891 35.3648C93.4368 35.5478 93.4019 35.722 93.4019 35.8963C93.4019 36.1402 93.4542 36.3755 93.5501 36.6194C93.6547 36.8634 93.7855 37.0638 93.9511 37.238C94.1517 37.4471 94.3783 37.604 94.6398 37.7172C94.9014 37.8305 95.1629 37.8828 95.4506 37.8828C95.7906 37.8828 96.1132 37.7869 96.427 37.5952C96.7408 37.4036 96.9762 37.1596 97.1331 36.8459H94.7183V35.8353H98.4844V35.9573C98.4844 36.5062 98.3449 37.0115 98.0659 37.4558C97.787 37.9089 97.4121 38.2661 96.9413 38.5188C96.4706 38.7802 95.9649 38.9109 95.4157 38.9109C95.006 38.9109 94.6137 38.8324 94.2388 38.6843C93.864 38.5362 93.5327 38.3184 93.245 38.0483C92.9573 37.7782 92.7307 37.4558 92.5737 37.0899C92.4081 36.724 92.3297 36.3319 92.3297 35.9137C92.3297 35.4955 92.4081 35.1034 92.5737 34.7375C92.7307 34.3715 92.9573 34.0492 93.245 33.7704C93.5327 33.4916 93.864 33.2825 94.2388 33.1256C94.6137 32.9688 95.006 32.8904 95.407 32.8904C95.808 32.8904 96.1829 32.9601 96.5578 33.1082C96.9326 33.2563 97.2639 33.4654 97.5516 33.7355C97.8393 34.0056 98.0572 34.328 98.1967 34.6852V34.7113Z" fill="#1E417C"/>
<path d="M101.954 38.78V34.049H100.899V33.0122H104.107V34.049H103.026V38.78H101.954Z" fill="#1E417C"/>
<path d="M104.657 38.78V33.0122H106.112L107.655 37.4208L109.225 33.0122H110.681V38.78H109.608V34.4585L108.117 38.78H107.211L105.72 34.4585V38.78H104.648H104.657Z" fill="#1E417C"/>
<path d="M114.447 38.78V34.049H113.392V33.0122H116.6V34.049H115.519V38.78H114.447Z" fill="#1E417C"/>
<path d="M117.14 38.78V33.0122H118.343L120.75 37.2204V33.0122H121.822V38.78H120.636L118.213 34.5805V38.78H117.14Z" fill="#1E417C"/>
<path d="M122.92 38.78V33.0122H123.993V35.3211H126.05V33.0122H127.122V38.78H126.05V36.3579H123.993V38.78H122.92Z" fill="#1E417C"/>
<path d="M128.238 38.78V33.0122H129.31V35.3211H131.368V33.0122H132.44V38.78H131.368V36.3579H129.31V38.78H128.238Z" fill="#1E417C"/>
<path d="M135.735 38.78V33.0122H137.191L138.734 37.4208L140.303 33.0122H141.759V38.78H140.687V34.4585L139.196 38.78H138.29L136.799 34.4585V38.78H135.727H135.735Z" fill="#1E417C"/>
<path d="M143.337 38.78V34.049H142.282V33.0122H145.49V34.049H144.409V38.78H143.337Z" fill="#1E417C"/>
<path d="M147.809 38.78L145.569 33.0122H146.694L148.245 37.4034L149.797 33.0122H150.922L148.69 38.78H147.809Z" fill="#1E417C"/>
<path d="M155.254 38.78H154.016V36.2795H153.267V35.4518H154.016V33.0122H155.228C155.464 33.0122 155.69 33.0209 155.908 33.0471C156.135 33.0645 156.344 33.0993 156.536 33.1429C156.728 33.1865 156.928 33.2562 157.12 33.3433C157.312 33.4304 157.495 33.5437 157.652 33.6831C157.966 33.9445 158.201 34.2756 158.375 34.685C158.55 35.0945 158.637 35.504 158.637 35.9222C158.637 36.1226 158.611 36.323 158.567 36.5321C158.524 36.7412 158.454 36.9329 158.367 37.1333C158.279 37.325 158.175 37.508 158.053 37.6735C157.931 37.839 157.791 37.9872 157.634 38.1266C157.32 38.3879 156.972 38.5709 156.588 38.658C156.205 38.7452 155.751 38.7887 155.237 38.7887L155.254 38.78ZM155.995 35.4605V36.2882H155.089V37.7519H155.22C155.446 37.7519 155.655 37.7519 155.838 37.7258C156.022 37.6996 156.205 37.6735 156.379 37.6125C156.562 37.5515 156.728 37.4644 156.876 37.3511C157.094 37.1856 157.268 36.9765 157.39 36.7238C157.512 36.4712 157.573 36.2098 157.573 35.9222C157.573 35.7219 157.547 35.5302 157.486 35.3385C157.425 35.1468 157.338 34.9726 157.225 34.807C157.111 34.6415 156.972 34.5108 156.806 34.3975C156.588 34.2494 156.353 34.1536 156.1 34.11C155.847 34.0752 155.533 34.049 155.167 34.049H155.089V35.4605H155.995Z" fill="#1E417C"/>
<path d="M159.012 38.78L161.418 33.0122H162.255L164.687 38.78H163.51L162.882 37.2901H160.842L160.206 38.78H159.02H159.012ZM161.226 36.2533H162.464L161.845 34.5108L161.226 36.2533ZM161.435 39.9998V39.2505H162.263V39.9998H161.435Z" fill="#1E417C"/>
<path d="M165.271 38.78V33.0122H166.343V38.78H165.271Z" fill="#1E417C"/>
<path d="M169.639 38.78V33.0122H170.85C171.086 33.0122 171.312 33.0209 171.53 33.0471C171.748 33.0732 171.966 33.0993 172.158 33.1429C172.35 33.1865 172.55 33.2562 172.742 33.3433C172.934 33.4304 173.108 33.5437 173.274 33.6831C173.588 33.9445 173.823 34.2756 174.006 34.685C174.181 35.0945 174.268 35.504 174.268 35.9222C174.268 36.1226 174.242 36.323 174.198 36.5321C174.154 36.7412 174.093 36.9329 174.006 37.1333C173.919 37.325 173.814 37.508 173.692 37.6735C173.57 37.839 173.431 37.9872 173.274 38.1266C172.96 38.3879 172.611 38.5709 172.228 38.658C171.844 38.7452 171.391 38.7887 170.877 38.7887H169.639V38.78ZM170.711 37.7432H170.842C171.068 37.7432 171.278 37.7432 171.461 37.7171C171.644 37.6996 171.827 37.6648 172.001 37.6038C172.184 37.5428 172.35 37.4557 172.498 37.3424C172.716 37.1769 172.89 36.9678 173.012 36.7151C173.134 36.4624 173.195 36.2011 173.195 35.9135C173.195 35.7131 173.169 35.5215 173.108 35.3298C173.047 35.1381 172.96 34.9639 172.847 34.7983C172.733 34.6328 172.594 34.5021 172.428 34.3888C172.21 34.2407 171.975 34.1449 171.722 34.1013C171.469 34.0664 171.156 34.0403 170.789 34.0403H170.711V37.7345V37.7432Z" fill="#1E417C"/>
<path d="M175.035 33.0122H176.107V36.6106C176.107 36.7935 176.107 36.9329 176.125 37.0462C176.133 37.1595 176.168 37.2727 176.221 37.3947C176.299 37.5428 176.412 37.6648 176.543 37.7519C176.674 37.839 176.822 37.8826 176.988 37.8826C177.127 37.8826 177.267 37.8478 177.397 37.7693C177.528 37.6909 177.633 37.5951 177.711 37.4731C177.781 37.3598 177.825 37.2292 177.842 37.1072C177.859 36.9765 177.868 36.8109 177.868 36.6106V33.0122H178.94V34.049C179.089 34.049 179.193 33.9706 179.254 33.8138C179.315 33.6569 179.35 33.3956 179.35 33.0209H179.926C179.926 33.4827 179.821 33.8312 179.638 34.0752C179.455 34.3191 179.228 34.4411 178.949 34.4411V36.6193C178.949 36.9591 178.923 37.2466 178.862 37.4992C178.81 37.7519 178.696 37.9784 178.522 38.1788C178.33 38.4141 178.095 38.5883 177.825 38.7277C177.554 38.8671 177.275 38.9281 176.988 38.9281C176.726 38.9281 176.456 38.8671 176.194 38.7364C175.924 38.6058 175.697 38.4402 175.514 38.2311C175.375 38.0743 175.279 37.9175 175.209 37.7519C175.14 37.5864 175.096 37.4121 175.079 37.2379C175.052 37.0636 175.044 36.8545 175.044 36.6193V33.0209L175.035 33.0122Z" fill="#1E417C"/>
<path d="M182.89 32.9077C183.282 32.9077 183.639 32.9687 183.944 33.082C184.258 33.1952 184.52 33.3346 184.729 33.5176C184.938 33.7006 185.121 33.8922 185.261 34.1014C185.418 34.1014 185.531 33.9968 185.618 33.7964C185.697 33.596 185.74 33.2998 185.74 32.9251H186.342C186.342 33.2475 186.298 33.5176 186.22 33.7441C186.133 33.9707 186.028 34.1449 185.897 34.2582C185.766 34.3714 185.636 34.4324 185.496 34.4324C185.627 34.6415 185.732 34.8506 185.801 35.0859C185.871 35.3124 185.906 35.5999 185.906 35.931C185.906 36.4712 185.766 36.9765 185.496 37.4383C185.226 37.9001 184.86 38.266 184.398 38.5274C183.936 38.7975 183.439 38.9282 182.898 38.9282C182.497 38.9282 182.114 38.8498 181.739 38.6929C181.364 38.5361 181.041 38.3183 180.762 38.0482C180.484 37.7694 180.266 37.447 180.109 37.0898C179.952 36.7239 179.873 36.3405 179.873 35.9397C179.873 35.3908 180.004 34.8855 180.274 34.4237C180.545 33.9619 180.911 33.596 181.373 33.3259C181.835 33.0558 182.34 32.9164 182.881 32.9164L182.89 32.9077ZM184.842 35.931C184.842 35.5738 184.755 35.2427 184.581 34.9378C184.406 34.6328 184.171 34.3889 183.866 34.2146C183.561 34.0404 183.238 33.9532 182.89 33.9532V33.9794C182.541 33.9794 182.21 34.0665 181.913 34.2495C181.617 34.4237 181.381 34.6677 181.216 34.9639C181.05 35.2601 180.963 35.5912 180.963 35.9484C180.963 36.3057 181.05 36.628 181.225 36.9243C181.399 37.2205 181.634 37.4645 181.931 37.6387C182.227 37.813 182.55 37.9001 182.89 37.9001C183.23 37.9001 183.561 37.813 183.857 37.6387C184.154 37.4557 184.398 37.2205 184.572 36.9156C184.746 36.6106 184.834 36.2882 184.834 35.9397L184.842 35.931Z" fill="#1E417C"/>
<path d="M186.734 38.78V33.0122H187.937L190.343 37.2204V33.0122H191.416V38.78H190.23L187.806 34.5805V38.78H186.734Z" fill="#1E417C"/>
<path d="M198.085 34.7113H196.812C196.699 34.5545 196.559 34.4151 196.402 34.3018C196.236 34.1886 196.062 34.1014 195.879 34.0405C195.687 33.9795 195.495 33.9446 195.304 33.9446C194.798 33.9446 194.353 34.1102 193.97 34.4412C193.839 34.5545 193.726 34.6939 193.621 34.8507C193.517 35.0076 193.438 35.1818 193.386 35.3648C193.333 35.5478 193.299 35.722 193.299 35.8963C193.299 36.1402 193.351 36.3755 193.447 36.6194C193.551 36.8634 193.682 37.0638 193.848 37.238C194.048 37.4471 194.275 37.604 194.537 37.7172C194.798 37.8305 195.06 37.8828 195.347 37.8828C195.687 37.8828 196.01 37.7869 196.324 37.5952C196.637 37.4036 196.873 37.1596 197.03 36.8459H194.615V35.8353H198.381V35.9573C198.381 36.5062 198.242 37.0115 197.963 37.4558C197.684 37.9089 197.309 38.2661 196.838 38.5188C196.367 38.7802 195.862 38.9109 195.321 38.9109C194.911 38.9109 194.519 38.8324 194.144 38.6843C193.769 38.5362 193.438 38.3184 193.159 38.0483C192.871 37.7782 192.645 37.4558 192.479 37.0899C192.313 36.724 192.235 36.3319 192.235 35.9137C192.235 35.4955 192.313 35.1034 192.479 34.7375C192.645 34.3715 192.863 34.0492 193.15 33.7704C193.438 33.4916 193.769 33.2825 194.135 33.1256C194.51 32.9688 194.903 32.8904 195.304 32.8904C195.705 32.8904 196.08 32.9601 196.454 33.1082C196.829 33.2563 197.161 33.4654 197.448 33.7355C197.736 34.0056 197.954 34.328 198.093 34.6852L198.085 34.7113Z" fill="#1E417C"/>
</g>
<defs>
<clipPath id="clip0_4_2069">
<rect width="199" height="40" fill="white"/>
</clipPath>
</defs>
</svg>
