<svg width="240" height="80" viewBox="0 0 240 80" fill="none" xmlns="http://www.w3.org/2000/svg">
<path d="M41.8451 35.1075L38.4068 31.6679H25.6317L22.1045 35.1964L21.0967 34.1883L31.9896 23.321L42.8233 34.1586H42.7936L41.8451 35.1075ZM91.7154 37.9244H98.429C98.429 37.9244 99.4665 37.791 99.4665 36.7087C99.4665 35.6264 98.429 35.4337 98.429 35.4337H91.7154V37.9244ZM154.613 37.9244H161.326C161.326 37.9244 162.364 37.791 162.364 36.7087C162.364 35.6264 161.326 35.4337 161.326 35.4337H154.613V37.9244ZM57.4361 38.6805H63.3197C63.3197 38.6805 64.3572 38.5471 64.3572 37.4648C64.3572 36.3825 63.3197 36.1898 63.3197 36.1898H57.4361V38.6805ZM178.948 39.9259H174.413L176.725 35.745L178.933 39.9259H178.948ZM98.4883 42.4166C98.6069 42.4018 99.5109 42.209 99.5109 41.2009C99.5109 40.1334 98.4735 39.9259 98.4735 39.9259H91.7303V42.4166H98.4883ZM161.386 42.4166C161.504 42.4018 162.408 42.209 162.408 41.2009C162.408 40.1334 161.371 39.9259 161.371 39.9259H154.657V42.4166H161.386ZM26.9359 40L32.0044 34.9444L37.0137 39.9555L31.9748 45.0111L26.9359 39.9852V40ZM138.044 40.8599C138.044 41.616 137.392 42.209 136.591 42.209H131.3C130.5 42.209 129.848 41.5864 129.848 40.8302V37.02C129.848 36.2639 130.5 35.6412 131.3 35.6412H136.591C137.392 35.6412 138.044 36.2342 138.044 36.9904H141.334V35.3299C141.334 33.9066 140.163 32.7354 138.74 32.7354H129.196C127.773 32.7354 126.602 33.9066 126.602 35.3299V42.5649C126.602 43.9881 127.773 45.1594 129.196 45.1594H138.74C140.163 45.1594 141.334 43.9881 141.334 42.5649V40.8747H138.044V40.8599ZM81.8303 45.189H74.3164C70.2408 45.189 70.1667 42.1794 70.1667 42.1794V32.8984H74.3461V40.1334C74.3461 40.1334 74.3461 42.1349 78.0808 42.1349C81.8155 42.1349 81.8155 40.1334 81.8155 40.1334V32.8984H85.9948V42.1349C85.9948 42.1349 85.9652 45.1742 81.8155 45.1742L81.8303 45.189ZM120.615 45.2187H124.32V32.8984H120.615V45.2187ZM171.434 45.2483L172.857 42.7279H180.474L181.823 45.2483H186.536L179.229 32.8984H174.353L166.943 45.2187H171.434V45.2483ZM206.691 45.2483V32.8984H210.352V38.0875L217.451 32.8984H222.875L215.539 37.9837L223.779 45.2483H218.073L212.16 39.8517L210.367 41.0971V45.2483H206.706H206.691ZM187.84 45.2483V32.8984H193.338L200.704 42.4166V32.8984H204.053V45.2483H198.585L191.293 35.8636V45.2483H187.825H187.84ZM88.2179 32.9133H100.089C100.089 32.9133 103.097 32.5278 103.097 36.1305C103.097 36.1305 103.023 39.0067 101.675 39.0067C101.675 39.0067 103.097 39.2884 103.097 42.0163C103.097 42.0163 103.231 45.2335 100.089 45.2335H94.9314V45.2632H88.2179V32.9133ZM151.115 32.9133H162.986C162.986 32.9133 165.995 32.5278 165.995 36.1305C165.995 36.1305 165.921 39.0067 164.572 39.0067C164.572 39.0067 165.995 39.2884 165.995 42.0163C165.995 42.0163 166.128 45.2335 162.986 45.2335H157.873V45.2632H151.13V32.9133H151.115ZM65.0834 32.9133C65.2612 32.9133 68.1512 33.1208 68.1512 37.45C68.1512 41.7791 64.9648 42.1942 64.9648 42.1942H57.4213V45.278H53.405V32.9281H65.0685L65.0834 32.9133ZM105.513 45.2632V32.9133H109.248V42.2239H118.11V45.2632H105.513ZM41.8748 44.8332L42.8233 45.7821H42.7936L31.9303 56.6494L21.0967 45.8117L22.0897 44.8332L25.6021 48.3469H38.3624L41.8748 44.8332ZM25.6317 20L16.2208 29.4144V38.9622L17.2731 40.0148L16.2208 41.0675V50.6153L25.6021 60H38.3624L47.7732 50.5856V41.0378L46.721 39.9852L47.7732 38.9325V29.3847L38.392 20H25.6317Z" fill="#E30613"/>
</svg>
