<svg width="208" height="40" viewBox="0 0 208 40" fill="none" xmlns="http://www.w3.org/2000/svg">
<g clip-path="url(#clip0_5_7016)">
<path d="M25.6788 15.1075L22.2332 11.6679H9.43092L5.89618 15.1964L4.88625 14.1883L15.8024 3.32098L26.6591 14.1586H26.6293L25.6788 15.1075ZM75.6553 17.9244H82.3831C82.3831 17.9244 83.4228 17.791 83.4228 16.7087C83.4228 15.6264 82.3831 15.4337 82.3831 15.4337H75.6553V17.9244ZM138.686 17.9244H145.414C145.414 17.9244 146.454 17.791 146.454 16.7087C146.454 15.6264 145.414 15.4337 145.414 15.4337H138.686V17.9244ZM41.303 18.6805H47.1991C47.1991 18.6805 48.2388 18.5471 48.2388 17.4648C48.2388 16.3825 47.1991 16.1898 47.1991 16.1898H41.303V18.6805ZM163.073 19.9259H158.529L160.845 15.745L163.058 19.9259H163.073ZM82.4426 22.4166C82.5614 22.4018 83.4673 22.209 83.4673 21.2009C83.4673 20.1334 82.4277 19.9259 82.4277 19.9259H75.6701V22.4166H82.4426ZM145.474 22.4166C145.593 22.4018 146.499 22.209 146.499 21.2009C146.499 20.1334 145.459 19.9259 145.459 19.9259H138.731V22.4166H145.474ZM10.7379 20L15.8172 14.9444L20.8371 19.9555L15.7875 25.0111L10.7379 19.9852V20ZM122.082 20.8599C122.082 21.616 121.429 22.209 120.627 22.209H115.325C114.523 22.209 113.869 21.5864 113.869 20.8302V17.02C113.869 16.2639 114.523 15.6412 115.325 15.6412H120.627C121.429 15.6412 122.082 16.2342 122.082 16.9904H125.379V15.3299C125.379 13.9066 124.206 12.7354 122.78 12.7354H113.216C111.79 12.7354 110.616 13.9066 110.616 15.3299V22.5649C110.616 23.9881 111.79 25.1594 113.216 25.1594H122.78C124.206 25.1594 125.379 23.9881 125.379 22.5649V20.8747H122.082V20.8599ZM65.7491 25.189H58.2192C54.135 25.189 54.0607 22.1794 54.0607 22.1794V12.8984H58.2489V20.1334C58.2489 20.1334 58.2489 22.1349 61.9916 22.1349C65.7342 22.1349 65.7342 20.1334 65.7342 20.1334V12.8984H69.9225V22.1349C69.9225 22.1349 69.8928 25.1742 65.7342 25.1742L65.7491 25.189ZM104.616 25.2187H108.329V12.8984H104.616V25.2187ZM155.543 25.2483L156.969 22.7279H164.603L165.954 25.2483H170.677L163.355 12.8984H158.469L151.043 25.2187H155.543V25.2483ZM190.876 25.2483V12.8984H194.544V18.0875L201.658 12.8984H207.094L199.742 17.9837L208 25.2483H202.282L196.356 19.8517L194.559 21.0971V25.2483H190.891H190.876ZM171.984 25.2483V12.8984H177.494L184.876 22.4166V12.8984H188.232V25.2483H182.752L175.445 15.8636V25.2483H171.969H171.984ZM72.1502 12.9133H84.0466C84.0466 12.9133 87.0615 12.5278 87.0615 16.1305C87.0615 16.1305 86.9872 19.0067 85.6357 19.0067C85.6357 19.0067 87.0615 19.2884 87.0615 22.0163C87.0615 22.0163 87.1951 25.2335 84.0466 25.2335H78.8781V25.2632H72.1502V12.9133ZM135.181 12.9133H147.078C147.078 12.9133 150.093 12.5278 150.093 16.1305C150.093 16.1305 150.018 19.0067 148.667 19.0067C148.667 19.0067 150.093 19.2884 150.093 22.0163C150.093 22.0163 150.226 25.2335 147.078 25.2335H141.954V25.2632H135.196V12.9133H135.181ZM48.9665 12.9133C49.1447 12.9133 52.0408 13.1208 52.0408 17.45C52.0408 21.7791 48.8477 22.1942 48.8477 22.1942H41.2881V25.278H37.2633V12.9281H48.9517L48.9665 12.9133ZM89.4823 25.2632V12.9133H93.225V22.2239H102.106V25.2632H89.4823ZM25.7085 24.8332L26.6591 25.7821H26.6293L15.7429 36.6494L4.88625 25.8117L5.88133 24.8332L9.40121 28.3469H22.1886L25.7085 24.8332ZM9.43092 0L0 9.41438V18.9622L1.05448 20.0148L0 21.0675V30.6153L9.40121 40H22.1886L31.6196 30.5856V21.0378L30.5651 19.9852L31.6196 18.9325V9.38473L22.2183 0H9.43092Z" fill="#E30613"/>
</g>
<defs>
<clipPath id="clip0_5_7016">
<rect width="208" height="40" fill="white"/>
</clipPath>
</defs>
</svg>
