<svg width="40" height="40" viewBox="0 0 40 40" fill="none" xmlns="http://www.w3.org/2000/svg">
<path d="M29.6243 15.1019L26.186 11.6636H13.4109L9.88366 15.1908L8.87588 14.183L19.7688 3.31975L30.6024 14.1534H30.5728L29.6243 15.1019ZM14.7151 19.9926L19.7836 14.9389L24.7929 19.9481L19.754 25.0019L14.7151 19.9778V19.9926ZM29.6539 24.824L30.6024 25.7725H30.5728L19.7095 36.6358L8.87588 25.8021L9.86884 24.824L13.3813 28.3364H26.1415L29.6539 24.824ZM13.4109 0L4 9.41089V18.9552L5.05224 20.0074L4 21.0597V30.6039L13.3813 39.9852H26.1415L35.5524 30.5743V21.03L34.5002 19.9778L35.5524 18.9255V9.38125L26.1712 0H13.4109Z" fill="#E30613"/>
</svg>
