<svg xmlns="http://www.w3.org/2000/svg" width="240" height="80" fill="none" viewBox="0 0 240 80"><path fill="#005D9C" fill-rule="evenodd" d="M81.7579 39.8235V32.4611C84.0066 32.2275 85.144 33.3957 85.3465 35.5452C85.4712 36.8588 85.1128 38.2607 84.1676 39.0759C83.5756 39.5847 82.7758 39.8443 81.7579 39.8235ZM81.7579 30.4622L77.9511 30.8464V46.4435H81.7579V41.7758H83.3003C90.2128 41.7758 90.7218 33.432 86.6345 31.2617C85.3881 30.5971 83.7262 30.3998 81.7631 30.4673L81.7579 30.4622Z" clip-rule="evenodd"/><path fill="#005D9C" fill-rule="evenodd" d="M89.5429 30.6543L95.0687 46.4435H96.8656H98.6574L104.183 30.6543H99.5091L96.8656 40.4259L94.217 30.6543H89.5429Z" clip-rule="evenodd"/><path fill="#FBBE12" fill-rule="evenodd" d="M122.215 40.6075C122.215 41.4383 122.101 42.2067 121.867 42.9232C121.633 43.6345 121.296 44.2524 120.854 44.7664C120.413 45.2856 119.857 45.6906 119.192 45.9917C118.533 46.2929 117.769 46.4434 116.902 46.4434C116.035 46.4434 115.261 46.2929 114.601 45.9917C113.942 45.6906 113.386 45.2804 112.939 44.7664C112.498 44.2524 112.16 43.6345 111.927 42.9232C111.698 42.2119 111.579 41.4383 111.579 40.6075C111.579 39.7768 111.693 39.0083 111.927 38.3022C112.16 37.5961 112.498 36.9886 112.939 36.4694C113.381 35.9554 113.937 35.5452 114.601 35.2493C115.261 34.9533 116.029 34.8027 116.902 34.8027C117.774 34.8027 118.528 34.9533 119.192 35.2493C119.852 35.5452 120.408 35.9554 120.854 36.4694C121.296 36.9886 121.633 37.5961 121.867 38.3022C122.101 39.0083 122.215 39.7768 122.215 40.6075ZM119.566 40.5867C119.566 40.0208 119.514 39.5068 119.405 39.0239C119.296 38.5462 119.13 38.1361 118.912 37.7882C118.694 37.4455 118.413 37.1807 118.076 36.9886C117.738 36.7965 117.349 36.703 116.907 36.703C116.466 36.703 116.071 36.7965 115.728 36.9886C115.391 37.1755 115.11 37.4403 114.892 37.7882C114.669 38.1361 114.508 38.5462 114.399 39.0239C114.29 39.5068 114.238 40.0208 114.238 40.5867C114.238 41.1527 114.29 41.6875 114.399 42.1703C114.508 42.648 114.674 43.0582 114.892 43.4009C115.11 43.7487 115.391 44.0187 115.728 44.2108C116.066 44.4081 116.461 44.5016 116.907 44.5016C117.354 44.5016 117.738 44.4081 118.076 44.2108C118.413 44.0187 118.694 43.7487 118.912 43.4009C119.135 43.0582 119.296 42.648 119.405 42.1703C119.514 41.6875 119.566 41.1631 119.566 40.5867Z" clip-rule="evenodd"/><path fill="#FBBE12" fill-rule="evenodd" d="M135.266 46.4434V38.7227C135.266 38.1672 135.115 37.7414 134.819 37.4455C134.518 37.1495 134.118 36.9989 133.604 36.9989C132.981 36.9989 132.482 37.1807 132.098 37.5545V46.4434H129.522V38.5929C129.522 38.0997 129.366 37.7103 129.055 37.4299C128.743 37.1443 128.312 37.0041 127.767 37.0041C127.221 37.0041 126.733 37.0924 126.354 37.2689V46.4486H123.814V35.8255C124.323 35.5919 124.9 35.405 125.554 35.2492C126.203 35.0986 126.889 35.0208 127.601 35.0208C128.421 35.0208 129.096 35.1402 129.621 35.3686C130.151 35.6023 130.561 35.8619 130.862 36.1526C131.174 35.8775 131.625 35.6178 132.223 35.379C132.82 35.1402 133.495 35.0208 134.253 35.0208C135.386 35.0208 136.268 35.353 136.897 36.0124C137.53 36.677 137.842 37.5753 137.842 38.7072V46.4434H135.266Z" clip-rule="evenodd"/><path fill="#FBBE12" fill-rule="evenodd" d="M111.418 35.3997C111.127 35.8826 110.841 36.3603 110.55 36.8431C103.924 35.2076 104.251 46.0851 110.452 44.4132C110.717 44.8649 110.981 45.3115 111.246 45.7632C110.519 46.1526 109.714 46.381 108.816 46.433C104.614 46.6718 102.272 42.84 103.259 39.0602C104.292 35.109 107.813 34.1432 111.413 35.4049L111.418 35.3997Z" clip-rule="evenodd"/><path fill="#FBBE12" fill-rule="evenodd" d="M103.472 47.5754V59.9898H108.099C113.344 59.9898 114.471 54.6886 110.265 53.3802C114.591 51.2514 111.953 47.4664 108.224 47.5131C106.64 47.5339 105.056 47.5547 103.472 47.5754ZM106.178 49.0915C106.899 49.0811 107.621 49.0759 108.343 49.0656C109.049 49.0656 109.699 49.8132 109.771 50.644C109.896 52.0406 108.473 52.7 107.273 52.7H106.178V49.0915ZM106.178 58.4269V54.185H107.372C108.681 54.185 110.228 54.9638 110.093 56.6045C110 57.7416 109.034 58.4633 108.032 58.4529C107.414 58.4477 106.796 58.4373 106.178 58.4321V58.4269Z" clip-rule="evenodd"/><path fill="#FBBE12" fill-rule="evenodd" d="M114.664 49.2212C114.939 49.7249 115.219 50.2233 115.495 50.7269C117.136 50.1558 120.496 49.7456 119.971 52.4819C117.619 52.5338 113.817 53.432 113.911 56.4383C113.983 58.7124 116.19 59.7975 118.19 59.9897C119.665 59.9585 121.145 59.9274 122.62 59.891V52.3676C122.62 51.0904 122.402 50.3843 121.394 49.4497C119.675 47.8609 117.053 48.2607 114.664 49.2108V49.2212ZM119.925 58.3853C119.41 58.3957 118.891 58.4009 118.377 58.4113C117.541 58.4268 116.736 57.6532 116.658 56.4331C116.544 54.6781 117.837 53.8422 118.927 53.8422H119.925V58.3853Z" clip-rule="evenodd"/><path fill="#FBBE12" fill-rule="evenodd" d="M133.241 52.3002V59.9949H130.561V52.1444C130.561 51.6512 130.4 51.2618 130.073 50.9814C129.751 50.6958 129.299 50.5557 128.738 50.5557C128.177 50.5557 127.663 50.6439 127.268 50.8205V60.0001H124.63V49.377C125.16 49.1434 125.762 48.9565 126.437 48.8007C127.112 48.6501 127.824 48.5723 128.566 48.5723C129.418 48.5723 130.119 48.6917 130.67 48.9201C132.254 49.6003 133.241 50.4622 133.241 52.3054V52.3002Z" clip-rule="evenodd"/><path fill="#FBBE12" fill-rule="evenodd" d="M135.266 47.8921H137.842V52.2898L138.008 52.4611L141.187 48.8059H144.744L139.603 54.1122L145.295 59.9897H141.737L138.034 55.7322L137.837 55.5037V59.9897H135.261V47.8921H135.266ZM137.842 52.2898V52.6533L138.008 52.4611L137.842 52.2898Z" clip-rule="evenodd"/><path fill="url(#paint0_linear_13_12272)" fill-rule="evenodd" d="M160.797 30.9761L149.964 20L144.557 25.4777L138.45 31.5473C140.07 30.1038 144.521 29.6418 145.861 29.5068C151.039 28.8837 156.824 29.4185 160.792 30.9813L160.797 30.9761Z" clip-rule="evenodd"/><path fill="url(#paint1_linear_13_12272)" fill-rule="evenodd" d="M145.866 35.7891V29.5015C144.266 29.6624 138.278 30.2855 137.878 32.4714C137.489 34.6157 144.407 35.623 145.866 35.7891Z" clip-rule="evenodd"/><path fill="url(#paint2_linear_13_12272)" fill-rule="evenodd" d="M139.109 35.8153L149.943 46.7914L155.349 41.3137L161.457 35.2441C159.836 36.6875 155.385 37.1496 154.046 37.2846C148.868 37.9129 143.082 37.3729 139.114 35.8101L139.109 35.8153Z" clip-rule="evenodd"/><path fill="url(#paint3_linear_13_12272)" fill-rule="evenodd" d="M154.046 31.002V37.2896C155.645 37.1286 161.633 36.5108 162.033 34.3197C162.423 32.1754 155.505 31.1681 154.046 31.002Z" clip-rule="evenodd"/><defs><linearGradient id="paint0_linear_13_12272" x1="153.189" x2="145.556" y1="35.156" y2="26.805" gradientUnits="userSpaceOnUse"><stop stop-color="#61B9E2"/><stop offset="1" stop-color="#0062A2"/></linearGradient><linearGradient id="paint1_linear_13_12272" x1="141.285" x2="145.081" y1="30.613" y2="34.907" gradientUnits="userSpaceOnUse"><stop stop-color="#60BBE1"/><stop offset="1" stop-color="#0062A2"/></linearGradient><linearGradient id="paint2_linear_13_12272" x1="139.109" x2="161.457" y1="41.018" y2="41.018" gradientUnits="userSpaceOnUse"><stop stop-color="#FFDC55"/><stop offset="1" stop-color="#EE8722"/></linearGradient><linearGradient id="paint3_linear_13_12272" x1="158.122" x2="156.736" y1="35.929" y2="30.986" gradientUnits="userSpaceOnUse"><stop stop-color="#FFDC55"/><stop offset="1" stop-color="#EE8722"/></linearGradient></defs></svg>