<svg width="40" height="40" viewBox="0 0 40 40" fill="none" xmlns="http://www.w3.org/2000/svg">
<path fill-rule="evenodd" clip-rule="evenodd" d="M36.2329 16.3876L20.0624 0L11.9926 8.17828L2.87634 17.2403C5.29494 15.0852 11.9383 14.3953 13.9383 14.1938C21.667 13.2635 30.3026 14.062 36.2251 16.3953L36.2329 16.3876Z" fill="url(#paint0_linear_4_4209)"/>
<path fill-rule="evenodd" clip-rule="evenodd" d="M13.9461 23.5736V14.186C11.5585 14.4263 2.62052 15.3566 2.02362 18.6201C1.44222 21.8217 11.7678 23.3256 13.9461 23.5736Z" fill="url(#paint1_linear_4_4209)"/>
<path fill-rule="evenodd" clip-rule="evenodd" d="M3.86084 23.6125L20.0313 40L28.1011 31.8218L37.2173 22.7598C34.7987 24.9148 28.1554 25.6047 26.1554 25.8063C18.4267 26.7443 9.79105 25.9381 3.86859 23.6047L3.86084 23.6125Z" fill="url(#paint2_linear_4_4209)"/>
<path fill-rule="evenodd" clip-rule="evenodd" d="M26.1553 16.4263V25.8138C28.5429 25.5735 37.4809 24.6511 38.0778 21.3797C38.6592 18.1782 28.3336 16.6743 26.1553 16.4263Z" fill="url(#paint3_linear_4_4209)"/>
<defs>
<linearGradient id="paint0_linear_4_4209" x1="24.8763" y1="22.6279" x2="13.481" y2="10.1628" gradientUnits="userSpaceOnUse">
<stop stop-color="#61B9E2"/>
<stop offset="1" stop-color="#0062A2"/>
</linearGradient>
<linearGradient id="paint1_linear_4_4209" x1="7.10888" y1="15.8449" x2="12.7755" y2="22.2558" gradientUnits="userSpaceOnUse">
<stop stop-color="#60BBE1"/>
<stop offset="1" stop-color="#0062A2"/>
</linearGradient>
<linearGradient id="paint2_linear_4_4209" x1="3.86084" y1="31.3799" x2="37.2173" y2="31.3799" gradientUnits="userSpaceOnUse">
<stop stop-color="#FFDC55"/>
<stop offset="1" stop-color="#EE8722"/>
</linearGradient>
<linearGradient id="paint3_linear_4_4209" x1="32.2406" y1="23.7828" x2="30.1708" y2="16.403" gradientUnits="userSpaceOnUse">
<stop stop-color="#FFDC55"/>
<stop offset="1" stop-color="#EE8722"/>
</linearGradient>
</defs>
</svg>
