<svg width="240" height="80" viewBox="0 0 240 80" fill="none" xmlns="http://www.w3.org/2000/svg">
<path d="M76.6573 43.4808L78.9348 42.2771H77.2895L74.8041 43.654V42.2771H73.583V45.3773H74.8041V44.4421L75.8 43.9225L77.48 45.3773H79.0734L76.6573 43.4808Z" fill="#0066B2"/>
<path d="M71.1063 42.2771V44.3468L68.6209 42.2771H67.4345V45.3773H68.569V43.3509L71.037 45.3773H72.2581V42.2771H71.1063Z" fill="#0066B2"/>
<path d="M63.6675 44.1563H62.8448L63.6675 43.0045V42.2771H63.018L60.6452 45.3773H61.9615L62.4551 44.6672H63.6588V44.1476L63.6675 44.1563Z" fill="#0066B2"/>
<path d="M63.6675 42.2771V43.0045L64.5075 44.1563H63.6675V44.6759H64.8885L65.4254 45.386H66.7677L64.317 42.2858H63.6675V42.2771Z" fill="#0066B2"/>
<path d="M59.9351 44.0176C59.7272 43.8791 59.4588 43.7838 59.0777 43.7318C59.3462 43.6712 59.554 43.576 59.7099 43.4634C59.8658 43.3335 59.9351 43.1949 59.9351 43.065C59.9351 42.9351 59.8744 42.7966 59.7445 42.7013C59.632 42.5887 59.4588 42.5108 59.2856 42.4329C59.095 42.3722 58.8872 42.3376 58.6534 42.3203C58.4023 42.303 58.0385 42.2856 57.5622 42.2856H57.5449H55.1375V45.3859H57.5449C58.1425 45.3859 58.5235 45.3686 58.6967 45.3686C59.0258 45.3512 59.2942 45.2906 59.5194 45.2127C59.7272 45.1347 59.9177 45.0222 60.039 44.9096C60.1689 44.771 60.2468 44.6238 60.2468 44.4853C60.2468 44.3121 60.1342 44.1562 59.9437 44.0263L59.9351 44.0176ZM56.3585 42.7966H57.5449C57.848 42.7966 58.0472 42.7966 58.1165 42.8139C58.3243 42.8139 58.4802 42.8485 58.5755 42.9092C58.688 42.9698 58.7313 43.0391 58.7313 43.1343C58.7313 43.2469 58.6707 43.3248 58.5581 43.3855C58.4456 43.4461 58.2724 43.4807 58.0559 43.498H57.5363H56.3499V42.7879L56.3585 42.7966ZM58.7833 44.7104C58.6707 44.7884 58.5148 44.823 58.3416 44.849C58.2291 44.849 57.9606 44.8663 57.5363 44.8663H56.3499V44.0263H57.5363C57.9952 44.0436 58.281 44.0436 58.4369 44.0869C58.6101 44.1042 58.7227 44.1648 58.8179 44.2168C58.9132 44.2947 58.9478 44.3727 58.9478 44.442C58.9478 44.5545 58.8872 44.6498 58.7746 44.7104H58.7833Z" fill="#0066B2"/>
<path d="M75.6441 27.6624L77.5406 29.5589H91.3358C90.9374 28.9094 90.4958 28.2772 90.0195 27.6624H75.6527H75.6441Z" fill="#EC1C24"/>
<path d="M82.8751 21.9832C80.3291 20.7795 77.4453 20.0867 74.423 20.0867C71.4007 20.0867 68.5083 20.7708 65.945 21.9832H82.8751Z" fill="#EC1C24"/>
<path d="M79.4544 31.446L81.3336 33.3426H93.1544C92.9292 32.6931 92.6521 32.0609 92.3663 31.446H79.4544Z" fill="#EC1C24"/>
<path d="M88.3135 25.7669C87.6034 25.1001 86.8586 24.4506 86.0706 23.8704H62.7495C61.9615 24.4419 61.1994 25.0914 60.5153 25.7669H88.3135Z" fill="#EC1C24"/>
<path d="M63.7627 37.1346L65.6419 35.238H55.1115C54.9556 35.8702 54.8257 36.5024 54.7478 37.1346H63.7627Z" fill="#EC1C24"/>
<path d="M71.3055 29.5589L73.202 27.6624H58.8093C58.333 28.2772 57.8913 28.9094 57.493 29.5589H71.3055Z" fill="#EC1C24"/>
<path d="M94.2628 39.0216H54.5573C54.5399 39.3506 54.5399 39.6536 54.5399 39.9567C54.5399 40.2857 54.5399 40.606 54.5573 40.909H83.9056V44.0259L74.4577 53.5324L67.5125 46.5887H55.6657C58.4023 54.3203 65.7718 59.8268 74.4144 59.8268C85.3778 59.8268 94.2715 50.935 94.2715 39.948C94.2715 39.645 94.2715 39.3333 94.2542 39.0129L94.2628 39.0216Z" fill="#EC1C24"/>
<path d="M67.5298 33.3426L69.4263 31.446H56.4538C56.168 32.0609 55.8996 32.6931 55.6657 33.3426H67.5298Z" fill="#EC1C24"/>
<path d="M147.469 37.8874C146.291 38.6494 144.888 39.0303 143.191 39.0303C140.905 39.0303 139.138 38.4935 137.666 37.2727C136.263 36.0519 135.605 34.0693 135.605 31.2641C135.605 28.6753 136.263 26.7706 137.744 25.5498C139.138 24.4069 141.061 23.8009 143.347 23.8009C144.966 23.8009 146.439 24.1039 147.547 24.7879C148.725 25.4719 149.539 26.3896 149.903 27.5325L156.094 26.4675C155.358 24.7186 154.328 23.342 152.925 22.355C150.491 20.7619 147.469 20 143.641 20C139.294 20 135.83 20.987 133.102 23.0476C130.452 25.0996 129.119 27.9221 129.119 31.645C129.119 35.0649 130.444 37.8874 133.102 39.8701C135.752 41.8442 139.147 42.9091 143.278 42.9091C146.594 42.9091 149.322 42.303 151.531 41.0823C153.661 39.9394 155.211 38.1126 156.172 35.7576L150.058 34.3896C149.548 35.9913 148.733 37.2035 147.478 37.8874H147.469Z" fill="#0767B0"/>
<path d="M120.494 30.2771C118.969 29.7489 116.683 29.2121 113.488 28.6753C110.37 28.1472 108.387 27.6883 107.556 27.2294C106.95 26.8485 106.638 26.3896 106.638 25.8615C106.638 25.2468 106.941 24.7965 107.625 24.4848C108.69 23.9481 110.136 23.645 112.042 23.645C113.947 23.645 115.237 23.9481 116.155 24.4069C117.073 24.9437 117.679 25.7056 117.904 26.8398L124.373 26.684C124.295 24.6234 123.23 23.0303 121.178 21.8095C119.203 20.6061 116.155 20 112.119 20C109.686 20 107.556 20.2338 105.798 20.7619C104.048 21.2987 102.75 21.9827 101.84 22.9697C100.853 23.9567 100.394 25.0303 100.394 26.1645C100.394 27.9134 101.39 29.3593 103.364 30.5801C104.733 31.4892 107.175 32.1732 110.673 32.7879C113.341 33.2468 115.09 33.5498 115.852 33.7749C116.995 34 117.757 34.381 118.216 34.7706C118.675 35.0736 118.822 35.5325 118.822 36.0606C118.822 36.9004 118.363 37.5844 117.298 38.1905C116.233 38.7965 114.64 39.0996 112.578 39.0996C110.517 39.0996 109.002 38.7965 107.859 38.1126C106.716 37.4286 105.954 36.3636 105.573 34.8398L99.2509 35.2987C99.7099 37.8095 101 39.6364 103.131 40.9351C105.339 42.2251 108.465 42.9177 112.501 42.9177C115.237 42.9177 117.601 42.6147 119.498 42.0779C121.325 41.5411 122.771 40.71 123.758 39.645C124.824 38.5022 125.283 37.3593 125.283 36.0693C125.283 34.7013 124.901 33.4805 124.061 32.5714C123.152 31.5844 122.009 30.8225 120.485 30.2857L120.494 30.2771Z" fill="#0767B0"/>
<path d="M183.919 32.71C182.888 31.7922 181.485 31.1082 179.58 30.7273C180.905 30.2684 182.005 29.6624 182.741 28.7446C183.555 27.9048 183.919 26.9178 183.919 25.9308C183.919 24.9437 183.624 24.1039 182.957 23.342C182.368 22.5801 181.563 21.974 180.602 21.4372C179.649 20.9784 178.541 20.6753 177.363 20.5282C176.185 20.4502 174.349 20.3723 171.847 20.3723C171.847 20.3723 171.777 20.3723 171.769 20.3723V22.4935C171.769 23.2987 171.769 24.026 171.769 24.026C173.31 24.026 174.271 24.0953 174.713 24.1039C175.744 24.1818 176.48 24.4849 177.069 24.8658C177.58 25.3247 177.805 25.8615 177.805 26.5455C177.805 27.3074 177.51 27.8355 176.921 28.303C176.333 28.7533 175.449 28.987 174.419 29.065C173.977 29.1429 173.094 29.1429 171.769 29.1429C171.769 29.1429 171.769 29.9654 171.769 30.8312V29.1429C171.249 29.1429 170.591 29.1429 169.855 29.1429H165.733V24.0433H169.335C170.297 24.0433 171.102 24.0433 171.769 24.0433V20.381H159.55V42.5368H170.002C170.669 42.5368 171.249 42.5368 171.769 42.5368V38.8052H165.733V32.8745H171.769V31.1862C171.769 32.0606 171.769 32.8745 171.769 32.8745C174.046 32.8745 175.596 32.9437 176.333 33.1775C177.216 33.4026 177.883 33.7056 178.316 34.1645C178.757 34.6234 178.982 35.2295 178.982 35.8442C178.982 36.684 178.688 37.2901 178.099 37.7489C177.51 38.2078 176.774 38.5108 175.813 38.6667C175.224 38.7446 173.899 38.8225 171.769 38.8225C171.769 38.8225 171.769 39.5671 171.769 40.3896V42.5541C174.782 42.4762 176.696 42.4762 177.58 42.4069C179.268 42.2511 180.68 41.8701 181.78 41.342C182.888 40.7359 183.841 39.974 184.43 39.065C185.088 38.0693 185.46 37.0823 185.46 36.0953C185.46 34.8052 184.949 33.7316 183.919 32.7446V32.71Z" fill="#0767B0"/>
<path d="M99.5367 59.8095V49.8701H100.68L103.061 56.5022V49.8701H104.152V59.8095H102.975L100.628 53.3333V59.8095H99.5367Z" fill="#0767B0"/>
<path d="M108.11 56.1559V54.4762H110.647V58.433C110.396 58.8399 110.041 59.1949 109.574 59.5065C109.106 59.8182 108.63 59.9741 108.153 59.9741C107.547 59.9741 107.01 59.7576 106.56 59.3247C106.11 58.8918 105.763 58.2684 105.538 57.4546C105.313 56.6407 105.2 55.7663 105.2 54.8052C105.2 53.7663 105.33 52.8485 105.581 52.0433C105.832 51.2381 106.205 50.6234 106.698 50.1905C107.071 49.8615 107.538 49.697 108.093 49.697C108.811 49.697 109.383 49.9568 109.79 50.4762C110.197 50.9957 110.457 51.7057 110.578 52.6234L109.409 52.9957C109.322 52.5109 109.175 52.1213 108.941 51.8442C108.716 51.5585 108.43 51.42 108.093 51.42C107.573 51.42 107.166 51.697 106.863 52.2511C106.56 52.8052 106.413 53.6278 106.413 54.7273C106.413 55.9048 106.569 56.7879 106.872 57.3853C107.183 57.9741 107.582 58.2685 108.084 58.2685C108.327 58.2685 108.578 58.1905 108.829 58.026C109.08 57.8615 109.288 57.6624 109.47 57.4286V56.1646H108.127L108.11 56.1559Z" fill="#0767B0"/>
<path d="M116.986 59.8095H115.705L115.194 57.5498H112.864L112.388 59.8095H111.141L113.41 49.8701H114.657L116.986 59.8095ZM112.674 49.3074L113.505 47.3074H114.536L115.358 49.3074H114.458L113.999 48.2944L113.566 49.3074H112.665H112.674ZM114.821 55.8788L114.016 52.1905L113.228 55.8788H114.821Z" fill="#0767B0"/>
<path d="M117.619 59.8095V49.8701H118.762L121.143 56.5022V49.8701H122.234V59.8095H121.057L118.71 53.3333V59.8095H117.619Z" fill="#0767B0"/>
<path d="M125.75 59.8095V49.8701H126.928V53.7835H129.231V49.8701H130.409V59.8095H129.231V55.4632H126.928V59.8095H125.75Z" fill="#0767B0"/>
<path d="M136.878 59.8094H135.596L135.086 57.5496H132.756L132.271 59.8094H131.024L133.293 49.87H134.54L136.869 59.8094H136.878ZM134.575 49.3072H133.873L132.773 47.2812H134.02L134.566 49.3072H134.575ZM134.713 55.8787L133.908 52.1903L133.12 55.8787H134.704H134.713Z" fill="#0767B0"/>
<path d="M137.51 59.8095V49.8701H138.653L141.035 56.5022V49.8701H142.126V59.8095H140.948L138.601 53.3333V59.8095H137.51Z" fill="#0767B0"/>
<path d="M146.092 56.1559V54.4762H148.63V58.433C148.378 58.8399 148.023 59.1949 147.556 59.5065C147.088 59.8182 146.612 59.9741 146.136 59.9741C145.529 59.9741 144.992 59.7576 144.542 59.3247C144.092 58.8918 143.745 58.2684 143.52 57.4546C143.295 56.6407 143.183 55.7663 143.183 54.8052C143.183 53.7663 143.312 52.8485 143.564 52.0433C143.815 51.2381 144.187 50.6234 144.681 50.1905C145.053 49.8615 145.521 49.697 146.075 49.697C146.794 49.697 147.365 49.9568 147.772 50.4762C148.179 50.9957 148.439 51.7057 148.56 52.6234L147.391 52.9957C147.313 52.5109 147.157 52.1213 146.924 51.8442C146.698 51.5585 146.413 51.42 146.075 51.42C145.564 51.42 145.148 51.697 144.845 52.2511C144.542 52.8052 144.386 53.6278 144.386 54.7273C144.386 55.9048 144.542 56.7879 144.845 57.3853C145.148 57.9741 145.555 58.2685 146.058 58.2685C146.3 58.2685 146.551 58.1905 146.794 58.026C147.045 57.8615 147.253 57.6624 147.435 57.4286V56.1646H146.084L146.092 56.1559Z" fill="#0767B0"/>
<path d="M151.669 56.5801L152.812 56.3897C152.882 57.0477 153.02 57.5239 153.237 57.8356C153.444 58.1472 153.73 58.2944 154.085 58.2944C154.466 58.2944 154.752 58.1559 154.943 57.8788C155.133 57.6104 155.228 57.2901 155.228 56.9178C155.228 56.684 155.185 56.4849 155.107 56.3204C155.029 56.1559 154.882 56.0087 154.683 55.8875C154.544 55.8096 154.233 55.6624 153.739 55.4546C153.107 55.1862 152.665 54.8572 152.414 54.4676C152.059 53.9221 151.877 53.2555 151.877 52.4676C151.877 51.9654 151.964 51.4892 152.128 51.0477C152.293 50.6061 152.535 50.2685 152.856 50.0433C153.176 49.8096 153.557 49.697 153.999 49.697C154.726 49.697 155.28 49.9741 155.653 50.5195C156.025 51.065 156.216 51.7923 156.233 52.71L155.055 52.7966C155.003 52.2858 154.899 51.9221 154.735 51.697C154.57 51.4719 154.319 51.3594 153.99 51.3594C153.661 51.3594 153.384 51.4806 153.185 51.723C153.063 51.8788 152.994 52.078 152.994 52.3377C152.994 52.5715 153.055 52.7706 153.167 52.9438C153.315 53.1516 153.678 53.3767 154.25 53.6104C154.821 53.8442 155.246 54.078 155.523 54.3291C155.8 54.5801 156.008 54.9091 156.164 55.342C156.32 55.7663 156.398 56.2944 156.398 56.9265C156.398 57.4979 156.302 58.026 156.12 58.5282C155.939 59.0217 155.67 59.394 155.332 59.6364C154.995 59.8788 154.57 60.0001 154.068 60.0001C153.332 60.0001 152.769 59.7143 152.371 59.1256C151.972 58.5455 151.738 57.697 151.661 56.5888L151.669 56.5801Z" fill="#0767B0"/>
<path d="M162.65 59.8094H161.368L160.857 57.5496H158.528L158.043 59.8094H156.796L159.065 49.87H160.303L162.641 59.8094H162.65ZM160.346 49.3072H159.645L158.545 47.2812H159.801L160.346 49.3072ZM160.485 55.8787L159.68 52.1903L158.892 55.8787H160.476H160.485Z" fill="#0767B0"/>
<path d="M163.239 59.8095V49.8701H164.417V59.8095H163.239Z" fill="#0767B0"/>
<path d="M170.504 56.1559V54.4762H173.042V58.433C172.791 58.8399 172.436 59.1949 171.968 59.5065C171.5 59.8182 171.024 59.9741 170.548 59.9741C169.942 59.9741 169.405 59.7576 168.954 59.3247C168.504 58.8918 168.158 58.2684 167.932 57.4546C167.707 56.6407 167.595 55.7663 167.595 54.8052C167.595 53.7663 167.725 52.8485 167.976 52.0433C168.227 51.2381 168.599 50.6234 169.093 50.1905C169.465 49.8615 169.933 49.697 170.487 49.697C171.206 49.697 171.777 49.9568 172.184 50.4762C172.592 50.9957 172.851 51.7057 172.973 52.6234L171.803 52.9957C171.726 52.5109 171.57 52.1213 171.336 51.8442C171.111 51.5585 170.825 51.42 170.487 51.42C169.976 51.42 169.561 51.697 169.257 52.2511C168.954 52.8052 168.807 53.6278 168.807 54.7273C168.807 55.9048 168.963 56.7879 169.266 57.3853C169.569 57.9741 169.976 58.2685 170.478 58.2685C170.721 58.2685 170.972 58.1905 171.223 58.026C171.474 57.8615 171.682 57.6624 171.864 57.4286V56.1646H170.522L170.504 56.1559Z" fill="#0767B0"/>
<path d="M173.89 54.9004C173.89 53.8874 173.977 53.0389 174.159 52.355C174.289 51.8441 174.471 51.3939 174.704 50.9956C174.93 50.5974 175.181 50.2944 175.458 50.1039C175.822 49.8441 176.237 49.7056 176.714 49.7056C177.571 49.7056 178.255 50.1558 178.775 51.0649C179.294 51.974 179.545 53.2381 179.545 54.8571C179.545 56.4762 179.294 57.7143 178.775 58.6234C178.264 59.5238 177.58 59.9827 176.722 59.9827C175.865 59.9827 175.163 59.5324 174.653 58.632C174.142 57.7316 173.882 56.4935 173.882 54.9091L173.89 54.9004ZM175.103 54.8311C175.103 55.9567 175.25 56.8138 175.562 57.3939C175.865 57.974 176.255 58.2684 176.722 58.2684C177.19 58.2684 177.58 57.9827 177.874 57.4026C178.177 56.8225 178.324 55.9653 178.324 54.8138C178.324 53.6623 178.177 52.8225 177.883 52.2597C177.588 51.6969 177.199 51.4199 176.714 51.4199C176.229 51.4199 175.839 51.7056 175.545 52.2684C175.25 52.8398 175.103 53.6883 175.103 54.8311ZM177.328 49.2987H176.627L175.527 47.2727H176.783L177.328 49.2987Z" fill="#0767B0"/>
<path d="M180.463 59.8095V49.8701H181.606L183.988 56.5022V49.8701H185.079V59.8095H183.901L181.554 53.3333V59.8095H180.463Z" fill="#0767B0"/>
</svg>
