<svg xmlns="http://www.w3.org/2000/svg" width="131" height="40" fill="none" viewBox="0 0 131 40"><g clip-path="url(#clip0_4_2085)"><path fill="#0066B2" d="M21.7997 23.1648L23.8738 22H22.3754L20.112 23.3324V22H19V25H20.112V24.095L21.0189 23.5922L22.5489 25H24L21.7997 23.1648Z"/><path fill="#0066B2" d="M16.8061 22V24.0028L14.2298 22H13V25H14.1759V23.0391L16.7343 25H18V22H16.8061Z"/><path fill="#0066B2" d="M9 23.8184H8.18338L9 22.7039V22H8.3553L6 25H7.30659L7.79656 24.3128H8.9914V23.8101L9 23.8184Z"/><path fill="#0066B2" d="M9 22V22.7019L9.81285 23.8134H9V24.3148H10.1816L10.7011 25H12L9.62849 22.0084H9V22Z"/><path fill="#0066B2" d="M5.69491 23.676C5.49153 23.5419 5.22881 23.4497 4.85593 23.3994C5.11864 23.3408 5.32203 23.2486 5.47458 23.1397C5.62712 23.014 5.69491 22.8799 5.69491 22.7542C5.69491 22.6285 5.63559 22.4944 5.50847 22.4022C5.3983 22.2933 5.22881 22.2179 5.05932 22.1425C4.87288 22.0838 4.66949 22.0503 4.44068 22.0335C4.19492 22.0168 3.83898 22 3.37288 22H3.35593H1V25H3.35593C3.94068 25 4.31356 24.9832 4.48305 24.9832C4.80508 24.9665 5.0678 24.9078 5.28814 24.8324C5.49153 24.757 5.67797 24.648 5.79661 24.5391C5.92373 24.405 6 24.2626 6 24.1285C6 23.9609 5.88983 23.8101 5.70339 23.6844L5.69491 23.676ZM2.19492 22.4944H3.35593C3.65254 22.4944 3.84746 22.4944 3.91525 22.5112C4.11864 22.5112 4.27119 22.5447 4.36441 22.6034C4.47458 22.662 4.51695 22.729 4.51695 22.8212C4.51695 22.9302 4.45763 23.0056 4.34746 23.0642C4.23729 23.1229 4.0678 23.1564 3.85593 23.1732H3.34746H2.18644V22.486L2.19492 22.4944ZM4.5678 24.3464C4.45763 24.4218 4.30508 24.4553 4.13559 24.4804C4.02542 24.4804 3.76271 24.4972 3.34746 24.4972H2.18644V23.6844H3.34746C3.79661 23.7011 4.07627 23.7011 4.22881 23.743C4.3983 23.7598 4.50847 23.8184 4.60169 23.8687C4.69492 23.9441 4.72881 24.0196 4.72881 24.0866C4.72881 24.1955 4.66949 24.2877 4.55932 24.3464H4.5678Z"/><path fill="#EC1C24" d="M21 8L22.9338 10H37C36.5938 9.31507 36.1435 8.6484 35.6578 8H21.0088H21Z"/><path fill="#EC1C24" d="M28 2C25.4435 0.730594 22.5478 0 19.513 0C16.4783 0 13.5739 0.721461 11 2H28Z"/><path fill="#EC1C24" d="M25 11L26.9204 13H39C38.7699 12.3151 38.4867 11.6484 38.1947 11H25Z"/><path fill="#EC1C24" d="M34 6C33.2847 5.2968 32.5346 4.61187 31.7408 4H8.25047C7.4567 4.60274 6.6891 5.28767 6 6H34Z"/><path fill="#EC1C24" d="M9.10254 17L11 15H0.36725C0.209857 15.6667 0.0786963 16.3333 0 17H9.10254Z"/><path fill="#EC1C24" d="M17.0684 10L19 8H4.34068C3.85557 8.6484 3.40573 9.31507 3 10H17.0684Z"/><path fill="#EC1C24" d="M39.9913 19.0087H0.0174368C0 19.3407 0 19.6464 0 19.9522C0 20.2841 0 20.6073 0.0174368 20.9131H29.5641V24.0578L20.0523 33.6493L13.0602 26.6435H1.13339C3.8884 34.4443 11.3078 40 20.0087 40C31.0462 40 40 31.0287 40 19.9434C40 19.6377 40 19.3232 39.9826 19L39.9913 19.0087Z"/><path fill="#EC1C24" d="M13.0705 13L15 11H1.80176C1.51101 11.6484 1.23789 12.3151 1 13H13.0705Z"/><path fill="#0767B0" d="M93.314 17.9584C92.1386 18.7234 90.7385 19.1058 89.0445 19.1058C86.7628 19.1058 84.9997 18.5669 83.5304 17.3413C82.1303 16.1156 81.4734 14.1251 81.4734 11.3088C81.4734 8.70975 82.1303 6.79743 83.6082 5.57181C84.9997 4.42441 86.9184 3.81595 89.2001 3.81595C90.8163 3.81595 92.2855 4.12018 93.3918 4.80688C94.5672 5.49358 95.3796 6.41497 95.7426 7.56236L101.922 6.4932C101.188 4.73734 100.159 3.35525 98.759 2.36432C96.3303 0.764928 93.314 0 89.4939 0C85.1552 0 81.6981 0.99093 78.9757 3.05971C76.331 5.1198 75 7.95351 75 11.6912C75 15.1247 76.3223 17.9584 78.9757 19.949C81.6204 21.9308 85.0083 23 89.1309 23C92.4411 23 95.1636 22.3915 97.3675 21.1659C99.4936 20.0185 101.041 18.1844 102 15.8201L95.8982 14.4467C95.3883 16.0548 94.5759 17.2717 93.3227 17.9584H93.314Z"/><path fill="#0767B0" d="M66.2169 10.3139C64.6946 9.78391 62.4112 9.24518 59.2196 8.70646C56.1058 8.17643 54.1251 7.71591 53.2947 7.25538C52.6893 6.87306 52.3779 6.41254 52.3779 5.88251C52.3779 5.26558 52.6806 4.81375 53.3639 4.50094C54.4278 3.96222 55.8723 3.6581 57.7751 3.6581C59.678 3.6581 60.9667 3.96222 61.8836 4.42274C62.8004 4.96147 63.4059 5.72611 63.6307 6.86438L70.0918 6.70797C70.014 4.63997 68.9501 3.04118 66.9002 1.81602C64.9281 0.608236 61.8836 0 57.853 0C55.4225 0 53.2947 0.234605 51.5389 0.764639C49.7917 1.30336 48.4943 1.9898 47.5862 2.98036C46.6001 3.97091 46.1417 5.04836 46.1417 6.18663C46.1417 7.94182 47.1364 9.3929 49.1084 10.6181C50.475 11.5304 52.9142 12.2169 56.4085 12.8338C59.0725 13.2943 60.8197 13.5984 61.5808 13.8243C62.7226 14.0502 63.4837 14.4326 63.9421 14.8236C64.4005 15.1277 64.5476 15.5882 64.5476 16.1182C64.5476 16.9611 64.0892 17.6475 63.0253 18.2558C61.9614 18.864 60.3699 19.1681 58.3114 19.1681C56.2528 19.1681 54.7392 18.864 53.5975 18.1776C52.4558 17.4911 51.6946 16.4224 51.314 14.8931L45 15.3536C45.4584 17.8734 46.7472 19.7068 48.8749 21.0102C51.0805 22.3049 54.2029 23 58.2335 23C60.9667 23 63.328 22.6959 65.2222 22.1572C67.0472 21.6184 68.4917 20.7843 69.4777 19.7155C70.5416 18.5686 71 17.4216 71 16.1269C71 14.7541 70.6194 13.5289 69.7804 12.6165C68.8723 11.626 67.7305 10.8614 66.2083 10.3226L66.2169 10.3139Z"/><path fill="#0767B0" d="M129.453 12.2365C128.419 11.3263 127.011 10.6479 125.1 10.2701C126.429 9.81499 127.533 9.2139 128.271 8.30367C129.088 7.47073 129.453 6.4918 129.453 5.51288C129.453 4.53396 129.158 3.70101 128.489 2.94536C127.898 2.1897 127.09 1.5886 126.125 1.05621C125.169 0.601093 124.057 0.300546 122.875 0.154567C121.693 0.0772834 119.851 0 117.34 0C117.34 0 117.27 0 117.261 0V2.10383C117.261 2.90242 117.261 3.62373 117.261 3.62373C118.808 3.62373 119.773 3.69243 120.216 3.70101C121.25 3.7783 121.989 4.07884 122.58 4.45667C123.092 4.91179 123.318 5.44418 123.318 6.12256C123.318 6.87822 123.023 7.40203 122.432 7.86573C121.841 8.31226 120.955 8.54411 119.92 8.62139C119.477 8.69867 118.591 8.69867 117.261 8.69867C117.261 8.69867 117.261 9.51444 117.261 10.3731V8.69867C116.74 8.69867 116.08 8.69867 115.341 8.69867H111.205V3.64091H114.82C115.784 3.64091 116.592 3.64091 117.261 3.64091V0.00858703H105V21.9828H115.489C116.158 21.9828 116.74 21.9828 117.261 21.9828V18.2818H111.205V12.3997H117.261V10.7252C117.261 11.5925 117.261 12.3997 117.261 12.3997C119.547 12.3997 121.102 12.4684 121.841 12.7002C122.727 12.9235 123.396 13.224 123.831 13.6792C124.274 14.1343 124.5 14.7354 124.5 15.345C124.5 16.178 124.205 16.7791 123.614 17.2342C123.023 17.6893 122.284 17.9899 121.32 18.1444C120.729 18.2217 119.399 18.299 117.261 18.299C117.261 18.299 117.261 19.0375 117.261 19.8532V22C120.285 21.9227 122.206 21.9227 123.092 21.854C124.787 21.6995 126.203 21.3216 127.307 20.7978C128.419 20.1967 129.375 19.4411 129.966 18.5394C130.626 17.5519 131 16.573 131 15.5941C131 14.3146 130.487 13.2498 129.453 12.2709V12.2365Z"/><path fill="#0767B0" d="M45 40V30H46.2383L48.818 36.6725V30H50V40H48.7242L46.182 33.4843V40H45Z"/><path fill="#0767B0" d="M53.6709 36.2848V34.6504H56V38.5004C55.7695 38.8964 55.4436 39.2418 55.0143 39.5451C54.5851 39.8484 54.1479 40 53.7107 40C53.1542 40 52.6614 39.7894 52.248 39.3682C51.8347 38.9469 51.5167 38.3404 51.31 37.5484C51.1033 36.7565 51 35.9056 51 34.9705C51 33.9596 51.1192 33.0666 51.3498 32.2831C51.5803 31.4996 51.9221 30.9014 52.3752 30.4802C52.717 30.1601 53.1463 30 53.655 30C54.3148 30 54.8394 30.2527 55.213 30.7582C55.5866 31.2637 55.8251 31.9545 55.9364 32.8475L54.8633 33.2098C54.7838 32.738 54.6486 32.3589 54.434 32.0893C54.2273 31.8113 53.965 31.6765 53.655 31.6765C53.1781 31.6765 52.8044 31.9461 52.5262 32.4853C52.248 33.0244 52.1129 33.8248 52.1129 34.8947C52.1129 36.0404 52.256 36.8997 52.5342 37.481C52.8203 38.0539 53.186 38.3404 53.6471 38.3404C53.8696 38.3404 54.1002 38.2645 54.3307 38.1045C54.5612 37.9444 54.752 37.7506 54.9189 37.5232V36.2932H53.6868L53.6709 36.2848Z"/><path fill="#0767B0" d="M63 40H61.6844L61.16 37.6503H58.7689L58.28 40H57L59.3289 29.6648H60.6089L63 40ZM58.5733 29.0796L59.4267 27H60.4844L61.3289 29.0796H60.4044L59.9333 28.0263L59.4889 29.0796H58.5644H58.5733ZM60.7778 35.9127L59.9511 32.0776L59.1422 35.9127H60.7778Z"/><path fill="#0767B0" d="M63 40V30H64.2383L66.818 36.6725V30H68V40H66.7242L64.182 33.4843V40H63Z"/><path fill="#0767B0" d="M71 40V30H72.2639V33.9373H74.7361V30H76V40H74.7361V35.6272H72.2639V40H71Z"/><path fill="#0767B0" d="M83 40H81.6864L81.1627 37.6551H78.7751L78.2781 40H77L79.3254 29.6862H80.6035L82.9911 40H83ZM80.6391 29.1023H79.9201L78.7929 27H80.071L80.6302 29.1023H80.6391ZM80.7811 35.9212L79.9556 32.094L79.1479 35.9212H80.7722H80.7811Z"/><path fill="#0767B0" d="M83 40V30H84.2383L86.818 36.6725V30H88V40H86.7242L84.182 33.4843V40H83Z"/><path fill="#0767B0" d="M91.6709 36.2848V34.6504H94V38.5004C93.7695 38.8964 93.4436 39.2418 93.0143 39.5451C92.5851 39.8484 92.1479 40 91.7106 40C91.1542 40 90.6614 39.7894 90.248 39.3682C89.8347 38.9469 89.5167 38.3404 89.31 37.5484C89.1033 36.7565 89 35.9056 89 34.9705C89 33.9596 89.1192 33.0666 89.3498 32.2831C89.5803 31.4996 89.9221 30.9014 90.3752 30.4802C90.717 30.1601 91.1463 30 91.655 30C92.3148 30 92.8394 30.2527 93.213 30.7582C93.5866 31.2637 93.8251 31.9545 93.9364 32.8475L92.8633 33.2098C92.7917 32.738 92.6486 32.3589 92.434 32.0893C92.2273 31.8113 91.965 31.6765 91.655 31.6765C91.186 31.6765 90.8044 31.9461 90.5262 32.4853C90.248 33.0244 90.1049 33.8248 90.1049 34.8947C90.1049 36.0404 90.248 36.8997 90.5262 37.481C90.8044 38.0539 91.1781 38.3404 91.6391 38.3404C91.8617 38.3404 92.0922 38.2645 92.3148 38.1045C92.5453 37.9444 92.7361 37.7506 92.903 37.5232V36.2932H91.663L91.6709 36.2848Z"/><path fill="#0767B0" d="M97.0091 36.6807L98.2157 36.4958C98.2888 37.1345 98.4351 37.5966 98.6636 37.8992C98.883 38.2017 99.1846 38.3445 99.5594 38.3445C99.9616 38.3445 100.263 38.2101 100.464 37.9412C100.665 37.6807 100.766 37.3697 100.766 37.0084C100.766 36.7815 100.72 36.5882 100.638 36.4286C100.556 36.2689 100.4 36.1261 100.19 36.0084C100.044 35.9328 99.7148 35.7899 99.1938 35.5882C98.5265 35.3277 98.0603 35.0084 97.7952 34.6303C97.4205 34.1008 97.2285 33.4538 97.2285 32.6891C97.2285 32.2017 97.3199 31.7395 97.4936 31.3109C97.6673 30.8824 97.9232 30.5546 98.2614 30.3361C98.5996 30.1092 99.0018 30 99.468 30C100.236 30 100.821 30.2689 101.214 30.7983C101.607 31.3277 101.808 32.0336 101.826 32.9244L100.583 33.0084C100.528 32.5126 100.419 32.1597 100.245 31.9412C100.071 31.7227 99.8062 31.6134 99.4589 31.6134C99.1115 31.6134 98.819 31.7311 98.6088 31.9664C98.4808 32.1176 98.4077 32.3109 98.4077 32.563C98.4077 32.7899 98.4717 32.9832 98.5905 33.1513C98.7459 33.3529 99.1298 33.5714 99.7331 33.7983C100.336 34.0252 100.784 34.2521 101.077 34.4958C101.369 34.7395 101.589 35.0588 101.753 35.479C101.918 35.8908 102 36.4034 102 37.0168C102 37.5714 101.899 38.084 101.707 38.5714C101.516 39.0504 101.232 39.4118 100.876 39.6471C100.519 39.8824 100.071 40 99.5411 40C98.7642 40 98.17 39.7227 97.7495 39.1513C97.3291 38.5882 97.0823 37.7647 97 36.6891L97.0091 36.6807Z"/><path fill="#0767B0" d="M108 40H106.686L106.163 37.6551H103.775L103.278 40H102L104.325 29.6862H105.595L107.991 40H108ZM105.639 29.1023H104.92L103.793 27H105.08L105.639 29.1023ZM105.781 35.9212L104.956 32.094L104.148 35.9212H105.772H105.781Z"/><path fill="#0767B0" d="M109 40V30H110V40H109Z"/><path fill="#0767B0" d="M115.671 36.2848V34.6504H118V38.5004C117.769 38.8964 117.444 39.2418 117.014 39.5451C116.585 39.8484 116.148 40 115.711 40C115.154 40 114.661 39.7894 114.248 39.3682C113.835 38.9469 113.517 38.3404 113.31 37.5484C113.103 36.7565 113 35.9056 113 34.9705C113 33.9596 113.119 33.0666 113.35 32.2831C113.58 31.4996 113.922 30.9014 114.375 30.4802C114.717 30.1601 115.146 30 115.655 30C116.315 30 116.839 30.2527 117.213 30.7582C117.587 31.2637 117.825 31.9545 117.936 32.8475L116.863 33.2098C116.792 32.738 116.649 32.3589 116.434 32.0893C116.227 31.8113 115.965 31.6765 115.655 31.6765C115.186 31.6765 114.804 31.9461 114.526 32.4853C114.248 33.0244 114.113 33.8248 114.113 34.8947C114.113 36.0404 114.256 36.8997 114.534 37.481C114.812 38.0539 115.186 38.3404 115.647 38.3404C115.87 38.3404 116.1 38.2645 116.331 38.1045C116.561 37.9444 116.752 37.7506 116.919 37.5232V36.2932H115.687L115.671 36.2848Z"/><path fill="#0767B0" d="M119.009 34.8018C119.009 33.7657 119.101 32.8978 119.294 32.1982C119.431 31.6757 119.624 31.2153 119.872 30.8079C120.11 30.4005 120.376 30.0906 120.67 29.8958C121.055 29.6301 121.495 29.4884 122 29.4884C122.908 29.4884 123.633 29.9489 124.183 30.8787C124.734 31.8086 125 33.1015 125 34.7575C125 36.4135 124.734 37.6798 124.183 38.6097C123.642 39.5307 122.917 40 122.009 40C121.101 40 120.358 39.5395 119.817 38.6185C119.275 37.6975 119 36.4312 119 34.8106L119.009 34.8018ZM120.294 34.7309C120.294 35.8822 120.45 36.7589 120.78 37.3522C121.101 37.9455 121.514 38.2466 122.009 38.2466C122.505 38.2466 122.917 37.9544 123.229 37.361C123.55 36.7677 123.706 35.891 123.706 34.7132C123.706 33.5354 123.55 32.6764 123.239 32.1008C122.927 31.5252 122.514 31.2418 122 31.2418C121.486 31.2418 121.073 31.5341 120.761 32.1097C120.45 32.6941 120.294 33.562 120.294 34.7309ZM122.651 29.0722H121.908L120.743 27H122.073L122.651 29.0722Z"/><path fill="#0767B0" d="M126 40V30H127.238L129.818 36.6725V30H131V40H129.724L127.182 33.4843V40H126Z"/></g><defs><clipPath id="clip0_4_2085"><rect width="131" height="40" fill="#fff"/></clipPath></defs></svg>