<svg xmlns="http://www.w3.org/2000/svg" width="40" height="40" fill="none" viewBox="0 0 40 40"><g clip-path="url(#clip0_4_4107)"><path fill="#0066B2" d="M22.1174 23.4857L24.3949 22.282H22.7495L20.2641 23.6589V22.282H19.0431V25.3822H20.2641V24.447L21.26 23.9274L22.94 25.3822H24.5335L22.1174 23.4857Z"/><path fill="#0066B2" d="M16.5664 22.282V24.3517L14.081 22.282H12.8946V25.3822H14.029V23.3558L16.4971 25.3822H17.7181V22.282H16.5664Z"/><path fill="#0066B2" d="M9.12752 24.1612H8.30483L9.12752 23.0094V22.282H8.47803L6.10522 25.3822H7.42153L7.91514 24.6721H9.11886V24.1525L9.12752 24.1612Z"/><path fill="#0066B2" d="M9.1275 22.282V23.0094L9.96751 24.1612H9.1275V24.6808H10.3485L10.8855 25.3909H12.2277L9.77699 22.2906H9.1275V22.282Z"/><path fill="#0066B2" d="M5.39511 24.0225C5.18727 23.8839 4.91882 23.7887 4.53778 23.7367C4.80624 23.6761 5.01407 23.5809 5.16995 23.4683C5.32583 23.3384 5.39511 23.1998 5.39511 23.0699C5.39511 22.94 5.33449 22.8015 5.20459 22.7062C5.09201 22.5936 4.91882 22.5157 4.74562 22.4377C4.5551 22.3771 4.34726 22.3425 4.11345 22.3252C3.86231 22.3078 3.49859 22.2905 3.0223 22.2905H3.00498H0.597534V25.3908H3.00498C3.60251 25.3908 3.98355 25.3734 4.15675 25.3734C4.48582 25.3561 4.75428 25.2955 4.97943 25.2176C5.18727 25.1396 5.37779 25.0271 5.49903 24.9145C5.62893 24.7759 5.70687 24.6287 5.70687 24.4901C5.70687 24.3169 5.59429 24.1611 5.40377 24.0312L5.39511 24.0225ZM1.81858 22.8015H3.00498C3.30808 22.8015 3.50726 22.8015 3.57653 22.8188C3.78437 22.8188 3.94025 22.8534 4.03551 22.914C4.14809 22.9747 4.19139 23.0439 4.19139 23.1392C4.19139 23.2518 4.13077 23.3297 4.01819 23.3903C3.90561 23.451 3.73241 23.4856 3.51591 23.5029H2.99632H1.80992V22.7928L1.81858 22.8015ZM4.24335 24.7153C4.13077 24.7932 3.97489 24.8279 3.80169 24.8539C3.68911 24.8539 3.42066 24.8712 2.99632 24.8712H1.80992V24.0312H2.99632C3.4553 24.0485 3.74107 24.0485 3.89695 24.0918C4.07015 24.1091 4.18273 24.1697 4.27798 24.2217C4.37324 24.2996 4.40788 24.3776 4.40788 24.4468C4.40788 24.5594 4.34726 24.6547 4.23468 24.7153H4.24335Z"/><path fill="#EC1C24" d="M21.1041 7.66406L23.0006 9.56058H36.7958C36.3975 8.91109 35.9558 8.27891 35.4795 7.66406H21.1128H21.1041Z"/><path fill="#EC1C24" d="M28.3352 1.98318C25.7892 0.779461 22.9054 0.0866699 19.8831 0.0866699C16.8608 0.0866699 13.9684 0.770801 11.4051 1.98318H28.3352Z"/><path fill="#EC1C24" d="M24.9145 11.4485L26.7937 13.345H38.6144C38.3893 12.6955 38.1122 12.0633 37.8264 11.4485H24.9145Z"/><path fill="#EC1C24" d="M33.7736 5.76761C33.0635 5.1008 32.3187 4.45131 31.5307 3.87109H8.20959C7.42154 4.44265 6.65947 5.09214 5.97534 5.76761H33.7736Z"/><path fill="#EC1C24" d="M9.22276 17.138L11.102 15.2415H0.57154C0.415662 15.8736 0.285764 16.5058 0.207825 17.138H9.22276Z"/><path fill="#EC1C24" d="M16.7655 9.56058L18.662 7.66406H4.2693C3.79301 8.27891 3.35136 8.91109 2.953 9.56058H16.7655Z"/><path fill="#EC1C24" d="M39.7229 19.0257H0.0173198C0 19.3548 0 19.6579 0 19.961C0 20.2901 0 20.6105 0.0173198 20.9136H29.3657V24.0312L19.9177 33.5397L12.9725 26.5945H1.12578C3.86231 34.3278 11.2319 39.8355 19.8744 39.8355C30.8378 39.8355 39.7315 30.9418 39.7315 19.9524C39.7315 19.6493 39.7315 19.3375 39.7142 19.0171L39.7229 19.0257Z"/><path fill="#EC1C24" d="M12.9898 13.345L14.8863 11.4485H1.91384C1.62807 12.0633 1.35961 12.6955 1.12579 13.345H12.9898Z"/></g><defs><clipPath id="clip0_4_4107"><rect width="40" height="40" fill="#fff"/></clipPath></defs></svg>