<svg width="240" height="80" viewBox="0 0 240 80" fill="none" xmlns="http://www.w3.org/2000/svg">
<path fill-rule="evenodd" clip-rule="evenodd" d="M29.4799 39.8951C28.4422 38.2503 28.2215 36.0535 28.2215 34.3756C28.2215 28.6574 33.3325 23.8223 38.6534 23.8223H55.3444L48.8645 30.3574H38.5319C34.3812 30.3574 29.3585 34.5632 29.4689 39.8951H29.4799ZM35.8494 35.2035C36.28 33.8236 37.6267 32.0684 38.8852 31.1411C36.4676 31.1411 33.752 32.2892 31.6656 35.2035H35.8384H35.8494ZM39.1943 31.958C38.2449 32.797 37.2072 34.0555 36.6774 35.2035H41.6891C41.1592 34.0555 40.1215 32.786 39.1943 31.958ZM31.2572 36.0535C30.639 37.1685 30.3299 38.4379 30.2195 39.6964H34.9001C34.9001 38.4379 35.1319 37.1685 35.5403 36.0535H31.2572ZM36.3572 36.0535C35.9377 37.1685 35.7501 38.4379 35.6397 39.6964H42.7268C42.6164 38.4379 42.4177 37.1685 42.0092 36.0535H36.3683H36.3572ZM46.6015 35.2035C44.6144 32.2892 41.8878 31.1411 39.5144 31.1411C40.7397 32.0684 42.0092 33.8236 42.5391 35.2035H46.6015ZM42.8482 36.0535C43.2787 37.1685 43.4664 38.4379 43.4664 39.6964H48.1469C48.0697 38.4379 47.7495 37.1685 47.1093 36.0535H42.8371H42.8482ZM31.6877 44.8075C33.7631 47.8432 36.4897 48.8809 38.9072 48.8809C37.6378 47.9205 36.302 46.1653 35.8715 44.8075H31.6988H31.6877ZM39.2053 48.1523C40.1326 47.3133 41.1703 45.9666 41.7001 44.8075H36.6884C37.2183 45.9555 38.2559 47.3133 39.2053 48.1523ZM35.5624 44.0899C35.1429 42.8315 34.9222 41.5841 34.9222 40.4471H30.2416C30.352 41.6834 30.6611 42.9419 31.2793 44.0899H35.5624ZM42.0203 44.0899C42.4397 42.9419 42.6274 41.6724 42.7378 40.4471H35.6507C35.7611 41.6834 35.9598 42.9419 36.3683 44.0899H42.0092H42.0203ZM42.5501 44.8075C42.0203 46.1653 40.7508 47.9205 39.5254 48.8809C41.9099 48.8809 44.6255 47.8432 46.6125 44.8075H42.5501ZM47.1203 44.0899C47.7606 42.9419 48.0807 41.6724 48.158 40.4471H43.4774C43.4774 41.5841 43.2897 42.8315 42.8592 44.0899H47.1313H47.1203ZM48.8865 40.0165C48.9969 45.5471 43.9962 49.7198 39.8235 49.7198H29.4799L23 56.1777H39.691C45.0229 56.1777 50.1339 51.3867 50.1339 45.6575C50.1339 43.9795 49.9352 41.7828 48.8645 40.1269V40.0165H48.8865Z" fill="#E20613"/>
<path fill-rule="evenodd" clip-rule="evenodd" d="M207.319 30.6885H211.48V31.2956H209.747V35.8106H209.052V31.2956H207.319V30.6885Z" fill="#E20613"/>
<path fill-rule="evenodd" clip-rule="evenodd" d="M216.338 35.8106V32.7859C216.338 32.6424 216.349 31.9911 216.349 31.5054H216.338L214.892 35.8106H214.207L212.761 31.5164H212.75C212.75 31.9911 212.761 32.6424 212.761 32.7859V35.8106H212.088V30.6885H213.081L214.549 35.0268H214.56L216.018 30.6885H217V35.8106H216.327H216.338Z" fill="#E20613"/>
<path fill-rule="evenodd" clip-rule="evenodd" d="M97.6791 48.8587C93.3407 48.8587 90.2388 46.2535 90.2388 42.1801C90.2388 38.1067 93.4622 35.4684 97.6791 35.4684C101.896 35.4684 105.119 38.1288 105.119 42.1801C105.119 46.2314 101.984 48.8587 97.6791 48.8587ZM171.85 35.7775V48.5827H167.523L167.457 47.2912H167.357C166.883 47.7217 165.878 48.8698 163.085 48.8698C159.994 48.8698 157.279 46.1762 157.279 42.1691C157.279 38.4489 159.685 35.4794 163.372 35.4794C165.878 35.4794 166.905 36.5833 167.291 36.9366H167.402L167.446 35.7775H171.839H171.85ZM138.446 35.7775V48.5827H134.119L134.053 47.2912H133.964C133.49 47.7217 132.485 48.8698 129.692 48.8698C126.601 48.8698 123.886 46.1762 123.886 42.1691C123.886 38.4489 126.292 35.4794 129.979 35.4794C132.485 35.4794 133.512 36.5833 133.898 36.9366H134.009L134.053 35.7775H138.446ZM117.428 35.7775H121.888V48.5938H117.428V35.7775ZM141.327 48.5607V30.5229H145.776V36.7158H145.82C146.129 36.5171 147.576 35.4905 149.684 35.4905C153.15 35.4905 155.689 38.2723 155.689 41.9593C155.689 46.5626 152.863 48.8808 149.651 48.8808C147.222 48.8808 145.986 47.7548 145.677 47.4236H145.611L145.544 48.5938H141.316L141.327 48.5607ZM97.6791 45.6353C99.4895 45.6353 100.549 44.0457 100.549 42.158C100.549 40.2704 99.5336 38.6587 97.6791 38.6587C95.8245 38.6587 94.8089 40.2483 94.8089 42.158C94.8089 44.0678 95.8797 45.6353 97.6791 45.6353ZM115.264 45.0834C115.043 45.1386 114.447 45.3042 114.028 45.3042C113.123 45.3042 112.14 44.8847 112.14 43.3171V38.9898H114.944V35.7664H112.14V31.6378H107.68V35.7664H105.738V38.9898H107.68V44.0567C107.68 46.8386 108.972 48.8366 112.273 48.8366C113.233 48.8366 114.105 48.7042 114.712 48.5938L115.264 45.0834ZM64.5951 48.097C65.8425 48.4724 67.7302 48.8256 69.7393 48.8256C73.5367 48.8256 77.3341 47.4788 77.3341 43.3061C77.3341 37.5768 69.4302 38.3716 69.4302 36.0866C69.4302 34.9164 70.6445 34.6625 71.8367 34.6625C73.4925 34.6625 75.5789 35.4573 76.0426 35.645L76.4068 31.7041C75.2588 31.3067 73.5036 31.0859 71.8588 31.0859C68.1055 31.0859 64.3964 32.5541 64.3964 36.2742C64.3964 41.9041 72.2782 40.734 72.2782 43.6814C72.2782 44.8184 71.1412 45.249 69.6951 45.249C67.7081 45.249 65.8425 44.2554 65.0256 43.8912L64.5951 48.1081V48.097ZM162.004 42.0366C162.004 44.1561 163.185 45.4808 164.719 45.4808C166.099 45.4808 167.457 44.1782 167.457 42.2132C167.457 40.2483 166.265 38.8684 164.719 38.8684C163.174 38.8684 162.004 40.2924 162.004 42.0366ZM128.599 42.0366C128.599 44.1561 129.781 45.4808 131.315 45.4808C132.706 45.4808 134.053 44.1782 134.053 42.2132C134.053 40.2483 132.86 38.8684 131.315 38.8684C129.77 38.8684 128.599 40.2924 128.599 42.0366ZM89.0907 35.9541C88.7595 35.8658 87.5342 35.4353 85.9115 35.4353C81.8932 35.4353 78.8906 37.9522 78.8906 42.136C78.8906 45.9334 81.5952 48.8256 85.7348 48.8256C87.5011 48.8256 88.7926 48.3509 89.0907 48.2626L88.8699 44.5314C88.5277 44.686 87.6335 45.1938 86.618 45.1938C84.8186 45.1938 83.5049 43.9243 83.5049 42.1249C83.5049 40.2372 84.9069 39.034 86.6731 39.034C87.6667 39.034 88.5498 39.4976 88.881 39.6632L89.1017 35.9541H89.0907ZM190.826 48.5717H195.264V42.6437H195.308L199.26 48.5717H204.206L199.448 41.7827L204.084 35.7775H199.15L195.319 41.0541H195.275V30.545H190.837V48.6048L190.826 48.5717ZM174.72 48.5717H179.059V41.9593C179.059 40.4139 180.085 39.3541 181.399 39.3541C182.9 39.3541 183.75 40.3256 183.75 41.9593V48.5717H188.089V40.8554C188.089 37.9522 186.223 35.4684 182.79 35.4684C180.505 35.4684 179.313 36.7158 178.761 37.2015H178.672L178.628 35.7775H174.72V48.5607V48.5717ZM119.658 29.3086C118.289 29.3086 117.152 30.4346 117.152 31.8145C117.152 33.1943 118.278 34.3203 119.658 34.3203C121.038 34.3203 122.164 33.1943 122.164 31.8145C122.164 30.4346 121.038 29.3086 119.658 29.3086ZM151.086 42.1801C151.086 40.4691 150.114 38.9457 148.403 38.9457C146.902 38.9457 145.699 40.2262 145.699 42.1801C145.699 44.134 146.681 45.4256 148.403 45.4256C149.949 45.4256 151.086 44.134 151.086 42.1801Z" fill="#E20613"/>
</svg>
