<svg xmlns="http://www.w3.org/2000/svg" width="240" height="40" fill="none" viewBox="0 0 240 40"><g clip-path="url(#clip0_9_7)"><path fill="#E20613" fill-rule="evenodd" d="M8.01365 19.8704C6.73038 17.8369 6.45734 15.1211 6.45734 13.0467C6.45734 5.97748 12.7782 0 19.3584 0H40L31.9863 8.07915H19.2082C14.0751 8.07915 7.86348 13.2787 8 19.8704H8.01365ZM15.8908 14.0703C16.4232 12.3644 18.0887 10.1945 19.6451 9.04811C16.6553 9.04811 13.2969 10.4674 10.7167 14.0703H15.8771H15.8908ZM20.0273 10.058C18.8532 11.0952 17.57 12.651 16.9147 14.0703H23.1126C22.4573 12.651 21.1741 11.0815 20.0273 10.058ZM10.2116 15.1211C9.4471 16.4995 9.06485 18.0689 8.92833 19.6247H14.7167C14.7167 18.0689 15.0034 16.4995 15.5085 15.1211H10.2116ZM16.5188 15.1211C16 16.4995 15.7679 18.0689 15.6314 19.6247H24.3959C24.2594 18.0689 24.0137 16.4995 23.5085 15.1211H16.5324H16.5188ZM29.1877 14.0703C26.7304 10.4674 23.3584 9.04811 20.4232 9.04811C21.9386 10.1945 23.5085 12.3644 24.1638 14.0703H29.1877ZM24.5461 15.1211C25.0785 16.4995 25.3106 18.0689 25.3106 19.6247H31.099C31.0034 18.0689 30.6075 16.4995 29.8157 15.1211H24.5324H24.5461ZM10.744 25.9434C13.3106 29.6964 16.6826 30.9792 19.6724 30.9792C18.1024 29.7919 16.4505 27.622 15.9181 25.9434H10.7577H10.744ZM20.041 30.0785C21.1877 29.0413 22.471 27.3763 23.1263 25.9434H16.9283C17.5836 27.3627 18.8669 29.0413 20.041 30.0785ZM15.5358 25.0563C15.0171 23.5005 14.744 21.9584 14.744 20.5527H8.95563C9.09215 22.0812 9.4744 23.637 10.2389 25.0563H15.5358ZM23.5222 25.0563C24.041 23.637 24.273 22.0676 24.4096 20.5527H15.6451C15.7816 22.0812 16.0273 23.637 16.5324 25.0563H23.5085H23.5222ZM24.1775 25.9434C23.5222 27.622 21.9522 29.7919 20.4369 30.9792C23.3857 30.9792 26.744 29.6964 29.2014 25.9434H24.1775ZM29.8294 25.0563C30.6212 23.637 31.0171 22.0676 31.1126 20.5527H25.3242C25.3242 21.9584 25.0922 23.5005 24.5597 25.0563H29.843H29.8294ZM32.0137 20.0205C32.1502 26.8577 25.9659 32.0164 20.8055 32.0164H8.01365L0 40H20.6416C27.2355 40 33.5563 34.0771 33.5563 26.9942C33.5563 24.9198 33.3106 22.204 31.9863 20.1569V20.0205H32.0137Z" clip-rule="evenodd"/><path fill="#E20613" fill-rule="evenodd" d="M228 8H233V8.71121H230.918V14H230.082V8.71121H228V8Z" clip-rule="evenodd"/><path fill="#E20613" fill-rule="evenodd" d="M239.191 14V10.4569C239.191 10.2888 239.204 9.52586 239.204 8.9569H239.191L237.425 14H236.589L234.822 8.96983H234.809C234.809 9.52586 234.822 10.2888 234.822 10.4569V14H234V8H235.213L237.007 13.0819H237.02L238.8 8H240V14H239.178H239.191Z" clip-rule="evenodd"/><path fill="#E20613" fill-rule="evenodd" d="M92.184 30.9729C86.8157 30.9729 82.9773 27.7783 82.9773 22.7834C82.9773 17.7885 86.966 14.5533 92.184 14.5533C97.402 14.5533 101.391 17.8156 101.391 22.7834C101.391 27.7513 97.5113 30.9729 92.184 30.9729ZM183.963 14.9323V30.6345H178.609L178.527 29.0508H178.404C177.817 29.5787 176.574 30.9865 173.118 30.9865C169.293 30.9865 165.933 27.6836 165.933 22.7699C165.933 18.2081 168.91 14.5668 173.473 14.5668C176.574 14.5668 177.844 15.9205 178.322 16.3536H178.459L178.513 14.9323H183.95H183.963ZM142.629 14.9323V30.6345H137.275L137.193 29.0508H137.083C136.496 29.5787 135.253 30.9865 131.797 30.9865C127.972 30.9865 124.612 27.6836 124.612 22.7699C124.612 18.2081 127.59 14.5668 132.152 14.5668C135.253 14.5668 136.523 15.9205 137.001 16.3536H137.138L137.193 14.9323H142.629ZM116.621 14.9323H122.14V30.6481H116.621V14.9323ZM146.194 30.6074V8.489H151.699V16.0829H151.754C152.136 15.8393 153.926 14.5804 156.535 14.5804C160.824 14.5804 163.966 17.9915 163.966 22.5127C163.966 28.1574 160.469 31 156.494 31C153.489 31 151.959 29.6193 151.576 29.2132H151.494L151.412 30.6481H146.181L146.194 30.6074ZM92.184 27.0203C94.4242 27.0203 95.7355 25.0711 95.7355 22.7563C95.7355 20.4416 94.4788 18.4653 92.184 18.4653C89.8891 18.4653 88.6325 20.4146 88.6325 22.7563C88.6325 25.0981 89.9574 27.0203 92.184 27.0203ZM113.944 26.3435C113.671 26.4112 112.933 26.6142 112.414 26.6142C111.294 26.6142 110.078 26.0998 110.078 24.1777V18.8714H113.548V14.9188H110.078V9.85618H104.56V14.9188H102.156V18.8714H104.56V25.0846C104.56 28.4958 106.158 30.9459 110.242 30.9459C111.43 30.9459 112.51 30.7834 113.261 30.6481L113.944 26.3435ZM51.2459 30.0389C52.7894 30.4992 55.1252 30.9323 57.6113 30.9323C62.3102 30.9323 67.0092 29.2809 67.0092 24.1641C67.0092 17.1387 57.2288 18.1134 57.2288 15.3113C57.2288 13.8765 58.7314 13.5651 60.2066 13.5651C62.2556 13.5651 64.8373 14.5398 65.411 14.7699L65.8617 9.93739C64.4411 9.45008 62.2692 9.17936 60.234 9.17936C55.5897 9.17936 51 10.9797 51 15.5415C51 22.445 60.753 21.0102 60.753 24.6244C60.753 26.0186 59.3461 26.5465 57.5567 26.5465C55.0979 26.5465 52.7894 25.3283 51.7786 24.8816L51.2459 30.0525V30.0389ZM171.779 22.6074C171.779 25.2064 173.241 26.8308 175.139 26.8308C176.847 26.8308 178.527 25.2335 178.527 22.824C178.527 20.4146 177.052 18.7225 175.139 18.7225C173.227 18.7225 171.779 20.4687 171.779 22.6074ZM130.445 22.6074C130.445 25.2064 131.906 26.8308 133.805 26.8308C135.526 26.8308 137.193 25.2335 137.193 22.824C137.193 20.4146 135.717 18.7225 133.805 18.7225C131.893 18.7225 130.445 20.4687 130.445 22.6074ZM81.5567 15.1489C81.1469 15.0406 79.6307 14.5127 77.6227 14.5127C72.6506 14.5127 68.9352 17.599 68.9352 22.7293C68.9352 27.3858 72.2818 30.9323 77.4042 30.9323C79.5897 30.9323 81.1879 30.3503 81.5567 30.242L81.2835 25.6667C80.8601 25.8562 79.7537 26.4788 78.497 26.4788C76.2704 26.4788 74.6449 24.9222 74.6449 22.7157C74.6449 20.401 76.3797 18.9255 78.5653 18.9255C79.7946 18.9255 80.8874 19.4941 81.2972 19.6971L81.5704 15.1489H81.5567ZM207.444 30.621H212.936V23.3519H212.99L217.88 30.621H224L218.113 22.2961L223.85 14.9323H217.744L213.004 21.4027H212.949V8.51607H207.458V30.6616L207.444 30.621ZM187.515 30.621H192.883V22.5127C192.883 20.6176 194.154 19.3181 195.779 19.3181C197.637 19.3181 198.689 20.5093 198.689 22.5127V30.621H204.057V21.1591C204.057 17.599 201.748 14.5533 197.5 14.5533C194.673 14.5533 193.197 16.0829 192.514 16.6785H192.405L192.35 14.9323H187.515V30.6074V30.621ZM119.38 7C117.687 7 116.28 8.38071 116.28 10.0728C116.28 11.7648 117.673 13.1455 119.38 13.1455C121.088 13.1455 122.481 11.7648 122.481 10.0728C122.481 8.38071 121.088 7 119.38 7ZM158.27 22.7834C158.27 20.6853 157.068 18.8173 154.95 18.8173C153.093 18.8173 151.604 20.3875 151.604 22.7834C151.604 25.1794 152.819 26.7631 154.95 26.7631C156.863 26.7631 158.27 25.1794 158.27 22.7834Z" clip-rule="evenodd"/></g><defs><clipPath id="clip0_9_7"><rect width="240" height="40" fill="#fff"/></clipPath></defs></svg>