<svg xmlns="http://www.w3.org/2000/svg" width="194" height="40" fill="none" viewBox="0 0 194 40"><g clip-path="url(#clip0_4_2084)"><path fill="#D71921" d="M32.6586 0H7.34137C3.28685 0 0 3.28684 0 7.34137V32.6586C0 36.7132 3.28684 40 7.34137 40H32.6586C36.7132 40 40 36.7132 40 32.6586V7.34137C40 3.28685 36.7132 0 32.6586 0Z"/><path fill="#fff" d="M20.5 2C10.2847 2 2 10.2847 2 20.5C2 30.7153 10.2847 39 20.5 39C30.7153 39 39 30.7153 39 20.5C39 10.2847 30.7153 2 20.5 2ZM9.72248 20.5C12.2471 19.5771 14.4748 18.1451 16.3099 16.3099C18.1451 14.4748 19.5877 12.2365 20.5 9.72248C21.4229 12.2365 22.8549 14.4748 24.6901 16.3099C26.5252 18.1451 28.7635 19.5771 31.2775 20.5C28.7635 21.4229 26.5252 22.8655 24.6901 24.6901C22.8549 26.5252 21.4229 28.7635 20.5 31.2775C19.5771 28.7635 18.1451 26.5252 16.3099 24.6901C14.4748 22.8549 12.2471 21.4229 9.72248 20.5ZM4.43979 19.2377C5.06565 11.3455 11.3455 5.06565 19.2377 4.43979C18.5376 12.5654 12.576 18.527 4.43979 19.2377ZM4.43979 21.7623C12.576 22.4624 18.5376 28.4346 19.2377 36.5602C11.3455 35.9343 5.06565 29.6545 4.43979 21.7623ZM36.5708 21.7623C35.945 29.6545 29.6651 35.9343 21.7729 36.5602C22.4731 28.4346 28.4346 22.4731 36.5708 21.7623ZM36.5708 19.2377C28.4346 18.527 22.4731 12.576 21.7729 4.43979C29.6651 5.06565 35.945 11.3455 36.5708 19.2377Z"/><path fill="#1F1A17" d="M66.6323 22.5977C66.3771 21.9457 65.9891 21.3252 65.4582 20.7783C64.9783 20.2945 64.4167 19.8738 63.7735 19.5162C63.1303 19.1586 62.4768 18.8431 61.7825 18.5697C61.0372 18.2647 60.251 17.9702 59.4546 17.6968C58.6582 17.4338 57.8516 17.1078 57.0348 16.7397C56.1261 16.3401 55.4522 15.8247 54.9928 15.2252C54.5435 14.6258 54.3087 13.8685 54.3087 12.943C54.3087 12.0701 54.6456 11.355 55.3705 10.745C56.0852 10.135 56.9531 9.82997 57.9843 9.82997C58.9747 9.82997 59.812 10.0088 60.4654 10.3558C61.1393 10.7134 61.711 11.1762 62.1807 11.7756C62.6708 12.3961 63.0588 13.0798 63.3651 13.858C63.6714 14.6363 63.9573 15.4461 64.2023 16.298L64.2432 16.4557H65.9993L65.8564 8.51534H64.1717L63.5182 9.52498C62.8239 9.13585 62.0684 8.78878 61.2516 8.4943C60.3531 8.16827 59.3321 8 58.1988 8C57.1982 8 56.2486 8.15776 55.3297 8.48379C54.4108 8.7993 53.6144 9.25153 52.9303 9.81946C52.2156 10.4189 51.6643 11.1131 51.2763 11.8808C50.8883 12.6591 50.6943 13.5004 50.6943 14.3839C50.6943 15.9194 51.0823 17.1919 51.8787 18.1595C52.6546 19.1271 53.7471 19.8948 55.1357 20.4733C55.83 20.7677 56.657 21.0938 57.6066 21.4198C58.5561 21.7458 59.4036 22.0613 60.1387 22.3243C61.1903 22.7239 61.9561 23.2813 62.4666 24.0175C62.9873 24.7642 63.2426 25.553 63.2426 26.4154C63.2426 27.0149 63.1609 27.5302 62.9873 27.972C62.824 28.4137 62.5789 28.8028 62.2318 29.1288C61.8948 29.4549 61.4558 29.7073 60.8942 29.8966C60.3429 30.0754 59.6792 30.17 58.9135 30.17C57.8924 30.17 57.0144 29.9912 56.2588 29.6337C55.4931 29.2761 54.8294 28.7923 54.2576 28.1823C53.6552 27.5302 53.1651 26.8256 52.7874 26.0789C52.4198 25.3216 52.0931 24.4698 51.8072 23.5337L51.7561 23.376H50L50.2553 31.5583H51.9399L52.624 30.4645C53.3898 30.8747 54.2678 31.2323 55.2786 31.5267C56.3711 31.8422 57.4636 32 58.5663 32C60.9351 32 62.9465 31.3374 64.5597 30.0123C66.1831 28.6871 67.0101 26.9623 66.9999 24.9115C66.9999 24.0491 66.8774 23.2919 66.6221 22.6293"/><path fill="#1F1A17" d="M151.594 29.8408C151.229 29.8408 150.972 29.7776 150.843 29.7038C150.532 29.5458 150.317 29.3668 150.177 29.1561C150.049 28.956 149.973 28.6716 149.973 28.2924C149.973 26.9021 149.995 25.6171 150.027 24.448C150.059 23.2683 150.081 21.9201 150.081 20.4033C150.081 19.3185 149.92 18.4126 149.587 17.6964C149.254 16.9907 148.761 16.4219 148.117 16.0006C147.484 15.5793 146.775 15.3055 146.003 15.1791C145.241 15.0632 144.36 15 143.352 15C142.6 15 141.838 15.1053 141.055 15.316C140.282 15.5161 139.617 15.7794 139.059 16.0954C138.426 16.4641 137.9 16.8748 137.492 17.3383C137.084 17.8123 136.859 18.3389 136.859 18.8866C136.859 19.3922 137.009 19.8662 137.32 20.277C137.642 20.7193 138.168 20.9405 138.812 20.9405C139.509 20.9405 140.089 20.7825 140.518 20.4244C140.926 20.0874 141.162 19.6871 141.162 19.2342C141.162 18.8656 141.098 18.4548 140.991 18.0335C140.894 17.6964 140.851 17.4226 140.83 17.2435C141.001 17.1171 141.28 16.9696 141.667 16.8327C142.117 16.6747 142.6 16.601 143.116 16.601C143.888 16.601 144.457 16.7485 144.833 17.0012C145.241 17.2751 145.552 17.5911 145.777 17.9597C145.981 18.2862 146.11 18.6338 146.174 19.0025C146.239 19.3922 146.271 19.6555 146.271 19.7608V21.2038C145.691 21.4672 144.629 21.8253 143.116 22.2782C141.473 22.7627 140.39 23.0998 139.853 23.2893C139.413 23.4368 138.941 23.6475 138.447 23.9002C137.943 24.153 137.524 24.4585 137.213 24.7955C136.816 25.1958 136.515 25.6487 136.311 26.1543C136.107 26.6599 136 27.2286 136 27.8606C136 29.0824 136.461 30.1041 137.363 30.8625C138.254 31.6208 139.402 32 140.765 32C142.042 32 143.148 31.7893 144.071 31.368C144.908 30.9888 145.691 30.4517 146.432 29.767C146.625 30.4201 146.99 30.9362 147.516 31.2943C148.117 31.7156 148.911 31.9157 149.866 31.9157C150.424 31.9157 150.918 31.8525 151.369 31.7367C151.798 31.6208 152.292 31.4734 152.85 31.2943L153 31.2416V29.8408H152.775C152.378 29.8408 151.98 29.8408 151.594 29.8302M146.314 22.9628L146.217 28.0923C145.809 28.5558 145.305 28.956 144.704 29.2931C144.092 29.6406 143.395 29.8197 142.579 29.8197C141.817 29.8197 141.227 29.6301 140.744 29.2509C140.293 28.8928 140.057 28.324 140.046 27.4709C140.046 26.8284 140.207 26.2912 140.529 25.8383C140.851 25.3643 141.302 24.9641 141.871 24.6165C142.515 24.2478 143.201 23.9318 143.953 23.6791C144.64 23.4473 145.423 23.2156 146.314 22.9734"/><path fill="#1F1A17" d="M172.943 30.3799C172.751 30.3367 172.527 30.2611 172.25 30.1531C171.93 30.0343 171.737 29.8723 171.631 29.6995C171.513 29.5159 171.449 29.2459 171.449 28.9003V20.5191C171.449 18.8774 171.033 17.5381 170.179 16.5229C169.315 15.486 167.991 15 166.273 15C165.494 15 164.8 15.0864 164.171 15.27C163.552 15.4428 163.018 15.6696 162.559 15.9504C162.164 16.1881 161.759 16.4905 161.321 16.8577C161.022 17.1061 160.766 17.3437 160.531 17.5489V15.6048L160.211 15.3024L160.137 15.2376L154 15.6156V17.1169H154.213C154.566 17.1493 154.886 17.1925 155.185 17.2465C155.473 17.3005 155.718 17.3869 155.91 17.5057C156.188 17.6785 156.391 17.9053 156.551 18.1753C156.7 18.4562 156.785 18.7586 156.785 19.0826V29.0191C156.785 29.3755 156.711 29.6455 156.583 29.8399C156.455 30.0343 156.263 30.1747 155.964 30.2611C155.772 30.3151 155.537 30.3583 155.259 30.3907C154.971 30.4123 154.683 30.4339 154.416 30.4555H154.213V31.9892H163.242V30.4771H163.029C162.73 30.4447 162.442 30.4123 162.154 30.3475C161.876 30.2935 161.631 30.2179 161.396 30.1207C161.086 30.0019 160.884 29.8399 160.745 29.6455C160.606 29.4511 160.531 29.1919 160.531 28.8571V19.655C160.638 19.493 160.788 19.2878 160.99 19.0394C161.204 18.7694 161.492 18.521 161.876 18.2834C162.26 18.0349 162.709 17.8189 163.221 17.6461C163.712 17.4733 164.267 17.3869 164.875 17.3869C165.665 17.3869 166.305 17.6677 166.86 18.251C167.394 18.8126 167.682 19.6334 167.682 20.7351V29.0191C167.682 29.3755 167.607 29.6563 167.479 29.8507C167.351 30.0451 167.159 30.1855 166.86 30.2719C166.668 30.3259 166.412 30.3691 166.102 30.4015C165.772 30.4231 165.473 30.4447 165.195 30.4663H164.993V32H174V30.4879H173.787C173.424 30.4555 173.146 30.4231 172.954 30.3799"/><path fill="#1F1A17" d="M193.767 29.522C192.996 29.4801 192.425 29.3648 192.055 29.1866C191.696 29.0189 191.241 28.6415 190.744 28.0231C190.194 27.3627 189.317 26.283 188.112 24.7841C186.97 23.369 185.934 22.1426 185.015 21.1048C185.86 20.4025 186.526 19.826 187.013 19.3753C187.531 18.9036 187.922 18.5681 188.197 18.3585C188.577 18.0545 189.148 17.6981 189.899 17.3103C190.638 16.9224 191.495 16.5975 192.467 16.3354L192.636 16.2935V14.9203H184.56V16.3459L184.751 16.3669C185.205 16.4193 185.691 16.5136 186.188 16.6499C186.674 16.7862 186.801 16.9539 186.791 17.0797C186.791 17.0901 186.77 17.1845 186.664 17.3208C186.558 17.4675 186.463 17.5828 186.378 17.6771C185.649 18.4109 184.761 19.2495 183.704 20.1929C182.784 21.0105 181.918 21.7862 181.104 22.5094V6.37736L180.797 6.07338L180.723 6L174 6.36688V7.79245H174.201C174.518 7.8239 174.93 7.86583 175.448 7.91824C175.956 7.97065 176.304 8.07547 176.505 8.21174C176.77 8.36897 176.981 8.59958 177.15 8.92453C177.319 9.23899 177.404 9.56394 177.404 9.92034V28.1069C177.404 28.4528 177.33 28.7254 177.203 28.914C177.066 29.1027 176.875 29.239 176.59 29.3229C176.41 29.3648 176.178 29.4067 175.892 29.4382C175.607 29.4591 175.321 29.4801 175.057 29.5115L174.856 29.5325V31H183.799V29.5325H183.588C183.26 29.501 182.964 29.4696 182.721 29.4067C182.478 29.3543 182.224 29.2809 181.949 29.1761C181.643 29.0713 181.442 28.914 181.326 28.7254C181.199 28.5157 181.125 28.2432 181.125 27.8973V24.2809L182.33 23.2746C183.397 24.5115 184.433 25.7694 185.427 27.0692C186.474 28.4319 187.446 29.7107 188.366 30.9057L188.429 30.9895H194V29.522H193.789H193.767Z"/><path fill="#1F1A17" d="M110.797 30.4596C110.529 30.4491 110.176 30.3963 109.759 30.2908C109.342 30.1959 109.01 30.0798 108.764 29.9427C108.389 29.7211 108.1 29.4784 107.897 29.2569C107.694 29.0248 107.512 28.7188 107.341 28.3284L99.0058 9H97.3152L97.2617 9.12661C96.0848 11.8486 94.7473 14.9505 93.2387 18.4321C91.7407 21.9138 90.3605 25.0472 89.1086 27.8431C88.8733 28.3706 88.6272 28.7821 88.3918 29.0775C88.1564 29.3624 87.814 29.6472 87.3646 29.911C87.0971 30.0587 86.7547 30.1853 86.3161 30.2803C85.8667 30.3752 85.4922 30.4385 85.214 30.4596H85V32H94.7901V30.4596H94.5761C93.6774 30.4069 92.8642 30.2697 92.1473 30.0482C91.4305 29.8161 91.1844 29.5417 91.1951 29.2885C91.1951 29.1303 91.2272 28.9087 91.2807 28.6344C91.3342 28.3706 91.4412 28.0014 91.5802 27.5583C91.7407 27.1046 91.9333 26.6087 92.1366 26.0601C92.3292 25.5537 92.9712 24.0133 93.3136 23.2326H100.803L103.286 29.1408C103.328 29.2358 103.35 29.3307 103.382 29.4573C103.403 29.5839 103.414 29.6895 103.414 29.7633C103.414 29.7633 103.414 29.8161 103.286 29.8899C103.168 29.9638 102.965 30.0482 102.676 30.122C102.098 30.2697 101.36 30.3752 100.45 30.428H100.236V31.9684H111V30.428H110.786L110.797 30.4596ZM100.044 21.4917H94.084L97.037 14.6023L100.044 21.4917Z"/><path fill="#1F1A17" d="M85.8089 27.466L84.3862 26.677L84.28 26.8663C83.5899 27.992 82.8786 28.7704 82.1566 29.1807C81.4346 29.6015 80.5747 29.8119 79.5554 29.8119C78.5362 29.8119 77.708 29.6436 76.9967 29.2964C76.2853 28.9598 75.7226 28.4969 75.2767 27.9078C74.8202 27.2871 74.491 26.5823 74.2787 25.7618C74.077 25.0149 73.9708 23.6473 73.9602 22.6479H85.4904V21.9641C85.4904 20.9963 85.363 20.1021 85.0869 19.271C84.8109 18.44 84.3968 17.7141 83.8341 17.0934C83.2395 16.4412 82.4751 15.9257 81.5408 15.5575C80.5959 15.1788 79.4811 15 78.1858 15C76.9224 15 75.7651 15.2314 74.7458 15.7153C73.7266 16.1887 72.8666 16.8199 72.1765 17.5984C71.4652 18.4084 70.9131 19.3131 70.5521 20.3125C70.1805 21.3224 70 22.3428 70 23.3843C70 24.5415 70.1699 25.646 70.5096 26.6875C70.86 27.729 71.3802 28.6547 72.081 29.4332C72.7923 30.2222 73.6841 30.8533 74.7671 31.3057C75.85 31.7686 77.1135 32 78.5362 32C80.1606 32 81.6151 31.6213 82.8786 30.8533C84.1314 30.0854 85.14 29.065 85.8832 27.7816L86 27.5817L85.8089 27.4765V27.466ZM75.2449 17.8403C76.0411 17.0303 76.9861 16.6411 78.1752 16.6411C78.8865 16.6411 79.4492 16.7778 79.8739 17.0303C80.3198 17.2933 80.6596 17.63 80.9144 18.0402C81.148 18.4295 81.3178 18.9239 81.4346 19.534C81.5302 20.039 81.5833 20.5229 81.5939 20.9752H73.9814C74.0876 19.6287 74.5229 18.5978 75.2555 17.8509"/><path fill="#1F1A17" d="M132.256 23.513C131.78 22.8189 131.212 22.2615 130.478 21.7883C129.806 21.3571 128.556 20.6525 126.788 20.4211C129 19.8006 130.468 18.3073 130.912 17.6027C131.367 16.877 131.584 16.0041 131.584 15.0155C131.584 14.027 131.346 13.091 130.881 12.3128C130.416 11.5556 129.817 10.9351 129.072 10.4408C128.359 9.96754 127.553 9.60997 126.664 9.36808C125.775 9.1262 124.866 9 123.925 9H113V10.6091H113.548C113.765 10.6406 114.127 10.6722 114.602 10.7353C115.057 10.7984 115.388 10.872 115.543 10.9456C115.822 11.0718 115.997 11.219 116.09 11.3873C116.194 11.5556 116.256 11.808 116.256 12.134V20.7261V28.8871C116.256 29.2026 116.194 29.455 116.08 29.6232C115.977 29.781 115.78 29.9387 115.47 30.0649C115.295 30.1385 114.933 30.2122 114.426 30.2753C113.91 30.3384 113.517 30.3804 113.258 30.4015H113.134L113 30.4225V32H124.618C125.641 32 126.643 31.8843 127.615 31.6424C128.587 31.4005 129.465 31.0535 130.251 30.5908C131.057 30.107 131.718 29.497 132.225 28.7503C132.742 27.9931 133 27.0992 133 26.0896C133 25.08 132.752 24.2387 132.256 23.5235M120.473 10.8404C120.814 10.8299 121.217 10.8194 121.693 10.8089C122.23 10.7878 122.674 10.7773 123.026 10.7773C124.535 10.7773 125.62 11.1454 126.282 11.8395C126.964 12.5441 127.305 13.5011 127.305 14.7631C127.305 15.5203 127.233 16.1724 127.067 16.7192C126.912 17.2556 126.643 17.7499 126.24 18.2126C125.858 18.6543 125.362 18.9803 124.731 19.2117C124.101 19.4431 123.336 19.5588 122.437 19.5588H120.463V10.8509L120.473 10.8404ZM127.305 28.9186C126.457 29.7179 125.227 30.128 123.584 30.128C122.581 30.128 121.817 29.9703 121.269 29.6863C120.731 29.3919 120.494 29.0027 120.483 28.4348V21.3887C120.721 21.3887 121.041 21.3676 121.455 21.3571C121.941 21.3361 122.54 21.3361 123.264 21.3361C125 21.3361 126.313 21.7252 127.222 22.4614C128.142 23.2186 128.587 24.1651 128.587 25.3324C128.587 26.9204 128.152 28.1088 127.305 28.9081"/></g><defs><clipPath id="clip0_4_2084"><rect width="194" height="40" fill="#fff"/></clipPath></defs></svg>