<svg xmlns="http://www.w3.org/2000/svg" width="114" height="40" fill="none" viewBox="0 0 114 40"><g clip-path="url(#clip0_4_2090)"><path fill="#2E3192" d="M113.07 17.0648C112.625 16.1652 111.988 15.4456 111.171 14.9059C109.763 14.0063 108.261 13.3333 106.674 12.9002V12.8202C107.83 12.5004 108.653 12.2072 109.151 11.9407C111.357 10.7413 112.459 9.00215 112.459 6.71663C112.459 5.3773 112.021 4.21122 111.131 3.20506C110.314 2.25886 109.244 1.5792 107.923 1.18607C107.631 1.0528 107.338 0.966177 107.059 0.919533L106.382 0.799593C106.276 0.77294 106.189 0.746287 106.11 0.719633H105.731L105.133 0.706307C104.356 0.599693 102.676 0.546387 100.099 0.546387H90.6075V1.37264C92.7595 1.37264 93.8355 2.49208 93.8355 4.73096V23.2484C93.8355 25.4872 92.7595 26.6 90.6075 26.6V27.4263H104.456C105.758 27.4263 106.86 27.2597 107.783 26.9065C108.979 26.4601 110.208 25.7471 111.476 24.7876C112.924 23.6815 113.648 21.989 113.648 19.7168C113.648 18.7173 113.455 17.8311 113.07 17.0581V17.0648ZM100.099 3.63151C100.099 2.91187 100.245 2.40546 100.524 2.1256C100.803 1.84574 101.301 1.70581 102.018 1.70581C103.44 1.70581 104.442 1.95235 105.034 2.43877C105.698 2.9785 106.03 3.94469 106.03 5.33066V8.48908C106.03 11.3077 104.615 12.7136 101.786 12.7136H100.092V3.63151H100.099ZM105.85 25.194C105.047 25.927 103.752 26.2935 101.985 26.2935C100.942 26.2935 100.338 25.867 100.178 25.0008C100.125 24.7343 100.099 24.0679 100.099 23.0151V14.0929H102.576C104.456 14.0929 105.751 14.8725 106.442 16.4384C106.907 17.4912 107.132 19.1304 107.132 21.356C107.132 23.1284 106.707 24.4078 105.85 25.194Z"/><path fill="#2E3192" d="M78.6457 14.5594H69.2077V23.2484C69.2077 25.4872 70.2836 26.6 72.4356 26.6V27.4263H59.7165V26.6C61.8685 26.6 62.9444 25.4806 62.9444 23.2484V4.73096C62.9444 2.49208 61.8685 1.37264 59.7165 1.37264V0.546387H72.4356V1.37264C70.2836 1.37264 69.2077 2.49208 69.2077 4.73096V12.6337H78.6457V4.73096C78.6457 2.49208 77.5697 1.37264 75.4178 1.37264V0.546387H88.1302V1.37264C85.9782 1.37264 84.9023 2.49208 84.9023 4.73096V23.2484C84.9023 25.4872 85.9782 26.6 88.1302 26.6V27.4263H75.4178V26.6C77.5697 26.6 78.6457 25.4806 78.6457 23.2484V14.5594Z"/><path fill="#2E3192" d="M55.6252 0.0133267V8.68232H54.8414L53.5994 5.84374C53.0614 4.63768 52.2777 3.60486 51.2549 2.74529C50.1058 1.77911 48.7243 1.29935 47.1104 1.29935C45.596 1.29935 44.4603 1.82575 43.7098 2.87856C43.1851 3.61819 42.926 4.37781 42.926 5.17741C42.926 6.21689 43.2316 7.1231 43.8492 7.89605C44.6396 8.90221 46.0477 9.76178 48.0535 10.4814C50.9958 11.5342 53.2009 12.8469 54.6621 14.4328C56.0436 15.932 56.7344 17.6712 56.7344 19.6368C56.7344 22.6687 55.5588 24.9275 53.2208 26.4068C51.567 27.4463 49.4483 27.966 46.858 27.966C46.1672 27.966 45.2972 27.8194 44.2478 27.5395C41.963 26.9199 40.608 26.6133 40.1763 26.6133C40.0036 26.6133 39.8509 26.7333 39.6981 26.9598L39.5786 27.3063L39.4258 27.966H38.4827V18.3641H39.386L40.2095 21.1427C40.4287 21.8757 40.9003 22.6953 41.6242 23.6082C42.3216 24.4611 42.9991 25.1341 43.6832 25.6072C44.7459 26.3535 45.8285 26.7266 46.9311 26.7266C50.5309 26.7266 52.3242 25.2807 52.3242 22.3888C52.3242 20.9628 51.3479 19.6102 49.3885 18.3375C48.8107 17.971 47.2233 17.1714 44.6263 15.9454C42.574 14.9858 41.0597 13.7131 40.0701 12.1473C39.2398 10.8279 38.8214 9.4486 38.8214 8.02265C38.8214 5.54389 39.6649 3.53823 41.3586 2.00566C42.8264 0.672996 44.5068 0 46.3864 0C47.6616 0 48.8572 0.153257 49.9597 0.45977L53.533 1.46593C53.7788 1.46593 54.0311 1.25937 54.3035 0.826253L54.7285 0H55.6252V0.0133267Z"/><path fill="#F58220" d="M15.7344 28.0059H13.8747L14.1271 27.826C17.8665 25.2672 19.7992 23.1816 20.6095 21.4158C21.4065 19.6634 21.0944 18.2241 20.3505 16.9247C19.507 15.4588 17.9329 14.1928 16.3853 12.9534C14.8312 11.7074 13.3035 10.4813 12.5663 9.06868C11.9752 7.92925 12.035 6.65655 12.9781 5.17729C13.9013 3.73135 15.6747 2.08551 18.524 0.159806C18.5572 0.139816 18.6768 0.0665198 18.71 0.0398665H19.0686L18.8162 0.20645C18.8162 0.20645 18.6768 0.299736 18.6502 0.319726C16.1994 2.11883 14.8312 3.64473 14.2268 4.98406C13.6223 6.31672 13.7818 7.46948 14.3862 8.51562C15.2031 9.93491 16.8237 11.1743 18.4642 12.4337C19.2679 13.0467 20.0649 13.6664 20.7889 14.3127C21.5128 14.9591 22.1504 15.6387 22.6154 16.3717C23.4854 17.751 23.7378 19.3102 22.7814 21.2093C21.8383 23.0883 19.7062 25.3006 15.8009 27.9925L15.7477 28.0125L15.7344 28.0059ZM16.206 0.0398665H16.5381L16.2924 0.219776C13.8083 1.99889 12.2608 3.52479 11.4704 4.87078C10.6933 6.19678 10.6601 7.33621 11.1914 8.36237C11.9287 9.77499 13.4762 11.0144 15.0503 12.2737C15.8141 12.8868 16.5846 13.4998 17.2687 14.1528C17.9595 14.7991 18.5572 15.4855 18.9756 16.2118C19.7793 17.6111 20.0782 19.1703 19.1085 21.0893C18.1454 22.9817 15.9337 25.2206 11.7162 27.9859L11.663 28.0059H10.0623L10.328 27.826C14.0474 25.3205 16.1396 23.2616 17.1226 21.4958C18.0989 19.7567 17.986 18.3174 17.3152 17.038C16.93 16.3051 16.3588 15.6254 15.6946 14.9724C15.0304 14.3194 14.2799 13.693 13.5294 13.0667C12.7855 12.447 12.0416 11.8273 11.404 11.1876C10.7597 10.5479 10.2217 9.88161 9.88965 9.17529C9.33838 8.01587 9.3251 6.74318 10.255 5.24393C11.1715 3.76467 13.0113 2.06552 16.1794 0.0465298L16.206 0.0332031V0.0398665ZM21.194 0.0398665H31.5087V28.0059H17.9395L18.1786 27.826C21.6191 25.3339 23.4854 23.2816 24.2825 21.5224C25.0728 19.79 24.8138 18.3507 24.0101 17.078C23.5452 16.345 22.9076 15.6654 22.177 15.0057C21.4464 14.346 20.6295 13.7263 19.8192 13.1C18.1919 11.854 16.5979 10.6279 15.7809 9.21527C15.1101 8.05585 14.964 6.77649 15.7411 5.27058C16.5115 3.78466 18.1919 2.07885 21.1741 0.0531931L21.2007 0.0332031L21.194 0.0398665ZM0.0996271 0.0398665H14.0474L13.7818 0.219776C11.0785 2.05219 9.52435 3.60475 8.76719 4.9574C8.0233 6.29007 8.06316 7.44283 8.56129 8.48897C8.89338 9.19528 9.43137 9.85495 10.0756 10.5013C10.7265 11.1476 11.477 11.774 12.2342 12.407C12.9715 13.02 13.7087 13.6331 14.3662 14.2794C15.0238 14.9324 15.595 15.6121 15.9802 16.345C16.7108 17.7243 16.7971 19.2902 15.6415 21.1959C14.4991 23.075 12.1279 25.2939 7.93032 27.9925L7.87718 28.0125H0V0.0398665H0.0996271Z"/><path fill="#000" d="M0.929875 38.354V35.8419H0.32547V35.3422H0.929875V32.8301H2.82943C3.25451 32.8301 3.57996 32.8567 3.80578 32.91C4.11794 32.9833 4.39026 33.1166 4.61608 33.3032C4.90832 33.5497 5.12086 33.8629 5.26698 34.2494C5.41309 34.6292 5.48616 35.069 5.48616 35.562C5.48616 36.1218 5.39981 36.6082 5.22048 37.0146C5.04115 37.4211 4.82862 37.7143 4.58287 37.9009C4.33712 38.0874 4.05152 38.214 3.72608 38.294C3.54675 38.3407 3.28108 38.3606 2.92242 38.3606H0.929875V38.354ZM1.66047 37.701H2.83607C3.20137 37.701 3.48697 37.6677 3.69287 37.601C3.89876 37.5344 4.05817 37.4411 4.18436 37.3212C4.35705 37.1479 4.48988 36.9147 4.58951 36.6215C4.68914 36.3283 4.73563 35.9752 4.73563 35.5554C4.73563 35.1356 4.68914 34.7758 4.58951 34.5226C4.49653 34.2627 4.37033 34.0561 4.21093 33.9029C4.05817 33.7496 3.88548 33.643 3.69287 33.583C3.50025 33.5231 3.20801 33.4897 2.81615 33.4897H1.66047V35.3488H3.18145V35.8486H1.66047V37.7076V37.701Z"/><path fill="#000" d="M6.1503 36.3549C6.1503 35.6153 6.35619 35.0622 6.76799 34.7091C7.11336 34.4159 7.5318 34.2626 8.02329 34.2626C8.57456 34.2626 9.01956 34.4425 9.36493 34.8024C9.71031 35.1622 9.88964 35.6619 9.88964 36.295C9.88964 36.808 9.80994 37.2145 9.65717 37.5077C9.50441 37.8009 9.27859 38.0341 8.98635 38.194C8.69411 38.3606 8.36866 38.4405 8.02329 38.4405C7.46538 38.4405 7.01373 38.2606 6.66836 37.9008C6.32299 37.541 6.1503 37.0213 6.1503 36.3483V36.3549ZM8.02993 33.2165L7.60486 33.8562H6.82776L7.63806 32.8034H8.36202L9.20553 33.8562H8.44172L8.02993 33.2165ZM6.84769 36.3549C6.84769 36.868 6.9606 37.2545 7.17978 37.5077C7.4056 37.7609 7.68456 37.8942 8.02329 37.8942C8.36202 37.8942 8.64098 37.7676 8.86016 37.5077C9.08598 37.2545 9.19225 36.8613 9.19225 36.3349C9.19225 35.8418 9.07934 35.4687 8.85352 35.2088C8.62769 34.949 8.34874 34.829 8.01665 34.829C7.68456 34.829 7.39896 34.9556 7.17314 35.2088C6.95396 35.462 6.84105 35.8485 6.84105 36.3549H6.84769ZM8.14948 31.4707H9.05277L8.18269 32.5302H7.63806L8.14284 31.4707H8.14948Z"/><path fill="#000" d="M10.6867 33.6097V32.8301H11.3641V33.6097H10.6867ZM10.6867 38.354V34.3493H11.3641V38.354H10.6867Z"/><path fill="#000" d="M16.0068 37.7475L16.1064 38.3472C15.9138 38.3872 15.7477 38.4071 15.595 38.4071C15.3492 38.4071 15.1566 38.3672 15.0238 38.2939C14.8909 38.2139 14.7913 38.114 14.7382 37.9874C14.685 37.8608 14.6585 37.5942 14.6585 37.1878V34.8822H14.1603V34.3558H14.6585V33.363L15.3293 32.9565V34.3558H16.0068V34.8822H15.3293V37.2211C15.3293 37.4143 15.3426 37.5409 15.3625 37.5942C15.3891 37.6475 15.4223 37.6942 15.4821 37.7275C15.5352 37.7608 15.6149 37.7741 15.7145 37.7741C15.7876 37.7741 15.8872 37.7675 16.0134 37.7475H16.0068Z"/><path fill="#000" d="M19.2679 37.8609C19.0155 38.0742 18.7764 38.2274 18.5439 38.314C18.3115 38.4007 18.0657 38.4473 17.8 38.4473C17.3617 38.4473 17.023 38.3407 16.7905 38.1275C16.558 37.9142 16.4385 37.6344 16.4385 37.3012C16.4385 37.108 16.485 36.9281 16.5713 36.7615C16.6577 36.6016 16.7772 36.4683 16.9233 36.375C17.0694 36.2751 17.2289 36.2018 17.4082 36.1551C17.541 36.1218 17.7403 36.0818 18.0126 36.0552C18.5572 35.9885 18.9624 35.9086 19.2214 35.822C19.2214 35.7287 19.2214 35.6687 19.2214 35.642C19.2214 35.3622 19.155 35.1689 19.0288 35.0557C18.8561 34.9024 18.5971 34.8291 18.2583 34.8291C17.9395 34.8291 17.7071 34.8824 17.5543 34.9957C17.4015 35.109 17.2886 35.3022 17.2156 35.5887L16.5514 35.5021C16.6112 35.2156 16.7108 34.989 16.8503 34.8158C16.9897 34.6425 17.189 34.5093 17.448 34.4093C17.7071 34.316 18.0126 34.2694 18.3513 34.2694C18.69 34.2694 18.969 34.3094 19.1815 34.3893C19.3941 34.4693 19.5535 34.5692 19.6531 34.6959C19.7527 34.8158 19.8258 34.9757 19.8656 35.1556C19.8856 35.2689 19.8989 35.4821 19.8989 35.782V36.6882C19.8989 37.3212 19.9121 37.7143 19.9454 37.8876C19.9719 38.0542 20.0317 38.2141 20.118 38.3673H19.414C19.3409 38.2274 19.3011 38.0608 19.2812 37.8743L19.2679 37.8609ZM19.2081 36.3484C18.9624 36.4483 18.5971 36.5349 18.1056 36.6016C17.8266 36.6415 17.634 36.6882 17.5145 36.7415C17.4015 36.7948 17.3086 36.8614 17.2488 36.9614C17.189 37.0613 17.1558 37.1679 17.1558 37.2812C17.1558 37.4611 17.2222 37.6144 17.3617 37.7343C17.5012 37.8543 17.7004 37.9142 17.9595 37.9142C18.2185 37.9142 18.4509 37.8543 18.6568 37.741C18.8627 37.6277 19.0089 37.4678 19.1018 37.2746C19.1749 37.1213 19.2081 36.8948 19.2081 36.5949V36.3484ZM17.893 33.8563L18.3912 32.8035H19.2745L18.4509 33.8563H17.893Z"/><path fill="#000" d="M23.5452 36.888L24.2094 36.9747C24.1364 37.4344 23.9504 37.7943 23.6515 38.0541C23.3526 38.314 22.9873 38.4473 22.549 38.4473C22.0043 38.4473 21.566 38.2674 21.2339 37.9075C20.9018 37.5477 20.7357 37.0346 20.7357 36.3683C20.7357 35.9352 20.8088 35.5554 20.9483 35.2355C21.0878 34.909 21.3069 34.6692 21.5992 34.5092C21.8914 34.3427 22.2102 34.2627 22.549 34.2627C22.9807 34.2627 23.3393 34.3693 23.6117 34.5892C23.884 34.8091 24.0633 35.1223 24.143 35.5287L23.4855 35.6287C23.4257 35.3621 23.3128 35.1556 23.1534 35.0223C22.994 34.889 22.8014 34.8158 22.5755 34.8158C22.2368 34.8158 21.9578 34.9357 21.7453 35.1822C21.5328 35.4288 21.4265 35.8152 21.4265 36.3483C21.4265 36.8814 21.5261 37.2745 21.732 37.5211C21.9379 37.7676 22.2036 37.8875 22.5357 37.8875C22.8014 37.8875 23.0205 37.8076 23.1999 37.641C23.3792 37.4811 23.4921 37.2279 23.5386 36.888H23.5452Z"/><path fill="#000" d="M28.407 37.7475L28.5066 38.3472C28.314 38.3872 28.148 38.4071 27.9952 38.4071C27.7495 38.4071 27.5568 38.3672 27.424 38.2939C27.2912 38.2139 27.1915 38.114 27.1384 37.9874C27.0853 37.8608 27.0587 37.5942 27.0587 37.1878V34.8822H26.5606V34.3558H27.0587V33.363L27.7295 32.9565V34.3558H28.407V34.8822H27.7295V37.2211C27.7295 37.4143 27.7428 37.5409 27.7627 37.5942C27.7893 37.6475 27.8225 37.6942 27.8823 37.7275C27.9354 37.7608 28.0151 37.7741 28.1148 37.7741C28.1878 37.7741 28.2874 37.7675 28.4136 37.7475H28.407Z"/><path fill="#000" d="M29.0712 33.6097V32.8301H29.7487V33.6097H29.0712ZM29.0712 38.354V34.3493H29.7487V38.354H29.0712Z"/><path fill="#000" d="M30.7781 38.3541V34.3494H31.3892V34.9158C31.6814 34.476 32.1065 34.2561 32.6578 34.2561C32.8969 34.2561 33.1161 34.2961 33.3219 34.3894C33.5212 34.476 33.674 34.5893 33.7736 34.7292C33.8732 34.8691 33.9463 35.0357 33.9861 35.2289C34.0127 35.3556 34.026 35.5754 34.026 35.8886V38.3474H33.3485V35.9086C33.3485 35.6354 33.322 35.4288 33.2688 35.2889C33.2157 35.149 33.1227 35.0424 32.9899 34.9624C32.857 34.8825 32.6976 34.8425 32.5183 34.8425C32.2327 34.8425 31.9803 34.9358 31.7744 35.1157C31.5685 35.2956 31.4622 35.6487 31.4622 36.1618V38.3474H30.7848L30.7781 38.3541Z"/><path fill="#000" d="M39.7977 36.888L40.4619 36.9747C40.3888 37.4344 40.2029 37.7943 39.904 38.0541C39.6051 38.314 39.2398 38.4473 38.8014 38.4473C38.2568 38.4473 37.8184 38.2674 37.4864 37.9075C37.1543 37.5477 36.9882 37.0346 36.9882 36.3683C36.9882 35.9352 37.0613 35.5554 37.2008 35.2355C37.3402 34.909 37.5594 34.6692 37.8517 34.5092C38.1439 34.3427 38.4627 34.2627 38.8014 34.2627C39.2332 34.2627 39.5918 34.3693 39.8641 34.5892C40.1431 34.8091 40.3158 35.1223 40.3955 35.5287L39.7379 35.6287C39.6782 35.3621 39.5652 35.1556 39.4058 35.0223C39.2464 34.889 39.0538 34.8158 38.828 34.8158C38.4893 34.8158 38.2103 34.9357 37.9978 35.1822C37.7852 35.4288 37.679 35.8152 37.679 36.3483C37.679 36.8814 37.7786 37.2745 37.9845 37.5211C38.1904 37.7676 38.4561 37.8875 38.7882 37.8875C39.0538 37.8875 39.273 37.8076 39.4523 37.641C39.6317 37.4811 39.7446 37.2279 39.7911 36.888H39.7977Z"/><path fill="#000" d="M43.6433 37.8609C43.391 38.0742 43.1519 38.2274 42.9194 38.314C42.6869 38.4007 42.4412 38.4473 42.1755 38.4473C41.7371 38.4473 41.3984 38.3407 41.1659 38.1275C40.9335 37.9142 40.8139 37.6344 40.8139 37.3012C40.8139 37.108 40.8604 36.9281 40.9468 36.7615C41.0331 36.6016 41.1527 36.4683 41.2988 36.375C41.4449 36.2751 41.6043 36.2018 41.7836 36.1551C41.9165 36.1218 42.1157 36.0818 42.388 36.0552C42.9327 35.9885 43.3378 35.9086 43.5969 35.822C43.5969 35.7287 43.5969 35.6687 43.5969 35.642C43.5969 35.3622 43.5304 35.1689 43.4042 35.0557C43.2316 34.9024 42.9725 34.8291 42.6338 34.8291C42.315 34.8291 42.0825 34.8824 41.9298 34.9957C41.777 35.109 41.6641 35.3022 41.591 35.5887L40.9268 35.5021C40.9866 35.2156 41.0862 34.989 41.2257 34.8158C41.3652 34.6425 41.5645 34.5093 41.8235 34.4093C42.0825 34.316 42.388 34.2694 42.7268 34.2694C43.0655 34.2694 43.3445 34.3094 43.557 34.3893C43.7695 34.4693 43.9289 34.5692 44.0286 34.6959C44.1282 34.8158 44.2013 34.9757 44.2411 35.1556C44.261 35.2689 44.2743 35.4821 44.2743 35.782V36.6882C44.2743 37.3212 44.2876 37.7143 44.3208 37.8876C44.3474 38.0542 44.4072 38.2141 44.4935 38.3673H43.7895C43.7164 38.2274 43.6766 38.0608 43.6566 37.8743L43.6433 37.8609ZM42.6604 33.2166L42.2353 33.8563H41.4648L42.2751 32.8035H42.9991L43.8426 33.8563H43.0788L42.667 33.2166H42.6604ZM43.5902 36.3484C43.3445 36.4483 42.9792 36.5349 42.4877 36.6016C42.2087 36.6415 42.0161 36.6882 41.8965 36.7415C41.7836 36.7948 41.6907 36.8614 41.6309 36.9614C41.5711 37.0613 41.5379 37.1679 41.5379 37.2812C41.5379 37.4611 41.6043 37.6144 41.7438 37.7343C41.8833 37.8543 42.0825 37.9142 42.3415 37.9142C42.6006 37.9142 42.833 37.8543 43.0389 37.741C43.2448 37.6277 43.391 37.4678 43.4839 37.2746C43.557 37.1213 43.5902 36.8948 43.5902 36.5949V36.3484ZM42.2552 39.5801V38.8071H43.0257V39.5801H42.2552Z"/><path fill="#000" d="M45.2905 39.8933L45.2175 39.2536C45.3636 39.2936 45.4964 39.3136 45.6027 39.3136C45.7554 39.3136 45.875 39.287 45.9613 39.2403C46.0543 39.187 46.1274 39.1204 46.1805 39.0271C46.2204 38.9605 46.2934 38.7939 46.3864 38.5207C46.3997 38.4807 46.4196 38.4274 46.4462 38.3541L44.9319 34.3428H45.6625L46.4927 36.6616C46.5989 36.9548 46.6986 37.268 46.7849 37.5878C46.8646 37.2746 46.9576 36.9748 47.0639 36.6749L47.914 34.3428H48.5915L47.0705 38.4141C46.9045 38.8538 46.7783 39.1604 46.6919 39.3203C46.5724 39.5468 46.4329 39.7068 46.2801 39.8134C46.1274 39.9133 45.9414 39.9666 45.7222 39.9666C45.5894 39.9666 45.4499 39.94 45.2839 39.88L45.2905 39.8933Z"/><path fill="#000" d="M48.7708 38.3542V37.5813H49.5412V38.3542C49.5412 38.6408 49.4881 38.8673 49.3885 39.0406C49.2889 39.2138 49.1295 39.3471 48.9103 39.447L48.7243 39.1538C48.8638 39.0939 48.9701 39.0006 49.0365 38.874C49.1029 38.754 49.1427 38.5741 49.1494 38.3476H48.7642L48.7708 38.3542Z"/><path fill="#000" d="M52.7426 38.6872L53.4002 38.7872C53.4267 38.9938 53.5064 39.1404 53.6326 39.2336C53.7987 39.3602 54.0311 39.4202 54.3167 39.4202C54.6289 39.4202 54.8747 39.3602 55.0407 39.2336C55.2134 39.107 55.3263 38.9338 55.3861 38.7072C55.4193 38.5673 55.4392 38.2808 55.4326 37.8343C55.1337 38.1808 54.7684 38.3607 54.33 38.3607C53.7788 38.3607 53.3603 38.1608 53.0548 37.7677C52.7559 37.3746 52.6031 36.8948 52.6031 36.3418C52.6031 35.9619 52.6696 35.6088 52.809 35.2889C52.9485 34.9624 53.1478 34.7159 53.4068 34.5427C53.6658 34.3627 53.978 34.2761 54.33 34.2761C54.8016 34.2761 55.1868 34.4694 55.4923 34.8492V34.3694H56.1167V37.8277C56.1167 38.4474 56.0569 38.8938 55.9241 39.1537C55.7979 39.4136 55.5986 39.6201 55.3263 39.7734C55.054 39.9266 54.7152 39.9999 54.3101 39.9999C53.8319 39.9999 53.4533 39.8933 53.1544 39.6801C52.8622 39.4669 52.7227 39.1404 52.7293 38.7072L52.7426 38.6872ZM53.3005 36.2818C53.3005 36.8082 53.4068 37.188 53.6127 37.4345C53.8186 37.6744 54.0843 37.7944 54.3964 37.7944C54.7086 37.7944 54.9676 37.6744 55.1802 37.4345C55.3927 37.1947 55.4923 36.8215 55.4923 36.3084C55.4923 35.7954 55.3861 35.4489 55.1669 35.1957C54.9477 34.9491 54.6887 34.8225 54.3832 34.8225C54.0776 34.8225 53.8252 34.9425 53.6194 35.189C53.4068 35.4355 53.3005 35.7954 53.3005 36.2818Z"/><path fill="#000" d="M57.1528 33.6097V32.8301H57.8302V33.6097H57.1528ZM57.1528 38.354V34.3493H57.8302V38.354H57.1528Z"/><path fill="#000" d="M61.4633 37.8611C61.2109 38.0743 60.9718 38.2276 60.7393 38.3142C60.5069 38.4008 60.2611 38.4475 59.9955 38.4475C59.5571 38.4475 59.2184 38.3408 58.9859 38.1276C58.7468 37.9144 58.6339 37.6345 58.6339 37.3014C58.6339 37.1081 58.6804 36.9282 58.7667 36.7616C58.8531 36.6017 58.9726 36.4684 59.1187 36.3752C59.2649 36.2752 59.4243 36.2019 59.6036 36.1553C59.7364 36.122 59.9357 36.082 60.2013 36.0553C60.746 35.9887 61.1511 35.9087 61.4102 35.8221C61.4102 35.7288 61.4102 35.6688 61.4102 35.6422C61.4102 35.3623 61.3437 35.1691 61.2175 35.0558C61.0449 34.9026 60.7858 34.8293 60.4471 34.8293C60.1283 34.8293 59.8958 34.8826 59.7431 34.9958C59.5903 35.1091 59.4774 35.3024 59.4043 35.5889L58.7402 35.5023C58.7999 35.2157 58.8996 34.9892 59.039 34.8159C59.1785 34.6427 59.3778 34.5094 59.6368 34.4095C59.8958 34.3162 60.2013 34.2695 60.5401 34.2695C60.8788 34.2695 61.1578 34.3095 61.3703 34.3895C61.5828 34.4694 61.7422 34.5694 61.8419 34.696C61.9415 34.8159 62.0146 34.9759 62.0544 35.1558C62.0743 35.269 62.0876 35.4823 62.0876 35.7821V36.6883C62.0876 37.3214 62.1009 37.7145 62.1275 37.8877C62.154 38.0543 62.2138 38.2142 62.3002 38.3675H61.5961C61.5297 38.2276 61.4832 38.061 61.4633 37.8744V37.8611ZM61.4102 36.3485C61.1644 36.4485 60.7991 36.5351 60.3076 36.6017C60.0287 36.6417 59.8361 36.6883 59.7165 36.7416C59.6036 36.7949 59.5106 36.8616 59.4508 36.9615C59.391 37.0615 59.3578 37.1681 59.3578 37.2814C59.3578 37.4613 59.4243 37.6145 59.5637 37.7345C59.7032 37.8544 59.9025 37.9144 60.1615 37.9144C60.4205 37.9144 60.653 37.8544 60.8589 37.7411C61.0648 37.6279 61.2109 37.4679 61.3039 37.2747C61.377 37.1215 61.4102 36.8949 61.4102 36.595V36.3485ZM60.6198 33.3633C60.7526 33.3167 60.819 33.2501 60.819 33.1501C60.819 33.0901 60.7858 33.0435 60.7128 33.0035C60.6065 32.9435 60.4405 32.9169 60.2146 32.9169C60.1349 32.9169 60.022 32.9169 59.8626 32.9302L59.8228 32.5437C59.9224 32.5238 60.1017 32.5171 60.3674 32.5171C60.6729 32.5171 60.9253 32.5704 61.1246 32.6703C61.3371 32.777 61.45 32.9236 61.4566 33.1101C61.4633 33.4233 61.2375 33.6099 60.7725 33.6632V33.8498H60.3541V33.3966C60.5002 33.3833 60.5866 33.37 60.6264 33.3567L60.6198 33.3633Z"/><path fill="#000" d="M63.137 33.6097V32.8301H63.8145V33.6097H63.137ZM63.137 38.354V34.3493H63.8145V38.354H63.137Z"/><path fill="#000" d="M66.9827 39.8866V34.3494H67.6004V34.8691C67.7465 34.6626 67.9125 34.5093 68.0918 34.4094C68.2712 34.3094 68.497 34.2561 68.756 34.2561C69.0948 34.2561 69.3936 34.3427 69.6593 34.5226C69.9183 34.6959 70.1176 34.9424 70.2504 35.2689C70.3833 35.5888 70.4497 35.9419 70.4497 36.3217C70.4497 36.7282 70.3766 37.1013 70.2305 37.4279C70.0844 37.7544 69.8719 38.0076 69.5929 38.1808C69.3139 38.3541 69.0217 38.4407 68.7095 38.4407C68.4837 38.4407 68.2845 38.394 68.1051 38.3007C67.9258 38.2075 67.7797 38.0809 67.6668 37.9409V39.8866H66.9893H66.9827ZM67.5937 36.375C67.5937 36.8881 67.7 37.2679 67.9059 37.5145C68.1118 37.761 68.3642 37.8876 68.663 37.8876C68.9619 37.8876 69.221 37.761 69.4335 37.5011C69.646 37.2479 69.7523 36.8481 69.7523 36.3151C69.7523 35.782 69.646 35.4222 69.4401 35.169C69.2276 34.9158 68.9819 34.7892 68.6896 34.7892C68.3974 34.7892 68.145 34.9224 67.9258 35.1956C67.7066 35.4688 67.5937 35.862 67.5937 36.375Z"/><path fill="#000" d="M71.26 38.354V32.8301H71.9374V34.8158C72.2562 34.4493 72.6481 34.2627 73.133 34.2627C73.4252 34.2627 73.6842 34.3227 73.9034 34.4359C74.1226 34.5492 74.2754 34.7158 74.3683 34.9224C74.4613 35.1289 74.5078 35.4288 74.5078 35.8219V38.3606H73.8304V35.8219C73.8304 35.4821 73.7573 35.2355 73.6112 35.0823C73.4651 34.929 73.2592 34.8491 72.9868 34.8491C72.7876 34.8491 72.595 34.9024 72.4223 35.0023C72.243 35.1089 72.1168 35.2489 72.0437 35.4288C71.9706 35.6087 71.9308 35.8552 71.9308 36.1684V38.3606H71.2533L71.26 38.354Z"/><path fill="#000" d="M78.1475 37.8609C77.8951 38.0742 77.656 38.2274 77.4236 38.314C77.1911 38.4007 76.9454 38.4473 76.6797 38.4473C76.2413 38.4473 75.9026 38.3407 75.6701 38.1275C75.4377 37.9142 75.3181 37.6344 75.3181 37.3012C75.3181 37.108 75.3646 36.9281 75.4509 36.7615C75.5373 36.6016 75.6568 36.4683 75.7963 36.375C75.9424 36.2751 76.1018 36.2018 76.2812 36.1551C76.414 36.1218 76.6133 36.0818 76.8856 36.0552C77.4302 35.9885 77.8354 35.9086 78.0944 35.822C78.0944 35.7287 78.0944 35.6687 78.0944 35.642C78.0944 35.3622 78.028 35.1689 77.9018 35.0557C77.7291 34.9024 77.4767 34.8291 77.1313 34.8291C76.8125 34.8291 76.5801 34.8824 76.4273 34.9957C76.2745 35.109 76.1616 35.3022 76.0886 35.5887L75.4244 35.5021C75.4842 35.2156 75.5838 34.989 75.7233 34.8158C75.8627 34.6425 76.062 34.5093 76.321 34.4093C76.5801 34.316 76.8856 34.2694 77.2243 34.2694C77.563 34.2694 77.842 34.3094 78.0545 34.3893C78.2671 34.4693 78.4265 34.5692 78.5261 34.6959C78.6257 34.8158 78.6988 34.9757 78.7386 35.1556C78.7586 35.2689 78.7719 35.4821 78.7719 35.782V36.6882C78.7719 37.3212 78.7851 37.7143 78.8117 37.8876C78.8383 38.0542 78.898 38.2141 78.9844 38.3673H78.2804C78.2139 38.2274 78.1675 38.0608 78.1475 37.8743V37.8609ZM78.0944 36.3484C77.8486 36.4483 77.4833 36.5349 76.9918 36.6016C76.7129 36.6415 76.5203 36.6882 76.4007 36.7415C76.2878 36.7948 76.1948 36.8614 76.1351 36.9614C76.0686 37.0613 76.0421 37.1679 76.0421 37.2812C76.0421 37.4611 76.1085 37.6144 76.248 37.7343C76.3874 37.8543 76.5867 37.9142 76.8457 37.9142C77.1048 37.9142 77.3372 37.8543 77.5431 37.741C77.749 37.6277 77.8951 37.4678 77.9881 37.2746C78.0612 37.1213 78.0944 36.8948 78.0944 36.5949V36.3484ZM76.7793 33.8563L77.2774 32.8035H78.1675L77.3439 33.8563H76.786H76.7793Z"/><path fill="#000" d="M79.8213 39.8866V34.3494H80.439V34.8691C80.5851 34.6626 80.7445 34.5093 80.9305 34.4094C81.1164 34.3094 81.3356 34.2561 81.5947 34.2561C81.9334 34.2561 82.2389 34.3427 82.4979 34.5226C82.757 34.6959 82.9562 34.9424 83.0891 35.2689C83.2219 35.5888 83.2883 35.9419 83.2883 36.3217C83.2883 36.7282 83.2153 37.1013 83.0691 37.4279C82.923 37.7544 82.7105 38.0076 82.4315 38.1808C82.1526 38.3541 81.8603 38.4407 81.5482 38.4407C81.3223 38.4407 81.1231 38.394 80.9438 38.3007C80.7644 38.2075 80.6183 38.0809 80.5054 37.9409V39.8866H79.8279H79.8213ZM80.4323 36.375C80.4323 36.8881 80.5386 37.2679 80.7445 37.5145C80.9504 37.761 81.2028 37.8876 81.5017 37.8876C81.8005 37.8876 82.0596 37.761 82.2721 37.5011C82.4847 37.2479 82.5909 36.8481 82.5909 36.3151C82.5909 35.782 82.4847 35.4222 82.2788 35.169C82.0662 34.9158 81.8205 34.7892 81.5282 34.7892C81.236 34.7892 80.9836 34.9224 80.7644 35.1956C80.5452 35.4688 80.4323 35.862 80.4323 36.375Z"/><path fill="#000" d="M86.2372 39.8866V34.3494H86.8549V34.8691C87.0011 34.6626 87.1605 34.5093 87.3464 34.4094C87.5258 34.3094 87.7516 34.2561 88.0106 34.2561C88.3493 34.2561 88.6549 34.3427 88.9139 34.5226C89.1729 34.6959 89.3722 34.9424 89.505 35.2689C89.6378 35.5888 89.7043 35.9419 89.7043 36.3217C89.7043 36.7282 89.6312 37.1013 89.4851 37.4279C89.339 37.7544 89.1264 38.0076 88.8475 38.1808C88.5685 38.3541 88.2763 38.4407 87.9641 38.4407C87.7383 38.4407 87.539 38.394 87.3597 38.3007C87.1804 38.2075 87.0343 38.0809 86.9213 37.9409V39.8866H86.2439H86.2372ZM86.8483 36.375C86.8483 36.8881 86.9546 37.2679 87.1605 37.5145C87.3664 37.761 87.6187 37.8876 87.9176 37.8876C88.2165 37.8876 88.4755 37.761 88.6881 37.5011C88.9006 37.2479 89.0069 36.8481 89.0069 36.3151C89.0069 35.782 88.9006 35.4222 88.6947 35.169C88.4822 34.9158 88.2364 34.7892 87.9442 34.7892C87.652 34.7892 87.3996 34.9224 87.1804 35.1956C86.9612 35.4688 86.8483 35.862 86.8483 36.375Z"/><path fill="#000" d="M90.5146 38.354V32.8301H91.192V34.8158C91.5108 34.4493 91.9027 34.2627 92.3876 34.2627C92.6798 34.2627 92.9388 34.3227 93.158 34.4359C93.3772 34.5492 93.53 34.7158 93.6229 34.9224C93.7159 35.1289 93.7624 35.4288 93.7624 35.8219V38.3606H93.0849V35.8219C93.0849 35.4821 93.0119 35.2355 92.8658 35.0823C92.7197 34.929 92.5138 34.8491 92.2414 34.8491C92.0422 34.8491 91.8496 34.9024 91.6769 35.0023C91.5042 35.1089 91.3714 35.2489 91.2983 35.4288C91.2253 35.6087 91.1854 35.8552 91.1854 36.1684V38.3606H90.5079L90.5146 38.354Z"/><path fill="#000" d="M97.4088 38.354V37.7676C97.0966 38.2208 96.6782 38.4473 96.1402 38.4473C95.9077 38.4473 95.6885 38.4007 95.4826 38.314C95.2767 38.2208 95.124 38.1075 95.0243 37.9742C94.9247 37.8409 94.8583 37.6677 94.8184 37.4745C94.7919 37.3412 94.7786 37.128 94.7786 36.8414V34.3627H95.4561V36.5816C95.4561 36.9347 95.4693 37.1746 95.4959 37.3012C95.5358 37.4811 95.6288 37.6211 95.7682 37.721C95.9077 37.821 96.0738 37.8743 96.2797 37.8743C96.4855 37.8743 96.6715 37.821 96.8508 37.7143C97.0302 37.6077 97.1564 37.4678 97.2294 37.2879C97.3025 37.108 97.3423 36.8481 97.3423 36.5083V34.3627H98.0198V38.3673H97.4154L97.4088 38.354ZM97.0235 33.8563H96.4789L95.6088 32.8035H96.5121L97.0169 33.8563H97.0235Z"/><path fill="#000" d="M101.215 38.354V32.8301H101.892V34.8158C102.211 34.4493 102.609 34.2627 103.088 34.2627C103.38 34.2627 103.639 34.3227 103.858 34.4359C104.077 34.5492 104.23 34.7158 104.323 34.9224C104.416 35.1289 104.462 35.4288 104.462 35.8219V38.3606H103.785V35.8219C103.785 35.4821 103.712 35.2355 103.566 35.0823C103.42 34.929 103.214 34.8491 102.941 34.8491C102.742 34.8491 102.55 34.9024 102.377 35.0023C102.198 35.1089 102.078 35.2489 101.998 35.4288C101.925 35.6087 101.885 35.8552 101.885 36.1684V38.3606H101.208L101.215 38.354Z"/><path fill="#000" d="M109.065 35.0424V34.2561H109.789V34.8758C109.789 35.189 109.743 35.4288 109.643 35.5888C109.523 35.8087 109.298 36.0019 108.972 36.1818V36.2884C108.972 37.2213 108.673 37.861 108.069 38.1941C107.77 38.3607 107.451 38.4407 107.106 38.4407C106.535 38.4407 106.083 38.2608 105.751 37.9009C105.406 37.5278 105.233 37.0081 105.233 36.3484C105.233 35.6088 105.439 35.0557 105.851 34.7025C106.196 34.4094 106.614 34.2561 107.106 34.2561C107.657 34.2561 108.102 34.436 108.454 34.7958C108.713 35.069 108.879 35.4222 108.946 35.8553C109.118 35.7487 109.238 35.6421 109.311 35.5288C109.384 35.4155 109.417 35.2556 109.417 35.0357H109.065V35.0424ZM105.93 36.3551C105.93 36.8481 106.043 37.2346 106.262 37.5078C106.475 37.761 106.754 37.8943 107.106 37.8943C107.458 37.8943 107.737 37.7677 107.943 37.5078C108.168 37.2346 108.275 36.8415 108.275 36.3351C108.275 35.8553 108.162 35.4822 107.936 35.2156C107.723 34.9624 107.445 34.8292 107.099 34.8292C106.754 34.8292 106.468 34.9558 106.256 35.209C106.036 35.4822 105.924 35.862 105.924 36.3551H105.93ZM106.694 39.5801V38.8072H107.464V39.5801H106.694Z"/><path fill="#000" d="M110.533 39.8866V34.3494H111.151V34.8691C111.297 34.6626 111.456 34.5093 111.642 34.4094C111.821 34.3094 112.047 34.2561 112.306 34.2561C112.645 34.2561 112.951 34.3427 113.21 34.5226C113.469 34.6959 113.668 34.9424 113.801 35.2689C113.934 35.5888 114 35.9419 114 36.3217C114 36.7282 113.927 37.1013 113.781 37.4279C113.635 37.7544 113.422 38.0076 113.143 38.1808C112.864 38.3541 112.572 38.4407 112.26 38.4407C112.034 38.4407 111.835 38.394 111.655 38.3007C111.476 38.2075 111.33 38.0809 111.21 37.9409V39.8866H110.533ZM111.144 36.375C111.144 36.8881 111.25 37.2679 111.456 37.5145C111.662 37.761 111.914 37.8876 112.213 37.8876C112.512 37.8876 112.771 37.761 112.984 37.5011C113.196 37.2479 113.303 36.8481 113.303 36.3151C113.303 35.782 113.196 35.4222 112.99 35.169C112.778 34.9158 112.532 34.7892 112.24 34.7892C111.948 34.7892 111.695 34.9224 111.476 35.1956C111.257 35.4688 111.144 35.862 111.144 36.375Z"/></g><defs><clipPath id="clip0_4_2090"><rect width="114" height="40" fill="#fff"/></clipPath></defs></svg>