<svg width="240" height="80" viewBox="0 0 240 80" fill="none" xmlns="http://www.w3.org/2000/svg">
<path d="M176.299 37.0648C175.852 36.1652 175.212 35.4456 174.391 34.9059C172.978 34.0063 171.47 33.3333 169.877 32.9002V32.8202C171.037 32.5004 171.864 32.2072 172.364 31.9407C174.578 30.7413 175.685 29.0022 175.685 26.7166C175.685 25.3773 175.245 24.2112 174.351 23.2051C173.531 22.2589 172.457 21.5792 171.13 21.1861C170.837 21.0528 170.544 20.9662 170.263 20.9195L169.583 20.7996C169.476 20.7729 169.39 20.7463 169.31 20.7196H168.93L168.329 20.7063C167.549 20.5997 165.862 20.5464 163.274 20.5464H153.745V21.3726C155.905 21.3726 156.986 22.4921 156.986 24.731V43.2484C156.986 45.4872 155.905 46.6 153.745 46.6V47.4263H167.649C168.956 47.4263 170.063 47.2597 170.99 46.9065C172.191 46.4601 173.424 45.7471 174.698 44.7876C176.152 43.6815 176.879 41.989 176.879 39.7168C176.879 38.7173 176.686 37.8311 176.299 37.0581V37.0648ZM163.274 23.6315C163.274 22.9119 163.421 22.4055 163.701 22.1256C163.981 21.8457 164.481 21.7058 165.202 21.7058C166.629 21.7058 167.636 21.9523 168.229 22.4388C168.896 22.9785 169.23 23.9447 169.23 25.3307V28.4891C169.23 31.3077 167.809 32.7136 164.968 32.7136H163.268V23.6315H163.274ZM169.05 45.194C168.243 45.927 166.942 46.2935 165.168 46.2935C164.121 46.2935 163.514 45.867 163.354 45.0008C163.301 44.7343 163.274 44.0679 163.274 43.0151V34.0929H165.762C167.649 34.0929 168.95 34.8725 169.643 36.4384C170.11 37.4912 170.337 39.1304 170.337 41.356C170.337 43.1284 169.91 44.4078 169.05 45.194Z" fill="#2E3192"/>
<path d="M141.734 34.5594H132.257V43.2484C132.257 45.4872 133.338 46.6 135.498 46.6V47.4263H122.728V46.6C124.888 46.6 125.969 45.4806 125.969 43.2484V24.731C125.969 22.4921 124.888 21.3726 122.728 21.3726V20.5464H135.498V21.3726C133.338 21.3726 132.257 22.4921 132.257 24.731V32.6337H141.734V24.731C141.734 22.4921 140.654 21.3726 138.493 21.3726V20.5464H151.257V21.3726C149.096 21.3726 148.016 22.4921 148.016 24.731V43.2484C148.016 45.4872 149.096 46.6 151.257 46.6V47.4263H138.493V46.6C140.654 46.6 141.734 45.4806 141.734 43.2484V34.5594Z" fill="#2E3192"/>
<path d="M118.62 20.0133V28.6823H117.833L116.586 25.8437C116.045 24.6377 115.258 23.6049 114.231 22.7453C113.078 21.7791 111.691 21.2993 110.07 21.2993C108.55 21.2993 107.409 21.8258 106.656 22.8786C106.129 23.6182 105.869 24.3778 105.869 25.1774C105.869 26.2169 106.175 27.1231 106.796 27.896C107.589 28.9022 109.003 29.7618 111.017 30.4814C113.971 31.5342 116.185 32.8469 117.653 34.4328C119.04 35.932 119.733 37.6712 119.733 39.6368C119.733 42.6687 118.553 44.9275 116.205 46.4068C114.545 47.4463 112.417 47.966 109.817 47.966C109.123 47.966 108.249 47.8194 107.196 47.5395C104.902 46.9199 103.541 46.6133 103.108 46.6133C102.934 46.6133 102.781 46.7333 102.628 46.9598L102.508 47.3063L102.354 47.966H101.407V38.3641H102.314L103.141 41.1427C103.361 41.8757 103.835 42.6953 104.562 43.6082C105.262 44.4611 105.942 45.1341 106.629 45.6072C107.696 46.3535 108.783 46.7266 109.89 46.7266C113.505 46.7266 115.305 45.2807 115.305 42.3888C115.305 40.9628 114.325 39.6102 112.357 38.3375C111.777 37.971 110.183 37.1714 107.576 35.9454C105.515 34.9858 103.995 33.7131 103.001 32.1473C102.167 30.8279 101.747 29.4486 101.747 28.0227C101.747 25.5439 102.594 23.5382 104.295 22.0057C105.769 20.673 107.456 20 109.343 20C110.624 20 111.824 20.1533 112.931 20.4598L116.519 21.4659C116.766 21.4659 117.019 21.2594 117.292 20.8263L117.719 20H118.62V20.0133Z" fill="#2E3192"/>
<path d="M78.5662 48.0059H76.6989L76.9523 47.826C80.7069 45.2672 82.6476 43.1816 83.4612 41.4158C84.2614 39.6634 83.948 38.2241 83.2011 36.9247C82.3541 35.4588 80.7736 34.1928 79.2197 32.9534C77.6592 31.7074 76.1254 30.4813 75.3851 29.0687C74.7916 27.9293 74.8516 26.6566 75.7986 25.1773C76.7256 23.7314 78.5062 22.0855 81.3671 20.1598C81.4005 20.1398 81.5205 20.0665 81.5539 20.0399H81.914L81.6606 20.2064C81.6606 20.2064 81.5205 20.2997 81.4938 20.3197C79.033 22.1188 77.6592 23.6447 77.0524 24.9841C76.4455 26.3167 76.6055 27.4695 77.2124 28.5156C78.0327 29.9349 79.6599 31.1743 81.3071 32.4337C82.114 33.0467 82.9143 33.6664 83.6412 34.3127C84.3681 34.9591 85.0083 35.6387 85.4752 36.3717C86.3488 37.751 86.6022 39.3102 85.6419 41.2093C84.6949 43.0883 82.5542 45.3006 78.6329 47.9925L78.5795 48.0125L78.5662 48.0059ZM79.0397 20.0399H79.3731L79.1264 20.2198C76.6322 21.9989 75.0784 23.5248 74.2848 24.8708C73.5045 26.1968 73.4712 27.3362 74.0047 28.3624C74.7449 29.775 76.2988 31.0144 77.8793 32.2737C78.6462 32.8868 79.4198 33.4998 80.1067 34.1528C80.8003 34.7991 81.4005 35.4855 81.8206 36.2118C82.6275 37.6111 82.9276 39.1703 81.954 41.0893C80.987 42.9817 78.7663 45.2206 74.5315 47.9859L74.4782 48.0059H72.871L73.1377 47.826C76.8723 45.3205 78.973 43.2616 79.96 41.4958C80.9403 39.7567 80.8269 38.3174 80.1534 37.038C79.7666 36.3051 79.1931 35.6254 78.5262 34.9724C77.8593 34.3194 77.1057 33.693 76.3521 33.0667C75.6052 32.447 74.8583 31.8273 74.2181 31.1876C73.5712 30.5479 73.031 29.8816 72.6976 29.1753C72.1441 28.0159 72.1307 26.7432 73.0644 25.2439C73.9847 23.7647 75.8319 22.0655 79.013 20.0465L79.0397 20.0332V20.0399ZM84.048 20.0399H94.4048V48.0059H80.7803L81.0203 47.826C84.4748 45.3339 86.3488 43.2816 87.1491 41.5224C87.9427 39.79 87.6826 38.3507 86.8756 37.078C86.4088 36.345 85.7686 35.6654 85.035 35.0057C84.3014 34.346 83.4812 33.7263 82.6676 33.1C81.0337 31.854 79.4331 30.6279 78.6129 29.2153C77.9393 28.0559 77.7926 26.7765 78.5729 25.2706C79.3465 23.7847 81.0337 22.0788 84.028 20.0532L84.0547 20.0332L84.048 20.0399ZM62.8676 20.0399H76.8723L76.6055 20.2198C73.8913 22.0522 72.3308 23.6047 71.5705 24.9574C70.8236 26.2901 70.8636 27.4428 71.3638 28.489C71.6972 29.1953 72.2374 29.855 72.8843 30.5013C73.5379 31.1476 74.2914 31.774 75.0517 32.407C75.7919 33.02 76.5322 33.6331 77.1924 34.2794C77.8526 34.9324 78.4261 35.6121 78.8129 36.345C79.5465 37.7243 79.6332 39.2902 78.4728 41.1959C77.3258 43.075 74.945 45.2939 70.7302 47.9925L70.6769 48.0125H62.7676V20.0399H62.8676Z" fill="#F58220"/>
<path d="M63.7012 58.354V55.8419H63.0944V55.3422H63.7012V52.8301H65.6085C66.0354 52.8301 66.3621 52.8567 66.5889 52.91C66.9023 52.9833 67.1757 53.1166 67.4025 53.3032C67.6959 53.5497 67.9093 53.8629 68.056 54.2494C68.2027 54.6292 68.2761 55.069 68.2761 55.562C68.2761 56.1218 68.1894 56.6082 68.0093 57.0146C67.8293 57.4211 67.6159 57.7143 67.3691 57.9009C67.1224 58.0874 66.8356 58.214 66.5088 58.294C66.3288 58.3407 66.062 58.3606 65.7019 58.3606H63.7012V58.354ZM64.4348 57.701H65.6152C65.982 57.701 66.2688 57.6677 66.4755 57.601C66.6822 57.5344 66.8423 57.4411 66.969 57.3212C67.1424 57.1479 67.2758 56.9147 67.3758 56.6215C67.4758 56.3283 67.5225 55.9752 67.5225 55.5554C67.5225 55.1356 67.4758 54.7758 67.3758 54.5226C67.2824 54.2627 67.1557 54.0561 66.9957 53.9029C66.8423 53.7496 66.6689 53.643 66.4755 53.583C66.2821 53.5231 65.9887 53.4897 65.5952 53.4897H64.4348V55.3488H65.962V55.8486H64.4348V57.7076V57.701Z" fill="black"/>
<path d="M68.943 56.3549C68.943 55.6153 69.1497 55.0622 69.5632 54.7091C69.91 54.4159 70.3301 54.2626 70.8236 54.2626C71.3771 54.2626 71.824 54.4425 72.1707 54.8024C72.5175 55.1622 72.6976 55.6619 72.6976 56.295C72.6976 56.808 72.6176 57.2145 72.4642 57.5077C72.3108 57.8009 72.084 58.0341 71.7906 58.194C71.4972 58.3606 71.1704 58.4405 70.8236 58.4405C70.2634 58.4405 69.8099 58.2606 69.4632 57.9008C69.1164 57.541 68.943 57.0213 68.943 56.3483V56.3549ZM70.8303 53.2165L70.4035 53.8562H69.6232L70.4368 52.8034H71.1637L72.0107 53.8562H71.2438L70.8303 53.2165ZM69.6432 56.3549C69.6432 56.868 69.7566 57.2545 69.9767 57.5077C70.2034 57.7609 70.4835 57.8942 70.8236 57.8942C71.1637 57.8942 71.4438 57.7676 71.6639 57.5077C71.8906 57.2545 71.9973 56.8613 71.9973 56.3349C71.9973 55.8418 71.884 55.4687 71.6572 55.2088C71.4305 54.949 71.1504 54.829 70.817 54.829C70.4835 54.829 70.1967 54.9556 69.97 55.2088C69.7499 55.462 69.6366 55.8485 69.6366 56.3549H69.6432ZM70.9503 51.4707H71.8573L70.9837 52.5302H70.4368L70.9437 51.4707H70.9503Z" fill="black"/>
<path d="M73.4978 53.6097V52.8301H74.1781V53.6097H73.4978ZM73.4978 58.354V54.3493H74.1781V58.354H73.4978Z" fill="black"/>
<path d="M78.8396 57.7475L78.9397 58.3472C78.7463 58.3872 78.5795 58.4071 78.4262 58.4071C78.1794 58.4071 77.986 58.3672 77.8526 58.2939C77.7193 58.2139 77.6192 58.114 77.5659 57.9874C77.5125 57.8608 77.4858 57.5942 77.4858 57.1878V54.8822H76.9857V54.3558H77.4858V53.363L78.1594 52.9565V54.3558H78.8396V54.8822H78.1594V57.2211C78.1594 57.4143 78.1727 57.5409 78.1927 57.5942C78.2194 57.6475 78.2528 57.6942 78.3128 57.7275C78.3661 57.7608 78.4462 57.7741 78.5462 57.7741C78.6195 57.7741 78.7196 57.7675 78.8463 57.7475H78.8396Z" fill="black"/>
<path d="M82.114 57.8609C81.8606 58.0742 81.6205 58.2274 81.3871 58.314C81.1537 58.4007 80.907 58.4473 80.6402 58.4473C80.2001 58.4473 79.8599 58.3407 79.6265 58.1275C79.3931 57.9142 79.2731 57.6344 79.2731 57.3012C79.2731 57.108 79.3198 56.9281 79.4065 56.7615C79.4932 56.6016 79.6132 56.4683 79.7599 56.375C79.9066 56.2751 80.0667 56.2018 80.2467 56.1551C80.3801 56.1218 80.5802 56.0818 80.8536 56.0552C81.4005 55.9885 81.8073 55.9086 82.0674 55.822C82.0674 55.7287 82.0674 55.6687 82.0674 55.642C82.0674 55.3622 82.0007 55.1689 81.874 55.0557C81.7006 54.9024 81.4405 54.8291 81.1004 54.8291C80.7803 54.8291 80.5468 54.8824 80.3935 54.9957C80.2401 55.109 80.1267 55.3022 80.0533 55.5887L79.3865 55.5021C79.4465 55.2156 79.5465 54.989 79.6866 54.8158C79.8266 54.6425 80.0267 54.5093 80.2868 54.4093C80.5468 54.316 80.8536 54.2694 81.1937 54.2694C81.5338 54.2694 81.8139 54.3094 82.0273 54.3893C82.2407 54.4693 82.4008 54.5692 82.5008 54.6959C82.6009 54.8158 82.6742 54.9757 82.7142 55.1556C82.7342 55.2689 82.7476 55.4821 82.7476 55.782V56.6882C82.7476 57.3212 82.7609 57.7143 82.7943 57.8876C82.8209 58.0542 82.881 58.2141 82.9677 58.3673H82.2607C82.1874 58.2274 82.1474 58.0608 82.1274 57.8743L82.114 57.8609ZM82.054 56.3484C81.8073 56.4483 81.4405 56.5349 80.947 56.6016C80.6669 56.6415 80.4735 56.6882 80.3534 56.7415C80.2401 56.7948 80.1467 56.8614 80.0867 56.9614C80.0267 57.0613 79.9933 57.1679 79.9933 57.2812C79.9933 57.4611 80.06 57.6144 80.2001 57.7343C80.3401 57.8543 80.5402 57.9142 80.8003 57.9142C81.0603 57.9142 81.2938 57.8543 81.5005 57.741C81.7072 57.6277 81.8539 57.4678 81.9473 57.2746C82.0207 57.1213 82.054 56.8948 82.054 56.5949V56.3484ZM80.7336 53.8563L81.2337 52.8035H82.1207L81.2938 53.8563H80.7336Z" fill="black"/>
<path d="M86.4088 56.888L87.0757 56.9747C87.0023 57.4344 86.8156 57.7943 86.5155 58.0541C86.2154 58.314 85.8486 58.4473 85.4085 58.4473C84.8616 58.4473 84.4215 58.2674 84.088 57.9075C83.7546 57.5477 83.5879 57.0346 83.5879 56.3683C83.5879 55.9352 83.6612 55.5554 83.8013 55.2355C83.9413 54.909 84.1614 54.6692 84.4548 54.5092C84.7483 54.3427 85.0684 54.2627 85.4085 54.2627C85.842 54.2627 86.2021 54.3693 86.4755 54.5892C86.7489 54.8091 86.929 55.1223 87.009 55.5287L86.3488 55.6287C86.2888 55.3621 86.1754 55.1556 86.0154 55.0223C85.8553 54.889 85.6619 54.8158 85.4352 54.8158C85.095 54.8158 84.815 54.9357 84.6015 55.1822C84.3881 55.4288 84.2814 55.8152 84.2814 56.3483C84.2814 56.8814 84.3815 57.2745 84.5882 57.5211C84.7949 57.7676 85.0617 57.8875 85.3951 57.8875C85.6619 57.8875 85.882 57.8076 86.062 57.641C86.2421 57.4811 86.3555 57.2279 86.4021 56.888H86.4088Z" fill="black"/>
<path d="M91.2904 57.7475L91.3905 58.3472C91.1971 58.3872 91.0303 58.4071 90.877 58.4071C90.6302 58.4071 90.4368 58.3672 90.3034 58.2939C90.1701 58.2139 90.07 58.114 90.0167 57.9874C89.9633 57.8608 89.9366 57.5942 89.9366 57.1878V54.8822H89.4365V54.3558H89.9366V53.363L90.6102 52.9565V54.3558H91.2904V54.8822H90.6102V57.2211C90.6102 57.4143 90.6235 57.5409 90.6435 57.5942C90.6702 57.6475 90.7036 57.6942 90.7636 57.7275C90.8169 57.7608 90.897 57.7741 90.997 57.7741C91.0704 57.7741 91.1704 57.7675 91.2971 57.7475H91.2904Z" fill="black"/>
<path d="M91.9573 53.6097V52.8301H92.6375V53.6097H91.9573ZM91.9573 58.354V54.3493H92.6375V58.354H91.9573Z" fill="black"/>
<path d="M93.6712 58.3541V54.3494H94.2848V54.9158C94.5782 54.476 95.005 54.2561 95.5585 54.2561C95.7986 54.2561 96.0187 54.2961 96.2254 54.3894C96.4255 54.476 96.5789 54.5893 96.6789 54.7292C96.7789 54.8691 96.8523 55.0357 96.8923 55.2289C96.919 55.3556 96.9323 55.5754 96.9323 55.8886V58.3474H96.2521V55.9086C96.2521 55.6354 96.2254 55.4288 96.1721 55.2889C96.1187 55.149 96.0253 55.0424 95.892 54.9624C95.7586 54.8825 95.5985 54.8425 95.4185 54.8425C95.1317 54.8425 94.8783 54.9358 94.6716 55.1157C94.4648 55.2956 94.3581 55.6487 94.3581 56.1618V58.3474H93.6779L93.6712 58.3541Z" fill="black"/>
<path d="M102.728 56.888L103.394 56.9747C103.321 57.4344 103.134 57.7943 102.834 58.0541C102.534 58.314 102.167 58.4473 101.727 58.4473C101.18 58.4473 100.74 58.2674 100.407 57.9075C100.073 57.5477 99.9066 57.0346 99.9066 56.3683C99.9066 55.9352 99.98 55.5554 100.12 55.2355C100.26 54.909 100.48 54.6692 100.774 54.5092C101.067 54.3427 101.387 54.2627 101.727 54.2627C102.161 54.2627 102.521 54.3693 102.794 54.5892C103.074 54.8091 103.248 55.1223 103.328 55.5287L102.668 55.6287C102.608 55.3621 102.494 55.1556 102.334 55.0223C102.174 54.889 101.981 54.8158 101.754 54.8158C101.414 54.8158 101.134 54.9357 100.92 55.1822C100.707 55.4288 100.6 55.8152 100.6 56.3483C100.6 56.8814 100.7 57.2745 100.907 57.5211C101.114 57.7676 101.38 57.8875 101.714 57.8875C101.981 57.8875 102.201 57.8076 102.381 57.641C102.561 57.4811 102.674 57.2279 102.721 56.888H102.728Z" fill="black"/>
<path d="M106.589 57.8609C106.335 58.0742 106.095 58.2274 105.862 58.314C105.629 58.4007 105.382 58.4473 105.115 58.4473C104.675 58.4473 104.335 58.3407 104.101 58.1275C103.868 57.9142 103.748 57.6344 103.748 57.3012C103.748 57.108 103.795 56.9281 103.881 56.7615C103.968 56.6016 104.088 56.4683 104.235 56.375C104.381 56.2751 104.542 56.2018 104.722 56.1551C104.855 56.1218 105.055 56.0818 105.328 56.0552C105.875 55.9885 106.282 55.9086 106.542 55.822C106.542 55.7287 106.542 55.6687 106.542 55.642C106.542 55.3622 106.476 55.1689 106.349 55.0557C106.175 54.9024 105.915 54.8291 105.575 54.8291C105.255 54.8291 105.022 54.8824 104.868 54.9957C104.715 55.109 104.602 55.3022 104.528 55.5887L103.861 55.5021C103.921 55.2156 104.021 54.989 104.161 54.8158C104.301 54.6425 104.502 54.5093 104.762 54.4093C105.022 54.316 105.328 54.2694 105.669 54.2694C106.009 54.2694 106.289 54.3094 106.502 54.3893C106.716 54.4693 106.876 54.5692 106.976 54.6959C107.076 54.8158 107.149 54.9757 107.189 55.1556C107.209 55.2689 107.222 55.4821 107.222 55.782V56.6882C107.222 57.3212 107.236 57.7143 107.269 57.8876C107.296 58.0542 107.356 58.2141 107.443 58.3673H106.736C106.662 58.2274 106.622 58.0608 106.602 57.8743L106.589 57.8609ZM105.602 53.2166L105.175 53.8563H104.401L105.215 52.8035H105.942L106.789 53.8563H106.022L105.609 53.2166H105.602ZM106.536 56.3484C106.289 56.4483 105.922 56.5349 105.429 56.6016C105.148 56.6415 104.955 56.6882 104.835 56.7415C104.722 56.7948 104.628 56.8614 104.568 56.9614C104.508 57.0613 104.475 57.1679 104.475 57.2812C104.475 57.4611 104.542 57.6144 104.682 57.7343C104.822 57.8543 105.022 57.9142 105.282 57.9142C105.542 57.9142 105.775 57.8543 105.982 57.741C106.189 57.6277 106.335 57.4678 106.429 57.2746C106.502 57.1213 106.536 56.8948 106.536 56.5949V56.3484ZM105.195 59.5801V58.8071H105.969V59.5801H105.195Z" fill="black"/>
<path d="M108.243 59.8933L108.169 59.2536C108.316 59.2936 108.45 59.3136 108.556 59.3136C108.71 59.3136 108.83 59.287 108.916 59.2403C109.01 59.187 109.083 59.1204 109.136 59.0271C109.176 58.9605 109.25 58.7939 109.343 58.5207C109.356 58.4807 109.376 58.4274 109.403 58.3541L107.883 54.3428H108.616L109.45 56.6616C109.557 56.9548 109.657 57.268 109.743 57.5878C109.823 57.2746 109.917 56.9748 110.023 56.6749L110.877 54.3428H111.557L110.03 58.4141C109.863 58.8538 109.737 59.1604 109.65 59.3203C109.53 59.5468 109.39 59.7068 109.236 59.8134C109.083 59.9133 108.896 59.9666 108.676 59.9666C108.543 59.9666 108.403 59.94 108.236 59.88L108.243 59.8933Z" fill="black"/>
<path d="M111.737 58.3542V57.5813H112.511V58.3542C112.511 58.6408 112.457 58.8673 112.357 59.0406C112.257 59.2138 112.097 59.3471 111.877 59.447L111.691 59.1538C111.831 59.0939 111.937 59.0006 112.004 58.874C112.071 58.754 112.111 58.5741 112.117 58.3476H111.731L111.737 58.3542Z" fill="black"/>
<path d="M115.725 58.6872L116.385 58.7872C116.412 58.9938 116.492 59.1404 116.619 59.2336C116.786 59.3602 117.019 59.4202 117.306 59.4202C117.619 59.4202 117.866 59.3602 118.033 59.2336C118.206 59.107 118.319 58.9338 118.379 58.7072C118.413 58.5673 118.433 58.2808 118.426 57.8343C118.126 58.1808 117.759 58.3607 117.319 58.3607C116.766 58.3607 116.345 58.1608 116.039 57.7677C115.739 57.3746 115.585 56.8948 115.585 56.3418C115.585 55.9619 115.652 55.6088 115.792 55.2889C115.932 54.9624 116.132 54.7159 116.392 54.5427C116.652 54.3627 116.966 54.2761 117.319 54.2761C117.793 54.2761 118.179 54.4694 118.486 54.8492V54.3694H119.113V57.8277C119.113 58.4474 119.053 58.8938 118.92 59.1537C118.793 59.4136 118.593 59.6201 118.319 59.7734C118.046 59.9266 117.706 59.9999 117.299 59.9999C116.819 59.9999 116.439 59.8933 116.139 59.6801C115.845 59.4669 115.705 59.1404 115.712 58.7072L115.725 58.6872ZM116.285 56.2818C116.285 56.8082 116.392 57.188 116.599 57.4345C116.806 57.6744 117.072 57.7944 117.386 57.7944C117.699 57.7944 117.959 57.6744 118.173 57.4345C118.386 57.1947 118.486 56.8215 118.486 56.3084C118.486 55.7954 118.379 55.4489 118.159 55.1957C117.939 54.9491 117.679 54.8225 117.372 54.8225C117.066 54.8225 116.812 54.9425 116.606 55.189C116.392 55.4355 116.285 55.7954 116.285 56.2818Z" fill="black"/>
<path d="M120.153 53.6097V52.8301H120.834V53.6097H120.153ZM120.153 58.354V54.3493H120.834V58.354H120.153Z" fill="black"/>
<path d="M124.481 57.8611C124.228 58.0743 123.988 58.2276 123.755 58.3142C123.521 58.4008 123.274 58.4475 123.008 58.4475C122.568 58.4475 122.227 58.3408 121.994 58.1276C121.754 57.9144 121.641 57.6345 121.641 57.3014C121.641 57.1081 121.687 56.9282 121.774 56.7616C121.861 56.6017 121.981 56.4684 122.127 56.3752C122.274 56.2752 122.434 56.2019 122.614 56.1553C122.748 56.122 122.948 56.082 123.214 56.0553C123.761 55.9887 124.168 55.9087 124.428 55.8221C124.428 55.7288 124.428 55.6688 124.428 55.6422C124.428 55.3623 124.361 55.1691 124.235 55.0558C124.061 54.9026 123.801 54.8293 123.461 54.8293C123.141 54.8293 122.908 54.8826 122.754 54.9958C122.601 55.1091 122.488 55.3024 122.414 55.5889L121.747 55.5023C121.807 55.2157 121.907 54.9892 122.047 54.8159C122.187 54.6427 122.387 54.5094 122.648 54.4095C122.908 54.3162 123.214 54.2695 123.555 54.2695C123.895 54.2695 124.175 54.3095 124.388 54.3895C124.602 54.4694 124.762 54.5694 124.862 54.696C124.962 54.8159 125.035 54.9759 125.075 55.1558C125.095 55.269 125.108 55.4823 125.108 55.7821V56.6883C125.108 57.3214 125.122 57.7145 125.148 57.8877C125.175 58.0543 125.235 58.2142 125.322 58.3675H124.615C124.548 58.2276 124.502 58.061 124.481 57.8744V57.8611ZM124.428 56.3485C124.181 56.4485 123.815 56.5351 123.321 56.6017C123.041 56.6417 122.848 56.6883 122.728 56.7416C122.614 56.7949 122.521 56.8616 122.461 56.9615C122.401 57.0615 122.367 57.1681 122.367 57.2814C122.367 57.4613 122.434 57.6145 122.574 57.7345C122.714 57.8544 122.914 57.9144 123.174 57.9144C123.434 57.9144 123.668 57.8544 123.875 57.7411C124.081 57.6279 124.228 57.4679 124.321 57.2747C124.395 57.1215 124.428 56.8949 124.428 56.595V56.3485ZM123.635 53.3633C123.768 53.3167 123.835 53.2501 123.835 53.1501C123.835 53.0901 123.801 53.0435 123.728 53.0035C123.621 52.9435 123.454 52.9169 123.228 52.9169C123.148 52.9169 123.034 52.9169 122.874 52.9302L122.834 52.5437C122.934 52.5238 123.114 52.5171 123.381 52.5171C123.688 52.5171 123.941 52.5704 124.141 52.6703C124.355 52.777 124.468 52.9236 124.475 53.1101C124.481 53.4233 124.255 53.6099 123.788 53.6632V53.8498H123.368V53.3966C123.515 53.3833 123.601 53.37 123.641 53.3567L123.635 53.3633Z" fill="black"/>
<path d="M126.162 53.6097V52.8301H126.842V53.6097H126.162ZM126.162 58.354V54.3493H126.842V58.354H126.162Z" fill="black"/>
<path d="M130.023 59.8866V54.3494H130.644V54.8691C130.79 54.6626 130.957 54.5093 131.137 54.4094C131.317 54.3094 131.544 54.2561 131.804 54.2561C132.144 54.2561 132.444 54.3427 132.711 54.5226C132.971 54.6959 133.171 54.9424 133.304 55.2689C133.438 55.5888 133.505 55.9419 133.505 56.3217C133.505 56.7282 133.431 57.1013 133.284 57.4279C133.138 57.7544 132.924 58.0076 132.644 58.1808C132.364 58.3541 132.071 58.4407 131.757 58.4407C131.531 58.4407 131.33 58.394 131.15 58.3007C130.97 58.2075 130.824 58.0809 130.71 57.9409V59.8866H130.03H130.023ZM130.637 56.375C130.637 56.8881 130.744 57.2679 130.95 57.5145C131.157 57.761 131.41 57.8876 131.711 57.8876C132.011 57.8876 132.271 57.761 132.484 57.5011C132.698 57.2479 132.804 56.8481 132.804 56.3151C132.804 55.782 132.698 55.4222 132.491 55.169C132.277 54.9158 132.031 54.7892 131.737 54.7892C131.444 54.7892 131.19 54.9224 130.97 55.1956C130.75 55.4688 130.637 55.862 130.637 56.375Z" fill="black"/>
<path d="M134.318 58.354V52.8301H134.998V54.8158C135.318 54.4493 135.712 54.2627 136.199 54.2627C136.492 54.2627 136.752 54.3227 136.972 54.4359C137.192 54.5492 137.346 54.7158 137.439 54.9224C137.533 55.1289 137.579 55.4288 137.579 55.8219V58.3606H136.899V55.8219C136.899 55.4821 136.826 55.2355 136.679 55.0823C136.532 54.929 136.325 54.8491 136.052 54.8491C135.852 54.8491 135.659 54.9024 135.485 55.0023C135.305 55.1089 135.178 55.2489 135.105 55.4288C135.032 55.6087 134.992 55.8552 134.992 56.1684V58.3606H134.311L134.318 58.354Z" fill="black"/>
<path d="M141.234 57.8609C140.98 58.0742 140.74 58.2274 140.507 58.314C140.273 58.4007 140.027 58.4473 139.76 58.4473C139.32 58.4473 138.98 58.3407 138.746 58.1275C138.513 57.9142 138.393 57.6344 138.393 57.3012C138.393 57.108 138.439 56.9281 138.526 56.7615C138.613 56.6016 138.733 56.4683 138.873 56.375C139.02 56.2751 139.18 56.2018 139.36 56.1551C139.493 56.1218 139.693 56.0818 139.967 56.0552C140.514 55.9885 140.92 55.9086 141.18 55.822C141.18 55.7287 141.18 55.6687 141.18 55.642C141.18 55.3622 141.114 55.1689 140.987 55.0557C140.814 54.9024 140.56 54.8291 140.213 54.8291C139.893 54.8291 139.66 54.8824 139.507 54.9957C139.353 55.109 139.24 55.3022 139.166 55.5887L138.5 55.5021C138.56 55.2156 138.66 54.989 138.8 54.8158C138.94 54.6425 139.14 54.5093 139.4 54.4093C139.66 54.316 139.967 54.2694 140.307 54.2694C140.647 54.2694 140.927 54.3094 141.14 54.3893C141.354 54.4693 141.514 54.5692 141.614 54.6959C141.714 54.8158 141.787 54.9757 141.827 55.1556C141.847 55.2689 141.861 55.4821 141.861 55.782V56.6882C141.861 57.3212 141.874 57.7143 141.901 57.8876C141.927 58.0542 141.987 58.2141 142.074 58.3673H141.367C141.3 58.2274 141.254 58.0608 141.234 57.8743V57.8609ZM141.18 56.3484C140.934 56.4483 140.567 56.5349 140.073 56.6016C139.793 56.6415 139.6 56.6882 139.48 56.7415C139.366 56.7948 139.273 56.8614 139.213 56.9614C139.146 57.0613 139.12 57.1679 139.12 57.2812C139.12 57.4611 139.186 57.6144 139.326 57.7343C139.466 57.8543 139.667 57.9142 139.927 57.9142C140.187 57.9142 140.42 57.8543 140.627 57.741C140.834 57.6277 140.98 57.4678 141.074 57.2746C141.147 57.1213 141.18 56.8948 141.18 56.5949V56.3484ZM139.86 53.8563L140.36 52.8035H141.254L140.427 53.8563H139.867H139.86Z" fill="black"/>
<path d="M142.914 59.8866V54.3494H143.535V54.8691C143.681 54.6626 143.841 54.5093 144.028 54.4094C144.215 54.3094 144.435 54.2561 144.695 54.2561C145.035 54.2561 145.342 54.3427 145.602 54.5226C145.862 54.6959 146.062 54.9424 146.195 55.2689C146.329 55.5888 146.395 55.9419 146.395 56.3217C146.395 56.7282 146.322 57.1013 146.175 57.4279C146.029 57.7544 145.815 58.0076 145.535 58.1808C145.255 58.3541 144.962 58.4407 144.648 58.4407C144.421 58.4407 144.221 58.394 144.041 58.3007C143.861 58.2075 143.715 58.0809 143.601 57.9409V59.8866H142.921H142.914ZM143.528 56.375C143.528 56.8881 143.635 57.2679 143.841 57.5145C144.048 57.761 144.301 57.8876 144.602 57.8876C144.902 57.8876 145.162 57.761 145.375 57.5011C145.589 57.2479 145.695 56.8481 145.695 56.3151C145.695 55.782 145.589 55.4222 145.382 55.169C145.168 54.9158 144.922 54.7892 144.628 54.7892C144.335 54.7892 144.081 54.9224 143.861 55.1956C143.641 55.4688 143.528 55.862 143.528 56.375Z" fill="black"/>
<path d="M149.356 59.8866V54.3494H149.977V54.8691C150.123 54.6626 150.283 54.5093 150.47 54.4094C150.65 54.3094 150.877 54.2561 151.137 54.2561C151.477 54.2561 151.784 54.3427 152.044 54.5226C152.304 54.6959 152.504 54.9424 152.638 55.2689C152.771 55.5888 152.838 55.9419 152.838 56.3217C152.838 56.7282 152.764 57.1013 152.618 57.4279C152.471 57.7544 152.257 58.0076 151.977 58.1808C151.697 58.3541 151.404 58.4407 151.09 58.4407C150.864 58.4407 150.664 58.394 150.484 58.3007C150.303 58.2075 150.157 58.0809 150.043 57.9409V59.8866H149.363H149.356ZM149.97 56.375C149.97 56.8881 150.077 57.2679 150.283 57.5145C150.49 57.761 150.744 57.8876 151.044 57.8876C151.344 57.8876 151.604 57.761 151.817 57.5011C152.031 57.2479 152.137 56.8481 152.137 56.3151C152.137 55.782 152.031 55.4222 151.824 55.169C151.611 54.9158 151.364 54.7892 151.07 54.7892C150.777 54.7892 150.524 54.9224 150.303 55.1956C150.083 55.4688 149.97 55.862 149.97 56.375Z" fill="black"/>
<path d="M153.651 58.354V52.8301H154.331V54.8158C154.652 54.4493 155.045 54.2627 155.532 54.2627C155.825 54.2627 156.085 54.3227 156.305 54.4359C156.526 54.5492 156.679 54.7158 156.772 54.9224C156.866 55.1289 156.912 55.4288 156.912 55.8219V58.3606H156.232V55.8219C156.232 55.4821 156.159 55.2355 156.012 55.0823C155.865 54.929 155.659 54.8491 155.385 54.8491C155.185 54.8491 154.992 54.9024 154.818 55.0023C154.645 55.1089 154.512 55.2489 154.438 55.4288C154.365 55.6087 154.325 55.8552 154.325 56.1684V58.3606H153.645L153.651 58.354Z" fill="black"/>
<path d="M160.574 58.354V57.7676C160.26 58.2208 159.84 58.4473 159.3 58.4473C159.066 58.4473 158.846 58.4007 158.64 58.314C158.433 58.2208 158.279 58.1075 158.179 57.9742C158.079 57.8409 158.013 57.6677 157.973 57.4745C157.946 57.3412 157.933 57.128 157.933 56.8414V54.3627H158.613V56.5816C158.613 56.9347 158.626 57.1746 158.653 57.3012C158.693 57.4811 158.786 57.6211 158.926 57.721C159.066 57.821 159.233 57.8743 159.44 57.8743C159.647 57.8743 159.833 57.821 160.013 57.7143C160.193 57.6077 160.32 57.4678 160.393 57.2879C160.467 57.108 160.507 56.8481 160.507 56.5083V54.3627H161.187V58.3673H160.58L160.574 58.354ZM160.187 53.8563H159.64L158.766 52.8035H159.673L160.18 53.8563H160.187Z" fill="black"/>
<path d="M164.395 58.354V52.8301H165.075V54.8158C165.395 54.4493 165.795 54.2627 166.275 54.2627C166.569 54.2627 166.829 54.3227 167.049 54.4359C167.269 54.5492 167.422 54.7158 167.516 54.9224C167.609 55.1289 167.656 55.4288 167.656 55.8219V58.3606H166.976V55.8219C166.976 55.4821 166.902 55.2355 166.756 55.0823C166.609 54.929 166.402 54.8491 166.129 54.8491C165.929 54.8491 165.735 54.9024 165.562 55.0023C165.382 55.1089 165.262 55.2489 165.182 55.4288C165.108 55.6087 165.068 55.8552 165.068 56.1684V58.3606H164.388L164.395 58.354Z" fill="black"/>
<path d="M172.277 55.0424V54.2561H173.004V54.8758C173.004 55.189 172.958 55.4288 172.858 55.5888C172.738 55.8087 172.511 56.0019 172.184 56.1818V56.2884C172.184 57.2213 171.884 57.861 171.277 58.1941C170.977 58.3607 170.657 58.4407 170.31 58.4407C169.737 58.4407 169.283 58.2608 168.95 57.9009C168.603 57.5278 168.43 57.0081 168.43 56.3484C168.43 55.6088 168.636 55.0557 169.05 54.7025C169.396 54.4094 169.817 54.2561 170.31 54.2561C170.864 54.2561 171.31 54.436 171.664 54.7958C171.924 55.069 172.091 55.4222 172.157 55.8553C172.331 55.7487 172.451 55.6421 172.524 55.5288C172.598 55.4155 172.631 55.2556 172.631 55.0357H172.277V55.0424ZM169.13 56.3551C169.13 56.8481 169.243 57.2346 169.463 57.5078C169.677 57.761 169.957 57.8943 170.31 57.8943C170.664 57.8943 170.944 57.7677 171.15 57.5078C171.377 57.2346 171.484 56.8415 171.484 56.3351C171.484 55.8553 171.37 55.4822 171.144 55.2156C170.93 54.9624 170.65 54.8292 170.303 54.8292C169.957 54.8292 169.67 54.9558 169.457 55.209C169.236 55.4822 169.123 55.862 169.123 56.3551H169.13ZM169.897 59.5801V58.8072H170.67V59.5801H169.897Z" fill="black"/>
<path d="M173.751 59.8866V54.3494H174.371V54.8691C174.518 54.6626 174.678 54.5093 174.865 54.4094C175.045 54.3094 175.272 54.2561 175.532 54.2561C175.872 54.2561 176.179 54.3427 176.439 54.5226C176.699 54.6959 176.899 54.9424 177.032 55.2689C177.166 55.5888 177.232 55.9419 177.232 56.3217C177.232 56.7282 177.159 57.1013 177.012 57.4279C176.866 57.7544 176.652 58.0076 176.372 58.1808C176.092 58.3541 175.799 58.4407 175.485 58.4407C175.258 58.4407 175.058 58.394 174.878 58.3007C174.698 58.2075 174.552 58.0809 174.432 57.9409V59.8866H173.751ZM174.365 56.375C174.365 56.8881 174.472 57.2679 174.678 57.5145C174.885 57.761 175.138 57.8876 175.439 57.8876C175.739 57.8876 175.999 57.761 176.212 57.5011C176.426 57.2479 176.532 56.8481 176.532 56.3151C176.532 55.782 176.426 55.4222 176.219 55.169C176.005 54.9158 175.759 54.7892 175.465 54.7892C175.172 54.7892 174.918 54.9224 174.698 55.1956C174.478 55.4688 174.365 55.862 174.365 56.375Z" fill="black"/>
</svg>
