<svg width="40" height="40" viewBox="0 0 40 40" fill="none" xmlns="http://www.w3.org/2000/svg">
<path d="M19.9747 37.3963H17.6138L17.9342 37.1686C22.6813 33.9309 25.1349 31.2917 26.1636 29.0573C27.1754 26.8398 26.7791 25.0185 25.8347 23.3744C24.7639 21.5194 22.7656 19.9174 20.801 18.3491C18.828 16.7723 16.8887 15.2209 15.9528 13.4334C15.2024 11.9916 15.2782 10.3811 16.4755 8.50927C17.6476 6.67959 19.8988 4.59696 23.516 2.1602C23.5582 2.13491 23.7099 2.04216 23.7521 2.00843H24.2074L23.887 2.21922C23.887 2.21922 23.7099 2.33727 23.6762 2.36256C20.5649 4.63912 18.828 6.56998 18.0607 8.26476C17.2934 9.9511 17.4958 11.4098 18.2631 12.7336C19.3002 14.5295 21.3575 16.0978 23.4401 17.6914C24.4604 18.4671 25.4722 19.2513 26.3912 20.0691C27.3103 20.887 28.1197 21.747 28.7099 22.6745C29.8145 24.4199 30.1349 26.3929 28.9207 28.796C27.7234 31.1737 25.0169 33.973 20.059 37.3794L19.9916 37.4047L19.9747 37.3963ZM20.5734 2.00843H20.9949L20.683 2.23609C17.5295 4.48735 15.5649 6.41821 14.5616 8.12142C13.575 9.79933 13.5329 11.2411 14.2074 12.5396C15.1433 14.3272 17.1079 15.8954 19.1062 17.489C20.0759 18.2648 21.054 19.0405 21.9224 19.8668C22.7993 20.6847 23.5582 21.5531 24.0894 22.4722C25.1096 24.2428 25.489 26.2159 24.258 28.6442C23.0354 31.0388 20.2277 33.8718 14.8735 37.371L14.8061 37.3963H12.774L13.1113 37.1686C17.8331 33.9983 20.489 31.3929 21.7369 29.1585C22.9764 26.9578 22.8331 25.1366 21.9815 23.5177C21.4924 22.5902 20.7673 21.7302 19.9241 20.9039C19.0809 20.0776 18.1282 19.285 17.1754 18.4924C16.231 17.7083 15.2867 16.9241 14.4772 16.1147C13.6594 15.3052 12.9764 14.4621 12.5548 13.5683C11.855 12.1012 11.8381 10.4907 13.0185 8.59359C14.1821 6.72175 16.5177 4.57167 20.5396 2.01686L20.5734 2V2.00843ZM26.9056 2.00843H40V37.3963H22.774L23.0776 37.1686C27.4452 34.0152 29.8145 31.4182 30.8263 29.1922C31.8297 27 31.5008 25.1788 30.4806 23.5683C29.8904 22.6408 29.0809 21.7808 28.1535 20.946C27.226 20.1113 26.1889 19.3272 25.1602 18.5346C23.0944 16.9578 21.0708 15.4064 20.0337 13.6189C19.1821 12.1518 18.9966 10.5329 19.9831 8.62732C20.9612 6.74705 23.0944 4.58853 26.8803 2.0253L26.914 2L26.9056 2.00843ZM0.126476 2.00843H17.8331L17.4958 2.23609C14.0641 4.55481 12.0911 6.51939 11.1298 8.23103C10.1855 9.91737 10.2361 11.3761 10.8685 12.6998C11.2901 13.5936 11.973 14.4283 12.7909 15.2462C13.6172 16.0641 14.57 16.8567 15.5312 17.6577C16.4671 18.4334 17.403 19.2091 18.2378 20.027C19.0725 20.8533 19.7976 21.7133 20.2867 22.6408C21.2142 24.3862 21.3238 26.3676 19.8567 28.7791C18.4064 31.1568 15.3963 33.9646 10.0675 37.3794L10 37.4047H0V2.00843H0.126476Z" fill="#F58220"/>
</svg>
