<svg width="261" height="40" viewBox="0 0 261 40" fill="none" xmlns="http://www.w3.org/2000/svg">
<g clip-path="url(#clip0_4_2080)">
<path d="M49.8735 25.988C50.2585 26.3028 50.6796 26.605 51.1609 26.8569C51.6301 27.1213 52.1234 27.348 52.6287 27.5243C53.1341 27.7006 53.6394 27.8392 54.1206 27.9273C54.6139 28.0155 55.0712 28.0658 55.4923 28.0658C56.527 28.0658 57.3451 27.8392 57.9226 27.3858C58.5122 26.9325 58.801 26.2524 58.801 25.3457C58.801 24.6657 58.6445 24.0738 58.3197 23.5953C58.0069 23.1168 57.4173 22.6382 56.5751 22.1723C55.6126 21.6686 54.7222 21.2152 53.9161 20.7997C53.098 20.3841 52.3279 19.8552 51.594 19.1877C50.9202 18.5833 50.3788 17.8907 49.9457 17.1099C49.5246 16.3291 49.308 15.3847 49.308 14.2765C49.308 13.4957 49.4524 12.7779 49.7532 12.1357C50.054 11.4934 50.4751 10.9393 51.0406 10.4734C51.606 10.0074 52.2918 9.64224 53.098 9.39038C53.9161 9.12593 54.8305 9 55.8532 9C56.9842 9 58.0309 9.10074 58.9814 9.28964C59.9319 9.47853 60.8463 9.78077 61.7367 10.1712V13.4579C61.7367 13.6972 61.6525 13.8483 61.472 13.9239C61.3035 13.9994 61.1351 13.9491 60.9546 13.7853C60.2207 13.1431 59.4868 12.6772 58.7528 12.3749C58.0189 12.0853 57.2128 11.9468 56.3465 11.9468C55.4802 11.9468 54.7463 12.1483 54.253 12.5638C53.7597 12.9794 53.5191 13.5461 53.5191 14.2639C53.5191 14.7928 53.6033 15.2335 53.7958 15.6113C53.9883 15.9891 54.2289 16.3039 54.5658 16.5936C55.1915 17.1351 55.8893 17.6136 56.6353 18.0292C57.3812 18.4448 58.1031 18.8226 58.801 19.1626C59.4507 19.5026 60.0402 19.8552 60.5696 20.233C61.099 20.5982 61.5321 21.0263 61.8931 21.4923C62.254 21.9708 62.5187 22.5123 62.7112 23.142C62.9038 23.759 63 24.4768 63 25.2828C63 26.3028 62.8075 27.1843 62.4225 27.9021C62.0375 28.6199 61.5081 29.2118 60.8343 29.6777C60.1605 30.1437 59.3664 30.4711 58.452 30.6852C57.5376 30.8993 56.5631 31 55.5284 31C54.7583 31 53.9642 30.9118 53.1461 30.7481C52.3279 30.5718 51.594 30.3452 50.9443 30.0681C50.2946 29.7911 49.7772 29.4762 49.4163 29.1488C49.0553 28.8214 48.923 28.4814 49.0433 28.1288L49.8494 25.9628L49.8735 25.988Z" fill="#77787B"/>
<path d="M82 9V30H77.723V20.726H70.0988V30H65.8218V11.7187C65.8218 11.2486 65.7722 10.8802 65.6854 10.6134C65.5986 10.3466 65.425 10.0544 65.1647 9.77495C65.0035 9.57169 64.9664 9.39383 65.0283 9.24138C65.1027 9.08893 65.2391 9.0127 65.4374 9.0127H70.0988V17.4991H77.723V9.0127H82V9Z" fill="#77787B"/>
<path d="M87.8078 29.9873V11.706C87.8078 11.2359 87.7591 10.8675 87.6737 10.6007C87.5884 10.3212 87.4178 10.0417 87.1619 9.76225C87.0035 9.55898 86.9669 9.38113 87.0279 9.22868C87.0888 9.07623 87.2228 9 87.4178 9H92V30H87.7956L87.8078 29.9873Z" fill="#77787B"/>
<path d="M96.8076 29.9873V11.706C96.8076 11.2359 96.7589 10.8675 96.6736 10.6007C96.5883 10.3212 96.4177 10.0417 96.1619 9.76225C96.0035 9.55898 95.9669 9.38113 96.0279 9.22868C96.101 9.07623 96.2228 9 96.4177 9H100.877L107.006 20.1034L109.052 24.029L108.797 19.4936V9H113V30H108.857L102.644 18.5917L100.78 14.8439L101.011 19.4936V29.9873H96.8076Z" fill="#77787B"/>
<path d="M133 9V30H128.726V20.726H121.095V30H116.821V11.7187C116.821 11.2486 116.772 10.8802 116.685 10.6134C116.598 10.3466 116.425 10.0544 116.165 9.77495C116.004 9.57169 115.966 9.39383 116.028 9.24138C116.103 9.08893 116.239 9.0127 116.437 9.0127H121.095V17.4991H128.726V9.0127H133V9Z" fill="#77787B"/>
<path d="M142.696 12.4047C142.919 11.8203 143.006 11.3376 142.981 10.9564C142.956 10.588 142.857 10.245 142.696 9.94011C142.362 9.3176 142.523 9 143.204 9H147.115L155 30H150.705L148.564 24.0036H142.337L140.233 30H136L142.696 12.4174V12.4047ZM143.439 20.8022H147.437L145.42 15.0472L143.427 20.8022H143.439Z" fill="#77787B"/>
<path d="M156.807 29.9873V11.706C156.807 11.2359 156.771 10.8675 156.673 10.6007C156.588 10.3212 156.417 10.0417 156.162 9.76225C156.003 9.55898 155.967 9.38113 156.028 9.22868C156.089 9.07623 156.223 9 156.417 9H160.886L167.01 20.1034L169.055 24.029L168.8 19.4936V9H173V30H168.86L162.651 18.5917L160.788 14.8439L161.02 19.4936V29.9873H156.819H156.807Z" fill="#77787B"/>
<path d="M185.431 9H192.744C193.825 9 194.818 9.12704 195.697 9.36842C196.577 9.6098 197.331 9.96552 197.959 10.4229C198.575 10.8802 199.052 11.4265 199.392 12.0871C199.731 12.735 199.894 13.4592 199.894 14.2722C199.894 16.343 199.115 17.8421 197.544 18.7695C198.625 19.176 199.48 19.7986 200.083 20.637C200.698 21.4755 201 22.6062 201 24.0036C201 25.0073 200.812 25.8711 200.422 26.6207C200.045 27.3702 199.505 27.9927 198.814 28.4882C198.122 28.9837 197.293 29.3648 196.313 29.6189C195.345 29.873 194.265 30 193.083 30H185.833V11.706C185.833 11.2359 185.783 10.8675 185.695 10.6007C185.607 10.3339 185.431 10.0417 185.167 9.76225C185.004 9.55898 184.966 9.38113 185.029 9.22867C185.092 9.07622 185.23 9 185.431 9ZM190.156 17.5499H192.443C193.46 17.5499 194.24 17.3466 194.755 16.9274C195.27 16.5082 195.534 15.7967 195.534 14.7804C195.534 13.7641 195.27 13.0145 194.742 12.608C194.214 12.1887 193.423 11.9855 192.38 11.9855H190.156V17.5499ZM196.539 23.7623C196.539 22.6316 196.225 21.8058 195.622 21.2976C195.006 20.7895 194.076 20.5354 192.807 20.5354H190.156V27.0145H192.832C194.089 27.0145 195.031 26.7604 195.634 26.2396C196.238 25.7314 196.539 24.8929 196.539 23.7623Z" fill="#77787B"/>
<path d="M208.696 12.4047C208.907 11.8203 209.006 11.3376 208.981 10.9564C208.944 10.588 208.857 10.245 208.696 9.94011C208.362 9.3176 208.523 9 209.204 9H213.115L221 30H216.705L214.576 24.0036H208.35L206.246 30H202L208.696 12.4174V12.4047ZM209.439 20.8022H213.45L211.432 15.0472L209.439 20.8022Z" fill="#77787B"/>
<path d="M223.808 29.9873V11.706C223.808 11.2359 223.759 10.8675 223.674 10.6007C223.588 10.3212 223.418 10.0417 223.162 9.76225C223.003 9.55898 222.967 9.38113 223.028 9.22868C223.101 9.07623 223.235 9 223.418 9H227.889L234.018 20.1034L236.065 24.029L235.797 19.4936V9H240V30H235.857L229.632 18.5917L227.767 14.8439L227.999 19.4936V29.9873H223.795H223.808Z" fill="#77787B"/>
<path d="M243.845 29.9873V11.706C243.845 11.2359 243.794 10.8675 243.705 10.6007C243.616 10.3212 243.437 10.0417 243.169 9.76225C243.004 9.55898 242.965 9.38113 243.029 9.22868C243.106 9.07623 243.246 9 243.437 9H248.233V17.7278L255.414 9.02541H260.388L252.901 18.1851L261 29.9873H256.294L250.312 21.2849C250.044 20.9165 249.802 20.6497 249.585 20.4973C249.355 20.3321 249.075 20.2559 248.73 20.2559H248.246V30H243.845V29.9873Z" fill="#77787B"/>
<mask id="mask0_4_2080" style="mask-type:luminance" maskUnits="userSpaceOnUse" x="0" y="0" width="40" height="40">
<path d="M19.0893 0.0251282C8.06039 0.515127 -0.481378 9.87537 0.0210784 20.9066C0.523535 31.9379 9.86923 40.4815 20.8982 39.9789C31.9271 39.4889 40.4814 30.1287 39.979 19.0974C39.4891 8.36768 30.6458 0 20.0063 0C19.7048 0 19.3908 0 19.0893 0.0251282Z" fill="white"/>
</mask>
<g mask="url(#mask0_4_2080)">
<path d="M40 0H0V40H40V0Z" fill="url(#paint0_radial_4_2080)"/>
</g>
<mask id="mask1_4_2080" style="mask-type:luminance" maskUnits="userSpaceOnUse" x="4" y="2" width="30" height="36">
<path d="M4.5623 27.3302C5.19209 29.5493 6.51465 32.071 8.63074 33.8992C10.9358 35.8913 13.5809 36.5848 15.7977 36.8117C17.5611 36.9883 19.1104 36.7109 19.0726 36.0805C19.0223 35.1979 16.3645 35.45 14.1351 33.3697C15.6214 32.3106 16.2386 31.3775 16.7172 30.7093C17.6493 29.3854 17.0951 29.2089 16.1126 29.2845C13.5053 29.5115 12.3087 29.9023 11.7923 29.9023C11.2255 29.9023 11.5782 27.595 11.4396 25.6659C11.3136 24.0899 10.6209 24.2664 9.97849 24.796C8.88266 25.7542 8.11431 27.4437 7.90018 27.2672C7.40895 26.9016 6.89252 26.2837 6.25014 25.1868C5.63294 24.1277 5.05354 22.6651 4.72605 22.6021C4.68826 22.6021 4.65047 22.6021 4.61268 22.6021C3.668 22.6021 3.94511 25.1364 4.5749 27.3176M21.3399 3.94169C20.9872 4.77384 23.1789 6.11033 22.272 8.39245C21.5918 10.0946 20.9998 11.1159 20.7353 13.3097C20.5967 14.3562 20.6345 15.1758 20.8109 15.8314C20.8109 15.8314 21.2265 17.6722 23.267 18.1009C23.7205 18.1513 27.5496 18.29 26.0129 14.3436C25.2446 12.6163 24.64 10.7628 25.6476 10.3594C26.6679 9.95589 27.663 10.6746 28.066 12.0867C28.8596 14.9236 30.8623 15.5162 32.8146 14.0788C34.5403 12.818 34.4899 10.3594 31.9455 9.69111C31.0134 9.43894 30.5726 9.41373 29.6657 8.40506C28.9099 7.33335 30.1947 7.03074 31.2276 7.53508C32.6257 8.21593 33.7845 7.119 33.0288 6.22381C32.1974 5.25296 30.3333 4.72341 28.7714 4.50907C27.6 4.35777 26.6931 4.43342 25.1816 4.34516C23.9094 4.26951 22.7506 3.5004 22.0075 3.5004C21.7178 3.5004 21.491 3.61387 21.3525 3.92908M8.1521 9.77937C8.1521 9.77937 7.52231 15.0749 15.3947 21.8708C15.3947 21.8708 23.6449 29.0072 24.5392 29.8393C26.6301 31.8314 28.3683 35.7148 22.4357 36.9C22.4357 36.9 21.7681 37.0135 21.7933 37.4674C21.8059 37.8961 22.2468 38.0221 22.4861 37.9969C25.1438 37.8582 27.1717 37.253 29.0107 35.9796C31.4039 34.3153 33.5578 29.5241 27.2725 24.2916C27.2725 24.2916 25.3202 22.5138 21.7555 19.2357C19.8914 17.4705 18.9719 16.6509 18.9719 16.6509C18.3295 16.0583 17.7123 15.4658 17.1329 14.911C12.4976 10.4728 11.4774 6.50119 14.9538 4.15603C15.8859 3.52561 17.1077 3.38692 18.4932 3.31127C18.4932 3.31127 19.1608 3.27345 19.249 2.81954C19.3372 2.39086 19.06 2.08826 18.5562 2.05043C18.1783 2.01261 17.7879 2 17.3848 2C13.2786 2 8.50478 3.86604 8.1521 9.8172" fill="white"/>
</mask>
<g mask="url(#mask1_4_2080)">
<path d="M33 2H3V38H33V2Z" fill="url(#paint1_radial_4_2080)"/>
</g>
</g>
<defs>
<radialGradient id="paint0_radial_4_2080" cx="0" cy="0" r="1" gradientUnits="userSpaceOnUse" gradientTransform="translate(22.7699 16.0859) scale(40.9774 41.4605)">
<stop stop-color="#00C0F3"/>
<stop offset="0.06" stop-color="#00B2E9"/>
<stop offset="0.16" stop-color="#0097D6"/>
<stop offset="0.17" stop-color="#0092D3"/>
<stop offset="0.23" stop-color="#007FC4"/>
<stop offset="0.3" stop-color="#0070BA"/>
<stop offset="0.38" stop-color="#0068B4"/>
<stop offset="0.52" stop-color="#0066B3"/>
<stop offset="1" stop-color="#0066B3"/>
</radialGradient>
<radialGradient id="paint1_radial_4_2080" cx="0" cy="0" r="1" gradientUnits="userSpaceOnUse" gradientTransform="translate(20.4575 12.068) scale(18.1868 18.7249)">
<stop stop-color="white"/>
<stop offset="0.22" stop-color="#F2E4CD"/>
<stop offset="0.6" stop-color="#DFBA80"/>
<stop offset="0.87" stop-color="#D3A04F"/>
<stop offset="1" stop-color="#CF963D"/>
</radialGradient>
<clipPath id="clip0_4_2080">
<rect width="261" height="40" fill="white"/>
</clipPath>
</defs>
</svg>
