<svg xmlns="http://www.w3.org/2000/svg" width="240" height="80" fill="none" viewBox="0 0 240 80"><path fill="#005E44" d="M110.924 36.1167C108.031 36.1167 106.113 37.813 106.113 40.3435C106.113 41.8817 106.612 43.3209 109.103 45.3607L110.1 46.1855C112.093 47.8253 112.643 48.6871 112.643 50.1374C112.643 51.5393 111.598 52.9552 109.584 52.9552C108.766 52.9552 106.817 52.7504 106.423 50.7902C106.355 50.492 106.354 50.1964 106.354 49.9999C106.354 49.8748 106.335 49.5875 106.01 49.5875C105.712 49.5875 105.68 49.9381 105.667 50.1029C105.665 50.1085 105.667 50.3778 105.667 50.3778C105.632 50.8315 105.564 51.593 105.564 52.5085C105.564 53.1216 105.559 53.3016 105.976 53.5051C106.843 53.9298 107.884 54.1236 109.103 54.1236C110.472 54.1236 111.689 53.8005 112.608 53.1614C114.072 52.1181 114.601 50.4687 114.601 49.2783C114.601 47.5105 114.041 46.0603 111.234 43.8487L110.581 43.3332C108.413 41.5628 107.9 40.8604 107.9 39.6906C107.9 38.2253 108.948 37.2164 110.512 37.2164C112.379 37.2164 113.007 38.0191 113.192 38.3504C113.312 38.5731 113.447 39.1229 113.467 39.3813C113.491 39.5586 113.521 39.8624 113.811 39.8624C114.137 39.8624 114.12 39.4171 114.12 39.1751C114.12 37.9765 114.201 37.2466 114.223 36.9415V36.7697C114.223 36.5566 114.102 36.4604 113.845 36.4604C113.689 36.4604 113.496 36.4191 113.055 36.3229C112.41 36.1676 111.724 36.1167 110.924 36.1167ZM121.062 36.1167C120.762 36.1167 120.676 36.5084 120.649 36.6665C120.649 36.6776 119.137 51.4432 119.137 51.4432C119.066 52.2336 119.003 53.0129 118.45 53.127C118.148 53.1861 118.064 53.1614 117.866 53.1614C117.653 53.1614 117.488 53.281 117.488 53.4363C117.488 53.5669 117.553 53.8143 118.003 53.8143C118.362 53.8143 119.041 53.7566 119.309 53.7455C119.57 53.7346 119.653 53.7455 119.653 53.7455H120.168C120.421 53.7455 121.187 53.8033 121.715 53.8143C121.893 53.8253 122.23 53.7923 122.23 53.4363C122.23 53.281 122.105 53.1614 121.921 53.1614C121.702 53.1614 121.502 53.1421 121.165 53.0583C120.919 53.0047 120.753 52.771 120.753 52.5085C120.753 52.1208 120.732 51.7291 120.753 51.3745C120.753 51.3745 121.525 41.4088 121.543 41.4088C121.489 41.4088 126.629 52.7147 126.629 52.7147C127.054 53.5724 127.14 53.78 127.385 53.78C127.657 53.78 127.731 53.5944 128.072 52.8178C128.078 52.8095 133.124 41.2026 133.124 41.2026C133.117 41.2026 134.086 52.3366 134.086 52.3366C134.091 52.4672 134.111 52.5786 134.12 52.6803C134.134 52.8631 134.135 53.0748 134.086 53.0927C133.918 53.1573 133.845 53.3002 133.845 53.402C133.845 53.692 134.2 53.7607 134.601 53.78C135.418 53.8322 137.654 53.8143 138.106 53.8143C138.67 53.8143 138.725 53.5174 138.725 53.4363C138.725 53.3524 138.68 53.1614 138.381 53.1614C138.183 53.1614 137.657 53.1834 137.076 52.9896C136.259 52.705 136.12 51.4583 136.045 50.7215L134.636 36.8728C134.608 36.558 134.56 36.1167 134.223 36.1167C133.944 36.1167 133.847 36.3916 133.777 36.5634C133.792 36.5786 127.797 50.3435 127.763 50.4123C127.726 50.3724 121.509 36.5291 121.509 36.5291C121.421 36.3229 121.319 36.1167 121.062 36.1167ZM163.983 36.1167C162.39 36.1167 160.321 36.2803 158.45 37.5601C156.267 39.0762 154.979 41.9092 154.979 45.1201C154.979 48.1937 156.306 50.5566 157.454 51.6493C159.144 53.2837 161.44 54.1236 164.292 54.1236C165.569 54.1236 167.416 53.8583 168.725 53.0927C169.058 52.8782 169.068 52.7201 169.068 51.7181V49.2095L169.103 46.8728C169.139 46.0988 169.282 45.8253 169.722 45.7388C169.719 45.7388 170.237 45.67 170.237 45.67C170.416 45.67 170.546 45.5243 170.546 45.3607C170.546 45.024 170.188 45.017 170.065 45.017L168.382 45.0858H168.038H167.763L165.735 45.017C165.616 45.017 165.254 45.024 165.254 45.3607C165.254 45.5243 165.379 45.67 165.563 45.67L166.216 45.7388C166.923 45.9517 167.041 46.0961 167.041 47.9037V51.7181C167.041 52.0287 166.928 52.2322 166.698 52.3711C166.21 52.683 165.17 52.8178 164.429 52.8178C162.406 52.8178 160.669 52.0508 159.206 50.481C158.471 49.6906 157.076 47.3827 157.076 44.3298C157.076 41.8981 157.797 39.8129 159.034 38.7284C160.498 37.457 161.97 37.2852 163.33 37.2852C165.826 37.2852 167.496 38.1593 168.003 39.0033C168.339 39.604 168.407 40.3146 168.415 40.4466C168.437 40.6555 168.439 40.9277 168.69 40.9277C169.032 40.9277 169.035 40.5566 169.035 40.3092C169.035 38.6721 169.132 37.879 169.172 37.457V37.0789C169.172 36.9621 169.128 36.7751 168.794 36.7353C168.247 36.7147 167.568 36.5979 167.179 36.4947C166.6 36.3587 165.176 36.1167 163.983 36.1167ZM151.268 36.2542L151.062 36.3229L150.924 36.3916L150.237 36.4604L149.962 36.4947H143.639H143.364L141.096 36.426C140.968 36.426 140.581 36.4356 140.581 36.7697C140.581 36.9387 140.735 37.0789 140.924 37.0789L141.646 37.1133C142.271 37.2439 142.458 37.5119 142.505 38.2817C142.548 38.9978 142.539 39.6164 142.539 43.127V47.1133C142.539 49.2287 142.548 51.0528 142.436 51.993C142.344 52.6735 142.214 53.0253 141.887 53.0927C141.882 53.0927 141.268 53.1614 141.268 53.1614C141.034 53.1614 140.924 53.3223 140.924 53.4706C140.924 53.8047 141.313 53.8143 141.44 53.8143L143.261 53.7455H143.914L146.423 53.8143C146.889 53.8143 147.041 53.5724 147.041 53.4706C147.041 53.3223 146.824 53.1614 146.594 53.1614L145.598 53.0927C145.056 53.0198 144.944 52.6693 144.876 51.993C144.758 51.0528 144.739 49.2287 144.739 47.1133V45.1889C144.739 45.1889 144.739 45.1751 144.739 45.1545C145.627 45.1545 148.431 45.1641 148.931 45.2233C149.541 45.2975 149.858 45.6178 149.962 45.9106L150.1 46.6322V46.7009C150.1 46.8975 150.219 47.0446 150.409 47.0446C150.721 47.0446 150.718 46.6789 150.718 46.4604L150.821 44.9483L150.993 43.6769C150.993 43.3717 150.801 43.3332 150.718 43.3332C150.568 43.3332 150.49 43.4624 150.409 43.5737L150.34 43.6081C150.188 43.835 149.975 43.938 149.412 43.9861H148.416C148.416 43.9861 144.758 44.0205 144.739 44.0205C144.739 43.9985 144.739 43.9861 144.739 43.9861V37.7319C144.739 37.7319 144.773 37.6687 144.773 37.6631C144.777 37.6687 144.808 37.6631 144.808 37.6631L149.034 37.7319C149.855 37.7511 150.332 38.1057 150.443 38.3504C150.571 38.6267 150.649 38.9896 150.649 39.1408C150.649 39.5394 150.887 39.5532 150.959 39.5532C151.076 39.5532 151.206 39.5187 151.268 39.2095C151.268 39.2026 151.371 38.1443 151.371 38.1443L151.405 37.6975L151.543 36.9071L151.577 36.6322C151.577 36.4205 151.438 36.2542 151.268 36.2542Z"/><path fill="#B6CF48" d="M95.6666 20L87.4879 23.4708V43.4707L95.6666 40V20ZM86.4227 23.9175L78.244 36.0825V56.0825L86.4227 43.9175V23.9175ZM77.1787 36.5292L69 40V60L77.1787 56.5292V36.5292Z"/></svg>