<svg width="40" height="40" viewBox="0 0 40 40" fill="none" xmlns="http://www.w3.org/2000/svg">
<path d="M16.5144 18.3486C15.3746 18.3486 14.6193 19.0168 14.6193 20.0136C14.6193 20.6195 14.8158 21.1864 15.797 21.9899L16.1895 22.3148C16.9746 22.9607 17.1912 23.3002 17.1912 23.8715C17.1912 24.4238 16.7797 24.9815 15.9864 24.9815C15.6643 24.9815 14.8965 24.9008 14.7411 24.1287C14.7146 24.0112 14.714 23.8948 14.714 23.8174C14.714 23.7681 14.7064 23.6549 14.5787 23.6549C14.4612 23.6549 14.4487 23.793 14.4433 23.8579C14.4428 23.8601 14.4433 23.9662 14.4433 23.9662C14.4298 24.1449 14.4027 24.4449 14.4027 24.8055C14.4027 25.047 14.4011 25.1179 14.5651 25.1981C14.9068 25.3654 15.3167 25.4417 15.797 25.4417C16.3362 25.4417 16.8154 25.3145 17.1777 25.0627C17.7543 24.6517 17.9628 24.002 17.9628 23.5331C17.9628 22.8368 17.7418 22.2655 16.6362 21.3943L16.379 21.1913C15.5251 20.4939 15.3232 20.2172 15.3232 19.7564C15.3232 19.1792 15.7358 18.7818 16.3519 18.7818C17.0872 18.7818 17.3347 19.098 17.4078 19.2285C17.4549 19.3162 17.5079 19.5328 17.5161 19.6346C17.5253 19.7044 17.5372 19.8241 17.6514 19.8241C17.7797 19.8241 17.7732 19.6487 17.7732 19.5534C17.7732 19.0812 17.8052 18.7937 17.8139 18.6735V18.6058C17.8139 18.5219 17.7662 18.484 17.6649 18.484C17.6032 18.484 17.5274 18.4678 17.3536 18.4299C17.0997 18.3687 16.8295 18.3486 16.5144 18.3486ZM20.5076 18.3486C20.3896 18.3486 20.3555 18.5029 20.3452 18.5652C20.3452 18.5696 19.7496 24.3859 19.7496 24.3859C19.7214 24.6972 19.6965 25.0042 19.4788 25.0492C19.3597 25.0724 19.3267 25.0627 19.2487 25.0627C19.1648 25.0627 19.0998 25.1098 19.0998 25.171C19.0998 25.2224 19.1253 25.3199 19.3029 25.3199C19.4442 25.3199 19.7116 25.2971 19.8172 25.2928C19.9201 25.2885 19.9526 25.2928 19.9526 25.2928H20.1556C20.2553 25.2928 20.5569 25.3155 20.7648 25.3199C20.8352 25.3242 20.9678 25.3112 20.9678 25.171C20.9678 25.1098 20.9185 25.0627 20.846 25.0627C20.7599 25.0627 20.6809 25.0551 20.5482 25.0221C20.4513 25.001 20.3858 24.9089 20.3858 24.8055C20.3858 24.6528 20.3777 24.4985 20.3858 24.3588C20.3858 24.3588 20.6901 20.4333 20.6971 20.4333C20.676 20.4333 22.7005 24.8867 22.7005 24.8867C22.8678 25.2246 22.9019 25.3064 22.9983 25.3064C23.1055 25.3064 23.1348 25.2333 23.269 24.9273C23.2712 24.9241 25.2589 20.352 25.2589 20.352C25.2562 20.352 25.6379 24.7378 25.6379 24.7378C25.64 24.7893 25.6476 24.8331 25.6514 24.8732C25.6569 24.9452 25.6574 25.0286 25.6379 25.0356C25.5718 25.0611 25.5431 25.1174 25.5431 25.1574C25.5431 25.2717 25.6828 25.2988 25.8409 25.3064C26.1626 25.3269 27.0435 25.3199 27.2216 25.3199C27.4437 25.3199 27.4653 25.2029 27.4653 25.171C27.4653 25.1379 27.4474 25.0627 27.3299 25.0627C27.252 25.0627 27.0446 25.0714 26.8156 24.995C26.4939 24.8829 26.4393 24.3918 26.4095 24.1016L25.8545 18.6465C25.8437 18.5224 25.8247 18.3486 25.692 18.3486C25.5821 18.3486 25.5437 18.4569 25.5161 18.5246C25.522 18.5306 23.1607 23.9527 23.1472 23.9798C23.1326 23.9641 20.6836 18.5111 20.6836 18.5111C20.6489 18.4299 20.6088 18.3486 20.5076 18.3486ZM37.4145 18.3486C36.787 18.3486 35.9721 18.4131 35.2352 18.9172C34.3753 19.5144 33.868 20.6303 33.868 21.8952C33.868 23.1059 34.3905 24.0366 34.8426 24.4671C35.5086 25.1109 36.4129 25.4417 37.5364 25.4417C38.0394 25.4417 38.7671 25.3372 39.2826 25.0356C39.4136 24.9511 39.4179 24.8889 39.4179 24.4942V23.506L39.4315 22.5855C39.4456 22.2807 39.5019 22.1729 39.6751 22.1388C39.6739 22.1388 39.878 22.1118 39.878 22.1118C39.9488 22.1118 40 22.0544 40 21.9899C40 21.8573 39.8588 21.8546 39.8104 21.8546L39.1473 21.8816H39.0119H38.9036L38.1049 21.8546C38.0578 21.8546 37.9154 21.8573 37.9154 21.9899C37.9154 22.0544 37.9647 22.1118 38.0372 22.1118L38.2944 22.1388C38.5727 22.2227 38.6193 22.2796 38.6193 22.9916V24.4942C38.6193 24.6165 38.5749 24.6967 38.4839 24.7514C38.2917 24.8742 37.8824 24.9273 37.5905 24.9273C36.7935 24.9273 36.1091 24.6252 35.533 24.0068C35.2433 23.6955 34.6937 22.7864 34.6937 21.5839C34.6937 20.626 34.978 19.8046 35.4653 19.3774C36.042 18.8766 36.6219 18.8089 37.1573 18.8089C38.1406 18.8089 38.7985 19.1532 38.9983 19.4857C39.1305 19.7223 39.1575 20.0022 39.1606 20.0542C39.1692 20.1365 39.17 20.2437 39.2689 20.2437C39.4034 20.2437 39.4046 20.0975 39.4046 20.0001C39.4046 19.3552 39.4429 19.0428 39.4585 18.8766V18.7277C39.4585 18.6816 39.4413 18.608 39.3096 18.5923C39.0941 18.5842 38.8267 18.5382 38.6734 18.4975C38.4455 18.4439 37.8845 18.3486 37.4145 18.3486ZM32.4061 18.4028L32.3249 18.4299L32.2707 18.4569L32 18.484L31.8917 18.4975H29.401H29.2927L28.3993 18.4705C28.349 18.4705 28.1963 18.4742 28.1963 18.6058C28.1963 18.6724 28.2569 18.7277 28.3316 18.7277L28.6159 18.7412C28.8623 18.7926 28.9359 18.8982 28.9543 19.2014C28.9711 19.4835 28.9678 19.7272 28.9678 21.1101V22.6803C28.9678 23.5136 28.9711 24.2321 28.9272 24.6025C28.891 24.8705 28.8395 25.0091 28.7106 25.0356C28.709 25.0356 28.467 25.0627 28.467 25.0627C28.3749 25.0627 28.3316 25.1261 28.3316 25.1845C28.3316 25.3161 28.4849 25.3199 28.5347 25.3199L29.2521 25.2928H29.5093L30.4974 25.3199C30.681 25.3199 30.7411 25.2246 30.7411 25.1845C30.7411 25.1261 30.6555 25.0627 30.5652 25.0627L30.1726 25.0356C29.9593 25.0069 29.9148 24.8689 29.8883 24.6025C29.8417 24.2321 29.8342 23.5136 29.8342 22.6803V21.9223C29.8342 21.9223 29.8342 21.9168 29.8342 21.9087C30.1839 21.9087 31.2885 21.9125 31.4856 21.9358C31.726 21.965 31.8506 22.0912 31.8917 22.2065L31.9458 22.4908V22.5178C31.9458 22.5953 31.9929 22.6532 32.0677 22.6532C32.1906 22.6532 32.1895 22.5092 32.1895 22.4231L32.2301 21.8275L32.2978 21.3267C32.2978 21.2064 32.222 21.1913 32.1895 21.1913C32.1305 21.1913 32.0996 21.2422 32.0677 21.286L32.0406 21.2996C31.9805 21.3889 31.8966 21.4295 31.6751 21.4485H31.2825C31.2825 21.4485 29.8417 21.462 29.8342 21.462C29.8342 21.4534 29.8342 21.4485 29.8342 21.4485V18.9849C29.8342 18.9849 29.8477 18.96 29.8477 18.9578C29.8493 18.96 29.8612 18.9578 29.8612 18.9578L31.5262 18.9849C31.8495 18.9924 32.0373 19.1321 32.0812 19.2285C32.1316 19.3373 32.1624 19.4803 32.1624 19.5399C32.1624 19.6969 32.2561 19.7023 32.2843 19.7023C32.3303 19.7023 32.3817 19.6887 32.4061 19.5669C32.4061 19.5642 32.4467 19.1473 32.4467 19.1473L32.4602 18.9713L32.5144 18.66L32.5279 18.5517C32.5279 18.4683 32.4732 18.4028 32.4061 18.4028Z" fill="#005E44"/>
<path d="M10.5042 12L7.28257 13.3672V21.2453L10.5042 19.8782V12ZM6.86296 13.5432L3.6413 18.335V26.2132L6.86296 21.4213V13.5432ZM3.22166 18.511L0 19.8782V27.7564L3.22166 26.3892V18.511Z" fill="#B6CF48"/>
</svg>
