<svg xmlns="http://www.w3.org/2000/svg" width="102" height="40" fill="none" viewBox="0 0 102 40"><g clip-path="url(#clip0_20_5860)"><path fill="#005E44" d="M42.3622 16C39.468 16 37.5499 17.6956 37.5499 20.2252C37.5499 21.7628 38.049 23.2014 40.5405 25.2405L41.5373 26.0649C43.5309 27.7041 44.0809 28.5656 44.0809 30.0153C44.0809 31.4168 43.0359 32.8321 41.0216 32.8321C40.2035 32.8321 38.2539 32.6273 37.8593 30.6679C37.7919 30.3698 37.7905 30.0743 37.7905 29.8779C37.7905 29.7528 37.7713 29.4657 37.4468 29.4657C37.1484 29.4657 37.1168 29.8161 37.103 29.9809C37.1018 29.9864 37.103 30.2557 37.103 30.2557C37.0687 30.7092 37 31.4704 37 32.3855C37 32.9984 36.9958 33.1783 37.4124 33.3817C38.2801 33.8062 39.3209 34 40.5405 34C41.9099 34 43.1267 33.6771 44.0466 33.0382C45.5108 31.9952 46.0402 30.3465 46.0402 29.1565C46.0402 27.3895 45.4792 25.9398 42.6716 23.729L42.0185 23.2137C39.8502 21.444 39.3373 20.7419 39.3373 19.5726C39.3373 18.1078 40.3851 17.0993 41.9498 17.0993C43.8169 17.0993 44.4452 17.9017 44.6309 18.2328C44.7505 18.4555 44.8852 19.0051 44.9059 19.2633C44.9292 19.4406 44.9595 19.7443 45.2496 19.7443C45.5754 19.7443 45.5589 19.2992 45.5589 19.0573C45.5589 17.8591 45.64 17.1295 45.6621 16.8244V16.6527C45.6621 16.4397 45.541 16.3436 45.2839 16.3436C45.1272 16.3436 44.9347 16.3023 44.4934 16.2062C43.8485 16.0509 43.1624 16 42.3622 16ZM52.5023 16C52.2026 16 52.116 16.3916 52.0899 16.5496C52.0899 16.5606 50.5775 31.3206 50.5775 31.3206C50.506 32.1107 50.4426 32.8897 49.89 33.0038C49.5875 33.0629 49.5036 33.0382 49.3056 33.0382C49.0925 33.0382 48.9275 33.1577 48.9275 33.313C48.9275 33.4435 48.9921 33.6909 49.4431 33.6909C49.802 33.6909 50.4812 33.6331 50.7493 33.6221C51.0105 33.6112 51.093 33.6221 51.093 33.6221H51.6086C51.8616 33.6221 52.6275 33.6798 53.1554 33.6909C53.3342 33.7019 53.6711 33.6688 53.6711 33.313C53.6711 33.1577 53.5459 33.0382 53.3617 33.0382C53.1431 33.0382 52.9423 33.0189 52.6055 32.9351C52.3594 32.8815 52.193 32.648 52.193 32.3855C52.193 31.998 52.1724 31.6064 52.193 31.252C52.193 31.252 52.9657 21.2901 52.9836 21.2901C52.93 21.2901 58.0708 32.5916 58.0708 32.5916C58.4957 33.449 58.5823 33.6565 58.827 33.6565C59.0993 33.6565 59.1736 33.471 59.5145 32.6947C59.5201 32.6864 64.5674 21.084 64.5674 21.084C64.5606 21.084 65.5299 32.2137 65.5299 32.2137C65.5353 32.3443 65.5546 32.4556 65.5642 32.5573C65.578 32.74 65.5793 32.9516 65.5299 32.9695C65.3621 33.0341 65.2892 33.1769 65.2892 33.2786C65.2892 33.5685 65.644 33.6373 66.0454 33.6565C66.8622 33.7087 69.0992 33.6909 69.5515 33.6909C70.1153 33.6909 70.1703 33.394 70.1703 33.313C70.1703 33.2291 70.1249 33.0382 69.8265 33.0382C69.6286 33.0382 69.1019 33.0602 68.5204 32.8664C67.7036 32.582 67.5648 31.3357 67.4892 30.5993L66.0799 16.7558C66.0524 16.4411 66.0042 16 65.6674 16C65.3882 16 65.2906 16.2748 65.2206 16.4465C65.2356 16.4617 59.2395 30.2214 59.2052 30.2901C59.168 30.2502 52.9492 16.4122 52.9492 16.4122C52.8612 16.2062 52.7594 16 52.5023 16ZM95.4347 16C93.8412 16 91.7719 16.1635 89.9006 17.4428C87.7172 18.9584 86.4289 21.7902 86.4289 25C86.4289 28.0724 87.7557 30.4344 88.9038 31.5267C90.595 33.1605 92.8911 34 95.7441 34C97.0214 34 98.8694 33.7348 100.178 32.9695C100.511 32.7551 100.522 32.5971 100.522 31.5954V29.0878L100.557 26.752C100.592 25.9783 100.735 25.7049 101.175 25.6184C101.172 25.6184 101.69 25.5496 101.69 25.5496C101.87 25.5496 102 25.404 102 25.2405C102 24.9039 101.642 24.8969 101.519 24.8969L99.8348 24.9657H99.4908H99.2158L97.1877 24.8969C97.0682 24.8969 96.7066 24.9039 96.7066 25.2405C96.7066 25.404 96.8316 25.5496 97.0159 25.5496L97.669 25.6184C98.3758 25.8313 98.494 25.9755 98.494 27.7825V31.5954C98.494 31.906 98.3812 32.1093 98.1502 32.2481C97.6621 32.56 96.6227 32.6947 95.8816 32.6947C93.8577 32.6947 92.1197 31.928 90.6568 30.3588C89.9212 29.5688 88.5257 27.2617 88.5257 24.21C88.5257 21.7792 89.2475 19.6948 90.485 18.6107C91.9493 17.3397 93.4218 17.168 94.7816 17.168C97.2785 17.168 98.9491 18.0419 99.4564 18.8855C99.7921 19.486 99.8606 20.1963 99.8686 20.3283C99.8904 20.5371 99.8924 20.8091 100.144 20.8091C100.485 20.8091 100.488 20.4382 100.488 20.1909C100.488 18.5544 100.585 17.7616 100.625 17.3397V16.9618C100.625 16.8451 100.581 16.6582 100.247 16.6184C99.6998 16.5977 99.0206 16.481 98.6315 16.3779C98.0526 16.2419 96.6281 16 95.4347 16ZM82.7166 16.1374L82.5103 16.2062L82.3728 16.2748L81.6853 16.3436L81.4103 16.3779H75.0857H74.8107L72.5421 16.3091C72.4142 16.3091 72.0265 16.3188 72.0265 16.6527C72.0265 16.8217 72.1804 16.9618 72.3701 16.9618L73.092 16.9962C73.7176 17.1267 73.9046 17.3947 73.9514 18.1642C73.994 18.88 73.9857 19.4984 73.9857 23.0076V26.9923C73.9857 29.107 73.994 30.9304 73.8826 31.8702C73.7905 32.5504 73.6598 32.9021 73.3326 32.9695C73.3285 32.9695 72.7139 33.0382 72.7139 33.0382C72.4801 33.0382 72.3701 33.199 72.3701 33.3473C72.3701 33.6812 72.7593 33.6909 72.8858 33.6909L74.7076 33.6221H75.3607L77.8699 33.6909C78.336 33.6909 78.4887 33.449 78.4887 33.3473C78.4887 33.199 78.2714 33.0382 78.0418 33.0382L77.0449 32.9695C76.5033 32.8967 76.3905 32.5463 76.3231 31.8702C76.2048 30.9304 76.1856 29.107 76.1856 26.9923V25.0688C76.1856 25.0688 76.1856 25.055 76.1856 25.0343C77.0738 25.0343 79.8787 25.044 80.3792 25.1031C80.9896 25.1773 81.3059 25.4974 81.4103 25.7901L81.5478 26.5115V26.5801C81.5478 26.7767 81.6675 26.9237 81.8573 26.9237C82.1694 26.9237 82.1666 26.5582 82.1666 26.3397L82.2698 24.8283L82.4416 23.5573C82.4416 23.2522 82.2491 23.2137 82.1666 23.2137C82.0167 23.2137 81.9384 23.3429 81.8573 23.4542L81.7885 23.4885C81.6359 23.7153 81.4227 23.8183 80.8605 23.8664H79.8635C79.8635 23.8664 76.2048 23.9007 76.1856 23.9007C76.1856 23.8788 76.1856 23.8664 76.1856 23.8664V17.6146C76.1856 17.6146 76.22 17.5514 76.22 17.5458C76.2241 17.5514 76.2544 17.5458 76.2544 17.5458L80.4823 17.6146C81.3031 17.6338 81.7802 17.9883 81.8916 18.2328C82.0195 18.509 82.0978 18.8718 82.0978 19.023C82.0978 19.4214 82.3357 19.4352 82.4073 19.4352C82.5241 19.4352 82.6548 19.4007 82.7166 19.0916C82.7166 19.0848 82.8196 18.0268 82.8196 18.0268L82.8541 17.5802L82.9916 16.7901L83.0259 16.5153C83.0259 16.3037 82.8871 16.1374 82.7166 16.1374Z"/><path fill="#B6CF48" d="M27 0L18.7191 3.47083V23.4707L27 20V0ZM17.6405 3.91754L9.35958 16.0825V36.0825L17.6405 23.9175V3.91754ZM8.28093 16.5292L0 20V40L8.28093 36.5292V16.5292Z"/></g><defs><clipPath id="clip0_20_5860"><rect width="102" height="40" fill="#fff"/></clipPath></defs></svg>