<svg width="40" height="40" viewBox="0 0 40 40" fill="none" xmlns="http://www.w3.org/2000/svg">
<g clip-path="url(#clip0_5_7495)">
<path fill-rule="evenodd" clip-rule="evenodd" d="M27.9091 8.125C28.3771 8.125 28.8542 8.20601 29.2862 8.38603C29.7273 8.56604 30.1233 8.82707 30.4563 9.1601C30.7894 9.49314 31.0594 9.88918 31.2394 10.3212C31.4194 10.7533 31.5184 11.2213 31.5184 11.6984C31.5184 12.1754 31.4284 12.6345 31.2394 13.0755C31.0594 13.5075 30.7894 13.9036 30.4563 14.2366C30.1233 14.5696 29.7183 14.8307 29.2862 15.0107C28.8452 15.1907 28.3771 15.2807 27.9091 15.2717C27.072 15.2717 26.4419 15.0017 25.8389 14.6146L21.3654 11.6984L25.8389 8.78207C26.4329 8.39503 27.045 8.125 27.9091 8.125ZM26.5409 39.4121L9.77227 28.494C9.77227 28.494 7.66606 27.2879 7.18901 25.0377C6.51394 21.8784 8.74616 19.1691 8.74616 19.1691L30.5013 33.3365C32.1755 34.4346 32.6346 36.6669 31.5634 38.359C30.4563 40.0962 28.1791 40.4742 26.5409 39.4121Z" fill="#38D200"/>
<path fill-rule="evenodd" clip-rule="evenodd" d="M10.6094 39.9884C10.1413 39.9884 9.66427 39.9074 9.23222 39.7274C8.79118 39.5474 8.39514 39.2864 8.06211 38.9533C7.72907 38.6203 7.45905 38.2243 7.27903 37.7922C7.09901 37.3602 7 36.8921 7 36.4151C7 35.938 7.09001 35.479 7.27903 35.038C7.45905 34.6059 7.72907 34.2099 8.06211 33.8768C8.39514 33.5438 8.80018 33.2828 9.23222 33.1028C9.67327 32.9227 10.1413 32.8327 10.6094 32.8417C11.4464 32.8417 12.0765 33.1118 12.6796 33.4988L17.153 36.4151L12.6796 39.3314C12.0855 39.7184 11.4734 39.9884 10.6094 39.9884ZM10.6544 16.8201C10.6544 16.8201 8.08911 15.272 8.08911 11.6806C8.08911 8.08925 10.6544 6.5771 10.6544 6.5771L19.8263 0.582503C20.6364 0.0604509 21.6175 -0.119567 22.5536 0.0784527C23.4987 0.276473 24.3177 0.843529 24.8398 1.65361C25.3618 2.46369 25.5509 3.44479 25.3438 4.38088C25.1458 5.32598 24.5788 6.14506 23.7687 6.66711L16.0459 11.6986L29.2052 20.2675C29.2052 20.2675 31.5725 21.6266 32.0405 23.9128C32.6886 27.1082 30.4923 29.7454 30.4923 29.7454L10.6544 16.8201Z" fill="#0473EA"/>
</g>
<defs>
<clipPath id="clip0_5_7495">
<rect width="40" height="40" fill="white"/>
</clipPath>
</defs>
</svg>
