<svg width="102" height="40" viewBox="0 0 102 40" fill="none" xmlns="http://www.w3.org/2000/svg">
<g clip-path="url(#clip0_5_7006)">
<path fill-rule="evenodd" clip-rule="evenodd" d="M20.7822 8C21.2488 8 21.7244 8.08132 22.1551 8.26202C22.5947 8.44272 22.9895 8.70474 23.3215 9.03904C23.6535 9.37334 23.9227 9.77089 24.1022 10.2046C24.2816 10.6383 24.3803 11.1081 24.3803 11.587C24.3803 12.0658 24.2906 12.5266 24.1022 12.9693C23.9227 13.403 23.6535 13.8006 23.3215 14.1349C22.9895 14.4692 22.5857 14.7312 22.1551 14.9119C21.7154 15.0926 21.2488 15.1829 20.7822 15.1739C19.9477 15.1739 19.3196 14.9028 18.7185 14.5143L14.259 11.587L18.7185 8.65957C19.3107 8.27105 19.9208 8 20.7822 8ZM19.4183 39.4061L2.70198 28.4465C2.70198 28.4465 0.602343 27.2358 0.126784 24.977C-0.546178 21.8057 1.67908 19.0861 1.67908 19.0861L23.3664 33.3074C25.0353 34.4097 25.4929 36.6504 24.4252 38.349C23.3215 40.0928 21.0514 40.4723 19.4183 39.4061Z" fill="#38D200"/>
<path fill-rule="evenodd" clip-rule="evenodd" d="M3.58639 40C3.12132 40 2.64731 39.919 2.21802 39.7389C1.77978 39.5588 1.38626 39.2977 1.05535 38.9646C0.724433 38.6315 0.456124 38.2353 0.277252 37.8031C0.0983798 37.371 0 36.9028 0 36.4256C0 35.9484 0.0894361 35.4892 0.277252 35.0481C0.456124 34.6159 0.724433 34.2197 1.05535 33.8866C1.38626 33.5535 1.78872 33.2924 2.21802 33.1123C2.65625 32.9323 3.12132 32.8422 3.58639 32.8512C4.41815 32.8512 5.0442 33.1213 5.64342 33.5085L10.0884 36.4256L5.64342 39.3427C5.05314 39.7299 4.44498 40 3.58639 40ZM3.63111 16.825C3.63111 16.825 1.08218 15.2764 1.08218 11.684C1.08218 8.09159 3.63111 6.579 3.63111 6.579L12.7446 0.582671C13.5496 0.0604684 14.5244 -0.119602 15.4546 0.0784754C16.3936 0.276552 17.2075 0.843773 17.7262 1.65409C18.245 2.4644 18.4328 3.44578 18.2271 4.38215C18.0303 5.32752 17.4669 6.14683 16.662 6.66904L8.98833 11.702L22.0639 20.2733C22.0639 20.2733 24.4161 21.6329 24.8811 23.9197C25.5251 27.116 23.3428 29.754 23.3428 29.754L3.63111 16.825Z" fill="#0473EA"/>
<path fill-rule="evenodd" clip-rule="evenodd" d="M44.9849 12.1875L43.6644 11.3304L44.9577 10.5089C45.1205 10.4107 45.3105 10.3482 45.5004 10.3482C45.6903 10.3482 45.8803 10.4018 46.0431 10.5L46.0702 10.5179C46.1787 10.5893 46.2782 10.6786 46.3506 10.7857C46.4229 10.8929 46.4772 11.0179 46.5043 11.1429C46.5315 11.2679 46.5315 11.4018 46.5043 11.5357C46.4772 11.6607 46.432 11.7857 46.3596 11.9018C46.2873 12.0089 46.1968 12.1071 46.0883 12.1786C45.9797 12.25 45.8531 12.3036 45.7265 12.3304C45.5999 12.3571 45.4642 12.3571 45.3286 12.3304C45.2019 12.3036 45.0753 12.2589 44.9577 12.1875H44.9849ZM86.6971 18.3571H85.3947V10.5179H86.6971V12.1875C87.3302 11.0268 88.3431 10.375 89.6003 10.375V11.8571C88.0175 11.6339 86.6971 12.6875 86.6971 14.625V18.3661V18.3571ZM76.4951 14.4643C76.4951 16.0893 77.6347 17.2768 79.2536 17.2768C80.8726 17.2768 82.0393 16.0804 82.0393 14.4643C82.0393 12.8482 80.8816 11.5982 79.2536 11.5982C77.6257 11.5982 76.4951 12.8036 76.4951 14.4643ZM82.0393 17.0268C81.379 17.9464 80.3661 18.5089 79.127 18.5089C76.8026 18.5089 75.1475 16.8036 75.1475 14.4821C75.1475 12.1607 76.8117 10.375 79.127 10.375C80.3661 10.375 81.379 10.9464 82.0393 11.8839V10.5179H83.3597V18.3571H82.0393V17.0179V17.0268ZM91.0293 14.4643C91.0293 16.0893 92.1689 17.2768 93.7878 17.2768C95.4067 17.2768 96.5734 16.0804 96.5734 14.4643C96.5734 12.8482 95.4158 11.5982 93.7878 11.5982C92.1598 11.5982 91.0293 12.8036 91.0293 14.4643ZM96.5734 16.9911C95.9313 17.9286 94.9002 18.5 93.6612 18.5C91.3368 18.5 89.6817 16.7946 89.6817 14.4732C89.6817 12.1518 91.3368 10.3661 93.6612 10.3661C94.9002 10.3661 95.9313 10.9554 96.5734 11.9107V8.79464L97.8939 8V18.3571H96.5734V16.9911ZM66.863 14.4643C66.863 16.0893 68.0026 17.2768 69.6215 17.2768C71.2404 17.2768 72.4071 16.0804 72.4071 14.4643C72.4071 12.8482 71.2495 11.5982 69.6215 11.5982C67.9935 11.5982 66.863 12.8036 66.863 14.4643ZM72.4071 16.9911C71.765 17.9286 70.7339 18.5 69.4949 18.5C67.1705 18.5 65.5154 16.7946 65.5154 14.4732C65.5154 12.1518 67.1705 10.3661 69.4949 10.3661C70.7339 10.3661 71.765 10.9554 72.4071 11.9107V8.79464L73.7276 8V18.3571H72.4071V16.9911ZM58.488 18.3571H57.1856V10.5179H58.488V11.8571C59.0849 10.9464 60.0346 10.375 61.2465 10.375C63.2453 10.375 64.3125 11.8214 64.3125 13.75V18.3661H62.992V13.9732C62.992 12.4464 62.3137 11.6339 60.9299 11.6339C59.4648 11.6339 58.497 12.875 58.497 14.4375V18.3661L58.488 18.3571ZM48.286 14.4643C48.286 16.0893 49.4347 17.2768 51.0445 17.2768C52.6544 17.2768 53.8302 16.0804 53.8302 14.4643C53.8302 12.8482 52.6725 11.5982 51.0445 11.5982C49.4166 11.5982 48.286 12.8036 48.286 14.4643ZM53.8302 17.0268C53.17 17.9464 52.157 18.5089 50.9179 18.5089C48.5935 18.5089 46.9384 16.8036 46.9384 14.4821C46.9384 12.1607 48.6026 10.375 50.9179 10.375C52.157 10.375 53.17 10.9464 53.8302 11.8839V10.5179H55.1506V18.3571H53.8302V17.0179V17.0268ZM43.1489 15.7411C43.1489 16.8393 43.8272 17.2679 44.6774 17.2679C45.3376 17.2679 45.9888 17.0714 46.5315 16.6964V17.9554C45.9798 18.3571 45.2291 18.5089 44.5688 18.5089C42.8776 18.5089 41.8465 17.7589 41.8465 15.6429V8.80357L43.1489 8.00893V15.7411ZM37.7314 17.4464C38.6629 17.4464 39.3413 17.0446 39.3413 16.3304C39.3413 15.9018 39.1151 15.5625 38.5182 15.3304L36.637 14.5804C35.6693 14.1696 35.1357 13.625 35.1357 12.6071C35.1357 11.2411 36.2481 10.3839 37.858 10.3839C38.7896 10.3839 39.6668 10.6429 40.2728 11.0982V12.4554C39.5493 11.8214 38.6629 11.4554 37.8761 11.4554C37.035 11.4554 36.438 11.8393 36.438 12.4732C36.438 12.9464 36.6641 13.2411 37.2882 13.4732L39.1694 14.2232C40.1824 14.6518 40.6527 15.2589 40.6527 16.0982C40.6527 17.5893 39.4317 18.5179 37.7042 18.5179C36.6551 18.5179 35.7055 18.2321 35.009 17.7232V16.3214C35.8502 17.0982 36.7817 17.4554 37.7133 17.4554L37.7314 17.4464ZM70.4174 21.8929L71.7288 22.7589L70.4264 23.5804C70.2636 23.6786 70.0737 23.7411 69.8838 23.7411C69.6938 23.7411 69.5039 23.6875 69.3411 23.5804L69.314 23.5625C69.0879 23.4196 68.9341 23.1964 68.8799 22.9375C68.8256 22.6786 68.8799 22.4107 69.0155 22.1875C69.1602 21.9643 69.3863 21.8125 69.6486 21.7589C69.9109 21.7054 70.1822 21.7589 70.4083 21.9018L70.4174 21.8929ZM68.3101 27.2321C68.3101 28.3304 68.9884 28.7589 69.8386 28.7589C70.4988 28.7589 71.15 28.5625 71.6926 28.1875V29.4464C71.1409 29.8482 70.3903 30 69.73 30C68.0387 30 67.0077 29.25 67.0077 27.1339V19.5089L68.3101 20.3036V27.2321ZM95.1354 25.9643C95.1354 27.5893 96.275 28.7768 97.8939 28.7768C99.5128 28.7768 100.68 27.5804 100.68 25.9643C100.68 24.3482 99.5219 23.0982 97.8939 23.0982C96.284 23.0982 95.1354 24.3036 95.1354 25.9643ZM100.68 28.4911C100.037 29.4286 99.0063 30 97.7582 30C95.4339 30 93.7788 28.2946 93.7788 25.9732C93.7788 23.6518 95.4429 21.8661 97.7582 21.8661C98.9973 21.8661 100.028 22.4554 100.68 23.4107V19.5089L102 20.3036V29.8304H100.68V28.4821V28.4911ZM86.5886 25.3661H91.4996C91.373 24.0268 90.5138 23.0446 89.1119 23.0446C87.6648 23.0446 86.7875 24.0446 86.5795 25.3661H86.5886ZM92.8382 26.4196H86.5705C86.7604 27.8393 87.8909 28.7768 89.4737 28.7768C90.4866 28.7768 91.4725 28.4911 92.3136 27.9018V29.1429C91.4634 29.7143 90.4957 29.9821 89.4737 29.9821C86.9775 29.9821 85.1867 28.3929 85.1867 25.9911C85.1867 23.5893 86.6971 21.8571 89.1029 21.8571C91.5086 21.8571 92.8924 23.5268 92.8924 25.7679C92.8924 25.9821 92.8743 26.2054 92.8472 26.4196H92.8382ZM82.184 29.8393H80.8816V22H82.184V23.6696C82.808 22.5089 83.8301 21.8571 85.0872 21.8571V23.3393C83.5045 23.1161 82.184 24.1696 82.184 26.1071V29.8482V29.8393ZM73.1397 25.3661H78.0508C77.9241 24.0268 77.0649 23.0446 75.6631 23.0446C74.216 23.0446 73.3387 24.0446 73.1307 25.3661H73.1397ZM79.3893 26.4196H73.1216C73.3116 27.8393 74.4421 28.7768 76.0248 28.7768C77.0378 28.7768 78.0236 28.4911 78.8647 27.9018V29.1429C78.0146 29.7143 77.0468 29.9821 76.0248 29.9821C73.5286 29.9821 71.7379 28.3929 71.7379 25.9911C71.7379 23.5893 73.2482 21.8571 75.654 21.8571C78.0598 21.8571 79.4436 23.5268 79.4436 25.7679C79.4436 25.9821 79.4255 26.2054 79.3984 26.4196H79.3893ZM63.1096 29.8393H61.8072V22H63.1096V23.6696C63.7337 22.5089 64.7557 21.8571 66.0128 21.8571V23.3393C64.4301 23.1161 63.1096 24.1696 63.1096 26.1071V29.8482V29.8393ZM52.9077 25.9375C52.9077 27.5625 54.0563 28.75 55.6662 28.75C57.2761 28.75 58.4518 27.5536 58.4518 25.9375C58.4518 24.3214 57.2941 23.0714 55.6662 23.0714C54.0563 23.0714 52.9077 24.2768 52.9077 25.9375ZM58.4518 28.5C57.7916 29.4196 56.7786 29.9821 55.5396 29.9821C53.2152 29.9821 51.5601 28.2768 51.5601 25.9554C51.5601 23.6339 53.2152 21.8482 55.5396 21.8482C56.7786 21.8482 57.7916 22.4196 58.4518 23.3571V21.9911H59.7723V29.8304H58.4518V28.4911V28.5ZM44.5327 29.8393H43.2303V19.5089L44.5327 20.3036V23.3304C45.1296 22.4196 46.0792 21.8482 47.2912 21.8482C49.29 21.8482 50.3572 23.2946 50.3572 25.2232V29.8393H49.0367V25.4464C49.0367 23.9196 48.3584 23.1071 46.9746 23.1071C45.5094 23.1071 44.5417 24.3482 44.5417 25.9107V29.8393H44.5327ZM39.2508 28.7589C40.2005 28.7589 41.0868 28.5 41.7832 27.9196V29.2411C41.0054 29.7679 40.0919 29.9911 39.1242 29.9911C36.6913 29.9911 35 28.3214 35 25.9196C35 23.5179 36.7365 21.8661 39.1604 21.8661C40.11 21.8661 40.9964 22.1339 41.7018 22.6607V24.1071C41.0778 23.4375 40.2005 23.0893 39.2327 23.0893C37.5414 23.0893 36.3476 24.25 36.3476 25.9196C36.3476 27.5893 37.5595 28.7679 39.2508 28.7679V28.7589Z" fill="#525355"/>
</g>
<defs>
<clipPath id="clip0_5_7006">
<rect width="102" height="40" fill="white"/>
</clipPath>
</defs>
</svg>
