<svg width="240" height="80" viewBox="0 0 240 80" fill="none" xmlns="http://www.w3.org/2000/svg">
<path fill-rule="evenodd" clip-rule="evenodd" d="M89.928 28.1245C90.396 28.1245 90.8731 28.2055 91.3051 28.3855C91.7462 28.5655 92.1422 28.8265 92.4752 29.1595C92.8083 29.4925 93.0783 29.8885 93.2583 30.3205C93.4383 30.7525 93.5373 31.2205 93.5373 31.6975C93.5373 32.1745 93.4473 32.6335 93.2583 33.0745C93.0783 33.5065 92.8083 33.9025 92.4752 34.2355C92.1422 34.5685 91.7372 34.8295 91.3051 35.0095C90.8641 35.1895 90.396 35.2795 89.928 35.2705C89.0909 35.2705 88.4608 35.0005 87.8578 34.6135L83.3843 31.6975L87.8578 28.7815C88.4518 28.3945 89.0639 28.1245 89.928 28.1245ZM88.5598 59.4085L71.7912 48.4915C71.7912 48.4915 69.685 47.2855 69.2079 45.0355C68.5328 41.8765 70.7651 39.1675 70.7651 39.1675L92.5202 53.3335C94.1944 54.4315 94.6535 56.6635 93.5824 58.3555C92.4752 60.0925 90.198 60.4705 88.5598 59.4085Z" fill="#38D200"/>
<path fill-rule="evenodd" clip-rule="evenodd" d="M72.6283 59.9845C72.1602 59.9845 71.6832 59.9035 71.2511 59.7235C70.8101 59.5435 70.414 59.2825 70.081 58.9495C69.748 58.6165 69.478 58.2205 69.2979 57.7885C69.1179 57.3565 69.0189 56.8885 69.0189 56.4115C69.0189 55.9345 69.1089 55.4755 69.2979 55.0345C69.478 54.6025 69.748 54.2065 70.081 53.8735C70.414 53.5405 70.8191 53.2795 71.2511 53.0995C71.6922 52.9195 72.1602 52.8295 72.6283 52.8385C73.4654 52.8385 74.0954 53.1085 74.6985 53.4955L79.1719 56.4115L74.6985 59.3275C74.1044 59.7145 73.4924 59.9845 72.6283 59.9845ZM72.6733 36.8185C72.6733 36.8185 70.108 35.2705 70.108 31.6795C70.108 28.0884 72.6733 26.5764 72.6733 26.5764L81.8452 20.5824C82.6553 20.0604 83.6364 19.8804 84.5725 20.0784C85.5176 20.2764 86.3366 20.8434 86.8587 21.6534C87.3807 22.4634 87.5698 23.4444 87.3627 24.3804C87.1647 25.3254 86.5977 26.1444 85.7876 26.6664L78.0648 31.6975L91.2241 40.2655C91.2241 40.2655 93.5914 41.6245 94.0594 43.9105C94.7075 47.1055 92.5113 49.7425 92.5113 49.7425L72.6733 36.8185Z" fill="#0473EA"/>
<path fill-rule="evenodd" clip-rule="evenodd" d="M114.239 31.9495L112.925 31.0855L114.212 30.2575C114.374 30.1585 114.563 30.0955 114.752 30.0955C114.941 30.0955 115.13 30.1495 115.293 30.2485L115.32 30.2665C115.428 30.3385 115.527 30.4285 115.599 30.5365C115.671 30.6445 115.725 30.7705 115.752 30.8965C115.779 31.0225 115.779 31.1575 115.752 31.2925C115.725 31.4185 115.68 31.5445 115.608 31.6615C115.536 31.7695 115.446 31.8685 115.338 31.9405C115.23 32.0125 115.103 32.0665 114.977 32.0935C114.851 32.1205 114.716 32.1205 114.581 32.0935C114.455 32.0665 114.329 32.0215 114.212 31.9495H114.239ZM155.752 38.1685H154.455V30.2665H155.752V31.9495C156.382 30.7795 157.39 30.1225 158.641 30.1225V31.6165C157.066 31.3915 155.752 32.4535 155.752 34.4065V38.1775V38.1685ZM145.599 34.2445C145.599 35.8825 146.733 37.0795 148.344 37.0795C149.955 37.0795 151.116 35.8735 151.116 34.2445C151.116 32.6155 149.964 31.3555 148.344 31.3555C146.724 31.3555 145.599 32.5705 145.599 34.2445ZM151.116 36.8275C150.459 37.7545 149.451 38.3215 148.218 38.3215C145.905 38.3215 144.257 36.6025 144.257 34.2625C144.257 31.9225 145.914 30.1225 148.218 30.1225C149.451 30.1225 150.459 30.6985 151.116 31.6435V30.2665H152.43V38.1685H151.116V36.8185V36.8275ZM160.063 34.2445C160.063 35.8825 161.197 37.0795 162.808 37.0795C164.419 37.0795 165.581 35.8735 165.581 34.2445C165.581 32.6155 164.428 31.3555 162.808 31.3555C161.188 31.3555 160.063 32.5705 160.063 34.2445ZM165.581 36.7915C164.941 37.7365 163.915 38.3125 162.682 38.3125C160.369 38.3125 158.722 36.5935 158.722 34.2535C158.722 31.9135 160.369 30.1135 162.682 30.1135C163.915 30.1135 164.941 30.7075 165.581 31.6705V28.5295L166.895 27.7285V38.1685H165.581V36.7915ZM136.013 34.2445C136.013 35.8825 137.147 37.0795 138.758 37.0795C140.369 37.0795 141.53 35.8735 141.53 34.2445C141.53 32.6155 140.378 31.3555 138.758 31.3555C137.138 31.3555 136.013 32.5705 136.013 34.2445ZM141.53 36.7915C140.891 37.7365 139.865 38.3125 138.632 38.3125C136.319 38.3125 134.671 36.5935 134.671 34.2535C134.671 31.9135 136.319 30.1135 138.632 30.1135C139.865 30.1135 140.891 30.7075 141.53 31.6705V28.5295L142.844 27.7285V38.1685H141.53V36.7915ZM127.678 38.1685H126.382V30.2665H127.678V31.6165C128.272 30.6985 129.217 30.1225 130.423 30.1225C132.412 30.1225 133.474 31.5805 133.474 33.5245V38.1775H132.16V33.7495C132.16 32.2105 131.485 31.3915 130.108 31.3915C128.65 31.3915 127.687 32.6425 127.687 34.2175V38.1775L127.678 38.1685ZM117.525 34.2445C117.525 35.8825 118.668 37.0795 120.27 37.0795C121.872 37.0795 123.042 35.8735 123.042 34.2445C123.042 32.6155 121.89 31.3555 120.27 31.3555C118.65 31.3555 117.525 32.5705 117.525 34.2445ZM123.042 36.8275C122.385 37.7545 121.377 38.3215 120.144 38.3215C117.831 38.3215 116.184 36.6025 116.184 34.2625C116.184 31.9225 117.84 30.1225 120.144 30.1225C121.377 30.1225 122.385 30.6985 123.042 31.6435V30.2665H124.356V38.1685H123.042V36.8185V36.8275ZM112.412 35.5315C112.412 36.6385 113.087 37.0705 113.933 37.0705C114.59 37.0705 115.239 36.8725 115.779 36.4945V37.7635C115.23 38.1685 114.482 38.3215 113.825 38.3215C112.142 38.3215 111.116 37.5655 111.116 35.4325V28.5385L112.412 27.7375V35.5315ZM107.021 37.2505C107.948 37.2505 108.623 36.8455 108.623 36.1255C108.623 35.6935 108.398 35.3515 107.804 35.1175L105.932 34.3615C104.968 33.9475 104.437 33.3985 104.437 32.3725C104.437 30.9955 105.545 30.1315 107.147 30.1315C108.074 30.1315 108.947 30.3925 109.55 30.8515V32.2195C108.83 31.5805 107.948 31.2115 107.165 31.2115C106.328 31.2115 105.734 31.5985 105.734 32.2375C105.734 32.7145 105.959 33.0115 106.58 33.2455L108.452 34.0015C109.46 34.4335 109.928 35.0455 109.928 35.8915C109.928 37.3945 108.713 38.3305 106.994 38.3305C105.95 38.3305 105.004 38.0425 104.311 37.5295V36.1165C105.148 36.8995 106.076 37.2595 107.003 37.2595L107.021 37.2505ZM139.55 41.7325L140.855 42.6055L139.559 43.4335C139.397 43.5325 139.208 43.5955 139.019 43.5955C138.83 43.5955 138.641 43.5415 138.479 43.4335L138.452 43.4155C138.227 43.2715 138.074 43.0465 138.02 42.7855C137.966 42.5245 138.02 42.2545 138.155 42.0295C138.299 41.8045 138.524 41.6515 138.785 41.5975C139.046 41.5435 139.316 41.5975 139.541 41.7415L139.55 41.7325ZM137.453 47.1145C137.453 48.2215 138.128 48.6535 138.974 48.6535C139.631 48.6535 140.279 48.4555 140.819 48.0775V49.3465C140.27 49.7515 139.523 49.9045 138.866 49.9045C137.183 49.9045 136.157 49.1485 136.157 47.0155V39.3295L137.453 40.1305V47.1145ZM164.149 45.8365C164.149 47.4745 165.284 48.6715 166.895 48.6715C168.506 48.6715 169.667 47.4655 169.667 45.8365C169.667 44.2075 168.515 42.9475 166.895 42.9475C165.293 42.9475 164.149 44.1625 164.149 45.8365ZM169.667 48.3835C169.028 49.3285 168.002 49.9045 166.76 49.9045C164.446 49.9045 162.799 48.1855 162.799 45.8455C162.799 43.5055 164.455 41.7055 166.76 41.7055C167.993 41.7055 169.019 42.2995 169.667 43.2625V39.3295L170.981 40.1305V49.7335H169.667V48.3745V48.3835ZM155.644 45.2335H160.531C160.405 43.8835 159.55 42.8935 158.155 42.8935C156.715 42.8935 155.842 43.9015 155.635 45.2335H155.644ZM161.863 46.2955H155.626C155.815 47.7265 156.94 48.6715 158.515 48.6715C159.523 48.6715 160.504 48.3835 161.341 47.7895V49.0405C160.495 49.6165 159.532 49.8865 158.515 49.8865C156.031 49.8865 154.248 48.2845 154.248 45.8635C154.248 43.4425 155.752 41.6965 158.146 41.6965C160.54 41.6965 161.917 43.3795 161.917 45.6385C161.917 45.8545 161.899 46.0795 161.872 46.2955H161.863ZM151.26 49.7425H149.964V41.8405H151.26V43.5235C151.881 42.3535 152.898 41.6965 154.149 41.6965V43.1905C152.574 42.9655 151.26 44.0275 151.26 45.9805V49.7515V49.7425ZM142.259 45.2335H147.147C147.021 43.8835 146.166 42.8935 144.77 42.8935C143.33 42.8935 142.457 43.9015 142.25 45.2335H142.259ZM148.479 46.2955H142.241C142.43 47.7265 143.555 48.6715 145.13 48.6715C146.139 48.6715 147.12 48.3835 147.957 47.7895V49.0405C147.111 49.6165 146.148 49.8865 145.13 49.8865C142.646 49.8865 140.864 48.2845 140.864 45.8635C140.864 43.4425 142.367 41.6965 144.761 41.6965C147.156 41.6965 148.533 43.3795 148.533 45.6385C148.533 45.8545 148.515 46.0795 148.488 46.2955H148.479ZM132.277 49.7425H130.981V41.8405H132.277V43.5235C132.898 42.3535 133.915 41.6965 135.166 41.6965V43.1905C133.591 42.9655 132.277 44.0275 132.277 45.9805V49.7515V49.7425ZM122.124 45.8095C122.124 47.4475 123.267 48.6445 124.869 48.6445C126.472 48.6445 127.642 47.4385 127.642 45.8095C127.642 44.1805 126.49 42.9205 124.869 42.9205C123.267 42.9205 122.124 44.1355 122.124 45.8095ZM127.642 48.3925C126.985 49.3195 125.977 49.8865 124.743 49.8865C122.43 49.8865 120.783 48.1675 120.783 45.8275C120.783 43.4875 122.43 41.6875 124.743 41.6875C125.977 41.6875 126.985 42.2635 127.642 43.2085V41.8315H128.956V49.7335H127.642V48.3835V48.3925ZM113.789 49.7425H112.493V39.3295L113.789 40.1305V43.1815C114.383 42.2635 115.329 41.6875 116.535 41.6875C118.524 41.6875 119.586 43.1455 119.586 45.0895V49.7425H118.272V45.3145C118.272 43.7755 117.597 42.9565 116.22 42.9565C114.761 42.9565 113.798 44.2075 113.798 45.7825V49.7425H113.789ZM108.533 48.6535C109.478 48.6535 110.36 48.3925 111.053 47.8075V49.1395C110.279 49.6705 109.37 49.8955 108.407 49.8955C105.986 49.8955 104.302 48.2125 104.302 45.7915C104.302 43.3705 106.031 41.7055 108.443 41.7055C109.388 41.7055 110.27 41.9755 110.972 42.5065V43.9645C110.351 43.2895 109.478 42.9385 108.515 42.9385C106.832 42.9385 105.644 44.1085 105.644 45.7915C105.644 47.4745 106.85 48.6625 108.533 48.6625V48.6535Z" fill="#525355"/>
</svg>
