<svg width="294" height="40" viewBox="0 0 294 40" fill="none" xmlns="http://www.w3.org/2000/svg">
<g clip-path="url(#clip0_3_58)">
<path d="M273.998 0L264 9.98735V10.0163L273.998 20.0036L264 29.991V30.0126L273.998 40L294 20.0036L273.998 0Z" fill="#EC1C24"/>
<path d="M254.014 0L264 9.98735V10.0163L254.014 20.0036L264 29.991V30.0126L254.014 40L234 20.0036L254.014 0Z" fill="#EC1C24"/>
<path d="M4.47108 30.4714V15.2083H0V10.478H14.3739V15.2083H9.90283V30.4714H4.47108ZM17.0248 30.4714V10.478H29.2462V14.8244H22.3265V18.316H28.8273V22.6044H22.3265V25.9729H29.2462V30.4569L17.0248 30.4714ZM47.2967 11.2458V17.2149C46.664 16.4918 45.9113 15.884 45.072 15.4184C44.339 15.0331 43.5231 14.8341 42.6956 14.8389C41.9856 14.8143 41.2788 14.9448 40.624 15.2212C39.9693 15.4976 39.3822 15.9134 38.9035 16.4398C37.9048 17.5983 37.3877 19.097 37.4588 20.6268C37.4035 22.0974 37.9217 23.5317 38.9035 24.6255C39.6873 25.4288 40.7074 25.9587 41.8139 26.1373C42.9203 26.3159 44.0547 26.1339 45.0503 25.6179C45.8953 25.1425 46.6487 24.5194 47.275 23.7779V29.7542C46.4493 30.1546 45.5854 30.4701 44.6964 30.696C42.8492 31.1287 40.9242 31.0989 39.0913 30.609C38.1836 30.358 37.3243 29.9564 36.5487 29.421C35.1079 28.4828 33.9355 27.1846 33.1467 25.6541C32.3471 24.0575 31.9455 22.2901 31.9765 20.5036C31.9505 19.0794 32.1957 17.6632 32.6988 16.3311C33.2089 15.0527 33.9732 13.8917 34.9452 12.9192C35.8443 11.9766 36.9324 11.236 38.1378 10.746C39.3948 10.2474 40.7372 10.0013 42.0888 10.0216C42.9621 10.0209 43.8324 10.123 44.6819 10.3258C45.5709 10.5517 46.4349 10.8672 47.2605 11.2675M50.3231 30.4931V10.478H55.7549V18.2508H62.978V10.478H68.4242V30.4714H63.0574V22.3291H55.8343V30.4714H50.4026L50.3231 30.4931ZM87.1608 11.2675V17.2366C86.5369 16.4967 85.7828 15.878 84.9361 15.4111C84.2062 15.0247 83.3922 14.8256 82.5669 14.8316C81.8569 14.8066 81.1499 14.9369 80.4951 15.2133C79.8403 15.4897 79.2533 15.9058 78.7748 16.4325C77.7735 17.5895 77.256 19.0894 77.3302 20.6196C77.2808 22.0958 77.8127 23.5322 78.8109 24.6183C79.5918 25.4213 80.6095 25.9513 81.7137 26.13C82.8179 26.3087 83.9502 26.1266 84.9433 25.6107C85.7935 25.1429 86.5482 24.5187 87.168 23.7707V29.747C86.3458 30.1495 85.484 30.4651 84.5966 30.6887C82.7519 31.1221 80.8291 31.0922 78.9987 30.6018C78.0894 30.3493 77.2279 29.9479 76.449 29.4138C75.0116 28.4715 73.84 27.1744 73.0469 25.6469C72.2508 24.049 71.8495 22.2825 71.8768 20.4964C71.8543 19.0724 72.0993 17.6569 72.5991 16.3239C73.1083 15.0467 73.8699 13.8861 74.8382 12.9119C75.7439 11.9739 76.8334 11.2339 78.0381 10.7387C79.2952 10.2407 80.6375 9.99459 81.9891 10.0143C82.8599 10.0141 83.7278 10.1162 84.5749 10.3186C85.462 10.5433 86.3237 10.8589 87.1463 11.2603M110.694 20.5326C110.705 21.907 110.438 23.2695 109.911 24.538C109.383 25.8066 108.605 26.955 107.624 27.9143C106.618 28.8914 105.434 29.6639 104.135 30.1889C101.519 31.2704 98.582 31.2704 95.9657 30.1889C94.6787 29.6664 93.5077 28.8933 92.5203 27.9143C91.517 26.9568 90.7204 25.8029 90.18 24.5241C89.1302 21.9397 89.1302 19.0459 90.18 16.4615C90.7182 15.1814 91.5151 14.0271 92.5203 13.0713C93.5116 12.0971 94.6816 11.3247 95.9657 10.7967C98.5908 9.73444 101.524 9.73444 104.149 10.7967C105.441 11.3225 106.619 12.0951 107.617 13.0713C108.595 14.0379 109.375 15.1871 109.913 16.4543C110.449 17.7361 110.72 19.1138 110.708 20.5036M100.054 26.3785C100.76 26.3933 101.461 26.2517 102.107 25.9637C102.752 25.6757 103.326 25.2484 103.788 24.7124C104.753 23.5229 105.279 22.0367 105.279 20.5036C105.279 18.9706 104.753 17.4844 103.788 16.2949C103.32 15.7689 102.746 15.348 102.105 15.0598C101.463 14.7716 100.768 14.6226 100.065 14.6226C99.3617 14.6226 98.6666 14.7716 98.0249 15.0598C97.3832 15.348 96.8095 15.7689 96.3413 16.2949C95.3353 17.4598 94.8063 18.9635 94.8606 20.5036C94.8023 22.0403 95.3173 23.5436 96.3052 24.7197C96.7703 25.259 97.3494 25.6877 98.0003 25.9746C98.6512 26.2616 99.3577 26.3996 100.068 26.3785M137 30.4569H131.944L130.738 21.8076C130.658 21.2063 130.586 20.5254 130.514 19.7792C130.441 19.0331 130.376 18.2218 130.319 17.3308C130.152 18.4065 129.911 19.4691 129.596 20.5109C129.51 20.7789 129.459 20.96 129.423 21.0904L126.714 30.4641H123.103L120.387 21.0904C120.351 20.96 120.293 20.7717 120.228 20.5109C119.908 19.4778 119.667 18.422 119.506 17.3525C119.448 18.0769 119.383 18.8593 119.318 19.5981C119.253 20.337 119.145 21.0904 119.058 21.8221L117.888 30.4714H112.832L115.916 10.478H121.29L124.237 20.7934C124.237 20.8586 124.295 20.9818 124.338 21.1484C124.591 21.9172 124.772 22.7077 124.88 23.5099C124.918 23.1119 124.985 22.7172 125.082 22.3291C125.183 21.909 125.313 21.3729 125.494 20.7717L128.535 10.4852H133.923L136.986 30.4786L137 30.4569Z" fill="#EC1C24"/>
<path d="M145.08 17.9862H146.169C147.121 18.0633 148.078 17.9071 148.955 17.5314C149.205 17.3661 149.404 17.1362 149.532 16.8665C149.66 16.5969 149.712 16.2976 149.681 16.0009C149.707 15.6965 149.654 15.3906 149.527 15.1125C149.4 14.8343 149.203 14.5934 148.955 14.4126C148.096 14.035 147.155 13.8786 146.219 13.9578H145.037V17.979L145.08 17.9862ZM140 29.9558V10.0089H145.494C147.077 9.9731 148.66 10.0455 150.233 10.2255C151.042 10.3344 151.827 10.5785 152.555 10.9474C153.261 11.3303 153.846 11.9 154.246 12.5934C154.644 13.324 154.844 14.145 154.827 14.9758C154.879 15.9525 154.572 16.9148 153.963 17.683C153.215 18.4631 152.254 19.0078 151.198 19.2496C152.466 19.2934 153.666 19.833 154.536 20.7512C155.382 21.7348 155.815 23.0035 155.748 24.2959C155.769 25.274 155.536 26.2411 155.073 27.1042C154.63 27.9078 153.955 28.5613 153.136 28.9812C152.343 29.3765 151.489 29.6375 150.61 29.7537C148.973 29.9474 147.324 30.0271 145.675 29.9919H140.015L140 29.9558ZM145.08 25.8841H147.003C147.947 25.9533 148.893 25.7844 149.754 25.3932C150.023 25.2236 150.242 24.9842 150.385 24.7005C150.528 24.4169 150.591 24.0998 150.567 23.7833C150.605 23.4548 150.558 23.1221 150.431 22.8164C150.304 22.5108 150.101 22.2423 149.841 22.0362C148.991 21.6259 148.046 21.4513 147.105 21.5309H145.102V25.8625L145.08 25.8841ZM164.341 22.4911H169.777L167.73 15.9215C167.672 15.7194 167.585 15.3945 167.476 14.9541C167.367 14.5137 167.222 13.9362 167.041 13.2359C166.932 13.7268 166.816 14.1961 166.692 14.6364C166.569 15.0768 166.467 15.5028 166.344 15.9215L164.334 22.4911H164.341ZM156.684 29.9558L163.601 10.0089H170.452L177.382 29.9558H171.939L170.923 26.3462H163.158L162.113 29.9558H156.684ZM179.298 29.9558V10.0089H184.567L192.144 20.2747C192.409 20.6795 192.651 21.0989 192.869 21.5309C193.203 22.1662 193.595 22.9098 193.965 23.7905C193.856 22.9675 193.784 22.2239 193.726 21.5742C193.668 20.9245 193.646 20.3686 193.646 19.8704V10.0161H198.9V29.963H193.646L186.069 19.6611C185.804 19.2562 185.562 18.8369 185.343 18.4049C185.017 17.7696 184.654 17.0333 184.262 16.1742C184.364 17.0116 184.451 17.748 184.502 18.3977C184.552 19.0475 184.574 19.6106 184.574 20.1159V29.963H179.305L179.298 29.9558ZM203.196 29.9558V10.0089H208.603V19.0619L214.989 10.0089H221.354L213.944 19.7405L222 29.9558H215.135L208.603 20.9967V29.9558H203.204H203.196Z" fill="#061922"/>
</g>
<defs>
<clipPath id="clip0_3_58">
<rect width="294" height="40" fill="white"/>
</clipPath>
</defs>
</svg>
