<svg width="240" height="80" viewBox="0 0 240 80" fill="none" xmlns="http://www.w3.org/2000/svg">
<path d="M205.506 26.5308L198.761 33.2569V33.2764L205.506 40.0026L198.761 46.7288V46.7434L205.506 53.4695L219 40.0026L205.506 26.5308Z" fill="#EC1C24"/>
<path d="M192.012 26.5308L198.746 33.2569V33.2764L192.012 40.0026L198.746 46.7288V46.7434L192.012 53.4695L178.512 40.0026L192.012 26.5308Z" fill="#EC1C24"/>
<path d="M24.0188 46.7042V36.4495H21V33.2713H30.7049V36.4495H27.6861V46.7042H24.0188ZM32.4947 46.7042V33.2713H40.7463V36.1915H36.0743V38.5374H40.4635V41.4187H36.0743V43.6818H40.7463V46.6945L32.4947 46.7042ZM52.9336 33.7872V37.7976C52.5064 37.3118 51.9982 36.9035 51.4315 36.5906C50.9367 36.3317 50.3857 36.1981 49.827 36.2013C49.3477 36.1848 48.8704 36.2724 48.4284 36.4581C47.9863 36.6439 47.5899 36.9232 47.2667 37.2769C46.5924 38.0552 46.2433 39.0622 46.2913 40.09C46.2539 41.078 46.6038 42.0417 47.2667 42.7765C47.7959 43.3162 48.4847 43.6723 49.2317 43.7923C49.9788 43.9123 50.7447 43.79 51.4169 43.4433C51.9874 43.1239 52.4961 42.7053 52.919 42.2071V46.2224C52.3615 46.4914 51.7782 46.7033 51.1779 46.8551C49.9308 47.1459 48.631 47.1258 47.3935 46.7967C46.7807 46.628 46.2005 46.3582 45.6768 45.9985C44.704 45.3682 43.9124 44.4959 43.3798 43.4677C42.84 42.3949 42.5689 41.2075 42.5898 40.0072C42.5722 39.0503 42.7377 38.0989 43.0775 37.2039C43.4219 36.3449 43.9379 35.5649 44.5942 34.9115C45.2012 34.2782 45.9359 33.7806 46.7497 33.4514C47.5984 33.1164 48.5048 32.951 49.4174 32.9647C50.007 32.9642 50.5946 33.0328 51.1682 33.1691C51.7684 33.3209 52.3517 33.5328 52.9092 33.8018M54.977 46.7188V33.2713H58.6444V38.4936H63.5212V33.2713H67.1984V46.7042H63.5749V41.2337H58.698V46.7042H55.0306L54.977 46.7188ZM79.8489 33.8018V37.8122C79.4276 37.3151 78.9185 36.8994 78.3468 36.5857C77.854 36.3261 77.3045 36.1924 76.7472 36.1964C76.2678 36.1796 75.7905 36.2671 75.3484 36.4528C74.9063 36.6386 74.5099 36.9181 74.1869 37.272C73.5108 38.0493 73.1614 39.057 73.2115 40.0851C73.1781 41.0769 73.5373 42.042 74.2113 42.7717C74.7385 43.3112 75.4256 43.6673 76.1712 43.7874C76.9167 43.9074 77.6812 43.7851 78.3517 43.4385C78.9257 43.1242 79.4353 42.7048 79.8538 42.2022V46.2175C79.2986 46.488 78.7168 46.7 78.1176 46.8502C76.8721 47.1414 75.5739 47.1213 74.3381 46.7918C73.7241 46.6222 73.1424 46.3525 72.6165 45.9936C71.646 45.3606 70.855 44.489 70.3195 43.4628C69.782 42.3892 69.5111 41.2024 69.5295 40.0024C69.5143 39.0456 69.6797 38.0946 70.0172 37.199C70.361 36.3409 70.8752 35.5611 71.529 34.9066C72.1405 34.2764 72.8761 33.7792 73.6894 33.4465C74.5383 33.1119 75.4445 32.9466 76.3571 32.9598C76.9451 32.9597 77.531 33.0283 78.103 33.1642C78.7019 33.3152 79.2837 33.5272 79.8391 33.797M95.7377 40.0267C95.7451 40.9501 95.5653 41.8655 95.2092 42.7178C94.853 43.5701 94.3277 44.3417 93.665 44.9862C92.9862 45.6427 92.1862 46.1617 91.3095 46.5144C89.543 47.241 87.5603 47.241 85.7938 46.5144C84.9248 46.1633 84.1342 45.6439 83.4675 44.9862C82.7901 44.3429 82.2523 43.5676 81.8874 42.7084C81.1786 40.972 81.1786 39.0278 81.8874 37.2915C82.2508 36.4314 82.7888 35.6559 83.4675 35.0137C84.1368 34.3592 84.9268 33.8402 85.7938 33.4855C87.5662 32.7718 89.5468 32.7718 91.3193 33.4855C92.1914 33.8388 92.9864 34.3578 93.6601 35.0137C94.3207 35.6631 94.8476 36.4352 95.211 37.2866C95.5728 38.1478 95.7553 39.0734 95.7474 40.0072M88.5541 43.9544C89.031 43.9643 89.5042 43.8691 89.94 43.6756C90.3758 43.4821 90.7635 43.1951 91.0754 42.8349C91.7265 42.0358 92.0819 41.0372 92.0819 40.0072C92.0819 38.9772 91.7265 37.9787 91.0754 37.1795C90.7593 36.8261 90.3719 36.5433 89.9387 36.3497C89.5054 36.1561 89.0361 36.056 88.5614 36.056C88.0867 36.056 87.6173 36.1561 87.1841 36.3497C86.7509 36.5433 86.3635 36.8261 86.0474 37.1795C85.3681 37.9622 85.0109 38.9725 85.0476 40.0072C85.0082 41.0396 85.356 42.0496 86.023 42.8398C86.337 43.2022 86.728 43.4902 87.1675 43.683C87.607 43.8758 88.084 43.9685 88.5638 43.9544M113.499 46.6945H110.085L109.271 40.8833C109.217 40.4793 109.169 40.0218 109.12 39.5205C109.071 39.0192 109.027 38.4741 108.988 37.8755C108.876 38.5982 108.713 39.3122 108.5 40.0121C108.442 40.1922 108.408 40.3138 108.383 40.4015L106.555 46.6993H104.116L102.282 40.4015C102.258 40.3138 102.219 40.1873 102.175 40.0121C101.959 39.318 101.796 38.6087 101.687 37.8901C101.648 38.3768 101.605 38.9024 101.561 39.3989C101.517 39.8953 101.444 40.4015 101.385 40.893L100.595 46.7042H97.1812L99.2636 33.2713H102.892L104.882 40.2019C104.882 40.2457 104.921 40.3285 104.95 40.4404C105.121 40.9569 105.243 41.4881 105.316 42.027C105.342 41.7596 105.387 41.4944 105.452 41.2337C105.521 40.9514 105.608 40.5913 105.73 40.1873L107.783 33.2762H111.422L113.489 46.7091L113.499 46.6945Z" fill="#EC1C24"/>
<path d="M118.864 38.6594H119.595C120.235 38.7114 120.878 38.6061 121.468 38.3528C121.636 38.2413 121.77 38.0864 121.856 37.9046C121.941 37.7227 121.976 37.521 121.956 37.321C121.973 37.1158 121.937 36.9095 121.852 36.722C121.767 36.5345 121.634 36.3721 121.468 36.2502C120.891 35.9956 120.258 35.8902 119.629 35.9436H118.834V38.6545L118.864 38.6594ZM115.45 46.7289V33.2814H119.142C120.205 33.2573 121.269 33.306 122.326 33.4274C122.87 33.5008 123.398 33.6654 123.887 33.9141C124.361 34.1722 124.754 34.5563 125.023 35.0238C125.29 35.5163 125.425 36.0698 125.413 36.6299C125.448 37.2884 125.242 37.9371 124.833 38.455C124.33 38.9809 123.684 39.3481 122.975 39.5111C123.827 39.5406 124.633 39.9044 125.218 40.5234C125.786 41.1866 126.078 42.0419 126.033 42.9131C126.047 43.5726 125.89 44.2245 125.579 44.8064C125.281 45.3481 124.828 45.7888 124.277 46.0718C123.744 46.3383 123.171 46.5143 122.58 46.5926C121.48 46.7232 120.371 46.7769 119.264 46.7532H115.46L115.45 46.7289ZM118.864 43.9839H120.156C120.79 44.0305 121.426 43.9167 122.004 43.6529C122.186 43.5386 122.332 43.3772 122.428 43.1859C122.525 42.9947 122.567 42.7809 122.551 42.5676C122.576 42.3461 122.545 42.1218 122.459 41.9157C122.374 41.7097 122.238 41.5287 122.063 41.3898C121.492 41.1131 120.857 40.9954 120.224 41.0491H118.878V43.9693L118.864 43.9839ZM131.807 41.6964H135.46L134.084 37.2674C134.045 37.1312 133.987 36.9121 133.914 36.6153C133.841 36.3184 133.743 35.929 133.621 35.4569C133.548 35.7879 133.47 36.1042 133.387 36.4011C133.304 36.698 133.236 36.9852 133.153 37.2674L131.802 41.6964H131.807ZM126.662 46.7289L131.309 33.2814H135.913L140.571 46.7289H136.913L136.23 44.2954H131.012L130.31 46.7289H126.662ZM141.858 46.7289V33.2814H145.399L150.49 40.2022C150.668 40.4751 150.831 40.7579 150.978 41.0491C151.202 41.4774 151.465 41.9787 151.714 42.5725C151.641 42.0176 151.592 41.5163 151.553 41.0783C151.514 40.6403 151.5 40.2655 151.5 39.9297V33.2862H155.03V46.7337H151.5L146.408 39.7885C146.23 39.5156 146.067 39.2329 145.92 38.9417C145.701 38.5134 145.457 38.0169 145.194 37.4378C145.262 38.0023 145.321 38.4988 145.355 38.9368C145.389 39.3748 145.404 39.7545 145.404 40.0952V46.7337H141.863L141.858 46.7289ZM157.918 46.7289V33.2814H161.551V39.3846L165.842 33.2814H170.119L165.14 39.8421L170.553 46.7289H165.94L161.551 40.6889V46.7289H157.922H157.918Z" fill="#061922"/>
</svg>
