<svg width="208" height="40" viewBox="0 0 208 40" fill="none" xmlns="http://www.w3.org/2000/svg">
<g clip-path="url(#clip0_8_1234)">
<path d="M24.437 0.613514C25.7748 -0.00856014 27.3704 -0.203721 28.7887 0.243522C29.933 0.76395 29.5865 2.26425 29.24 3.19939C27.866 7.00502 26.492 10.8147 25.4 14.7098C29.4012 14.413 33.4063 14.0227 37.4236 14.1487C38.8016 14.2503 40.2643 14.3317 41.4731 15.0798C42.15 15.4701 42.1782 16.5475 41.5375 16.9826C39.958 18.1739 38.0239 18.7268 36.1664 19.3164C32.0565 20.5809 27.7854 21.1379 23.5385 21.6542C22.4224 26.582 21.1491 31.6887 22.0356 36.7629C22.1443 37.6981 22.6762 38.6739 22.2813 39.5927C21.6286 40.0847 20.7583 40.0318 19.9927 39.9383C18.5099 39.7147 16.9787 39.0723 16.0963 37.7875C15.1132 36.3889 14.674 34.669 14.5329 32.9776C14.3274 29.4607 14.952 25.9681 15.6209 22.5325C12.615 22.8252 9.61312 23.1667 6.59515 23.2846C4.79807 23.2643 2.76729 23.1464 1.38925 21.825C0.490712 20.8004 -0.162039 19.4099 0.0353979 18.0153C0.269099 16.9745 1.44164 16.6248 2.36032 16.5028C7.34461 16.0678 12.337 15.7181 17.3212 15.2953C17.5308 14.9985 17.5993 14.6285 17.7121 14.291C18.5824 11.2335 19.618 8.2207 20.7139 5.24044C21.4191 3.36202 22.5715 1.4958 24.433 0.617579L24.437 0.613514Z" fill="#563D82"/>
<path d="M49.3284 6.25743C50.2983 6.18601 51.3686 5.95588 52.3761 6.00746C52.8987 6.03127 53.6053 6.09079 53.877 6.3725C54.0735 6.7296 53.9857 7.06686 53.9439 7.41206C53.831 8.35242 53.3043 9.27294 52.9322 10.1339C52.1462 11.8163 49.9973 12.0782 48.2874 11.9829C47.539 11.9155 46.5231 11.9909 46.0967 11.2648C45.7497 10.007 46.4061 8.74126 46.9663 7.63028C47.3927 6.76531 48.3877 6.37647 49.3326 6.26537L49.3284 6.25743Z" fill="#2774AE"/>
<path d="M46.574 14.2239C47.9446 14.089 49.8291 13.68 50.7614 14.4857C51.2833 15.1032 50.8132 16.0805 50.6299 16.8248C49.5342 20.2804 48.4067 23.7278 47.4904 27.2407C46.6736 30.4059 45.7612 33.612 45.7732 36.9204C45.7891 37.8119 45.052 38.499 44.2592 38.7198C42.9763 39.0919 41.5181 39.1451 40.2869 38.5603C38.7889 37.677 38.9084 35.6404 39.1355 34.1273C40.0837 28.4471 41.7571 22.9181 43.6098 17.4873C44.0879 16.0601 44.9245 14.3998 46.57 14.2321L46.574 14.2239Z" fill="#2774AE"/>
<path d="M121.077 10.267C124.871 9.62846 128.953 10.1054 132.31 12.021C134.653 13.3587 136.488 15.6583 136.88 18.3257C137.474 22.4075 135.824 26.639 132.875 29.5246C129.791 32.5678 125.555 34.342 121.246 34.8633C118.363 35.2432 115.336 34.8431 112.746 33.5135C110.268 32.3091 108.218 30.1591 107.434 27.5362C106.519 24.501 107.1 21.1507 108.709 18.4348C111.282 14.0579 116.037 11.1198 121.077 10.2711V10.267ZM122.495 15.9695C118.235 16.6929 114.981 20.7586 114.977 24.9415C114.936 26.2186 115.695 27.4715 116.874 28.0211C118.487 28.7769 120.38 28.7526 122.083 28.3364C125.201 27.5766 128.174 25.4023 129.057 22.2701C129.597 20.6131 129.275 18.6692 128.009 17.4042C126.59 16.018 124.421 15.5977 122.499 15.9736L122.495 15.9695Z" fill="#FF9425"/>
<path d="M95.5393 12.9493C97.627 12.039 100.1 11.5939 102.274 12.4841C103.763 13.0535 104.813 14.489 104.961 16.0368C105.174 18.4106 104.477 20.7243 103.98 23.0219C103.361 26.1175 103.012 29.3254 103.517 32.4611C103.673 33.5197 104.177 34.5342 104.099 35.6168C104.021 36.2263 103.299 36.3747 102.783 36.4108C100.313 36.531 97.7131 35.2519 96.6836 32.9864C95.4778 30.4 95.892 27.4688 96.2325 24.7462C96.2366 23.9723 96.4416 23.066 95.9248 22.4004C95.3916 21.7588 94.4729 22.1518 93.8454 22.4365C87.8612 25.5802 83.0132 30.3639 78.6204 35.3522C77.6525 36.3787 76.4712 37.7861 74.8552 37.3771C72.7634 36.9641 71.8529 34.6625 71.98 32.7738C72.1728 29.169 73.6822 25.7927 74.3015 22.2601C74.5476 21.5062 73.8298 20.8927 73.0834 21.0852C70.8603 21.426 68.8547 22.5408 66.9803 23.7036C64.142 25.5241 61.7713 28.0222 60.1635 30.9454C59.2161 32.5453 58.5475 34.2775 57.7108 35.9296C57.2227 36.8318 56.5419 37.8824 55.3975 37.9866C53.88 38.143 52.629 36.904 52.1819 35.5887C51.7964 34.2214 52.1081 32.7899 52.3419 31.4265C53.4493 26.2699 55.1514 21.2456 57.1243 16.3496C57.4032 15.5155 58.1784 14.7898 59.134 14.886C61.3899 14.9782 63.0756 17.3079 62.6901 19.4412C64.9049 17.741 67.374 16.4017 69.9047 15.2148C72.2754 14.1281 74.7855 13.2059 77.4146 12.9934C78.7107 12.9132 80.1339 12.9733 81.2126 13.7673C82.2011 14.6013 82.6482 15.9045 82.6851 17.1556C82.7671 18.9439 82.1888 20.6682 81.5653 22.3282C85.7612 18.6191 90.2729 15.0985 95.5393 12.9533V12.9493Z" fill="#EB3300"/>
<path d="M168.272 12.0786C169.837 10.6838 172.149 10.7994 173.976 11.5366C173.768 12.0586 173.564 12.5727 173.356 13.0947C172.219 12.5846 170.704 12.2937 169.721 13.274C168.677 14.4336 168.626 16.3783 169.471 17.6694C170.087 18.5102 171.197 18.4066 172.103 18.3309L172.111 16.5736H170.534V14.9477H173.98C173.907 16.4739 174.127 18.0559 173.876 19.5503C172.458 20.0006 170.908 20.164 169.459 19.8013C168.16 19.4347 167.312 18.1635 167.108 16.8366C166.85 15.1988 166.988 13.2541 168.272 12.0825V12.0786Z" fill="#808184"/>
<path d="M183 11.0082C185.333 11.0082 187.662 11 190 11.0082V12.6737C189.187 12.6737 188.37 12.6737 187.558 12.6737C187.558 15.1185 187.558 17.5593 187.558 20C186.879 20 186.2 20 185.526 20C185.518 17.5552 185.526 15.1103 185.518 12.6655C184.68 12.6655 183.838 12.6655 183 12.6655V11V11.0082Z" fill="#808184"/>
<path d="M194.259 11.0081C195.074 11 195.893 11 196.707 11C197.805 13.9986 198.915 16.9973 200 20C199.261 20 198.527 20 197.792 19.9919C197.573 19.2849 197.353 18.5779 197.125 17.8709C196.028 17.8709 194.939 17.8709 193.849 17.8831C193.638 18.5901 193.419 19.293 193.199 20H191C192.051 16.9932 193.195 14.019 194.255 11.0122L194.259 11.0081ZM194.386 16.2212C195.133 16.2131 195.88 16.2131 196.627 16.2131C196.26 15.0348 195.867 13.8646 195.513 12.6822C195.124 13.8605 194.757 15.0388 194.386 16.2212Z" fill="#808184"/>
<path d="M151 11.0218C152.986 11.0954 155.333 10.5802 156.913 12.2117C158.569 14.203 158.37 18.0139 156.061 19.3673C154.505 20.2301 152.691 19.9439 151.004 19.9889C150.996 16.9999 151.004 14.0108 151.004 11.0178L151 11.0218ZM152.787 12.592C152.787 14.5097 152.787 16.4233 152.787 18.341C153.73 18.341 154.873 18.3983 155.513 17.511C156.242 16.3783 156.249 14.7714 155.628 13.5856C155.038 12.5511 153.776 12.6002 152.787 12.5961V12.592Z" fill="#808184"/>
<path d="M162.004 11.0041C162.669 11.0041 163.335 11.0041 164 11.0041C164 14.0014 164 17.0027 164 20C163.335 20 162.665 20 162 19.9918C162.012 16.9945 162 13.9973 162.008 11L162.004 11.0041Z" fill="#808184"/>
<path d="M178 11H180C180 14.0014 180 16.9986 180 20C179.333 20 178.671 20 178.008 20C178 16.9986 178.008 14.0014 178.008 11H178Z" fill="#808184"/>
<path d="M202.004 11H204.06C204.06 13.4426 204.06 15.8852 204.06 18.3238C205.371 18.3238 206.681 18.3238 207.991 18.3238C207.991 18.8811 207.991 19.4385 208 20H202C202 17 202 14.0041 202 11.0041L202.004 11Z" fill="#808184"/>
<path d="M163.272 25C164.084 25 164.895 25 165.707 25.0122C166.806 28.0068 167.897 30.9973 169 33.9919C168.26 33.9919 167.52 33.9919 166.785 33.9919C166.565 33.2961 166.345 32.5963 166.142 31.8965C165.043 31.8517 163.94 31.8558 162.845 31.8883C162.634 32.5922 162.414 33.288 162.194 33.9878C161.458 33.9878 160.731 33.9959 160 34C161.07 30.9932 162.177 27.9986 163.276 25.0041L163.272 25ZM164.489 26.6316C164.143 27.8318 163.754 29.0158 163.386 30.2039C164.134 30.2039 164.883 30.2039 165.631 30.212C165.246 29.0158 164.853 27.8278 164.489 26.6316Z" fill="#808184"/>
<path d="M151.004 26.023C152.819 26.1008 154.715 25.7734 156.465 26.3544C158.168 26.9068 158.202 29.5418 156.589 30.2251C158.502 30.892 158.421 33.7766 156.641 34.5458C154.865 35.2864 152.87 34.8731 151 34.9754C151 31.9926 151 29.0058 151 26.023H151.004ZM153.08 27.5819V29.5213C153.998 29.4968 155.744 29.7545 155.663 28.4084C155.341 27.3732 153.938 27.6965 153.08 27.5819ZM153.08 31.0802V33.3224C153.874 33.2733 154.753 33.4533 155.478 33.0483C155.933 32.68 155.916 31.9926 155.654 31.518C154.951 30.9288 153.934 31.1375 153.08 31.0802Z" fill="#808184"/>
<path d="M171.004 26H173.457C174.732 28.2011 176.027 30.394 177.297 32.5992C177.169 30.3981 177.264 28.197 177.235 26H178.992C179 28.9937 178.984 31.9832 179 34.9769C178.196 34.9892 177.388 35.0262 176.583 34.9687C175.156 32.8415 174.002 30.5295 172.661 28.3407C172.798 30.5542 172.76 32.7758 172.756 34.9933C172.171 34.9933 171.585 34.9933 171.004 34.9933C170.995 31.9956 171.004 29.0019 171.004 26.0041V26Z" fill="#808184"/>
<path d="M183 26.0246C183.615 26.0123 184.23 26.0041 184.845 26.0041C184.845 27.3414 184.845 28.6787 184.845 30.016C185.775 28.6212 186.819 27.3168 187.844 26C188.546 26.0082 189.251 26.0082 189.957 26.0164C188.971 27.3414 187.962 28.6541 186.969 29.979C187.978 31.6527 189.011 33.3099 190 35C189.279 34.9918 188.561 34.9877 187.848 34.9918C187.064 33.7571 186.35 32.4731 185.574 31.2343C185.337 31.4517 185.046 31.6117 184.876 31.8906C184.809 32.9202 184.868 33.9581 184.852 34.9918C184.242 34.9918 183.631 34.9918 183.02 34.9918C183.012 32.0014 183.039 29.015 183.008 26.0287L183 26.0246Z" fill="#808184"/>
</g>
<defs>
<clipPath id="clip0_8_1234">
<rect width="208" height="40" fill="white"/>
</clipPath>
</defs>
</svg>
