<svg width="40" height="40" viewBox="0 0 40 40" fill="none" xmlns="http://www.w3.org/2000/svg">
<g clip-path="url(#clip0_8_1212)">
<path d="M0 0H9.99922C10.0031 5.69766 9.99531 11.3953 10.0031 17.093C8.69141 17.2117 7.35078 17.2203 6.08359 17.6227C5.55625 17.7891 5.19297 18.3633 5.27188 18.9117C5.47656 19.9703 5.96563 21.1016 6.98438 21.6047C7.91641 22.0602 8.97734 22.1516 10 22.1586V40H0V0Z" fill="#563D82"/>
<path d="M9.99921 0H20V8.82031C19.0664 11.168 18.3555 13.5953 17.5367 15.9836C17.457 16.2352 17.2476 16.4727 16.9719 16.4984C14.6539 16.7508 12.3281 16.9219 10.0031 17.093C9.9953 11.3953 10.0031 5.69766 9.99921 0Z" fill="#2774AE"/>
<path d="M13.0516 21.9264C14.0812 21.8287 15.1094 21.7115 16.1383 21.6045C15.9625 22.7256 15.7688 23.8436 15.5719 24.9615C15.3367 26.474 15.307 28.0178 15.482 29.5389C15.5375 30.0834 15.707 30.6092 15.9109 31.1154C16.1406 31.6576 16.3867 32.2123 16.8062 32.6381C17.3437 33.1982 18.0781 33.5232 18.8227 33.7068C19.2047 33.8107 19.6039 33.849 20 33.8217V39.9998H10V22.1584C11.0211 22.1521 12.0359 22.0225 13.0516 21.9264Z" fill="#2774AE"/>
<path d="M20 0H30C30 5.23594 30.0008 10.4719 30 15.7078C28.0914 15.7648 26.1875 15.9047 24.2812 15.9984C23.8758 16.0125 23.4703 16.007 23.0656 16.0031C23.5211 14.5156 23.9719 13.0258 24.4336 11.5406C24.7758 10.6336 25.1297 9.73047 25.4547 8.81719C25.7336 8.10391 25.9586 7.33125 25.8555 6.55859C25.8078 6.21094 25.4844 5.99062 25.1594 5.93516C24.0828 5.72578 22.9047 5.82578 21.9531 6.40547C21.0414 6.94922 20.4117 7.85938 20 8.82031V0Z" fill="#EB3300"/>
<path d="M22.3594 20.9572C24.9297 20.608 27.507 20.2291 29.9984 19.4854C30.0023 26.3236 29.9984 33.1619 30 40.0002H20V33.8221C20.3008 33.7963 20.6477 33.7486 20.8414 33.4869C21.0383 33.2307 20.9797 32.8885 20.9148 32.5971C20.5102 30.7736 20.3922 28.8775 20.6641 27.026C20.9273 25.2752 21.2594 23.5354 21.5641 21.7916C21.607 21.59 21.6172 21.3697 21.7367 21.1947C21.882 21.0033 22.1422 20.9963 22.3594 20.9572Z" fill="#EB3300"/>
<path d="M30 0H40V40H30C29.9992 33.1617 30.0023 26.3234 29.9984 19.4852C30.625 19.3078 31.2453 19.1086 31.8617 18.8992C32.7 18.5898 33.4617 18.1125 34.2328 17.6672C34.5093 17.5219 34.6781 17.168 34.539 16.8719C34.3547 16.5148 34.0226 16.2219 33.6265 16.1273C33.0336 15.9773 32.4414 15.8125 31.8344 15.7266C31.2258 15.6375 30.6109 15.7 30 15.7078C30.0008 10.4719 30 5.23594 30 0Z" fill="#FF9425"/>
<path d="M21.9531 6.40524C22.9047 5.82555 24.0828 5.72555 25.1594 5.93493C25.4844 5.9904 25.8078 6.21071 25.8555 6.55837C25.9586 7.33102 25.7336 8.10368 25.4547 8.81696C25.1297 9.73024 24.7758 10.6334 24.4336 11.5404C23.9719 13.0256 23.5211 14.5154 23.0656 16.0029C23.4703 16.0068 23.8758 16.0123 24.2812 15.9982C26.1875 15.9045 28.0914 15.7646 30 15.7076C30.6109 15.6998 31.2258 15.6373 31.8344 15.7263C32.4414 15.8123 33.0336 15.9771 33.6266 16.1271C34.0227 16.2216 34.3547 16.5146 34.5391 16.8716C34.6781 17.1677 34.5094 17.5216 34.2328 17.667C33.4617 18.1123 32.7 18.5896 31.8617 18.899C31.2453 19.1084 30.625 19.3076 29.9984 19.4849C27.507 20.2287 24.9297 20.6076 22.3594 20.9568C22.1422 20.9959 21.882 21.0029 21.7367 21.1943C21.6172 21.3693 21.607 21.5896 21.5641 21.7912C21.2594 23.5349 20.9273 25.2748 20.6641 27.0256C20.3922 28.8771 20.5102 30.7732 20.9148 32.5966C20.9797 32.8881 21.0383 33.2302 20.8414 33.4865C20.6477 33.7482 20.3008 33.7959 20 33.8216C19.6039 33.849 19.2047 33.8107 18.8227 33.7068C18.0781 33.5232 17.3437 33.1982 16.8062 32.6381C16.3867 32.2123 16.1406 31.6576 15.9109 31.1154C15.707 30.6091 15.5375 30.0834 15.482 29.5388C15.307 28.0177 15.3367 26.474 15.5719 24.9615C15.7688 23.8435 15.9625 22.7256 16.1383 21.6045C15.1094 21.7115 14.0813 21.8287 13.0516 21.9263C12.0359 22.0224 11.0211 22.1521 10 22.1584C8.97734 22.1513 7.91641 22.0599 6.98438 21.6045C5.96562 21.1013 5.47656 19.9701 5.27188 18.9115C5.19297 18.3631 5.55625 17.7888 6.08359 17.6224C7.35078 17.2201 8.69141 17.2115 10.0031 17.0927C12.3281 16.9216 14.6539 16.7506 16.9719 16.4982C17.2477 16.4724 17.457 16.2349 17.5367 15.9834C18.3555 13.5951 19.0664 11.1677 20 8.82008C20.4117 7.85915 21.0414 6.94899 21.9531 6.40524Z" fill="white"/>
</g>
<defs>
<clipPath id="clip0_8_1212">
<rect width="40" height="40" fill="white"/>
</clipPath>
</defs>
</svg>
