<svg width="240" height="80" viewBox="0 0 240 80" fill="none" xmlns="http://www.w3.org/2000/svg">
<path d="M40.8656 20.6135C42.2155 19.9914 43.8256 19.7963 45.2567 20.2435C46.4115 20.764 46.0618 22.2643 45.7121 23.1994C44.3257 27.0051 42.9392 30.8148 41.8374 34.7099C45.8748 34.4131 49.9162 34.0227 53.9699 34.1488C55.3604 34.2504 56.8363 34.3318 58.0561 35.0799C58.7392 35.4702 58.7676 36.5477 58.1211 36.9827C56.5273 38.174 54.5757 38.727 52.7014 39.3165C48.5542 40.581 44.2443 41.138 39.9589 41.6544C38.8327 46.5822 37.5479 51.6889 38.4424 56.7631C38.5521 57.6983 39.0888 58.6741 38.6904 59.593C38.0317 60.085 37.1535 60.0321 36.381 59.9386C34.8847 59.715 33.3397 59.0726 32.4493 57.7877C31.4572 56.3891 31.014 54.6692 30.8717 52.9778C30.6644 49.4608 31.2946 45.9683 31.9695 42.5326C28.9364 42.8253 25.9073 43.1669 22.862 43.2848C21.0486 43.2645 18.9994 43.1466 17.6089 41.8251C16.7022 40.8005 16.0435 39.41 16.2427 38.0154C16.4785 36.9746 17.6617 36.6249 18.5887 36.5029C23.6182 36.0679 28.6558 35.7182 33.6853 35.2954C33.8967 34.9986 33.9658 34.6286 34.0797 34.2911C34.9579 31.2336 36.0028 28.2208 37.1087 25.2405C37.8203 23.362 38.9831 21.4958 40.8615 20.6176L40.8656 20.6135Z" fill="#563D82"/>
<path d="M65.6389 26.7164C66.5822 26.6432 67.6231 26.4074 68.6029 26.4603C69.1112 26.4847 69.7983 26.5457 70.0626 26.8343C70.2537 27.2003 70.1683 27.5459 70.1276 27.8996C70.0179 28.8632 69.5056 29.8065 69.1437 30.6888C68.3793 32.4127 66.2895 32.6811 64.6265 32.5835C63.8987 32.5144 62.9107 32.5916 62.496 31.8476C62.1585 30.5587 62.7969 29.2617 63.3417 28.1232C63.7564 27.2369 64.7241 26.8384 65.643 26.7246L65.6389 26.7164Z" fill="#2774AE"/>
<path d="M63.0368 34.2139C64.4354 34.0797 66.3586 33.6731 67.31 34.4741C67.8426 35.088 67.3629 36.0598 67.1758 36.7997C66.0577 40.2354 64.9071 43.6629 63.9719 47.1555C63.1384 50.3025 62.2073 53.4901 62.2195 56.7794C62.2358 57.6658 61.4836 58.3488 60.6745 58.5684C59.3653 58.9384 57.8772 58.9912 56.6208 58.4098C55.0921 57.5316 55.2141 55.5068 55.4458 54.0024C56.4135 48.3549 58.1211 42.8579 60.0118 37.4584C60.4997 36.0394 61.3535 34.3887 63.0327 34.222L63.0368 34.2139Z" fill="#2774AE"/>
<path d="M137.101 30.4649C140.841 29.8225 144.866 30.3023 148.176 32.2295C150.485 33.5753 152.295 35.8888 152.681 38.5723C153.266 42.6788 151.64 46.9357 148.733 49.8388C145.692 52.9004 141.516 54.6853 137.267 55.2098C134.425 55.592 131.441 55.1895 128.888 53.8518C126.444 52.6402 124.423 50.4771 123.651 47.8384C122.748 44.7849 123.321 41.4143 124.907 38.682C127.444 34.2787 132.132 31.3228 137.101 30.469V30.4649ZM138.499 36.2019C134.299 36.9296 131.091 41.0199 131.087 45.2281C131.047 46.5129 131.795 47.7733 132.957 48.3263C134.547 49.0866 136.413 49.0622 138.093 48.6434C141.166 47.879 144.098 45.6916 144.968 42.5405C145.501 40.8735 145.184 38.9179 143.935 37.6452C142.537 36.2506 140.398 35.8278 138.503 36.2059L138.499 36.2019Z" fill="#FF9425"/>
<path d="M111.075 32.5914C113.145 31.6685 115.596 31.2172 117.751 32.1198C119.227 32.6971 120.268 34.1527 120.414 35.7221C120.626 38.1291 119.935 40.4751 119.443 42.8049C118.829 45.9437 118.483 49.1964 118.983 52.3759C119.138 53.4493 119.638 54.478 119.56 55.5758C119.483 56.1938 118.768 56.3442 118.255 56.3808C115.808 56.5028 113.23 55.2058 112.209 52.9086C111.014 50.2861 111.425 47.3139 111.762 44.5532C111.766 43.7685 111.97 42.8496 111.457 42.1747C110.929 41.5241 110.018 41.9226 109.396 42.2113C103.464 45.3989 98.6579 50.2495 94.3033 55.3074C93.3438 56.3483 92.1728 57.7754 90.5708 57.3607C88.4972 56.9419 87.5946 54.6081 87.7207 52.6931C87.9118 49.0379 89.408 45.6144 90.022 42.0324C90.2659 41.268 89.5544 40.6459 88.8144 40.8411C86.6107 41.1867 84.6225 42.317 82.7644 43.4961C79.9508 45.342 77.6007 47.875 76.0069 50.839C75.0677 52.4613 74.405 54.2178 73.5755 55.8929C73.0917 56.8077 72.4168 57.873 71.2824 57.9787C69.778 58.1373 68.5379 56.8809 68.0947 55.5473C67.7125 54.1609 68.0215 52.7093 68.2533 51.3269C69.3511 46.0982 71.0384 41.0037 72.9941 36.0393C73.2706 35.1936 74.039 34.4577 74.9864 34.5552C77.2226 34.6488 78.8937 37.011 78.5115 39.1741C80.7071 37.4501 83.1547 36.0921 85.6633 34.8886C88.0134 33.7868 90.5017 32.8516 93.1079 32.6362C94.3928 32.5548 95.8036 32.6158 96.8729 33.4209C97.8528 34.2666 98.296 35.588 98.3326 36.8565C98.4139 38.6699 97.8406 40.4182 97.2226 42.1015C101.382 38.3406 105.854 34.7707 111.075 32.5955V32.5914Z" fill="#EB3300"/>
<path d="M184.208 31.6483C185.858 30.2253 188.298 30.3432 190.225 31.0954C190.006 31.628 189.79 32.1525 189.571 32.6851C188.371 32.1647 186.773 31.8679 185.736 32.8681C184.635 34.0512 184.582 36.0354 185.472 37.3527C186.123 38.2106 187.294 38.1049 188.249 38.0277L188.257 36.2346H186.594V34.5757H190.229C190.152 36.133 190.384 37.7471 190.12 39.2718C188.623 39.7313 186.989 39.898 185.46 39.528C184.09 39.1539 183.195 37.8569 182.98 36.503C182.707 34.8319 182.854 32.8478 184.208 31.6524V31.6483Z" fill="#808184"/>
<path d="M198.524 30.7049C200.788 30.7049 203.049 30.6968 205.318 30.7049V32.3557C204.529 32.3557 203.736 32.3557 202.947 32.3557C202.947 34.7789 202.947 37.1981 202.947 39.6173C202.289 39.6173 201.63 39.6173 200.975 39.6173C200.967 37.194 200.975 34.7708 200.967 32.3475C200.154 32.3475 199.337 32.3475 198.524 32.3475V30.6968V30.7049Z" fill="#808184"/>
<path d="M210.144 30.6317C210.929 30.6235 211.717 30.6235 212.502 30.6235C213.559 33.6241 214.629 36.6248 215.673 39.6294C214.962 39.6294 214.254 39.6294 213.547 39.6213C213.336 38.9138 213.124 38.2064 212.905 37.4989C211.847 37.4989 210.798 37.4989 209.749 37.5111C209.546 38.2186 209.335 38.922 209.123 39.6294H207.005C208.017 36.6207 209.119 33.6445 210.14 30.6357L210.144 30.6317ZM210.266 35.8482C210.986 35.84 211.705 35.84 212.425 35.84C212.071 34.6609 211.693 33.49 211.351 32.3068C210.977 33.4859 210.624 34.665 210.266 35.8482Z" fill="#808184"/>
<path d="M166.928 30.7048C169.034 30.778 171.522 30.2657 173.197 31.888C174.954 33.8681 174.742 37.6575 172.295 39.0033C170.644 39.8612 168.721 39.5765 166.932 39.6213C166.924 36.6491 166.932 33.677 166.932 30.7008L166.928 30.7048ZM168.822 32.2661C168.822 34.173 168.822 36.0758 168.822 37.9827C169.823 37.9827 171.034 38.0397 171.713 37.1574C172.486 36.0311 172.494 34.4332 171.835 33.2541C171.209 32.2255 169.871 32.2743 168.822 32.2702V32.2661Z" fill="#808184"/>
<path d="M177.593 30.7008C178.251 30.7008 178.91 30.7008 179.569 30.7008C179.569 33.673 179.569 36.6492 179.569 39.6214C178.91 39.6214 178.247 39.6214 177.589 39.6132C177.601 36.6411 177.588 33.6689 177.597 30.6968L177.593 30.7008Z" fill="#808184"/>
<path d="M193.783 30.7012H195.759C195.759 33.6774 195.759 36.6495 195.759 39.6258C195.1 39.6258 194.446 39.6258 193.791 39.6258C193.783 36.6495 193.791 33.6774 193.791 30.7012H193.783Z" fill="#808184"/>
<path d="M218.267 30.7012H220.162C220.162 33.1244 220.162 35.5477 220.162 37.9669C221.37 37.9669 222.577 37.9669 223.785 37.9669C223.785 38.5198 223.785 39.0728 223.793 39.6298H218.263C218.263 36.6536 218.263 33.6815 218.263 30.7052L218.267 30.7012Z" fill="#808184"/>
<path d="M178.772 45.4844C179.552 45.4844 180.333 45.4844 181.114 45.4966C182.171 48.4891 183.22 51.4775 184.281 54.4699C183.569 54.4699 182.858 54.4699 182.15 54.4699C181.939 53.7747 181.728 53.0753 181.532 52.376C180.475 52.3313 179.414 52.3354 178.361 52.3679C178.158 53.0713 177.946 53.7665 177.735 54.4659C177.027 54.4659 176.328 54.474 175.625 54.4781C176.653 51.4734 177.719 48.4809 178.776 45.4884L178.772 45.4844ZM179.943 47.1148C179.609 48.3142 179.235 49.4974 178.881 50.6846C179.601 50.6846 180.321 50.6846 181.04 50.6927C180.67 49.4974 180.292 48.3102 179.943 47.1148Z" fill="#808184"/>
<path d="M166.912 45.5697C168.631 45.647 170.429 45.3217 172.087 45.8991C173.702 46.448 173.734 49.0664 172.205 49.7454C174.019 50.4081 173.941 53.2746 172.254 54.039C170.571 54.7749 168.68 54.3642 166.907 54.4659C166.907 51.5018 166.907 48.5338 166.907 45.5697H166.912ZM168.879 47.1188V49.0461C169.75 49.0217 171.404 49.2778 171.327 47.9401C171.022 46.9115 169.693 47.2327 168.879 47.1188ZM168.879 50.5952V52.8233C169.632 52.7745 170.465 52.9534 171.152 52.5508C171.583 52.1849 171.567 51.5018 171.319 51.0302C170.652 50.4447 169.689 50.6521 168.879 50.5952Z" fill="#808184"/>
<path d="M186.842 45.5659H189.262C190.518 47.7452 191.795 49.9164 193.047 52.0998C192.921 49.9205 193.014 47.7412 192.986 45.5659H194.718C194.726 48.5299 194.71 51.4899 194.726 54.4539C193.933 54.4661 193.136 54.5027 192.344 54.4458C190.937 52.3397 189.798 50.0506 188.477 47.8835C188.611 50.075 188.574 52.2746 188.57 54.4702C187.993 54.4702 187.416 54.4702 186.842 54.4702C186.834 51.5021 186.842 48.5381 186.842 45.57V45.5659Z" fill="#808184"/>
<path d="M198.41 45.5854C199.044 45.5732 199.678 45.5651 200.313 45.5651C200.313 46.8906 200.313 48.216 200.313 49.5415C201.272 48.1591 202.35 46.8662 203.407 45.561C204.13 45.5692 204.858 45.5692 205.586 45.5773C204.57 46.8906 203.529 48.1917 202.504 49.5049C203.545 51.1638 204.61 52.8064 205.631 54.4815C204.887 54.4734 204.147 54.4694 203.411 54.4734C202.602 53.2496 201.866 51.977 201.065 50.7491C200.821 50.9646 200.52 51.1231 200.345 51.3996C200.276 52.4202 200.337 53.4488 200.321 54.4734C199.691 54.4734 199.06 54.4734 198.43 54.4734C198.422 51.5094 198.45 48.5494 198.418 45.5895L198.41 45.5854Z" fill="#808184"/>
</svg>
