<svg xmlns="http://www.w3.org/2000/svg" width="240" height="80" fill="none" viewBox="0 0 240 80"><path fill="url(#paint0_linear_13_12118)" d="M83.6747 20.0034C83.6747 20.0035 83.6774 20.0039 83.6779 20.0039H83.6935C83.6855 20.0034 83.6822 20.0038 83.6747 20.0034Z"/><path fill="url(#paint1_linear_13_12118)" d="M83.5344 20.0005C83.5674 19.9995 83.618 20 83.6747 20.0031C83.6163 19.9998 83.5681 19.9995 83.5344 20.0005Z"/><path fill="#5E2E86" fill-rule="evenodd" d="M112.5 23.547C109.378 23.5885 106.384 24.7457 106.384 24.7457V44.3014H110.232V36.6549C111.197 36.979 112.721 37.119 115.09 36.5616C120.392 35.3138 120.058 30.2091 120.058 30.2091C120.058 30.2091 120.42 26.4941 116.569 24.3956C115.366 23.7398 113.92 23.5282 112.5 23.547ZM129.274 23.6116C127.277 23.627 125.241 24.0577 123.776 24.5525V43.2406V43.2411C123.782 43.2437 129.025 45.5484 133.512 43.6256C138.002 41.7018 136.649 37.1947 136.649 37.1947C136.649 37.1947 135.919 34.4736 132.836 33.5392C132.836 33.5392 137.136 32.1651 135.865 27.3006C135.025 24.4538 132.192 23.5893 129.273 23.6116L129.274 23.6116ZM165.834 23.6178V44.2849H168.079V36.4964L175.057 44.2849H177.87L170.648 36.4523L177.897 28.7848H175.084L168.079 36.1442V23.6178L165.834 23.6178ZM89.442 23.6301V27.0975H94.1309V44.3034H97.9823V27.0975H102.642V23.6301L89.442 23.6301ZM129.728 25.5056C130.374 25.521 131.005 25.6243 131.539 25.8716C133.675 26.861 133.675 28.3998 133.675 28.3998C133.675 28.3998 134.46 32.3575 130.24 32.6598C127.965 32.8229 126.739 32.7853 126.075 32.7168V26.0885C126.73 25.8855 128.252 25.4702 129.728 25.5056ZM112.606 26.693C116.709 26.7497 116.067 30.89 116.067 30.89C116.067 30.89 115.816 33.4703 112.634 33.6689C111.522 33.7382 110.76 33.6678 110.232 33.5484V27.0109C110.868 26.809 111.645 26.6797 112.606 26.693ZM157.693 28.6746C157.693 28.6746 154.826 28.5646 152.256 29.9112V44.2849H154.582V31.4504C154.582 31.4504 157.044 30.0765 159.262 30.9284C161.48 31.7804 161.317 33.8965 161.344 34.0339V44.2849H163.643V33.4017C163.643 33.4017 163.968 28.7296 157.693 28.6746ZM144.846 28.7023C144.846 28.7023 141.519 28.6201 139.842 29.8569L140.491 31.4781C140.491 31.4781 143.656 29.829 146.333 30.8459C146.333 30.8459 148.118 31.3953 148.037 33.7314V34.5835C148.037 34.5835 140.578 34.2266 139.274 37.9915C137.921 41.8941 141.329 43.6805 141.329 43.6805C141.329 43.6805 142.202 44.3076 145.252 44.3167C146.708 44.3211 148.43 44.0793 150.174 43.2682V33.7591C150.174 33.7591 150.471 28.7023 144.846 28.7023ZM128.276 34.5379C130.311 34.524 132.823 34.8224 133.675 36.2601C135.032 38.5497 134.054 40.19 134.054 40.19C134.054 40.19 132.864 42.6913 129.077 42.3889C127.672 42.2767 126.72 42.1302 126.075 41.9906V34.6681C126.603 34.6108 127.366 34.5441 128.276 34.5379ZM148.037 36.2324V41.949C148.037 41.949 143.737 43.4608 141.87 41.482C140.004 39.5032 142.114 37.5244 142.114 37.5244C142.114 37.5244 143.304 36.2049 148.037 36.2324Z" clip-rule="evenodd"/><path fill="#5E2E86" d="M164.684 48.98C164.538 48.98 164.391 48.9967 164.244 49.0302C164.097 49.0638 163.981 49.0988 163.894 49.1353C163.861 49.1475 163.828 49.1659 163.795 49.1902C163.762 49.2146 163.741 49.2481 163.732 49.2907L163.691 49.4778C163.661 49.627 163.738 49.6726 163.92 49.6147C164.067 49.569 164.188 49.5371 164.284 49.5188C164.383 49.4975 164.496 49.487 164.622 49.487C164.748 49.487 164.804 49.5462 164.792 49.665L164.783 49.7106C164.768 49.7805 164.741 49.845 164.703 49.9029C164.667 49.9576 164.594 50.0351 164.487 50.1356L164.267 50.332C164.183 50.4081 164.114 50.4782 164.06 50.5422C164.006 50.6061 163.964 50.6716 163.934 50.7386C163.904 50.8025 163.88 50.88 163.862 50.9713L163.822 51.1631C163.813 51.2027 163.823 51.2425 163.853 51.282C163.883 51.3185 163.93 51.3364 163.993 51.3364H164.159C164.221 51.3364 164.276 51.3186 164.321 51.282C164.368 51.2455 164.397 51.2057 164.406 51.1631L164.446 50.9713C164.455 50.9256 164.469 50.8874 164.487 50.857C164.505 50.8236 164.523 50.7978 164.541 50.7796C164.559 50.7582 164.611 50.7065 164.698 50.6242L164.909 50.4279C165.032 50.3122 165.128 50.2148 165.197 50.1356C165.269 50.0564 165.321 49.9832 165.354 49.9162C165.39 49.8492 165.416 49.7811 165.431 49.7111L165.44 49.6655C165.491 49.428 165.444 49.2542 165.3 49.1446C165.16 49.035 164.954 48.98 164.684 48.98ZM111.808 50.8755C111.743 50.8755 111.705 50.8964 111.696 50.939C111.69 50.9634 111.697 50.988 111.718 51.0123L112.509 52.1905C112.533 52.2301 112.551 52.2589 112.563 52.2772C112.578 52.2954 112.595 52.3096 112.613 52.3187C112.634 52.3276 112.659 52.3321 112.689 52.3321H113.188C113.242 52.3321 113.273 52.3111 113.282 52.2685C113.291 52.2289 113.287 52.1965 113.269 52.1721L112.617 51.0124C112.56 50.921 112.493 50.8755 112.415 50.8755L111.808 50.8755ZM128.018 50.8755C127.967 50.8755 127.929 50.8824 127.902 50.898C127.875 50.9132 127.831 50.9514 127.771 51.0123L126.625 52.1726C126.595 52.197 126.576 52.229 126.567 52.2685C126.558 52.311 126.58 52.332 126.634 52.332H127.133C127.178 52.332 127.212 52.3251 127.236 52.3095C127.263 52.2912 127.31 52.2514 127.375 52.1905L128.666 51.0123C128.693 50.9879 128.709 50.9639 128.715 50.9395C128.724 50.897 128.694 50.8755 128.625 50.8755H128.018ZM146.873 50.8755C146.822 50.8755 146.783 50.8824 146.756 50.898C146.729 50.9132 146.684 50.9514 146.621 51.0123L145.493 52.1721C145.466 52.1965 145.448 52.2289 145.439 52.2685C145.43 52.311 145.453 52.332 145.507 52.332H145.988C146.029 52.332 146.064 52.3231 146.091 52.3049C146.121 52.2866 146.167 52.2484 146.23 52.1905L147.183 51.2861L147.749 52.1905C147.788 52.2515 147.817 52.2912 147.835 52.3095C147.853 52.3247 147.884 52.332 147.929 52.332H148.405C148.462 52.332 148.495 52.3111 148.504 52.2684C148.513 52.2289 148.508 52.1969 148.487 52.1726L147.853 51.0123C147.799 50.9209 147.733 50.8754 147.655 50.8754L146.873 50.8755ZM162.559 51.0123C162.508 51.0123 162.468 51.0202 162.442 51.0354C162.415 51.0506 162.37 51.0883 162.307 51.1492L161.179 52.3095C161.152 52.3339 161.134 52.3659 161.125 52.4054C161.116 52.4479 161.138 52.4689 161.192 52.4689H161.673C161.715 52.4689 161.75 52.46 161.777 52.4418C161.803 52.4235 161.85 52.3853 161.916 52.3274L162.869 51.4235L163.435 52.3274C163.474 52.3884 163.502 52.4281 163.52 52.4464C163.538 52.4616 163.57 52.4689 163.615 52.4689H164.091C164.148 52.4689 164.181 52.448 164.19 52.4054C164.199 52.3658 164.193 52.3338 164.172 52.3095L163.538 51.1492C163.485 51.0579 163.419 51.0123 163.341 51.0123L162.559 51.0123ZM150.287 51.0718C150.234 51.0718 150.186 51.0902 150.144 51.1267C150.102 51.1633 150.075 51.2072 150.063 51.259L149.905 52.0034C149.897 52.0552 149.906 52.0992 149.933 52.1357C149.963 52.1722 150.003 52.1905 150.054 52.1905H150.521C150.572 52.1905 150.619 52.1738 150.661 52.1403C150.706 52.1037 150.733 52.0581 150.742 52.0034L150.899 51.259C150.911 51.2011 150.903 51.1555 150.876 51.1221C150.852 51.0886 150.812 51.0718 150.755 51.0718H150.287ZM159.272 51.0718C159.218 51.0718 159.17 51.0902 159.129 51.1267C159.087 51.1633 159.06 51.2072 159.048 51.259L158.89 52.0034C158.881 52.0552 158.891 52.0992 158.918 52.1357C158.948 52.1722 158.988 52.1905 159.039 52.1905H159.506C159.557 52.1905 159.604 52.1738 159.646 52.1403C159.691 52.1037 159.717 52.0581 159.726 52.0034L159.884 51.259C159.896 51.2011 159.888 51.1555 159.861 51.1221C159.837 51.0886 159.797 51.0718 159.74 51.0718H159.272ZM120.722 51.1267C120.671 51.1267 120.625 51.145 120.583 51.1815C120.544 51.215 120.52 51.259 120.511 51.3138L119.118 57.9723C119.106 58.0241 119.113 58.0681 119.14 58.1046C119.17 58.1411 119.208 58.1595 119.253 58.1595H119.702C119.75 58.1595 119.796 58.1411 119.841 58.1046C119.886 58.0651 119.915 58.0211 119.927 57.9723L120.772 53.9307C120.969 53.8454 121.197 53.7815 121.455 53.7389C121.713 53.6933 121.925 53.6702 122.093 53.6702C122.414 53.6702 122.638 53.7618 122.767 53.9445C122.899 54.1272 122.919 54.4434 122.826 54.894L122.183 57.9723C122.171 58.0241 122.179 58.0681 122.206 58.1046C122.236 58.1411 122.276 58.1595 122.327 58.1595H122.767C122.812 58.1595 122.857 58.1411 122.902 58.1046C122.95 58.068 122.98 58.024 122.992 57.9723L123.635 54.894C123.724 54.4556 123.732 54.0902 123.657 53.7979C123.582 53.5026 123.434 53.2879 123.212 53.1539C122.991 53.0169 122.713 52.9488 122.381 52.9488C122.162 52.9488 121.921 52.9729 121.657 53.0216C121.397 53.0704 121.149 53.1437 120.915 53.2411L121.32 51.3138C121.329 51.259 121.321 51.215 121.297 51.1815C121.273 51.145 121.235 51.1267 121.181 51.1267H120.722ZM154.401 51.1267C154.35 51.1267 154.304 51.145 154.262 51.1815C154.223 51.215 154.199 51.259 154.19 51.3138L152.797 57.9723C152.785 58.0241 152.792 58.0681 152.819 58.1046C152.849 58.1411 152.886 58.1595 152.931 58.1595H153.381C153.429 58.1595 153.475 58.1411 153.52 58.1046C153.565 58.0651 153.594 58.0211 153.606 57.9723L154.451 53.9307C154.648 53.8454 154.876 53.7815 155.134 53.7389C155.392 53.6933 155.604 53.6702 155.772 53.6702C156.093 53.6702 156.317 53.7618 156.446 53.9445C156.578 54.1272 156.597 54.4434 156.504 54.894L155.862 57.9723C155.85 58.0241 155.857 58.0681 155.884 58.1046C155.914 58.1411 155.955 58.1595 156.006 58.1595H156.446C156.491 58.1595 156.536 58.1411 156.581 58.1046C156.629 58.068 156.659 58.024 156.671 57.9723L157.314 54.894C157.403 54.4556 157.411 54.0902 157.336 53.7979C157.261 53.5026 157.112 53.2879 156.891 53.1539C156.669 53.0169 156.392 52.9488 156.06 52.9488C155.841 52.9488 155.599 52.9729 155.336 53.0216C155.075 53.0704 154.828 53.1437 154.594 53.2411L154.999 51.3138C155.008 51.259 155 51.215 154.976 51.1815C154.952 51.145 154.913 51.1267 154.859 51.1267H154.401ZM172.956 51.1267C172.902 51.1267 172.857 51.145 172.822 51.1815C172.786 51.2181 172.762 51.2589 172.75 51.3046L171.384 57.8488C171.369 57.9188 171.369 57.9691 171.384 57.9995C171.401 58.027 171.451 58.0499 171.532 58.0682C172.047 58.1717 172.599 58.2235 173.186 58.2235C173.86 58.2235 174.405 58.0193 174.822 57.6114C175.241 57.2034 175.527 56.6374 175.68 55.9128L175.819 55.2411C175.897 54.8667 175.924 54.5378 175.9 54.2547C175.879 53.9716 175.804 53.7344 175.675 53.5425C175.55 53.3507 175.371 53.2041 175.141 53.1037C174.913 53.0002 174.63 52.9488 174.291 52.9488C174.106 52.9488 173.917 52.9558 173.725 52.9714C173.536 52.9867 173.359 53.0113 173.194 53.0447L173.559 51.3046C173.571 51.2559 173.563 51.215 173.536 51.1815C173.509 51.145 173.472 51.1267 173.424 51.1267L172.956 51.1267ZM106.573 51.2087C106.531 51.2087 106.489 51.2239 106.447 51.2543C106.408 51.2817 106.384 51.3199 106.375 51.3687C106.369 51.393 106.367 51.4114 106.37 51.4235L106.802 57.5155C106.835 57.9874 107.098 58.2235 107.593 58.2235C107.803 58.2235 108.003 58.1717 108.195 58.0682C108.39 57.9647 108.552 57.7804 108.681 57.5155L111.647 51.4235C111.656 51.4114 111.663 51.393 111.669 51.3687C111.69 51.2621 111.648 51.2087 111.544 51.2087H111C110.925 51.2087 110.863 51.2558 110.815 51.3502L107.957 57.3099C107.894 57.4408 107.822 57.5063 107.741 57.5063C107.654 57.5063 107.606 57.4408 107.597 57.3099L107.247 51.3502C107.244 51.3106 107.227 51.2771 107.197 51.2497C107.17 51.2223 107.14 51.2087 107.107 51.2087H106.573ZM143.135 51.8388L142.636 51.9116C142.525 51.9329 142.459 51.9958 142.438 52.0993L142.245 53.017H141.351C141.234 53.017 141.163 53.072 141.139 53.1816L141.085 53.4374C141.064 53.541 141.111 53.597 141.224 53.6061L142.101 53.7066L141.418 56.972C141.313 57.4622 141.339 57.7942 141.494 57.9677C141.65 58.1382 141.953 58.223 142.402 58.223C142.597 58.223 142.8 58.2078 143.013 58.1774C143.127 58.1622 143.193 58.1093 143.211 58.018L143.278 57.6934C143.296 57.6051 143.241 57.5611 143.112 57.5611H142.595C142.404 57.5611 142.281 57.5261 142.227 57.456C142.173 57.383 142.173 57.2217 142.227 56.972L142.91 53.7066H143.903C143.948 53.7066 143.993 53.6883 144.038 53.6518C144.086 53.6152 144.115 53.5712 144.124 53.5195L144.191 53.2042C144.203 53.1524 144.194 53.1084 144.164 53.0719C144.137 53.0354 144.098 53.017 144.047 53.017H143.054L143.265 51.9942C143.277 51.9485 143.273 51.9118 143.252 51.8845C143.234 51.854 143.203 51.8388 143.161 51.8388H143.135ZM118.032 52.9427C117.607 52.9427 117.226 53.0338 116.891 53.2165C116.558 53.3991 116.284 53.6609 116.068 54.0019C115.852 54.3399 115.695 54.7451 115.596 55.217L115.443 55.9476C115.369 56.3069 115.343 56.6237 115.367 56.8977C115.391 57.1717 115.464 57.4073 115.587 57.6052C115.713 57.8031 115.89 57.9555 116.118 58.062C116.345 58.1656 116.615 58.2174 116.926 58.2174C117.178 58.2174 117.419 58.1871 117.65 58.1261C117.881 58.0653 118.06 58.003 118.189 57.939C118.246 57.9115 118.287 57.8854 118.311 57.8611C118.335 57.8367 118.353 57.7974 118.365 57.7426L118.432 57.4048C118.459 57.2738 118.398 57.234 118.248 57.2858C117.819 57.4289 117.43 57.5006 117.079 57.5006C116.705 57.5006 116.445 57.3708 116.302 57.112C116.161 56.8502 116.144 56.4622 116.252 55.9476L116.405 55.217C116.621 54.1819 117.112 53.6641 117.879 53.6641C118.23 53.6641 118.589 53.7358 118.958 53.8789C119.09 53.9276 119.169 53.8868 119.196 53.7558L119.268 53.4221C119.277 53.3672 119.275 53.3295 119.263 53.3082C119.255 53.2838 119.226 53.2561 119.178 53.2257C119.082 53.1618 118.929 53.0995 118.72 53.0386C118.513 52.9746 118.284 52.9427 118.032 52.9427ZM162.54 52.9483C161.893 52.9483 161.35 53.1447 160.909 53.5374C160.469 53.9271 160.178 54.4601 160.037 55.136L159.858 55.981C159.744 56.532 159.747 56.975 159.867 57.3099C159.99 57.6418 160.193 57.8774 160.478 58.0174C160.762 58.1544 161.096 58.223 161.48 58.223C162.088 58.223 162.689 58.0801 163.282 57.7939C163.375 57.7452 163.429 57.6887 163.444 57.6247L163.525 57.2412C163.537 57.1834 163.527 57.1425 163.494 57.1182C163.461 57.0911 163.408 57.0925 163.336 57.1233C163.213 57.1689 163.051 57.2255 162.851 57.2925C162.65 57.3565 162.446 57.4083 162.24 57.4478C162.036 57.4874 161.832 57.5068 161.628 57.5068C161.191 57.5068 160.893 57.3884 160.734 57.151C160.578 56.9135 160.556 56.5234 160.666 55.9815L160.698 55.8492H163.781C163.898 55.8492 163.97 55.7806 163.997 55.6436L164.105 55.1365C164.194 54.6981 164.198 54.3128 164.114 53.9809C164.033 53.649 163.859 53.3951 163.592 53.2185C163.326 53.0389 162.975 52.9488 162.54 52.9488V52.9483ZM178.741 52.9483C178.442 52.9483 178.146 52.9834 177.856 53.0534C177.565 53.1204 177.342 53.1858 177.186 53.2498C177.093 53.2863 177.038 53.3424 177.02 53.4185L176.943 53.784C176.934 53.8358 176.946 53.874 176.979 53.8984C177.015 53.923 177.068 53.9244 177.137 53.9035C177.412 53.8243 177.653 53.7667 177.86 53.7302C178.07 53.6906 178.314 53.6707 178.593 53.6707C178.955 53.6707 179.193 53.7466 179.307 53.8989C179.424 54.0481 179.441 54.3177 179.357 54.7074L179.281 55.0817H178.597C178.061 55.0817 177.619 55.1366 177.271 55.2463C176.924 55.3528 176.654 55.5172 176.463 55.7395C176.271 55.9617 176.137 56.2481 176.062 56.5983L176.049 56.6803C175.935 57.2192 176.009 57.6119 176.269 57.8585C176.533 58.1021 177.023 58.2241 177.739 58.2241C178.048 58.2241 178.327 58.2057 178.579 58.1692C178.831 58.1327 179.084 58.0793 179.339 58.0092C179.435 57.9879 179.495 57.9193 179.519 57.8036L180.166 54.7069C180.412 53.5347 179.937 52.9488 178.741 52.9488V52.9483ZM131.908 52.9488C131.386 52.9488 130.733 53.0462 129.948 53.2411C129.828 53.2746 129.756 53.3489 129.732 53.4646L128.793 57.9723C128.781 58.0241 128.789 58.0681 128.815 58.1046C128.845 58.1411 128.883 58.1595 128.928 58.1595H129.378C129.426 58.1595 129.472 58.1411 129.517 58.1046C129.562 58.0651 129.59 58.0211 129.602 57.9723L130.469 53.821C130.907 53.7083 131.315 53.6523 131.692 53.6523C131.944 53.6523 132.14 53.6916 132.281 53.7707C132.422 53.8499 132.508 53.9808 132.541 54.1634C132.577 54.3461 132.562 54.5927 132.496 54.9033L131.858 57.9723C131.846 58.0241 131.854 58.0681 131.881 58.1046C131.911 58.1411 131.951 58.1595 132.002 58.1595H132.442C132.487 58.1595 132.533 58.1411 132.578 58.1046C132.626 58.068 132.655 58.0241 132.667 57.9723L133.306 54.9033C133.375 54.5745 133.404 54.2928 133.395 54.0583C133.386 53.8209 133.332 53.6203 133.234 53.4559C133.135 53.2915 132.974 53.1664 132.753 53.0811C132.534 52.9928 132.252 52.9488 131.908 52.9488ZM136.444 52.9488C135.986 52.9488 135.586 53.0326 135.244 53.2001C134.906 53.3645 134.625 53.6153 134.404 53.9532C134.185 54.2912 134.02 54.7205 133.909 55.2412L133.765 55.9261C133.445 57.4575 133.969 58.2236 135.339 58.2236C135.479 58.2236 135.659 58.2099 135.878 58.1825C136.097 58.1551 136.269 58.1257 136.395 58.0954L136.381 58.1595C136.318 58.4731 136.232 58.7134 136.121 58.8809C136.01 59.0513 135.864 59.1686 135.685 59.2326C135.508 59.2966 135.269 59.3284 134.97 59.3284C134.679 59.3284 134.451 59.3045 134.287 59.2556C134.122 59.2069 133.896 59.1216 133.608 58.9998C133.551 58.9724 133.5 58.9724 133.456 58.9998C133.411 59.0272 133.383 59.0686 133.374 59.1234L133.307 59.4335C133.289 59.5218 133.318 59.5935 133.392 59.6484C133.512 59.7306 133.701 59.8096 133.959 59.8858C134.219 59.9619 134.51 60.0001 134.83 60.0001C135.487 60.0001 136.01 59.8598 136.399 59.5797C136.789 59.3026 137.053 58.8293 137.19 58.1595L138.192 53.378C138.207 53.3079 138.204 53.2592 138.183 53.2319C138.165 53.2014 138.119 53.1789 138.044 53.1637C137.46 53.0206 136.926 52.9488 136.444 52.9488ZM146.815 52.9488C146.155 52.9488 145.607 53.1541 145.17 53.5651C144.732 53.9731 144.44 54.5286 144.293 55.2319L144.145 55.9446C143.998 56.6448 144.058 57.2004 144.324 57.6114C144.591 58.0194 145.054 58.2236 145.714 58.2236C146.376 58.2236 146.926 58.0194 147.363 57.6114C147.8 57.2004 148.093 56.6448 148.239 55.9446L148.388 55.2319C148.535 54.5286 148.474 53.9731 148.208 53.5651C147.941 53.1541 147.477 52.9488 146.815 52.9488ZM183.671 52.9488C183.15 52.9488 182.497 53.0462 181.712 53.2411C181.592 53.2746 181.52 53.3489 181.496 53.4646L180.557 57.9723C180.545 58.0241 180.552 58.0681 180.579 58.1046C180.609 58.1411 180.646 58.1595 180.691 58.1595H181.141C181.189 58.1595 181.235 58.1411 181.28 58.1046C181.325 58.0651 181.353 58.0211 181.365 57.9723L182.233 53.821C182.671 53.7083 183.078 53.6523 183.455 53.6523C183.707 53.6523 183.903 53.6916 184.044 53.7707C184.185 53.8499 184.272 53.9808 184.305 54.1634C184.341 54.3461 184.326 54.5927 184.26 54.9033L183.622 57.9723C183.61 58.0241 183.618 58.0681 183.645 58.1046C183.674 58.1411 183.715 58.1595 183.766 58.1595H184.206C184.251 58.1595 184.296 58.1411 184.341 58.1046C184.389 58.068 184.419 58.0241 184.431 57.9723L185.069 54.9033C185.138 54.5745 185.168 54.2928 185.159 54.0583C185.15 53.8209 185.096 53.6203 184.997 53.4559C184.898 53.2915 184.738 53.1664 184.516 53.0811C184.298 52.9928 184.016 52.9488 183.671 52.9488ZM112.325 53.017C112.274 53.017 112.226 53.0354 112.181 53.0719C112.139 53.1085 112.114 53.153 112.105 53.2047L111.107 57.9723C111.095 58.0241 111.104 58.0681 111.134 58.1046C111.167 58.1411 111.206 58.1595 111.251 58.1595H111.691C111.742 58.1595 111.789 58.1427 111.831 58.1092C111.876 58.0727 111.904 58.0272 111.916 57.9723L112.914 53.2047C112.926 53.1468 112.918 53.1008 112.891 53.0673C112.864 53.0338 112.823 53.017 112.766 53.017H112.325ZM125.097 53.017C125.043 53.017 124.995 53.0354 124.953 53.0719C124.911 53.1085 124.886 53.153 124.877 53.2047L124.234 56.2686V56.2691C124.144 56.6984 124.124 57.056 124.171 57.3422C124.219 57.6254 124.36 57.8432 124.594 57.9954C124.83 58.1477 125.175 58.2236 125.628 58.2236C126.161 58.2236 126.815 58.1277 127.591 57.9359C127.711 57.9025 127.783 57.8276 127.807 57.7119L128.751 53.2047C128.76 53.1529 128.751 53.1085 128.724 53.0719C128.7 53.0354 128.663 53.0176 128.612 53.0176H128.162C128.108 53.0176 128.06 53.037 128.018 53.0765C127.976 53.113 127.951 53.1559 127.942 53.2047L127.07 57.3556C126.887 57.4013 126.673 57.4411 126.427 57.4745C126.182 57.5079 125.988 57.5248 125.848 57.5248C125.47 57.5248 125.217 57.4305 125.088 57.2417C124.962 57.053 124.947 56.7284 125.043 56.2686L125.686 53.2047C125.695 53.1529 125.684 53.1085 125.654 53.0719C125.627 53.0354 125.588 53.017 125.537 53.017L125.097 53.017ZM149.887 53.017C149.836 53.017 149.788 53.0354 149.744 53.0719C149.702 53.1085 149.676 53.153 149.667 53.2047L148.67 57.9723C148.658 58.0241 148.667 58.0681 148.697 58.1046C148.73 58.1411 148.769 58.1595 148.814 58.1595H149.254C149.305 58.1595 149.351 58.1428 149.393 58.1092C149.438 58.0727 149.467 58.0272 149.479 57.9723L150.476 53.2047C150.488 53.1468 150.481 53.1008 150.454 53.0673C150.427 53.0338 150.385 53.017 150.328 53.017H149.887ZM158.873 53.017C158.822 53.017 158.774 53.0354 158.729 53.0719C158.687 53.1085 158.661 53.153 158.652 53.2047L157.655 57.9723C157.643 58.0241 157.651 58.0681 157.681 58.1046C157.714 58.1411 157.754 58.1595 157.798 58.1595H158.239C158.29 58.1595 158.336 58.1428 158.378 58.1092C158.423 58.0727 158.452 58.0272 158.464 57.9723L159.462 53.2047C159.474 53.1468 159.466 53.1008 159.439 53.0673C159.412 53.0338 159.37 53.017 159.313 53.017H158.873ZM165.505 53.017C165.451 53.017 165.403 53.0354 165.361 53.0719C165.319 53.1085 165.293 53.153 165.284 53.2047L164.641 56.2686V56.2691C164.552 56.6984 164.531 57.056 164.579 57.3422C164.627 57.6254 164.767 57.8432 165.001 57.9954C165.238 58.1476 165.583 58.2236 166.035 58.2236C166.568 58.2236 167.223 58.1278 167.999 57.9359C168.119 57.9025 168.191 57.8276 168.215 57.7119L169.158 53.2047C169.167 53.1529 169.159 53.1084 169.132 53.0719C169.108 53.0354 169.07 53.0176 169.019 53.0176H168.57C168.516 53.0176 168.468 53.037 168.426 53.0765C168.384 53.113 168.359 53.156 168.35 53.2047L167.478 57.3556C167.295 57.4013 167.081 57.441 166.835 57.4745C166.589 57.508 166.396 57.5248 166.255 57.5248C165.878 57.5248 165.625 57.4305 165.496 57.2417C165.37 57.053 165.355 56.7284 165.451 56.2686L166.094 53.2047C166.103 53.1529 166.092 53.1084 166.062 53.0719C166.035 53.0354 165.996 53.017 165.945 53.017L165.505 53.017ZM136.3 53.6431C136.624 53.6431 136.959 53.6766 137.307 53.7435L136.534 57.4289C136.39 57.4593 136.216 57.4851 136.013 57.5063C135.809 57.5245 135.634 57.534 135.487 57.534C135.205 57.534 134.983 57.4822 134.821 57.3786C134.66 57.2751 134.558 57.106 134.516 56.8716C134.474 56.6371 134.494 56.3219 134.575 55.9261L134.718 55.2412C134.778 54.9519 134.852 54.7069 134.938 54.5059C135.028 54.305 135.133 54.1406 135.253 54.0127C135.376 53.8849 135.524 53.7922 135.698 53.7343C135.872 53.6734 136.073 53.6431 136.3 53.6431ZM146.666 53.6702C146.948 53.6702 147.166 53.7325 147.322 53.8574C147.481 53.9822 147.58 54.1618 147.619 54.3962C147.661 54.6276 147.647 54.9062 147.578 55.2319L147.43 55.9446C147.325 56.4439 147.141 56.8293 146.878 57.1002C146.617 57.3712 146.278 57.5063 145.862 57.5063C145.038 57.5063 144.735 56.9858 144.954 55.9446L145.102 55.2319C145.207 54.7357 145.39 54.3524 145.65 54.0814C145.911 53.8074 146.25 53.6702 146.666 53.6702ZM162.388 53.6702C162.661 53.6702 162.875 53.7189 163.03 53.8163C163.186 53.9138 163.285 54.0719 163.327 54.2911C163.372 54.5103 163.359 54.792 163.287 55.1361L163.269 55.2232H160.828L160.846 55.1361C161.05 54.1587 161.564 53.6702 162.388 53.6702ZM174.138 53.6702C174.573 53.6702 174.855 53.7996 174.984 54.0583C175.112 54.3171 175.121 54.7114 175.01 55.2412L174.871 55.9128C174.76 56.4486 174.587 56.8487 174.35 57.1136C174.113 57.3754 173.776 57.5063 173.339 57.5063C173.072 57.5063 172.718 57.4863 172.278 57.4468L173.051 53.7343C173.293 53.6918 173.656 53.6702 174.138 53.6702ZM178.472 55.6795H179.155L178.777 57.4976C178.717 57.5127 178.639 57.5265 178.543 57.5386C178.45 57.5508 178.346 57.5618 178.229 57.5709C178.115 57.5768 177.997 57.5796 177.874 57.5796C177.562 57.5796 177.324 57.5493 177.159 57.4883C176.998 57.4274 176.897 57.3316 176.858 57.2007C176.819 57.0668 176.822 56.8898 176.867 56.6706L176.885 56.5885C176.921 56.415 176.972 56.2736 177.038 56.164C177.107 56.0514 177.199 55.9582 177.316 55.8851C177.436 55.812 177.586 55.7602 177.766 55.7298C177.946 55.6963 178.181 55.6795 178.472 55.6795ZM177.334 58.5568C177.289 58.5568 177.243 58.5767 177.195 58.6163C177.15 58.6559 177.123 58.6984 177.114 58.744L176.952 59.5023C176.943 59.554 176.954 59.5964 176.984 59.6299C177.017 59.6634 177.056 59.6802 177.101 59.6802H177.461C177.511 59.6802 177.558 59.6634 177.6 59.6299C177.645 59.5964 177.672 59.554 177.681 59.5023L177.842 58.744C177.851 58.6983 177.841 58.6559 177.811 58.6163C177.784 58.5767 177.745 58.5568 177.694 58.5568H177.334Z"/><path fill="url(#paint2_linear_13_12118)" d="M83.5344 20.0007C83.4973 20.0019 83.4769 20.0038 83.4769 20.0038H57.205L81.386 30.5696L85.3433 23.6024C85.7697 22.6926 85.7815 21.8118 85.5361 21.3306C84.8777 20.0398 83.7948 19.9924 83.5344 20.0007Z"/><path fill="url(#paint3_linear_13_12118)" d="M83.5344 20.0007C83.4972 20.002 83.4769 20.0038 83.4769 20.0038H83.6929C83.6257 19.9992 83.5716 19.9996 83.5344 20.0007ZM85.4114 23.4379L64.3714 39.6328L68.5114 46.8778C68.5114 46.8778 68.9874 47.8442 70.3046 47.8442C71.6219 47.8442 72.2074 46.7291 72.2074 46.7291L85.3433 23.6025C85.3692 23.5473 85.3886 23.4928 85.4114 23.4379Z"/><path fill="url(#paint4_linear_13_12118)" d="M65.5506 23.6508L57.205 20.0039C57.205 20.0039 55.4856 20.0042 54.9733 21.4836C54.5277 22.7703 55.3391 23.8261 55.3391 23.8261L68.5053 46.8671L65.5506 23.6508Z"/><defs><linearGradient id="paint0_linear_13_12118" x1="56.527" x2="85.782" y1="25.37" y2="25.37" gradientUnits="userSpaceOnUse"><stop stop-color="#FBB413" stop-opacity=".784"/><stop offset="1" stop-color="#DF5F27"/></linearGradient><linearGradient id="paint1_linear_13_12118" x1="57.193" x2="85.73" y1="25.227" y2="25.227" gradientUnits="userSpaceOnUse"><stop stop-color="#FBB413" stop-opacity=".784"/><stop offset="1" stop-color="#DF5F27"/></linearGradient><linearGradient id="paint2_linear_13_12118" x1="57.205" x2="81.449" y1="20.004" y2="24.782" gradientUnits="userSpaceOnUse"><stop stop-color="#FBB413"/><stop offset="1" stop-color="#DE5D27"/></linearGradient><linearGradient id="paint3_linear_13_12118" x1="85.23" x2="67.702" y1="32.791" y2="40.828" gradientUnits="userSpaceOnUse"><stop stop-color="#FBB413"/><stop offset="1" stop-color="#DE5D27"/></linearGradient><linearGradient id="paint4_linear_13_12118" x1="56.63" x2="61.502" y1="43.021" y2="22.2" gradientUnits="userSpaceOnUse"><stop stop-color="#FBB413"/><stop offset="1" stop-color="#DE5D27"/></linearGradient></defs></svg>