<svg width="40" height="40" viewBox="0 0 40 40" fill="none" xmlns="http://www.w3.org/2000/svg">
<path fill-rule="evenodd" clip-rule="evenodd" d="M1.95894 16.1726L1.21934 16.5841L1.20854 17.4301L1.19775 18.2761H0.598875H0V18.9757V19.6753H0.599674H1.19935L1.19959 21.4244C1.20003 24.8365 1.52177 25.3497 3.72798 25.4576L4.27768 25.4845V24.7187V23.953H3.96625C2.83158 23.953 2.76142 23.7886 2.75954 21.1245L2.7585 19.6753H3.51809H4.27768V18.9757V18.2761H3.51809H2.7585V17.0168C2.7585 16.3241 2.74499 15.7583 2.72852 15.7593C2.71205 15.7603 2.36572 15.9463 1.95894 16.1726ZM20.2904 18.1607C19.6717 18.2508 19.2079 18.4928 18.7214 18.9792L18.3532 19.3474L17.9818 18.977C16.9264 17.9244 15.2838 17.8627 14.2219 18.8358L13.9524 19.0827V18.6794V18.2761H13.1728H12.3933V21.8741V25.4722H13.171H13.9488L13.9614 23.1634C13.9757 20.5691 13.9656 20.66 14.2938 20.165C14.943 19.186 16.5872 19.283 17.0729 20.3289C17.2489 20.7079 17.2706 21.0407 17.2706 23.3623V25.4722H18.0502H18.8298L18.8305 23.3033C18.8312 20.9285 18.8407 20.8084 19.0629 20.3684C19.6191 19.2665 21.3438 19.2085 21.9227 20.2722C22.1349 20.6621 22.1465 20.8154 22.1473 23.2434L22.148 25.4722H22.9475H23.7471L23.7469 23.1834C23.7466 20.6519 23.7268 20.3703 23.5092 19.8073C23.0454 18.6073 21.7552 17.9473 20.2904 18.1607ZM27.523 18.1569C24.1446 18.5819 23.1348 23.0288 25.9804 24.9497C27.9328 26.2677 30.8841 25.3017 31.5603 23.1234L31.5883 23.0335H30.7483H29.9084L29.7824 23.2701C28.9531 24.8258 26.4603 24.5011 25.861 22.7593C25.7204 22.3507 25.3798 22.3938 28.7444 22.3938H31.7028V21.8815C31.7028 19.5168 29.8485 17.8644 27.523 18.1569ZM4.63748 18.2969C4.63748 18.3083 5.29413 19.8288 6.09669 21.6759C6.89925 23.5229 7.5559 25.0579 7.5559 25.0871C7.5559 25.1162 7.24107 25.9007 6.85628 26.8303C6.47149 27.7599 6.15666 28.5276 6.15666 28.5363C6.15666 28.545 6.5187 28.5473 6.96114 28.5413L7.76566 28.5305L9.83982 23.4932C10.9806 20.7227 11.9248 18.4155 11.9381 18.366L11.9622 18.2761H11.1412H10.3202L10.2003 18.5859C9.95164 19.2282 8.38805 23.1739 8.37817 23.1838C8.37249 23.1896 7.90371 22.0877 7.33638 20.7352L6.30486 18.2761H5.47119C5.01264 18.2761 4.63748 18.2854 4.63748 18.2969ZM27.8449 19.5603C27.0019 19.626 26.1371 20.2719 25.9646 20.9646L25.9372 21.0746H28.0205C29.6849 21.0746 30.1037 21.0643 30.1037 21.0235C30.1037 20.252 28.9077 19.4773 27.8449 19.5603Z" fill="black"/>
<path d="M35.003 14.8576L36.9317 12.9288C37.9926 11.868 38.8783 11 38.8783 11C38.9305 11 40 12.0466 40 12.0987C40 12.1209 39.132 13.0072 38.0712 14.0682L36.1424 15.9973L38.0712 17.9264C39.132 18.9874 40 19.8737 40 19.8959C40 19.9478 38.9523 20.9946 38.9003 20.9946C38.8787 20.9946 38.2358 20.3695 37.4716 19.6055L36.0821 18.2165V17.1371V16.0576L34.443 17.6964L32.8039 19.3351L32.2345 18.7657L31.665 18.1962L32.7639 17.0967L33.8628 15.9973L32.7639 14.8978L31.665 13.7984L32.2344 13.229L32.8038 12.6595L33.9034 13.7586L35.003 14.8576Z" fill="#8ABBC2"/>
</svg>
