<svg width="40" height="40" viewBox="0 0 40 40" fill="none" xmlns="http://www.w3.org/2000/svg">
<path d="M27.487 0L1 5.48696V9.91304L25.2348 5.68696L39.1826 10.9043V7.65217L27.487 0Z" fill="url(#paint0_linear_20_5938)"/>
<path d="M1 11.5649V16.1649L21.887 14.3997L39.1826 16.3041V12.2345L24.3913 7.97363L1 11.5649Z" fill="url(#paint1_linear_20_5938)"/>
<path d="M1 17.6697V22.3827L17.9739 23.574L39.1826 22.5219V17.7219L20.913 16.5566L1 17.6697Z" fill="url(#paint2_linear_20_5938)"/>
<path d="M1 27.7046L14.5913 32.1133L39.1826 28.6264V23.9742L17.0174 25.6872L1 23.8003V27.7046Z" fill="url(#paint3_linear_20_5938)"/>
<path d="M1 32.165L11.4783 39.9998L39.1826 34.8084V30.3302L13.687 34.3998L1 29.1128V32.165Z" fill="url(#paint4_linear_20_5938)"/>
<defs>
<linearGradient id="paint0_linear_20_5938" x1="38.1826" y1="13.6696" x2="2.72174" y2="0.756521" gradientUnits="userSpaceOnUse">
<stop offset="0.4" stop-color="#FFC425"/>
<stop offset="0.68" stop-color="#AA8E40"/>
<stop offset="0.9" stop-color="#6F6854"/>
<stop offset="1" stop-color="#58595B"/>
</linearGradient>
<linearGradient id="paint1_linear_20_5938" x1="37.6261" y1="20.5823" x2="2.38261" y2="7.75624" gradientUnits="userSpaceOnUse">
<stop offset="0.45" stop-color="#FFC425"/>
<stop offset="0.71" stop-color="#AA8E40"/>
<stop offset="0.91" stop-color="#6F6854"/>
<stop offset="1" stop-color="#58595B"/>
</linearGradient>
<linearGradient id="paint2_linear_20_5938" x1="37.7478" y1="26.4784" x2="2.46956" y2="13.6349" gradientUnits="userSpaceOnUse">
<stop offset="0.52" stop-color="#FFC425"/>
<stop offset="0.74" stop-color="#AA8E40"/>
<stop offset="0.92" stop-color="#6F6854"/>
<stop offset="1" stop-color="#58595B"/>
</linearGradient>
<linearGradient id="paint3_linear_20_5938" x1="37.8435" y1="32.3046" x2="2.57391" y2="19.4699" gradientUnits="userSpaceOnUse">
<stop offset="0.6" stop-color="#FFC425"/>
<stop offset="0.79" stop-color="#AA8E40"/>
<stop offset="0.93" stop-color="#6F6854"/>
<stop offset="1" stop-color="#58595B"/>
</linearGradient>
<linearGradient id="paint4_linear_20_5938" x1="37.4522" y1="39.5737" x2="1.90435" y2="26.6345" gradientUnits="userSpaceOnUse">
<stop offset="0.65" stop-color="#FFC425"/>
<stop offset="0.81" stop-color="#AA8E40"/>
<stop offset="0.94" stop-color="#6F6854"/>
<stop offset="1" stop-color="#58595B"/>
</linearGradient>
</defs>
</svg>
