<svg width="240" height="80" viewBox="0 0 240 80" fill="none" xmlns="http://www.w3.org/2000/svg">
<path fill-rule="evenodd" clip-rule="evenodd" d="M78.4647 31.7892L76.779 32.7271L76.7544 34.6552L76.7298 36.5833H75.3649H74V38.1778V39.7724H75.3667H76.7335L76.734 43.7587C76.735 51.5354 77.4683 52.705 82.4966 52.951L83.7494 53.0123V51.267V49.5218H83.0396C80.4536 49.5218 80.2937 49.147 80.2894 43.0753L80.287 39.7724H82.0182H83.7494V38.1778V36.5833H82.0182H80.287V33.7131C80.287 32.1346 80.2562 30.8449 80.2187 30.8472C80.1811 30.8495 79.3918 31.2734 78.4647 31.7892ZM120.245 36.3202C118.835 36.5256 117.777 37.0771 116.669 38.1858L115.83 39.0249L114.983 38.1807C112.578 35.7818 108.834 35.6412 106.414 37.859L105.8 38.4218V37.5026V36.5833H104.023H102.246V44.7838V52.9842H104.019H105.791L105.82 47.7223C105.852 41.8095 105.83 42.0166 106.578 40.8884C108.057 38.6572 111.804 38.8783 112.912 41.262C113.313 42.1258 113.362 42.8843 113.362 48.1755V52.9842H115.139H116.916L116.917 48.0412C116.919 42.6286 116.941 42.3549 117.447 41.352C118.715 38.8406 122.645 38.7084 123.965 41.1328C124.449 42.0215 124.475 42.3708 124.477 47.9045L124.478 52.9842H126.301H128.123L128.122 47.7678C128.122 41.9982 128.077 41.3562 127.581 40.0731C126.524 37.3383 123.583 35.8339 120.245 36.3202ZM136.729 36.3118C129.029 37.2804 126.727 47.4154 133.213 51.7935C137.663 54.7973 144.389 52.5957 145.93 47.6311L145.994 47.4261H144.08H142.166L141.878 47.9653C139.988 51.5111 134.307 50.7711 132.941 46.8012C132.621 45.8699 131.844 45.9683 139.513 45.9683H146.255V44.8005C146.255 39.411 142.029 35.6451 136.729 36.3118ZM84.5695 36.6307C84.5695 36.6567 86.0661 40.1223 87.8952 44.3319C89.7244 48.5416 91.221 52.0401 91.221 52.1065C91.221 52.1729 90.5034 53.9608 89.6264 56.0796C88.7494 58.1983 88.0319 59.948 88.0319 59.9679C88.0319 59.9877 88.857 59.9929 89.8654 59.9793L91.699 59.9546L96.4263 48.474C99.0264 42.1596 101.178 36.9011 101.209 36.7883L101.264 36.5833H99.3923H97.5212L97.2478 37.2894C96.6812 38.7533 93.1175 47.746 93.095 47.7688C93.0821 47.7819 92.0137 45.2706 90.7206 42.1879L88.3697 36.5833H86.4696C85.4245 36.5833 84.5695 36.6046 84.5695 36.6307ZM137.462 39.5101C135.541 39.66 133.57 41.1322 133.177 42.7109L133.115 42.9614H137.863C141.656 42.9614 142.61 42.938 142.61 42.845C142.61 41.0867 139.885 39.3211 137.462 39.5101Z" fill="black"/>
<path d="M153.777 28.792L158.173 24.396C160.59 21.9782 162.609 20 162.609 20C162.728 20 165.166 22.3852 165.166 22.5041C165.166 22.5547 163.187 24.5747 160.77 26.9928L156.374 31.3895L160.77 35.7862C163.187 38.2044 165.166 40.2243 165.166 40.275C165.166 40.3933 162.778 42.779 162.659 42.779C162.61 42.779 161.145 41.3544 159.403 39.6132L156.236 36.4475V33.9872V31.527L152.5 35.262L148.765 38.9969L147.467 37.699L146.169 36.4011L148.674 33.8953L151.178 31.3895L148.674 28.8837L146.169 26.378L147.467 25.0801L148.765 23.7823L151.271 26.2872L153.777 28.792Z" fill="#8ABBC2"/>
</svg>
