<svg width="163" height="40" viewBox="0 0 163 40" fill="none" xmlns="http://www.w3.org/2000/svg">
<g clip-path="url(#clip0_20_5858)">
<path d="M61 10H46V13.6978H51.4924V30H55.5161V13.6978H61V10Z" fill="black"/>
<path d="M64.1311 25.6665H64.0786L60.9938 16.0341H57L61.7803 29.2328C61.8841 29.5059 61.9374 29.7948 61.9376 30.086C61.9415 30.4928 61.8197 30.8912 61.588 31.2293C61.4609 31.4019 61.2963 31.545 61.1059 31.6483C60.9156 31.7515 60.7042 31.8124 60.4869 31.8265C60.1174 31.852 59.7465 31.852 59.377 31.8265L58.2934 31.7156V34.898L59.4469 34.9918C59.8227 34.9918 60.2072 34.9918 60.5918 34.9918C61.6496 35.0503 62.7008 34.7944 63.6067 34.2581C64.4191 33.6357 65.0093 32.7787 65.2934 31.8095L71 16H67.1198L64.1311 25.6665Z" fill="black"/>
<path d="M91.6026 17.1721C91.1436 16.7592 90.5977 16.4559 90.0058 16.2851C89.3468 16.0918 88.6632 15.9961 87.9767 16.0013C87.0913 15.9796 86.2214 16.237 85.4889 16.7374C84.8249 17.1867 84.2579 17.7659 83.8215 18.4404C83.5278 17.6249 82.9429 16.9484 82.1806 16.5423C81.4389 16.1793 80.6236 15.9941 79.7987 16.0013C78.9511 15.987 78.1155 16.2047 77.3814 16.631C76.6664 17.0792 76.0629 17.6861 75.617 18.405H75.5288V16.3738H72V31H75.7847V22.5117C75.7556 21.9055 75.8579 21.3002 76.0846 20.7377C76.2391 20.3479 76.4805 19.9989 76.7904 19.7177C77.0478 19.4976 77.3483 19.3344 77.6726 19.2387C77.9019 19.1687 78.1389 19.127 78.3783 19.1145C78.8583 19.0825 79.3371 19.1935 79.7546 19.4339C80.067 19.6494 80.3021 19.9605 80.425 20.3208C80.56 20.6968 80.6344 21.0921 80.6456 21.4916C80.6456 21.9174 80.6456 22.3786 80.6456 22.7777V30.9823H84.4303V22.8487C84.4315 22.4005 84.4639 21.953 84.5273 21.5094C84.5801 21.0943 84.7056 20.6919 84.8978 20.3208C85.0789 19.9646 85.3458 19.6597 85.6742 19.4339C86.0638 19.2046 86.5112 19.0937 86.9622 19.1145C87.4036 19.0888 87.8435 19.187 88.2326 19.3984C88.5361 19.5788 88.7813 19.8437 88.9383 20.1612C89.1066 20.5143 89.2054 20.8968 89.2294 21.2876C89.2647 21.7252 89.2824 22.1864 89.2824 22.6713V30.9645H92.9965V21.2078C93.0227 20.386 92.9032 19.5661 92.6436 18.7864C92.4295 18.1725 92.0726 17.619 91.6026 17.1721Z" fill="black"/>
<path d="M106.477 18.5946C105.887 17.7714 105.093 17.1032 104.168 16.6504C103.242 16.1977 102.214 15.9749 101.176 16.0022C100.171 15.9913 99.1766 16.1918 98.2609 16.5898C97.4001 16.9574 96.6298 17.4964 96.0007 18.1712C95.3449 18.8615 94.8414 19.6729 94.5207 20.5562C94.1661 21.5096 93.9899 22.5161 94.0005 23.5288C93.9894 24.5598 94.1592 25.5853 94.5028 26.5619C94.8074 27.4358 95.2925 28.2412 95.9289 28.9296C96.5495 29.597 97.3193 30.12 98.1802 30.4591C99.1259 30.8268 100.138 31.009 101.158 30.9948C102.618 31.0498 104.06 30.6663 105.284 29.8974C106.527 28.9885 107.408 27.6946 107.777 26.2335H104.387C104.201 26.7494 103.841 27.1905 103.364 27.4865C102.685 27.9078 101.883 28.1091 101.077 28.0609C100.27 28.0127 99.5002 27.7176 98.8798 27.2186C98.2247 26.4421 97.8866 25.4618 97.929 24.462H107.975C108.049 23.4008 107.959 22.3347 107.706 21.2993C107.472 20.3325 107.056 19.4155 106.477 18.5946ZM97.8663 21.982C97.8939 21.666 97.954 21.3534 98.0456 21.0487C98.1498 20.6895 98.3233 20.3524 98.5569 20.055C98.8238 19.7314 99.1565 19.4638 99.5345 19.2686C100.012 19.0455 100.538 18.9387 101.068 18.9575C101.455 18.9284 101.844 18.9823 102.207 19.1152C102.57 19.2482 102.898 19.457 103.167 19.7266C103.688 20.3838 104.019 21.1619 104.127 21.982H97.8663Z" fill="black"/>
<path d="M119.912 19.4418V19.3803C120.401 19.2754 120.864 19.0754 121.274 18.7919C121.689 18.5145 122.053 18.17 122.351 17.773C122.649 17.3632 122.881 16.9097 123.036 16.4292C123.197 15.9353 123.278 15.4197 123.277 14.901C123.305 14.0929 123.131 13.2905 122.769 12.5647C122.446 11.9598 121.979 11.4414 121.408 11.054C120.817 10.655 120.151 10.3772 119.449 10.2372C118.683 10.077 117.901 9.99752 117.117 10.0001H109V29.999H117.117C118.017 30.0113 118.914 29.911 119.788 29.7004C120.447 29.5391 121.08 29.2847 121.666 28.945C122.145 28.6704 122.563 28.303 122.894 27.8647C123.183 27.4827 123.417 27.063 123.588 26.6175C123.751 26.2231 123.861 25.8099 123.918 25.3879C123.968 25.0299 123.995 24.669 123.998 24.3076C124.033 23.1185 123.643 21.9553 122.894 21.0227C122.15 20.1288 121.078 19.5607 119.912 19.4418ZM110.78 11.6249H117.073C119.969 11.6249 121.414 12.875 121.408 15.3753C121.41 15.8278 121.319 16.276 121.141 16.6927C120.954 17.1071 120.678 17.4759 120.331 17.773C119.936 18.1014 119.479 18.3492 118.987 18.502C118.367 18.6891 117.721 18.778 117.073 18.7655H110.78V11.6249ZM121.728 26.2574C121.491 26.7815 121.116 27.2333 120.642 27.5661C120.156 27.8909 119.608 28.115 119.031 28.2248C118.392 28.3504 117.742 28.4122 117.091 28.4093H110.78V20.3904H117.073C118.397 20.3095 119.713 20.648 120.829 21.3565C121.268 21.6991 121.616 22.1421 121.842 22.6471C122.069 23.1521 122.167 23.704 122.129 24.2549C122.157 24.9424 122.026 25.6273 121.746 26.2574H121.728Z" fill="black"/>
<path d="M135.591 28.1284V20.5818C135.622 19.7805 135.476 18.9825 135.166 18.2478C134.914 17.6959 134.533 17.2177 134.058 16.8561C133.597 16.524 133.075 16.2945 132.524 16.1818C131.959 16.0616 131.384 16.0008 130.807 16.0003C130.112 15.9939 129.419 16.087 128.748 16.2769C128.142 16.4461 127.575 16.7401 127.081 17.1414C126.606 17.5399 126.229 18.0494 125.981 18.6282C125.698 19.3098 125.537 20.0392 125.506 20.7806H127.09C127.064 20.3083 127.141 19.8361 127.316 19.3991C127.491 18.9621 127.758 18.5715 128.098 18.2565C128.82 17.7057 129.704 17.4309 130.599 17.4785C131.043 17.4735 131.487 17.5141 131.924 17.5995C132.31 17.6756 132.678 17.8283 133.008 18.049C133.315 18.2699 133.564 18.5671 133.733 18.9135C133.924 19.3711 134.015 19.8671 133.999 20.3657C134.008 20.6833 133.96 20.9997 133.858 21.2993C133.781 21.519 133.649 21.7131 133.474 21.8612C133.285 22.0042 133.07 22.1043 132.841 22.1551C132.591 22.207 132.291 22.2588 131.957 22.2934C131.124 22.3971 130.29 22.5182 129.457 22.6392C128.686 22.7354 127.931 22.942 127.215 23.2529C126.578 23.5235 126.025 23.9688 125.614 24.5409C125.174 25.2274 124.961 26.0433 125.006 26.8663C124.992 27.5039 125.108 28.1373 125.348 28.7248C125.557 29.2267 125.877 29.6708 126.281 30.0215C126.687 30.3664 127.159 30.6195 127.665 30.7649C128.208 30.9202 128.768 30.9987 129.332 30.9983C129.893 31.0116 130.454 30.9476 130.999 30.8081C131.864 30.5775 132.639 30.0729 133.216 29.3645C133.518 28.9734 133.796 28.5635 134.049 28.137H134.099C134.099 28.4725 134.121 28.8075 134.166 29.1397C134.199 29.4177 134.287 29.6855 134.424 29.9264C134.561 30.1501 134.758 30.3274 134.991 30.4364C135.3 30.5699 135.633 30.6319 135.966 30.6179C136.147 30.6332 136.328 30.6332 136.508 30.6179L137 30.5401V29.1138C136.841 29.1907 136.667 29.2292 136.492 29.2262C135.908 29.183 135.591 28.8285 135.591 28.1284ZM134.008 25.1288C134.017 25.7741 133.892 26.4139 133.641 27.0046C133.414 27.5392 133.078 28.0168 132.657 28.405C132.239 28.7924 131.748 29.0866 131.215 29.2694C130.657 29.4775 130.067 29.5828 129.473 29.5806C129.104 29.5783 128.738 29.5111 128.39 29.3818C128.047 29.2584 127.73 29.0677 127.456 28.8199C127.192 28.5765 126.974 28.2832 126.815 27.9555C126.652 27.587 126.572 27.185 126.581 26.7798C126.562 26.4856 126.602 26.1903 126.699 25.9133C126.797 25.6363 126.95 25.3837 127.148 25.172C127.561 24.7761 128.053 24.4808 128.59 24.3075C129.228 24.0948 129.884 23.9443 130.549 23.858C131.257 23.7543 131.949 23.6419 132.624 23.5123C132.878 23.4655 133.128 23.402 133.374 23.3221C133.495 23.2929 133.609 23.2388 133.709 23.1631C133.809 23.0874 133.894 22.9915 133.958 22.8812H134.008V25.1288Z" fill="black"/>
<path d="M147.948 17.509C147.533 17.0134 147.005 16.6299 146.41 16.3928C145.651 16.11 144.846 15.9777 144.038 16.0031C143.095 15.9968 142.17 16.2741 141.38 16.8003C140.605 17.3037 140.015 18.0543 139.703 18.9351H139.651V16.4194H138V31H139.651V22.4961C139.663 21.8187 139.774 21.1469 139.981 20.503C140.172 19.927 140.467 19.3923 140.85 18.9263C141.203 18.4997 141.641 18.1553 142.136 17.9164C142.679 17.6566 143.273 17.5264 143.873 17.5355C144.447 17.5126 145.019 17.6279 145.541 17.8721C145.982 18.0756 146.36 18.397 146.636 18.8023C146.908 19.227 147.094 19.7028 147.183 20.2018C147.293 20.7856 147.346 21.3791 147.34 21.9735V31H148.999V21.6192C149.009 20.8297 148.927 20.0417 148.756 19.2717C148.623 18.6287 148.347 18.0255 147.948 17.509Z" fill="black"/>
<path d="M156.708 20.8915L162.601 15.5424H160.35L152.693 22.5516V10H151V30H152.693V24.5103L155.422 22.13L160.882 30H163L156.708 20.8915Z" fill="black"/>
<path d="M26.3603 0L0 5.53509V10L24.1189 5.73684L38 11V7.7193L26.3603 0Z" fill="url(#paint0_linear_20_5858)"/>
<path d="M0 11.4489V15.8664L20.7871 14.1712L38 16V12.0919L23.2794 8L0 11.4489Z" fill="url(#paint1_linear_20_5858)"/>
<path d="M0 18.1103V22.8116L16.8927 24L38 22.9504V18.1623L19.8178 17L0 18.1103Z" fill="url(#paint2_linear_20_5858)"/>
<path d="M0 27.7573L13.5263 32L38 28.6443V24.1674L15.9408 25.8159L0 24V27.7573Z" fill="url(#paint3_linear_20_5858)"/>
<path d="M0 32.0839L10.4281 40L38 34.7548V30.23L12.6263 34.3419L0 29V32.0839Z" fill="url(#paint4_linear_20_5858)"/>
</g>
<defs>
<linearGradient id="paint0_linear_20_5858" x1="37.0048" y1="13.7895" x2="1.60287" y2="1.07112" gradientUnits="userSpaceOnUse">
<stop offset="0.4" stop-color="#FFC425"/>
<stop offset="0.68" stop-color="#AA8E40"/>
<stop offset="0.9" stop-color="#6F6854"/>
<stop offset="1" stop-color="#58595B"/>
</linearGradient>
<linearGradient id="paint1_linear_20_5858" x1="36.4509" y1="20.1086" x2="1.67682" y2="6.9936" gradientUnits="userSpaceOnUse">
<stop offset="0.45" stop-color="#FFC425"/>
<stop offset="0.71" stop-color="#AA8E40"/>
<stop offset="0.91" stop-color="#6F6854"/>
<stop offset="1" stop-color="#58595B"/>
</linearGradient>
<linearGradient id="paint2_linear_20_5858" x1="36.5721" y1="26.8972" x2="1.44357" y2="14.1377" gradientUnits="userSpaceOnUse">
<stop offset="0.52" stop-color="#FFC425"/>
<stop offset="0.74" stop-color="#AA8E40"/>
<stop offset="0.92" stop-color="#6F6854"/>
<stop offset="1" stop-color="#58595B"/>
</linearGradient>
<linearGradient id="paint3_linear_20_5858" x1="36.6673" y1="32.1841" x2="1.84932" y2="19.0808" gradientUnits="userSpaceOnUse">
<stop offset="0.6" stop-color="#FFC425"/>
<stop offset="0.79" stop-color="#AA8E40"/>
<stop offset="0.93" stop-color="#6F6854"/>
<stop offset="1" stop-color="#58595B"/>
</linearGradient>
<linearGradient id="paint4_linear_20_5858" x1="36.2778" y1="39.5695" x2="0.776274" y2="26.8412" gradientUnits="userSpaceOnUse">
<stop offset="0.65" stop-color="#FFC425"/>
<stop offset="0.81" stop-color="#AA8E40"/>
<stop offset="0.94" stop-color="#6F6854"/>
<stop offset="1" stop-color="#58595B"/>
</linearGradient>
<clipPath id="clip0_20_5858">
<rect width="163" height="40" fill="white"/>
</clipPath>
</defs>
</svg>
