<svg xmlns="http://www.w3.org/2000/svg" width="240" height="80" fill="none" viewBox="0 0 240 80"><path fill="#000" d="M99.4522 30.4346H84.087V34.0954H89.713V50.2346H93.8348V34.0954H99.4522V30.4346Z"/><path fill="#000" d="M102.635 45.713H102.583L99.5131 35.8956H95.5392L100.296 49.3478C100.399 49.6261 100.452 49.9205 100.452 50.2174C100.456 50.6319 100.335 51.038 100.104 51.3826C99.9779 51.5585 99.8141 51.7044 99.6247 51.8096C99.4353 51.9148 99.2249 51.9769 99.0087 51.9913C98.6411 52.0173 98.272 52.0173 97.9044 51.9913L96.8261 51.8782V55.1217L97.974 55.2174C98.3479 55.2174 98.7305 55.2174 99.1131 55.2174C100.166 55.2769 101.212 55.0162 102.113 54.4695C102.921 53.8352 103.509 52.9618 103.791 51.9739L109.47 35.8608H105.609L102.635 45.713Z"/><path fill="#000" d="M129.67 36.6784C129.217 36.2736 128.679 35.9763 128.096 35.8088C127.446 35.6193 126.772 35.5255 126.096 35.5305C125.223 35.5093 124.365 35.7617 123.643 36.2523C122.989 36.6927 122.43 37.2605 122 37.9218C121.71 37.1223 121.134 36.4591 120.383 36.061C119.651 35.7051 118.848 35.5235 118.035 35.5305C117.199 35.5165 116.376 35.7299 115.652 36.1479C114.947 36.5874 114.352 37.1823 113.913 37.8871H113.826V35.8957H110.348V50.2349H114.078V41.9131C114.05 41.3189 114.15 40.7254 114.374 40.174C114.526 39.7918 114.764 39.4497 115.07 39.174C115.323 38.9582 115.619 38.7982 115.939 38.7044C116.165 38.6358 116.399 38.5949 116.635 38.5827C117.108 38.5513 117.58 38.6602 117.991 38.8957C118.299 39.1071 118.531 39.412 118.652 39.7653C118.785 40.1339 118.859 40.5214 118.87 40.9131C118.87 41.3305 118.87 41.7827 118.87 42.174V50.2175H122.6V42.2436C122.601 41.8042 122.633 41.3654 122.696 40.9305C122.748 40.5236 122.871 40.1291 123.061 39.7653C123.239 39.4161 123.502 39.1171 123.826 38.8957C124.21 38.671 124.651 38.5623 125.096 38.5827C125.531 38.5574 125.964 38.6538 126.348 38.861C126.647 39.0378 126.889 39.2976 127.043 39.6088C127.209 39.955 127.307 40.33 127.33 40.7131C127.365 41.1421 127.383 41.5943 127.383 42.0697V50.2001H131.043V40.6349C131.069 39.8292 130.952 39.0254 130.696 38.261C130.485 37.6592 130.133 37.1166 129.67 36.6784Z"/><path fill="#000" d="M144.374 38.1129C143.802 37.2845 143.033 36.6121 142.135 36.1565C141.238 35.7009 140.241 35.4767 139.235 35.5042C138.261 35.4932 137.296 35.695 136.409 36.0955C135.574 36.4654 134.827 37.0077 134.217 37.6868C133.582 38.3815 133.094 39.198 132.783 40.0868C132.439 41.0462 132.268 42.059 132.278 43.0781C132.267 44.1157 132.432 45.1476 132.765 46.1303C133.061 47.0097 133.531 47.8202 134.148 48.5129C134.749 49.1845 135.496 49.7108 136.33 50.052C137.247 50.4221 138.229 50.6054 139.217 50.5912C140.633 50.6465 142.031 50.2606 143.217 49.4868C144.423 48.5722 145.277 47.2702 145.635 45.7999H142.348C142.167 46.3191 141.819 46.7629 141.357 47.0607C140.698 47.4848 139.92 47.6873 139.138 47.6388C138.356 47.5903 137.61 47.2933 137.009 46.7912C136.374 46.0098 136.046 45.0233 136.087 44.0173H145.826C145.899 42.9493 145.811 41.8765 145.565 40.8346C145.339 39.8617 144.935 38.939 144.374 38.1129ZM136.026 41.5216C136.053 41.2036 136.111 40.889 136.2 40.5825C136.301 40.221 136.469 39.8818 136.696 39.5825C136.954 39.2569 137.277 38.9876 137.643 38.7912C138.106 38.5666 138.617 38.4591 139.13 38.4781C139.506 38.4488 139.883 38.503 140.235 38.6368C140.586 38.7706 140.904 38.9807 141.165 39.252C141.67 39.9134 141.991 40.6963 142.096 41.5216H136.026Z"/><path fill="#000" d="M158.226 39.7825V39.7216C158.704 39.6177 159.156 39.4197 159.557 39.139C159.962 38.8643 160.317 38.5233 160.609 38.1303C160.9 37.7245 161.126 37.2756 161.278 36.7998C161.435 36.3109 161.514 35.8003 161.513 35.2868C161.54 34.4868 161.37 33.6923 161.017 32.9738C160.702 32.3749 160.245 31.8616 159.687 31.4781C159.11 31.0831 158.459 30.808 157.774 30.6694C157.025 30.5108 156.261 30.4321 155.496 30.4346H147.565V50.2346H155.496C156.374 50.2469 157.251 50.1475 158.104 49.939C158.749 49.7793 159.367 49.5274 159.939 49.1912C160.407 48.9193 160.815 48.5555 161.139 48.1216C161.421 47.7434 161.65 47.3278 161.817 46.8868C161.976 46.4963 162.084 46.0872 162.139 45.6694C162.189 45.315 162.215 44.9577 162.217 44.5998C162.252 43.4226 161.87 42.2709 161.139 41.3477C160.412 40.4626 159.365 39.9001 158.226 39.7825ZM149.304 32.0433H155.452C158.281 32.0433 159.693 33.281 159.687 35.7564C159.69 36.2044 159.601 36.6482 159.426 37.0607C159.244 37.4709 158.974 37.8361 158.635 38.1303C158.249 38.4554 157.803 38.7008 157.322 38.852C156.716 39.0372 156.085 39.1253 155.452 39.1129H149.304V32.0433ZM160 46.5303C159.768 47.0491 159.402 47.4965 158.939 47.8259C158.464 48.1475 157.929 48.3694 157.365 48.4781C156.741 48.6025 156.106 48.6636 155.47 48.6607H149.304V40.7216H155.452C156.746 40.6415 158.032 40.9767 159.122 41.6781C159.551 42.0173 159.89 42.4559 160.111 42.9559C160.333 43.4559 160.429 44.0022 160.391 44.5477C160.419 45.2284 160.291 45.9065 160.017 46.5303H160Z"/><path fill="#000" d="M174.017 47.7042V40.1129C174.049 39.3068 173.897 38.5041 173.574 37.7651C173.31 37.2099 172.913 36.7288 172.417 36.3651C171.936 36.031 171.392 35.8001 170.817 35.6868C170.228 35.5659 169.628 35.5047 169.026 35.5042C168.301 35.4978 167.578 35.5914 166.878 35.7825C166.246 35.9527 165.655 36.2484 165.139 36.652C164.644 37.053 164.25 37.5655 163.991 38.1477C163.696 38.8334 163.528 39.5671 163.496 40.3129H165.148C165.121 39.8378 165.202 39.3628 165.384 38.9232C165.566 38.4836 165.845 38.0907 166.2 37.7738C166.953 37.2197 167.875 36.9433 168.809 36.9912C169.272 36.9862 169.735 37.027 170.191 37.1129C170.594 37.1895 170.977 37.343 171.322 37.5651C171.642 37.7873 171.902 38.0862 172.078 38.4347C172.278 38.895 172.373 39.394 172.356 39.8955C172.365 40.215 172.315 40.5333 172.209 40.8347C172.129 41.0557 171.99 41.2509 171.809 41.3999C171.612 41.5437 171.386 41.6444 171.148 41.6955C170.887 41.7477 170.574 41.7999 170.226 41.8347C169.356 41.939 168.487 42.0607 167.617 42.1825C166.813 42.2793 166.026 42.4871 165.278 42.7999C164.614 43.072 164.037 43.5199 163.609 44.0955C163.15 44.7861 162.927 45.6068 162.974 46.4347C162.959 47.076 163.081 47.7132 163.33 48.3042C163.549 48.8091 163.882 49.2558 164.304 49.6086C164.728 49.9555 165.22 50.2102 165.748 50.3564C166.314 50.5126 166.899 50.5916 167.487 50.5912C168.073 50.6046 168.657 50.5402 169.226 50.3999C170.129 50.1679 170.938 49.6603 171.539 48.9477C171.854 48.5543 172.144 48.142 172.409 47.7129H172.461C172.46 48.0504 172.483 48.3874 172.53 48.7216C172.564 49.0012 172.656 49.2706 172.8 49.5129C172.943 49.738 173.148 49.9163 173.391 50.026C173.713 50.1603 174.06 50.2226 174.409 50.2086C174.597 50.2239 174.786 50.2239 174.974 50.2086L175.487 50.1303V48.6955C175.321 48.7729 175.14 48.8116 174.956 48.8086C174.348 48.7651 174.017 48.4086 174.017 47.7042ZM172.365 44.6868C172.375 45.336 172.244 45.9796 171.983 46.5738C171.746 47.1115 171.396 47.592 170.956 47.9825C170.52 48.3722 170.008 48.6681 169.452 48.852C168.869 49.0614 168.254 49.1673 167.635 49.1651C167.249 49.1628 166.867 49.0952 166.504 48.9651C166.146 48.841 165.816 48.6491 165.53 48.3999C165.254 48.1551 165.027 47.86 164.861 47.5303C164.691 47.1597 164.608 46.7553 164.617 46.3477C164.597 46.0517 164.639 45.7547 164.741 45.476C164.843 45.1974 165.002 44.9433 165.209 44.7303C165.639 44.3321 166.153 44.035 166.713 43.8607C167.379 43.6468 168.063 43.4954 168.756 43.4086C169.496 43.3042 170.217 43.1912 170.922 43.0607C171.186 43.0137 171.448 42.9498 171.704 42.8694C171.83 42.8401 171.949 42.7857 172.054 42.7095C172.158 42.6333 172.246 42.5369 172.313 42.426H172.365V44.6868Z"/><path fill="#000" d="M186.739 36.991C186.324 36.5045 185.795 36.1281 185.2 35.8954C184.44 35.6178 183.635 35.4879 182.826 35.5128C181.881 35.5066 180.956 35.7788 180.165 36.2954C179.39 36.7895 178.8 37.5264 178.487 38.391H178.435V35.9215H176.783V50.2345H178.435V41.8867C178.447 41.2217 178.558 40.5622 178.765 39.9302C178.956 39.3647 179.251 38.8398 179.635 38.3823C179.988 37.9636 180.427 37.6255 180.922 37.391C181.466 37.136 182.06 37.0081 182.661 37.0171C183.236 36.9946 183.808 37.1078 184.33 37.3476C184.771 37.5473 185.15 37.8628 185.426 38.2606C185.698 38.6775 185.885 39.1446 185.974 39.6345C186.084 40.2075 186.136 40.7902 186.13 41.3736V50.2345H187.791V41.0258C187.801 40.2508 187.719 39.4773 187.548 38.7215C187.415 38.0902 187.138 37.4981 186.739 36.991Z"/><path fill="#000" d="M195.304 41.2172L201.087 35.9215H198.878L191.365 42.8607V30.4346H189.704V50.2346H191.365V44.7998L194.043 42.4433L199.4 50.2346H201.478L195.304 41.2172Z"/><path fill="url(#paint0_linear_20_6130)" d="M64.487 20L38 25.487V29.913L62.2348 25.687L76.1826 30.9043V27.6522L64.487 20Z"/><path fill="url(#paint1_linear_20_6130)" d="M38 31.5649V36.1649L58.887 34.3997L76.1826 36.3041V32.2345L61.3913 27.9736L38 31.5649Z"/><path fill="url(#paint2_linear_20_6130)" d="M38 37.6697V42.3827L54.9739 43.574L76.1826 42.5219V37.7219L57.913 36.5566L38 37.6697Z"/><path fill="url(#paint3_linear_20_6130)" d="M38 47.7046L51.5913 52.1133L76.1826 48.6264V43.9742L54.0174 45.6872L38 43.8003V47.7046Z"/><path fill="url(#paint4_linear_20_6130)" d="M38 52.165L48.4783 59.9998L76.1826 54.8084V50.3302L50.687 54.3998L38 49.1128V52.165Z"/><defs><linearGradient id="paint0_linear_20_6130" x1="75.183" x2="39.722" y1="33.67" y2="20.756" gradientUnits="userSpaceOnUse"><stop offset=".4" stop-color="#FFC425"/><stop offset=".68" stop-color="#AA8E40"/><stop offset=".9" stop-color="#6F6854"/><stop offset="1" stop-color="#58595B"/></linearGradient><linearGradient id="paint1_linear_20_6130" x1="74.626" x2="39.383" y1="40.582" y2="27.756" gradientUnits="userSpaceOnUse"><stop offset=".45" stop-color="#FFC425"/><stop offset=".71" stop-color="#AA8E40"/><stop offset=".91" stop-color="#6F6854"/><stop offset="1" stop-color="#58595B"/></linearGradient><linearGradient id="paint2_linear_20_6130" x1="74.748" x2="39.47" y1="46.478" y2="33.635" gradientUnits="userSpaceOnUse"><stop offset=".52" stop-color="#FFC425"/><stop offset=".74" stop-color="#AA8E40"/><stop offset=".92" stop-color="#6F6854"/><stop offset="1" stop-color="#58595B"/></linearGradient><linearGradient id="paint3_linear_20_6130" x1="74.844" x2="39.574" y1="52.305" y2="39.47" gradientUnits="userSpaceOnUse"><stop offset=".6" stop-color="#FFC425"/><stop offset=".79" stop-color="#AA8E40"/><stop offset=".93" stop-color="#6F6854"/><stop offset="1" stop-color="#58595B"/></linearGradient><linearGradient id="paint4_linear_20_6130" x1="74.452" x2="38.904" y1="59.574" y2="46.635" gradientUnits="userSpaceOnUse"><stop offset=".65" stop-color="#FFC425"/><stop offset=".81" stop-color="#AA8E40"/><stop offset=".94" stop-color="#6F6854"/><stop offset="1" stop-color="#58595B"/></linearGradient></defs></svg>