<svg xmlns="http://www.w3.org/2000/svg" width="40" height="40" fill="none" viewBox="0 0 40 40"><g clip-path="url(#clip0_11_448)"><path fill="#DD127B" d="M16.728 3.71129C17.872 2.44966 19.0413 1.20945 20.24 0C24.0346 3.68319 27.7506 7.45066 31.3306 11.3466C32.8853 13.0965 34.4893 14.8264 35.7346 16.8212C37.0026 18.7424 38.2293 20.7171 39.0493 22.8791C39.5786 24.2117 39.832 25.6258 40 27.0439V28.3899C39.8706 30.4917 39.2026 32.54 38.1306 34.3461C36.808 36.6058 34.6906 38.3772 32.228 39.2561C31.0946 39.6294 29.9226 39.9719 28.7173 39.9558C28.7173 39.4421 28.7173 38.9284 28.7173 38.4146C28.1573 38.4106 27.5973 38.4106 27.0373 38.416C27.032 38.9404 27.032 39.4635 27.032 39.9866C26.5613 39.9826 26.0906 39.9799 25.62 39.9813C25.6066 37.9851 25.6173 35.9904 25.6146 33.9956C26.6733 33.9956 27.7333 34.0063 28.792 33.9929C30.2146 33.9769 31.6533 33.4925 32.7306 32.544C33.9906 31.4442 34.5666 29.6983 34.4733 28.0527C34.4373 25.8292 33.6893 23.6685 32.5586 21.7727C31.2306 19.4662 29.4306 17.4928 27.7 15.49C24.144 11.4697 20.4413 7.58445 16.728 3.71129ZM28.756 34.3608C28.7426 34.4919 28.7173 34.7542 28.7053 34.8853C29.2946 35.0753 29.8813 35.4713 30.068 36.0947C30.2693 36.9349 29.52 37.6801 28.748 37.8407C28.768 38.036 28.7933 38.2313 28.82 38.428C29.6693 38.4481 30.484 37.8888 30.8146 37.1115C30.98 36.48 30.976 35.7281 30.5426 35.201C30.136 34.6297 29.4493 34.3247 28.756 34.3608ZM26.9773 35.2251C26.9693 35.9449 26.964 36.6647 26.98 37.3844C27.5506 37.3604 28.1213 37.3242 28.6933 37.3162C28.7133 36.6687 28.7346 36.0211 28.6906 35.3749C28.1266 35.2612 27.5533 35.193 26.9773 35.2251Z"/><path fill="#DD127B" d="M16.1333 4.34942C16.248 4.21429 16.4067 4.31062 16.4827 4.43103C20.2707 8.44066 24.0667 12.4409 27.8587 16.4465C28 16.575 27.956 16.7797 27.9733 16.9483C27.9653 19.3912 27.9707 21.8342 27.9653 24.2785C26.5267 22.7975 25.0947 21.3097 23.652 19.8314C21.0867 17.252 18.6053 14.5882 16.0147 12.0369C15.2213 12.7433 14.488 13.5166 13.732 14.2618C12.132 15.8766 10.5307 17.5048 9.16933 19.3324C7.896 21.1091 6.82533 23.0477 6.10267 25.116C5.764 26.1984 5.464 27.3142 5.48267 28.4581C5.46933 29.9177 6.07467 31.4148 7.236 32.3272C8.67867 33.4537 10.536 33.8711 12.3253 34.0103C12.3413 35.0592 12.3187 36.1067 12.332 37.1556C12.3173 37.8299 12.9187 38.4507 13.6 38.4159C13.9467 38.4734 14.3667 38.2112 14.3133 37.8232C14.3307 36.5496 14.3067 35.2746 14.3227 34.0009C14.7853 33.9982 15.248 33.9982 15.712 33.9982C15.716 35.7201 15.7107 37.4406 15.7173 39.1611C15.7133 39.4314 15.7453 39.8006 15.4293 39.9143C14.8573 40.0414 14.2613 39.8983 13.78 39.5718C12.2587 38.7383 11.3187 37.1703 10.7493 35.5769C10.6227 35.221 10.5493 34.8411 10.3627 34.5093C9.78933 34.2885 9.216 34.0624 8.62133 33.9019C9.18133 36.3382 10.5667 38.7357 12.8213 39.9411C12.412 39.9464 12 39.9505 11.592 39.9036C9.044 39.5464 6.51467 38.6835 4.46533 37.0887C2.36533 35.4926 0.886667 33.142 0.234667 30.592C0.121333 29.9939 0.141333 29.3785 0 28.7858V28.252C0.157333 27.159 0.118667 26.0365 0.429333 24.9675C1.06667 21.9533 2.54667 19.1638 4.46933 16.7783C7.96133 12.2804 11.996 8.24533 16.1333 4.34942Z"/><path fill="#DD127B" d="M16.304 13.1006C19.9613 16.8868 23.6453 20.6476 27.316 24.4231C27.548 24.7214 28.0187 24.9422 27.9707 25.3783C27.9453 27.737 28.0053 30.0984 27.94 32.4571C24.1573 28.5143 20.3093 24.6331 16.504 20.7105C16.4093 20.5941 16.26 20.4817 16.292 20.3091C16.2973 17.9063 16.276 15.5034 16.304 13.1006Z"/><path fill="#DD127B" d="M16.3867 33.9766C17.2773 33.9887 18.1693 33.9539 19.0587 33.9967C19.6813 34.0315 20.2507 34.5225 20.34 35.1486C20.4947 35.7855 20.2093 36.4276 19.716 36.829C21.0413 37.3013 20.872 39.4834 19.6053 39.9142C18.556 40.052 17.4947 39.9423 16.44 39.9998C16.4027 39.8098 16.3707 39.6172 16.376 39.4232C16.3893 37.6077 16.3693 35.7921 16.3867 33.9766ZM17.42 34.9881C17.4053 35.4577 17.4067 35.9273 17.4093 36.3982C17.9427 36.3648 18.5107 36.4878 19.02 36.2952C19.5053 36.049 19.452 35.3747 19.092 35.0376C18.536 34.9894 17.9773 34.972 17.42 34.9881ZM17.424 37.407C17.404 37.9247 17.4067 38.4425 17.4173 38.9603C18.0213 38.9455 18.6507 39.0432 19.2373 38.8733C19.724 38.5669 19.6467 37.8137 19.228 37.4779C18.6307 37.3856 18.0253 37.3976 17.424 37.407Z"/><path fill="#DD127B" d="M21.7867 34.2553C22.7427 33.7055 24.324 33.9182 24.728 35.0714C24.8187 35.2895 24.8413 35.525 24.876 35.7578C24.5413 35.7685 24.2067 35.7952 23.872 35.7738C23.7427 35.4835 23.636 35.1383 23.3213 34.9992C22.88 34.9029 22.4027 34.9417 22.0453 35.2427C22.0453 35.4661 21.948 35.7778 22.1973 35.9103C22.9147 36.3678 23.8773 36.3063 24.512 36.9164C25.3733 37.7285 25.084 39.3781 23.9867 39.837C23.3933 40.039 22.7373 40.0216 22.1293 39.8972C21.3147 39.643 20.9293 38.7921 20.8107 38.0067C21.1413 37.9706 21.4707 37.9372 21.8013 37.9091C21.912 38.3091 22.0787 38.7881 22.5093 38.9379C22.9747 39.0637 23.6067 39.0543 23.8907 38.5914C24.0307 38.3091 24.0333 37.8636 23.704 37.7097C23.132 37.3766 22.424 37.394 21.8627 37.0261C20.8 36.5378 20.7493 34.7998 21.7867 34.2553Z"/></g><defs><clipPath id="clip0_11_448"><rect width="40" height="40" fill="#fff"/></clipPath></defs></svg>