<svg xmlns="http://www.w3.org/2000/svg" width="40" height="40" fill="none" viewBox="0 0 40 40"><g clip-path="url(#clip0_11_44)"><path fill="#DD127B" d="M17 3.71253C18.1306 2.45048 19.2863 1.20985 20.471 0C24.2213 3.68442 27.8938 7.45316 31.432 11.3504C32.9685 13.1009 34.5537 14.8314 35.7845 16.8268C37.0377 18.7487 38.25 20.724 39.0604 22.8868C39.5836 24.2198 39.834 25.6344 40 27.053V28.3994C39.8722 30.5019 39.212 32.5509 38.1525 34.3576C36.8453 36.618 34.7527 38.39 32.3188 39.2693C31.1988 39.6427 30.0404 39.9853 28.8492 39.9692C28.8492 39.4553 28.8492 38.9414 28.8492 38.4275C28.2957 38.4234 27.7423 38.4235 27.1888 38.4288C27.1836 38.9534 27.1836 39.4767 27.1836 40C26.7184 39.996 26.2532 39.9933 25.7881 39.9946C25.7749 37.9979 25.7854 36.0024 25.7828 34.007C26.8291 34.007 27.8767 34.0177 28.923 34.0043C30.329 33.9882 31.7509 33.5037 32.8156 32.5549C34.0609 31.4548 34.6302 29.7082 34.5379 28.0621C34.5023 25.8378 33.7631 23.6764 32.6456 21.78C31.3332 19.4727 29.5542 17.4987 27.8438 15.4952C24.3293 11.4735 20.6699 7.58699 17 3.71253ZM28.8874 34.3723C28.8742 34.5035 28.8492 34.7658 28.8373 34.8969C29.4198 35.087 29.9996 35.4831 30.1841 36.1068C30.3831 36.9473 29.6425 37.6927 28.8795 37.8533C28.8993 38.0487 28.9243 38.2441 28.9507 38.4408C29.7901 38.4609 30.5952 37.9015 30.922 37.1239C31.0854 36.4922 31.0815 35.7401 30.6532 35.2128C30.2513 34.6413 29.5726 34.3362 28.8874 34.3723ZM27.1295 35.2369C27.1216 35.9569 27.1164 36.6769 27.1322 37.3969C27.6962 37.3729 28.2602 37.3367 28.8255 37.3287C28.8453 36.6809 28.8663 36.0332 28.8228 35.3868C28.2654 35.273 27.6988 35.2048 27.1295 35.2369Z"/><path fill="#DD127B" d="M16.1487 4.06632C16.2635 3.92997 16.4223 4.02717 16.4984 4.14867C20.29 8.19464 24.0896 12.2312 27.8852 16.2731C28.0267 16.4027 27.9826 16.6092 28 16.7793C27.992 19.2444 27.9973 21.7096 27.992 24.176C26.552 22.6816 25.1186 21.1804 23.6745 19.6886C21.1068 17.0858 18.6231 14.3979 16.0299 11.8235C15.2358 12.5363 14.5018 13.3166 13.7451 14.0685C12.1436 15.698 10.5407 17.3409 9.17807 19.185C7.90353 20.9779 6.83184 22.934 6.10848 25.0211C5.76949 26.1133 5.46921 27.2392 5.48789 28.3934C5.47455 29.8663 6.08046 31.377 7.2429 32.2977C8.68694 33.4344 10.546 33.8556 12.3371 33.996C12.3531 35.0544 12.3304 36.1114 12.3438 37.1698C12.3291 37.8502 12.931 38.4767 13.613 38.4415C13.96 38.4996 14.3804 38.235 14.327 37.8435C14.3443 36.5583 14.3203 35.2717 14.3363 33.9865C14.7994 33.9838 15.2625 33.9838 15.727 33.9838C15.731 35.7213 15.7256 37.4574 15.7323 39.1935C15.7283 39.4662 15.7603 39.8388 15.444 39.9536C14.8715 40.0818 14.2749 39.9374 13.7931 39.608C12.2704 38.7669 11.3295 37.1847 10.7596 35.5768C10.6328 35.2177 10.5594 34.8343 10.3725 34.4995C9.79867 34.2768 9.22479 34.0486 8.62955 33.8866C9.19009 36.345 10.5767 38.7642 12.8336 39.9806C12.4238 39.986 12.0114 39.99 11.6031 39.9428C9.05262 39.5823 6.52088 38.7115 4.46959 37.1023C2.36759 35.4918 0.887512 33.1198 0.23489 30.5467C0.121449 29.9433 0.141468 29.3223 0 28.7242V28.1855C0.157483 27.0826 0.11878 25.9499 0.429743 24.8713C1.06768 21.8297 2.54909 19.0149 4.47359 16.6079C7.96892 12.0692 12.0074 7.99754 16.1487 4.06632Z"/><path fill="#DD127B" d="M16.0169 13C19.7723 16.7165 23.5551 20.408 27.3243 24.114C27.5625 24.4068 28.0458 24.6235 27.9965 25.0516C27.9705 27.3669 28.0321 29.6848 27.965 32C24.0809 28.1299 20.1296 24.3202 16.2222 20.4697C16.125 20.3555 15.9717 20.2452 16.0045 20.0758C16.01 17.7172 15.9881 15.3586 16.0169 13Z"/><path fill="#DD127B" d="M16.0106 34.002C16.8469 34.014 17.6844 33.9794 18.5194 34.022C19.1041 34.0566 19.6387 34.5456 19.7225 35.1691C19.8678 35.8033 19.5999 36.4428 19.1366 36.8425C20.3811 37.3128 20.2221 39.4857 19.0327 39.9147C18.0475 40.052 17.0509 39.9427 16.0606 40C16.0256 39.8108 15.9955 39.619 16.0005 39.4258C16.0131 37.6179 15.9943 35.8099 16.0106 34.002ZM16.9808 35.0092C16.967 35.4769 16.9683 35.9445 16.9708 36.4135C17.4716 36.3802 18.0049 36.5027 18.4831 36.3109C18.9388 36.0657 18.8888 35.3943 18.5507 35.0585C18.0287 35.0106 17.5041 34.9932 16.9808 35.0092ZM16.9846 37.418C16.9658 37.9336 16.9683 38.4492 16.9783 38.9648C17.5454 38.9502 18.1363 39.0474 18.6872 38.8782C19.1442 38.5731 19.0715 37.823 18.6784 37.4886C18.1176 37.3967 17.5492 37.4087 16.9846 37.418Z"/><path fill="#DD127B" d="M21.9285 34.2883C22.838 33.7407 24.3424 33.9526 24.7268 35.1012C24.813 35.3184 24.8346 35.5529 24.8676 35.7848C24.5492 35.7954 24.2308 35.8221 23.9124 35.8007C23.7894 35.5116 23.6879 35.1678 23.3885 35.0292C22.9687 34.9333 22.5145 34.9719 22.1746 35.2717C22.1746 35.4943 22.082 35.8047 22.3192 35.9367C23.0016 36.3924 23.9175 36.3311 24.5213 36.9387C25.3407 37.7475 25.0654 39.3905 24.0215 39.8476C23.457 40.0488 22.8329 40.0315 22.2545 39.9075C21.4795 39.6544 21.1129 38.8069 21 38.0247C21.3146 37.9887 21.6279 37.9554 21.9425 37.9274C22.0478 38.3258 22.2063 38.8029 22.616 38.9521C23.0587 39.0774 23.66 39.0681 23.9302 38.607C24.0633 38.3258 24.0659 37.8821 23.7526 37.7289C23.2084 37.3971 22.5348 37.4144 22.0008 37.048C20.9899 36.5616 20.9416 34.8307 21.9285 34.2883Z"/></g><defs><clipPath id="clip0_11_44"><rect width="40" height="40" fill="#fff"/></clipPath></defs></svg>