<svg width="40" height="40" viewBox="0 0 40 40" fill="none" xmlns="http://www.w3.org/2000/svg">
<path fill-rule="evenodd" clip-rule="evenodd" d="M30.0243 3.01622C26.9748 3.01622 25.5961 3.71371 23.9416 5.51419L20.0648 9.79643L16.1881 5.49797C14.3876 3.69749 13.1387 3 10.1054 3H5.53119C5.53119 3 12.5871 11.8565 13.5604 12.8297C15.0851 14.4842 16.0584 15.3114 18.1346 15.3114H21.8653C23.9416 15.3114 25.0446 14.4842 26.5693 12.8297C27.5263 11.8565 34.5985 3 34.5985 3H30.0243V3.01622Z" fill="#FCB813"/>
<path fill-rule="evenodd" clip-rule="evenodd" d="M27.5426 14.5003C25.3366 14.9221 24.0876 15.4574 22.9684 17.2741L21.9951 18.7988L21.1679 20.4695C20.0649 22.27 20.1946 23.6488 21.0219 25.871C21.4436 27.12 25.4501 37.6471 25.4501 37.6471L27.8021 33.7704C29.3268 31.1427 29.3268 29.6179 28.6294 27.266L26.9749 21.7347L32.5223 20.4857C35.0041 19.9342 36.253 19.0908 37.7778 16.4793L40 12.4565C40 12.4565 28.9213 14.257 27.5426 14.5328V14.5003Z" fill="#F37920"/>
<path fill-rule="evenodd" clip-rule="evenodd" d="M18.9619 20.4531L17.9886 18.7824L17.1614 17.2577C16.0584 15.4572 14.8094 14.9057 12.5872 14.484C11.2084 14.2082 0 12.4077 0 12.4077L2.35198 16.4304C3.8605 19.0582 5.10948 19.8854 7.47769 20.4369L13.1387 21.6859L11.3382 27.2171C10.6569 29.5691 10.7705 31.0938 12.2952 33.7216L14.5174 37.5983C14.5174 37.5983 18.6699 27.0711 19.0754 25.8222C19.7567 23.5999 20.0487 22.2212 18.9457 20.4207L18.9619 20.4531Z" fill="#F6921E"/>
</svg>
