<svg width="40" height="40" viewBox="0 0 40 40" fill="none" xmlns="http://www.w3.org/2000/svg">
<g clip-path="url(#clip0_4_5481)">
<path d="M2.703 32.3582L1.13113 28.917H0L2.26227 33.4502H3.14373L5.3908 28.917H4.25749L2.703 32.3582Z" fill="#3763AE"/>
<path d="M6.73034 28.917H5.64697V33.4502H6.73034V28.917Z" fill="#3763AE"/>
<path d="M7.36646 33.4502H10.4776V32.6295H8.1741V31.5874H10.4776V30.7776H8.1741V29.7377H10.4776V28.917H7.36646V33.4502Z" fill="#3763AE"/>
<path d="M10.9661 29.7377H12.1277V33.4502H13.2892V29.7377H14.4681V28.917H10.9661V29.7377Z" fill="#3763AE"/>
<path d="M17.4468 28.9624L15.0261 33.4956H16.205L16.8498 32.3189H18.908L19.5354 33.4956H20.7295L18.2783 28.9624H17.4446H17.4468ZM17.2427 31.5113L17.8702 30.1391L18.4824 31.5113H17.2406H17.2427Z" fill="#3763AE"/>
<path d="M27.7768 28.9624L25.3561 33.4956H26.535L27.1798 32.3189H29.238L29.8654 33.4956H31.0595L28.6084 28.9624H27.7747H27.7768ZM27.5728 31.5113L28.2002 30.1391L28.8124 31.5113H27.5706H27.5728Z" fill="#3763AE"/>
<path d="M24.6917 30.9839C24.6917 30.9839 25.2736 30.7516 25.2736 30.0525C25.2736 29.3534 24.6222 28.9019 24.1229 28.9019H21.7456L21.7369 28.9366V33.4264H23.832C23.832 33.4264 25.5059 33.4959 25.5059 32.1693C25.5059 31.2314 24.6917 30.9839 24.6917 30.9839ZM23.7126 29.6965C23.7126 29.6965 24.3422 29.716 24.3422 30.1936C24.3422 30.6713 23.7625 30.7039 23.7625 30.7039H22.6444L22.6379 29.6965H23.7147H23.7126ZM23.8841 32.6361H22.6444L22.6357 31.4876H23.8298C23.8298 31.4876 24.5267 31.5115 24.5267 32.0543C24.5267 32.597 23.8819 32.6361 23.8819 32.6361H23.8841Z" fill="#3763AE"/>
<path d="M34.4789 31.8044L32.0821 28.8887H31.1442V33.4327H32.0908V30.5951L34.4464 33.4175H35.3626V28.8887H34.4789V31.8044Z" fill="#3763AE"/>
<path d="M38.8493 33.4262H40L38.096 30.6994L39.9066 28.8952L38.7277 28.8887L36.8367 30.8274V28.8887H35.9509V33.4479H36.8367V31.9542L37.4294 31.3615L38.8493 33.4262Z" fill="#3763AE"/>
<path d="M16.6681 25.5207H30.6173L23.6397 13.4302L16.6681 25.5207Z" fill="#ED2228"/>
<path d="M12.6538 18.9824L8.88892 25.5205H16.5672L12.6538 18.9824Z" fill="#ED2228"/>
<path d="M17.2145 21.8746L22.8737 12.1001L19.7383 6.6665L14.085 16.4945L17.2145 21.8746Z" fill="#ED2228"/>
</g>
<defs>
<clipPath id="clip0_4_5481">
<rect width="40" height="40" fill="white"/>
</clipPath>
</defs>
</svg>
