<svg xmlns="http://www.w3.org/2000/svg" width="240" height="80" fill="none" viewBox="0 0 240 80"><path fill="url(#paint0_linear_13_12026)" fill-rule="evenodd" d="M149.535 20.3262C147.695 20.7025 147.015 21.5567 147.085 22.7772C147.175 24.4959 149.035 27.7706 149.925 29.225C151.475 31.7776 153.315 34.0761 155.355 36.2016C157.005 37.8593 158.045 38.2254 159.815 35.7745C161.325 33.7506 162.715 31.7471 163.905 29.2351C164.425 28.1368 164.915 26.9367 165.345 25.5841C165.805 24.0077 165.645 22.6144 164.125 21.5974C165.585 22.3195 166.225 23.6518 166.315 25.1264C166.405 26.5502 165.985 28.0961 165.665 29.2351C164.875 32.0726 163.855 34.9303 162.565 37.5034C161.595 39.4458 160.355 41.785 159.115 43.5139C156.375 47.348 153.755 46.1072 150.675 43.5139C148.725 41.8663 146.845 39.7916 145.235 37.5135C143.605 35.2253 141.815 31.8285 140.755 29.2148C139.305 25.6451 140.435 23.8145 142.225 22.6551C144.195 21.3839 147.145 20.6618 149.535 20.3262Z" clip-rule="evenodd"/><path fill="url(#paint1_linear_13_12026)" fill-rule="evenodd" d="M149.465 28.4723C152.315 28.035 159.725 27.5671 162.325 28.9401C163.195 29.3977 163.215 30.0181 163.135 30.7199C163.395 30.2419 163.645 29.7435 163.895 29.235C164.415 28.1367 164.905 26.9366 165.335 25.584C165.795 24.0076 165.635 22.6143 164.115 21.5973C163.555 21.2922 162.905 21.0787 162.325 20.9058C160.615 20.3973 158.715 20.1939 156.805 20.0515C156.015 19.9905 155.195 20.0006 154.355 20.0006C152.845 20.0006 151.185 20.1023 149.535 20.3261C147.695 20.7024 147.015 21.5567 147.085 22.7771C147.165 24.2415 148.525 26.8349 149.475 28.4723H149.465Z" clip-rule="evenodd"/><path fill="#004522" fill-rule="evenodd" d="M142.025 59.9076C143.515 59.7245 144.775 58.9516 145.195 56.6633C145.465 55.1989 145.425 52.8394 145.025 51.4665C144.835 50.8257 144.555 50.2867 144.145 49.9308C143.445 49.3409 142.675 49.229 141.995 49.2087C140.845 49.168 140.225 49.3714 139.395 50.0528C139.235 50.185 139.095 50.2461 139.095 50.0121L139.065 45.1305L136.405 45.1712V59.1652C137.555 59.9483 140.695 60.0703 142.035 59.9076H142.025ZM70.6952 59.6432C71.2552 59.6432 71.1452 59.694 71.4852 59.216C73.7952 55.9921 75.9852 49.1172 75.9552 45.2831C74.8752 45.2322 73.7952 45.4153 72.7052 45.6797C71.6652 51.975 70.7452 53.6327 69.0752 56.8464C67.4052 53.6327 66.4852 51.975 65.4452 45.6797C64.3552 45.4153 63.2652 45.2322 62.1952 45.2831C62.1652 49.1172 64.3552 55.9921 66.6652 59.216C67.0052 59.694 66.8952 59.6432 67.4552 59.6432H70.7052H70.6952ZM147.145 49.7274L147.405 52.1885C148.455 52.0868 149.315 51.8021 150.425 51.7207C152.085 51.6597 153.145 51.619 153.095 52.8496C151.855 52.8496 150.595 52.8496 149.305 52.8598C147.735 52.8699 146.435 53.6327 146.605 56.8667C146.815 60.7619 151.355 60.4669 153.425 58.9109V59.7855H155.835C155.775 55.8091 156.055 51.6393 155.355 50.5105C154.015 48.3544 149.605 49.1477 147.145 49.7274ZM90.3552 59.3177C90.2652 58.5143 90.1752 57.7109 90.0852 56.9176C88.9952 57.121 87.1252 57.4058 86.0252 57.3651C84.7552 57.3244 84.2852 56.704 84.2852 54.8632C84.6852 55.3311 85.2552 55.6565 85.9652 55.6667C87.6252 55.687 89.1752 55.7175 90.8052 55.6565C90.8752 52.5953 91.1352 49.9206 88.1252 49.2596C86.9052 48.9951 85.2752 48.9951 84.1152 49.3511C82.8452 49.7376 82.2152 50.3478 81.8452 51.6393C81.1652 54.0395 81.3552 57.6092 82.8752 58.9821C84.6252 60.5585 88.1352 59.9991 90.3352 59.3279L90.3552 59.3177ZM85.5052 51.6292H86.8352C87.4952 51.6292 88.0452 52.1784 88.0452 52.8598V53.4089H84.3052V52.8598C84.3052 52.1885 84.8452 51.6292 85.5152 51.6292H85.5052ZM170.545 59.7652L170.625 55.2599C170.625 54.9853 170.875 55.3514 170.935 55.4633C171.815 56.9583 172.625 58.0872 173.925 59.4093C174.295 59.7856 174.365 59.755 175.015 59.755H177.805C175.765 58.0465 174.635 56.6735 173.555 54.5988C173.335 54.1208 173.345 54.1717 173.655 53.7242C174.055 53.2462 174.565 52.6157 175.125 51.9546L177.505 49.107C177.505 49.107 177.525 49.0663 177.535 49.046H175.005C174.545 49.046 174.555 48.9748 174.235 49.3307C173.275 50.3884 172.165 51.619 171.275 52.6258C171.165 52.7479 171.035 52.8394 170.925 52.9208C170.555 53.1852 170.625 53.114 170.625 52.7377L170.605 45.0898L167.915 45.1102L167.885 59.755H170.545V59.7652ZM108.055 59.4093L107.815 57.0193C106.605 57.121 105.315 57.4668 104.025 57.3142C102.735 57.1718 102.575 56.4701 102.565 55.4023C102.565 54.7616 102.535 54.0293 102.575 53.3886C102.625 52.514 102.875 51.9546 104.025 51.8224C105.315 51.68 106.605 52.0156 107.815 52.1173L108.055 49.7274C103.425 48.6188 100.535 49.168 99.8952 52.8191C99.7652 53.5818 99.8252 56.0938 100.005 56.8159C100.825 60.0093 103.655 60.4568 108.055 59.3991V59.4093ZM93.5252 49.2087H91.8352C91.8352 50.0528 91.8352 50.8969 91.8252 51.741C92.4052 51.741 92.9452 51.741 93.5352 51.7512C93.5352 52.6055 93.5352 53.5106 93.5352 54.3751C93.5352 55.2802 93.5352 56.1243 93.5352 56.8667C93.5352 57.9346 93.7452 58.8601 94.3352 59.3381C94.5852 59.5415 94.9452 59.6432 95.3852 59.694C96.4352 59.8161 97.7452 59.755 98.6352 59.4601C98.6052 58.738 98.5752 58.016 98.5452 57.2837C97.5052 57.3854 96.2252 57.6193 96.2352 57.0702C96.2352 55.2294 96.2352 53.592 96.2352 51.741C97.0652 51.741 97.8552 51.741 98.6952 51.7309C98.6952 50.8868 98.6952 50.0528 98.6952 49.2087C97.8752 49.2087 97.0652 49.2087 96.2452 49.1985C96.2452 48.3646 96.2452 47.5205 96.2452 46.6865C95.3452 46.6865 94.4352 46.6865 93.5352 46.6865C93.5352 47.5205 93.5352 48.3544 93.5352 49.1985L93.5252 49.2087ZM76.9952 59.7652L79.6252 59.8161L79.7252 49.2494H76.9852L76.9952 59.755V59.7652ZM112.855 49.0765H115.215C117.055 49.0765 118.565 50.6122 118.565 52.4835V56.521C118.565 58.3923 117.055 59.9279 115.215 59.9279H112.855C111.015 59.9279 109.505 58.3923 109.505 56.521V52.4835C109.505 50.6122 111.015 49.0765 112.855 49.0765ZM113.375 51.6393C112.715 51.6393 112.165 52.1885 112.165 52.8699V56.1548C112.165 56.8261 112.705 57.3854 113.375 57.3854H114.705C115.365 57.3854 115.915 56.8362 115.915 56.1548V52.8699C115.915 52.1987 115.375 51.6393 114.705 51.6393H113.375ZM122.965 59.7754C122.985 57.0803 123.015 54.3954 123.035 51.7004C123.695 51.7004 124.355 51.7004 125.015 51.7004C125.535 51.7004 126.055 52.0462 126.055 52.6157V59.7754H128.715L128.785 51.6902C129.505 51.6902 130.235 51.6902 130.955 51.6902C131.595 51.6902 132.015 52.0563 132.015 52.6767V59.7754H134.655L134.745 52.1479C134.765 50.5206 133.885 49.1884 132.075 49.1985C131.505 49.1985 130.925 49.2087 130.355 49.2189C129.485 49.2189 129.025 49.3918 128.495 49.9511C128.095 50.3681 128.295 50.3783 127.925 49.9816C127.395 49.4019 126.755 49.2087 125.935 49.2087H124.725C123.985 49.2392 123.515 49.4731 122.965 50.0427C122.525 50.5003 122.575 50.6427 122.575 49.9308V49.2697C121.825 49.2697 121.055 49.2697 120.315 49.2799C120.315 52.7784 120.315 56.2769 120.325 59.7754H122.955H122.965ZM160.225 59.7754C160.245 57.0803 160.275 54.3954 160.295 51.7004C160.965 51.7004 161.635 51.7004 162.295 51.7004C162.885 51.7004 163.355 52.0665 163.355 52.6767C163.355 55.0463 163.355 57.4058 163.355 59.7754H166.045C166.065 57.4261 166.085 55.0667 166.115 52.7174C166.135 50.8563 165.415 49.1985 163.235 49.1985H162.005C161.285 49.229 160.815 49.4528 160.275 49.9816C159.815 50.4393 159.825 50.6834 159.825 49.9613V49.2596H157.525C157.525 52.7581 157.535 56.2769 157.535 59.7754H160.205H160.225ZM150.215 55.2294H153.145V56.7854C153.145 57.4363 151.295 57.4566 150.115 57.4363C149.255 57.4159 149.355 57.4363 149.315 56.6633C149.305 56.3684 149.315 56.0837 149.315 55.7887C149.315 55.1887 149.435 55.2294 150.215 55.2294ZM142.575 53.3479V56.2464C142.575 56.9176 142.035 57.4769 141.365 57.4769H140.005C139.055 57.4769 139.055 57.4871 139.055 56.1142V53.0021C139.055 51.6292 139.055 51.6393 140.005 51.6393H141.365C142.025 51.6393 142.575 52.1885 142.575 52.8699V53.3479Z" clip-rule="evenodd"/><defs><linearGradient id="paint0_linear_13_12026" x1="163.125" x2="141.974" y1="36.649" y2="22.085" gradientUnits="userSpaceOnUse"><stop stop-color="#006840"/><stop offset=".4" stop-color="#007A48"/><stop offset="1" stop-color="#86C440"/></linearGradient><linearGradient id="paint1_linear_13_12026" x1="150.005" x2="162.522" y1="20.194" y2="28.813" gradientUnits="userSpaceOnUse"><stop stop-color="#006840"/><stop offset=".3" stop-color="#007A48"/><stop offset="1" stop-color="#86C440"/></linearGradient></defs></svg>