<svg width="240" height="80" viewBox="0 0 240 80" fill="none" xmlns="http://www.w3.org/2000/svg">
<path d="M73.5671 40.2903L68.1071 28.3394H64.178L72.0362 44.083H75.098L82.9035 28.3394H78.9668L73.5671 40.2903Z" fill="#3763AE"/>
<path d="M87.5565 28.3394H83.7934V44.083H87.5565V28.3394Z" fill="#3763AE"/>
<path d="M89.7662 44.083H100.573V41.2329H92.5716V37.6136H100.573V34.8012H92.5716V31.1895H100.573V28.3394H89.7662V44.083Z" fill="#3763AE"/>
<path d="M102.27 31.1895H106.305V44.083H110.339V31.1895H114.434V28.3394H102.27V31.1895Z" fill="#3763AE"/>
<path d="M124.781 28.4976L116.373 44.2412H120.468L122.707 40.1545H129.857L132.036 44.2412H136.184L127.67 28.4976H124.774H124.781ZM124.072 37.3496L126.252 32.5843L128.379 37.3496H124.065H124.072Z" fill="#3763AE"/>
<path d="M160.664 28.4976L152.255 44.2412H156.35L158.59 40.1545H165.739L167.919 44.2412H172.066L163.552 28.4976H160.656H160.664ZM159.955 37.3496L162.134 32.5843L164.261 37.3496H159.947H159.955Z" fill="#3763AE"/>
<path d="M149.947 35.5175C149.947 35.5175 151.968 34.7108 151.968 32.2829C151.968 29.855 149.706 28.2866 147.971 28.2866H139.713L139.683 28.4073V44.0001H146.961C146.961 44.0001 152.775 44.2414 152.775 39.6344C152.775 36.3771 149.947 35.5175 149.947 35.5175ZM146.546 31.0463C146.546 31.0463 148.733 31.1141 148.733 32.773C148.733 34.4318 146.719 34.5449 146.719 34.5449H142.836L142.813 31.0463H146.554H146.546ZM147.142 41.2555H142.836L142.805 37.2668H146.953C146.953 37.2668 149.374 37.3498 149.374 39.2348C149.374 41.1198 147.134 41.2555 147.134 41.2555H147.142Z" fill="#3763AE"/>
<path d="M183.944 38.3675L175.618 28.2412H172.36V44.0226H175.649V34.1677L183.831 43.9698H187.014V28.2412H183.944V38.3675Z" fill="#3763AE"/>
<path d="M199.125 43.9999H203.122L196.508 34.5296L202.798 28.2638L198.703 28.2412L192.134 34.9745V28.2412H189.057V44.0753H192.134V38.8878L194.193 36.8293L199.125 43.9999Z" fill="#3763AE"/>
<path d="M75.0452 53.0553C75.1056 53.4022 75.1433 53.8244 75.1433 54.3221V54.7745C75.1433 55.5662 75.0679 56.1694 74.9246 56.5916C74.54 57.6774 73.635 58.2278 72.1946 58.2278C71.8552 58.2278 71.5234 58.2278 71.184 58.2278C70.9201 58.2278 70.6486 58.2278 70.3846 58.2127H70C69.8492 58.1976 69.736 58.1976 69.6531 58.1901V55.0007H68.8386V54.126H69.6531V50.9139L72.1795 50.8838C72.8884 50.8838 73.4615 51.012 73.914 51.2759C74.2836 51.4945 74.5701 51.8112 74.7662 52.2184C74.8869 52.4597 74.9849 52.7386 75.0452 53.0553ZM73.4917 54.0883C73.4917 53.372 73.3937 52.897 73.19 52.6708C73.0015 52.4521 72.6169 52.3466 72.0211 52.3466C71.7647 52.3466 71.5309 52.3616 71.3047 52.3843V54.126H72.2398V55.0007H71.3047V56.7575C71.4932 56.7801 71.6893 56.7952 71.8929 56.7952H72.0739C72.6697 56.7952 73.0543 56.6746 73.2353 56.4408C73.3107 56.3503 73.3635 56.2146 73.4087 56.0412C73.4691 55.815 73.4992 55.536 73.4992 55.2042V54.0883H73.4917Z" fill="#3763AE"/>
<path d="M81.5158 54.2767V54.7517C81.5158 55.6037 81.448 56.1994 81.3047 56.5387C81.0784 57.1193 80.7315 57.5415 80.264 57.813C79.819 58.0769 79.2534 58.2126 78.5747 58.2126C77.8959 58.2126 77.3303 58.0769 76.8854 57.813C76.4103 57.534 76.0634 57.1042 75.8446 56.5387C75.7014 56.1843 75.6259 55.5886 75.6259 54.7517V54.2767C75.6259 53.2437 75.7542 52.5425 76.0106 52.1654C76.2293 51.7583 76.5158 51.4491 76.8929 51.238C77.3454 50.9666 77.9035 50.8309 78.5822 50.8309C79.2609 50.8309 79.819 50.9666 80.2715 51.238C80.6259 51.4491 80.9201 51.7583 81.1539 52.1654C81.4027 52.5575 81.5309 53.2588 81.5309 54.2767H81.5158ZM79.9925 50.4689H79.0649L78.5671 49.813L78.0769 50.4689H77.1342L78.0769 49.1343H79.0649L79.9925 50.4689ZM78.5671 56.7423C79.1026 56.7347 79.4419 56.6141 79.5852 56.3879C79.7511 56.2446 79.8341 55.8224 79.8341 55.1287V54.0278C79.8341 53.2135 79.7436 52.746 79.5551 52.6179C79.3816 52.4218 79.0498 52.3163 78.5671 52.2936C78.0845 52.3163 77.7526 52.4218 77.5792 52.6179C77.368 52.7611 77.27 53.2135 77.27 53.9826V55.1061C77.27 55.8073 77.3605 56.2371 77.5415 56.3954C77.6848 56.6216 78.0317 56.7347 78.5747 56.7498L78.5671 56.7423ZM79.6983 49.5264L78.6652 48.1768H79.8265L80.4223 49.5264H79.6983Z" fill="#3763AE"/>
<path d="M87.3454 58.1521H85.641L83.635 54.269V58.1521H81.9382V50.876H83.635L85.641 54.7139V50.876H87.3454V58.1521Z" fill="#3763AE"/>
<path d="M92.9487 57.9488C92.7149 58.0091 92.5189 58.0544 92.353 58.0845C92.1418 58.1222 91.9231 58.1524 91.6968 58.1675C91.4329 58.1901 91.1614 58.2052 90.8899 58.2052C89.4872 58.2052 88.5747 57.6472 88.1373 56.5388C87.994 56.1543 87.9261 55.5511 87.9261 54.7292V54.2542C87.9261 53.2514 88.0543 52.5501 88.3032 52.1505C88.8009 51.2608 89.6682 50.8159 90.8974 50.8159C91.4027 50.8159 91.9683 50.8838 92.5792 51.012L92.7225 52.4521C92.0739 52.3315 91.5234 52.2787 91.0634 52.2787C90.4676 52.2787 90.083 52.3843 89.8944 52.6029C89.6833 52.7462 89.5777 53.2287 89.5777 54.0431V55.1741C89.5777 55.8527 89.6757 56.2523 89.8718 56.388C90.0151 56.6293 90.3997 56.7499 91.0256 56.7499H91.3349V55.1515H90.3545L90.4902 53.8319H92.9487V57.9564V57.9488Z" fill="#3763AE"/>
<path d="M102.345 58.1523H100.633V55.1439H98.8386V58.1523H97.1493V50.8687H98.8386V53.8244H100.633V50.8687H102.345V58.1523Z" fill="#3763AE"/>
<path d="M106.931 50.8762L109.344 58.1523H107.474L107.164 57.0364H104.849L104.54 58.1523H102.67L105.083 50.8762H106.938H106.931ZM106.373 50.469L105.732 48.9761H104.487L105.596 50.469H106.373ZM105.158 55.6943H106.848L106.003 52.5651L105.158 55.6943Z" fill="#3763AE"/>
<path d="M115.03 58.1521H113.326L111.32 54.269V58.1521H109.623V50.876H111.32L113.326 54.7139V50.876H115.03V58.1521Z" fill="#3763AE"/>
<path d="M120.822 58.1523H119.11V55.1439H117.315V58.1523H115.626V50.8687H117.315V53.8244H119.11V50.8687H120.822V58.1523Z" fill="#3763AE"/>
<path d="M128.265 56.7572C128.56 56.7572 129.027 56.7044 129.653 56.5913V58.039L128.967 58.1445C128.665 58.1973 128.326 58.2199 127.964 58.2199C126.554 58.2199 125.641 57.662 125.226 56.5385C125.151 56.3349 125.098 56.0936 125.06 55.8146C125.015 55.498 124.992 55.1436 124.992 54.7364V54.2614C124.992 53.7562 125.03 53.3264 125.098 52.9645C125.158 52.6327 125.249 52.3688 125.362 52.1502C125.83 51.2454 126.704 50.793 127.971 50.793C128.446 50.793 129.005 50.8608 129.653 50.9966V52.4367C129.012 52.3311 128.499 52.2784 128.13 52.2784C127.534 52.2784 127.142 52.3839 126.953 52.6026C126.75 52.7835 126.652 53.2586 126.652 54.0427V55.1436C126.652 55.498 126.682 55.7769 126.735 55.9956C126.78 56.169 126.84 56.2972 126.916 56.3802C127.104 56.629 127.504 56.7496 128.107 56.7496H128.265V56.7572Z" fill="#3763AE"/>
<path d="M136.146 54.7442C136.146 55.5812 136.071 56.1844 135.92 56.5538C135.694 57.1344 135.354 57.5567 134.887 57.813C134.419 58.0845 133.854 58.2202 133.198 58.2202C132.541 58.2202 131.968 58.0845 131.501 57.813C131.018 57.534 130.671 57.1118 130.46 56.5538C130.317 56.2221 130.241 55.6189 130.241 54.7442V50.8762H131.893V55.1137C131.893 55.8074 131.983 56.2296 132.164 56.3955C132.315 56.6217 132.662 56.7499 133.198 56.765C133.733 56.7423 134.072 56.6217 134.216 56.3955C134.389 56.2371 134.472 55.8149 134.472 55.1438V50.8762H136.146V54.7442ZM132.919 50.469L131.81 48.9761H133.062L133.695 50.469H132.919Z" fill="#3763AE"/>
<path d="M142.127 58.1521H140.422L138.416 54.269V58.1521H136.727V50.876H138.416L140.422 54.7139V50.876H142.127V58.1521Z" fill="#3763AE"/>
<path d="M147.73 57.9488C147.496 58.0091 147.3 58.0544 147.134 58.0845C146.923 58.1222 146.704 58.1524 146.478 58.1675C146.214 58.1901 145.943 58.2052 145.671 58.2052C144.268 58.2052 143.356 57.6472 142.926 56.5388C142.783 56.1543 142.715 55.5511 142.715 54.7292V54.2542C142.715 53.2514 142.836 52.5501 143.084 52.1505C143.582 51.2608 144.449 50.8159 145.686 50.8159C146.192 50.8159 146.75 50.8838 147.368 51.012L147.511 52.4521C146.863 52.3315 146.312 52.2787 145.852 52.2787C145.256 52.2787 144.872 52.3843 144.683 52.6029C144.472 52.7462 144.367 53.2287 144.367 54.0431V55.1741C144.367 55.8527 144.465 56.2523 144.661 56.388C144.811 56.6293 145.189 56.7499 145.814 56.7499H146.124V55.1515H145.143L145.279 53.8319H147.745V57.9564L147.73 57.9488Z" fill="#3763AE"/>
<path d="M155.611 58.1523C155.581 58.0996 155.52 58.0091 155.445 57.8734L154.864 56.8555C154.736 56.6293 154.615 56.4257 154.51 56.2523L153.605 54.6839V58.1523H151.9V50.8687H153.605V54.0204L155.468 50.8687H157.24L155.083 54.322C155.083 54.322 155.113 54.3823 155.166 54.4803L155.392 54.8724C155.483 55.0232 155.596 55.2042 155.724 55.4228L157.368 58.1523H155.603H155.611Z" fill="#3763AE"/>
<path d="M163.077 58.1523H161.365V55.1439H159.57V58.1523H157.873V50.8687H159.57V53.8244H161.365V50.8687H163.077V58.1523Z" fill="#3763AE"/>
<path d="M167.662 50.8762L170.075 58.1523H168.205L167.896 57.0364H165.588L165.279 58.1523H163.409L165.822 50.8762H167.677H167.662ZM165.89 55.6943H167.579L166.735 52.5651L165.89 55.6943ZM167.029 50.469L168.137 48.9761H166.885L166.252 50.469H167.029Z" fill="#3763AE"/>
<path d="M173.695 52.286V58.1521H171.991V52.286H170.422V50.876H175.279V52.286H173.695Z" fill="#3763AE"/>
<path d="M183.65 58.1521H181.335L179.238 50.876H181.109L182.496 56.0258L183.876 50.876H185.747L183.658 58.1521H183.65Z" fill="#3763AE"/>
<path d="M191.802 54.2769V54.7519C191.802 55.6039 191.735 56.1996 191.591 56.5389C191.365 57.1195 191.018 57.5417 190.551 57.8131C190.106 58.0771 189.54 58.2128 188.861 58.2128C188.182 58.2128 187.617 58.0771 187.164 57.8131C186.689 57.5342 186.342 57.1044 186.124 56.5389C185.98 56.1845 185.905 55.5888 185.905 54.7519V54.2769C185.905 53.2439 186.033 52.5426 186.29 52.1656C186.508 51.7585 186.795 51.4493 187.164 51.2382C187.617 50.9668 188.175 50.8311 188.861 50.8311C189.548 50.8311 190.098 50.9668 190.551 51.2382C190.905 51.4493 191.199 51.7585 191.433 52.1656C191.682 52.5577 191.802 53.259 191.802 54.2769ZM188.861 56.7425C189.397 56.7349 189.736 56.6143 189.879 56.3881C190.045 56.2448 190.128 55.8226 190.128 55.1289V54.028C190.128 53.2137 190.038 52.7462 189.849 52.618C189.668 52.422 189.344 52.3164 188.861 52.2938C188.379 52.3164 188.047 52.422 187.866 52.618C187.662 52.7613 187.557 53.2137 187.557 53.9828V55.1063C187.557 55.8075 187.647 56.2373 187.828 56.3956C187.971 56.6218 188.318 56.7349 188.861 56.75V56.7425ZM189.223 59.0346C189.321 59.1402 189.374 59.2759 189.374 59.4343C189.374 59.5926 189.321 59.7208 189.223 59.8339C189.125 59.9394 189.005 59.9998 188.861 59.9998C188.718 59.9998 188.597 59.947 188.499 59.8339C188.401 59.7283 188.348 59.5926 188.348 59.4343C188.348 59.2759 188.401 59.1402 188.499 59.0346C188.597 58.9215 188.718 58.8688 188.861 58.8688C189.005 58.8688 189.125 58.9215 189.223 59.0346Z" fill="#3763AE"/>
<path d="M197.632 58.1521H195.935L193.929 54.269V58.1521H192.24V50.876H193.929L195.935 54.7139V50.876H197.632V58.1521Z" fill="#3763AE"/>
<path d="M203.235 57.9488C203.002 58.0091 202.805 58.0544 202.64 58.0845C202.421 58.1222 202.21 58.1524 201.983 58.1675C201.719 58.1901 201.448 58.2052 201.176 58.2052C199.774 58.2052 198.861 57.6472 198.424 56.5388C198.281 56.1543 198.213 55.5511 198.213 54.7292V54.2542C198.213 53.2514 198.333 52.5501 198.582 52.1505C199.08 51.2608 199.947 50.8159 201.184 50.8159C201.689 50.8159 202.247 50.8838 202.866 51.012L203.009 52.4521C202.36 52.3315 201.81 52.2787 201.35 52.2787C200.754 52.2787 200.37 52.3843 200.181 52.6029C199.962 52.7462 199.857 53.2287 199.857 54.0431V55.1741C199.857 55.8527 199.955 56.2523 200.151 56.388C200.302 56.6293 200.686 56.7499 201.305 56.7499H201.614V55.1515H200.633L200.769 53.8319H203.235V57.9564V57.9488Z" fill="#3763AE"/>
<path d="M46.644 43.9399H64.359L55.4977 28.5884L46.644 43.9399Z" fill="#ED2228"/>
<path d="M41.546 35.6382L36.7647 43.9398H46.5158L41.546 35.6382Z" fill="#ED2228"/>
<path d="M47.3379 39.3101L54.5249 26.8992L50.543 20L43.3635 32.4788L47.3379 39.3101Z" fill="#ED2228"/>
</svg>
