<svg width="166" height="40" viewBox="0 0 166 40" fill="none" xmlns="http://www.w3.org/2000/svg">
<g clip-path="url(#clip0_4_2073)">
<path d="M36.6984 20.2903L31.2538 8.33936H27.3358L35.1718 24.083H38.225L46.0083 8.33936H42.0828L36.6984 20.2903Z" fill="#3763AE"/>
<path d="M50.6482 8.33936H46.8957V24.083H50.6482V8.33936Z" fill="#3763AE"/>
<path d="M52.8517 24.083H63.628V21.2329H55.6492V17.6136H63.628V14.8012H55.6492V11.1895H63.628V8.33936H52.8517V24.083Z" fill="#3763AE"/>
<path d="M65.3201 11.1895H69.3434V24.083H73.3667V11.1895H77.4501V8.33936H65.3201V11.1895Z" fill="#3763AE"/>
<path d="M87.7678 8.49756L79.3828 24.2412H83.4663L85.6997 20.1545H92.8289L95.0022 24.2412H99.1383L90.648 8.49756H87.7603H87.7678ZM87.0609 17.3496L89.2342 12.5843L91.3549 17.3496H87.0534H87.0609Z" fill="#3763AE"/>
<path d="M123.549 8.49756L115.164 24.2412H119.247L121.481 20.1545H128.61L130.783 24.2412H134.919L126.429 8.49756H123.541H123.549ZM122.842 17.3496L125.015 12.5843L127.136 17.3496H122.834H122.842Z" fill="#3763AE"/>
<path d="M112.863 15.5175C112.863 15.5175 114.878 14.7108 114.878 12.2829C114.878 9.85495 112.622 8.28662 110.892 8.28662H102.658L102.628 8.40726V24.0001H109.885C109.885 24.0001 115.683 24.2414 115.683 19.6344C115.683 16.3771 112.863 15.5175 112.863 15.5175ZM109.471 11.0463C109.471 11.0463 111.652 11.1141 111.652 12.773C111.652 14.4318 109.644 14.5449 109.644 14.5449H105.771L105.748 11.0463H109.478H109.471ZM110.065 21.2555H105.771L105.741 17.2668H109.877C109.877 17.2668 112.291 17.3498 112.291 19.2348C112.291 21.1198 110.058 21.2555 110.058 21.2555H110.065Z" fill="#3763AE"/>
<path d="M146.763 18.3675L138.461 8.24121H135.212V24.0226H138.491V14.1677L146.651 23.9698H149.824V8.24121H146.763V18.3675Z" fill="#3763AE"/>
<path d="M161.901 23.9999H165.887L159.292 14.5296L165.564 8.26383L161.48 8.24121L154.93 14.9745V8.24121H151.862V24.0753H154.93V18.8878L156.983 16.8293L161.901 23.9999Z" fill="#3763AE"/>
<path d="M38.1723 33.0553C38.2325 33.4022 38.2701 33.8244 38.2701 34.3221V34.7745C38.2701 35.5662 38.1949 36.1694 38.052 36.5916C37.6685 37.6774 36.7661 38.2278 35.3297 38.2278C34.9913 38.2278 34.6604 38.2278 34.322 38.2278C34.0588 38.2278 33.7881 38.2278 33.5249 38.2127H33.1414C32.9909 38.1976 32.8781 38.1976 32.7954 38.1901V35.0007H31.9832V34.126H32.7954V30.9139L35.3147 30.8838C36.0216 30.8838 36.5931 31.012 37.0443 31.2759C37.4128 31.4945 37.6986 31.8112 37.8941 32.2184C38.0144 32.4597 38.1122 32.7386 38.1723 33.0553ZM36.6232 34.0883C36.6232 33.372 36.5254 32.897 36.3224 32.6708C36.1344 32.4521 35.7508 32.3466 35.1568 32.3466C34.9011 32.3466 34.6679 32.3616 34.4423 32.3843V34.126H35.3748V35.0007H34.4423V36.7575C34.6303 36.7801 34.8259 36.7952 35.0289 36.7952H35.2094C35.8035 36.7952 36.187 36.6746 36.3675 36.4408C36.4427 36.3503 36.4953 36.2146 36.5405 36.0412C36.6006 35.815 36.6307 35.536 36.6307 35.2042V34.0883H36.6232Z" fill="#3763AE"/>
<path d="M44.6246 34.2767V34.7517C44.6246 35.6037 44.5569 36.1994 44.4141 36.5387C44.1885 37.1193 43.8425 37.5415 43.3763 37.813C42.9326 38.0769 42.3686 38.2126 41.6918 38.2126C41.0149 38.2126 40.4509 38.0769 40.0072 37.813C39.5335 37.534 39.1875 37.1042 38.9695 36.5387C38.8266 36.1843 38.7514 35.5886 38.7514 34.7517V34.2767C38.7514 33.2437 38.8792 32.5425 39.1349 32.1654C39.353 31.7583 39.6388 31.4491 40.0148 31.238C40.466 30.9666 41.0225 30.8309 41.6993 30.8309C42.3761 30.8309 42.9326 30.9666 43.3838 31.238C43.7372 31.4491 44.0305 31.7583 44.2637 32.1654C44.5118 32.5575 44.6397 33.2588 44.6397 34.2767H44.6246ZM43.1055 30.4689H42.1806L41.6842 29.813L41.1954 30.4689H40.2554L41.1954 29.1343H42.1806L43.1055 30.4689ZM41.6842 36.7423C42.2182 36.7347 42.5566 36.6141 42.6995 36.3879C42.8649 36.2446 42.9476 35.8224 42.9476 35.1287V34.0278C42.9476 33.2135 42.8574 32.746 42.6694 32.6179C42.4964 32.4218 42.1655 32.3163 41.6842 32.2936C41.2029 32.3163 40.8721 32.4218 40.6991 32.6179C40.4885 32.7611 40.3908 33.2135 40.3908 33.9826V35.1061C40.3908 35.8073 40.481 36.2371 40.6615 36.3954C40.8044 36.6216 41.1503 36.7347 41.6918 36.7498L41.6842 36.7423ZM42.8123 29.5264L41.782 28.1768H42.9401L43.5342 29.5264H42.8123Z" fill="#3763AE"/>
<path d="M50.4377 38.1521H48.7381L46.7378 34.269V38.1521H45.0457V30.876H46.7378L48.7381 34.7139V30.876H50.4377V38.1521Z" fill="#3763AE"/>
<path d="M56.0252 37.9488C55.7921 38.0091 55.5966 38.0544 55.4311 38.0845C55.2206 38.1222 55.0025 38.1524 54.7769 38.1675C54.5137 38.1901 54.2429 38.2052 53.9722 38.2052C52.5735 38.2052 51.6635 37.6472 51.2274 36.5388C51.0845 36.1543 51.0168 35.5511 51.0168 34.7292V34.2542C51.0168 33.2514 51.1446 32.5501 51.3928 32.1505C51.8891 31.2608 52.7539 30.8159 53.9797 30.8159C54.4836 30.8159 55.0476 30.8838 55.6567 31.012L55.7996 32.4521C55.1529 32.3315 54.6039 32.2787 54.1452 32.2787C53.5511 32.2787 53.1676 32.3843 52.9795 32.6029C52.769 32.7462 52.6637 33.2287 52.6637 34.0431V35.1741C52.6637 35.8527 52.7615 36.2523 52.957 36.388C53.0999 36.6293 53.4834 36.7499 54.1076 36.7499H54.4159V35.1515H53.4383L53.5736 33.8319H56.0252V37.9564V37.9488Z" fill="#3763AE"/>
<path d="M65.3953 38.1523H63.6882V35.1439H61.8984V38.1523H60.2139V30.8687H61.8984V33.8244H63.6882V30.8687H65.3953V38.1523Z" fill="#3763AE"/>
<path d="M69.9676 30.8762L72.374 38.1523H70.509L70.2007 37.0364H67.892L67.5837 38.1523H65.7187L68.1251 30.8762H69.9751H69.9676ZM69.4111 30.469L68.7719 28.9761H67.531L68.6365 30.469H69.4111ZM68.2003 35.6943H69.8849L69.0426 32.5651L68.2003 35.6943Z" fill="#3763AE"/>
<path d="M78.0442 38.1521H76.3446L74.3443 34.269V38.1521H72.6523V30.876H74.3443L76.3446 34.7139V30.876H78.0442V38.1521Z" fill="#3763AE"/>
<path d="M83.8197 38.1523H82.1126V35.1439H80.3228V38.1523H78.6383V30.8687H80.3228V33.8244H82.1126V30.8687H83.8197V38.1523Z" fill="#3763AE"/>
<path d="M91.2421 36.7572C91.5354 36.7572 92.0016 36.7044 92.6258 36.5913V38.039L91.9415 38.1445C91.6407 38.1973 91.3022 38.2199 90.9413 38.2199C89.535 38.2199 88.6251 37.662 88.2115 36.5385C88.1363 36.3349 88.0836 36.0936 88.046 35.8146C88.0009 35.498 87.9783 35.1436 87.9783 34.7364V34.2614C87.9783 33.7562 88.0159 33.3264 88.0836 32.9645C88.1438 32.6327 88.234 32.3688 88.3468 32.1502C88.8131 31.2454 89.6854 30.793 90.9488 30.793C91.4226 30.793 91.9791 30.8608 92.6258 30.9966V32.4367C91.9866 32.3311 91.4752 32.2784 91.1067 32.2784C90.5126 32.2784 90.1216 32.3839 89.9336 32.6026C89.7305 32.7835 89.6328 33.2586 89.6328 34.0427V35.1436C89.6328 35.498 89.6629 35.7769 89.7155 35.9956C89.7606 36.169 89.8208 36.2972 89.896 36.3802C90.084 36.629 90.4825 36.7496 91.0842 36.7496H91.2421V36.7572Z" fill="#3763AE"/>
<path d="M99.1007 34.7442C99.1007 35.5812 99.0255 36.1844 98.8751 36.5538C98.6494 37.1344 98.311 37.5567 97.8448 37.813C97.3785 38.0845 96.8145 38.2202 96.1603 38.2202C95.506 38.2202 94.9345 38.0845 94.4682 37.813C93.987 37.534 93.641 37.1118 93.4305 36.5538C93.2876 36.2221 93.2124 35.6189 93.2124 34.7442V30.8762H94.8593V35.1137C94.8593 35.8074 94.9495 36.2296 95.13 36.3955C95.2804 36.6217 95.6263 36.7499 96.1603 36.765C96.6942 36.7423 97.0326 36.6217 97.1755 36.3955C97.3485 36.2371 97.4312 35.8149 97.4312 35.1438V30.8762H99.1007V34.7442ZM95.882 30.469L94.7766 28.9761H96.0249L96.6566 30.469H95.882Z" fill="#3763AE"/>
<path d="M105.064 38.1521H103.365L101.364 34.269V38.1521H99.6797V30.876H101.364L103.365 34.7139V30.876H105.064V38.1521Z" fill="#3763AE"/>
<path d="M110.652 37.9488C110.419 38.0091 110.223 38.0544 110.058 38.0845C109.847 38.1222 109.629 38.1524 109.403 38.1675C109.14 38.1901 108.869 38.2052 108.599 38.2052C107.2 38.2052 106.29 37.6472 105.861 36.5388C105.718 36.1543 105.651 35.5511 105.651 34.7292V34.2542C105.651 33.2514 105.771 32.5501 106.019 32.1505C106.516 31.2608 107.38 30.8159 108.614 30.8159C109.118 30.8159 109.674 30.8838 110.291 31.012L110.434 32.4521C109.787 32.3315 109.238 32.2787 108.779 32.2787C108.185 32.2787 107.801 32.3843 107.613 32.6029C107.403 32.7462 107.298 33.2287 107.298 34.0431V35.1741C107.298 35.8527 107.395 36.2523 107.591 36.388C107.741 36.6293 108.117 36.7499 108.742 36.7499H109.05V35.1515H108.072L108.208 33.8319H110.667V37.9564L110.652 37.9488Z" fill="#3763AE"/>
<path d="M118.51 38.1523C118.48 38.0996 118.42 38.0091 118.345 37.8734L117.766 36.8555C117.638 36.6293 117.518 36.4257 117.412 36.2523L116.51 34.6839V38.1523H114.81V30.8687H116.51V34.0204L118.367 30.8687H120.135L117.984 34.322C117.984 34.322 118.014 34.3823 118.066 34.4803L118.292 34.8724C118.382 35.0232 118.495 35.2042 118.623 35.4228L120.262 38.1523H118.503H118.51Z" fill="#3763AE"/>
<path d="M125.955 38.1523H124.248V35.1439H122.458V38.1523H120.766V30.8687H122.458V33.8244H124.248V30.8687H125.955V38.1523Z" fill="#3763AE"/>
<path d="M130.527 30.8762L132.934 38.1523H131.069L130.761 37.0364H128.459L128.151 38.1523H126.286L128.692 30.8762H130.542H130.527ZM128.76 35.6943H130.445L129.602 32.5651L128.76 35.6943ZM129.896 30.469L131.001 28.9761H129.753L129.121 30.469H129.896Z" fill="#3763AE"/>
<path d="M136.544 32.286V38.1521H134.844V32.286H133.28V30.876H138.123V32.286H136.544Z" fill="#3763AE"/>
<path d="M146.47 38.1521H144.161L142.071 30.876H143.936L145.32 36.0258L146.696 30.876H148.561L146.478 38.1521H146.47Z" fill="#3763AE"/>
<path d="M154.599 34.2769V34.7519C154.599 35.6039 154.532 36.1996 154.389 36.5389C154.163 37.1195 153.817 37.5417 153.351 37.8131C152.907 38.0771 152.343 38.2128 151.667 38.2128C150.99 38.2128 150.426 38.0771 149.975 37.8131C149.501 37.5342 149.155 37.1044 148.937 36.5389C148.794 36.1845 148.719 35.5888 148.719 34.7519V34.2769C148.719 33.2439 148.847 32.5426 149.102 32.1656C149.32 31.7585 149.606 31.4493 149.975 31.2382C150.426 30.9668 150.982 30.8311 151.667 30.8311C152.351 30.8311 152.9 30.9668 153.351 31.2382C153.705 31.4493 153.998 31.7585 154.231 32.1656C154.479 32.5577 154.599 33.259 154.599 34.2769ZM151.667 36.7425C152.201 36.7349 152.539 36.6143 152.682 36.3881C152.847 36.2448 152.93 35.8226 152.93 35.1289V34.028C152.93 33.2137 152.84 32.7462 152.652 32.618C152.471 32.422 152.148 32.3164 151.667 32.2938C151.185 32.3164 150.854 32.422 150.674 32.618C150.471 32.7613 150.366 33.2137 150.366 33.9828V35.1063C150.366 35.8075 150.456 36.2373 150.636 36.3956C150.779 36.6218 151.125 36.7349 151.667 36.75V36.7425ZM152.028 39.0346C152.125 39.1402 152.178 39.2759 152.178 39.4343C152.178 39.5926 152.125 39.7208 152.028 39.8339C151.93 39.9394 151.809 39.9998 151.667 39.9998C151.524 39.9998 151.403 39.947 151.306 39.8339C151.208 39.7283 151.155 39.5926 151.155 39.4343C151.155 39.2759 151.208 39.1402 151.306 39.0346C151.403 38.9215 151.524 38.8688 151.667 38.8688C151.809 38.8688 151.93 38.9215 152.028 39.0346Z" fill="#3763AE"/>
<path d="M160.412 38.1521H158.72L156.72 34.269V38.1521H155.036V30.876H156.72L158.72 34.7139V30.876H160.412V38.1521Z" fill="#3763AE"/>
<path d="M166 37.9488C165.767 38.0091 165.571 38.0544 165.406 38.0845C165.188 38.1222 164.977 38.1524 164.752 38.1675C164.488 38.1901 164.218 38.2052 163.947 38.2052C162.548 38.2052 161.638 37.6472 161.202 36.5388C161.059 36.1543 160.992 35.5511 160.992 34.7292V34.2542C160.992 33.2514 161.112 32.5501 161.36 32.1505C161.856 31.2608 162.721 30.8159 163.955 30.8159C164.458 30.8159 165.015 30.8838 165.632 31.012L165.774 32.4521C165.128 32.3315 164.579 32.2787 164.12 32.2787C163.526 32.2787 163.142 32.3843 162.954 32.6029C162.736 32.7462 162.631 33.2287 162.631 34.0431V35.1741C162.631 35.8527 162.729 36.2523 162.924 36.388C163.075 36.6293 163.458 36.7499 164.075 36.7499H164.383V35.1515H163.406L163.541 33.8319H166V37.9564V37.9488Z" fill="#3763AE"/>
<path d="M9.85141 23.9399H27.5163L18.6801 8.58838L9.85141 23.9399Z" fill="#ED2228"/>
<path d="M4.76778 15.6382L0 23.9398H9.72357L4.76778 15.6382Z" fill="#ED2228"/>
<path d="M10.5433 19.3101L17.71 6.89915L13.7393 0L6.58014 12.4788L10.5433 19.3101Z" fill="#ED2228"/>
</g>
<defs>
<clipPath id="clip0_4_2073">
<rect width="166" height="40" fill="white"/>
</clipPath>
</defs>
</svg>
