<svg width="40" height="40" viewBox="0 0 40 40" fill="none" xmlns="http://www.w3.org/2000/svg">
<path fill-rule="evenodd" clip-rule="evenodd" d="M14.3967 1.48877C11.5913 2.05291 10.5545 3.33365 10.6612 5.16329C10.7984 7.74003 13.6344 12.6496 14.9913 14.8299C17.3546 18.6569 20.1601 22.1027 23.2705 25.2893C25.7862 27.7746 27.3719 28.3234 30.0706 24.6489C32.3729 21.6148 34.4922 18.6111 36.3066 14.8451C37.0995 13.1984 37.8466 11.3993 38.5022 9.37146C39.2036 7.00817 38.9596 4.91934 36.6421 3.39464C38.8681 4.47718 39.8439 6.47453 39.9811 8.68534C40.1184 10.8199 39.478 13.1375 38.9901 14.8451C37.7856 19.099 36.2304 23.3834 34.2635 27.2409C32.7846 30.1531 30.8939 33.6599 29.0033 36.2519C24.8257 42 20.8309 40.1399 16.1349 36.2519C13.1617 33.7819 10.2953 30.6715 7.84053 27.2562C5.35527 23.8256 2.62606 18.7331 1.00988 14.8146C-1.20093 9.46294 0.521977 6.71848 3.25118 4.98033C6.25484 3.07445 10.7527 1.99192 14.3967 1.48877Z" fill="url(#paint0_linear_4_3913)"/>
<path fill-rule="evenodd" clip-rule="evenodd" d="M14.29 13.7017C18.6354 13.0461 29.9334 12.3447 33.8976 14.403C35.2241 15.0892 35.2546 16.0192 35.1326 17.0713C35.529 16.3547 35.9102 15.6076 36.2914 14.8452C37.0842 13.1985 37.8313 11.3994 38.4869 9.37154C39.1883 7.00826 38.9444 4.91943 36.6268 3.39473C35.773 2.93732 34.7819 2.61713 33.8976 2.35793C31.2904 1.59558 28.3935 1.29065 25.4813 1.07719C24.2768 0.985706 23.0265 1.00095 21.7458 1.00095C19.4435 1.00095 16.9125 1.15342 14.3967 1.48886C11.5913 2.05299 10.5545 3.33374 10.6612 5.16338C10.7832 7.35894 12.8568 11.2469 14.3052 13.7017H14.29Z" fill="url(#paint1_linear_4_3913)"/>
<defs>
<linearGradient id="paint0_linear_4_3913" x1="35.1174" y1="25.9602" x2="3.22069" y2="3.62335" gradientUnits="userSpaceOnUse">
<stop stop-color="#006840"/>
<stop offset="0.4" stop-color="#007A48"/>
<stop offset="1" stop-color="#86C440"/>
</linearGradient>
<linearGradient id="paint1_linear_4_3913" x1="15.1133" y1="1.29065" x2="33.9891" y2="14.5098" gradientUnits="userSpaceOnUse">
<stop stop-color="#006840"/>
<stop offset="0.3" stop-color="#007A48"/>
<stop offset="1" stop-color="#86C440"/>
</linearGradient>
</defs>
</svg>
