<svg width="116" height="40" viewBox="0 0 116 40" fill="none" xmlns="http://www.w3.org/2000/svg">
<g clip-path="url(#clip0_4_2089)">
<path fill-rule="evenodd" clip-rule="evenodd" d="M87.3579 0C85.5343 0.381872 84.8604 1.24882 84.9298 2.48733C85.019 4.23156 86.8623 7.55487 87.7444 9.03076C89.2805 11.6213 91.104 13.9538 93.1258 16.1109C94.761 17.7932 95.7917 18.1647 97.5459 15.6774C99.0424 13.6235 100.42 11.5903 101.599 9.04108C102.115 7.92643 102.6 6.70856 103.026 5.33589C103.482 3.73615 103.324 2.32219 101.817 1.29011C103.264 2.02289 103.899 3.37492 103.988 4.87145C104.077 6.31637 103.661 7.88514 103.344 9.04108C102.561 11.9206 101.55 14.8208 100.271 17.4319C99.31 19.4032 98.0811 21.777 96.8522 23.5316C94.1367 27.4225 91.5401 26.1634 88.4877 23.5316C86.5551 21.8596 84.6919 19.7541 83.0963 17.4423C81.4809 15.1201 79.7069 11.6729 78.6564 9.02044C77.2194 5.39781 78.3393 3.54006 80.1133 2.36348C82.0656 1.07337 84.9892 0.340589 87.3579 0Z" fill="url(#paint0_linear_4_2089)"/>
<path fill-rule="evenodd" clip-rule="evenodd" d="M87.4517 8.69368C90.3816 8.24494 97.9993 7.7649 100.672 9.17373C101.567 9.64334 101.587 10.2799 101.505 11C101.772 10.5095 102.029 9.99816 102.286 9.47637C102.821 8.3493 103.325 7.11788 103.767 5.72991C104.24 4.11236 104.075 2.68266 102.512 1.63908C101.937 1.326 101.268 1.10685 100.672 0.92944C98.9143 0.407649 96.961 0.198933 94.9975 0.0528313C94.1853 -0.00978357 93.3423 0.000652238 92.4788 0.000652238C90.9265 0.000652238 89.2199 0.10501 87.5237 0.334598C85.6321 0.720723 84.933 1.59733 85.005 2.84963C85.0872 4.35239 86.4854 7.01352 87.462 8.69368H87.4517Z" fill="url(#paint1_linear_4_2089)"/>
<path fill-rule="evenodd" clip-rule="evenodd" d="M80.0994 39.9073C81.5944 39.7231 82.8587 38.9455 83.2801 36.6435C83.551 35.1701 83.5108 32.7964 83.1095 31.4152C82.9189 30.7706 82.6379 30.2283 82.2265 29.8702C81.5242 29.2768 80.7516 29.1642 80.0693 29.1438C78.9154 29.1028 78.2933 29.3075 77.4605 29.993C77.3 30.126 77.1595 30.1874 77.1595 29.9521L77.1294 25.0409L74.4604 25.0819V39.1604C75.6143 39.9482 78.7649 40.071 80.1094 39.9073H80.0994ZM8.52896 39.6413C9.09085 39.6413 8.98047 39.6924 9.32162 39.2116C11.6394 35.9682 13.8368 29.0517 13.8067 25.1944C12.723 25.1432 11.6394 25.3274 10.5457 25.5934C9.50223 31.9267 8.57913 33.5945 6.9035 36.8276C5.22787 33.5945 4.30477 31.9267 3.26126 25.5934C2.16759 25.3274 1.07391 25.1432 0.000305732 25.1944C-0.0297954 29.0517 2.16759 35.9682 4.48537 39.2116C4.82652 39.6924 4.71615 39.6413 5.27804 39.6413H8.53899H8.52896ZM85.2366 29.6656L85.4975 32.1416C86.5511 32.0393 87.414 31.7528 88.5277 31.6709C90.1933 31.6096 91.2569 31.5686 91.2067 32.8066C89.9625 32.8066 88.6983 32.8066 87.4039 32.8169C85.8286 32.8271 84.5243 33.5945 84.6948 36.8481C84.9055 40.7668 89.4608 40.47 91.5378 38.9046V39.7845H93.9559C93.8957 35.784 94.1767 31.5891 93.4743 30.4534C92.1298 28.2843 87.7049 29.0824 85.2366 29.6656ZM28.2552 39.3139C28.1649 38.5056 28.0746 37.6973 27.9843 36.8992C26.8906 37.1039 25.0143 37.3904 23.9106 37.3494C22.6364 37.3085 22.1648 36.6844 22.1648 34.8325C22.5661 35.3031 23.138 35.6305 23.8504 35.6408C25.516 35.6612 27.0713 35.6919 28.7067 35.6305C28.777 32.5509 29.0379 29.86 26.0177 29.1949C24.7936 28.9289 23.1581 28.9289 21.9942 29.287C20.7199 29.6758 20.0878 30.2897 19.7165 31.5891C19.0342 34.0037 19.2249 37.595 20.75 38.9762C22.5059 40.5621 26.0277 39.9994 28.2352 39.3241L28.2552 39.3139ZM23.3889 31.5789H24.7234C25.3856 31.5789 25.9374 32.1314 25.9374 32.8169V33.3694H22.1848V32.8169C22.1848 32.1416 22.7267 31.5789 23.3989 31.5789H23.3889ZM108.716 39.7641L108.796 35.2315C108.796 34.9553 109.047 35.3236 109.107 35.4361C109.99 36.9402 110.803 38.0759 112.107 39.406C112.478 39.7845 112.548 39.7538 113.201 39.7538H116C113.953 38.0349 112.819 36.6537 111.736 34.5665C111.515 34.0856 111.525 34.1367 111.836 33.6866C112.237 33.2057 112.749 32.5713 113.311 31.9063L115.699 29.0414C115.699 29.0414 115.719 29.0005 115.729 28.9801H113.191C112.729 28.9801 112.739 28.9084 112.418 29.2665C111.455 30.3306 110.341 31.5686 109.448 32.5815C109.338 32.7043 109.207 32.7964 109.097 32.8783C108.726 33.1443 108.796 33.0727 108.796 32.6941L108.776 25L106.077 25.0205L106.047 39.7538H108.716V39.7641ZM46.0149 39.406L45.7741 37.0016C44.56 37.1039 43.2657 37.4517 41.9713 37.2983C40.677 37.155 40.5164 36.4491 40.5064 35.3748C40.5064 34.7302 40.4763 33.9935 40.5164 33.3489C40.5666 32.469 40.8174 31.9063 41.9713 31.7733C43.2657 31.63 44.56 31.9677 45.7741 32.07L46.0149 29.6656C41.3693 28.5503 38.4695 29.1028 37.8274 32.7759C37.6969 33.5433 37.7571 36.0705 37.9378 36.7969C38.7605 40.0096 41.6001 40.4598 46.0149 39.3957V39.406ZM31.4359 29.1438H29.7402C29.7402 29.993 29.7402 30.8422 29.7302 31.6914C30.3121 31.6914 30.854 31.6914 31.4459 31.7016C31.4459 32.5611 31.4459 33.4717 31.4459 34.3414C31.4459 35.252 31.4459 36.1012 31.4459 36.8481C31.4459 37.9224 31.6567 38.8535 32.2486 39.3343C32.4995 39.539 32.8607 39.6413 33.3022 39.6924C34.3557 39.8152 35.6701 39.7538 36.5631 39.4571C36.533 38.7307 36.5029 38.0042 36.4728 37.2676C35.4293 37.3699 34.145 37.6052 34.155 37.0527C34.155 35.2008 34.155 33.5535 34.155 31.6914C34.9878 31.6914 35.7805 31.6914 36.6233 31.6812C36.6233 30.832 36.6233 29.993 36.6233 29.1438C35.8006 29.1438 34.9878 29.1438 34.1651 29.1335C34.1651 28.2945 34.1651 27.4453 34.1651 26.6063C33.262 26.6063 32.349 26.6063 31.4459 26.6063C31.4459 27.4453 31.4459 28.2843 31.4459 29.1335L31.4359 29.1438ZM14.8502 39.7641L17.4891 39.8152L17.5894 29.1847H14.8402L14.8502 39.7538V39.7641ZM50.8311 29.0108H53.199C55.0452 29.0108 56.5603 30.5557 56.5603 32.4383V36.5002C56.5603 38.3828 55.0452 39.9278 53.199 39.9278H50.8311C48.9849 39.9278 47.4698 38.3828 47.4698 36.5002V32.4383C47.4698 30.5557 48.9849 29.0108 50.8311 29.0108ZM51.3528 31.5891C50.6906 31.5891 50.1387 32.1416 50.1387 32.8271V36.1319C50.1387 36.8072 50.6806 37.3699 51.3528 37.3699H52.6873C53.3495 37.3699 53.9014 36.8174 53.9014 36.1319V32.8271C53.9014 32.1518 53.3596 31.5891 52.6873 31.5891H51.3528ZM60.9751 39.7743C60.9952 37.0629 61.0253 34.3618 61.0454 31.6505C61.7076 31.6505 62.3698 31.6505 63.0321 31.6505C63.5538 31.6505 64.0756 31.9984 64.0756 32.5713V39.7743H66.7445L66.8148 31.6402C67.5372 31.6402 68.2696 31.6402 68.9921 31.6402C69.6342 31.6402 70.0556 32.0086 70.0556 32.6327V39.7743H72.7046L72.7949 32.1007C72.8149 30.4636 71.932 29.1233 70.1159 29.1335C69.5439 29.1335 68.962 29.1438 68.3901 29.154C67.5171 29.154 67.0556 29.3279 66.5238 29.8907C66.1224 30.3102 66.3231 30.3204 65.9519 29.9214C65.4201 29.3382 64.7779 29.1438 63.9552 29.1438H62.7411C61.9986 29.1745 61.527 29.4098 60.9751 29.9827C60.5337 30.4432 60.5838 30.5864 60.5838 29.8702V29.2052C59.8313 29.2052 59.0587 29.2052 58.3162 29.2154C58.3162 32.735 58.3162 36.2547 58.3262 39.7743H60.9651H60.9751ZM98.3607 39.7743C98.3808 37.0629 98.4109 34.3618 98.431 31.6505C99.1032 31.6505 99.7755 31.6505 100.438 31.6505C101.03 31.6505 101.501 32.0188 101.501 32.6327C101.501 35.0166 101.501 37.3904 101.501 39.7743H104.2C104.22 37.4108 104.24 35.0371 104.271 32.6736C104.291 30.8013 103.568 29.1335 101.381 29.1335H100.147C99.4243 29.1642 98.9527 29.3893 98.4109 29.9214C97.9494 30.3818 97.9594 30.6273 97.9594 29.9009V29.1949H95.6516C95.6516 32.7146 95.6617 36.2547 95.6617 39.7743H98.3407H98.3607ZM88.317 35.2008H91.2569V36.7662C91.2569 37.421 89.4006 37.4415 88.2167 37.4211C87.3538 37.4006 87.4541 37.4211 87.414 36.6435C87.4039 36.3467 87.414 36.0603 87.414 35.7635C87.414 35.1599 87.5344 35.2008 88.317 35.2008ZM80.6512 33.308V36.224C80.6512 36.8992 80.1094 37.462 79.4372 37.462H78.0726C77.1194 37.462 77.1194 37.4722 77.1194 36.091V32.9601C77.1194 31.5789 77.1194 31.5891 78.0726 31.5891H79.4372C80.0994 31.5891 80.6512 32.1416 80.6512 32.8271V33.308Z" fill="#004522"/>
</g>
<defs>
<linearGradient id="paint0_linear_4_2089" x1="100.826" y1="16.565" x2="79.5478" y2="2.25637" gradientUnits="userSpaceOnUse">
<stop stop-color="#006840"/>
<stop offset="0.4" stop-color="#007A48"/>
<stop offset="1" stop-color="#86C440"/>
</linearGradient>
<linearGradient id="paint1_linear_4_2089" x1="88.0069" y1="0.198933" x2="100.859" y2="9.06548" gradientUnits="userSpaceOnUse">
<stop stop-color="#006840"/>
<stop offset="0.3" stop-color="#007A48"/>
<stop offset="1" stop-color="#86C440"/>
</linearGradient>
<clipPath id="clip0_4_2089">
<rect width="116" height="40" fill="white"/>
</clipPath>
</defs>
</svg>
