<svg width="135" height="40" viewBox="0 0 135 40" fill="none" xmlns="http://www.w3.org/2000/svg">
<path d="M11.0918 9.69336H6.92151L6.86928 9.82377C6.75609 10.0933 6.69515 10.3802 6.69515 10.6584C6.69515 10.7801 6.71256 10.9192 6.73868 11.0583C6.7648 11.2061 6.80833 11.3365 6.86928 11.4495L6.93022 11.5625H7.92274L5.70263 18.3958L3.55217 11.5625H4.5621L4.61434 11.4495C4.67529 11.3278 4.71882 11.1974 4.73623 11.0583C4.76235 10.9279 4.77976 10.7975 4.77976 10.6671C4.77976 10.4062 4.71882 10.128 4.62305 9.84115L4.57952 9.70205H0.226364L0.174126 9.83246C0.0609441 10.128 0 10.4063 0 10.6845C0 10.8062 0.0174126 10.9453 0.0435315 11.0844C0.0696504 11.2235 0.121888 11.3539 0.182832 11.4669L0.23507 11.5712H1.07958L4.30092 21.5691H6.85186L10.2125 11.5712H11.0657L11.118 11.4582C11.1789 11.3365 11.2224 11.2061 11.2485 11.0583C11.2747 10.9192 11.2834 10.7888 11.2834 10.6671C11.2834 10.4062 11.2311 10.128 11.1354 9.83246L11.0831 9.70205L11.0918 9.69336Z" fill="#123985"/>
<path d="M15.6539 19.6739H14.8442V12.9536H11.6316L11.588 13.0927C11.4923 13.3448 11.44 13.5883 11.44 13.8317C11.44 14.0751 11.4836 14.3272 11.5793 14.5707L11.6229 14.7098H12.4326V19.6826H11.6229L11.5793 19.813C11.4836 20.0564 11.4313 20.3085 11.4313 20.552C11.4313 20.7954 11.4749 21.0388 11.5706 21.2909L11.6142 21.43H15.6365L15.68 21.2909C15.7671 21.0388 15.8193 20.7954 15.8193 20.552C15.8193 20.3085 15.7758 20.0651 15.68 19.813L15.6278 19.6739H15.6539Z" fill="#123985"/>
<path d="M13.4425 12.2583C13.8169 12.2583 14.1477 12.1192 14.4263 11.841C14.6962 11.5628 14.8355 11.2151 14.8355 10.8151C14.8355 10.4152 14.6962 10.0588 14.4263 9.78928C14.1564 9.51108 13.8256 9.36328 13.4425 9.36328C13.0595 9.36328 12.7373 9.50238 12.4674 9.78928C12.1888 10.0675 12.0582 10.4152 12.0582 10.8151C12.0582 11.2151 12.1975 11.5628 12.4674 11.841C12.7373 12.1192 13.0682 12.2583 13.4425 12.2583Z" fill="#123985"/>
<path d="M23.2632 14.136C22.9759 13.7274 22.5842 13.3797 22.1053 13.1275C21.6178 12.8667 21.0083 12.7363 20.2944 12.7363C19.624 12.7363 19.032 12.8667 18.5357 13.1275C18.0482 13.3797 17.639 13.7274 17.3168 14.1447C17.0034 14.562 16.7683 15.0402 16.6203 15.5705C16.481 16.0921 16.4027 16.6398 16.4027 17.1789C16.4027 17.7179 16.481 18.2917 16.6465 18.8046C16.8119 19.3349 17.0644 19.8218 17.4126 20.2304C17.7609 20.6477 18.2223 20.9954 18.7708 21.2475C19.3193 21.4997 19.9984 21.6301 20.7558 21.6301C21.2695 21.6301 21.7832 21.5518 22.2794 21.404C22.7757 21.2562 23.1936 21.091 23.5506 20.9085L23.6637 20.8563V18.735L23.359 18.9089C22.8889 19.1697 22.4449 19.3697 22.0444 19.5088C21.6613 19.6392 21.2173 19.7087 20.7384 19.7087C20.4685 19.7087 20.2247 19.6566 19.9984 19.5523C19.7807 19.4566 19.5892 19.3175 19.4238 19.1436C19.2671 18.9698 19.1365 18.7611 19.0407 18.5177C18.971 18.3351 18.9188 18.1526 18.8927 17.9526H24.0207V17.005C24.0207 16.5181 23.9685 16.0139 23.8553 15.5183C23.7421 15.0054 23.5331 14.5446 23.2545 14.1273M20.2596 14.5794C20.6862 14.5794 20.9996 14.7272 21.2173 15.0228C21.4175 15.3097 21.5307 15.7009 21.5655 16.1965H18.9101C18.9885 15.727 19.1278 15.3358 19.3193 15.0402C19.5369 14.7185 19.833 14.5707 20.2596 14.5707" fill="#123985"/>
<path d="M29.14 19.5955C28.992 19.6216 28.8266 19.639 28.6525 19.639C28.4784 19.639 28.3478 19.5955 28.252 19.5173C28.1998 19.4738 28.1127 19.3521 28.1127 18.9783V14.727H29.6624L29.706 14.5792C29.793 14.2923 29.8365 14.0402 29.8365 13.8228C29.8365 13.5794 29.793 13.336 29.706 13.0839L29.6537 12.9448H28.1214V9.91064L25.7011 11.1625V12.9448H24.7956L24.7521 13.0839C24.6563 13.336 24.6128 13.5794 24.6128 13.8228C24.6128 14.0402 24.6563 14.2923 24.7521 14.5879L24.7956 14.727H25.7011V18.8392C25.7011 19.6911 25.8926 20.3519 26.2757 20.8126C26.6675 21.2821 27.3117 21.5168 28.1911 21.5168C28.4348 21.5168 28.7134 21.4908 29.0182 21.4386C29.3229 21.3864 29.6189 21.2995 29.9062 21.1778L30.0368 21.1256V19.2304L29.7408 19.3782C29.497 19.4999 29.2968 19.5781 29.1575 19.6042" fill="#123985"/>
<path d="M43.3487 9.63238C43.2007 9.59761 43.0614 9.58022 42.9221 9.58022C42.6609 9.58022 42.3562 9.64108 42.0254 9.76279L41.8948 9.81495V10.1279C41.6249 9.93667 41.3202 9.78018 40.998 9.66716C40.5279 9.50198 40.049 9.41504 39.5789 9.41504C38.7083 9.41504 37.9247 9.58891 37.2456 9.92797C36.5665 10.267 35.9919 10.7278 35.5305 11.2929C35.069 11.8667 34.7121 12.5361 34.4857 13.2925C34.2593 14.0488 34.1375 14.8486 34.1375 15.6919C34.1375 16.5352 34.2506 17.3525 34.4857 18.074C34.7208 18.813 35.069 19.4477 35.5392 19.9867C36.0093 20.5257 36.5926 20.9517 37.2891 21.256C37.9856 21.5516 38.7953 21.708 39.7182 21.708C40.1709 21.708 40.5975 21.6646 41.0067 21.5776C41.4072 21.4994 41.7816 21.3864 42.1124 21.2647C42.4433 21.1429 42.748 21.0125 43.0179 20.8647C43.2878 20.717 43.5054 20.5952 43.6883 20.4735L43.784 20.4127V17.622L43.4445 17.9176C43.2007 18.1262 42.9395 18.3349 42.6696 18.5348C42.4084 18.7261 42.1211 18.9 41.8251 19.0477C41.5291 19.1955 41.207 19.3173 40.8587 19.4129C40.5192 19.5085 40.1535 19.552 39.753 19.552C39.3525 19.552 38.9956 19.4737 38.6473 19.3173C38.2904 19.1608 37.9856 18.9173 37.7157 18.6044C37.4371 18.2827 37.2195 17.8741 37.0541 17.3785C36.8886 16.883 36.8016 16.2831 36.8016 15.605C36.8016 15.0834 36.8625 14.5704 36.9757 14.0575C37.0889 13.562 37.2717 13.1099 37.5155 12.7187C37.7506 12.3361 38.0553 12.0145 38.4122 11.7797C38.7692 11.5537 39.1958 11.432 39.6921 11.432C40.406 11.432 40.9458 11.6233 41.294 11.9884C41.651 12.3622 41.8338 12.8404 41.8338 13.4142V14.4574L41.9644 14.5096C42.2953 14.64 42.6087 14.7095 42.9047 14.7095C43.0527 14.7095 43.2094 14.6922 43.3574 14.6574C43.5054 14.6226 43.6534 14.5704 43.784 14.5009L43.8885 14.44V9.84973L43.784 9.78887C43.6534 9.71932 43.5141 9.66716 43.3748 9.63238" fill="#123985"/>
<path d="M58.7153 22.2995H57.7664V20.752C57.9057 20.8824 58.0798 21.0041 58.2713 21.1084C58.6631 21.3171 59.1245 21.4301 59.6295 21.4301C60.3434 21.4301 60.9442 21.2736 61.423 20.9693C61.8931 20.6651 62.2762 20.2825 62.5548 19.8218C62.8421 19.3697 63.0424 18.8654 63.1469 18.3351C63.26 17.8135 63.3123 17.3093 63.3123 16.8398C63.3123 16.2399 63.2252 15.6835 63.0685 15.188C62.9031 14.6924 62.668 14.2577 62.372 13.8926C62.0673 13.5275 61.6929 13.2406 61.2489 13.0406C60.8049 12.8407 60.3173 12.7363 59.7775 12.7363C59.1507 12.7363 58.6283 12.858 58.2191 13.1015C57.984 13.2406 57.7751 13.3971 57.5922 13.5709L57.54 12.945H54.4841L54.4318 13.0841C54.3448 13.3275 54.2925 13.5796 54.2925 13.8231C54.2925 14.0665 54.3361 14.3099 54.4318 14.562L54.4841 14.7011H55.3547V22.2995H54.4841L54.4318 22.4386C54.3448 22.682 54.2925 22.9341 54.2925 23.1776C54.2925 23.421 54.3361 23.6731 54.4318 23.9165L54.4841 24.0556H58.7066L58.7589 23.9165C58.8459 23.6731 58.8895 23.421 58.8895 23.1776C58.8895 22.9341 58.8459 22.6907 58.7502 22.4386L58.6979 22.2995H58.7153ZM59.2725 14.6577C59.6295 14.6577 59.9168 14.7446 60.1171 14.9011C60.3347 15.075 60.5001 15.2923 60.6133 15.5357C60.7265 15.7878 60.7962 16.0574 60.831 16.3356C60.8658 16.6224 60.8832 16.8746 60.8832 17.0745C60.8832 17.8396 60.7265 18.4481 60.4392 18.9089C60.1606 19.3349 59.7862 19.5436 59.3161 19.5436C59.1333 19.5436 58.9504 19.5088 58.7589 19.4392C58.576 19.3784 58.4193 19.2567 58.2713 19.0915C58.1146 18.9176 57.984 18.6829 57.8795 18.3699C57.7751 18.0569 57.7228 17.6483 57.7228 17.1441C57.7228 16.9267 57.7402 16.6572 57.7664 16.3616C57.7925 16.0834 57.8621 15.8052 57.9753 15.5444C58.0798 15.301 58.2365 15.0836 58.4542 14.9098C58.6544 14.7446 58.933 14.6663 59.29 14.6663" fill="#123985"/>
<path d="M64.1394 19.6737L64.0871 19.8041C64.0001 20.0475 63.9478 20.2997 63.9478 20.5431C63.9478 20.7865 64.0001 21.0299 64.0871 21.2821L64.1394 21.4125H68.153L68.2052 21.2734C68.2923 21.0212 68.3445 20.7778 68.3445 20.5344C68.3445 20.291 68.301 20.0475 68.2052 19.7954L68.153 19.6563H67.3433V12.936H64.1394L64.0871 13.0751C64.0001 13.3273 63.9478 13.5707 63.9478 13.8141C63.9478 14.0575 64.0001 14.3097 64.0871 14.5531L64.1394 14.6922H64.9491V19.665H64.1394V19.6737Z" fill="#123985"/>
<path d="M65.9503 12.2583C66.3246 12.2583 66.6555 12.1105 66.9254 11.841C67.1953 11.5628 67.3346 11.2151 67.3346 10.8151C67.3346 10.4152 67.1953 10.0588 66.9254 9.78928C66.6555 9.51108 66.3246 9.36328 65.9503 9.36328C65.5759 9.36328 65.2451 9.50238 64.9752 9.78928C64.7053 10.0675 64.566 10.4065 64.566 10.8151C64.566 11.2237 64.7053 11.5628 64.9752 11.841C65.2538 12.1192 65.5759 12.2583 65.9503 12.2583Z" fill="#123985"/>
<path d="M73.9775 19.2218L73.6814 19.3696C73.429 19.4913 73.2287 19.5695 73.0981 19.6043C72.9501 19.6304 72.7934 19.6478 72.6106 19.6478C72.4451 19.6478 72.3058 19.6043 72.2014 19.5261C72.1491 19.4826 72.0708 19.3609 72.0708 18.987V14.7358H73.6205L73.664 14.588C73.7511 14.3011 73.7946 14.049 73.7946 13.8316C73.7946 13.5882 73.7511 13.3448 73.6553 13.0927L73.6118 12.9536H72.0708V9.91943L69.6504 11.1713V12.9536H68.745L68.7014 13.0927C68.6057 13.3448 68.5621 13.5882 68.5621 13.8316C68.5621 14.049 68.6057 14.3011 68.7014 14.5967L68.745 14.7358H69.6504V18.8479C69.6504 19.6999 69.842 20.3694 70.225 20.8214C70.6168 21.2909 71.2611 21.5256 72.1404 21.5256C72.3929 21.5256 72.6715 21.4995 72.9675 21.4474C73.2722 21.3952 73.5683 21.3083 73.8469 21.1866L73.9687 21.1344V19.2392L73.9775 19.2218Z" fill="#123985"/>
<path d="M84.3292 19.6738L84.277 19.8129C84.1812 20.065 84.1377 20.3085 84.1377 20.5519C84.1377 20.7953 84.1812 21.0387 84.277 21.2909L84.3292 21.4213H88.3428L88.3951 21.2822C88.4908 21.03 88.5344 20.7866 88.5344 20.5432C88.5344 20.2998 88.4908 20.0476 88.3951 19.8042L88.3428 19.6738H87.5331V9.69336H84.3205L84.2683 9.83246C84.1725 10.0846 84.129 10.328 84.129 10.5714C84.129 10.8149 84.1725 11.0583 84.2683 11.3104L84.3205 11.4408H85.1302V19.6738H84.3205H84.3292Z" fill="#123985"/>
<path d="M53.744 19.6825H52.8734V12.9448H50.6794L50.5227 13.6751C50.366 13.5186 50.1832 13.3882 49.9655 13.2665C49.5737 13.0578 49.121 12.9535 48.6073 12.9535C47.8934 12.9535 47.2927 13.11 46.8138 13.4143C46.3437 13.7186 45.9606 14.1011 45.682 14.5619C45.4034 15.0139 45.2032 15.5182 45.09 16.0485C44.9768 16.5701 44.9246 17.0744 44.9246 17.5438C44.9246 18.1437 45.0029 18.7001 45.1683 19.1957C45.3338 19.6912 45.5688 20.1346 45.8648 20.491C46.1696 20.8562 46.5439 21.1431 46.988 21.343C47.4233 21.543 47.9195 21.6473 48.4593 21.6473C49.0775 21.6473 49.6086 21.5256 50.0177 21.2822C50.2528 21.1431 50.4705 20.9779 50.6533 20.7953L50.7404 21.43H53.744L53.7963 21.2909C53.8833 21.0387 53.9356 20.7953 53.9356 20.5519C53.9356 20.3085 53.8921 20.065 53.7963 19.8129L53.744 19.6825ZM48.973 19.726C48.6073 19.726 48.32 19.6477 48.1285 19.4825C47.9108 19.3 47.7454 19.0913 47.6409 18.8479C47.5277 18.5958 47.4581 18.3263 47.4233 18.0481C47.3972 17.7525 47.3797 17.5004 47.3797 17.3091C47.3797 16.544 47.5277 15.9268 47.8238 15.4747C48.0937 15.0487 48.468 14.8401 48.9469 14.8401C49.1297 14.8401 49.3125 14.8748 49.5041 14.9444C49.6782 15.0139 49.8523 15.127 49.9916 15.2921C50.1396 15.4573 50.2789 15.7008 50.3834 16.0137C50.4879 16.3267 50.5401 16.7353 50.5401 17.2396C50.5401 17.4569 50.5227 17.7264 50.4966 18.022C50.4705 18.3089 50.3921 18.5871 50.2876 18.8392C50.1832 19.0826 50.0265 19.3 49.8088 19.4825C49.6086 19.6477 49.33 19.726 48.9817 19.726" fill="#123985"/>
<path d="M75.4141 20.4821C75.7188 20.8473 76.0932 21.1342 76.5372 21.3341C76.9812 21.5341 77.4688 21.6384 78.0085 21.6384C78.6354 21.6384 79.1578 21.5167 79.567 21.2733C79.8107 21.1342 80.0197 20.969 80.2025 20.7864L80.2809 21.4211H83.2933L83.3455 21.282C83.4326 21.0298 83.4848 20.7864 83.4848 20.543C83.4848 20.2996 83.4413 20.0561 83.3455 19.804L83.2933 19.6649H82.4226V12.9272H80.2287L80.0719 13.6662C79.9152 13.5097 79.7237 13.3793 79.5147 13.2576C79.1317 13.049 78.6702 12.9446 78.1566 12.9446C77.4426 12.9446 76.8419 13.1011 76.3631 13.4054C75.8929 13.7097 75.5098 14.0922 75.2312 14.553C74.9526 15.0051 74.7524 15.5093 74.6392 16.0396C74.526 16.5699 74.4738 17.0742 74.4738 17.5349C74.4738 18.1348 74.5521 18.6912 74.7176 19.1868C74.883 19.6823 75.1181 20.117 75.4141 20.4821ZM80.0371 18.0218C80.011 18.3087 79.9326 18.5869 79.8282 18.839C79.7237 19.0824 79.5583 19.2998 79.3493 19.4824C79.1491 19.6475 78.8705 19.7258 78.5135 19.7258C78.1566 19.7258 77.8692 19.6475 77.6603 19.4824C77.4513 19.2998 77.2772 19.0911 77.1727 18.8477C77.0596 18.5956 76.9812 18.3261 76.9551 18.0479C76.929 17.7523 76.9116 17.5089 76.9116 17.3089C76.9116 16.5439 77.0596 15.9266 77.3556 15.4745C77.6342 15.0485 77.9998 14.8399 78.4787 14.8399C78.6615 14.8399 78.8531 14.8747 79.0359 14.9442C79.2187 15.0138 79.3841 15.1268 79.5321 15.292C79.6802 15.4571 79.8108 15.7006 79.9152 16.0135C80.0197 16.3265 80.0719 16.7351 80.0719 17.2394C80.0719 17.448 80.0545 17.7088 80.0284 18.0218" fill="#123985"/>
<path d="M69.1281 36.7048H68.3446V30.5757H66.2725L66.1331 31.2016C66.0026 31.0799 65.8458 30.9756 65.6804 30.88C65.3235 30.68 64.8969 30.5844 64.4267 30.5844C63.7737 30.5844 63.2165 30.7322 62.7725 31.0104C62.3372 31.2886 61.989 31.645 61.7278 32.071C61.4666 32.4883 61.2924 32.9404 61.1793 33.4359C61.0748 33.9228 61.0226 34.3836 61.0226 34.8096C61.0226 35.3573 61.1009 35.8615 61.2576 36.3223C61.3969 36.783 61.6146 37.183 61.8932 37.5133C62.1718 37.8437 62.52 38.1132 62.9292 38.3045C63.3384 38.4957 63.7912 38.5913 64.2874 38.5913C64.862 38.5913 65.3496 38.4783 65.724 38.2523C65.9242 38.1393 66.0983 38.0089 66.2463 37.8611L66.316 38.3914H69.1281L69.1804 38.2349C69.2674 38.0002 69.311 37.7741 69.311 37.5481C69.311 37.3221 69.2674 37.096 69.1804 36.8613L69.1281 36.7048ZM64.7488 36.7483C64.4267 36.7483 64.1829 36.6787 64.0001 36.5309C63.8086 36.3744 63.6606 36.1832 63.5735 35.9745C63.4777 35.7485 63.4081 35.5137 63.3733 35.2703C63.3471 35.0008 63.3384 34.7748 63.3384 34.6009C63.3384 33.9141 63.4777 33.3577 63.7302 32.9578C63.9827 32.5753 64.2961 32.4014 64.714 32.4014C64.8794 32.4014 65.0449 32.4275 65.2103 32.497C65.367 32.5579 65.515 32.6622 65.6456 32.8013C65.7762 32.9578 65.8981 33.1751 65.9851 33.4446C66.0809 33.7228 66.1331 34.0967 66.1331 34.5487C66.1331 34.74 66.1244 34.9747 66.0896 35.2442C66.0635 35.5051 66.0026 35.7485 65.9068 35.9745C65.8197 36.1919 65.6717 36.3831 65.4889 36.5309C65.3148 36.6787 65.071 36.7483 64.7576 36.7483" fill="#123985"/>
<path d="M59.6294 33.1495C59.4553 32.9147 59.2551 32.7148 59.0374 32.567C58.9329 32.4974 58.8285 32.4279 58.724 32.367C59.0287 32.0888 59.2551 31.7758 59.3857 31.4368C59.5598 31.0021 59.6469 30.5848 59.6469 30.1675C59.6469 29.7502 59.5772 29.4024 59.4379 29.0547C59.2986 28.7069 59.0809 28.394 58.7936 28.1245C58.515 27.8549 58.1494 27.6463 57.7315 27.4985C57.3136 27.3507 56.8086 27.2725 56.2427 27.2725H51.0102L50.9493 27.455C50.8709 27.7419 50.8274 28.0114 50.8274 28.2462C50.8274 28.507 50.8709 28.7591 50.958 28.9938L51.0276 29.1503H51.8895V36.5313H51.0102L50.9493 36.7052C50.8622 36.966 50.8187 37.2181 50.8187 37.4703C50.8187 37.7224 50.8622 37.9745 50.9493 38.2353L51.0102 38.4092H56.4081C57.035 38.4092 57.5835 38.3223 58.0536 38.1571C58.5237 37.9832 58.9329 37.7398 59.2464 37.4355C59.5685 37.1312 59.8036 36.7574 59.9516 36.3401C60.1083 35.9315 60.1779 35.4794 60.1779 35.0099C60.1779 34.61 60.1257 34.2623 60.0212 33.958C59.9168 33.6624 59.7774 33.3929 59.6033 33.1581M57.1133 29.8806C57.1569 30.0284 57.1743 30.1762 57.1743 30.3327C57.1743 30.7413 57.0611 31.063 56.8347 31.3064C56.6258 31.5411 56.2601 31.6541 55.7551 31.6541H54.2577V29.2286H55.7638C56.0686 29.2286 56.3123 29.2633 56.5039 29.3242C56.678 29.385 56.8173 29.4633 56.9131 29.5676C57.0001 29.6546 57.0698 29.7676 57.0959 29.8893M54.2489 33.6102H56.0512C56.5561 33.6102 56.9653 33.7319 57.27 33.9667C57.5573 34.1927 57.6966 34.5057 57.6966 34.9578C57.6966 35.4098 57.5748 35.7837 57.3397 36.0619C57.122 36.3314 56.739 36.4618 56.1992 36.4618H54.2489V33.6015V33.6102Z" fill="#123985"/>
<path d="M78.8357 36.6444H78.026V33.1321C78.026 32.1844 77.7822 31.4455 77.3121 30.9238C76.8332 30.3935 76.128 30.124 75.2312 30.124C74.6392 30.124 74.1168 30.2544 73.7163 30.4979C73.5335 30.6109 73.3768 30.7239 73.2375 30.8456L73.194 30.324H70.2774L70.2164 30.4892C70.1293 30.7326 70.0858 30.9673 70.0858 31.2021C70.0858 31.4368 70.1293 31.6715 70.2164 31.9149L70.2774 32.0801H71.087V36.6357H70.2774L70.2164 36.8008C70.1293 37.0443 70.0858 37.2877 70.0858 37.5137C70.0858 37.7398 70.1293 37.9832 70.2164 38.2266L70.2774 38.3918H74.1604L74.2213 38.2266C74.3084 37.9832 74.3519 37.7485 74.3519 37.5137C74.3519 37.279 74.3084 37.0356 74.2213 36.8008L74.1604 36.6357H73.4726V33.8102C73.4726 33.4277 73.5248 33.106 73.6032 32.8799C73.6902 32.6539 73.7947 32.4713 73.9166 32.3496C74.0211 32.2279 74.1604 32.141 74.291 32.0975C74.4477 32.054 74.6044 32.028 74.735 32.028C75.1007 32.028 75.3444 32.1149 75.4489 32.2975C75.5795 32.5235 75.6491 32.8626 75.6491 33.3146V36.6357H74.9613L74.9004 36.8008C74.8133 37.0443 74.7698 37.279 74.7698 37.5137C74.7698 37.7485 74.8133 37.9919 74.9004 38.2266L74.9613 38.3918H78.8357L78.8966 38.2266C78.9837 37.9832 79.0272 37.7485 79.0272 37.5137C79.0272 37.279 78.975 37.0443 78.8966 36.8008L78.8357 36.6357V36.6444Z" fill="#123985"/>
<path d="M88.5519 37.1656C88.5258 37.0526 88.4996 36.9396 88.4735 36.8352L88.4213 36.644H87.5681L85.644 33.3751L87.124 32.0884H88.134L88.1949 31.932C88.2907 31.6972 88.3516 31.4538 88.3516 31.2104C88.3516 30.9669 88.2994 30.7148 88.1949 30.4801L88.134 30.3236H84.0246L83.9637 30.4888C83.8766 30.7235 83.8331 30.9669 83.8331 31.1843C83.8331 31.4364 83.8853 31.6711 83.9898 31.8885L84.0594 32.0276H84.2945L83.2236 32.9404V26.8374H80.0458L79.9849 27.0026C79.8804 27.2547 79.8369 27.5068 79.8369 27.7329C79.8369 27.9763 79.8891 28.2197 79.9936 28.4718L80.0545 28.6283H80.8468V36.6353H80.0545L79.9849 36.7831C79.8804 37.0265 79.8282 37.2699 79.8282 37.5134C79.8282 37.7568 79.8717 37.9915 79.9588 38.2263L80.0197 38.3914H83.6241L83.7025 38.2784C83.7808 38.1654 83.8331 38.0437 83.8592 37.9133C83.894 37.7916 83.9027 37.6699 83.9027 37.5568C83.9027 37.3047 83.8418 37.0613 83.7286 36.8352L83.6589 36.6875H83.2149V35.3834L83.8243 34.8618L84.8691 36.6875H84.5209L84.4512 36.8266C84.338 37.0526 84.2771 37.296 84.2771 37.5568C84.2771 37.6785 84.2945 37.7916 84.3206 37.9133C84.3467 38.035 84.3903 38.1567 84.4512 38.261L84.5209 38.3914H88.3603L88.4213 38.2263C88.5083 37.9828 88.5519 37.7481 88.5519 37.5134C88.5519 37.3917 88.5519 37.2699 88.5171 37.1569" fill="#123985"/>
<mask id="mask0_5_7133" style="mask-type:luminance" maskUnits="userSpaceOnUse" x="100" y="0" width="30" height="33">
<path d="M114.975 0C109.02 0 103.666 2.59944 100.001 6.72029C100.053 6.75507 104.084 9.61532 105.294 13.7362C106.348 17.005 105.529 19.7436 105.129 21.0911C104.963 21.604 104.815 22.0735 104.685 22.4908C103.875 24.9772 103.544 26.0118 103.483 27.6636V27.7158C103.422 30.2022 105.277 32.2713 107.619 32.3322C109.125 32.3669 110.509 31.5758 111.319 30.2283C112.66 27.681 112.146 24.6121 111.954 23.7253V23.6992C111.954 23.6992 111.946 23.6645 111.937 23.6384V23.621C111.58 22.1083 110.979 20.4912 110.204 18.9437C109.046 16.4399 108.333 14.4404 108.019 12.8146C107.758 11.4323 107.767 10.2934 108.054 9.14586C105.59 7.63314 105.938 5.48577 106.365 4.3382L106.53 3.88612L106.539 3.86004L106.556 3.81657H106.565C106.565 3.81657 107.401 5.00762 108.838 5.56402C108.986 5.61618 109.134 5.66834 109.29 5.70312C109.499 5.75528 109.717 5.79875 109.926 5.82483C110.109 5.84222 110.291 5.85091 110.483 5.85091C110.518 5.85091 110.544 5.85091 110.579 5.85091C111.04 5.81614 111.51 5.66834 111.763 5.57271C111.772 5.57271 111.806 5.55532 111.763 5.57271L111.946 5.49447C113.617 4.84243 116.699 3.86004 118.771 5.30321C119.947 6.03348 120.513 7.09412 120.513 7.09412C123.804 8.31995 124.117 10.589 124.317 12.093L124.404 12.7538L123.865 12.3626C122.811 11.5714 121.975 11.1976 121.227 11.1802H121.157C120.6 11.1802 119.964 11.3367 119.451 11.5975C117.753 12.4756 117.465 14.0318 117.457 14.0491C116.926 15.9705 117.657 17.6397 120.278 20.4565C120.312 20.4912 123.987 24.1079 124.718 25.2467C125.911 26.829 126.729 28.4026 127.147 29.9066C127.147 29.9153 127.173 29.9762 127.217 30.037C127.217 30.037 127.338 30.2022 127.495 30.2022C127.582 30.2022 127.669 30.15 127.756 30.037C128.2 29.1763 127.957 27.881 127.669 26.942C127.521 26.4726 126.999 25.212 126.99 25.2033V25.1859C126.99 25.1859 126.973 25.1511 126.964 25.1337C125.893 22.6734 125.362 20.0218 125.432 17.4832C125.484 15.6749 125.797 13.884 126.389 12.18C126.468 11.9018 126.564 11.6062 126.677 11.3193C126.677 11.3193 126.694 11.2758 126.729 11.1889C127.278 9.75442 127.896 8.71117 128.148 8.33733C128.566 7.64183 129.027 6.92025 129.559 6.30299C125.911 2.42556 120.73 0.00869398 114.975 0.00869398V0Z" fill="white"/>
</mask>
<g mask="url(#mask0_5_7133)">
<path d="M123.045 -12.2325L86.5615 7.13818L106.516 44.6131L142.999 25.2424L123.045 -12.2325Z" fill="url(#paint0_linear_5_7133)"/>
</g>
<mask id="mask1_5_7133" style="mask-type:luminance" maskUnits="userSpaceOnUse" x="111" y="5" width="1" height="1">
<path d="M111.754 5.58984C111.728 5.59854 111.737 5.59854 111.754 5.58984V5.58984Z" fill="white"/>
</mask>
<g mask="url(#mask1_5_7133)">
<path d="M111.756 5.57371L111.733 5.58594L111.745 5.60896L111.768 5.59674L111.756 5.57371Z" fill="url(#paint1_linear_5_7133)"/>
</g>
<mask id="mask2_5_7133" style="mask-type:luminance" maskUnits="userSpaceOnUse" x="94" y="6" width="41" height="34">
<path d="M110.718 9.31948C108.881 13.0056 111.615 16.7092 113.609 19.4216L113.73 19.5781C114.044 20.0041 114.331 20.4475 114.61 20.9257C115.254 21.9081 116.09 23.4295 116.464 25.0987L116.482 25.1422C116.482 25.1422 116.482 25.1682 116.482 25.1856C116.482 25.1943 116.482 25.203 116.482 25.2204C116.508 25.3247 116.525 25.4464 116.551 25.5855C116.551 25.6203 116.56 25.6464 116.569 25.6812V25.7072C116.708 26.4723 116.743 27.2547 116.682 28.0285C116.665 28.2806 116.63 28.5501 116.577 28.8283C116.308 30.8714 115.393 32.7492 113.983 34.1141C112.573 35.4877 110.762 36.2441 108.898 36.2441C108.829 36.2441 108.768 36.2441 108.716 36.2441C108.698 36.2441 108.672 36.2441 108.655 36.2441C108.637 36.2441 108.629 36.2441 108.611 36.2441C105.973 36.2267 104.127 34.4532 104.11 34.4358V34.4184C103.161 33.6186 102.465 32.584 102.09 31.4278C101.019 28.6371 101.742 25.5508 101.751 25.516C101.942 24.5075 102.238 23.5599 102.499 22.7253C102.9 21.4212 103.283 20.2041 103.257 19.0391V19.0304V19.013C103.257 18.9522 103.257 18.9 103.257 18.8479C103.257 16.5788 102.195 14.414 100.427 13.0665C99.931 12.7014 98.8166 11.9972 96.9186 11.3799C95.6649 13.9967 94.9597 16.9178 94.9597 20.0041C94.9597 31.0452 103.927 39.9998 114.984 39.9998C126.041 39.9998 135 31.0452 135 20.0041C135 16.6396 134.173 13.4751 132.702 10.6931C132.205 11.1104 130.577 12.5883 129.489 14.9617C129.384 15.1965 129.297 15.4138 129.21 15.6138C129.21 15.6225 129.21 15.6399 129.202 15.6485C128.557 17.2917 128.209 19.0217 128.166 20.804C128.148 21.3951 128.166 21.995 128.218 22.5862C128.261 23.0643 128.366 23.6468 128.522 24.3336C128.749 25.2552 129.054 26.2376 129.141 26.5158C129.463 27.4634 130.246 30.7844 126.668 33.7403L126.616 33.7838C126.207 34.1315 125.771 34.4706 125.345 34.7749C125.04 34.9835 124.709 35.1922 124.343 35.4182C124.248 35.4877 124.143 35.5486 124.056 35.6095C123.621 35.8616 123.186 36.105 122.733 36.3137C122.637 36.3484 122.576 36.3658 122.515 36.3658C122.428 36.3658 122.358 36.3397 122.315 36.2789C122.237 36.1746 122.263 36.0181 122.28 35.9398L122.297 35.8964C123.699 31.4886 122.593 28.098 121.418 26.0289C120.765 24.9596 119.86 23.9337 119.381 23.4121L119.355 23.386C119.242 23.273 119.137 23.16 119.024 23.047L118.963 22.9861C118.58 22.5862 118.179 22.1689 117.788 21.7429C116.908 20.7866 116.212 19.7868 115.707 18.7696C114.732 16.7266 114.836 15.0574 115.106 14.0141C115.341 13.0752 115.742 12.4666 115.872 12.2841C115.698 12.3014 115.541 12.3101 115.376 12.3101C112.982 12.3101 112.842 10.0671 112.834 10.0411V9.99759L113.286 10.1367C113.286 10.1367 114.253 10.4323 115.263 10.4671C115.933 10.4844 116.464 10.3801 116.847 10.1715C117.587 9.82372 117.962 9.24123 117.997 8.45879C117.91 7.31991 117.013 6.81567 116.212 6.71134C115.994 6.68526 115.768 6.66787 115.55 6.65918C115.498 6.65918 115.437 6.65918 115.385 6.65918C112.12 6.65918 110.779 9.23254 110.718 9.33686V9.31948Z" fill="white"/>
</mask>
<g mask="url(#mask2_5_7133)">
<path d="M126.165 -9.9284L81.11 13.9932L103.774 56.5574L148.829 32.6359L126.165 -9.9284Z" fill="url(#paint2_linear_5_7133)"/>
</g>
<defs>
<linearGradient id="paint0_linear_5_7133" x1="100.852" y1="23.8012" x2="130.59" y2="7.96629" gradientUnits="userSpaceOnUse">
<stop stop-color="#82222F"/>
<stop offset="0.12" stop-color="#82222F"/>
<stop offset="0.77" stop-color="#ED1A39"/>
<stop offset="1" stop-color="#ED1A39"/>
</linearGradient>
<linearGradient id="paint1_linear_5_7133" x1="112.476" y1="5.79879" x2="112.492" y2="5.79062" gradientUnits="userSpaceOnUse">
<stop stop-color="#82222F"/>
<stop offset="0.12" stop-color="#82222F"/>
<stop offset="0.77" stop-color="#ED1A39"/>
<stop offset="1" stop-color="#ED1A39"/>
</linearGradient>
<linearGradient id="paint2_linear_5_7133" x1="1019.66" y1="-457.523" x2="1055" y2="-476.34" gradientUnits="userSpaceOnUse">
<stop stop-color="#82222F"/>
<stop offset="0.12" stop-color="#82222F"/>
<stop offset="0.77" stop-color="#ED1A39"/>
<stop offset="1" stop-color="#ED1A39"/>
</linearGradient>
</defs>
</svg>
