<svg xmlns="http://www.w3.org/2000/svg" width="160" height="40" fill="none" viewBox="0 0 160 40"><g clip-path="url(#clip0_4_2093)"><path fill="#005791" d="M45.9103 29.0442V25.8524H43.7005V22.4404H39.668V25.8524H37.6543V29.0442H39.668V34.9235C39.668 36.7886 41.2066 39.5545 44.5384 39.5545L45.9054 39.5105L45.9089 35.9467C45.7667 35.9609 45.6785 35.968 45.6494 35.968C44.4882 35.968 43.6993 35.0183 43.6993 34.0196V29.0459L45.9103 29.0442Z"/><path fill="#005791" d="M33.0339 31.2077C32.7594 29.651 31.3925 28.53 29.8393 28.53C28.3596 28.53 26.924 29.5629 26.6447 31.2077H33.0339ZM36.8998 33.9491H26.5761C26.6447 35.447 27.9676 36.9548 29.8393 36.9548C30.8143 36.9548 32.0344 36.4457 32.7007 35.2561H36.5372C36.106 36.5142 35.1212 37.8017 33.9893 38.6388C32.784 39.5297 31.3729 39.9605 29.8883 39.9605C27.8941 39.9605 26.1988 39.2556 24.7926 37.8408C23.3815 36.4359 22.7102 34.5218 22.7102 32.6958C22.7102 30.8405 23.3619 29.0439 24.7436 27.6145C26.1449 26.1606 27.9431 25.4214 29.8589 25.4214C31.76 25.4214 33.5974 26.1606 34.9791 27.6145C36.3314 29.0439 37.0664 30.865 37.0076 32.877C36.9969 33.1853 36.9534 33.6651 36.8998 33.9491Z"/><path fill="#005791" d="M17.1392 29.4751C17.1392 27.3065 18.908 25.8477 20.7699 25.8477H21.1667V39.5546H17.149L17.1392 29.4751Z"/><path fill="#005791" d="M47.537 29.4751C47.537 27.3065 49.3107 25.8477 51.1677 25.8477H51.5646V39.5546H47.5517L47.537 29.4751Z"/><path fill="#005791" d="M62.192 39.5542V31.2664C62.192 30.1894 61.364 29.0635 59.997 29.0635C58.3115 29.0635 57.7039 30.4147 57.7039 31.3301V39.5542H53.6078V25.8767H57.4295V27.3305H57.4835C58.2283 26.327 59.6443 25.4165 61.3396 25.4165C64.3971 25.4165 66.2883 27.918 66.2883 30.3216V39.5542H62.192Z"/><path fill="#005791" d="M94.0401 35.1779C93.413 35.8436 92.6241 36.1766 91.6735 36.1766C90.7524 36.1766 89.9733 35.8387 89.3315 35.1681C88.7043 34.5024 88.3908 33.6946 88.3908 32.74C88.3908 31.7462 88.6898 30.9189 89.2972 30.2532C89.9146 29.558 90.6985 29.2154 91.649 29.2154C92.6045 29.2154 93.4032 29.5483 94.0303 30.1993C94.6526 30.8602 94.9711 31.6875 94.9711 32.691C94.9711 33.6848 94.6624 34.517 94.0401 35.1779ZM95.025 25.862V27.316H94.9759C94.5937 26.6796 94.0253 26.1851 93.2659 25.8474C92.5848 25.5486 91.8401 25.3921 91.0316 25.3921C89.0472 25.3921 87.4058 26.1117 86.1172 27.546C84.8727 28.9363 84.2504 30.6448 84.2504 32.691C84.2504 34.7667 84.8629 36.4947 86.0829 37.8703C87.347 39.29 88.9983 39.9998 91.0316 39.9998C91.8499 39.9998 92.5946 39.8531 93.2757 39.5543C94.0695 39.2115 94.6329 38.7074 94.9759 38.0515H95.025V39.5299H99.0574V25.862H95.025Z"/><path fill="#005791" fill-rule="evenodd" d="M139.318 11.2984L148.692 11.2984V19.5422C152.175 20.0758 155.473 21.192 158.476 22.783C159.451 20.722 160 18.4163 160 15.9784C160 7.15213 152.832 0 144.002 0C135.168 0 128.015 7.15213 128.015 15.9784C128.015 18.4065 128.559 20.7122 129.529 22.7732C132.537 21.1821 135.825 20.0709 139.318 19.5422V11.2984Z" clip-rule="evenodd"/><path fill="#D71147" fill-rule="evenodd" d="M144.002 31.9273C149.593 31.9273 154.512 29.0586 157.379 24.7116C153.385 22.6017 148.824 21.4023 143.988 21.4023C139.162 21.4023 134.615 22.5968 130.626 24.7067C133.488 29.0538 138.402 31.9273 144.002 31.9273Z" clip-rule="evenodd"/><path fill="#005791" d="M109.685 39.5542V31.2664C109.685 30.1894 108.857 29.0635 107.49 29.0635C105.804 29.0635 105.197 30.4147 105.197 31.3301V39.5542H101.101V25.8767H104.922V27.3305H104.976C105.716 26.327 107.137 25.4165 108.832 25.4165C111.89 25.4165 113.776 27.918 113.776 30.3216V39.5542H109.685Z"/><path fill="#005791" d="M9.03016 39.5448C10.0689 39.5448 11.4898 38.9819 12.1513 37.2734C13.8515 32.8823 19.0403 19.7383 19.0403 19.7383H14.8902L9.95133 32.3095L5.01732 19.7383H-3.8147e-06L7.78566 39.5448H9.03016Z"/><path fill="#005791" d="M76.7295 35.8925H72.9371V31.1832H76.656C78.3464 31.1832 79.0569 32.6077 79.0569 33.4595C79.0569 34.9379 77.9054 35.8925 76.7295 35.8925ZM72.9567 23.4192H75.9358C77.1852 23.4192 78.0965 24.359 78.0965 25.4703C78.0965 26.7284 76.9794 27.5264 75.9358 27.5264H72.9567V23.4192ZM79.8898 28.9215C82.5259 27.4872 82.3641 25.0347 82.0947 23.6835C81.7565 21.9898 79.9584 19.7379 75.9015 19.7575H68.3412V39.5542H76.0387C81.0118 39.5542 83.2804 36.6709 83.2167 33.5525C83.1883 32.1574 82.7953 29.8321 79.8898 28.9215Z"/><path fill="#005791" d="M123.737 31.9371L129.529 25.8571H124.399L119.999 30.7329L120.013 23.3213C120.013 21.1527 118.234 19.6938 116.382 19.6938H115.819V39.5298H119.998V33.3763L124.143 39.5298H129.528L123.737 31.9371Z"/></g><defs><clipPath id="clip0_4_2093"><rect width="160" height="40" fill="#fff"/></clipPath></defs></svg>