<svg width="240" height="80" viewBox="0 0 240 80" fill="none" xmlns="http://www.w3.org/2000/svg">
<path d="M63.673 29.6934H59.5087L59.4565 29.8238C59.3435 30.0933 59.2826 30.3802 59.2826 30.6584C59.2826 30.7801 59.3 30.9192 59.3261 31.0583C59.3522 31.2061 59.3957 31.3365 59.4565 31.4495L59.5174 31.5625H60.5085L58.2915 38.3958L56.1442 31.5625H57.1527L57.2048 31.4495C57.2657 31.3278 57.3091 31.1974 57.3265 31.0583C57.3526 30.9279 57.37 30.7975 57.37 30.6671C57.37 30.4062 57.3092 30.128 57.2135 29.8412L57.17 29.7021H52.8232L52.771 29.8325C52.658 30.128 52.5971 30.4063 52.5971 30.6845C52.5971 30.8062 52.6145 30.9453 52.6406 31.0844C52.6667 31.2235 52.7188 31.3539 52.7797 31.4669L52.8319 31.5712H53.6752L56.8918 41.5691H59.4391L62.7949 31.5712H63.6469L63.6991 31.4582C63.7599 31.3365 63.8034 31.2061 63.8295 31.0583C63.8556 30.9192 63.8643 30.7888 63.8643 30.6671C63.8643 30.4062 63.8121 30.128 63.7165 29.8325L63.6643 29.7021L63.673 29.6934Z" fill="#123985"/>
<path d="M68.2285 39.6739H67.42V32.9536H64.212L64.1685 33.0927C64.0729 33.3448 64.0207 33.5883 64.0207 33.8317C64.0207 34.0751 64.0642 34.3272 64.1598 34.5707L64.2033 34.7098H65.0118V39.6826H64.2033L64.1598 39.813C64.0642 40.0564 64.012 40.3085 64.012 40.552C64.012 40.7954 64.0555 41.0388 64.1511 41.2909L64.1946 41.43H68.2111L68.2546 41.2909C68.3415 41.0388 68.3937 40.7954 68.3937 40.552C68.3937 40.3085 68.3502 40.0651 68.2546 39.813L68.2024 39.6739H68.2285Z" fill="#123985"/>
<path d="M66.0203 32.2583C66.3941 32.2583 66.7245 32.1192 67.0027 31.841C67.2722 31.5628 67.4113 31.2151 67.4113 30.8151C67.4113 30.4152 67.2722 30.0588 67.0027 29.7893C66.7332 29.5111 66.4028 29.3633 66.0203 29.3633C65.6378 29.3633 65.3161 29.5024 65.0466 29.7893C64.7684 30.0675 64.638 30.4152 64.638 30.8151C64.638 31.2151 64.7771 31.5628 65.0466 31.841C65.3161 32.1192 65.6465 32.2583 66.0203 32.2583Z" fill="#123985"/>
<path d="M75.8269 34.136C75.54 33.7274 75.1488 33.3797 74.6706 33.1275C74.1838 32.8667 73.5752 32.7363 72.8623 32.7363C72.1929 32.7363 71.6017 32.8667 71.1062 33.1275C70.6193 33.3797 70.2107 33.7274 69.8891 34.1447C69.5761 34.562 69.3414 35.0402 69.1936 35.5705C69.0545 36.0921 68.9762 36.6398 68.9762 37.1789C68.9762 37.7179 69.0545 38.2917 69.2196 38.8046C69.3848 39.3349 69.6369 39.8218 69.9847 40.2304C70.3324 40.6477 70.7932 40.9954 71.3409 41.2475C71.8886 41.4997 72.5667 41.6301 73.3231 41.6301C73.836 41.6301 74.349 41.5518 74.8445 41.404C75.3401 41.2562 75.7574 41.091 76.1138 40.9085L76.2268 40.8563V38.735L75.9225 38.9089C75.4531 39.1697 75.0097 39.3697 74.6098 39.5088C74.2273 39.6392 73.7839 39.7087 73.3057 39.7087C73.0362 39.7087 72.7928 39.6566 72.5667 39.5523C72.3494 39.4566 72.1581 39.3175 71.993 39.1436C71.8365 38.9698 71.7061 38.7611 71.6104 38.5177C71.5409 38.3351 71.4887 38.1526 71.4626 37.9526H76.5833V37.005C76.5833 36.5181 76.5311 36.0139 76.4181 35.5183C76.3051 35.0054 76.0964 34.5446 75.8182 34.1273M72.8276 34.5794C73.2536 34.5794 73.5665 34.7272 73.7839 35.0228C73.9838 35.3097 74.0968 35.7009 74.1316 36.1965H71.48C71.5583 35.727 71.6974 35.3358 71.8886 35.0402C72.106 34.7185 72.4016 34.5707 72.8276 34.5707" fill="#123985"/>
<path d="M81.6952 39.5955C81.5474 39.6216 81.3823 39.639 81.2084 39.639C81.0345 39.639 80.9041 39.5955 80.8085 39.5173C80.7563 39.4738 80.6694 39.3521 80.6694 38.9783V34.727H82.2169L82.2603 34.5792C82.3473 34.2923 82.3907 34.0402 82.3907 33.8228C82.3907 33.5794 82.3473 33.336 82.2603 33.0839L82.2082 32.9448H80.6781V29.9106L78.2612 31.1625V32.9448H77.357L77.3136 33.0839C77.2179 33.336 77.1745 33.5794 77.1745 33.8228C77.1745 34.0402 77.2179 34.2923 77.3136 34.5879L77.357 34.727H78.2612V38.8392C78.2612 39.6911 78.4525 40.3519 78.835 40.8126C79.2262 41.2821 79.8695 41.5168 80.7476 41.5168C80.991 41.5168 81.2692 41.4908 81.5735 41.4386C81.8778 41.3864 82.1734 41.2995 82.4603 41.1778L82.5907 41.1256V39.2304L82.2951 39.3782C82.0517 39.4999 81.8517 39.5781 81.7126 39.6042" fill="#123985"/>
<path d="M95.8835 29.6324C95.7357 29.5976 95.5966 29.5802 95.4575 29.5802C95.1966 29.5802 94.8924 29.6411 94.562 29.7628L94.4316 29.815V30.1279C94.1621 29.9367 93.8578 29.7802 93.5361 29.6672C93.0667 29.502 92.5885 29.415 92.1191 29.415C91.2497 29.415 90.4672 29.5889 89.7891 29.928C89.111 30.267 88.5372 30.7278 88.0764 31.2929C87.6157 31.8667 87.2592 32.5361 87.0332 33.2925C86.8072 34.0488 86.6854 34.8486 86.6854 35.6919C86.6854 36.5352 86.7985 37.3525 87.0332 38.074C87.2679 38.813 87.6157 39.4477 88.0851 39.9867C88.5546 40.5257 89.1371 40.9517 89.8326 41.256C90.5281 41.5516 91.3366 41.708 92.2582 41.708C92.7102 41.708 93.1362 41.6646 93.5448 41.5776C93.9447 41.4994 94.3186 41.3864 94.6489 41.2647C94.9793 41.1429 95.2836 41.0125 95.5531 40.8647C95.8226 40.717 96.0399 40.5952 96.2225 40.4735L96.3181 40.4127V37.622L95.9791 37.9176C95.7357 38.1262 95.4748 38.3349 95.2053 38.5348C94.9445 38.7261 94.6576 38.9 94.362 39.0477C94.0665 39.1955 93.7448 39.3173 93.397 39.4129C93.058 39.5085 92.6928 39.552 92.2929 39.552C91.893 39.552 91.5366 39.4737 91.1888 39.3173C90.8324 39.1608 90.5281 38.9173 90.2586 38.6044C89.9804 38.2827 89.763 37.8741 89.5979 37.3785C89.4327 36.883 89.3457 36.2831 89.3457 35.605C89.3457 35.0834 89.4066 34.5704 89.5196 34.0575C89.6326 33.562 89.8152 33.1099 90.0586 32.7187C90.2934 32.3361 90.5976 32.0145 90.9541 31.7797C91.3105 31.5537 91.7365 31.432 92.2321 31.432C92.945 31.432 93.484 31.6233 93.8317 31.9884C94.1882 32.3622 94.3707 32.8404 94.3707 33.4142V34.4574L94.5011 34.5096C94.8315 34.64 95.1445 34.7095 95.4401 34.7095C95.5879 34.7095 95.7444 34.6922 95.8922 34.6574C96.0399 34.6226 96.1877 34.5704 96.3181 34.5009L96.4225 34.44V29.8497L96.3181 29.7889C96.1877 29.7193 96.0486 29.6672 95.9095 29.6324" fill="#123985"/>
<path d="M111.228 42.2995H110.28V40.752C110.419 40.8824 110.593 41.0041 110.785 41.1084C111.176 41.3171 111.637 41.4301 112.141 41.4301C112.854 41.4301 113.454 41.2736 113.932 40.9693C114.401 40.6651 114.784 40.2825 115.062 39.8218C115.349 39.3697 115.549 38.8654 115.653 38.3351C115.766 37.8135 115.818 37.3093 115.818 36.8398C115.818 36.2399 115.731 35.6835 115.575 35.188C115.41 34.6924 115.175 34.2577 114.879 33.8926C114.575 33.5275 114.201 33.2406 113.758 33.0406C113.314 32.8407 112.828 32.7363 112.289 32.7363C111.663 32.7363 111.141 32.858 110.732 33.1015C110.498 33.2406 110.289 33.3971 110.106 33.5709L110.054 32.945H107.003L106.951 33.0841C106.864 33.3275 106.812 33.5796 106.812 33.8231C106.812 34.0665 106.855 34.3099 106.951 34.562L107.003 34.7011H107.872V42.2995H107.003L106.951 42.4386C106.864 42.682 106.812 42.9341 106.812 43.1776C106.812 43.421 106.855 43.6731 106.951 43.9165L107.003 44.0556H111.219L111.271 43.9165C111.358 43.6731 111.402 43.421 111.402 43.1776C111.402 42.9341 111.358 42.6907 111.263 42.4386L111.211 42.2995H111.228ZM111.784 34.6577C112.141 34.6577 112.428 34.7446 112.628 34.9011C112.845 35.075 113.01 35.2923 113.123 35.5357C113.236 35.7878 113.306 36.0574 113.341 36.3356C113.375 36.6224 113.393 36.8746 113.393 37.0745C113.393 37.8396 113.236 38.4481 112.949 38.9089C112.671 39.3349 112.297 39.5436 111.828 39.5436C111.645 39.5436 111.463 39.5088 111.271 39.4392C111.089 39.3784 110.932 39.2567 110.785 39.0915C110.628 38.9176 110.498 38.6829 110.393 38.3699C110.289 38.0569 110.237 37.6483 110.237 37.1441C110.237 36.9267 110.254 36.6572 110.28 36.3616C110.306 36.0834 110.376 35.8052 110.489 35.5444C110.593 35.301 110.75 35.0836 110.967 34.9098C111.167 34.7446 111.445 34.6663 111.802 34.6663" fill="#123985"/>
<path d="M116.644 39.6737L116.592 39.8041C116.505 40.0475 116.453 40.2997 116.453 40.5431C116.453 40.7865 116.505 41.0299 116.592 41.2821L116.644 41.4125H120.652L120.704 41.2734C120.791 41.0212 120.843 40.7778 120.843 40.5344C120.843 40.291 120.8 40.0475 120.704 39.7954L120.652 39.6563H119.844V32.936H116.644L116.592 33.0751C116.505 33.3273 116.453 33.5707 116.453 33.8141C116.453 34.0575 116.505 34.3097 116.592 34.5531L116.644 34.6922H117.453V39.665H116.644V39.6737Z" fill="#123985"/>
<path d="M118.453 32.2583C118.826 32.2583 119.157 32.1105 119.426 31.841C119.696 31.5628 119.835 31.2151 119.835 30.8151C119.835 30.4152 119.696 30.0588 119.426 29.7893C119.157 29.5111 118.826 29.3633 118.453 29.3633C118.079 29.3633 117.748 29.5024 117.479 29.7893C117.209 30.0675 117.07 30.4065 117.07 30.8151C117.07 31.2237 117.209 31.5628 117.479 31.841C117.757 32.1192 118.079 32.2583 118.453 32.2583Z" fill="#123985"/>
<path d="M126.468 39.2218L126.173 39.3696C125.92 39.4913 125.72 39.5695 125.59 39.6043C125.442 39.6304 125.286 39.6478 125.103 39.6478C124.938 39.6478 124.799 39.6043 124.695 39.5261C124.642 39.4826 124.564 39.3609 124.564 38.987V34.7358H126.112L126.155 34.588C126.242 34.3011 126.286 34.049 126.286 33.8316C126.286 33.5882 126.242 33.3448 126.146 33.0927L126.103 32.9536H124.564V29.9194L122.147 31.1713V32.9536H121.243L121.2 33.0927C121.104 33.3448 121.061 33.5882 121.061 33.8316C121.061 34.049 121.104 34.3011 121.2 34.5967L121.243 34.7358H122.147V38.8479C122.147 39.6999 122.339 40.3694 122.721 40.8214C123.112 41.2909 123.756 41.5256 124.634 41.5256C124.886 41.5256 125.164 41.4995 125.46 41.4474C125.764 41.3952 126.06 41.3083 126.338 41.1866L126.459 41.1344V39.2392L126.468 39.2218Z" fill="#123985"/>
<path d="M136.805 39.6738L136.753 39.8129C136.657 40.065 136.614 40.3085 136.614 40.5519C136.614 40.7953 136.657 41.0387 136.753 41.2909L136.805 41.4213H140.813L140.865 41.2822C140.961 41.03 141.004 40.7866 141.004 40.5432C141.004 40.2998 140.961 40.0476 140.865 39.8042L140.813 39.6738H140.004V29.6934H136.796L136.744 29.8325C136.649 30.0846 136.605 30.328 136.605 30.5714C136.605 30.8149 136.649 31.0583 136.744 31.3104L136.796 31.4408H137.605V39.6738H136.796H136.805Z" fill="#123985"/>
<path d="M106.264 39.6825H105.394V32.9448H103.204L103.047 33.6751C102.891 33.5186 102.708 33.3882 102.491 33.2665C102.1 33.0578 101.647 32.9535 101.135 32.9535C100.422 32.9535 99.8218 33.11 99.3436 33.4143C98.8741 33.7186 98.4916 34.1011 98.2134 34.5619C97.9352 35.0139 97.7353 35.5182 97.6222 36.0485C97.5092 36.5701 97.4571 37.0744 97.4571 37.5438C97.4571 38.1437 97.5353 38.7001 97.7005 39.1957C97.8657 39.6912 98.1004 40.1346 98.396 40.491C98.7003 40.8562 99.0741 41.1431 99.5175 41.343C99.9522 41.543 100.448 41.6473 100.987 41.6473C101.604 41.6473 102.134 41.5256 102.543 41.2822C102.778 41.1431 102.995 40.9779 103.178 40.7953L103.265 41.43H106.264L106.316 41.2909C106.403 41.0387 106.455 40.7953 106.455 40.5519C106.455 40.3085 106.412 40.065 106.316 39.8129L106.264 39.6825ZM101.5 39.726C101.135 39.726 100.848 39.6477 100.656 39.4825C100.439 39.3 100.274 39.0913 100.17 38.8479C100.057 38.5958 99.987 38.3263 99.9522 38.0481C99.9261 37.7525 99.9087 37.5004 99.9087 37.3091C99.9087 36.544 100.056 35.9268 100.352 35.4747C100.622 35.0487 100.995 34.8401 101.474 34.8401C101.656 34.8401 101.839 34.8748 102.03 34.9444C102.204 35.0139 102.378 35.127 102.517 35.2921C102.665 35.4573 102.804 35.7008 102.908 36.0137C103.012 36.3267 103.065 36.7353 103.065 37.2396C103.065 37.4569 103.047 37.7264 103.021 38.022C102.995 38.3089 102.917 38.5871 102.812 38.8392C102.708 39.0826 102.552 39.3 102.334 39.4825C102.134 39.6477 101.856 39.726 101.508 39.726" fill="#123985"/>
<path d="M127.903 40.4821C128.207 40.8473 128.581 41.1342 129.024 41.3341C129.468 41.5341 129.954 41.6384 130.493 41.6384C131.119 41.6384 131.641 41.5167 132.05 41.2733C132.293 41.1342 132.502 40.969 132.684 40.7864L132.762 41.4211H135.771L135.823 41.282C135.91 41.0298 135.962 40.7864 135.962 40.543C135.962 40.2996 135.918 40.0561 135.823 39.804L135.771 39.6649H134.901V32.9272H132.71L132.554 33.6662C132.397 33.5097 132.206 33.3793 131.997 33.2576C131.615 33.049 131.154 32.9446 130.641 32.9446C129.928 32.9446 129.328 33.1011 128.85 33.4054C128.381 33.7097 127.998 34.0922 127.72 34.553C127.442 35.0051 127.242 35.5093 127.129 36.0396C127.016 36.5699 126.964 37.0742 126.964 37.5349C126.964 38.1348 127.042 38.6912 127.207 39.1868C127.372 39.6823 127.607 40.117 127.903 40.4821ZM132.519 38.0218C132.493 38.3087 132.415 38.5869 132.31 38.839C132.206 39.0824 132.041 39.2998 131.832 39.4824C131.632 39.6475 131.354 39.7258 130.998 39.7258C130.641 39.7258 130.354 39.6475 130.146 39.4824C129.937 39.2998 129.763 39.0911 129.659 38.8477C129.546 38.5956 129.468 38.3261 129.441 38.0479C129.415 37.7523 129.398 37.5089 129.398 37.3089C129.398 36.5439 129.546 35.9266 129.841 35.4745C130.12 35.0485 130.485 34.8399 130.963 34.8399C131.145 34.8399 131.337 34.8747 131.519 34.9442C131.702 35.0138 131.867 35.1268 132.015 35.292C132.163 35.4571 132.293 35.7006 132.397 36.0135C132.502 36.3265 132.554 36.7351 132.554 37.2394C132.554 37.448 132.536 37.7088 132.51 38.0218" fill="#123985"/>
<path d="M121.626 56.7048H120.843V50.5757H118.774L118.635 51.2016C118.505 51.0799 118.348 50.9756 118.183 50.88C117.827 50.68 117.401 50.5844 116.931 50.5844C116.279 50.5844 115.723 50.7322 115.279 51.0104C114.845 51.2886 114.497 51.645 114.236 52.071C113.975 52.4883 113.801 52.9404 113.688 53.4359C113.584 53.9228 113.532 54.3836 113.532 54.8096C113.532 55.3573 113.61 55.8615 113.767 56.3223C113.906 56.783 114.123 57.183 114.401 57.5133C114.679 57.8437 115.027 58.1132 115.436 58.3045C115.844 58.4957 116.296 58.5913 116.792 58.5913C117.366 58.5913 117.853 58.4783 118.227 58.2523C118.426 58.1393 118.6 58.0089 118.748 57.8611L118.818 58.3914H121.626L121.678 58.2349C121.765 58.0002 121.808 57.7741 121.808 57.5481C121.808 57.3221 121.765 57.096 121.678 56.8613L121.626 56.7048ZM117.253 56.7483C116.931 56.7483 116.688 56.6787 116.505 56.5309C116.314 56.3744 116.166 56.1832 116.079 55.9745C115.984 55.7485 115.914 55.5137 115.879 55.2703C115.853 55.0008 115.844 54.7748 115.844 54.6009C115.844 53.9141 115.984 53.3577 116.236 52.9578C116.488 52.5753 116.801 52.4014 117.218 52.4014C117.383 52.4014 117.548 52.4275 117.714 52.497C117.87 52.5579 118.018 52.6622 118.148 52.8013C118.279 52.9578 118.4 53.1751 118.487 53.4446C118.583 53.7228 118.635 54.0967 118.635 54.5487C118.635 54.74 118.626 54.9747 118.592 55.2442C118.566 55.5051 118.505 55.7485 118.409 55.9745C118.322 56.1919 118.174 56.3831 117.992 56.5309C117.818 56.6787 117.574 56.7483 117.262 56.7483" fill="#123985"/>
<path d="M112.141 53.1495C111.967 52.9147 111.767 52.7148 111.55 52.567C111.445 52.4974 111.341 52.4279 111.237 52.367C111.541 52.0888 111.767 51.7758 111.897 51.4368C112.071 51.0021 112.158 50.5848 112.158 50.1675C112.158 49.7502 112.089 49.4024 111.95 49.0547C111.81 48.7069 111.593 48.394 111.306 48.1245C111.028 47.8549 110.663 47.6463 110.246 47.4985C109.828 47.3507 109.324 47.2725 108.759 47.2725H103.534L103.473 47.455C103.395 47.7419 103.351 48.0114 103.351 48.2462C103.351 48.507 103.395 48.7591 103.482 48.9938L103.551 49.1503H104.412V56.5313H103.534L103.473 56.7052C103.386 56.966 103.343 57.2181 103.343 57.4703C103.343 57.7224 103.386 57.9745 103.473 58.2353L103.534 58.4092H108.924C109.55 58.4092 110.098 58.3223 110.567 58.1571C111.037 57.9832 111.445 57.7398 111.758 57.4355C112.08 57.1312 112.315 56.7574 112.462 56.3401C112.619 55.9315 112.688 55.4794 112.688 55.0099C112.688 54.61 112.636 54.2623 112.532 53.958C112.428 53.6624 112.289 53.3929 112.115 53.1581M109.628 49.8806C109.672 50.0284 109.689 50.1762 109.689 50.3327C109.689 50.7413 109.576 51.063 109.35 51.3064C109.141 51.5411 108.776 51.6541 108.272 51.6541H106.777V49.2286H108.281C108.585 49.2286 108.828 49.2633 109.02 49.3242C109.194 49.385 109.333 49.4633 109.428 49.5676C109.515 49.6546 109.585 49.7676 109.611 49.8893M106.768 53.6102H108.568C109.072 53.6102 109.48 53.7319 109.785 53.9667C110.072 54.1927 110.211 54.5057 110.211 54.9578C110.211 55.4098 110.089 55.7837 109.854 56.0619C109.637 56.3314 109.254 56.4618 108.715 56.4618H106.768V53.6015V53.6102Z" fill="#123985"/>
<path d="M131.319 56.6444H130.511V53.1321C130.511 52.1844 130.267 51.4455 129.798 50.9238C129.32 50.3935 128.616 50.124 127.72 50.124C127.129 50.124 126.607 50.2544 126.207 50.4979C126.025 50.6109 125.868 50.7239 125.729 50.8456L125.686 50.324H122.773L122.712 50.4892C122.626 50.7326 122.582 50.9673 122.582 51.2021C122.582 51.4368 122.626 51.6715 122.712 51.9149L122.773 52.0801H123.582V56.6357H122.773L122.712 56.8008C122.626 57.0443 122.582 57.2877 122.582 57.5137C122.582 57.7398 122.626 57.9832 122.712 58.2266L122.773 58.3918H126.651L126.712 58.2266C126.799 57.9832 126.842 57.7485 126.842 57.5137C126.842 57.279 126.799 57.0356 126.712 56.8008L126.651 56.6357H125.964V53.8102C125.964 53.4277 126.016 53.106 126.094 52.8799C126.181 52.6539 126.286 52.4713 126.407 52.3496C126.512 52.2279 126.651 52.141 126.781 52.0975C126.938 52.054 127.094 52.028 127.225 52.028C127.59 52.028 127.833 52.1149 127.937 52.2975C128.068 52.5235 128.137 52.8626 128.137 53.3146V56.6357H127.451L127.39 56.8008C127.303 57.0443 127.259 57.279 127.259 57.5137C127.259 57.7485 127.303 57.9919 127.39 58.2266L127.451 58.3918H131.319L131.38 58.2266C131.467 57.9832 131.511 57.7485 131.511 57.5137C131.511 57.279 131.458 57.0443 131.38 56.8008L131.319 56.6357V56.6444Z" fill="#123985"/>
<path d="M141.022 57.1656C140.995 57.0526 140.969 56.9396 140.943 56.8352L140.891 56.644H140.039L138.118 53.3751L139.596 52.0884H140.604L140.665 51.932C140.761 51.6972 140.822 51.4538 140.822 51.2104C140.822 50.9669 140.769 50.7148 140.665 50.4801L140.604 50.3236H136.501L136.44 50.4888C136.353 50.7235 136.31 50.9669 136.31 51.1843C136.31 51.4364 136.362 51.6711 136.466 51.8885L136.536 52.0276H136.77L135.701 52.9404V46.8374H132.528L132.467 47.0026C132.363 47.2547 132.319 47.5068 132.319 47.7329C132.319 47.9763 132.371 48.2197 132.476 48.4718L132.536 48.6283H133.328V56.6353H132.536L132.467 56.7831C132.363 57.0265 132.31 57.2699 132.31 57.5134C132.31 57.7568 132.354 57.9915 132.441 58.2263L132.502 58.3914H136.101L136.179 58.2784C136.257 58.1654 136.31 58.0437 136.336 57.9133C136.37 57.7916 136.379 57.6699 136.379 57.5568C136.379 57.3047 136.318 57.0613 136.205 56.8352L136.136 56.6875H135.692V55.3834L136.301 54.8618L137.344 56.6875H136.996L136.927 56.8266C136.814 57.0526 136.753 57.296 136.753 57.5568C136.753 57.6785 136.77 57.7916 136.796 57.9133C136.822 58.035 136.866 58.1567 136.927 58.261L136.996 58.3914H140.83L140.891 58.2263C140.978 57.9828 141.022 57.7481 141.022 57.5134C141.022 57.3917 141.022 57.2699 140.987 57.1569" fill="#123985"/>
<mask id="mask0_13_12032" style="mask-type:luminance" maskUnits="userSpaceOnUse" x="152" y="20" width="30" height="33">
<path d="M167.407 20C161.461 20 156.114 22.5994 152.454 26.7203C152.506 26.7551 156.531 29.6153 157.74 33.7362C158.792 37.005 157.974 39.7436 157.574 41.0911C157.409 41.604 157.262 42.0735 157.131 42.4908C156.323 44.9772 155.992 46.0118 155.931 47.6636V47.7158C155.871 50.2022 157.722 52.2713 160.061 52.3322C161.565 52.3669 162.947 51.5758 163.756 50.2283C165.095 47.681 164.582 44.6121 164.39 43.7253V43.6992C164.39 43.6992 164.382 43.6645 164.373 43.6384V43.621C164.017 42.1083 163.417 40.4912 162.643 38.9437C161.487 36.4399 160.774 34.4404 160.461 32.8146C160.2 31.4323 160.209 30.2934 160.496 29.1459C158.035 27.6331 158.383 25.4858 158.809 24.3382L158.974 23.8861L158.983 23.86L159 23.8166H159.009C159.009 23.8166 159.844 25.0076 161.278 25.564C161.426 25.6162 161.574 25.6683 161.73 25.7031C161.939 25.7553 162.156 25.7988 162.365 25.8248C162.547 25.8422 162.73 25.8509 162.921 25.8509C162.956 25.8509 162.982 25.8509 163.017 25.8509C163.478 25.8161 163.947 25.6683 164.199 25.5727C164.208 25.5727 164.243 25.5553 164.199 25.5727L164.382 25.4945C166.051 24.8424 169.129 23.86 171.198 25.3032C172.371 26.0335 172.936 27.0941 172.936 27.0941C176.223 28.3199 176.536 30.589 176.736 32.093L176.823 32.7538L176.283 32.3626C175.232 31.5714 174.397 31.1976 173.649 31.1802H173.58C173.023 31.1802 172.389 31.3367 171.876 31.5975C170.18 32.4756 169.894 34.0318 169.885 34.0491C169.355 35.9705 170.085 37.6397 172.702 40.4565C172.736 40.4912 176.405 44.1079 177.135 45.2467C178.327 46.829 179.144 48.4026 179.561 49.9066C179.561 49.9153 179.587 49.9762 179.631 50.037C179.631 50.037 179.752 50.2022 179.909 50.2022C179.996 50.2022 180.083 50.15 180.17 50.037C180.613 49.1763 180.37 47.881 180.083 46.942C179.935 46.4726 179.413 45.212 179.405 45.2033V45.1859C179.405 45.1859 179.387 45.1511 179.378 45.1337C178.309 42.6734 177.779 40.0218 177.848 37.4832C177.901 35.6749 178.214 33.884 178.805 32.18C178.883 31.9018 178.979 31.6062 179.092 31.3193C179.092 31.3193 179.109 31.2758 179.144 31.1889C179.691 29.7544 180.309 28.7112 180.561 28.3373C180.978 27.6418 181.439 26.9202 181.969 26.303C178.327 22.4256 173.154 20.0087 167.407 20.0087V20Z" fill="white"/>
</mask>
<g mask="url(#mask0_13_12032)">
<path d="M175.465 7.76747L139.034 27.1382L158.96 64.6131L195.391 45.2424L175.465 7.76747Z" fill="url(#paint0_linear_13_12032)"/>
</g>
<mask id="mask1_13_12032" style="mask-type:luminance" maskUnits="userSpaceOnUse" x="164" y="25" width="1" height="1">
<path d="M164.19 25.5898C164.164 25.5985 164.173 25.5985 164.19 25.5898V25.5898Z" fill="white"/>
</mask>
<g mask="url(#mask1_13_12032)">
<path d="M164.192 25.5737L164.169 25.5859L164.181 25.609L164.204 25.5967L164.192 25.5737Z" fill="url(#paint1_linear_13_12032)"/>
</g>
<mask id="mask2_13_12032" style="mask-type:luminance" maskUnits="userSpaceOnUse" x="147" y="26" width="41" height="34">
<path d="M163.156 29.3195C161.322 33.0056 164.051 36.7092 166.042 39.4216L166.164 39.5781C166.477 40.0041 166.764 40.4475 167.042 40.9257C167.685 41.9081 168.52 43.4295 168.894 45.0987L168.911 45.1422C168.911 45.1422 168.911 45.1682 168.911 45.1856C168.911 45.1943 168.911 45.203 168.911 45.2204C168.937 45.3247 168.955 45.4464 168.981 45.5855C168.981 45.6203 168.989 45.6464 168.998 45.6812V45.7072C169.137 46.4723 169.172 47.2547 169.111 48.0285C169.094 48.2806 169.059 48.5501 169.007 48.8283C168.737 50.8714 167.824 52.7492 166.416 54.1141C165.008 55.4877 163.199 56.2441 161.339 56.2441C161.269 56.2441 161.209 56.2441 161.156 56.2441C161.139 56.2441 161.113 56.2441 161.096 56.2441C161.078 56.2441 161.069 56.2441 161.052 56.2441C158.418 56.2267 156.575 54.4532 156.557 54.4358V54.4184C155.61 53.6186 154.914 52.584 154.54 51.4278C153.471 48.6371 154.193 45.5508 154.201 45.516C154.393 44.5075 154.688 43.5599 154.949 42.7253C155.349 41.4212 155.731 40.2041 155.705 39.0391V39.0304V39.013C155.705 38.9522 155.705 38.9 155.705 38.8479C155.705 36.5788 154.645 34.414 152.88 33.0665C152.384 32.7014 151.272 31.9972 149.376 31.3799C148.124 33.9967 147.42 36.9178 147.42 40.0041C147.42 51.0452 156.375 59.9998 167.416 59.9998C178.457 59.9998 187.403 51.0452 187.403 40.0041C187.403 36.6396 186.577 33.4751 185.108 30.6931C184.612 31.1104 182.986 32.5883 181.9 34.9617C181.795 35.1965 181.708 35.4138 181.622 35.6138C181.622 35.6225 181.622 35.6399 181.613 35.6485C180.969 37.2917 180.622 39.0217 180.578 40.804C180.561 41.3951 180.578 41.995 180.63 42.5862C180.674 43.0643 180.778 43.6468 180.935 44.3336C181.161 45.2552 181.465 46.2376 181.552 46.5158C181.874 47.4634 182.656 50.7844 179.083 53.7403L179.031 53.7838C178.622 54.1315 178.187 54.4706 177.761 54.7749C177.457 54.9835 177.127 55.1922 176.762 55.4182C176.666 55.4877 176.562 55.5486 176.475 55.6095C176.04 55.8616 175.605 56.105 175.153 56.3137C175.058 56.3484 174.997 56.3658 174.936 56.3658C174.849 56.3658 174.78 56.3397 174.736 56.2789C174.658 56.1746 174.684 56.0181 174.701 55.9398L174.719 55.8964C176.118 51.4886 175.014 48.098 173.841 46.0289C173.189 44.9596 172.284 43.9337 171.806 43.4121L171.78 43.386C171.667 43.273 171.563 43.16 171.45 43.047L171.389 42.9861C171.006 42.5862 170.607 42.1689 170.215 41.7429C169.337 40.7866 168.642 39.7868 168.137 38.7696C167.164 36.7266 167.268 35.0574 167.538 34.0141C167.772 33.0752 168.172 32.4666 168.303 32.2841C168.129 32.3014 167.972 32.3101 167.807 32.3101C165.416 32.3101 165.277 30.0671 165.269 30.0411V29.9976L165.721 30.1367C165.721 30.1367 166.686 30.4323 167.694 30.4671C168.364 30.4844 168.894 30.3801 169.276 30.1715C170.015 29.8237 170.389 29.2412 170.424 28.4588C170.337 27.3199 169.442 26.8157 168.642 26.7113C168.424 26.6853 168.198 26.6679 167.981 26.6592C167.929 26.6592 167.868 26.6592 167.816 26.6592C164.556 26.6592 163.217 29.2325 163.156 29.3369V29.3195Z" fill="white"/>
</mask>
<g mask="url(#mask2_13_12032)">
<path d="M178.58 10.0716L133.59 33.9932L156.222 76.5574L201.212 52.6359L178.58 10.0716Z" fill="url(#paint2_linear_13_12032)"/>
</g>
<defs>
<linearGradient id="paint0_linear_13_12032" x1="153.304" y1="43.8012" x2="183.018" y2="28.0018" gradientUnits="userSpaceOnUse">
<stop stop-color="#82222F"/>
<stop offset="0.12" stop-color="#82222F"/>
<stop offset="0.77" stop-color="#ED1A39"/>
<stop offset="1" stop-color="#ED1A39"/>
</linearGradient>
<linearGradient id="paint1_linear_13_12032" x1="164.912" y1="25.7986" x2="164.928" y2="25.7905" gradientUnits="userSpaceOnUse">
<stop stop-color="#82222F"/>
<stop offset="0.12" stop-color="#82222F"/>
<stop offset="0.77" stop-color="#ED1A39"/>
<stop offset="1" stop-color="#ED1A39"/>
</linearGradient>
<linearGradient id="paint2_linear_13_12032" x1="1070.79" y1="-437.523" x2="1106.1" y2="-456.298" gradientUnits="userSpaceOnUse">
<stop stop-color="#82222F"/>
<stop offset="0.12" stop-color="#82222F"/>
<stop offset="0.77" stop-color="#ED1A39"/>
<stop offset="1" stop-color="#ED1A39"/>
</linearGradient>
</defs>
</svg>
