<svg xmlns="http://www.w3.org/2000/svg" width="40" height="40" fill="none" viewBox="0 0 40 40"><path fill="#E10600" d="M39.365 15.4263H34.784C32.1261 15.4263 29.6051 16.5851 27.8692 18.6032L20.6302 27.0147V36.6249C22.964 36.2964 24.1885 34.726 24.1885 34.726L39.8332 16.4876C40.2042 16.0797 39.916 15.4299 39.365 15.4299"/><path fill="#E10600" d="M0.634966 15.4263H5.21602C7.87389 15.4263 10.3949 16.5851 12.1308 18.6032L19.3697 27.0147V36.6249C17.036 36.2964 15.8115 34.726 15.8115 34.726L0.166777 16.4876C-0.204173 16.0797 0.0839434 15.4299 0.634966 15.4299"/><path fill="#E10600" d="M29.2485 3.62485V12.9931C29.2485 14.3216 28.7731 15.6068 27.9052 16.6141L20.6302 25.0689V11.9606L28.1573 3.21691C28.5354 2.78008 29.2521 3.04723 29.2521 3.62485"/><path fill="#E10600" d="M10.7515 3.62485V12.9931C10.7515 14.3216 11.2269 15.6068 12.0948 16.6141L19.3698 25.0689V11.9606L11.8427 3.21691C11.4646 2.78008 10.7479 3.04723 10.7479 3.62485"/></svg>