<svg width="240" height="80" viewBox="0 0 240 80" fill="none" xmlns="http://www.w3.org/2000/svg">
<path d="M205.381 36.1949V36.8301H205.697C206.014 36.8301 206.171 36.72 206.171 36.504C206.171 36.3007 206.01 36.1949 205.697 36.1949H205.381ZM204.789 38.3462V35.6697H205.74C206.044 35.6697 206.276 35.7205 206.441 35.8179C206.657 35.9789 206.766 36.1949 206.766 36.4744C206.766 36.8767 206.58 37.1435 206.213 37.279C206.306 37.4188 206.521 37.7745 206.864 38.3505H206.171L205.588 37.3595H205.381V38.3505H204.789V38.3462ZM207.548 36.9868C207.548 36.4701 207.366 36.0297 206.999 35.657C206.631 35.2886 206.2 35.1022 205.697 35.1022C205.195 35.1022 204.747 35.2843 204.388 35.6528C204.029 36.0212 203.847 36.4659 203.847 36.9868C203.847 37.5077 204.024 37.9524 204.384 38.3208C204.738 38.6893 205.174 38.8714 205.689 38.8714C206.204 38.8714 206.635 38.6893 206.999 38.3208C207.366 37.9524 207.548 37.5077 207.548 36.9868ZM207.324 35.3436C207.776 35.7968 208 36.3431 208 36.9868C208 37.6305 207.776 38.1768 207.324 38.63C206.872 39.0831 206.327 39.3076 205.685 39.3076C205.043 39.3076 204.51 39.0831 204.058 38.63C203.606 38.1768 203.382 37.6305 203.382 36.9868C203.382 36.3431 203.606 35.801 204.054 35.3436C204.502 34.8905 205.051 34.666 205.697 34.666C206.344 34.666 206.872 34.8905 207.324 35.3436Z" fill="#00B74F"/>
<path d="M78.1789 34.5771H72.8049C69.6869 34.5771 66.7296 35.9366 64.6932 38.304L56.2012 48.1715V59.4451C58.9389 59.0597 60.3754 57.2175 60.3754 57.2175L78.7281 35.8222C79.1633 35.3437 78.8253 34.5814 78.1789 34.5814" fill="#E10600"/>
<path d="M32.7449 34.5771H38.1189C41.2368 34.5771 44.1942 35.9366 46.2306 38.304L54.7225 48.1715V59.4451C51.9848 59.0597 50.5484 57.2175 50.5484 57.2175L32.1956 35.8222C31.7605 35.3437 32.0985 34.5814 32.7449 34.5814" fill="#E10600"/>
<path d="M66.3113 20.733V31.7229C66.3113 33.2813 65.7536 34.789 64.7354 35.9706L56.2012 45.889V30.5116L65.0312 20.2545C65.4748 19.742 66.3155 20.0554 66.3155 20.733" fill="#E10600"/>
<path d="M44.6125 20.733V31.7229C44.6125 33.2813 45.1702 34.789 46.1883 35.9706L54.7225 45.889V30.5116L45.8926 20.2545C45.449 19.742 44.6082 20.0554 44.6082 20.733" fill="#E10600"/>
<path d="M197.206 50.8652L195.917 52.3178C195.14 53.1903 195.118 54.5073 195.87 55.4052C197.206 57.006 199.2 59.4962 199.2 59.4962H204.269L197.21 50.8652H197.206Z" fill="#00B74F"/>
<path d="M93.2743 59.4963L84.9344 34.5859H90.2577L96.3288 53.7324L102.362 34.5859H107.723L99.3454 59.4963H93.2743Z" fill="#00B74F"/>
<path d="M119.211 46.7235C121.306 46.7235 122.831 45.0888 122.831 42.9501C122.831 40.8114 121.306 39.1767 119.211 39.1767H114.846V46.7192H119.211V46.7235ZM119.211 34.5902C121.589 34.5902 123.613 35.4075 125.244 37.0084C126.879 38.6092 127.694 40.6039 127.694 42.9501C127.694 45.2963 126.879 47.291 125.244 48.8918C123.609 50.4926 121.589 51.3142 119.211 51.3142H114.846V59.4963H109.946V34.5859H119.211V34.5902Z" fill="#00B74F"/>
<path d="M140.533 54.9055C142.202 54.9055 143.411 53.6604 143.411 51.9537C143.411 50.247 142.202 49.0358 140.533 49.0358H134.889V54.9055H140.533ZM134.889 39.1767V44.6568H139.79C141.315 44.6568 142.452 43.4837 142.452 41.9167C142.452 40.3498 141.353 39.1767 139.79 39.1767H134.889ZM148.273 52.2713C148.273 54.3719 147.53 56.1167 146.038 57.4677C144.547 58.8187 142.701 59.4963 140.538 59.4963H129.992V34.5859H139.79C141.919 34.5859 143.694 35.2635 145.151 36.5806C146.609 37.8977 147.352 39.5705 147.352 41.5991C147.352 43.6277 146.571 45.3344 145.008 46.5795C147.171 47.8246 148.273 49.7473 148.273 52.2713Z" fill="#00B74F"/>
<path d="M184.48 43.1615C185.76 44.4786 186.398 46.2573 186.398 48.5696V59.4959H181.819V49.1413C181.819 46.757 180.433 45.478 178.304 45.478C175.925 45.478 174.4 46.9391 174.4 49.8909V59.5001H169.82V41.7089H174.4V43.7036C175.502 42.0307 177.277 41.2134 179.689 41.2134C181.641 41.2134 183.238 41.8529 184.48 43.17" fill="#00B74F"/>
<path d="M192.478 49.5313V59.4963H187.898V34.5859H192.478V49.5313Z" fill="#00B74F"/>
<path d="M158.764 55.7355C155.925 55.7355 153.622 53.4275 153.622 50.5815C153.622 47.7356 155.925 45.4233 158.764 45.4233C161.603 45.4233 163.91 47.7314 163.91 50.5815C163.91 53.4317 161.607 55.7355 158.764 55.7355ZM163.736 41.705V43.8055C162.351 42.0607 160.437 41.2095 157.948 41.2095C155.46 41.2095 153.546 42.1327 151.843 43.9495C150.175 45.7663 149.321 47.9685 149.321 50.6027C149.321 53.2369 150.175 55.4772 151.843 57.294C153.546 59.1066 155.57 60.0002 157.948 60.0002C160.327 60.0002 162.351 59.1447 163.736 57.4041V59.5047H168.316V41.7134H163.736V41.705Z" fill="#00B74F"/>
<path d="M203.868 41.6834H201.08C199.466 41.6834 197.928 42.3907 196.872 43.6146L192.469 48.7305V54.5748C193.889 54.3758 194.633 53.4186 194.633 53.4186L204.147 42.3229C204.371 42.0773 204.198 41.6792 203.864 41.6792" fill="#E10600"/>
</svg>
