<svg width="176" height="40" viewBox="0 0 176 40" fill="none" xmlns="http://www.w3.org/2000/svg">
<g clip-path="url(#clip0_7_1193)">
<path d="M173.381 16.1949V16.8301H173.697C174.014 16.8301 174.171 16.72 174.171 16.504C174.171 16.3007 174.01 16.1949 173.697 16.1949H173.381ZM172.789 18.3462V15.6697H173.74C174.044 15.6697 174.276 15.7205 174.441 15.8179C174.657 15.9789 174.766 16.1949 174.766 16.4744C174.766 16.8767 174.58 17.1435 174.213 17.279C174.306 17.4188 174.521 17.7745 174.864 18.3505H174.171L173.588 17.3595H173.381V18.3505H172.789V18.3462ZM175.548 16.9868C175.548 16.4701 175.366 16.0297 174.999 15.657C174.631 15.2886 174.2 15.1022 173.697 15.1022C173.195 15.1022 172.747 15.2843 172.388 15.6528C172.029 16.0212 171.847 16.4659 171.847 16.9868C171.847 17.5077 172.024 17.9524 172.384 18.3208C172.738 18.6893 173.174 18.8714 173.689 18.8714C174.204 18.8714 174.635 18.6893 174.999 18.3208C175.366 17.9524 175.548 17.5077 175.548 16.9868ZM175.324 15.3436C175.776 15.7968 176 16.3431 176 16.9868C176 17.6305 175.776 18.1768 175.324 18.63C174.872 19.0831 174.327 19.3076 173.685 19.3076C173.043 19.3076 172.51 19.0831 172.058 18.63C171.606 18.1768 171.382 17.6305 171.382 16.9868C171.382 16.3431 171.606 15.801 172.054 15.3436C172.502 14.8905 173.051 14.666 173.697 14.666C174.344 14.666 174.872 14.8905 175.324 15.3436Z" fill="#00B74F"/>
<path d="M46.1789 14.5771H40.8049C37.6869 14.5771 34.7296 15.9366 32.6932 18.304L24.2012 28.1715V39.4451C26.9389 39.0597 28.3754 37.2175 28.3754 37.2175L46.7281 15.8222C47.1633 15.3437 46.8253 14.5814 46.1789 14.5814" fill="#E10600"/>
<path d="M0.744875 14.5771H6.11888C9.23682 14.5771 12.1942 15.9366 14.2306 18.304L22.7225 28.1715V39.4451C19.9848 39.0597 18.5484 37.2175 18.5484 37.2175L0.195645 15.8222C-0.239514 15.3437 0.0984735 14.5814 0.744875 14.5814" fill="#E10600"/>
<path d="M34.3113 0.733007V11.7229C34.3113 13.2813 33.7536 14.789 32.7354 15.9706L24.2012 25.889V10.5116L33.0312 0.254452C33.4748 -0.257984 34.3155 0.0554061 34.3155 0.733007" fill="#E10600"/>
<path d="M12.6125 0.733007V11.7229C12.6125 13.2813 13.1702 14.789 14.1883 15.9706L22.7225 25.889V10.5116L13.8926 0.254452C13.449 -0.257984 12.6082 0.0554061 12.6082 0.733007" fill="#E10600"/>
<path d="M165.206 30.8652L163.917 32.3178C163.14 33.1903 163.118 34.5073 163.87 35.4052C165.206 37.006 167.2 39.4962 167.2 39.4962H172.269L165.21 30.8652H165.206Z" fill="#00B74F"/>
<path d="M61.2743 39.4963L52.9344 14.5859H58.2578L64.3289 33.7324L70.3619 14.5859H75.7233L67.3454 39.4963H61.2743Z" fill="#00B74F"/>
<path d="M87.2106 26.7235C89.3061 26.7235 90.8313 25.0888 90.8313 22.9501C90.8313 20.8114 89.3061 19.1767 87.2106 19.1767H82.8463V26.7192H87.2106V26.7235ZM87.2106 14.5902C89.5892 14.5902 91.6129 15.4075 93.2437 17.0084C94.8787 18.6092 95.6941 20.6039 95.6941 22.9501C95.6941 25.2963 94.8787 27.291 93.2437 28.8918C91.6086 30.4926 89.5892 31.3142 87.2106 31.3142H82.8463V39.4963H77.9455V14.5859H87.2106V14.5902Z" fill="#00B74F"/>
<path d="M108.533 34.9055C110.202 34.9055 111.411 33.6604 111.411 31.9537C111.411 30.247 110.202 29.0358 108.533 29.0358H102.889V34.9055H108.533ZM102.889 19.1767V24.6568H107.79C109.315 24.6568 110.452 23.4837 110.452 21.9167C110.452 20.3498 109.353 19.1767 107.79 19.1767H102.889ZM116.273 32.2713C116.273 34.3719 115.53 36.1167 114.038 37.4677C112.547 38.8187 110.701 39.4963 108.538 39.4963H97.9924V14.5859H107.79C109.919 14.5859 111.694 15.2635 113.151 16.5806C114.609 17.8977 115.352 19.5705 115.352 21.5991C115.352 23.6277 114.571 25.3344 113.008 26.5795C115.171 27.8246 116.273 29.7473 116.273 32.2713Z" fill="#00B74F"/>
<path d="M152.48 23.1615C153.76 24.4786 154.398 26.2573 154.398 28.5696V39.4959H149.819V29.1413C149.819 26.757 148.433 25.478 146.304 25.478C143.925 25.478 142.4 26.9391 142.4 29.8909V39.5001H137.82V21.7089H142.4V23.7036C143.502 22.0307 145.277 21.2134 147.689 21.2134C149.641 21.2134 151.238 21.8529 152.48 23.17" fill="#00B74F"/>
<path d="M160.478 29.5313V39.4963H155.898V14.5859H160.478V29.5313Z" fill="#00B74F"/>
<path d="M126.764 35.7355C123.925 35.7355 121.622 33.4275 121.622 30.5815C121.622 27.7356 123.925 25.4233 126.764 25.4233C129.603 25.4233 131.91 27.7314 131.91 30.5815C131.91 33.4317 129.607 35.7355 126.764 35.7355ZM131.736 21.705V23.8055C130.351 22.0607 128.437 21.2095 125.948 21.2095C123.46 21.2095 121.546 22.1327 119.843 23.9495C118.175 25.7663 117.321 27.9685 117.321 30.6027C117.321 33.2369 118.175 35.4772 119.843 37.294C121.546 39.1066 123.57 40.0002 125.948 40.0002C128.327 40.0002 130.351 39.1447 131.736 37.4041V39.5047H136.316V21.7134H131.736V21.705Z" fill="#00B74F"/>
<path d="M171.868 21.6834H169.08C167.466 21.6834 165.928 22.3907 164.872 23.6146L160.469 28.7305V34.5748C161.889 34.3758 162.633 33.4186 162.633 33.4186L172.147 22.3229C172.371 22.0773 172.198 21.6792 171.864 21.6792" fill="#E10600"/>
</g>
<defs>
<clipPath id="clip0_7_1193">
<rect width="176" height="40" fill="white"/>
</clipPath>
</defs>
</svg>
