<svg width="240" height="80" viewBox="0 0 240 80" fill="none" xmlns="http://www.w3.org/2000/svg">
<path d="M51.709 40C51.709 43.6306 50.6323 47.1797 48.615 50.1983C46.5977 53.2169 43.7305 55.5695 40.3761 56.9584C37.0216 58.3473 33.3306 58.7101 29.7699 58.0011C26.2092 57.292 22.9387 55.5429 20.3722 52.9749C17.8057 50.407 16.0584 47.1355 15.3514 43.5744C14.6444 40.0133 15.0093 36.3225 16.4001 32.9688C17.7909 29.6152 20.1451 26.7493 23.1649 24.7337C26.1846 22.7182 29.7343 21.6435 33.3649 21.6455C38.2312 21.6476 42.8975 23.5823 46.3375 27.0243C49.7776 30.4663 51.7097 35.1337 51.709 40Z" fill="white"/>
<path d="M33.3779 57.4939C36.836 57.4928 40.2161 56.4665 43.0909 54.5446C45.9657 52.6227 48.2061 49.8916 49.5289 46.6965C50.8516 43.5014 51.1973 39.9859 50.5222 36.5944C49.8472 33.2028 48.1816 30.0876 45.7362 27.6426C43.2908 25.1975 40.1754 23.5325 36.7837 22.8579C33.3921 22.1833 29.8766 22.5295 26.6817 23.8528C23.4869 25.176 20.7561 27.4168 18.8346 30.2919C16.9131 33.167 15.8873 36.5473 15.8868 40.0053C15.8858 42.3025 16.3375 44.5773 17.2162 46.6997C18.0949 48.8221 19.3833 50.7506 21.0077 52.3748C22.6321 53.999 24.5608 55.2871 26.6833 56.1654C28.8059 57.0438 31.0808 57.4952 33.3779 57.4939Z" fill="#0869AB"/>
<mask id="mask0_13_11924" style="mask-type:luminance" maskUnits="userSpaceOnUse" x="15" y="22" width="36" height="36">
<path d="M15.8868 40.013C15.8863 43.4708 16.9111 46.8512 18.8318 49.7266C20.7525 52.602 23.4827 54.8433 26.6771 56.1671C29.8716 57.4908 33.3869 57.8376 36.7784 57.1635C40.1699 56.4894 43.2854 54.8247 45.7309 52.38C48.1763 49.9353 49.8419 46.8203 50.517 43.4289C51.1921 40.0376 50.8464 36.5222 49.5236 33.3274C48.2008 30.1325 45.9603 27.4017 43.0855 25.4802C40.2107 23.5586 36.8306 22.5327 33.3727 22.5322C31.0767 22.5315 28.803 22.9832 26.6815 23.8614C24.5601 24.7396 22.6324 26.0271 21.0086 27.6504C19.3848 29.2737 18.0967 31.201 17.2179 33.3222C16.3391 35.4434 15.8868 37.7169 15.8868 40.013Z" fill="white"/>
</mask>
<g mask="url(#mask0_13_11924)">
<path d="M33.5261 48.4382C41.2185 48.4382 47.7978 50.5863 50.6298 53.6263C51.5932 51.3936 52.0889 48.9872 52.0861 46.5555C52.0861 36.5148 43.7644 28.396 33.5261 28.396C23.2879 28.396 14.9792 36.5226 14.9792 46.5607C14.9787 48.9907 15.4752 51.3952 16.4381 53.6263C19.2649 50.5889 25.852 48.4382 33.5261 48.4382Z" fill="#0869AB"/>
<path d="M33.5262 48.4596C41.1977 48.4596 47.7615 50.5894 50.5831 53.606C51.5468 51.3909 52.0417 49.0003 52.0367 46.5846C52.0367 36.6272 43.7463 28.5474 33.5262 28.5474C23.3061 28.5474 15.0235 36.6324 15.0235 46.5898C15.0213 49.0058 15.518 51.3961 16.4823 53.6112C19.2987 50.5894 25.8676 48.4596 33.5262 48.4596Z" fill="#0D6BAD"/>
<path d="M33.5262 48.4779C41.1795 48.4779 47.725 50.5921 50.5414 53.5775C51.4999 51.3847 51.9931 49.0168 51.9899 46.6237C51.9899 36.7417 43.7202 28.7061 33.5262 28.7061C23.3321 28.7061 15.0624 36.7495 15.0624 46.6263C15.0626 49.0191 15.5585 51.3858 16.5187 53.5775C19.3247 50.5895 25.8806 48.4779 33.5184 48.4779" fill="#0F6EAD"/>
<path d="M33.5262 48.5086C41.1613 48.5086 47.6887 50.6047 50.4972 53.5693C51.4523 51.3938 51.9438 49.0433 51.9405 46.6675C51.9405 36.8713 43.6942 28.8721 33.5262 28.8721C23.3581 28.8721 15.1197 36.8765 15.1197 46.6727C15.1203 49.0475 15.6153 51.3962 16.5734 53.5693C19.3663 50.5891 25.9014 48.5086 33.5262 48.5086Z" fill="#1270B0"/>
<path d="M33.5262 48.5088C41.1405 48.5088 47.6549 50.5892 50.453 53.5278C51.4027 51.3729 51.8916 49.0434 51.8885 46.6885C51.8885 36.9729 43.6604 29.0049 33.5184 29.0049C23.3763 29.0049 15.1587 36.9677 15.1587 46.6885C15.1585 49.0433 15.651 51.3721 16.6046 53.5252C19.4027 50.5892 25.9171 48.5088 33.5262 48.5088Z" fill="#1473B2"/>
<path d="M33.5262 48.5373C41.1197 48.5373 47.6158 50.597 50.4062 53.5148C51.357 51.3784 51.8471 49.0657 51.8443 46.7274C51.8443 37.0898 43.6396 29.1738 33.5236 29.1738C23.4075 29.1738 15.2133 37.0976 15.2133 46.7326C15.2141 49.0703 15.7058 51.3818 16.6566 53.5174C19.4391 50.5996 25.9431 48.5399 33.5236 48.5399" fill="#1775B2"/>
<path d="M33.5262 48.5556C41.1015 48.5556 47.569 50.5996 50.3646 53.4966C51.3124 51.3787 51.8016 49.0842 51.8001 46.7639C51.8001 37.2095 43.6136 29.3403 33.5262 29.3403C23.4387 29.3403 15.2627 37.2251 15.2627 46.7795C15.2637 49.099 15.7538 51.3922 16.7008 53.5096C19.4807 50.6152 25.9638 48.5686 33.5262 48.5686" fill="#1A78B5"/>
<path d="M33.5106 48.5761C41.0651 48.5761 47.5274 50.6019 50.3048 53.4703C51.2492 51.3709 51.735 49.0942 51.7299 46.7922C51.7299 37.3185 43.5668 29.4805 33.5028 29.4805C23.4387 29.4805 15.2991 37.3263 15.2991 46.8C15.2988 49.1004 15.789 51.3744 16.7372 53.4703C19.5093 50.6097 25.9768 48.5761 33.5158 48.5761" fill="#1C7AB5"/>
<path d="M33.5106 48.5942C41.0521 48.5942 47.491 50.6018 50.258 53.4442C51.2053 51.3666 51.694 49.1093 51.6909 46.8259C51.6909 37.4354 43.5486 29.6338 33.5106 29.6338C23.4726 29.6338 15.3407 37.4354 15.3407 46.8311C15.3393 49.1143 15.8279 51.3712 16.7736 53.4494C19.538 50.6044 25.9873 48.5994 33.508 48.5994" fill="#1C7DB8"/>
<path d="M33.508 48.6152C41.0235 48.6152 47.452 50.6072 50.2137 53.4262C51.1561 51.3674 51.6431 49.1294 51.6414 46.8651C51.6414 37.5526 43.5174 29.79 33.508 29.79C23.4985 29.79 15.3849 37.5578 15.3849 46.8651C15.3851 49.1295 15.8729 51.3672 16.8152 53.4262C19.5743 50.6072 26.0106 48.6152 33.508 48.6152Z" fill="#1F80B8"/>
<path d="M33.5054 48.6337C41.0027 48.6337 47.4156 50.6075 50.1695 53.4004C51.1092 51.362 51.5945 49.1437 51.592 46.8991C51.592 37.6673 43.494 29.9463 33.5054 29.9463C23.5167 29.9463 15.4291 37.6725 15.4291 46.9017C15.4301 49.1465 15.9172 51.3644 16.8568 53.403C19.6082 50.6101 26.0262 48.6363 33.5002 48.6363" fill="#2182BA"/>
<path d="M33.5002 48.6544C40.9741 48.6544 47.3714 50.61 50.1175 53.3795C51.0554 51.3598 51.5409 49.1597 51.54 46.9328C51.54 37.7816 43.4602 30.0996 33.5028 30.0996C23.5454 30.0996 15.4759 37.7868 15.4759 46.9484C15.4757 49.1744 15.9611 51.3736 16.8984 53.3925C19.6394 50.623 26.0419 48.6674 33.5002 48.6674" fill="#2485BA"/>
<path d="M33.5002 48.6725C40.9559 48.6725 47.335 50.6099 50.0733 53.3534C51.0099 51.3528 51.4939 49.1703 51.4906 46.9613C51.4906 37.8933 43.429 30.2529 33.5028 30.2529C23.5766 30.2529 15.5227 37.8985 15.5227 46.9639C15.5248 49.172 16.0103 51.353 16.9452 53.3534C19.6784 50.6073 26.0653 48.6725 33.5054 48.6725" fill="#298ABD"/>
<path d="M33.4976 48.6933C40.9325 48.6933 47.2934 50.6125 50.0265 53.3353C50.9589 51.3537 51.4411 49.1903 51.4386 47.0004C51.4386 38.0104 43.4056 30.4116 33.495 30.4116C23.5844 30.4116 15.5514 38.0182 15.5514 47.0004C15.5519 49.1903 16.0349 51.3532 16.966 53.3353C19.6966 50.6125 26.0679 48.6933 33.482 48.6933" fill="#2B8CBF"/>
<path d="M33.495 48.7117C40.9117 48.7117 47.257 50.6153 49.9823 53.3121C50.911 51.3497 51.3916 49.2054 51.3892 47.0344C51.3892 38.1276 43.377 30.5679 33.495 30.5679C23.613 30.5679 15.6086 38.1328 15.6086 47.0344C15.6099 49.2056 16.0922 51.3495 17.0207 53.3121C19.7434 50.6153 26.0965 48.7117 33.4924 48.7117" fill="#2E8FBF"/>
<path d="M33.4924 48.7323C40.8883 48.7323 47.2179 50.6177 49.9355 53.291C50.863 51.3476 51.3437 49.2213 51.3424 47.0679C51.3424 38.2418 43.351 30.7236 33.4924 30.7236C23.6338 30.7236 15.6554 38.2496 15.6554 47.0731C15.6558 49.2246 16.1364 51.3489 17.0623 53.291C19.7746 50.6177 26.1121 48.7323 33.4924 48.7323Z" fill="#2E91C2"/>
<path d="M33.4898 48.7504C40.8675 48.7504 47.1789 50.6175 49.8887 53.2649C50.8135 51.342 51.2926 49.2353 51.2904 47.1016C51.2904 38.3587 43.3172 30.877 33.4898 30.877C23.6624 30.877 15.6996 38.3665 15.6996 47.1016C15.7005 49.2355 16.1813 51.3419 17.1064 53.2649C19.8136 50.6175 26.1329 48.7504 33.4898 48.7504Z" fill="#3394C2"/>
<path d="M33.4872 48.7689C40.8441 48.7689 47.1399 50.6205 49.8419 53.2419C50.7664 51.3383 51.2458 49.2494 51.2436 47.1332C51.2436 38.4709 43.2938 31.0308 33.4898 31.0308C23.6858 31.0308 15.7464 38.4735 15.7464 47.1358C15.7455 49.2521 16.2228 51.3412 17.1429 53.247C19.8448 50.6231 26.1433 48.7742 33.4846 48.7742" fill="#3396C2"/>
<path d="M33.4846 48.7919C40.8207 48.7919 47.1009 50.6123 49.7925 53.2128C50.7146 51.3299 51.1924 49.2605 51.189 47.164C51.189 38.5822 43.2626 31.1812 33.482 31.1812C23.7014 31.1812 15.7984 38.5822 15.7984 47.164C15.8 49.2606 16.2794 51.3292 17.2001 53.2128C19.8916 50.6123 26.1745 48.7919 33.495 48.7919" fill="#3699C4"/>
<path d="M33.482 48.8103C40.8024 48.8103 47.0645 50.6307 49.7483 53.2026C50.6679 51.3384 51.1449 49.2871 51.1421 47.2084C51.1421 38.7047 43.2365 31.3452 33.482 31.3452C23.7274 31.3452 15.8426 38.7073 15.8426 47.2084C15.844 49.2819 16.319 51.3276 17.2313 53.1896C19.915 50.6125 26.1849 48.7973 33.482 48.7973" fill="#389CC7"/>
<path d="M33.4794 48.8309C40.7791 48.8309 47.0229 50.6305 49.6989 53.179C50.6159 51.3342 51.093 49.3021 51.0927 47.242C51.0927 38.8189 43.2054 31.501 33.4794 31.501C23.7534 31.501 15.879 38.8241 15.879 47.242C15.8791 49.3054 16.3562 51.3408 17.2729 53.1894C19.9514 50.6408 26.2005 48.8413 33.482 48.8413" fill="#3DA1C9"/>
<path d="M33.4794 48.8521C40.7609 48.8521 47.0021 50.6308 49.6547 53.1559C50.5702 51.3313 51.0458 49.3176 51.0433 47.2761C51.0433 38.9363 43.1793 31.6548 33.4794 31.6548C23.7794 31.6548 15.9258 38.9363 15.9258 47.2761C15.9272 49.3169 16.4017 51.3295 17.3119 53.1559C19.9852 50.6308 26.2187 48.8521 33.4794 48.8521Z" fill="#40A3C9"/>
<path d="M33.4742 48.8702C40.7322 48.8702 46.9475 50.6307 49.5974 53.135C50.5081 51.3283 50.9819 49.3331 50.9809 47.3098C50.9809 39.0506 43.1403 31.8081 33.4638 31.8081C23.7872 31.8081 15.9596 39.0506 15.9596 47.3098C15.9602 49.3329 16.434 51.3277 17.3431 53.135C20.0086 50.6333 26.2265 48.8702 33.4664 48.8702" fill="#42A6CC"/>
<path d="M33.4742 48.8884C40.714 48.8884 46.9085 50.6334 49.5636 53.1065C50.4728 51.3208 50.9451 49.3449 50.9419 47.3411C50.9419 39.1624 43.1221 31.959 33.4742 31.959C23.8262 31.959 16.0194 39.1624 16.0194 47.3385C16.0188 49.3428 16.4911 51.319 17.3977 53.1065C20.0529 50.6308 26.2551 48.8884 33.4742 48.8884Z" fill="#45A8CC"/>
<path d="M33.469 48.9089C40.6906 48.9089 46.8669 50.6331 49.5168 53.088C50.4247 51.3178 50.8964 49.3563 50.8925 47.3668C50.8925 39.2688 43.0909 32.1069 33.469 32.1069C23.847 32.1069 16.0585 39.2714 16.0585 47.3668C16.0569 49.356 16.5285 51.317 17.4341 53.088C20.0841 50.6331 26.2759 48.9089 33.4664 48.9089" fill="#47ABCF"/>
<path d="M33.469 48.9301C40.6698 48.9301 46.8331 50.6387 49.47 53.0676C50.3752 51.3206 50.8471 49.3816 50.8457 47.414C50.8457 39.3966 43.0675 32.2764 33.469 32.2764C23.8704 32.2764 16.1026 39.407 16.1026 47.4114C16.1048 49.3786 16.5764 51.3168 17.4783 53.065C20.1153 50.6387 26.2837 48.9275 33.4664 48.9275" fill="#4AADD1"/>
<path d="M33.4664 48.9482C40.6464 48.9482 46.7915 50.6412 49.4232 53.0441C50.3265 51.3179 50.7977 49.3985 50.7963 47.4503C50.7963 39.5135 43.0363 32.4297 33.4664 32.4297C23.8964 32.4297 16.1495 39.5135 16.1495 47.4451C16.1518 49.3945 16.6227 51.3148 17.5225 53.0441C20.1543 50.6412 26.3071 48.9482 33.4664 48.9482Z" fill="#4AB0D1"/>
<path d="M33.4638 48.9691C40.623 48.9691 46.7551 50.6412 49.379 53.0233C50.2791 51.3103 50.7477 49.4036 50.7443 47.4686C50.7443 39.615 43.0077 32.5728 33.4638 32.5728C23.9199 32.5728 16.1963 39.615 16.1963 47.466C16.198 49.3974 16.6673 51.2997 17.5642 53.0103C20.1907 50.6282 26.3227 48.9561 33.4638 48.9561" fill="#4FB2D4"/>
<path d="M33.4612 48.9874C40.5996 48.9874 46.7238 50.6439 49.3244 53C50.2229 51.3116 50.6918 49.428 50.6896 47.5154C50.6896 39.7399 42.9739 32.7393 33.456 32.7393C23.938 32.7393 16.2353 39.7399 16.2353 47.5128C16.2369 49.4254 16.7047 51.3088 17.5979 53C20.2193 50.6439 26.3357 48.9874 33.4612 48.9874Z" fill="#54BAD6"/>
<path d="M33.4586 49.0082C40.5788 49.0082 46.677 50.6465 49.2802 52.9766C50.1761 51.3089 50.6444 49.445 50.6428 47.5519C50.6428 39.8596 42.9505 32.8979 33.4586 32.8979C23.9666 32.8979 16.2951 39.8596 16.2951 47.5519C16.2961 49.4452 16.7632 51.3092 17.6552 52.9792C20.2557 50.6387 26.3695 49.0108 33.469 49.0108" fill="#54BDD6"/>
<path d="M33.456 49.0289C40.5554 49.0289 46.638 50.649 49.2386 52.9557C50.1311 51.3065 50.5986 49.4608 50.5987 47.5856C50.5987 39.9713 42.9271 33.0513 33.4586 33.0513C23.9901 33.0513 16.3315 39.9713 16.3315 47.5804C16.3335 49.4567 16.7999 51.3034 17.689 52.9557C20.2895 50.649 26.3773 49.0289 33.4586 49.0289" fill="#59BFD9"/>
<path d="M33.4533 49.0468C40.5346 49.0468 46.5964 50.6488 49.1891 52.932C50.0794 51.3028 50.5454 49.4757 50.544 47.6192C50.544 40.0776 42.8933 33.207 33.4507 33.207C24.0082 33.207 16.3627 40.088 16.3627 47.6139C16.3634 49.4716 16.8283 51.2996 17.715 52.932C20.3155 50.6488 26.3799 49.0468 33.4403 49.0468" fill="#59C2D9"/>
<path d="M33.4534 49.0912C40.5216 49.0912 46.5808 50.6854 49.171 52.9504C50.0588 51.3326 50.524 49.5168 50.5232 47.6714C50.5232 40.1896 42.8829 33.3477 33.4534 33.3477C24.0239 33.3477 16.3991 40.187 16.3991 47.6688C16.4022 49.5146 16.8671 51.3302 17.7514 52.9504C20.3519 50.6854 26.406 49.0912 33.456 49.0912" fill="#5EC2DB"/>
<path d="M33.4534 49.1356C40.5138 49.1356 46.5626 50.7194 49.145 52.9688C50.0334 51.3635 50.4988 49.5584 50.4972 47.7236C50.4972 40.2887 42.8699 33.4883 33.4534 33.4883C24.0369 33.4883 16.4199 40.2913 16.4199 47.721C16.4235 49.5556 16.8876 51.3601 17.7696 52.9688C20.3701 50.7194 26.4112 49.1356 33.4534 49.1356Z" fill="#63C4DB"/>
<path d="M33.4534 49.1793C40.506 49.1793 46.5444 50.7526 49.1267 52.989C50.0103 51.3978 50.4747 49.608 50.4764 47.788C50.4764 40.4025 42.8569 33.6411 33.4534 33.6411C24.0499 33.6411 16.4459 40.4025 16.4459 47.7854C16.4501 49.6048 16.9134 51.3937 17.793 52.9864C20.3805 50.7526 26.4241 49.1767 33.4534 49.1767" fill="#69C7DE"/>
<path d="M33.4534 49.224C40.4956 49.224 46.5288 50.7843 49.1033 53.0103C49.9862 51.4284 50.4499 49.6469 50.4504 47.8353C50.4504 40.4966 42.8413 33.7769 33.4508 33.7769C24.0603 33.7769 16.4667 40.4992 16.4667 47.8197C16.4683 49.6333 16.931 51.4168 17.8112 53.0026C20.3961 50.7791 26.4293 49.2162 33.4508 49.2162" fill="#6EC9DE"/>
<path d="M33.4534 49.2679C40.4748 49.2679 46.5106 50.8282 49.0825 53.0283C49.9641 51.458 50.4279 49.6878 50.4296 47.887C50.4296 40.6055 42.8309 33.917 33.4534 33.917C24.0759 33.917 16.4927 40.6003 16.4927 47.8844C16.497 49.6862 16.9596 51.4572 17.8372 53.0309C20.4169 50.8204 26.4423 49.2705 33.456 49.2705" fill="#73CCE0"/>
<path d="M33.4534 49.3152C40.4748 49.3152 46.4898 50.8574 49.0565 53.0496C49.9357 51.4908 50.3988 49.7318 50.401 47.9422C50.401 40.7023 42.8101 34.0605 33.4482 34.0605C24.0863 34.0605 16.5135 40.7075 16.5135 47.9396C16.5173 49.7298 16.9802 51.4893 17.858 53.0496C20.4325 50.8574 26.4398 49.3152 33.4612 49.3152" fill="#7ACFE0"/>
<path d="M33.4534 49.3592C40.4748 49.3592 46.4742 50.8909 49.0409 53.0701C49.9187 51.524 50.381 49.777 50.3828 47.9991C50.3828 40.8086 42.8049 34.2163 33.4534 34.2163C24.1019 34.2163 16.55 40.819 16.55 47.9991C16.5548 49.777 17.0159 51.524 17.8892 53.0727C20.4611 50.8935 26.471 49.3618 33.4664 49.3618" fill="#80CFE3"/>
<path d="M33.4534 49.4036C40.4566 49.4036 46.456 50.9249 49.0175 53.0885C49.8933 51.5548 50.3557 49.82 50.3594 48.0539C50.3594 40.9103 42.7893 34.3491 33.456 34.3491C24.1227 34.3491 16.5526 40.9102 16.5526 48.0461C16.5571 49.8142 17.0184 51.5512 17.8918 53.0885C20.4585 50.9249 26.4736 49.4036 33.4482 49.4036" fill="#85D1E3"/>
<path d="M33.4534 49.4472C40.4488 49.4472 46.4378 50.9581 48.9967 53.1061C49.8711 51.5833 50.3328 49.8586 50.336 48.1027C50.336 41.0085 42.7789 34.4863 33.4534 34.4863C24.1279 34.4863 16.5838 41.0084 16.5838 48.0975C16.588 49.8549 17.0495 51.5811 17.923 53.1061C20.4846 50.9581 26.4814 49.4472 33.456 49.4472" fill="#8AD4E5"/>
<path d="M33.4534 49.4921C40.4358 49.4921 46.4222 50.9926 48.9759 53.1328C49.849 51.6228 50.3108 49.9101 50.3152 48.1658C50.3152 41.121 42.7737 34.6431 33.4534 34.6431C24.1331 34.6431 16.6046 41.1262 16.6046 48.1658C16.61 49.9101 17.0698 51.6229 17.9386 53.1354C20.5001 51.0004 26.4892 49.4947 33.4534 49.4947" fill="#8FD6E5"/>
<path d="M33.4533 49.5356C40.428 49.5356 46.404 51.0257 48.9551 53.1426C49.8277 51.642 50.2879 49.9374 50.2892 48.2016C50.2892 41.2036 42.7476 34.7646 33.4533 34.7646C24.1591 34.7646 16.6227 41.227 16.6227 48.2094C16.6275 49.9444 17.0865 51.6479 17.9542 53.1504C20.5105 51.0309 26.4891 49.5408 33.4455 49.5408" fill="#94D6E8"/>
<path d="M33.4534 49.5799C40.4176 49.5799 46.3858 51.0596 48.9343 53.1608C49.8028 51.6748 50.2622 49.9852 50.2658 48.264C50.2658 41.3154 42.7373 34.9155 33.4534 34.9155C24.1695 34.9155 16.654 41.318 16.654 48.2614C16.6586 49.9843 17.116 51.6756 17.9803 53.166C20.534 51.0622 26.5048 49.5825 33.4534 49.5825" fill="#99D9E8"/>
<path d="M33.4534 49.6243C40.4098 49.6243 46.3676 51.0936 48.9135 53.1818C49.7804 51.7074 50.2399 50.0292 50.245 48.3188C50.245 41.417 42.7269 35.0562 33.4534 35.0562C24.1799 35.0562 16.6748 41.4196 16.6748 48.3188C16.6804 50.0312 17.1389 51.7116 18.0036 53.1896C20.5522 51.1092 26.5152 49.6321 33.4534 49.6321" fill="#9EDBE8"/>
<path d="M33.4534 49.6681C40.3994 49.6681 46.352 51.1269 48.8901 53.1996C49.7562 51.7372 50.2159 50.07 50.2216 48.3704C50.2216 41.5232 42.7138 35.1987 33.456 35.1987C24.1981 35.1987 16.7008 41.5232 16.7008 48.3678C16.7069 50.0683 17.1646 51.7366 18.027 53.2022C20.5678 51.1217 26.5282 49.6681 33.456 49.6681" fill="#A3DEEB"/>
<path d="M33.4534 49.7152C40.3916 49.7152 46.3364 51.1663 48.8693 53.2207C49.7329 51.7708 50.1918 50.1157 50.1982 48.428C50.1982 41.625 42.7008 35.3447 33.4534 35.3447C24.2059 35.3447 16.7216 41.6276 16.7216 48.4254C16.7292 50.1138 17.186 51.7698 18.0453 53.2233C20.586 51.1637 26.5386 49.7152 33.4534 49.7152Z" fill="#A8DEED"/>
<path d="M33.4534 49.7591C40.3786 49.7591 46.3156 51.1998 48.8485 53.2386C49.71 51.8002 50.1682 50.1563 50.1748 48.4797C50.1748 41.7183 42.6878 35.4771 33.4534 35.4771C24.2189 35.4771 16.745 41.7183 16.745 48.4797C16.7513 50.1577 17.2085 51.8031 18.0687 53.2439C20.6068 51.1998 26.5464 49.7617 33.4534 49.7591Z" fill="#B0E3ED"/>
<path d="M33.4534 49.8091C40.3708 49.8091 46.2974 51.2394 48.8277 53.2652C49.6864 51.839 50.1437 50.2073 50.1513 48.5426C50.1513 41.8359 42.6748 35.6362 33.4534 35.6362C24.2319 35.6362 16.7658 41.8411 16.7658 48.5374C16.774 50.2042 17.2303 51.838 18.0869 53.2678C20.6198 51.2394 26.5542 49.8117 33.4534 49.8091Z" fill="#B5E3ED"/>
<path d="M33.4534 49.8478C40.3604 49.8478 46.2818 51.2677 48.7965 53.2779C49.6526 51.8659 50.1101 50.2482 50.1201 48.597C50.1201 41.937 42.6488 35.7764 33.443 35.7764C24.2371 35.7764 16.7788 41.9422 16.7788 48.5918C16.7882 50.2424 17.2438 51.8598 18.0973 53.2727C20.6276 51.2599 26.5542 49.8426 33.4404 49.84" fill="#BAE5F0"/>
<path d="M33.4534 49.8919C40.3526 49.8919 46.2635 51.3014 48.7965 53.2986C49.6515 51.8959 50.1073 50.2864 50.1149 48.6436C50.1149 42.0357 42.6592 35.9141 33.4716 35.9141C24.2839 35.9141 16.8282 42.0383 16.8282 48.641C16.832 50.2835 17.2814 51.8941 18.1285 53.3012C20.6562 51.304 26.5724 49.8945 33.4534 49.8945" fill="#BFE8F2"/>
<path d="M33.4534 49.9366C40.3422 49.9366 46.2454 51.3383 48.7601 53.3173C49.6158 51.9272 50.0728 50.3285 50.0811 48.6962C50.0811 42.135 42.6332 36.0576 33.4534 36.0576C24.2735 36.0576 16.8334 42.1428 16.8334 48.6962C16.844 50.3283 17.2989 51.9267 18.1493 53.3199C20.6744 51.3357 26.5854 49.9392 33.4534 49.9392" fill="#C4E8F2"/>
<path d="M33.4534 49.9805C40.3344 49.9805 46.2271 51.3692 48.7419 53.3352C49.5947 51.9574 50.0509 50.3709 50.0603 48.7505C50.0603 42.2492 42.6228 36.1978 33.4534 36.1978C24.2839 36.1978 16.8594 42.2414 16.8594 48.7505C16.8656 50.3697 17.3153 51.9562 18.1597 53.3378C20.6796 51.3692 26.5828 49.9805 33.4404 49.9805" fill="#C9EBF2"/>
<path d="M33.4534 50.0248C40.3213 50.0248 46.2115 51.4005 48.721 53.3561C49.5645 51.9874 50.0144 50.4128 50.0213 48.8051C50.0213 42.3428 42.5942 36.3408 33.4404 36.3408C24.2865 36.3408 16.8828 42.3454 16.8828 48.8025C16.8902 50.4118 17.34 51.9879 18.1831 53.3587C20.7004 51.4031 26.5958 50.0274 33.4456 50.0248" fill="#CFEDF5"/>
<path d="M33.4534 50.0692C40.3136 50.0692 46.196 51.4371 48.7003 53.3745C49.5432 52.019 49.9933 50.4561 50.0005 48.8599C50.0005 42.4418 42.5812 36.4814 33.443 36.4814C24.3047 36.4814 16.9088 42.4497 16.9088 48.8574C16.9168 50.4559 17.3668 52.021 18.2091 53.3797C20.7212 51.4397 26.6088 50.0744 33.4508 50.0718" fill="#D4F0F5"/>
<path d="M33.4534 50.1154C40.3006 50.1154 46.1752 51.4729 48.6769 53.3947C49.5185 52.0511 49.9688 50.4994 49.9771 48.914C49.9771 42.5505 42.5708 36.6265 33.443 36.6265C24.3151 36.6265 16.9166 42.5505 16.9166 48.9113C16.9236 50.4986 17.3739 52.0523 18.2169 53.3973C20.7212 51.4729 26.6036 50.118 33.4352 50.1154" fill="#D9F2F5"/>
<path d="M33.4534 50.1601C40.2954 50.1601 46.1595 51.5072 48.656 53.416C49.4976 52.0858 49.9481 50.5457 49.9563 48.9717C49.9563 42.655 42.5578 36.77 33.443 36.77C24.3281 36.77 16.9426 42.655 16.9426 48.9665C16.9513 50.5429 17.4018 52.0853 18.2429 53.4186C20.7498 51.5098 26.6192 50.1627 33.4404 50.1627" fill="#DEF2F7"/>
<path d="M33.4534 50.2045C40.285 50.2045 46.1413 51.5412 48.6352 53.4344C49.4762 52.1125 49.9269 50.5801 49.9355 49.0135C49.9355 42.7488 42.55 36.9028 33.4482 36.9028C24.3463 36.9028 16.9764 42.7566 16.9764 49.0291C16.9868 50.5955 17.4373 52.1274 18.2767 53.45C20.7758 51.5542 26.64 50.2201 33.4508 50.2175" fill="#E5F5FA"/>
<path d="M33.4534 50.2483C40.2745 50.2483 46.1231 51.5746 48.6118 53.4521C49.4509 52.1458 49.9018 50.628 49.9121 49.0754C49.9121 42.8576 42.5344 37.0532 33.4482 37.0532C24.3619 37.0532 16.992 42.8602 16.992 49.0728C17.0038 50.6268 17.4545 52.1459 18.2923 53.4547C20.7888 51.5746 26.6452 50.2483 33.4482 50.2483" fill="#EBF7FA"/>
<path d="M33.4534 50.2927C40.2641 50.2927 46.1049 51.6112 48.591 53.4705C49.4288 52.1761 49.8799 50.6695 49.8913 49.1277C49.8913 42.9566 42.524 37.1938 33.4482 37.1938C24.3723 37.1938 17.018 42.9592 17.018 49.1251C17.031 50.6683 17.4819 52.1761 18.3183 53.4732C20.8096 51.6086 26.6608 50.2927 33.4534 50.2901" fill="#F0FAFC"/>
<path d="M33.4534 50.329C40.2538 50.329 46.0893 51.6292 48.5702 53.4808C49.4051 52.1995 49.8563 50.7062 49.8705 49.1769C49.8705 43.0553 42.5136 37.3315 33.4508 37.3315C24.388 37.3315 17.0441 43.0527 17.0441 49.1717C17.0586 50.7042 17.5096 52.2008 18.3443 53.486C20.833 51.6344 26.666 50.329 33.4586 50.329" fill="#F5FAFC"/>
<path d="M33.4534 50.3813C40.2433 50.3813 46.0711 51.6816 48.552 53.502C49.3861 52.2309 49.8374 50.7469 49.8523 49.2267C49.8523 43.1545 42.5084 37.4697 33.469 37.4697C24.4295 37.4697 17.0856 43.1571 17.0856 49.2241C17.1003 50.7452 17.5516 52.23 18.3859 53.502C20.872 51.666 26.7076 50.3813 33.469 50.3813" fill="#FAFCFF"/>
<path d="M33.4534 50.4251C40.2381 50.4251 46.0529 51.7124 48.5364 53.5301C49.369 52.2719 49.8205 50.8 49.8367 49.2913C49.8367 43.2633 42.5006 37.6201 33.4534 37.6201C24.4061 37.6201 17.0935 43.2711 17.0935 49.2887C17.1068 50.7994 17.5585 52.2738 18.3937 53.5327C20.8746 51.7124 26.6972 50.4277 33.4612 50.4251" fill="white"/>
</g>
<path d="M33.3727 44.4185C27.4383 44.4185 21.9304 45.4275 17.3977 47.1334C18.7761 50.2177 21.0179 52.837 23.8525 54.675C26.6871 56.513 29.9931 57.491 33.3714 57.491C36.7497 57.491 40.0558 56.513 42.8904 54.675C45.7249 52.837 47.9668 50.2177 49.3452 47.1334C44.802 45.4275 39.2915 44.4185 33.3727 44.4185Z" fill="#0869AB"/>
<path d="M202.266 50.2515C200.668 50.2515 199.114 50.2515 197.574 50.2515C197.264 50.2515 197.25 50.0417 197.185 49.8608L193.658 39.7751C193.56 39.4596 193.422 39.1581 193.248 38.8779C192.523 42.6595 191.804 46.4434 191.089 50.2298H186.252C186.547 48.7176 186.835 47.22 187.123 45.7296C188.059 40.9061 188.99 36.061 189.916 31.1942C189.98 30.8324 190.124 30.7456 190.47 30.7529C191.808 30.7529 193.147 30.7529 194.486 30.7529C194.621 30.7336 194.758 30.7672 194.869 30.8466C194.98 30.926 195.057 31.0453 195.083 31.1798C196.292 34.6864 197.506 38.193 198.725 41.6996C198.776 41.8515 198.848 42.0035 198.948 42.264C199.135 41.2872 199.315 40.4334 199.481 39.5725L201.108 31.1436C201.144 30.9265 201.18 30.7601 201.475 30.7601C202.914 30.7601 204.354 30.7601 205.793 30.7601C205.867 30.7555 205.942 30.7555 206.016 30.7601L202.266 50.2515Z" fill="#0062AC"/>
<path d="M158.319 38.2561C159.251 38.3053 160.185 38.3053 161.118 38.2561C161.628 38.1749 162.105 37.9545 162.499 37.619C162.797 37.3862 163.013 37.0647 163.118 36.7005C163.223 36.3363 163.21 35.9482 163.082 35.5916C162.837 34.8675 162.132 34.7589 161.463 34.7371C160.794 34.7154 160.024 34.7371 159.305 34.7371C159.082 34.7371 158.952 34.7806 158.909 35.034C158.715 36.1201 158.506 37.2062 158.297 38.2923M156.75 46.2571C156.839 46.2623 156.928 46.2623 157.016 46.2571C157.894 46.2571 158.772 46.2571 159.643 46.2571C159.911 46.249 160.176 46.2077 160.434 46.134C160.996 45.9982 161.492 45.666 161.833 45.1966C162.175 44.7271 162.339 44.1509 162.298 43.5708C162.305 43.2988 162.228 43.0314 162.077 42.8057C161.926 42.5799 161.709 42.407 161.456 42.3109C161.142 42.1819 160.809 42.1037 160.47 42.0792C159.607 42.0357 158.743 42.0792 157.887 42.0357C157.621 42.0357 157.527 42.1443 157.484 42.3833C157.311 43.3391 157.124 44.2876 156.937 45.2361L156.75 46.2498M164.723 39.6101C164.787 39.6608 164.809 39.697 164.852 39.7043C165.718 40.0698 166.423 40.7404 166.833 41.5907C167.244 42.4409 167.332 43.4126 167.083 44.3238C166.924 45.3769 166.519 46.3771 165.901 47.2419C165.283 48.1067 164.47 48.8115 163.528 49.2982C162.294 49.9077 160.938 50.2271 159.564 50.2322C156.822 50.2756 154.088 50.2322 151.347 50.2322C151.28 50.2364 151.212 50.2364 151.145 50.2322C151.397 48.9216 151.642 47.6183 151.865 46.315C152.824 41.2755 153.795 36.236 154.779 31.1965C154.829 30.9213 154.872 30.7476 155.232 30.7476C157.765 30.7476 160.269 30.7476 162.823 30.791C163.898 30.7764 164.966 30.9808 165.96 31.3919C166.688 31.6826 167.289 32.2232 167.658 32.9178C168.027 33.6124 168.139 34.416 167.975 35.1861C167.898 36.1158 167.57 37.0068 167.028 37.7633C166.485 38.5198 165.748 39.1133 164.895 39.4798C164.831 39.4798 164.78 39.5595 164.708 39.6101" fill="#0062AC"/>
<path d="M221.931 50.2515C220.211 50.2515 218.548 50.2515 216.886 50.2515C216.758 50.2515 216.58 50.0635 216.523 49.919C215.578 47.5769 214.655 45.2203 213.724 42.871C213.674 42.7409 213.61 42.6108 213.518 42.394C212.807 43.1168 212.097 43.8397 211.429 44.5626C211.261 44.8913 211.169 45.2547 211.159 45.6252C210.882 47.0709 210.626 48.5166 210.342 49.9262C210.342 50.0563 210.15 50.2443 210.051 50.2515C208.551 50.2515 207.052 50.2515 205.496 50.2515C205.659 49.3768 205.816 48.5383 205.972 47.6998C207.019 42.206 208.066 36.7074 209.113 31.204C209.177 30.8715 209.29 30.7631 209.624 30.7703C210.932 30.7703 212.239 30.7703 213.546 30.7703H214.001L212.651 37.7532L213.092 37.3267C215.109 35.2448 217.134 33.163 219.145 31.0739C219.242 30.9654 219.36 30.88 219.493 30.8237C219.626 30.7675 219.769 30.7418 219.913 30.7486C221.426 30.7486 222.939 30.7486 224.453 30.7486C224.595 30.7486 224.737 30.7486 224.879 30.7486L225 30.9076C224.853 30.9752 224.715 31.0602 224.588 31.1607C222.219 33.5317 219.851 35.905 217.483 38.2809C217.364 38.3731 217.282 38.5069 217.255 38.6565C217.227 38.806 217.255 38.9607 217.333 39.0905C218.802 42.618 220.261 46.1481 221.71 49.6805C221.774 49.8323 221.831 49.984 221.916 50.2009" fill="#0062AC"/>
<path d="M178.932 42.3281C178.788 40.208 178.643 38.1096 178.506 36.0112H178.427L175.543 42.3354L178.932 42.3281ZM182.421 30.7507C183.178 37.263 183.928 43.703 184.692 50.2081H179.465C179.357 48.9201 179.256 47.6321 179.155 46.2934H178.651C177.209 46.2934 175.695 46.2934 174.224 46.2934C174.064 46.2779 173.903 46.3204 173.771 46.4133C173.638 46.5061 173.544 46.6432 173.503 46.7999C173.056 47.8564 172.58 48.8984 172.061 49.9476C172.004 50.0706 171.86 50.2515 171.751 50.2515C170.1 50.2515 168.45 50.2515 166.748 50.2515C166.828 50.0778 166.878 49.9404 166.943 49.8101C170.067 43.6017 173.191 37.3932 176.315 31.1848C176.361 31.0471 176.453 30.9292 176.575 30.8504C176.696 30.7716 176.841 30.7364 176.985 30.7507C178.643 30.7507 180.294 30.7507 181.952 30.7507H182.421Z" fill="#0062AC"/>
<path d="M79.0005 29.9668L74.6242 41.3116L72.8437 29.9668H69.0109L62.9185 41.2263L62.9042 29.9668H58.3134L58.3063 49.9908H63.0186L69.4471 38.2124L71.3706 49.9908H76.0401L83.7914 29.9668H79.0005Z" fill="#0062AC"/>
<path d="M89.5182 46.2556C89.2281 46.2811 88.9359 46.2406 88.6643 46.1374C88.3926 46.0341 88.1486 45.8709 87.9511 45.6602C87.4409 45.0504 86.9818 43.5798 87.6815 40.0144C88.5488 35.5809 90.0794 33.4359 92.3753 33.4359C92.662 33.4117 92.9505 33.4528 93.2185 33.556C93.4865 33.6593 93.7266 33.8219 93.9204 34.0313C94.4379 34.6483 94.9044 36.1189 94.2047 39.6843C93.3373 44.1106 91.8067 46.2556 89.5109 46.2556M92.8053 29.4473C87.1931 29.4473 83.6728 32.8907 82.3463 39.6843C81.6174 43.5726 81.9381 46.3274 83.4177 48.0993C84.6203 49.5341 86.5226 50.2515 89.0808 50.2515C94.693 50.2515 98.2134 46.808 99.5399 40.0215C100.269 36.1333 99.948 33.3857 98.4612 31.6066C97.2586 30.1718 95.3635 29.4544 92.8126 29.4544" fill="#0062AC"/>
<path d="M108.013 46.2556C107.732 46.2805 107.448 46.2398 107.185 46.1366C106.921 46.0334 106.684 45.8704 106.492 45.6602C105.997 45.0504 105.551 43.5798 106.23 40.0144C107.072 35.5809 108.565 33.4359 110.786 33.4359C111.066 33.4111 111.347 33.4519 111.608 33.5552C111.87 33.6584 112.104 33.8214 112.293 34.0313C112.796 34.6483 113.248 36.1189 112.569 39.6843C111.727 44.1106 110.242 46.2556 108.013 46.2556ZM111.211 29.4473C105.764 29.4473 102.347 32.8907 101.059 39.6843C100.352 43.5726 100.663 46.3274 102.099 48.0993C103.266 49.5341 105.113 50.2515 107.596 50.2515C113.043 50.2515 116.46 46.808 117.755 40.0215C118.462 36.1333 118.151 33.3857 116.701 31.6066C115.533 30.1718 113.694 29.4544 111.218 29.4544" fill="#0062AC"/>
<path d="M138.339 29.9668L134.502 49.9908H139.766L143.604 29.9668H138.339Z" fill="#0062AC"/>
<path d="M126.145 33.6805C127.415 33.6805 130.446 32.6558 129.927 36.2993C129.408 39.9428 125.058 39.4731 125.058 39.4731L126.145 33.6805ZM130.509 42.0919C132.909 40.7184 134.502 38.0427 134.502 34.5914C134.502 29.4819 128.496 29.9801 128.496 29.9801H122.272L118.118 49.9055H122.77L124.124 43.0881H125.942C126.32 43.1368 126.669 43.3203 126.926 43.6058C127.183 43.8913 127.331 44.2602 127.345 44.6466C127.527 46.4399 127.794 49.9908 127.794 49.9908H132.46C132.46 49.9908 132.046 45.1162 131.927 44.3833C131.902 43.9085 131.761 43.4474 131.516 43.0422C131.271 42.637 130.93 42.3004 130.523 42.0634" fill="#0062AC"/>
</svg>
