<svg xmlns="http://www.w3.org/2000/svg" width="229" height="40" fill="none" viewBox="0 0 229 40"><g clip-path="url(#clip0_5_7791)"><path fill="#fff" d="M40 20C40 23.9561 38.8267 27.8233 36.6286 31.1126C34.4305 34.4018 31.3063 36.9652 27.6511 38.4787C23.9959 39.9921 19.974 40.3875 16.094 39.6149C12.2141 38.8422 8.65047 36.9363 5.85387 34.1381C3.05727 31.3399 1.15335 27.7752 0.382922 23.8949C-0.387502 20.0145 0.0101841 15.9928 1.52568 12.3385C3.04117 8.68415 5.60638 5.56137 8.89685 3.3651C12.1873 1.16884 16.0552 -0.00223884 20.0113 3.21334e-06C25.3139 0.00225735 30.3985 2.11047 34.147 5.86104C37.8954 9.6116 40.0008 14.6974 40 20Z"/><path fill="#0869AB" d="M20.0056 39C23.7631 38.9989 27.4359 37.8837 30.5596 35.7954C33.6834 33.7071 36.1178 30.7395 37.555 27.2677C38.9923 23.796 39.368 19.9761 38.6344 16.2909C37.9009 12.6057 36.0912 9.22073 33.434 6.56398C30.7769 3.90724 27.3917 2.098 23.7064 1.36502C20.0211 0.63204 16.2012 1.00823 12.7297 2.44603C9.25814 3.88382 6.29089 6.31867 4.20306 9.44271C2.11522 12.5667 1.00056 16.2397 1 19.9972C0.998887 22.4932 1.48974 24.965 2.4445 27.2712C3.39926 29.5774 4.79922 31.6728 6.56431 33.4377C8.32941 35.2025 10.425 36.6021 12.7314 37.5566C15.0378 38.511 17.5096 39.0015 20.0056 39Z"/><mask id="mask0_5_7791" width="38" height="38" x="1" y="1" maskUnits="userSpaceOnUse" style="mask-type:luminance"><path fill="#fff" d="M1 19.9972C0.999441 23.755 2.11322 27.4286 4.20051 30.5535C6.28779 33.6783 9.25482 36.114 12.7264 37.5526C16.198 38.9912 20.0182 39.368 23.7039 38.6355C27.3897 37.9029 30.7754 36.0938 33.433 33.437C36.0906 30.7802 37.9007 27.395 38.6344 23.7095C39.368 20.024 38.9923 16.2036 37.5548 12.7316C36.1172 9.25962 33.6824 6.29186 30.5582 4.20365C27.4339 2.11544 23.7607 1.00056 20.0028 1C17.5076 0.999258 15.0367 1.49009 12.7312 2.44445C10.4257 3.39882 8.33079 4.79802 6.56614 6.56214C4.80149 8.32627 3.40166 10.4208 2.44661 12.726C1.49156 15.0312 1 17.5019 1 19.9972Z"/></mask><g mask="url(#mask0_5_7791)"><path fill="#0869AB" d="M19.993 28.448C28.2851 28.448 35.3774 30.7468 38.4302 34C39.4687 31.6107 40.003 29.0355 40 26.4332C40 15.6883 31.0295 7 19.993 7C8.95648 7 3.03732e-07 15.6967 3.03732e-07 26.4388C-0.000465444 29.0393 0.534714 31.6124 1.57264 34C4.61981 30.7495 11.7205 28.448 19.993 28.448Z"/><path fill="#0D6BAD" d="M19.9958 29.4504C28.2864 29.4504 35.3797 31.7448 38.429 34.9944C39.4705 32.6081 40.0053 30.0329 40 27.4306C40 16.704 31.0405 8 19.9958 8C8.95103 8 7.47133e-06 16.7096 7.47133e-06 27.4362C-0.00230979 30.0388 0.534428 32.6138 1.57662 35C4.62025 31.7448 11.7192 29.4504 19.9958 29.4504Z"/><path fill="#0F6EAD" d="M20 29.4639C28.2901 29.4639 35.3803 31.7591 38.431 35C39.4692 32.6195 40.0035 30.049 40 27.4511C40 16.7233 31.0422 8 20 8C8.95774 8 0 16.7318 0 27.4539C0.000211844 30.0514 0.537319 32.6208 1.57747 35C4.6169 31.7563 11.7183 29.4639 19.9915 29.4639"/><path fill="#1270B0" d="M19.9958 29.4675C28.2901 29.4675 35.381 31.759 38.4321 35C39.4696 32.6217 40.0035 30.052 40 27.4547C40 16.7451 31.0417 8 19.9958 8C8.94978 8 0 16.7508 0 27.4604C0.000637309 30.0566 0.538452 32.6243 1.57921 35C4.61332 31.7419 11.7127 29.4675 19.9958 29.4675Z"/><path fill="#1473B2" d="M20.0028 29.474C28.2951 29.474 35.3894 31.7646 38.4367 35C39.4709 32.6274 40.0034 30.0625 40 27.4698C40 16.7729 31.0394 8 19.9943 8C8.9493 8 6.12109e-08 16.7671 6.12109e-08 27.4698C-0.000209204 30.0625 0.536156 32.6265 1.57462 34.9971C4.62192 31.7646 11.7162 29.474 20.0028 29.474Z"/><path fill="#1775B2" d="M19.9972 29.4765C28.2891 29.4765 35.3826 31.7609 38.4296 34.9971C39.4679 32.6277 40.003 30.0626 40 27.4691C40 16.7798 31.0407 8 19.9943 8C8.94789 8 0 16.7885 0 27.4748C0.000860581 30.0676 0.537797 32.6313 1.57604 35C4.61451 31.7638 11.7166 29.4794 19.9943 29.4794"/><path fill="#1A78B5" d="M19.9943 28.6708C28.2875 28.6708 35.368 30.8696 38.4285 33.986C39.4661 31.7076 40.0017 29.2394 40 26.7433C40 16.4652 31.0377 8 19.9943 8C8.95089 8 0 16.482 0 26.7601C0.00116908 29.2553 0.537624 31.7222 1.57438 34C4.61779 30.8864 11.7153 28.6847 19.9943 28.6847"/><path fill="#1C7AB5" d="M19.9957 29.6957C28.2904 29.6957 35.3858 31.8913 38.4353 35C39.4722 32.7247 40.0056 30.2572 40 27.7623C40 17.4947 31.0372 9 19.9871 9C8.9371 9 1.85192e-07 17.5032 1.85192e-07 27.7707C-0.000364516 30.2639 0.537935 32.7285 1.57898 35C4.62274 31.8997 11.7239 29.6957 20.0014 29.6957"/><path fill="#1C7DB8" d="M19.9943 29.6995C28.293 29.6995 35.3784 31.8912 38.4232 34.9943C39.4657 32.7261 40.0035 30.2618 40 27.7689C40 17.5171 31.0402 9 19.9943 9C8.94835 9 3.55008e-06 17.5171 3.55008e-06 27.7746C-0.00159414 30.2673 0.536098 32.7312 1.57676 35C4.61868 31.8941 11.7155 29.7052 19.9914 29.7052"/><path fill="#1F80B8" d="M19.9943 29.7079C28.2858 29.7079 35.378 31.8991 38.4249 35C39.4646 32.7352 40.0019 30.2734 40 27.7827C40 17.5389 31.0372 9 19.9943 9C8.95137 9 0 17.5446 0 27.7827C0.000193572 30.2735 0.538383 32.7351 1.57797 35C4.622 31.8991 11.7229 29.7079 19.9943 29.7079Z"/><path fill="#2182BA" d="M19.4944 29.7135C27.5799 29.7135 34.4959 31.9013 37.4659 34.9971C38.4793 32.7377 39.0027 30.2788 39 27.7909C39 17.5581 30.2667 9 19.4944 9C8.72214 9 0 17.5639 0 27.7938C0.00109648 30.2819 0.52636 32.7403 1.53969 35C4.5069 31.9042 11.4285 29.7164 19.4888 29.7164"/><path fill="#2485BA" d="M20.4916 28.9146C28.5739 28.9146 35.492 31.0135 38.4617 33.986C39.4759 31.8183 40.0009 29.4569 40 27.0669C40 17.2449 31.2624 9 20.4944 9C9.72635 9 1 17.2505 1 27.0836C0.999695 29.4727 1.52467 31.8331 2.53829 34C5.50238 31.0275 12.4261 28.9285 20.4916 28.9285"/><path fill="#298ABD" d="M20.4929 28.9341C28.5772 28.9341 35.494 31.0308 38.4632 34C39.4788 31.8349 40.0035 29.4729 40 27.0823C40 17.2686 31.2588 9 20.4958 9C9.73277 9 1 17.2742 1 27.0851C1.00223 29.4748 1.5287 31.835 2.5424 34C5.50596 31.028 12.4313 28.9341 20.4986 28.9341"/><path fill="#2B8CBF" d="M20.5028 29.9376C28.5826 29.9376 35.4952 32.0306 38.4654 35C39.4786 32.8389 40.0027 30.4796 40 28.0913C40 18.287 31.2702 10 20.5 10C9.72978 10 1 18.2955 1 28.0913C1.00054 30.4796 1.52545 32.8384 2.53739 35C5.50478 32.0306 12.4287 29.9376 20.4859 29.9376"/><path fill="#2E8FBF" d="M20.4957 29.9434C28.5798 29.9434 35.496 32.0358 38.4665 35C39.4788 32.843 40.0026 30.486 40 28.0997C40 18.3095 31.2669 10 20.4957 10C9.72462 10 1 18.3152 1 28.0997C1.00147 30.4862 1.5271 32.8427 2.53914 35C5.50687 32.0358 12.4316 29.9434 20.4929 29.9434"/><path fill="#2E91C2" d="M20.4929 29.9499C28.5754 29.9499 35.4927 32.0385 38.4625 35C39.4761 32.8471 40.0014 30.4916 40 28.1061C40 18.3285 31.2667 10 20.4929 10C9.71908 10 1 18.3372 1 28.1119C1.00047 30.4953 1.52574 32.8485 2.53749 35C5.50164 32.0385 12.4275 29.9499 20.4929 29.9499Z"/><path fill="#3394C2" d="M20.4943 29.1604C28.5787 29.1604 35.4947 31.162 38.464 34C39.4774 31.9387 40.0024 29.6803 40 27.393C40 18.0204 31.263 10 20.4943 10C9.72555 10 1 18.0288 1 27.393C1.001 29.6805 1.52788 31.9386 2.54164 34C5.5081 31.162 12.4327 29.1604 20.4943 29.1604Z"/><path fill="#3396C2" d="M20.4914 29.1624C28.5743 29.1624 35.4914 31.1626 38.46 33.9944C39.4758 31.938 40.0024 29.6814 40 27.3953C40 18.0375 31.2657 10 20.4943 10C9.72285 10 1 18.0403 1 27.3981C0.998969 29.6843 1.52346 31.9412 2.53429 34C5.50286 31.1654 12.4229 29.168 20.4886 29.168"/><path fill="#3699C4" d="M20.49 29.1841C28.5742 29.1841 35.495 31.1671 38.4611 34C39.4772 31.9489 40.0037 29.6946 40 27.4108C40 18.0623 31.2652 10 20.4871 10C9.70901 10 1 18.0623 1 27.4108C1.00178 29.6946 1.53004 31.9481 2.54464 34C5.51069 31.1671 12.4343 29.1841 20.5014 29.1841"/><path fill="#389CC7" d="M19.9888 30.1772C27.8693 30.1772 34.6104 32.176 37.4995 35C38.4895 32.9531 39.003 30.7007 39 28.4182C39 19.0809 30.4896 11 19.9888 11C9.48799 11 1 19.0838 1 28.4182C1.00157 30.6949 1.51287 32.9412 2.49492 34.9857C5.38397 32.156 12.1335 30.1629 19.9888 30.1629"/><path fill="#3DA1C9" d="M19.993 30.177C27.8702 30.177 34.6082 32.1684 37.4958 34.9885C38.4855 32.9471 39.0003 30.6984 39 28.4187C39 19.0978 30.4885 11 19.993 11C9.49745 11 1 19.1036 1 28.4187C1.00009 30.702 1.51488 32.9544 2.50417 35C5.39465 32.1799 12.1382 30.1885 19.9958 30.1885"/><path fill="#40A3C9" d="M19.9944 29.3961C27.8735 29.3961 34.6271 31.2989 37.4973 34C38.488 32.0482 39.0027 29.8941 39 27.7103C39 18.7891 30.4905 11 19.9944 11C9.49822 11 1 18.7891 1 27.7103C1.00153 29.8933 1.51491 32.0462 2.49985 34C5.39262 31.2989 12.1377 29.3961 19.9944 29.3961Z"/><path fill="#42A6CC" d="M20.0042 29.4006C27.8796 29.4006 34.6235 31.2992 37.4988 34C38.487 32.0516 39.0011 29.8998 39 27.7178C39 18.8106 30.4925 11 19.9929 11C9.49335 11 1 18.8106 1 27.7178C1.00065 29.8996 1.51472 32.0509 2.50114 34C5.3934 31.302 12.1401 29.4006 19.9958 29.4006"/><path fill="#45A8CC" d="M19.9929 29.4125C27.8708 29.4125 34.6111 31.3103 37.5002 34C38.4895 32.0579 39.0035 29.9089 39 27.7296C39 18.8345 30.4911 11 19.9929 11C9.49475 11 1 18.8345 1 27.7268C0.999356 29.9066 1.51319 32.0559 2.49974 34C5.38886 31.3074 12.1377 29.4125 19.9929 29.4125Z"/><path fill="#47ABCF" d="M19.9929 29.4188C27.8709 29.4188 34.6085 31.3089 37.4993 34C38.4897 32.0595 39.0042 29.9092 39 27.7283C39 18.851 30.4893 11 19.9929 11C9.49645 11 1 18.8539 1 27.7283C0.998363 29.9089 1.51275 32.0586 2.50071 34C5.39149 31.3089 12.1461 29.4188 19.9901 29.4188"/><path fill="#4AADD1" d="M19.9943 30.423C27.8702 30.423 34.6112 32.3131 37.4954 35C38.4855 33.0675 39.0015 30.9224 39 28.7458C39 19.8767 30.4927 12 19.9943 12C9.49596 12 1 19.8882 1 28.743C1.00235 30.9191 1.51819 33.0632 2.50464 34.9971C5.38878 32.3131 12.1355 30.4201 19.9915 30.4201"/><path fill="#4AB0D1" d="M19.9929 29.6289C27.8678 29.6289 34.6076 31.4356 37.494 34C38.4848 32.1579 39.0015 30.1094 39 28.0303C39 19.56 30.489 12 19.9929 12C9.49673 12 1 19.56 1 28.0247C1.00251 30.1051 1.51901 32.1545 2.50597 34C5.3924 31.4356 12.1407 29.6289 19.9929 29.6289Z"/><path fill="#4FB2D4" d="M19.9928 29.6386C27.8674 29.6386 34.6122 31.4374 37.4983 34C38.4883 32.1572 39.0037 30.1061 39 28.0244C39 19.5758 30.4904 12 19.9928 12C9.49529 12 1 19.5758 1 28.0216C1.00185 30.0994 1.51808 32.1458 2.50456 33.986C5.39353 31.4235 12.1383 29.6246 19.9928 29.6246"/><path fill="#54BAD6" d="M19.9986 29.6429C27.8716 29.6429 34.6261 31.4417 37.4942 34C38.4852 32.1667 39.0024 30.1214 39 28.0447C39 19.6016 30.4902 12 19.9928 12C9.49543 12 1 19.6016 1 28.0418C1.00183 30.1186 1.51768 32.1637 2.5029 34C5.39399 31.4417 12.1399 29.6429 19.9986 29.6429Z"/><path fill="#54BDD6" d="M19.4888 29.6496C27.1588 29.6496 33.728 31.4444 36.5321 33.9971C37.4973 32.1701 38.0016 30.1281 38 28.0541C38 19.6268 29.7137 12 19.4888 12C9.26393 12 1 19.6268 1 28.0541C1.00109 30.1283 1.50427 32.1704 2.4651 34C5.26643 31.4359 11.8524 29.6524 19.5 29.6524"/><path fill="#59BFD9" d="M19.4902 29.6598C27.1558 29.6598 33.7235 31.4505 36.5314 34C37.4952 32.1772 37.9999 30.1372 38 28.0646C38 19.6486 29.7166 12 19.493 12C9.26933 12 1 19.6486 1 28.0588C1.00217 30.1327 1.50572 32.1737 2.46574 34C5.27366 31.4505 11.847 29.6598 19.493 29.6598"/><path fill="#59C2D9" d="M19.5 29.8637C27.1652 29.8637 33.7269 31.5691 36.5334 34C37.4971 32.2655 38.0015 30.3203 38 28.3437C38 20.3147 29.7183 13 19.4972 13C9.27602 13 1 20.3258 1 28.3382C1.00081 30.3159 1.50398 32.2621 2.46379 34C5.27876 31.5691 11.8433 29.8637 19.4859 29.8637"/><path fill="#5EC2DB" d="M20.4915 29.8657C28.1555 29.8657 34.7253 31.5735 37.5338 34C38.4965 32.2668 39.0008 30.3217 39 28.3447C39 20.3297 30.7157 13 20.4915 13C10.2673 13 2 20.3269 2 28.3419C2.00333 30.3192 2.50738 32.2643 3.46624 34C6.28593 31.5735 12.8502 29.8657 20.4944 29.8657"/><path fill="#63C4DB" d="M20.4943 29.8678C28.1603 29.8678 34.7279 31.5751 37.5317 34C38.4964 32.2694 39.0017 30.3236 39 28.3456C39 20.3308 30.7185 13 20.4943 13C10.2702 13 2 20.3336 2 28.3428C2.00392 30.3206 2.50779 32.2658 3.46543 34C6.289 31.5751 12.8481 29.8678 20.4943 29.8678Z"/><path fill="#69C7DE" d="M20.4915 29.8649C28.1596 29.8649 34.7249 31.5726 37.5326 34C38.4932 32.2729 38.9981 30.3303 39 28.3548C39 20.3387 30.7156 13 20.4915 13C10.2675 13 2 20.3387 2 28.352C2.00456 30.3268 2.50832 32.2685 3.46462 33.9972C6.27793 31.5726 12.8489 29.8621 20.4915 29.8621"/><path fill="#6EC9DE" d="M20.4943 29.8659C28.1616 29.8659 34.7303 31.5695 37.5334 34C38.4946 32.2727 38.9994 30.3277 39 28.3496C39 20.3369 30.7155 13 20.4915 13C10.2675 13 2 20.3398 2 28.3326C2.00175 30.3128 2.50546 32.2601 3.46381 33.9915C6.27816 31.5638 12.8469 29.8573 20.4915 29.8573"/><path fill="#73CCE0" d="M20.4915 29.8657C28.1467 29.8657 34.7273 31.58 37.5313 33.9971C38.4925 32.272 38.9982 30.327 39 28.3486C39 20.3486 30.7154 13 20.4915 13C10.2676 13 2 20.3428 2 28.3457C2.00463 30.3253 2.50907 32.2711 3.46583 34C6.27839 31.5714 12.8477 29.8686 20.4943 29.8686"/><path fill="#7ACFE0" d="M20.4957 30.8702C28.1621 30.8702 34.7296 32.5756 37.532 35C38.492 33.2761 38.9976 31.3309 39 29.3517C39 21.3451 30.7118 14 20.4901 14C10.2683 14 2 21.3509 2 29.3488C2.00412 31.3287 2.50955 33.2744 3.46796 35C6.27895 32.5756 12.8379 30.8702 20.5043 30.8702"/><path fill="#80CFE3" d="M20.4858 30.8643C28.1645 30.8643 34.7255 32.5701 37.5325 34.9971C38.4924 33.2753 38.998 31.3296 39 29.3496C39 21.3417 30.7127 14 20.4858 14C10.2589 14 2 21.3533 2 29.3496C2.00526 31.3297 2.50957 33.2752 3.46464 35C6.27732 32.573 12.8497 30.8672 20.5 30.8672"/><path fill="#85D1E3" d="M20.4972 30.0672C28.1618 30.0672 34.7279 31.6908 37.5314 34C38.4899 32.3631 38.9959 30.5116 39 28.6267C39 21.0025 30.7149 14 20.5 14C10.2852 14 2 21.0025 2 28.6184C2.00499 30.5054 2.50989 32.3592 3.46577 34C6.27492 31.6908 12.8581 30.0672 20.4915 30.0672"/><path fill="#8AD4E5" d="M20.4929 30.0698C28.1614 30.0698 34.7267 31.6927 37.5319 34C38.4904 32.3644 38.9965 30.5118 39 28.6257C39 21.0056 30.7157 14 20.4929 14C10.27 14 2 21.0056 2 28.6201C2.00464 30.5079 2.5106 32.3619 3.46814 34C6.27614 31.6927 12.85 30.0698 20.4957 30.0698"/><path fill="#8FD6E5" d="M20.4929 30.0596C28.1566 30.0596 34.7271 31.6825 37.53 33.9972C38.4883 32.364 38.9952 30.5117 39 28.6252C39 21.006 30.7226 14 20.4929 14C10.2631 14 2 21.0117 2 28.6252C2.006 30.5117 2.51066 32.3642 3.46425 34C6.27571 31.6909 12.8491 30.0624 20.4929 30.0624"/><path fill="#94D6E8" d="M20.4971 30.0679C28.1624 30.0679 34.7301 31.6888 37.5338 33.9915C38.4928 32.3592 38.9986 30.5049 39 28.6167C39 21.0042 30.7117 14 20.4971 14C10.2826 14 2 21.0297 2 28.6252C2.00519 30.5125 2.5097 32.3656 3.46331 34C6.27275 31.6945 12.8433 30.0735 20.4886 30.0735"/><path fill="#99D9E8" d="M20.4928 30.0701C28.1591 30.0701 34.7289 31.6917 37.5343 33.9943C38.4904 32.3658 38.9961 30.5143 39 28.6281C39 21.0134 30.7126 14 20.4928 14C10.2731 14 2 21.0162 2 28.6253C2.00512 30.5132 2.50859 32.3667 3.45996 34C6.2711 31.6945 12.8438 30.073 20.4928 30.073"/><path fill="#9EDBE8" d="M20.4928 31.0677C28.16 31.0677 34.7265 32.6882 37.5325 34.9914C38.488 33.3653 38.9944 31.5142 39 29.6279C39 22.0156 30.7138 15 20.4928 15C10.2719 15 2 22.0185 2 29.6279C2.00619 31.5165 2.51149 33.3699 3.46463 35C6.27353 32.7054 12.8458 31.0763 20.4928 31.0763"/><path fill="#A3DEEB" d="M20.4914 31.074C28.1583 31.074 34.7288 32.6946 37.5303 34.9971C38.4864 33.3726 38.9937 31.5205 39 29.6324C39 22.0258 30.713 15 20.4943 15C10.2755 15 2 22.0259 2 29.6295C2.00681 31.5186 2.51201 33.3719 3.46393 35C6.26835 32.6889 12.8474 31.074 20.4943 31.074"/><path fill="#A8DEED" d="M19.993 30.2719C27.4542 30.2719 33.8471 31.814 36.571 33.9972C37.4997 32.4563 37.9932 30.6974 38 28.9039C38 21.6742 29.9375 15 19.993 15C10.0485 15 2 21.6769 2 28.9011C2.00817 30.6954 2.49946 32.4553 3.42344 34C6.15567 31.8112 12.557 30.2719 19.993 30.2719Z"/><path fill="#B0E3ED" d="M19.993 30.2734C27.4506 30.2734 33.8441 31.8141 36.5718 33.9944C37.4995 32.4562 37.9929 30.6982 38 28.9052C38 21.6745 29.9375 15 19.993 15C10.0485 15 2 21.6745 2 28.9052C2.00678 30.6996 2.49909 32.4593 3.42544 34C6.15869 31.8141 12.555 30.2762 19.993 30.2734Z"/><path fill="#B5E3ED" d="M19.9944 30.2729C27.4535 30.2729 33.8442 31.8142 36.5727 33.9972C37.4986 32.4604 37.9918 30.702 38 28.9081C38 21.6808 29.938 15 19.9944 15C10.0508 15 2 21.6864 2 28.9025C2.00889 30.6986 2.50091 32.4592 3.42453 34C6.15579 31.8142 12.5549 30.2757 19.9944 30.2729Z"/><path fill="#BAE5F0" d="M20.0042 30.2762C27.462 30.2762 33.8555 31.8177 36.5708 34C37.4952 32.4671 37.9891 30.7109 38 28.9183C38 21.6881 29.9329 15 19.993 15C10.053 15 2 21.6938 2 28.9126C2.01015 30.7046 2.50205 32.4605 3.4236 33.9943C6.15568 31.8092 12.5549 30.2706 19.9902 30.2677"/><path fill="#BFE8F2" d="M19.9803 31.2745C27.4419 31.2745 33.8347 32.8147 36.5741 34.9972C37.4988 33.4643 37.9918 31.7055 38 29.9104C38 22.6895 29.9366 16 20 16C10.0634 16 2 22.6923 2 29.9076C2.00408 31.7023 2.4901 33.4624 3.40625 35C6.14 32.8175 12.5384 31.2773 19.9803 31.2773"/><path fill="#C4E8F2" d="M19.9958 31.2761C27.4548 31.2761 33.8467 32.8189 36.5696 34.9971C37.4962 33.4671 37.991 31.7075 38 29.9108C38 22.6892 29.9356 16 19.9958 16C10.056 16 2 22.6978 2 29.9108C2.01152 31.7072 2.50407 33.4666 3.42479 35C6.15894 32.8161 12.5593 31.279 19.9958 31.279"/><path fill="#C9EBF2" d="M19.9929 31.2784C27.4541 31.2784 33.8437 32.8178 36.5704 34.9971C37.4951 33.4697 37.9898 31.7111 38 29.9149C38 22.7081 29.9355 16 19.9929 16C10.0504 16 2 22.6994 2 29.9149C2.00676 31.7098 2.49437 33.4685 3.40988 35C6.14224 32.8178 12.5431 31.2784 19.9789 31.2784"/><path fill="#CFEDF5" d="M20.0014 31.2778C27.4625 31.2778 33.8613 32.8137 36.5875 34.9971C37.5038 33.4691 37.9925 31.711 38 29.9161C38 22.7011 29.9316 16 19.9873 16C10.043 16 2 22.704 2 29.9132C2.00805 31.7098 2.49672 33.4696 3.41254 35C6.14722 32.8166 12.5517 31.2807 19.9929 31.2778"/><path fill="#D4F0F5" d="M19.9986 30.4737C27.4617 30.4737 33.8611 31.9308 36.5855 33.9945C37.5024 32.5506 37.9921 30.8858 38 29.1856C38 22.349 29.9286 16 19.9873 16C10.0459 16 2 22.3573 2 29.1828C2.00868 30.8856 2.49825 32.5528 3.41454 34C6.14743 31.9335 12.5525 30.4792 19.9958 30.4765"/><path fill="#D9F2F5" d="M20.0071 30.4776C27.4631 30.4776 33.86 31.9346 36.5841 33.9972C37.5006 32.5551 37.9909 30.8897 38 29.1881C38 22.3582 29.9352 16 19.9957 16C10.0563 16 2 22.3582 2 29.1853C2.00755 30.8889 2.49795 32.5565 3.41587 34C6.14285 31.9346 12.5483 30.4804 19.9873 30.4776"/><path fill="#DEF2F7" d="M20.0043 30.477C27.4651 30.477 33.8598 31.9335 36.5821 33.9972C37.4998 32.559 37.9911 30.8939 38 29.1921C38 22.3627 29.9323 16 19.9929 16C10.0536 16 2 22.3627 2 29.1865C2.00945 30.8909 2.50066 32.5585 3.41788 34C6.15156 31.9363 12.5519 30.4798 19.9901 30.4798"/><path fill="#E5F5FA" d="M19.9972 31.4696C27.4591 31.4696 33.8558 32.9236 36.5798 34.983C37.4983 33.5451 37.9906 31.8782 38 30.174C38 23.3593 29.9331 17 19.9915 17C10.0499 17 2 23.3678 2 30.1909C2.01127 31.8949 2.50341 33.5613 3.42023 35C6.14991 32.9378 12.5552 31.4866 19.9943 31.4837"/><path fill="#EBF7FA" d="M20.0014 31.481C27.4608 31.481 33.8565 32.9366 36.5781 34.9971C37.4956 33.5635 37.9887 31.8978 38 30.1939C38 23.3701 29.9321 17 19.9957 17C10.0594 17 2 23.3729 2 30.191C2.01284 31.8965 2.50576 33.5636 3.42191 35C6.15199 32.9366 12.5563 31.481 19.9957 31.481"/><path fill="#F0FAFC" d="M19.9986 31.4834C27.4572 31.4834 33.8535 32.9412 36.5761 34.9971C37.4935 33.5659 37.9875 31.9 38 30.1952C38 23.3719 29.932 17 19.9929 17C10.0538 17 2 23.3748 2 30.1923C2.01424 31.8987 2.50803 33.5659 3.42394 35C6.1522 32.9383 12.5599 31.4834 19.9986 31.4805"/><path fill="#F5FAFC" d="M19.9957 31.4823C27.4535 31.4823 33.8533 32.9311 36.574 34.9942C37.4897 33.5665 37.9844 31.9026 38 30.1986C38 23.3777 29.9319 17 19.9929 17C10.0539 17 2 23.3748 2 30.1928C2.01594 31.9004 2.51059 33.5679 3.42597 35C6.15527 32.9369 12.5522 31.4823 20.0014 31.4823"/><path fill="#FAFCFF" d="M19.9829 30.691C27.4429 30.691 33.8457 32.0697 36.5714 34C37.4878 32.6522 37.9837 31.0787 38 29.4667C38 23.0279 29.9314 17 20 17C10.0686 17 2 23.0307 2 29.4639C2.01611 31.0768 2.51197 32.6513 3.42857 34C6.16 32.0532 12.5714 30.691 20 30.691"/><path fill="#fff" d="M19.9871 30.68C27.4468 30.68 33.8399 32.0552 36.5704 33.9972C37.4859 32.653 37.9823 31.0805 38 29.4687C38 23.0288 29.9342 17 19.9871 17C10.04 17 2 23.0371 2 29.4659C2.01467 31.0799 2.5113 32.655 3.42959 34C6.15726 32.0552 12.559 30.6828 19.9957 30.68"/></g><path fill="#0869AB" d="M20.5014 25C14 25 7.96581 26.0806 3 27.9076C4.5101 31.2107 6.96614 34.0158 10.0715 35.9842C13.177 37.9526 16.7989 39 20.5 39C24.2011 39 27.823 37.9526 30.9284 35.9842C34.0338 34.0158 36.4899 31.2107 38 27.9076C33.0228 26.0806 26.9858 25 20.5014 25Z"/><path fill="#0062AC" d="M204.826 31C203.047 31 201.317 31 199.602 31C199.258 31 199.242 30.7741 199.17 30.5794L195.244 19.72C195.135 19.3803 194.981 19.0556 194.787 18.754C193.981 22.8256 193.18 26.8998 192.384 30.9766H187C187.328 29.3485 187.649 27.736 187.969 26.1312C189.011 20.9378 190.047 15.721 191.078 10.4809C191.15 10.0914 191.31 9.99792 191.695 10.0057C193.185 10.0057 194.675 10.0057 196.165 10.0057C196.316 9.98499 196.468 10.0211 196.592 10.1066C196.716 10.1921 196.801 10.3205 196.83 10.4653C198.176 14.2409 199.528 18.0165 200.884 21.7921C200.94 21.9557 201.02 22.1193 201.133 22.3998C201.341 21.3481 201.541 20.4288 201.725 19.5018L203.536 10.4264C203.576 10.1927 203.616 10.0135 203.945 10.0135C205.547 10.0135 207.149 10.0135 208.752 10.0135C208.834 10.0085 208.917 10.0085 209 10.0135L204.826 31Z"/><path fill="#0062AC" d="M155.639 18.0845C156.632 18.1374 157.627 18.1374 158.62 18.0845C159.162 17.9971 159.671 17.7598 160.091 17.3985C160.407 17.1479 160.638 16.8017 160.75 16.4096C160.861 16.0175 160.848 15.5995 160.711 15.2156C160.451 14.436 159.7 14.319 158.987 14.2956C158.275 14.2722 157.455 14.2956 156.689 14.2956C156.451 14.2956 156.313 14.3424 156.267 14.6153C156.061 15.7847 155.838 16.9541 155.616 18.1235M153.969 26.6992C154.063 26.7048 154.158 26.7048 154.252 26.6992C155.187 26.6992 156.122 26.6992 157.049 26.6992C157.334 26.6905 157.617 26.646 157.892 26.5667C158.49 26.4205 159.018 26.0628 159.382 25.5573C159.745 25.0519 159.92 24.4315 159.876 23.8068C159.884 23.514 159.801 23.2261 159.641 22.983C159.48 22.74 159.249 22.5538 158.98 22.4503C158.645 22.3114 158.291 22.2272 157.93 22.2008C157.011 22.154 156.091 22.2008 155.179 22.154C154.896 22.154 154.796 22.271 154.75 22.5282C154.566 23.5573 154.367 24.5786 154.168 25.5999L153.969 26.6914M162.458 19.5424C162.527 19.597 162.55 19.6359 162.596 19.6437C163.519 20.0373 164.269 20.7594 164.706 21.6748C165.143 22.5903 165.237 23.6365 164.972 24.6176C164.802 25.7515 164.371 26.8284 163.713 27.7595C163.055 28.6907 162.189 29.4495 161.186 29.9735C159.872 30.6299 158.429 30.9737 156.965 30.9792C154.045 31.026 151.134 30.9792 148.215 30.9792C148.143 30.9837 148.071 30.9837 148 30.9792C148.268 29.5681 148.529 28.1648 148.766 26.7616C149.788 21.3355 150.822 15.9094 151.869 10.4834C151.923 10.1871 151.969 10 152.352 10C155.049 10 157.716 10 160.436 10.0468C161.581 10.031 162.717 10.2511 163.776 10.6938C164.551 11.0068 165.191 11.5889 165.584 12.3367C165.977 13.0846 166.096 13.9499 165.922 14.7789C165.839 15.78 165.491 16.7394 164.913 17.5539C164.335 18.3685 163.55 19.0074 162.642 19.4021C162.573 19.4021 162.52 19.4878 162.443 19.5424"/><path fill="#0062AC" d="M225.695 31C223.844 31 222.054 31 220.263 31C220.126 31 219.934 30.7976 219.873 30.642C218.856 28.1202 217.861 25.5829 216.859 23.0534C216.805 22.9133 216.737 22.7732 216.637 22.5397C215.872 23.3181 215.107 24.0964 214.388 24.8747C214.207 25.2287 214.108 25.6199 214.097 26.0188C213.799 27.5754 213.524 29.132 213.217 30.6497C213.217 30.7898 213.011 30.9922 212.904 31C211.29 31 209.675 31 208 31C208.176 30.0582 208.344 29.1554 208.513 28.2525C209.64 22.3374 210.767 16.417 211.894 10.4915C211.963 10.1335 212.085 10.0167 212.445 10.0245C213.852 10.0245 215.26 10.0245 216.668 10.0245H217.157L215.704 17.543L216.178 17.0838C218.351 14.8422 220.531 12.6007 222.696 10.3514C222.8 10.2345 222.928 10.1426 223.071 10.082C223.214 10.0214 223.368 9.99385 223.522 10.0011C225.152 10.0011 226.781 10.0011 228.411 10.0011C228.564 10.0011 228.717 10.0011 228.87 10.0011L229 10.1724C228.842 10.2451 228.693 10.3366 228.556 10.4448C226.006 12.9977 223.456 15.5531 220.906 18.1111C220.778 18.2104 220.691 18.3545 220.661 18.5156C220.631 18.6766 220.661 18.8431 220.745 18.9829C222.326 22.781 223.897 26.5818 225.458 30.3852C225.527 30.5486 225.588 30.712 225.68 30.9455"/><path fill="#0062AC" d="M178.58 22.4689C178.419 20.1861 178.258 17.9268 178.106 15.6674H178.017L174.803 22.4767L178.58 22.4689ZM182.469 10.0033C183.313 17.0152 184.148 23.9492 185 30.9533H179.174C179.054 29.5665 178.941 28.1796 178.829 26.7383H178.266C176.659 26.7383 174.972 26.7383 173.333 26.7383C173.154 26.7216 172.974 26.7674 172.827 26.8674C172.68 26.9673 172.574 27.1149 172.529 27.2837C172.031 28.4212 171.501 29.5431 170.922 30.6728C170.858 30.8052 170.697 31 170.577 31C168.736 31 166.896 31 165 31C165.088 30.813 165.145 30.665 165.217 30.5248C168.699 23.8401 172.181 17.1554 175.663 10.4708C175.715 10.3225 175.817 10.1956 175.953 10.1108C176.088 10.0259 176.25 9.98801 176.41 10.0033C178.258 10.0033 180.098 10.0033 181.947 10.0033H182.469Z"/><path fill="#0062AC" d="M69.7363 9L64.9282 21.4643L62.9719 9H58.7609L52.0673 21.3706L52.0516 9H47.0079L47 31H52.1773L59.2402 18.0593L61.3535 31H66.4837L75 9H69.7363Z"/><path fill="#0062AC" d="M81.412 27.5824C81.0886 27.6105 80.763 27.5658 80.4602 27.4517C80.1574 27.3375 79.8854 27.157 79.6653 26.9241C79.0967 26.25 78.5849 24.6241 79.3648 20.6824C80.3315 15.781 82.0375 13.4097 84.5965 13.4097C84.9161 13.3828 85.2377 13.4283 85.5364 13.5424C85.835 13.6566 86.1028 13.8364 86.3187 14.0679C86.8955 14.75 87.4154 16.3758 86.6356 20.3176C85.6688 25.211 83.9628 27.5824 81.4038 27.5824M85.0758 9C78.8205 9 74.8967 12.8069 73.4181 20.3176C72.6058 24.6162 72.9632 27.6617 74.6123 29.6207C75.9528 31.2069 78.0731 32 80.9245 32C87.1798 32 91.1036 28.1931 92.5822 20.6903C93.3946 16.3917 93.0371 13.3541 91.3798 11.3872C90.0394 9.80099 87.9272 9.00789 85.0839 9.00789"/><path fill="#0062AC" d="M100.981 27.5824C100.674 27.6099 100.364 27.5649 100.077 27.4508C99.7895 27.3367 99.5313 27.1566 99.3219 26.9241C98.7819 26.25 98.2959 24.6241 99.0365 20.6824C99.9545 15.781 101.582 13.4097 104.005 13.4097C104.309 13.3822 104.616 13.4273 104.901 13.5415C105.186 13.6556 105.442 13.8358 105.648 14.0679C106.196 14.75 106.689 16.3758 105.949 20.3176C105.031 25.211 103.411 27.5824 100.981 27.5824ZM104.468 9C98.5273 9 94.8011 12.8069 93.3971 20.3176C92.6256 24.6162 92.9651 27.6617 94.5311 29.6207C95.804 31.2069 97.8175 32 100.525 32C106.466 32 110.192 28.1931 111.604 20.6903C112.375 16.3917 112.036 13.3541 110.454 11.3872C109.181 9.80099 107.175 9.00789 104.475 9.00789"/><path fill="#0062AC" d="M134.216 9L130 31H135.784L140 9H134.216Z"/><path fill="#0062AC" d="M120.819 13.0802C122.214 13.0802 125.544 11.9543 124.974 15.9573C124.403 19.9604 119.624 19.4444 119.624 19.4444L120.819 13.0802ZM125.614 22.3216C128.25 20.8126 130 17.8728 130 14.0809C130 8.46727 123.401 9.01457 123.401 9.01457H116.564L112 30.9062H117.111L118.599 23.4161H120.595C121.011 23.4696 121.394 23.6712 121.676 23.9849C121.959 24.2985 122.122 24.7038 122.137 25.1284C122.337 27.0986 122.63 31 122.63 31H127.757C127.757 31 127.302 25.6444 127.171 24.8391C127.144 24.3174 126.989 23.8109 126.72 23.3657C126.451 22.9204 126.076 22.5507 125.629 22.2903"/></g><defs><clipPath id="clip0_5_7791"><rect width="229" height="40" fill="#fff"/></clipPath></defs></svg>