<svg width="347" height="347" viewBox="0 0 347 347" fill="none" xmlns="http://www.w3.org/2000/svg">
<path fill-rule="evenodd" clip-rule="evenodd" d="M95.7647 205.49L60.1177 241.137C47.621 253.634 47.621 273.895 60.1177 286.392C72.6145 298.889 92.8758 298.889 105.373 286.392L141.49 250.274V205.49H95.7647ZM250.274 141.49L286.392 105.373C298.889 92.8758 298.889 72.6146 286.392 60.1178C273.895 47.621 253.634 47.621 241.137 60.1178L205.49 95.7645V141.49H250.274Z" fill="#4ACA3F"/>
<path fill-rule="evenodd" clip-rule="evenodd" d="M141.02 95.7651L105.373 60.1181C92.8758 47.6213 72.6145 47.6213 60.1177 60.1181C47.621 72.6148 47.621 92.8761 60.1177 105.373L96.2355 141.491H141.02V95.7651ZM205.02 250.275L241.137 286.392C253.634 298.889 273.895 298.889 286.392 286.392C298.889 273.895 298.889 253.634 286.392 241.137L250.745 205.491H205.02V250.275Z" fill="#E94646"/>
<path fill-rule="evenodd" clip-rule="evenodd" d="M95.6673 141.255L45.2548 141.255C27.5817 141.255 13.2548 155.582 13.2548 173.255C13.2548 190.928 27.5817 205.255 45.2548 205.255H96.333L128 173.588L95.6673 141.255ZM250.177 205.255H301.255C318.928 205.255 333.255 190.928 333.255 173.255C333.255 155.582 318.928 141.255 301.255 141.255H250.843L218.51 173.588L250.177 205.255Z" fill="#FB7B05"/>
<path fill-rule="evenodd" clip-rule="evenodd" d="M205.255 95.6672L205.255 45.2547C205.255 27.5816 190.928 13.2547 173.255 13.2547C155.582 13.2547 141.255 27.5816 141.255 45.2547V96.3329L172.922 128L205.255 95.6672ZM141.255 250.177V301.255C141.255 318.928 155.582 333.255 173.255 333.255C190.928 333.255 205.255 318.928 205.255 301.255V250.843L172.922 218.51L141.255 250.177Z" fill="#4180E9"/>
</svg>
