<svg width="309" height="312" viewBox="0 0 309 312" fill="none" xmlns="http://www.w3.org/2000/svg">
<rect x="93" y="277.128" width="320" height="64" rx="32" transform="rotate(-60 93 277.128)" fill="#E94646"/>
<rect x="93" y="277.276" width="192" height="64" rx="32" transform="rotate(-60 93 277.276)" fill="#4180E9"/>
<path d="M22.6274 152.627C35.1242 140.13 55.3855 140.13 67.8822 152.627L158.392 243.136C170.889 255.633 170.889 275.894 158.392 288.391C145.895 300.888 125.634 300.888 113.137 288.391L22.6274 197.881C10.1306 185.385 10.1306 165.123 22.6274 152.627Z" fill="#FB7B05"/>
<path d="M90.6274 220.626C103.124 208.129 123.385 208.129 135.882 220.626L158.51 243.253C171.006 255.75 171.006 276.011 158.51 288.508C146.013 301.005 125.752 301.005 113.255 288.508L90.6274 265.881C78.1306 253.384 78.1306 233.123 90.6274 220.626Z" fill="#4ACA3F"/>
</svg>
